<?xml version="1.0" standalone="no"?>
<!DOCTYPE svg PUBLIC "-//W3C//DTD SVG 1.1//EN" "http://www.w3.org/Graphics/SVG/1.1/DTD/svg11.dtd" >
<svg xmlns="http://www.w3.org/2000/svg">
<metadata>
Created by FontPrep 20130207 at Mon Feb 24 11:36:03 2014
 By Daniel Butler
(c) 1989, 1999, 2000 Adobe Systems Incorporated. All rights reserved.
</metadata>
<defs>
<font id="8533b8ff4f18ac8f5cb4208583e747f1" horiz-adv-x='1024' >
  <font-face 
    font-family="TrajanPro-Bold"
    font-weight="700"
    font-stretch="normal"
    units-per-em="2048"
    panose-1="2 2 8 2 5 5 6 2 3 1"
    ascent="1536"
    descent="-512"
    x-height="1311"
    cap-height="1542"
    bbox="-508.125 -582 3129 2017.03"
    underline-thickness="102"
    underline-position="-102"
    unicode-range="U+0020-FB02"
  />
<missing-glyph horiz-adv-x="1024" 
d="M102 1239v-1044l349 522zM164 102h696l-348 523zM573 717l349 -522v1044zM512 809l348 522h-696zM0 0v1434h1024v-1434h-1024z" />
    <glyph glyph-name=".notdef" horiz-adv-x="1024" 
d="M102 1239v-1044l349 522zM164 102h696l-348 523zM573 717l349 -522v1044zM512 809l348 522h-696zM0 0v1434h1024v-1434h-1024z" />
    <glyph glyph-name=".null" horiz-adv-x="0" 
 />
    <glyph glyph-name="nonmarkingreturn" horiz-adv-x="681" 
 />
    <glyph glyph-name="space" unicode=" " horiz-adv-x="614" 
 />
    <glyph glyph-name="exclam" unicode="!" horiz-adv-x="655" 
d="M324 336q-25 0 -31 74q-39 461 -51 557q-22 324 -53 397q-7 18 -7 30t11 27q63 80 184 129q45 20 78 21q18 0 18 -27q0 -6 -13 -95t-58 -554q-44 -465 -48 -494q-5 -65 -30 -65zM326 -35q-53 0 -82 35t-29 79t30 81t82 37t85 -30q32 -30 32 -80t-32 -86t-86 -36z" />
    <glyph glyph-name="quotedbl" unicode="&#x22;" horiz-adv-x="737" 
d="M514 1546q57 0 81 -5t23 -25q0 -8 -13 -52q-46 -158 -62 -338q-13 -102 -29 -102t-29 102q-17 197 -62 337q-13 44 -13 53q0 20 23 25q24 5 81 5zM223 1546q57 0 81 -5t24 -25q0 -8 -14 -52q-44 -144 -62 -338q-12 -102 -28 -102t-32 150q-15 150 -60 289q-13 44 -13 53
q0 20 23 25q24 5 81 5z" />
    <glyph glyph-name="numbersign" unicode="#" horiz-adv-x="1228" 
d="M805 942h-307l-49 -307h313zM1169 942h-241l-45 -307h229v-166h-252l-67 -469h-121l63 469h-311l-70 -469h-123l72 469h-244v166h267l47 307h-252v168h274l66 434h125l-68 -434h309l64 434h123l-64 -434h219v-168z" />
    <glyph glyph-name="dollar" unicode="$" horiz-adv-x="1228" 
d="M690 637l-55 -543q102 6 169 79t66 183q0 158 -180 281zM633 973l55 495q-76 0 -131 -32q-108 -63 -106 -197q0 -76 46 -134t136 -132zM197 169q0 77 30 210q11 49 29 49t16 -55q-8 -113 68 -196t192 -83l66 604q-180 136 -257 242t-77 246q0 174 137 271t297 97l21 164
q2 14 22 19l62 14q20 5 16 -10l-24 -187q125 0 225 -38q23 -8 29 -18t6 -76q0 -67 -25 -183q-6 -29 -24 -29t-19 39q-6 153 -129 202q-43 17 -72 17l-63 -555q172 -115 256 -225t84 -266q0 -90 -31 -165t-78 -121q-139 -136 -333 -136l-19 -166q-2 -12 -20 -16l-64 -13
q-8 -3 -12 3t-2 18l20 174q-150 0 -258 43q-45 17 -57 33t-12 93z" />
    <glyph glyph-name="percent" unicode="%" horiz-adv-x="1777" 
d="M449 852q89 0 142 81q52 81 52 207t-56 225q-57 99 -147 99t-139 -83t-49 -207t54 -223t143 -99zM817 1174q0 -158 -96 -275q-97 -117 -279 -117t-274 111t-92 259t98 266t289 118q266 0 516 24t268 23q19 0 19 -5t-23 -62l-588 -1500q-8 -22 -20 -24l-129 -17
q-20 -2 -25 3q-4 5 4 24q158 353 401 913q243 561 251 578q-293 -25 -451 -33v-4q55 -32 93 -110t38 -172zM1332 70q89 0 142 81q52 81 52 207t-56 224q-56 100 -147 100q-90 0 -139 -83t-49 -207t54 -223t143 -99zM1331 752q183 0 277 -111t94 -259t-96 -266
q-96 -116 -280 -116q-183 0 -275 111q-93 111 -93 260t94 265t279 116z" />
    <glyph glyph-name="ampersand" unicode="&#x26;" horiz-adv-x="1699" 
d="M758 94q104 0 198 41t138 82q-209 180 -373 357t-215 251q-141 -105 -141 -301q1 -196 115 -313t278 -117zM846 1571q141 0 248 -43q35 -12 34 -53q0 -150 -22 -263q-4 -35 -25 -34q-14 0 -14 39q0 102 -59 172q-76 92 -228 92q-80 -1 -150 -59t-69 -175q0 -75 49 -182
q16 -35 62 -94t65 -82q18 -23 84 -93t80 -87q78 -88 361 -342q37 51 67 140q31 89 31 163t-36 105q-36 32 -103 32q-25 0 -25 18t33 19q113 0 246 -15q70 -8 69 -41q0 -116 -55 -248t-146 -237q247 -205 402 -251q71 -22 101 -22t30 -18t-61 -18h-158q-176 0 -264 29
t-219 129q-52 -47 -96 -79t-152 -70t-252 -38q-142 0 -258 45t-178 116q-119 139 -119 296q0 158 108 291q109 133 226 190q-99 135 -103 283t123 267q127 118 373 118z" />
    <glyph glyph-name="quotesingle" unicode="'" horiz-adv-x="446" 
d="M223 1546q57 0 81 -5t24 -25q0 -8 -14 -52q-44 -144 -62 -338q-12 -102 -28 -102t-32 150q-15 150 -60 289q-13 44 -13 53q0 20 23 25q24 5 81 5z" />
    <glyph glyph-name="parenleft" unicode="(" horiz-adv-x="737" 
d="M315 657q0 -502 283 -862q16 -23 16 -31q0 -14 -16 -14q-6 0 -48 30t-114 104q-319 332 -319 747q0 155 52 311t130 270q150 218 276 304q15 12 27 12t12 -14t-12 -25q-96 -113 -192 -345t-95 -487z" />
    <glyph glyph-name="parenright" unicode=")" horiz-adv-x="737" 
d="M422 621q0 502 -283 862q-16 23 -16 33t11 12q12 0 54 -30t114 -104q317 -332 319 -747q-1 -155 -53 -311q-83 -247 -279 -460q-119 -126 -155 -126q-12 0 -11 14q0 14 12 25q95 113 191 345t96 487z" />
    <glyph glyph-name="asterisk" unicode="*" horiz-adv-x="778" 
d="M333 1201q-36 -97 -36 -126q0 -16 -35 -16t-81 19q-46 18 -46 32t21 37q14 20 91 86t99 78q6 6 6 12t-40 12t-110 -1t-79 -7q-8 0 -15 53q-8 53 -8 81t5 33t34 5t110 -55t107 -84q6 -6 15 -2q2 4 -1 40t-37 114t-34 85q0 17 59 37t86 20t27 -22q0 -58 -36 -162t-33 -109
t12 -3q74 23 186 121q14 20 28 20t31 -61q18 -61 19 -97q0 -14 -21 -16q-2 -2 -98 -1q-95 1 -117 3t-30 -2q-15 -15 70 -80q84 -65 108 -71t24 -21q0 -20 -52 -63t-68 -43t-35 28q-45 100 -72 211q-6 12 -12 12t-42 -97z" />
    <glyph glyph-name="plus" unicode="+" horiz-adv-x="1124" 
d="M1042 457h-415v-418h-131v418h-414v125h414v417h131v-417h415v-125z" />
    <glyph glyph-name="comma" unicode="," horiz-adv-x="512" 
d="M158 -211q59 102 59 182t-64 144q-22 20 -22 30q0 51 52 97t102 45q12 0 20 -9q8 -8 42 -58t34 -89t-27 -100q-76 -172 -161 -273q-29 -24 -34 -24t-12 6q-6 6 -6 14z" />
    <glyph glyph-name="hyphen" unicode="-" horiz-adv-x="870" 
d="M154 645h581q66 0 66 -29q-1 -20 -21 -27t-71 -18q-82 -12 -282 -48q-199 -36 -233 -46t-65 -23t-39 -14q-25 0 -16 37l30 141q4 18 14 22t36 5z" />
    <glyph glyph-name="period" unicode="." horiz-adv-x="512" 
d="M253 0q-58 0 -90 38t-32 85t33 87t89 40t92 -33t36 -87t-35 -92t-93 -38z" />
    <glyph glyph-name="slash" unicode="/" horiz-adv-x="1110" 
d="M109 -39l-72 47q-14 8 0 35l934 1516q12 20 28 10l74 -45q14 -6 2 -25l-940 -1526q-12 -20 -26 -12z" />
    <glyph glyph-name="zero" unicode="0" horiz-adv-x="1228" 
d="M905 735q0 413 -137 629q-74 115 -188 115t-185 -170q-72 -170 -71 -508q0 -422 133 -629q74 -115 180 -115q123 1 195 189t73 489zM84 723q0 517 239 733q126 115 308 115q117 0 209 -48t148 -124q157 -213 157 -593q1 -380 -143 -610t-404 -231q-115 0 -207 51
t-148 131q-159 227 -159 576z" />
    <glyph glyph-name="one" unicode="1" horiz-adv-x="1228" 
d="M256 13q0 19 16 20q194 0 228 50t28 533l-2 326v268q0 52 -8 63t-23 11q-36 0 -142 -53t-123 -53t-17 19t12 27t196 126q184 119 254 170q71 51 85 51q25 0 24 -43q0 -10 -6 -154t-6 -379v-379q0 -371 6 -442t22 -95q30 -46 197 -46q18 0 19 -21q0 -18 -33 -18l-342 6
l-350 -6q-35 0 -35 19z" />
    <glyph glyph-name="two" unicode="2" horiz-adv-x="1228" 
d="M205 1165q-31 0 -31 287q0 25 25 41q152 78 389 78t366 -122t129 -314q0 -146 -91 -325q-59 -116 -222 -289q-97 -103 -391 -341q-8 -6 -6 -10t10 -4h139q262 0 352 12q193 23 234 182q8 33 24 33t17 -32q0 -31 -22 -139q-21 -108 -35 -155t-48 -57t-133 -10h-802
q-10 0 -20 8q-9 8 -9 22t28 40q28 24 120 106q193 169 295 280q101 111 129 158q28 48 66 111t68 160t29 206q0 296 -192 367q-43 16 -88 17q-137 0 -218 -74q-35 -35 -61 -94t-25 -101q0 -42 -26 -41z" />
    <glyph glyph-name="three" unicode="3" horiz-adv-x="1228" 
d="M119 72q0 295 37 295q18 0 18 -29q0 -109 81 -191q81 -81 235 -81t258 88t104 262q0 96 -39 173q-62 123 -209 185q-52 23 -108 33t-56 33q0 24 39 30q80 13 190 91q54 39 90 107t36 154q0 85 -67 168t-197 83q-130 1 -212 -63t-81 -155q0 -31 -19 -30q-14 0 -16 28
q-14 115 -15 205q0 27 29 39q168 74 334 74q303 0 411 -117q82 -91 82 -186q0 -132 -104 -234t-195 -135v-4q128 -29 239 -121q56 -47 91 -121t35 -161q0 -221 -178 -374t-469 -153q-223 0 -309 49q-35 18 -35 58z" />
    <glyph glyph-name="four" unicode="4" horiz-adv-x="1228" 
d="M711 563v633h-6q-256 -367 -457 -633h463zM711 403h-629q-51 0 -51 31q0 20 17 42q18 22 408 536q390 516 410 538t42 21q22 0 22 -35l-2 -307v-666h157q33 0 64 10l31 11q18 0 18 -20t-12 -67q-12 -48 -24 -71t-54 -23h-180q0 -180 5 -240t22 -86q29 -44 157 -44
q18 1 18 -19t-32 -20l-289 6l-281 -6q-33 0 -32 18q0 20 16 21q47 0 98 6t71 35q19 29 25 89t5 240z" />
    <glyph glyph-name="five" unicode="5" horiz-adv-x="1228" 
d="M169 30q-7 16 -7 182q0 165 32 165q16 0 17 -35q0 -274 278 -274q137 0 238 94q100 94 100 280q0 115 -56 209q-56 93 -143 149q-165 106 -319 128q-39 6 -37 41l47 540q2 27 39 27h502q92 0 123 7q30 7 33 7q20 0 20 -39q0 -94 -26 -262q-4 -25 -23 -24q-16 1 -16 41
t-34 69t-146 29h-373l-29 -250q258 -42 452 -170q103 -68 165 -172t61 -220q0 -116 -40 -217q-92 -227 -330 -319q-135 -52 -277 -51q-142 0 -219 37q-25 12 -32 28z" />
    <glyph glyph-name="six" unicode="6" horiz-adv-x="1228" 
d="M618 -35q-236 0 -385 158q-149 159 -149 445t214 572t546 419q26 12 48 12q22 1 22 -17t-74 -59t-162 -127q-338 -330 -338 -817q0 -197 83 -347t228 -149q113 0 186 87q73 88 73 272t-88 289q-87 105 -201 106q-74 0 -141 -25q-7 -2 -11 -2q-16 0 -16 18t22 34
q104 74 266 73q199 0 309 -129t109 -286q-1 -233 -153 -380t-388 -147z" />
    <glyph glyph-name="seven" unicode="7" horiz-adv-x="1228" 
d="M471 1536h655q49 0 50 -16q0 -18 -15 -37q-127 -180 -312 -650t-208 -667v-76q0 -31 -95 -78t-163 -47q-29 0 -29 32q0 110 211 568q211 457 406 783h-531q-137 0 -192 -37q-25 -15 -44 -55q-20 -40 -24 -68t-20 -27q-16 0 -16 38t15 181t15 148q0 29 21 28q2 0 12 -2
q90 -18 264 -18z" />
    <glyph glyph-name="eight" unicode="8" horiz-adv-x="1228" 
d="M854 1239q0 113 -64 179t-174 65q-110 0 -174 -73t-63 -167t65 -165t209 -152q201 90 201 313zM317 379q0 -135 87 -227t211 -92t207 84q83 85 83 236t-148 266q-90 70 -198 130q-242 -139 -242 -397zM608 -35q-240 0 -381 108t-141 281q0 174 105 290t272 181
q-297 154 -297 375q0 129 110 245q54 56 152 91t223 35q190 0 305 -83q115 -82 115 -228t-94 -242t-207 -139q74 -41 123 -72t115 -88q135 -117 135 -303q1 -186 -147 -318t-388 -133z" />
    <glyph glyph-name="nine" unicode="9" horiz-adv-x="1228" 
d="M613 1571q239 0 376 -158t137 -399q0 -164 -55 -318t-137 -266t-188 -211q-179 -165 -375 -258q-15 -8 -35 -8t-20 17t24 38q180 108 344 339q84 118 136 278t52 331q0 256 -91 390t-210 133q-119 0 -187 -86t-69 -207q0 -121 32 -203t79 -122q85 -73 175 -74t143 34
q17 11 24 13q16 0 16 -19q0 -12 -10 -22q-88 -95 -280 -95t-300 123t-108 273q0 209 144 343t383 134z" />
    <glyph glyph-name="colon" unicode=":" horiz-adv-x="512" 
d="M252 754q-57 0 -89 39t-32 86t32 86t89 39t93 -33t36 -87t-36 -92t-93 -38zM253 311q56 -1 92 -33t36 -86t-35 -92t-93 -39q-58 0 -90 38t-32 85t33 87t89 40z" />
    <glyph glyph-name="semicolon" unicode=";" horiz-adv-x="512" 
d="M252 754q-57 0 -89 38t-32 85t32 87t89 40t93 -33t36 -87t-36 -92t-93 -38zM217 -24q0 99 -64 159q-22 21 -22 31q0 51 52 96t102 45q12 0 20 -9q8 -8 42 -58t34 -88t-27 -101q-76 -172 -161 -272q-29 -25 -34 -25t-12 6q-6 6 -6 15l17 35q59 102 59 166z" />
    <glyph glyph-name="less" unicode="&#x3c;" horiz-adv-x="1124" 
d="M1042 39l-960 410v143l960 409v-137l-804 -344l804 -344v-137z" />
    <glyph glyph-name="equal" unicode="=" horiz-adv-x="1124" 
d="M1042 262h-960v125h960v-125zM1042 649h-960v125h960v-125z" />
    <glyph glyph-name="greater" unicode="&#x3e;" horiz-adv-x="1124" 
d="M1042 449l-960 -410v137l805 344l-805 344v137l960 -409v-143z" />
    <glyph glyph-name="question" unicode="?" horiz-adv-x="1089" 
d="M473 -35q-53 0 -82 35t-29 79t30 81t82 37t85 -30t33 -80t-33 -86t-86 -36zM513 1571q225 0 329 -95t104 -212q0 -155 -78 -266t-159 -197q-81 -85 -111 -121q-104 -123 -104 -181q0 -57 24 -93t25 -48q0 -16 -21 -16q-22 0 -108 69t-86 121t30 92t76 95q153 179 202 292
q48 113 48 215t-58 179q-58 76 -188 76t-194 -83t-70 -167q-4 -41 -18 -41t-22 33t-7 233q0 18 23 33q137 82 363 82z" />
    <glyph glyph-name="at" unicode="@" horiz-adv-x="1847" 
d="M1020 975q-168 0 -250 -193q-55 -129 -55 -262t39 -133q82 0 274 266q45 184 86 293q-37 29 -94 29zM651 242q-77 0 -109 53t-32 119q0 297 240 497q63 51 159 99q95 48 157 49q62 0 116 -17q45 51 100 68q14 4 20 -7t3 -24q-43 -96 -73 -254t-30 -274q0 -186 111 -186
q98 1 199 125q102 124 102 347t-150 373t-422 150q-334 0 -546 -243t-213 -611q-1 -281 159 -443t416 -161q186 0 301 45t230 139q53 41 65 12q8 -18 -35 -61q-90 -90 -253 -157t-353 -66q-293 0 -485 173t-193 502q0 244 136 463q135 219 349 347t437 128q327 1 495 -159
t168 -426q0 -154 -74 -288t-207 -227q-134 -93 -276 -94q-143 0 -157 191q-4 63 6 125q-102 -139 -192 -223t-169 -84z" />
    <glyph glyph-name="A" unicode="A" horiz-adv-x="1433" 
d="M459 618h377q14 0 10 13l-184 504q-4 18 -12 18t-11 -18l-188 -502q-4 -15 8 -15zM-80 -6q-51 0 -51 18t28 18t77 7q50 6 86 50t71 132l514 1270q19 47 31 64t26 18q23 -1 49 -59q25 -58 233 -571t285 -697t173 -205q41 -8 77 -8t35 -17q0 -20 -94 -20q-223 0 -387 4
q-61 4 -61 18t28 17q32 11 19 47l-164 422q-7 14 -21 14h-456q-12 0 -19 -16l-110 -281q-31 -76 -31 -125q0 -63 82 -63h31q31 0 30 -17q0 -20 -34 -20l-217 6l-89 -4q-90 -2 -141 -2z" />
    <glyph glyph-name="B" unicode="B" horiz-adv-x="1447" 
d="M1051 342q0 268 -199 408q-61 43 -170 49q-37 2 -88 2q-12 0 -12 -15v-485q0 -106 12 -142t65 -58q53 -21 145 -21t169 60q78 60 78 202zM582 1419v-506q0 -18 14 -22q26 -6 112 -6t132 39q84 68 84 202t-68 233t-188 99q-47 0 -68 -4q-18 -6 -18 -35zM160 12q0 18 35 18
t71 9q46 7 58 103t12 446v360q0 369 -4 429t-22 86q-28 42 -146 42q-35 1 -35 19t45 18l279 -6l249 6q132 0 224 -32t135 -83q76 -90 77 -199q0 -108 -54 -190t-154 -161q150 -51 262 -165t111 -286q1 -172 -141 -305t-406 -133l-144 6q-92 6 -156 6t-114 -2l-141 -4
q-41 0 -41 18z" />
    <glyph glyph-name="C" unicode="C" horiz-adv-x="1638" 
d="M1069 -35q-444 0 -702 223q-254 223 -254 605q0 135 54 287t185 274q238 217 647 217q203 0 402 -38q67 -13 99 -16t32 -26q0 -6 -6 -44t-7 -153q-1 -116 -4 -150t-23 -34t-22 45q-7 202 -245 280q-113 36 -250 35q-246 0 -385 -127q-188 -172 -189 -530q-1 -174 61 -318
q108 -254 367 -364q111 -47 237 -47t211 24t141 87t73 139q4 25 9 33t18 8q18 0 18 -27t-15 -128t-29 -146t-54 -62q-119 -47 -369 -47z" />
    <glyph glyph-name="D" unicode="D" horiz-adv-x="1916" 
d="M592 981v-258q0 -337 5 -441t21 -128q55 -82 269 -82q301 0 472 147t171 491t-206 540t-572 196q-104 0 -132 -12t-26 -43q-2 -70 -2 -410zM160 12q0 18 35 18t71 9q46 7 58 103t12 446v360q0 369 -4 429t-22 86q-28 42 -146 42q-35 1 -35 19t45 18l295 -6l315 6
q133 0 212 -4t204 -24q240 -37 406 -205q198 -207 198 -536t-223 -556q-94 -96 -263 -169t-423 -73q-80 1 -236 13t-212 12t-105 -2l-141 -4q-41 0 -41 18z" />
    <glyph glyph-name="E" unicode="E" 
d="M160 12q0 18 35 18t71 9q46 7 58 103t12 446v360q0 369 -4 429t-22 86q-28 42 -146 42q-35 1 -35 19t45 18l166 -2q106 -4 394 -4t335 14l33 9q12 0 12 -19q0 -4 -6 -31t-10 -116t-10 -116q-5 -28 -22 -28t-17 37q-1 37 -13 67t-39 47t-97 25t-292 9q-14 0 -14 -21v-518
q0 -23 14 -23q280 0 342 6t84 30q22 26 35 26q12 0 12 -16l-16 -150l-8 -137q-1 -39 -19 -39t-18 18q-6 68 -8 74q-16 70 -115 80q-57 6 -291 6q-12 0 -12 -20v-480q4 -108 48 -140t190 -32t200 25q72 33 92 151q6 31 22 31t17 -37q0 -121 -26 -227q-11 -37 -29 -45t-82 -8
l-567 12q-68 0 -117 -2l-141 -4q-41 0 -41 18z" />
    <glyph glyph-name="F" unicode="F" horiz-adv-x="1273" 
d="M1095 1253q-17 0 -19 41t-13 70q-29 59 -135 61l-316 7q-18 0 -18 -29v-512q0 -18 14 -19l262 2q62 0 108 4t68 29q22 26 31 27q12 0 13 -19q0 -4 -6 -37t-13 -102q-6 -70 -6 -123t-21 -53q-16 0 -16 28q0 122 -117 138q-51 6 -303 6q-14 0 -14 -18v-166q0 -350 8 -418
t24 -97q23 -42 160 -42q35 -1 35 -19t-45 -18l-311 6l-260 -6q-43 0 -43 18t34 18t70 9q46 7 58 103t12 446v360q0 369 -4 429t-22 86q-28 42 -146 42q-35 1 -35 19t47 18l166 -2q106 -4 412 -4t326 6t31 11t21 5t11 -18l-17 -92q0 -96 -11 -174q-3 -22 -20 -21z" />
    <glyph glyph-name="G" unicode="G" horiz-adv-x="1814" 
d="M1741 741q-1 -16 -23 -16t-59 -6q-76 -14 -78 -117q-2 -62 -2 -246v-225q0 -41 -4 -52t-23 -22q-176 -92 -493 -92q-395 0 -660 189q-133 94 -210 252t-77 376t102 390q100 174 244 260t274 112t308 27q178 -1 312 -27t192 -28q29 -2 29 -25q0 -2 -7 -60t-7 -276
q0 -43 -23 -43q-16 0 -20 27q-14 111 -70 170q-57 59 -178 109t-279 50q-252 0 -405 -127q-188 -157 -188 -497t196 -557q197 -217 516 -217q125 0 169 20t44 78v192q0 180 -2 238q-3 58 -21 84q-18 27 -55 35t-80 8t-43 18t43 19l297 -6l240 6q41 0 41 -21z" />
    <glyph glyph-name="H" unicode="H" horiz-adv-x="1990" 
d="M768 1524q0 -18 -30 -18q-99 -2 -119 -36q-19 -34 -23 -94t-4 -428v-43q0 -14 12 -14h782q12 0 13 14v43q0 369 -4 429q-3 60 -21 86q-28 42 -147 42q-35 1 -35 19t43 18l295 -6l258 6q43 0 43 -18t-30 -18q-99 -2 -119 -36q-19 -34 -23 -94t-4 -428v-360q0 -350 10 -445
t80 -104q57 -8 97 -8q40 -1 40 -19t-41 -18l-319 6l-256 -6q-43 0 -43 18q1 18 35 18t71 9q45 7 57 103t13 446v180q0 12 -13 12h-782q-12 0 -12 -12v-180q0 -350 10 -445t80 -104q57 -8 97 -8q40 -1 40 -19t-41 -18l-319 6l-258 -6q-41 0 -41 18t35 18t71 9q46 7 58 103
t12 446v360q0 369 -4 429t-22 86q-28 42 -146 42q-35 1 -35 19t43 18l295 -6l258 6q43 0 43 -18z" />
    <glyph glyph-name="I" unicode="I" horiz-adv-x="925" 
d="M160 12q0 18 35 18t71 9q50 9 60 99t10 450v360q0 369 -4 434q-6 100 -70 115q-31 8 -69 8t-37 21q0 16 49 16l266 -6l250 6q43 0 43 -18t-29 -18q-98 -2 -118 -36q-19 -34 -23 -94t-4 -428v-360q0 -360 7 -428t23 -92q26 -38 164 -37q33 -1 33 -19t-39 -18l-319 6
l-258 -6q-41 0 -41 18z" />
    <glyph glyph-name="J" unicode="J" horiz-adv-x="851" 
d="M39 -518q0 12 45 37t98 78q106 109 130 258t24 505v588q0 369 -4 429t-22 86q-28 42 -146 42q-35 1 -35 19t45 18l291 -6l258 6q43 0 43 -18t-30 -18q-99 -2 -119 -36q-19 -34 -23 -94t-4 -428v-379l6 -288q0 -225 -49 -363q-76 -219 -348 -387q-105 -64 -144 -66
q-16 0 -16 17z" />
    <glyph glyph-name="K" unicode="K" horiz-adv-x="1572" 
d="M752 1524q0 -18 -24 -18q-95 -2 -115 -36q-19 -33 -23 -93t-4 -429v-90h10q23 24 208 218t220 233q102 121 102 155t-28 39q-28 7 -27 23q0 16 33 16l211 -6l239 6q35 0 35 -18q1 -18 -43 -18t-128 -32t-199 -145q-287 -276 -443 -442q50 -67 270 -305q371 -402 495 -477
q123 -75 210 -74q27 -1 27 -19t-49 -18h-179q-98 0 -158 5t-110 35q-52 30 -120 90t-285 312t-259 307l-22 31h-10v-186q0 -350 6 -444t68 -104t98 -9q35 -1 35 -19t-39 -18l-295 6l-258 -6q-41 0 -41 18t35 18t71 9q46 7 58 103t12 446v360q0 369 -4 429t-22 86
q-28 42 -146 42q-35 1 -35 19t45 18l287 -6l248 6q43 0 43 -18z" />
    <glyph glyph-name="L" unicode="L" horiz-adv-x="1239" 
d="M788 1524q0 -18 -40 -18q-110 -1 -133 -42q-15 -27 -19 -87t-4 -429v-360q0 -232 7 -324t36 -117q51 -45 248 -45q98 0 151 10t93 54q40 43 49 117q4 31 22 30q16 1 16 -29t-10 -116t-20 -123t-30 -47t-99 -10l-596 12q-68 0 -117 -2l-141 -4q-41 0 -41 18t35 18t71 9
q46 7 58 103t12 446v360q0 369 -4 429t-22 86q-28 42 -134 42q-35 1 -35 19t45 18l281 -6l278 6q43 0 43 -18z" />
    <glyph glyph-name="M" unicode="M" horiz-adv-x="2136" 
d="M31 16q-1 14 31 14t63 7q61 15 84 162l203 1319q10 53 34 53t56 -64l559 -1138l557 1153q25 49 45 49q29 0 37 -64l186 -1253q14 -102 34 -148q35 -78 194 -79q33 0 32 -15q0 -23 -53 -22q-279 0 -416 10q-59 6 -59 23q0 12 22 21t11 89l-123 891h-8l-447 -913
q-37 -75 -49 -95t-28 -20t-70 102q-203 389 -231 452t-107 224q-80 162 -111 227h-8l-107 -798q-6 -55 -6 -97q0 -75 148 -75q31 0 31 -15q0 -23 -50 -22l-215 6l-202 -6q-37 0 -37 22z" />
    <glyph glyph-name="N" unicode="N" horiz-adv-x="1939" 
d="M1819 1524q0 -18 -37 -18t-71 -10q-34 -9 -49 -46t-17 -125l-23 -1292q0 -117 -96 -19q-74 70 -302 299t-378 377t-279 290q-128 142 -133 146h-6l23 -854q6 -205 71 -227q42 -14 92 -14q50 -1 50 -19t-48 -18l-254 6l-221 -6q-45 0 -45 18t44 18t82 12q38 11 49 62
t14 191l18 1206q0 70 27 70q19 1 32 -15t25 -28t19 -21q229 -250 634 -651q85 -85 261 -270t190 -197h10l-20 920q-2 92 -18 130q-15 38 -49 52t-111 14q-33 1 -33 19t53 18l248 -6l201 6q47 0 47 -18z" />
    <glyph glyph-name="O" unicode="O" horiz-adv-x="1898" 
d="M1024 68q53 0 105 11t123 52t122 109t88 194t37 295q0 336 -171 540t-429 204q-194 0 -339 -128q-77 -69 -121 -200t-44 -314q0 -331 171 -547t458 -216zM938 -35q-211 0 -376 74q-165 73 -259 193q-190 242 -190 536q0 234 121 434q141 230 401 319q145 50 323 50
q380 0 604 -207t224 -563t-232 -596t-616 -240z" />
    <glyph glyph-name="P" unicode="P" horiz-adv-x="1341" 
d="M160 12q0 18 35 18t71 9q46 7 58 103t12 446v360q0 369 -4 429t-22 86q-28 42 -146 42q-35 1 -35 19t45 18l295 -6l297 6q256 0 381 -117q102 -98 102 -243q0 -216 -142 -356t-362 -140q-68 0 -67 21q0 23 57 22q96 0 186 96q89 96 89 242q0 199 -121 307q-88 80 -205 80
q-55 0 -80 -8q-16 -6 -16 -39v-819q0 -350 10 -445t80 -104q57 -8 97 -8q40 -1 40 -19t-39 -18l-317 6l-258 -6q-41 0 -41 18z" />
    <glyph glyph-name="Q" unicode="Q" horiz-adv-x="1904" 
d="M1022 68q60 0 114 11t122 53t118 111q49 69 84 197t35 302q0 176 -52 320q-94 262 -326 364q-103 46 -212 47q-221 0 -364 -157t-143 -499q0 -341 182 -545t442 -204zM950 -35q-178 0 -320 49q-257 89 -396 319q-123 205 -121 445q0 274 193 520q95 121 264 197t382 76
q371 0 600 -210t230 -566q0 -335 -246 -581q-55 -56 -111 -93l412 -211q475 -244 844 -244q217 0 399 72l31 10q18 0 18 -16t-24 -27q-317 -154 -649 -154q-225 1 -416 63t-451 216l-321 188q-140 -53 -318 -53z" />
    <glyph glyph-name="R" unicode="R" horiz-adv-x="1546" 
d="M578 1409v-623q0 -29 18 -36q60 -20 156 -20t145 34q121 88 121 295t-99 297t-214 90q-82 0 -109 -8q-18 -6 -18 -29zM160 12q0 18 35 18t71 9q46 7 58 103t12 446v360q0 369 -4 429t-22 86q-28 42 -146 42q-35 1 -35 19t45 18l281 -6l288 6q248 0 377 -88
q51 -35 95 -111q45 -76 45 -183t-60 -216t-211 -229q344 -434 451 -545q134 -139 280 -139q25 -1 25 -19t-39 -18h-195q-147 0 -213 36t-143 121q-76 85 -205 268t-141 197t-37 15l-178 4q-16 0 -16 -17v-28q0 -352 8 -420t23 -97q22 -42 159 -42q25 -1 25 -19t-41 -18
l-301 6l-250 -6q-41 0 -41 18z" />
    <glyph glyph-name="S" unicode="S" horiz-adv-x="1191" 
d="M530 -35q-186 0 -307 53q-25 10 -32 24t-7 82t11 232q4 53 24 54q21 0 21 -38t18 -102q61 -207 293 -207q129 0 202 72t73 159t-42 163q-41 76 -159 168l-95 73q-164 129 -233 243q-70 114 -70 243q0 170 131 278t342 109q143 0 273 -35q29 -6 28 -25q0 -8 -4 -65
t-4 -180q0 -61 -22 -62q-20 0 -21 37q0 70 -53 135q-80 100 -208 100q-127 0 -193 -58t-66 -141t46 -148t171 -158l58 -43q184 -139 260 -257t75 -265q0 -231 -192 -357q-132 -84 -318 -84z" />
    <glyph glyph-name="T" unicode="T" horiz-adv-x="1454" 
d="M432 12q0 18 35 18t72 9q49 11 59 105t10 444v839l-305 -8q-92 -4 -134 -15t-67 -48q-26 -37 -32 -65t-23 -27q-18 0 -18 48t43 220q8 39 24 39q4 1 49 -17t244 -18h811q66 0 129 10t68 10q16 0 16 -43l-6 -237q-4 -33 -18 -33q-20 0 -23 41l-2 23q-8 109 -242 114
l-258 6v-839q0 -350 10 -445t80 -104q58 -8 98 -8q40 -1 40 -19t-39 -18l-322 6l-258 -6q-41 0 -41 18z" />
    <glyph glyph-name="U" unicode="U" horiz-adv-x="1744" 
d="M1681 1524q1 -18 -29 -18t-69 -8q-39 -7 -54 -34q-15 -28 -19 -88t-5 -428v-219q0 -209 -39 -363t-155 -253q-172 -147 -426 -148q-299 0 -455 141q-182 164 -182 543v299q0 369 -4 429t-22 86q-28 42 -146 42q-35 1 -35 19t45 18l299 -6l252 6q45 0 45 -18t-28 -18
t-66 -8q-38 -7 -54 -34q-16 -28 -20 -88t-4 -428v-286q0 -211 40 -325q40 -115 131 -189t254 -74t273 110q76 76 98 194t21 314v256q0 369 -4 429t-21 86q-27 42 -141 42q-35 1 -35 19t43 18l128 -2q66 0 94 -4h14l233 6q43 0 43 -18z" />
    <glyph glyph-name="V" unicode="V" horiz-adv-x="1482" 
d="M1599 1524q1 -18 -47 -18t-86 -25q-49 -35 -103 -165t-135 -306q-82 -178 -138 -308t-147 -338t-128 -296t-59 -99q-6 -4 -20 -4q-14 -1 -27 23q-14 24 -45 102l-517 1251q-33 80 -64 110q-58 54 -171 54q-25 1 -25 19t54 18l297 -6l251 6q47 0 48 -18q0 -18 -46 -18
q-85 -1 -85 -58q0 -37 47 -158l352 -930h8q150 382 266 671q117 290 137 343t19 83q0 30 -29 39t-72 9t-42 17q0 20 57 20l215 -6l192 6q43 0 43 -18z" />
    <glyph glyph-name="W" unicode="W" horiz-adv-x="2222" 
d="M2247 1542q39 0 39 -18t-36 -18t-61 -10q-25 -9 -37 -28q-12 -18 -18 -29t-15 -34t-15 -36t-16 -44t-72 -197t-218 -646q-156 -478 -166 -497q-12 -19 -28 -19t-28 20t-38 80l-426 1028h-4q-409 -1099 -461 -1127q-6 -2 -16 -2q-16 0 -43 76l-434 1300q-39 119 -76 146
q-29 18 -72 18q-43 1 -43 19t45 18l238 -6l227 6q43 0 43 -18t-37 -18t-51 -9q-22 -11 -22 -37t58 -249t249 -818h6l397 1069q27 74 51 74q28 0 60 -96l426 -1032h6q18 68 272 917q20 68 21 119q0 61 -99 61q-35 0 -34 19q0 18 47 18l213 -6l63 4q66 2 105 2z" />
    <glyph glyph-name="X" unicode="X" horiz-adv-x="1458" 
d="M1436 1524q0 -18 -32 -18q-92 -1 -139 -57q-32 -36 -85 -116l-336 -483q18 -30 219 -356t239 -378t94 -69q56 -16 88 -16q32 -1 32 -19t-39 -18h-62q-211 0 -368 4q-70 2 -70 19t29 24q8 2 11 14t-7 33q-195 346 -324 557l-303 -489q-67 -104 10 -121q25 -4 49 -4
q24 -1 23 -19q0 -18 -41 -18h-37l-192 6l-172 -6h-35q-31 0 -31 18t33 18q34 0 74 12q40 11 76 44t89 109l392 559l-353 583q-101 168 -256 168q-20 0 -20 21q0 16 41 16l311 -6l219 6q41 0 41 -18t-31 -19q-81 0 -79 -41q0 -23 30 -77t74 -133q45 -79 97 -167t79 -135
q252 381 277 426t24 84q0 43 -100 43q-25 1 -25 19t43 18l205 -6l201 6q37 0 37 -18z" />
    <glyph glyph-name="Y" unicode="Y" horiz-adv-x="1372" 
d="M391 12q0 18 34 18t71 9q57 12 63 105t6 212v168q0 111 -47 215q-10 25 -159 269t-213 338t-130 133q-49 27 -83 27t-33 18q0 18 39 18l258 -6l219 6q31 0 30 -18q0 -10 -37 -20t-37 -34q0 -26 17 -58q16 -32 356 -630q10 25 152 279q141 254 163 301t22 89t-41 51
q-40 9 -40 22q0 18 35 18l193 -6l219 6q37 0 37 -18t-42 -18t-88 -24q-47 -24 -103 -92t-213 -331q-157 -262 -187 -333t-29 -202v-168q0 -118 6 -212t84 -105q57 -8 97 -8q40 -1 39 -19q0 -18 -43 -18l-314 6l-256 -6q-45 0 -45 18z" />
    <glyph glyph-name="Z" unicode="Z" horiz-adv-x="1454" 
d="M156 0q-35 0 -35 17t71 127q616 955 826 1283h-402q-219 0 -294 -43q-47 -26 -76 -72t-35 -85q-5 -39 -23 -39t-18 42t41 288q6 39 25 38q6 0 45 -10t413 -10h625q35 0 35 -16q0 -10 -17 -39q-225 -364 -882 -1368h503q262 0 322 112q25 45 34 89t23 42q21 0 21 -84
t-41 -229q-14 -53 -62 -53z" />
    <glyph glyph-name="bracketleft" unicode="[" horiz-adv-x="737" 
d="M385 1264v-1241q0 -131 14 -191q55 -27 219 -43q35 -2 35 -20t-24 -19h-389q-23 0 -28 5t-5 28v1718q0 15 6 21t27 6h391q25 0 24 -19q0 -18 -34 -20q-162 -16 -222 -43q-14 -59 -14 -182z" />
    <glyph glyph-name="backslash" unicode="\" horiz-adv-x="1110" 
d="M1075 8l-71 -47q-14 -8 -27 12l-940 1526q-12 18 2 25l74 45q16 10 28 -10l934 -1516q14 -27 0 -35z" />
    <glyph glyph-name="bracketright" unicode="]" horiz-adv-x="737" 
d="M352 14v1241q0 131 -14 191q-55 27 -219 43q-35 2 -35 20t25 19h389q24 0 28 -5t4 -28v-1718q0 -15 -6 -21t-26 -6h-392q-25 0 -24 19q0 18 35 20q164 16 221 43q14 59 14 182z" />
    <glyph glyph-name="asciicircum" unicode="^" horiz-adv-x="1124" 
d="M1026 614h-139l-326 762l-325 -762h-140l393 918h144z" />
    <glyph glyph-name="underscore" unicode="_" horiz-adv-x="1024" 
d="M0 -154h1024v-102h-1024v102z" />
    <glyph glyph-name="grave" unicode="`" horiz-adv-x="1898" 
d="M1078 1700q-22 0 -191 72t-231 100t-62 49q0 13 56 29t97 36q42 20 48 19q10 0 14 -11q6 -16 22 -37q15 -21 89 -91t108 -94q45 -32 59 -41q13 -8 13 -19q0 -12 -22 -12z" />
    <glyph glyph-name="a" unicode="a" 
d="M410 530h348q12 0 8 11l-170 436q-6 16 -9 16t-9 -16l-175 -434q-5 -13 7 -13zM1366 31q27 -1 27 -19t-78 -18q-195 0 -346 4q-53 4 -54 14q0 16 23 19q10 2 16 13t0 26l-139 352q-4 12 -18 12h-424q-12 0 -17 -12l-96 -236q-27 -61 -27 -108t72 -47h27q27 0 26 -19
q0 -18 -28 -18l-201 6l-209 -6q-33 0 -33 18t21 19l53 2q57 8 88 44t62 109l471 1088q29 70 53 69q18 0 32 -17t224 -506q209 -490 256 -597q76 -172 153 -186q39 -6 66 -6z" />
    <glyph glyph-name="b" unicode="b" horiz-adv-x="1310" 
d="M528 662v-396q0 -90 12 -123q24 -69 181 -69q88 0 155 57t66 188q0 76 -39 162t-131 148q-61 45 -156 45h-77q-11 0 -11 -12zM528 1198v-420q0 -14 13 -18q25 -6 105 -6t120 30q82 63 82 174t-58 192t-167 81q-59 0 -78 -4q-17 -2 -17 -29zM178 -6q-37 0 -37 18t34 18
t58 7q43 10 53 88t9 375v307q0 313 -2 363q-3 50 -19 69q-34 37 -131 37q-31 0 -30 18q0 16 41 17l243 -4l271 4q298 0 367 -179q15 -40 16 -81q0 -176 -203 -306q131 -41 231 -139q101 -98 101 -244t-123 -260q-123 -113 -357 -112l-297 10l-102 -2q-86 -4 -123 -4z" />
    <glyph glyph-name="c" unicode="c" horiz-adv-x="1443" 
d="M942 -29q-393 1 -618 189t-226 514q0 115 48 245t163 232q211 184 572 184q146 0 279 -21q132 -20 161 -24t29 -22q0 -6 -1 -16l-3 -32q-11 -121 -11 -237q-4 -43 -23 -43t-20 37q-4 96 -69 162q-106 102 -340 102t-348 -98q-166 -143 -166 -453q0 -147 53 -268
q96 -219 317 -304q96 -38 208 -38q111 0 181 17t121 75t59 104q8 48 27 48t19 -26t-14 -112t-24 -124q-11 -38 -48 -52q-97 -39 -326 -39z" />
    <glyph glyph-name="d" unicode="d" horiz-adv-x="1701" 
d="M537 834v-220q0 -282 4 -368t20 -107q47 -70 236 -69q251 0 399 122t147 429q0 153 -49 263t-118 171q-186 166 -504 166q-90 0 -111 -13q-23 -8 -23 -50t-1 -324zM178 -6q-37 0 -37 18t34 18t58 7q43 10 53 88t9 375v307q0 313 -2 363q-3 50 -19 69q-34 37 -131 37
q-31 0 -30 18q0 16 41 17l260 -4l293 4q394 0 566 -85q89 -44 159 -114q170 -170 170 -452t-197 -476q-79 -80 -231 -142t-373 -62l-398 20l-102 -2q-86 -4 -123 -4z" />
    <glyph glyph-name="e" unicode="e" horiz-adv-x="1179" 
d="M178 -6q-37 0 -37 18t34 18t58 7q43 10 53 88t9 375v307q0 313 -2 363q-3 50 -19 69q-34 37 -131 37q-31 0 -30 18q0 16 41 17l260 -4h491q8 0 76 10l29 8q12 0 12 -16q0 -4 -5 -23t-9 -99q-5 -80 -11 -107q-6 -28 -20 -27t-14 31q-1 30 -13 57t-35 41t-84 21t-282 7
q-12 0 -12 -16v-430q0 -18 12 -19q274 -1 326 5t77 28t27 21q14 0 14 -19q0 -4 -11 -100t-11 -140q1 -42 -17 -42t-18 22t-6 55q-18 59 -92 67t-291 9q-10 0 -10 -18v-397q2 -88 52 -117t180 -29t185 25t74 127q6 27 21 26q16 0 16 -41q0 -109 -25 -192q-8 -33 -24 -39
t-72 -6l-541 10l-102 -2q-86 -4 -123 -4z" />
    <glyph glyph-name="f" unicode="f" horiz-adv-x="1161" 
d="M1028 1325q12 0 12 -12t-11 -59t-11 -164q-4 -35 -19 -35q-23 1 -23 37t-9 57q-25 51 -115 53l-299 6q-16 0 -16 -24v-422q0 -16 12 -17l252 3q55 0 96 3t61 29q18 18 25 19q10 -1 10 -11q0 -12 -10 -82t-10 -163q0 -39 -21 -39q-16 0 -16 24t-12 54q-20 59 -87 64
t-288 5q-12 0 -12 -14v-143q0 -272 8 -340t22 -90q22 -33 140 -33q31 0 30 -19q0 -18 -39 -18l-288 6l-230 -6q-37 0 -37 18t33 18t57 7q43 10 53 88t9 375v307q0 313 -3 363q-2 50 -18 70q-29 36 -131 36q-31 0 -30 18q0 16 43 17l258 -4h512q51 4 73 8z" />
    <glyph glyph-name="g" unicode="g" horiz-adv-x="1603" 
d="M1538 630q0 -18 -20 -18t-52 -6q-68 -10 -69 -94q-2 -53 -2 -209v-192q0 -37 -3 -45t-20 -17q-158 -78 -414 -78t-440 68q-182 67 -301 225t-119 372t89 360q208 341 712 339q190 0 320 -28q98 -17 133 -19t34 -20q0 -2 -6 -58t-6 -229q0 -39 -24 -39q-14 0 -19 23
q-10 88 -60 141q-51 53 -153 94t-204 41t-144 -4q-43 -4 -113 -28t-127 -70q-166 -135 -166 -422t172 -468q171 -181 455 -181q84 0 123 17t39 62v160q0 152 -2 200t-18 67q-32 38 -129 38q-29 0 -29 18t39 17l276 -4l211 4q37 0 37 -17z" />
    <glyph glyph-name="h" unicode="h" horiz-adv-x="1775" 
d="M692 1294q0 -18 -26 -18q-87 0 -108 -33q-13 -20 -17 -71t-4 -379v-37q0 -13 12 -13h680q10 0 10 13v37q0 272 -3 350t-19 96q-33 37 -130 37q-31 0 -30 18q0 16 39 17l270 -4l231 4q39 1 39 -17t-26 -18q-88 0 -108 -33q-13 -20 -17 -71t-4 -365v-307q0 -296 7 -356
t20 -80q21 -33 145 -33q29 0 28 -19q0 -18 -36 -18l-285 6l-238 -6q-39 0 -39 18t35 18t60 7q43 10 52 88t9 371v133q0 10 -10 10h-680q-12 0 -12 -10v-133q0 -274 8 -343t21 -89q21 -33 143 -33q29 0 28 -19q0 -18 -37 -18l-292 6l-232 -6q-35 0 -35 18t34 18t58 7
q43 10 53 88t9 375v307q0 313 -2 363q-3 50 -19 69q-34 37 -131 37q-31 0 -30 18q0 16 39 17l264 -4l239 4q37 1 37 -17z" />
    <glyph glyph-name="i" unicode="i" horiz-adv-x="833" 
d="M141 12q0 18 34 18t58 7q45 10 53 83t9 380v307q0 313 -2 363q-3 50 -17 68q-29 38 -110 38q-29 0 -29 20q0 14 43 15l242 -4l231 4q37 0 37 -15q0 -20 -26 -20q-86 0 -106 -33q-13 -20 -17 -71t-4 -365v-307q0 -308 6 -364t21 -74q25 -30 145 -31q29 0 28 -19
q0 -18 -35 -18l-290 6l-236 -6q-35 0 -35 18z" />
    <glyph glyph-name="j" unicode="j" horiz-adv-x="763" 
d="M35 -438q0 12 38 30t87 68q94 92 114 218q21 126 21 429v500q0 313 -2 363q-3 50 -19 69q-34 37 -131 37q-31 0 -30 18q0 16 41 17l272 -4l229 4q37 1 37 -17t-26 -18q-87 0 -108 -33q-13 -20 -17 -71t-4 -365v-324l6 -245q0 -193 -43 -308q-80 -218 -414 -376
q-16 -8 -34 -8t-17 16z" />
    <glyph glyph-name="k" unicode="k" horiz-adv-x="1402" 
d="M676 1294q0 -18 -20 -18q-85 0 -106 -33q-12 -19 -16 -71t-4 -365v-78h9q27 29 187 190q161 161 189 193q90 100 91 129q0 29 -25 35t-25 20t29 15l186 -4l211 4q31 1 31 -17t-38 -18q-124 0 -283 -150q-303 -283 -381 -370q43 -57 234 -258q191 -200 226 -232t82 -76
t90 -79q102 -82 211 -80q25 -1 25 -19t-43 -18h-158q-86 0 -140 5q-99 9 -218 112q-53 45 -240 259q-186 214 -223 263l-18 24h-9v-157q0 -297 6 -375t64 -88q37 -6 75 -6q38 -1 38 -19t-35 -18l-275 6l-227 -6q-35 0 -35 18t34 18t58 7q43 10 53 88t9 375v307q0 313 -2 363
q-3 50 -19 69q-34 37 -131 37q-31 0 -30 18q0 16 41 17l252 -4l231 4q39 1 39 -17z" />
    <glyph glyph-name="l" unicode="l" horiz-adv-x="1130" 
d="M711 1294q0 -18 -36 -18q-97 0 -117 -33q-13 -19 -17 -71t-4 -365v-307q0 -195 6 -270t32 -97q43 -37 240 -37q86 0 133 8t81 43t42 103q4 27 21 26q16 0 16 -30t-8 -103t-18 -105t-29 -40q-18 -8 -86 -8l-564 10l-102 -2q-86 -4 -123 -4t-37 18t34 18t58 7q43 10 53 88
t9 375v307q0 313 -2 363q-3 50 -19 69q-34 37 -118 37q-31 0 -31 17t39 18l248 -4l260 4q39 1 39 -17z" />
    <glyph glyph-name="m" unicode="m" horiz-adv-x="1890" 
d="M324 90q0 -59 122 -59q26 -1 25 -19q0 -18 -43 -18l-190 6l-179 -6q-33 0 -32 20q-1 16 27 16t57 5q55 6 73 133l178 1128q6 45 34 45t57 -55l483 -962l483 974q23 43 47 43q12 0 24 -14t17 -41l164 -1071q13 -86 31 -123q32 -65 160 -65q29 0 28 -17q0 -20 -47 -20
q-193 0 -373 10q-53 2 -53 20q1 12 19 18t10 75l-100 751h-7l-387 -770q-31 -62 -44 -80t-27 -18q-25 0 -72 88q-185 346 -199 378t-45 94l-76 152t-67 136h-6l-86 -672q-6 -47 -6 -82z" />
    <glyph glyph-name="n" unicode="n" horiz-adv-x="1722" 
d="M1616 1294q0 -18 -32 -18t-62 -8t-42 -38q-13 -30 -16 -104l-20 -1097q0 -55 -29 -56q-37 0 -74 37q-488 456 -648 621t-224 233q-63 68 -76 78h-6l21 -711q4 -168 61 -188q37 -12 81 -12q44 -1 44 -19t-41 -18l-234 6l-194 -6q-41 0 -41 18t39 18t73 9q34 8 43 50
t11 161l16 1032q0 59 31 59q20 0 78 -57l59 -59q195 -202 371 -374q176 -173 269 -267t164 -165l81 -81h8l-18 774q-1 78 -15 110t-44 43t-97 11q-29 0 -29 17t45 18l230 -4l176 4q41 1 41 -17z" />
    <glyph glyph-name="o" unicode="o" horiz-adv-x="1693" 
d="M909 66q108 0 184 44t121 100t77 162t32 249q1 283 -149 453t-373 169q-168 0 -292 -105q-67 -56 -106 -167t-38 -264q0 -277 147 -459t397 -182zM836 -29q-188 1 -334 63t-232 164q-172 204 -172 455q0 198 110 369q126 195 358 270q130 43 288 43q340 0 539 -176
t199 -479t-208 -506q-206 -203 -548 -203z" />
    <glyph glyph-name="p" unicode="p" horiz-adv-x="1220" 
d="M141 12q0 18 34 18t58 7q43 10 53 88t9 375v307q0 313 -2 363q-3 50 -19 69q-34 37 -131 37q-31 0 -30 18q0 16 41 17l260 -4l299 4q221 0 336 -99q90 -86 90 -208q0 -182 -130 -302t-323 -120q-45 0 -53 2q-23 0 -23 18q0 23 72 23q72 1 151 79t78 203q0 166 -106 258
q-76 66 -180 66q-55 0 -78 -8q-14 -6 -15 -33v-690q0 -296 8 -356t20 -80q21 -33 142 -33q29 -1 29 -19t-33 -18l-295 6l-227 -6q-35 0 -35 18z" />
    <glyph glyph-name="q" unicode="q" horiz-adv-x="1691" 
d="M907 66q116 0 190 44t116 102t72 166t30 251q0 293 -153 453q-152 160 -352 161q-200 0 -322 -130t-122 -420t156 -459q156 -168 385 -168zM824 -29q-178 1 -326 63t-232 166q-168 206 -168 452t174 452q86 102 236 167t338 64q328 0 534 -179t205 -480q0 -203 -97 -348
t-212 -224l354 -172q426 -207 737 -206q205 0 353 55q20 8 26 8q16 0 17 -16q0 -10 -23 -23q-291 -137 -577 -137q-207 0 -374 51t-390 184l-281 166q-116 -43 -294 -43z" />
    <glyph glyph-name="r" unicode="r" horiz-adv-x="1404" 
d="M524 1190v-518q0 -23 17 -31q51 -16 138 -16t126 28q117 82 117 252t-86 243t-176 73t-119 -7q-17 -6 -17 -24zM141 12q0 18 34 18t58 7q43 10 53 88t9 375v307q0 313 -2 363q-3 50 -19 69q-34 37 -131 37q-31 0 -30 18q0 16 41 17l245 -4l281 4q229 0 342 -74
q47 -33 87 -96t40 -151q0 -175 -250 -378q293 -360 403 -470t228 -111q23 0 22 -19q0 -18 -34 -18h-172q-128 0 -190 31t-136 111t-175 227t-112 159q-12 12 -33 13l-161 4q-14 0 -15 -15v-24q0 -280 8 -348t21 -88q19 -32 139 -33q23 -1 23 -19t-37 -18l-281 6l-221 -6
q-35 0 -35 18z" />
    <glyph glyph-name="s" unicode="s" horiz-adv-x="1105" 
d="M907 1020q-18 0 -18 45t-47 100q-68 82 -186 82t-189 -50q-72 -51 -72 -125t38 -126t153 -115l73 -40q170 -93 241 -195t71 -227q0 -199 -180 -326q-101 -72 -298 -72t-296 45q-23 10 -29 20t-6 70q0 58 10 201q0 45 23 45q18 0 18 -34t16 -85q27 -90 109 -131t188 -41
q106 -1 172 63q68 64 68 146t-35 138q-35 57 -143 120l-105 62q-156 90 -219 183t-63 212q0 156 131 253q132 97 300 97t279 -28q25 -6 25 -23l-6 -209q0 -55 -23 -55z" />
    <glyph glyph-name="t" unicode="t" horiz-adv-x="1296" 
d="M381 12q0 18 35 18t57 7q43 10 53 88t9 375v704l-269 -6q-139 -2 -174 -53q-20 -27 -28 -55t-23 -27q-16 0 -16 39t38 201q6 33 21 32q6 0 48 -14t210 -14h731q75 0 122 8t50 8q14 0 15 -37l-5 -211q-4 -29 -16 -28q-18 0 -20 34l-2 19q-3 42 -53 70t-160 30l-228 4v-704
q0 -280 8 -348t22 -88q21 -32 142 -33q29 -1 29 -19t-35 -18l-291 6l-235 -6q-35 0 -35 18z" />
    <glyph glyph-name="u" unicode="u" horiz-adv-x="1556" 
d="M1499 1294q1 -18 -25 -18q-86 0 -107 -33q-13 -20 -17 -67q-4 -111 -4 -369v-186q0 -177 -35 -309t-137 -216q-150 -125 -404 -125q-554 0 -553 580v256q0 340 -2 377t-18 55q-33 37 -129 37q-31 0 -31 17t39 18l270 -4l232 4q39 0 38 -17q0 -18 -23 -18q-85 0 -107 -33
q-13 -20 -17 -71t-4 -365v-244q0 -180 33 -273q32 -93 112 -156q80 -62 223 -62t238 92q68 62 86 160t19 264v219q0 258 -5 369q-4 45 -18 63q-29 37 -123 37q-31 0 -31 17t32 17t63 1l143 -4h14l211 4q37 1 37 -17z" />
    <glyph glyph-name="v" unicode="v" horiz-adv-x="1304" 
d="M1407 1294q0 -18 -44 -18t-79 -26t-88 -148q-17 -34 -195 -425q-177 -390 -233 -518t-76 -158t-38 -30t-33 21q-14 21 -41 84l-455 1065q-29 69 -55 93q-47 42 -148 42q-20 0 -20 17t45 18l262 -4l229 4q43 1 43 -17q-1 -18 -41 -18q-76 0 -75 -47q0 -29 41 -131
l303 -781h6q238 549 352 857q16 45 16 63q0 39 -96 39q-31 0 -31 17t52 18l192 -4l170 4q37 1 37 -17z" />
    <glyph glyph-name="w" unicode="w" horiz-adv-x="1955" 
d="M1977 1311q34 0 34 -15q-1 -20 -31 -20t-63 -11t-72 -120l-14 -35l-8 -25q-59 -153 -216 -617t-168 -480t-29 -16t-32 16q-12 18 -32 67l-367 860h-4q-8 -18 -156 -390t-183 -445q-34 -74 -46 -91t-31 -18q-26 1 -49 64l-381 1106q-37 103 -60 119t-63 16t-39 17
q0 17 41 18l209 -4l209 4q39 1 39 -17t-30 -18t-48 -7t-18 -45q-1 -38 117 -418t143 -454h6l344 891q25 63 53 64q27 0 60 -82l360 -860h6q59 182 135 434q75 251 97 319t22 109q0 49 -88 49q-31 0 -31 17t43 18l193 -4l57 2q57 2 91 2z" />
    <glyph glyph-name="x" unicode="x" horiz-adv-x="1300" 
d="M1280 1294q0 -18 -27 -18q-82 0 -120 -44q-25 -27 -76 -99l-299 -408q18 -27 188 -295t212 -319q65 -80 169 -80q23 -1 23 -19t-35 -18h-53q-186 0 -292 3t-106 19t25 22t6 38q-147 244 -285 467l-264 -410q-29 -47 -27 -74q4 -27 35 -26l39 -2q23 0 23 -21
q0 -16 -37 -16h-33l-74 2q-74 4 -100 4l-152 -6h-30q-27 0 -27 18t28 18q29 0 65 10q36 9 65 35t76 91l352 475l-318 496q-92 139 -221 139q-18 0 -18 20q0 14 37 15l274 -4l203 4q37 1 37 -17t-29 -18q-68 0 -68 -31q0 -18 41 -91t203 -339q200 289 232 343t32 83
q0 35 -88 35q-23 0 -22 18q0 16 39 17l188 -4l176 4q33 1 33 -17z" />
    <glyph glyph-name="y" unicode="y" horiz-adv-x="1208" 
d="M336 12q0 18 34 18t58 7q49 10 55 88t6 178v143q0 96 -40 183q-8 20 -141 226q-132 205 -192 289t-103 108q-44 24 -75 24t-30 18q0 16 35 17l225 -4l205 4q27 0 26 -17q0 -10 -18 -16t-23 -6q-44 -11 -2 -86q16 -25 150 -255t149 -255q4 8 128 222t146 257
q53 104 -18 119q-33 8 -32 20q0 16 30 17l176 -4l193 4q33 0 33 -15q0 -20 -34 -20q-88 0 -173 -102q-43 -52 -184 -276t-165 -280t-24 -176v-139q0 -100 5 -178t73 -88q39 -6 80 -6q41 -1 41 -19t-39 -18l-283 6l-233 -6q-39 0 -39 18z" />
    <glyph glyph-name="z" unicode="z" horiz-adv-x="1280" 
d="M102 17q0 17 23 53q432 651 758 1134h-340q-199 0 -248 -26t-75 -65q-26 -38 -31 -71t-21 -32q-18 0 -18 44t36 236q2 33 21 33q6 0 36 -8t367 -8h555q31 1 31 -13t-10 -34q-307 -482 -774 -1156h432q227 0 278 91q25 45 32 77q8 32 24 31q16 1 16 -71t-35 -195
q-14 -45 -55 -45l-971 8q-31 0 -31 17z" />
    <glyph glyph-name="braceleft" unicode="{" horiz-adv-x="737" 
d="M98 707q0 20 29 22q66 0 86 10t31 21q24 20 24 80t-10 141q-10 80 -10 102q0 143 33 221t111 152q78 72 210 72q41 0 41 -14t-45 -20q-45 -7 -100 -72t-56 -179v-187q0 -115 -14 -174t-60 -105t-89 -58v-2q45 -15 86 -59t52 -84t15 -62t6 -38q4 -30 4 -95v-129
q0 -424 154 -459q49 -13 49 -27q1 -14 -59 -14q-130 0 -234 137q-49 68 -77 169t-27 298l16 219q0 41 -14 62q-25 37 -123 51q-18 3 -26 9q-3 3 -3 12z" />
    <glyph glyph-name="bar" unicode="|" horiz-adv-x="1024" 
d="M575 -512h-124v2048h124v-2048z" />
    <glyph glyph-name="braceright" unicode="}" horiz-adv-x="737" 
d="M152 -250q-60 0 -60 14t49 27q154 35 154 459v154q0 28 2 42t5 47t16 77q12 44 54 88t87 59q-45 14 -90 60t-55 84q-20 77 -19 149v233q0 115 -55 179q-54 64 -100 72q-46 7 -46 20t41 14q131 0 223 -84q66 -61 99 -139t32 -222q0 -23 -10 -103t-10 -140t25 -80
q29 -29 119 -32q26 -1 26 -21q0 -9 -5 -13t-24 -8q-98 -14 -123 -51q-14 -20 -14 -62l16 -219q1 -197 -27 -298q-54 -200 -190 -272q-60 -34 -120 -34z" />
    <glyph glyph-name="asciitilde" unicode="~" horiz-adv-x="1124" 
d="M821 401q-104 0 -278 86t-240 86q-104 0 -110 -170h-117q-4 147 61 223q66 75 176 74q59 0 115 -18t194 -85q140 -67 207 -67q98 0 103 170h117q6 -158 -59 -228t-169 -71z" />
    <glyph glyph-name="uni00A0" unicode="&#xa0;" horiz-adv-x="614" 
 />
    <glyph glyph-name="exclamdown" unicode="&#xa1;" horiz-adv-x="655" 
d="M348 1571q53 0 82 -35t29 -79t-30 -81t-82 -37t-85 30t-33 80t33 86t86 36zM332 1200q25 0 30 -74q39 -461 52 -557q21 -314 52 -397q7 -18 7 -30t-10 -27q-63 -80 -184 -129q-45 -20 -78 -21q-18 0 -19 27q0 6 12 91t18 135q5 50 45 469t45 466t30 47z" />
    <glyph glyph-name="cent" unicode="&#xa2;" horiz-adv-x="1228" 
d="M600 373l92 825q-143 8 -243 -100q-101 -108 -101 -278t82 -293t170 -154zM788 342q104 0 167 36q62 36 89 140q8 33 26 33t17 -25q0 -84 -26 -223q-4 -27 -29 -35q-119 -35 -217 -35t-127 3l-29 -275q-2 -20 -16 -22l-76 -11q-23 -2 -18 13l37 307q-209 37 -335 175
t-126 355q0 132 50 230t110 147q164 139 422 139l22 205q2 18 21 21l65 8q27 5 23 -12l-29 -222q133 0 270 -53q15 -6 15 -50t-13 -204q-2 -23 -20 -22q-14 0 -19 22q-6 80 -49 135q-61 76 -198 76l-93 -848q47 -8 86 -8z" />
    <glyph glyph-name="sterling" unicode="&#xa3;" horiz-adv-x="1228" 
d="M973 -10l-518 10h-414q-61 0 -61 25t61 41q109 24 158 136t73 314l27 221h-145l-45 -4q-12 0 -7 25l21 59q4 14 31 14h157l17 109q55 365 223 504q88 76 170 102q83 26 189 25q106 0 180 -25q45 -10 55 -10q20 -2 20 -43q0 -154 -16 -242q-4 -29 -21 -28q-20 0 -20 32
q-14 228 -238 228q-112 0 -188 -93t-102 -280l-39 -276h258l90 8q23 0 14 -21l-24 -69q-7 -17 -52 -17h-299l-10 -92q-12 -109 -65 -246t-160 -225l4 -14l518 6q154 2 215 39t78 135q6 25 22 24q18 0 18 -34t-10 -134q-10 -102 -22 -146t-32 -51t-111 -7z" />
    <glyph glyph-name="currency" unicode="&#xa4;" horiz-adv-x="1228" 
d="M840 670q0 127 -64 207q-64 79 -168 79q-106 0 -170 -79q-63 -80 -63 -206q-1 -126 71 -198t163 -72t161 71t70 198zM606 258q-148 0 -233 80l-140 -156l-96 101l152 145q-76 102 -76 246t78 252l-158 147l98 103l144 -158q94 82 236 82t237 -80l147 156l101 -103
l-164 -147q70 -104 70 -249t-72 -243l157 -151l-100 -101l-141 162q-92 -86 -240 -86z" />
    <glyph glyph-name="yen" unicode="&#xa5;" horiz-adv-x="1228" 
d="M1051 684q20 0 16 -20l-14 -62q-4 -16 -27 -16h-313v-248q0 -147 2 -193q2 -92 94 -106q43 -6 87 -6q44 1 44 -19t-29 -20l-305 6l-299 -6q-31 0 -31 19t27 20q61 0 105 6q94 14 96 106q2 45 2 193v248h-332q-16 0 -12 16l18 70q4 12 23 12h291q-12 25 -371 649
q-61 109 -119 140t-94 31q-37 0 -37 18q0 20 35 20l225 -6l219 6q29 0 29 -18t-37 -24t-37 -38q-1 -20 17 -57t166 -310t165 -309q43 76 156 295t137 273t25 104q0 29 -42 40t-42 24q0 20 29 20l182 -6l207 6q33 0 32 -18q0 -20 -30 -21q-59 0 -95 -18q-41 -16 -96 -89
t-195 -329t-202 -383h330z" />
    <glyph glyph-name="brokenbar" unicode="&#xa6;" horiz-adv-x="1024" 
d="M575 -358h-124v716h124v-716zM575 666h-124v716h124v-716z" />
    <glyph glyph-name="section" unicode="&#xa7;" horiz-adv-x="1220" 
d="M893 455q0 107 -68 168t-188 141l-105 76q-53 36 -90 67q-121 -76 -120 -200q0 -78 45 -126q45 -47 122 -99t89 -60l73 -49q113 -74 146 -105q96 80 96 187zM981 1311q0 -57 -23 -58q-18 0 -18 45t-47 101q-67 82 -185 82q-118 -1 -194 -55t-76 -150q0 -60 38 -104
t157 -119l74 -47q188 -120 278 -226t90 -241q0 -91 -57 -189t-150 -157q102 -129 103 -244q0 -195 -183 -318q-106 -71 -302 -71t-296 45q-22 10 -28 20q-6 11 -6 69t10 202q0 45 20 45t20 -35t17 -84q27 -90 109 -131t188 -41t178 62t72 148t-37 140q-37 53 -151 131
l-105 72q-178 123 -254 209t-76 207q-1 121 69 218t146 138q-115 119 -114 246q0 155 134 251t302 96t279 -28q25 -6 24 -22q0 -6 -2 -31t-3 -72t-1 -104z" />
    <glyph glyph-name="dieresis" unicode="&#xa8;" horiz-adv-x="1898" 
d="M730 1700q-44 0 -68 30t-23 66q0 36 25 65q26 29 68 29t70 -24t28 -65t-28 -71t-72 -30zM1262 1801q0 -41 -28 -71t-72 -30t-68 30t-23 66q0 36 25 66q26 30 68 30t70 -24t28 -67z" />
    <glyph glyph-name="copyright" unicode="&#xa9;" horiz-adv-x="1847" 
d="M1266 1196q2 0 2 -118t-27 -120q-14 0 -18 43t-39 84q-68 74 -216 74t-228 -87q-81 -87 -81 -238q0 -197 109 -316t236 -119t180 54q27 27 45 100q8 25 21 25q30 0 -9 -183q-6 -35 -12 -43t-31 -14q-90 -25 -219 -25q-233 0 -378 128q-144 128 -144 345q0 109 42 197
t93 135q129 117 360 117q105 -1 196 -21q91 -21 95 -20zM920 1475q-288 0 -482 -202t-194 -499t200 -505t486 -208t480 204t194 498t-198 503t-486 209zM920 -35q-344 1 -576 229t-231 568q0 340 236 574q237 234 581 234t574 -228q230 -230 230 -570t-234 -574
q-236 -234 -580 -233z" />
    <glyph glyph-name="ordfeminine" unicode="&#xaa;" horiz-adv-x="870" 
d="M305 1108h191q4 0 4 6l-82 203q-17 46 -33 6l-86 -209q-4 -6 6 -6zM440 1571q16 0 31 -31q176 -397 264 -577q43 -90 82 -95q29 -4 42 -4t13 -14t-79 -14q-212 0 -212 15q1 15 15 15t6 19l-67 141q-7 12 -15 12h-241q-8 0 -15 -12l-39 -88q-8 -25 -8 -47q0 -27 35 -27h14
q16 0 17 -14q0 -14 -19 -14l-114 4l-142 -4q-18 0 -18 14t14 14l31 2q33 4 50 22t36 54l285 590q18 39 34 39z" />
    <glyph glyph-name="guillemotleft" unicode="&#xab;" horiz-adv-x="1126" 
d="M476 158q-8 0 -134 144q-128 144 -192 209t-64 77t28 36t210 189q182 167 204 183t38 16q18 0 18 -16t-28 -44q-28 -30 -144 -170t-144 -184q59 -80 287 -293q29 -27 29 -32t-9 -13l-77 -88q-14 -14 -22 -14zM880 158q-6 0 -134 144t-192 209t-65 77q1 12 29 36t210 189
q182 167 203 183q22 16 32 16q25 0 24 -17q1 -13 -27 -43t-144 -170t-144 -184q59 -80 286 -293q29 -27 29 -32t-8 -13l-78 -88q-14 -14 -21 -14z" />
    <glyph glyph-name="logicalnot" unicode="&#xac;" horiz-adv-x="1124" 
d="M1042 262h-131v387h-829v125h960v-512z" />
    <glyph glyph-name="uni00AD" unicode="&#xad;" horiz-adv-x="870" 
d="M154 645h581q66 0 66 -29q-1 -20 -21 -27t-71 -18q-82 -12 -282 -48q-199 -36 -233 -46t-65 -23t-39 -14q-25 0 -16 37l30 141q4 18 14 22t36 5z" />
    <glyph glyph-name="registered" unicode="&#xae;" horiz-adv-x="421" 
d="M207 1393q35 0 37 39q0 18 -14 31t-30 13q-18 0 -22 -3v-74q10 -6 29 -6zM119 1294q-15 0 -15 8t14 7q14 0 15 12v149q0 14 -24 15q-4 0 -5 6q0 8 11 8h20q14 -2 23 -2l47 2q90 0 90 -55q0 -31 -43 -62l37 -43q27 -31 34 -31t7 -6q0 -7 -19 -8q-51 0 -80 39l-28 39h-25
v-18q0 -39 4 -43q4 -2 16 -2t11 -7q0 -7 -8 -8h-8l-33 2l-31 -2h-10zM212 1245q68 0 108 41t40 106q0 66 -41 104t-109 38t-108 -39q-41 -39 -41 -105t42 -105q42 -40 109 -40zM211 1210q-82 0 -135 52t-53 128q0 77 53 128t135 51t135 -51t53 -128q0 -76 -53 -128t-135 -52
z" />
    <glyph glyph-name="macron" unicode="&#xaf;" horiz-adv-x="1898" 
d="M1184 1755h-492q-10 0 -14 3t-2 11l16 74q6 18 23 19h491q23 0 17 -21l-17 -74q-2 -12 -22 -12z" />
    <glyph glyph-name="degree" unicode="&#xb0;" horiz-adv-x="743" 
d="M372 1020q66 0 108 46t42 112t-39 116q-39 49 -111 49t-111 -50q-40 -49 -40 -115t43 -112t108 -46zM106 1179q0 111 78 187t193 76t187 -75t73 -185q0 -110 -80 -187q-79 -75 -191 -75t-186 74t-74 185z" />
    <glyph glyph-name="plusminus" unicode="&#xb1;" horiz-adv-x="1124" 
d="M1042 0h-960v125h960v-125zM1042 649h-415v-416h-131v416h-414v125h414v418h131v-418h415v-125z" />
    <glyph glyph-name="twosuperior" unicode="&#xb2;" horiz-adv-x="909" 
d="M633 625h-529q-23 0 -22 16q0 8 24 33q240 197 347 335q106 138 106 285q0 104 -58 156t-135 51q-76 0 -126 -49t-52 -113q0 -23 -18 -22q-12 0 -14 33q-8 0 -9 141q0 20 15 29q106 51 258 51t238 -71t87 -171q0 -149 -101 -269t-345 -317q-4 -2 -3 -6t5 -4h59
q146 0 226 7t112 31t50 75q8 20 20 20t12 -34t-47 -173q-18 -34 -100 -34z" />
    <glyph glyph-name="threesuperior" unicode="&#xb3;" horiz-adv-x="866" 
d="M350 690q86 0 149 50q62 50 65 150t-70 157q-74 57 -138 64t-63 25q0 18 43 23q44 7 112 61t68 138q0 51 -40 99t-119 48t-130 -38t-51 -93q0 -27 -12 -26q-14 0 -17 22q-12 74 -12 131q0 23 29 33q111 37 252 37t207 -55q65 -55 65 -127t-65 -132q-66 -59 -131 -83v-5
q84 -12 166 -73t83 -162q0 -130 -121 -224t-311 -94q-133 0 -180 27q-16 9 -19 19t-4 47q0 155 19 153q14 0 16 -20q18 -152 209 -152z" />
    <glyph glyph-name="acute" unicode="&#xb4;" horiz-adv-x="1898" 
d="M1278 1837h-70q-78 -10 -181 -48q-103 -37 -153 -63t-56 -26q-7 0 -7 10t18 29q55 51 177 144t150 113q30 20 44 20t32 -31q17 -31 56 -117q14 -31 -10 -31z" />
    <glyph glyph-name="mu" unicode="&#xb5;" horiz-adv-x="1179" 
d="M143 307v615h195v-410q0 -197 60 -293t196 -96q100 0 152 63t53 224v512h194v-715q0 -115 66 -115q41 0 69 47l31 -14q-12 -70 -58 -113t-108 -43q-152 0 -164 236q-23 -109 -97 -172t-182 -63t-168 31q-60 32 -106 122q14 -330 93 -522l-226 -113l-30 10q30 444 30 809z
" />
    <glyph glyph-name="paragraph" unicode="&#xb6;" horiz-adv-x="1458" 
d="M786 152v1230q0 46 -7 64t-34 18q-109 0 -176 -108q-71 -112 -71 -274t37 -266t98 -146q31 -19 40 -22t9 -19q0 -25 -68 -25q-221 0 -366 126q-146 126 -146 326t142 333q162 154 473 153l284 -6l308 6q33 0 32 -18q-1 -16 -25 -16q-78 -2 -98 -34q-20 -31 -24 -90
t-4 -436v-805q0 -344 4 -401q0 -34 -74 -64q-41 -16 -57 -16t-16 6t10 71t10 404v1241q0 80 -72 80q-78 0 -84 -75q-2 -39 -2 -441v-796q0 -422 6 -488q5 -29 -74 -60q-79 -32 -79 -5q24 96 24 553z" />
    <glyph glyph-name="periodcentered" unicode="&#xb7;" horiz-adv-x="512" 
d="M253 424q-58 0 -90 38t-32 85t33 87t89 40t92 -33t36 -87t-35 -92t-93 -38z" />
    <glyph glyph-name="cedilla" unicode="&#xb8;" horiz-adv-x="1898" 
d="M739 -504q-1 27 55 27t113 39t58 98q0 125 -162 150q-45 6 -45 14t33 33l192 143h117l-191 -141q115 -9 178 -53t63 -118t-89 -143q-90 -70 -287 -69q-35 0 -35 20z" />
    <glyph glyph-name="onesuperior" unicode="&#xb9;" horiz-adv-x="696" 
d="M94 657q140 0 163 32q11 15 17 56t5 248v226q-1 106 -3 137q-2 30 -23 30t-102 -36t-93 -35q-12 0 -11 14q0 15 7 19t81 49t153 93q78 48 106 64t42 17q14 -1 14 -17t-2 -88q-4 -72 -4 -247v-226q0 -207 6 -248t16 -56q22 -30 138 -32q31 0 31 -18t-37 -18l-248 4
l-248 -4q-37 0 -36 18q0 18 28 18z" />
    <glyph glyph-name="ordmasculine" unicode="&#xba;" horiz-adv-x="966" 
d="M471 1507q-100 0 -163 -66q-62 -67 -62 -208t78 -241t186 -99q68 0 130 48q81 63 81 225t-75 251q-75 90 -175 90zM472 829q-200 0 -305 112t-105 257t106 259t310 114t316 -95t112 -260t-118 -276q-116 -111 -316 -111z" />
    <glyph glyph-name="guillemotright" unicode="&#xbb;" horiz-adv-x="1126" 
d="M551 909l78 88q14 14 20 15q7 0 135 -144t192 -210q64 -64 64 -76t-28 -36t-210 -190q-181 -166 -203 -182t-32 -16q-53 0 3 60q28 30 144 170t144 183q-59 80 -287 293q-29 27 -29 32t9 13zM637 582q-1 -12 -29 -36t-210 -190t-202 -182q-22 -16 -40 -16t-17 15
q0 15 28 45t143 170q116 140 145 183q-59 80 -287 293q-29 27 -29 32t8 13l78 88q14 14 21 15q8 0 65 -68q197 -222 261 -286t65 -76z" />
    <glyph glyph-name="onequarter" unicode="&#xbc;" horiz-adv-x="1722" 
d="M94 657q140 0 163 32q11 15 16 56t6 248v226q-1 106 -3 137q-2 30 -23 30t-102 -36t-93 -35q-12 0 -11 14q0 15 7 19t81 49t153 93q78 48 106 64t42 17q14 -1 14 -17t-2 -88q-4 -72 -4 -247v-226q0 -207 6 -248t16 -56q22 -30 138 -32q31 0 31 -18t-37 -18l-248 4
l-248 -4q-37 0 -36 18q0 18 28 18zM1462 1524q10 -6 -2 -25l-1104 -1519q-14 -18 -24 -11l-60 43q-14 10 4 35l1098 1509q12 16 27 9zM1303 348v363h-9l-331 -363h340zM838 250q-29 0 -29 22q1 14 35 53t551 599q18 23 37 22q20 0 20 -20v-578h111q19 0 42 7t25 7
q12 0 12 -14q0 -10 -24 -86q-4 -12 -25 -12h-141q0 -127 3 -156t17 -46t99 -17q12 1 12 -17t-20 -18l-220 4l-161 -4q-16 0 -16 17t16 18l59 6q33 2 45 15t14 55t3 143h-465z" />
    <glyph glyph-name="onehalf" unicode="&#xbd;" horiz-adv-x="1892" 
d="M94 657q140 0 163 32q11 15 16 56t6 248v226q-1 106 -3 137q-2 30 -23 30t-102 -36t-93 -35q-12 0 -11 14q0 15 7 19t81 49t153 93q78 48 106 64t42 17q14 -1 14 -17t-2 -88q-4 -72 -4 -247v-226q0 -207 6 -248t16 -56q22 -30 138 -32q31 0 31 -18t-37 -18l-248 4
l-248 -4q-37 0 -36 18q0 18 28 18zM1462 1524q10 -6 -2 -25l-1104 -1519q-14 -18 -24 -11l-60 43q-14 10 4 35l1098 1509q12 16 27 9zM1763 206q0 -34 -47 -171q-18 -35 -100 -35h-529q-23 0 -22 16q0 8 25 33q240 197 346 335t106 286q0 104 -58 155t-135 51t-127 -48
q-50 -50 -51 -113q0 -23 -18 -23q-12 0 -14 33q-8 0 -9 141q0 23 15 29q106 51 258 51q153 0 239 -70t87 -171q1 -150 -101 -270t-346 -316q-10 -10 2 -10h59q145 0 225 7q80 6 114 30q32 24 44 60t25 36q12 -2 12 -36z" />
    <glyph glyph-name="threequarters" unicode="&#xbe;" horiz-adv-x="1806" 
d="M350 690q86 0 149 50q62 50 65 150t-70 157q-74 57 -138 64t-63 25q0 18 43 23q44 7 112 61t68 138q0 51 -40 99t-119 48t-130 -38t-51 -93q0 -27 -12 -26q-14 0 -17 22q-12 74 -12 131q0 23 29 33q111 37 252 37t207 -55q65 -55 65 -127t-65 -132q-66 -59 -131 -83v-5
q84 -11 166 -73t83 -162q-1 -131 -121 -224t-311 -94q-133 0 -180 27q-16 9 -19 19t-4 47q0 155 19 153q14 0 16 -20q18 -152 209 -152zM1544 1524q10 -6 -2 -25l-1104 -1519q-14 -18 -24 -11l-60 43q-14 10 4 35l1098 1509q12 16 27 9zM1384 348v363h-8l-332 -363h340z
M1384 250h-464q-29 0 -29 22q1 14 35 53t551 599q18 23 36 22q20 0 21 -20v-578h111q19 0 42 7t25 7q12 0 12 -14q0 -10 -24 -86q-4 -12 -25 -12h-141q0 -127 3 -156t17 -46t99 -17q12 1 12 -17t-20 -18l-220 4l-161 -4q-16 0 -16 17t16 18l59 6q33 2 45 15t14 55t2 143z
" />
    <glyph glyph-name="questiondown" unicode="&#xbf;" horiz-adv-x="1089" 
d="M608 1571q53 0 82 -35t29 -79t-30 -81t-82 -37t-85 30t-33 80t33 86t86 36zM577 -35q-226 0 -330 95q-103 95 -104 212q0 152 76 262t159 198t114 124q104 123 104 181q0 57 -24 93t-25 50q1 14 21 14t107 -69t87 -121t-30 -92t-76 -95q-147 -170 -212 -314
q-38 -89 -38 -191t58 -180q58 -77 187 -77t194 83t70 167q5 41 19 41t21 -33t8 -233q0 -18 -23 -33q-137 -82 -363 -82z" />
    <glyph glyph-name="Agrave" unicode="&#xc0;" horiz-adv-x="1433" 
d="M459 618h377q14 0 10 13l-184 504q-4 18 -12 18t-11 -18l-188 -502q-4 -15 8 -15zM-80 -6q-51 0 -51 18t28 18t77 7q50 6 86 50t71 132l514 1270q19 47 31 64t26 18q23 -1 49 -59q25 -58 233 -571t285 -697t173 -205q41 -8 77 -8t35 -17q0 -20 -94 -20q-223 0 -387 4
q-61 4 -61 18t28 17q32 11 19 47l-164 422q-7 14 -21 14h-456q-12 0 -19 -16l-110 -281q-31 -76 -31 -125q0 -63 82 -63h31q31 0 30 -17q0 -20 -34 -20l-217 6l-89 -4q-90 -2 -141 -2zM847 1700q-21 0 -191 72t-232 100t-62 49q0 13 56 29t97 36q42 20 49 19q7 0 16 -17
t23 -35q13 -18 98 -99t154 -122q13 -8 13 -20t-21 -12z" />
    <glyph glyph-name="Aacute" unicode="&#xc1;" horiz-adv-x="1433" 
d="M459 618h377q14 0 10 13l-184 504q-4 18 -12 18t-11 -18l-188 -502q-4 -15 8 -15zM-80 -6q-51 0 -51 18t28 18t77 7q50 6 86 50t71 132l514 1270q19 47 31 64t26 18q23 -1 49 -59q25 -58 233 -571t285 -697t173 -205q41 -8 77 -8t35 -17q0 -20 -94 -20q-223 0 -387 4
q-61 4 -61 18t28 17q32 11 19 47l-164 422q-7 14 -21 14h-456q-12 0 -19 -16l-110 -281q-31 -76 -31 -125q0 -63 82 -63h31q31 0 30 -17q0 -20 -34 -20l-217 6l-89 -4q-90 -2 -141 -2zM1047 1837h-70q-78 -10 -181 -48q-102 -37 -152 -63t-57 -26t-7 10t18 29q55 51 176 144
t151 113t44 20q15 0 33 -31t55 -117q16 -31 -10 -31z" />
    <glyph glyph-name="Acircumflex" unicode="&#xc2;" horiz-adv-x="1433" 
d="M459 618h377q14 0 10 13l-184 504q-4 18 -12 18t-11 -18l-188 -502q-4 -15 8 -15zM-80 -6q-51 0 -51 18t28 18t77 7q50 6 86 50t71 132l514 1270q19 47 31 64t26 18q23 -1 49 -59q25 -58 233 -571t285 -697t173 -205q41 -8 77 -8t35 -17q0 -20 -94 -20q-223 0 -387 4
q-61 4 -61 18t28 17q32 11 19 47l-164 422q-7 14 -21 14h-456q-12 0 -19 -16l-110 -281q-31 -76 -31 -125q0 -63 82 -63h31q31 0 30 -17q0 -20 -34 -20l-217 6l-89 -4q-90 -2 -141 -2zM724 2009q11 0 42 -22q39 -35 244 -185q28 -20 28 -29t-10 -20l-59 -59q-15 -14 -25 -14
t-34 24q-24 25 -107 93t-96 68q-12 1 -33 -10q-124 -72 -184 -124t-76 -52t-17 21q0 8 19 31q64 63 272 255q24 22 36 23z" />
    <glyph glyph-name="Atilde" unicode="&#xc3;" horiz-adv-x="1433" 
d="M459 618h377q14 0 10 13l-184 504q-4 18 -12 18t-11 -18l-188 -502q-4 -15 8 -15zM-80 -6q-51 0 -51 18t28 18t77 7q50 6 86 50t71 132l514 1270q19 47 31 64t26 18q23 -1 49 -59q25 -58 233 -571t285 -697t173 -205q41 -8 77 -8t35 -17q0 -20 -94 -20q-223 0 -387 4
q-61 4 -61 18t28 17q32 11 19 47l-164 422q-7 14 -21 14h-456q-12 0 -19 -16l-110 -281q-31 -76 -31 -125q0 -63 82 -63h31q31 0 30 -17q0 -20 -34 -20l-217 6l-89 -4q-90 -2 -141 -2zM1075 1888q-1 -10 -19 -45t-76 -89t-126 -54t-163 51t-157 51t-126 -73q-20 -21 -34 -21
t-14 15t26 54t83 91t107 51q50 0 67 -6q16 -6 29 -9t29 -12q16 -10 33 -19t20 -11q80 -45 152 -45t120 61q20 27 34 27t15 -17z" />
    <glyph glyph-name="Adieresis" unicode="&#xc4;" horiz-adv-x="1433" 
d="M459 618h377q14 0 10 13l-184 504q-4 18 -12 18t-11 -18l-188 -502q-4 -15 8 -15zM-80 -6q-51 0 -51 18t28 18t77 7q50 6 86 50t71 132l514 1270q19 47 31 64t26 18q23 -1 49 -59q25 -58 233 -571t285 -697t173 -205q41 -8 77 -8t35 -17q0 -20 -94 -20q-223 0 -387 4
q-61 4 -61 18t28 17q32 11 19 47l-164 422q-7 14 -21 14h-456q-12 0 -19 -16l-110 -281q-31 -76 -31 -125q0 -63 82 -63h31q31 0 30 -17q0 -20 -34 -20l-217 6l-89 -4q-90 -2 -141 -2zM598 1801q0 -41 -28 -71t-71 -30q-44 0 -68 30q-23 30 -23 66t24 65q25 29 68 29
q42 0 70 -24t28 -65zM1030 1801q0 -41 -28 -71t-71 -30q-44 0 -68 30q-51 64 1 132q25 30 68 30q42 0 70 -24t28 -67z" />
    <glyph glyph-name="Aring" unicode="&#xc5;" horiz-adv-x="1433" 
d="M459 618h377q14 0 10 13l-184 504q-4 18 -12 18t-11 -18l-188 -502q-4 -15 8 -15zM-80 -6q-51 0 -51 18t28 18t77 7q50 6 86 50t71 132l514 1270q19 47 31 64t26 18q23 -1 49 -59q25 -58 233 -571t285 -697t173 -205q41 -8 77 -8t35 -17q0 -20 -94 -20q-223 0 -387 4
q-61 4 -61 18t28 17q32 11 19 47l-164 422q-7 14 -21 14h-456q-12 0 -19 -16l-110 -281q-31 -76 -31 -125q0 -63 82 -63h31q31 0 30 -17q0 -20 -34 -20l-217 6l-89 -4q-90 -2 -141 -2zM606 1833q0 -45 32 -74t77 -29t81 32t36 73t-28 69t-75 28t-85 -28q-38 -26 -38 -71z
M678 1679q-96 0 -147 35q-50 36 -50 98t82 116q83 54 185 54t155 -32t53 -86q2 -80 -90 -132t-188 -53z" />
    <glyph glyph-name="AE" unicode="&#xc6;" horiz-adv-x="1898" 
d="M954 815v496h-10q-16 -29 -144 -240t-149 -252q-10 -20 11 -20h274q18 0 18 16zM825 -6q-39 0 -39 18t31 18t68 9q45 7 57 103t12 446v98q0 16 -18 16h-330q-25 0 -36 -16t-108 -186t-112 -193q-90 -152 -90 -201q0 -75 139 -75q31 -1 31 -19t-39 -18l-293 6l-260 -6
q-29 0 -28 20q0 16 38 16t79 19q40 18 78 49q54 44 138 164q68 88 752 1161q35 57 43 88t29 31l34 -2q37 -4 332 -4t342 14l33 9q12 0 12 -19q0 -4 -6 -31t-10 -109q-4 -83 -9 -117t-23 -34t-17 37q0 81 -51 114q-27 17 -98 25t-292 9q-14 0 -14 -21v-584q0 -23 14 -22
q280 0 342 5t84 31t33 25q14 0 15 -18l-17 -150l-8 -137q0 -39 -18 -39t-19 19q-6 68 -8 73q-16 70 -104 79t-302 10q-12 0 -12 -21v-204l-2 -210q4 -108 48 -140t190 -32t200 25q72 33 93 151q6 31 22 31t16 -37q0 -121 -26 -227q-11 -37 -29 -45t-82 -8l-567 12l-109 -2
q-90 -4 -129 -4z" />
    <glyph glyph-name="Ccedilla" unicode="&#xc7;" horiz-adv-x="1638" 
d="M643 -504q0 27 55 27t113 39q57 39 57 98q0 125 -161 150q-45 6 -45 14t32 33l164 123q-304 41 -515 228q-108 95 -169 246q-61 150 -61 312q1 367 239 586t647 219q203 0 402 -38q67 -13 99 -16t32 -26q0 -6 -6 -44t-7 -153q-1 -116 -4 -150t-23 -34t-22 45
q-7 202 -245 280q-113 36 -250 35q-246 0 -385 -127q-188 -172 -189 -530q-1 -174 61 -318q108 -254 367 -364q111 -47 237 -47t211 24t141 87t73 139q4 25 9 33t18 8q18 0 18 -27t-15 -128t-29 -146t-54 -62q-119 -47 -369 -47q-42 0 -108 4l-148 -110q115 -9 178 -53
t63 -118t-89 -143q-90 -70 -287 -69q-35 0 -35 20z" />
    <glyph glyph-name="Egrave" unicode="&#xc8;" 
d="M816 1700q-22 0 -191 72q-170 72 -232 100t-61 49q0 13 55 29t97 36t49 19q10 0 14 -11q6 -16 22 -37t89 -91t108 -94q47 -33 59 -41q13 -8 13 -19q0 -12 -22 -12zM160 12q0 18 35 18t71 9q46 7 58 103t12 446v360q0 369 -4 429t-22 86q-28 42 -146 42q-35 1 -35 19
t45 18l166 -2q106 -4 394 -4t335 14l33 9q12 0 12 -19q0 -4 -6 -31t-10 -116t-10 -116q-5 -28 -22 -28t-17 37q-1 37 -13 67t-39 47t-97 25t-292 9q-14 0 -14 -21v-518q0 -23 14 -23q280 0 342 6t84 30q22 26 35 26q12 0 12 -16l-16 -150l-8 -137q-1 -39 -19 -39t-18 18
q-6 68 -8 74q-16 70 -115 80q-57 6 -291 6q-12 0 -12 -20v-480q4 -108 48 -140t190 -32t200 25q72 33 92 151q6 31 22 31t17 -37q0 -121 -26 -227q-11 -37 -29 -45t-82 -8l-567 12q-68 0 -117 -2l-141 -4q-41 0 -41 18z" />
    <glyph glyph-name="Eacute" unicode="&#xc9;" 
d="M995 1837h-69q-78 -10 -182 -48q-104 -37 -152 -63q-50 -26 -56 -26t-8 10q0 10 37 45t158 128t151 113t44 20t31 -31t57 -117q14 -31 -11 -31zM160 12q0 18 35 18t71 9q46 7 58 103t12 446v360q0 369 -4 429t-22 86q-28 42 -146 42q-35 1 -35 19t45 18l166 -2
q106 -4 394 -4t335 14l33 9q12 0 12 -19q0 -4 -6 -31t-10 -116t-10 -116q-5 -28 -22 -28t-17 37q-1 37 -13 67t-39 47t-97 25t-292 9q-14 0 -14 -21v-518q0 -23 14 -23q280 0 342 6t84 30q22 26 35 26q12 0 12 -16l-16 -150l-8 -137q-1 -39 -19 -39t-18 18q-6 68 -8 74
q-16 70 -115 80q-57 6 -291 6q-12 0 -12 -20v-480q4 -108 48 -140t190 -32t200 25q72 33 92 151q6 31 22 31t17 -37q0 -121 -26 -227q-11 -37 -29 -45t-82 -8l-567 12q-68 0 -117 -2l-141 -4q-41 0 -41 18z" />
    <glyph glyph-name="Ecircumflex" unicode="&#xca;" 
d="M693 2009q11 0 42 -22q39 -35 244 -185q29 -20 29 -29t-11 -20l-59 -59q-14 -14 -24 -14t-34 24q-24 25 -108 93t-96 68q-12 1 -33 -10q-125 -72 -185 -124t-75 -52q-16 0 -16 21q0 8 18 31q65 63 273 255q24 22 35 23zM160 12q0 18 35 18t71 9q46 7 58 103t12 446v360
q0 369 -4 429t-22 86q-28 42 -146 42q-35 1 -35 19t45 18l166 -2q106 -4 394 -4t335 14l33 9q12 0 12 -19q0 -4 -6 -31t-10 -116t-10 -116q-5 -28 -22 -28t-17 37q-1 37 -13 67t-39 47t-97 25t-292 9q-14 0 -14 -21v-518q0 -23 14 -23q280 0 342 6t84 30q22 26 35 26
q12 0 12 -16l-16 -150l-8 -137q-1 -39 -19 -39t-18 18q-6 68 -8 74q-16 70 -115 80q-57 6 -291 6q-12 0 -12 -20v-480q4 -108 48 -140t190 -32t200 25q72 33 92 151q6 31 22 31t17 -37q0 -121 -26 -227q-11 -37 -29 -45t-82 -8l-567 12q-68 0 -117 -2l-141 -4q-41 0 -41 18z
" />
    <glyph glyph-name="Edieresis" unicode="&#xcb;" 
d="M468 1700q-44 0 -68 30t-24 66t25 65t68 29t71 -24t28 -65t-28 -71t-72 -30zM900 1700q-44 0 -68 30t-23 66q0 36 25 66q26 30 68 30t70 -24t28 -67q0 -41 -28 -71t-72 -30zM160 12q0 18 35 18t71 9q46 7 58 103t12 446v360q0 369 -4 429t-22 86q-28 42 -146 42
q-35 1 -35 19t45 18l166 -2q106 -4 394 -4t335 14l33 9q12 0 12 -19q0 -4 -6 -31t-10 -116t-10 -116q-5 -28 -22 -28t-17 37q-1 37 -13 67t-39 47t-97 25t-292 9q-14 0 -14 -21v-518q0 -23 14 -23q280 0 342 6t84 30q22 26 35 26q12 0 12 -16l-16 -150l-8 -137
q-1 -39 -19 -39t-18 18q-6 68 -8 74q-16 70 -115 80q-57 6 -291 6q-12 0 -12 -20v-480q4 -108 48 -140t190 -32t200 25q72 33 92 151q6 31 22 31t17 -37q0 -121 -26 -227q-11 -37 -29 -45t-82 -8l-567 12q-68 0 -117 -2l-141 -4q-41 0 -41 18z" />
    <glyph glyph-name="Igrave" unicode="&#xcc;" horiz-adv-x="925" 
d="M593 1700q-21 0 -191 72t-232 100t-61 49q0 13 55 29t97 36t49 19q7 0 16 -17t23 -35q13 -18 98 -99t154 -122q13 -8 13 -20t-21 -12zM160 12q0 18 35 18t71 9q50 9 60 99t10 450v360q0 369 -4 434q-6 100 -70 115q-31 8 -69 8t-37 21q0 16 49 16l266 -6l250 6
q43 0 43 -18t-29 -18q-98 -2 -118 -36q-19 -34 -23 -94t-4 -428v-360q0 -360 7 -428t23 -92q26 -38 164 -37q33 -1 33 -19t-39 -18l-319 6l-258 -6q-41 0 -41 18z" />
    <glyph glyph-name="Iacute" unicode="&#xcd;" horiz-adv-x="925" 
d="M333 1700q-7 0 -7 10t18 29q55 51 176 144t151 113t44 20q15 0 33 -31t55 -117q16 -31 -10 -31l-37 2q-78 0 -198 -44q-118 -43 -168 -69t-57 -26zM160 12q0 18 35 18t71 9q50 9 60 99t10 450v360q0 369 -4 434q-6 100 -70 115q-31 8 -69 8t-37 21q0 16 49 16l266 -6
l250 6q43 0 43 -18t-29 -18q-98 -2 -118 -36q-19 -34 -23 -94t-4 -428v-360q0 -360 7 -428t23 -92q26 -38 164 -37q33 -1 33 -19t-39 -18l-319 6l-258 -6q-41 0 -41 18z" />
    <glyph glyph-name="Icircumflex" unicode="&#xce;" horiz-adv-x="925" 
d="M470 2009q11 0 42 -22q39 -35 244 -185q28 -20 28 -29t-10 -20l-59 -59q-15 -14 -25 -14t-34 24q-24 25 -92 80t-84 68q-17 14 -28 14t-32 -11q-124 -72 -184 -124t-76 -52t-17 21q0 8 19 31q64 63 272 255q24 22 36 23zM160 12q0 18 35 18t71 9q50 9 60 99t10 450v360
q0 369 -4 434q-6 100 -70 115q-31 8 -69 8t-37 21q0 16 49 16l266 -6l250 6q43 0 43 -18t-29 -18q-98 -2 -118 -36q-19 -34 -23 -94t-4 -428v-360q0 -360 7 -428t23 -92q26 -38 164 -37q33 -1 33 -19t-39 -18l-319 6l-258 -6q-41 0 -41 18z" />
    <glyph glyph-name="Idieresis" unicode="&#xcf;" horiz-adv-x="925" 
d="M344 1801q0 -41 -28 -71t-71 -30q-44 0 -68 30q-23 30 -23 66t24 65q25 29 68 29q42 0 70 -24t28 -65zM677 1700q-44 0 -68 30q-51 64 1 132q25 30 68 30t71 -24q27 -24 27 -67q0 -41 -28 -71t-71 -30zM160 12q0 18 35 18t71 9q50 9 60 99t10 450v360q0 369 -4 434
q-6 100 -70 115q-31 8 -69 8t-37 21q0 16 49 16l266 -6l250 6q43 0 43 -18t-29 -18q-98 -2 -118 -36q-19 -34 -23 -94t-4 -428v-360q0 -360 7 -428t23 -92q26 -38 164 -37q33 -1 33 -19t-39 -18l-319 6l-258 -6q-41 0 -41 18z" />
    <glyph glyph-name="Eth" unicode="&#xd0;" horiz-adv-x="1916" 
d="M592 831h409q18 0 15 -24l-12 -68q-4 -18 -25 -18h-387v-94q0 -239 5 -343t21 -128q57 -84 269 -84q309 0 476 150t167 490t-206 538q-206 196 -572 196q-104 0 -132 -12t-26 -43q-2 -70 -2 -410v-150zM160 12q0 18 35 18t71 9q46 7 58 103t12 446v135h-207q-14 0 -10 25
l10 61q2 20 27 20h180v119q0 369 -4 429t-22 86q-28 42 -146 42q-35 1 -35 19t45 18l295 -6l315 6q133 0 212 -4t204 -24q240 -37 406 -205q198 -207 198 -537t-221 -559q-86 -88 -264 -163t-391 -75q-78 1 -260 13t-230 12t-96 -2l-141 -4q-41 0 -41 18z" />
    <glyph glyph-name="Ntilde" unicode="&#xd1;" horiz-adv-x="1939" 
d="M1819 1524q0 -18 -37 -18t-71 -10q-34 -9 -49 -46t-17 -125l-23 -1292q0 -117 -96 -19q-74 70 -302 299t-378 377t-279 290q-128 142 -133 146h-6l23 -854q6 -205 71 -227q42 -14 92 -14q50 -1 50 -19t-48 -18l-254 6l-221 -6q-45 0 -45 18t44 18t82 12q38 11 49 62
t14 191l18 1206q0 70 27 70q19 1 32 -15t25 -28t19 -21q229 -250 634 -651q85 -85 261 -270t190 -197h10l-20 920q-2 92 -18 130q-15 38 -49 52t-111 14q-33 1 -33 19t53 18l248 -6l201 6q47 0 47 -18zM1128 1700q-68 0 -164 51t-158 51t-126 -73q-20 -20 -33 -21
q-14 0 -14 15q-1 15 25 54t83 91t108 51q51 0 67 -6t25 -8q9 -1 25 -9t19 -11t21 -12t20 -11q80 -45 152 -45t120 61q20 27 34 27q14 1 16 -13q0 -14 -19 -49t-76 -89t-125 -54z" />
    <glyph glyph-name="Ograve" unicode="&#xd2;" horiz-adv-x="1898" 
d="M1078 1700q-22 0 -191 72t-231 100t-62 49q0 13 56 29t97 36q42 20 48 19q10 0 14 -11q6 -16 22 -37q15 -21 89 -91t108 -94q45 -32 59 -41q13 -8 13 -19q0 -12 -22 -12zM1024 68q53 0 105 11t123 52t122 109t88 194t37 295q0 336 -171 540t-429 204q-194 0 -339 -128
q-77 -69 -121 -200t-44 -314q0 -331 171 -547t458 -216zM938 -35q-211 0 -376 74q-165 73 -259 193q-190 242 -190 536q0 234 121 434q141 230 401 319q145 50 323 50q380 0 604 -207t224 -563t-232 -596t-616 -240z" />
    <glyph glyph-name="Oacute" unicode="&#xd3;" horiz-adv-x="1898" 
d="M1278 1837h-70q-78 -10 -181 -48q-103 -37 -153 -63t-56 -26q-7 0 -7 10t18 29q55 51 177 144t150 113q30 20 44 20t32 -31q17 -31 56 -117q14 -31 -10 -31zM1024 68q53 0 105 11t123 52t122 109t88 194t37 295q0 336 -171 540t-429 204q-194 0 -339 -128
q-77 -69 -121 -200t-44 -314q0 -331 171 -547t458 -216zM938 -35q-211 0 -376 74q-165 73 -259 193q-190 242 -190 536q0 234 121 434q141 230 401 319q145 50 323 50q380 0 604 -207t224 -563t-232 -596t-616 -240z" />
    <glyph glyph-name="Ocircumflex" unicode="&#xd4;" horiz-adv-x="1898" 
d="M956 2009q11 0 41 -22q39 -35 244 -185q29 -20 29 -29t-10 -20l-60 -59q-14 -14 -24 -14t-34 24q-24 25 -107 93t-96 68q-13 1 -34 -10q-125 -72 -185 -124t-75 -52q-16 0 -16 21q0 8 18 31q16 17 132 125t141 130t36 23zM1024 68q53 0 105 11t123 52t122 109t88 194
t37 295q0 336 -171 540t-429 204q-194 0 -339 -128q-77 -69 -121 -200t-44 -314q0 -331 171 -547t458 -216zM938 -35q-211 0 -376 74q-165 73 -259 193q-190 242 -190 536q0 234 121 434q141 230 401 319q145 50 323 50q380 0 604 -207t224 -563t-232 -596t-616 -240z" />
    <glyph glyph-name="Otilde" unicode="&#xd5;" horiz-adv-x="1898" 
d="M1086 1700q-68 0 -164 51t-156 51q-62 0 -127 -73q-20 -20 -33 -21q-14 0 -14 15t26 54t82 91q57 52 108 51q51 0 67 -6t25 -8q8 -1 24 -9t20 -11t22 -12t19 -11q80 -45 152 -45t120 61q21 27 35 27q14 1 14 -13t-18 -49q-19 -35 -76 -89q-58 -54 -126 -54zM1024 68
q53 0 105 11t123 52t122 109t88 194t37 295q0 336 -171 540t-429 204q-194 0 -339 -128q-77 -69 -121 -200t-44 -314q0 -331 171 -547t458 -216zM938 -35q-211 0 -376 74q-165 73 -259 193q-190 242 -190 536q0 234 121 434q141 230 401 319q145 50 323 50q380 0 604 -207
t224 -563t-232 -596t-616 -240z" />
    <glyph glyph-name="Odieresis" unicode="&#xd6;" horiz-adv-x="1898" 
d="M730 1700q-44 0 -68 30t-23 66q0 36 25 65q26 29 68 29t70 -24t28 -65t-28 -71t-72 -30zM1262 1801q0 -41 -28 -71t-72 -30t-68 30t-23 66q0 36 25 66q26 30 68 30t70 -24t28 -67zM1024 68q53 0 105 11t123 52t122 109t88 194t37 295q0 336 -171 540t-429 204
q-194 0 -339 -128q-77 -69 -121 -200t-44 -314q0 -331 171 -547t458 -216zM938 -35q-211 0 -376 74q-165 73 -259 193q-190 242 -190 536q0 234 121 434q141 230 401 319q145 50 323 50q380 0 604 -207t224 -563t-232 -596t-616 -240z" />
    <glyph glyph-name="multiply" unicode="&#xd7;" horiz-adv-x="1124" 
d="M1016 137l-84 -84l-369 377l-368 -377l-84 84l368 379l-368 379l84 84l368 -379l369 379l84 -84l-369 -379z" />
    <glyph glyph-name="Oslash" unicode="&#xd8;" horiz-adv-x="1898" 
d="M901 1470q-196 0 -339 -128q-77 -70 -121 -200t-44 -313q1 -262 107 -452l833 880q-168 213 -436 213zM1026 66q120 0 210 52q89 52 140 120t88 194t37 295q0 242 -100 432l-834 -876q176 -217 459 -217zM113 746q0 401 281 644q94 81 240 131t324 50q322 0 533 -150
l154 162q10 10 28 -4l58 -49q10 -10 0 -23l-152 -159q207 -203 207 -553t-232 -590t-616 -240q-311 0 -520 160l-172 -180q-10 -10 -21 0l-57 51q-12 12 -4 20l172 183q-113 113 -168 265t-55 282z" />
    <glyph glyph-name="Ugrave" unicode="&#xd9;" horiz-adv-x="1744" 
d="M1011 1700q-21 0 -191 72t-232 100t-62 49q0 13 56 29t97 36q42 20 48 19q10 0 14 -11q14 -36 111 -128t167 -134q13 -8 13 -20t-21 -12zM1681 1524q1 -18 -29 -18t-69 -8q-39 -7 -54 -34q-15 -28 -19 -88t-5 -428v-219q0 -209 -39 -363t-155 -253q-172 -147 -426 -148
q-299 0 -455 141q-182 164 -182 543v299q0 369 -4 429t-22 86q-28 42 -146 42q-35 1 -35 19t45 18l299 -6l252 6q45 0 45 -18t-28 -18t-66 -8q-38 -7 -54 -34q-16 -28 -20 -88t-4 -428v-286q0 -211 40 -325q40 -115 131 -189t254 -74t273 110q76 76 98 194t21 314v256
q0 369 -4 429t-21 86q-27 42 -141 42q-35 1 -35 19t43 18l128 -2q66 0 94 -4h14l233 6q43 0 43 -18z" />
    <glyph glyph-name="Uacute" unicode="&#xda;" horiz-adv-x="1744" 
d="M1241 1837h-70q-78 -10 -181 -48q-102 -37 -152 -63t-57 -26t-7 10t37 45t158 128t151 113t44 20t31 -31t56 -117q14 -31 -10 -31zM1681 1524q1 -18 -29 -18t-69 -8q-39 -7 -54 -34q-15 -28 -19 -88t-5 -428v-219q0 -209 -39 -363t-155 -253q-172 -147 -426 -148
q-299 0 -455 141q-182 164 -182 543v299q0 369 -4 429t-22 86q-28 42 -146 42q-35 1 -35 19t45 18l299 -6l252 6q45 0 45 -18t-28 -18t-66 -8q-38 -7 -54 -34q-16 -28 -20 -88t-4 -428v-286q0 -211 40 -325q40 -115 131 -189t254 -74t273 110q76 76 98 194t21 314v256
q0 369 -4 429t-21 86q-27 42 -141 42q-35 1 -35 19t43 18l128 -2q66 0 94 -4h14l233 6q43 0 43 -18z" />
    <glyph glyph-name="Ucircumflex" unicode="&#xdb;" horiz-adv-x="1744" 
d="M908 2009q11 0 42 -22q39 -35 244 -185q29 -20 29 -29t-11 -20l-59 -59q-15 -14 -25 -14t-34 24q-24 25 -106 93q-83 68 -96 68q-13 1 -34 -10q-124 -72 -184 -124t-76 -52t-16 21q0 8 18 31q64 63 272 255q24 22 36 23zM1681 1524q1 -18 -29 -18t-69 -8q-39 -7 -54 -34
q-15 -28 -19 -88t-5 -428v-219q0 -209 -39 -363t-155 -253q-172 -147 -426 -148q-299 0 -455 141q-182 164 -182 543v299q0 369 -4 429t-22 86q-28 42 -146 42q-35 1 -35 19t45 18l299 -6l252 6q45 0 45 -18t-28 -18t-66 -8q-38 -7 -54 -34q-16 -28 -20 -88t-4 -428v-286
q0 -211 40 -325q40 -115 131 -189t254 -74t273 110q76 76 98 194t21 314v256q0 369 -4 429t-21 86q-27 42 -141 42q-35 1 -35 19t43 18l128 -2q66 0 94 -4h14l233 6q43 0 43 -18z" />
    <glyph glyph-name="Udieresis" unicode="&#xdc;" horiz-adv-x="1744" 
d="M793 1801q0 -41 -28 -71t-72 -30q-43 0 -67 30t-24 66t25 65t67 29t71 -24q28 -24 28 -65zM1225 1801q0 -41 -28 -71t-72 -30q-43 0 -67 30t-24 66t25 66t67 30t71 -24q28 -24 28 -67zM1681 1524q1 -18 -29 -18t-69 -8q-39 -7 -54 -34q-15 -28 -19 -88t-5 -428v-219
q0 -209 -39 -363t-155 -253q-172 -147 -426 -148q-299 0 -455 141q-182 164 -182 543v299q0 369 -4 429t-22 86q-28 42 -146 42q-35 1 -35 19t45 18l299 -6l252 6q45 0 45 -18t-28 -18t-66 -8q-38 -7 -54 -34q-16 -28 -20 -88t-4 -428v-286q0 -211 40 -325q40 -115 131 -189
t254 -74t273 110q76 76 98 194t21 314v256q0 369 -4 429t-21 86q-27 42 -141 42q-35 1 -35 19t43 18l128 -2q66 0 94 -4h14l233 6q43 0 43 -18z" />
    <glyph glyph-name="Yacute" unicode="&#xdd;" horiz-adv-x="1372" 
d="M1075 1837h-69q-78 -10 -182 -48q-104 -37 -152 -63q-50 -26 -56 -26t-8 10q0 10 37 45t158 128t151 113t44 20t32 -31t55 -117q16 -31 -10 -31zM391 12q0 18 34 18t71 9q57 12 63 105t6 212v168q0 111 -47 215q-10 25 -159 269t-213 338t-130 133q-49 27 -83 27t-33 18
q0 18 39 18l258 -6l219 6q31 0 30 -18q0 -10 -37 -20t-37 -34q0 -26 17 -58q16 -32 356 -630q10 25 152 279q141 254 163 301t22 89t-41 51q-40 9 -40 22q0 18 35 18l193 -6l219 6q37 0 37 -18t-42 -18t-88 -24q-47 -24 -103 -92t-213 -331q-157 -262 -187 -333t-29 -202
v-168q0 -118 6 -212t84 -105q57 -8 97 -8q40 -1 39 -19q0 -18 -43 -18l-314 6l-256 -6q-45 0 -45 18z" />
    <glyph glyph-name="Thorn" unicode="&#xde;" horiz-adv-x="1341" 
d="M160 12q0 18 35 18t71 9q46 7 58 103t12 446v360q0 369 -4 429t-22 86q-28 42 -146 42q-35 1 -35 19t45 18l293 -6l287 6q39 0 39 -18q1 -18 -25 -18t-84 -9q-88 -16 -92 -108q-4 -156 -4 -185q123 8 180 8q248 0 381 -116q39 -35 70 -102t30 -140q0 -217 -142 -352
t-362 -135q-33 0 -43 2q-25 0 -24 18q0 23 57 23q96 0 183 96q86 96 86 233q0 201 -115 316q-72 72 -197 71q-60 0 -82 -9t-22 -42v-487q0 -350 10 -445t80 -104q57 -8 92 -8q35 -1 35 -19t-41 -18l-305 6l-258 -6q-41 0 -41 18z" />
    <glyph glyph-name="germandbls" unicode="&#xdf;" horiz-adv-x="2211" 
d="M2013 1020q-18 0 -18 45t-47 100q-68 82 -186 82t-189 -50q-72 -51 -72 -125t38 -126t153 -115l73 -40q170 -93 241 -195t71 -227q0 -199 -181 -326q-100 -72 -297 -72t-296 45q-23 10 -29 20t-6 70q0 58 10 201q0 45 20 45t20 -34t17 -85q27 -90 109 -131t188 -41
q106 -1 172 63q68 64 68 146t-35 138q-35 57 -143 120l-105 62q-156 90 -219 183t-63 212q0 156 131 253q132 97 300 97t279 -28q25 -6 25 -23l-6 -209q0 -55 -23 -55zM907 1020q-18 0 -18 45t-47 100q-68 82 -186 82t-189 -50q-72 -51 -72 -125t38 -126t153 -115l73 -40
q170 -93 241 -195t71 -227q0 -199 -180 -326q-101 -72 -298 -72t-296 45q-23 10 -29 20t-6 70q0 58 10 201q0 45 23 45q18 0 18 -34t16 -85q27 -90 109 -131t188 -41q106 -1 172 63q68 64 68 146t-35 138q-35 57 -143 120l-105 62q-156 90 -219 183t-63 212q0 156 131 253
q132 97 300 97t279 -28q25 -6 25 -23l-6 -209q0 -55 -23 -55z" />
    <glyph glyph-name="agrave" unicode="&#xe0;" 
d="M410 530h348q12 0 8 11l-170 436q-6 16 -9 16t-9 -16l-175 -434q-5 -13 7 -13zM1366 31q27 -1 27 -19t-78 -18q-195 0 -346 4q-53 4 -54 14q0 16 23 19q10 2 16 13t0 26l-139 352q-4 12 -18 12h-424q-12 0 -17 -12l-96 -236q-27 -61 -27 -108t72 -47h27q27 0 26 -19
q0 -18 -28 -18l-201 6l-209 -6q-33 0 -33 18t21 19l53 2q57 8 88 44t62 109l471 1088q29 70 53 69q18 0 32 -17t224 -506q209 -490 256 -597q76 -172 153 -186q39 -6 66 -6zM799 1482q1 -12 -21 -12t-192 72t-232 100t-61 50q0 12 55 28q56 16 98 36q42 19 50 20t12 -12
q4 -12 21 -35t91 -93t108 -94t43 -30t19 -13q10 -6 9 -17z" />
    <glyph glyph-name="aacute" unicode="&#xe1;" 
d="M410 530h348q12 0 8 11l-170 436q-6 16 -9 16t-9 -16l-175 -434q-5 -13 7 -13zM1366 31q27 -1 27 -19t-78 -18q-195 0 -346 4q-53 4 -54 14q0 16 23 19q10 2 16 13t0 26l-139 352q-4 12 -18 12h-424q-12 0 -17 -12l-96 -236q-27 -61 -27 -108t72 -47h27q27 0 26 -19
q0 -18 -28 -18l-201 6l-209 -6q-33 0 -33 18t21 19l53 2q57 8 88 44t62 109l471 1088q29 70 53 69q18 0 32 -17t224 -506q209 -490 256 -597q76 -172 153 -186q39 -6 66 -6zM510 1480q0 23 158 145t188 141q30 20 44 20t32 -31t55 -117q16 -31 -10 -30l-37 2
q-138 0 -418 -140q-12 0 -12 10z" />
    <glyph glyph-name="acircumflex" unicode="&#xe2;" 
d="M410 530h348q12 0 8 11l-170 436q-6 16 -9 16t-9 -16l-175 -434q-5 -13 7 -13zM1366 31q27 -1 27 -19t-78 -18q-195 0 -346 4q-53 4 -54 14q0 16 23 19q10 2 16 13t0 26l-139 352q-4 12 -18 12h-424q-12 0 -17 -12l-96 -236q-27 -61 -27 -108t72 -47h27q27 0 26 -19
q0 -18 -28 -18l-201 6l-209 -6q-33 0 -33 18t21 19l53 2q57 8 88 44t62 109l471 1088q29 70 53 69q18 0 32 -17t224 -506q209 -490 256 -597q76 -172 153 -186q39 -6 66 -6zM654 1780q11 0 42 -23q39 -35 244 -184q29 -19 29 -29t-11 -20l-59 -60q-15 -14 -25 -14t-46 38
t-108 93t-84 55t-32 -10q-124 -72 -184 -124t-76 -52t-16 20q0 8 18 31q76 77 272 257q24 22 36 22z" />
    <glyph glyph-name="atilde" unicode="&#xe3;" 
d="M410 530h348q12 0 8 11l-170 436q-6 16 -9 16t-9 -16l-175 -434q-5 -13 7 -13zM1366 31q27 -1 27 -19t-78 -18q-195 0 -346 4q-53 4 -54 14q0 16 23 19q10 2 16 13t0 26l-139 352q-4 12 -18 12h-424q-12 0 -17 -12l-96 -236q-27 -61 -27 -108t72 -47h27q27 0 26 -19
q0 -18 -28 -18l-201 6l-209 -6q-33 0 -33 18t21 19l53 2q57 8 88 44t62 109l471 1088q29 70 53 69q18 0 32 -17t224 -506q209 -490 256 -597q76 -172 153 -186q39 -6 66 -6zM786 1470q-68 0 -164 52t-158 51q-62 0 -126 -74q-20 -20 -34 -20t-13 15q-1 15 25 54t83 90
q57 52 108 52t67 -6t25 -9q9 -2 25 -9t19 -10t21 -12t20 -12q80 -45 152 -45t120 62q20 27 33 26q31 0 5 -48q-26 -49 -83 -103t-125 -54z" />
    <glyph glyph-name="adieresis" unicode="&#xe4;" 
d="M410 530h348q12 0 8 11l-170 436q-6 16 -9 16t-9 -16l-175 -434q-5 -13 7 -13zM1366 31q27 -1 27 -19t-78 -18q-195 0 -346 4q-53 4 -54 14q0 16 23 19q10 2 16 13t0 26l-139 352q-4 12 -18 12h-424q-12 0 -17 -12l-96 -236q-27 -61 -27 -108t72 -47h27q27 0 26 -19
q0 -18 -28 -18l-201 6l-209 -6q-33 0 -33 18t21 19l53 2q57 8 88 44t62 109l471 1088q29 70 53 69q18 0 32 -17t224 -506q209 -490 256 -597q76 -172 153 -186q39 -6 66 -6zM429 1470q-44 0 -68 30q-23 30 -23 66t24 66t68 29q43 0 71 -24q27 -23 27 -65t-28 -72t-71 -30z
M861 1470q-43 0 -67 30t-24 66t25 66t67 31q42 0 71 -25q28 -24 28 -66t-28 -72t-72 -30z" />
    <glyph glyph-name="aring" unicode="&#xe5;" 
d="M410 530h348q12 0 8 11l-170 436q-6 16 -9 16t-9 -16l-175 -434q-5 -13 7 -13zM1366 31q27 -1 27 -19t-78 -18q-195 0 -346 4q-53 4 -54 14q0 16 23 19q10 2 16 13t0 26l-139 352q-4 12 -18 12h-424q-12 0 -17 -12l-96 -236q-27 -61 -27 -108t72 -47h27q27 0 26 -19
q0 -18 -28 -18l-201 6l-209 -6q-33 0 -33 18t21 19l53 2q57 8 88 44t62 109l471 1088q29 70 53 69q18 0 32 -17t224 -506q209 -490 256 -597q76 -172 153 -186q39 -6 66 -6zM762 1606q0 40 -28 68t-75 28t-85 -26t-37 -72q-1 -45 31 -74t77 -29t81 32t36 73zM608 1450
q-96 0 -146 35t-50 97t82 117q82 54 184 54t156 -33t53 -86q2 -80 -91 -132q-92 -52 -188 -52z" />
    <glyph glyph-name="ae" unicode="&#xe6;" horiz-adv-x="1712" 
d="M848 690v436h-8q-156 -246 -260 -432q-10 -16 8 -16h243q17 0 17 12zM735 -6q-35 0 -35 18t31 18t55 7q42 10 52 88t10 367v83q0 14 -17 15h-299q-20 0 -28 -12t-91 -153t-98 -163q-78 -127 -77 -172q0 -59 122 -59q27 -1 27 -19t-35 -18l-266 6l-229 -6q-25 0 -25 18
t48 19t112 44q27 17 47 40t34 38q13 15 31 40t33 43t173 254t316 476q159 241 175 264t24 52t25 29l96 -4h492q6 0 78 10l28 8q10 0 10 -16l-14 -113q0 -63 -8 -115q-6 -27 -23 -26q-16 -1 -16 29t-10 58t-33 42t-76 20t-293 6q-12 0 -12 -16v-487q0 -18 12 -19q231 0 306 4
t98 25q18 23 29 23q12 0 12 -11q0 -10 -10 -97q-10 -86 -11 -138q0 -52 -18 -52t-19 15q-6 57 -8 63q-14 59 -96 68q-51 6 -285 6q-10 0 -10 -16v-349q0 -85 49 -111q48 -26 180 -26t179 21q66 29 82 129q2 27 18 26q18 0 18 -41q0 -96 -22 -192q-9 -33 -25 -39t-73 -6
l-539 10l-92 -2q-74 -4 -109 -4z" />
    <glyph glyph-name="ccedilla" unicode="&#xe7;" horiz-adv-x="1443" 
d="M1333 324q21 0 21 -26t-14 -112t-24 -124q-11 -38 -48 -52q-96 -39 -326 -39h-43l-154 -112q115 -9 179 -53t63 -118q0 -74 -90 -143q-90 -70 -287 -69q-35 0 -35 20q-1 27 55 27t113 39t58 98q0 125 -162 150q-45 6 -45 14t33 33l164 123q-287 29 -467 180
q-225 188 -226 514q0 115 48 245t163 232q211 184 572 184q146 0 279 -21q132 -20 161 -24t29 -22q0 -6 -1 -16l-3 -32q-11 -121 -11 -237q-4 -43 -23 -43t-20 37q-4 96 -69 162q-106 102 -340 102t-348 -98q-166 -143 -166 -453q0 -147 53 -268q96 -219 317 -304
q96 -38 208 -38q111 0 181 17t121 75t59 104q8 48 25 48z" />
    <glyph glyph-name="egrave" unicode="&#xe8;" horiz-adv-x="1179" 
d="M274 1692q0 12 56 28t97 36q42 19 50 20t11 -8q12 -35 99 -119q87 -83 121 -107q51 -36 62 -42q10 -6 10 -17q0 -13 -21 -13t-191 72t-232 100t-62 50zM178 -6q-37 0 -37 18t34 18t58 7q43 10 53 88t9 375v307q0 313 -2 363q-3 50 -19 69q-34 37 -131 37q-31 0 -30 18
q0 16 41 17l260 -4h491q8 0 76 10l29 8q12 0 12 -16q0 -4 -5 -23t-9 -99q-5 -80 -11 -107q-6 -28 -20 -27t-14 31q-1 30 -13 57t-35 41t-84 21t-282 7q-12 0 -12 -16v-430q0 -18 12 -19q275 -1 329 5t72 26q27 23 29 23q14 0 14 -19q0 -4 -11 -100t-11 -140q1 -42 -17 -42
t-18 22t-6 55q-18 59 -92 67t-291 9q-10 0 -10 -18v-397q2 -88 52 -117t180 -29t185 25t74 127q6 27 21 26q16 0 16 -41q0 -109 -25 -192q-8 -33 -24 -39t-72 -6l-541 10l-102 -2q-86 -4 -123 -4z" />
    <glyph glyph-name="eacute" unicode="&#xe9;" horiz-adv-x="1179" 
d="M453 1480q-1 23 157 145t188 141q30 20 44 20t32 -31t56 -117q16 -31 -10 -30h-70q-147 -19 -385 -138q-12 0 -12 10zM178 -6q-37 0 -37 18t34 18t58 7q43 10 53 88t9 375v307q0 313 -2 363q-3 50 -19 69q-34 37 -131 37q-31 0 -30 18q0 16 41 17l260 -4h491q8 0 76 10
l29 8q12 0 12 -16q0 -4 -5 -23t-9 -99q-5 -80 -11 -107q-6 -28 -20 -27t-14 31q-1 30 -13 57t-35 41t-84 21t-282 7q-12 0 -12 -16v-430q0 -18 12 -19q275 -1 329 5t72 26q27 23 29 23q14 0 14 -19q0 -4 -11 -100t-11 -140q1 -42 -17 -42t-18 22t-6 55q-18 59 -92 67t-291 9
q-10 0 -10 -18v-397q2 -88 52 -117t180 -29t185 25t74 127q6 27 21 26q16 0 16 -41q0 -109 -25 -192q-8 -33 -24 -39t-72 -6l-541 10l-102 -2q-86 -4 -123 -4z" />
    <glyph glyph-name="ecircumflex" unicode="&#xea;" horiz-adv-x="1179" 
d="M597 1780q11 0 42 -23q39 -35 244 -184q29 -19 29 -29t-11 -20l-59 -60q-14 -14 -24 -14t-48 39q-37 39 -109 93q-71 54 -82 54t-32 -10q-125 -72 -185 -124t-75 -52q-16 0 -17 20q0 8 19 31q77 77 273 257q24 22 35 22zM178 -6q-37 0 -37 18t34 18t58 7q43 10 53 88
t9 375v307q0 313 -2 363q-3 50 -19 69q-34 37 -131 37q-31 0 -30 18q0 16 41 17l260 -4h491q8 0 76 10l29 8q12 0 12 -16q0 -4 -5 -23t-9 -99q-5 -80 -11 -107q-6 -28 -20 -27t-14 31q-1 30 -13 57t-35 41t-84 21t-282 7q-12 0 -12 -16v-430q0 -18 12 -19q275 -1 329 5
t72 26q27 23 29 23q14 0 14 -19q0 -4 -11 -100t-11 -140q1 -42 -17 -42t-18 22t-6 55q-18 59 -92 67t-291 9q-10 0 -10 -18v-397q2 -88 52 -117t180 -29t185 25t74 127q6 27 21 26q16 0 16 -41q0 -109 -25 -192q-8 -33 -24 -39t-72 -6l-541 10l-102 -2q-86 -4 -123 -4z" />
    <glyph glyph-name="edieresis" unicode="&#xeb;" horiz-adv-x="1179" 
d="M390 1470q-44 0 -68 30t-23 66q0 36 25 66q26 30 68 29q42 0 70 -24q28 -23 28 -65t-28 -72t-72 -30zM822 1470q-44 0 -68 30t-23 66q0 36 25 66q26 30 68 31q42 0 70 -25q28 -24 28 -66t-28 -72t-72 -30zM178 -6q-37 0 -37 18t34 18t58 7q43 10 53 88t9 375v307
q0 313 -2 363q-3 50 -19 69q-34 37 -131 37q-31 0 -30 18q0 16 41 17l260 -4h491q8 0 76 10l29 8q12 0 12 -16q0 -4 -5 -23t-9 -99q-5 -80 -11 -107q-6 -28 -20 -27t-14 31q-1 30 -13 57t-35 41t-84 21t-282 7q-12 0 -12 -16v-430q0 -18 12 -19q275 -1 329 5t72 26
q27 23 29 23q14 0 14 -19q0 -4 -11 -100t-11 -140q1 -42 -17 -42t-18 22t-6 55q-18 59 -92 67t-291 9q-10 0 -10 -18v-397q2 -88 52 -117t180 -29t185 25t74 127q6 27 21 26q16 0 16 -41q0 -109 -25 -192q-8 -33 -24 -39t-72 -6l-541 10l-102 -2q-86 -4 -123 -4z" />
    <glyph glyph-name="igrave" unicode="&#xec;" horiz-adv-x="833" 
d="M61 1692q-1 12 55 28t98 36q42 19 50 20t11 -8q12 -35 99 -119q88 -83 122 -107q51 -36 61 -42t10 -17q0 -13 -21 -13q-22 0 -192 72t-232 100t-61 50zM141 12q0 18 34 18t58 7q45 10 53 83t9 380v307q0 313 -2 363q-3 50 -17 68q-29 38 -110 38q-29 0 -29 20q0 14 43 15
l242 -4l231 4q37 0 37 -15q0 -20 -26 -20q-86 0 -106 -33q-13 -20 -17 -71t-4 -365v-307q0 -308 6 -364t21 -74q25 -30 145 -31q29 0 28 -19q0 -18 -35 -18l-290 6l-236 -6q-35 0 -35 18z" />
    <glyph glyph-name="iacute" unicode="&#xed;" horiz-adv-x="833" 
d="M279 1480q-1 23 157 145t188 141q30 20 44 20t31 -31t57 -117q14 -31 -11 -30h-69q-147 -19 -385 -138q-12 0 -12 10zM141 12q0 18 34 18t58 7q45 10 53 83t9 380v307q0 313 -2 363q-3 50 -17 68q-29 38 -110 38q-29 0 -29 20q0 14 43 15l242 -4l231 4q37 0 37 -15
q0 -20 -26 -20q-86 0 -106 -33q-13 -20 -17 -71t-4 -365v-307q0 -308 6 -364t21 -74q25 -30 145 -31q29 0 28 -19q0 -18 -35 -18l-290 6l-236 -6q-35 0 -35 18z" />
    <glyph glyph-name="icircumflex" unicode="&#xee;" horiz-adv-x="833" 
d="M423 1780q11 0 42 -23q39 -35 244 -184q29 -19 29 -29t-11 -20l-59 -60q-14 -14 -24 -14t-48 39q-37 39 -110 93q-72 54 -82 54t-31 -10q-125 -72 -185 -124t-75 -52q-16 0 -17 20q0 8 19 31q77 77 273 257q24 22 35 22zM141 12q0 18 34 18t58 7q45 10 53 83t9 380v307
q0 313 -2 363q-3 50 -17 68q-29 38 -110 38q-29 0 -29 20q0 14 43 15l242 -4l231 4q37 0 37 -15q0 -20 -26 -20q-86 0 -106 -33q-13 -20 -17 -71t-4 -365v-307q0 -308 6 -364t21 -74q25 -30 145 -31q29 0 28 -19q0 -18 -35 -18l-290 6l-236 -6q-35 0 -35 18z" />
    <glyph glyph-name="idieresis" unicode="&#xef;" horiz-adv-x="833" 
d="M106 1566q0 36 25 66t68 29q43 0 71 -24q28 -23 27 -65q1 -42 -27 -72t-72 -30t-68 30t-24 66zM631 1663q43 0 71 -25q28 -24 27 -66q1 -42 -27 -72t-72 -30t-68 30t-24 66t26 66q24 30 67 31zM141 12q0 18 34 18t58 7q45 10 53 83t9 380v307q0 313 -2 363q-3 50 -17 68
q-29 38 -110 38q-29 0 -29 20q0 14 43 15l242 -4l231 4q37 0 37 -15q0 -20 -26 -20q-86 0 -106 -33q-13 -20 -17 -71t-4 -365v-307q0 -308 6 -364t21 -74q25 -30 145 -31q29 0 28 -19q0 -18 -35 -18l-290 6l-236 -6q-35 0 -35 18z" />
    <glyph glyph-name="eth" unicode="&#xf0;" horiz-adv-x="1705" 
d="M537 711h360q14 0 12 -21l-10 -65q-4 -16 -20 -17h-342v-80q0 -349 24 -387q51 -71 213 -71t257 28t173 95q144 123 144 413t-175 453q-175 162 -487 162q-92 -1 -120 -11t-27 -36q-2 -59 -2 -340v-123zM178 -6q-37 0 -37 18t34 18t58 7q43 10 53 88t9 375v110h-182
q-12 0 -9 21l9 61q2 16 24 17h158v98q0 313 -2 363q-3 50 -19 69q-34 37 -131 37q-31 0 -30 18q0 16 41 17l260 -4l293 4q394 0 566 -85q89 -44 159 -114q174 -174 174 -456t-195 -476q-75 -74 -233 -137t-344 -63q-96 0 -184 6t-133 8q-44 2 -72 4t-42 2l-102 -2
q-86 -4 -123 -4z" />
    <glyph glyph-name="ntilde" unicode="&#xf1;" horiz-adv-x="1722" 
d="M998 1470q-68 0 -164 52t-156 51q-62 0 -127 -74q-19 -20 -33 -20t-14 15t26 54t82 90q57 52 108 52t67 -6t25 -9q8 -2 24 -9t20 -10t22 -12t19 -12q79 -45 151 -45t121 62q20 27 33 26q31 0 5 -48q-26 -49 -83 -103q-58 -54 -126 -54zM1616 1294q0 -18 -32 -18t-62 -8
t-42 -38q-13 -30 -16 -104l-20 -1097q0 -55 -29 -56q-37 0 -74 37q-488 456 -648 621t-224 233q-63 68 -76 78h-6l21 -711q4 -168 61 -188q37 -12 81 -12q44 -1 44 -19t-41 -18l-234 6l-194 -6q-41 0 -41 18t39 18t73 9q34 8 43 50t11 161l16 1032q0 59 31 59q20 0 78 -57
l59 -59q195 -202 371 -374q176 -173 269 -267t164 -165l81 -81h8l-18 774q-1 78 -15 110t-44 43t-97 11q-29 0 -29 17t45 18l230 -4l176 4q41 1 41 -17z" />
    <glyph glyph-name="ograve" unicode="&#xf2;" horiz-adv-x="1693" 
d="M997 1483q0 -13 -21 -13q-22 0 -192 72t-232 100t-60 50q0 12 55 28t97 36q42 19 49 20t12 -8q9 -19 25 -41q15 -21 88 -91q74 -70 108 -94q51 -36 61 -42q10 -5 10 -17zM909 66q108 0 184 44t121 100t77 162t32 249q1 283 -149 453t-373 169q-168 0 -292 -105
q-67 -56 -106 -167t-38 -264q0 -277 147 -459t397 -182zM836 -29q-188 1 -334 63t-232 164q-172 204 -172 455q0 198 110 369q126 195 358 270q130 43 288 43q340 0 539 -176t199 -479t-208 -506q-206 -203 -548 -203z" />
    <glyph glyph-name="oacute" unicode="&#xf3;" horiz-adv-x="1693" 
d="M709 1480q-1 23 157 145t188 141q30 20 44 20t31 -31t57 -117q14 -31 -10 -30h-70q-147 -19 -385 -138q-12 0 -12 10zM909 66q108 0 184 44t121 100t77 162t32 249q1 283 -149 453t-373 169q-168 0 -292 -105q-67 -56 -106 -167t-38 -264q0 -277 147 -459t397 -182z
M836 -29q-188 1 -334 63t-232 164q-172 204 -172 455q0 198 110 369q126 195 358 270q130 43 288 43q340 0 539 -176t199 -479t-208 -506q-206 -203 -548 -203z" />
    <glyph glyph-name="ocircumflex" unicode="&#xf4;" horiz-adv-x="1693" 
d="M853 1780q11 0 42 -23q39 -35 244 -184q29 -19 29 -29t-11 -20l-59 -60q-14 -14 -24 -14t-48 39q-37 39 -110 93q-72 54 -82 54t-31 -10q-125 -72 -185 -124t-75 -52q-16 0 -17 20q0 8 19 31q77 77 273 257q24 22 35 22zM909 66q108 0 184 44t121 100t77 162t32 249
q1 283 -149 453t-373 169q-168 0 -292 -105q-67 -56 -106 -167t-38 -264q0 -277 147 -459t397 -182zM836 -29q-188 1 -334 63t-232 164q-172 204 -172 455q0 198 110 369q126 195 358 270q130 43 288 43q340 0 539 -176t199 -479t-208 -506q-206 -203 -548 -203z" />
    <glyph glyph-name="otilde" unicode="&#xf5;" horiz-adv-x="1693" 
d="M1204 1659q0 -10 -18 -45q-18 -36 -76 -90t-126 -54t-164 52q-94 52 -156 51q-62 0 -127 -74q-19 -20 -33 -20t-14 15t25 54q26 39 83 90q57 52 108 52t67 -6q15 -6 30 -10q15 -3 29 -12t31 -18t20 -12q79 -45 151 -45t121 62q20 27 33 26q16 0 16 -16zM909 66
q108 0 184 44t121 100t77 162t32 249q1 283 -149 453t-373 169q-168 0 -292 -105q-67 -56 -106 -167t-38 -264q0 -277 147 -459t397 -182zM836 -29q-188 1 -334 63t-232 164q-172 204 -172 455q0 198 110 369q126 195 358 270q130 43 288 43q340 0 539 -176t199 -479
t-208 -506q-206 -203 -548 -203z" />
    <glyph glyph-name="odieresis" unicode="&#xf6;" horiz-adv-x="1693" 
d="M629 1661q43 0 71 -24q28 -23 27 -65q1 -42 -27 -72t-72 -30t-68 30t-24 66t26 66q24 30 67 29zM1060 1470q-44 0 -68 30t-24 66t26 66q24 30 67 31q43 0 71 -25q28 -24 28 -66t-28 -72t-72 -30zM909 66q108 0 184 44t121 100t77 162t32 249q1 283 -149 453t-373 169
q-168 0 -292 -105q-67 -56 -106 -167t-38 -264q0 -277 147 -459t397 -182zM836 -29q-188 1 -334 63t-232 164q-172 204 -172 455q0 198 110 369q126 195 358 270q130 43 288 43q340 0 539 -176t199 -479t-208 -506q-206 -203 -548 -203z" />
    <glyph glyph-name="divide" unicode="&#xf7;" horiz-adv-x="1124" 
d="M668 179q0 -50 -31 -83t-79 -33t-79 33t-31 83t31 82t80 32t79 -32t30 -82zM1042 457h-960v125h960v-125zM668 861q0 -50 -31 -83t-79 -33t-79 33t-31 83t31 82t80 32t79 -32t30 -82z" />
    <glyph glyph-name="oslash" unicode="&#xf8;" horiz-adv-x="1683" 
d="M797 1241q-163 0 -288 -104q-67 -55 -105 -166t-37 -266q0 -219 88 -377l721 733q-131 180 -379 180zM1313 618q0 201 -84 357l-719 -729q139 -182 397 -183q104 1 180 45t120 101t75 163t31 246zM98 653q0 201 108 369q126 196 353 270q129 43 285 43q289 0 473 -127
l135 144q10 10 25 -4l51 -54q8 -8 0 -18l-133 -133q184 -168 184 -467t-204 -502t-525 -203t-479 133l-152 -153q-10 -8 -18 0l-56 51q-12 10 -4 18l154 148q-197 195 -197 485z" />
    <glyph glyph-name="ugrave" unicode="&#xf9;" horiz-adv-x="1556" 
d="M424 1692q0 12 56 28t97 36q42 19 50 20t12 -12q4 -12 21 -35q16 -23 90 -93t108 -94t44 -30q8 -6 18 -13q10 -6 10 -17q0 -12 -22 -12t-191 72t-231 100t-62 50zM1499 1294q1 -18 -25 -18q-86 0 -107 -33q-13 -20 -17 -67q-4 -111 -4 -369v-186q0 -177 -35 -309
t-137 -216q-150 -125 -404 -125q-554 0 -553 580v256q0 340 -2 377t-18 55q-33 37 -129 37q-31 0 -31 17t39 18l270 -4l232 4q39 0 38 -17q0 -18 -23 -18q-85 0 -107 -33q-13 -20 -17 -71t-4 -365v-244q0 -180 33 -273q32 -93 112 -156q80 -62 223 -62t238 92q68 62 86 160
t19 264v219q0 258 -5 369q-4 45 -18 63q-29 37 -123 37q-31 0 -31 17t32 17t63 1l143 -4h14l211 4q37 1 37 -17z" />
    <glyph glyph-name="uacute" unicode="&#xfa;" horiz-adv-x="1556" 
d="M641 1480q0 23 158 145q157 122 187 141q30 20 44 20t34 -31q18 -31 54 -117q16 -31 -10 -30h-70q-147 -19 -385 -138q-12 0 -12 10zM1499 1294q1 -18 -25 -18q-86 0 -107 -33q-13 -20 -17 -67q-4 -111 -4 -369v-186q0 -177 -35 -309t-137 -216q-150 -125 -404 -125
q-554 0 -553 580v256q0 340 -2 377t-18 55q-33 37 -129 37q-31 0 -31 17t39 18l270 -4l232 4q39 0 38 -17q0 -18 -23 -18q-85 0 -107 -33q-13 -20 -17 -71t-4 -365v-244q0 -180 33 -273q32 -93 112 -156q80 -62 223 -62t238 92q68 62 86 160t19 264v219q0 258 -5 369
q-4 45 -18 63q-29 37 -123 37q-31 0 -31 17t32 17t63 1l143 -4h14l211 4q37 1 37 -17z" />
    <glyph glyph-name="ucircumflex" unicode="&#xfb;" horiz-adv-x="1556" 
d="M786 1780q11 0 41 -23q39 -35 244 -184q29 -19 29 -29t-10 -20l-60 -60q-14 -14 -24 -14t-47 39t-110 93t-83 54t-31 -10q-125 -72 -185 -124t-75 -52q-16 0 -16 20q0 8 18 31q16 16 132 125q116 110 141 132t36 22zM1499 1294q1 -18 -25 -18q-86 0 -107 -33
q-13 -20 -17 -67q-4 -111 -4 -369v-186q0 -177 -35 -309t-137 -216q-150 -125 -404 -125q-554 0 -553 580v256q0 340 -2 377t-18 55q-33 37 -129 37q-31 0 -31 17t39 18l270 -4l232 4q39 0 38 -17q0 -18 -23 -18q-85 0 -107 -33q-13 -20 -17 -71t-4 -365v-244
q0 -180 33 -273q32 -93 112 -156q80 -62 223 -62t238 92q68 62 86 160t19 264v219q0 258 -5 369q-4 45 -18 63q-29 37 -123 37q-31 0 -31 17t32 17t63 1l143 -4h14l211 4q37 1 37 -17z" />
    <glyph glyph-name="udieresis" unicode="&#xfc;" horiz-adv-x="1556" 
d="M487 1566q0 36 25 66t68 29q42 0 70 -24q28 -23 28 -65t-28 -72t-71 -30q-44 0 -68 30t-24 66zM1012 1663q42 0 70 -25q28 -24 28 -66t-28 -72t-71 -30q-44 0 -68 30q-23 30 -23 66t24 66t68 31zM1499 1294q1 -18 -25 -18q-86 0 -107 -33q-13 -20 -17 -67
q-4 -111 -4 -369v-186q0 -177 -35 -309t-137 -216q-150 -125 -404 -125q-554 0 -553 580v256q0 340 -2 377t-18 55q-33 37 -129 37q-31 0 -31 17t39 18l270 -4l232 4q39 0 38 -17q0 -18 -23 -18q-85 0 -107 -33q-13 -20 -17 -71t-4 -365v-244q0 -180 33 -273
q32 -93 112 -156q80 -62 223 -62t238 92q68 62 86 160t19 264v219q0 258 -5 369q-4 45 -18 63q-29 37 -123 37q-31 0 -31 17t32 17t63 1l143 -4h14l211 4q37 1 37 -17z" />
    <glyph glyph-name="yacute" unicode="&#xfd;" horiz-adv-x="1208" 
d="M467 1480q0 23 158 145q157 122 187 141q30 20 44 20t32 -31q17 -31 56 -117q14 -31 -10 -30h-70q-147 -19 -385 -138q-12 0 -12 10zM336 12q0 18 34 18t58 7q49 10 55 88t6 178v143q0 96 -40 183q-8 20 -141 226q-132 205 -192 289t-103 108q-44 24 -75 24t-30 18
q0 16 35 17l225 -4l205 4q27 0 26 -17q0 -10 -18 -16t-23 -6q-44 -11 -2 -86q16 -25 150 -255t149 -255q4 8 128 222t146 257q53 104 -18 119q-33 8 -32 20q0 16 30 17l176 -4l193 4q33 0 33 -15q0 -20 -34 -20q-88 0 -173 -102q-43 -52 -184 -276t-165 -280t-24 -176v-139
q0 -100 5 -178t73 -88q39 -6 80 -6q41 -1 41 -19t-39 -18l-283 6l-233 -6q-39 0 -39 18z" />
    <glyph glyph-name="thorn" unicode="&#xfe;" horiz-adv-x="1224" 
d="M141 12q0 18 34 18t58 7q43 10 53 88t9 375v307q0 313 -3 363q-2 50 -18 70q-29 36 -131 36q-31 0 -30 18q0 16 41 17l258 -4l268 4q35 1 35 -17q1 -18 -23 -18t-74 -8q-78 -10 -80 -82t-3 -162q80 6 157 6q248 0 361 -98q35 -29 61 -86t27 -121q0 -184 -126 -299
t-327 -115q-45 0 -53 2q-23 0 -23 17q0 23 52 22q92 0 168 80t75 197q0 166 -100 262q-63 59 -182 59q-51 0 -76 -12q-14 -2 -14 -33v-405q0 -296 7 -356t20 -80q21 -33 138 -33q25 -1 25 -19t-37 -18l-285 6l-227 -6q-35 0 -35 18z" />
    <glyph glyph-name="ydieresis" unicode="&#xff;" horiz-adv-x="1208" 
d="M386 1470q-44 0 -68 30t-24 66t26 66q24 30 67 29q43 0 71 -24q28 -23 28 -65t-28 -72t-72 -30zM818 1470q-44 0 -68 30t-23 66q0 36 25 66q26 30 68 31q42 0 70 -25q28 -24 28 -66t-28 -72t-72 -30zM336 12q0 18 34 18t58 7q49 10 55 88t6 178v143q0 96 -40 183
q-8 20 -141 226q-132 205 -192 289t-103 108q-44 24 -75 24t-30 18q0 16 35 17l225 -4l205 4q27 0 26 -17q0 -10 -18 -16t-23 -6q-44 -11 -2 -86q16 -25 150 -255t149 -255q4 8 128 222t146 257q53 104 -18 119q-33 8 -32 20q0 16 30 17l176 -4l193 4q33 0 33 -15
q0 -20 -34 -20q-88 0 -173 -102q-43 -52 -184 -276t-165 -280t-24 -176v-139q0 -100 5 -178t73 -88q39 -6 80 -6q41 -1 41 -19t-39 -18l-283 6l-233 -6q-39 0 -39 18z" />
    <glyph glyph-name="Amacron" unicode="&#x100;" horiz-adv-x="1433" 
d="M459 618h377q14 0 10 13l-184 504q-4 18 -12 18t-11 -18l-188 -502q-4 -15 8 -15zM-80 -6q-51 0 -51 18t28 18t77 7q50 6 86 50t71 132l514 1270q19 47 31 64t26 18q23 -1 49 -59q25 -58 233 -571t285 -697t173 -205q41 -8 77 -8t35 -17q0 -20 -94 -20q-223 0 -387 4
q-61 4 -61 18t28 17q32 11 19 47l-164 422q-7 14 -21 14h-456q-12 0 -19 -16l-110 -281q-31 -76 -31 -125q0 -63 82 -63h31q31 0 30 -17q0 -20 -34 -20l-217 6l-89 -4q-90 -2 -141 -2zM952 1755h-491q-10 0 -15 3q-4 3 -2 11l17 74q6 18 22 19h492q23 0 16 -21l-16 -74
q-5 -12 -23 -12z" />
    <glyph glyph-name="amacron" unicode="&#x101;" 
d="M410 530h348q12 0 8 11l-170 436q-6 16 -9 16t-9 -16l-175 -434q-5 -13 7 -13zM1366 31q27 -1 27 -19t-78 -18q-195 0 -346 4q-53 4 -54 14q0 16 23 19q10 2 16 13t0 26l-139 352q-4 12 -18 12h-424q-12 0 -17 -12l-96 -236q-27 -61 -27 -108t72 -47h27q27 0 26 -19
q0 -18 -28 -18l-201 6l-209 -6q-33 0 -33 18t21 19l53 2q57 8 88 44t62 109l471 1088q29 70 53 69q18 0 32 -17t224 -506q209 -490 256 -597q76 -172 153 -186q39 -6 66 -6zM883 1526h-492q-10 0 -14 3t-2 11l16 74q6 18 23 18h491q23 0 17 -20l-17 -74q-4 -12 -22 -12z" />
    <glyph glyph-name="Abreve" unicode="&#x102;" horiz-adv-x="1433" 
d="M459 618h377q14 0 10 13l-184 504q-4 18 -12 18t-11 -18l-188 -502q-4 -15 8 -15zM-80 -6q-51 0 -51 18t28 18t77 7q50 6 86 50t71 132l514 1270q19 47 31 64t26 18q23 -1 49 -59q25 -58 233 -571t285 -697t173 -205q41 -8 77 -8t35 -17q0 -20 -94 -20q-223 0 -387 4
q-61 4 -61 18t28 17q32 11 19 47l-164 422q-7 14 -21 14h-456q-12 0 -19 -16l-110 -281q-31 -76 -31 -125q0 -63 82 -63h31q31 0 30 -17q0 -20 -34 -20l-217 6l-89 -4q-90 -2 -141 -2zM403 1881q0 15 17 26l67 53q17 14 25 14q14 0 45 -47q78 -90 182 -90q141 0 234 98
l28 28q8 7 15 7q16 0 16 -20t-46 -73q-130 -147 -302 -147q-115 0 -198 68t-83 83z" />
    <glyph glyph-name="abreve" unicode="&#x103;" 
d="M410 530h348q12 0 8 11l-170 436q-6 16 -9 16t-9 -16l-175 -434q-5 -13 7 -13zM1366 31q27 -1 27 -19t-78 -18q-195 0 -346 4q-53 4 -54 14q0 16 23 19q10 2 16 13t0 26l-139 352q-4 12 -18 12h-424q-12 0 -17 -12l-96 -236q-27 -61 -27 -108t72 -47h27q27 0 26 -19
q0 -18 -28 -18l-201 6l-209 -6q-33 0 -33 18t21 19l53 2q57 8 88 44t62 109l471 1088q29 70 53 69q18 0 32 -17t224 -506q209 -490 256 -597q76 -172 153 -186q39 -6 66 -6zM614 1470q-116 0 -198 68t-82 83t16 26l68 53q16 14 24 14q14 0 45 -47q79 -90 183 -90
q140 0 233 98q35 35 43 35q16 0 16 -20t-46 -73q-131 -147 -302 -147z" />
    <glyph glyph-name="Aogonek" unicode="&#x104;" horiz-adv-x="1433" 
d="M-80 -6q-51 0 -51 18t28 18t77 7q50 6 86 50t71 132l514 1270q19 47 31 64t26 18q23 -1 49 -59q25 -58 233 -571t285 -697t173 -205q41 -8 77 -8t35 -17q0 -20 -94 -20q-8 0 -134 6t-185 -21q-59 -28 -92 -94t-33 -133q0 -100 119 -100q45 0 88 34t47 33q18 0 18 -14
t-16 -35q-123 -135 -254 -135q-94 0 -140 37t-46 118t79 174q80 93 138 126q25 14 24 45q0 2 -14 45l-164 422q-6 14 -21 14h-456q-12 0 -19 -16l-110 -281q-31 -76 -31 -125q0 -63 82 -63h31q31 0 30 -17q0 -20 -34 -20l-217 6l-89 -4q-90 -2 -141 -2zM459 618h377
q14 0 10 13l-184 506q-4 18 -12 18t-11 -18l-188 -504q-4 -15 8 -15z" />
    <glyph glyph-name="aogonek" unicode="&#x105;" 
d="M883 -465q-187 -1 -187 143q0 70 42 134t91 106q49 43 91 77t43 44q0 10 -9 31l-139 352q-4 12 -18 12h-424q-12 0 -17 -12l-96 -236q-27 -61 -27 -108t72 -47h27q27 0 26 -19q0 -18 -28 -18l-201 6l-209 -6q-33 0 -33 18t21 19l53 2q57 8 88 44t62 109l471 1088
q29 70 53 69q18 0 32 -17t224 -506q209 -490 256 -597q76 -172 153 -186q39 -6 66 -6q27 -1 27 -19t-78 -18q-10 0 -96 4l-127 2q-70 0 -141 -66t-70 -182q-1 -100 118 -100q45 0 88 34t48 33q18 0 18 -14t-16 -35q-123 -135 -254 -135zM410 530h348q12 0 8 11l-170 436
q-6 16 -9 16t-9 -16l-175 -434q-5 -13 7 -13z" />
    <glyph glyph-name="Cacute" unicode="&#x106;" horiz-adv-x="1638" 
d="M1260 1837h-70q-78 -10 -181 -48q-103 -37 -153 -63t-56 -26q-7 0 -7 10t18 29q55 51 176 144t151 113t44 20t32 -31t56 -117q16 -31 -10 -31zM1069 -35q-444 0 -702 223q-254 223 -254 605q0 135 54 287t185 274q238 217 647 217q203 0 402 -38q67 -13 99 -16t32 -26
q0 -6 -6 -44t-7 -153q-1 -116 -4 -150t-23 -34t-22 45q-7 202 -245 280q-113 36 -250 35q-246 0 -385 -127q-188 -172 -189 -530q-1 -174 61 -318q108 -254 367 -364q111 -47 237 -47t211 24t141 87t73 139q4 25 9 33t18 8q18 0 18 -27t-15 -128t-29 -146t-54 -62
q-119 -47 -369 -47z" />
    <glyph glyph-name="cacute" unicode="&#x107;" horiz-adv-x="1443" 
d="M686 1480q0 22 158 145q158 122 188 141q30 20 44 20t32 -31t55 -117q16 -31 -10 -30l-37 2q-138 0 -418 -140q-12 0 -12 10zM942 -29q-393 1 -618 189t-226 514q0 115 48 245t163 232q211 184 572 184q146 0 279 -21q132 -20 161 -24t29 -22q0 -6 -1 -16l-3 -32
q-11 -121 -11 -237q-4 -43 -23 -43t-20 37q-4 96 -69 162q-106 102 -340 102t-348 -98q-166 -143 -166 -453q0 -147 53 -268q96 -219 317 -304q96 -38 208 -38q111 0 181 17t121 75t59 104q8 48 27 48t19 -26t-14 -112t-24 -124q-11 -38 -48 -52q-97 -39 -326 -39z" />
    <glyph glyph-name="Ccaron" unicode="&#x10c;" horiz-adv-x="1638" 
d="M714 2009q10 -1 36 -25q24 -24 92 -79t85 -69t30 -13q13 0 28 8q109 66 177 122t84 56t16 -16q0 -15 -18 -33q-96 -96 -271 -256q-27 -25 -38 -25t-42 23q-39 35 -244 184q-29 20 -29 30t11 19l59 60q14 14 24 14zM1069 -35q-444 0 -702 223q-254 223 -254 605
q0 135 54 287t185 274q238 217 647 217q203 0 402 -38q67 -13 99 -16t32 -26q0 -6 -6 -44t-7 -153q-1 -116 -4 -150t-23 -34t-22 45q-7 202 -245 280q-113 36 -250 35q-246 0 -385 -127q-188 -172 -189 -530q-1 -174 61 -318q108 -254 367 -364q111 -47 237 -47t211 24
t141 87t73 139q4 25 9 33t18 8q18 0 18 -27t-15 -128t-29 -146t-54 -62q-119 -47 -369 -47z" />
    <glyph glyph-name="ccaron" unicode="&#x10d;" horiz-adv-x="1443" 
d="M839 1450q-11 0 -42 23q-39 35 -244 184q-29 19 -29 29t11 20l59 59q14 15 24 15t46 -36t109 -93t87 -57t76 36q62 38 130 94t84 56q15 0 15 -16t-17 -34q-95 -95 -271 -255q-27 -25 -38 -25zM942 -29q-393 1 -618 189t-226 514q0 115 48 245t163 232q211 184 572 184
q146 0 279 -21q132 -20 161 -24t29 -22q0 -6 -1 -16l-3 -32q-11 -121 -11 -237q-4 -43 -23 -43t-20 37q-4 96 -69 162q-106 102 -340 102t-348 -98q-166 -143 -166 -453q0 -147 53 -268q96 -219 317 -304q96 -38 208 -38q111 0 181 17t121 75t59 104q8 48 27 48t19 -26
t-14 -112t-24 -124q-11 -38 -48 -52q-97 -39 -326 -39z" />
    <glyph glyph-name="Dcaron" unicode="&#x10e;" horiz-adv-x="1916" 
d="M690 2009q10 -1 35 -25t93 -79t83 -69q17 -14 31 -13q14 0 29 8q109 66 177 122t84 56q15 0 15 -16t-43 -60t-246 -229q-27 -25 -38 -25t-42 23q-39 35 -243 184q-29 20 -29 30t10 19l60 60q14 14 24 14zM592 981v-258q0 -337 5 -441t21 -128q55 -82 269 -82
q301 0 472 147t171 491t-206 540t-572 196q-104 0 -132 -12t-26 -43q-2 -70 -2 -410zM160 12q0 18 35 18t71 9q46 7 58 103t12 446v360q0 369 -4 429t-22 86q-28 42 -146 42q-35 1 -35 19t45 18l295 -6l315 6q133 0 212 -4t204 -24q240 -37 406 -205q198 -207 198 -536
t-223 -556q-94 -96 -263 -169t-423 -73q-80 1 -236 13t-212 12t-105 -2l-141 -4q-41 0 -41 18z" />
    <glyph glyph-name="dcaron" unicode="&#x10f;" horiz-adv-x="1701" 
d="M804 1450q-11 0 -42 23q-39 35 -244 184q-28 19 -28 29t10 20l59 59q15 15 25 15t43 -34t170 -140q28 -21 57 -4q110 66 178 122t83 56t15 -16t-17 -34q-95 -95 -271 -255q-27 -25 -38 -25zM537 834v-220q0 -282 4 -368t20 -107q47 -70 236 -69q251 0 399 122t147 429
q0 153 -49 263t-118 171q-186 166 -504 166q-90 0 -111 -13q-23 -8 -23 -50t-1 -324zM178 -6q-37 0 -37 18t34 18t58 7q43 10 53 88t9 375v307q0 313 -2 363q-3 50 -19 69q-34 37 -131 37q-31 0 -30 18q0 16 41 17l260 -4l293 4q394 0 566 -85q89 -44 159 -114
q170 -170 170 -452t-197 -476q-79 -80 -231 -142t-373 -62l-398 20l-102 -2q-86 -4 -123 -4z" />
    <glyph glyph-name="Dcroat" unicode="&#x110;" horiz-adv-x="1916" 
d="M592 831h409q18 0 15 -24l-12 -68q-4 -18 -25 -18h-387v-94q0 -239 5 -343t21 -128q57 -84 269 -84q309 0 476 150t167 490t-206 538q-206 196 -572 196q-104 0 -132 -12t-26 -43q-2 -70 -2 -410v-150zM160 12q0 18 35 18t71 9q46 7 58 103t12 446v135h-207q-14 0 -10 25
l10 61q2 20 27 20h180v119q0 369 -4 429t-22 86q-28 42 -146 42q-35 1 -35 19t45 18l295 -6l315 6q133 0 212 -4t204 -24q240 -37 406 -205q198 -207 198 -537t-221 -559q-86 -88 -264 -163t-391 -75q-78 1 -260 13t-230 12t-96 -2l-141 -4q-41 0 -41 18z" />
    <glyph glyph-name="dcroat" unicode="&#x111;" horiz-adv-x="1705" 
d="M537 711h360q14 0 12 -21l-10 -65q-4 -16 -20 -17h-342v-80q0 -349 24 -387q51 -71 213 -71t257 28t173 95q144 123 144 413t-175 453q-175 162 -487 162q-92 -1 -120 -11t-27 -36q-2 -59 -2 -340v-123zM178 -6q-37 0 -37 18t34 18t58 7q43 10 53 88t9 375v110h-182
q-12 0 -9 21l9 61q2 16 24 17h158v98q0 313 -2 363q-3 50 -19 69q-34 37 -131 37q-31 0 -30 18q0 16 41 17l260 -4l293 4q394 0 566 -85q89 -44 159 -114q174 -174 174 -456t-195 -476q-75 -74 -233 -137t-344 -63q-96 0 -184 6t-133 8q-44 2 -72 4t-42 2l-102 -2
q-86 -4 -123 -4z" />
    <glyph glyph-name="Emacron" unicode="&#x112;" 
d="M922 1755h-492q-10 0 -14 3t-2 11l16 74q6 18 23 19h491q23 0 17 -21l-17 -74q-2 -12 -22 -12zM160 12q0 18 35 18t71 9q46 7 58 103t12 446v360q0 369 -4 429t-22 86q-28 42 -146 42q-35 1 -35 19t45 18l166 -2q106 -4 394 -4t335 14l33 9q12 0 12 -19q0 -4 -6 -31
t-10 -116t-10 -116q-5 -28 -22 -28t-17 37q-1 37 -13 67t-39 47t-97 25t-292 9q-14 0 -14 -21v-518q0 -23 14 -23q280 0 342 6t84 30q22 26 35 26q12 0 12 -16l-16 -150l-8 -137q-1 -39 -19 -39t-18 18q-6 68 -8 74q-16 70 -115 80q-57 6 -291 6q-12 0 -12 -20v-480
q4 -108 48 -140t190 -32t200 25q72 33 92 151q6 31 22 31t17 -37q0 -121 -26 -227q-11 -37 -29 -45t-82 -8l-567 12q-68 0 -117 -2l-141 -4q-41 0 -41 18z" />
    <glyph glyph-name="emacron" unicode="&#x113;" horiz-adv-x="1179" 
d="M864 1526h-491q-10 0 -15 3q-4 3 -2 11l17 74q6 18 22 18h492q23 0 16 -20l-16 -74q-3 -12 -23 -12zM178 -6q-37 0 -37 18t34 18t58 7q43 10 53 88t9 375v307q0 313 -2 363q-3 50 -19 69q-34 37 -131 37q-31 0 -30 18q0 16 41 17l260 -4h491q8 0 76 10l29 8q12 0 12 -16
q0 -4 -5 -23t-9 -99q-5 -80 -11 -107q-6 -28 -20 -27t-14 31q-1 30 -13 57t-35 41t-84 21t-282 7q-12 0 -12 -16v-430q0 -18 12 -19q275 -1 329 5t72 26q27 23 29 23q14 0 14 -19q0 -4 -11 -100t-11 -140q1 -42 -17 -42t-18 22t-6 55q-18 59 -92 67t-291 9q-10 0 -10 -18
v-397q2 -88 52 -117t180 -29t185 25t74 127q6 27 21 26q16 0 16 -41q0 -109 -25 -192q-8 -33 -24 -39t-72 -6l-541 10l-102 -2q-86 -4 -123 -4z" />
    <glyph glyph-name="Edotaccent" unicode="&#x116;" 
d="M693 1700q-54 0 -83 35t-28 80q0 45 30 81t82 37q53 -1 86 -31t33 -80t-33 -86t-87 -36zM160 12q0 18 35 18t71 9q46 7 58 103t12 446v360q0 369 -4 429t-22 86q-28 42 -146 42q-35 1 -35 19t45 18l166 -2q106 -4 394 -4t335 14l33 9q12 0 12 -19q0 -4 -6 -31t-10 -116
t-10 -116q-5 -28 -22 -28t-17 37q-1 37 -13 67t-39 47t-97 25t-292 9q-14 0 -14 -21v-518q0 -23 14 -23q280 0 342 6t84 30q22 26 35 26q12 0 12 -16l-16 -150l-8 -137q-1 -39 -19 -39t-18 18q-6 68 -8 74q-16 70 -115 80q-57 6 -291 6q-12 0 -12 -20v-480q4 -108 48 -140
t190 -32t200 25q72 33 92 151q6 31 22 31t17 -37q0 -121 -26 -227q-11 -37 -29 -45t-82 -8l-567 12q-68 0 -117 -2l-141 -4q-41 0 -41 18z" />
    <glyph glyph-name="edotaccent" unicode="&#x117;" horiz-adv-x="1179" 
d="M646 1470q-54 0 -83 35t-28 80q0 45 29 82q30 37 83 37t86 -31t33 -81t-33 -86t-87 -36zM178 -6q-37 0 -37 18t34 18t58 7q43 10 53 88t9 375v307q0 313 -2 363q-3 50 -19 69q-34 37 -131 37q-31 0 -30 18q0 16 41 17l260 -4h491q8 0 76 10l29 8q12 0 12 -16q0 -4 -5 -23
t-9 -99q-5 -80 -11 -107q-6 -28 -20 -27t-14 31q-1 30 -13 57t-35 41t-84 21t-282 7q-12 0 -12 -16v-430q0 -18 12 -19q275 -1 329 5t72 26q27 23 29 23q14 0 14 -19q0 -4 -11 -100t-11 -140q1 -42 -17 -42t-18 22t-6 55q-18 59 -92 67t-291 9q-10 0 -10 -18v-397
q2 -88 52 -117t180 -29t185 25t74 127q6 27 21 26q16 0 16 -41q0 -109 -25 -192q-8 -33 -24 -39t-72 -6l-541 10l-102 -2q-86 -4 -123 -4z" />
    <glyph glyph-name="Eogonek" unicode="&#x118;" 
d="M866 -465q-186 0 -186 151q0 77 74 168t139 134q-117 2 -221 6l-213 6q-68 0 -117 -2l-141 -4q-41 0 -41 18t35 18t71 9q46 7 58 103t12 446v360q0 369 -4 429t-22 86q-28 42 -146 42q-35 1 -35 19t45 18l166 -2q106 -4 394 -4t335 14l33 9q12 0 12 -19q0 -4 -6 -31
t-10 -116t-10 -116q-5 -28 -22 -28t-17 37q-1 37 -13 67t-39 47t-97 25t-292 9q-14 0 -14 -21v-518q0 -23 14 -23q280 0 342 6t84 30q22 26 35 26q12 0 12 -16l-16 -150l-8 -137q-1 -39 -19 -39t-18 18q-6 68 -8 74q-16 70 -115 80q-57 6 -291 6q-12 0 -12 -20v-480
q4 -108 48 -140t190 -32t200 25q72 33 92 151q6 31 22 31t17 -37q0 -121 -26 -227q-7 -33 -50 -42q-13 -3 -39 -5t-40 -6q-60 -12 -102 -87t-42 -149q0 -100 119 -100q45 0 88 34t47 33q18 0 18 -14t-16 -35q-123 -135 -254 -135z" />
    <glyph glyph-name="eogonek" unicode="&#x119;" horiz-adv-x="1179" 
d="M770 -465q-186 0 -186 152q0 78 78 171t139 134l-398 8l-102 -2l-125 -4q-35 0 -35 18t34 18t58 7q43 10 53 88t9 375v307q0 313 -2 363q-3 50 -19 69q-34 37 -131 37q-31 0 -30 18q0 16 41 17l260 -4h491q8 0 76 10l29 8q12 0 12 -16q0 -4 -5 -23t-9 -99
q-5 -80 -11 -107q-6 -28 -20 -27t-14 31q-1 30 -13 57t-35 41t-84 21t-282 7q-12 0 -12 -16v-430q0 -18 12 -19q275 -1 329 5t72 26q27 23 29 23q14 0 14 -19q0 -4 -11 -100t-11 -140q1 -42 -17 -42t-18 22t-6 55q-18 59 -92 67t-291 9q-10 0 -10 -18v-397q2 -88 52 -117
t180 -29t185 25t74 127q6 27 21 26q16 0 16 -41q0 -109 -25 -192q-7 -30 -38 -35q-10 -2 -36 -4t-44 -6q-68 -12 -111 -83t-43 -155q0 -100 119 -100q45 0 88 34t47 33q18 0 18 -14t-16 -35q-123 -135 -254 -135z" />
    <glyph glyph-name="Ecaron" unicode="&#x11a;" 
d="M481 2009q10 -1 35 -25q24 -24 92 -79t85 -69t31 -13q14 0 28 8q110 66 178 122t83 56t15 -16q0 -15 -17 -33t-133 -127t-141 -131t-36 -23q-11 0 -42 23q-39 35 -243 184q-29 20 -29 30t10 19l60 60q14 14 24 14zM160 12q0 18 35 18t71 9q46 7 58 103t12 446v360
q0 369 -4 429t-22 86q-28 42 -146 42q-35 1 -35 19t45 18l166 -2q106 -4 394 -4t335 14l33 9q12 0 12 -19q0 -4 -6 -31t-10 -116t-10 -116q-5 -28 -22 -28t-17 37q-1 37 -13 67t-39 47t-97 25t-292 9q-14 0 -14 -21v-518q0 -23 14 -23q280 0 342 6t84 30q22 26 35 26
q12 0 12 -16l-16 -150l-8 -137q-1 -39 -19 -39t-18 18q-6 68 -8 74q-16 70 -115 80q-57 6 -291 6q-12 0 -12 -20v-480q4 -108 48 -140t190 -32t200 25q72 33 92 151q6 31 22 31t17 -37q0 -121 -26 -227q-11 -37 -29 -45t-82 -8l-567 12q-68 0 -117 -2l-141 -4q-41 0 -41 18z
" />
    <glyph glyph-name="ecaron" unicode="&#x11b;" horiz-adv-x="1179" 
d="M644 1450q-11 0 -42 23q-39 35 -244 184q-28 19 -28 29t10 20l59 59q15 15 25 15t46 -36t109 -93t87 -57t76 36q62 38 130 94t83 56t15 -16t-16 -34q-288 -280 -310 -280zM178 -6q-37 0 -37 18t34 18t58 7q43 10 53 88t9 375v307q0 313 -2 363q-3 50 -19 69
q-34 37 -131 37q-31 0 -30 18q0 16 41 17l260 -4h491q8 0 76 10l29 8q12 0 12 -16q0 -4 -5 -23t-9 -99q-5 -80 -11 -107q-6 -28 -20 -27t-14 31q-1 30 -13 57t-35 41t-84 21t-282 7q-12 0 -12 -16v-430q0 -18 12 -19q275 -1 329 5t72 26q27 23 29 23q14 0 14 -19
q0 -4 -11 -100t-11 -140q1 -42 -17 -42t-18 22t-6 55q-18 59 -92 67t-291 9q-10 0 -10 -18v-397q2 -88 52 -117t180 -29t185 25t74 127q6 27 21 26q16 0 16 -41q0 -109 -25 -192q-8 -33 -24 -39t-72 -6l-541 10l-102 -2q-86 -4 -123 -4z" />
    <glyph glyph-name="Gbreve" unicode="&#x11e;" horiz-adv-x="1814" 
d="M676 1850q0 15 16 26l68 53q26 22 35 11q18 -21 34 -44q79 -90 183 -90q139 0 233 99q34 34 43 34q16 -1 16 -21t-46 -72t-82 -77q-104 -69 -220 -69t-204 74q-76 61 -76 76zM1741 741q-1 -16 -23 -16t-59 -6q-76 -14 -78 -117q-2 -62 -2 -246v-225q0 -41 -4 -52t-23 -22
q-176 -92 -493 -92q-395 0 -660 189q-133 94 -210 252t-77 376t102 390q100 174 244 260t274 112t308 27q178 -1 312 -27t192 -28q29 -2 29 -25q0 -2 -7 -60t-7 -276q0 -43 -23 -43q-16 0 -20 27q-14 111 -70 170q-57 59 -178 109t-279 50q-252 0 -405 -127
q-188 -157 -188 -497t196 -557q197 -217 516 -217q125 0 169 20t44 78v192q0 180 -2 238q-3 58 -21 84q-18 27 -55 35t-80 8t-43 18t43 19l297 -6l240 6q41 0 41 -21z" />
    <glyph glyph-name="gbreve" unicode="&#x11f;" horiz-adv-x="1603" 
d="M549 1621q0 15 16 26l68 53q16 14 24 14q14 0 45 -47q78 -90 182 -90q140 0 234 98q35 35 43 35q17 0 17 -20t-46 -73q-130 -147 -304 -147q-116 0 -198 68t-81 83zM1538 630q0 -18 -20 -18t-52 -6q-68 -10 -69 -94q-2 -53 -2 -209v-192q0 -37 -3 -45t-20 -17
q-158 -78 -414 -78t-440 68q-182 67 -301 225t-119 372t89 360q208 341 712 339q190 0 320 -28q98 -17 133 -19t34 -20q0 -2 -6 -58t-6 -229q0 -39 -24 -39q-14 0 -19 23q-10 88 -60 141q-51 53 -153 94t-204 41t-144 -4q-43 -4 -113 -28t-127 -70q-166 -135 -166 -422
t172 -468q171 -181 455 -181q84 0 123 17t39 62v160q0 152 -2 200t-18 67q-32 38 -129 38q-29 0 -29 18t39 17l276 -4l211 4q37 0 37 -17z" />
    <glyph glyph-name="Gcommaaccent" unicode="&#x122;" horiz-adv-x="1814" 
d="M1044 -106q12 0 20 -8t36 -54q28 -45 28 -76t-22 -84q-61 -145 -139 -233q-25 -21 -35 -21t-10 19l14 28q51 88 51 159t-55 121q-18 17 -19 26q0 45 45 84t86 39zM1741 741q-1 -16 -23 -16t-59 -6q-76 -14 -78 -117q-2 -62 -2 -246v-225q0 -41 -4 -52t-23 -22
q-176 -92 -493 -92q-395 0 -660 189q-133 94 -210 252t-77 376t102 390q100 174 244 260t274 112t308 27q178 -1 312 -27t192 -28q29 -2 29 -25q0 -2 -7 -60t-7 -276q0 -43 -23 -43q-16 0 -20 27q-14 111 -70 170q-57 59 -178 109t-279 50q-252 0 -405 -127
q-188 -157 -188 -497t196 -557q197 -217 516 -217q125 0 169 20t44 78v192q0 180 -2 238q-3 58 -21 84q-18 27 -55 35t-80 8t-43 18t43 19l297 -6l240 6q41 0 41 -21z" />
    <glyph glyph-name="gcommaaccent" unicode="&#x123;" horiz-adv-x="1603" 
d="M928 -106q12 0 19 -8t36 -54q29 -45 29 -76t-23 -84q-61 -145 -139 -233q-25 -21 -35 -21t-10 19l14 28q51 88 51 159t-55 121q-18 17 -18 26q0 45 44 84t87 39zM1538 630q0 -18 -20 -18t-52 -6q-68 -10 -69 -94q-2 -53 -2 -209v-192q0 -37 -3 -45t-20 -17
q-158 -78 -414 -78t-440 68q-182 67 -301 225t-119 372t89 360q208 341 712 339q190 0 320 -28q98 -17 133 -19t34 -20q0 -2 -6 -58t-6 -229q0 -39 -24 -39q-14 0 -19 23q-10 88 -60 141q-51 53 -153 94t-204 41t-144 -4q-43 -4 -113 -28t-127 -70q-166 -135 -166 -422
t172 -468q171 -181 455 -181q84 0 123 17t39 62v160q0 152 -2 200t-18 67q-32 38 -129 38q-29 0 -29 18t39 17l276 -4l211 4q37 0 37 -17z" />
    <glyph glyph-name="Imacron" unicode="&#x12a;" horiz-adv-x="925" 
d="M698 1755h-491q-10 0 -14 3t-3 11l17 74q6 18 22 19h492q23 0 16 -21l-16 -74q-5 -12 -23 -12zM160 12q0 18 35 18t71 9q50 9 60 99t10 450v360q0 369 -4 434q-6 100 -70 115q-31 8 -69 8t-37 21q0 16 49 16l266 -6l250 6q43 0 43 -18t-29 -18q-98 -2 -118 -36
q-19 -34 -23 -94t-4 -428v-360q0 -360 7 -428t23 -92q26 -38 164 -37q33 -1 33 -19t-39 -18l-319 6l-258 -6q-41 0 -41 18z" />
    <glyph glyph-name="imacron" unicode="&#x12b;" horiz-adv-x="833" 
d="M651 1526h-491q-10 0 -15 3q-4 3 -2 11l17 74q6 18 22 18h492q23 0 16 -20l-16 -74q-3 -12 -23 -12zM141 12q0 18 34 18t58 7q45 10 53 83t9 380v307q0 313 -2 363q-3 50 -17 68q-29 38 -110 38q-29 0 -29 20q0 14 43 15l242 -4l231 4q37 0 37 -15q0 -20 -26 -20
q-86 0 -106 -33q-13 -20 -17 -71t-4 -365v-307q0 -308 6 -364t21 -74q25 -30 145 -31q29 0 28 -19q0 -18 -35 -18l-290 6l-236 -6q-35 0 -35 18z" />
    <glyph glyph-name="Iogonek" unicode="&#x12e;" horiz-adv-x="925" 
d="M764 1524q0 -18 -29 -18q-98 -2 -118 -36q-19 -34 -23 -94t-4 -428v-360q0 -360 7 -428t23 -92q26 -38 164 -37q33 -1 33 -19q1 -18 -29 -18t-101 6t-119 -19q-48 -24 -85 -94t-37 -135q0 -100 119 -100q45 0 88 34t47 33q18 0 18 -14t-16 -35q-123 -135 -253 -135
q-94 0 -141 37q-46 37 -46 118t94 187t140 123h-37q-68 0 -117 -2l-141 -4q-41 0 -41 18t35 18t71 9q50 10 60 99t10 450v360q0 369 -4 434q-6 100 -70 115q-31 8 -69 8t-37 21q0 16 49 16l266 -6l250 6q43 0 43 -18z" />
    <glyph glyph-name="iogonek" unicode="&#x12f;" horiz-adv-x="833" 
d="M690 1296q0 -20 -26 -20q-86 0 -106 -33q-13 -20 -17 -71t-4 -365v-307q0 -308 6 -364t21 -74q25 -30 145 -31q29 0 28 -19q1 -18 -25 -18t-92 4t-109 -20q-44 -25 -80 -94t-36 -132q0 -100 119 -100q47 0 90 34t45 33q19 0 19 -14t-17 -35q-123 -135 -254 -135
q-94 0 -140 37t-46 118q0 80 95 188t138 122h-32l-107 -2q-90 -4 -127 -4t-37 18t34 18t58 7q45 10 53 83t9 380v307q0 313 -2 363q-3 50 -17 68q-29 38 -110 38q-29 0 -29 20q0 14 43 15l242 -4l231 4q37 0 37 -15z" />
    <glyph glyph-name="Idotaccent" unicode="&#x130;" horiz-adv-x="925" 
d="M460 1700q-54 0 -83 35t-29 80t30 81t83 37q53 -1 86 -31t33 -80t-33 -86t-87 -36zM160 12q0 18 35 18t71 9q50 9 60 99t10 450v360q0 369 -4 434q-6 100 -70 115q-31 8 -69 8t-37 21q0 16 49 16l266 -6l250 6q43 0 43 -18t-29 -18q-98 -2 -118 -36q-19 -34 -23 -94
t-4 -428v-360q0 -360 7 -428t23 -92q26 -38 164 -37q33 -1 33 -19t-39 -18l-319 6l-258 -6q-41 0 -41 18z" />
    <glyph glyph-name="dotlessi" unicode="&#x131;" horiz-adv-x="833" 
d="M141 12q0 18 34 18t58 7q45 10 53 83t9 380v307q0 313 -2 363q-3 50 -17 68q-29 38 -110 38q-29 0 -29 20q0 14 43 15l242 -4l231 4q37 0 37 -15q0 -20 -26 -20q-86 0 -106 -33q-13 -20 -17 -71t-4 -365v-307q0 -308 6 -364t21 -74q25 -30 145 -31q29 0 28 -19
q0 -18 -35 -18l-290 6l-236 -6q-35 0 -35 18z" />
    <glyph glyph-name="Kcommaaccent" unicode="&#x136;" horiz-adv-x="1572" 
d="M1047 -203q0 -31 -23 -84q-61 -145 -139 -233q-25 -20 -35 -20t-10 18l14 28q51 88 51 159t-55 121q-18 17 -19 26q-1 45 45 84t87 38q12 0 19 -8t36 -53t29 -76zM752 1524q0 -18 -24 -18q-95 -2 -115 -36q-19 -33 -23 -93t-4 -429v-90h10q23 24 208 218t220 233
q102 121 102 155t-28 39q-28 7 -27 23q0 16 33 16l211 -6l239 6q35 0 35 -18q1 -18 -43 -18t-128 -32t-199 -145q-287 -276 -443 -442q50 -67 270 -305q371 -402 495 -477q123 -75 210 -74q27 -1 27 -19t-49 -18h-179q-98 0 -158 5t-110 35q-52 30 -120 90t-285 312
t-259 307l-22 31h-10v-186q0 -350 6 -444t68 -104t98 -9q35 -1 35 -19t-39 -18l-295 6l-258 -6q-41 0 -41 18t35 18t71 9q46 7 58 103t12 446v360q0 369 -4 429t-22 86q-28 42 -146 42q-35 1 -35 19t45 18l287 -6l248 6q43 0 43 -18z" />
    <glyph glyph-name="kcommaaccent" unicode="&#x137;" horiz-adv-x="1402" 
d="M868 -106q12 0 20 -8t36 -54q28 -45 28 -76t-22 -84q-61 -145 -139 -233q-25 -21 -35 -21t-11 19l15 28q51 88 51 159t-55 121q-18 17 -19 26q0 45 45 84t86 39zM676 1294q0 -18 -20 -18q-85 0 -106 -33q-12 -19 -16 -71t-4 -365v-78h9q27 29 187 190q161 161 189 193
q90 100 91 129q0 29 -25 35t-25 20t29 15l186 -4l211 4q31 1 31 -17t-38 -18q-124 0 -283 -150q-303 -283 -381 -370q43 -57 234 -258q191 -200 226 -232t82 -76t90 -79q102 -82 211 -80q25 -1 25 -19t-43 -18h-158q-86 0 -140 5q-99 9 -218 112q-53 45 -240 259
q-186 214 -223 263l-18 24h-9v-157q0 -297 6 -375t64 -88q37 -6 75 -6q38 -1 38 -19t-35 -18l-275 6l-227 -6q-35 0 -35 18t34 18t58 7q43 10 53 88t9 375v307q0 313 -2 363q-3 50 -19 69q-34 37 -131 37q-31 0 -30 18q0 16 41 17l252 -4l231 4q39 1 39 -17z" />
    <glyph glyph-name="Lacute" unicode="&#x139;" horiz-adv-x="1239" 
d="M437 1700q-7 0 -7 10t37 45t158 128t151 113t44 20t31 -31t56 -117q14 -31 -10 -31l-37 2q-78 0 -198 -44q-118 -43 -168 -69t-57 -26zM788 1524q0 -18 -40 -18q-110 -1 -133 -42q-15 -27 -19 -87t-4 -429v-360q0 -232 7 -324t36 -117q51 -45 248 -45q98 0 151 10t93 54
q40 43 49 117q4 31 22 30q16 1 16 -29t-10 -116t-20 -123t-30 -47t-99 -10l-596 12q-68 0 -117 -2l-141 -4q-41 0 -41 18t35 18t71 9q46 7 58 103t12 446v360q0 369 -4 429t-22 86q-28 42 -134 42q-35 1 -35 19t45 18l281 -6l278 6q43 0 43 -18z" />
    <glyph glyph-name="lacute" unicode="&#x13a;" horiz-adv-x="1130" 
d="M385 1480q0 23 158 145q157 122 187 141q30 20 44 20t32 -31q17 -31 56 -117q14 -31 -10 -30h-70q-147 -19 -385 -138q-12 0 -12 10zM711 1294q0 -18 -36 -18q-97 0 -117 -33q-13 -19 -17 -71t-4 -365v-307q0 -195 6 -270t32 -97q43 -37 240 -37q86 0 133 8t81 43t42 103
q4 27 21 26q16 0 16 -30t-8 -103t-18 -105t-29 -40q-18 -8 -86 -8l-564 10l-102 -2q-86 -4 -123 -4t-37 18t34 18t58 7q43 10 53 88t9 375v307q0 313 -2 363q-3 50 -19 69q-34 37 -118 37q-31 0 -31 17t39 18l248 -4l260 4q39 1 39 -17z" />
    <glyph glyph-name="Lcommaaccent" unicode="&#x13b;" horiz-adv-x="1239" 
d="M786 -106q12 0 20 -8t36 -54q28 -45 28 -76t-22 -84q-61 -145 -139 -233q-25 -21 -35 -21t-10 19l14 28q51 88 51 159t-55 121q-18 17 -19 26q0 45 45 84t86 39zM788 1524q0 -18 -40 -18q-110 -1 -133 -42q-15 -27 -19 -87t-4 -429v-360q0 -232 7 -324t36 -117
q51 -45 248 -45q98 0 151 10t93 54q40 43 49 117q4 31 22 30q16 1 16 -29t-10 -116t-20 -123t-30 -47t-99 -10l-596 12q-68 0 -117 -2l-141 -4q-41 0 -41 18t35 18t71 9q46 7 58 103t12 446v360q0 369 -4 429t-22 86q-28 42 -134 42q-35 1 -35 19t45 18l281 -6l278 6
q43 0 43 -18z" />
    <glyph glyph-name="lcommaaccent" unicode="&#x13c;" horiz-adv-x="1130" 
d="M711 -106q12 0 19 -8t36 -54q29 -45 29 -76t-23 -84q-61 -145 -139 -233q-25 -21 -35 -21t-10 19l14 28q51 88 51 159t-55 121q-18 17 -18 26q0 45 44 84t87 39zM711 1294q0 -18 -36 -18q-97 0 -117 -33q-13 -19 -17 -71t-4 -365v-307q0 -195 6 -270t32 -97
q43 -37 240 -37q86 0 133 8t81 43t42 103q4 27 21 26q16 0 16 -30t-8 -103t-18 -105t-29 -40q-18 -8 -86 -8l-564 10l-102 -2q-86 -4 -123 -4t-37 18t34 18t58 7q43 10 53 88t9 375v307q0 313 -2 363q-3 50 -19 69q-34 37 -118 37q-31 0 -31 17t39 18l248 -4l260 4
q39 1 39 -17z" />
    <glyph glyph-name="Lcaron" unicode="&#x13d;" horiz-adv-x="1239" 
d="M1114 1542q12 0 20 -8t36 -53t28 -76t-22 -84q-61 -145 -140 -234q-25 -20 -30 -20q-14 0 -15 18l15 29q51 88 51 157t-56 123q-18 17 -18 25q0 45 45 84t86 39zM788 1524q0 -18 -40 -18q-110 -1 -133 -42q-15 -27 -19 -87t-4 -429v-360q0 -232 7 -324t36 -117
q51 -45 248 -45q98 0 151 10t93 54q40 43 49 117q4 31 22 30q16 1 16 -29t-10 -116t-20 -123t-30 -47t-99 -10l-596 12q-68 0 -117 -2l-141 -4q-41 0 -41 18t35 18t71 9q46 7 58 103t12 446v360q0 369 -4 429t-22 86q-28 42 -134 42q-35 1 -35 19t45 18l281 -6l278 6
q43 0 43 -18z" />
    <glyph glyph-name="lcaron" unicode="&#x13e;" horiz-adv-x="1130" 
d="M1104 1190q0 -31 -23 -84q-61 -145 -139 -234q-25 -20 -31 -20q-14 0 -14 18l14 29q83 144 33 229q-18 32 -36 50t-19 26q0 45 45 84t86 39q12 0 19 -8t36 -53t29 -76zM711 1294q0 -18 -36 -18q-97 0 -117 -33q-13 -19 -17 -71t-4 -365v-307q0 -195 6 -270t32 -97
q43 -37 240 -37q86 0 133 8t81 43t42 103q4 27 21 26q16 0 16 -30t-8 -103t-18 -105t-29 -40q-18 -8 -86 -8l-564 10l-102 -2q-86 -4 -123 -4t-37 18t34 18t58 7q43 10 53 88t9 375v307q0 313 -2 363q-3 50 -19 69q-34 37 -118 37q-31 0 -31 17t39 18l248 -4l260 4
q39 1 39 -17z" />
    <glyph glyph-name="Lslash" unicode="&#x141;" horiz-adv-x="1239" 
d="M778 1524q0 -18 -35 -18q-104 -1 -124 -35q-19 -35 -23 -95t-4 -428v-49l272 133q27 12 33 -6l25 -68q8 -20 -15 -28l-315 -152v-190q0 -232 7 -324t36 -117q51 -45 248 -45q98 0 151 10t93 54q41 42 47 98t24 55q16 -1 16 -33t-10 -118t-20 -123t-30 -47t-99 -10
l-596 12q-68 0 -117 -2l-141 -4q-41 0 -41 18t35 18t71 9q46 7 58 103t12 446v86l-170 -90q-14 -8 -23 8l-32 70q-6 12 6 18l219 111v157q0 369 -4 429t-22 86q-28 42 -136 42q-35 1 -35 19t45 18l283 -6l268 6q43 0 43 -18z" />
    <glyph glyph-name="lslash" unicode="&#x142;" horiz-adv-x="1130" 
d="M670 1276q-91 0 -112 -33q-13 -20 -17 -71t-4 -365v-43l239 113q23 12 29 -5l22 -63q6 -16 -12 -25l-278 -129v-155q0 -195 6 -270t32 -97q43 -37 195 -37t195 12t71 42q28 28 33 80t23 51q18 0 18 -33t-8 -105q-8 -73 -18 -105t-29 -40q-18 -8 -86 -8l-566 10l-102 -2
q-86 -4 -123 -4t-37 18t34 18t58 7q43 10 53 88t9 360v74l-150 -78q-14 -4 -18 8l-29 66q-4 10 4 14l193 95v143q0 313 -2 363q-3 50 -19 69q-34 37 -120 37q-31 0 -31 17t39 18l250 -4l252 4q37 0 36 -17q0 -18 -30 -18z" />
    <glyph glyph-name="Nacute" unicode="&#x143;" horiz-adv-x="1939" 
d="M1819 1524q0 -18 -37 -18t-71 -10q-34 -9 -49 -46t-17 -125l-23 -1292q0 -117 -96 -19q-74 70 -302 299t-378 377t-279 290q-128 142 -133 146h-6l23 -854q6 -205 71 -227q42 -14 92 -14q50 -1 50 -19t-48 -18l-254 6l-221 -6q-45 0 -45 18t44 18t82 12q38 11 49 62
t14 191l18 1206q0 70 27 70q19 1 32 -15t25 -28t19 -21q229 -250 634 -651q85 -85 261 -270t190 -197h10l-20 920q-2 92 -18 130q-15 38 -49 52t-111 14q-33 1 -33 19t53 18l248 -6l201 6q47 0 47 -18zM1268 1786h-70q-78 -10 -181 -48t-153 -64t-56 -25q-7 0 -7 10t18 29
q55 51 176 144q121 92 151 112t44 20t34 -31q18 -31 54 -116q16 -31 -10 -31z" />
    <glyph glyph-name="nacute" unicode="&#x144;" horiz-adv-x="1722" 
d="M723 1480q0 23 158 145q157 122 187 141q30 20 44 20t34 -31q18 -31 54 -117q16 -31 -10 -30h-70q-147 -19 -385 -138q-12 0 -12 10zM1616 1294q0 -18 -32 -18t-62 -8t-42 -38q-13 -30 -16 -104l-20 -1097q0 -55 -29 -56q-37 0 -74 37q-488 456 -648 621t-224 233
q-63 68 -76 78h-6l21 -711q4 -168 61 -188q37 -12 81 -12q44 -1 44 -19t-41 -18l-234 6l-194 -6q-41 0 -41 18t39 18t73 9q34 8 43 50t11 161l16 1032q0 59 31 59q20 0 78 -57l59 -59q195 -202 371 -374q176 -173 269 -267t164 -165l81 -81h8l-18 774q-1 78 -15 110t-44 43
t-97 11q-29 0 -29 17t45 18l230 -4l176 4q41 1 41 -17z" />
    <glyph glyph-name="Ncommaaccent" unicode="&#x145;" horiz-adv-x="1939" 
d="M1819 1524q0 -18 -37 -18t-71 -10q-34 -9 -49 -46t-17 -125l-23 -1292q0 -117 -96 -19q-74 70 -302 299t-378 377t-279 290q-128 142 -133 146h-6l23 -854q6 -205 71 -227q42 -14 92 -14q50 -1 50 -19t-48 -18l-254 6l-221 -6q-45 0 -45 18t44 18t82 12q38 11 49 62
t14 191l18 1206q0 70 27 70q19 1 32 -15t25 -28t19 -21q229 -250 634 -651q85 -85 261 -270t190 -197h10l-20 920q-2 92 -18 130q-15 38 -49 52t-111 14q-33 1 -33 19t53 18l248 -6l201 6q47 0 47 -18zM1098 -182q0 -31 -23 -84q-61 -145 -139 -234q-25 -20 -31 -20
q-14 0 -14 18l14 29q51 88 51 159t-55 120q-18 17 -18 26q0 45 44 84t87 39q12 0 19 -8t36 -53t29 -76z" />
    <glyph glyph-name="ncommaaccent" unicode="&#x146;" horiz-adv-x="1722" 
d="M969 -182q0 -31 -23 -84q-61 -145 -139 -234q-25 -20 -31 -20q-14 0 -14 18l14 29q51 88 51 159t-55 120q-18 17 -18 26q0 45 45 84t86 39q12 0 19 -8t36 -53t29 -76zM1616 1294q0 -18 -32 -18t-62 -8t-42 -38q-13 -30 -16 -104l-20 -1097q0 -55 -29 -56q-37 0 -74 37
q-488 456 -648 621t-224 233q-63 68 -76 78h-6l21 -711q4 -168 61 -188q37 -12 81 -12q44 -1 44 -19t-41 -18l-234 6l-194 -6q-41 0 -41 18t39 18t73 9q34 8 43 50t11 161l16 1032q0 59 31 59q20 0 78 -57l59 -59q195 -202 371 -374q176 -173 269 -267t164 -165l81 -81h8
l-18 774q-1 78 -15 110t-44 43t-97 11q-29 0 -29 17t45 18l230 -4l176 4q41 1 41 -17z" />
    <glyph glyph-name="Ncaron" unicode="&#x147;" horiz-adv-x="1939" 
d="M1819 1524q0 -18 -37 -18t-71 -10q-34 -9 -49 -46t-17 -125l-23 -1292q0 -117 -96 -19q-74 70 -302 299t-378 377t-279 290q-128 142 -133 146h-6l23 -854q6 -205 71 -227q42 -14 92 -14q50 -1 50 -19t-48 -18l-254 6l-221 -6q-45 0 -45 18t44 18t82 12q38 11 49 62
t14 191l18 1206q0 70 27 70q19 1 32 -15t25 -28t19 -21q229 -250 634 -651q85 -85 261 -270t190 -197h10l-20 920q-2 92 -18 130q-15 38 -49 52t-111 14q-33 1 -33 19t53 18l248 -6l201 6q47 0 47 -18zM754 1968q10 0 34 -24t93 -80q68 -54 84 -68t30 -14t29 8
q110 66 178 122t80 56q18 0 18 -20q0 -12 -17 -30t-133 -126q-116 -110 -140 -132t-36 -22q-11 0 -42 23q-39 35 -244 184q-28 19 -28 29t10 20l59 60q15 14 25 14z" />
    <glyph glyph-name="ncaron" unicode="&#x148;" horiz-adv-x="1722" 
d="M855 1450q-11 0 -42 23q-39 35 -244 184q-29 19 -29 29t11 20l59 59q14 15 24 15t47 -36q36 -36 167 -138q28 -21 57 -4q109 66 177 122t84 56t16 -16t-18 -34q-288 -280 -309 -280zM1616 1294q0 -18 -32 -18t-62 -8t-42 -38q-13 -30 -16 -104l-20 -1097q0 -55 -29 -56
q-37 0 -74 37q-488 456 -648 621t-224 233q-63 68 -76 78h-6l21 -711q4 -168 61 -188q37 -12 81 -12q44 -1 44 -19t-41 -18l-234 6l-194 -6q-41 0 -41 18t39 18t73 9q34 8 43 50t11 161l16 1032q0 59 31 59q20 0 78 -57l59 -59q195 -202 371 -374q176 -173 269 -267
t164 -165l81 -81h8l-18 774q-1 78 -15 110t-44 43t-97 11q-29 0 -29 17t45 18l230 -4l176 4q41 1 41 -17z" />
    <glyph glyph-name="Omacron" unicode="&#x14c;" horiz-adv-x="1898" 
d="M1184 1755h-492q-10 0 -14 3t-2 11l16 74q6 18 23 19h491q23 0 17 -21l-17 -74q-2 -12 -22 -12zM1024 68q53 0 105 11t123 52t122 109t88 194t37 295q0 336 -171 540t-429 204q-194 0 -339 -128q-77 -69 -121 -200t-44 -314q0 -331 171 -547t458 -216zM938 -35
q-211 0 -376 74q-165 73 -259 193q-190 242 -190 536q0 234 121 434q141 230 401 319q145 50 323 50q380 0 604 -207t224 -563t-232 -596t-616 -240z" />
    <glyph glyph-name="omacron" unicode="&#x14d;" horiz-adv-x="1693" 
d="M1102 1526h-492q-10 0 -14 3t-2 11l16 74q6 18 23 18h491q23 0 17 -20l-17 -74q-2 -12 -22 -12zM909 66q108 0 184 44t121 100t77 162t32 249q1 283 -149 453t-373 169q-168 0 -292 -105q-67 -56 -106 -167t-38 -264q0 -277 147 -459t397 -182zM836 -29q-188 1 -334 63
t-232 164q-172 204 -172 455q0 198 110 369q126 195 358 270q130 43 288 43q340 0 539 -176t199 -479t-208 -506q-206 -203 -548 -203z" />
    <glyph glyph-name="Ohungarumlaut" unicode="&#x150;" horiz-adv-x="1898" 
d="M1310 2017q12 0 48 -13q35 -13 82 -54q23 -18 4 -29q-45 -12 -80 -29q-170 -78 -279 -168q-31 -25 -45 -24q-20 0 -10 20t114 129q102 109 128 139t38 29zM956 2017q49 0 129 -67q23 -18 5 -29q-45 -12 -80 -29q-170 -78 -279 -168q-31 -25 -45 -24q-20 0 -10 20t114 129
q102 109 128 139t38 29zM1024 68q53 0 105 11t123 52t122 109t88 194t37 295q0 336 -171 540t-429 204q-194 0 -339 -128q-77 -69 -121 -200t-44 -314q0 -331 171 -547t458 -216zM938 -35q-211 0 -376 74q-165 73 -259 193q-190 242 -190 536q0 234 121 434q141 230 401 319
q145 50 323 50q380 0 604 -207t224 -563t-232 -596t-616 -240z" />
    <glyph glyph-name="ohungarumlaut" unicode="&#x151;" horiz-adv-x="1693" 
d="M1178 1788q52 0 129 -68q23 -18 4 -28q-45 -12 -80 -29q-170 -78 -279 -168q-31 -25 -45 -25q-20 0 -11 20t114 129q104 109 130 139t38 30zM823 1788q50 0 129 -68q23 -18 4 -28q-45 -12 -79 -29q-170 -78 -279 -168q-31 -25 -45 -25q-20 0 -11 18t113 129
q105 111 131 141t37 30zM909 66q108 0 184 44t121 100t77 162t32 249q1 283 -149 453t-373 169q-168 0 -292 -105q-67 -56 -106 -167t-38 -264q0 -277 147 -459t397 -182zM836 -29q-188 1 -334 63t-232 164q-172 204 -172 455q0 198 110 369q126 195 358 270q130 43 288 43
q340 0 539 -176t199 -479t-208 -506q-206 -203 -548 -203z" />
    <glyph glyph-name="OE" unicode="&#x152;" horiz-adv-x="2437" 
d="M876 1470q-200 0 -342 -162t-143 -496q0 -334 178 -540q178 -207 432 -206q225 0 358 158q132 159 132 472q0 217 -69 390q-69 172 -208 278q-138 106 -338 106zM2182 592q-18 0 -19 18q-6 68 -9 74q-16 70 -104 79t-301 9q-12 0 -12 -20v-480q4 -110 48 -142t190 -32
t200 25q72 33 92 151q7 31 23 31t16 -37q0 -121 -27 -227q-10 -37 -28 -45t-82 -8l-588 12l-41 -2q-20 -4 -34 -4t-15 14l6 62q2 23 2 112q-223 -217 -590 -217q-164 0 -300 49q-244 88 -371 302t-126 458q1 243 128 453t380 297q136 47 302 47q369 0 571 -234h6
q0 121 -2 146l-4 41q0 18 20 18l29 -2q29 -4 326 -4t344 14l33 9q12 0 12 -19q0 -4 -6 -31t-10 -103q-4 -77 -11 -134q-4 -23 -21 -23t-17 37t-13 67q-12 30 -39 47q-28 17 -98 25t-291 9q-14 0 -14 -21v-516q0 -23 14 -23q281 0 343 6t84 30q22 26 34 26t12 -18l-16 -150
l-8 -137q0 -39 -18 -39z" />
    <glyph glyph-name="oe" unicode="&#x153;" horiz-adv-x="2185" 
d="M793 1241q-185 0 -309 -133q-124 -132 -124 -416t154 -453t379 -169q182 0 308 134t126 399t-149 452q-150 186 -385 186zM1848 -10l-447 10l-62 -6q-16 0 -16 8t3 42t3 124q-207 -197 -528 -197q-179 -1 -319 61t-221 164q-163 206 -163 463t167 456q83 99 224 159
t325 61q184 0 304 -55q119 -55 207 -156h4q0 115 -2 136l-2 34q0 16 16 17l89 -4h481q39 0 76 10l28 8q12 0 13 -16q0 -4 -5 -21t-10 -94q-4 -76 -10 -108t-21 -31q-16 0 -16 43t-26 71t-87 34q-61 7 -297 7q-12 0 -12 -16v-428q0 -18 12 -18q230 0 306 4t96 26t31 21
q10 1 10 -11t-11 -108q-12 -96 -12 -138t-17 -42t-17 18t-7 60q-18 59 -100 67q-49 6 -279 6q-12 0 -12 -16v-395q2 -90 52 -119t180 -29t176 21q63 29 80 129q6 27 20 26q18 0 19 -41q0 -109 -25 -192q-8 -33 -24 -39q-18 -6 -174 -6z" />
    <glyph glyph-name="Racute" unicode="&#x154;" horiz-adv-x="1546" 
d="M601 1700q-7 0 -7 10t18 29q55 51 176 144t151 113q31 20 45 20t31 -31t56 -117q14 -31 -10 -31l-37 2q-78 0 -198 -44q-118 -43 -168 -69t-57 -26zM578 1409v-623q0 -29 18 -36q60 -20 156 -20t145 34q121 88 121 295t-99 297t-214 90q-82 0 -109 -8q-18 -6 -18 -29z
M160 12q0 18 35 18t71 9q46 7 58 103t12 446v360q0 369 -4 429t-22 86q-28 42 -146 42q-35 1 -35 19t45 18l281 -6l288 6q248 0 377 -88q51 -35 95 -111q45 -76 45 -183t-60 -216t-211 -229q344 -434 451 -545q134 -139 280 -139q25 -1 25 -19t-39 -18h-195q-147 0 -213 36
t-143 121q-76 85 -205 268t-141 197t-37 15l-178 4q-16 0 -16 -17v-28q0 -352 8 -420t23 -97q22 -42 159 -42q25 -1 25 -19t-41 -18l-301 6l-250 -6q-41 0 -41 18z" />
    <glyph glyph-name="racute" unicode="&#x155;" horiz-adv-x="1404" 
d="M543 1480q-1 23 157 145t188 141q30 20 44 20t34 -31q18 -31 54 -117q16 -31 -10 -30l-37 2q-138 0 -418 -140q-12 0 -12 10zM524 1190v-518q0 -23 17 -31q51 -16 138 -16t126 28q117 82 117 252t-86 243t-176 73t-119 -7q-17 -6 -17 -24zM141 12q0 18 34 18t58 7
q43 10 53 88t9 375v307q0 313 -2 363q-3 50 -19 69q-34 37 -131 37q-31 0 -30 18q0 16 41 17l245 -4l281 4q229 0 342 -74q47 -33 87 -96t40 -151q0 -175 -250 -378q293 -360 403 -470t228 -111q23 0 22 -19q0 -18 -34 -18h-172q-128 0 -190 31t-136 111t-175 227t-112 159
q-12 12 -33 13l-161 4q-14 0 -15 -15v-24q0 -280 8 -348t21 -88q19 -32 139 -33q23 -1 23 -19t-37 -18l-281 6l-221 -6q-35 0 -35 18z" />
    <glyph glyph-name="Rcommaaccent" unicode="&#x156;" horiz-adv-x="1546" 
d="M1034 -203q0 -31 -22 -84q-61 -145 -140 -233q-24 -20 -34 -20t-11 18l15 28q51 88 51 158t-55 122q-18 17 -19 26q0 45 45 84t86 38q12 0 20 -8t36 -53t28 -76zM578 1409v-623q0 -29 18 -36q60 -20 156 -20t145 34q121 88 121 295t-99 297t-214 90q-82 0 -109 -8
q-18 -6 -18 -29zM160 12q0 18 35 18t71 9q46 7 58 103t12 446v360q0 369 -4 429t-22 86q-28 42 -146 42q-35 1 -35 19t45 18l281 -6l288 6q248 0 377 -88q51 -35 95 -111q45 -76 45 -183t-60 -216t-211 -229q344 -434 451 -545q134 -139 280 -139q25 -1 25 -19t-39 -18h-195
q-147 0 -213 36t-143 121q-76 85 -205 268t-141 197t-37 15l-178 4q-16 0 -16 -17v-28q0 -352 8 -420t23 -97q22 -42 159 -42q25 -1 25 -19t-41 -18l-301 6l-250 -6q-41 0 -41 18z" />
    <glyph glyph-name="rcommaaccent" unicode="&#x157;" horiz-adv-x="1404" 
d="M848 -106q12 0 19 -8t36 -54q29 -45 29 -76t-23 -84q-61 -145 -139 -233q-25 -21 -35 -21t-10 19l14 28q83 143 33 230q-18 33 -37 50q-18 17 -18 26q0 45 45 84t86 39zM524 1190v-518q0 -23 17 -31q51 -16 138 -16t126 28q117 82 117 252t-86 243t-176 73t-119 -7
q-17 -6 -17 -24zM141 12q0 18 34 18t58 7q43 10 53 88t9 375v307q0 313 -2 363q-3 50 -19 69q-34 37 -131 37q-31 0 -30 18q0 16 41 17l245 -4l281 4q229 0 342 -74q47 -33 87 -96t40 -151q0 -175 -250 -378q293 -360 403 -470t228 -111q23 0 22 -19q0 -18 -34 -18h-172
q-128 0 -190 31t-136 111t-175 227t-112 159q-12 12 -33 13l-161 4q-14 0 -15 -15v-24q0 -280 8 -348t21 -88q19 -32 139 -33q23 -1 23 -19t-37 -18l-281 6l-221 -6q-35 0 -35 18z" />
    <glyph glyph-name="Rcaron" unicode="&#x158;" horiz-adv-x="1546" 
d="M506 2009q10 -1 35 -25t93 -79t83 -69q16 -14 30 -13q14 0 29 8q110 66 178 122t83 56t15 -16q0 -15 -16 -33q-95 -96 -272 -256q-27 -25 -38 -25t-42 23q-39 35 -244 184q-28 20 -28 30t10 19l59 60q15 14 25 14zM578 1409v-623q0 -29 18 -36q60 -20 156 -20t145 34
q121 88 121 295t-99 297t-214 90q-82 0 -109 -8q-18 -6 -18 -29zM160 12q0 18 35 18t71 9q46 7 58 103t12 446v360q0 369 -4 429t-22 86q-28 42 -146 42q-35 1 -35 19t45 18l281 -6l288 6q248 0 377 -88q51 -35 95 -111q45 -76 45 -183t-60 -216t-211 -229
q344 -434 451 -545q134 -139 280 -139q25 -1 25 -19t-39 -18h-195q-147 0 -213 36t-143 121q-76 85 -205 268t-141 197t-37 15l-178 4q-16 0 -16 -17v-28q0 -352 8 -420t23 -97q22 -42 159 -42q25 -1 25 -19t-41 -18l-301 6l-250 -6q-41 0 -41 18z" />
    <glyph glyph-name="rcaron" unicode="&#x159;" horiz-adv-x="1404" 
d="M697 1450q-11 0 -42 23q-39 35 -243 184q-29 19 -29 29t10 20l60 59q14 15 24 15t46 -36t109 -93q72 -57 86 -57t77 36q63 38 131 94t83 56t15 -16t-17 -34q-85 -85 -272 -255q-27 -25 -38 -25zM524 1190v-518q0 -23 17 -31q51 -16 138 -16t126 28q117 82 117 252
t-86 243t-176 73t-119 -7q-17 -6 -17 -24zM141 12q0 18 34 18t58 7q43 10 53 88t9 375v307q0 313 -2 363q-3 50 -19 69q-34 37 -131 37q-31 0 -30 18q0 16 41 17l245 -4l281 4q229 0 342 -74q47 -33 87 -96t40 -151q0 -175 -250 -378q293 -360 403 -470t228 -111
q23 0 22 -19q0 -18 -34 -18h-172q-128 0 -190 31t-136 111t-175 227t-112 159q-12 12 -33 13l-161 4q-14 0 -15 -15v-24q0 -280 8 -348t21 -88q19 -32 139 -33q23 -1 23 -19t-37 -18l-281 6l-221 -6q-35 0 -35 18z" />
    <glyph glyph-name="Sacute" unicode="&#x15a;" horiz-adv-x="1191" 
d="M995 1837h-69q-78 -10 -182 -48q-104 -37 -152 -63q-50 -26 -56 -26t-8 10q0 10 37 45t158 128t151 113t44 20t31 -31t57 -117q14 -31 -11 -31zM530 -35q-186 0 -307 53q-25 10 -32 24t-7 82t11 232q4 53 24 54q21 0 21 -38t18 -102q61 -207 293 -207q129 0 202 72
t73 159t-42 163q-41 76 -159 168l-95 73q-164 129 -233 243q-70 114 -70 243q0 170 131 278t342 109q143 0 273 -35q29 -6 28 -25q0 -8 -4 -65t-4 -180q0 -61 -22 -62q-20 0 -21 37q0 70 -53 135q-80 100 -208 100q-127 0 -193 -58t-66 -141t46 -148t171 -158l58 -43
q184 -139 260 -257t75 -265q0 -231 -192 -357q-132 -84 -318 -84z" />
    <glyph glyph-name="sacute" unicode="&#x15b;" horiz-adv-x="1105" 
d="M455 1480q-1 23 157 145t188 141q30 20 44 20t31 -31t57 -117q14 -31 -10 -30h-70q-147 -19 -385 -138q-12 0 -12 10zM907 1020q-18 0 -18 45t-47 100q-68 82 -186 82t-189 -50q-72 -51 -72 -125t38 -126t153 -115l73 -40q170 -93 241 -195t71 -227q0 -199 -180 -326
q-101 -72 -298 -72t-296 45q-23 10 -29 20t-6 70q0 58 10 201q0 45 23 45q18 0 18 -34t16 -85q27 -90 109 -131t188 -41q106 -1 172 63q68 64 68 146t-35 138q-35 57 -143 120l-105 62q-156 90 -219 183t-63 212q0 156 131 253q132 97 300 97t279 -28q25 -6 25 -23l-6 -209
q0 -55 -23 -55z" />
    <glyph glyph-name="Scedilla" unicode="&#x15e;" horiz-adv-x="1191" 
d="M1040 398q0 -154 -92 -260t-209 -140l-188 -139q115 -9 178 -53t63 -118t-90 -143q-90 -70 -286 -69q-35 0 -35 20q0 27 55 27t113 39q57 39 57 98q0 125 -162 150q-45 6 -45 14t33 33l148 110q-16 -2 -58 -2q-178 0 -299 53q-25 10 -32 24t-7 82t11 232q4 53 24 54
q21 0 21 -38t18 -102q61 -207 293 -207q129 0 202 72t73 159t-42 163q-41 76 -159 168l-95 73q-164 129 -233 243q-70 114 -70 243q0 170 131 278t342 109q143 0 273 -35q29 -6 28 -25q0 -8 -4 -65t-4 -180q0 -61 -22 -62q-20 0 -21 37q0 70 -53 135q-80 100 -208 100
q-127 0 -193 -58t-66 -141t46 -148t171 -158l58 -43q183 -139 259 -257q76 -119 76 -273z" />
    <glyph glyph-name="scedilla" unicode="&#x15f;" horiz-adv-x="1105" 
d="M907 1020q-18 0 -18 45t-47 100q-68 82 -186 82t-189 -50q-72 -51 -72 -125t38 -126t153 -115l73 -40q170 -93 241 -195t71 -227q0 -199 -180 -326q-59 -43 -164 -61l-166 -123q115 -9 178 -53t63 -118t-90 -143q-90 -70 -286 -69q-35 0 -35 20q0 27 55 27t113 39
q57 39 57 98q0 125 -162 150q-45 6 -45 14t33 33l154 114h-7q-193 0 -292 45q-23 10 -29 20t-6 70q0 58 10 201q0 45 23 45q18 0 18 -34t16 -85q27 -90 109 -131t188 -41q106 -1 172 63q68 64 68 146t-35 138q-35 57 -143 120l-105 62q-156 90 -219 183t-63 212
q0 156 131 253q132 97 300 97t279 -28q25 -6 25 -23l-6 -209q0 -55 -23 -55z" />
    <glyph glyph-name="Scaron" unicode="&#x160;" horiz-adv-x="1191" 
d="M410 2009q10 -1 34 -25t93 -79q68 -55 85 -69t30 -13q13 0 28 8q110 66 178 122t83 56t15 -16q0 -15 -17 -33t-133 -127t-140 -131t-36 -23q-11 0 -42 23q-39 35 -244 184q-28 20 -28 30t10 19l59 60q15 14 25 14zM530 -35q-186 0 -307 53q-25 10 -32 24t-7 82t11 232
q4 53 24 54q21 0 21 -38t18 -102q61 -207 293 -207q129 0 202 72t73 159t-42 163q-41 76 -159 168l-95 73q-164 129 -233 243q-70 114 -70 243q0 170 131 278t342 109q143 0 273 -35q29 -6 28 -25q0 -8 -4 -65t-4 -180q0 -61 -22 -62q-20 0 -21 37q0 70 -53 135
q-80 100 -208 100q-127 0 -193 -58t-66 -141t46 -148t171 -158l58 -43q184 -139 260 -257t75 -265q0 -231 -192 -357q-132 -84 -318 -84z" />
    <glyph glyph-name="scaron" unicode="&#x161;" horiz-adv-x="1105" 
d="M607 1450q-11 0 -42 23q-39 35 -243 184q-29 19 -29 29t10 20l59 59q14 15 24 15t47 -36q36 -36 109 -93q72 -57 86 -57t76 36q62 38 130 94t84 56t16 -16t-18 -34q-288 -280 -309 -280zM907 1020q-18 0 -18 45t-47 100q-68 82 -186 82t-189 -50q-72 -51 -72 -125
t38 -126t153 -115l73 -40q170 -93 241 -195t71 -227q0 -199 -180 -326q-101 -72 -298 -72t-296 45q-23 10 -29 20t-6 70q0 58 10 201q0 45 23 45q18 0 18 -34t16 -85q27 -90 109 -131t188 -41q106 -1 172 63q68 64 68 146t-35 138q-35 57 -143 120l-105 62q-156 90 -219 183
t-63 212q0 156 131 253q132 97 300 97t279 -28q25 -6 25 -23l-6 -209q0 -55 -23 -55z" />
    <glyph glyph-name="uni0162" unicode="&#x162;" horiz-adv-x="1454" 
d="M514 -504q0 27 55 27t113 39q57 39 57 98q0 125 -161 150q-46 6 -46 14t33 33l193 143h-27l-258 -6q-41 0 -41 18t35 18t72 9q49 11 59 105t10 444v839l-305 -8q-92 -4 -134 -15t-67 -48q-26 -37 -32 -65t-23 -27q-18 0 -18 48t43 220q8 39 24 39q4 1 49 -17t244 -18h811
q66 0 129 10t68 10q16 0 16 -43l-6 -237q-4 -33 -18 -33q-20 0 -23 41l-2 23q-8 109 -242 114l-258 6v-839q0 -350 10 -445t80 -104q58 -8 98 -8q40 -1 40 -19t-39 -18l-185 2l-184 -137q115 -9 178 -53q64 -44 64 -118t-90 -143q-90 -70 -287 -69q-35 0 -35 20z" />
    <glyph glyph-name="uni0163" unicode="&#x163;" horiz-adv-x="1296" 
d="M424 -504q0 27 55 27t113 39q57 39 57 98q0 125 -162 150q-45 6 -45 14t33 33l193 143h-17l-235 -6q-35 0 -35 18t35 18t57 7q43 10 52 88t10 375v704l-269 -6q-139 -2 -174 -53q-20 -27 -28 -55t-23 -27q-16 0 -16 39t38 201q6 33 21 32q6 0 48 -14t210 -14h731
q75 0 122 8t50 8q14 0 15 -37l-5 -211q-4 -29 -16 -28q-18 0 -20 34l-2 19q-3 42 -53 70t-160 30l-228 4v-704q0 -280 8 -348t22 -88q21 -32 142 -33q29 -1 29 -19t-35 -18l-164 2l-184 -137q115 -9 178 -53q64 -44 64 -118t-90 -143q-90 -70 -287 -69q-35 0 -35 20z" />
    <glyph glyph-name="Tcaron" unicode="&#x164;" horiz-adv-x="1454" 
d="M510 2009q10 -1 35 -25t93 -79t84 -69t30 -13q14 0 28 8q110 66 178 122t83 56t15 -16q0 -15 -16 -33q-95 -95 -272 -256q-27 -25 -38 -25t-42 23q-39 35 -244 184q-28 20 -28 30t10 19l59 60q15 14 25 14zM432 12q0 18 35 18t72 9q49 11 59 105t10 444v839l-305 -8
q-92 -4 -134 -15t-67 -48q-26 -37 -32 -65t-23 -27q-18 0 -18 48t43 220q8 39 24 39q4 1 49 -17t244 -18h811q66 0 129 10t68 10q16 0 16 -43l-6 -237q-4 -33 -18 -33q-20 0 -23 41l-2 23q-8 109 -242 114l-258 6v-839q0 -350 10 -445t80 -104q58 -8 98 -8q40 -1 40 -19
t-39 -18l-322 6l-258 -6q-41 0 -41 18z" />
    <glyph glyph-name="tcaron" unicode="&#x165;" horiz-adv-x="1296" 
d="M642 1450q-11 0 -42 23q-39 35 -244 184q-28 19 -28 29t10 20l59 59q15 15 25 15t46 -36t167 -138q29 -22 57 -4q110 66 178 122t83 56t15 -16t-16 -34q-288 -280 -310 -280zM381 12q0 18 35 18t57 7q43 10 53 88t9 375v704l-269 -6q-139 -2 -174 -53q-20 -27 -28 -55
t-23 -27q-16 0 -16 39t38 201q6 33 21 32q6 0 48 -14t210 -14h731q75 0 122 8t50 8q14 0 15 -37l-5 -211q-4 -29 -16 -28q-18 0 -20 34l-2 19q-3 42 -53 70t-160 30l-228 4v-704q0 -280 8 -348t22 -88q21 -32 142 -33q29 -1 29 -19t-35 -18l-291 6l-235 -6q-35 0 -35 18z
" />
    <glyph glyph-name="Umacron" unicode="&#x16a;" horiz-adv-x="1744" 
d="M1147 1755h-492q-10 0 -14 3t-2 11l16 74q6 18 23 19h491q23 0 17 -21l-17 -74q-2 -12 -22 -12zM1681 1524q1 -18 -29 -18t-69 -8q-39 -7 -54 -34q-15 -28 -19 -88t-5 -428v-219q0 -209 -39 -363t-155 -253q-172 -147 -426 -148q-299 0 -455 141q-182 164 -182 543v299
q0 369 -4 429t-22 86q-28 42 -146 42q-35 1 -35 19t45 18l299 -6l252 6q45 0 45 -18t-28 -18t-66 -8q-38 -7 -54 -34q-16 -28 -20 -88t-4 -428v-286q0 -211 40 -325q40 -115 131 -189t254 -74t273 110q76 76 98 194t21 314v256q0 369 -4 429t-21 86q-27 42 -141 42
q-35 1 -35 19t43 18l128 -2q66 0 94 -4h14l233 6q43 0 43 -18z" />
    <glyph glyph-name="umacron" unicode="&#x16b;" horiz-adv-x="1556" 
d="M1053 1526h-492q-10 0 -14 3t-2 11l16 74q6 18 23 18h491q23 0 17 -20l-17 -74q-2 -12 -22 -12zM1499 1294q1 -18 -25 -18q-86 0 -107 -33q-13 -20 -17 -67q-4 -111 -4 -369v-186q0 -177 -35 -309t-137 -216q-150 -125 -404 -125q-554 0 -553 580v256q0 340 -2 377
t-18 55q-33 37 -129 37q-31 0 -31 17t39 18l270 -4l232 4q39 0 38 -17q0 -18 -23 -18q-85 0 -107 -33q-13 -20 -17 -71t-4 -365v-244q0 -180 33 -273q32 -93 112 -156q80 -62 223 -62t238 92q68 62 86 160t19 264v219q0 258 -5 369q-4 45 -18 63q-29 37 -123 37
q-31 0 -31 17t32 17t63 1l143 -4h14l211 4q37 1 37 -17z" />
    <glyph glyph-name="Uring" unicode="&#x16e;" horiz-adv-x="1744" 
d="M821 1833q0 -45 32 -74t77 -29t81 32t36 73t-28 69t-75 28t-85 -28q-38 -26 -38 -71zM892 1679q-96 0 -146 35q-50 36 -50 98t82 116t184 54t156 -32q53 -32 53 -86q1 -80 -91 -132t-188 -53zM1681 1524q1 -18 -29 -18t-69 -8q-39 -7 -54 -34q-15 -28 -19 -88t-5 -428
v-219q0 -209 -39 -363t-155 -253q-172 -147 -426 -148q-299 0 -455 141q-182 164 -182 543v299q0 369 -4 429t-22 86q-28 42 -146 42q-35 1 -35 19t45 18l299 -6l252 6q45 0 45 -18t-28 -18t-66 -8q-38 -7 -54 -34q-16 -28 -20 -88t-4 -428v-286q0 -211 40 -325
q40 -115 131 -189t254 -74t273 110q76 76 98 194t21 314v256q0 369 -4 429t-21 86q-27 42 -141 42q-35 1 -35 19t43 18l128 -2q66 0 94 -4h14l233 6q43 0 43 -18z" />
    <glyph glyph-name="uring" unicode="&#x16f;" horiz-adv-x="1556" 
d="M932 1606q0 40 -28 68t-75 28t-85 -26t-37 -72q-1 -45 31 -74t77 -29t81 32t36 73zM778 1450q-96 0 -146 35t-50 97t82 117q82 54 184 54t156 -33t53 -86q2 -80 -91 -132q-92 -52 -188 -52zM1499 1294q1 -18 -25 -18q-86 0 -107 -33q-13 -20 -17 -67q-4 -111 -4 -369
v-186q0 -177 -35 -309t-137 -216q-150 -125 -404 -125q-554 0 -553 580v256q0 340 -2 377t-18 55q-33 37 -129 37q-31 0 -31 17t39 18l270 -4l232 4q39 0 38 -17q0 -18 -23 -18q-85 0 -107 -33q-13 -20 -17 -71t-4 -365v-244q0 -180 33 -273q32 -93 112 -156q80 -62 223 -62
t238 92q68 62 86 160t19 264v219q0 258 -5 369q-4 45 -18 63q-29 37 -123 37q-31 0 -31 17t32 17t63 1l143 -4h14l211 4q37 1 37 -17z" />
    <glyph glyph-name="Uhungarumlaut" unicode="&#x170;" horiz-adv-x="1744" 
d="M1286 2017q12 0 47 -13t82 -54q23 -18 4 -29q-45 -12 -80 -29q-170 -78 -278 -168q-31 -25 -45 -24q-20 0 -10 20t114 129q102 109 128 139t38 29zM932 2017q49 0 129 -67q23 -18 4 -29q-45 -12 -80 -29q-170 -78 -278 -168q-31 -25 -45 -24q-20 0 -11 19t114 129
q103 110 129 140t38 29zM1681 1524q1 -18 -29 -18t-69 -8q-39 -7 -54 -34q-15 -28 -19 -88t-5 -428v-219q0 -209 -39 -363t-155 -253q-172 -147 -426 -148q-299 0 -455 141q-182 164 -182 543v299q0 369 -4 429t-22 86q-28 42 -146 42q-35 1 -35 19t45 18l299 -6l252 6
q45 0 45 -18t-28 -18t-66 -8q-38 -7 -54 -34q-16 -28 -20 -88t-4 -428v-286q0 -211 40 -325q40 -115 131 -189t254 -74t273 110q76 76 98 194t21 314v256q0 369 -4 429t-21 86q-27 42 -141 42q-35 1 -35 19t43 18l128 -2q66 0 94 -4h14l233 6q43 0 43 -18z" />
    <glyph glyph-name="uhungarumlaut" unicode="&#x171;" horiz-adv-x="1556" 
d="M1108 1788q12 0 47 -13t82 -55q23 -18 4 -28q-45 -12 -80 -29q-170 -78 -278 -168q-31 -25 -45 -25q-20 0 -13 16t114 130q105 112 131 142t38 30zM754 1788q49 0 129 -68q23 -18 4 -28q-45 -12 -80 -29q-170 -78 -279 -168q-31 -25 -45 -25q-20 0 -11 20t114 129
q104 109 130 139t38 30zM1499 1294q1 -18 -25 -18q-86 0 -107 -33q-13 -20 -17 -67q-4 -111 -4 -369v-186q0 -177 -35 -309t-137 -216q-150 -125 -404 -125q-554 0 -553 580v256q0 340 -2 377t-18 55q-33 37 -129 37q-31 0 -31 17t39 18l270 -4l232 4q39 0 38 -17
q0 -18 -23 -18q-85 0 -107 -33q-13 -20 -17 -71t-4 -365v-244q0 -180 33 -273q32 -93 112 -156q80 -62 223 -62t238 92q68 62 86 160t19 264v219q0 258 -5 369q-4 45 -18 63q-29 37 -123 37q-31 0 -31 17t32 17t63 1l143 -4h14l211 4q37 1 37 -17z" />
    <glyph glyph-name="Uogonek" unicode="&#x172;" horiz-adv-x="1744" 
d="M993 -465q-186 1 -186 147q0 72 59 152t127 133q-39 -2 -108 -2q-299 0 -455 141q-182 164 -182 543v299q0 369 -4 429t-22 86q-28 42 -146 42q-35 1 -35 19t45 18l299 -6l252 6q45 0 45 -18t-28 -18t-66 -8q-38 -7 -54 -34q-16 -28 -20 -88t-4 -428v-286q0 -211 40 -325
q40 -115 131 -189t254 -74t273 110q76 76 98 194t21 314v256q0 369 -4 429t-21 86q-27 42 -141 42q-35 1 -35 19t43 18l128 -2q66 0 94 -4h14l233 6q43 0 43 -18q1 -18 -29 -18t-69 -8q-39 -7 -54 -34q-15 -28 -19 -88t-5 -428v-219q0 -209 -39 -363q-50 -195 -218 -300
q-97 -60 -134 -76q-51 -31 -87 -103t-36 -135q0 -100 119 -100q45 0 88 34t47 33q19 0 19 -14t-17 -35q-123 -135 -254 -135z" />
    <glyph glyph-name="uogonek" unicode="&#x173;" horiz-adv-x="1556" 
d="M868 -465q-186 0 -186 149q0 76 67 160t134 136q-31 -8 -90 -9q-276 0 -412 119q-164 141 -164 461v256q0 340 -2 377t-18 55q-33 37 -129 37q-31 0 -31 17t39 18l270 -4l232 4q39 0 38 -17q0 -18 -23 -18q-85 0 -107 -33q-13 -20 -17 -71t-4 -365v-244q0 -180 33 -273
q32 -93 112 -156q80 -62 223 -62t238 92q68 62 86 160t19 264v219q0 258 -5 369q-4 45 -18 63q-29 37 -123 37q-31 0 -31 17t32 17t63 1l143 -4h14l211 4q37 1 37 -17q1 -18 -25 -18q-86 0 -107 -33q-13 -20 -17 -67q-4 -111 -4 -369v-186q0 -177 -35 -309
q-52 -194 -237 -279q-58 -26 -73 -35q-57 -32 -96 -104t-39 -142q0 -100 119 -100q47 0 90 34t45 33q18 0 18 -14t-16 -35q-123 -135 -254 -135z" />
    <glyph glyph-name="Ydieresis" unicode="&#x178;" horiz-adv-x="1372" 
d="M517 1700q-43 0 -67 30t-24 66t25 65t67 29t71 -24q27 -24 27 -65t-28 -71t-71 -30zM1049 1801q0 -41 -28 -71t-72 -30q-43 0 -67 30t-24 66t25 66t67 30t71 -24q28 -24 28 -67zM391 12q0 18 34 18t71 9q57 12 63 105t6 212v168q0 111 -47 215q-10 25 -159 269t-213 338
t-130 133q-49 27 -83 27t-33 18q0 18 39 18l258 -6l219 6q31 0 30 -18q0 -10 -37 -20t-37 -34q0 -26 17 -58q16 -32 356 -630q10 25 152 279q141 254 163 301t22 89t-41 51q-40 9 -40 22q0 18 35 18l193 -6l219 6q37 0 37 -18t-42 -18t-88 -24q-47 -24 -103 -92t-213 -331
q-157 -262 -187 -333t-29 -202v-168q0 -118 6 -212t84 -105q57 -8 97 -8q40 -1 39 -19q0 -18 -43 -18l-314 6l-256 -6q-45 0 -45 18z" />
    <glyph glyph-name="Zacute" unicode="&#x179;" horiz-adv-x="1454" 
d="M1096 1837h-70q-78 -10 -181 -48q-103 -37 -153 -63t-56 -26q-7 0 -7 10t18 29q55 51 176 144t151 113t44 20t34 -31q18 -31 54 -117q16 -31 -10 -31zM156 0q-35 0 -35 17t71 127q616 955 826 1283h-402q-219 0 -294 -43q-47 -26 -76 -72t-35 -85q-5 -39 -23 -39t-18 42
t41 288q6 39 25 38q6 0 45 -10t413 -10h625q35 0 35 -16q0 -10 -17 -39q-225 -364 -882 -1368h503q262 0 322 112q25 45 34 89t23 42q21 0 21 -84t-41 -229q-14 -53 -62 -53z" />
    <glyph glyph-name="zacute" unicode="&#x17a;" horiz-adv-x="1280" 
d="M543 1480q-1 23 157 145t188 141q30 20 44 20t34 -31q18 -31 54 -117q16 -31 -10 -30l-37 2q-138 0 -418 -140q-12 0 -12 10zM102 17q0 17 23 53q432 651 758 1134h-340q-199 0 -248 -26t-75 -65q-26 -38 -31 -71t-21 -32q-18 0 -18 44t36 236q2 33 21 33q6 0 36 -8
t367 -8h555q31 1 31 -13t-10 -34q-307 -482 -774 -1156h432q227 0 278 91q25 45 32 77q8 32 24 31q16 1 16 -71t-35 -195q-14 -45 -55 -45l-971 8q-31 0 -31 17z" />
    <glyph glyph-name="Zdotaccent" unicode="&#x17b;" horiz-adv-x="1454" 
d="M641 1815q0 45 30 81t83 37q53 -1 86 -31q32 -30 32 -80t-32 -86t-87 -36q-54 0 -83 35t-29 80zM156 0q-35 0 -35 17t71 127q616 955 826 1283h-402q-219 0 -294 -43q-47 -26 -76 -72t-35 -85q-5 -39 -23 -39t-18 42t41 288q6 39 25 38q6 0 45 -10t413 -10h625
q35 0 35 -16q0 -10 -17 -39q-225 -364 -882 -1368h503q262 0 322 112q25 45 34 89t23 42q21 0 21 -84t-41 -229q-14 -53 -62 -53z" />
    <glyph glyph-name="zdotaccent" unicode="&#x17c;" horiz-adv-x="1280" 
d="M677 1470q-54 0 -83 35t-29 80t30 82t83 37t86 -31t33 -81t-33 -86t-87 -36zM102 17q0 17 23 53q432 651 758 1134h-340q-199 0 -248 -26t-75 -65q-26 -38 -31 -71t-21 -32q-18 0 -18 44t36 236q2 33 21 33q6 0 36 -8t367 -8h555q31 1 31 -13t-10 -34
q-307 -482 -774 -1156h432q227 0 278 91q25 45 32 77q8 32 24 31q16 1 16 -71t-35 -195q-14 -45 -55 -45l-971 8q-31 0 -31 17z" />
    <glyph glyph-name="Zcaron" unicode="&#x17d;" horiz-adv-x="1454" 
d="M510 2009q10 -1 35 -25t93 -79t84 -69t30 -13q14 0 28 8q110 66 178 122t83 56t15 -16q0 -15 -16 -33q-95 -95 -272 -256q-27 -25 -38 -25t-42 23q-39 35 -244 184q-28 20 -28 30t10 19l59 60q15 14 25 14zM156 0q-35 0 -35 17t71 127q616 955 826 1283h-402
q-219 0 -294 -43q-47 -26 -76 -72t-35 -85q-5 -39 -23 -39t-18 42t41 288q6 39 25 38q6 0 45 -10t413 -10h625q35 0 35 -16q0 -10 -17 -39q-225 -364 -882 -1368h503q262 0 322 112q25 45 34 89t23 42q21 0 21 -84t-41 -229q-14 -53 -62 -53z" />
    <glyph glyph-name="zcaron" unicode="&#x17e;" horiz-adv-x="1280" 
d="M675 1450q-11 0 -42 23q-39 35 -244 184q-29 19 -29 29t11 20l59 59q14 15 24 15t44 -34q33 -34 109 -93q75 -59 89 -59t76 36q62 38 130 94t84 56q15 0 15 -16t-17 -34q-95 -95 -271 -255q-27 -25 -38 -25zM102 17q0 17 23 53q432 651 758 1134h-340q-199 0 -248 -26
t-75 -65q-26 -38 -31 -71t-21 -32q-18 0 -18 44t36 236q2 33 21 33q6 0 36 -8t367 -8h555q31 1 31 -13t-10 -34q-307 -482 -774 -1156h432q227 0 278 91q25 45 32 77q8 32 24 31q16 1 16 -71t-35 -195q-14 -45 -55 -45l-971 8q-31 0 -31 17z" />
    <glyph glyph-name="florin" unicode="&#x192;" horiz-adv-x="1228" 
d="M48 -475q-89 1 -89 23t14 22q173 0 243 110q71 110 108 445l63 571h-70l-143 -6q-23 0 -16 19l18 63q6 25 25 25l108 -4h90q43 428 205 612q145 166 383 166q119 0 209 -37q25 -10 25 -55t-23 -215q-6 -45 -24 -45q-18 1 -18 61t-38 121q-53 86 -178 86q-60 0 -118 -40
t-95 -116q-55 -113 -102 -538h231q90 0 115 3q26 3 30 3q20 0 11 -31l-23 -61q-8 -20 -43 -21l-201 8h-127q-66 -538 -104 -706q-39 -168 -103 -268q-65 -99 -194 -158q-80 -37 -169 -37z" />
    <glyph glyph-name="Scommaaccent" unicode="&#x218;" horiz-adv-x="1191" 
d="M621 -106q12 0 19 -8t36 -54q29 -45 29 -76t-23 -84q-61 -145 -139 -233q-25 -21 -35 -21t-10 19l14 28q51 88 51 159t-55 121q-18 17 -19 26q1 45 45 84t87 39zM530 -35q-186 0 -307 53q-25 10 -32 24t-7 82t11 232q4 53 24 54q21 0 21 -38t18 -102q61 -207 293 -207
q129 0 202 72t73 159t-42 163q-41 76 -159 168l-95 73q-164 129 -233 243q-70 114 -70 243q0 170 131 278t342 109q143 0 273 -35q29 -6 28 -25q0 -8 -4 -65t-4 -180q0 -61 -22 -62q-20 0 -21 37q0 70 -53 135q-80 100 -208 100q-127 0 -193 -58t-66 -141t46 -148t171 -158
l58 -43q184 -139 260 -257t75 -265q0 -231 -192 -357q-132 -84 -318 -84z" />
    <glyph glyph-name="scommaaccent" unicode="&#x219;" horiz-adv-x="1105" 
d="M578 -106q12 0 19 -8t36 -54q29 -45 29 -76t-23 -84q-61 -145 -139 -233q-25 -21 -35 -21t-10 19l14 28q51 88 51 159t-55 121q-18 17 -19 26q0 45 46 84t86 39zM907 1020q-18 0 -18 45t-47 100q-68 82 -186 82t-189 -50q-72 -51 -72 -125t38 -126t153 -115l73 -40
q170 -93 241 -195t71 -227q0 -199 -180 -326q-101 -72 -298 -72t-296 45q-23 10 -29 20t-6 70q0 58 10 201q0 45 23 45q18 0 18 -34t16 -85q27 -90 109 -131t188 -41q106 -1 172 63q68 64 68 146t-35 138q-35 57 -143 120l-105 62q-156 90 -219 183t-63 212q0 156 131 253
q132 97 300 97t279 -28q25 -6 25 -23l-6 -209q0 -55 -23 -55z" />
    <glyph glyph-name="uni021A" unicode="&#x21a;" horiz-adv-x="1454" 
d="M760 -106q12 0 19 -8t36 -54q29 -45 29 -76t-23 -84q-61 -145 -139 -233q-25 -21 -35 -21t-10 19l14 28q51 88 51 159t-55 121q-18 17 -18 26q0 45 44 84t87 39zM432 12q0 18 35 18t72 9q49 11 59 105t10 444v839l-305 -8q-92 -4 -134 -15t-67 -48q-26 -37 -32 -65
t-23 -27q-18 0 -18 48t43 220q8 39 24 39q4 1 49 -17t244 -18h811q66 0 129 10t68 10q16 0 16 -43l-6 -237q-4 -33 -18 -33q-20 0 -23 41l-2 23q-8 109 -242 114l-258 6v-839q0 -350 10 -445t80 -104q58 -8 98 -8q40 -1 40 -19t-39 -18l-322 6l-258 -6q-41 0 -41 18z" />
    <glyph glyph-name="uni021B" unicode="&#x21b;" horiz-adv-x="1296" 
d="M672 -106q12 0 19 -8t36 -54q29 -45 29 -76t-23 -84q-61 -145 -139 -233q-25 -21 -35 -21t-10 19l14 28q51 88 51 159t-55 121q-18 17 -18 26q0 45 45 84t86 39zM381 12q0 18 35 18t57 7q43 10 53 88t9 375v704l-269 -6q-139 -2 -174 -53q-20 -27 -28 -55t-23 -27
q-16 0 -16 39t38 201q6 33 21 32q6 0 48 -14t210 -14h731q75 0 122 8t50 8q14 0 15 -37l-5 -211q-4 -29 -16 -28q-18 0 -20 34l-2 19q-3 42 -53 70t-160 30l-228 4v-704q0 -280 8 -348t22 -88q21 -32 142 -33q29 -1 29 -19t-35 -18l-291 6l-235 -6q-35 0 -35 18z" />
    <glyph glyph-name="circumflex" unicode="&#x2c6;" horiz-adv-x="1898" 
d="M956 2009q11 0 41 -22q39 -35 244 -185q29 -20 29 -29t-10 -20l-60 -59q-14 -14 -24 -14t-34 24q-24 25 -107 93t-96 68q-13 1 -34 -10q-125 -72 -185 -124t-75 -52q-16 0 -16 21q0 8 18 31q16 17 132 125t141 130t36 23z" />
    <glyph glyph-name="caron" unicode="&#x2c7;" horiz-adv-x="1898" 
d="M722 2009q10 -1 36 -25q24 -24 92 -79t84 -69t30 -13q14 0 29 8q109 66 177 122t84 56t16 -16q0 -15 -18 -33q-95 -95 -271 -256q-27 -25 -38 -25t-42 23q-39 35 -244 184q-29 20 -29 30t11 19l59 60q14 14 24 14z" />
    <glyph glyph-name="uni02C9" unicode="&#x2c9;" horiz-adv-x="1898" 
d="M1184 1755h-492q-10 0 -14 3t-2 11l16 74q6 18 23 19h491q23 0 17 -21l-17 -74q-2 -12 -22 -12z" />
    <glyph glyph-name="breve" unicode="&#x2d8;" horiz-adv-x="1898" 
d="M635 1850q0 15 16 26l68 53q26 22 35 11q18 -21 34 -44q78 -90 182 -90q139 0 234 99q34 34 43 34q17 -1 17 -21t-46 -72q-130 -147 -305 -146q-115 0 -202 74q-76 61 -76 76z" />
    <glyph glyph-name="dotaccent" unicode="&#x2d9;" horiz-adv-x="1898" 
d="M945 1700q-54 0 -83 35t-28 80q0 45 30 81t82 37q53 -1 86 -31t33 -80t-33 -86t-87 -36z" />
    <glyph glyph-name="ring" unicode="&#x2da;" horiz-adv-x="1898" 
d="M838 1833q0 -45 32 -74t76 -29q45 0 81 32t36 73t-28 69t-75 28q-46 0 -84 -28q-38 -26 -38 -71zM908 1679q-96 0 -145 35q-50 36 -50 98t82 116t184 54t156 -32q53 -33 53 -86q2 -80 -91 -132t-189 -53z" />
    <glyph glyph-name="ogonek" unicode="&#x2db;" horiz-adv-x="1898" 
d="M1020 -348q45 0 88 34t47 33q19 0 19 -14t-17 -35q-123 -135 -254 -135q-94 0 -140 37t-46 119q0 83 98 191t137 118h78q-129 -104 -129 -248q0 -100 119 -100z" />
    <glyph glyph-name="tilde" unicode="&#x2dc;" horiz-adv-x="1898" 
d="M1086 1700q-68 0 -164 51t-156 51q-62 0 -127 -73q-20 -20 -33 -21q-14 0 -14 15t26 54t82 91q57 52 108 51q51 0 67 -6t25 -8q8 -1 24 -9t20 -11t22 -12t19 -11q80 -45 152 -45t120 61q21 27 35 27q14 1 14 -13t-18 -49q-19 -35 -76 -89q-58 -54 -126 -54z" />
    <glyph glyph-name="hungarumlaut" unicode="&#x2dd;" horiz-adv-x="1898" 
d="M1198 2017q12 0 47 -13t82 -54q23 -18 4 -29q-45 -12 -80 -29q-170 -78 -278 -168q-31 -25 -45 -24q-20 0 -10 20t114 129q102 109 128 139t38 29zM844 2017q49 0 129 -67q23 -18 4 -29q-45 -12 -80 -29q-170 -78 -279 -168q-31 -25 -45 -24q-20 0 -10 20t114 129
q103 109 129 139t38 29z" />
    <glyph glyph-name="pi" unicode="&#x3c0;" horiz-adv-x="1136" 
d="M90 586q-20 0 -20 32q0 90 48 188t118 103q52 6 250 3t249 -3l137 2q82 2 120 27t48 82q4 29 28 29t24 -41q0 -84 -27 -217q-6 -35 -30 -47t-105 -13h-51q-14 -203 -15 -426q0 -178 70 -178q76 0 104 57q8 15 19 15q25 0 25 -51q0 -50 -63 -110q-62 -60 -116 -61
q-113 -1 -160 51t-47 208q0 233 17 499q-104 2 -260 2q0 -354 -43 -553q-23 -106 -80 -159t-166 -54q-43 0 -43 25q0 12 18 22q47 39 69 74t44 98q80 233 80 547l-46 -2q-40 -1 -84 -23t-60 -39t-20 -52q-5 -35 -32 -35z" />
    <glyph glyph-name="uni2010" unicode="&#x2010;" horiz-adv-x="870" 
d="M154 645h581q66 0 66 -29q-1 -20 -21 -27t-71 -18q-82 -12 -282 -48q-199 -36 -233 -46t-65 -23t-39 -14q-25 0 -16 37l30 141q4 18 14 22t36 5z" />
    <glyph glyph-name="endash" unicode="&#x2013;" horiz-adv-x="1024" 
d="M0 526v119h1024v-119h-1024z" />
    <glyph glyph-name="emdash" unicode="&#x2014;" horiz-adv-x="2048" 
d="M2048 526h-2048v119h2048v-119z" />
    <glyph glyph-name="quoteleft" unicode="&#x2018;" horiz-adv-x="446" 
d="M268 1321q0 -92 49 -141q23 -23 23 -32q0 -19 -23 -22q-47 0 -127 24t-91 38q-11 12 -11 37q0 88 74 224t151 214q17 16 31 16t14 -9t-10 -30q-80 -155 -80 -319z" />
    <glyph glyph-name="quoteright" unicode="&#x2019;" horiz-adv-x="446" 
d="M106 1658q0 21 35 21q35 -1 115 -25t91 -36t11 -37q0 -88 -74 -224t-151 -214q-17 -17 -31 -17t-14 13q0 6 10 26q80 156 80 320q0 92 -49 141q-23 23 -23 32z" />
    <glyph glyph-name="quotesinglbase" unicode="&#x201a;" horiz-adv-x="446" 
d="M106 274q0 21 35 21q35 -1 115 -25t91 -36t11 -37q0 -89 -74 -225t-151 -214q-17 -16 -31 -16t-14 9t10 30q80 155 80 319q0 92 -49 142q-23 23 -23 32z" />
    <glyph glyph-name="quotedblleft" unicode="&#x201c;" horiz-adv-x="737" 
d="M258 1329q0 -45 16 -85t36 -58t20 -28q0 -19 -28 -19t-161 37q-37 12 -48 22t-11 35q0 86 73 220t148 210q15 16 29 16t14 -9t-10 -28q-78 -159 -78 -313zM565 1329q1 -45 17 -85t36 -58t19 -28q0 -19 -28 -19q-29 1 -113 25t-96 34q-11 10 -11 35q0 86 73 220t148 210
q14 16 30 16t15 -8q0 -8 -12 -29q-78 -159 -78 -313z" />
    <glyph glyph-name="quotedblright" unicode="&#x201d;" horiz-adv-x="737" 
d="M479 1489q0 45 -16 85t-36 58q-19 18 -19 28q1 19 28 19t160 -37q37 -12 48 -22t11 -35q1 -86 -71 -221t-148 -211q-16 -14 -30 -14t-15 9q0 9 10 28q78 129 78 313zM100 1660q0 19 28 19t161 -37q37 -12 48 -22t11 -35q0 -86 -73 -220t-148 -212q-17 -14 -31 -14t-14 8
t12 29q78 129 78 313q0 45 -16 85t-36 58t-20 28z" />
    <glyph glyph-name="quotedblbase" unicode="&#x201e;" horiz-adv-x="737" 
d="M403 274q0 21 35 21q35 -1 115 -25t91 -36t11 -37q1 -89 -73 -225t-152 -214q-16 -16 -30 -16t-15 9q0 9 10 30q80 155 80 319q0 92 -49 142q-23 23 -23 32zM100 274q0 21 35 21q35 -1 115 -25t91 -36t11 -37q0 -89 -74 -225t-151 -214q-17 -16 -31 -16t-14 9t10 30
q80 155 80 319q0 92 -49 142q-23 23 -23 32z" />
    <glyph glyph-name="dagger" unicode="&#x2020;" horiz-adv-x="1280" 
d="M765 1571q15 0 15 -21q0 -4 -10 -76t-17 -184t-13 -202t-7 -179l234 11q120 4 159 10t43 6q18 0 11 -31l-37 -129q-6 -20 -41 -20q-2 0 -57 13t-179 17l-135 5q-10 -207 -22 -503q-11 -296 -21 -491t-10 -207q-4 -66 -45 -65q-45 0 -53 106q-2 27 -19 519t-26 641l-54 -3
q-120 -6 -354 -30q-22 -4 -14 28l32 125q8 25 29 25q2 0 43 -7t127 -11l186 -9q-2 131 -14 282t-20 181t-8 40q0 9 14 31t120 75q105 53 143 53z" />
    <glyph glyph-name="daggerdbl" unicode="&#x2021;" horiz-adv-x="1280" 
d="M1165 1036q18 0 11 -30l-37 -121q-6 -20 -41 -21q-4 0 -66 13t-153 16l-150 4q-2 -72 -18 -498l297 13q81 4 105 9q23 5 28 5q18 0 10 -31l-31 -116q-6 -20 -41 -21q-4 0 -57 11t-102 12l-213 6q-15 -567 -23 -645t-21 -97q-13 -20 -34 -20q-51 0 -54 106
q-10 182 -20 656h-57q-136 1 -234 -15t-111 -18t-18 5q-4 7 0 24l27 116q4 25 28 25q4 0 33 -7t58 -7l268 -11l-8 498l-97 -2q-86 -2 -313 -31q-22 -4 -14 29l30 119q8 25 29 24q2 0 38 -8t116 -12l207 -6q-18 377 -21 391l-8 39q0 18 15 33t101 57t136 41q14 0 14 -21
q0 -6 -10 -72t-16 -198l-15 -270l293 6q71 0 103 10t36 10z" />
    <glyph glyph-name="bullet" unicode="&#x2022;" horiz-adv-x="876" 
d="M303 565q-1 2 19 64t20 148q0 85 -26 125t-56 52q-33 18 -33 25q0 20 52 20t272 -45q66 -16 75 -24t9 -28q0 -67 -275 -318q-41 -31 -45 -31q-12 0 -12 12z" />
    <glyph glyph-name="ellipsis" unicode="&#x2026;" horiz-adv-x="2048" 
d="M1703 0q-56 0 -87 37t-31 82t32 83t86 38t89 -32t35 -84t-34 -88t-90 -36zM1021 0q-56 0 -87 37t-31 82t32 83t86 38t89 -32t35 -84t-34 -88t-90 -36zM339 0q-56 0 -87 37t-31 82t32 83t86 38t89 -32t35 -84t-34 -88t-90 -36z" />
    <glyph glyph-name="perthousand" unicode="&#x2030;" horiz-adv-x="2635" 
d="M643 1140q0 126 -56 225q-57 99 -147 99t-139 -83t-49 -207t54 -223t143 -99t142 81q52 81 52 207zM463 1536q255 0 511 24t274 23q18 0 18 -5t-23 -62l-588 -1500q-8 -23 -20 -24l-129 -17q-20 -2 -25 3q-4 5 4 24q158 353 401 913q243 561 251 578q-293 -25 -451 -33
v-4q55 -32 93 -110t38 -172q0 -158 -96 -275q-97 -117 -279 -117t-274 111t-92 259t98 266t289 118zM1332 70q90 0 142 80t52 207q0 125 -56 225t-147 100q-90 0 -139 -83t-49 -207t54 -223t143 -99zM1331 752q183 0 277 -111t94 -259t-96 -266q-96 -116 -280 -116t-275 111
q-93 111 -93 260t94 265t279 116zM2190 70q90 0 142 80t52 207q0 125 -56 225t-146 100t-140 -83q-49 -83 -49 -207t54 -223t143 -99zM2189 752q183 0 277 -111t94 -259t-96 -266q-96 -116 -280 -116t-275 111q-92 111 -92 260t94 265t278 116z" />
    <glyph glyph-name="guilsinglleft" unicode="&#x2039;" horiz-adv-x="782" 
d="M466 158q-6 0 -134 144t-192 209t-64 77t28 36t210 189q181 167 203 183t32 16q25 0 24 -17q1 -13 -27 -43t-144 -170t-144 -184q59 -80 287 -293q29 -27 29 -32t-9 -13l-78 -88q-14 -14 -21 -14z" />
    <glyph glyph-name="guilsinglright" unicode="&#x203a;" horiz-adv-x="782" 
d="M707 582q-1 -12 -29 -36t-210 -190t-203 -182q-22 -16 -32 -16q-53 0 3 60q28 30 144 170t144 183q-59 80 -286 293q-29 27 -29 32t8 13l78 88q14 14 20 15q7 0 135 -144t192 -210q64 -64 65 -76z" />
    <glyph glyph-name="fraction" unicode="&#x2044;" horiz-adv-x="188" 
d="M690 1524q10 -6 -2 -25l-1106 -1519q-14 -18 -24 -11l-60 43q-14 10 4 35l1100 1509q12 16 27 9z" />
    <glyph glyph-name="four.superior" unicode="&#x2074;" horiz-adv-x="985" 
d="M565 973v362h-8l-332 -362h340zM428 638q0 17 14 17t34 3q19 2 40 4q43 3 46 58q3 54 3 154h-465q-29 0 -28 23q0 14 34 53t551 598q17 23 37 23t21 -21v-577h110q32 0 49 7t19 7q12 0 12 -10t-10 -44q-10 -33 -14 -45t-25 -14h-141q0 -128 3 -156t14 -41t54 -17t48 -5
q12 0 12 -17t-21 -17l-219 4l-162 -4q-16 0 -16 17z" />
    <glyph glyph-name="Euro" unicode="&#x20ac;" horiz-adv-x="1228" 
d="M1157 1184q-14 0 -27 66t-49 108q-100 123 -288 123q-83 0 -139 -31t-113 -96q-102 -119 -129 -393h639q25 0 16 -23l-18 -57q-6 -18 -29 -19h-617q-2 -23 3 -147h548q25 0 17 -23l-23 -57q-10 -18 -37 -19h-491q51 -266 160 -404t258 -138q207 0 278 190q18 53 35 53
q27 0 6 -79q-2 -6 -8 -68t-16 -95q-11 -32 -19 -41t-37 -22q-109 -47 -251 -47t-257 50t-221 169q-135 156 -174 432h-160q-25 0 -16 27l18 57q4 14 29 15h123q-8 102 -2 147h-143q-25 0 -17 27l19 57q4 14 20 15h133q37 252 160 395q92 111 194 163t240 52t239 -27t150 -28
q27 -3 27 -23q0 -6 -3 -23t-7 -106q-4 -90 -4 -114v-29l-3 -20q0 -17 -14 -17z" />
    <glyph glyph-name="uni2113" unicode="&#x2113;" horiz-adv-x="921" 
d="M612 1432q0 100 -19 137t-69 37q-111 0 -110 -578v-168q86 125 142 299q56 173 56 273zM500 -25q-311 0 -312 428v226l-108 -72q-18 -14 -37 10q-18 25 10 47l135 103v168q0 522 123 669q109 131 254 132q111 0 159 -75t48 -184q0 -156 -108 -341t-250 -318v-315
q0 -317 192 -318q70 0 134 35t102 86q36 52 60 36t-11 -75q-68 -113 -169 -177t-222 -65z" />
    <glyph glyph-name="trademark" unicode="&#x2122;" horiz-adv-x="561" 
d="M205 1302q0 6 10 7h6q10 -1 12 24l35 219q4 14 8 15q6 0 13 -11l98 -186l94 189q2 8 11 8q4 0 8 -13l32 -213q4 -33 21 -32h8q6 0 6 -6t-8 -7q-51 0 -63 2t-13 11l-20 149h-2l-74 -141q-10 -18 -14 -19q-4 0 -15 19l-73 145h-2l-15 -129v-14q0 -10 8 -10h9q8 0 8 -6
t-6 -7l-41 2l-33 -2q-8 0 -8 6zM4 1567l43 -6h166l2 2q4 0 4 -13l-2 -39q-2 -14 -8 -14q-6 -1 -6 17t-33 18h-37v-135q0 -55 3 -71t16 -17h8q10 0 10 -6t-10 -7l-51 2l-56 -2q-10 0 -10 6t10 7h10q12 2 17 20l2 68v135h-43q-31 0 -35 -21q-2 -10 -7 -10t-5 10l8 48z" />
    <glyph glyph-name="Omega" unicode="&#x2126;" horiz-adv-x="1857" 
d="M47 358q0 38 16 39q16 0 23 -30q10 -68 37 -107q45 -68 186 -67h162q-174 100 -266 267t-92 335t55 297t145 215t205 147q221 117 461 117q360 0 563 -197t203 -524q0 -360 -381 -657h158q154 0 202 57q33 35 45 117q6 31 23 30q16 0 16 -40q0 -39 -9 -159t-18 -154
t-27 -42t-83 -8l-479 6l-72 -4q-14 0 -14 22v99q112 71 182 147t119 214t49 303t-30 282q-104 407 -504 410q-119 0 -212 -41q-168 -74 -248 -253q-65 -145 -66 -349q-2 -205 96 -417t258 -296v-99q0 -23 -15 -22l-71 4l-480 -6q-45 0 -61 2q-35 4 -45 42t-21 160
q-10 122 -10 160z" />
    <glyph glyph-name="estimated" unicode="&#x212e;" horiz-adv-x="1984" 
d="M1559 805v438q0 29 -25 53q-222 228 -538 228t-545 -236q-23 -23 -23 -55v-428q0 -12 12 -12h1108q11 0 11 12zM1884 748h-1444q-12 0 -12 -11v-436q0 -27 21 -51q223 -236 557 -236t563 265h131q-125 -145 -309 -229t-398 -85q-371 0 -632 236q-261 235 -261 569
t261 567t632 233t631 -232q260 -234 260 -568v-22z" />
    <glyph glyph-name="partialdiff" unicode="&#x2202;" horiz-adv-x="1144" 
d="M295 364q0 -148 46 -236q46 -89 128 -89q162 0 244 223q59 162 88 408q-25 34 -68 63q-94 63 -176 64q-123 -1 -193 -143t-69 -290zM497 893q183 0 324 -123q10 94 10 234q0 243 -77 434q-39 96 -114 157t-185 62t-197 -49q-25 -14 -35 -15q-27 1 -27 19t35 45
q125 100 297 100q119 0 211 -44q305 -146 307 -732q1 -259 -77 -535t-238 -403q-94 -74 -209 -84t-212 38t-163 163q-65 116 -65 282t116 308t299 143z" />
    <glyph glyph-name="Delta" unicode="&#x2206;" horiz-adv-x="1409" 
d="M217 129h858q14 0 10 12l-397 1035q-4 18 -8 18t-14 -18l-457 -1033q-4 -14 8 -14zM745 1571q29 0 64 -88l567 -1411q25 -56 15 -64t-76 -8h-1229q-53 0 -58 8t15 58l643 1421q35 76 45 80t14 4z" />
    <glyph glyph-name="product" unicode="&#x220f;" horiz-adv-x="1777" 
d="M1646 1542q68 0 68 -18t-30 -18t-68 -8q-38 -7 -54 -34q-16 -28 -20 -88t-4 -428v-360q0 -856 10 -951t80 -104q57 -9 97 -9t40 -18t-41 -18l-288 6l-256 -6q-43 0 -43 18q1 18 35 18t71 9q45 7 57 103t13 952v837q0 12 -13 13h-843q-12 0 -13 -23v-827q0 -856 10 -951
t81 -104q57 -8 97 -8q40 -1 40 -19t-41 -18l-320 6l-227 -6q-41 0 -41 18t35 18t72 9q45 7 57 103t12 952v360q0 369 -4 429t-21 86q-27 42 -147 42q-35 1 -35 19t43 18l168 -2q106 -4 127 -4h1063l117 4q48 2 116 2z" />
    <glyph glyph-name="summation" unicode="&#x2211;" horiz-adv-x="1460" 
d="M70 1520q0 16 34 16h670q375 0 414 10t45 10q18 0 24 -38q41 -246 41 -288t-17 -42t-23 39t-35 86t-76 71q-76 43 -295 43h-463q209 -317 463 -686q-336 -475 -537 -741h676q262 0 322 113q25 45 34 88t23 43q21 -1 21 -57q1 -56 -15 -179t-28 -169t-60 -46l-1182 6
q-35 0 -34 21q0 20 16 43q408 545 571 768q-174 254 -573 850q-16 29 -16 39z" />
    <glyph glyph-name="minus" unicode="&#x2212;" horiz-adv-x="1124" 
d="M1042 457h-960v125h960v-125z" />
    <glyph glyph-name="uni2215" unicode="&#x2215;" horiz-adv-x="188" 
d="M690 1524q10 -6 -2 -25l-1106 -1519q-14 -18 -24 -11l-60 43q-14 10 4 35l1100 1509q12 16 27 9z" />
    <glyph glyph-name="uni2219" unicode="&#x2219;" horiz-adv-x="512" 
d="M253 424q-58 0 -90 38t-32 85t33 87t89 40t92 -33t36 -87t-35 -92t-93 -38z" />
    <glyph glyph-name="radical" unicode="&#x221a;" horiz-adv-x="1124" 
d="M1094 1970l-336 -2361l-479 1331l-201 -98l-31 76l373 178l317 -910h4l254 1794z" />
    <glyph glyph-name="infinity" unicode="&#x221e;" horiz-adv-x="1460" 
d="M1224 400q66 50 68 131t-66 143q-70 61 -170 25t-243 -158q90 -90 134 -121t127 -50t150 30zM420 696q-116 40 -184 -22t-66 -143t69 -130t151 -29t128 52q45 31 131 117q-147 127 -229 155zM130 347q-89 103 -75 235q15 132 143 208q172 101 385 -55q48 -35 148 -127
q101 92 149 127q212 153 385 53q128 -74 143 -210t-76 -236q-125 -137 -338 -60q-111 39 -227 155l-36 36l-36 -36q-116 -116 -227 -155q-216 -76 -338 65z" />
    <glyph glyph-name="integral" unicode="&#x222b;" horiz-adv-x="561" 
d="M197 795v305q0 254 12 387t47 233q55 158 186 158q82 0 122 -38t40 -79t-33 -67t-69 -25q-36 0 -68 30q-32 29 -54 19t-24 -38t23 -274t22 -407l-2 -442q-2 -393 -82 -629t-217 -235q-102 0 -137 92q-27 74 49 113q41 12 63 3t54 -44q51 -55 74 65q10 63 8 144
q-14 354 -14 729z" />
    <glyph glyph-name="approxequal" unicode="&#x2248;" horiz-adv-x="1124" 
d="M973 463l98 -88q-82 -103 -203 -141t-219 -3l-203 74q-125 40 -181 10q-57 -31 -72 -46l-21 -21l-29 -33l-106 86q90 115 209 152t227 -4l211 -74q68 -23 152 3t137 85zM973 821l98 -88q-92 -111 -212 -147t-210 2l-203 71q-152 52 -244 -29q-16 -14 -24 -22l-22 -22
l-13 -15l-106 84q90 115 210 152t226 -4l211 -72q62 -20 146 2t143 88z" />
    <glyph glyph-name="notequal" unicode="&#x2260;" horiz-adv-x="1124" 
d="M1042 262h-553l-145 -262l-106 61l110 201h-266v125h336l143 262h-479v125h549l143 258l107 -61l-111 -197h272v-125h-340l-145 -262h485v-125z" />
    <glyph glyph-name="lessequal" unicode="&#x2264;" horiz-adv-x="1124" 
d="M1042 0h-960v125h960v-125zM1042 260l-960 410v143l960 410v-138l-804 -344l804 -344v-137z" />
    <glyph glyph-name="greaterequal" unicode="&#x2265;" horiz-adv-x="1124" 
d="M1042 0h-960v125h960v-125zM1042 670l-960 -410v137l805 344l-805 344v138l960 -410v-143z" />
    <glyph glyph-name="lozenge" unicode="&#x25ca;" horiz-adv-x="1011" 
d="M801 772l-303 576l-301 -576l301 -592zM967 772l-402 -772h-133l-401 772l401 754h133z" />
    <glyph glyph-name="Euro.fitted" unicode="&#xe000;" horiz-adv-x="1818" 
d="M1190 74q154 0 230 22t141 97q49 53 67 141q4 25 9 33t18 8q18 0 18 -27t-15 -128q-14 -101 -28 -146t-55 -62q-117 -47 -369 -47q-444 0 -702 223q-162 141 -219 342q-141 0 -219 -2q-14 0 -9 17l23 65q6 20 20 21l164 -2q-14 80 -14 164v20l-184 -2q-14 0 -9 16l23 66
q6 20 20 20l158 -2q41 266 231 443q238 217 648 217q205 0 401 -38q68 -13 100 -16t31 -26q0 -6 -6 -44t-7 -153q-1 -116 -4 -150q-4 -34 -24 -34t-20 45q-4 127 -74 199q-122 127 -404 127t-430 -127q-86 -74 -140 -197t-64 -248q551 -4 985 2q25 0 18 -16l-20 -66
q-4 -18 -19 -18l-968 2q0 -88 20 -184q590 0 831 2q25 0 19 -17l-21 -67q-4 -18 -18 -19q-262 -2 -784 2q76 -208 260 -332t391 -124z" />
    <glyph glyph-name="cent.fitted" unicode="&#xe001;" horiz-adv-x="1206" 
d="M336 820q0 -170 82 -293t170 -154l92 825q-143 8 -244 -100q-100 -108 -100 -278zM776 342q104 0 167 36q62 36 89 140q8 33 26 33t17 -25q0 -84 -26 -223q-4 -27 -29 -35q-119 -35 -217 -35t-127 3l-29 -275q-2 -20 -16 -22l-76 -11q-23 -2 -18 13l36 307
q-209 37 -335 175t-125 355q0 132 50 230t109 147q164 139 422 139l23 205q2 18 20 21l66 8q26 4 22 -12l-28 -222q133 0 270 -53q14 -6 14 -50t-12 -204q-2 -23 -20 -22q-14 0 -19 22q-6 80 -49 135q-62 76 -199 76l-92 -848q47 -8 86 -8z" />
    <glyph glyph-name="dollar.fitted" unicode="&#xe002;" horiz-adv-x="1144" 
d="M612 637l-55 -543q102 6 169 79t67 183q-1 158 -181 281zM555 973l55 495q-75 0 -130 -32q-109 -62 -107 -197q0 -76 46 -134t136 -132zM119 169q0 77 31 210q12 49 29 49t16 -55q-9 -113 67 -196t193 -83l65 604q-180 136 -257 242t-77 246q0 174 138 271t297 97l20 164
q2 14 23 19l61 14q20 5 16 -10l-24 -187q125 0 225 -38q23 -8 29 -18t6 -76q0 -67 -25 -183q-6 -29 -24 -29t-19 39q-6 153 -129 202q-43 17 -71 17l-64 -555q172 -115 256 -225t84 -266q0 -90 -31 -165q-54 -131 -186 -199q-111 -58 -225 -58l-19 -166q-2 -12 -20 -16
l-64 -13q-8 -3 -12 3t-2 18l20 174q-150 0 -258 43q-45 17 -57 33t-12 93z" />
    <glyph glyph-name="florin.fitted" unicode="&#xe003;" horiz-adv-x="1136" 
d="M-36 -475q-89 1 -89 23t14 22q173 0 243 110q71 110 108 445l63 571h-70l-143 -6q-23 0 -16 19l18 63q6 25 25 25l108 -4h90q43 428 205 612q145 166 383 166q121 0 209 -37q25 -10 25 -55t-23 -215q-6 -45 -24 -45q-18 1 -18 61t-38 121q-53 86 -178 86q-60 0 -118 -40
t-95 -116q-55 -113 -102 -538h231q90 0 115 3q26 3 31 3q20 0 10 -31l-23 -61q-8 -20 -43 -21l-200 8h-127q-65 -529 -104 -702q-40 -172 -104 -272q-65 -99 -194 -158q-80 -37 -169 -37z" />
    <glyph glyph-name="i.dot" unicode="&#xe004;" horiz-adv-x="833" 
d="M413 1470q-54 0 -83 35t-29 80t30 82t83 37t86 -31q32 -31 32 -81t-32 -86t-87 -36zM141 12q0 18 34 18t58 7q45 10 53 83t9 380v307q0 313 -2 363q-3 50 -17 68q-29 38 -110 38q-29 0 -29 20q0 14 43 15l242 -4l231 4q37 0 37 -15q0 -20 -26 -20q-86 0 -106 -33
q-13 -20 -17 -71t-4 -365v-307q0 -308 6 -364t21 -74q25 -30 145 -31q29 0 28 -19q0 -18 -35 -18l-290 6l-236 -6q-35 0 -35 18z" />
    <glyph glyph-name="sterling.fitted" unicode="&#xe005;" horiz-adv-x="1241" 
d="M978 -10l-517 10h-414q-61 0 -61 25t61 41q109 24 158 136t74 314l26 221h-145l-45 -4q-12 0 -6 25l20 59q4 14 31 14h157l17 109q55 365 223 504q88 76 170 102t182 25q100 1 155 -15t87 -20q20 -2 20 -43q0 -272 -36 -270q-20 0 -21 32q-14 228 -237 228
q-111 0 -188 -93t-103 -280l-39 -276h258l90 8q23 0 14 -21l-24 -69q-6 -17 -51 -17h-299l-11 -92q-12 -109 -65 -246t-160 -225l4 -14l518 6q154 2 215 39t78 135q6 25 23 24q18 0 18 -34t-11 -134q-10 -102 -22 -146t-31 -51t-113 -7z" />
    <glyph glyph-name="sterling.oldstyle" unicode="&#xe006;" horiz-adv-x="1179" 
d="M152 725h149l16 92q27 145 70 235t134 166q91 78 170 102q169 52 349 -1q23 -6 54 -10q18 -2 18 -39q0 -160 -14 -232q-4 -27 -21 -26q-18 0 -18 30q-14 218 -225 218q-205 0 -277 -355l-37 -178h244l86 6q23 0 14 -18l-24 -66q-6 -16 -47 -16h-285l-10 -88
q-27 -225 -213 -381l4 -14l491 6q145 2 204 37q58 35 75 129q4 23 20 22q19 0 19 -31t-12 -128t-21 -140t-29 -49t-98 -6l-211 6q-147 4 -289 4h-393q-59 0 -59 23t56 37t93 46q65 58 98 219q12 54 31 158l27 152h-139l-43 -4q-12 0 -7 22l21 58q4 14 29 14z" />
    <glyph glyph-name="yen.fitted" unicode="&#xe007;" horiz-adv-x="1310" 
d="M1092 684q20 0 16 -20l-14 -62q-4 -16 -27 -16h-313v-248q0 -147 2 -193q2 -92 94 -106q43 -6 87 -6q44 1 44 -19t-29 -20l-305 6l-299 -6q-31 0 -31 19t27 20q61 0 105 6q94 14 96 106q2 45 2 193v248h-332q-16 0 -12 16l18 70q4 12 23 12h291q-12 25 -371 649
q-60 109 -118 140t-95 31t-37 18q0 20 35 20l225 -6l219 6q29 0 29 -18t-37 -24t-37 -38q0 -20 18 -57t165 -310q148 -273 165 -309q43 76 156 295q114 219 138 273t24 104q0 29 -42 40t-42 24q0 20 28 20l183 -6l207 6q33 0 32 -18q0 -20 -30 -21q-59 0 -95 -18
q-41 -16 -96 -89t-195 -329t-202 -383h330z" />
    <glyph glyph-name="space_uni0326" unicode="&#xf6c3;" horiz-adv-x="1898" 
d="M973 -106q12 0 19 -8t36 -54q29 -45 29 -76t-23 -84q-61 -145 -139 -233q-25 -21 -35 -21t-10 19l14 28q51 88 51 159t-55 121q-18 17 -18 26q0 45 44 84t87 39z" />
    <glyph glyph-name="Lslash.sc" unicode="&#xf6f9;" horiz-adv-x="1130" 
d="M670 1276q-91 0 -112 -33q-13 -20 -17 -71t-4 -365v-43l239 113q23 12 29 -5l22 -63q6 -16 -12 -25l-278 -129v-155q0 -195 6 -270t32 -97q43 -37 195 -37t195 12t71 42q28 28 33 80t23 51q18 0 18 -33t-8 -105q-8 -73 -18 -105t-29 -40q-18 -8 -86 -8l-566 10l-227 -6
q-35 0 -35 18t34 18t58 7q43 10 53 88t9 360v74l-150 -78q-14 -4 -18 8l-29 66q-4 10 4 14l193 95v143q0 313 -2 363q-3 50 -19 69q-34 37 -120 37q-31 0 -31 17t39 18l250 -4l252 4q37 0 36 -17q0 -18 -30 -18z" />
    <glyph glyph-name="OE.sc" unicode="&#xf6fa;" horiz-adv-x="2185" 
d="M793 1241q-185 0 -309 -133q-124 -132 -124 -416t154 -453t379 -169q182 0 308 134t126 399t-149 452q-150 186 -385 186zM1848 -10l-447 10l-62 -6q-16 0 -16 8t3 42t3 124q-207 -197 -528 -197q-179 -1 -319 61t-221 164q-163 206 -163 463t167 456q83 99 224 159
t325 61q184 0 304 -55q119 -55 207 -156h4q0 115 -2 136l-2 34q0 16 16 17l89 -4h481q39 0 76 10l28 8q12 0 13 -16q0 -4 -5 -21t-10 -94q-4 -76 -10 -108t-21 -31q-16 0 -16 43t-26 71t-87 34q-61 7 -297 7q-12 0 -12 -16v-428q0 -18 12 -18q230 0 306 4t96 26t31 21
q10 1 10 -11t-11 -108q-12 -96 -12 -138t-17 -42t-17 18t-7 60q-18 59 -100 67q-49 6 -279 6q-12 0 -12 -16v-395q2 -90 52 -119t180 -29t176 21q63 29 80 129q6 27 20 26q18 0 19 -41q0 -109 -25 -192q-8 -33 -24 -39q-18 -6 -174 -6z" />
    <glyph glyph-name="Scaron.sc" unicode="&#xf6fd;" horiz-adv-x="1105" 
d="M607 1450q-11 0 -42 23q-39 35 -243 184q-29 19 -29 29t10 20l59 59q14 15 24 15t47 -36q36 -36 109 -93q72 -57 86 -57t76 36q62 38 130 94t84 56t16 -16t-18 -34q-288 -280 -309 -280zM907 1020q-18 0 -18 45t-47 100q-68 82 -186 82t-189 -50q-72 -51 -72 -125
t38 -126t153 -115l73 -40q170 -93 241 -195t71 -227q0 -199 -180 -326q-101 -72 -298 -72t-296 45q-23 10 -29 20t-6 70q0 58 10 201q0 45 23 45q18 0 18 -34t16 -85q27 -90 109 -131t188 -41q106 -1 172 63q68 64 68 146t-35 138q-35 57 -143 120l-105 62q-156 90 -219 183
t-63 212q0 156 131 253q132 97 300 97t279 -28q25 -6 25 -23l-6 -209q0 -55 -23 -55z" />
    <glyph glyph-name="Zcaron.sc" unicode="&#xf6ff;" horiz-adv-x="1280" 
d="M675 1450q-11 0 -42 23q-39 35 -244 184q-29 19 -29 29t11 20l59 59q14 15 24 15t44 -34q33 -34 109 -93q75 -59 89 -59t76 36q62 38 130 94t84 56q15 0 15 -16t-17 -34q-95 -95 -271 -255q-27 -25 -38 -25zM102 17q0 17 23 53q432 651 758 1134h-340q-199 0 -248 -26
t-75 -65q-26 -38 -31 -71t-21 -32q-18 0 -18 44t36 236q2 33 21 33q6 0 36 -8t367 -8h555q31 1 31 -13t-10 -34q-307 -482 -774 -1156h432q227 0 278 91q25 45 32 77q8 32 24 31q16 1 16 -71t-35 -195q-14 -45 -55 -45l-971 8q-31 0 -31 17z" />
    <glyph glyph-name="exclam.sc" unicode="&#xf721;" horiz-adv-x="655" 
d="M324 336q-25 0 -31 74q-39 461 -51 557q-22 324 -53 397q-7 18 -7 30t11 27q63 80 184 129q45 20 78 21q18 0 18 -27q0 -6 -13 -95t-58 -554q-44 -465 -48 -494q-5 -65 -30 -65zM326 -35q-53 0 -82 35t-29 79t30 81t82 37t85 -30q32 -30 32 -80t-32 -86t-86 -36z" />
    <glyph glyph-name="ampersand.sc" unicode="&#xf726;" horiz-adv-x="1445" 
d="M913 193q-372 325 -479 493q-56 -41 -76 -87t-25 -98t-16 -73q-1 -158 93 -248t244 -90t259 103zM1595 10q0 -16 -53 -16h-133q-157 0 -227 20t-178 103q-156 -145 -418 -146q-132 0 -232 38q-100 39 -152 99q-102 119 -102 251t91 250t188 165q-86 117 -89 239t108 222
q112 100 321 100q117 0 211 -37q29 -12 28 -45q0 -102 -18 -223q-4 -29 -18 -29t-15 33q0 86 -53 149t-190 62q-68 0 -118 -44t-50 -143t48 -168q48 -68 68 -94t82 -92t91 -98q30 -34 142 -144t142 -136q82 115 82 254q0 50 -31 78t-68 28t-36 14q0 16 28 17q90 0 209 -12
q59 -8 60 -35q0 -209 -164 -404q162 -133 218 -167q55 -34 115 -53q60 -20 86 -20t27 -16z" />
    <glyph glyph-name="zero.oldstyle" unicode="&#xf730;" horiz-adv-x="1292" 
d="M340 684q0 -358 138 -541q77 -100 199 -100t199 156q76 156 76 414t-76 446q-38 94 -105 150t-150 57q-129 0 -205 -154t-76 -428zM1186 696q0 -444 -245 -633q-129 -98 -293 -98q-164 -1 -273 63t-164 166q-105 196 -105 424q0 324 140 524t416 199q150 0 258 -62
q108 -61 164 -163q102 -190 102 -420z" />
    <glyph glyph-name="one.oldstyle" unicode="&#xf731;" horiz-adv-x="917" 
d="M97 1012q-17 0 -17 16t23 28q23 11 446 263q37 23 51 22q20 0 20 -29q0 -30 -2 -82q-8 -112 -8 -374v-336q0 -308 6 -368t22 -80q30 -39 187 -39q15 -1 15 -20t-31 -19l-324 6l-333 -6q-31 0 -31 19t14 20q185 0 214 41q15 20 21 78t7 368v291l-2 225q0 37 -4 50
q-8 26 -70 4q-61 -22 -124 -50t-80 -28z" />
    <glyph glyph-name="two.oldstyle" unicode="&#xf732;" horiz-adv-x="1120" 
d="M1020 322q0 -28 -22 -126t-34 -138t-44 -49q-31 -9 -125 -9h-764q-27 0 -27 25q0 14 39 45q355 256 506 460q61 84 105 192t44 208q0 198 -96 267q-78 58 -166 58q-139 0 -207 -57q-33 -29 -57 -80t-25 -84q0 -33 -24 -33q-14 0 -19 31q-10 82 -10 211q0 20 23 35
q147 63 371 63t349 -102q124 -102 124 -264q1 -97 -45 -197t-104 -176t-158 -165t-165 -139q-66 -50 -165 -122q-20 -12 2 -12h98q244 0 334 10q188 20 223 150q8 27 23 26q16 0 16 -28z" />
    <glyph glyph-name="three.oldstyle" unicode="&#xf733;" horiz-adv-x="1136" 
d="M106 305q18 0 19 -24q0 -92 76 -158q77 -66 223 -66t242 73t96 220q0 82 -36 147q-78 142 -286 185q-63 10 -63 31q0 16 37 23q37 6 83 26t96 56t83 94t33 131q-1 73 -61 141t-184 68t-202 -53q-78 -52 -78 -128q0 -27 -15 -27t-17 25q-14 96 -15 176q0 20 29 33
q156 63 316 63q160 1 253 -27q148 -43 203 -157q18 -39 18 -76q0 -77 -58 -151q-102 -129 -230 -168v-4q124 -25 237 -110t113 -234q0 -190 -171 -320t-448 -129q-213 0 -295 41q-33 14 -32 49q0 250 34 250z" />
    <glyph glyph-name="four.oldstyle" unicode="&#xf734;" horiz-adv-x="1308" 
d="M760 479v541h-4q-12 -14 -243 -259t-261 -282h508zM557 13q0 19 14 20q61 0 103 5t59 31q19 27 23 73t4 202h-664q-49 0 -49 27q1 21 15 35t418 454t415 449q29 33 51 33t23 -31l-2 -97v-735h149q31 0 60 8t30 9q19 -1 19 -21q-1 -12 -13 -51q-12 -40 -24 -60t-49 -20
h-172q0 -150 6 -200t21 -74q16 -24 52 -30q36 -7 97 -7q16 1 16 -19t-31 -20l-274 6l-266 -6q-31 0 -31 19z" />
    <glyph glyph-name="five.oldstyle" unicode="&#xf735;" horiz-adv-x="1120" 
d="M918 1315q20 0 20 -31q0 -96 -25 -231q-4 -23 -21 -23q-18 0 -18 28t-8 45t-48 33t-113 15h-355l-26 -205q236 -32 431 -147q97 -57 157 -147t59 -199q0 -195 -165 -341t-478 -147q-117 0 -185 31q-37 16 -37 67q0 173 8 213t21 39q18 0 19 -30q0 -127 72 -173t198 -46
q127 0 218 74t91 233q0 79 -36 147q-63 117 -199 185q-137 67 -250 81q-37 4 -35 35l43 461q2 25 37 25h477q63 0 109 4l32 4h7z" />
    <glyph glyph-name="six.oldstyle" unicode="&#xf736;" horiz-adv-x="1234" 
d="M1133 416q1 -201 -147 -326t-371 -125t-368 134t-145 381t206 492t521 359q31 10 49 10t17 -14q0 -14 -49 -39q-197 -100 -344 -316t-148 -505q0 -168 76 -294t215 -126q109 0 175 73q66 72 67 230q0 158 -81 248t-190 90q-47 0 -94 -11t-49 -11q-16 0 -16 15t22 28
q106 66 252 65q190 0 296 -112t106 -246z" />
    <glyph glyph-name="seven.oldstyle" unicode="&#xf737;" horiz-adv-x="1042" 
d="M1053 1290q0 -16 -15 -30q-121 -154 -296 -554t-197 -569v-67q0 -27 -90 -66t-156 -39q-27 0 -27 21q0 92 199 483t383 668h-500q-129 0 -183 -33t-65 -94q-4 -23 -19 -23t-15 32t14 155t14 124q0 23 21 23q2 0 44 -7t218 -7h623q47 -1 47 -17z" />
    <glyph glyph-name="eight.oldstyle" unicode="&#xf738;" horiz-adv-x="1249" 
d="M342 317q0 -117 83 -195t201 -77q118 -1 196 71t79 195q0 123 -94 198t-236 146q-229 -117 -229 -338zM852 1070q0 78 -61 138t-165 60t-164 -65t-60 -147t60 -144q62 -62 200 -130q55 19 115 77q75 70 75 211zM1126 352q0 -162 -139 -274t-367 -113q-228 0 -363 90
q-134 89 -134 237t101 250t257 156q-283 129 -282 322q0 121 117 221q118 100 320 100q202 -1 313 -73q110 -72 110 -196t-90 -208t-197 -121q248 -113 321 -249q33 -66 33 -142z" />
    <glyph glyph-name="nine.oldstyle" unicode="&#xf739;" horiz-adv-x="1202" 
d="M1087 862q0 -139 -52 -271q-52 -133 -130 -229t-179 -180q-180 -150 -357 -221q-13 -8 -33 -8t-21 18q0 14 23 29q177 99 326 292q78 101 127 238t49 283q0 217 -85 332t-197 115t-174 -74q-64 -74 -64 -178t29 -174q30 -70 74 -104q85 -66 158 -66q87 0 132 25t47 -1
q0 -10 -8 -18q-86 -80 -268 -80t-286 106q-103 106 -104 236q0 178 139 294t365 116t358 -137q131 -136 131 -343z" />
    <glyph glyph-name="question.sc" unicode="&#xf73f;" horiz-adv-x="1089" 
d="M473 -35q-53 0 -82 35t-29 79t30 81t82 37t85 -30t33 -80t-33 -86t-86 -36zM513 1571q225 0 329 -95t104 -212q0 -155 -78 -266t-159 -197q-81 -85 -111 -121q-104 -123 -104 -181q0 -57 24 -93t25 -48q0 -16 -21 -16q-22 0 -108 69t-86 121t30 92t76 95q153 179 202 292
q48 113 48 215t-58 179q-58 76 -188 76t-194 -83t-70 -167q-4 -41 -18 -41t-22 33t-7 233q0 18 23 33q137 82 363 82z" />
    <glyph glyph-name="A.sc" unicode="&#xf761;" 
d="M410 530h348q12 0 8 11l-170 436q-6 16 -9 16t-9 -16l-175 -434q-5 -13 7 -13zM1366 31q27 -1 27 -19t-78 -18q-195 0 -346 4q-53 4 -54 14q0 16 23 19q10 2 16 13t0 26l-139 352q-4 12 -18 12h-424q-12 0 -17 -12l-96 -236q-27 -61 -27 -108t72 -47h27q27 0 26 -19
q0 -18 -28 -18l-201 6l-209 -6q-33 0 -33 18t21 19l53 2q57 8 88 44t62 109l471 1088q29 70 53 69q18 0 32 -17t224 -506q209 -490 256 -597q76 -172 153 -186q39 -6 66 -6z" />
    <glyph glyph-name="B.sc" unicode="&#xf762;" horiz-adv-x="1310" 
d="M528 662v-396q0 -90 12 -123q24 -69 181 -69q88 0 155 57t66 188q0 76 -39 162t-131 148q-61 45 -156 45h-77q-11 0 -11 -12zM528 1198v-420q0 -14 13 -18q25 -6 105 -6t120 30q82 63 82 174t-58 192t-167 81q-59 0 -78 -4q-17 -2 -17 -29zM178 -6q-37 0 -37 18t34 18
t58 7q43 10 53 88t9 375v307q0 313 -2 363q-3 50 -19 69q-34 37 -131 37q-31 0 -30 18q0 16 41 17l243 -4l271 4q298 0 367 -179q15 -40 16 -81q0 -176 -203 -306q131 -41 231 -139q101 -98 101 -244t-123 -260q-123 -113 -357 -112l-297 10l-102 -2q-86 -4 -123 -4z" />
    <glyph glyph-name="C.sc" unicode="&#xf763;" horiz-adv-x="1443" 
d="M942 -29q-393 1 -618 189t-226 514q0 115 48 245t163 232q211 184 572 184q146 0 279 -21q132 -20 161 -24t29 -22q0 -6 -1 -16l-3 -32q-11 -121 -11 -237q-4 -43 -23 -43t-20 37q-4 96 -69 162q-106 102 -340 102t-348 -98q-166 -143 -166 -453q0 -147 53 -268
q96 -219 317 -304q96 -38 208 -38q111 0 181 17t121 75t59 104q8 48 27 48t19 -26t-14 -112t-24 -124q-11 -38 -48 -52q-97 -39 -326 -39z" />
    <glyph glyph-name="D.sc" unicode="&#xf764;" horiz-adv-x="1701" 
d="M537 834v-220q0 -282 4 -368t20 -107q47 -70 236 -69q251 0 399 122t147 429q0 153 -49 263t-118 171q-186 166 -504 166q-90 0 -111 -13q-23 -8 -23 -50t-1 -324zM178 -6q-37 0 -37 18t34 18t58 7q43 10 53 88t9 375v307q0 313 -2 363q-3 50 -19 69q-34 37 -131 37
q-31 0 -30 18q0 16 41 17l260 -4l293 4q394 0 566 -85q89 -44 159 -114q170 -170 170 -452t-197 -476q-79 -80 -231 -142t-373 -62l-398 20l-102 -2q-86 -4 -123 -4z" />
    <glyph glyph-name="E.sc" unicode="&#xf765;" horiz-adv-x="1179" 
d="M178 -6q-37 0 -37 18t34 18t58 7q43 10 53 88t9 375v307q0 313 -2 363q-3 50 -19 69q-34 37 -131 37q-31 0 -30 18q0 16 41 17l260 -4h491q8 0 76 10l29 8q12 0 12 -16q0 -4 -5 -23t-9 -99q-5 -80 -11 -107q-6 -28 -20 -27t-14 31q-1 30 -13 57t-35 41t-84 21t-282 7
q-12 0 -12 -16v-430q0 -18 12 -19q275 -1 329 5t72 26q27 23 29 23q14 0 14 -19q0 -4 -11 -100t-11 -140q1 -42 -17 -42t-18 22t-6 55q-18 59 -92 67t-291 9q-10 0 -10 -18v-397q2 -88 52 -117t180 -29t185 25t74 127q6 27 21 26q16 0 16 -41q0 -109 -25 -192
q-8 -33 -24 -39t-72 -6l-541 10l-102 -2q-86 -4 -123 -4z" />
    <glyph glyph-name="F.sc" unicode="&#xf766;" horiz-adv-x="1161" 
d="M1028 1325q12 0 12 -12t-11 -59t-11 -164q-4 -35 -19 -35q-23 1 -23 37t-9 57q-25 51 -115 53l-299 6q-16 0 -16 -24v-422q0 -16 12 -17l252 3q55 0 96 3t61 29q18 18 25 19q10 -1 10 -11q0 -12 -10 -82t-10 -163q0 -39 -21 -39q-16 0 -16 24t-12 54q-20 59 -87 64
t-288 5q-12 0 -12 -14v-143q0 -272 8 -340t22 -90q22 -33 140 -33q31 0 30 -19q0 -18 -39 -18l-288 6l-230 -6q-37 0 -37 18t33 18t57 7q43 10 53 88t9 375v307q0 313 -3 363q-2 50 -18 70q-29 36 -131 36q-31 0 -30 18q0 16 43 17l258 -4h512q51 4 73 8z" />
    <glyph glyph-name="G.sc" unicode="&#xf767;" horiz-adv-x="1603" 
d="M1538 630q0 -18 -20 -18t-52 -6q-68 -10 -69 -94q-2 -53 -2 -209v-192q0 -37 -3 -45t-20 -17q-158 -78 -414 -78t-440 68q-182 67 -301 225t-119 372t89 360q208 341 712 339q190 0 320 -28q98 -17 133 -19t34 -20q0 -2 -6 -58t-6 -229q0 -39 -24 -39q-14 0 -19 23
q-10 88 -60 141q-51 53 -153 94t-204 41t-144 -4q-43 -4 -113 -28t-127 -70q-166 -135 -166 -422t172 -468q171 -181 455 -181q84 0 123 17t39 62v160q0 152 -2 200t-18 67q-32 38 -129 38q-29 0 -29 18t39 17l276 -4l211 4q37 0 37 -17z" />
    <glyph glyph-name="H.sc" unicode="&#xf768;" horiz-adv-x="1775" 
d="M692 1294q0 -18 -26 -18q-87 0 -108 -33q-13 -20 -17 -71t-4 -379v-37q0 -13 12 -13h680q10 0 10 13v37q0 272 -3 350t-19 96q-33 37 -130 37q-31 0 -30 18q0 16 39 17l270 -4l231 4q39 1 39 -17t-26 -18q-88 0 -108 -33q-13 -20 -17 -71t-4 -365v-307q0 -296 7 -356
t20 -80q21 -33 145 -33q29 0 28 -19q0 -18 -36 -18l-285 6l-238 -6q-39 0 -39 18t35 18t60 7q43 10 52 88t9 371v133q0 10 -10 10h-680q-12 0 -12 -10v-133q0 -274 8 -343t21 -89q21 -33 143 -33q29 0 28 -19q0 -18 -37 -18l-292 6l-232 -6q-35 0 -35 18t34 18t58 7
q43 10 53 88t9 375v307q0 313 -2 363q-3 50 -19 69q-34 37 -131 37q-31 0 -30 18q0 16 39 17l264 -4l239 4q37 1 37 -17z" />
    <glyph glyph-name="I.sc" unicode="&#xf769;" horiz-adv-x="833" 
d="M141 12q0 18 34 18t58 7q45 10 53 83t9 380v307q0 313 -2 363q-3 50 -17 68q-29 38 -110 38q-29 0 -29 20q0 14 43 15l242 -4l231 4q37 0 37 -15q0 -20 -26 -20q-86 0 -106 -33q-13 -20 -17 -71t-4 -365v-307q0 -308 6 -364t21 -74q25 -30 145 -31q29 0 28 -19
q0 -18 -35 -18l-290 6l-236 -6q-35 0 -35 18z" />
    <glyph glyph-name="J.sc" unicode="&#xf76a;" horiz-adv-x="763" 
d="M35 -438q0 12 38 30t87 68q94 92 114 218q21 126 21 429v500q0 313 -2 363q-3 50 -19 69q-34 37 -131 37q-31 0 -30 18q0 16 41 17l272 -4l229 4q37 1 37 -17t-26 -18q-87 0 -108 -33q-13 -20 -17 -71t-4 -365v-324l6 -245q0 -193 -43 -308q-80 -218 -414 -376
q-16 -8 -34 -8t-17 16z" />
    <glyph glyph-name="K.sc" unicode="&#xf76b;" horiz-adv-x="1402" 
d="M676 1294q0 -18 -20 -18q-85 0 -106 -33q-12 -19 -16 -71t-4 -365v-78h9q27 29 187 190q161 161 189 193q90 100 91 129q0 29 -25 35t-25 20t29 15l186 -4l211 4q31 1 31 -17t-38 -18q-124 0 -283 -150q-303 -283 -381 -370q43 -57 234 -258q191 -200 226 -232t82 -76
t90 -79q102 -82 211 -80q25 -1 25 -19t-43 -18h-158q-86 0 -140 5q-99 9 -218 112q-53 45 -240 259q-186 214 -223 263l-18 24h-9v-157q0 -297 6 -375t64 -88q37 -6 75 -6q38 -1 38 -19t-35 -18l-275 6l-227 -6q-35 0 -35 18t34 18t58 7q43 10 53 88t9 375v307q0 313 -2 363
q-3 50 -19 69q-34 37 -131 37q-31 0 -30 18q0 16 41 17l252 -4l231 4q39 1 39 -17z" />
    <glyph glyph-name="L.sc" unicode="&#xf76c;" horiz-adv-x="1130" 
d="M711 1294q0 -18 -36 -18q-97 0 -117 -33q-13 -19 -17 -71t-4 -365v-307q0 -195 6 -270t32 -97q43 -37 240 -37q86 0 133 8t81 43t42 103q4 27 21 26q16 0 16 -30t-8 -103t-18 -105t-29 -40q-18 -8 -86 -8l-564 10l-227 -6q-35 0 -35 18t34 18t58 7q43 10 53 88t9 375v307
q0 313 -2 363q-3 50 -19 69q-34 37 -118 37q-31 0 -31 17t39 18l248 -4l260 4q39 1 39 -17z" />
    <glyph glyph-name="M.sc" unicode="&#xf76d;" horiz-adv-x="1890" 
d="M324 90q0 -59 122 -59q26 -1 25 -19q0 -18 -43 -18l-190 6l-179 -6q-33 0 -32 20q-1 16 27 16t57 5q55 6 73 133l178 1128q6 45 34 45t57 -55l483 -962l483 974q23 43 47 43q12 0 24 -14t17 -41l164 -1071q13 -86 31 -123q32 -65 160 -65q29 0 28 -17q0 -20 -47 -20
q-193 0 -373 10q-53 2 -53 20q1 12 19 18t10 75l-100 751h-7l-387 -770q-31 -62 -44 -80t-27 -18q-25 0 -72 88q-185 346 -199 378t-45 94l-76 152t-67 136h-6l-86 -672q-6 -47 -6 -82z" />
    <glyph glyph-name="N.sc" unicode="&#xf76e;" horiz-adv-x="1722" 
d="M1616 1294q0 -18 -32 -18t-62 -8t-42 -38q-13 -30 -16 -104l-20 -1097q0 -55 -29 -56q-37 0 -74 37q-488 456 -648 621t-224 233q-63 68 -76 78h-6l21 -711q4 -168 61 -188q37 -12 81 -12q44 -1 44 -19t-41 -18l-234 6l-194 -6q-41 0 -41 18t39 18t73 9q34 8 43 50
t11 161l16 1032q0 59 31 59q20 0 78 -57l59 -59q195 -202 371 -374q176 -173 269 -267t164 -165l81 -81h8l-18 774q-1 78 -15 110t-44 43t-97 11q-29 0 -29 17t45 18l230 -4l176 4q41 1 41 -17z" />
    <glyph glyph-name="O.sc" unicode="&#xf76f;" horiz-adv-x="1693" 
d="M909 66q108 0 184 44t121 100t77 162t32 249q1 283 -149 453t-373 169q-168 0 -292 -105q-67 -56 -106 -167t-38 -264q0 -277 147 -459t397 -182zM836 -29q-188 1 -334 63t-232 164q-172 204 -172 455q0 198 110 369q126 195 358 270q130 43 288 43q340 0 539 -176
t199 -479t-208 -506q-206 -203 -548 -203z" />
    <glyph glyph-name="P.sc" unicode="&#xf770;" horiz-adv-x="1220" 
d="M141 12q0 18 34 18t58 7q43 10 53 88t9 375v307q0 313 -2 363q-3 50 -19 69q-34 37 -131 37q-31 0 -30 18q0 16 41 17l260 -4l299 4q221 0 336 -99q90 -86 90 -208q0 -182 -130 -302t-323 -120q-45 0 -53 2q-23 0 -23 18q0 23 72 23q72 1 151 79t78 203q0 166 -106 258
q-76 66 -180 66q-55 0 -78 -8q-14 -6 -15 -33v-690q0 -296 8 -356t20 -80q21 -33 142 -33q29 -1 29 -19t-33 -18l-295 6l-227 -6q-35 0 -35 18z" />
    <glyph glyph-name="Q.sc" unicode="&#xf771;" horiz-adv-x="1691" 
d="M907 66q116 0 190 44t116 102t72 166t30 251q0 293 -153 453q-152 160 -352 161q-200 0 -322 -130t-122 -420t156 -459q156 -168 385 -168zM824 -29q-178 1 -326 63t-232 166q-168 206 -168 452t174 452q86 102 236 167t338 64q328 0 534 -179t205 -480q0 -203 -97 -348
t-212 -224l354 -172q426 -207 737 -206q205 0 353 55q20 8 26 8q16 0 17 -16q0 -10 -23 -23q-291 -137 -577 -137q-207 0 -374 51t-390 184l-281 166q-116 -43 -294 -43z" />
    <glyph glyph-name="R.sc" unicode="&#xf772;" horiz-adv-x="1404" 
d="M524 1190v-518q0 -23 17 -31q51 -16 138 -16t126 28q117 82 117 252t-86 243t-176 73t-119 -7q-17 -6 -17 -24zM141 12q0 18 34 18t58 7q43 10 53 88t9 375v307q0 313 -2 363q-3 50 -19 69q-34 37 -131 37q-31 0 -30 18q0 16 41 17l245 -4l281 4q229 0 342 -74
q47 -33 87 -96t40 -151q0 -175 -250 -378q293 -360 403 -470t228 -111q23 0 22 -19q0 -18 -34 -18h-172q-128 0 -190 31t-136 111t-175 227t-112 159q-12 12 -33 13l-161 4q-14 0 -15 -15v-24q0 -280 8 -348t21 -88q19 -32 139 -33q23 -1 23 -19t-37 -18l-281 6l-221 -6
q-35 0 -35 18z" />
    <glyph glyph-name="S.sc" unicode="&#xf773;" horiz-adv-x="1105" 
d="M907 1020q-18 0 -18 45t-47 100q-68 82 -186 82t-189 -50q-72 -51 -72 -125t38 -126t153 -115l73 -40q170 -93 241 -195t71 -227q0 -199 -180 -326q-101 -72 -298 -72t-296 45q-23 10 -29 20t-6 70q0 58 10 201q0 45 23 45q18 0 18 -34t16 -85q27 -90 109 -131t188 -41
q106 -1 172 63q68 64 68 146t-35 138q-35 57 -143 120l-105 62q-156 90 -219 183t-63 212q0 156 131 253q132 97 300 97t279 -28q25 -6 25 -23l-6 -209q0 -55 -23 -55z" />
    <glyph glyph-name="T.sc" unicode="&#xf774;" horiz-adv-x="1296" 
d="M381 12q0 18 35 18t57 7q43 10 53 88t9 375v704l-269 -6q-139 -2 -174 -53q-20 -27 -28 -55t-23 -27q-16 0 -16 39t38 201q6 33 21 32q6 0 48 -14t210 -14h731q75 0 122 8t50 8q14 0 15 -37l-5 -211q-4 -29 -16 -28q-18 0 -20 34l-2 19q-3 42 -53 70t-160 30l-228 4v-704
q0 -280 8 -348t22 -88q21 -32 142 -33q29 -1 29 -19t-35 -18l-291 6l-235 -6q-35 0 -35 18z" />
    <glyph glyph-name="U.sc" unicode="&#xf775;" horiz-adv-x="1556" 
d="M1499 1294q1 -18 -25 -18q-86 0 -107 -33q-13 -20 -17 -67q-4 -111 -4 -369v-186q0 -177 -35 -309t-137 -216q-150 -125 -404 -125q-554 0 -553 580v256q0 340 -2 377t-18 55q-33 37 -129 37q-31 0 -31 17t39 18l270 -4l232 4q39 0 38 -17q0 -18 -23 -18q-85 0 -107 -33
q-13 -20 -17 -71t-4 -365v-244q0 -180 33 -273q32 -93 112 -156q80 -62 223 -62t238 92q68 62 86 160t19 264v219q0 258 -5 369q-4 45 -18 63q-29 37 -123 37q-31 0 -31 17t32 17t63 1l143 -4h14l211 4q37 1 37 -17z" />
    <glyph glyph-name="V.sc" unicode="&#xf776;" horiz-adv-x="1304" 
d="M1407 1294q0 -18 -44 -18t-79 -26t-88 -148q-17 -34 -195 -425q-177 -390 -233 -518t-76 -158t-38 -30t-33 21q-14 21 -41 84l-455 1065q-29 69 -55 93q-47 42 -148 42q-20 0 -20 17t45 18l262 -4l229 4q43 1 43 -17q-1 -18 -41 -18q-76 0 -75 -47q0 -29 41 -131
l303 -781h6q238 549 352 857q16 45 16 63q0 39 -96 39q-31 0 -31 17t52 18l192 -4l170 4q37 1 37 -17z" />
    <glyph glyph-name="W.sc" unicode="&#xf777;" horiz-adv-x="1955" 
d="M1977 1311q34 0 34 -15q-1 -20 -31 -20t-63 -11t-72 -120l-14 -35l-8 -25q-59 -153 -216 -617t-168 -480t-29 -16t-32 16q-12 18 -32 67l-367 858h-4q-8 -18 -159 -396t-183 -444q-31 -67 -43 -84t-31 -18q-26 1 -49 64l-381 1106q-37 103 -60 119t-63 16t-39 17
q0 17 41 18l209 -4l209 4q39 1 39 -17t-30 -18t-48 -7t-18 -45q-1 -38 117 -418t143 -454h6l344 889q25 63 53 64q27 0 60 -82l360 -858h6q59 182 135 434q75 251 97 319t22 109q0 49 -88 49q-31 0 -31 17t43 18l193 -4l57 2q57 2 91 2z" />
    <glyph glyph-name="X.sc" unicode="&#xf778;" horiz-adv-x="1300" 
d="M1280 1294q0 -18 -27 -18q-82 0 -120 -44q-25 -27 -76 -99l-299 -408q18 -27 188 -295t212 -319q65 -80 169 -80q23 -1 23 -19t-35 -18h-53q-186 0 -292 3t-106 19t25 22t6 38q-147 244 -285 467l-264 -410q-29 -47 -27 -74q4 -27 35 -26l39 -2q23 0 23 -21
q0 -16 -37 -16h-33l-74 2q-74 4 -100 4l-152 -6h-30q-27 0 -27 18t28 18q29 0 65 10q36 9 65 35t76 91l352 475l-318 496q-92 139 -221 139q-18 0 -18 20q0 14 37 15l274 -4l203 4q37 1 37 -17t-29 -18q-68 0 -68 -31q0 -18 41 -91t203 -339q200 289 232 343t32 83
q0 35 -88 35q-23 0 -22 18q0 16 39 17l188 -4l176 4q33 1 33 -17z" />
    <glyph glyph-name="Y.sc" unicode="&#xf779;" horiz-adv-x="1208" 
d="M336 12q0 18 34 18t58 7q49 10 55 88t6 178v143q0 96 -40 183q-8 20 -141 226q-132 205 -192 289t-103 108q-44 24 -75 24t-30 18q0 16 35 17l225 -4l205 4q27 0 26 -17q0 -10 -18 -16t-23 -6q-44 -11 -2 -86q16 -25 150 -255t149 -255q4 8 128 222t146 257
q53 104 -18 119q-33 8 -32 20q0 16 30 17l176 -4l193 4q33 0 33 -15q0 -20 -34 -20q-88 0 -173 -102q-43 -52 -184 -276t-165 -280t-24 -176v-139q0 -100 5 -178t73 -88q39 -6 80 -6q41 -1 41 -19t-39 -18l-283 6l-233 -6q-39 0 -39 18z" />
    <glyph glyph-name="Z.sc" unicode="&#xf77a;" horiz-adv-x="1280" 
d="M102 17q0 17 23 53q432 651 758 1134h-340q-199 0 -248 -26t-75 -65q-26 -38 -31 -71t-21 -32q-18 0 -18 44t36 236q2 33 21 33q6 0 36 -8t367 -8h555q31 1 31 -13t-10 -34q-307 -482 -774 -1156h432q227 0 278 91q25 45 32 77q8 32 24 31q16 1 16 -71t-35 -195
q-14 -45 -55 -45l-971 8q-31 0 -31 17z" />
    <glyph glyph-name="exclamdown.sc" unicode="&#xf7a1;" horiz-adv-x="655" 
d="M348 1325q53 0 82 -35t29 -79t-30 -81q-30 -36 -82 -36t-85 30t-33 79q0 50 33 86t86 36zM332 954q25 0 30 -73q39 -461 52 -557q21 -315 52 -398q7 -18 7 -29t-10 -28q-63 -80 -184 -129q-45 -20 -78 -21q-18 0 -19 27q0 6 12 91t18 135q5 50 45 469t45 466t30 47z" />
    <glyph glyph-name="questiondown.sc" unicode="&#xf7bf;" horiz-adv-x="1089" 
d="M608 1325q53 0 82 -35t29 -79t-30 -81q-30 -36 -82 -36t-85 30t-33 79q0 50 33 86t86 36zM577 -281q-225 -1 -329 95t-105 213q0 151 76 261t159 198t114 124q104 124 104 182t-33 103q-16 25 -16 39q1 14 21 14t107 -68t87 -121t-30 -93t-76 -95q-147 -170 -212 -314
q-38 -89 -38 -191t58 -180t187 -76q129 0 193 79q66 86 71 170q5 41 19 41t21 -32t8 -234q0 -18 -23 -33q-137 -82 -363 -82z" />
    <glyph glyph-name="Agrave.sc" unicode="&#xf7e0;" 
d="M410 530h348q12 0 8 11l-170 436q-6 16 -9 16t-9 -16l-175 -434q-5 -13 7 -13zM1366 31q27 -1 27 -19t-78 -18q-195 0 -346 4q-53 4 -54 14q0 16 23 19q10 2 16 13t0 26l-139 352q-4 12 -18 12h-424q-12 0 -17 -12l-96 -236q-27 -61 -27 -108t72 -47h27q27 0 26 -19
q0 -18 -28 -18l-201 6l-209 -6q-33 0 -33 18t21 19l53 2q57 8 88 44t62 109l471 1088q29 70 53 69q18 0 32 -17t224 -506q209 -490 256 -597q76 -172 153 -186q39 -6 66 -6zM799 1482q1 -12 -21 -12t-192 72t-232 100t-61 50q0 12 55 28q56 16 98 36q42 19 50 20t12 -12
q4 -12 21 -35t91 -93t108 -94t43 -30t19 -13q10 -6 9 -17z" />
    <glyph glyph-name="Aacute.sc" unicode="&#xf7e1;" 
d="M410 530h348q12 0 8 11l-170 436q-6 16 -9 16t-9 -16l-175 -434q-5 -13 7 -13zM1366 31q27 -1 27 -19t-78 -18q-195 0 -346 4q-53 4 -54 14q0 16 23 19q10 2 16 13t0 26l-139 352q-4 12 -18 12h-424q-12 0 -17 -12l-96 -236q-27 -61 -27 -108t72 -47h27q27 0 26 -19
q0 -18 -28 -18l-201 6l-209 -6q-33 0 -33 18t21 19l53 2q57 8 88 44t62 109l471 1088q29 70 53 69q18 0 32 -17t224 -506q209 -490 256 -597q76 -172 153 -186q39 -6 66 -6zM510 1480q0 23 158 145t188 141q30 20 44 20t32 -31t55 -117q16 -31 -10 -30l-37 2
q-138 0 -418 -140q-12 0 -12 10z" />
    <glyph glyph-name="Acircumflex.sc" unicode="&#xf7e2;" 
d="M410 530h348q12 0 8 11l-170 436q-6 16 -9 16t-9 -16l-175 -434q-5 -13 7 -13zM1366 31q27 -1 27 -19t-78 -18q-195 0 -346 4q-53 4 -54 14q0 16 23 19q10 2 16 13t0 26l-139 352q-4 12 -18 12h-424q-12 0 -17 -12l-96 -236q-27 -61 -27 -108t72 -47h27q27 0 26 -19
q0 -18 -28 -18l-201 6l-209 -6q-33 0 -33 18t21 19l53 2q57 8 88 44t62 109l471 1088q29 70 53 69q18 0 32 -17t224 -506q209 -490 256 -597q76 -172 153 -186q39 -6 66 -6zM654 1780q11 0 42 -23q39 -35 244 -184q29 -19 29 -29t-11 -20l-59 -60q-15 -14 -25 -14t-46 38
t-108 93t-84 55t-32 -10q-124 -72 -184 -124t-76 -52t-16 20q0 8 18 31q76 77 272 257q24 22 36 22z" />
    <glyph glyph-name="Atilde.sc" unicode="&#xf7e3;" 
d="M410 530h348q12 0 8 11l-170 436q-6 16 -9 16t-9 -16l-175 -434q-5 -13 7 -13zM1366 31q27 -1 27 -19t-78 -18q-195 0 -346 4q-53 4 -54 14q0 16 23 19q10 2 16 13t0 26l-139 352q-4 12 -18 12h-424q-12 0 -17 -12l-96 -236q-27 -61 -27 -108t72 -47h27q27 0 26 -19
q0 -18 -28 -18l-201 6l-209 -6q-33 0 -33 18t21 19l53 2q57 8 88 44t62 109l471 1088q29 70 53 69q18 0 32 -17t224 -506q209 -490 256 -597q76 -172 153 -186q39 -6 66 -6zM786 1470q-68 0 -164 52t-158 51q-62 0 -126 -74q-20 -20 -34 -20t-13 15q-1 15 25 54t83 90
q57 52 108 52t67 -6t25 -9q9 -2 25 -9t19 -10t21 -12t20 -12q80 -45 152 -45t120 62q20 27 33 26q31 0 5 -48q-26 -49 -83 -103t-125 -54z" />
    <glyph glyph-name="Adieresis.sc" unicode="&#xf7e4;" 
d="M410 530h348q12 0 8 11l-170 436q-6 16 -9 16t-9 -16l-175 -434q-5 -13 7 -13zM1366 31q27 -1 27 -19t-78 -18q-195 0 -346 4q-53 4 -54 14q0 16 23 19q10 2 16 13t0 26l-139 352q-4 12 -18 12h-424q-12 0 -17 -12l-96 -236q-27 -61 -27 -108t72 -47h27q27 0 26 -19
q0 -18 -28 -18l-201 6l-209 -6q-33 0 -33 18t21 19l53 2q57 8 88 44t62 109l471 1088q29 70 53 69q18 0 32 -17t224 -506q209 -490 256 -597q76 -172 153 -186q39 -6 66 -6zM429 1470q-44 0 -68 30q-23 30 -23 66t24 66t68 29q43 0 71 -24q27 -23 27 -65t-28 -72t-71 -30z
M861 1470q-43 0 -67 30t-24 66t25 66t67 31q42 0 71 -25q28 -24 28 -66t-28 -72t-72 -30z" />
    <glyph glyph-name="Aring.sc" unicode="&#xf7e5;" 
d="M410 530h348q12 0 8 11l-170 436q-6 16 -9 16t-9 -16l-175 -434q-5 -13 7 -13zM1366 31q27 -1 27 -19t-78 -18q-195 0 -346 4q-53 4 -54 14q0 16 23 19q10 2 16 13t0 26l-139 352q-4 12 -18 12h-424q-12 0 -17 -12l-96 -236q-27 -61 -27 -108t72 -47h27q27 0 26 -19
q0 -18 -28 -18l-201 6l-209 -6q-33 0 -33 18t21 19l53 2q57 8 88 44t62 109l471 1088q29 70 53 69q18 0 32 -17t224 -506q209 -490 256 -597q76 -172 153 -186q39 -6 66 -6zM762 1606q0 40 -28 68t-75 28t-85 -26t-37 -72q-1 -45 31 -74t77 -29t81 32t36 73zM608 1450
q-96 0 -146 35t-50 97t82 117q82 54 184 54t156 -33t53 -86q2 -80 -91 -132q-92 -52 -188 -52z" />
    <glyph glyph-name="AE.sc" unicode="&#xf7e6;" horiz-adv-x="1712" 
d="M848 690v436h-8q-156 -246 -260 -432q-10 -16 8 -16h243q17 0 17 12zM735 -6q-35 0 -35 18t31 18t55 7q42 10 52 88t10 367v83q0 14 -17 15h-299q-20 0 -28 -12t-91 -153t-98 -163q-78 -127 -77 -172q0 -59 122 -59q27 -1 27 -19t-35 -18l-266 6l-229 -6q-25 0 -25 18
t48 19t112 44q27 17 47 40t34 38q13 15 31 40t33 43t173 254t316 476q159 241 175 264t24 52t25 29l96 -4h492q6 0 78 10l28 8q10 0 10 -16l-14 -113q0 -63 -8 -115q-6 -27 -23 -26q-16 -1 -16 29t-10 58t-33 42t-76 20t-293 6q-12 0 -12 -16v-487q0 -18 12 -19q231 0 306 4
t98 25q18 23 29 23q12 0 12 -11q0 -10 -10 -97q-10 -86 -11 -138q0 -52 -18 -52t-19 15q-6 57 -8 63q-14 59 -96 68q-51 6 -285 6q-10 0 -10 -16v-349q0 -85 49 -111q48 -26 180 -26t179 21q66 29 82 129q2 27 18 26q18 0 18 -41q0 -96 -22 -192q-9 -33 -25 -39t-73 -6
l-539 10l-92 -2q-74 -4 -109 -4z" />
    <glyph glyph-name="Ccedilla.sc" unicode="&#xf7e7;" horiz-adv-x="1443" 
d="M1333 324q21 0 21 -26t-14 -112t-24 -124q-11 -38 -48 -52q-96 -39 -326 -39h-43l-154 -112q115 -9 179 -53t63 -118q0 -74 -90 -143q-90 -70 -287 -69q-35 0 -35 20q-1 27 55 27t113 39t58 98q0 125 -162 150q-45 6 -45 14t33 33l164 123q-287 29 -467 180
q-225 188 -226 514q0 115 48 245t163 232q211 184 572 184q146 0 279 -21q132 -20 161 -24t29 -22q0 -6 -1 -16l-3 -32q-11 -121 -11 -237q-4 -43 -23 -43t-20 37q-4 96 -69 162q-106 102 -340 102t-348 -98q-166 -143 -166 -453q0 -147 53 -268q96 -219 317 -304
q96 -38 208 -38q111 0 181 17t121 75t59 104q8 48 25 48z" />
    <glyph glyph-name="Egrave.sc" unicode="&#xf7e8;" horiz-adv-x="1179" 
d="M274 1692q0 12 56 28t97 36q42 19 50 20t11 -8q12 -35 99 -119q87 -83 121 -107q51 -36 62 -42q10 -6 10 -17q0 -13 -21 -13t-191 72t-232 100t-62 50zM178 -6q-37 0 -37 18t34 18t58 7q43 10 53 88t9 375v307q0 313 -2 363q-3 50 -19 69q-34 37 -131 37q-31 0 -30 18
q0 16 41 17l260 -4h491q8 0 76 10l29 8q12 0 12 -16q0 -4 -5 -23t-9 -99q-5 -80 -11 -107q-6 -28 -20 -27t-14 31q-1 30 -13 57t-35 41t-84 21t-282 7q-12 0 -12 -16v-430q0 -18 12 -19q275 -1 329 5t72 26q27 23 29 23q14 0 14 -19q0 -4 -11 -100t-11 -140q1 -42 -17 -42
t-18 22t-6 55q-18 59 -92 67t-291 9q-10 0 -10 -18v-397q2 -88 52 -117t180 -29t185 25t74 127q6 27 21 26q16 0 16 -41q0 -109 -25 -192q-8 -33 -24 -39t-72 -6l-541 10l-102 -2q-86 -4 -123 -4z" />
    <glyph glyph-name="Eacute.sc" unicode="&#xf7e9;" horiz-adv-x="1179" 
d="M453 1480q-1 23 157 145t188 141q30 20 44 20t32 -31t56 -117q16 -31 -10 -30h-70q-147 -19 -385 -138q-12 0 -12 10zM178 -6q-37 0 -37 18t34 18t58 7q43 10 53 88t9 375v307q0 313 -2 363q-3 50 -19 69q-34 37 -131 37q-31 0 -30 18q0 16 41 17l260 -4h491q8 0 76 10
l29 8q12 0 12 -16q0 -4 -5 -23t-9 -99q-5 -80 -11 -107q-6 -28 -20 -27t-14 31q-1 30 -13 57t-35 41t-84 21t-282 7q-12 0 -12 -16v-430q0 -18 12 -19q275 -1 329 5t72 26q27 23 29 23q14 0 14 -19q0 -4 -11 -100t-11 -140q1 -42 -17 -42t-18 22t-6 55q-18 59 -92 67t-291 9
q-10 0 -10 -18v-397q2 -88 52 -117t180 -29t185 25t74 127q6 27 21 26q16 0 16 -41q0 -109 -25 -192q-8 -33 -24 -39t-72 -6l-541 10l-102 -2q-86 -4 -123 -4z" />
    <glyph glyph-name="Ecircumflex.sc" unicode="&#xf7ea;" horiz-adv-x="1179" 
d="M597 1780q11 0 42 -23q39 -35 244 -184q29 -19 29 -29t-11 -20l-59 -60q-14 -14 -24 -14t-48 39q-37 39 -109 93q-71 54 -82 54t-32 -10q-125 -72 -185 -124t-75 -52q-16 0 -17 20q0 8 19 31q77 77 273 257q24 22 35 22zM178 -6q-37 0 -37 18t34 18t58 7q43 10 53 88
t9 375v307q0 313 -2 363q-3 50 -19 69q-34 37 -131 37q-31 0 -30 18q0 16 41 17l260 -4h491q8 0 76 10l29 8q12 0 12 -16q0 -4 -5 -23t-9 -99q-5 -80 -11 -107q-6 -28 -20 -27t-14 31q-1 30 -13 57t-35 41t-84 21t-282 7q-12 0 -12 -16v-430q0 -18 12 -19q275 -1 329 5
t72 26q27 23 29 23q14 0 14 -19q0 -4 -11 -100t-11 -140q1 -42 -17 -42t-18 22t-6 55q-18 59 -92 67t-291 9q-10 0 -10 -18v-397q2 -88 52 -117t180 -29t185 25t74 127q6 27 21 26q16 0 16 -41q0 -109 -25 -192q-8 -33 -24 -39t-72 -6l-541 10l-102 -2q-86 -4 -123 -4z" />
    </font>
</defs>
</svg>
