<?xml version="1.0" standalone="no"?>
<!DOCTYPE svg PUBLIC "-//W3C//DTD SVG 1.1//EN" "http://www.w3.org/Graphics/SVG/1.1/DTD/svg11.dtd" >
<svg xmlns="http://www.w3.org/2000/svg">
<metadata></metadata>
<defs>
<font id="brutal_typelight" horiz-adv-x="1101" >
<font-face units-per-em="2048" ascent="1647" descent="-401" />
<missing-glyph horiz-adv-x="526" />
<glyph unicode="&#xfb01;" horiz-adv-x="1126" d="M43 944v98h178v66q0 162 82 251t240 89q20 0 69 -4v-101h-20q-14 2 -37 3q-115 0 -169 -56t-54 -182v-66h618v-1042h-110v944h-508v-944h-111v944h-178zM840 1219v225h110v-225h-110z" />
<glyph unicode="&#xfb02;" horiz-adv-x="1128" d="M43 944v98h178v66q0 162 82 251t240 89q20 0 69 -4v-101h-20q-14 2 -37 3q-115 0 -169 -56t-54 -182v-66h274v-98h-274v-944h-111v944h-178zM842 0v1444h110v-1444h-110z" />
<glyph horiz-adv-x="0" />
<glyph unicode="&#xd;" horiz-adv-x="681" />
<glyph unicode=" "  horiz-adv-x="526" />
<glyph unicode="&#x09;" horiz-adv-x="526" />
<glyph unicode="&#xa0;" horiz-adv-x="526" />
<glyph unicode="!" horiz-adv-x="512" d="M197 0v252h118v-252h-118zM201 451v983h110v-983h-110z" />
<glyph unicode="&#x22;" horiz-adv-x="675" d="M102 1214v230h119v-230l-26 -229h-66zM453 1214v230h120v-230l-26 -229h-66z" />
<glyph unicode="#" horiz-adv-x="1286" d="M59 395v103h244l86 438h-244v102h265l77 396h99v-41l-68 -355h377l78 396h98v-41l-70 -355h228v-102h-248l-86 -438h246v-103h-267l-77 -395h-99v41l68 354h-377l-76 -395h-100v41l70 354h-224zM410 498h378l86 438h-378z" />
<glyph unicode="$" horiz-adv-x="1243" d="M104 465h111q0 -203 125 -298t296 -95t264 76t93 188t-62 174t-210 121l-195 76q-211 84 -293 159q-81 80 -81 232t112 253q113 101 305 111v189h111v-193q180 -18 300 -138t120 -339h-111q0 189 -103 285q-102 96 -270 96t-260 -73t-92 -184t60 -171q63 -57 213 -115 l194 -76q201 -79 289 -163t88 -236t-110 -255t-318 -116v-204h-111v204q-201 17 -333 141t-132 351z" />
<glyph unicode="%" horiz-adv-x="1562" d="M94 1010v164q0 134 79 212t220 78t220 -78t79 -212v-164q0 -135 -79 -213t-220 -78t-220 78t-79 213zM193 1001q0 -88 53 -141t147 -53t148 54q53 54 53 140v181q0 88 -52 141t-148 53t-148 -53q-53 -53 -53 -141v-181zM330 0v41l805 1393h96v-41l-807 -1393h-94z M870 260v164q0 135 79 213t220 78t221 -78t80 -213v-164q0 -135 -80 -213t-221 -78t-220 78t-79 213zM969 252q0 -88 54 -142t147 -53q94 1 148 55t54 140v180q0 88 -53 141t-147 53t-149 -52q-54 -54 -54 -142v-180z" />
<glyph unicode="&#x26;" horiz-adv-x="1249" d="M72 362q0 115 54 203t181 191l60 49l-62 69q-49 55 -67 82q-66 88 -66 207t88 202t222 83t218 -81t84 -219t-155 -263l-107 -86l420 -463q82 145 82 346h104q1 -244 -110 -424l190 -205v-53h-96l-160 170q-168 -199 -434 -199q-199 0 -323 109q-123 109 -123 282z M182 373q0 -135 96 -218t242 -83q227 0 363 172l-445 487l-63 -51q-109 -88 -151 -153t-42 -154zM283 1166q-1 -72 23 -117t93 -119l54 -60l100 84q125 100 125 194t-55 146q-55 54 -141 54t-143 -54q-56 -56 -56 -128z" />
<glyph unicode="'" horiz-adv-x="323" d="M102 1214v230h119v-230l-26 -229h-66z" />
<glyph unicode="(" horiz-adv-x="612" d="M197 20v1172q0 166 94 257t262 91v-102q-115 0 -181 -65t-65 -177v-1180q-1 -113 65 -177t181 -64v-103q-168 0 -262 91t-94 257z" />
<glyph unicode=")" horiz-adv-x="612" d="M59 -225q115 1 181 65t65 176v1180q1 114 -65 178t-181 64v102q169 0 263 -91t94 -257v-1172q0 -166 -94 -257t-263 -91v103z" />
<glyph unicode="*" horiz-adv-x="845" d="M70 911l270 152l-270 151l45 78l266 -157l-2 309h88l-2 -309l266 159l45 -80l-272 -151l272 -152l-45 -77l-266 157l2 -309h-88l2 309l-266 -160z" />
<glyph unicode="+" horiz-adv-x="1075" d="M111 594v94h376v377h101v-377h377v-94h-377v-383h-101v383h-376z" />
<glyph unicode="," horiz-adv-x="442" d="M68 -197l139 461h121v-53l-172 -408h-88z" />
<glyph unicode="-" horiz-adv-x="890" d="M135 590v102h623v-102h-623z" />
<glyph unicode="." horiz-adv-x="442" d="M162 0v264h119v-264h-119z" />
<glyph unicode="/" horiz-adv-x="933" d="M94 -164l645 1704h101v-41l-645 -1704h-101v41z" />
<glyph unicode="0" horiz-adv-x="1222" d="M156 426v582q0 216 122 336t332 120t334 -122q123 -122 123 -334v-582q0 -213 -123 -335t-334 -122q-210 0 -332 121t-122 336zM266 420q0 -160 92 -254t252 -94t253 94t93 254v592q0 160 -93 255t-253 95t-252 -94t-92 -256v-592z" />
<glyph unicode="1" horiz-adv-x="526" d="M88 1309v57l131 68h111v-1434h-111v1309h-131z" />
<glyph unicode="2" horiz-adv-x="1144" d="M115 1008q0 212 122 334q121 122 315 122t310 -116t115 -311q0 -194 -158 -373q-61 -74 -84 -97l-459 -465h732v-102h-883v92l434 443q66 66 115 118q49 57 90 113q102 133 102 278q0 146 -85 232t-233 86t-237 -95q-90 -95 -92 -259h-104z" />
<glyph unicode="3" horiz-adv-x="1165" d="M111 412h106q4 -158 100 -249q95 -91 259 -91t254 89t92 233q0 144 -84 226q-84 81 -228 80h-125v97h121q129 1 206 75t77 199t-83 208q-82 83 -232 83t-236 -91t-88 -255h-107q2 211 119 330q117 118 315 118t308 -110q113 -106 112 -273q0 -125 -60 -208t-167 -119 q114 -31 188 -126t74 -229q0 -201 -120 -315t-333 -115q-212 0 -338 118t-130 325z" />
<glyph unicode="4" horiz-adv-x="1110" d="M74 334v88l569 1012h98v-41l-540 -957h553v406h110v-406h193v-102h-193v-334h-110v334h-680z" />
<glyph unicode="5" horiz-adv-x="1185" d="M139 371h111q20 -139 114 -219t248 -80q152 0 241 103t89 283t-89 277q-89 99 -258 99t-280 -138h-108l63 738h701v-103h-609l-45 -516q131 115 318 115t303 -121t115 -348q0 -227 -121 -359q-122 -132 -322 -133t-323 105t-148 297z" />
<glyph unicode="6" horiz-adv-x="1173" d="M135 434q0 96 31 180t104 203l387 617h103v-41l-377 -594q97 80 275 80t290 -119t113 -330q0 -211 -124 -336t-341 -125t-339 124t-122 341zM246 428q0 -166 91 -261t260 -95t261 95t92 262t-89 261t-255 94t-263 -95t-97 -261z" />
<glyph unicode="7" horiz-adv-x="1093" d="M104 1040v394h887v-97l-518 -1337h-100v41l501 1290h-665v-291h-105z" />
<glyph unicode="8" horiz-adv-x="1234" d="M135 387q0 141 78 237t205 128q-111 38 -174 120t-64 207q0 170 118 278q118 107 322 107t319 -107q116 -107 116 -278q1 -125 -63 -208t-173 -119q123 -33 202 -130t79 -235q0 -197 -126 -307t-356 -111q-229 0 -356 112t-127 306zM246 385q0 -147 99 -230t272 -83 t273 83q99 83 99 230t-99 231q-98 84 -272 84t-273 -84t-99 -231zM291 1077q0 -131 86 -209q89 -76 241 -76t238 76t86 209t-86 209t-238 76t-241 -76q-86 -78 -86 -209z" />
<glyph unicode="9" horiz-adv-x="1173" d="M115 1008q0 212 123 334t340 122t340 -123q122 -123 122 -318t-127 -407l-370 -616h-101v41l367 596q-96 -82 -258 -82q-203 0 -320 121t-116 332zM225 1007q0 -167 89 -263t254 -97q165 0 263 96q99 97 99 263t-92 261t-261 95t-261 -94t-91 -261z" />
<glyph unicode=":" horiz-adv-x="442" d="M162 0v264h119v-264h-119zM162 778v264h119v-264h-119z" />
<glyph unicode=";" horiz-adv-x="442" d="M68 -197l139 461h121v-53l-172 -408h-88zM190 778v264h119v-264h-119z" />
<glyph unicode="&#x3c;" horiz-adv-x="995" d="M111 598v92l714 387h60v-76l-662 -356l662 -356v-78h-60z" />
<glyph unicode="=" horiz-adv-x="1073" d="M111 373v94h852v-94h-852zM111 817v94h852v-94h-852z" />
<glyph unicode="&#x3e;" horiz-adv-x="995" d="M111 211v78l661 356l-661 356v76h59l715 -387v-92l-715 -387h-59z" />
<glyph unicode="?" horiz-adv-x="1038" d="M74 1012q0 212 126 332t326 120t310 -110t110 -266q0 -155 -98 -252q-74 -74 -172 -140l-113 -73v-172h-110v211l155 104q54 37 80 57t76 70q72 77 72 195t-83 196t-235 78t-246 -93t-94 -257h-104zM449 0v252h118v-252h-118z" />
<glyph unicode="@" horiz-adv-x="2062" d="M156 583q0 394 248 638q248 243 632 243q386 0 627 -221q246 -221 246 -586q-1 -242 -99 -389t-258 -147q-88 0 -147 48t-72 138q-150 -184 -358 -184q-160 0 -253 98t-93 262v187q0 164 93 262t253 98q203 0 352 -180l37 158h53v-637q0 -80 37 -122t102 -42 q115 0 186 121t70 329q0 326 -218 524q-218 197 -558 197t-562 -220t-222 -578t222 -580t577 -223h51v-86h-51q-397 0 -646 249t-249 643zM725 498q-1 -127 71 -205t193 -78q174 0 332 178v363q-164 182 -332 182q-121 0 -193 -78t-71 -205v-157z" />
<glyph unicode="A" horiz-adv-x="1339" d="M53 0v41l555 1393h121l557 -1393v-41h-117l-159 406h-686l-162 -406h-109zM360 508h613l-305 768z" />
<glyph unicode="B" horiz-adv-x="1329" d="M197 0v1434h598q174 0 270 -96t96 -275q0 -244 -200 -318q253 -57 253 -356q0 -185 -98 -287t-272 -102h-647zM315 106h508q129 0 201 75t72 211t-71 212t-202 76h-508v-574zM315 782h467q123 0 191 72q67 71 67 197q0 133 -68 205q-67 71 -193 71h-3h-461v-545z" />
<glyph unicode="C" horiz-adv-x="1347" d="M156 485v463q0 244 143 380t381 136t385 -125q148 -125 147 -354v-20h-118v20q0 178 -119 273t-279 96q-202 0 -312 -104t-110 -294v-479q0 -189 111 -293t291 -104t299 95t119 274v20h118v-20q0 -229 -148 -355q-147 -125 -380 -125h-4q-238 0 -381 136t-143 380z" />
<glyph unicode="D" horiz-adv-x="1380" d="M197 0v1434h489q250 0 394 -134t145 -368v-430q-1 -236 -145 -369t-394 -133h-489zM315 106h371q196 0 308 106t112 288v434q0 180 -113 286t-307 107h-371v-1221z" />
<glyph unicode="E" horiz-adv-x="1183" d="M197 0v1434h870v-107h-752v-551h656v-106h-656v-564h754v-106h-872z" />
<glyph unicode="F" horiz-adv-x="1167" d="M197 0v1434h878v-107h-758v-559h660v-106h-660v-662h-120z" />
<glyph unicode="G" horiz-adv-x="1409" d="M156 485v463q0 244 147 380t387 136t390 -123t155 -350v-16h-121v16q-2 170 -123 266t-284 97q-203 0 -318 -106t-115 -292v-471q0 -188 114 -297q113 -108 308 -108h4q287 0 414 276v252h-366v101h487v-709h-72l-30 217q-142 -248 -439 -248q-252 0 -395 137t-143 379z " />
<glyph unicode="H" horiz-adv-x="1419" d="M197 0v1434h118v-660h789v660h119v-1434h-119v668h-789v-668h-118z" />
<glyph unicode="I" horiz-adv-x="512" d="M197 0v1434h118v-1434h-118z" />
<glyph unicode="J" horiz-adv-x="1157" d="M53 412v57h119v-57q0 -158 92 -245t252 -87t254 89t94 247v1018h119v-1022q0 -211 -125 -327t-341 -116t-340 114t-124 329z" />
<glyph unicode="K" horiz-adv-x="1226" d="M197 0v1434h118v-660h271l452 660h111v-41l-461 -666l486 -686v-41h-117l-469 668h-273v-668h-118z" />
<glyph unicode="L" horiz-adv-x="1140" d="M197 0v1434h118v-1328h772v-106h-890z" />
<glyph unicode="M" horiz-adv-x="1634" d="M197 0v1434h114l508 -777l506 777h113v-1434h-117v1229l-465 -719h-80l-465 715v-1225h-114z" />
<glyph unicode="N" horiz-adv-x="1421" d="M197 0v1434h110l797 -1213v1213h121v-1434h-111l-799 1210v-1210h-118z" />
<glyph unicode="O" horiz-adv-x="1388" d="M156 481v471q0 240 143 376t393 136t395 -137t146 -375v-471q1 -238 -145 -375t-396 -137t-393 136t-143 376zM274 475q0 -183 112 -289t308 -106t308 106t112 289v483q0 184 -112 290t-308 106t-308 -106t-112 -290v-483z" />
<glyph unicode="P" horiz-adv-x="1269" d="M197 0v1434h581q182 0 284 -114t103 -310q0 -196 -102 -310q-101 -112 -282 -112h-3h-463v-588h-118zM315 694h445q131 0 208 84q76 84 76 232t-76 232q-77 85 -208 85h-445v-633z" />
<glyph unicode="Q" horiz-adv-x="1394" d="M156 481v471q0 240 143 376t393 136t395 -137t146 -375v-471q0 -272 -184 -409l190 -275v-41h-115l-184 264q-104 -51 -246 -51q-252 0 -395 136t-143 376zM274 473q0 -185 112 -289t308 -104t308 104t112 289v488q0 184 -112 288q-112 105 -308 105t-308 -104t-112 -289 v-488z" />
<glyph unicode="R" horiz-adv-x="1316" d="M197 0v1434h587q190 0 296 -113t106 -311q0 -334 -297 -414l323 -555v-41h-114l-342 586h-441v-586h-118zM315 692h451q141 0 219 82t78 235t-78 235t-219 83h-451v-635z" />
<glyph unicode="S" horiz-adv-x="1280" d="M104 465h119q0 -133 68 -225q121 -160 366 -160q170 0 267 75q96 75 96 186t-73 176t-253 132l-159 60q-205 77 -293 155t-88 236t128 260q128 104 356 104t364 -122t137 -361h-121q0 195 -113 284t-277 89t-260 -71t-96 -180t64 -167t229 -119l154 -57q217 -80 321 -164 t104 -249t-130 -271t-361 -107q-231 0 -390 126t-159 370z" />
<glyph unicode="T" horiz-adv-x="1128" d="M53 1327v107h1024v-107h-452v-1327h-119v1327h-453z" />
<glyph unicode="U" horiz-adv-x="1378" d="M176 467v967h119v-967q0 -183 105 -285q104 -102 288 -102t290 102q105 102 105 285v967h121v-967q0 -233 -144 -365t-370 -133q-226 0 -371 129q-143 131 -143 369z" />
<glyph unicode="V" horiz-adv-x="1339" d="M53 1393v41h113l506 -1276l502 1276h112v-41l-555 -1393h-121z" />
<glyph unicode="W" horiz-adv-x="1646" d="M94 1393v41h117l244 -1244l331 805h78l336 -807l242 1246h110v-41l-278 -1393h-115l-336 815l-336 -815h-114z" />
<glyph unicode="X" horiz-adv-x="1253" d="M74 0v41l479 688l-465 664v41h119l420 -611l426 611h110v-41l-465 -664l482 -688v-41h-119l-438 635l-439 -635h-110z" />
<glyph unicode="Y" horiz-adv-x="1236" d="M33 1393v41h117l468 -752l478 752h108v-41l-526 -820v-573h-119v569z" />
<glyph unicode="Z" horiz-adv-x="1167" d="M94 0v104l824 1223h-797v107h934v-105l-824 -1223h844v-106h-981z" />
<glyph unicode="[" horiz-adv-x="641" d="M197 -328v1868h407v-102h-297v-1663h297v-103h-407z" />
<glyph unicode="\" horiz-adv-x="933" d="M94 1499v41h101l645 -1704v-41h-101z" />
<glyph unicode="]" horiz-adv-x="641" d="M37 -225h297v1638h-297v103h407v-1844h-407v103z" />
<glyph unicode="^" horiz-adv-x="1005" d="M111 793v41l342 610h98l342 -610v-41h-94l-297 530l-295 -530h-96z" />
<glyph unicode="_" horiz-adv-x="1075" d="M-2 -125h1079v-94h-1079v94z" />
<glyph unicode="`" horiz-adv-x="585" d="M127 1454v41h115l219 -287h-113z" />
<glyph unicode="a" d="M104 284q0 150 111 235t322 85h290v121q-1 111 -73 175t-205 65h-4q-130 0 -203 -63q-74 -64 -74 -169h-108q0 152 101 243t287 91t288 -90t102 -246v-731h-72l-37 145q-68 -72 -171 -121q-102 -49 -234 -49t-226 79q-94 80 -94 230zM215 287q1 -101 69 -155t181 -54 q186 0 362 170v258h-290q-322 0 -322 -219z" />
<glyph unicode="b" horiz-adv-x="1165" d="M176 0v1444h111v-553q152 176 364 176q169 0 269 -103t100 -282v-322q0 -178 -100 -282q-99 -103 -262 -103h-3q-211 0 -374 183l-35 -158h-70zM287 268q176 -190 352 -190q127 0 199 79t71 212v305q0 131 -72 211q-73 80 -196 80q-178 0 -354 -191v-506z" />
<glyph unicode="c" horiz-adv-x="1079" d="M129 362v318q0 176 112 282q111 105 300 105h4q192 0 304 -99t112 -266v-10h-111v13q0 119 -82 189t-224 71q-142 0 -223 -77t-81 -206v-322q0 -130 81 -206t223 -76t224 73t82 191v12h111v-10q0 -166 -113 -268q-111 -101 -300 -101h-4h-4q-189 0 -300 105 q-112 106 -111 282z" />
<glyph unicode="d" horiz-adv-x="1165" d="M145 360v322q-1 178 99 282q99 103 267 103h3q213 0 365 -176v553h110v-1444h-69l-35 158q-164 -183 -375 -183h-3q-164 0 -262 103q-99 104 -100 282zM256 369q0 -133 72 -212t198 -79q178 0 353 190v506q-174 190 -355 191q-124 0 -196 -80t-72 -211v-305z" />
<glyph unicode="e" horiz-adv-x="1093" d="M129 360v320q0 176 113 282q111 105 304 105h4q196 0 306 -104t111 -281v-199h-727v-121q0 -132 83 -208t221 -76t214 61t90 170h110q-12 -156 -118 -245t-296 -89q-190 1 -302 105t-113 280zM240 582h616v100q0 129 -81 206t-226 77t-227 -77t-82 -206v-100z" />
<glyph unicode="f" horiz-adv-x="665" d="M43 944v98h178v66q0 162 82 251t240 89q20 0 69 -4v-101h-20q-14 2 -37 3q-115 0 -169 -56t-54 -182v-66h274v-98h-274v-944h-111v944h-178z" />
<glyph unicode="g" horiz-adv-x="1165" d="M145 459v223q1 178 99 282q97 103 263 103h3q209 0 373 -182l35 157h71v-989q0 -199 -107 -302q-106 -103 -296 -103t-302 91t-116 245h111q4 -104 86 -169t221 -65t216 76t77 223v201q-158 -176 -365 -176q-170 0 -269 102t-100 283zM256 467q0 -133 72 -212t198 -79 q178 0 353 191v407q-174 190 -355 191q-124 0 -196 -80t-72 -211v-207z" />
<glyph unicode="h" horiz-adv-x="1175" d="M176 0v1444h111v-553q158 176 368 176q162 0 259 -103t98 -286v-678h-111v664q0 145 -72 223t-192 78q-188 0 -350 -191v-774h-111z" />
<glyph unicode="i" horiz-adv-x="462" d="M176 0v1042h111v-1042h-111zM176 1219v225h111v-225h-111z" />
<glyph unicode="j" horiz-adv-x="462" d="M-59 -250q18 -2 53 -2q96 0 139 57t43 181v1056h111v-1056q0 -338 -283 -338q-14 0 -63 4v98zM176 1219v225h111v-225h-111z" />
<glyph unicode="k" horiz-adv-x="1050" d="M176 0v1444h111v-862h213l342 460h92v-53l-334 -450l358 -486v-53h-100l-354 483h-217v-483h-111z" />
<glyph unicode="l" horiz-adv-x="462" d="M176 0v1444h111v-1444h-111z" />
<glyph unicode="m" horiz-adv-x="1810" d="M176 0v1042h70l35 -157q158 182 352 182q106 0 185 -54t116 -153q170 207 379 207q158 0 246 -98t88 -281v-688h-111v674q0 139 -67 215t-179 76q-172 0 -329 -197q6 -39 6 -125v-643h-111v674q0 139 -66 215q-67 76 -180 76q-172 0 -323 -191v-774h-111z" />
<glyph unicode="n" horiz-adv-x="1175" d="M176 0v1042h70l35 -157q158 182 372 182q162 0 260 -103t99 -286v-678h-111v664q0 145 -72 223t-192 78q-195 0 -350 -191v-774h-111z" />
<glyph unicode="o" d="M129 362v318q0 174 112 280q111 106 311 107q200 0 310 -106t111 -281v-318q-1 -176 -111 -282q-109 -105 -306 -105h-4h-4q-197 0 -308 105q-112 106 -111 282zM240 367q0 -131 83 -210t231 -79t228 79t80 210v309q0 131 -81 210t-228 79t-230 -80t-83 -209v-309z" />
<glyph unicode="p" horiz-adv-x="1165" d="M176 -328v1370h70l35 -157q163 182 374 182q165 0 265 -103t100 -282v-322q0 -178 -99 -281t-270 -104q-213 0 -364 177v-480h-111zM287 268q176 -190 352 -190q127 0 199 79t71 212v305q0 131 -72 211q-73 80 -196 80q-178 0 -354 -191v-506z" />
<glyph unicode="q" horiz-adv-x="1165" d="M145 360v322q-1 178 99 282q99 103 263 103h3q211 0 375 -182l35 157h69v-1370h-110v480q-152 -176 -365 -177h-3q-168 0 -266 103q-99 104 -100 282zM256 369q0 -133 72 -212t198 -79q178 0 353 190v506q-174 190 -355 191q-124 0 -196 -80t-72 -211v-305z" />
<glyph unicode="r" horiz-adv-x="749" d="M176 0v1042h62l36 -157q72 82 176 132t212 50h14v-113h-14q-233 0 -375 -174v-780h-111z" />
<glyph unicode="s" d="M115 348h110q1 -135 101 -203q100 -67 237 -67t215 54t78 133t-46 117t-159 69l-235 61q-135 37 -196 97q-60 60 -60 180t103 199t287 79t293 -94q110 -94 109 -268h-110q0 125 -83 193q-82 67 -212 67h-4q-133 -1 -203 -51t-70 -126t41 -112t144 -64l233 -59 q147 -39 213 -99t66 -186t-109 -210q-109 -83 -297 -83h-5q-192 1 -316 95t-125 278z" />
<glyph unicode="t" horiz-adv-x="731" d="M53 944v98h178v218h111v-218h285v-98h-285v-633q0 -209 197 -209h88v-102h-88q-156 0 -232 84t-76 223v637h-178z" />
<glyph unicode="u" horiz-adv-x="1175" d="M164 365v677h110v-663q0 -145 72 -223t193 -78q195 0 350 190v774h110v-1042h-69l-35 158q-158 -182 -373 -183h-3q-160 0 -257 103q-98 104 -98 287z" />
<glyph unicode="v" horiz-adv-x="1026" d="M53 989v53h105l358 -895l354 895h103v-53l-406 -989h-108z" />
<glyph unicode="w" horiz-adv-x="1441" d="M104 989v53h103l221 -895l250 691h88l250 -691l221 895h100v-53l-252 -989h-114l-250 670l-250 -670h-115z" />
<glyph unicode="x" horiz-adv-x="1048" d="M94 0v53l361 467l-359 469v53h103l325 -436l328 436h96v-53l-354 -465l362 -471v-53h-100l-334 444l-332 -444h-96z" />
<glyph unicode="y" horiz-adv-x="1021" d="M53 989v53h105l358 -895l354 895h103v-53l-541 -1317h-94v43l123 285z" />
<glyph unicode="z" horiz-adv-x="1050" d="M115 0v98l661 846h-633v98h766v-98l-661 -846h674v-98h-807z" />
<glyph unicode="{" horiz-adv-x="649" d="M74 567v103h55q127 0 127 161v361q0 166 94 257t262 91v-102q-114 0 -180 -65t-65 -177v-391q0 -154 -111 -187q111 -33 111 -186v-416q0 -113 65 -177t180 -64v-103q-168 0 -262 91t-94 257v386q0 162 -127 161h-55z" />
<glyph unicode="|" horiz-adv-x="501" d="M197 -205v1745h110v-1745h-110z" />
<glyph unicode="}" horiz-adv-x="649" d="M37 -225q115 1 181 65t65 176v416q0 154 110 186q-111 33 -110 187v391q0 114 -66 178t-180 64v102q168 0 262 -91t94 -257v-361q0 -162 127 -161h55v-103h-55q-127 0 -127 -161v-386q0 -166 -94 -257t-262 -91v103z" />
<glyph unicode="~" horiz-adv-x="960" d="M102 578q72 106 120 147t112 41t135 -55l49 -37q64 -47 106 -47q42 -1 72 27t92 110l70 -53q-68 -105 -117 -147t-113 -42t-134 51l-52 39q-111 82 -175 25q-27 -25 -97 -113z" />
<glyph unicode="&#xa1;" horiz-adv-x="507" d="M197 791v251h114v-251h-114zM199 -328v924h110v-924h-110z" />
<glyph unicode="&#xa2;" horiz-adv-x="1079" d="M129 549v317q0 164 99 268t274 117v183h84v-183q172 -10 273 -108t102 -254v-10h-111v12q0 109 -70 179t-194 79v-883q124 10 194 81t70 181v13h111v-11q-1 -158 -101 -258t-274 -110v-162h-84v164q-176 12 -274 116t-99 269zM240 547q0 -119 68 -194t194 -87v883 q-126 -12 -194 -87t-68 -194v-321z" />
<glyph unicode="&#xa3;" horiz-adv-x="1177" d="M94 0v102h158v584h-158v102h158v289q0 175 112 281t304 106t304 -100t111 -272v-60h-110v60q0 126 -81 198t-224 72q-142 0 -224 -77t-82 -206v-291h381v-102h-381v-584h721v-102h-989z" />
<glyph unicode="&#xa5;" horiz-adv-x="1206" d="M33 1393v41h110l461 -748l461 748h109v-41l-455 -721h348v-103h-408v-227h408v-102h-408v-240h-112v240h-408v102h408v227h-408v103h346z" />
<glyph unicode="&#xa6;" horiz-adv-x="501" d="M197 -205v697h110v-697h-110zM197 885v655h110v-655h-110z" />
<glyph unicode="&#xa7;" horiz-adv-x="1155" d="M115 57h106q0 -158 109 -231q106 -76 256 -76t235 60q84 60 84 174q0 49 -34 89q-35 40 -67 57t-110 48l-166 62q-201 74 -292 147q-90 78 -91 205q0 160 131 309q-120 80 -120 223q0 144 114 234t310 90q198 0 320 -102t122 -295h-109q0 152 -100 221q-97 74 -235 74 t-224 -58t-86 -154t66 -141t151 -75l164 -64q199 -78 291 -151t92 -205t-147 -295q73 -49 105 -101t32 -131q0 -139 -116 -231t-319 -92q-204 0 -338 105t-134 304zM256 616q0 -114 86 -168t193 -96l268 -106q121 136 121 242t-96 167t-203 99l-267 102q-102 -126 -102 -240 z" />
<glyph unicode="&#xa8;" horiz-adv-x="679" d="M100 1219v225h111v-225h-111zM471 1219v225h111v-225h-111z" />
<glyph unicode="&#xa9;" horiz-adv-x="1783" d="M156 716q0 314 212 531t525 217t525 -217t212 -531t-213 -530q-213 -217 -524 -217t-524 217q-213 216 -213 530zM238 716q0 -280 187 -474t465 -193q278 0 468 193q188 192 188 474t-188 476t-467 192q-279 0 -466 -194t-187 -474zM537 621v194q0 156 92 245t254 89 t256 -84t94 -225v-9h-90v9q0 102 -71 164q-72 62 -190 61q-118 0 -188 -66t-69 -178v-207q-1 -112 69 -178t190 -66t190 62q70 61 69 166v6h90v-6q0 -141 -94 -226t-256 -85t-254 89t-92 245z" />
<glyph unicode="&#xaa;" horiz-adv-x="884" d="M115 924q0 217 319 217h184v69q0 62 -46 100t-130 38t-129 -37t-45 -101h-114q0 106 74 170q75 64 213 64t213 -60t75 -165v-486h-67l-33 96q-126 -106 -273 -106q-110 0 -176 52t-65 149zM231 934q0 -111 156 -111q113 0 231 97v137h-182q-205 0 -205 -123z" />
<glyph unicode="&#xab;" horiz-adv-x="1085" d="M94 551l348 422h99v-45l-314 -377l314 -377v-45h-99zM508 551l348 422h98v-45l-313 -377l313 -377v-45h-98z" />
<glyph unicode="&#xac;" horiz-adv-x="1073" d="M111 817v94h852v-495h-101v401h-751z" />
<glyph unicode="&#xad;" horiz-adv-x="890" d="M135 590v102h623v-102h-623z" />
<glyph unicode="&#xae;" horiz-adv-x="825" d="M70 1112q0 150 100 251t242 101t242 -101q99 -101 99 -252t-99 -251t-242 -100t-244 100q-98 102 -98 252zM119 1112q0 -129 84 -219q86 -88 209 -88t209 88t86 218t-86 219t-209 89t-209 -88q-84 -90 -84 -219zM272 932v362h168q57 0 90 -28t33 -82q0 -94 -90 -111 l90 -119v-22h-45l-102 137h-94v-137h-50zM322 1112h116q49 0 69 34q19 34 0 68t-69 33h-116v-135z" />
<glyph unicode="&#xaf;" horiz-adv-x="905" d="M180 1284v94h545v-94h-545z" />
<glyph unicode="&#xb0;" horiz-adv-x="786" d="M94 1030v144q0 134 79 212t220 78t220 -78t79 -212v-144q0 -135 -79 -213t-220 -78t-220 78t-79 213zM193 1022q0 -88 53 -141t147 -53q93 0 147 54t54 140v160q0 88 -52 141t-148 53t-148 -53q-53 -53 -53 -141v-160z" />
<glyph unicode="&#xb1;" horiz-adv-x="1075" d="M111 43v94h854v-94h-854zM111 670v94h376v362h101v-362h377v-94h-377v-373h-101v373h-376z" />
<glyph unicode="&#xb2;" horiz-adv-x="641" d="M74 1184q0 120 68 190t172 70t168 -64t64 -146q1 -128 -84 -220q-28 -29 -95 -82l-127 -101h319v-98h-477v86l227 185q42 35 70 59q67 63 67 133t-36 110q-38 38 -100 38t-103 -44q-41 -43 -41 -116h-92z" />
<glyph unicode="&#xb3;" horiz-adv-x="667" d="M74 948h100q4 -57 47 -91t115 -34q147 0 147 109q0 47 -37 79t-96 31h-84v99h82q51 1 82 29t31 72t-37 73q-36 29 -102 29t-106 -36q-40 -34 -40 -96h-92q0 109 66 170q66 62 174 62t173 -53t64 -138q0 -115 -102 -151q55 -18 90 -62t35 -104q0 -98 -66 -156t-182 -57 q-116 0 -189 62q-71 63 -73 163z" />
<glyph unicode="&#xb4;" horiz-adv-x="585" d="M127 1208l219 287h115v-41l-221 -246h-113z" />
<glyph unicode="&#xb5;" horiz-adv-x="1187" d="M176 -328v1370h111v-663q1 -143 71 -222t180 -79q205 0 363 190v774h111v-1042h-68l-37 158q-164 -182 -364 -183q-88 0 -158 41t-98 109v-453h-111z" />
<glyph unicode="&#xb6;" horiz-adv-x="1183" d="M94 1085v17q0 158 95 245t264 87h534v-1612h-104v1509h-326v-1509h-104v932q-168 0 -264 87q-95 87 -95 244z" />
<glyph unicode="&#xb7;" horiz-adv-x="442" d="M162 520v264h119v-264h-119z" />
<glyph unicode="&#xb8;" horiz-adv-x="587" d="M141 -287l215 287h113l-213 -328h-115v41z" />
<glyph unicode="&#xb9;" horiz-adv-x="448" d="M61 1311v53l121 70h101v-701h-105v578h-117z" />
<glyph unicode="&#xba;" horiz-adv-x="825" d="M94 1032v103q0 143 83 226t235 83t236 -83t83 -226v-103q1 -143 -83 -226t-236 -83t-235 83t-83 226zM205 1024q-1 -92 55 -148t153 -55t152 57t56 146v117q1 94 -55 149q-56 56 -153 56t-153 -56t-55 -149v-117z" />
<glyph unicode="&#xbb;" horiz-adv-x="1085" d="M131 129v45l313 377l-313 377v45h98l349 -422l-349 -422h-98zM545 129v45l313 377l-313 377v45h98l348 -422l-348 -422h-98z" />
<glyph unicode="&#xbc;" horiz-adv-x="1333" d="M61 1311v53l121 70h101v-701h-105v578h-117zM133 0v41l805 1393h96v-41l-807 -1393h-94zM684 154v73l272 473h86v-49l-225 -399h238v158h104v-158h121v-98h-121v-154h-104v154h-371z" />
<glyph unicode="&#xbd;" horiz-adv-x="1372" d="M61 1311v53l121 70h101v-701h-105v578h-117zM133 0v41l805 1393h96v-41l-807 -1393h-94zM805 451q-1 121 67 191t174 69q106 1 168 -63q64 -64 64 -148q1 -131 -85 -219q-28 -29 -95 -82l-127 -101h319v-98h-477v86l227 184q12 10 28 24t26 21q84 64 84 156q0 63 -37 101 t-99 38t-104 -43q-41 -43 -41 -116h-92z" />
<glyph unicode="&#xbe;" horiz-adv-x="1523" d="M74 948h100q4 -57 47 -91t115 -34q147 0 147 109q0 47 -37 79t-96 31h-84v99h82q51 1 82 29t31 72t-37 73q-36 29 -102 29t-106 -36q-40 -34 -40 -96h-92q0 109 66 170q66 62 174 62t173 -53t64 -138q0 -115 -102 -151q55 -18 90 -62t35 -104q0 -98 -66 -156t-182 -57 q-116 0 -189 62q-71 63 -73 163zM324 0v41l804 1393h97v-41l-807 -1393h-94zM874 154v73l273 473h86v-49l-225 -399h237v158h105v-158h120v-98h-120v-154h-105v154h-371z" />
<glyph unicode="&#xbf;" horiz-adv-x="1038" d="M84 7q0 151 96 247q66 66 174 133l113 68v141h111v-184l-156 -95q-123 -73 -175 -139t-52 -174t83 -180q82 -74 234 -74t245 91t93 255h106q0 -212 -125 -330t-325 -118t-312 104q-110 104 -110 255zM461 791v251h119v-251h-119z" />
<glyph unicode="&#xc0;" horiz-adv-x="1339" d="M53 0v41l555 1393h121l557 -1393v-41h-117l-159 406h-686l-162 -406h-109zM360 508h613l-305 768zM377 1825v45h123l235 -309h-121z" />
<glyph unicode="&#xc1;" horiz-adv-x="1339" d="M53 0v41l555 1393h121l557 -1393v-41h-117l-159 406h-686l-162 -406h-109zM360 508h613l-305 768zM623 1561l235 309h123v-45l-238 -264h-120z" />
<glyph unicode="&#xc2;" horiz-adv-x="1339" d="M53 0v41l555 1393h121l557 -1393v-41h-117l-159 406h-686l-162 -406h-109zM360 508h613l-305 768zM373 1561v45l237 264h115l238 -264v-45h-115l-182 219l-181 -219h-112z" />
<glyph unicode="&#xc3;" horiz-adv-x="1339" d="M53 0v41l555 1393h121l557 -1393v-41h-117l-159 406h-686l-162 -406h-109zM299 1630q70 102 118 144t106 41q58 0 134 -54l48 -32q79 -49 113 -49t62 25q28 26 91 107l69 -51q-63 -102 -113 -144q-49 -42 -105 -42t-138 53l-45 29q-78 55 -116 55t-63 -24t-93 -111z M360 508h613l-305 768z" />
<glyph unicode="&#xc4;" horiz-adv-x="1339" d="M53 0v41l555 1393h121l557 -1393v-41h-117l-159 406h-686l-162 -406h-109zM360 508h613l-305 768zM412 1573v242h116v-242h-116zM809 1573v242h117v-242h-117z" />
<glyph unicode="&#xc5;" horiz-adv-x="1339" d="M53 0v41l555 1393h121l557 -1393v-41h-117l-159 406h-686l-162 -406h-109zM360 508h613l-305 768zM461 1734q0 87 60 148q59 62 147 62t149 -62t61 -148q0 -88 -60 -148q-62 -60 -149 -60t-148 60q-60 61 -60 148zM537 1734q0 -54 38 -94q39 -38 95 -38t93 38 q38 38 38 94q0 54 -38 93t-93 39t-94 -39t-39 -93z" />
<glyph unicode="&#xc6;" horiz-adv-x="1953" d="M33 0v41l874 1393h930v-107h-752v-551h656v-106h-656v-564h754v-106h-872v406h-572l-256 -406h-106zM459 508h508v805z" />
<glyph unicode="&#xc7;" horiz-adv-x="1347" d="M156 485v463q0 244 143 380t381 136t385 -125q148 -125 147 -354v-20h-118v20q0 178 -119 273t-279 96q-202 0 -312 -104t-110 -294v-479q0 -189 111 -293t291 -104t299 95t119 274v20h118v-20q0 -219 -135 -343t-342 -135l-192 -299h-115v41l195 260q-221 19 -344 153 t-123 359z" />
<glyph unicode="&#xc8;" horiz-adv-x="1183" d="M197 0v1434h870v-107h-752v-551h656v-106h-656v-564h754v-106h-872zM412 1825v45h123l235 -309h-121z" />
<glyph unicode="&#xc9;" horiz-adv-x="1183" d="M197 0v1434h870v-107h-752v-551h656v-106h-656v-564h754v-106h-872zM520 1561l236 309h123v-45l-238 -264h-121z" />
<glyph unicode="&#xca;" horiz-adv-x="1183" d="M197 0v1434h870v-107h-752v-551h656v-106h-656v-564h754v-106h-872zM344 1561v45l238 264h114l238 -264v-45h-115l-182 219l-180 -219h-113z" />
<glyph unicode="&#xcb;" horiz-adv-x="1183" d="M197 0v1434h870v-107h-752v-551h656v-106h-656v-564h754v-106h-872zM371 1573v242h116v-242h-116zM766 1573v242h119v-242h-119z" />
<glyph unicode="&#xcc;" horiz-adv-x="512" d="M-41 1825v45h123l235 -309h-120zM197 0v1434h118v-1434h-118z" />
<glyph unicode="&#xcd;" horiz-adv-x="512" d="M197 0v1434h118v-1434h-118zM199 1561l235 309h123v-45l-238 -264h-120z" />
<glyph unicode="&#xce;" horiz-adv-x="512" d="M-39 1561v45l238 264h114l238 -264v-45h-115l-182 219l-180 -219h-113zM197 0v1434h118v-1434h-118z" />
<glyph unicode="&#xcf;" horiz-adv-x="512" d="M-2 1573v244h119v-244h-119zM197 0v1434h118v-1434h-118zM395 1573v244h121v-244h-121z" />
<glyph unicode="&#xd0;" horiz-adv-x="1425" d="M41 668v100h199v666h491q250 0 394 -134t145 -368v-430q0 -236 -144 -369t-395 -133h-491v668h-199zM360 106h371q195 0 307 106t113 288v434q0 180 -113 286t-307 107h-371v-559h412v-100h-412v-562z" />
<glyph unicode="&#xd1;" horiz-adv-x="1421" d="M197 0v1434h110l797 -1213v1213h121v-1434h-111l-799 1210v-1210h-118zM346 1630q70 102 118 144t106 41q58 0 135 -54l47 -32q76 -49 112 -49t63 25q28 26 91 107l69 -51q-63 -102 -113 -144t-106 -42t-137 53l-45 29q-76 55 -115 55t-64 -24t-93 -111z" />
<glyph unicode="&#xd2;" horiz-adv-x="1388" d="M156 481v471q0 240 143 376t393 136t395 -137t146 -375v-471q1 -238 -145 -375t-396 -137t-393 136t-143 376zM274 475q0 -183 112 -289t308 -106t308 106t112 289v483q0 184 -112 290t-308 106t-308 -106t-112 -290v-483zM444 1825v45h123l236 -309h-121z" />
<glyph unicode="&#xd3;" horiz-adv-x="1388" d="M156 481v471q0 240 143 376t393 136t395 -137t146 -375v-471q1 -238 -145 -375t-396 -137t-393 136t-143 376zM274 475q0 -183 112 -289t308 -106t308 106t112 289v483q0 184 -112 290t-308 106t-308 -106t-112 -290v-483zM635 1561l235 309h123v-45l-237 -264h-121z" />
<glyph unicode="&#xd4;" horiz-adv-x="1388" d="M156 481v471q0 240 143 376t393 136t395 -137t146 -375v-471q1 -238 -145 -375t-396 -137t-393 136t-143 376zM274 475q0 -183 112 -289t308 -106t308 106t112 289v483q0 184 -112 290t-308 106t-308 -106t-112 -290v-483zM399 1561v45l238 264h115l237 -264v-45h-115 l-182 219l-180 -219h-113z" />
<glyph unicode="&#xd5;" horiz-adv-x="1388" d="M156 481v471q0 240 143 376t393 136t395 -137t146 -375v-471q1 -238 -145 -375t-396 -137t-393 136t-143 376zM274 475q0 -183 112 -289t308 -106t308 106t112 289v483q0 184 -112 290t-308 106t-308 -106t-112 -290v-483zM332 1630q70 102 118 144t106 41q58 0 134 -54 l47 -32q78 -49 113 -49q34 0 62 25q28 26 92 107l69 -51q-63 -102 -113 -144t-106 -42q-55 0 -137 53l-45 29q-78 55 -116 55t-64 -24t-93 -111z" />
<glyph unicode="&#xd6;" horiz-adv-x="1388" d="M156 481v471q0 240 143 376t393 136t395 -137t146 -375v-471q1 -238 -145 -375t-396 -137t-393 136t-143 376zM274 475q0 -183 112 -289t308 -106t308 106t112 289v483q0 184 -112 290t-308 106t-308 -106t-112 -290v-483zM440 1573v242h117v-242h-117zM838 1573v242h116 v-242h-116z" />
<glyph unicode="&#xd7;" horiz-adv-x="987" d="M111 328l311 311l-311 309l73 74l310 -311l311 311l72 -74l-312 -309l312 -311l-72 -72l-311 311l-310 -311z" />
<glyph unicode="&#xd8;" horiz-adv-x="1388" d="M156 481v471q0 240 143 376t395 136q117 0 221 -34l82 208h90v-41l-81 -208q227 -131 227 -437v-471q1 -238 -145 -375t-394 -137q-123 0 -227 35l-82 -209h-90v41l82 211q-221 133 -221 434zM274 475q0 -209 146 -317l454 1167q-86 29 -180 29q-196 0 -308 -106 t-112 -290v-483zM508 111q80 -31 186 -31q196 0 308 105t112 290v483q0 215 -151 320z" />
<glyph unicode="&#xd9;" horiz-adv-x="1378" d="M176 467v967h119v-967q0 -183 105 -285q104 -102 288 -102t290 102q105 102 105 285v967h121v-967q0 -233 -144 -365t-370 -133q-226 0 -371 129q-143 131 -143 369zM479 1825v45h123l236 -309h-121z" />
<glyph unicode="&#xda;" horiz-adv-x="1378" d="M176 467v967h119v-967q0 -183 105 -285q104 -102 288 -102t290 102q105 102 105 285v967h121v-967q0 -233 -144 -365t-370 -133q-226 0 -371 129q-143 131 -143 369zM618 1561l236 309h123v-45l-238 -264h-121z" />
<glyph unicode="&#xdb;" horiz-adv-x="1378" d="M176 467v967h119v-967q0 -183 105 -285q104 -102 288 -102t290 102q105 102 105 285v967h121v-967q0 -233 -144 -365t-370 -133q-226 0 -371 129q-143 131 -143 369zM395 1561v45l238 264h115l237 -264v-45h-115l-182 219l-180 -219h-113z" />
<glyph unicode="&#xdc;" horiz-adv-x="1378" d="M176 467v967h119v-967q0 -183 105 -285q104 -102 288 -102t290 102q105 102 105 285v967h121v-967q0 -233 -144 -365t-370 -133q-226 0 -371 129q-143 131 -143 369zM436 1573v242h117v-242h-117zM834 1573v242h116v-242h-116z" />
<glyph unicode="&#xdd;" horiz-adv-x="1236" d="M33 1393v41h117l468 -752l478 752h108v-41l-526 -820v-573h-119v569zM541 1561l235 309h123v-45l-237 -264h-121z" />
<glyph unicode="&#xde;" horiz-adv-x="1269" d="M197 0v1434h118v-289h463q182 0 284 -114q102 -115 103 -311q0 -196 -102 -308t-285 -113h-463v-299h-118zM315 406h445q131 0 208 84q76 84 76 230q0 148 -76 233q-77 85 -208 85h-445v-632z" />
<glyph unicode="&#xdf;" horiz-adv-x="1196" d="M176 0v958q0 234 114 362t311 128t306 -104t109 -254q0 -238 -209 -302q115 -29 194 -129q82 -96 82 -241q1 -202 -117 -310t-333 -108q-70 0 -144 12v97q78 -10 136 -11q170 0 259 84t89 234t-92 235q-92 86 -250 86h-119v97h111q137 0 207 66t69 182q0 118 -78 191 q-79 73 -223 73t-228 -98t-83 -279v-969h-111z" />
<glyph unicode="&#xe0;" d="M104 284q0 150 111 235t322 85h290v121q-1 111 -73 175t-205 65t-207 -63t-74 -169h-108q0 152 101 243t287 91t288 -90t102 -246v-731h-72l-37 145q-68 -72 -171 -121q-102 -49 -234 -49t-226 79q-94 80 -94 230zM215 287q1 -101 69 -155t181 -54q186 0 362 170v258 h-290q-322 0 -322 -219zM371 1454v41h114l220 -287h-113z" />
<glyph unicode="&#xe1;" d="M104 284q0 150 111 235t322 85h290v121q-1 111 -73 175t-205 65t-207 -63t-74 -169h-108q0 152 101 243t287 91t288 -90t102 -246v-731h-72l-37 145q-68 -72 -171 -121q-102 -49 -234 -49t-226 79q-94 80 -94 230zM215 287q1 -101 69 -155t181 -54q186 0 362 170v258 h-290q-322 0 -322 -219zM477 1208l219 287h115v-41l-221 -246h-113z" />
<glyph unicode="&#xe2;" d="M104 284q0 150 111 235t322 85h290v121q-1 111 -73 175t-205 65t-207 -63t-74 -169h-108q0 152 101 243t287 91t288 -90t102 -246v-731h-72l-37 145q-68 -72 -171 -121q-102 -49 -234 -49t-226 79q-94 80 -94 230zM215 287q1 -101 69 -155t181 -54q186 0 362 170v258 h-290q-322 0 -322 -219zM291 1208v41l221 246h109l221 -246v-41h-107l-170 203l-168 -203h-106z" />
<glyph unicode="&#xe3;" d="M104 284q0 150 111 235t322 85h290v121q-1 111 -73 175t-205 65t-207 -63t-74 -169h-108q0 152 101 243t287 91t288 -90t102 -246v-731h-72l-37 145q-68 -72 -171 -121q-102 -49 -234 -49t-226 79q-94 80 -94 230zM215 287q1 -101 69 -155t181 -54q186 0 362 170v258 h-290q-322 0 -322 -219zM215 1298q68 100 115 140t103 41q56 0 132 -54l45 -30q74 -49 109 -49t63 26t88 105l68 -52q-60 -98 -110 -139t-106 -41t-132 51l-43 29q-82 53 -114 53q-31 0 -61 -24t-91 -107z" />
<glyph unicode="&#xe4;" d="M104 284q0 150 111 235t322 85h290v121q-1 111 -73 175t-205 65t-207 -63t-74 -169h-108q0 152 101 243t287 91t288 -90t102 -246v-731h-72l-37 145q-68 -72 -171 -121q-102 -49 -234 -49t-226 79q-94 80 -94 230zM215 287q1 -101 69 -155t181 -54q186 0 362 170v258 h-290q-322 0 -322 -219zM307 1219v225h111v-225h-111zM678 1219v225h110v-225h-110z" />
<glyph unicode="&#xe5;" d="M104 284q0 150 111 235t322 85h290v121q-1 111 -73 175t-205 65t-207 -63t-74 -169h-108q0 152 101 243t287 91t288 -90t102 -246v-731h-72l-37 145q-68 -72 -171 -121q-102 -49 -234 -49t-226 79q-94 80 -94 230zM215 287q1 -101 69 -155t181 -54q186 0 362 170v258 h-290q-322 0 -322 -219zM362 1367q0 81 56 138t138 57q81 0 138 -56q58 -58 58 -139t-58 -137t-138 -56q-82 0 -138 56t-56 137zM432 1367q0 -50 37 -86t87 -36t87 36t37 86t-37 87t-87 37t-87 -37t-37 -87z" />
<glyph unicode="&#xe6;" horiz-adv-x="1792" d="M104 278q0 148 111 231t322 83h290v131q0 111 -71 174q-72 63 -206 63t-208 -60q-74 -62 -74 -167h-108q0 152 101 243t286 91q268 0 344 -193q94 193 358 193q195 0 305 -104t111 -281v-186h-727v-131q0 -131 83 -207t222 -76q274 0 303 227h111q-13 -158 -119 -246 t-272 -88q-316 0 -408 224q-70 -102 -178 -163q-106 -61 -248 -61t-234 77q-92 78 -94 226zM215 283q-1 -101 67 -151t187 -50t214 62t144 151v201h-290q-322 0 -322 -213zM938 592h616v86q0 129 -80 206t-226 77t-228 -77t-82 -206v-86z" />
<glyph unicode="&#xe7;" horiz-adv-x="1079" d="M129 362v318q0 176 112 282t304 105q192 0 304 -99t112 -266v-10h-111v13q0 119 -82 189t-224 71q-142 0 -223 -77t-81 -206v-322q0 -130 81 -206t223 -76t224 73t82 191v12h111v-10q-1 -150 -95 -249t-254 -115l-198 -308h-115v41l199 264q-172 15 -270 117t-99 268z " />
<glyph unicode="&#xe8;" horiz-adv-x="1093" d="M129 360v320q0 176 113 282q112 106 308 105q196 0 306 -104t111 -281v-199h-727v-121q0 -132 83 -208t221 -76t214 61t90 170h110q-12 -156 -118 -245t-296 -89q-190 1 -302 105t-113 280zM240 582h616v100q0 129 -81 206t-226 77t-227 -77t-82 -206v-100zM330 1454v41 h114l220 -287h-113z" />
<glyph unicode="&#xe9;" horiz-adv-x="1093" d="M129 360v320q0 176 113 282q112 106 308 105q196 0 306 -104t111 -281v-199h-727v-121q0 -132 83 -208t221 -76t214 61t90 170h110q-12 -156 -118 -245t-296 -89q-190 1 -302 105t-113 280zM240 582h616v100q0 129 -81 206t-226 77t-227 -77t-82 -206v-100zM432 1208 l219 287h115v-41l-221 -246h-113z" />
<glyph unicode="&#xea;" horiz-adv-x="1093" d="M129 360v320q0 176 113 282q112 106 308 105q196 0 306 -104t111 -281v-199h-727v-121q0 -132 83 -208t221 -76t214 61t90 170h110q-12 -156 -118 -245t-296 -89q-190 1 -302 105t-113 280zM240 582h616v100q0 129 -81 206t-226 77t-227 -77t-82 -206v-100zM283 1208v41 l221 246h108l222 -246v-41h-107l-170 203l-168 -203h-106z" />
<glyph unicode="&#xeb;" horiz-adv-x="1093" d="M129 360v320q0 176 113 282q112 106 308 105q196 0 306 -104t111 -281v-199h-727v-121q0 -132 83 -208t221 -76t214 61t90 170h110q-12 -156 -118 -245t-296 -89q-190 1 -302 105t-113 280zM240 582h616v100q0 129 -81 206t-226 77t-227 -77t-82 -206v-100zM309 1219v225 h111v-225h-111zM680 1219v225h111v-225h-111z" />
<glyph unicode="&#xec;" horiz-adv-x="460" d="M-47 1450v41h115l219 -287h-113zM176 0v1042h111v-1042h-111z" />
<glyph unicode="&#xed;" horiz-adv-x="460" d="M176 0v1042h111v-1042h-111zM176 1208l219 287h115v-41l-221 -246h-113z" />
<glyph unicode="&#xee;" horiz-adv-x="460" d="M-43 1208v41l221 246h109l221 -246v-41h-107l-170 203l-168 -203h-106zM176 0v1042h111v-1042h-111z" />
<glyph unicode="&#xef;" horiz-adv-x="460" d="M-8 1219v225h110v-225h-110zM176 0v1042h111v-1042h-111zM362 1219v225h111v-225h-111z" />
<glyph unicode="&#xf0;" horiz-adv-x="1130" d="M137 362v193q-1 179 99 283t276 104t338 -162q-33 131 -184 322h-367v98h287l-154 191v53h100l191 -244h246v-98h-170q100 -132 142 -228t42 -239v-275q0 -176 -114 -280q-115 -104 -311 -104t-308 104q-112 106 -113 282zM248 367q0 -131 80 -210t228 -79t232 79t84 210 v288q-166 182 -340 183q-132 0 -208 -80t-76 -211v-180z" />
<glyph unicode="&#xf1;" horiz-adv-x="1175" d="M176 0v1042h70l35 -157q158 182 372 182q162 0 260 -103t99 -286v-678h-111v664q0 145 -72 223t-192 78q-195 0 -350 -191v-774h-111zM244 1298q68 100 114 141q48 40 104 40t132 -54l45 -30q74 -49 109 -49q34 0 62 26t89 105l68 -52q-61 -98 -111 -139t-105 -41 q-56 0 -133 51l-43 29q-81 53 -113 53t-62 -24t-91 -107z" />
<glyph unicode="&#xf2;" d="M129 362v318q0 174 112 280q111 106 311 107q200 0 310 -106t111 -281v-318q-1 -176 -111 -282t-310 -105q-200 -1 -312 105t-111 282zM240 367q0 -131 83 -210t231 -79t228 79t80 210v309q0 131 -81 210t-228 79t-230 -80t-83 -209v-309zM309 1454v41h115l219 -287h-113 z" />
<glyph unicode="&#xf3;" d="M129 362v318q0 174 112 280q111 106 311 107q200 0 310 -106t111 -281v-318q-1 -176 -111 -282t-310 -105q-200 -1 -312 105t-111 282zM240 367q0 -131 83 -210t231 -79t228 79t80 210v309q0 131 -81 210t-228 79t-230 -80t-83 -209v-309zM471 1208l219 287h115v-41 l-221 -246h-113z" />
<glyph unicode="&#xf4;" d="M129 362v318q0 174 112 280q111 106 311 107q200 0 310 -106t111 -281v-318q-1 -176 -111 -282t-310 -105q-200 -1 -312 105t-111 282zM240 367q0 -131 83 -210t231 -79t228 79t80 210v309q0 131 -81 210t-228 79t-230 -80t-83 -209v-309zM274 1208v41l222 246h108 l221 -246v-41h-106l-170 203l-168 -203h-107z" />
<glyph unicode="&#xf5;" d="M129 362v318q0 174 112 280q111 106 311 107q200 0 310 -106t111 -281v-318q-1 -176 -111 -282t-310 -105q-200 -1 -312 105t-111 282zM190 1298q68 100 115 140t103 41q56 0 133 -54l45 -30q74 -49 108 -49t63 26q28 26 89 105l67 -52q-61 -98 -110 -139t-105 -41 t-133 51l-43 29q-82 53 -114 53t-61 -24q-30 -24 -91 -107zM240 367q0 -131 83 -210t231 -79t228 79t80 210v309q0 131 -81 210t-228 79t-230 -80t-83 -209v-309z" />
<glyph unicode="&#xf6;" d="M129 362v318q0 174 112 280q111 106 311 107q200 0 310 -106t111 -281v-318q-1 -176 -111 -282t-310 -105q-200 -1 -312 105t-111 282zM240 367q0 -131 83 -210t231 -79t228 79t80 210v309q0 131 -81 210t-228 79t-230 -80t-83 -209v-309zM307 1219v225h111v-225h-111z M678 1219v225h110v-225h-110z" />
<glyph unicode="&#xf7;" horiz-adv-x="1075" d="M111 594v94h854v-94h-854zM475 197v233h125v-233h-125zM475 852v233h125v-233h-125z" />
<glyph unicode="&#xf8;" d="M129 -205l133 266q-133 102 -133 301v318q0 174 112 280t310 107q104 0 188 -33l144 289h90v-53l-142 -285q141 -109 142 -305v-318q-1 -176 -111 -282t-311 -105q-100 0 -201 35l-133 -268h-88v53zM240 367q0 -131 75 -207l381 780q-61 25 -145 25q-145 0 -228 -80 t-83 -209v-309zM393 106q70 -28 158 -28q151 0 231 79t80 210v309q0 137 -84 215z" />
<glyph unicode="&#xf9;" horiz-adv-x="1175" d="M164 365v677h110v-663q0 -145 72 -223t193 -78q195 0 350 190v774h110v-1042h-69l-35 158q-158 -182 -373 -183q-162 -1 -260 103t-98 287zM371 1454v41h114l220 -287h-113z" />
<glyph unicode="&#xfa;" horiz-adv-x="1175" d="M164 365v677h110v-663q0 -145 72 -223t193 -78q195 0 350 190v774h110v-1042h-69l-35 158q-158 -182 -373 -183q-162 -1 -260 103t-98 287zM477 1208l219 287h115v-41l-221 -246h-113z" />
<glyph unicode="&#xfb;" horiz-adv-x="1175" d="M164 365v677h110v-663q0 -145 72 -223t193 -78q195 0 350 190v774h110v-1042h-69l-35 158q-158 -182 -373 -183q-162 -1 -260 103t-98 287zM311 1208v41l221 246h109l221 -246v-41h-106l-170 203l-168 -203h-107z" />
<glyph unicode="&#xfc;" horiz-adv-x="1175" d="M164 365v677h110v-663q0 -145 72 -223t193 -78q195 0 350 190v774h110v-1042h-69l-35 158q-158 -182 -373 -183q-162 -1 -260 103t-98 287zM344 1219v225h111v-225h-111zM715 1219v225h110v-225h-110z" />
<glyph unicode="&#xfd;" horiz-adv-x="1021" d="M53 989v53h105l358 -895l354 895h103v-53l-541 -1317h-94v43l123 285zM416 1208l219 287h115v-41l-222 -246h-112z" />
<glyph unicode="&#xfe;" horiz-adv-x="1165" d="M176 -328v1772h111v-555q155 178 368 178q165 0 265 -103t100 -282v-322q0 -178 -99 -281t-270 -104q-213 0 -364 177v-480h-111zM287 268q176 -190 352 -190q127 0 199 79t71 212v305q0 131 -72 211q-73 80 -196 80q-178 0 -354 -191v-506z" />
<glyph unicode="&#xff;" horiz-adv-x="1021" d="M53 989v53h105l358 -895l354 895h103v-53l-541 -1317h-94v43l123 285zM268 1219v225h111v-225h-111zM639 1219v225h111v-225h-111z" />
<glyph unicode="&#x152;" horiz-adv-x="2101" d="M156 481v471q0 240 143 376t395 136q147 0 257 -62t163 -177v209h871v-107h-752v-551h655v-106h-655v-564h754v-106h-873v209q-53 -115 -163 -177t-257 -63q-252 0 -395 136t-143 376zM274 475q0 -183 112 -289t304 -106q194 0 309 105t115 278v502q0 176 -114 282 q-114 107 -308 107t-306 -106t-112 -290v-483z" />
<glyph unicode="&#x153;" horiz-adv-x="1826" d="M129 362v318q0 174 112 280t310 107q279 0 367 -211q94 211 368 211q194 0 304 -104t110 -281v-199h-727v-127q2 -126 86 -202t221 -76t212 61t89 170h111q-14 -157 -120 -245t-286 -89q-281 0 -368 207q-91 -207 -367 -207q-199 -1 -311 105t-111 282zM240 367 q0 -131 83 -210t229 -79t228 79t82 208v315q0 127 -83 206t-228 79t-228 -80t-83 -209v-309zM973 582h616v100q0 129 -80 206t-226 77t-228 -77t-82 -206v-100z" />
<glyph unicode="&#x178;" horiz-adv-x="1236" d="M33 1393v41h117l468 -752l478 752h108v-41l-526 -820v-573h-119v569zM362 1579v242h117v-242h-117zM758 1579v242h119v-242h-119z" />
<glyph unicode="&#x2c6;" horiz-adv-x="823" d="M135 1208v41l221 246h109l221 -246v-41h-106l-170 203l-168 -203h-107z" />
<glyph unicode="&#x2dc;" horiz-adv-x="999" d="M137 1298q68 100 115 140t103 41q56 0 132 -54l45 -30q74 -49 109 -49t63 26t89 105l67 -52q-61 -98 -110 -139q-50 -41 -106 -41t-132 51l-43 29q-82 53 -114 53q-31 0 -61 -24t-91 -107z" />
<glyph unicode="&#x2000;" horiz-adv-x="972" />
<glyph unicode="&#x2001;" horiz-adv-x="1944" />
<glyph unicode="&#x2002;" horiz-adv-x="972" />
<glyph unicode="&#x2003;" horiz-adv-x="1944" />
<glyph unicode="&#x2004;" horiz-adv-x="648" />
<glyph unicode="&#x2005;" horiz-adv-x="486" />
<glyph unicode="&#x2006;" horiz-adv-x="324" />
<glyph unicode="&#x2007;" horiz-adv-x="324" />
<glyph unicode="&#x2008;" horiz-adv-x="243" />
<glyph unicode="&#x2009;" horiz-adv-x="388" />
<glyph unicode="&#x200a;" horiz-adv-x="108" />
<glyph unicode="&#x2010;" horiz-adv-x="890" d="M135 590v102h623v-102h-623z" />
<glyph unicode="&#x2011;" horiz-adv-x="890" d="M135 590v102h623v-102h-623z" />
<glyph unicode="&#x2012;" horiz-adv-x="890" d="M135 590v102h623v-102h-623z" />
<glyph unicode="&#x2013;" horiz-adv-x="1191" d="M133 590v102h926v-102h-926z" />
<glyph unicode="&#x2014;" horiz-adv-x="1671" d="M133 590v102h1405v-102h-1405z" />
<glyph unicode="&#x2018;" horiz-adv-x="442" d="M115 983v53l172 408h88l-139 -461h-121z" />
<glyph unicode="&#x2019;" horiz-adv-x="442" d="M68 987l139 461h121v-53l-172 -408h-88z" />
<glyph unicode="&#x201a;" horiz-adv-x="428" d="M68 -197l139 461h121v-53l-172 -408h-88z" />
<glyph unicode="&#x201c;" horiz-adv-x="792" d="M115 983v53l172 408h88l-139 -461h-121zM465 983v53l172 408h88l-139 -461h-121z" />
<glyph unicode="&#x201d;" horiz-adv-x="792" d="M68 983l139 461h121v-53l-172 -408h-88zM418 983l139 461h121v-53l-172 -408h-88z" />
<glyph unicode="&#x201e;" horiz-adv-x="792" d="M68 -197l139 461h121v-53l-172 -408h-88zM418 -197l139 461h121v-53l-172 -408h-88z" />
<glyph unicode="&#x2022;" horiz-adv-x="743" d="M135 649v13q1 113 63 173t174 60t175 -61t63 -172v-13q0 -111 -63 -172t-175 -61t-174 60t-63 173z" />
<glyph unicode="&#x2026;" horiz-adv-x="1343" d="M162 0v264h119v-264h-119zM612 0v264h119v-264h-119zM1063 0v264h119v-264h-119z" />
<glyph unicode="&#x202f;" horiz-adv-x="388" />
<glyph unicode="&#x2039;" horiz-adv-x="671" d="M94 551l348 422h99v-45l-314 -377l314 -377v-45h-99z" />
<glyph unicode="&#x203a;" horiz-adv-x="671" d="M131 129v45l313 377l-313 377v45h98l349 -422l-349 -422h-98z" />
<glyph unicode="&#x205f;" horiz-adv-x="486" />
<glyph unicode="&#x20ac;" horiz-adv-x="1368" d="M61 500v102h175v227h-175v103h175v39q0 231 136 362t359 131t363 -125t139 -354v-20h-107v20q0 180 -110 279q-111 98 -284 98t-279 -104t-107 -287v-39h506v-103h-506v-227h506v-102h-506v-37q0 -183 106 -287t285 -104q178 0 284 99q105 99 105 278v20h107v-20 q0 -229 -139 -357q-140 -123 -364 -123t-358 131q-136 131 -136 363v37h-175z" />
<glyph unicode="&#x2122;" horiz-adv-x="1398" d="M27 1348v86h501v-86h-204v-592h-93v592h-204zM664 756v678h86l219 -322l223 322h88v-678h-94v518l-185 -270h-63l-182 266v-514h-92z" />
<glyph unicode="&#x25fc;" horiz-adv-x="1040" d="M0 0v1040h1040v-1040h-1040z" />
</font>
</defs>
</svg>
