<?xml version="1.0" standalone="no"?>
<!DOCTYPE svg PUBLIC "-//W3C//DTD SVG 1.1//EN" "http://www.w3.org/Graphics/SVG/1.1/DTD/svg11.dtd" >
<svg xmlns="http://www.w3.org/2000/svg">
<metadata></metadata>
<defs>
<font id="brutal_typemedium" horiz-adv-x="1413" >
<font-face units-per-em="2048" ascent="1647" descent="-401" />
<missing-glyph horiz-adv-x="491" />
<glyph unicode="&#xfb01;" horiz-adv-x="1259" d="M31 868v197h164v4q0 179 97 279t298 100q23 0 76 -4v-197h-48q-106 0 -152 -42t-46 -136v-4h676v-1065h-226v868h-450v-868h-225v868h-164zM870 1219v225h226v-225h-226z" />
<glyph unicode="&#xfb02;" horiz-adv-x="1259" d="M31 868v197h164q0 179 97 281t298 102q23 0 76 -4v-197h-48q-106 0 -152 -43t-46 -139h231v-197h-231v-868h-225v868h-164zM870 0v1444h226v-1444h-226z" />
<glyph horiz-adv-x="0" />
<glyph unicode="&#xd;" horiz-adv-x="681" />
<glyph unicode=" "  horiz-adv-x="491" />
<glyph unicode="&#x09;" horiz-adv-x="491" />
<glyph unicode="&#xa0;" horiz-adv-x="491" />
<glyph unicode="!" horiz-adv-x="606" d="M184 0v252h238v-252h-238zM190 451v983h226v-983h-226z" />
<glyph unicode="&#x22;" horiz-adv-x="821" d="M102 1352v92h246v-92l-41 -418h-164zM473 1352v92h246v-92l-41 -418h-164z" />
<glyph unicode="#" horiz-adv-x="1402" d="M82 344v205h219l70 336h-197v205h240l71 344h201v-82l-55 -262h295l71 344h201v-82l-55 -262h178v-205h-221l-70 -336h199v-205h-240l-71 -344h-201v82l53 262h-293l-71 -344h-201v82l53 262h-176zM518 549h295l70 336h-295z" />
<glyph unicode="$" horiz-adv-x="1232" d="M92 465h225q0 -147 83 -219q84 -72 212 -72t194 54t66 142t-58 129q-58 42 -152 83l-115 49q-143 61 -197 91t-110 75q-109 90 -109 257q0 166 102 274t275 130v187h225v-193q154 -35 259 -154t106 -317h-226q0 279 -272 279q-106 0 -172 -52t-66 -126q0 -72 41 -128 q16 -20 58 -43l69 -37q10 -4 42 -17t55 -21l116 -50q183 -76 275 -160t92 -243t-97 -269t-280 -137v-217h-225v215q-184 23 -300 147t-116 343z" />
<glyph unicode="%" horiz-adv-x="1622" d="M82 1038v115q0 147 84 229t234 82t233 -82q84 -82 84 -229v-115q0 -147 -84 -229t-234 -82q-149 0 -233 82t-84 229zM281 1008q1 -51 33 -85t85 -34t86 34t33 85v176q0 51 -33 85t-86 34t-86 -34t-32 -85v-176zM307 0v82l830 1352h174v-82l-830 -1352h-174zM905 281v114 q0 147 84 229t234 83q149 0 233 -82t84 -230v-114q0 -147 -84 -229t-234 -83q-150 1 -233 83q-84 82 -84 229zM1104 250q0 -51 33 -85t86 -34t86 34q32 34 32 85v176q0 51 -32 85q-33 34 -86 34t-86 -34t-33 -85v-176z" />
<glyph unicode="&#x26;" horiz-adv-x="1402" d="M102 362q0 115 50 202t176 188l30 24l-28 29q0 2 -43 48t-90 146q-18 45 -19 115q0 146 104 240t265 94q162 0 258 -90t96 -249t-162 -290l-65 -53l291 -297q49 123 49 279h213q0 -246 -107 -439l201 -203v-106h-199l-135 135q-169 -160 -401 -160t-358 108t-126 279z M328 391q0 -97 68 -155t182 -58q158 0 266 103l-340 348l-74 -60q-102 -80 -102 -178zM403 1121q1 -52 17 -82t65 -78l45 -48l70 56q84 68 84 153q0 55 -40 90t-102 35t-100 -37q-39 -37 -39 -89z" />
<glyph unicode="'" horiz-adv-x="450" d="M102 1352v92h246v-92l-41 -418h-164z" />
<glyph unicode="(" horiz-adv-x="645" d="M184 66v1110q0 184 100 288t279 105v-205q-73 0 -113 -49t-40 -127v-1135q0 -78 40 -127t113 -49v-205q-178 0 -278 104t-101 290z" />
<glyph unicode=")" horiz-adv-x="645" d="M82 -123q72 0 113 49t41 127v1135q0 78 -41 127t-113 49v205q178 -1 278 -105t101 -288v-1110q-1 -184 -101 -289t-278 -105v205z" />
<glyph unicode="*" horiz-adv-x="911" d="M82 950l227 113l-227 113l88 155l211 -141l-14 254h178l-17 -254l213 141l88 -155l-229 -113l229 -113l-88 -155l-213 141l17 -254h-178l14 254l-211 -141z" />
<glyph unicode="+" horiz-adv-x="1146" d="M123 547v188h348v350h205v-350h348v-188h-348v-350h-205v350h-348z" />
<glyph unicode="," horiz-adv-x="544" d="M74 -231l96 510h250v-107l-168 -403h-178z" />
<glyph unicode="-" horiz-adv-x="905" d="M123 539v204h659v-204h-659z" />
<glyph unicode="." horiz-adv-x="563" d="M143 0v279h277v-279h-277z" />
<glyph unicode="/" horiz-adv-x="952" d="M82 -123l588 1692h200v-82l-587 -1692h-201v82z" />
<glyph unicode="0" horiz-adv-x="1249" d="M143 465v504q0 233 129 364q128 131 352 131t353 -131t129 -364v-504q0 -233 -129 -365t-352 -131q-223 0 -353 131q-129 132 -129 365zM369 453q-1 -125 67 -202t189 -77t189 77t67 202v528q0 125 -68 202q-69 77 -189 77t-188 -77t-67 -202v-528z" />
<glyph unicode="1" horiz-adv-x="641" d="M82 1128v119l285 187h90v-1434h-226v1128h-149z" />
<glyph unicode="2" horiz-adv-x="1148" d="M102 0v184l433 439q151 153 203 229t52 176t-60 166t-174 66t-175 -75t-64 -206h-215q4 227 129 356t335 129t330 -126t120 -292t-71 -274t-240 -276l-297 -291h614v-205h-920z" />
<glyph unicode="3" horiz-adv-x="1198" d="M98 455h217q4 -127 78 -204t201 -77q128 0 192 67t64 177t-67 166t-185 57h-100v205h86q229 0 229 203q0 92 -56 151q-56 60 -171 60t-177 -74t-65 -201h-215q2 227 123 353t333 126q213 0 331 -112t118 -281q0 -211 -184 -317q98 -37 162 -131t63 -215q0 -205 -129 -322 t-356 -117t-359 129q-131 129 -133 357z" />
<glyph unicode="4" horiz-adv-x="1132" d="M61 283v174l500 977h199v-82l-443 -865h379v355h226v-355h170v-204h-170v-283h-226v283h-635z" />
<glyph unicode="5" horiz-adv-x="1218" d="M127 393h221q14 -99 86 -159t190 -60t182 81t64 222t-67 221q-68 80 -180 80q-143 0 -228 -116h-223l72 772h772v-205h-588l-33 -344q121 78 269 78q188 0 310 -118t122 -362t-130 -379t-345 -135t-343 112t-151 312z" />
<glyph unicode="6" horiz-adv-x="1208" d="M123 465q0 152 139 377l371 592h207v-82l-305 -471q80 29 167 28q174 0 287 -118q117 -117 117 -337t-131 -352t-361 -133q-230 1 -360 133q-131 132 -131 363zM348 454q0 -130 70 -205t196 -75t197 75q70 75 70 205t-68 202t-199 71q-130 0 -198 -72q-68 -71 -68 -201z " />
<glyph unicode="7" horiz-adv-x="1103" d="M82 1024v410h919v-191l-469 -1243h-202v82l438 1147h-477v-205h-209z" />
<glyph unicode="8" horiz-adv-x="1257" d="M123 401q0 121 66 217q67 96 167 134q-195 115 -194 317q0 168 123 283q125 112 345 112t343 -112t123 -283q0 -205 -193 -317q94 -33 163 -130t69 -221q-1 -203 -135 -317t-372 -115q-238 1 -371 115q-134 114 -134 317zM350 412q0 -108 73 -174q73 -68 206 -68t205 68 t73 174q0 108 -77 179q-78 71 -202 71t-201 -71t-77 -179zM386 1053q0 -99 67 -159q69 -60 177 -60t175 60t67 160q0 99 -62 156q-62 58 -180 58t-181 -58t-63 -157z" />
<glyph unicode="9" horiz-adv-x="1208" d="M102 981q0 219 131 351t361 132t360 -132q131 -132 131 -363q0 -152 -139 -377l-371 -592h-206v82l305 471q-80 -29 -168 -29q-172 0 -289 117q-115 121 -115 340zM328 980q0 -130 68 -202t198 -72q131 0 199 72q67 72 67 202t-69 205q-70 75 -197 75q-126 0 -196 -75 t-70 -205z" />
<glyph unicode=":" horiz-adv-x="563" d="M143 0v279h277v-279h-277zM143 786v279h277v-279h-277z" />
<glyph unicode=";" horiz-adv-x="555" d="M74 -231l96 510h250v-107l-168 -403h-178zM154 786v279h276v-279h-276z" />
<glyph unicode="&#x3c;" horiz-adv-x="1064" d="M123 557v184l711 373h108v-160l-596 -305l596 -305v-160h-108z" />
<glyph unicode="=" horiz-adv-x="1146" d="M123 326v188h901v-188h-901zM123 768v188h901v-188h-901z" />
<glyph unicode="&#x3e;" horiz-adv-x="1064" d="M123 184v160l596 305l-596 305v160h108l711 -373v-184l-711 -373h-108z" />
<glyph unicode="?" horiz-adv-x="1064" d="M61 987q-1 223 133 350t345 127t327 -116t117 -291q0 -174 -137 -293q-47 -43 -74 -62l-149 -100v-151h-226v229l191 135q78 52 124 100q46 49 46 139t-58 148t-172 58q-112 0 -182 -73t-70 -200h-215zM391 0v252h238v-252h-238z" />
<glyph unicode="@" horiz-adv-x="2039" d="M143 583q0 394 248 638q248 243 633 243t627 -221q246 -219 245 -584q0 -244 -107 -388t-293 -144t-261 143q-100 -143 -283 -143q-145 0 -238 90t-93 246v229q0 156 92 246q93 90 253 90t259 -133l82 113h96v-576q0 -123 115 -123q188 0 188 350q0 289 -193 463 t-489 174t-494 -196q-194 -198 -194 -520t194 -521q197 -197 508 -196h52v-172h-52q-397 0 -646 249t-249 643zM815 496q0 -80 52 -134t126 -53q125 0 215 105v317q-47 61 -94 88t-121 27t-126 -53t-52 -134v-163z" />
<glyph unicode="A" horiz-adv-x="1347" d="M41 0v82l512 1352h242l512 -1352v-82h-242l-127 354h-541l-129 -354h-227zM471 559h393l-194 547z" />
<glyph unicode="B" horiz-adv-x="1355" d="M184 0v1434h604q195 0 303 -98t107 -287q0 -217 -172 -306q227 -84 227 -346q0 -195 -106 -296t-303 -101h-660zM430 215h373q205 0 205 197q0 202 -203 202h-2h-373v-399zM430 819h318q202 0 202 199q0 201 -202 201h-318v-400z" />
<glyph unicode="C" horiz-adv-x="1351" d="M143 485v463q-1 246 145 381t392 135t398 -126q151 -126 151 -369v-21h-246v21q0 133 -88 201t-197 69q-154 0 -232 -71t-77 -203v-496q0 -133 78 -204q77 -70 227 -70h4q109 1 197 69t88 201v20h246v-20q0 -244 -151 -370q-152 -126 -398 -126t-391 135t-146 381z" />
<glyph unicode="D" horiz-adv-x="1402" d="M184 0v1434h512q262 0 413 -131t151 -365v-442q0 -232 -151 -364t-413 -132h-512zM430 215h266q147 0 233 76q85 76 85 198v455q0 123 -85 199t-233 76h-266v-1004z" />
<glyph unicode="E" horiz-adv-x="1208" d="M184 0v1434h920v-215h-674v-398h578v-205h-578v-401h676v-215h-922z" />
<glyph unicode="F" horiz-adv-x="1198" d="M184 0v1434h932v-215h-686v-412h588v-205h-588v-602h-246z" />
<glyph unicode="G" d="M143 479v469q0 244 150 380q149 136 397 136t404 -125t155 -362v-8h-245v8q0 119 -82 191q-81 71 -220 71h-4q-142 0 -225 -74q-84 -74 -84 -200v-486q0 -133 80 -209q79 -75 219 -75h4q100 0 184 46t128 128v184h-283v205h528v-758h-133l-74 135q-136 -166 -376 -166 t-381 135t-142 375z" />
<glyph unicode="H" horiz-adv-x="1454" d="M184 0v1434h246v-609h594v609h246v-1434h-246v610h-594v-610h-246z" />
<glyph unicode="I" horiz-adv-x="614" d="M184 0v1434h246v-1434h-246z" />
<glyph unicode="J" horiz-adv-x="1187" d="M41 424v61h246v-61q0 -229 245 -229q111 0 179 60t67 177v1002h246v-1010q0 -231 -136 -343t-364 -112t-356 112t-127 343z" />
<glyph unicode="K" horiz-adv-x="1284" d="M184 0v1434h246v-609h182l375 609h227v-82l-387 -621l416 -649v-82h-242l-389 610h-182v-610h-246z" />
<glyph unicode="L" horiz-adv-x="1157" d="M184 0v1434h246v-1219h686v-215h-932z" />
<glyph unicode="M" horiz-adv-x="1658" d="M184 0v1434h238l412 -670l411 670h230v-1434h-238v997l-328 -534h-157l-330 534v-997h-238z" />
<glyph unicode="N" horiz-adv-x="1454" d="M184 0v1434h226l614 -977v977h246v-1434h-226l-614 977v-977h-246z" />
<glyph unicode="O" d="M143 485v463q0 240 152 378t412 138q259 0 411 -138t152 -378v-463q0 -239 -152 -377t-412 -138t-411 137q-152 138 -152 378zM389 473q0 -125 84 -202t234 -77q149 0 233 78q84 76 84 201v488q0 125 -84 201t-234 77q-150 0 -233 -77q-84 -77 -84 -201v-488z" />
<glyph unicode="P" horiz-adv-x="1300" d="M184 0v1434h621q188 0 296 -119q107 -119 107 -322t-108 -321t-295 -119h-375v-553h-246zM430 768h332q88 0 142 59t54 165t-54 166t-142 61h-332v-451z" />
<glyph unicode="Q" d="M143 485v463q0 240 152 378t412 138q259 0 411 -138t152 -378v-463q0 -252 -168 -393l168 -252v-84h-238l-153 232q-84 -19 -172 -19q-260 1 -412 139t-152 377zM389 473q0 -125 84 -202t234 -77q149 0 233 78q84 76 84 201v488q0 125 -84 201t-234 77q-150 0 -233 -77 q-84 -77 -84 -201v-488z" />
<glyph unicode="R" horiz-adv-x="1351" d="M184 0v1434h617q209 0 321 -116q111 -115 111 -321q0 -149 -65 -257t-187 -160l268 -498v-82h-241l-295 551h-283v-551h-246zM430 760h326q227 0 227 229t-227 230h-326v-459z" />
<glyph unicode="S" horiz-adv-x="1314" d="M92 465h246q0 -98 53 -164q94 -106 273 -106q128 0 198 51t70 132t-68 122q-96 58 -264 114l-33 13q-236 90 -336 174t-100 260t138 290q138 113 383 113t386 -122t142 -361h-246q0 129 -79 194t-205 65t-198 -50q-72 -49 -73 -130q1 -81 65 -120t244 -104l29 -11 q206 -70 330 -153q145 -98 145 -285t-142 -303q-141 -115 -387 -115h-4q-248 0 -409 127q-158 129 -158 369z" />
<glyph unicode="T" horiz-adv-x="1159" d="M41 1219v215h1077v-215h-416v-1219h-245v1219h-416z" />
<glyph unicode="U" d="M164 467v967h246v-979q0 -115 78 -188t218 -73t219 74q79 72 79 187v979h245v-967q0 -233 -145 -365t-397 -133q-252 0 -398 131q-145 133 -145 367z" />
<glyph unicode="V" horiz-adv-x="1349" d="M41 1352v82h235l404 -1106l395 1106h234v-82l-512 -1352h-242z" />
<glyph unicode="W" horiz-adv-x="1703" d="M82 1352v82h242l211 -1041l245 672h156l250 -678l207 1047h229v-82l-287 -1352h-229l-254 688l-254 -688h-229z" />
<glyph unicode="X" horiz-adv-x="1327" d="M61 0v82l449 659l-414 611v82h250l318 -500l331 500h236v-82l-418 -609l453 -661v-82h-250l-359 545l-360 -545h-236z" />
<glyph unicode="Y" horiz-adv-x="1257" d="M20 1352v82h242l369 -635l381 635h225v-82l-485 -774v-578h-246v567z" />
<glyph unicode="Z" horiz-adv-x="1200" d="M82 0v213l733 1006h-702v215h985v-211l-736 -1008h756v-215h-1036z" />
<glyph unicode="[" horiz-adv-x="686" d="M184 -328v1897h420v-205h-194v-1487h194v-205h-420z" />
<glyph unicode="\" horiz-adv-x="952" d="M82 1487v82h201l587 -1692v-82h-200z" />
<glyph unicode="]" horiz-adv-x="686" d="M82 -123h194v1487h-194v205h420v-1897h-420v205z" />
<glyph unicode="^" horiz-adv-x="1075" d="M123 793v81l317 570h191l321 -570v-81h-192l-225 397l-220 -397h-192z" />
<glyph unicode="_" horiz-adv-x="1140" d="M-2 -78h1145v-188h-1145v188z" />
<glyph unicode="`" horiz-adv-x="612" d="M123 1417v78h203l163 -287h-182z" />
<glyph unicode="a" horiz-adv-x="1144" d="M92 300q0 157 111 244t329 87h234v84q0 170 -201 170q-96 0 -148 -41t-52 -111h-220q0 166 109 261q108 96 312 96t315 -96t110 -265v-729h-131l-86 119q-118 -144 -325 -144q-158 0 -258 84q-99 84 -99 241zM317 313q1 -133 168 -133t281 121v158h-234q-215 0 -215 -146 z" />
<glyph unicode="b" horiz-adv-x="1206" d="M164 0v1444h225v-483q105 129 289 129t290 -102t105 -290v-331q1 -188 -107 -290t-270 -102q-199 0 -317 144l-84 -119h-131zM389 317q129 -137 258 -137q85 0 143 56t58 147v299q0 90 -56 146t-143 57q-131 0 -260 -137v-431z" />
<glyph unicode="c" horiz-adv-x="1103" d="M117 371v323q0 182 120 288q121 106 323 108q202 0 319 -104t116 -288v-12h-225v12q0 86 -55 136t-157 51q-102 0 -160 -49q-56 -49 -56 -138v-331q0 -87 56 -137t158 -50t159 50q55 50 55 137v18h225v-14q1 -180 -119 -288t-320 -108q-200 1 -320 107t-119 289z" />
<glyph unicode="d" horiz-adv-x="1206" d="M133 367v331q-1 188 105 290t290 102t289 -129v483h225v-1444h-131l-84 119q-118 -144 -317 -144q-164 1 -270 101t-107 291zM358 383q0 -91 58 -147t143 -56q129 0 258 137v431q-129 137 -260 137q-86 -1 -142 -57t-57 -146v-299z" />
<glyph unicode="e" horiz-adv-x="1126" d="M117 367v327q0 180 125 288q124 108 328 108t322 -104t118 -288v-239h-668v-88q0 -87 60 -139t169 -52q180 0 211 142h226q-16 -162 -132 -254q-114 -92 -314 -93q-200 1 -322 105t-123 287zM342 631h442v67q0 86 -58 136t-162 51q-104 0 -164 -50q-58 -51 -58 -137v-67z " />
<glyph unicode="f" horiz-adv-x="706" d="M31 868v197h164q0 179 97 281t298 102q23 0 76 -4v-197h-48q-106 0 -152 -43t-46 -139h231v-197h-231v-868h-225v868h-164z" />
<glyph unicode="g" horiz-adv-x="1206" d="M133 475v223q1 190 107 290t288 102q182 0 299 -144l84 119h131v-1006q0 -201 -116 -306t-322 -105q-204 0 -324 94t-120 258h225q0 -61 57 -104t160 -43q215 0 215 200v160q-105 -129 -289 -129t-289 101t-106 290zM358 487q0 -90 58 -144t151 -54q133 0 250 133v330 q-117 133 -250 133q-94 -1 -151 -55t-58 -144v-199z" />
<glyph unicode="h" horiz-adv-x="1216" d="M164 0v1444h225v-483q117 129 292 129t278 -109t104 -295v-686h-225v666q0 106 -54 162t-141 57q-141 0 -254 -137v-748h-225z" />
<glyph unicode="i" horiz-adv-x="552" d="M164 0v1065h225v-1065h-225zM164 1219v225h225v-225h-225z" />
<glyph unicode="j" horiz-adv-x="555" d="M-27 -152h47q146 1 146 183v1034h225v-1034q0 -226 -144 -326q-83 -57 -200 -57q-25 0 -74 4v196zM166 1219v225h225v-225h-225z" />
<glyph unicode="k" horiz-adv-x="1110" d="M164 0v1444h225v-801h141l281 422h186v-107l-266 -401l297 -451v-106h-203l-297 446h-139v-446h-225z" />
<glyph unicode="l" horiz-adv-x="552" d="M164 0v1444h225v-1444h-225z" />
<glyph unicode="m" horiz-adv-x="1804" d="M164 0v1065h131l84 -119q123 144 317 144t275 -166q131 166 340 166q162 0 251 -100t89 -279v-711h-226v686q0 96 -46 148q-45 51 -121 51h-3q-129 0 -235 -137v-748h-225v686q0 96 -46 148q-45 51 -121 51h-3q-131 0 -236 -137v-748h-225z" />
<glyph unicode="n" horiz-adv-x="1216" d="M164 0v1065h131l84 -119q119 144 301 144t282 -108t101 -296v-686h-225v666q0 106 -54 162t-141 57q-141 0 -254 -137v-748h-225z" />
<glyph unicode="o" horiz-adv-x="1142" d="M117 371v323q0 178 120 287q121 109 335 109t334 -109t120 -287v-323q0 -178 -120 -287t-335 -109t-335 109t-119 287zM342 381q0 -90 60 -145q60 -56 169 -56t169 56t61 145v303q-1 90 -61 145t-169 55t-169 -54q-60 -56 -60 -146v-303z" />
<glyph unicode="p" horiz-adv-x="1206" d="M164 -328v1393h131l84 -119q119 143 317 144q162 0 270 -102t107 -290v-331q0 -187 -105 -289t-290 -102t-289 128v-432h-225zM389 317q129 -137 258 -137q85 0 143 56t58 147v299q0 90 -56 146t-143 57q-131 0 -260 -137v-431z" />
<glyph unicode="q" horiz-adv-x="1206" d="M133 367v331q1 190 107 290t288 102q182 0 299 -144l84 119h131v-1393h-225v432q-105 -129 -289 -129h-4q-181 0 -285 101q-105 102 -106 291zM358 383q0 -91 58 -147t143 -56q129 0 258 137v431q-129 137 -260 137q-86 -1 -142 -57t-57 -146v-299z" />
<glyph unicode="r" horiz-adv-x="757" d="M164 0v1065h112l86 -119q125 143 293 144h41v-216h-30q-178 0 -277 -114v-760h-225z" />
<glyph unicode="s" horiz-adv-x="1132" d="M102 367h226q0 -86 70 -137q72 -50 176 -50t157 32t53 85q0 80 -116 111l-277 71q-125 33 -191 99t-65 184q0 150 114 238q113 88 311 90q198 0 314 -100t117 -281h-225q0 84 -60 130t-156 46t-143 -31q-46 -31 -47 -82q0 -72 117 -102l275 -68q258 -66 258 -287 q0 -150 -120 -245t-329 -95h-4q-206 0 -330 103q-125 104 -125 289z" />
<glyph unicode="t" horiz-adv-x="776" d="M41 868v197h164v221h225v-221h254v-197h-254v-489q0 -182 145 -182h109v-197h-109q-371 0 -370 381v487h-164z" />
<glyph unicode="u" horiz-adv-x="1210" d="M154 379v686h225v-666q0 -106 52 -162t140 -57q137 0 250 137v748h226v-1065h-132l-86 119q-117 -144 -297 -144t-279 108t-99 296z" />
<glyph unicode="v" horiz-adv-x="1044" d="M41 958v107h209l280 -758l269 758h205v-107l-379 -958h-205z" />
<glyph unicode="w" horiz-adv-x="1470" d="M92 958v107h205l170 -758l192 565h154l193 -565l170 758h202v-107l-233 -958h-213l-195 520l-196 -520h-217z" />
<glyph unicode="x" horiz-adv-x="1075" d="M82 0v106l313 426l-309 426v107h203l248 -360l249 360h191v-107l-303 -417l319 -435v-106h-200l-261 379l-258 -379h-192z" />
<glyph unicode="y" horiz-adv-x="1046" d="M41 958v107h209l280 -758l269 758h207v-107l-508 -1286h-185v82l107 246z" />
<glyph unicode="z" horiz-adv-x="1081" d="M102 0v197l562 671h-543v197h813v-197l-565 -671h589v-197h-856z" />
<glyph unicode="{" horiz-adv-x="692" d="M61 530v205h54q117 0 116 162v279q1 184 101 288t278 105v-205q-72 0 -112 -49t-41 -127v-350q0 -147 -125 -205q125 -57 125 -205v-375q1 -78 41 -127t112 -49v-205q-178 0 -278 104t-101 290v303q0 162 -116 161h-54z" />
<glyph unicode="|" horiz-adv-x="593" d="M184 -205v1774h226v-1774h-226z" />
<glyph unicode="}" horiz-adv-x="692" d="M82 -123q72 0 113 49t41 127v375q0 147 124 205q-125 57 -124 205v350q0 78 -41 127t-113 49v205q178 -1 278 -105t101 -288v-279q0 -162 117 -162h53v-205h-53q-117 0 -117 -161v-303q-1 -184 -101 -289t-278 -105v205z" />
<glyph unicode="~" horiz-adv-x="1005" d="M82 578q117 225 252 225q86 0 162 -51l36 -25q70 -49 106 -49t64 24t68 91l154 -93q-121 -225 -252 -225q-78 0 -135 37l-45 27q-22 11 -60 36t-70 25q-30 0 -58 -24t-68 -91z" />
<glyph unicode="&#xa1;" horiz-adv-x="606" d="M184 813v252h238v-252h-238zM190 -328v955h226v-955h-226z" />
<glyph unicode="&#xa2;" horiz-adv-x="1116" d="M117 547v323q0 160 97 264t263 126v174h164v-172q172 -18 269 -120t98 -268v-12h-226v12q0 68 -39 116t-108 63v-691q147 35 147 181v18h226v-14q0 -160 -100 -265t-267 -126v-156h-164v158q-168 23 -264 126t-96 263zM342 543q0 -141 141 -176v684q-141 -37 -141 -177 v-331z" />
<glyph unicode="&#xa3;" horiz-adv-x="1185" d="M82 0v205h143v416h-143v204h143v244q0 183 120 289t324 106q203 0 319 -108t116 -303v-74h-225v74q-1 98 -55 152q-54 55 -157 55t-159 -50t-57 -137v-248h294v-204h-294v-416h653v-205h-1022z" />
<glyph unicode="&#xa5;" horiz-adv-x="1187" d="M20 1352v82h207l369 -646l369 646h202v-82l-342 -574h234v-196h-352v-168h352v-197h-352v-217h-226v217h-352v197h352v168h-352v196h233z" />
<glyph unicode="&#xa6;" horiz-adv-x="593" d="M184 -205v711h226v-711h-226zM184 899v670h226v-670h-226z" />
<glyph unicode="&#xa7;" horiz-adv-x="1198" d="M102 57h217q1 -113 89 -166t202 -47q109 0 168 39q60 39 60 103t-45 97q-45 32 -177 77l-94 33q-203 71 -294 155t-91 226t137 292q-72 56 -100 110t-27 142q0 146 120 238t332 92t339 -100t127 -299h-215q0 104 -82 153q-84 49 -189 49t-161 -39t-56 -93t33 -87t199 -92 l96 -33q203 -71 294 -155t91 -226t-137 -293q72 -55 100 -108t27 -141q0 -144 -126 -240t-342 -96q-215 0 -355 105t-140 304zM360 596q1 -129 234 -213l184 -66q80 98 80 189q0 129 -233 211l-185 67q-80 -98 -80 -188z" />
<glyph unicode="&#xa8;" horiz-adv-x="874" d="M123 1219v225h225v-225h-225zM526 1219v225h226v-225h-226z" />
<glyph unicode="&#xa9;" horiz-adv-x="1761" d="M143 716q0 314 212 531q211 217 525 217t526 -217t212 -531t-213 -530q-213 -217 -525 -217t-524 217q-212 216 -213 530zM307 718q0 -251 164 -425q166 -170 410 -170q245 0 409 171t164 424t-166 421q-162 172 -406 172t-410 -171q-165 -171 -165 -422zM524 618v199 q0 158 93 245t255 87t256 -82q92 -82 93 -236v-6h-179v6q0 76 -48 118t-113 42q-178 0 -179 -162v-221q0 -164 179 -164q69 0 115 43t46 119v4h179v-4q0 -154 -93 -236t-255 -83q-162 0 -256 87q-93 87 -93 244z" />
<glyph unicode="&#xaa;" horiz-adv-x="897" d="M102 932q0 217 320 217h121v45q-1 82 -97 82t-96 -90h-213q0 118 79 188q78 70 228 70t230 -64t80 -176v-471h-123l-49 66q-82 -76 -208 -76t-199 54t-73 155zM315 952q0 -68 85 -67q85 0 143 63v72h-119q-109 0 -109 -68z" />
<glyph unicode="&#xab;" horiz-adv-x="1116" d="M82 563l287 430h194v-65l-244 -365l244 -366v-66h-194zM512 563l287 430h194v-65l-243 -365l243 -366v-66h-194z" />
<glyph unicode="&#xac;" horiz-adv-x="1146" d="M123 768v188h901v-553h-203v365h-698z" />
<glyph unicode="&#xad;" horiz-adv-x="905" d="M123 539v204h659v-204h-659z" />
<glyph unicode="&#xae;" horiz-adv-x="847" d="M82 1112q0 150 100 251t242 101t242 -101t100 -252t-99 -251t-243 -100t-244 100q-98 102 -98 252zM164 1112q0 -119 77 -197q77 -77 183 -77t184 77q76 78 76 197t-76 197q-76 77 -184 77t-184 -78t-76 -196zM287 934v360h155q61 0 97 -29q35 -30 34 -81q0 -84 -84 -115 l84 -108v-27h-71l-90 123h-50v-123h-75zM362 1124h80q55 0 56 52q0 47 -56 47h-80v-99z" />
<glyph unicode="&#xaf;" horiz-adv-x="874" d="M123 1239v184h629v-184h-629z" />
<glyph unicode="&#xb0;" horiz-adv-x="798" d="M82 1038v115q0 147 84 229t234 82t233 -82q84 -82 84 -229v-115q0 -147 -84 -229t-234 -82q-149 0 -233 82t-84 229zM281 1008q1 -51 33 -85t85 -34t86 34t33 85v176q0 51 -33 85t-86 34t-86 -34t-32 -85v-176z" />
<glyph unicode="&#xb1;" horiz-adv-x="1146" d="M123 0v188h901v-188h-901zM123 682v188h348v330h205v-330h348v-188h-348v-330h-205v330h-348z" />
<glyph unicode="&#xb2;" horiz-adv-x="649" d="M61 1180q0 124 71 194q72 70 184 70t180 -64t68 -153q0 -91 -32 -143q-31 -52 -104 -113l-86 -70h225v-168h-495v168l202 170q56 49 74 69t19 48q0 59 -60 59q-29 0 -46 -18t-17 -49h-183z" />
<glyph unicode="&#xb3;" horiz-adv-x="673" d="M61 979h164q0 -88 105 -88q86 0 86 63t-86 64h-78v129h78q33 0 52 19t19 47q0 29 -20 47t-55 18q-88 0 -88 -96h-166q0 126 68 194t188 68t186 -56t66 -148t-78 -136q42 -16 70 -58t28 -96q0 -100 -70 -164t-193 -63q-122 0 -199 72t-77 184z" />
<glyph unicode="&#xb4;" horiz-adv-x="612" d="M123 1208l164 287h202v-78l-184 -209h-182z" />
<glyph unicode="&#xb5;" horiz-adv-x="1220" d="M164 -328v1393h225v-639q0 -98 65 -170t150 -72q52 0 100 25t70 44t57 64v748h226v-1065h-131l-86 119q-51 -59 -66 -72q-76 -72 -201 -72q-53 0 -104 28t-80 67v-398h-225z" />
<glyph unicode="&#xb6;" horiz-adv-x="1269" d="M82 1085v17q0 158 95 245t263 87h645v-1612h-215v1407h-215v-1407h-215v932q-168 0 -263 87t-95 244z" />
<glyph unicode="&#xb7;" horiz-adv-x="563" d="M143 504v278h277v-278h-277z" />
<glyph unicode="&#xb8;" horiz-adv-x="612" d="M135 -250l178 250h183l-158 -328h-203v78z" />
<glyph unicode="&#xb9;" horiz-adv-x="550" d="M61 1155v109l263 170h84v-701h-211v422h-136z" />
<glyph unicode="&#xba;" horiz-adv-x="839" d="M82 1055v57q0 160 89 246t250 86t249 -86t88 -246v-57q0 -160 -88 -246t-249 -86t-250 86t-89 246zM293 1032q0 -55 36 -92t91 -37t91 37t36 92v103q0 55 -36 92t-91 37t-91 -37t-36 -92v-103z" />
<glyph unicode="&#xbb;" horiz-adv-x="1116" d="M123 131v66l244 366l-244 365v65h194l287 -430l-287 -432h-194zM553 131v66l244 366l-244 365v65h195l286 -430l-286 -432h-195z" />
<glyph unicode="&#xbc;" horiz-adv-x="1521" d="M61 1155v109l263 170h84v-701h-211v422h-136zM197 0v82l829 1352h174v-82l-829 -1352h-174zM827 119v139l269 442h143v-100l-195 -326h156v134h211v-134h90v-155h-90v-119h-211v119h-373z" />
<glyph unicode="&#xbd;" horiz-adv-x="1527" d="M61 1155v109l263 170h84v-701h-211v422h-136zM197 0v82l829 1352h174v-82l-829 -1352h-174zM940 446q0 123 71 194t183 71q112 1 180 -63t68 -154t-31 -143q-31 -52 -104 -113l-86 -70h225v-168h-496v168l203 170q57 50 75 70t17 47q0 59 -59 59q-29 0 -46 -18t-18 -50 h-182z" />
<glyph unicode="&#xbe;" horiz-adv-x="1613" d="M61 979h164q0 -88 105 -88q86 0 86 63t-86 64h-78v129h78q33 0 52 19t19 47q0 29 -20 47t-55 18q-88 0 -88 -96h-166q0 126 68 194t188 68t186 -56t66 -148t-78 -136q42 -16 70 -58t28 -96q0 -100 -70 -164t-193 -63q-122 0 -199 72t-77 184zM289 0v82l829 1352h174v-82 l-829 -1352h-174zM920 119v139l268 442h143v-100l-194 -326h155v134h211v-134h90v-155h-90v-119h-211v119h-372z" />
<glyph unicode="&#xbf;" horiz-adv-x="1064" d="M61 36q0 165 132 292q59 55 151 112l78 49v138h225v-217l-172 -105q-104 -63 -146 -117t-42 -142q0 -89 57 -141t172 -52q116 -1 184 67t68 193h215q0 -223 -133 -344t-346 -121t-328 112t-115 276zM416 813v252h237v-252h-237z" />
<glyph unicode="&#xc0;" horiz-adv-x="1347" d="M41 0v82l512 1352h242l512 -1352v-82h-242l-127 354h-541l-129 -354h-227zM375 1786v84h217l176 -309h-195zM471 559h393l-194 547z" />
<glyph unicode="&#xc1;" horiz-adv-x="1347" d="M41 0v82l512 1352h242l512 -1352v-82h-242l-127 354h-541l-129 -354h-227zM471 559h393l-194 547zM592 1561l176 309h217v-84l-197 -225h-196z" />
<glyph unicode="&#xc2;" horiz-adv-x="1347" d="M41 0v82l512 1352h242l512 -1352v-82h-242l-127 354h-541l-129 -354h-227zM358 1561v77l217 232h195l217 -232v-77h-184l-131 147l-133 -147h-181zM471 559h393l-194 547z" />
<glyph unicode="&#xc3;" horiz-adv-x="1347" d="M41 0v82l512 1352h242l512 -1352v-82h-242l-127 354h-541l-129 -354h-227zM293 1630q104 207 229 207q76 0 152 -49l33 -23q61 -43 103 -43t110 105l137 -84q-102 -207 -228 -207q-76 0 -135 39l-37 22q-89 51 -125 51t-102 -102zM471 559h393l-194 547z" />
<glyph unicode="&#xc4;" horiz-adv-x="1347" d="M41 0v82l512 1352h242l512 -1352v-82h-242l-127 354h-541l-129 -354h-227zM334 1573v242h241v-242h-241zM471 559h393l-194 547zM768 1573v242h240v-242h-240z" />
<glyph unicode="&#xc5;" horiz-adv-x="1347" d="M41 0v82l512 1352h242l512 -1352v-82h-242l-127 354h-541l-129 -354h-227zM432 1734q0 94 71 158t166 64t167 -66t72 -156t-72 -157q-72 -66 -167 -66q-95 1 -166 65t-71 158zM471 559h393l-194 547zM574 1726q0 -46 48 -69t96 0t47 69t-29 72t-66 27q-38 0 -67 -27 q-28 -26 -29 -72z" />
<glyph unicode="&#xc6;" horiz-adv-x="2031" d="M20 0v82l852 1352h1055v-215h-674v-398h578v-205h-578v-401h676v-215h-921v354h-543l-223 -354h-222zM594 559h414v655z" />
<glyph unicode="&#xc7;" horiz-adv-x="1351" d="M143 485v463q-1 246 145 381t392 135t398 -126q151 -126 151 -369v-21h-246v21q0 133 -88 201t-197 69q-154 0 -232 -71t-77 -203v-496q0 -133 78 -204t231 -70q109 1 197 69t88 201v20h246v-20q0 -227 -130 -351t-333 -143l-143 -299h-203v78l162 227q-213 29 -326 160 t-113 348z" />
<glyph unicode="&#xc8;" horiz-adv-x="1208" d="M184 0v1434h920v-215h-674v-398h578v-205h-578v-401h676v-215h-922zM395 1786v84h217l176 -309h-194z" />
<glyph unicode="&#xc9;" horiz-adv-x="1208" d="M184 0v1434h920v-215h-674v-398h578v-205h-578v-401h676v-215h-922zM485 1561l177 309h217v-84l-197 -225h-197z" />
<glyph unicode="&#xca;" horiz-adv-x="1208" d="M184 0v1434h920v-215h-674v-398h578v-205h-578v-401h676v-215h-922zM334 1561v77l217 232h194l218 -232v-77h-185l-131 147l-133 -147h-180z" />
<glyph unicode="&#xcb;" horiz-adv-x="1208" d="M184 0v1434h920v-215h-674v-398h578v-205h-578v-401h676v-215h-922zM307 1573v242h242v-242h-242zM739 1573v242h242v-242h-242z" />
<glyph unicode="&#xcc;" horiz-adv-x="614" d="M25 1786v84h217l176 -309h-195zM184 0v1434h246v-1434h-246z" />
<glyph unicode="&#xcd;" horiz-adv-x="614" d="M184 0v1434h246v-1434h-246zM215 1561l176 309h217v-84l-196 -225h-197z" />
<glyph unicode="&#xce;" horiz-adv-x="614" d="M-6 1561v77l217 232h195l217 -232v-77h-185l-131 147l-133 -147h-180zM184 0v1434h246v-1434h-246z" />
<glyph unicode="&#xcf;" horiz-adv-x="614" d="M-29 1573v242h242v-242h-242zM184 0v1434h246v-1434h-246zM406 1573v242h239v-242h-239z" />
<glyph unicode="&#xd0;" horiz-adv-x="1452" d="M41 616v205h192v613h512q262 0 413 -131t151 -365v-442q0 -232 -151 -364t-413 -132h-512v616h-192zM479 215h266q147 0 233 76q85 76 85 198v455q0 123 -85 199t-233 76h-266v-398h289v-205h-289v-401z" />
<glyph unicode="&#xd1;" horiz-adv-x="1454" d="M184 0v1434h226l614 -977v977h246v-1434h-226l-614 977v-977h-246zM350 1630q104 207 230 207q76 0 151 -49l33 -23q61 -43 103 -43t110 105l137 -84q-102 -207 -227 -207q-76 0 -135 39l-37 22q-88 51 -125 51t-103 -102z" />
<glyph unicode="&#xd2;" d="M143 485v463q0 240 152 378t412 138q259 0 411 -138t152 -378v-463q0 -239 -152 -377t-412 -138t-411 137q-152 138 -152 378zM389 473q0 -125 84 -202t234 -77q149 0 233 78q84 76 84 201v488q0 125 -84 201t-234 77q-150 0 -233 -77q-84 -77 -84 -201v-488zM432 1786 v84h217l176 -309h-194z" />
<glyph unicode="&#xd3;" d="M143 485v463q0 240 152 378t412 138q259 0 411 -138t152 -378v-463q0 -239 -152 -377t-412 -138t-411 137q-152 138 -152 378zM389 473q0 -125 84 -202t234 -77q149 0 233 78q84 76 84 201v488q0 125 -84 201t-234 77q-150 0 -233 -77q-84 -77 -84 -201v-488zM608 1561 l176 309h217v-84l-196 -225h-197z" />
<glyph unicode="&#xd4;" d="M143 485v463q0 240 152 378t412 138q259 0 411 -138t152 -378v-463q0 -239 -152 -377t-412 -138t-411 137q-152 138 -152 378zM389 473q0 -125 84 -202t234 -77q149 0 233 78q84 76 84 201v488q0 125 -84 201t-234 77q-150 0 -233 -77q-84 -77 -84 -201v-488zM395 1561 v77l217 232h195l217 -232v-77h-184l-131 147l-134 -147h-180z" />
<glyph unicode="&#xd5;" d="M143 485v463q0 240 152 378t412 138q259 0 411 -138t152 -378v-463q0 -239 -152 -377t-412 -138t-411 137q-152 138 -152 378zM338 1630q104 207 229 207q76 0 152 -49l33 -23q61 -43 103 -43t110 105l137 -84q-102 -207 -228 -207q-76 0 -135 39l-37 22q-88 51 -124 51 t-103 -102zM389 473q0 -125 84 -202t234 -77q149 0 233 78q84 76 84 201v488q0 125 -84 201t-234 77q-150 0 -233 -77q-84 -77 -84 -201v-488z" />
<glyph unicode="&#xd6;" d="M143 485v463q0 240 152 378t412 138q259 0 411 -138t152 -378v-463q0 -239 -152 -377t-412 -138t-411 137q-152 138 -152 378zM371 1573v242h241v-242h-241zM389 473q0 -125 84 -202t234 -77q149 0 233 78q84 76 84 201v488q0 125 -84 201t-234 77q-150 0 -233 -77 q-84 -77 -84 -201v-488zM805 1573v242h239v-242h-239z" />
<glyph unicode="&#xd7;" horiz-adv-x="1144" d="M123 330l303 305l-303 305l145 145l303 -305l306 305l145 -145l-305 -305l305 -305l-145 -146l-306 305l-303 -305z" />
<glyph unicode="&#xd8;" d="M143 485v463q0 240 152 378t412 138q76 0 147 -12l61 186h181v-82l-58 -172q231 -135 232 -436v-463q0 -239 -152 -377t-411 -139q-76 0 -140 13l-63 -187h-180v82l57 168q-238 133 -238 440zM389 473q0 -119 78 -197l319 955q-43 8 -79 8q-150 0 -234 -77t-84 -201v-488 zM635 201q35 -6 72 -6q149 1 233 77t84 201v488q0 113 -74 190z" />
<glyph unicode="&#xd9;" d="M164 467v967h246v-979q0 -115 78 -188t218 -73t219 74q79 72 79 187v979h245v-967q0 -233 -145 -365t-397 -133q-252 0 -398 131q-145 133 -145 367zM453 1786v84h217l176 -309h-195z" />
<glyph unicode="&#xda;" d="M164 467v967h246v-979q0 -115 78 -188t218 -73t219 74q79 72 79 187v979h245v-967q0 -233 -145 -365t-397 -133q-252 0 -398 131q-145 133 -145 367zM582 1561l176 309h217v-84l-197 -225h-196z" />
<glyph unicode="&#xdb;" d="M164 467v967h246v-979q0 -115 78 -188t218 -73t219 74q79 72 79 187v979h245v-967q0 -233 -145 -365t-397 -133q-252 0 -398 131q-145 133 -145 367zM393 1561v77l217 232h195l217 -232v-77h-184l-131 147l-134 -147h-180z" />
<glyph unicode="&#xdc;" d="M164 467v967h246v-979q0 -115 78 -188t218 -73t219 74q79 72 79 187v979h245v-967q0 -233 -145 -365t-397 -133q-252 0 -398 131q-145 133 -145 367zM371 1573v242h241v-242h-241zM805 1573v242h239v-242h-239z" />
<glyph unicode="&#xdd;" horiz-adv-x="1257" d="M20 1352v82h242l369 -635l381 635h225v-82l-485 -774v-578h-246v567zM510 1561l176 309h217v-84l-196 -225h-197z" />
<glyph unicode="&#xde;" horiz-adv-x="1300" d="M184 0v1434h246v-271h375q188 0 296 -119q107 -120 107 -322t-108 -321t-295 -118h-375v-283h-246zM430 498h332q88 0 142 59t54 165t-54 166t-142 60h-332v-450z" />
<glyph unicode="&#xdf;" horiz-adv-x="1226" d="M164 0v952q0 236 120 366t328 130t324 -107q117 -104 117 -260q0 -213 -154 -290q97 -37 161 -135t64 -222q0 -202 -126 -318t-341 -116q-57 0 -129 10v201q59 -6 113 -6q123 -1 191 67t67 180q0 112 -68 174t-188 62h-96v193h78q193 0 192 184q0 80 -51 129t-156 49 q-105 1 -163 -69t-58 -199v-975h-225z" />
<glyph unicode="&#xe0;" horiz-adv-x="1144" d="M92 300q0 157 111 244t329 87h234v84q0 170 -201 170q-96 0 -148 -41t-52 -111h-220q0 166 109 261q108 96 312 96t315 -96t110 -265v-729h-131l-86 119q-118 -144 -325 -144q-158 0 -258 84q-99 84 -99 241zM317 313q1 -133 168 -133t281 121v158h-234q-215 0 -215 -146 zM350 1417v78h203l164 -287h-182z" />
<glyph unicode="&#xe1;" horiz-adv-x="1144" d="M92 300q0 157 111 244t329 87h234v84q0 170 -201 170q-96 0 -148 -41t-52 -111h-220q0 166 109 261q108 96 312 96t315 -96t110 -265v-729h-131l-86 119q-118 -144 -325 -144q-158 0 -258 84q-99 84 -99 241zM317 313q1 -133 168 -133t281 121v158h-234q-215 0 -215 -146 zM449 1208l163 287h203v-78l-184 -209h-182z" />
<glyph unicode="&#xe2;" horiz-adv-x="1144" d="M92 300q0 157 111 244t329 87h234v84q0 170 -201 170q-96 0 -148 -41t-52 -111h-220q0 166 109 261q108 96 312 96t315 -96t110 -265v-729h-131l-86 119q-118 -144 -325 -144q-158 0 -258 84q-99 84 -99 241zM268 1208v72l203 215h180l203 -215v-72h-172l-123 138 l-123 -138h-168zM317 313q1 -133 168 -133t281 121v158h-234q-215 0 -215 -146z" />
<glyph unicode="&#xe3;" horiz-adv-x="1144" d="M92 300q0 157 111 244t329 87h234v84q0 170 -201 170q-96 0 -148 -41t-52 -111h-220q0 166 109 261q108 96 312 96t315 -96t110 -265v-729h-131l-86 119q-118 -144 -325 -144q-158 0 -258 84q-99 84 -99 241zM223 1298q104 201 223 201q76 0 148 -47l33 -22 q59 -41 101 -41t106 100l135 -82q-104 -201 -224 -201q-72 0 -131 39l-34 21q-4 4 -32 18t-39 23t-49 9t-102 -99zM317 313q1 -133 168 -133t281 121v158h-234q-215 0 -215 -146z" />
<glyph unicode="&#xe4;" horiz-adv-x="1144" d="M92 300q0 157 111 244t329 87h234v84q0 170 -201 170q-96 0 -148 -41t-52 -111h-220q0 166 109 261q108 96 312 96t315 -96t110 -265v-729h-131l-86 119q-118 -144 -325 -144q-158 0 -258 84q-99 84 -99 241zM248 1219v225h225v-225h-225zM317 313q1 -133 168 -133 t281 121v158h-234q-215 0 -215 -146zM651 1219v225h226v-225h-226z" />
<glyph unicode="&#xe5;" horiz-adv-x="1144" d="M92 300q0 157 111 244t329 87h234v84q0 170 -201 170q-96 0 -148 -41t-52 -111h-220q0 166 109 261q108 96 312 96t315 -96t110 -265v-729h-131l-86 119q-118 -144 -325 -144q-158 0 -258 84q-99 84 -99 241zM317 313q1 -133 168 -133t281 121v158h-234q-215 0 -215 -146 zM346 1368q0 86 66 146t156 60t155 -60q66 -60 66 -146t-66 -146t-156 -60q-89 0 -155 60t-66 146zM484 1390q-12 -42 22 -80q35 -38 84 -22t61 58t-22 81q-35 37 -84 21t-61 -58z" />
<glyph unicode="&#xe6;" horiz-adv-x="1775" d="M92 300q0 157 111 244t329 87h234v84q0 170 -201 170q-96 0 -148 -41t-52 -111h-220q0 166 109 261q110 96 316 96t321 -107q121 107 327 107t324 -104t117 -288v-239h-668v-88q1 -87 61 -139t169 -52q180 0 211 142h225q-16 -162 -131 -254t-305 -93q-295 0 -406 191 q-139 -191 -366 -191q-158 0 -258 84q-99 84 -99 241zM317 313q1 -133 168 -133t281 121v158h-234q-215 0 -215 -146zM991 631h443v67q0 86 -58 136t-164 51q-104 -1 -162 -51t-59 -136v-67z" />
<glyph unicode="&#xe7;" horiz-adv-x="1103" d="M117 371v323q0 182 120 288q121 106 323 108q202 0 319 -104t116 -288v-12h-225v12q0 86 -55 136t-157 51q-102 0 -160 -49q-56 -49 -56 -138v-331q0 -87 56 -137t158 -50t159 50q55 50 55 137v18h225v-14q0 -161 -98 -267t-264 -124l-148 -308h-202v78l166 236 q-156 27 -244 128t-88 257z" />
<glyph unicode="&#xe8;" horiz-adv-x="1126" d="M117 367v327q0 180 125 288q124 108 328 108t322 -104t118 -288v-239h-668v-88q0 -87 60 -139t169 -52q180 0 211 142h226q-16 -162 -132 -254q-114 -92 -314 -93q-200 1 -322 105t-123 287zM342 631h442v67q0 86 -58 136t-162 51q-104 0 -164 -50q-58 -51 -58 -137v-67z M356 1417v78h203l164 -287h-182z" />
<glyph unicode="&#xe9;" horiz-adv-x="1126" d="M117 367v327q0 180 125 288q124 108 328 108t322 -104t118 -288v-239h-668v-88q0 -87 60 -139t169 -52q180 0 211 142h226q-16 -162 -132 -254q-114 -92 -314 -93q-200 1 -322 105t-123 287zM342 631h442v67q0 86 -58 136t-162 51q-104 0 -164 -50q-58 -51 -58 -137v-67z M420 1208l164 287h202v-78l-184 -209h-182z" />
<glyph unicode="&#xea;" horiz-adv-x="1126" d="M117 367v327q0 180 125 288q124 108 328 108t322 -104t118 -288v-239h-668v-88q0 -87 60 -139t169 -52q180 0 211 142h226q-16 -162 -132 -254q-114 -92 -314 -93q-200 1 -322 105t-123 287zM276 1208v72l203 215h180l203 -215v-72h-172l-123 138l-123 -138h-168z M342 631h442v67q0 86 -58 136t-162 51q-104 0 -164 -50q-58 -51 -58 -137v-67z" />
<glyph unicode="&#xeb;" horiz-adv-x="1126" d="M117 367v327q0 180 125 288q124 108 328 108t322 -104t118 -288v-239h-668v-88q0 -87 60 -139t169 -52q180 0 211 142h226q-16 -162 -132 -254q-114 -92 -314 -93q-200 1 -322 105t-123 287zM254 1219v225h225v-225h-225zM342 631h442v67q0 86 -58 136t-162 51 q-104 0 -164 -50q-58 -51 -58 -137v-67zM657 1219v225h226v-225h-226z" />
<glyph unicode="&#xec;" horiz-adv-x="552" d="M6 1413v78h203l164 -287h-183zM164 0v1065h225v-1065h-225z" />
<glyph unicode="&#xed;" horiz-adv-x="552" d="M164 0v1065h225v-1065h-225zM184 1208l164 287h203v-78l-184 -209h-183z" />
<glyph unicode="&#xee;" horiz-adv-x="552" d="M-16 1208v72l202 215h181l202 -215v-72h-172l-123 138l-122 -138h-168zM164 0v1065h225v-1065h-225z" />
<glyph unicode="&#xef;" horiz-adv-x="552" d="M-37 1219v225h225v-225h-225zM164 0v1065h225v-1065h-225zM367 1219v225h225v-225h-225z" />
<glyph unicode="&#xf0;" horiz-adv-x="1142" d="M117 371v215q0 188 105 290t280 101q66 0 121 -16t129 -74l-160 196h-305v134h196l-96 120v107h203l176 -227h229v-134h-129q94 -133 127 -235t33 -264v-217q0 -182 -123 -287t-331 -105q-208 1 -332 107t-123 289zM342 381q0 -90 60 -145q60 -56 169 -56t169 56t61 145 v266q-106 125 -242 125q-97 0 -157 -55t-60 -148v-188z" />
<glyph unicode="&#xf1;" horiz-adv-x="1216" d="M164 0v1065h131l84 -119q119 144 301 144t282 -108t101 -296v-686h-225v666q0 106 -54 162t-141 57q-141 0 -254 -137v-748h-225zM268 1298q104 201 224 201q76 0 147 -47l33 -22q59 -41 101 -41t106 100l135 -82q-104 -201 -223 -201q-72 0 -132 39l-34 21q-4 4 -32 18 t-39 23q-12 9 -50 9t-101 -99z" />
<glyph unicode="&#xf2;" horiz-adv-x="1142" d="M117 371v323q0 178 120 287q121 109 335 109t334 -109t120 -287v-323q0 -178 -120 -287t-335 -109t-335 109t-119 287zM326 1417v78h202l164 -287h-182zM342 381q0 -90 60 -145q60 -56 169 -56t169 56t61 145v303q-1 90 -61 145t-169 55t-169 -54q-60 -56 -60 -146v-303z " />
<glyph unicode="&#xf3;" horiz-adv-x="1142" d="M117 371v323q0 178 120 287q121 109 335 109t334 -109t120 -287v-323q0 -178 -120 -287t-335 -109t-335 109t-119 287zM342 381q0 -90 60 -145q60 -56 169 -56t169 56t61 145v303q-1 90 -61 145t-169 55t-169 -54q-60 -56 -60 -146v-303zM444 1208l164 287h203v-78 l-184 -209h-183z" />
<glyph unicode="&#xf4;" horiz-adv-x="1142" d="M117 371v323q0 178 120 287q121 109 335 109t334 -109t120 -287v-323q0 -178 -120 -287t-335 -109t-335 109t-119 287zM279 1208v72l202 215h181l202 -215v-72h-172l-123 138l-123 -138h-167zM342 381q0 -90 60 -145q60 -56 169 -56t169 56t61 145v303q-1 90 -61 145 t-169 55t-169 -54q-60 -56 -60 -146v-303z" />
<glyph unicode="&#xf5;" horiz-adv-x="1142" d="M117 371v323q0 178 120 287q121 109 335 109t334 -109t120 -287v-323q0 -178 -120 -287t-335 -109t-335 109t-119 287zM199 1298q104 201 223 201q76 0 147 -47l33 -22q60 -41 102 -41t105 100l135 -82q-104 -201 -223 -201q-72 0 -131 39l-35 21q-4 4 -32 18 q-29 14 -39 23t-48 9t-102 -99zM342 381q0 -90 60 -145q60 -56 169 -56t169 56t61 145v303q-1 90 -61 145t-169 55t-169 -54q-60 -56 -60 -146v-303z" />
<glyph unicode="&#xf6;" horiz-adv-x="1142" d="M117 371v323q0 178 120 287q121 109 335 109t334 -109t120 -287v-323q0 -178 -120 -287t-335 -109t-335 109t-119 287zM256 1219v225h225v-225h-225zM342 381q0 -90 60 -145q60 -56 169 -56t169 56t61 145v303q-1 90 -61 145t-169 55t-169 -54q-60 -56 -60 -146v-303z M659 1219v225h226v-225h-226z" />
<glyph unicode="&#xf7;" horiz-adv-x="1146" d="M123 547v188h901v-188h-901zM442 150v253h260v-253h-260zM442 879v254h260v-254h-260z" />
<glyph unicode="&#xf8;" horiz-adv-x="1155" d="M123 -152l117 238q-117 106 -117 285v323q0 178 120 287t335 109q74 0 149 -17l125 250h180v-106l-119 -238q119 -106 119 -285v-323q0 -178 -120 -287t-334 -109q-76 0 -152 17l-123 -250h-180v106zM348 381q1 -39 17 -82l284 578q-35 8 -71 8q-109 1 -169 -55t-61 -146 v-303zM502 188q27 -8 76 -8q108 0 168 56t61 145v303q0 45 -19 84z" />
<glyph unicode="&#xf9;" horiz-adv-x="1210" d="M154 379v686h225v-666q0 -106 52 -162t140 -57q137 0 250 137v748h226v-1065h-132l-86 119q-117 -144 -297 -144t-279 108t-99 296zM391 1417v78h203l164 -287h-183z" />
<glyph unicode="&#xfa;" horiz-adv-x="1210" d="M154 379v686h225v-666q0 -106 52 -162t140 -57q137 0 250 137v748h226v-1065h-132l-86 119q-117 -144 -297 -144t-279 108t-99 296zM446 1208l164 287h203v-78l-184 -209h-183z" />
<glyph unicode="&#xfb;" horiz-adv-x="1210" d="M154 379v686h225v-666q0 -106 52 -162t140 -57q137 0 250 137v748h226v-1065h-132l-86 119q-117 -144 -297 -144t-279 108t-99 296zM311 1208v72l203 215h180l203 -215v-72h-172l-123 138l-123 -138h-168z" />
<glyph unicode="&#xfc;" horiz-adv-x="1210" d="M154 379v686h225v-666q0 -106 52 -162t140 -57q137 0 250 137v748h226v-1065h-132l-86 119q-117 -144 -297 -144t-279 108t-99 296zM291 1219v225h225v-225h-225zM694 1219v225h226v-225h-226z" />
<glyph unicode="&#xfd;" horiz-adv-x="1046" d="M41 958v107h209l280 -758l269 758h207v-107l-508 -1286h-185v82l107 246zM403 1208l164 287h203v-78l-184 -209h-183z" />
<glyph unicode="&#xfe;" horiz-adv-x="1206" d="M164 -328v1772h225v-483q105 129 289 129t290 -102t105 -290v-331q0 -187 -105 -289t-290 -102t-289 128v-432h-225zM389 317q129 -137 258 -137q85 0 143 56t58 147v299q0 90 -56 146t-143 57q-131 0 -260 -137v-431z" />
<glyph unicode="&#xff;" horiz-adv-x="1046" d="M41 958v107h209l280 -758l269 758h207v-107l-508 -1286h-185v82l107 246zM209 1219v225h225v-225h-225zM612 1219v225h226v-225h-226z" />
<glyph unicode="&#x152;" horiz-adv-x="2048" d="M143 485v463q0 240 152 378t412 138q174 0 317 -108v78h920v-215h-674v-398h577v-205h-577v-401h676v-215h-922v76q-143 -107 -317 -107q-260 1 -412 139t-152 377zM389 473q0 -125 84 -201q83 -76 231 -77q148 1 234 75t86 191v500q0 125 -84 201t-234 77 q-150 0 -233 -77q-84 -77 -84 -201v-488z" />
<glyph unicode="&#x153;" horiz-adv-x="1810" d="M117 371v323q0 174 116 285q119 111 338 111t342 -117q127 117 336 117t327 -104t118 -288v-239h-668v-97q0 -82 61 -132t168 -50q180 0 211 142h226q-16 -162 -131 -254t-322 -92t-328 112q-121 -113 -338 -113t-337 109t-119 287zM342 381q0 -90 60 -145 q60 -56 169 -56t169 56t61 145v303q-1 90 -61 145t-169 55t-169 -54q-60 -56 -60 -146v-303zM1026 631h442v67q0 86 -58 136t-162 51q-104 0 -164 -50q-58 -51 -58 -137v-67z" />
<glyph unicode="&#x178;" horiz-adv-x="1257" d="M20 1352v82h242l369 -635l381 635h225v-82l-485 -774v-578h-246v567zM295 1579v242h242v-242h-242zM727 1579v242h242v-242h-242z" />
<glyph unicode="&#x2c6;" horiz-adv-x="831" d="M123 1208v72l203 215h180l203 -215v-72h-172l-123 138l-123 -138h-168z" />
<glyph unicode="&#x2dc;" horiz-adv-x="991" d="M123 1298q104 201 223 201q76 0 148 -47l32 -22q60 -41 102 -41t105 100l135 -82q-104 -201 -223 -201q-72 0 -131 39l-35 21q-4 4 -32 18q-29 14 -39 23t-48 9t-102 -99z" />
<glyph unicode="&#x2000;" horiz-adv-x="978" />
<glyph unicode="&#x2001;" horiz-adv-x="1956" />
<glyph unicode="&#x2002;" horiz-adv-x="978" />
<glyph unicode="&#x2003;" horiz-adv-x="1956" />
<glyph unicode="&#x2004;" horiz-adv-x="652" />
<glyph unicode="&#x2005;" horiz-adv-x="489" />
<glyph unicode="&#x2006;" horiz-adv-x="326" />
<glyph unicode="&#x2007;" horiz-adv-x="326" />
<glyph unicode="&#x2008;" horiz-adv-x="244" />
<glyph unicode="&#x2009;" horiz-adv-x="391" />
<glyph unicode="&#x200a;" horiz-adv-x="108" />
<glyph unicode="&#x2010;" horiz-adv-x="905" d="M123 539v204h659v-204h-659z" />
<glyph unicode="&#x2011;" horiz-adv-x="905" d="M123 539v204h659v-204h-659z" />
<glyph unicode="&#x2012;" horiz-adv-x="905" d="M123 539v204h659v-204h-659z" />
<glyph unicode="&#x2013;" horiz-adv-x="1226" d="M123 539v204h981v-204h-981z" />
<glyph unicode="&#x2014;" horiz-adv-x="1732" d="M123 539v204h1487v-204h-1487z" />
<glyph unicode="&#x2018;" horiz-adv-x="544" d="M125 934v106l168 404h178l-96 -510h-250z" />
<glyph unicode="&#x2019;" horiz-adv-x="544" d="M74 934l96 510h250v-107l-168 -403h-178z" />
<glyph unicode="&#x201a;" horiz-adv-x="532" d="M74 -231l96 510h250v-107l-168 -403h-178z" />
<glyph unicode="&#x201c;" horiz-adv-x="915" d="M125 934v106l168 404h178l-96 -510h-250zM496 934v106l168 404h178l-97 -510h-249z" />
<glyph unicode="&#x201d;" horiz-adv-x="915" d="M74 934l96 510h250v-107l-168 -403h-178zM444 934l97 510h250v-107l-168 -403h-179z" />
<glyph unicode="&#x201e;" horiz-adv-x="915" d="M74 -231l96 510h250v-107l-168 -403h-178zM444 -231l97 510h250v-107l-168 -403h-179z" />
<glyph unicode="&#x2022;" horiz-adv-x="880" d="M123 647v17q0 147 84 229q83 82 233 82t234 -82t84 -229v-17q0 -147 -84 -229t-234 -82t-234 82t-83 229z" />
<glyph unicode="&#x2026;" horiz-adv-x="1382" d="M143 0v279h277v-279h-277zM553 0v279h276v-279h-276zM963 0v279h276v-279h-276z" />
<glyph unicode="&#x202f;" horiz-adv-x="391" />
<glyph unicode="&#x2039;" horiz-adv-x="686" d="M82 563l287 430h194v-65l-244 -365l244 -366v-66h-194z" />
<glyph unicode="&#x203a;" horiz-adv-x="686" d="M123 131v66l244 366l-244 365v65h194l287 -430l-287 -432h-194z" />
<glyph unicode="&#x205f;" horiz-adv-x="489" />
<glyph unicode="&#x20ac;" horiz-adv-x="1380" d="M61 436v197h172v168h-172v196h172q15 221 151 344t362 123t368 -125q143 -125 143 -370v-21h-213v21q0 141 -80 216q-81 75 -211 75t-208 -68t-86 -195h370v-196h-370v-168h370v-197h-370q10 -126 86 -194t211 -68t212 74t76 217v20h213v-20q0 -242 -134 -369t-366 -127 t-371 120t-153 347h-172z" />
<glyph unicode="&#x2122;" horiz-adv-x="1406" d="M20 1317v117h517v-117h-193v-545h-131v545h-193zM641 772v662h127l190 -297l195 297h125v-662h-131v449l-148 -234h-84l-143 230v-445h-131z" />
<glyph unicode="&#x25fc;" horiz-adv-x="1065" d="M0 0v1065h1065v-1065h-1065z" />
</font>
</defs>
</svg>
