<?xml version="1.0" encoding="utf-8"?>
<!-- Generator: Adobe Illustrator 15.1.0, SVG Export Plug-In . SVG Version: 6.00 Build 0)  -->
<!DOCTYPE svg PUBLIC "-//W3C//DTD SVG 1.1//EN" "http://www.w3.org/Graphics/SVG/1.1/DTD/svg11.dtd">
<svg version="1.1" id="Layer_1" xmlns="http://www.w3.org/2000/svg" xmlns:xlink="http://www.w3.org/1999/xlink" x="0px" y="0px"
	 width="20px" height="20px" viewBox="0 0 20 20" enable-background="new 0 0 20 20" xml:space="preserve">
<g>
	<path d="M2.581,8.601c-0.271-0.269-0.709-0.269-0.979,0c-0.271,0.267-0.271,0.7,0,0.969L9.511,17.4
		c0.271,0.268,0.708,0.268,0.979,0l7.908-7.831c0.27-0.269,0.271-0.701,0-0.969c-0.271-0.269-0.711-0.269-0.979-0.002L9.999,15.74
		L2.581,8.601z"/>
	<path d="M2.581,2.601c-0.271-0.269-0.709-0.269-0.979,0c-0.271,0.267-0.271,0.7,0,0.969L9.511,11.4
		c0.271,0.268,0.708,0.268,0.979,0l7.908-7.831c0.27-0.269,0.271-0.701,0-0.969c-0.271-0.269-0.711-0.269-0.979-0.002L9.999,9.741
		L2.581,2.601z"/>
</g>
</svg>
