<?xml version="1.0" encoding="utf-8"?>
<!-- Generator: Adobe Illustrator 15.1.0, SVG Export Plug-In . SVG Version: 6.00 Build 0)  -->
<!DOCTYPE svg PUBLIC "-//W3C//DTD SVG 1.1//EN" "http://www.w3.org/Graphics/SVG/1.1/DTD/svg11.dtd">
<svg version="1.1" id="Layer_1" xmlns="http://www.w3.org/2000/svg" xmlns:xlink="http://www.w3.org/1999/xlink" x="0px" y="0px"
	 width="20px" height="20px" viewBox="0 0 20 20" enable-background="new 0 0 20 20" xml:space="preserve">
<g>
	<path d="M17.418,11.399c0.271,0.269,0.709,0.269,0.979,0c0.271-0.267,0.271-0.7,0-0.968l-7.908-7.831
		c-0.271-0.268-0.708-0.268-0.979,0l-7.908,7.831c-0.27,0.268-0.271,0.701,0,0.968c0.271,0.269,0.711,0.269,0.979,0.002L10,4.261
		L17.418,11.399z"/>
	<path d="M17.418,17.399c0.271,0.269,0.709,0.269,0.979,0c0.271-0.267,0.271-0.7,0-0.969l-7.908-7.83
		c-0.271-0.268-0.708-0.268-0.979,0l-7.908,7.83c-0.27,0.269-0.271,0.701,0,0.969c0.271,0.269,0.711,0.269,0.979,0.002L10,10.26
		L17.418,17.399z"/>
</g>
</svg>
