<?xml version="1.0" encoding="utf-8"?>
<!-- Generator: Adobe Illustrator 15.1.0, SVG Export Plug-In . SVG Version: 6.00 Build 0)  -->
<!DOCTYPE svg PUBLIC "-//W3C//DTD SVG 1.1//EN" "http://www.w3.org/Graphics/SVG/1.1/DTD/svg11.dtd">
<svg version="1.1" id="Layer_1" xmlns="http://www.w3.org/2000/svg" xmlns:xlink="http://www.w3.org/1999/xlink" x="0px" y="0px"
	 width="29px" height="13.907px" viewBox="0 0 29 13.907" enable-background="new 0 0 29 13.907" xml:space="preserve">
<g>
	<path fill="#FFFFFF" d="M9.501,7.766l-5.82,5.811c-0.205,0.205-0.5,0.33-0.803,0.33s-0.598-0.125-0.803-0.33l-0.679-0.669
		c-0.205-0.214-0.33-0.509-0.33-0.813s0.125-0.598,0.33-0.803l4.338-4.338L1.396,2.625c-0.205-0.214-0.33-0.509-0.33-0.813
		s0.125-0.598,0.33-0.803l0.679-0.669C2.28,0.125,2.574,0,2.878,0s0.598,0.125,0.803,0.339l5.82,5.811
		c0.205,0.205,0.33,0.5,0.33,0.803S9.707,7.552,9.501,7.766z"/>
</g>
</svg>
