<svg id="Layer_1" xmlns="http://www.w3.org/2000/svg" viewBox="0 0 167 35"><style>.st0{fill:#ececec}</style><path class="st0" d="M48.5 33.1c1.5 0 2.6-.4 3.4-1.2.8-.8 1.3-1.9 1.3-3.4v-1.4l-2.3.1c-1.9.1-3.2.4-4 .9-.8.5-1.2 1.3-1.2 2.4 0 .8.3 1.5.8 1.9.3.4 1.1.7 2 .7m5.3 1.6l-.5-2.2h-.1c-.8 1-1.5 1.6-2.3 2-.8.3-1.7.5-2.9.5-1.5 0-2.7-.4-3.6-1.2-.9-.8-1.3-1.9-1.3-3.4 0-3.1 2.5-4.8 7.5-4.9l2.6-.1v-1c0-1.2-.3-2.1-.8-2.7-.5-.6-1.4-.9-2.5-.9-1.3 0-2.8.4-4.4 1.2l-.7-1.8c.8-.4 1.6-.7 2.5-1 .9-.2 1.8-.4 2.7-.4 1.8 0 3.2.4 4.1 1.2.9.8 1.3 2.1 1.3 3.9v10.6h-1.6zM65.9 33c1.6 0 2.8-.4 3.5-1.3.7-.9 1.1-2.3 1.1-4.2V27c0-2.2-.4-3.8-1.1-4.7-.7-.9-1.9-1.4-3.5-1.4-1.4 0-2.4.5-3.2 1.6-.7 1.1-1.1 2.6-1.1 4.5 0 2 .4 3.5 1.1 4.5.7 1 1.8 1.5 3.2 1.5m4.7-.4h-.1c-1.1 1.6-2.7 2.4-4.9 2.4-2 0-3.6-.7-4.7-2.1-1.1-1.4-1.7-3.4-1.7-5.9 0-2.6.6-4.5 1.7-6 1.1-1.4 2.7-2.1 4.7-2.1 2.1 0 3.7.8 4.8 2.3h.2l-.1-1.1-.1-1.1v-6.3h2.3v22h-1.9l-.2-2.1zm10.7 2.1l-5.9-15.5h2.5l3.3 9.2c.8 2.2 1.2 3.5 1.3 4.2h.1c.1-.5.4-1.5 1-3.1s1.8-5 3.7-10.3h2.5L84 34.7h-2.7zm15-1.6c1.5 0 2.6-.4 3.4-1.2.8-.8 1.3-1.9 1.3-3.4v-1.4l-2.3.1c-1.9.1-3.2.4-4 .9-.8.5-1.2 1.3-1.2 2.4 0 .8.3 1.5.8 1.9.3.4 1 .7 2 .7m5.3 1.6l-.5-2.2h-.1c-.8 1-1.5 1.6-2.3 2-.8.3-1.7.5-2.9.5-1.5 0-2.7-.4-3.6-1.2-.9-.8-1.3-1.9-1.3-3.4 0-3.1 2.5-4.8 7.5-4.9l2.6-.1v-1c0-1.2-.3-2.1-.8-2.7-.5-.6-1.4-.9-2.5-.9-1.3 0-2.8.4-4.4 1.2l-.7-1.8c.8-.4 1.6-.7 2.5-1 .9-.1 1.9-.2 2.8-.2 1.8 0 3.2.4 4.1 1.2.9.8 1.3 2.1 1.3 3.9v10.6h-1.7zm16.7 0v-10c0-1.3-.3-2.2-.9-2.8-.6-.6-1.5-.9-2.7-.9-1.6 0-2.8.4-3.6 1.3-.8.9-1.1 2.3-1.1 4.3v8.1h-2.3V19.2h1.9l.4 2.1h.1c.5-.8 1.2-1.4 2-1.8.9-.4 1.8-.6 2.9-.6 1.9 0 3.3.5 4.2 1.4.9.9 1.4 2.3 1.4 4.3v10.1h-2.3zm13 .3c-2.2 0-4-.7-5.2-2.1-1.2-1.4-1.8-3.3-1.8-5.9 0-2.6.6-4.6 1.9-6 1.3-1.4 3-2.1 5.3-2.1.7 0 1.5.1 2.2.2.7.2 1.3.3 1.8.6l-.7 2c-.5-.2-1.1-.4-1.7-.5-.6-.1-1.2-.2-1.6-.2-3.2 0-4.7 2-4.7 6 0 1.9.4 3.4 1.2 4.4.8 1 1.9 1.5 3.4 1.5 1.3 0 2.6-.3 4-.8v2.1c-1.2.5-2.5.8-4.1.8m12.8-14.1c-1.2 0-2.2.4-3 1.2-.7.8-1.2 1.9-1.3 3.4h8.1c0-1.5-.3-2.6-1-3.4-.6-.8-1.5-1.2-2.8-1.2m.7 14.1c-2.3 0-4.1-.7-5.4-2.1-1.3-1.4-2-3.3-2-5.8s.6-4.5 1.8-6c1.2-1.5 2.9-2.2 5-2.2 1.9 0 3.5.6 4.6 1.9 1.1 1.3 1.7 3 1.7 5.1v1.5h-10.7c0 1.8.5 3.2 1.4 4.1.9.9 2.1 1.4 3.7 1.4 1.7 0 3.3-.3 5-1V34c-.8.4-1.6.6-2.4.8-.8.1-1.7.2-2.7.2m15.3-2c1.6 0 2.8-.4 3.5-1.3.7-.9 1.1-2.3 1.1-4.2V27c0-2.2-.4-3.8-1.1-4.7-.7-.9-1.9-1.4-3.5-1.4-1.4 0-2.4.5-3.2 1.6-.7 1.1-1.1 2.6-1.1 4.5 0 2 .4 3.5 1.1 4.5.7 1 1.8 1.5 3.2 1.5m4.7-.4h-.1c-1.1 1.6-2.7 2.4-4.9 2.4-2 0-3.6-.7-4.7-2.1-1.1-1.4-1.7-3.4-1.7-5.9 0-2.6.6-4.5 1.7-6 1.1-1.4 2.7-2.1 4.7-2.1 2.1 0 3.7.8 4.8 2.3h.2l-.1-1.1-.1-1.1v-6.3h2.3v22H165l-.2-2.1zM20 .4L0 35h10.6L20 18.7 29.4 35h10.5z"/></svg>