<svg xmlns="http://www.w3.org/2000/svg" width="169.47" height="194.43" viewBox="0 0 169.47 194.43"><path d="M146.26,139.23a79.51,79.51,0,0,1-121.3.52L7.69,160.54a106.24,106.24,0,0,0,155.94-.36Z" fill="#130c0e"/><path d="M132.59,59.64v92.28a6.28,6.28,0,0,1-4.06,5.86L85.68,174.4,42.82,157.78a6.28,6.28,0,0,1-4.06-5.86V59.64Z" fill="#130c0e"/><polygon points="40.99 130.88 40.99 74.01 130.33 74.01 130.35 130.88 40.99 130.88" fill="#fff"/><path d="M130.35,125.55c-.78,1.25-2.71,2.14-5,2.14s-4.21-.89-5-2.16c-.79,1.27-2.72,2.16-5,2.16s-4.17-.89-5-2.14c-.79,1.25-2.71,2.14-5,2.14s-4.18-.89-5-2.16h0c-.78,1.27-2.7,2.16-5,2.16s-4.17-.89-5-2.14c-.79,1.25-2.74,2.14-5,2.14s-4.18-.89-5-2.16h0c-.8,1.27-2.72,2.16-5,2.16s-4.19-.89-5-2.14c-.79,1.25-2.72,2.14-5,2.14s-4.17-.89-5-2.16h0c-.78,1.27-2.71,2.16-4.95,2.16s-4.18-.89-5-2.14v0c-.79,1.26-2.71,2.1-4.94,2.1s-4.2-.89-5-2.16v-.11l0,25.13a6,6,0,0,0,3.86,5.57L85.68,172l40.79-15.85a6,6,0,0,0,3.87-5.57V125.44" fill="#d71920"/><path d="M130.35,122.92c-.78,1.25-2.71,2.14-5,2.14s-4.21-.9-5-2.14c-.79,1.24-2.72,2.14-5,2.14s-4.17-.9-5-2.14c-.79,1.25-2.71,2.14-5,2.14s-4.18-.9-5-2.14h0c-.78,1.24-2.7,2.14-5,2.14s-4.17-.9-5-2.14c-.79,1.25-2.74,2.14-5,2.14s-4.18-.9-5-2.14h0a5.93,5.93,0,0,1-5,2.14c-2.26,0-4.19-.9-5-2.14-.79,1.25-2.72,2.14-5,2.14s-4.17-.9-5-2.14h0c-.78,1.24-2.71,2.14-4.95,2.14s-4.18-.9-5-2.14v0c-.79,1.26-2.71,2.1-4.94,2.1s-4.2-.9-5-2.14v-3.11c.78,1.25,2.69,2.16,5,2.16s4.15-.89,4.94-2.15c.79,1.26,2.71,2.15,5,2.15s4.17-.91,4.95-2.16h0c.79,1.25,2.71,2.16,5,2.16s4.18-.89,5-2.15c.79,1.26,2.72,2.15,5,2.15a5.91,5.91,0,0,0,5-2.16h0c.78,1.25,2.7,2.16,5,2.16s4.18-.89,5-2.15c.78,1.26,2.69,2.15,5,2.15s4.17-.91,5-2.16h0c.79,1.25,2.71,2.16,5,2.16s4.17-.89,5-2.15c.79,1.26,2.7,2.15,5,2.15s4.18-.91,5-2.16c.76,1.25,2.71,2.16,5,2.16s4.17-.89,5-2.15Z" fill="#00aeef"/><path d="M130.35,117.31c-.78,1.25-2.71,2.13-5,2.13s-4.21-.88-5-2.13c-.79,1.24-2.72,2.13-5,2.13s-4.17-.88-5-2.13c-.79,1.25-2.71,2.13-5,2.13s-4.18-.88-5-2.13h0c-.78,1.24-2.7,2.13-5,2.13s-4.17-.88-5-2.13c-.79,1.25-2.74,2.13-5,2.13s-4.18-.88-5-2.13h0c-.8,1.24-2.72,2.13-5,2.13s-4.19-.88-5-2.13c-.79,1.25-2.72,2.13-5,2.13s-4.17-.88-5-2.13h0c-.78,1.24-2.71,2.13-4.95,2.13s-4.18-.88-5-2.13v0c-.79,1.26-2.71,2.1-4.94,2.1s-4.2-.88-5-2.13V114.2c.78,1.25,2.69,2.15,5,2.15s4.15-.87,4.94-2.15c.79,1.27,2.71,2.15,5,2.15s4.17-.9,4.95-2.15h0c.79,1.25,2.71,2.15,5,2.15s4.18-.87,5-2.15c.79,1.27,2.72,2.15,5,2.15a5.92,5.92,0,0,0,5-2.15h0c.78,1.25,2.7,2.15,5,2.15s4.18-.87,5-2.15c.78,1.27,2.69,2.15,5,2.15s4.17-.9,5-2.15h0c.79,1.25,2.71,2.15,5,2.15s4.17-.87,5-2.15c.79,1.27,2.7,2.15,5,2.15s4.18-.9,5-2.15c.76,1.25,2.71,2.15,5,2.15s4.17-.87,5-2.15Z" fill="#00aeef"/><path d="M92.22,154.17s4.38,6.86,2.08,4.92c-1.68-1.45-4-4.79-5.65-7.53l-9,3.49s-5.16,6.28-4,3.51c.82-2,3.37-5.26,5.47-7.72L75,143.4s-7.57-3-4.57-2.73c2,.15,6.06,1.62,9,2.82l5.13-8.17s.48-8.12,1.2-5.2c.49,2,.34,6.35.09,9.56L95.23,142s7.87-2.07,5.3-.48c-1.8,1.13-5.72,2.31-8.85,3.05Z" fill="#130c0e"/><path d="M94.87,159.61c-.11,0-.28,0-.68-.39-2-1.76-4.73-6-5.61-7.45l-8.82,3.42c-.86,1-3.54,4.24-4.19,4.24a.25.25,0,0,1-.22-.11c-.1-.14-.06-.38.13-.83.9-2.18,3.73-5.69,5.41-7.65l-6-7.29c-3.63-1.42-5.42-2.36-5.34-2.8,0-.26.43-.26.59-.26h.29c2.31.18,7.26,2.11,8.93,2.78l5-8c.23-4,.59-6,1.06-6,.24,0,.36.31.48.76.56,2.28.27,7.27.11,9.47l9.22,2.25a37,37,0,0,1,5.42-1.07c.15,0,.49,0,.55.23s-.11.39-.59.68c-2.2,1.38-7.09,2.64-8.76,3l.53,9.44c.93,1.46,3,4.82,2.71,5.35A.26.26,0,0,1,94.87,159.61Zm-6.15-8.26.07.12c.79,1.31,3.55,5.71,5.62,7.49a2.16,2.16,0,0,0,.38.28,26.88,26.88,0,0,0-2.72-5l0-.08-.55-9.78.14,0c3.09-.74,7-1.92,8.8-3a2.41,2.41,0,0,0,.38-.27h-.16a38.82,38.82,0,0,0-5.38,1.07h-.09l-9.55-2.33v-.14c.16-2.1.48-7.22-.09-9.5a2.14,2.14,0,0,0-.15-.45,27,27,0,0,0-.71,5.62l0,.08-5.21,8.29-.13-.05c-1.51-.61-6.63-2.63-9-2.81a2.45,2.45,0,0,0-.47,0,27.36,27.36,0,0,0,5.12,2.4l.07.05,6.25,7.55-.09.11c-1.65,1.93-4.55,5.49-5.45,7.67a2.4,2.4,0,0,0-.15.44,27.71,27.71,0,0,0,3.87-4.12l.07-.05Z" fill="#130c0e"/><path d="M85.06,152.36a.33.33,0,0,0,.26.23c.11,0,.19-.1.26-.23a5.26,5.26,0,0,0,.16-1.91s.06-3.83,2.92.28c8,11.57-3.41,11.64-3.41,11.64h.11S73.94,162.3,82,150.73c2.86-4.12,2.9-.28,2.9-.28a5.06,5.06,0,0,0,.18,1.93Z" fill="#fff"/><path d="M85.36,162.54h-.11c-.64,0-4.54-.28-5.87-2.92-1.06-2.1-.24-5.13,2.45-9,.93-1.33,1.65-2,2.23-2,1,0,1,1.72,1,1.79a5.32,5.32,0,0,0,.16,1.85h0c0,.09.09.12.11.12s0,0,.11-.14a5.11,5.11,0,0,0,.14-1.82c0-.08,0-1.8,1-1.8.58,0,1.31.65,2.23,2,2.68,3.86,3.5,6.89,2.44,9-1.34,2.64-5.23,2.89-5.88,2.92ZM84.06,149c-.25,0-.84.24-1.94,1.83-2.61,3.75-3.42,6.66-2.42,8.64,1.28,2.53,5.16,2.71,5.62,2.73s4.34-.2,5.62-2.73c1-2,.19-4.89-2.41-8.64-1.05-1.51-1.64-1.83-2-1.83-.52,0-.65,1.08-.66,1.46a5.6,5.6,0,0,1-.17,2c-.06.1-.19.33-.42.33a.48.48,0,0,1-.41-.31h0a5.12,5.12,0,0,1-.2-2C84.7,150.07,84.57,149,84.06,149Z" fill="#130c0e"/><path d="M79.18,147.72a.27.27,0,0,0-.11.3.28.28,0,0,0,.27.19h0a4.87,4.87,0,0,0,1.88-.41s3.67-1.13.65,2.85c-8.54,11.21-12.11.38-12.11.38v.08s-3.44-10.89,10-6.82c4.81,1.44,1.16,2.68,1.16,2.68a4.42,4.42,0,0,0-1.76.76" fill="#fff"/><path d="M74.8,155.9c-3.39,0-5-4.13-5.19-4.75h0c0-.15-1.17-3.79.54-6.11,1.52-2.08,4.82-2.4,9.71-.93,1.74.52,2.6,1.08,2.61,1.71,0,.78-1.3,1.25-1.45,1.3a4.69,4.69,0,0,0-1.7.72c-.07.06-.08.1-.07.11a.12.12,0,0,0,.07.08h.05a4.55,4.55,0,0,0,1.8-.4,3.88,3.88,0,0,1,1-.16,1,1,0,0,1,1,.45c.26.53-.11,1.45-1.15,2.82-2.6,3.42-5,5.15-7.19,5.15ZM69.92,151s1.55,4.58,4.89,4.58h0c2.06,0,4.39-1.69,6.92-5,1.23-1.61,1.22-2.23,1.11-2.46s-.31-.26-.67-.26a3.56,3.56,0,0,0-.9.14,8.1,8.1,0,0,1-1.45.4l.06,0h-.54a.46.46,0,0,1-.42-.28l-.16-.12h.13a.47.47,0,0,1,.18-.4,4.64,4.64,0,0,1,1.83-.8c.31-.11,1.21-.52,1.21-1,0-.26-.32-.77-2.36-1.38-4.72-1.42-7.91-1.15-9.34.8s-.66,5.2-.51,5.73Z" fill="#130c0e"/><path d="M81.74,140.66a.3.3,0,0,0-.33,0,.29.29,0,0,0-.08.31h0a4.46,4.46,0,0,0,1,1.66s2.2,3.14-2.54,1.49c-13.28-4.64-4.1-11.4-4.1-11.4l-.07,0s9.26-6.64,9.59,7.44c.11,5-2.2,1.93-2.2,1.93a5,5,0,0,0-1.27-1.45" fill="#fff"/><path d="M81.93,144.76a7.25,7.25,0,0,1-2.19-.49c-4.47-1.56-6.91-3.54-7.26-5.88-.44-3,2.59-5.41,3.07-5.78h0a9,9,0,0,1,4.57-1.6c2.32,0,5.12,1.59,5.29,9.17,0,1.5-.14,2.42-.53,2.82a.71.71,0,0,1-.52.23c-.68,0-1.38-.91-1.46-1a4.89,4.89,0,0,0-1.22-1.4.13.13,0,0,0-.15,0s0,.06,0,.13h0a4.35,4.35,0,0,0,1,1.58c.09.13.79,1.16.46,1.8A1,1,0,0,1,81.93,144.76Zm-6.14-11.92h0s-3.43,2.56-3,5.5c.33,2.2,2.7,4.09,7,5.6,1.56.54,2.55.61,2.77.21s-.25-1.19-.43-1.44a4.83,4.83,0,0,1-1-1.71h0a.46.46,0,0,1,.15-.49.48.48,0,0,1,.52,0,5.37,5.37,0,0,1,1.32,1.5c.18.24.75.87,1.18.87a.38.38,0,0,0,.28-.12c.22-.22.47-.85.43-2.57-.13-5.78-1.85-8.84-4.95-8.84A8.68,8.68,0,0,0,75.79,132.84Z" fill="#130c0e"/><path d="M89.28,141a.32.32,0,0,0-.08-.32.39.39,0,0,0-.34,0,4.58,4.58,0,0,0-1.27,1.44s-2.3,3.07-2.2-1.93c.32-14.08,9.6-7.43,9.6-7.43l-.07,0s9.19,6.76-4.12,11.41c-4.72,1.65-2.51-1.48-2.51-1.48a4.77,4.77,0,0,0,1-1.66" fill="#fff"/><path d="M88.67,144.75a1,1,0,0,1-1-.44c-.33-.64.38-1.68.46-1.79a5,5,0,0,0,1-1.59.19.19,0,0,0,0-.16.46.46,0,0,0-.16,0,4.34,4.34,0,0,0-1.21,1.38c-.08.11-.77,1-1.45,1a.71.71,0,0,1-.52-.23c-.39-.4-.57-1.32-.54-2.81.18-7.58,3-9.17,5.29-9.17A9.06,9.06,0,0,1,95,132.55h0l.07,0h0c.5.39,3.52,2.88,3,5.81-.37,2.33-2.82,4.29-7.28,5.85A7.18,7.18,0,0,1,88.67,144.75Zm.41-4.32a.43.43,0,0,1,.2,0,.49.49,0,0,1,.17.51,5,5,0,0,1-1,1.73c-.17.25-.63,1-.43,1.43s1.19.33,2.75-.22c4.33-1.51,6.7-3.39,7.05-5.58.45-2.81-2.6-5.23-2.94-5.5a8.73,8.73,0,0,0-4.34-1.51c-3.1,0-4.82,3.05-4.95,8.83,0,1.71.22,2.34.44,2.57a.38.38,0,0,0,.28.12c.43,0,1-.62,1.17-.86a4.83,4.83,0,0,1,1.33-1.49A.65.65,0,0,1,89.08,140.43Z" fill="#130c0e"/><path d="M91.33,148.21a.3.3,0,0,0,.28-.18c0-.1,0-.2-.13-.3a4.21,4.21,0,0,0-1.77-.77s-3.64-1.24,1.15-2.68c13.5-4.06,10,6.82,10,6.82l0-.08s-3.58,10.83-12.12-.38c-3-4,.63-2.85.63-2.85a5,5,0,0,0,1.89.41Z" fill="#fff"/><path d="M95.88,155.9c-2.17,0-4.59-1.73-7.19-5.15-1-1.36-1.42-2.29-1.16-2.82a1,1,0,0,1,1-.45,3.9,3.9,0,0,1,1,.16,6,6,0,0,0,1.68.41h.15a.14.14,0,0,0,.12-.06s0-.05-.07-.12a4,4,0,0,0-1.7-.73c-.16-.05-1.46-.52-1.45-1.3,0-.63.86-1.18,2.6-1.7,4.9-1.48,8.21-1.15,9.73.93,1.7,2.33.58,6,.53,6.11h0c-.23.63-1.82,4.74-5.2,4.74Zm-7.38-8.08c-.36,0-.58.09-.66.26s-.11.84,1.13,2.46c2.53,3.33,4.86,5,6.92,5h0c3.34,0,4.88-4.54,4.9-4.58h0c.15-.54,1-3.72-.5-5.73s-4.62-2.22-9.35-.8c-2,.61-2.35,1.13-2.35,1.38,0,.45.89.86,1.21,1a4.48,4.48,0,0,1,1.83.81c.25.22.2.41.16.5a.41.41,0,0,1-.26.25v0l-.16,0h-.12a6.16,6.16,0,0,1-1.84-.43h0A3.59,3.59,0,0,0,88.49,147.82Z" fill="#130c0e"/><path d="M77.48,135.23a7.19,7.19,0,0,1-1.6.83,2.09,2.09,0,0,0-1.16.92s-.42,1-.69.58.29-1.13.29-1.13a2.15,2.15,0,0,1,1.15-.94,7,7,0,0,0,1.6-.8,8,8,0,0,0,1.28-1.28,2,2,0,0,1,1.25-.81s.87-.31,1.17.07-.77.48-.77.48a2.3,2.3,0,0,0-1.25.81,6.73,6.73,0,0,1-1.27,1.27" fill="#130c0e"/><path d="M93.11,135.23A7.37,7.37,0,0,1,91.85,134a2.34,2.34,0,0,0-1.23-.82s-1.07-.08-.78-.47S91,132.6,91,132.6a1.87,1.87,0,0,1,1.24.8,8.35,8.35,0,0,0,1.28,1.29,7.71,7.71,0,0,0,1.61.8,2.05,2.05,0,0,1,1.14.91s.58.76.31,1.16-.69-.58-.69-.58a2.1,2.1,0,0,0-1.17-.92,8.45,8.45,0,0,1-1.61-.82" fill="#130c0e"/><path d="M98,150.09a8.78,8.78,0,0,1,.82-1.61,1.9,1.9,0,0,0,.39-1.41s-.24-1,.23-.88.44,1.08.44,1.08a2.18,2.18,0,0,1-.39,1.44,7.06,7.06,0,0,0-.84,1.61,7.77,7.77,0,0,0-.25,1.77,2.27,2.27,0,0,1-.53,1.4s-.55.76-1,.63.34-.85.34-.85a2.17,2.17,0,0,0,.5-1.38,8,8,0,0,1,.29-1.79" fill="#130c0e"/><path d="M85.32,159.26a7.53,7.53,0,0,1,1.78.29,2.08,2.08,0,0,0,1.48-.08s.9-.55.89-.05-.89.75-.89.75a2.07,2.07,0,0,1-1.48.07,5.51,5.51,0,0,0-3.57,0,2.1,2.1,0,0,1-1.49-.07s-.9-.29-.9-.75.9.05.9.05a2.11,2.11,0,0,0,1.49.08,7.6,7.6,0,0,1,1.79-.29" fill="#130c0e"/><path d="M72.7,150.09a7.33,7.33,0,0,1,.29,1.79,2.08,2.08,0,0,0,.53,1.38s.8.69.35.85-1-.63-1-.63a2.21,2.21,0,0,1-.52-1.4,8,8,0,0,0-.28-1.77,7.1,7.1,0,0,0-.83-1.61,2.24,2.24,0,0,1-.39-1.44s0-.92.45-1.08.2.88.2.88a2,2,0,0,0,.4,1.41,7.61,7.61,0,0,1,.81,1.61" fill="#130c0e"/><path d="M85.26,143.38A2.58,2.58,0,1,0,87.85,146a2.58,2.58,0,0,0-2.59-2.58" fill="#ffc20e"/><path d="M85.26,148.61A2.61,2.61,0,0,1,82.63,146a2.64,2.64,0,1,1,2.63,2.65Zm0-5.16A2.5,2.5,0,0,0,82.76,146a2.51,2.51,0,1,0,5,0A2.52,2.52,0,0,0,85.26,143.45Z" fill="#ffcb05"/><path d="M90.13,96.7l.34,7,5.88-3.82,1.85,3-6.93,4v1.44s8.06,4.53-1.76,4.36v.06a5.17,5.17,0,0,1-6.71,0c-9.83.17-1.77-4.34-1.77-4.34v-1.46l-6.13-4.76L76.36,99l5.48,4.69.32-6.94Z" fill="#130c0e"/><path d="M97.46,102.66c5.69,6.52,9.88-.34,9.88-.34,7.19-1.75,2.92-6.84,2.92-6.84,7.5-4.92-1.31-8.78-1.31-8.78-.06-6.54-5.62-6.05-5.62-6.05-5.81-5.08-11.36.56-11.36.56C83.24,74,76.63,82.32,76.63,82.32s-5.57-3.86-8.07,2.19c0,0-8.87-.24-5.55,8.71,0,0-6.85,6.86,2.09,10.23,0,0,4.76,8.8,11.3.42,0,0,4,.24,3.38-5.42,0,0,5.09,2.11,9.91-.24,0,0,1.54,3.47,4.86,1.53,0,0-.52,2.23,2.69,2.68Z" fill="#0db14b"/><path d="M70.72,108.19c-3.35,0-5.56-3.26-6.11-4.18-2.71-1.07-4.29-2.6-4.71-4.53-.6-2.8,1.49-5.51,2.3-6.44-.94-2.76-.84-5,.29-6.61,1.52-2.19,4.43-2.56,5.61-2.62C69.42,81,71.42,80.4,72.9,80.4a7.81,7.81,0,0,1,3.59,1,11.79,11.79,0,0,1,8.26-3.87,11.67,11.67,0,0,1,7.18,2.74,10.06,10.06,0,0,1,6.21-2.46,8.37,8.37,0,0,1,5.43,2.11h0c1,0,5.78.31,6.06,6.32,1.12.57,4.12,2.33,4.34,4.89.13,1.57-.78,3.09-2.73,4.51a5.05,5.05,0,0,1,.8,4.11c-.49,1.48-1.92,2.55-4.27,3.17-.56.8-2.5,3.24-5.37,3.24h0c-1.86,0-3.7-1-5.47-3.05l0,0a3.79,3.79,0,0,1-2.62-1.45,2.67,2.67,0,0,1-.38-.82,3.7,3.7,0,0,1-4.51-1.69,12.21,12.21,0,0,1-4.74.91,15.26,15.26,0,0,1-4.11-.58,5.44,5.44,0,0,1-1.17,3.83,4,4,0,0,1-2.63,1.28C74.79,107,72.76,108.19,70.72,108.19Zm-2.18-23c-.42,0-3.52.06-4.89,2-.91,1.31-.9,3.23,0,5.73l.16.42-.32.32s-2.8,2.85-2.23,5.48c.32,1.49,1.69,2.7,4.07,3.6l.25.09.13.23s2,3.67,5,3.67c1.66,0,3.38-1.13,5.11-3.35l.23-.29.37,0h0a2.61,2.61,0,0,0,1.89-.82c.7-.78.95-2.06.75-3.81l-.13-1.18,1.1.45a13.47,13.47,0,0,0,4.61.82,10.66,10.66,0,0,0,4.72-1l.65-.32.3.66s.79,1.7,2.29,1.7a3.15,3.15,0,0,0,1.56-.49l1.41-.83-.37,1.59a1.33,1.33,0,0,0,.22.95,2.7,2.7,0,0,0,1.87.88l.23,0,.41.4c1.52,1.74,3,2.61,4.45,2.61h0c2.57,0,4.32-2.79,4.34-2.82l.15-.25.28-.07c2-.49,3.19-1.26,3.54-2.31.52-1.57-1-3.38-1-3.4l-.5-.61.66-.43c1.89-1.24,2.79-2.46,2.7-3.63-.16-1.87-2.87-3.46-3.91-3.91l-.42-.18V86.7c0-4.84-3.27-5.36-4.66-5.36l-.49,0-.23-.19a7.1,7.1,0,0,0-4.71-1.95,9,9,0,0,0-5.68,2.47l-.45.46-.5-.41A10.61,10.61,0,0,0,84.75,79c-4.49,0-7.54,3.77-7.57,3.81l-.41.51-.54-.37a6.77,6.77,0,0,0-3.33-1.09c-1.64,0-2.88,1-3.69,3l-.19.45h-.49Z" fill="#130c0e"/><path d="M21.2,158.8l.42.36c-1.46,2.64-1.66,4.51-.65,5.39.74.64,1.71.38,2.6-.62a2.24,2.24,0,0,0,.62-1.31,6.15,6.15,0,0,0-.87-2.11,4,4,0,0,1,.73-5c1.56-1.78,3.6-2.38,4.9-1.26a2.91,2.91,0,0,1,.91,2.12l1-.31.35.31-3.12,3.79-.37-.36c1.22-2.53,1.49-4,.57-4.82-.7-.64-1.62-.42-2.43.52-1,1.17-.43,1.85.35,3.3a3.54,3.54,0,0,1,.56,2.38,6.3,6.3,0,0,1-1.48,2.79c-1.7,1.94-3.64,2.51-5,1.32a2.81,2.81,0,0,1-.95-2.43l-1.24.41-.36-.32Z" fill="#ffc20e"/><path d="M32.9,160.09a3.32,3.32,0,0,1,5,3.53A10.14,10.14,0,0,1,36,168.33a9.18,9.18,0,0,1-3.64,3.33,3.65,3.65,0,0,1-3.79,0c-1-.71-1.46-1.82-1.31-3.5a9.14,9.14,0,0,1,1.87-4.63,10,10,0,0,1,3.79-3.45m-3.78,10.74c1.1.76,2.75-.5,5-3.78s2.9-5.26,1.79-6.06-2.73.5-5,3.8-2.93,5.25-1.81,6" fill="#ffc20e"/><path d="M44.4,166.5l-.49-.26c-.43-.23-.61-.05-1,.6l-3.18,5.95c-1.15,2.14-1.19,3.41,0,4a1.75,1.75,0,0,0,1.65,0c.82-.45,1.36-1.38,2.15-2.85l2.3-4.3c.66-1.25.79-2,0-2.4l-.06,0,.44-.86,2.7,1.45-.45.84c-.85-.31-1.29.13-1.95,1.35l-2.37,4.42a9.66,9.66,0,0,1-2,2.93,2.88,2.88,0,0,1-3.59.43c-1.93-1-2.18-2.87-.81-5.49l3.44-6.41c.35-.67.37-.91,0-1.13l-.49-.26.44-.86,3.74,2Z" fill="#ffc20e"/><path d="M54.78,171.12c-.38-.14-.57,0-.84.68l-3.53,8.93c-.29.68-.29.93.16,1.11l.53.21-.36.91-3.92-1.55.36-.92.52.21c.44.18.59,0,.87-.7l3.56-8.92c.25-.67.25-.9-.11-1.05-.81-.34-2,.79-3.19,3.19l-.54-.18,2-4.62,6.81,2.7-1.7,4.74-.5-.18c.79-2.56.69-4.22-.12-4.54" fill="#ffc20e"/><path d="M60.63,185c.45.14.58-.06.78-.78L62.54,180l-2.84-.77-1.12,4.21c-.2.71-.18.94.28,1.07l.55.16-.27.93-4.08-1.09.26-.94.54.13c.46.14.59-.06.78-.77l2.47-9.14c.21-.72.19-1-.28-1.11l-.54-.14.26-.93,4.07,1.11-.25.93-.54-.15c-.46-.13-.59.09-.81.81l-1,3.8,2.85.76,1-3.8c.2-.71.19-1-.28-1.1l-.53-.14.24-.93L67.39,174l-.24.92-.56-.15c-.45-.12-.59.1-.79.81l-2.46,9.15c-.2.72-.18,1,.29,1.07l.53.17-.24.92-4.11-1.09.28-1Z" fill="#ffc20e"/><path d="M71.42,187.22l.56,0c.24,0,.33-.11.37-.38a4.4,4.4,0,0,0,0-.53l-.2-2.13-2.81-.41-.4.93a3.6,3.6,0,0,0-.25.91c-.13.83.17,1.14,1,1.32l-.14.94-3.12-.46.14-.95c.7-.08,1.17-.84,1.77-2.25l4.06-9.64.82.13,1.31,12.14c.06.57.21.8.62.88l-.14,1-3.69-.55Zm-1.61-4.52,2.24.34-.44-4.61Z" fill="#ffc20e"/><path d="M79.62,185.71c-.05,1.72.17,2.35,1.2,2.41l0,1-3.19-.1v-1c1,0,1.2-.67,1.24-2.34l.2-8c0-.71-.05-1-.53-1l-.58,0,0-1,3.58.09,1.55,8,1.82-8,3.53.09,0,1-.56,0c-.47,0-.56.22-.58,1l-.23,9.48c0,.74.06,1,.53,1h.57l0,1-4.14-.1,0-1h.48c.47,0,.58-.21.6-.95l.25-10-2.72,11.89H82.1l-2.27-11.95Z" fill="#ffc20e"/><path d="M94.68,187.76l.71-.06.1,1-4.38.44-.09-1,.6-.06c.48-.05.53-.27.46-1l-.91-9.42c-.06-.74-.16-1-.64-.93l-.59.06-.1-1,4.86-.47c2-.2,3.18,1,3.42,3.48.26,2.64-.83,3.95-3.3,4.19-.34,0-.69.06-1.12.08l.38,3.79c.07.77.18.93.62.9M93.61,182a1.61,1.61,0,0,0,.54,0c1.51-.14,2-.8,1.83-3s-.77-2.79-2.07-2.67c-.71.07-.82.22-.74,1.24Z" fill="#ffc20e"/><path d="M104.55,174.59c-.39.08-.44.3-.29,1L106.2,185c.16.72.28.91.75.82l.54-.1.19,1-4.12.84-.2-.95.55-.12c.47-.09.5-.34.36-1.06l-2-9.41c-.15-.7-.28-.91-.67-.82-.86.18-1.25,1.8-.92,4.45l-.54.1-.84-4.95,7.15-1.5,1.21,4.9-.53.1c-.75-2.55-1.74-3.9-2.62-3.7" fill="#ffc20e"/><path d="M109.77,174.13a3.35,3.35,0,0,1,5.87-1.87,10.19,10.19,0,0,1,2.58,4.38,9.24,9.24,0,0,1,.47,4.92,3.61,3.61,0,0,1-2.3,3c-1.2.39-2.32.06-3.57-1.07a9.1,9.1,0,0,1-2.56-4.27,10.23,10.23,0,0,1-.49-5.11m6.31,9.48c1.28-.4,1.28-2.48,0-6.28s-2.44-5.5-3.74-5.08-1.25,2.47,0,6.29,2.45,5.5,3.72,5.07" fill="#ffc20e"/><path d="M122.79,181c.85-.55.74-1.18.06-2.65L119.46,171l-.35-.25c-.35-.26-.61-.44-1-.24l-.12.06-.42-.86,2.55-1.19,7.35,5.77-2.11-4.53c-.75-1.63-1.19-2-2.19-1.58l-.4-.9L125.7,166l.41.88c-.83.47-.76,1.07,0,2.64l4.31,9.26-.64.3-9.09-7.17L123.5,178c.72,1.55,1.21,2,2.18,1.61l.42.87-2.9,1.35Z" fill="#ffc20e"/><path d="M139.54,162.84l-.44.32c-2-2.12-3.15-2.49-4.54-1.53-.54.37-.63.52-.11,1.3l2.23,3.26a.67.67,0,0,0,.14-.09c.82-.56.74-1.39-.15-3l.45-.31,3.47,5.07-.46.32c-1.19-1.45-1.92-1.78-2.73-1.24l-.13.09,2.51,3.68c.43.62.6.75,1,.48l.66-.45.55.81L138.29,174l-.54-.81.46-.32c.41-.25.33-.5-.07-1.11L132.79,164c-.41-.62-.63-.76-1-.49l-.48.32-.54-.79,6-4.09Z" fill="#ffc20e"/><path d="M150.3,165.57a3.13,3.13,0,0,1-2.74.61,9.18,9.18,0,0,1-4.93-3.32,10.28,10.28,0,0,1-2.34-4.36,3.4,3.4,0,0,1,1-3.64,2.55,2.55,0,0,1,2.25-.55l-.16-1.12.36-.31,3.63,4-.39.44c-2.35-2-4-2.61-5-1.82-1.12,1-.37,2.78,2.28,5.86s4.28,4.1,5.53,3c.94-.81.74-2.4-.65-4.67l.67-.14c1.78,2.67,1.94,4.78.5,6" fill="#ffc20e"/><path d="M7.69,53.17,9.8,57.55,3.86,59.17l1.86,3.7,6-1.63,1.86,3.7-6,1.62,1.84,3.68,6-1.61,1.88,3.7-6,1.6,1.87,3.68,6-1.59,2.67,5.13A29.06,29.06,0,0,0,25.08,80L11.14,52.18a15.48,15.48,0,0,1-3.46,1" fill="#fff"/><path d="M24,54.71c-.41-2,4.07-4.33,7.67-7.23l-4.76-9.54a23,23,0,0,0-6.07,5,21.86,21.86,0,0,0-1.53,1.78Z" fill="#fff"/><path d="M34.73,37.74c-1.16-1.58-4.13-1.79-7.78.2l4.76,9.54c3.31-2.7,5.86-5.89,3-9.74" fill="#d71920"/><path d="M11.14,52.18,25.08,80c3.91-1.62,7.13-3.91,8.21-5.6l-6-12.77-3-6.34a1.29,1.29,0,0,1-.28-.59l-4.69-10C17,47.64,15,50.54,11.14,52.18" fill="#d71920"/><path d="M7.69,53.17A26.74,26.74,0,0,1,1,53.36l2.91,5.81L9.8,57.55Z" fill="#d71920"/><polygon points="11.67 61.24 5.72 62.87 7.57 66.56 13.53 64.94 11.67 61.24" fill="#d71920"/><polygon points="15.38 68.63 9.41 70.23 11.25 73.93 17.26 72.33 15.38 68.63" fill="#d71920"/><path d="M13.12,77.61,15.3,82a20,20,0,0,0,6.49-.85L19.11,76Z" fill="#d71920"/><path d="M31.63,47.55l2.64,5.29c1.88-1.58,3.89-3.46,6-5.26l-5-8.85c1.79,3.44-.65,6.34-3.72,8.83" fill="#fff"/><path d="M24.32,55.3a2.1,2.1,0,0,0,.61.56c2.67,1.88,5.8,0,9.34-3l-2.64-5.29c-3.95,3.18-8.94,5.66-7.31,7.74" fill="#d71920"/><path d="M16.09,82.58h0l-.82,0-.33,0L0,52.71l1,.08c1,.08,1.94.13,2.83.13,8.3,0,11.1-3.52,14.34-7.6.73-.91,1.47-1.86,2.3-2.77,3.73-4.14,7.95-6.62,11.29-6.62a4.08,4.08,0,0,1,3.43,1.47,5.86,5.86,0,0,1,1.27,4.47c-.54,3.38-4.25,6-7.53,8.38-2.06,1.47-4.19,3-4.35,4.07a.77.77,0,0,0,.19.62l9.17,19.47-.17.26C31.8,77.79,23.33,82.58,16.09,82.58Zm-.44-1.13h.44c6.87,0,14.6-4.49,16.56-7.12L23.81,55.54a1.75,1.75,0,0,1-.35-1.37c.22-1.54,2.25-3,4.81-4.82,3.1-2.22,6.61-4.73,7.07-7.64a4.73,4.73,0,0,0-1.07-3.63,3,3,0,0,0-2.52-1c-3,0-6.94,2.34-10.46,6.25-.8.89-1.54,1.81-2.25,2.71-3.28,4.13-6.37,8-15.22,8C3.21,54,2.56,54,1.9,54Z" fill="#130c0e"/><path d="M27.23,57.16a4.49,4.49,0,0,1-2.63-.85,2.59,2.59,0,0,1-.75-.7,1.85,1.85,0,0,1-.39-1.44c.22-1.54,2.25-3,4.81-4.82C32.36,46.42,37,43.11,34.84,39l1-.53L41,47.71l-.36.3c-1.08.91-2.13,1.84-3.15,2.75C33.65,54.2,30.32,57.16,27.23,57.16Zm9.24-15.28c-.53,3.35-4.33,6.08-7.54,8.38-2.06,1.48-4.19,3-4.35,4.07a.78.78,0,0,0,.19.62,1.61,1.61,0,0,0,.47.43,3.36,3.36,0,0,0,2,.65c2.66,0,6-3,9.53-6.12.92-.82,1.86-1.65,2.82-2.47Z" fill="#130c0e"/><path d="M161.79,53.17l-2.12,4.37,5.92,1.63-1.84,3.7-6-1.63-1.85,3.7,6,1.62-1.84,3.68-6-1.61-1.87,3.7,6,1.6-1.86,3.68-6-1.59-2.66,5.13a29.3,29.3,0,0,1-3.3-1.14l13.94-27.82a15.2,15.2,0,0,0,3.46,1" fill="#fff"/><path d="M145.42,54.71c.41-2-4.07-4.33-7.67-7.23l4.77-9.54a23.7,23.7,0,0,1,6.09,5c.53.58,1,1.18,1.51,1.78Z" fill="#fff"/><path d="M134.73,37.74c1.16-1.58,4.13-1.79,7.79.2l-4.77,9.54c-3.31-2.7-5.85-5.89-3-9.74" fill="#d71920"/><path d="M158.33,52.18,144.39,80c-3.9-1.62-7.12-3.91-8.22-5.6l6-12.77,3-6.34a1.21,1.21,0,0,0,.27-.59l4.69-10c2.36,2.92,4.37,5.82,8.21,7.47" fill="#d71920"/><path d="M161.79,53.17a26.72,26.72,0,0,0,6.73.19l-2.94,5.81-5.92-1.63Z" fill="#d71920"/><polygon points="157.78 61.24 163.75 62.87 161.9 66.56 155.93 64.94 157.78 61.24" fill="#d71920"/><polygon points="154.09 68.63 160.06 70.23 158.21 73.93 152.22 72.33 154.09 68.63" fill="#d71920"/><path d="M156.35,77.61,154.16,82a19.89,19.89,0,0,1-6.47-.85L150.35,76Z" fill="#d71920"/><path d="M137.83,47.55l-2.65,5.29c-1.87-1.58-3.89-3.46-6-5.26l4.94-8.85c-1.79,3.44.66,6.34,3.71,8.83" fill="#fff"/><path d="M145.15,55.3a2.89,2.89,0,0,1-.6.56c-2.69,1.88-5.8,0-9.36-3l2.65-5.29c3.94,3.18,8.93,5.66,7.32,7.74" fill="#d71920"/><path d="M153.37,82.58c-7.22,0-15.71-4.79-17.68-7.89l-.17-.26,9.12-19.36a.94.94,0,0,0,.25-.73c-.16-1.07-2.29-2.6-4.35-4.07-3.28-2.34-7-5-7.53-8.38a5.87,5.87,0,0,1,1.27-4.47,4.11,4.11,0,0,1,3.43-1.47c3.35,0,7.58,2.48,11.31,6.62.82.91,1.56,1.85,2.28,2.75,3.23,4.08,6,7.61,14.34,7.61.89,0,1.84,0,2.83-.13l1-.08-15,29.83-.33,0Zm-16.56-8.25c2,2.69,10,7.3,17,7.12L167.58,54c-.67,0-1.31.06-1.93.06-8.86,0-11.95-3.9-15.22-8-.71-.89-1.44-1.82-2.23-2.7-3.53-3.91-7.44-6.25-10.48-6.25a3,3,0,0,0-2.53,1,4.72,4.72,0,0,0-1.06,3.63c.46,2.91,4,5.43,7.07,7.64,2.56,1.83,4.58,3.28,4.81,4.82a1.89,1.89,0,0,1-.41,1.47Z" fill="#130c0e"/><path d="M142.24,57.16h0c-3.09,0-6.43-3-10.29-6.41-1-.9-2.06-1.83-3.13-2.74l-.35-.3,5.17-9.26,1,.53c-2.14,4.12,2.49,7.44,6.58,10.36,2.56,1.83,4.58,3.28,4.81,4.82a1.88,1.88,0,0,1-.41,1.47,3.33,3.33,0,0,1-.7.66A4.52,4.52,0,0,1,142.24,57.16Zm-12.35-9.71c1,.82,1.89,1.65,2.8,2.46,3.54,3.15,6.88,6.13,9.54,6.13h0a3.35,3.35,0,0,0,2-.64,2.16,2.16,0,0,0,.46-.43.79.79,0,0,0,.2-.63c-.15-1.07-2.29-2.59-4.35-4.07-3.21-2.3-7-5-7.54-8.37Z" fill="#130c0e"/><path d="M102.66,46.63a64.78,64.78,0,0,1-6,4V70.47c2.8-1.7,5.64-3.52,8.33-5V45c-.93.62-1.74,1.19-2.34,1.66" fill="#fff"/><path d="M116,41.25l-.35,0-2.83,21.4c.11,0,.23,0,.35,0a13.2,13.2,0,0,1,6.5,1.92L126,45.12c-3.11-2.22-6.45-3.87-10-3.87" fill="#fff"/><path d="M144.55,55.86c-2.65,1.86-5.76,0-9.27-2.94L127,70.14c3.35,2.9,6.34,5.3,9.13,4.24l9-19.09a2.72,2.72,0,0,1-.6.56" fill="#fff"/><path d="M24.92,55.86a2.09,2.09,0,0,1-.61-.56l9,19.09c2.82,1.06,5.8-1.34,9.15-4.24L34.18,52.92c-3.52,2.94-6.61,4.8-9.26,2.94" fill="#fff"/><path d="M84.73,55.81a10.31,10.31,0,0,1-3.17-.73V75a8.09,8.09,0,0,0,6.33,0V55.08a10.14,10.14,0,0,1-3.16.73" fill="#fff"/><path d="M53.44,41.25c-3.55,0-6.89,1.66-10,3.87L49.8,64.57a13.1,13.1,0,0,1,6.49-1.92c.11,0,.23,0,.33,0L53.8,41.28l-.36,0" fill="#fff"/><path d="M66.8,46.63c-.6-.48-1.38-1-2.33-1.66V65.5c2.7,1.45,5.54,3.27,8.33,5V50.67a60.92,60.92,0,0,1-6-4" fill="#fff"/><path d="M72.8,50.67V70.47A48.65,48.65,0,0,0,81.56,75V55.08a53.79,53.79,0,0,1-8.76-4.42" fill="#d71920"/><path d="M53.8,41.27l2.82,21.41c2.21.1,4.92,1.24,7.85,2.82V45A21.92,21.92,0,0,0,53.8,41.27" fill="#d71920"/><path d="M34.18,52.92l8.26,17.23a45.34,45.34,0,0,1,7.36-5.57L43.45,45.12c-3.36,2.39-6.45,5.44-9.27,7.79" fill="#d71920"/><path d="M87.89,55.08V75a48.75,48.75,0,0,0,8.77-4.54V50.67a53,53,0,0,1-8.77,4.42" fill="#d71920"/><path d="M105,45V65.5c2.92-1.58,5.63-2.72,7.83-2.82l2.83-21.41A21.9,21.9,0,0,0,105,45" fill="#d71920"/><path d="M126,45.12l-6.34,19.45A46.45,46.45,0,0,1,127,70.14l8.25-17.23c-2.81-2.36-5.9-5.4-9.26-7.79" fill="#d71920"/><path d="M84.73,76.22c-3.69,0-8.78-3.14-14.18-6.46-5.22-3.22-10.62-6.55-14.27-6.55-5,0-9.21,3.67-13,6.91-3.15,2.73-5.88,5.08-8.63,5.08a4.54,4.54,0,0,1-1.6-.29l-.21-.08L23.81,55.54l1-.55a1.59,1.59,0,0,0,.45.41,3.36,3.36,0,0,0,2,.66c2.65,0,6-3,9.5-6.1,4.87-4.34,10.39-9.26,16.71-9.26,5.76,0,11.06,3.44,13.7,5.5,3.38,2.69,13.78,9.06,17.59,9.06s14.1-6.29,17.58-9.06c2.66-2.06,8-5.5,13.71-5.5,6.33,0,11.86,4.92,16.73,9.26,3.52,3.13,6.84,6.1,9.49,6.1h0a3.35,3.35,0,0,0,2-.65,2.12,2.12,0,0,0,.46-.43l1,.57-9.08,19.29-.21.08a4.53,4.53,0,0,1-1.6.29c-2.75,0-5.47-2.35-8.62-5.08-3.74-3.24-8-6.92-13-6.92-3.66,0-9.05,3.33-14.27,6.54C93.53,73.08,88.43,76.22,84.73,76.22ZM56.29,62.09c4,0,9.51,3.41,14.86,6.71,5,3.1,10.21,6.3,13.58,6.3s8.57-3.2,13.59-6.3c5.35-3.3,10.88-6.71,14.86-6.71,5.38,0,9.8,3.82,13.69,7.19,3.28,2.83,6.37,5.42,8.87,4.65l8-17a4.41,4.41,0,0,1-1.53.27h0c-3.08,0-6.4-3-10.24-6.38-4.73-4.21-10.08-9-16-9-5.41,0-10.47,3.3-13,5.26-3.39,2.7-14,9.3-18.27,9.3s-14.9-6.6-18.28-9.3c-2-1.58-7.38-5.26-13-5.26-5.89,0-11.24,4.77-16,9-3.85,3.43-7.17,6.38-10.25,6.38a4.43,4.43,0,0,1-1.54-.27l8,17c2.54.77,5.62-1.83,8.9-4.66C46.49,65.9,50.9,62.09,56.29,62.09Z" fill="#130c0e"/><path d="M85,36.33c18.52,0,33.53-8.14,33.53-18.16S103.56,0,85,0,51.5,8.14,51.5,18.17,66.53,36.33,85,36.33" fill="#130c0e"/><path d="M85.08,33.38c16.46,0,29.81-6.81,29.81-15.21S101.54,3,85.08,3,55.26,9.76,55.26,18.17,68.59,33.38,85.08,33.38" fill="#ffc20e"/><path d="M85.08,33.38c16.46,0,29.81-6.81,29.81-15.21S101.54,3,85.08,3,55.26,9.76,55.26,18.17,68.59,33.38,85.08,33.38Z" fill="none" stroke="#231f20" stroke-width="0"/><path d="M85.1,29.74c13.4,0,24.28-4.35,24.28-9.72s-10.88-9.7-24.28-9.7S60.82,14.67,60.82,20,71.7,29.74,85.1,29.74" fill="#fff"/><path d="M85.1,30.86C70.86,30.86,59.7,26.1,59.7,20S70.86,9.2,85.1,9.2,110.51,14,110.51,20,99.35,30.86,85.1,30.86Zm0-19.41C71.46,11.45,62,16,62,20s9.51,8.59,23.15,8.59,23.16-4.53,23.16-8.59S98.75,11.45,85.1,11.45Z" fill="#130c0e"/><path d="M85,13.11a23.37,23.37,0,0,0,0,46.73h-.29a23.37,23.37,0,0,0,0-46.73Z" fill="#fff"/><path d="M85,60.41h-.29a23.93,23.93,0,0,1,0-47.85H85a23.93,23.93,0,0,1,0,47.85Zm-.15-46.73a22.8,22.8,0,1,0,22.65,22.8A22.85,22.85,0,0,0,84.88,13.68Z" fill="#130c0e"/><path d="M81.14,55.8l-4.81-8.16L67.53,46.2,65.32,49c.1.14.16.29.26.42L66,50a23.42,23.42,0,0,0,12.19,8.85L79,59Z" fill="#130c0e"/><polygon points="75.12 33.25 78.9 44.9 84.87 44.9 90.85 44.9 94.63 33.25 84.86 26.18 75.12 33.25" fill="#130c0e"/><path d="M84.86,21.46v0l7.26-4.75V14.34a22.24,22.24,0,0,0-14.51,0v2.35Z" fill="#130c0e"/><path d="M71.4,29.54l.26-9.27-1.88-1.46A21.48,21.48,0,0,0,67,21.58l-.1.1a23.32,23.32,0,0,0-5,11.6l2.08.92Z" fill="#130c0e"/><path d="M93.44,47.64,88.63,55.8,90.71,59l.87-.16a23.44,23.44,0,0,0,12.36-9.06l.19-.28c.11-.17.2-.35.31-.49l-2.23-2.8Z" fill="#130c0e"/><path d="M98.36,29.54l7.4,4.65,2.08-.92a23.26,23.26,0,0,0-5.08-11.65h0A21.74,21.74,0,0,0,100,18.81L98.1,20.27Z" fill="#130c0e"/><path d="M132.59,59.64v92.28a6.28,6.28,0,0,1-4.06,5.86L85.68,174.4,42.82,157.78a6.28,6.28,0,0,1-4.06-5.86V59.64Z" fill="#130c0e"/><polygon points="40.99 130.88 40.99 74.01 130.33 74.01 130.35 130.88 40.99 130.88" fill="#fff"/><path d="M130.35,125.55c-.78,1.25-2.71,2.14-5,2.14s-4.21-.89-5-2.16c-.79,1.27-2.72,2.16-5,2.16s-4.17-.89-5-2.14c-.79,1.25-2.71,2.14-5,2.14s-4.18-.89-5-2.16h0c-.78,1.27-2.7,2.16-5,2.16s-4.17-.89-5-2.14c-.79,1.25-2.74,2.14-5,2.14s-4.18-.89-5-2.16h0c-.8,1.27-2.72,2.16-5,2.16s-4.19-.89-5-2.14c-.79,1.25-2.72,2.14-5,2.14s-4.17-.89-5-2.16h0c-.78,1.27-2.71,2.16-4.95,2.16s-4.18-.89-5-2.14v0c-.79,1.26-2.71,2.1-4.94,2.1s-4.2-.89-5-2.16v-.11l0,25.13a6,6,0,0,0,3.86,5.57L85.68,172l40.79-15.85a6,6,0,0,0,3.87-5.57V125.44" fill="#d71920"/><path d="M130.35,122.92c-.78,1.25-2.71,2.14-5,2.14s-4.21-.9-5-2.14c-.79,1.24-2.72,2.14-5,2.14s-4.17-.9-5-2.14c-.79,1.25-2.71,2.14-5,2.14s-4.18-.9-5-2.14h0c-.78,1.24-2.7,2.14-5,2.14s-4.17-.9-5-2.14c-.79,1.25-2.74,2.14-5,2.14s-4.18-.9-5-2.14h0a5.93,5.93,0,0,1-5,2.14c-2.26,0-4.19-.9-5-2.14-.79,1.25-2.72,2.14-5,2.14s-4.17-.9-5-2.14h0c-.78,1.24-2.71,2.14-4.95,2.14s-4.18-.9-5-2.14v0c-.79,1.26-2.71,2.1-4.94,2.1s-4.2-.9-5-2.14v-3.11c.78,1.25,2.69,2.16,5,2.16s4.15-.89,4.94-2.15c.79,1.26,2.71,2.15,5,2.15s4.17-.91,4.95-2.16h0c.79,1.25,2.71,2.16,5,2.16s4.18-.89,5-2.15c.79,1.26,2.72,2.15,5,2.15a5.91,5.91,0,0,0,5-2.16h0c.78,1.25,2.7,2.16,5,2.16s4.18-.89,5-2.15c.78,1.26,2.69,2.15,5,2.15s4.17-.91,5-2.16h0c.79,1.25,2.71,2.16,5,2.16s4.17-.89,5-2.15c.79,1.26,2.7,2.15,5,2.15s4.18-.91,5-2.16c.76,1.25,2.71,2.16,5,2.16s4.17-.89,5-2.15Z" fill="#00aeef"/><path d="M130.35,117.31c-.78,1.25-2.71,2.13-5,2.13s-4.21-.88-5-2.13c-.79,1.24-2.72,2.13-5,2.13s-4.17-.88-5-2.13c-.79,1.25-2.71,2.13-5,2.13s-4.18-.88-5-2.13h0c-.78,1.24-2.7,2.13-5,2.13s-4.17-.88-5-2.13c-.79,1.25-2.74,2.13-5,2.13s-4.18-.88-5-2.13h0c-.8,1.24-2.72,2.13-5,2.13s-4.19-.88-5-2.13c-.79,1.25-2.72,2.13-5,2.13s-4.17-.88-5-2.13h0c-.78,1.24-2.71,2.13-4.95,2.13s-4.18-.88-5-2.13v0c-.79,1.26-2.71,2.1-4.94,2.1s-4.2-.88-5-2.13V114.2c.78,1.25,2.69,2.15,5,2.15s4.15-.87,4.94-2.15c.79,1.27,2.71,2.15,5,2.15s4.17-.9,4.95-2.15h0c.79,1.25,2.71,2.15,5,2.15s4.18-.87,5-2.15c.79,1.27,2.72,2.15,5,2.15a5.92,5.92,0,0,0,5-2.15h0c.78,1.25,2.7,2.15,5,2.15s4.18-.87,5-2.15c.78,1.27,2.69,2.15,5,2.15s4.17-.9,5-2.15h0c.79,1.25,2.71,2.15,5,2.15s4.17-.87,5-2.15c.79,1.27,2.7,2.15,5,2.15s4.18-.9,5-2.15c.76,1.25,2.71,2.15,5,2.15s4.17-.87,5-2.15Z" fill="#00aeef"/><path d="M92.22,154.17s4.38,6.86,2.08,4.92c-1.68-1.45-4-4.79-5.65-7.53l-9,3.49s-5.16,6.28-4,3.51c.82-2,3.37-5.26,5.47-7.72L75,143.4s-7.57-3-4.57-2.73c2,.15,6.06,1.62,9,2.82l5.13-8.17s.48-8.12,1.2-5.2c.49,2,.34,6.35.09,9.56L95.23,142s7.87-2.07,5.3-.48c-1.8,1.13-5.72,2.31-8.85,3.05Z" fill="#130c0e"/><path d="M94.87,159.61c-.11,0-.28,0-.68-.39-2-1.76-4.73-6-5.61-7.45l-8.82,3.42c-.86,1-3.54,4.24-4.19,4.24a.25.25,0,0,1-.22-.11c-.1-.14-.06-.38.13-.83.9-2.18,3.73-5.69,5.41-7.65l-6-7.29c-3.63-1.42-5.42-2.36-5.34-2.8,0-.26.43-.26.59-.26h.29c2.31.18,7.26,2.11,8.93,2.78l5-8c.23-4,.59-6,1.06-6,.24,0,.36.31.48.76.56,2.28.27,7.27.11,9.47l9.22,2.25a37,37,0,0,1,5.42-1.07c.15,0,.49,0,.55.23s-.11.39-.59.68c-2.2,1.38-7.09,2.64-8.76,3l.53,9.44c.93,1.46,3,4.82,2.71,5.35A.26.26,0,0,1,94.87,159.61Zm-6.15-8.26.07.12c.79,1.31,3.55,5.71,5.62,7.49a2.16,2.16,0,0,0,.38.28,26.88,26.88,0,0,0-2.72-5l0-.08-.55-9.78.14,0c3.09-.74,7-1.92,8.8-3a2.41,2.41,0,0,0,.38-.27h-.16a38.82,38.82,0,0,0-5.38,1.07h-.09l-9.55-2.33v-.14c.16-2.1.48-7.22-.09-9.5a2.14,2.14,0,0,0-.15-.45,27,27,0,0,0-.71,5.62l0,.08-5.21,8.29-.13-.05c-1.51-.61-6.63-2.63-9-2.81a2.45,2.45,0,0,0-.47,0,27.36,27.36,0,0,0,5.12,2.4l.07.05,6.25,7.55-.09.11c-1.65,1.93-4.55,5.49-5.45,7.67a2.4,2.4,0,0,0-.15.44,27.71,27.71,0,0,0,3.87-4.12l.07-.05Z" fill="#130c0e"/><path d="M85.06,152.36a.33.33,0,0,0,.26.23c.11,0,.19-.1.26-.23a5.26,5.26,0,0,0,.16-1.91s.06-3.83,2.92.28c8,11.57-3.41,11.64-3.41,11.64h.11S73.94,162.3,82,150.73c2.86-4.12,2.9-.28,2.9-.28a5.06,5.06,0,0,0,.18,1.93Z" fill="#fff"/><path d="M85.36,162.54h-.11c-.64,0-4.54-.28-5.87-2.92-1.06-2.1-.24-5.13,2.45-9,.93-1.33,1.65-2,2.23-2,1,0,1,1.72,1,1.79a5.32,5.32,0,0,0,.16,1.85h0c0,.09.09.12.11.12s0,0,.11-.14a5.11,5.11,0,0,0,.14-1.82c0-.08,0-1.8,1-1.8.58,0,1.31.65,2.23,2,2.68,3.86,3.5,6.89,2.44,9-1.34,2.64-5.23,2.89-5.88,2.92ZM84.06,149c-.25,0-.84.24-1.94,1.83-2.61,3.75-3.42,6.66-2.42,8.64,1.28,2.53,5.16,2.71,5.62,2.73s4.34-.2,5.62-2.73c1-2,.19-4.89-2.41-8.64-1.05-1.51-1.64-1.83-2-1.83-.52,0-.65,1.08-.66,1.46a5.6,5.6,0,0,1-.17,2c-.06.1-.19.33-.42.33a.48.48,0,0,1-.41-.31h0a5.12,5.12,0,0,1-.2-2C84.7,150.07,84.57,149,84.06,149Z" fill="#130c0e"/><path d="M79.18,147.72a.27.27,0,0,0-.11.3.28.28,0,0,0,.27.19h0a4.87,4.87,0,0,0,1.88-.41s3.67-1.13.65,2.85c-8.54,11.21-12.11.38-12.11.38v.08s-3.44-10.89,10-6.82c4.81,1.44,1.16,2.68,1.16,2.68a4.42,4.42,0,0,0-1.76.76" fill="#fff"/><path d="M74.8,155.9c-3.39,0-5-4.13-5.19-4.75h0c0-.15-1.17-3.79.54-6.11,1.52-2.08,4.82-2.4,9.71-.93,1.74.52,2.6,1.08,2.61,1.71,0,.78-1.3,1.25-1.45,1.3a4.69,4.69,0,0,0-1.7.72c-.07.06-.08.1-.07.11a.12.12,0,0,0,.07.08h.05a4.55,4.55,0,0,0,1.8-.4,3.88,3.88,0,0,1,1-.16,1,1,0,0,1,1,.45c.26.53-.11,1.45-1.15,2.82-2.6,3.42-5,5.15-7.19,5.15ZM69.92,151s1.55,4.58,4.89,4.58h0c2.06,0,4.39-1.69,6.92-5,1.23-1.61,1.22-2.23,1.11-2.46s-.31-.26-.67-.26a3.56,3.56,0,0,0-.9.14,8.1,8.1,0,0,1-1.45.4l.06,0h-.54a.46.46,0,0,1-.42-.28l-.16-.12h.13a.47.47,0,0,1,.18-.4,4.64,4.64,0,0,1,1.83-.8c.31-.11,1.21-.52,1.21-1,0-.26-.32-.77-2.36-1.38-4.72-1.42-7.91-1.15-9.34.8s-.66,5.2-.51,5.73Z" fill="#130c0e"/><path d="M81.74,140.66a.3.3,0,0,0-.33,0,.29.29,0,0,0-.08.31h0a4.46,4.46,0,0,0,1,1.66s2.2,3.14-2.54,1.49c-13.28-4.64-4.1-11.4-4.1-11.4l-.07,0s9.26-6.64,9.59,7.44c.11,5-2.2,1.93-2.2,1.93a5,5,0,0,0-1.27-1.45" fill="#fff"/><path d="M81.93,144.76a7.25,7.25,0,0,1-2.19-.49c-4.47-1.56-6.91-3.54-7.26-5.88-.44-3,2.59-5.41,3.07-5.78h0a9,9,0,0,1,4.57-1.6c2.32,0,5.12,1.59,5.29,9.17,0,1.5-.14,2.42-.53,2.82a.71.71,0,0,1-.52.23c-.68,0-1.38-.91-1.46-1a4.89,4.89,0,0,0-1.22-1.4.13.13,0,0,0-.15,0s0,.06,0,.13h0a4.35,4.35,0,0,0,1,1.58c.09.13.79,1.16.46,1.8A1,1,0,0,1,81.93,144.76Zm-6.14-11.92h0s-3.43,2.56-3,5.5c.33,2.2,2.7,4.09,7,5.6,1.56.54,2.55.61,2.77.21s-.25-1.19-.43-1.44a4.83,4.83,0,0,1-1-1.71h0a.46.46,0,0,1,.15-.49.48.48,0,0,1,.52,0,5.37,5.37,0,0,1,1.32,1.5c.18.24.75.87,1.18.87a.38.38,0,0,0,.28-.12c.22-.22.47-.85.43-2.57-.13-5.78-1.85-8.84-4.95-8.84A8.68,8.68,0,0,0,75.79,132.84Z" fill="#130c0e"/><path d="M89.28,141a.32.32,0,0,0-.08-.32.39.39,0,0,0-.34,0,4.58,4.58,0,0,0-1.27,1.44s-2.3,3.07-2.2-1.93c.32-14.08,9.6-7.43,9.6-7.43l-.07,0s9.19,6.76-4.12,11.41c-4.72,1.65-2.51-1.48-2.51-1.48a4.77,4.77,0,0,0,1-1.66" fill="#fff"/><path d="M88.67,144.75a1,1,0,0,1-1-.44c-.33-.64.38-1.68.46-1.79a5,5,0,0,0,1-1.59.19.19,0,0,0,0-.16.46.46,0,0,0-.16,0,4.34,4.34,0,0,0-1.21,1.38c-.08.11-.77,1-1.45,1a.71.71,0,0,1-.52-.23c-.39-.4-.57-1.32-.54-2.81.18-7.58,3-9.17,5.29-9.17A9.06,9.06,0,0,1,95,132.55h0l.07,0h0c.5.39,3.52,2.88,3,5.81-.37,2.33-2.82,4.29-7.28,5.85A7.18,7.18,0,0,1,88.67,144.75Zm.41-4.32a.43.43,0,0,1,.2,0,.49.49,0,0,1,.17.51,5,5,0,0,1-1,1.73c-.17.25-.63,1-.43,1.43s1.19.33,2.75-.22c4.33-1.51,6.7-3.39,7.05-5.58.45-2.81-2.6-5.23-2.94-5.5a8.73,8.73,0,0,0-4.34-1.51c-3.1,0-4.82,3.05-4.95,8.83,0,1.71.22,2.34.44,2.57a.38.38,0,0,0,.28.12c.43,0,1-.62,1.17-.86a4.83,4.83,0,0,1,1.33-1.49A.65.65,0,0,1,89.08,140.43Z" fill="#130c0e"/><path d="M91.33,148.21a.3.3,0,0,0,.28-.18c0-.1,0-.2-.13-.3a4.21,4.21,0,0,0-1.77-.77s-3.64-1.24,1.15-2.68c13.5-4.06,10,6.82,10,6.82l0-.08s-3.58,10.83-12.12-.38c-3-4,.63-2.85.63-2.85a5,5,0,0,0,1.89.41Z" fill="#fff"/><path d="M95.88,155.9c-2.17,0-4.59-1.73-7.19-5.15-1-1.36-1.42-2.29-1.16-2.82a1,1,0,0,1,1-.45,3.9,3.9,0,0,1,1,.16,6,6,0,0,0,1.68.41h.15a.14.14,0,0,0,.12-.06s0-.05-.07-.12a4,4,0,0,0-1.7-.73c-.16-.05-1.46-.52-1.45-1.3,0-.63.86-1.18,2.6-1.7,4.9-1.48,8.21-1.15,9.73.93,1.7,2.33.58,6,.53,6.11h0c-.23.63-1.82,4.74-5.2,4.74Zm-7.38-8.08c-.36,0-.58.09-.66.26s-.11.84,1.13,2.46c2.53,3.33,4.86,5,6.92,5h0c3.34,0,4.88-4.54,4.9-4.58h0c.15-.54,1-3.72-.5-5.73s-4.62-2.22-9.35-.8c-2,.61-2.35,1.13-2.35,1.38,0,.45.89.86,1.21,1a4.48,4.48,0,0,1,1.83.81c.25.22.2.41.16.5a.41.41,0,0,1-.26.25v0l-.16,0h-.12a6.16,6.16,0,0,1-1.84-.43h0A3.59,3.59,0,0,0,88.49,147.82Z" fill="#130c0e"/><path d="M77.48,135.23a7.19,7.19,0,0,1-1.6.83,2.09,2.09,0,0,0-1.16.92s-.42,1-.69.58.29-1.13.29-1.13a2.15,2.15,0,0,1,1.15-.94,7,7,0,0,0,1.6-.8,8,8,0,0,0,1.28-1.28,2,2,0,0,1,1.25-.81s.87-.31,1.17.07-.77.48-.77.48a2.3,2.3,0,0,0-1.25.81,6.73,6.73,0,0,1-1.27,1.27" fill="#130c0e"/><path d="M93.11,135.23A7.37,7.37,0,0,1,91.85,134a2.34,2.34,0,0,0-1.23-.82s-1.07-.08-.78-.47S91,132.6,91,132.6a1.87,1.87,0,0,1,1.24.8,8.35,8.35,0,0,0,1.28,1.29,7.71,7.71,0,0,0,1.61.8,2.05,2.05,0,0,1,1.14.91s.58.76.31,1.16-.69-.58-.69-.58a2.1,2.1,0,0,0-1.17-.92,8.45,8.45,0,0,1-1.61-.82" fill="#130c0e"/><path d="M98,150.09a8.78,8.78,0,0,1,.82-1.61,1.9,1.9,0,0,0,.39-1.41s-.24-1,.23-.88.44,1.08.44,1.08a2.18,2.18,0,0,1-.39,1.44,7.06,7.06,0,0,0-.84,1.61,7.77,7.77,0,0,0-.25,1.77,2.27,2.27,0,0,1-.53,1.4s-.55.76-1,.63.34-.85.34-.85a2.17,2.17,0,0,0,.5-1.38,8,8,0,0,1,.29-1.79" fill="#130c0e"/><path d="M72.7,150.09a7.33,7.33,0,0,1,.29,1.79,2.08,2.08,0,0,0,.53,1.38s.8.69.35.85-1-.63-1-.63a2.21,2.21,0,0,1-.52-1.4,8,8,0,0,0-.28-1.77,7.1,7.1,0,0,0-.83-1.61,2.24,2.24,0,0,1-.39-1.44s0-.92.45-1.08.2.88.2.88a2,2,0,0,0,.4,1.41,7.61,7.61,0,0,1,.81,1.61" fill="#130c0e"/><path d="M85.26,143.38A2.58,2.58,0,1,0,87.85,146a2.58,2.58,0,0,0-2.59-2.58" fill="#ffc20e"/><path d="M85.26,148.61A2.61,2.61,0,0,1,82.63,146a2.64,2.64,0,1,1,2.63,2.65Zm0-5.16A2.5,2.5,0,0,0,82.76,146a2.51,2.51,0,1,0,5,0A2.52,2.52,0,0,0,85.26,143.45Z" fill="#ffcb05"/><path d="M90.13,96.7l.34,7,5.88-3.82,1.85,3-6.93,4v1.44s8.06,4.53-1.76,4.36v.06a5.17,5.17,0,0,1-6.71,0c-9.83.17-1.77-4.34-1.77-4.34v-1.46l-6.13-4.76L76.36,99l5.48,4.69.32-6.94Z" fill="#130c0e"/><path d="M97.46,102.66c5.69,6.52,9.88-.34,9.88-.34,7.19-1.75,2.92-6.84,2.92-6.84,7.5-4.92-1.31-8.78-1.31-8.78-.06-6.54-5.62-6.05-5.62-6.05-5.81-5.08-11.36.56-11.36.56C83.24,74,76.63,82.32,76.63,82.32s-5.57-3.86-8.07,2.19c0,0-8.87-.24-5.55,8.71,0,0-6.85,6.86,2.09,10.23,0,0,4.76,8.8,11.3.42,0,0,4,.24,3.38-5.42,0,0,5.09,2.11,9.91-.24,0,0,1.54,3.47,4.86,1.53,0,0-.52,2.23,2.69,2.68Z" fill="#0db14b"/><path d="M70.72,108.19c-3.35,0-5.56-3.26-6.11-4.18-2.71-1.07-4.29-2.6-4.71-4.53-.6-2.8,1.49-5.51,2.3-6.44-.94-2.76-.84-5,.29-6.61,1.52-2.19,4.43-2.56,5.61-2.62C69.42,81,71.42,80.4,72.9,80.4a7.81,7.81,0,0,1,3.59,1,11.79,11.79,0,0,1,8.26-3.87,11.67,11.67,0,0,1,7.18,2.74,10.06,10.06,0,0,1,6.21-2.46,8.37,8.37,0,0,1,5.43,2.11h0c1,0,5.78.31,6.06,6.32,1.12.57,4.12,2.33,4.34,4.89.13,1.57-.78,3.09-2.73,4.51a5.05,5.05,0,0,1,.8,4.11c-.49,1.48-1.92,2.55-4.27,3.17-.56.8-2.5,3.24-5.37,3.24h0c-1.86,0-3.7-1-5.47-3.05l0,0a3.79,3.79,0,0,1-2.62-1.45,2.67,2.67,0,0,1-.38-.82,3.7,3.7,0,0,1-4.51-1.69,12.21,12.21,0,0,1-4.74.91,15.26,15.26,0,0,1-4.11-.58,5.44,5.44,0,0,1-1.17,3.83,4,4,0,0,1-2.63,1.28C74.79,107,72.76,108.19,70.72,108.19Zm-2.18-23c-.42,0-3.52.06-4.89,2-.91,1.31-.9,3.23,0,5.73l.16.42-.32.32s-2.8,2.85-2.23,5.48c.32,1.49,1.69,2.7,4.07,3.6l.25.09.13.23s2,3.67,5,3.67c1.66,0,3.38-1.13,5.11-3.35l.23-.29.37,0h0a2.61,2.61,0,0,0,1.89-.82c.7-.78.95-2.06.75-3.81l-.13-1.18,1.1.45a13.47,13.47,0,0,0,4.61.82,10.66,10.66,0,0,0,4.72-1l.65-.32.3.66s.79,1.7,2.29,1.7a3.15,3.15,0,0,0,1.56-.49l1.41-.83-.37,1.59a1.33,1.33,0,0,0,.22.95,2.7,2.7,0,0,0,1.87.88l.23,0,.41.4c1.52,1.74,3,2.61,4.45,2.61h0c2.57,0,4.32-2.79,4.34-2.82l.15-.25.28-.07c2-.49,3.19-1.26,3.54-2.31.52-1.57-1-3.38-1-3.4l-.5-.61.66-.43c1.89-1.24,2.79-2.46,2.7-3.63-.16-1.87-2.87-3.46-3.91-3.91l-.42-.18V86.7c0-4.84-3.27-5.36-4.66-5.36l-.49,0-.23-.19a7.1,7.1,0,0,0-4.71-1.95,9,9,0,0,0-5.68,2.47l-.45.46-.5-.41A10.61,10.61,0,0,0,84.75,79c-4.49,0-7.54,3.77-7.57,3.81l-.41.51-.54-.37a6.77,6.77,0,0,0-3.33-1.09c-1.64,0-2.88,1-3.69,3l-.19.45h-.49Z" fill="#130c0e"/><path d="M7.69,53.17,9.8,57.55,3.86,59.17l1.86,3.7,6-1.63,1.86,3.7-6,1.62,1.84,3.68,6-1.61,1.88,3.7-6,1.6,1.87,3.68,6-1.59,2.67,5.13A29.06,29.06,0,0,0,25.08,80L11.14,52.18a15.48,15.48,0,0,1-3.46,1" fill="#fff"/><path d="M24,54.71c-.41-2,4.07-4.33,7.67-7.23l-4.76-9.54a23,23,0,0,0-6.07,5,21.86,21.86,0,0,0-1.53,1.78Z" fill="#fff"/><path d="M34.73,37.74c-1.16-1.58-4.13-1.79-7.78.2l4.76,9.54c3.31-2.7,5.86-5.89,3-9.74" fill="#d71920"/><path d="M11.14,52.18,25.08,80c3.91-1.62,7.13-3.91,8.21-5.6l-6-12.77-3-6.34a1.29,1.29,0,0,1-.28-.59l-4.69-10C17,47.64,15,50.54,11.14,52.18" fill="#d71920"/><polygon points="11.67 61.24 5.72 62.87 7.57 66.56 13.53 64.94 11.67 61.24" fill="#d71920"/><polygon points="15.38 68.63 9.41 70.23 11.25 73.93 17.26 72.33 15.38 68.63" fill="#d71920"/><path d="M13.12,77.61,15.3,82a20,20,0,0,0,6.49-.85L19.11,76Z" fill="#d71920"/><path d="M31.63,47.55l2.64,5.29c1.88-1.58,3.89-3.46,6-5.26l-5-8.85c1.79,3.44-.65,6.34-3.72,8.83" fill="#fff"/><path d="M24.32,55.3a2.1,2.1,0,0,0,.61.56c2.67,1.88,5.8,0,9.34-3l-2.64-5.29c-3.95,3.18-8.94,5.66-7.31,7.74" fill="#d71920"/><path d="M16.09,82.58h0l-.82,0-.33,0L0,52.71l1,.08c1,.08,1.94.13,2.83.13,8.3,0,11.1-3.52,14.34-7.6.73-.91,1.47-1.86,2.3-2.77,3.73-4.14,7.95-6.62,11.29-6.62a4.08,4.08,0,0,1,3.43,1.47,5.86,5.86,0,0,1,1.27,4.47c-.54,3.38-4.25,6-7.53,8.38-2.06,1.47-4.19,3-4.35,4.07a.77.77,0,0,0,.19.62l9.17,19.47-.17.26C31.8,77.79,23.33,82.58,16.09,82.58Zm-.44-1.13h.44c6.87,0,14.6-4.49,16.56-7.12L23.81,55.54a1.75,1.75,0,0,1-.35-1.37c.22-1.54,2.25-3,4.81-4.82,3.1-2.22,6.61-4.73,7.07-7.64a4.73,4.73,0,0,0-1.07-3.63,3,3,0,0,0-2.52-1c-3,0-6.94,2.34-10.46,6.25-.8.89-1.54,1.81-2.25,2.71-3.28,4.13-6.37,8-15.22,8C3.21,54,2.56,54,1.9,54Z" fill="#130c0e"/><path d="M27.23,57.16a4.49,4.49,0,0,1-2.63-.85,2.59,2.59,0,0,1-.75-.7,1.85,1.85,0,0,1-.39-1.44c.22-1.54,2.25-3,4.81-4.82C32.36,46.42,37,43.11,34.84,39l1-.53L41,47.71l-.36.3c-1.08.91-2.13,1.84-3.15,2.75C33.65,54.2,30.32,57.16,27.23,57.16Zm9.24-15.28c-.53,3.35-4.33,6.08-7.54,8.38-2.06,1.48-4.19,3-4.35,4.07a.78.78,0,0,0,.19.62,1.61,1.61,0,0,0,.47.43,3.36,3.36,0,0,0,2,.65c2.66,0,6-3,9.53-6.12.92-.82,1.86-1.65,2.82-2.47Z" fill="#130c0e"/><path d="M161.79,53.17l-2.12,4.37,5.92,1.63-1.84,3.7-6-1.63-1.85,3.7,6,1.62-1.84,3.68-6-1.61-1.87,3.7,6,1.6-1.86,3.68-6-1.59-2.66,5.13a29.3,29.3,0,0,1-3.3-1.14l13.94-27.82a15.2,15.2,0,0,0,3.46,1" fill="#fff"/><path d="M145.42,54.71c.41-2-4.07-4.33-7.67-7.23l4.77-9.54a23.7,23.7,0,0,1,6.09,5c.53.58,1,1.18,1.51,1.78Z" fill="#fff"/><path d="M134.73,37.74c1.16-1.58,4.13-1.79,7.79.2l-4.77,9.54c-3.31-2.7-5.85-5.89-3-9.74" fill="#d71920"/><path d="M158.33,52.18,144.39,80c-3.9-1.62-7.12-3.91-8.22-5.6l6-12.77,3-6.34a1.21,1.21,0,0,0,.27-.59l4.69-10c2.36,2.92,4.37,5.82,8.21,7.47" fill="#d71920"/><path d="M161.79,53.17a26.72,26.72,0,0,0,6.73.19l-2.94,5.81-5.92-1.63Z" fill="#d71920"/><polygon points="157.78 61.24 163.75 62.87 161.9 66.56 155.93 64.94 157.78 61.24" fill="#d71920"/><polygon points="154.09 68.63 160.06 70.23 158.21 73.93 152.22 72.33 154.09 68.63" fill="#d71920"/><path d="M156.35,77.61,154.16,82a19.89,19.89,0,0,1-6.47-.85L150.35,76Z" fill="#d71920"/><path d="M137.83,47.55l-2.65,5.29c-1.87-1.58-3.89-3.46-6-5.26l4.94-8.85c-1.79,3.44.66,6.34,3.71,8.83" fill="#fff"/><path d="M145.15,55.3a2.89,2.89,0,0,1-.6.56c-2.69,1.88-5.8,0-9.36-3l2.65-5.29c3.94,3.18,8.93,5.66,7.32,7.74" fill="#d71920"/><path d="M153.37,82.58c-7.22,0-15.71-4.79-17.68-7.89l-.17-.26,9.12-19.36a.94.94,0,0,0,.25-.73c-.16-1.07-2.29-2.6-4.35-4.07-3.28-2.34-7-5-7.53-8.38a5.87,5.87,0,0,1,1.27-4.47,4.11,4.11,0,0,1,3.43-1.47c3.35,0,7.58,2.48,11.31,6.62.82.91,1.56,1.85,2.28,2.75,3.23,4.08,6,7.61,14.34,7.61.89,0,1.84,0,2.83-.13l1-.08-15,29.83-.33,0Zm-16.56-8.25c2,2.69,10,7.3,17,7.12L167.58,54c-.67,0-1.31.06-1.93.06-8.86,0-11.95-3.9-15.22-8-.71-.89-1.44-1.82-2.23-2.7-3.53-3.91-7.44-6.25-10.48-6.25a3,3,0,0,0-2.53,1,4.72,4.72,0,0,0-1.06,3.63c.46,2.91,4,5.43,7.07,7.64,2.56,1.83,4.58,3.28,4.81,4.82a1.89,1.89,0,0,1-.41,1.47Z" fill="#130c0e"/><path d="M142.24,57.16h0c-3.09,0-6.43-3-10.29-6.41-1-.9-2.06-1.83-3.13-2.74l-.35-.3,5.17-9.26,1,.53c-2.14,4.12,2.49,7.44,6.58,10.36,2.56,1.83,4.58,3.28,4.81,4.82a1.88,1.88,0,0,1-.41,1.47,3.33,3.33,0,0,1-.7.66A4.52,4.52,0,0,1,142.24,57.16Zm-12.35-9.71c1,.82,1.89,1.65,2.8,2.46,3.54,3.15,6.88,6.13,9.54,6.13h0a3.35,3.35,0,0,0,2-.64,2.16,2.16,0,0,0,.46-.43.79.79,0,0,0,.2-.63c-.15-1.07-2.29-2.59-4.35-4.07-3.21-2.3-7-5-7.54-8.37Z" fill="#130c0e"/><path d="M102.66,46.63a64.78,64.78,0,0,1-6,4V70.47c2.8-1.7,5.64-3.52,8.33-5V45c-.93.62-1.74,1.19-2.34,1.66" fill="#fff"/><path d="M116,41.25l-.35,0-2.83,21.4c.11,0,.23,0,.35,0a13.2,13.2,0,0,1,6.5,1.92L126,45.12c-3.11-2.22-6.45-3.87-10-3.87" fill="#fff"/><path d="M144.55,55.86c-2.65,1.86-5.76,0-9.27-2.94L127,70.14c3.35,2.9,6.34,5.3,9.13,4.24l9-19.09a2.72,2.72,0,0,1-.6.56" fill="#fff"/><path d="M24.92,55.86a2.09,2.09,0,0,1-.61-.56l9,19.09c2.82,1.06,5.8-1.34,9.15-4.24L34.18,52.92c-3.52,2.94-6.61,4.8-9.26,2.94" fill="#fff"/><path d="M84.73,55.81a10.31,10.31,0,0,1-3.17-.73V75a8.09,8.09,0,0,0,6.33,0V55.08a10.14,10.14,0,0,1-3.16.73" fill="#fff"/><path d="M53.44,41.25c-3.55,0-6.89,1.66-10,3.87L49.8,64.57a13.1,13.1,0,0,1,6.49-1.92c.11,0,.23,0,.33,0L53.8,41.28l-.36,0" fill="#fff"/><path d="M66.8,46.63c-.6-.48-1.38-1-2.33-1.66V65.5c2.7,1.45,5.54,3.27,8.33,5V50.67a60.92,60.92,0,0,1-6-4" fill="#fff"/><path d="M72.8,50.67V70.47A48.65,48.65,0,0,0,81.56,75V55.08a53.79,53.79,0,0,1-8.76-4.42" fill="#d71920"/><path d="M53.8,41.27l2.82,21.41c2.21.1,4.92,1.24,7.85,2.82V45A21.92,21.92,0,0,0,53.8,41.27" fill="#d71920"/><path d="M34.18,52.92l8.26,17.23a45.34,45.34,0,0,1,7.36-5.57L43.45,45.12c-3.36,2.39-6.45,5.44-9.27,7.79" fill="#d71920"/><path d="M87.89,55.08V75a48.75,48.75,0,0,0,8.77-4.54V50.67a53,53,0,0,1-8.77,4.42" fill="#d71920"/><path d="M105,45V65.5c2.92-1.58,5.63-2.72,7.83-2.82l2.83-21.41A21.9,21.9,0,0,0,105,45" fill="#d71920"/><path d="M126,45.12l-6.34,19.45A46.45,46.45,0,0,1,127,70.14l8.25-17.23c-2.81-2.36-5.9-5.4-9.26-7.79" fill="#d71920"/><path d="M84.73,76.22c-3.69,0-8.78-3.14-14.18-6.46-5.22-3.22-10.62-6.55-14.27-6.55-5,0-9.21,3.67-13,6.91-3.15,2.73-5.88,5.08-8.63,5.08a4.54,4.54,0,0,1-1.6-.29l-.21-.08L23.81,55.54l1-.55a1.59,1.59,0,0,0,.45.41,3.36,3.36,0,0,0,2,.66c2.65,0,6-3,9.5-6.1,4.87-4.34,10.39-9.26,16.71-9.26,5.76,0,11.06,3.44,13.7,5.5,3.38,2.69,13.78,9.06,17.59,9.06s14.1-6.29,17.58-9.06c2.66-2.06,8-5.5,13.71-5.5,6.33,0,11.86,4.92,16.73,9.26,3.52,3.13,6.84,6.1,9.49,6.1h0a3.35,3.35,0,0,0,2-.65,2.12,2.12,0,0,0,.46-.43l1,.57-9.08,19.29-.21.08a4.53,4.53,0,0,1-1.6.29c-2.75,0-5.47-2.35-8.62-5.08-3.74-3.24-8-6.92-13-6.92-3.66,0-9.05,3.33-14.27,6.54C93.53,73.08,88.43,76.22,84.73,76.22ZM56.29,62.09c4,0,9.51,3.41,14.86,6.71,5,3.1,10.21,6.3,13.58,6.3s8.57-3.2,13.59-6.3c5.35-3.3,10.88-6.71,14.86-6.71,5.38,0,9.8,3.82,13.69,7.19,3.28,2.83,6.37,5.42,8.87,4.65l8-17a4.41,4.41,0,0,1-1.53.27h0c-3.08,0-6.4-3-10.24-6.38-4.73-4.21-10.08-9-16-9-5.41,0-10.47,3.3-13,5.26-3.39,2.7-14,9.3-18.27,9.3s-14.9-6.6-18.28-9.3c-2-1.58-7.38-5.26-13-5.26-5.89,0-11.24,4.77-16,9-3.85,3.43-7.17,6.38-10.25,6.38a4.43,4.43,0,0,1-1.54-.27l8,17c2.54.77,5.62-1.83,8.9-4.66C46.49,65.9,50.9,62.09,56.29,62.09Z" fill="#130c0e"/><path d="M85,36.33c18.52,0,33.53-8.14,33.53-18.16S103.56,0,85,0,51.5,8.14,51.5,18.17,66.53,36.33,85,36.33" fill="#130c0e"/><path d="M85.08,33.38c16.46,0,29.81-6.81,29.81-15.21S101.54,3,85.08,3,55.26,9.76,55.26,18.17,68.59,33.38,85.08,33.38" fill="#ffc20e"/><path d="M85.08,33.38c16.46,0,29.81-6.81,29.81-15.21S101.54,3,85.08,3,55.26,9.76,55.26,18.17,68.59,33.38,85.08,33.38Z" fill="none" stroke="#231f20" stroke-width="0"/><path d="M85.1,29.74c13.4,0,24.28-4.35,24.28-9.72s-10.88-9.7-24.28-9.7S60.82,14.67,60.82,20,71.7,29.74,85.1,29.74" fill="#fff"/><path d="M85.1,30.86C70.86,30.86,59.7,26.1,59.7,20S70.86,9.2,85.1,9.2,110.51,14,110.51,20,99.35,30.86,85.1,30.86Zm0-19.41C71.46,11.45,62,16,62,20s9.51,8.59,23.15,8.59,23.16-4.53,23.16-8.59S98.75,11.45,85.1,11.45Z" fill="#130c0e"/><path d="M85,13.11a23.37,23.37,0,0,0,0,46.73h-.29a23.37,23.37,0,0,0,0-46.73Z" fill="#fff"/><path d="M85,60.41h-.29a23.93,23.93,0,0,1,0-47.85H85a23.93,23.93,0,0,1,0,47.85Zm-.15-46.73a22.8,22.8,0,1,0,22.65,22.8A22.85,22.85,0,0,0,84.88,13.68Z" fill="#130c0e"/><path d="M81.14,55.8l-4.81-8.16L67.53,46.2,65.32,49c.1.14.16.29.26.42L66,50a23.42,23.42,0,0,0,12.19,8.85L79,59Z" fill="#130c0e"/><polygon points="75.12 33.25 78.9 44.9 84.87 44.9 90.85 44.9 94.63 33.25 84.86 26.18 75.12 33.25" fill="#130c0e"/><path d="M84.86,21.46v0l7.26-4.75V14.34a22.24,22.24,0,0,0-14.51,0v2.35Z" fill="#130c0e"/><path d="M71.4,29.54l.26-9.27-1.88-1.46A21.48,21.48,0,0,0,67,21.58l-.1.1a23.32,23.32,0,0,0-5,11.6l2.08.92Z" fill="#130c0e"/><path d="M93.44,47.64,88.63,55.8,90.71,59l.87-.16a23.44,23.44,0,0,0,12.36-9.06l.19-.28c.11-.17.2-.35.31-.49l-2.23-2.8Z" fill="#130c0e"/><path d="M98.36,29.54l7.4,4.65,2.08-.92a23.26,23.26,0,0,0-5.08-11.65h0A21.74,21.74,0,0,0,100,18.81L98.1,20.27Z" fill="#130c0e"/><path d="M85.23,159.42a8.78,8.78,0,0,1,1.78.33,1.9,1.9,0,0,0,1.46,0s.93-.52.91,0-.91.72-.91.72a2.18,2.18,0,0,1-1.49,0,7.06,7.06,0,0,0-1.78-.35,7.77,7.77,0,0,0-1.77.26,2.27,2.27,0,0,1-1.49-.12s-.89-.31-.88-.77.91.09.91.09a2.17,2.17,0,0,0,1.47.09,8,8,0,0,1,1.8-.23" fill="#130c0e"/></svg>