<?xml version="1.0" encoding="utf-8"?>
<!-- Generator: Adobe Illustrator 16.0.0, SVG Export Plug-In . SVG Version: 6.00 Build 0)  -->
<!DOCTYPE svg PUBLIC "-//W3C//DTD SVG 1.1//EN" "http://www.w3.org/Graphics/SVG/1.1/DTD/svg11.dtd">
<svg version="1.1" id="Layer_1" xmlns="http://www.w3.org/2000/svg" xmlns:xlink="http://www.w3.org/1999/xlink" x="0px" y="0px"
	 width="240px" height="24px" viewBox="0 0 240 24" enable-background="new 0 0 240 24" xml:space="preserve">
<g>
	<path fill="#CACACA" d="M22,22H0V0h22V22z M1,21h20V1H1V21z"/>
</g>
<g>
	<path fill="#E6E6E5" d="M94,22H72V0h22V22z M73,21h20V1H73V21z"/>
</g>
<rect x="48" fill="#2775AB" width="22" height="22"/>
<rect x="96" fill="#E6E6E5" width="22" height="22"/>
<g>
	<path fill="#2775AB" d="M46,22H24V0h22V22z M26,20h18V2H26V20z"/>
</g>
<g>
	<path fill="#CACACA" d="M131,22c-6.065,0-11-4.935-11-11c0-6.065,4.935-11,11-11s11,4.935,11,11C142,17.065,137.065,22,131,22z
		 M131,1c-5.514,0-10,4.486-10,10s4.486,10,10,10s10-4.486,10-10S136.514,1,131,1z"/>
</g>
<g>
	<path fill="#E6E6E5" d="M203,22c-6.065,0-11-4.935-11-11c0-6.065,4.935-11,11-11s11,4.935,11,11C214,17.065,209.065,22,203,22z
		 M203,1c-5.514,0-10,4.486-10,10s4.486,10,10,10s10-4.486,10-10S208.514,1,203,1z"/>
</g>
<circle fill="#2775AB" cx="179" cy="11" r="11"/>
<circle fill="#E6E6E5" cx="227" cy="11" r="11"/>
<g>
	<path fill="#34679A" d="M155,22c-6.065,0-11-4.935-11-11c0-6.065,4.935-11,11-11s11,4.935,11,11C166,17.065,161.065,22,155,22z
		 M155,2c-4.963,0-9,4.037-9,9c0,4.963,4.037,9,9,9s9-4.037,9-9C164,6.038,159.963,2,155,2z"/>
</g>
<g>
	<path fill="#FFFFFF" d="M65.055,8.172c0,0.208-0.073,0.386-0.219,0.531l-5.656,5.656l-1.063,1.063
		c-0.146,0.145-0.323,0.219-0.531,0.219c-0.208,0-0.386-0.074-0.531-0.219l-1.063-1.063l-2.828-2.828
		c-0.146-0.146-0.219-0.324-0.219-0.532c0-0.208,0.073-0.386,0.219-0.531l1.063-1.063c0.146-0.146,0.323-0.219,0.531-0.219
		c0.208,0,0.385,0.073,0.531,0.219l2.297,2.305l5.125-5.133c0.146-0.146,0.323-0.219,0.531-0.219c0.208,0,0.385,0.073,0.531,0.219
		l1.063,1.063C64.981,7.786,65.055,7.964,65.055,8.172z"/>
</g>
<g>
	<path fill="#FFFFFF" d="M113.055,8.172c0,0.208-0.073,0.386-0.219,0.531l-5.656,5.656l-1.063,1.063
		c-0.146,0.145-0.323,0.219-0.531,0.219c-0.208,0-0.386-0.074-0.531-0.219l-1.063-1.063l-2.828-2.828
		c-0.146-0.146-0.219-0.324-0.219-0.532c0-0.208,0.073-0.386,0.219-0.531l1.063-1.063c0.146-0.146,0.323-0.219,0.531-0.219
		c0.208,0,0.385,0.073,0.531,0.219l2.297,2.305l5.125-5.133c0.146-0.146,0.323-0.219,0.531-0.219c0.208,0,0.385,0.073,0.531,0.219
		l1.063,1.063C112.981,7.786,113.055,7.964,113.055,8.172z"/>
</g>
<g>
	<path fill="#FFFFFF" d="M233.055,8.172c0,0.208-0.074,0.386-0.219,0.531l-5.656,5.656l-1.063,1.063
		c-0.146,0.145-0.324,0.219-0.531,0.219c-0.209,0-0.387-0.074-0.531-0.219l-1.063-1.063l-2.828-2.828
		c-0.146-0.146-0.219-0.324-0.219-0.532c0-0.208,0.072-0.386,0.219-0.531l1.063-1.063c0.145-0.146,0.322-0.219,0.531-0.219
		c0.207,0,0.385,0.073,0.531,0.219l2.297,2.305l5.125-5.133c0.145-0.146,0.322-0.219,0.531-0.219c0.207,0,0.385,0.073,0.531,0.219
		l1.063,1.063C232.98,7.786,233.055,7.964,233.055,8.172z"/>
</g>
<g>
	<path fill="#FFFFFF" d="M185.055,8.172c0,0.208-0.073,0.386-0.219,0.531l-5.656,5.656l-1.063,1.063
		c-0.146,0.145-0.323,0.219-0.531,0.219c-0.209,0-0.386-0.074-0.531-0.219l-1.063-1.063l-2.828-2.828
		c-0.146-0.146-0.219-0.324-0.219-0.532c0-0.208,0.072-0.386,0.219-0.531l1.063-1.063c0.146-0.146,0.322-0.219,0.531-0.219
		c0.208,0,0.385,0.073,0.531,0.219l2.297,2.305l5.125-5.133c0.146-0.146,0.322-0.219,0.531-0.219c0.208,0,0.385,0.073,0.531,0.219
		l1.063,1.063C184.981,7.786,185.055,7.964,185.055,8.172z"/>
</g>
</svg>
