<?xml version="1.0" encoding="utf-8"?>
<!-- Generator: Adobe Illustrator 19.0.0, SVG Export Plug-In . SVG Version: 6.00 Build 0)  -->
<svg version="1.1" id="Layer_1" xmlns="http://www.w3.org/2000/svg" xmlns:xlink="http://www.w3.org/1999/xlink" x="0px" y="0px"
	 width="18" height="18" viewBox="-289 381 32 32" style="enable-background:new -289 381 32 32;" xml:space="preserve">
<style type="text/css">
	.st0{fill:#FFFFFF;}
</style>
<path class="st0" d="M-273.2,382c-0.4,0.1-0.9,0.3-1.1,0.7l-7.5,11c-0.5,0.7-0.3,1.6,0.4,2.1c0.7,0.5,1.6,0.3,2.1-0.4l7.5-11
	c0.5-0.7,0.3-1.6-0.3-2.1c-0.3-0.2-0.6-0.3-0.9-0.3C-273.1,382-273.1,382-273.2,382L-273.2,382z M-270.6,384.3
	c-0.1,0.2-0.2,0.4-0.3,0.6l-1.5,2.2l5.6,8.3c0.5,0.7,1.4,0.9,2.1,0.4c0.7-0.5,0.9-1.4,0.4-2.1L-270.6,384.3L-270.6,384.3z
	 M-288.5,394c-0.3,0-0.5,0.2-0.5,0.5v2c0,0.3,0.2,0.5,0.5,0.5h1.7l3.7,14.5c0,0.3,0.3,0.5,0.6,0.5h19c0.3,0,0.6-0.2,0.6-0.5
	l3.7-14.5h1.7c0.3,0,0.5-0.2,0.5-0.5v-2c0-0.3-0.2-0.5-0.5-0.5h-5.6c0.2,0.9-0.2,1.9-1,2.5c-0.4,0.3-0.9,0.5-1.4,0.5
	c-0.8,0-1.5-0.4-2-1l-1.4-2h-8.1l-1.4,2c-0.5,0.7-1.3,1-2,1c-0.5,0-1-0.2-1.5-0.5c-0.8-0.6-1.2-1.6-1-2.5H-288.5L-288.5,394z
	 M-282.4,400c0.2,0,0.3,0.2,0.4,0.4l2,8c0.1,0.2-0.1,0.5-0.4,0.6h-0.1c-0.2,0-0.4-0.2-0.5-0.4l-2-8c-0.1-0.3,0.1-0.5,0.4-0.6
	C-282.5,400-282.5,400-282.4,400L-282.4,400z M-269.6,400c0.1,0,0.1,0,0.2,0c0.3,0,0.5,0.3,0.4,0.6l-1,8c0,0.3-0.2,0.4-0.5,0.4h-0.1
	c-0.3,0-0.5-0.3-0.4-0.6l1-8C-270,400.2-269.8,400-269.6,400L-269.6,400z M-276.6,400c0.3,0,0.5,0.2,0.6,0.4l1,8
	c0,0.3-0.2,0.6-0.4,0.6c-0.3,0-0.5-0.2-0.6-0.4l-1-8C-277,400.3-276.8,400.1-276.6,400z M-263.4,400c0.3,0.1,0.5,0.4,0.4,0.6l-2,8
	c-0.1,0.2-0.3,0.4-0.5,0.4h-0.1c-0.3-0.1-0.4-0.3-0.4-0.6l2-8C-263.9,400.1-263.7,400-263.4,400z"/>
</svg>
