<?xml version="1.0" encoding="utf-8"?>
<!-- Generator: Adobe Illustrator 19.0.0, SVG Export Plug-In . SVG Version: 6.00 Build 0)  -->
<svg version="1.1" id="Layer_1" xmlns="http://www.w3.org/2000/svg" xmlns:xlink="http://www.w3.org/1999/xlink" x="0px" y="0px"
	 width="29px" height="13.907px" viewBox="-291 390.1 29 13.9" style="enable-background:new -291 390.1 29 13.9;" xml:space="preserve">
<style type="text/css">
	.st0{fill:#0083BE;}
</style>
<g>
	<path class="st0" d="M-281.5,397.9l-5.8,5.8c-0.2,0.2-0.5,0.3-0.8,0.3c-0.3,0-0.6-0.1-0.8-0.3l-0.7-0.7c-0.2-0.2-0.3-0.5-0.3-0.8
		c0-0.3,0.1-0.6,0.3-0.8l4.3-4.3l-4.3-4.3c-0.2-0.2-0.3-0.5-0.3-0.8c0-0.3,0.1-0.6,0.3-0.8l0.7-0.7c0.2-0.2,0.5-0.3,0.8-0.3
		c0.3,0,0.6,0.1,0.8,0.3l5.8,5.8c0.2,0.2,0.3,0.5,0.3,0.8S-281.3,397.6-281.5,397.9z"/>
</g>
</svg>
