<svg>
<g id="EXTRAS">
	<path fill="#CCCCCC" d="M121.997,237.836c0.739-3.173,1.531-6.365,2.362-9.511l5.707,1.368c-0.875,3.315-1.655,6.445-2.367,9.51
		L121.997,237.836z"/>
	<path fill="#CCCCCC" d="M113.016,325.641c-0.066-2.936-0.097-5.448-0.097-7.839c0-2.391,0.031-4.904,0.097-7.841h5.881
		c-0.067,2.952-0.098,5.465-0.098,7.841s0.031,4.889,0.098,7.839H113.016z"/>
	<path fill="#CCCCCC" d="M146.978,186.518c1.446-3.375,2.733-6.261,3.995-8.953l12.168,4.986c-1.216,2.719-2.452,5.629-3.832,9.02
		L146.978,186.518z"/>
	<path fill="#CCCCCC" d="M129.603,239.66c0.675-2.897,1.444-5.962,2.383-9.506l13.679,3.28c-0.889,3.539-1.617,6.615-2.257,9.537
		L129.603,239.66z"/>
	<path fill="#CCCCCC" d="M132.492,228.259c3.715-13.735,8.327-27.162,13.718-39.938l12.364,5.066
		c-4.885,12.201-9.063,25.024-12.429,38.146L132.492,228.259z"/>
	<path fill="#CCCCCC" d="M150.973,458.039c-1.259-2.688-2.547-5.575-3.995-8.954l12.332-5.053c1.379,3.39,2.615,6.299,3.832,9.021
		L150.973,458.039z"/>
	<path fill="#CCCCCC" d="M146.21,447.281c-5.391-12.774-10.003-26.201-13.718-39.938l13.654-3.273
		c3.366,13.122,7.544,25.946,12.429,38.146L146.21,447.281z"/>
	<path fill="#CCCCCC" d="M131.985,405.448c-0.939-3.544-1.708-6.609-2.383-9.506l13.805-3.31c0.639,2.912,1.367,5.988,2.258,9.537
		L131.985,405.448z"/>
	<path fill="#CCCCCC" d="M492.198,419.424c1.71-5.51,3.311-11.24,4.77-17.063l13.5,3.975c-1.608,6.023-3.396,12.021-5.322,17.854
		L492.198,419.424z"/>
	<path fill="#CCCCCC" d="M497.438,400.457c1.447-5.925,2.747-11.983,3.875-18.038l13.992,3.089
		c-1.265,6.367-2.723,12.726-4.338,18.932L497.438,400.457z"/>
	<path fill="#CCCCCC" d="M479.212,453.74c2.174-4.816,4.239-9.748,6.15-14.687l12.287,5.427c-2.112,5.148-4.386,10.277-6.771,15.272
		L479.212,453.74z"/>
	<path fill="#CCCCCC" d="M486.064,437.221c1.988-5.237,3.851-10.585,5.546-15.924l12.915,4.752
		c-1.893,5.606-3.953,11.187-6.138,16.615L486.064,437.221z"/>
	<path fill="#CCCCCC" d="M501.666,380.489c1.122-6.234,2.081-12.555,2.854-18.816l14.37,2.115
		c-0.872,6.613-1.951,13.263-3.208,19.796L501.666,380.489z"/>
	<path fill="#CCCCCC" d="M504.756,359.727c0.743-6.323,1.325-12.825,1.733-19.358l14.623,1.077
		c-0.451,6.75-1.112,13.602-1.971,20.399L504.756,359.727z"/>
	<path fill="#CCCCCC" d="M462.967,151.191c-2.213-3.581-4.583-7.203-7.063-10.791l9.722-7.157c2.685,3.688,5.256,7.419,7.658,11.112
		L462.967,151.191z"/>
	<path fill="#CCCCCC" d="M447.704,506.38c2.321-2.974,4.561-5.983,6.666-8.96c0.142-0.199,0.28-0.401,0.42-0.604l9.678,7.124
		c-2.567,3.474-5.131,6.773-7.639,9.829L447.704,506.38z"/>
	<path fill="#CCCCCC" d="M455.904,495.203c2.482-3.593,4.853-7.216,7.063-10.792l10.317,6.835
		c-2.392,3.678-4.963,7.409-7.657,11.113L455.904,495.203z"/>
	<path fill="#CCCCCC" d="M471.8,468.919c2.29-4.346,4.505-8.843,6.599-13.393l11.629,5.993c-2.294,4.718-4.72,9.379-7.224,13.88
		L471.8,468.919z"/>
	<path fill="#CCCCCC" d="M463.99,482.738c2.338-3.856,4.651-7.915,6.888-12.087l10.967,6.458c-2.453,4.338-4.971,8.531-7.5,12.489
		L463.99,482.738z"/>
	<path fill="#CCCCCC" d="M506.605,338.412c0.377-6.62,0.577-13.216,0.597-19.631h14.703c-0.02,6.823-0.243,13.78-0.668,20.708
		L506.605,338.412z"/>
	<path fill="#CCCCCC" d="M470.879,164.951c-2.234-4.166-4.547-8.224-6.889-12.086l10.354-6.861c2.522,3.947,5.04,8.141,7.5,12.491
		L470.879,164.951z"/>
	<path fill="#CCCCCC" d="M478.398,180.076c-2.093-4.548-4.308-9.044-6.598-13.393l11.003-6.479c2.507,4.509,4.934,9.17,7.223,13.88
		L478.398,180.076z"/>
	<path fill="#CCCCCC" d="M485.362,196.548c-1.911-4.939-3.977-9.871-6.15-14.687l11.666-6.011
		c2.381,4.986,4.655,10.114,6.771,15.271L485.362,196.548z"/>
	<path fill="#CCCCCC" d="M506.489,295.233c-0.408-6.532-0.99-13.034-1.733-19.356l14.386-2.118
		c0.856,6.784,1.518,13.637,1.971,20.398L506.489,295.233z"/>
	<path fill="#CCCCCC" d="M491.61,214.306c-1.694-5.336-3.557-10.685-5.546-15.925l12.322-5.442
		c2.185,5.426,4.245,11.006,6.138,16.614L491.61,214.306z"/>
	<path fill="#CCCCCC" d="M507.202,316.821c-0.02-6.417-0.22-13.011-0.597-19.632l14.632-1.077
		c0.425,6.928,0.648,13.885,0.668,20.709H507.202z"/>
	<path fill="#CCCCCC" d="M504.521,273.93c-0.774-6.273-1.733-12.594-2.854-18.816l14.017-3.096
		c1.257,6.533,2.336,13.182,3.208,19.795L504.521,273.93z"/>
	<path fill="#CCCCCC" d="M496.968,233.242c-1.461-5.833-3.063-11.564-4.77-17.064l12.946-4.765
		c1.925,5.829,3.713,11.826,5.323,17.854L496.968,233.242z"/>
	<path fill="#CCCCCC" d="M501.313,253.185c-1.127-6.055-2.428-12.114-3.875-18.038l13.529-3.984
		c1.616,6.209,3.074,12.568,4.338,18.932L501.313,253.185z"/>
	<path fill="#CCCCCC" d="M454.37,138.183c-2.104-2.974-4.343-5.985-6.666-8.96l9.125-7.389c2.51,3.059,5.073,6.358,7.638,9.83
		l-9.677,7.124C454.651,138.585,454.512,138.383,454.37,138.183z"/>
	<path fill="#CCCCCC" d="M160.369,441.479c-2.395-5.987-4.634-12.165-6.662-18.38c-1.998-6.118-3.894-12.67-5.641-19.489
		l9.499-2.278c1.616,6.292,3.434,12.542,5.407,18.594c1.977,6.063,4.148,12.062,6.46,17.841L160.369,441.479z"/>
	<text fid="2-208" transform="matrix(1 0 0 1 205.9536 156.8696)" fill="#666766" font-family="'Arial'" font-size="8">208</text>
	<text fid="2-219" transform="matrix(1 0 0 1 422.165 156.8696)" fill="#666766" font-family="'Arial'" font-size="8">219</text>
	<text fid="2-234" transform="matrix(1 0 0 1 422.165 482.915)" fill="#666766" font-family="'Arial'" font-size="8">234</text>
	<text fid="2-245" transform="matrix(1 0 0 1 205.9536 482.915)" fill="#666766" font-family="'Arial'" font-size="8">245</text>
	<path fill="#009444" d="M322.333,113.865c41.454,0,78.803,25.798,104.718,66.834l3.511-1.804
		c-26.667-42.351-65.306-69.03-108.229-69.03s-81.561,26.679-108.229,69.03l3.51,1.804
		C243.53,139.664,280.879,113.865,322.333,113.865z"/>
	<path fill="#1C75BC" d="M463.906,317.801c0,51.098-13.116,97.863-34.75,133.688l3.512,1.804
		c21.95-36.419,35.238-83.778,35.238-135.491s-13.288-99.072-35.238-135.491l-3.512,1.805
		C450.79,219.937,463.906,266.703,463.906,317.801z"/>
	<path fill="#BE1E2D" d="M180.759,317.801c0-51.098,13.116-97.864,34.75-133.687l-3.511-1.804
		c-21.95,36.419-35.238,83.778-35.238,135.491s13.288,99.072,35.238,135.491l3.512-1.804
		C193.875,415.665,180.759,368.898,180.759,317.801z"/>
	<path fill="#F9ED32" d="M322.333,521.736c-41.454,0-78.803-25.798-104.717-66.832l-3.511,1.803
		c26.667,42.351,65.306,69.029,108.228,69.029c42.923,0,81.561-26.679,108.228-69.029l-3.511-1.804
		C401.135,495.938,363.786,521.736,322.333,521.736z"/>
	<path fill="#1C75BC" d="M634.748,317.801c0,74.496-26.326,144.97-74.592,200.993l3.654,1.877
		c48.493-56.63,74.938-127.728,74.938-202.87c0-75.142-26.444-146.239-74.938-202.87l-3.653,1.877
		C608.422,172.832,634.748,243.305,634.748,317.801z"/>
	<path fill="#F9ED32" d="M543.227,536.975c-59.006,58.527-137.454,90.76-220.894,90.76s-161.888-32.232-220.894-90.76
		c-4.93-4.891-9.658-9.927-14.214-15.078l-3.675,1.889c4.82,5.483,9.837,10.836,15.073,16.029
		c59.76,59.275,139.208,91.92,223.71,91.92s163.95-32.645,223.71-91.92c5.236-5.193,10.254-10.546,15.073-16.029l-3.675-1.889
		C552.885,527.048,548.156,532.084,543.227,536.975z"/>
	<path fill="#009444" d="M101.439,98.627c59.006-58.528,137.454-90.76,220.894-90.76s161.888,32.232,220.894,90.76
		c4.931,4.891,9.658,9.928,14.216,15.079l3.675-1.889c-4.82-5.484-9.838-10.836-15.074-16.03
		c-59.76-59.276-139.208-91.92-223.71-91.92s-163.95,32.645-223.71,91.92c-5.236,5.194-10.254,10.546-15.074,16.031l3.675,1.888
		C91.781,108.555,96.509,103.518,101.439,98.627z"/>
	<path fill="#BE1E2D" d="M9.918,317.801c0-74.496,26.326-144.969,74.591-200.993l-3.653-1.877
		c-48.493,56.63-74.938,127.728-74.938,202.87c0,75.142,26.445,146.239,74.938,202.87l3.653-1.877
		C36.245,462.771,9.918,392.297,9.918,317.801z"/>
</g>
<g id="PITCH">
	<path fill="#F2D2C2" d="M202.407,384.134c0,66.233,53.693,119.927,119.926,119.927c66.233,0,119.926-53.693,119.926-119.927
		v-132.27c0-66.233-53.692-119.926-119.926-119.926c-66.233,0-119.926,53.693-119.926,119.926V384.134z"/>
	<path fill="none" stroke="#FFFFFF" d="M322.333,499.061c-63.37,0-114.926-51.556-114.926-114.927v-132.27
		c0-63.371,51.556-114.926,114.926-114.926s114.926,51.556,114.926,114.926v132.27C437.259,447.505,385.703,499.061,322.333,499.061
		z"/>
	<path fill="none" stroke="#FFFFFF" d="M322.333,494.061c-60.613,0-109.926-49.313-109.926-109.927v-132.27
		c0-60.614,49.313-109.926,109.926-109.926s109.926,49.313,109.926,109.926v132.27C432.259,444.748,382.946,494.061,322.333,494.061
		z"/>
	<path fill="none" stroke="#FFFFFF" d="M322.333,489.061c-57.856,0-104.926-47.07-104.926-104.927v-132.27
		c0-57.856,47.069-104.926,104.926-104.926s104.926,47.07,104.926,104.926v132.27C427.259,441.99,380.189,489.061,322.333,489.061z"
		/>
	<path fill="none" stroke="#FFFFFF" d="M322.333,484.061c-55.099,0-99.926-44.827-99.926-99.927v-132.27
		c0-55.1,44.827-99.926,99.926-99.926c55.1,0,99.926,44.827,99.926,99.926v132.27C422.259,439.233,377.433,484.061,322.333,484.061z
		"/>
	<path fill="none" stroke="#FFFFFF" d="M322.333,479.061c-52.342,0-94.926-42.584-94.926-94.927v-132.27
		c0-52.343,42.583-94.926,94.926-94.926c52.342,0,94.926,42.583,94.926,94.926v132.27
		C417.259,436.477,374.675,479.061,322.333,479.061z"/>
	<rect x="247.67" y="199.899" fill="#129448" width="148.634" height="236.197"/>
	<rect x="247.67" y="414.624" fill="#106C38" width="148.634" height="21.472"/>
	<rect x="247.67" y="371.679" fill="#106C38" width="148.634" height="21.473"/>
	<rect x="247.67" y="328.732" fill="#106C38" width="148.634" height="21.474"/>
	<rect x="247.67" y="285.788" fill="#106C38" width="148.634" height="21.473"/>
	<rect x="247.67" y="242.84" fill="#106C38" width="148.634" height="21.473"/>
	<rect x="247.67" y="199.897" fill="#106C38" width="148.634" height="21.475"/>
	<rect x="257.578" y="209.346" fill="none" stroke="#FFFFFF" width="128.818" height="217.303"/>
	<rect x="321.987" y="253.588" fill="none" stroke="#FFFFFF" width="0" height="128.818"/>
	<ellipse fill="none" stroke="#FFFFFF" cx="321.986" cy="317.998" rx="29.726" ry="28.342"/>
	<rect x="292.261" y="398.306" fill="none" stroke="#FFFFFF" width="59.451" height="28.344"/>
	<rect x="302.167" y="412.478" fill="none" stroke="#FFFFFF" width="39.64" height="14.172"/>
	<path fill="none" stroke="#FFFFFF" d="M321.985,384.134c-9.23,0-16.965,6.027-19.165,14.172h38.336
		C338.949,390.161,331.218,384.134,321.985,384.134z"/>
	<rect x="292.261" y="209.35" fill="none" stroke="#FFFFFF" width="59.451" height="28.338"/>
	<rect x="302.167" y="209.348" fill="none" stroke="#FFFFFF" width="39.64" height="14.172"/>
	<path fill="none" stroke="#FFFFFF" d="M321.985,251.864c-9.23,0-16.965-6.029-19.165-14.176h38.336
		C338.949,245.832,331.218,251.864,321.985,251.864z"/>
</g>
<g id="AREAS">
	<path id="4-451" stroke-width="0" d="M24.317,388.641c-5.51-22.814-8.341-46.307-8.417-69.859h53.577
		c0.019,8.25,0.273,16.703,0.757,25.161l-9.769,0.807l0.058,0.956c0.229,3.848,0.518,7.804,0.856,11.754l0.084,0.975l9.765-0.808
		c0.679,7.726,1.565,15.494,2.639,23.122L24.317,388.641z"/>
	<path id="4-449" stroke-width="0" d="M50.133,457.256c-11.076-21.148-19.6-43.582-25.348-66.705l49.358-7.862
		c1.135,7.814,2.487,15.619,4.022,23.229l-9.531,2.303l0.19,0.928c0.742,3.619,1.572,7.386,2.537,11.513l0.224,0.962l9.522-2.302
		c1.988,8.422,4.263,16.858,6.77,25.105L50.133,457.256z"/>
	<path id="4-447" stroke-width="0" d="M92.6,518.546c-16.199-18.146-30.168-38.167-41.541-59.535l37.395-12.709
		c2.629,8.495,5.542,16.908,8.672,25.039l-9.025,3.821l0.345,0.887c1.599,4.115,3.044,7.69,4.418,10.932l0.382,0.902l9.022-3.821
		c3.426,8.021,7.176,15.995,11.159,23.734L92.6,518.546z"/>
	<path id="4-431" stroke-width="0" d="M529.239,507.796c3.985-7.743,7.735-15.719,11.159-23.734l9.021,3.821l0.383-0.902
		c1.371-3.234,2.816-6.811,4.417-10.932l0.345-0.887l-9.023-3.821c3.126-8.123,6.04-16.538,8.671-25.039l37.395,12.709
		c-11.373,21.371-25.344,41.392-41.541,59.535L529.239,507.796z"/>
	<path id="4-429" stroke-width="0" d="M554.787,444.427c2.508-8.249,4.782-16.686,6.77-25.105l9.522,2.302l0.225-0.962
		c0.966-4.131,1.796-7.897,2.536-11.513l0.19-0.928l-9.53-2.303c1.535-7.612,2.887-15.417,4.021-23.229l49.359,7.862
		c-5.747,23.122-14.271,45.555-25.348,66.705L554.787,444.427z"/>
	<path id="4-427" stroke-width="0" d="M568.799,380.748c1.074-7.628,1.961-15.396,2.639-23.122l9.766,0.808l0.084-0.975
		c0.339-3.97,0.627-7.924,0.856-11.754l0.057-0.956l-9.769-0.807c0.483-8.45,0.738-16.904,0.758-25.161h53.576
		c-0.075,23.552-2.906,47.044-8.417,69.859L568.799,380.748z"/>
	<path id="4-425" stroke-width="0" d="M573.189,316.821c-0.02-8.256-0.274-16.711-0.758-25.16l9.769-0.808l-0.057-0.956
		c-0.229-3.826-0.518-7.781-0.856-11.754l-0.084-0.974l-9.766,0.808c-0.678-7.726-1.564-15.494-2.639-23.122l49.55-7.892
		c5.511,22.813,8.342,46.306,8.417,69.858H573.189z"/>
	<path id="4-423" stroke-width="0" d="M568.521,252.914c-1.135-7.812-2.486-15.617-4.021-23.229l9.53-2.303l-0.19-0.927
		c-0.741-3.619-1.571-7.384-2.536-11.513l-0.225-0.961l-9.522,2.301c-1.987-8.421-4.262-16.857-6.77-25.105l37.746-12.829
		c11.077,21.151,19.601,43.583,25.348,66.705L568.521,252.914z"/>
	<path id="4-421" stroke-width="0" d="M554.212,189.302c-2.63-8.502-5.545-16.917-8.671-25.041l9.023-3.821l-0.345-0.887
		c-1.602-4.124-3.047-7.699-4.417-10.931l-0.383-0.902l-9.021,3.82c-3.423-8.013-7.173-15.988-11.159-23.734l20.826-10.749
		c16.197,18.144,30.168,38.164,41.541,59.535L554.212,189.302z"/>
	<path id="4-405" stroke-width="0" d="M51.059,176.592c11.372-21.366,25.343-41.39,41.541-59.535l20.827,10.749
		c-3.984,7.741-7.734,15.717-11.159,23.734l-9.022-3.82l-0.382,0.902c-1.373,3.238-2.818,6.814-4.418,10.931l-0.345,0.887
		l9.025,3.821c-3.13,8.131-6.043,16.545-8.672,25.041L51.059,176.592z"/>
	<path id="4-403" stroke-width="0" d="M24.785,245.052c5.748-23.124,14.271-45.556,25.348-66.705l37.746,12.829
		c-2.507,8.246-4.782,16.682-6.77,25.105l-9.522-2.301l-0.224,0.961c-0.964,4.125-1.794,7.89-2.537,11.513l-0.19,0.927l9.531,2.303
		c-1.535,7.61-2.887,15.415-4.022,23.229L24.785,245.052z"/>
	<path id="4-401" stroke-width="0" d="M15.9,316.821c0.077-23.552,2.907-47.045,8.417-69.858l49.549,7.892
		c-1.074,7.628-1.96,15.396-2.639,23.122l-9.765-0.808l-0.084,0.974c-0.338,3.954-0.626,7.909-0.856,11.754l-0.058,0.956
		l9.769,0.808c-0.484,8.457-0.739,16.911-0.757,25.16H15.9z"/>
	<path id="3-351" stroke-width="0" d="M79.673,379.823c-2.82-20.041-4.271-40.564-4.316-61.042h24.824
		c0.02,7.405,0.272,15.004,0.748,22.622l-9.769,0.808l0.063,0.962c0.272,4.158,0.581,8.003,0.942,11.752l0.093,0.963l9.77-0.808
		c0.688,6.923,1.583,13.897,2.663,20.759L79.673,379.823z M123.117,372.903c-2.351-14.83-3.753-30.074-4.171-45.341l-7.843,0.044
		l-0.023-0.962c-0.072-2.961-0.11-5.487-0.118-7.863h-4.901c0.05,18.855,1.543,37.727,4.44,56.131L123.117,372.903z"/>
	<path id="3-349" stroke-width="0" d="M93.435,442.537c-5.925-19.529-10.46-39.965-13.484-60.773L105,377.774
		c1.136,6.962,2.48,13.915,4.001,20.693l-9.524,2.301l0.215,0.942c0.838,3.681,1.785,7.533,2.814,11.452l0.244,0.93l9.525-2.301
		c1.973,7.408,4.221,14.822,6.69,22.069L93.435,442.537z M124.524,431.971c-6.01-17.633-10.622-36.17-13.713-55.122l12.618-2.01
		c2.995,18.218,7.448,36.04,13.242,53.004L124.524,431.971z"/>
	<path id="3-347" stroke-width="0" d="M118.658,505.097c-9.798-19.034-18.087-39.442-24.65-60.684l25.594-8.699
		c2.659,7.656,5.59,15.188,8.722,22.416l-9.023,3.822l0.396,0.908c1.619,3.707,3.272,7.317,4.913,10.729l0.405,0.843l9.032-3.825
		c3.432,7.048,7.182,14.032,11.159,20.787L118.658,505.097z M150.425,488.702c-10.002-16.961-18.497-35.414-25.263-54.879
		l12.148-4.127c6.574,18.855,14.822,36.714,24.532,53.113L150.425,488.702z"/>
	<path id="3-345" stroke-width="0" d="M152.013,569.959c-21.355-14.136-40.88-30.919-58.059-49.907l52.254-26.969
		c3.738,6.252,7.694,12.341,11.772,18.123l-7.987,5.681l0.568,0.798c1.986,2.794,3.661,5.085,5.273,7.207
		c0.361,0.475,0.727,0.941,1.092,1.407l1.249,1.604l7.996-5.686c5.03,6.418,10.344,12.586,15.813,18.355L152.013,569.959z
		 M186.182,536.458c-6.267-6.612-12.272-13.689-17.859-21.049c-5.991-7.891-11.672-16.304-16.895-25.02l11.42-5.895
		c9.564,15.89,20.486,30.346,32.481,42.992L186.182,536.458z"/>
	<path id="3-343" stroke-width="0" d="M217.734,602.863c-22.483-8.041-44.021-18.736-64.044-31.803l29.651-29.071
		c5.308,5.508,10.834,10.724,16.449,15.522l-5.979,7.795l0.715,0.604c2.999,2.53,6.101,5.014,9.221,7.384l0.776,0.589l5.973-7.786
		c6.438,4.836,13.176,9.31,20.055,13.313L217.734,602.863z M233.364,574.261c-16.314-9.513-31.724-21.746-45.828-36.386l9.149-8.972
		c13.167,13.643,27.577,25.092,42.856,34.05L233.364,574.261z"/>
	<path id="3-341" stroke-width="0" d="M285.869,618.712c-22.613-2.595-44.893-7.7-66.263-15.187l12.644-23.139
		c6.344,3.608,12.832,6.837,19.31,9.607l-3.232,9.293l0.851,0.355c3.619,1.512,7.335,2.932,11.046,4.221l0.925,0.321l3.226-9.272
		c7.946,2.711,16.112,4.871,24.3,6.428L285.869,618.712z M289.613,595.529c-18.866-3.597-37.209-10.42-54.55-20.291l6.176-11.303
		c16.101,9.206,33.049,15.586,50.414,18.974L289.613,595.529z"/>
	<path id="3-339" stroke-width="0" d="M321.333,620.756c-11.054,0-22.324-0.614-33.514-1.827l2.784-17.234
		c7.889,1.407,15.909,2.277,23.87,2.588v9.813l0.949,0.029c1.967,0.063,3.956,0.095,5.911,0.095c1.956,0,3.945-0.031,5.911-0.095
		l0.949-0.029v-9.813c7.96-0.311,15.981-1.181,23.87-2.588l2.783,17.234C343.656,620.142,332.387,620.756,321.333,620.756z
		 M321.333,598.54c-9.92,0-19.939-0.893-29.792-2.654l2.038-12.613c9.209,1.678,18.542,2.527,27.754,2.527
		c9.212,0,18.544-0.85,27.754-2.527l2.038,12.613C341.271,597.647,331.253,598.54,321.333,598.54z"/>
	<path id="3-337" stroke-width="0" d="M353.991,601.34c8.188-1.557,16.354-3.717,24.3-6.428l3.226,9.272l0.926-0.321
		c3.711-1.289,7.429-2.709,11.047-4.221l0.851-0.355l-3.232-9.293c6.477-2.77,12.965-5.998,19.309-9.607l12.645,23.139
		c-21.37,7.486-43.651,12.592-66.264,15.187L353.991,601.34z M351.014,582.909c17.364-3.388,34.313-9.768,50.413-18.974
		l6.176,11.303c-17.34,9.871-35.685,16.694-54.55,20.291L351.014,582.909z"/>
	<path id="3-335" stroke-width="0" d="M412.116,579.409c6.876-4.001,13.615-8.475,20.056-13.313l5.973,7.786l0.776-0.589
		c3.119-2.37,6.223-4.854,9.22-7.384l0.715-0.604l-5.979-7.795c5.612-4.797,11.139-10.012,16.449-15.522l29.65,29.071
		c-20.023,13.066-41.562,23.762-64.044,31.803L412.116,579.409z M403.124,562.953c15.277-8.958,29.688-20.407,42.857-34.05
		l9.148,8.972c-14.104,14.64-29.515,26.874-45.828,36.386L403.124,562.953z"/>
	<path id="3-333" stroke-width="0" d="M460.681,540.572c5.469-5.769,10.782-11.936,15.813-18.355l7.995,5.686l1.236-1.586
		c0.37-0.472,0.74-0.943,1.105-1.425c1.618-2.131,3.294-4.421,5.273-7.207l0.567-0.798l-7.988-5.681
		c4.081-5.784,8.035-11.872,11.773-18.123l52.254,26.969c-17.179,18.988-36.704,35.771-58.059,49.907L460.681,540.572z
		 M447.337,527.487c11.996-12.648,22.918-27.104,32.479-42.992l11.421,5.894c-5.224,8.72-10.905,17.133-16.896,25.021
		c-5.586,7.359-11.59,14.437-17.857,21.049L447.337,527.487z"/>
	<path id="3-331" stroke-width="0" d="M497.459,491.394c3.979-6.756,7.728-13.74,11.159-20.787l9.032,3.825l0.405-0.843
		c1.636-3.4,3.288-7.01,4.912-10.729l0.397-0.908l-9.022-3.822c3.131-7.229,6.062-14.76,8.721-22.416l25.594,8.699
		c-6.562,21.241-14.852,41.649-24.648,60.684L497.459,491.394z M480.823,482.81c9.708-16.396,17.957-34.255,24.532-53.113
		l12.148,4.127c-6.767,19.465-15.262,37.918-25.264,54.879L480.823,482.81z"/>
	<path id="3-329" stroke-width="0" d="M523.701,433.861c2.465-7.236,4.713-14.651,6.689-22.069l9.524,2.301l0.244-0.93
		c1.028-3.909,1.975-7.763,2.813-11.452l0.216-0.942l-9.523-2.301c1.521-6.778,2.865-13.731,4.001-20.693l25.049,3.989
		c-3.023,20.808-7.558,41.243-13.483,60.773L523.701,433.861z M505.995,427.843c5.795-16.97,10.248-34.792,13.242-53.004
		l12.618,2.01c-3.092,18.952-7.703,37.489-13.714,55.122L505.995,427.843z"/>
	<path id="3-327" stroke-width="0" d="M537.977,375.839c1.08-6.868,1.975-13.843,2.663-20.759l9.769,0.808l0.093-0.963
		c0.36-3.734,0.669-7.577,0.942-11.752l0.063-0.962l-9.77-0.808c0.477-7.61,0.728-15.211,0.748-22.622h24.824
		c-0.045,20.478-1.497,41.001-4.317,61.042L537.977,375.839z M519.55,372.903c2.814-17.751,4.266-35.947,4.315-54.122h12.74
		c-0.051,18.854-1.543,37.726-4.44,56.131L519.55,372.903z"/>
	<path id="3-325" stroke-width="0" d="M542.485,316.821c-0.021-7.41-0.271-15.011-0.748-22.622l9.77-0.808l-0.063-0.961
		c-0.273-4.174-0.582-8.018-0.942-11.752l-0.093-0.962l-9.769,0.808c-0.688-6.918-1.583-13.892-2.663-20.759l25.016-3.985
		c2.82,20.041,4.272,40.565,4.317,61.042H542.485z M523.865,316.821c-0.05-18.174-1.501-36.371-4.315-54.122l12.615-2.009
		c2.897,18.405,4.39,37.277,4.44,56.131H523.865z"/>
	<path id="3-323" stroke-width="0" d="M519.237,260.764c-2.994-18.212-7.447-36.034-13.242-53.004l12.146-4.128
		c6.011,17.634,10.622,36.17,13.714,55.122L519.237,260.764z M537.666,257.829c-1.136-6.962-2.479-13.914-4.001-20.693l9.523-2.301
		l-0.216-0.943c-0.839-3.689-1.785-7.542-2.813-11.452l-0.244-0.929l-9.524,2.301c-1.977-7.419-4.225-14.833-6.689-22.069
		l25.53-8.678c5.926,19.53,10.46,39.966,13.484,60.774L537.666,257.829z"/>
	<path id="3-321" stroke-width="0" d="M505.355,205.907c-6.574-18.857-14.824-36.717-24.532-53.114l11.417-5.893
		c10.002,16.959,18.497,35.413,25.264,54.877L505.355,205.907z M523.063,199.888c-2.658-7.652-5.588-15.183-8.721-22.417
		l9.022-3.821l-0.397-0.908c-1.622-3.716-3.274-7.325-4.912-10.729l-0.405-0.842l-9.032,3.825
		c-3.43-7.045-7.179-14.029-11.159-20.789l26.55-13.702c9.799,19.038,18.088,39.444,24.648,60.684L523.063,199.888z"/>
	<path id="3-319" stroke-width="0" d="M479.816,151.107c-9.563-15.889-20.483-30.345-32.479-42.993l9.147-8.969
		c6.264,6.608,12.268,13.685,17.857,21.047c5.992,7.891,11.673,16.305,16.896,25.021L479.816,151.107z M496.457,142.519
		c-3.735-6.247-7.69-12.335-11.773-18.122l7.988-5.681l-0.567-0.799c-1.982-2.788-3.658-5.078-5.273-7.206
		c-0.371-0.489-0.747-0.968-1.123-1.447l-1.219-1.564l-7.996,5.686c-5.031-6.422-10.345-12.589-15.813-18.355l29.972-29.387
		c21.355,14.136,40.881,30.92,58.059,49.907L496.457,142.519z"/>
	<path id="3-317" stroke-width="0" d="M445.981,106.698c-13.17-13.643-27.581-25.091-42.857-34.048l6.178-11.306
		c16.314,9.511,31.724,21.745,45.828,36.384L445.981,106.698z M459.326,93.613c-5.31-5.51-10.836-10.724-16.449-15.521l5.979-7.795
		l-0.714-0.604c-2.992-2.525-6.094-5.009-9.221-7.384l-0.776-0.59l-5.973,7.787c-6.443-4.839-13.183-9.313-20.056-13.313
		l12.816-23.454c22.479,8.04,44.018,18.734,64.044,31.803L459.326,93.613z"/>
	<path id="3-315" stroke-width="0" d="M401.427,71.667c-16.1-9.207-33.049-15.585-50.412-18.974l2.038-12.621
		c18.867,3.598,37.211,10.421,54.55,20.292L401.427,71.667z M410.416,55.216c-6.344-3.609-12.832-6.837-19.309-9.607l3.232-9.293
		l-0.851-0.355c-3.633-1.517-7.349-2.937-11.047-4.221l-0.926-0.321l-3.226,9.273c-7.944-2.712-16.11-4.872-24.3-6.428l2.806-17.372
		c22.611,2.594,44.893,7.7,66.264,15.186L410.416,55.216z"/>
	<path id="3-313" stroke-width="0" d="M349.087,52.33c-9.208-1.677-18.54-2.527-27.754-2.527c-9.214,0-18.547,0.85-27.754,2.527
		l-2.038-12.613c9.855-1.761,19.874-2.654,29.792-2.654c9.918,0,19.937,0.893,29.792,2.654L349.087,52.33z M287.819,16.673
		c11.192-1.212,22.462-1.827,33.514-1.827c11.053,0,22.322,0.615,33.514,1.827l-2.783,17.234c-7.887-1.407-15.908-2.276-23.87-2.587
		v-9.814l-0.949-0.03c-1.957-0.062-3.945-0.094-5.911-0.094c-1.965,0-3.954,0.032-5.911,0.094l-0.949,0.03v9.814
		c-7.962,0.311-15.983,1.18-23.87,2.587L287.819,16.673z"/>
	<path id="3-311" stroke-width="0" d="M235.063,60.365c17.339-9.871,35.683-16.694,54.55-20.292l2.039,12.621
		c-17.364,3.388-34.313,9.767-50.414,18.974L235.063,60.365z M219.605,32.077c21.371-7.485,43.652-12.592,66.263-15.186
		l2.807,17.372c-8.189,1.556-16.354,3.716-24.3,6.428l-3.226-9.273l-0.925,0.321c-3.698,1.284-7.415,2.704-11.046,4.221
		l-0.851,0.355l3.232,9.293c-6.478,2.771-12.965,5.998-19.31,9.607L219.605,32.077z"/>
	<path id="3-309" stroke-width="0" d="M187.536,97.728c14.104-14.639,29.514-26.873,45.828-36.384l6.178,11.306
		c-15.278,8.957-29.688,20.406-42.856,34.048L187.536,97.728z M153.689,64.542c20.026-13.068,41.564-23.763,64.044-31.803
		l12.816,23.454c-6.875,4.001-13.614,8.474-20.055,13.313l-5.973-7.787l-0.777,0.59c-3.127,2.375-6.229,4.859-9.22,7.384
		l-0.714,0.604l5.979,7.795c-5.616,4.799-11.143,10.015-16.449,15.521L153.689,64.542z"/>
	<path id="3-307" stroke-width="0" d="M151.429,145.213c5.221-8.713,10.902-17.126,16.895-25.021
		c5.591-7.362,11.596-14.439,17.859-21.047l9.148,8.969c-11.995,12.646-22.916,27.102-32.481,42.993L151.429,145.213z
		 M93.954,115.55c17.179-18.986,36.703-35.771,58.059-49.907l29.972,29.387c-5.468,5.768-10.783,11.936-15.813,18.355l-7.996-5.687
		l-1.233,1.583c-0.372,0.473-0.743,0.946-1.108,1.428c-1.609,2.119-3.285,4.409-5.273,7.206l-0.568,0.799l7.987,5.681
		c-4.081,5.786-8.036,11.874-11.772,18.122L93.954,115.55z"/>
	<path id="3-305" stroke-width="0" d="M125.163,201.778c6.766-19.464,15.261-37.917,25.263-54.877l11.417,5.893
		c-9.71,16.399-17.958,34.259-24.532,53.114L125.163,201.778z M94.008,191.19c6.562-21.241,14.851-41.647,24.65-60.684
		l26.548,13.702c-3.979,6.758-7.728,13.742-11.159,20.789l-9.032-3.825l-0.405,0.842c-1.642,3.415-3.295,7.025-4.913,10.729
		l-0.397,0.908l9.024,3.821c-3.134,7.234-6.064,14.765-8.722,22.417L94.008,191.19z"/>
	<path id="3-303" stroke-width="0" d="M110.811,258.754c3.092-18.952,7.703-37.488,13.713-55.122l12.147,4.128
		c-2.194,6.427-4.243,13.158-6.1,20.04l-7.616-1.826l-0.246,0.923c-1.008,3.778-1.964,7.629-2.842,11.447l-0.217,0.946l7.61,1.825
		c-1.464,6.483-2.752,13.084-3.832,19.65L110.811,258.754z M79.951,253.838c3.024-20.809,7.559-41.245,13.484-60.774l25.531,8.678
		c-2.469,7.246-4.717,14.66-6.69,22.069l-9.525-2.301l-0.244,0.929c-1.029,3.919-1.976,7.772-2.814,11.451l-0.215,0.943l9.524,2.301
		c-1.521,6.779-2.866,13.731-4.001,20.693L79.951,253.838z"/>
	<path id="3-301" stroke-width="0" d="M75.357,316.821c0.045-20.476,1.496-41,4.316-61.042l25.017,3.985
		c-1.08,6.861-1.975,13.834-2.663,20.759l-9.77-0.808l-0.093,0.962c-0.361,3.75-0.669,7.595-0.942,11.752l-0.063,0.961l9.769,0.808
		c-0.476,7.618-0.728,15.218-0.748,22.622H75.357z M110.961,316.821c0.008-2.375,0.046-4.903,0.118-7.863l0.023-0.962l7.843,0.047
		c0.418-15.27,1.821-30.516,4.171-45.343l-12.616-2.009c-2.897,18.404-4.391,37.276-4.44,56.131H110.961z"/>
	<path id="1-VIP" stroke-width="0" d="M139.462,355.948c-0.895-8.345-1.502-16.882-1.805-25.407h9.8
		c0.293,8.1,0.872,16.229,1.722,24.195L139.462,355.948z M147.458,305.062c0.293-8.1,0.872-16.229,1.722-24.196l-9.717-1.211
		c-0.895,8.345-1.502,16.882-1.805,25.407H147.458z M170.717,352.053c-0.249-2.191-0.48-4.477-0.691-6.809l-0.107-1.178
		c-0.096-1.106-0.185-2.215-0.268-3.325c-0.055-0.715-0.104-1.433-0.153-2.15l-0.042-0.611c-0.052-0.763-0.105-1.526-0.149-2.292
		c-0.095-1.599-0.175-3.206-0.244-4.815c-0.02-0.462-0.073-1.982-0.073-1.982c-0.046-1.258-0.084-2.52-0.115-3.784l-0.04-1.79
		c-0.033-1.833-0.056-3.668-0.056-5.515c0-1.844,0.022-3.682,0.056-5.515l0.04-1.785c0.031-1.269,0.069-2.534,0.115-3.797
		c0,0,0.054-1.521,0.073-1.969c0.069-1.613,0.15-3.223,0.245-4.827c0.045-0.77,0.098-1.536,0.15-2.302l0.04-0.576
		c0.05-0.728,0.1-1.455,0.155-2.18c0.083-1.104,0.171-2.206,0.267-3.306l0.111-1.221c0.209-2.316,0.44-4.591,0.688-6.775
		l-15.678-1.954c-1.285,11.956-1.936,24.13-1.936,36.206c0,12.077,0.651,24.25,1.936,36.206L170.717,352.053z"/>
	<path id="1-149" stroke-width="0" d="M168.316,417.087c-6.272-19.437-10.665-39.99-13.063-61.131l15.691-1.955
		c0.579,4.811,1.288,9.668,2.107,14.453l0.071,0.406c0.426,2.466,0.881,4.909,1.351,7.264l0.042,0.215
		c0.988,4.93,2.118,9.873,3.357,14.692l0.116,0.445c0.583,2.25,1.198,4.507,1.829,6.709l0.137,0.484
		c1.27,4.403,2.659,8.792,4.131,13.057L168.316,417.087z M154.435,387.974c-2.158-10.221-3.852-20.735-5.042-31.288l-9.716,1.211
		c1.231,10.886,2.992,21.76,5.24,32.358L154.435,387.974z"/>
	<path id="1-147" stroke-width="0" d="M188.539,464.356c-7.721-14.092-14.315-29.357-19.614-45.406l15.812-5.374
		c0.555,1.57,1.124,3.128,1.706,4.676l0.303,0.801c0.63,1.658,1.275,3.305,1.935,4.938l0.328,0.811
		c0.687,1.683,1.39,3.351,2.107,5.003l0.235,0.547c3.226,7.38,6.808,14.561,10.646,21.342l0.395,0.688
		c0.717,1.257,1.445,2.504,2.182,3.737L188.539,464.356z M183.236,467.081c-2.95-5.383-5.769-10.995-8.39-16.706l-9.068,3.715
		c2.767,6.063,5.698,11.933,8.728,17.478L183.236,467.081z"/>
	<path id="2-245" stroke-width="0" d="M194.228,474.215c-1.563-2.565-3.154-5.297-4.74-8.142l16.103-8.273
		c0.675,1.107,1.357,2.204,2.048,3.292l0.744,1.161c0.663,1.029,1.333,2.047,2.01,3.058L194.228,474.215z M229.936,489.899
		c-1.586-1.676-3.19-3.447-4.867-5.376l-18.226,14.758l-0.614-0.78c-5.11-6.489-9.974-13.445-14.468-20.689l-1.723,0.949
		l-0.49-0.795c-1.789-2.905-3.548-5.913-5.363-9.169l-8.732,4.487c4.468,8.031,9.324,15.765,14.444,23.004
		c2.264,3.201,4.687,6.444,7.202,9.641l0.598,0.759l-10.594,8.578c2.389,2.861,4.788,5.606,7.15,8.182L229.936,489.899z"/>
	<path id="2-243" stroke-width="0" d="M237.845,559.672c-15.066-9.188-29.275-20.883-42.26-34.786l35.708-33.571
		c9.374,9.669,19.51,17.809,30.15,24.212L237.845,559.672z"/>
	<path id="2-241" stroke-width="0" d="M291.965,580.974c-18.131-3.545-35.764-10.367-52.439-20.289l23.606-44.16
		c11.824,6.877,24.25,11.622,36.964,14.115L291.965,580.974z"/>
	<path id="2-239" stroke-width="0" d="M321.333,583.84c-9.111,0-18.339-0.841-27.441-2.501l8.131-50.338
		c6.401,1.139,12.892,1.716,19.311,1.716c6.419,0,12.909-0.577,19.31-1.716l8.133,50.338
		C339.671,582.999,330.445,583.84,321.333,583.84z"/>
	<path id="2-237" stroke-width="0" d="M342.569,530.64c12.715-2.493,25.142-7.239,36.966-14.116l23.604,44.161
		c-16.674,9.922-34.307,16.743-52.438,20.289L342.569,530.64z"/>
	<path id="2-235" stroke-width="0" d="M381.224,515.525c10.64-6.402,20.775-14.541,30.148-24.211l35.71,33.571
		c-12.987,13.903-27.196,25.599-42.261,34.786L381.224,515.525z"/>
	<path id="2-234" stroke-width="0" d="M412.729,489.899c1.588-1.677,3.19-3.448,4.867-5.376l18.226,14.758l0.616-0.78
		c5.296-6.727,10.328-13.955,14.957-21.484l0.539-0.876l-19.66-10.83c0.676-1.011,1.346-2.029,2.01-3.057l0.743-1.161
		c0.691-1.089,1.372-2.187,2.048-3.293l22.293,11.454c-4.261,7.638-8.9,15.015-13.799,21.941c-2.154,3.046-4.461,6.135-6.857,9.183
		l-0.598,0.76l4.571,3.699l0.614-0.78c2.471-3.141,4.849-6.325,7.069-9.466c3.906-5.522,7.703-11.421,11.298-17.545l2.615,1.344
		c-3.676,6.271-7.546,12.288-11.513,17.898c-2.272,3.213-4.696,6.456-7.202,9.641l-0.598,0.759l10.594,8.578
		c-2.385,2.858-4.784,5.603-7.15,8.182L412.729,489.899z"/>
	<path id="1-131" stroke-width="0" d="M438.092,456.118c0.729-1.221,1.45-2.455,2.161-3.7l0.427-0.744
		c3.83-6.766,7.405-13.934,10.627-21.303l0.263-0.613c0.708-1.629,1.399-3.271,2.076-4.929l0.355-0.879
		c0.648-1.604,1.282-3.221,1.901-4.851l0.337-0.887c0.575-1.534,1.139-3.08,1.688-4.637l22.385,7.608
		c-5.414,16.423-12.138,32.008-19.995,46.353L438.092,456.118z M468.306,465.031c6.816-13.156,12.725-27.261,17.57-41.956
		l2.781,0.944c-4.893,14.829-10.858,29.069-17.742,42.353L468.306,465.031z"/>
	<path id="1-129" stroke-width="0" d="M486.485,421.211c4.529-14.038,8.143-28.771,10.746-43.822l2.899,0.467
		c-2.633,15.221-6.285,30.114-10.864,44.301L486.485,421.211z M458.578,411.727c0.482-1.396,0.953-2.802,1.414-4.217l0.181-0.544
		c0.549-1.695,1.083-3.407,1.603-5.13l0.14-0.455c0.524-1.748,1.031-3.505,1.522-5.275l0.117-0.411
		c0.493-1.786,0.969-3.585,1.428-5.394l0.099-0.374c0.471-1.865,0.924-3.737,1.358-5.622l0.051-0.216
		c1.292-5.614,2.426-11.35,3.375-17.064l22.521,3.629c-2.594,16.743-6.449,33.104-11.466,48.666L458.578,411.727z"/>
	<path id="1-123" stroke-width="0" d="M470.175,365.09c0.003-0.026,0.194-1.274,0.194-1.274c0.185-1.17,0.367-2.343,0.535-3.522
		c0.051-0.355,0.097-0.712,0.143-1.07l0.12-0.902c0.179-1.312,0.357-2.624,0.519-3.945c0.042-0.349,0.202-1.806,0.202-1.806
		l0.024-0.215c0.152-1.314,0.305-2.626,0.438-3.948c0.037-0.375,0.225-2.437,0.225-2.437c0.113-1.193,0.227-2.386,0.324-3.587
		c0.035-0.439,0.064-0.881,0.095-1.323l0.109-1.538c0.08-1.067,0.16-2.135,0.225-3.207c0.033-0.553,0.06-1.11,0.086-1.666
		l0.099-1.932c0.045-0.841,0.091-1.683,0.124-2.527c0.032-0.791,0.054-1.587,0.076-2.383l0.057-1.931
		c0.021-0.617,0.042-1.235,0.054-1.855c0.041-2.016,0.061-4.038,0.062-6.067l0.002-0.152c0-2.082-0.021-4.156-0.063-6.223
		c-0.011-0.511-0.026-1.02-0.044-1.53l-0.06-2.005c-0.023-0.88-0.048-1.76-0.083-2.635c-0.029-0.737-0.068-1.471-0.108-2.204
		l-0.103-2.028c-0.03-0.632-0.06-1.264-0.098-1.893c-0.057-0.921-0.124-1.835-0.191-2.749l-0.133-1.848
		c-0.032-0.492-0.065-0.984-0.104-1.474c-0.084-1.03-0.182-2.054-0.278-3.078l-0.152-1.662c-0.038-0.429-0.075-0.858-0.118-1.285
		c-0.111-1.09-0.235-2.174-0.359-3.258l-0.175-1.546c-0.042-0.389-0.084-0.777-0.131-1.164c-0.148-1.214-0.313-2.419-0.477-3.625
		c0,0-0.253-1.921-0.306-2.294c-0.161-1.13-0.337-2.252-0.512-3.375c0,0-0.211-1.377-0.217-1.415l22.506-3.625
		c2.483,16.681,3.742,33.804,3.742,50.914c0,17.111-1.259,34.235-3.743,50.914L470.175,365.09z M499.298,363.824
		c1.994-15.137,3.005-30.616,3.005-46.023s-1.011-30.886-3.005-46.023l2.9-0.468c2.021,15.299,3.045,30.933,3.045,46.491
		c0,15.557-1.024,31.192-3.045,46.491L499.298,363.824z"/>
	<path id="1-121B" stroke-width="0" d="M469.866,268.578c-0.959-5.755-2.09-11.472-3.373-17.05l-0.076-0.321
		c-0.427-1.848-0.871-3.687-1.332-5.514l-0.122-0.462c-0.452-1.78-0.919-3.55-1.405-5.309l-0.137-0.483
		c-0.484-1.744-0.984-3.479-1.501-5.202l-0.16-0.52c-0.513-1.699-1.041-3.392-1.586-5.073l-0.191-0.581
		c-0.458-1.404-0.926-2.8-1.404-4.188l22.342-7.593c5.016,15.561,8.872,31.923,11.467,48.667L469.866,268.578z M497.231,258.214
		c-2.605-15.058-6.219-29.791-10.746-43.823l2.781-0.945c4.579,14.187,8.231,29.08,10.864,44.301L497.231,258.214z"/>
	<path id="1-121A" stroke-width="0" d="M457.928,222.026c-0.548-1.552-1.109-3.093-1.684-4.623l-0.349-0.917
		c-0.614-1.618-1.243-3.223-1.888-4.815l-0.368-0.913c-0.671-1.643-1.358-3.271-2.058-4.888l-0.279-0.649
		c-3.22-7.36-6.792-14.522-10.619-21.287l-0.44-0.766c-0.708-1.24-1.424-2.468-2.151-3.685l22.226-11.419
		c7.857,14.344,14.58,29.928,19.995,46.354L457.928,222.026z M485.876,212.527c-4.846-14.695-10.753-28.799-17.57-41.956
		l2.609-1.341c6.884,13.284,12.85,27.523,17.742,42.352L485.876,212.527z"/>
	<path id="2-219" stroke-width="0" d="M437.075,177.802c-0.676-1.107-1.357-2.204-2.048-3.291l-0.742-1.161
		c-0.666-1.03-1.335-2.049-2.011-3.059l19.66-10.83l-0.539-0.875c-4.628-7.528-9.66-14.756-14.957-21.484l-0.616-0.78
		l-18.226,14.757c-1.674-1.924-3.276-3.695-4.867-5.376l35.684-33.548c2.368,2.581,4.768,5.327,7.15,8.182l-10.594,8.579
		l0.598,0.759c2.505,3.182,4.929,6.425,7.202,9.64c3.969,5.611,7.838,11.628,11.513,17.899l-2.615,1.344
		c-3.597-6.126-7.394-12.026-11.298-17.545c-2.225-3.146-4.604-6.331-7.07-9.465l-0.614-0.782l-4.57,3.701l0.598,0.759
		c2.399,3.052,4.707,6.141,6.857,9.182c4.898,6.928,9.538,14.305,13.799,21.942L437.075,177.802z"/>
	<path id="2-217" stroke-width="0" d="M411.373,144.288c-9.375-9.67-19.511-17.81-30.149-24.211l23.598-44.146
		c15.063,9.187,29.273,20.882,42.261,34.786L411.373,144.288z"/>
	<path id="2-215" stroke-width="0" d="M379.535,119.078c-11.825-6.877-24.252-11.623-36.965-14.116l8.131-50.333
		c18.131,3.545,35.765,10.367,52.438,20.289L379.535,119.078z"/>
	<path id="2-213" stroke-width="0" d="M340.644,104.601c-6.401-1.139-12.893-1.716-19.311-1.716
		c-6.418,0-12.91,0.577-19.311,1.716l-8.131-50.335c9.104-1.661,18.331-2.503,27.441-2.503s18.337,0.842,27.442,2.503
		L340.644,104.601z"/>
	<path id="2-211" stroke-width="0" d="M239.526,74.918c16.675-9.922,34.307-16.744,52.438-20.289l8.131,50.333
		c-12.714,2.494-25.14,7.239-36.964,14.116L239.526,74.918z"/>
	<path id="2-209" stroke-width="0" d="M195.584,110.716c12.987-13.903,27.196-25.598,42.261-34.786l23.597,44.146
		c-10.639,6.402-20.775,14.541-30.15,24.21L195.584,110.716z"/>
	<path id="2-208" stroke-width="0" d="M189.487,169.529c1.586-2.845,3.177-5.577,4.74-8.143l16.165,8.905
		c-0.677,1.011-1.347,2.029-2.01,3.058l-0.744,1.161c-0.691,1.088-1.373,2.185-2.048,3.292L189.487,169.529z M184.185,166.805
		c1.815-3.255,3.575-6.263,5.363-9.168l0.49-0.795l1.723,0.949c4.494-7.244,9.358-14.201,14.468-20.689l0.614-0.781l18.226,14.758
		c1.677-1.928,3.281-3.699,4.867-5.376l-35.684-33.547c-2.362,2.575-4.762,5.32-7.15,8.181l10.594,8.579l-0.598,0.759
		c-2.515,3.195-4.938,6.438-7.202,9.64c-5.12,7.238-9.976,14.973-14.444,23.004L184.185,166.805z"/>
	<path id="1-105" stroke-width="0" d="M165.778,181.513c2.767-6.061,5.698-11.932,8.728-17.477l8.729,4.485
		c-2.952,5.387-5.77,10.999-8.39,16.708L165.778,181.513z M163.281,214.734c1.892-5.738,3.958-11.413,6.151-16.898l-9.063-3.713
		c-2.276,5.691-4.413,11.555-6.361,17.46L163.281,214.734z M184.737,222.026c0.55-1.554,1.113-3.097,1.688-4.629l0.342-0.902
		c0.617-1.623,1.247-3.232,1.892-4.828l0.366-0.905c0.672-1.645,1.358-3.275,2.06-4.892l0.28-0.65
		c2.444-5.589,5.09-11.065,7.878-16.301c0.855-1.606,1.775-3.278,2.732-4.969l0.468-0.815c0.702-1.228,1.412-2.445,2.131-3.65
		l-16.035-8.239c-7.721,14.094-14.315,29.36-19.614,45.407L184.737,222.026z"/>
	<path id="1-103" stroke-width="0" d="M155.254,279.647c2.398-21.141,6.79-41.696,13.063-61.132l15.771,5.36
		c-1.482,4.297-2.86,8.655-4.124,13.033l-0.157,0.553c-0.624,2.18-1.231,4.408-1.804,6.619l-0.135,0.517
		c-1.237,4.813-2.363,9.741-3.347,14.647l-0.053,0.274c-0.465,2.329-0.915,4.75-1.338,7.192l-0.08,0.457
		c-0.817,4.769-1.525,9.619-2.104,14.434L155.254,279.647z M149.394,278.917c1.188-10.548,2.883-21.063,5.042-31.287l-9.518-2.282
		c-2.248,10.595-4.008,21.471-5.24,32.359L149.394,278.917z M157.564,234.271c1.536-5.976,3.252-11.912,5.109-17.674l-9.272-3.151
		c-1.885,5.848-3.677,12.077-5.335,18.548L157.564,234.271z"/>
</g>
<g id="LABELS">
	<text fid="1-103" transform="matrix(1 0 0 1 162.1499 252.1494)" fill="#F5F5F5" font-family="'Arial'" font-size="8">103</text>
	<text fid="1-105" transform="matrix(1 0 0 1 179.228 198.7266)" fill="#F5F5F5" font-family="'Arial'" font-size="8">105</text>
	<text fid="2-209" transform="matrix(1 0 0 1 221.9727 112.2002)" fill="#F5F5F5" font-family="'Arial'" font-size="8">209</text>
	<text fid="2-211" transform="matrix(1 0 0 1 263.5615 88.9443)" fill="#F5F5F5" font-family="'Arial'" font-size="8">211</text>
	<text fid="2-213" transform="matrix(1 0 0 1 314.792 80.2725)" fill="#F5F5F5" font-family="'Arial'" font-size="8">213</text>
	<text fid="2-215" transform="matrix(1 0 0 1 366.3145 88.9443)" fill="#F5F5F5" font-family="'Arial'" font-size="8">215</text>
	<text fid="2-217" transform="matrix(1 0 0 1 407.6123 112.2002)" fill="#F5F5F5" font-family="'Arial'" font-size="8">217</text>
	<text fid="1-121A" transform="matrix(1 0 0 1 450.0391 197.1367)" fill="#F5F5F5" font-family="'Arial'" font-size="8">121A</text>
	<text fid="1-121B" transform="matrix(1 0 0 1 466.3262 244.5205)" fill="#F5F5F5" font-family="'Arial'" font-size="8">121B</text>
	<text fid="1-123" transform="matrix(1 0 0 1 476.7568 319.8921)" fill="#F5F5F5" font-family="'Arial'" font-size="8">123</text>
	<text fid="1-129" transform="matrix(1 0 0 1 468.9414 395.2627)" fill="#F5F5F5" font-family="'Arial'" font-size="8">129</text>
	<text fid="1-131" transform="matrix(1 0 0 1 452.6611 442.6475)" fill="#F5F5F5" font-family="'Arial'" font-size="8">131</text>
	<text fid="2-235" transform="matrix(1 0 0 1 407.6123 527.584)" fill="#F5F5F5" font-family="'Arial'" font-size="8">235</text>
	<text fid="2-237" transform="matrix(1 0 0 1 366.3145 550.8398)" fill="#F5F5F5" font-family="'Arial'" font-size="8">237</text>
	<text fid="2-239" transform="matrix(1 0 0 1 314.7925 559.5107)" fill="#F5F5F5" font-family="'Arial'" font-size="8">239</text>
	<text fid="2-241" transform="matrix(1 0 0 1 263.27 550.8398)" fill="#F5F5F5" font-family="'Arial'" font-size="8">241</text>
	<text fid="2-243" transform="matrix(1 0 0 1 221.9727 527.584)" fill="#F5F5F5" font-family="'Arial'" font-size="8">243</text>
	<text fid="1-147" transform="matrix(1 0 0 1 178.248 441.0576)" fill="#F5F5F5" font-family="'Arial'" font-size="8">147</text>
	<text fid="1-149" transform="matrix(1 0 0 1 161.1699 387.6348)" fill="#F5F5F5" font-family="'Arial'" font-size="8">149</text>
	<text fid="3-301" transform="matrix(1 0 0 1 82.896 273.6904)" fill="#F5F5F5" font-family="'Arial'" font-size="8">301</text>
	<text fid="3-303" transform="matrix(1 0 0 1 96.8701 214.3052)" fill="#F5F5F5" font-family="'Arial'" font-size="8">303</text>
	<text fid="3-305" transform="matrix(1 0 0 1 121.3848 150.6973)" fill="#F5F5F5" font-family="'Arial'" font-size="8">305</text>
	<text fid="3-307" transform="matrix(1 0 0 1 128.3018 110.4663)" fill="#F5F5F5" font-family="'Arial'" font-size="8">307</text>
	<text fid="3-309" transform="matrix(1 0 0 1 180.2749 62.0093)" fill="#F5F5F5" font-family="'Arial'" font-size="8">309</text>
	<text fid="3-311" transform="matrix(1 0 0 1 229.7788 39.5103)" fill="#F5F5F5" font-family="'Arial'" font-size="8">311</text>
	<text fid="3-313" transform="matrix(1 0 0 1 295.1914 25.8789)" fill="#F5F5F5" font-family="'Arial'" font-size="8">313</text>
	<text fid="3-315" transform="matrix(1 0 0 1 400.3877 39.5103)" fill="#F5F5F5" font-family="'Arial'" font-size="8">315</text>
	<text fid="3-317" transform="matrix(1 0 0 1 449.5996 62.0093)" fill="#F5F5F5" font-family="'Arial'" font-size="8">317</text>
	<text fid="3-319" transform="matrix(1 0 0 1 501.2832 110.4663)" fill="#F5F5F5" font-family="'Arial'" font-size="8">319</text>
	<text fid="3-321" transform="matrix(1 0 0 1 508.4902 150.6973)" fill="#F5F5F5" font-family="'Arial'" font-size="8">321</text>
	<text fid="3-323" transform="matrix(1 0 0 1 533.9854 214.3047)" fill="#F5F5F5" font-family="'Arial'" font-size="8">323</text>
	<text fid="3-325" transform="matrix(1 0 0 1 546.9795 273.6904)" fill="#F5F5F5" font-family="'Arial'" font-size="8">325</text>
	<text fid="3-327" transform="matrix(1 0 0 1 546.9795 367.0234)" fill="#F5F5F5" font-family="'Arial'" font-size="8">327</text>
	<text fid="3-329" transform="matrix(1 0 0 1 533.0049 430.3789)" fill="#F5F5F5" font-family="'Arial'" font-size="8">329</text>
	<text fid="3-331" transform="matrix(1 0 0 1 509.9521 489.0869)" fill="#F5F5F5" font-family="'Arial'" font-size="8">331</text>
	<text fid="3-333" transform="matrix(1 0 0 1 501.5742 539.1191)" fill="#F5F5F5" font-family="'Arial'" font-size="8">333</text>
	<text fid="3-335" transform="matrix(1 0 0 1 449.5996 577.7744)" fill="#F5F5F5" font-family="'Arial'" font-size="8">335</text>
	<text fid="3-337" transform="matrix(1 0 0 1 400.3867 598.3145)" fill="#F5F5F5" font-family="'Arial'" font-size="8">337</text>
	<text fid="3-339" transform="matrix(1 0 0 1 334.6826 613.9043)" fill="#F5F5F5" font-family="'Arial'" font-size="8">339</text>
	<text fid="3-341" transform="matrix(1 0 0 1 229.7793 598.3145)" fill="#F5F5F5" font-family="'Arial'" font-size="8">341</text>
	<text fid="3-343" transform="matrix(1 0 0 1 180.5654 577.7734)" fill="#F5F5F5" font-family="'Arial'" font-size="8">343</text>
	<text fid="3-345" transform="matrix(1 0 0 1 128.5928 539.1191)" fill="#F5F5F5" font-family="'Arial'" font-size="8">345</text>
	<text fid="3-347" transform="matrix(1 0 0 1 118.897 490.624)" fill="#F5F5F5" font-family="'Arial'" font-size="8">347</text>
	<text fid="3-349" transform="matrix(1 0 0 1 96.8701 431.9795)" fill="#F5F5F5" font-family="'Arial'" font-size="8">349</text>
	<text fid="3-351" transform="matrix(1 0 0 1 82.2427 367.0234)" fill="#F5F5F5" font-family="'Arial'" font-size="8">351</text>
	<text fid="4-401" transform="matrix(1 0 0 1 38.3428 283.9824)" fill="#F5F5F5" font-family="'Arial'" font-size="8">401</text>
	<text fid="4-403" transform="matrix(1 0 0 1 49.791 217.7212)" fill="#F5F5F5" font-family="'Arial'" font-size="8">403</text>
	<text fid="4-405" transform="matrix(1 0 0 1 70.8022 174.8701)" fill="#F5F5F5" font-family="'Arial'" font-size="8">405</text>
	<text fid="4-421" transform="matrix(1 0 0 1 558.7813 174.8701)" fill="#F5F5F5" font-family="'Arial'" font-size="8">421</text>
	<text fid="4-423" transform="matrix(1 0 0 1 579.793 217.7212)" fill="#F5F5F5" font-family="'Arial'" font-size="8">423</text>
	<text fid="4-425" transform="matrix(1 0 0 1 591.2422 283.9824)" fill="#F5F5F5" font-family="'Arial'" font-size="8">425</text>
	<text fid="4-427" transform="matrix(1 0 0 1 591.2422 355.8008)" fill="#F5F5F5" font-family="'Arial'" font-size="8">427</text>
	<text fid="4-429" transform="matrix(1 0 0 1 579.793 422.0635)" fill="#F5F5F5" font-family="'Arial'" font-size="8">429</text>
	<text fid="4-431" transform="matrix(1 0 0 1 558.7822 464.9131)" fill="#F5F5F5" font-family="'Arial'" font-size="8">431</text>
	<text fid="4-447" transform="matrix(1 0 0 1 70.8022 464.9141)" fill="#F5F5F5" font-family="'Arial'" font-size="8">447</text>
	<text fid="4-449" transform="matrix(1 0 0 1 49.7915 422.0635)" fill="#F5F5F5" font-family="'Arial'" font-size="8">449</text>
	<text fid="4-451" transform="matrix(1 0 0 1 38.3428 355.8018)" fill="#F5F5F5" font-family="'Arial'" font-size="8">451</text>
	<text fid="1-VIP" transform="matrix(1 0 0 1 154.8022 319.8926)" fill="#F5F5F5" font-family="'Arial'" font-size="8">VIP</text>
</g>
</svg>
