<svg>
<g id="COURSE-ENCLOSURE">
	<path id="CE-CE" stroke-width="0" d="M301.73,286.898c-1.104,0-2-0.896-2-2v-12c0-1.104,0.896-2,2-2h181c1.104,0,2,0.896,2,2v12
		c0,1.104-0.896,2-2,2H301.73z"/>
	<text fid="CE-CE" transform="matrix(1 0 0 1 319.3435 279.4805)" fill="#FFFFFF" font-family="'Arial'" font-size="10">COURSE ENCLOSURE TICKET</text>
	<path fill="#222222" d="M1,215v88l558.113-90.098C440.114,114.504,292,165,1,215z"/>
</g>
<g id="PREMIER-ENCLOSURE-PACKAGE">
	<path id="PE-PEP" stroke-width="0" d="M370,40.898c-1.104,0-2-0.896-2-2v-12c0-1.104,0.896-2,2-2h94c1.105,0,2,0.896,2,2v12
		c0,1.104-0.895,2-2,2H370z"/>
	<text fid="PE-PEP" transform="matrix(1 0 0 1 377.637 33.4805)" fill="#FFFFFF" font-family="'Arial'" font-size="10">POSH PACKAGE</text>
	<path fill="#222222" d="M342.507,66.708l-0.745-2.778l10.239-0.596h6.5l0.667,2.5l28.333,0.333l4.333,4.5l0.333,3.833h191
		l41,111.667l-51,5c-19.333-15-83.333-45.667-90.667-47l10.942-10.24l28.059,5.24c36.5,7.167,36.166-33.333,10-37.5L487.667,94.5
		c-32.5-4.833-35.166,27.333-5.666,35.5l-12.501,9.833c-138-38.667-309.333,22-468.5,44.667c0,1.667,0-43.333,0-43.333v-5
		L103.835,113l-1-10.5l73.667-13.333l-2.167-9l70.667-10.5 M559.114,212.902L1,303v-88C292,165,440.114,114.504,559.114,212.902z"/>
</g>
<g id="PREMIER-ENCLOSURE-STANDARD">
	<path id="PE-PE" stroke-width="0" d="M477.725,40.898c-1.104,0-2-0.896-2-2v-12c0-1.104,0.896-2,2-2h165c1.105,0,2,0.896,2,2v12
		c0,1.104-0.895,2-2,2H477.725z"/>
	<text fid="PE-PE" transform="matrix(1 0 0 1 485.9495 33.4805)" fill="#FFFFFF" font-family="'Arial'" font-size="10">PREMIER ENCLOSURE TICKET</text>
	<path fill="#222222" d="M342.507,66.708l-0.745-2.778l10.239-0.596h6.5l0.667,2.5l28.333,0.333l4.333,4.5l0.333,3.833h191
		l41,111.667l-51,5c-19.333-15-83.333-45.667-90.667-47l10.942-10.24l28.059,5.24c36.5,7.167,36.166-33.333,10-37.5L487.667,94.5
		c-32.5-4.833-35.166,27.333-5.666,35.5l-12.501,9.833c-138-38.667-309.333,22-468.5,44.667c0,1.667,0-43.333,0-43.333v-5
		L103.835,113l-1-10.5l73.667-13.333l-2.167-9l70.667-10.5 M559.114,212.902L1,303v-88C292,165,440.114,114.504,559.114,212.902z"/>
</g>
<g id="GRANDSTAND-PREMIER">
	<path id="GP-GPP" stroke-width="0" d="M223.584,40.898c-1.104,0-2-0.896-2-2v-12c0-1.104,0.896-2,2-2h114c1.105,0,2,0.896,2,2v12
		c0,1.104-0.895,2-2,2H223.584z"/>
	<text fid="GP-GPP" transform="matrix(1 0 0 1 231.4998 33.481)" fill="#FFFFFF" font-family="'Arial'" font-size="10">PUNTERS PACKAGE</text>
	<path fill="#222222" d="M1,141.167c0,0,0,45,0,43.333c159.167-22.667,330.5-83.333,468.5-44.667L482.001,130
		c-29.5-8.167-26.834-40.333,5.666-35.5l43.834,7.167c26.166,4.167,26.5,44.667-10,37.5l-28.059-5.24l-10.942,10.24
		c7.334,1.333,71.334,32,90.667,47l51-5l-41-111.667h-191l-0.333-3.833l-4.333-4.5l-28.333-0.333l-0.667-2.5h-6.5l-1,37.5l4.667,15
		l-85.546,10.508c-5.872,1.159-11.74-1.186-12.121-4.008L252.168,86.5l4.833-1l-12-15.833l-70.667,10.5l2.167,9L102.835,102.5
		l1,10.5L1,136.167V141.167z"/>
</g>
<g id="GRANDSTAND-STANDARD">
	<path id="GP-GP" stroke-width="0" d="M12,40.898c-1.104,0-2-0.896-2-2v-12c0-1.104,0.896-2,2-2h198
		c1.105,0,2,0.896,2,2v12c0,1.104-0.895,2-2,2H12z"/>
	
		<text fid="GP-GP" transform="matrix(1 0 0 1 19.9675 33.481)" fill="#FFFFFF" font-family="'Arial'" font-size="10">GRANDSTAND AND PADDOCK TICKET</text>
	<path fill="#222222" d="M1,141.167c0,0,0,45,0,43.333c159.167-22.667,330.5-83.333,468.5-44.667L482.001,130
		c-29.5-8.167-26.834-40.333,5.666-35.5l43.834,7.167c26.166,4.167,26.5,44.667-10,37.5l-28.059-5.24l-10.942,10.24
		c7.334,1.333,71.334,32,90.667,47l51-5l-41-111.667h-191l-0.333-3.833l-4.333-4.5l-28.333-0.333l-0.667-2.5h-6.5l-1,37.5l4.667,15
		l-85.546,10.508c-5.872,1.159-11.74-1.186-12.121-4.008L252.168,86.5l4.833-1l-12-15.833l-70.667,10.5l2.167,9L102.835,102.5
		l1,10.5L1,136.167V141.167z"/>
</g>
<g id="GRANDSTAND-POSH">
	<path id="GP-GPPL" stroke-width="0" d="M12,66.898c-1.104,0-2-0.896-2-2v-12c0-1.104,0.896-2,2-2h95
		c1.105,0,2,0.896,2,2v12c0,1.104-0.895,2-2,2H12z"/>
	
		<text fid="GP-GPPL" transform="matrix(1 0 0 1 20.1375 59.4805)" fill="#FFFFFF" font-family="'Arial'" font-size="10">POSH PACKAGE</text>
	<path fill="#222222" d="M342.507,66.708l-0.745-2.778l10.239-0.596h6.5l0.667,2.5l28.333,0.333l4.333,4.5
		l0.333,3.833h191l41,111.667l-51,5c-19.333-15-83.333-45.667-90.667-47l10.942-10.24l28.059,5.24c36.5,7.167,36.166-33.333,10-37.5
		L487.667,94.5c-32.5-4.833-35.166,27.333-5.666,35.5l-12.501,9.833c-138-38.667-309.333,22-468.5,44.667c0,1.667,0-43.333,0-43.333
		v-5L103.835,113l-1-10.5l73.667-13.333l-2.167-9l70.667-10.5 M1,215v88l558.113-90.098C440.114,114.504,292,165,1,215z"/>
</g>
</svg>
