<svg>
<g id="PITCH">
	<path fill="#FFF9AE" d="M523.954,394.389c0,4.349-3.523,7.873-7.872,7.873H195.919c-4.348,0-7.872-3.524-7.872-7.873V190.612
		c0-4.347,3.524-7.873,7.872-7.873h320.163c4.349,0,7.872,3.525,7.872,7.873V394.389L523.954,394.389z"/>
	<path fill="#00A451" d="M476.104,340.298c0,4.348-3.523,7.873-7.872,7.873H243.769c-4.348,0-7.872-3.525-7.872-7.873v-95.596
		c0-4.348,3.524-7.872,7.872-7.872H468.23c4.349,0,7.872,3.524,7.872,7.872L476.104,340.298L476.104,340.298z"/>
	<path fill="#FFFFFF" d="M476.104,265.44v-1.573H235.896v1.573h59.265v54.073h-59.265v1.574h179.368v0.058h1.574v-0.058h59.266
		v-1.574h-59.266V265.44H476.104z M296.735,319.513v-26.249h118.529v26.249H296.735z M415.264,291.689H296.735v-26.25h118.529
		V291.689L415.264,291.689z"/>
	<rect x="355.214" y="209.438" fill="#ED1C24" width="1.574" height="166.125"/>
</g>
<g id="AREAS">
	<path id="K-513" fill="#222222" stroke-width="0" d="M609.721,479.47
		c9.624-10.033,17.121-22.193,21.739-35.288c0.877-2.486,1.649-4.983,2.296-7.421c0.18-0.677,0.343-1.359,0.507-2.044l0.025-0.106
		c1.667-6.915,2.583-13.982,2.729-21.04H710v33.86c0,35.433-13.543,68.783-38.18,94.14L609.721,479.47z"/>
	
		<rect id="K-512" x="637.037" y="294.499" fill="#222222" stroke-width="0" width="72.962" height="115.07"/>
	
		<rect id="K-511" x="637.037" y="175.431" fill="#222222" stroke-width="0" width="72.962" height="115.069"/>
	<path id="K-510" fill="#222222" stroke-width="0" d="M637.017,171.431
		c-0.119-5.981-0.781-11.946-1.972-17.758c-0.645-3.154-1.458-6.315-2.415-9.397c-4.487-14.429-12.391-27.784-22.909-38.745
		l62.101-62.1C696.457,68.788,710,102.138,710,137.57v33.862L637.017,171.431L637.017,171.431z"/>
	
		<rect id="K-K207" x="613.548" y="379.551" fill="#222222" stroke-width="0" width="19.489" height="30.02"/>
	
		<rect id="K-K206" x="613.548" y="345.53" fill="#222222" stroke-width="0" width="19.489" height="30.021"/>
	
		<rect id="K-K205" x="613.548" y="311.51" fill="#222222" stroke-width="0" width="19.489" height="30.021"/>
	
		<rect id="K-K204" x="613.548" y="277.49" fill="#222222" stroke-width="0" width="19.489" height="30.021"/>
	<rect id="K-K203" x="613.548" y="243.47" fill="#222222" stroke-width="0" width="19.489" height="30.02"/>
	
		<rect id="K-K202" x="613.548" y="209.451" fill="#222222" stroke-width="0" width="19.489" height="30.02"/>
	
		<rect id="K-K201" x="613.548" y="175.431" fill="#222222" stroke-width="0" width="19.489" height="30.021"/>
	
		<rect id="K-K107" x="590.061" y="379.551" fill="#222222" stroke-width="0" width="19.487" height="30.02"/>
	
		<rect id="K-K106" x="590.061" y="345.53" fill="#222222" stroke-width="0" width="19.487" height="30.021"/>
	
		<rect id="K-K105" x="590.061" y="311.51" fill="#222222" stroke-width="0" width="19.487" height="30.021"/>
	
		<rect id="K-K104" x="590.061" y="277.49" fill="#222222" stroke-width="0" width="19.487" height="30.021"/>
	<rect id="K-K103" x="590.061" y="243.47" fill="#222222" stroke-width="0" width="19.487" height="30.02"/>
	
		<rect id="K-K102" x="590.061" y="209.451" fill="#222222" stroke-width="0" width="19.487" height="30.02"/>
	
		<rect id="K-K101" x="590.061" y="175.431" fill="#222222" stroke-width="0" width="19.487" height="30.021"/>
	
		<rect id="K-KCS2" x="540.992" y="294.499" fill="#222222" stroke-width="0" width="45.067" height="115.07"/>
	
		<rect id="K-KCS1" x="540.992" y="175.431" fill="#222222" stroke-width="0" width="45.067" height="115.069"/>
	<path id="G-505" fill="#222222" stroke-width="0" d="M2,171.431V137.57
		c0-35.432,13.543-68.782,38.18-94.139l62.099,62.1c-17.169,17.866-26.804,41.128-27.297,65.901L2,171.431L2,171.431z"/>
	<rect id="G-504" x="2" y="175.431" fill="#222222" stroke-width="0" width="72.962" height="234.14"/>
	<path id="G-503" fill="#222222" stroke-width="0" d="M40.18,541.57C15.543,516.213,2,482.862,2,447.433
		V413.57h72.982c0.493,24.774,10.127,48.034,27.297,65.9L40.18,541.57z"/>
	
		<rect id="G-VIP2" x="102.451" y="175.431" fill="#222222" stroke-width="0" width="68.558" height="115.069"/>
	
		<rect id="G-VIP1" x="102.451" y="294.499" fill="#222222" stroke-width="0" width="68.558" height="115.07"/>
	
		<rect id="G-G207" x="78.962" y="175.431" fill="#222222" stroke-width="0" width="19.489" height="30.021"/>
	<rect id="G-G206" x="78.962" y="209.451" fill="#222222" stroke-width="0" width="19.489" height="30.02"/>
	<rect id="G-G205" x="78.962" y="243.47" fill="#222222" stroke-width="0" width="19.489" height="30.02"/>
	<rect id="G-G204" x="78.962" y="277.49" fill="#222222" stroke-width="0" width="19.489" height="30.021"/>
	<rect id="G-G203" x="78.962" y="311.51" fill="#222222" stroke-width="0" width="19.489" height="30.021"/>
	<rect id="G-G202" x="78.962" y="345.53" fill="#222222" stroke-width="0" width="19.489" height="30.021"/>
	<rect id="G-G201" x="78.962" y="379.551" fill="#222222" stroke-width="0" width="19.489" height="30.02"/>
	<rect id="D-515" x="358" y="509.615" fill="#222222" stroke-width="0" width="178.992" height="72.962"/>
	<path id="D-514" fill="#222222" stroke-width="0" d="M540.992,582.577v-72.981
		c7.621-0.153,15.182-1.184,22.502-3.067c7.632-1.962,15.045-4.87,22.032-8.644c0.364-0.197,0.724-0.403,1.081-0.61l0.567-0.325
		c3.724-2.104,7.248-4.396,10.479-6.811c3.224-2.413,6.323-5.045,9.236-7.841l62.1,62.102
		c-25.357,24.636-58.708,38.179-94.139,38.179L540.992,582.577L540.992,582.577z"/>
	<path id="D-502" fill="#222222" stroke-width="0" d="M137.147,582.578
		c-35.433,0-68.783-13.543-94.139-38.18l62.099-62.101c12.169,11.686,27.133,20.046,43.4,24.229
		c7.319,1.885,14.879,2.914,22.5,3.067l0.001,72.982h-33.861V582.578z"/>
	
		<rect id="D-501" x="175.009" y="509.615" fill="#222222" stroke-width="0" width="178.991" height="72.963"/>
	<path id="D-KD2" fill="#222222" stroke-width="0" d="M540.992,462.601
		c26.57-1.028,48.001-22.459,49.029-49.03h42.993c-0.146,6.741-1.022,13.495-2.615,20.104l-0.026,0.107
		c-0.156,0.653-0.313,1.308-0.484,1.952c-0.617,2.335-1.358,4.729-2.199,7.116c-6.217,17.621-17.43,32.865-32.43,44.083
		c-3.095,2.313-6.478,4.511-10.053,6.532l-0.598,0.343c-0.327,0.188-0.653,0.377-0.985,0.557c-6.7,3.618-13.81,6.407-21.126,8.288
		c-6.996,1.801-14.221,2.788-21.506,2.941V462.601z"/>
	<path id="D-KD1" fill="#222222" stroke-width="0" d="M540.992,413.57h45.025
		c-1.022,24.367-20.659,44.004-45.025,45.027V413.57z"/>
	<path id="D-GD2" fill="#222222" stroke-width="0" d="M171.009,505.596
		c-7.286-0.153-14.511-1.142-21.505-2.94c-16.215-4.172-31.083-12.673-42.996-24.585c-17.29-17.289-27.019-40.128-27.525-64.499
		l42.996-0.001c1.029,26.571,22.458,48.002,49.029,49.03L171.009,505.596z"/>
	<path id="D-GD1" fill="#222222" stroke-width="0" d="M171.009,458.598
		c-24.367-1.023-44.003-20.66-45.027-45.026l45.027-0.001V458.598z"/>
	
		<rect id="D-D210" x="175.009" y="486.128" fill="#222222" stroke-width="0" width="32.599" height="19.487"/>
	
		<rect id="D-D209" x="211.607" y="486.128" fill="#222222" stroke-width="0" width="32.598" height="19.487"/>
	
		<rect id="D-D208" x="248.205" y="486.128" fill="#222222" stroke-width="0" width="32.599" height="19.487"/>
	
		<rect id="D-D207" x="284.804" y="486.128" fill="#222222" stroke-width="0" width="32.598" height="19.487"/>
	
		<rect id="D-D206" x="321.401" y="486.128" fill="#222222" stroke-width="0" width="32.599" height="19.487"/>
	<rect id="D-D205" x="358" y="486.128" fill="#222222" stroke-width="0" width="32.6" height="19.487"/>
	<rect id="D-D204" x="394.6" y="486.128" fill="#222222" stroke-width="0" width="32.6" height="19.487"/>
	
		<rect id="D-D203" x="431.198" y="486.128" fill="#222222" stroke-width="0" width="32.597" height="19.487"/>
	
		<rect id="D-D202" x="467.795" y="486.128" fill="#222222" stroke-width="0" width="32.598" height="19.487"/>
	
		<rect id="D-D201" x="504.393" y="486.128" fill="#222222" stroke-width="0" width="32.601" height="19.487"/>
	
		<rect id="D-D110" x="175.009" y="462.64" fill="#222222" stroke-width="0" width="32.599" height="19.488"/>
	
		<rect id="D-D109" x="211.607" y="462.64" fill="#222222" stroke-width="0" width="32.598" height="19.488"/>
	
		<rect id="D-D108" x="248.205" y="462.64" fill="#222222" stroke-width="0" width="32.599" height="19.488"/>
	
		<rect id="D-D107" x="284.804" y="462.64" fill="#222222" stroke-width="0" width="32.598" height="19.488"/>
	
		<rect id="D-D106" x="321.401" y="462.64" fill="#222222" stroke-width="0" width="32.599" height="19.488"/>
	<rect id="D-D105" x="358" y="462.64" fill="#222222" stroke-width="0" width="32.6" height="19.488"/>
	<rect id="D-D104" x="394.6" y="462.64" fill="#222222" stroke-width="0" width="32.6" height="19.488"/>
	
		<rect id="D-D103" x="431.198" y="462.64" fill="#222222" stroke-width="0" width="32.597" height="19.488"/>
	
		<rect id="D-D102" x="467.795" y="462.64" fill="#222222" stroke-width="0" width="32.598" height="19.488"/>
	
		<rect id="D-D101" x="504.393" y="462.64" fill="#222222" stroke-width="0" width="32.601" height="19.488"/>
	<rect id="D-DCS2" x="358" y="413.57" fill="#222222" stroke-width="0" width="178.992" height="45.069"/>
	
		<rect id="D-DCS1" x="175.009" y="413.57" fill="#222222" stroke-width="0" width="178.991" height="45.069"/>
	<path id="B-509" fill="#222222" stroke-width="0" d="M606.893,102.702
		c-9.769-9.371-21.549-16.739-34.188-21.367c-3.011-1.104-6.109-2.066-9.208-2.864c-7.323-1.883-14.884-2.913-22.503-3.067V2.421
		h33.86c35.432,0,68.78,13.543,94.139,38.181L606.893,102.702z"/>
	<rect id="B-508" x="358" y="2.421" fill="#222222" stroke-width="0" width="178.992" height="72.963"/>
	<rect id="B-507" x="175.009" y="2.421" fill="#222222" stroke-width="0" width="178.991" height="72.962"/>
	<path id="B-506" fill="#222222" stroke-width="0" d="M43.008,40.602
		c25.357-24.637,58.708-38.18,94.14-38.18h33.861v72.981c-24.774,0.493-48.035,10.127-65.901,27.298L43.008,40.602z"/>
	<path id="B-KB2" fill="#222222" stroke-width="0" d="M590.021,171.431
		c-1.028-26.572-22.459-48.001-49.029-49.031V79.405c7.283,0.153,14.508,1.141,21.506,2.94c2.972,0.765,5.942,1.689,8.83,2.746
		c27.35,10.014,48.838,32.583,57.48,60.373c0.92,2.955,1.698,5.987,2.317,9.011c1.135,5.549,1.771,11.243,1.889,16.957
		L590.021,171.431L590.021,171.431z"/>
	<path id="B-KB1" fill="#222222" stroke-width="0" d="M540.992,171.431v-45.027
		c24.366,1.023,44.003,20.661,45.025,45.027H540.992z"/>
	<path id="B-GB2" fill="#222222" stroke-width="0" d="M78.983,171.431
		c1.053-50.274,41.751-90.972,92.025-92.025V122.4c-26.571,1.029-48.001,22.459-49.03,49.031H78.983z"/>
	<path id="B-GB1" fill="#222222" stroke-width="0" d="M125.982,171.431
		c1.023-24.367,20.66-44.004,45.027-45.027v45.027H125.982z"/>
	
		<rect id="B-B210" x="504.393" y="79.384" fill="#222222" stroke-width="0" width="32.601" height="19.489"/>
	
		<rect id="B-B209" x="467.795" y="79.384" fill="#222222" stroke-width="0" width="32.598" height="19.489"/>
	
		<rect id="B-B208" x="431.198" y="79.384" fill="#222222" stroke-width="0" width="32.597" height="19.489"/>
	<rect id="B-B207" x="394.6" y="79.384" fill="#222222" stroke-width="0" width="32.6" height="19.489"/>
	<rect id="B-B206" x="358" y="79.384" fill="#222222" stroke-width="0" width="32.6" height="19.489"/>
	
		<rect id="B-B205" x="321.401" y="79.384" fill="#222222" stroke-width="0" width="32.599" height="19.489"/>
	
		<rect id="B-B204" x="284.804" y="79.384" fill="#222222" stroke-width="0" width="32.598" height="19.489"/>
	
		<rect id="B-B203" x="248.205" y="79.384" fill="#222222" stroke-width="0" width="32.599" height="19.489"/>
	
		<rect id="B-B202" x="211.607" y="79.384" fill="#222222" stroke-width="0" width="32.598" height="19.489"/>
	
		<rect id="B-B201" x="175.009" y="79.384" fill="#222222" stroke-width="0" width="32.599" height="19.489"/>
	
		<rect id="B-B110" x="504.393" y="102.873" fill="#222222" stroke-width="0" width="32.601" height="19.487"/>
	
		<rect id="B-B109" x="467.795" y="102.873" fill="#222222" stroke-width="0" width="32.598" height="19.487"/>
	
		<rect id="B-B108" x="431.198" y="102.873" fill="#222222" stroke-width="0" width="32.597" height="19.487"/>
	<rect id="B-B107" x="394.6" y="102.873" fill="#222222" stroke-width="0" width="32.6" height="19.487"/>
	<rect id="B-B106" x="358" y="102.873" fill="#222222" stroke-width="0" width="32.6" height="19.487"/>
	
		<rect id="B-B105" x="321.401" y="102.873" fill="#222222" stroke-width="0" width="32.599" height="19.487"/>
	
		<rect id="B-B104" x="284.804" y="102.873" fill="#222222" stroke-width="0" width="32.598" height="19.487"/>
	
		<rect id="B-B103" x="248.205" y="102.873" fill="#222222" stroke-width="0" width="32.599" height="19.487"/>
	
		<rect id="B-B102" x="211.607" y="102.873" fill="#222222" stroke-width="0" width="32.598" height="19.487"/>
	
		<rect id="B-B101" x="175.009" y="102.873" fill="#222222" stroke-width="0" width="32.599" height="19.487"/>
	<rect id="B-BCS2" x="358" y="126.361" fill="#222222" stroke-width="0" width="178.992" height="45.069"/>
	
		<rect id="B-BCS1" x="175.009" y="126.361" fill="#222222" stroke-width="0" width="178.991" height="45.069"/>
</g>
<g id="LABELS">
	<text fid="K-513" transform="matrix(1 0 0 1 652.3525 479.9709)" fill="#FFFFFF" font-family="'Arial'" font-size="9">513</text>
	<text fid="K-512" transform="matrix(1 0 0 1 666.0098 354.4348)" fill="#FFFFFF" font-family="'Arial'" font-size="9">512</text>
	<text fid="K-511" transform="matrix(1 0 0 1 666.0098 235.3645)" fill="#FFFFFF" font-family="'Arial'" font-size="9">511</text>
	<text fid="K-510" transform="matrix(1 0 0 1 652.3516 109.8313)" fill="#FFFFFF" font-family="'Arial'" font-size="9">510</text>
	
		<text fid="K-K207" transform="matrix(-1.346898e-010 1 -1 -1.346898e-010 620.8906 384.051)" fill="#FFFFFF" font-family="'Arial'" font-size="9">K207</text>
	
		<text fid="K-K206" transform="matrix(-1.346898e-010 1 -1 -1.346898e-010 620.8906 350.0315)" fill="#FFFFFF" font-family="'Arial'" font-size="9">K206</text>
	
		<text fid="K-K205" transform="matrix(-1.346898e-010 1 -1 -1.346898e-010 620.8906 316.012)" fill="#FFFFFF" font-family="'Arial'" font-size="9">K205</text>
	
		<text fid="K-K204" transform="matrix(-1.346898e-010 1 -1 -1.346898e-010 620.8906 281.9929)" fill="#FFFFFF" font-family="'Arial'" font-size="9">K204</text>
	
		<text fid="K-K203" transform="matrix(-1.346898e-010 1 -1 -1.346898e-010 620.8906 247.9724)" fill="#FFFFFF" font-family="'Arial'" font-size="9">K203</text>
	
		<text fid="K-K202" transform="matrix(-1.346898e-010 1 -1 -1.346898e-010 620.8906 213.9519)" fill="#FFFFFF" font-family="'Arial'" font-size="9">K202</text>
	
		<text fid="K-K201" transform="matrix(-1.346898e-010 1 -1 -1.346898e-010 620.8906 179.9324)" fill="#FFFFFF" font-family="'Arial'" font-size="9">K201</text>
	
		<text fid="K-K107" transform="matrix(-1.346898e-010 1 -1 -1.346898e-010 597.4023 384.051)" fill="#FFFFFF" font-family="'Arial'" font-size="9">K107</text>
	
		<text fid="K-K106" transform="matrix(-1.346898e-010 1 -1 -1.346898e-010 597.4023 350.0315)" fill="#FFFFFF" font-family="'Arial'" font-size="9">K106</text>
	
		<text fid="K-K105" transform="matrix(-1.346898e-010 1 -1 -1.346898e-010 597.4023 316.012)" fill="#FFFFFF" font-family="'Arial'" font-size="9">K105</text>
	
		<text fid="K-K104" transform="matrix(-1.346898e-010 1 -1 -1.346898e-010 597.4023 281.9929)" fill="#FFFFFF" font-family="'Arial'" font-size="9">K104</text>
	
		<text fid="K-K103" transform="matrix(-1.346898e-010 1 -1 -1.346898e-010 597.4023 247.9724)" fill="#FFFFFF" font-family="'Arial'" font-size="9">K103</text>
	
		<text fid="K-K102" transform="matrix(-1.346898e-010 1 -1 -1.346898e-010 597.4023 213.9519)" fill="#FFFFFF" font-family="'Arial'" font-size="9">K102</text>
	
		<text fid="K-K101" transform="matrix(-1.346898e-010 1 -1 -1.346898e-010 597.4023 179.9324)" fill="#FFFFFF" font-family="'Arial'" font-size="9">K101</text>
	<text fid="K-KCS2" transform="matrix(1 0 0 1 551.7715 354.4348)" fill="#FFFFFF" font-family="'Arial'" font-size="9">KCS2</text>
	<text fid="K-KCS1" transform="matrix(1 0 0 1 551.7715 235.3645)" fill="#FFFFFF" font-family="'Arial'" font-size="9">KCS1</text>
	<text fid="G-505" transform="matrix(1 0 0 1 44.6318 109.8313)" fill="#FFFFFF" font-family="'Arial'" font-size="9">505</text>
	<text fid="G-504" transform="matrix(1 0 0 1 30.9731 294.9006)" fill="#FFFFFF" font-family="'Arial'" font-size="9">504</text>
	<text fid="G-503" transform="matrix(1 0 0 1 44.6318 479.9709)" fill="#FFFFFF" font-family="'Arial'" font-size="9">503</text>
	<text fid="G-VIP2" transform="matrix(1 0 0 1 126.9741 235.3645)" fill="#FFFFFF" font-family="'Arial'" font-size="9">VIP2</text>
	<text fid="G-VIP1" transform="matrix(1 0 0 1 126.9741 354.4348)" fill="#FFFFFF" font-family="'Arial'" font-size="9">VIP1</text>
	
		<text fid="G-G207" transform="matrix(4.489659e-011 -1 1 4.489659e-011 91.1064 201.4495)" fill="#FFFFFF" font-family="'Arial'" font-size="9">G207</text>
	
		<text fid="G-G206" transform="matrix(4.489659e-011 -1 1 4.489659e-011 91.1064 235.469)" fill="#FFFFFF" font-family="'Arial'" font-size="9">G206</text>
	
		<text fid="G-G205" transform="matrix(4.489659e-011 -1 1 4.489659e-011 91.1064 269.4885)" fill="#FFFFFF" font-family="'Arial'" font-size="9">G205</text>
	
		<text fid="G-G204" transform="matrix(4.489659e-011 -1 1 4.489659e-011 91.1064 303.5081)" fill="#FFFFFF" font-family="'Arial'" font-size="9">G204</text>
	
		<text fid="G-G203" transform="matrix(4.489659e-011 -1 1 4.489659e-011 91.1064 337.5276)" fill="#FFFFFF" font-family="'Arial'" font-size="9">G203</text>
	
		<text fid="G-G202" transform="matrix(4.489659e-011 -1 1 4.489659e-011 91.1064 371.5491)" fill="#FFFFFF" font-family="'Arial'" font-size="9">G202</text>
	
		<text fid="G-G201" transform="matrix(4.489659e-011 -1 1 4.489659e-011 91.1064 405.5686)" fill="#FFFFFF" font-family="'Arial'" font-size="9">G201</text>
	<text fid="D-515" transform="matrix(1 0 0 1 439.9883 548.4973)" fill="#FFFFFF" font-family="'Arial'" font-size="9">515</text>
	<text fid="D-514" transform="matrix(1 0 0 1 597.4834 534.8381)" fill="#FFFFFF" font-family="'Arial'" font-size="9">514</text>
	<text fid="D-502" transform="matrix(1 0 0 1 99.5005 534.8391)" fill="#FFFFFF" font-family="'Arial'" font-size="9">502</text>
	<text fid="D-501" transform="matrix(1 0 0 1 256.9966 548.4973)" fill="#FFFFFF" font-family="'Arial'" font-size="9">501</text>
	<text fid="D-KD2" transform="matrix(1 0 0 1 578.25 461.9817)" fill="#FFFFFF" font-family="'Arial'" font-size="9">KD2</text>
	<text fid="D-KD1" transform="matrix(1 0 0 1 554.752 438.4846)" fill="#FFFFFF" font-family="'Arial'" font-size="9">KD1</text>
	<text fid="D-GD2" transform="matrix(1 0 0 1 115.7432 461.9817)" fill="#FFFFFF" font-family="'Arial'" font-size="9">GD2</text>
	<text fid="D-GD1" transform="matrix(1 0 0 1 139.2427 438.4846)" fill="#FFFFFF" font-family="'Arial'" font-size="9">GD1</text>
	<text fid="D-D210" transform="matrix(1 0 0 1 180.5503 498.2727)" fill="#FFFFFF" font-family="'Arial'" font-size="9">D210</text>
	<text fid="D-D209" transform="matrix(1 0 0 1 217.1484 498.2727)" fill="#FFFFFF" font-family="'Arial'" font-size="9">D209</text>
	<text fid="D-D208" transform="matrix(1 0 0 1 253.7466 498.2727)" fill="#FFFFFF" font-family="'Arial'" font-size="9">D208</text>
	<text fid="D-D207" transform="matrix(1 0 0 1 290.3447 498.2727)" fill="#FFFFFF" font-family="'Arial'" font-size="9">D207</text>
	<text fid="D-D206" transform="matrix(1 0 0 1 326.9429 498.2727)" fill="#FFFFFF" font-family="'Arial'" font-size="9">D206</text>
	<text fid="D-D205" transform="matrix(1 0 0 1 363.541 498.2727)" fill="#FFFFFF" font-family="'Arial'" font-size="9">D205</text>
	<text fid="D-D204" transform="matrix(1 0 0 1 400.1406 498.2727)" fill="#FFFFFF" font-family="'Arial'" font-size="9">D204</text>
	<text fid="D-D203" transform="matrix(1 0 0 1 436.7383 498.2727)" fill="#FFFFFF" font-family="'Arial'" font-size="9">D203</text>
	<text fid="D-D202" transform="matrix(1 0 0 1 473.3359 498.2727)" fill="#FFFFFF" font-family="'Arial'" font-size="9">D202</text>
	<text fid="D-D201" transform="matrix(1 0 0 1 509.9336 498.2727)" fill="#FFFFFF" font-family="'Arial'" font-size="9">D201</text>
	<text fid="D-D110" transform="matrix(1 0 0 1 180.5503 474.7844)" fill="#FFFFFF" font-family="'Arial'" font-size="9">D110</text>
	<text fid="D-D109" transform="matrix(1 0 0 1 217.1484 474.7844)" fill="#FFFFFF" font-family="'Arial'" font-size="9">D109</text>
	<text fid="D-D108" transform="matrix(1 0 0 1 253.7466 474.7844)" fill="#FFFFFF" font-family="'Arial'" font-size="9">D108</text>
	<text fid="D-D107" transform="matrix(1 0 0 1 290.3447 474.7844)" fill="#FFFFFF" font-family="'Arial'" font-size="9">D107</text>
	<text fid="D-D106" transform="matrix(1 0 0 1 326.9429 474.7844)" fill="#FFFFFF" font-family="'Arial'" font-size="9">D106</text>
	<text fid="D-D105" transform="matrix(1 0 0 1 363.541 474.7844)" fill="#FFFFFF" font-family="'Arial'" font-size="9">D105</text>
	<text fid="D-D104" transform="matrix(1 0 0 1 400.1406 474.7844)" fill="#FFFFFF" font-family="'Arial'" font-size="9">D104</text>
	<text fid="D-D103" transform="matrix(1 0 0 1 436.7383 474.7844)" fill="#FFFFFF" font-family="'Arial'" font-size="9">D103</text>
	<text fid="D-D102" transform="matrix(1 0 0 1 473.3359 474.7844)" fill="#FFFFFF" font-family="'Arial'" font-size="9">D102</text>
	<text fid="D-D101" transform="matrix(1 0 0 1 509.9336 474.7844)" fill="#FFFFFF" font-family="'Arial'" font-size="9">D101</text>
	<text fid="D-DCS2" transform="matrix(1 0 0 1 435.4922 438.5051)" fill="#FFFFFF" font-family="'Arial'" font-size="9">DCS2</text>
	<text fid="D-DCS1" transform="matrix(1 0 0 1 252.5015 438.5051)" fill="#FFFFFF" font-family="'Arial'" font-size="9">DCS1</text>
	<text fid="B-509" transform="matrix(1 0 0 1 597.4834 54.9612)" fill="#FFFFFF" font-family="'Arial'" font-size="9">509</text>
	<text fid="B-508" transform="matrix(1 0 0 1 439.9883 41.303)" fill="#FFFFFF" font-family="'Arial'" font-size="9">508</text>
	<text fid="B-507" transform="matrix(1 0 0 1 256.9966 41.303)" fill="#FFFFFF" font-family="'Arial'" font-size="9">507</text>
	<text fid="B-506" transform="matrix(1 0 0 1 99.5005 54.9612)" fill="#FFFFFF" font-family="'Arial'" font-size="9">506</text>
	<text fid="B-KB2" transform="matrix(1 0 0 1 578.498 127.8186)" fill="#FFFFFF" font-family="'Arial'" font-size="9">KB2</text>
	<text fid="B-KB1" transform="matrix(1 0 0 1 555 151.3167)" fill="#FFFFFF" font-family="'Arial'" font-size="9">KB1</text>
	<text fid="B-GB2" transform="matrix(1 0 0 1 115.9917 127.8186)" fill="#FFFFFF" font-family="'Arial'" font-size="9">GB2</text>
	<text fid="B-GB1" transform="matrix(1 0 0 1 139.4912 151.3167)" fill="#FFFFFF" font-family="'Arial'" font-size="9">GB1</text>
	<text fid="B-B210" transform="matrix(1 0 0 1 510.1826 91.5295)" fill="#FFFFFF" font-family="'Arial'" font-size="9">B210</text>
	<text fid="B-B209" transform="matrix(1 0 0 1 473.584 91.5295)" fill="#FFFFFF" font-family="'Arial'" font-size="9">B209</text>
	<text fid="B-B208" transform="matrix(1 0 0 1 436.9873 91.5295)" fill="#FFFFFF" font-family="'Arial'" font-size="9">B208</text>
	<text fid="B-B207" transform="matrix(1 0 0 1 400.3887 91.5295)" fill="#FFFFFF" font-family="'Arial'" font-size="9">B207</text>
	<text fid="B-B206" transform="matrix(1 0 0 1 363.79 91.5295)" fill="#FFFFFF" font-family="'Arial'" font-size="9">B206</text>
	<text fid="B-B205" transform="matrix(1 0 0 1 327.1914 91.5295)" fill="#FFFFFF" font-family="'Arial'" font-size="9">B205</text>
	<text fid="B-B204" transform="matrix(1 0 0 1 290.5933 91.5295)" fill="#FFFFFF" font-family="'Arial'" font-size="9">B204</text>
	<text fid="B-B203" transform="matrix(1 0 0 1 253.9951 91.5295)" fill="#FFFFFF" font-family="'Arial'" font-size="9">B203</text>
	<text fid="B-B202" transform="matrix(1 0 0 1 217.397 91.5295)" fill="#FFFFFF" font-family="'Arial'" font-size="9">B202</text>
	<text fid="B-B201" transform="matrix(1 0 0 1 180.7988 91.5295)" fill="#FFFFFF" font-family="'Arial'" font-size="9">B201</text>
	<text fid="B-B110" transform="matrix(1 0 0 1 510.1826 115.0178)" fill="#FFFFFF" font-family="'Arial'" font-size="9">B110</text>
	<text fid="B-B109" transform="matrix(1 0 0 1 473.584 115.0178)" fill="#FFFFFF" font-family="'Arial'" font-size="9">B109</text>
	<text fid="B-B108" transform="matrix(1 0 0 1 436.9873 115.0178)" fill="#FFFFFF" font-family="'Arial'" font-size="9">B108</text>
	<text fid="B-B107" transform="matrix(1 0 0 1 400.3887 115.0178)" fill="#FFFFFF" font-family="'Arial'" font-size="9">B107</text>
	<text fid="B-B106" transform="matrix(1 0 0 1 363.79 115.0178)" fill="#FFFFFF" font-family="'Arial'" font-size="9">B106</text>
	<text fid="B-B105" transform="matrix(1 0 0 1 327.1914 115.0178)" fill="#FFFFFF" font-family="'Arial'" font-size="9">B105</text>
	<text fid="B-B104" transform="matrix(1 0 0 1 290.5933 115.0178)" fill="#FFFFFF" font-family="'Arial'" font-size="9">B104</text>
	<text fid="B-B103" transform="matrix(1 0 0 1 253.9951 115.0178)" fill="#FFFFFF" font-family="'Arial'" font-size="9">B103</text>
	<text fid="B-B102" transform="matrix(1 0 0 1 217.397 115.0178)" fill="#FFFFFF" font-family="'Arial'" font-size="9">B102</text>
	<text fid="B-B101" transform="matrix(1 0 0 1 180.7988 115.0178)" fill="#FFFFFF" font-family="'Arial'" font-size="9">B101</text>
	<text fid="B-BCS2" transform="matrix(1 0 0 1 435.7402 151.2952)" fill="#FFFFFF" font-family="'Arial'" font-size="9">BCS2</text>
	<text fid="B-BCS1" transform="matrix(1 0 0 1 252.7495 151.2952)" fill="#FFFFFF" font-family="'Arial'" font-size="9">BCS1</text>
</g>
<g id="EXTRAS">
	<g>
		<path fill="#676767" d="M338.009,194.416h-2.324l-0.978-5.236c-0.15-0.715-0.257-1.561-0.321-2.536l-0.055,0.506l-0.28,2.059
			l-0.95,5.209h-2.324l-1.812-9.994h1.825l0.896,5.64c0.086,0.565,0.203,1.452,0.349,2.659c0.114-1.221,0.221-2.094,0.321-2.618
			l1.066-5.681h1.928l1.066,5.681c0.141,0.843,0.253,1.72,0.335,2.632c0.16-1.349,0.276-2.239,0.349-2.673l0.868-5.64h1.839
			L338.009,194.416z"/>
		<path fill="#676767" d="M343.3,194.552c-0.953,0-1.703-0.338-2.252-1.015c-0.549-0.678-0.824-1.636-0.824-2.875
			c0-1.259,0.249-2.24,0.745-2.946c0.496-0.706,1.189-1.061,2.078-1.061c0.83,0,1.483,0.303,1.962,0.906
			c0.479,0.604,0.718,1.45,0.718,2.54v0.971h-3.657c0.014,0.68,0.153,1.185,0.417,1.515c0.264,0.33,0.629,0.496,1.094,0.496
			c0.592,0,1.199-0.186,1.818-0.555v1.497C344.815,194.377,344.116,194.552,343.3,194.552z M343.034,188.058
			c-0.26,0-0.474,0.138-0.643,0.414s-0.267,0.703-0.294,1.282h1.846c-0.009-0.557-0.093-0.979-0.253-1.266
			C343.53,188.202,343.312,188.058,343.034,188.058z"/>
		<path fill="#676767" d="M351.018,192.187c0,0.743-0.218,1.323-0.653,1.74c-0.435,0.417-1.077,0.625-1.924,0.625
			c-0.752,0-1.374-0.148-1.866-0.444v-1.579c0.25,0.174,0.543,0.317,0.878,0.432s0.63,0.171,0.885,0.171
			c0.283,0,0.498-0.069,0.646-0.208s0.222-0.322,0.222-0.55c0-0.232-0.078-0.436-0.232-0.608c-0.154-0.173-0.44-0.385-0.854-0.636
			c-0.551-0.328-0.947-0.678-1.186-1.049c-0.239-0.371-0.359-0.811-0.359-1.316c0-0.646,0.222-1.16,0.667-1.538
			c0.445-0.378,1.054-0.566,1.829-0.566c0.674,0,1.31,0.178,1.907,0.532l-0.595,1.307c-0.488-0.265-0.916-0.396-1.285-0.396
			c-0.232,0-0.407,0.063-0.523,0.186c-0.116,0.123-0.174,0.272-0.174,0.45c0,0.205,0.072,0.388,0.215,0.548
			c0.143,0.159,0.411,0.357,0.803,0.595c0.474,0.287,0.807,0.531,0.998,0.73c0.191,0.2,0.339,0.429,0.444,0.685
			S351.018,191.845,351.018,192.187z"/>
		<path fill="#676767" d="M354.812,193.014c0.255,0,0.531-0.063,0.827-0.191v1.423c-0.296,0.205-0.741,0.308-1.333,0.308
			c-0.661,0-1.151-0.197-1.47-0.591c-0.319-0.395-0.479-0.985-0.479-1.774v-3.943h-0.738v-0.813l0.95-0.656l0.465-1.612h1.162v1.641
			h1.381v1.442h-1.381v4.006C354.197,192.759,354.402,193.014,354.812,193.014z"/>
		<path fill="#676767" d="M361.518,184.421l-3.725,9.994h-1.75l3.725-9.994H361.518z"/>
		<path fill="#676767" d="M362.482,184.421h2.549c1.039,0,1.796,0.202,2.27,0.604c0.475,0.403,0.711,1.045,0.711,1.925
			c0,0.578-0.125,1.063-0.375,1.452c-0.251,0.391-0.593,0.625-1.025,0.708v0.068c0.564,0.141,0.974,0.406,1.224,0.793
			c0.251,0.387,0.377,0.902,0.377,1.545c0,0.907-0.243,1.617-0.729,2.129c-0.485,0.512-1.148,0.77-1.991,0.77h-3.009V184.421
			L362.482,184.421z M364.232,188.441h0.854c0.393,0,0.668-0.104,0.828-0.313c0.159-0.209,0.238-0.522,0.238-0.938
			s-0.092-0.712-0.273-0.892s-0.469-0.271-0.861-0.271h-0.785V188.441L364.232,188.441z M364.232,189.993v2.796h0.936
			c0.389,0,0.676-0.119,0.865-0.355s0.283-0.604,0.283-1.101c0-0.894-0.393-1.34-1.176-1.34H364.232L364.232,189.993z"/>
		<path fill="#676767" d="M373.201,194.416l-0.363-1.039h-0.041c-0.27,0.447-0.547,0.754-0.834,0.923s-0.648,0.253-1.086,0.253
			c-0.561,0-1.002-0.209-1.322-0.629c-0.322-0.42-0.481-1.002-0.481-1.75c0-0.802,0.219-1.398,0.659-1.788
			c0.439-0.39,1.097-0.605,1.972-0.646l1.012-0.041v-0.548c0-0.711-0.307-1.065-0.922-1.065c-0.456,0-0.979,0.178-1.571,0.533
			l-0.63-1.259c0.757-0.479,1.578-0.718,2.468-0.718c0.807,0,1.422,0.231,1.842,0.694c0.422,0.463,0.633,1.118,0.633,1.965v5.113
			L373.201,194.416L373.201,194.416z M371.621,193.13c0.333,0,0.6-0.149,0.797-0.448c0.198-0.299,0.297-0.696,0.297-1.193v-0.643
			l-0.561,0.027c-0.414,0.022-0.719,0.141-0.912,0.354s-0.291,0.533-0.291,0.957C370.951,192.816,371.175,193.13,371.621,193.13z"/>
		<path fill="#676767" d="M378.648,193.014c0.256,0,0.531-0.063,0.828-0.191v1.423c-0.297,0.205-0.742,0.308-1.334,0.308
			c-0.66,0-1.15-0.197-1.47-0.591c-0.319-0.395-0.479-0.985-0.479-1.774v-3.943h-0.737v-0.813l0.948-0.656l0.466-1.612h1.162v1.641
			h1.381v1.442h-1.381v4.006C378.033,192.759,378.238,193.014,378.648,193.014z"/>
		<path fill="#676767" d="M382.375,194.416h-1.818V186.8h1.818V194.416z"/>
	</g>
	<g>
		<path fill="#676767" d="M333.305,398.534H328.8v-9.993h4.505v1.605h-2.646v2.379h2.454v1.613h-2.454v2.769h2.646V398.534z"/>
		<path fill="#676767" d="M338.384,398.534l-0.362-1.039h-0.041c-0.269,0.447-0.547,0.755-0.834,0.924s-0.649,0.253-1.087,0.253
			c-0.561,0-1.001-0.209-1.323-0.629c-0.322-0.421-0.482-1.003-0.482-1.75c0-0.804,0.22-1.398,0.66-1.787
			c0.44-0.392,1.097-0.605,1.972-0.646l1.012-0.041v-0.547c0-0.711-0.308-1.066-0.923-1.066c-0.456,0-0.98,0.179-1.572,0.533
			l-0.629-1.258c0.756-0.479,1.579-0.718,2.468-0.718c0.807,0,1.421,0.23,1.842,0.694c0.421,0.462,0.632,1.116,0.632,1.965v5.112
			H338.384L338.384,398.534z M336.805,397.25c0.333,0,0.598-0.149,0.796-0.447c0.198-0.299,0.297-0.697,0.297-1.193v-0.643
			l-0.561,0.026c-0.415,0.023-0.719,0.142-0.913,0.355c-0.194,0.214-0.291,0.533-0.291,0.957
			C336.135,396.936,336.358,397.25,336.805,397.25z"/>
		<path fill="#676767" d="M345.275,396.307c0,0.742-0.218,1.322-0.653,1.74c-0.435,0.416-1.077,0.625-1.924,0.625
			c-0.752,0-1.374-0.148-1.866-0.444v-1.579c0.25,0.174,0.543,0.316,0.878,0.431c0.335,0.115,0.63,0.171,0.885,0.171
			c0.283,0,0.498-0.068,0.646-0.209c0.148-0.139,0.222-0.321,0.222-0.55c0-0.231-0.078-0.435-0.232-0.607s-0.44-0.386-0.854-0.637
			c-0.551-0.327-0.947-0.678-1.186-1.05c-0.239-0.371-0.359-0.81-0.359-1.314c0-0.647,0.222-1.159,0.667-1.538
			c0.445-0.379,1.054-0.567,1.829-0.567c0.674,0,1.31,0.178,1.907,0.533l-0.595,1.306c-0.488-0.264-0.916-0.396-1.285-0.396
			c-0.232,0-0.407,0.062-0.523,0.185c-0.116,0.123-0.174,0.273-0.174,0.451c0,0.205,0.072,0.388,0.215,0.547
			s0.411,0.358,0.803,0.595c0.474,0.287,0.807,0.531,0.998,0.731s0.339,0.429,0.444,0.684
			C345.223,395.669,345.275,395.965,345.275,396.307z"/>
		<path fill="#676767" d="M349.069,397.134c0.255,0,0.531-0.063,0.827-0.191v1.422c-0.296,0.205-0.741,0.309-1.333,0.309
			c-0.661,0-1.151-0.197-1.47-0.593c-0.319-0.394-0.479-0.983-0.479-1.772v-3.944h-0.738v-0.813l0.95-0.656l0.465-1.613h1.162v1.642
			h1.381v1.441h-1.381v4.006C348.454,396.879,348.659,397.134,349.069,397.134z"/>
		<path fill="#676767" d="M355.775,388.54l-3.726,9.994h-1.75l3.726-9.994H355.775z"/>
		<path fill="#676767" d="M363.096,393.442c0,1.649-0.336,2.911-1.008,3.784c-0.672,0.872-1.64,1.309-2.902,1.309h-2.446v-9.994
			h2.674c1.162,0,2.065,0.431,2.713,1.289C362.771,390.688,363.096,391.893,363.096,393.442z M361.189,393.496
			c0-2.232-0.615-3.35-1.847-3.35h-0.745v6.761h0.602c0.68,0,1.181-0.282,1.504-0.852
			C361.027,395.49,361.189,394.637,361.189,393.496z"/>
		<path fill="#676767" d="M370.082,394.714c0,1.249-0.264,2.221-0.793,2.915c-0.528,0.694-1.253,1.043-2.174,1.043
			c-0.583,0-1.098-0.16-1.545-0.479c-0.446-0.317-0.791-0.778-1.031-1.377c-0.242-0.6-0.363-1.301-0.363-2.103
			c0-1.235,0.264-2.2,0.787-2.896c0.523-0.694,1.25-1.042,2.18-1.042c0.898,0,1.613,0.354,2.145,1.063
			C369.816,392.548,370.082,393.506,370.082,394.714z M366.035,394.714c0,0.793,0.087,1.392,0.26,1.798
			c0.174,0.406,0.451,0.607,0.834,0.607c0.729,0,1.094-0.802,1.094-2.405c0-0.799-0.088-1.395-0.263-1.788
			c-0.175-0.395-0.452-0.591-0.831-0.591c-0.383,0-0.66,0.196-0.834,0.591C366.122,393.32,366.035,393.915,366.035,394.714z"/>
		<path fill="#676767" d="M376.844,390.934V392l-0.91,0.204c0.178,0.318,0.269,0.722,0.269,1.203c0,0.808-0.22,1.438-0.656,1.895
			s-1.049,0.684-1.832,0.684c-0.229,0-0.396-0.019-0.506-0.055c-0.087,0.077-0.169,0.164-0.246,0.26
			c-0.078,0.096-0.117,0.214-0.117,0.355c0,0.318,0.276,0.479,0.828,0.479h1.101c0.646,0,1.146,0.175,1.494,0.522
			c0.349,0.35,0.522,0.875,0.522,1.575c0,0.886-0.297,1.568-0.89,2.052c-0.592,0.481-1.444,0.725-2.557,0.725
			c-0.844,0-1.492-0.184-1.949-0.551c-0.455-0.366-0.684-0.889-0.684-1.568c0-0.424,0.131-0.797,0.391-1.117
			c0.26-0.321,0.619-0.555,1.08-0.7c-0.231-0.093-0.424-0.232-0.57-0.425c-0.147-0.191-0.223-0.414-0.223-0.67
			c0-0.153,0.022-0.295,0.068-0.42c0.045-0.126,0.109-0.244,0.193-0.354c0.086-0.112,0.258-0.277,0.518-0.496
			c-0.314-0.191-0.563-0.485-0.746-0.882c-0.182-0.396-0.273-0.837-0.273-1.319c0-0.834,0.22-1.479,0.656-1.935
			c0.438-0.456,1.064-0.685,1.881-0.685c0.154,0,0.332,0.018,0.533,0.052c0.2,0.033,0.354,0.068,0.457,0.105H376.844
			L376.844,390.934z M375.9,387.823c-0.051,0.716-0.262,1.267-0.633,1.651s-0.875,0.577-1.509,0.577
			c-0.665,0-1.174-0.194-1.526-0.585c-0.354-0.39-0.543-0.938-0.57-1.645h1.094c0.031,0.323,0.115,0.547,0.249,0.67
			s0.392,0.186,0.769,0.186c0.355,0,0.604-0.064,0.746-0.195c0.142-0.129,0.234-0.35,0.279-0.659H375.9z M372.365,399.643
			c0,0.301,0.096,0.532,0.283,0.693c0.188,0.161,0.459,0.242,0.811,0.242c0.552,0,0.965-0.104,1.241-0.313s0.413-0.497,0.413-0.861
			c0-0.287-0.074-0.489-0.223-0.607c-0.147-0.119-0.425-0.179-0.83-0.179h-0.881c-0.246,0-0.443,0.093-0.593,0.277
			C372.439,399.077,372.365,399.327,372.365,399.643z M372.926,393.407c0,0.898,0.254,1.348,0.76,1.348
			c0.492,0,0.738-0.454,0.738-1.36c0-0.93-0.246-1.395-0.738-1.395C373.18,392,372.926,392.469,372.926,393.407z"/>
		<path fill="#676767" d="M381.875,398.534l-0.227-0.978h-0.097c-0.168,0.347-0.407,0.618-0.721,0.816
			c-0.313,0.197-0.669,0.298-1.07,0.298c-0.684,0-1.2-0.232-1.551-0.697c-0.353-0.465-0.526-1.16-0.526-2.085v-4.97h1.84v4.531
			c0,0.557,0.064,0.977,0.196,1.259c0.134,0.281,0.347,0.424,0.644,0.424c0.393,0,0.678-0.196,0.857-0.588
			c0.18-0.393,0.271-1.051,0.271-1.977v-3.649h1.838v7.614L381.875,398.534L381.875,398.534z"/>
	</g>
	<g>
		<path fill="#676767" d="M192.528,322.854c0.934,0,1.65,0.236,2.146,0.707c0.497,0.473,0.745,1.152,0.745,2.041
			c0,0.871-0.171,1.611-0.513,2.222h-1.839c0.488-0.747,0.731-1.433,0.731-2.058c0-0.355-0.098-0.623-0.294-0.803
			c-0.196-0.182-0.462-0.271-0.8-0.271c-0.333,0-0.637,0.106-0.913,0.321s-0.582,0.566-0.919,1.06
			c-0.296,0.43-0.58,0.753-0.851,0.975s-0.575,0.393-0.913,0.514c-0.337,0.12-0.729,0.181-1.176,0.181
			c-0.857,0-1.536-0.237-2.037-0.714s-0.752-1.115-0.752-1.918c0-0.766,0.214-1.502,0.643-2.208l1.49,0.615
			c-0.127,0.219-0.242,0.448-0.342,0.687c-0.1,0.24-0.15,0.496-0.15,0.771c0,0.301,0.099,0.532,0.297,0.692
			c0.198,0.162,0.468,0.243,0.81,0.243c0.337,0,0.631-0.097,0.882-0.29c0.25-0.193,0.536-0.532,0.854-1.016
			c0.438-0.652,0.884-1.106,1.34-1.363C191.425,322.982,191.945,322.854,192.528,322.854z"/>
		<path fill="#676767" d="M191.462,316.093c1.249,0,2.221,0.265,2.916,0.793c0.695,0.527,1.042,1.253,1.042,2.174
			c0,0.583-0.16,1.099-0.479,1.545s-0.778,0.79-1.377,1.032s-1.3,0.361-2.102,0.361c-1.235,0-2.2-0.263-2.895-0.785
			c-0.695-0.523-1.042-1.251-1.042-2.182c0-0.896,0.354-1.611,1.063-2.144C189.296,316.358,190.254,316.093,191.462,316.093z
			 M191.462,320.14c0.793,0,1.392-0.087,1.798-0.26c0.406-0.174,0.608-0.451,0.608-0.834c0-0.729-0.802-1.095-2.406-1.095
			c-0.797,0-1.394,0.088-1.788,0.264s-0.591,0.453-0.591,0.831c0,0.383,0.197,0.66,0.591,0.834
			C190.068,320.053,190.665,320.14,191.462,320.14z"/>
		<path fill="#676767" d="M195.283,310.698l-0.978,0.227v0.096c0.346,0.169,0.619,0.409,0.817,0.722
			c0.198,0.313,0.297,0.668,0.297,1.069c0,0.684-0.232,1.2-0.697,1.552c-0.465,0.353-1.16,0.526-2.085,0.526h-4.97v-1.839h4.532
			c0.556,0,0.975-0.066,1.258-0.198c0.283-0.132,0.424-0.347,0.424-0.643c0-0.393-0.196-0.679-0.588-0.858s-1.05-0.27-1.976-0.27
			h-3.65v-1.84h7.615L195.283,310.698L195.283,310.698z"/>
		<path fill="#676767" d="M193.882,305.073c0-0.255-0.064-0.529-0.191-0.827h1.422c0.205,0.298,0.308,0.74,0.308,1.333
			c0,0.661-0.197,1.151-0.591,1.471c-0.394,0.318-0.985,0.479-1.774,0.479h-3.944v0.738h-0.813l-0.656-0.95l-1.613-0.465v-1.162
			h1.641v-1.381h1.442v1.381h4.006C193.626,305.688,193.882,305.483,193.882,305.073z"/>
		<path fill="#676767" d="M195.283,299.386h-4.539c-1.117,0-1.675,0.279-1.675,0.841c0,0.42,0.22,0.713,0.66,0.882
			s1.072,0.253,1.897,0.253h3.657v1.818h-10.637v-1.818h2.365c0.305,0,0.85,0.027,1.634,0.082v-0.096
			c-0.748-0.365-1.121-0.926-1.121-1.683c0-0.696,0.236-1.224,0.708-1.578c0.472-0.355,1.166-0.533,2.082-0.533h4.97
			L195.283,299.386L195.283,299.386z"/>
		<path fill="#676767" d="M185.289,291.271l9.994,3.727v1.75l-9.994-3.727V291.271z"/>
		<path fill="#676767" d="M189.739,287.286v-3.057h5.127c0.369,0.866,0.554,1.787,0.554,2.763c0,1.161-0.442,2.057-1.326,2.683
			c-0.884,0.626-2.158,0.94-3.821,0.94c-1.604,0-2.86-0.359-3.767-1.077c-0.907-0.719-1.36-1.723-1.36-3.012
			c0-0.797,0.205-1.559,0.615-2.282l1.518,0.588c-0.328,0.564-0.492,1.094-0.492,1.586c0,0.707,0.315,1.266,0.947,1.678
			c0.632,0.412,1.491,0.619,2.581,0.619c1.121,0,1.98-0.149,2.577-0.448c0.597-0.299,0.896-0.731,0.896-1.302
			c0-0.301-0.039-0.606-0.116-0.916h-2.29v1.237H189.739L189.739,287.286z"/>
		<path fill="#676767" d="M185.692,279.603c-0.273,0-0.489-0.08-0.646-0.239c-0.157-0.158-0.236-0.383-0.236-0.67
			c0-0.277,0.078-0.499,0.232-0.663c0.154-0.163,0.372-0.245,0.649-0.245c0.269,0,0.481,0.08,0.636,0.242
			c0.155,0.162,0.232,0.385,0.232,0.667c0,0.283-0.079,0.506-0.236,0.667C186.166,279.524,185.957,279.603,185.692,279.603z
			 M185.692,282.323c-0.278,0-0.495-0.079-0.649-0.238s-0.232-0.38-0.232-0.663s0.081-0.505,0.243-0.667
			c0.162-0.162,0.375-0.243,0.639-0.243c0.26,0,0.469,0.081,0.629,0.243c0.16,0.162,0.239,0.384,0.239,0.667
			s-0.076,0.503-0.229,0.663S185.966,282.323,185.692,282.323z M195.283,278.7l-0.978,0.226v0.096
			c0.346,0.168,0.619,0.409,0.817,0.722c0.198,0.312,0.297,0.669,0.297,1.069c0,0.685-0.232,1.201-0.697,1.553
			c-0.465,0.351-1.16,0.525-2.085,0.525h-4.97v-1.839h4.532c0.556,0,0.975-0.066,1.258-0.198c0.283-0.132,0.424-0.346,0.424-0.643
			c0-0.393-0.196-0.678-0.588-0.858c-0.392-0.18-1.05-0.27-1.976-0.27h-3.65v-1.839h7.615L195.283,278.7L195.283,278.7z"/>
		<path fill="#676767" d="M195.283,271.926h-4.539c-0.551,0-0.968,0.066-1.251,0.198c-0.283,0.132-0.424,0.346-0.424,0.643
			c0,0.393,0.195,0.679,0.584,0.861c0.389,0.182,1.047,0.272,1.972,0.272h3.657v1.818h-7.615v-1.442l0.978-0.219v-0.116
			c-0.351-0.164-0.625-0.398-0.824-0.704c-0.199-0.305-0.297-0.662-0.297-1.072c0-0.693,0.237-1.211,0.711-1.556
			c0.474-0.344,1.167-0.516,2.078-0.516h4.97V271.926L195.283,271.926z"/>
		<path fill="#676767" d="M195.42,265.814c0,0.953-0.338,1.703-1.015,2.252c-0.677,0.55-1.635,0.824-2.875,0.824
			c-1.258,0-2.24-0.249-2.946-0.745s-1.06-1.188-1.06-2.078c0-0.83,0.302-1.482,0.906-1.962c0.604-0.479,1.45-0.718,2.54-0.718
			h0.971v3.657c0.679-0.015,1.184-0.153,1.514-0.417s0.496-0.629,0.496-1.094c0-0.593-0.185-1.199-0.554-1.818h1.497
			C195.245,264.299,195.42,264.999,195.42,265.814z M188.926,266.081c0,0.26,0.138,0.474,0.414,0.643
			c0.276,0.169,0.703,0.268,1.282,0.294v-1.846c-0.556,0.009-0.978,0.093-1.265,0.253S188.926,265.803,188.926,266.081z"/>
		<path fill="#676767" d="M187.668,262.957v-1.888l4.3-1.053c0.383-0.104,0.918-0.188,1.606-0.253v-0.041
			c-0.109-0.004-0.304-0.024-0.584-0.062c-0.28-0.037-0.5-0.066-0.66-0.09c-0.16-0.022-1.713-0.337-4.662-0.942v-1.914l8.162,2.181
			c1.002,0.265,1.723,0.615,2.16,1.054c0.437,0.438,0.656,1.021,0.656,1.75c0,0.359-0.039,0.681-0.116,0.964h-1.524
			c0.055-0.188,0.082-0.396,0.082-0.629c0-0.611-0.401-1.013-1.203-1.203l-0.479-0.13L187.668,262.957z"/>
	</g>
	<g>
		<path fill="#676767" d="M516.719,265.59v-2.271l7.238-3.09v-0.089c-0.551,0.114-1.145,0.171-1.777,0.171h-5.461v-1.723h9.994
			v2.283l-7.164,3.063v0.075c0.479-0.086,1.048-0.13,1.709-0.13h5.455v1.709L516.719,265.59L516.719,265.59z"/>
		<path fill="#676767" d="M520.539,272.884c-1.248,0-2.221-0.264-2.915-0.793s-1.042-1.253-1.042-2.174
			c0-0.583,0.159-1.099,0.479-1.545c0.318-0.447,0.777-0.791,1.378-1.032c0.6-0.241,1.3-0.362,2.102-0.362
			c1.235,0,2.201,0.262,2.896,0.786c0.695,0.524,1.043,1.251,1.043,2.181c0,0.898-0.354,1.612-1.063,2.144
			S521.747,272.884,520.539,272.884z M520.539,268.837c-0.793,0-1.393,0.086-1.797,0.26c-0.406,0.173-0.609,0.451-0.609,0.834
			c0,0.729,0.803,1.094,2.406,1.094c0.798,0,1.395-0.088,1.788-0.263c0.393-0.175,0.591-0.452,0.591-0.831
			c0-0.383-0.197-0.661-0.591-0.834C521.933,268.924,521.337,268.837,520.539,268.837z"/>
		<path fill="#676767" d="M524.477,277.409c0,0.223-0.032,0.441-0.102,0.655l-1.764-0.212c0.045-0.127,0.067-0.294,0.067-0.499
			c0-0.441-0.175-0.782-0.522-1.019c-0.349-0.237-0.855-0.355-1.521-0.355h-3.916v-1.817h7.615v1.497l-1.189,0.204v0.063
			c0.479,0.201,0.82,0.419,1.025,0.656C524.375,276.819,524.477,277.095,524.477,277.409z"/>
		<path fill="#676767" d="M518.119,281.524c0,0.255,0.063,0.531,0.19,0.827h-1.422c-0.205-0.296-0.307-0.741-0.307-1.333
			c0-0.661,0.197-1.15,0.591-1.47c0.395-0.319,0.985-0.479,1.774-0.479h3.942v-0.737h0.814l0.656,0.949l1.612,0.466v1.161h-1.641
			v1.382h-1.443v-1.382h-4.006C518.375,280.909,518.119,281.114,518.119,281.524z"/>
		<path fill="#676767" d="M516.719,287.212h4.539c1.116,0,1.674-0.28,1.674-0.841c0-0.419-0.219-0.713-0.658-0.883
			c-0.44-0.169-1.072-0.253-1.897-0.253h-3.656v-1.817h10.638v1.817h-2.365c-0.307,0-0.852-0.026-1.635-0.082v0.097
			c0.748,0.365,1.121,0.925,1.121,1.682c0,0.697-0.235,1.225-0.707,1.579c-0.473,0.355-1.166,0.533-2.082,0.533h-4.97
			L516.719,287.212L516.719,287.212z"/>
		<path fill="#676767" d="M526.713,295.326l-9.994-3.727v-1.75l9.994,3.727V295.326z"/>
		<path fill="#676767" d="M516.719,302.518v-1.982l4.271-1.641l-0.744-0.745h-3.527v-1.858h9.994v1.858h-4.957l1.498,0.649
			l3.459,1.702v1.988l-4.328-2.311L516.719,302.518z"/>
		<path fill="#676767" d="M516.719,307.405l0.978-0.226v-0.097c-0.347-0.168-0.618-0.408-0.816-0.721s-0.297-0.67-0.297-1.07
			c0-0.684,0.232-1.2,0.697-1.552c0.465-0.351,1.159-0.525,2.084-0.525h4.971v1.839h-4.533c-0.556,0-0.975,0.064-1.258,0.197
			c-0.282,0.134-0.424,0.347-0.424,0.644c0,0.393,0.196,0.678,0.588,0.856c0.393,0.182,1.051,0.271,1.977,0.271h3.65v1.839h-7.615
			L516.719,307.405L516.719,307.405z"/>
		<path fill="#676767" d="M516.719,314.329v-4.437h1.162l4.982,2.338v-2.188h1.471v4.189h-1.285l-4.861-2.27v2.364h-1.469V314.329z"
			/>
		<path fill="#676767" d="M516.582,318.192c0-0.952,0.338-1.703,1.015-2.253c0.678-0.549,1.636-0.823,2.874-0.823
			c1.258,0,2.24,0.249,2.947,0.745c0.706,0.496,1.059,1.189,1.059,2.078c0,0.83-0.301,1.483-0.904,1.962
			c-0.604,0.479-1.45,0.718-2.54,0.718h-0.972v-3.656c-0.679,0.014-1.184,0.152-1.514,0.417c-0.33,0.264-0.496,0.629-0.496,1.094
			c0,0.592,0.187,1.199,0.556,1.817h-1.498C516.757,319.706,516.582,319.008,516.582,318.192z M523.076,317.926
			c0-0.261-0.139-0.476-0.414-0.644s-0.703-0.267-1.281-0.294v1.847c0.557-0.01,0.978-0.094,1.264-0.254
			C522.932,318.422,523.076,318.202,523.076,317.926z"/>
		<path fill="#676767" d="M524.334,321.05v1.887l-4.301,1.053c-0.383,0.104-0.918,0.188-1.605,0.253v0.041
			c0.109,0.004,0.305,0.025,0.584,0.063c0.28,0.037,0.5,0.064,0.66,0.089c0.159,0.022,1.713,0.338,4.662,0.943v1.913l-8.162-2.181
			c-1.003-0.265-1.723-0.615-2.16-1.053c-0.437-0.438-0.656-1.021-0.656-1.75c0-0.36,0.038-0.681,0.115-0.964h1.525
			c-0.055,0.188-0.082,0.396-0.082,0.629c0,0.61,0.4,1.012,1.203,1.203l0.479,0.13L524.334,321.05z"/>
	</g>
</g>
</svg>
