<svg>
<g id="EXTRAS">
	<path fill="#069248" d="M132.416,118.291c0,0-11.516,0-11.516,11.518v241.865c0,0,0,11.516,11.516,11.516h476.051
		c0,0,11.52,0,11.52-11.516V129.809c0,0,0-11.518-11.518-11.518H132.416z"/>
	<rect x="143.269" y="138.643" fill="#069248" width="453.581" height="224.195"/>
	<g>
		<path fill="#FFFFFF" d="M370.877,363.113h-1.637v-68.852c-23.625-0.439-42.711-19.793-42.711-43.521
			c0-23.728,19.086-43.082,42.711-43.52v-69.053h1.637v69.053c23.625,0.438,42.711,19.792,42.711,43.52
			c0,23.729-19.086,43.082-42.711,43.521V363.113z M370.877,208.857v83.768c22.723-0.438,41.074-19.059,41.074-41.885
			C411.951,227.915,393.6,209.295,370.877,208.857 M369.24,208.857c-22.723,0.438-41.075,19.058-41.075,41.883
			c0,22.826,18.352,41.447,41.075,41.885V208.857z M195.519,275.051c-13.404,0-24.309-10.906-24.309-24.31
			c0-13.404,10.904-24.31,24.309-24.31s24.309,10.906,24.309,24.31C219.828,264.145,208.923,275.051,195.519,275.051
			 M195.519,228.068c-12.502,0-22.674,10.172-22.674,22.673c0,12.501,10.172,22.673,22.674,22.673
			c12.5,0,22.672-10.172,22.672-22.673C218.191,238.24,208.019,228.068,195.519,228.068"/>
	</g>
	<rect x="143.539" y="208.032" fill="#069248" width="56.232" height="85.419"/>
	<path fill="#FFFFFF" d="M144.357,208.85h54.596v83.783h-54.596V208.85z M143.267,294.27h57.322v-87.056h-57.322V294.27z"/>
	<rect x="143.269" y="225.115" fill="#069248" width="27.98" height="51.252"/>
	<g>
		<path fill="#FFFFFF" d="M172.068,277.186h-29.617v-52.889h29.617V277.186z M144.087,275.549h26.344v-49.616h-26.344V275.549z
			 M544.6,275.051c-13.404,0-24.311-10.904-24.311-24.309s10.906-24.31,24.311-24.31s24.309,10.905,24.309,24.31
			S558.004,275.051,544.6,275.051 M544.6,228.068c-12.502,0-22.674,10.171-22.674,22.673c0,12.5,10.172,22.672,22.674,22.672
			c12.5,0,22.672-10.172,22.672-22.672C567.271,238.24,557.1,228.068,544.6,228.068"/>
	</g>
	<rect x="540.348" y="208.031" fill="#069248" width="56.23" height="85.418"/>
	<path fill="#FFFFFF" d="M541.164,208.85h54.596v83.783h-54.596V208.85z M539.527,294.27h57.324v-87.056h-57.324V294.27z"/>
	<rect x="568.869" y="225.115" fill="#069248" width="27.98" height="51.252"/>
	<path fill="#FFFFFF" d="M569.688,225.934h26.344v49.615h-26.344V225.934z M568.051,277.186h28.801v-52.889h-28.801V277.186z"/>
	<path fill="#FFFFFF" d="M597.668,363.656H142.449V137.824l455.219,0V363.656z M144.085,362.02h451.946V139.461H144.085V362.02z"/>
	<polygon fill="#414042" points="539.9,45.628 608.469,45.628 608.469,35.465 539.9,35.465 539.9,4.075 201.277,4.075 
		201.277,35.465 132.71,35.465 132.71,45.628 	"/>
	<polygon fill="#414042" points="689.182,149.079 657.789,149.079 657.789,49.451 647.627,49.451 647.627,149.079 647.627,352.404 
		647.627,362.855 657.789,362.855 657.789,352.404 689.182,352.404 	"/>
	<polygon fill="#414042" points="44.656,137.488 44.656,149.079 9.179,149.079 9.179,352.404 44.656,352.404 44.656,363.994 
		54.82,363.994 54.82,352.404 54.82,149.079 54.82,137.488 	"/>
	<rect x="138.453" y="379.738" fill="#BEC0C2" width="54.727" height="23.033"/>
	<rect x="526.383" y="379.738" fill="#BEC0C2" width="28.746" height="23.033"/>
	<polygon fill="#414042" points="138.214,463.1 138.214,473.264 216.302,473.264 216.302,513.975 576.996,513.975 576.996,473.264 
		650.031,473.264 650.031,463.1 	"/>
	<rect x="343.863" y="103.062" fill="#BEC0C2" width="53.747" height="30.948"/>
	<path fill="#FFFFFF" d="M352.629,368.496c0.408,0.375,0.613,0.91,0.613,1.605c0,0.697-0.205,1.232-0.613,1.607
		s-0.979,0.563-1.711,0.563h-1.098v2.477h-1.186v-6.813h2.283C351.65,367.936,352.221,368.123,352.629,368.496 M350.918,371.189
		c0.365,0,0.643-0.102,0.828-0.305c0.186-0.201,0.279-0.463,0.279-0.783c0-0.316-0.094-0.58-0.279-0.787
		c-0.186-0.205-0.463-0.309-0.828-0.309h-1.098v2.184H350.918z"/>
	<path fill="#FFFFFF" d="M355.955,367.936h1.477l2.123,6.813h-1.246l-0.449-1.469h-2.402l-0.459,1.469h-1.248L355.955,367.936z
		 M355.756,372.344h1.814l-0.898-2.928L355.756,372.344z"/>
	<path fill="#FFFFFF" d="M362.797,367.936c0.984,0,1.777,0.309,2.383,0.924c0.613,0.615,0.918,1.445,0.918,2.488
		c0,1.035-0.305,1.861-0.918,2.479c-0.605,0.615-1.398,0.922-2.383,0.922h-2.105v-6.813H362.797z M361.879,373.625h0.918
		c0.611,0,1.107-0.217,1.486-0.65c0.359-0.42,0.539-0.963,0.539-1.627c0-0.68-0.18-1.229-0.539-1.648
		c-0.373-0.428-0.867-0.641-1.486-0.641h-0.918V373.625z"/>
	<path fill="#FFFFFF" d="M369.639,367.936c0.984,0,1.777,0.309,2.383,0.924c0.613,0.615,0.918,1.445,0.918,2.488
		c0,1.035-0.305,1.861-0.918,2.479c-0.605,0.615-1.398,0.922-2.383,0.922h-2.104v-6.813H369.639z M368.721,373.625h0.918
		c0.611,0,1.107-0.217,1.486-0.65c0.359-0.42,0.539-0.963,0.539-1.627c0-0.68-0.18-1.229-0.539-1.648
		c-0.373-0.428-0.867-0.641-1.486-0.641h-0.918V373.625z"/>
	<path fill="#FFFFFF" d="M376.869,367.799c0.432,0,0.828,0.074,1.188,0.225c0.359,0.152,0.668,0.373,0.928,0.668
		c0.545,0.615,0.816,1.498,0.816,2.645c0,1.156-0.271,2.047-0.816,2.678c-0.518,0.588-1.227,0.883-2.125,0.883
		c-0.891,0-1.596-0.301-2.113-0.904c-0.547-0.621-0.818-1.508-0.818-2.656c0-1.162,0.271-2.049,0.818-2.666
		C375.258,368.088,375.965,367.799,376.869,367.799 M378.586,371.354c0-0.781-0.156-1.383-0.465-1.807s-0.725-0.635-1.252-0.635
		c-0.525,0-0.943,0.211-1.256,0.635s-0.469,1.025-0.469,1.807c0,0.779,0.156,1.377,0.469,1.793c0.313,0.418,0.73,0.625,1.256,0.625
		c0.527,0,0.943-0.207,1.252-0.625C378.43,372.73,378.586,372.133,378.586,371.354"/>
	<path fill="#FFFFFF" d="M383.523,367.799c0.398,0,0.744,0.051,1.035,0.152c0.293,0.102,0.547,0.244,0.758,0.424
		c0.42,0.357,0.693,0.859,0.818,1.502l-1.256,0.242c-0.107-0.357-0.271-0.646-0.494-0.867s-0.5-0.33-0.832-0.33
		c-0.453,0-0.818,0.199-1.098,0.598c-0.299,0.436-0.449,1.035-0.449,1.801c0,0.768,0.133,1.365,0.398,1.795
		c0.268,0.432,0.629,0.646,1.088,0.646s0.805-0.117,1.037-0.352s0.35-0.537,0.35-0.908h1.268c0,0.764-0.232,1.354-0.693,1.77
		c-0.463,0.416-1.098,0.623-1.9,0.623c-0.857,0-1.539-0.313-2.045-0.943c-0.512-0.645-0.768-1.52-0.768-2.625
		c0-1.121,0.262-1.996,0.787-2.625C382.033,368.1,382.697,367.799,383.523,367.799"/>
	<polygon fill="#FFFFFF" points="388.709,367.936 388.709,370.738 391.262,367.936 392.877,367.936 390.025,371 393.066,374.748 
		391.541,374.748 389.238,371.863 388.709,372.428 388.709,374.748 387.521,374.748 387.521,367.936 	"/>
	<polygon fill="#FFFFFF" points="403.904,370.752 403.904,371.52 599.624,371.52 599.624,402.771 600.392,402.771 600.392,370.752 	
		"/>
	<path fill="#00B4ED" d="M598.02,402.83"/>
	<polygon fill="#FFFFFF" points="327.982,370.912 194.713,370.912 194.713,402.771 195.481,402.771 195.481,371.68 327.982,371.68 	
		"/>
	<polygon fill="#FFFFFF" points="655.184,156.029 682.076,156.029 682.076,164.354 678.199,164.354 678.199,160.019 670.85,160.019 
		670.85,162.896 667.176,162.896 667.176,160.019 659.061,160.019 659.061,164.354 655.184,164.354 	"/>
	<path fill="#FFFFFF" d="M659.787,168.957l-4.604-0.499v-3.568l26.893,3.415v3.721l-26.893,3.415v-3.913l4.604-0.384V168.957z
		 M663.623,170.798l7.471-0.614l-7.471-0.806V170.798z"/>
	<polygon fill="#FFFFFF" points="655.184,184.723 655.184,176.628 682.076,176.628 682.076,180.618 659.061,180.618 
		659.061,184.723 	"/>
	<rect x="655.184" y="186.179" fill="#FFFFFF" width="26.893" height="3.99"/>
	<path fill="#FFFFFF" d="M682.076,196.115l-7.146,1.803c-1.697,0.422-6.178,1.42-7.795,1.688v0.077
		c1.496-0.154,7.754-0.345,9.168-0.345h5.773v3.759h-26.893v-3.99l6.703-1.688c1.615-0.422,5.977-1.343,7.551-1.611v-0.077
		c-1.414,0.153-7.551,0.307-8.883,0.307l-5.371,0.038v-3.798h26.893V196.115z"/>
	<path fill="#FFFFFF" d="M665.924,211.343v-1.15h3.877v4.757h-9.609c-3.23,0-5.41-1.88-5.41-4.795c0-2.839,2.221-5.102,5.531-5.102
		h16.635c3.271,0,5.531,2.263,5.531,5.102c0,2.915-2.221,4.795-5.41,4.795h-4.078v-3.606h4.199c0.729,0,1.252-0.345,1.252-1.15
		c0-0.806-0.523-1.113-1.252-1.113H660.07c-0.727,0-1.252,0.307-1.252,1.113c0,0.805,0.525,1.15,1.252,1.15H665.924z"/>
	<path fill="#FFFFFF" d="M655.184,231.828v-3.797c1.051-0.345,2.141-0.537,4.16-0.537h5.854c0.768,0,1.211-0.192,1.211-0.882v-0.92
		h-11.225v-3.99h26.893v5.371c0,1.957-1.211,4.143-4.725,4.143h-6.137c-1.252,0-2.303-0.307-3.029-1.343
		c-0.727,1.036-1.736,1.458-3.068,1.458h-5.451C657.971,231.329,656.477,231.56,655.184,231.828 M677.109,227.378
		c0.809,0,1.17-0.23,1.17-0.767v-0.92h-8.316v0.958c0,0.537,0.322,0.729,1.17,0.729H677.109z"/>
	<path fill="#FFFFFF" d="M677.068,243.106h-16.877c-3.23,0-5.41-2.225-5.41-4.987s2.18-4.987,5.41-4.987h16.877
		c3.23,0,5.41,2.225,5.41,4.987S680.299,243.106,677.068,243.106 M677.352,237.16h-17.443c-0.686,0-1.09,0.383-1.09,0.959
		c0,0.575,0.404,0.959,1.09,0.959h17.443c0.686,0,1.09-0.384,1.09-0.959C678.441,237.543,678.037,237.16,677.352,237.16"/>
	<path fill="#FFFFFF" d="M659.787,248.245l-4.604-0.498v-3.568l26.893,3.415v3.721l-26.893,3.414v-3.914l4.604-0.383V248.245z
		 M663.623,250.086l7.471-0.614l-7.471-0.806V250.086z"/>
	<path fill="#FFFFFF" d="M655.184,261.174v-5.257h26.893v5.257c0,2.414-1.494,4.641-5.25,4.641h-16.555
		C656.518,265.814,655.184,263.588,655.184,261.174 M676.826,261.863c0.93,0,1.373-0.346,1.373-1.037v-0.92h-19.18v0.92
		c0,0.691,0.445,1.037,1.414,1.037H676.826z"/>
	<polygon fill="#FFFFFF" points="677.998,278.627 655.184,278.627 655.184,274.676 677.998,274.676 677.998,271.797 
		682.076,271.797 682.076,281.504 677.998,281.504 	"/>
	<polygon fill="#FFFFFF" points="655.184,282.768 682.076,282.768 682.076,291.092 678.199,291.092 678.199,286.758 670.85,286.758 
		670.85,289.635 667.176,289.635 667.176,286.758 659.061,286.758 659.061,291.092 655.184,291.092 	"/>
	<path fill="#FFFFFF" d="M655.184,302.68v-3.799c1.051-0.346,2.141-0.537,4.16-0.537h5.854c0.768,0,1.211-0.191,1.211-0.883v-0.922
		h-11.225v-3.988h26.893v5.371c0,1.957-1.211,4.143-4.725,4.143h-6.137c-1.252,0-2.303-0.307-3.029-1.342
		c-0.727,1.035-1.736,1.457-3.068,1.457h-5.451C657.971,302.18,656.477,302.41,655.184,302.68 M677.109,298.229
		c0.809,0,1.17-0.23,1.17-0.768v-0.922h-8.316v0.961c0,0.535,0.322,0.729,1.17,0.729H677.109z"/>
	<path fill="#FFFFFF" d="M655.184,314.225v-3.797c1.051-0.346,2.141-0.537,4.16-0.537h5.854c0.768,0,1.211-0.191,1.211-0.883v-0.922
		h-11.225v-3.988h26.893v5.371c0,1.955-1.211,4.143-4.725,4.143h-6.137c-1.252,0-2.303-0.307-3.029-1.342
		c-0.727,1.035-1.736,1.457-3.068,1.457h-5.451C657.971,313.727,656.477,313.957,655.184,314.225 M677.109,309.775
		c0.809,0,1.17-0.23,1.17-0.768v-0.922h-8.316v0.961c0,0.535,0.322,0.729,1.17,0.729H677.109z"/>
	<path fill="#FFFFFF" d="M659.787,318.789l-4.604-0.498v-3.568l26.893,3.414v3.721l-26.893,3.414v-3.912l4.604-0.385V318.789z
		 M663.623,320.631l7.471-0.615l-7.471-0.805V320.631z"/>
	<path fill="#FFFFFF" d="M654.781,331.256c0-2.84,2.221-4.949,5.531-4.949h16.635c3.27,0,5.531,2.109,5.531,4.949
		c0,2.916-2.221,4.758-5.408,4.758h-4.604v-3.76h4.643c0.727,0,1.332-0.191,1.332-0.959c0-0.807-0.605-0.959-1.332-0.959H660.15
		c-0.725,0-1.332,0.152-1.332,0.959c0,0.805,0.607,0.959,1.332,0.959h4.645v3.76h-4.604
		C656.961,336.014,654.781,334.172,654.781,331.256"/>
	<polygon fill="#FFFFFF" points="655.184,337.662 682.076,337.662 682.076,345.986 678.199,345.986 678.199,341.652 670.85,341.652 
		670.85,344.529 667.176,344.529 667.176,341.652 659.061,341.652 659.061,345.986 655.184,345.986 	"/>
	<path fill="#FFFFFF" d="M18.626,330.604c0-1.957,1.211-4.143,4.723-4.143h5.209c1.373,0,2.463,0.305,3.27,1.418
		c0.809-1.113,1.898-1.418,3.271-1.418h5.693c3.512,0,4.725,2.186,4.725,4.143v5.371H18.626V330.604z M23.591,330.297
		c-0.807,0-1.17,0.229-1.17,0.768v0.92h7.832v-0.959c0-0.537-0.322-0.729-1.17-0.729H23.591z M34.857,330.297
		c-0.848,0-1.172,0.191-1.172,0.729v0.959h8.035v-0.92c0-0.539-0.363-0.768-1.17-0.768H34.857z"/>
	<path fill="#FFFFFF" d="M45.517,314.338v3.799c-1.051,0.346-2.141,0.537-4.16,0.537h-5.854c-0.768,0-1.211,0.191-1.211,0.883v0.92
		h11.225v3.99H18.626v-5.371c0-1.957,1.211-4.145,4.723-4.145h6.137c1.252,0,2.303,0.307,3.029,1.344
		c0.727-1.037,1.736-1.457,3.068-1.457h5.451C42.732,314.838,44.224,314.605,45.517,314.338 M23.591,318.789
		c-0.807,0-1.17,0.229-1.17,0.768v0.92h8.316v-0.959c0-0.537-0.322-0.729-1.17-0.729H23.591z"/>
	<path fill="#FFFFFF" d="M23.632,303.061h16.879c3.229,0,5.41,2.225,5.41,4.986c0,2.764-2.182,4.988-5.41,4.988H23.632
		c-3.23,0-5.41-2.225-5.41-4.988C18.222,305.285,20.402,303.061,23.632,303.061 M23.349,309.006h17.443
		c0.686,0,1.09-0.383,1.09-0.959c0-0.574-0.404-0.959-1.09-0.959H23.349c-0.686,0-1.09,0.385-1.09,0.959
		C22.259,308.623,22.664,309.006,23.349,309.006"/>
	<path fill="#FFFFFF" d="M23.632,291.207h16.879c3.229,0,5.41,2.227,5.41,4.988s-2.182,4.986-5.41,4.986H23.632
		c-3.23,0-5.41-2.225-5.41-4.986S20.402,291.207,23.632,291.207 M23.349,297.154h17.443c0.686,0,1.09-0.385,1.09-0.959
		c0-0.576-0.404-0.959-1.09-0.959H23.349c-0.686,0-1.09,0.383-1.09,0.959C22.259,296.77,22.664,297.154,23.349,297.154"/>
	<path fill="#FFFFFF" d="M45.517,278.588v4.143l-5.654,1.496c-0.846,0.23-3.311,0.998-4.117,1.113v0.037
		c0.807-0.113,3.271-0.152,4.199-0.152h5.572v3.99H18.626v-3.99h3.996c0.848,0,3.393,0.076,4.078,0.191v-0.076
		c-0.889-0.115-3.23-0.844-3.996-1.074l-4.078-1.268v-4.104l11.467,4.219L45.517,278.588z"/>
	<path fill="#FFFFFF" d="M45.517,262.859v3.799c-1.051,0.344-2.141,0.535-4.16,0.535h-5.854c-0.768,0-1.211,0.193-1.211,0.883v0.922
		h11.225v3.988H18.626v-5.369c0-1.957,1.211-4.143,4.723-4.143h6.137c1.252,0,2.303,0.307,3.029,1.342
		c0.727-1.035,1.736-1.457,3.068-1.457h5.451C42.732,263.359,44.224,263.129,45.517,262.859 M23.591,267.311
		c-0.807,0-1.17,0.23-1.17,0.766v0.922h8.316v-0.959c0-0.537-0.322-0.729-1.17-0.729H23.591z"/>
	<path fill="#FFFFFF" d="M23.632,251.583h16.879c3.229,0,5.41,2.225,5.41,4.988c0,2.762-2.182,4.986-5.41,4.986H23.632
		c-3.23,0-5.41-2.225-5.41-4.986C18.222,253.808,20.402,251.583,23.632,251.583 M23.349,257.528h17.443
		c0.686,0,1.09-0.383,1.09-0.958c0-0.576-0.404-0.959-1.09-0.959H23.349c-0.686,0-1.09,0.383-1.09,0.959
		C22.259,257.146,22.664,257.528,23.349,257.528"/>
	<path fill="#FFFFFF" d="M40.914,246.443l4.604,0.499v3.568l-26.891-3.416v-3.721l26.891-3.415v3.914l-4.604,0.383V246.443z
		 M37.078,244.602l-7.469,0.614l7.469,0.805V244.602z"/>
	<path fill="#FFFFFF" d="M45.517,233.516v5.256H18.625v-5.256c0-2.417,1.494-4.642,5.25-4.642h16.555
		C44.185,228.874,45.517,231.099,45.517,233.516 M23.875,232.825c-0.93,0-1.373,0.345-1.373,1.036v0.921h19.18v-0.921
		c0-0.69-0.443-1.036-1.414-1.036H23.875z"/>
	<path fill="#FFFFFF" d="M37.482,219.208h3.148c0.971,0,1.615-0.423,1.615-1.304c0-0.845-0.605-1.267-1.615-1.267
		c-2.422,0-4.32,0.92-7.025,2.417c-2.504,1.496-6.219,3.529-9.326,3.529c-3.352,0-6.057-1.649-6.057-5.102
		c0-2.686,2.059-4.489,5.611-4.489h2.947v3.415h-3.35c-0.889,0-1.373,0.46-1.373,1.074c0,0.652,0.443,1.189,1.373,1.189
		c3.107,0,4.199-0.882,7.186-2.494c3.029-1.688,6.219-3.376,9.369-3.376c4.199,0,5.936,2.417,5.936,4.91
		c0,3.069-2.02,4.949-5.613,4.949h-2.826V219.208z"/>
	<polygon fill="#FFFFFF" points="22.705,205.245 45.517,205.245 45.517,209.196 22.705,209.196 22.705,212.073 18.626,212.073 
		18.626,202.368 22.705,202.368 	"/>
	<path fill="#FFFFFF" d="M40.914,197.958l4.604,0.498v3.568l-26.891-3.415v-3.721l26.891-3.414v3.913l-4.604,0.384V197.958z
		 M37.078,196.115l-7.469,0.614l7.469,0.806V196.115z"/>
	<path fill="#FFFFFF" d="M18.626,186.449l7.146-1.803c1.695-0.422,6.178-1.42,7.791-1.688v-0.077
		c-1.494,0.153-7.752,0.345-9.164,0.345h-5.773v-3.759h26.891v3.989l-6.703,1.688c-1.615,0.422-5.977,1.342-7.551,1.611v0.077
		c1.414-0.153,7.551-0.307,8.885-0.307l5.369-0.039v3.798H18.626V186.449z"/>
	<path fill="#FFFFFF" d="M45.517,172.103v5.256H18.625v-5.256c0-2.417,1.494-4.642,5.25-4.642h16.555
		C44.185,167.461,45.517,169.686,45.517,172.103 M23.875,171.412c-0.93,0-1.373,0.345-1.373,1.036v0.921h19.18v-0.921
		c0-0.69-0.443-1.036-1.414-1.036H23.875z"/>
	<path fill="#FFFFFF" d="M287.365,475.338c1.955,0,4.143,1.211,4.143,4.725v5.207c0,1.373-0.307,2.465-1.42,3.271
		c1.113,0.807,1.42,1.898,1.42,3.271v5.691c0,3.514-2.188,4.725-4.143,4.725h-5.373v-26.891H287.365z M287.671,480.305
		c0-0.809-0.23-1.17-0.768-1.17h-0.922v7.832h0.959c0.537,0,0.73-0.324,0.73-1.17V480.305z M287.671,491.57
		c0-0.85-0.193-1.172-0.73-1.172h-0.959v8.035h0.922c0.537,0,0.768-0.363,0.768-1.172V491.57z"/>
	<path fill="#FFFFFF" d="M303.63,502.229h-3.799c-0.346-1.049-0.537-2.139-0.537-4.158v-5.855c0-0.766-0.191-1.211-0.883-1.211
		h-0.922v11.225h-3.988v-26.891h5.371c1.957,0,4.143,1.211,4.143,4.725v6.137c0,1.252-0.307,2.301-1.342,3.029
		c1.035,0.725,1.457,1.736,1.457,3.068v5.451C303.13,499.443,303.361,500.936,303.63,502.229 M299.179,480.305
		c0-0.809-0.23-1.17-0.768-1.17h-0.922v8.316h0.961c0.537,0,0.729-0.322,0.729-1.172V480.305z"/>
	<path fill="#FFFFFF" d="M308.193,497.625l-0.498,4.604h-3.568l3.416-26.891h3.721l3.414,26.891h-3.914l-0.383-4.604H308.193z
		 M310.035,493.791l-0.613-7.471l-0.807,7.471H310.035z"/>
	<polygon fill="#FFFFFF" points="315.865,502.229 315.865,475.338 324.191,475.338 324.191,479.215 319.855,479.215 
		319.855,486.563 322.732,486.563 322.732,490.236 319.855,490.236 319.855,498.354 324.191,498.354 324.191,502.229 	"/>
	<polygon fill="#FFFFFF" points="339.804,502.229 336.005,502.229 336.005,496.658 336.236,489.834 336.16,489.834 335.353,495.688 
		334.203,502.229 331.095,502.229 329.945,495.688 329.138,489.834 329.062,489.834 329.292,496.658 329.292,502.229 
		325.648,502.229 325.648,475.338 330.06,475.338 332.13,488.018 332.63,491.529 332.707,491.529 333.205,488.018 335.507,475.338 
		339.804,475.338 	"/>
	<path fill="#FFFFFF" d="M345.058,497.625l-0.498,4.604h-3.568l3.414-26.891h3.721l3.414,26.891h-3.912l-0.385-4.604H345.058z
		 M346.9,493.791l-0.615-7.471l-0.805,7.471H346.9z"/>
	<path fill="#FFFFFF" d="M362.857,502.229h-3.797c-0.346-1.049-0.537-2.139-0.537-4.158v-5.855c0-0.766-0.191-1.211-0.883-1.211
		h-0.922v11.225h-3.988v-26.891h5.371c1.957,0,4.143,1.211,4.143,4.725v6.137c0,1.252-0.307,2.301-1.344,3.029
		c1.037,0.725,1.459,1.736,1.459,3.068v5.451C362.359,499.443,362.59,500.936,362.857,502.229 M358.408,480.305
		c0-0.809-0.23-1.17-0.768-1.17h-0.922v8.316h0.961c0.537,0,0.729-0.322,0.729-1.172V480.305z"/>
	<path fill="#FFFFFF" d="M379.199,502.229h-3.797c-0.346-1.049-0.537-2.139-0.537-4.158v-5.855c0-0.766-0.191-1.211-0.883-1.211
		h-0.92v11.225h-3.99v-26.891h5.371c1.955,0,4.143,1.211,4.143,4.725v6.137c0,1.252-0.307,2.301-1.344,3.029
		c1.037,0.725,1.459,1.736,1.459,3.068v5.451C378.701,499.443,378.932,500.936,379.199,502.229 M374.75,480.305
		c0-0.809-0.23-1.17-0.768-1.17h-0.92v8.316h0.959c0.537,0,0.729-0.322,0.729-1.172V480.305z"/>
	<path fill="#FFFFFF" d="M390.479,480.344v16.879c0,3.23-2.225,5.41-4.988,5.41c-2.762,0-4.986-2.18-4.986-5.41v-16.879
		c0-3.229,2.225-5.41,4.986-5.41C388.254,474.934,390.479,477.115,390.479,480.344 M384.531,480.063v17.443
		c0,0.686,0.385,1.09,0.959,1.09c0.576,0,0.959-0.404,0.959-1.09v-17.443c0-0.688-0.383-1.09-0.959-1.09
		C384.916,478.973,384.531,479.375,384.531,480.063"/>
	<path fill="#FFFFFF" d="M395.617,497.625l-0.498,4.604h-3.568l3.414-26.891h3.721l3.416,26.891h-3.914l-0.385-4.604H395.617z
		 M397.459,493.791l-0.613-7.471l-0.807,7.471H397.459z"/>
	<path fill="#FFFFFF" d="M408.545,502.23h-5.256v-26.893h5.256c2.416,0,4.641,1.494,4.641,5.25v16.555
		C413.186,500.896,410.961,502.23,408.545,502.23 M409.236,480.588c0-0.93-0.346-1.373-1.037-1.373h-0.92v19.178h0.92
		c0.691,0,1.037-0.443,1.037-1.412V480.588z"/>
	<path fill="#FFFFFF" d="M422.854,494.195v3.148c0,0.969,0.422,1.615,1.303,1.615c0.846,0,1.268-0.605,1.268-1.615
		c0-2.424-0.922-4.32-2.418-7.025c-1.496-2.504-3.529-6.219-3.529-9.328c0-3.35,1.65-6.057,5.104-6.057
		c2.686,0,4.488,2.061,4.488,5.613v2.947h-3.414v-3.352c0-0.889-0.461-1.371-1.074-1.371c-0.652,0-1.189,0.443-1.189,1.371
		c0,3.109,0.883,4.199,2.494,7.188c1.688,3.027,3.375,6.219,3.375,9.367c0,4.199-2.418,5.936-4.91,5.936
		c-3.068,0-4.949-2.02-4.949-5.611v-2.826H422.854z"/>
	<polygon fill="#FFFFFF" points="436.816,479.416 436.816,502.229 432.865,502.229 432.865,479.416 429.988,479.416 
		429.988,475.338 439.693,475.338 439.693,479.416 	"/>
	<path fill="#FFFFFF" d="M444.105,497.625l-0.5,4.604h-3.568l3.414-26.891h3.723l3.414,26.891h-3.914l-0.383-4.604H444.105z
		 M445.945,493.791l-0.613-7.471l-0.805,7.471H445.945z"/>
	<path fill="#FFFFFF" d="M455.611,475.338l1.805,7.146c0.422,1.695,1.42,6.178,1.688,7.793h0.076
		c-0.152-1.494-0.344-7.752-0.344-9.166v-5.773h3.758v26.891h-3.988l-1.689-6.701c-0.422-1.615-1.342-5.977-1.609-7.551h-0.078
		c0.154,1.412,0.307,7.551,0.307,8.883l0.039,5.369h-3.799v-26.891H455.611z"/>
	<path fill="#FFFFFF" d="M469.959,502.23h-5.256v-26.893h5.256c2.418,0,4.643,1.494,4.643,5.25v16.555
		C474.602,500.896,472.377,502.23,469.959,502.23 M470.65,480.588c0-0.93-0.346-1.373-1.037-1.373h-0.92v19.178h0.92
		c0.691,0,1.037-0.443,1.037-1.412V480.588z"/>
	<path fill="#414142" d="M363.555,110.317c0.986,0,1.779,0.308,2.385,0.923c0.611,0.616,0.918,1.446,0.918,2.488
		c0,1.036-0.307,1.862-0.918,2.479c-0.605,0.615-1.398,0.923-2.385,0.923h-2.104v-6.813H363.555z M362.639,116.007h0.916
		c0.613,0,1.107-0.217,1.486-0.651c0.359-0.42,0.539-0.962,0.539-1.628c0-0.679-0.18-1.229-0.539-1.648
		c-0.371-0.427-0.867-0.641-1.486-0.641h-0.916V116.007z"/>
	<path fill="#414142" d="M369.381,110.317v4.242c0,0.56,0.135,0.961,0.404,1.207c0.268,0.245,0.615,0.368,1.041,0.368
		s0.773-0.123,1.043-0.368s0.404-0.647,0.404-1.207v-4.242h1.176v4.242c0,0.867-0.229,1.538-0.688,2.01s-1.104,0.708-1.936,0.708
		s-1.477-0.236-1.936-0.708s-0.688-1.143-0.688-2.01v-4.242H369.381z"/>
	<path fill="#414142" d="M379.154,116.049c-0.279,0.819-0.814,1.228-1.605,1.228c-0.811,0-1.48-0.321-2.006-0.966
		c-0.545-0.665-0.816-1.515-0.816-2.551c0-1.092,0.291-1.967,0.877-2.625c0.564-0.637,1.293-0.955,2.184-0.955
		c0.605,0,1.113,0.138,1.521,0.414c0.41,0.276,0.73,0.713,0.963,1.308l-1.207,0.293c-0.352-0.595-0.799-0.893-1.336-0.893
		c-0.492,0-0.902,0.221-1.227,0.662c-0.34,0.448-0.51,1.046-0.51,1.795c0,0.707,0.152,1.28,0.459,1.721
		c0.299,0.434,0.697,0.651,1.197,0.651c0.426,0,0.775-0.144,1.047-0.431c0.279-0.293,0.42-0.696,0.42-1.207v-0.042l-1.457-0.031
		v-0.798h2.584v3.507h-0.959L379.154,116.049z"/>
	<path fill="#414142" d="M361.502,120.538c0.432,0,0.826,0.075,1.186,0.226c0.359,0.15,0.668,0.373,0.928,0.667
		c0.545,0.616,0.818,1.498,0.818,2.646c0,1.154-0.273,2.047-0.818,2.677c-0.52,0.588-1.227,0.882-2.123,0.882
		c-0.893,0-1.598-0.301-2.117-0.903c-0.543-0.623-0.816-1.509-0.816-2.656c0-1.163,0.273-2.051,0.816-2.667
		C359.889,120.828,360.596,120.538,361.502,120.538 M363.217,124.092c0-0.78-0.156-1.382-0.463-1.806
		c-0.311-0.424-0.729-0.635-1.252-0.635c-0.527,0-0.945,0.211-1.258,0.635c-0.313,0.423-0.469,1.025-0.469,1.806
		s0.156,1.378,0.469,1.795c0.313,0.417,0.73,0.625,1.258,0.625c0.523,0,0.941-0.208,1.252-0.625
		C363.061,125.47,363.217,124.872,363.217,124.092"/>
	<path fill="#414142" d="M366.906,120.674v4.242c0,0.56,0.135,0.961,0.404,1.207c0.27,0.245,0.617,0.368,1.041,0.368
		c0.428,0,0.773-0.123,1.043-0.368c0.27-0.246,0.404-0.647,0.404-1.207v-4.242h1.178v4.242c0,0.867-0.23,1.538-0.688,2.01
		c-0.461,0.472-1.105,0.708-1.938,0.708c-0.83,0-1.475-0.236-1.934-0.708s-0.688-1.143-0.688-2.01v-4.242H366.906z"/>
	<polygon fill="#414142" points="371.844,120.674 377.029,120.674 377.029,121.745 375.025,121.745 375.025,127.488 
		373.848,127.488 373.848,121.745 371.844,121.745 	"/>
	<path fill="#414142" d="M381.418,122.553c-0.105-0.595-0.506-0.892-1.197-0.892c-0.338,0-0.604,0.072-0.793,0.215
		s-0.283,0.317-0.283,0.52c0,0.203,0.061,0.362,0.184,0.478c0.123,0.116,0.314,0.223,0.574,0.32l1.406,0.578
		c0.479,0.195,0.848,0.442,1.107,0.739c0.26,0.298,0.389,0.67,0.389,1.119c0,0.616-0.219,1.104-0.658,1.465
		s-1.064,0.541-1.875,0.541c-0.719,0-1.301-0.185-1.746-0.556c-0.498-0.406-0.76-0.98-0.787-1.723h1.166
		c0,0.56,0.275,0.914,0.828,1.061c0.166,0.048,0.387,0.073,0.658,0.073c0.273,0,0.525-0.072,0.758-0.215
		c0.234-0.144,0.35-0.336,0.35-0.578c0-0.242-0.063-0.428-0.189-0.557s-0.334-0.25-0.619-0.362l-1.285-0.535
		c-0.5-0.204-0.881-0.441-1.148-0.714c-0.266-0.272-0.398-0.651-0.398-1.134c0-0.567,0.209-1.015,0.629-1.344
		c0.426-0.342,1.002-0.514,1.73-0.514c0.727,0,1.289,0.177,1.686,0.529c0.395,0.354,0.623,0.849,0.684,1.486H381.418z"/>
	<path fill="#FFFFFF" d="M299.808,10.548l1.803,7.146c0.422,1.696,1.42,6.179,1.688,7.793h0.078
		c-0.154-1.494-0.346-7.752-0.346-9.165v-5.774h3.76v26.891h-3.99l-1.689-6.703c-0.422-1.615-1.342-5.976-1.611-7.55h-0.074
		c0.152,1.413,0.305,7.55,0.305,8.883l0.039,5.37h-3.799V10.548H299.808z"/>
	<polygon fill="#FFFFFF" points="308.898,37.439 308.898,10.548 317.224,10.548 317.224,14.424 312.888,14.424 312.888,21.772 
		315.765,21.772 315.765,25.446 312.888,25.446 312.888,33.563 317.224,33.563 317.224,37.439 	"/>
	<path fill="#FFFFFF" d="M326.429,26.375c-0.115-0.969-0.422-3.553-0.422-4.36h-0.039c0,0.808-0.344,3.352-0.459,4.36l-1.305,11.063
		h-3.299l-3.07-26.891h3.838l0.652,8.277c0.113,1.454,0.42,5.29,0.459,6.379h0.039c-0.039-1.09,0.383-4.965,0.576-6.379l1.074-8.277
		h3.145l1.074,8.277c0.193,1.374,0.537,5.33,0.576,6.379h0.076c-0.037-1.049,0.307-4.965,0.422-6.379l0.652-8.277h3.568
		l-3.068,26.891h-3.34L326.429,26.375z"/>
	<path fill="#FFFFFF" d="M350.174,37.439h-3.797c-0.344-1.049-0.537-2.14-0.537-4.159v-5.854c0-0.767-0.193-1.211-0.883-1.211h-0.92
		v11.225h-3.99V10.548h5.371c1.958,0,4.143,1.211,4.143,4.724v6.137c0,1.252-0.307,2.302-1.342,3.029
		c1.035,0.726,1.457,1.737,1.457,3.069v5.451C349.676,34.653,349.906,36.147,350.174,37.439 M345.724,15.514
		c0-0.807-0.23-1.17-0.768-1.17h-0.92v8.317h0.959c0.537,0,0.729-0.323,0.729-1.171V15.514z"/>
	<path fill="#FFFFFF" d="M361.453,15.554v16.878c0,3.23-2.227,5.411-4.988,5.411s-4.986-2.181-4.986-5.411V15.554
		c0-3.23,2.225-5.41,4.986-5.41S361.453,12.324,361.453,15.554 M355.506,15.272v17.443c0,0.686,0.385,1.09,0.959,1.09
		c0.576,0,0.959-0.404,0.959-1.09V15.272c0-0.687-0.383-1.09-0.959-1.09C355.891,14.182,355.506,14.585,355.506,15.272"/>
	<path fill="#FFFFFF" d="M366.592,32.835l-0.498,4.604h-3.568l3.414-26.891h3.721l3.414,26.891h-3.912l-0.383-4.604H366.592z
		 M368.434,29l-0.615-7.469L367.014,29H368.434z"/>
	<path fill="#FFFFFF" d="M379.52,37.439h-5.256V10.547h5.256c2.416,0,4.643,1.495,4.643,5.25v16.554
		C384.162,36.106,381.936,37.439,379.52,37.439 M380.209,15.797c0-0.929-0.344-1.374-1.035-1.374h-0.92v19.179h0.92
		c0.691,0,1.035-0.444,1.035-1.413V15.797z"/>
	<path fill="#FFFFFF" d="M393.828,29.404v3.149c0,0.97,0.422,1.615,1.303,1.615c0.846,0,1.266-0.606,1.266-1.615
		c0-2.423-0.92-4.32-2.416-7.025c-1.496-2.503-3.529-6.218-3.529-9.327c0-3.351,1.65-6.057,5.104-6.057
		c2.686,0,4.488,2.059,4.488,5.612v2.947h-3.414v-3.351c0-0.889-0.461-1.373-1.074-1.373c-0.652,0-1.189,0.443-1.189,1.373
		c0,3.108,0.881,4.199,2.492,7.187c1.689,3.028,3.377,6.219,3.377,9.368c0,4.199-2.418,5.936-4.91,5.936
		c-3.07,0-4.949-2.019-4.949-5.613v-2.826H393.828z"/>
	<polygon fill="#FFFFFF" points="407.791,14.626 407.791,37.439 403.84,37.439 403.84,14.626 400.963,14.626 400.963,10.548 
		410.668,10.548 410.668,14.626 	"/>
	<path fill="#FFFFFF" d="M415.078,32.835l-0.498,4.604h-3.568l3.414-26.891h3.723l3.414,26.891h-3.914l-0.383-4.604H415.078z
		 M416.92,29l-0.613-7.469L415.5,29H416.92z"/>
	<path fill="#FFFFFF" d="M426.586,10.548l1.805,7.146c0.422,1.696,1.418,6.179,1.688,7.793h0.076
		c-0.152-1.494-0.346-7.752-0.346-9.165v-5.774h3.76v26.891h-3.988l-1.689-6.703c-0.422-1.615-1.342-5.976-1.611-7.55h-0.076
		c0.152,1.413,0.307,7.55,0.307,8.883l0.039,5.37h-3.799V10.548H426.586z"/>
	<path fill="#FFFFFF" d="M440.934,37.439h-5.256V10.547h5.256c2.416,0,4.643,1.495,4.643,5.25v16.554
		C445.576,36.106,443.35,37.439,440.934,37.439 M441.623,15.797c0-0.929-0.344-1.374-1.035-1.374h-0.92v19.179h0.92
		c0.691,0,1.035-0.444,1.035-1.413V15.797z"/>
</g>


	<g id="FAMILY-AREA">
		<rect x="514.922" y="35.465" fill="#414042" stroke="#F1F2F2" stroke-miterlimit="10" width="85.078" height="99.845"/>
		<g>
			<path fill="#F2F2F2" d="M522.326,125.062h4.907v1.224h-3.491v2.053h3.191v1.212h-3.191v3.3h-1.416V125.062z"/>
			<path fill="#F2F2F2" d="M529.91,125.062h1.775l2.557,7.788h-1.5l-0.541-1.68h-2.892l-0.552,1.68h-1.5L529.91,125.062z
				 M529.67,130.102h2.184l-1.08-3.348L529.67,130.102z"/>
			<path fill="#F2F2F2" d="M537.649,125.062l2.136,4.632l2.137-4.632h1.955v7.788h-1.428v-5.916l-2.208,5.064h-0.924l-2.28-5.232
				v6.084h-1.416v-7.788H537.649z"/>
			<path fill="#F2F2F2" d="M546.109,125.062h1.416v7.788h-1.416V125.062z"/>
			<path fill="#F2F2F2" d="M551.174,131.613h3.203v1.236h-4.619v-7.788h1.416V131.613z"/>
			<path fill="#F2F2F2" d="M555.518,125.062l1.715,3.108l1.801-3.108h1.668l-2.771,4.572v3.216h-1.416v-3.216l-2.677-4.572H555.518z
				"/>
			<path fill="#F2F2F2" d="M566.845,125.062h1.776l2.556,7.788h-1.5l-0.54-1.68h-2.893l-0.551,1.68h-1.5L566.845,125.062z
				 M566.604,130.102h2.185l-1.08-3.348L566.604,130.102z"/>
			<path fill="#F2F2F2" d="M578.341,127.449c0,0.553-0.155,1.024-0.468,1.416c-0.313,0.393-0.76,0.664-1.344,0.816l2.088,3.168
				h-1.848l-1.717-3.036h-1.08v3.036h-1.416v-7.788h2.881c0.92,0,1.635,0.22,2.147,0.66
				C578.089,126.146,578.341,126.722,578.341,127.449z M575.305,128.865c0.52,0,0.912-0.117,1.176-0.354
				c0.265-0.236,0.396-0.548,0.396-0.937c0-0.388-0.12-0.699-0.359-0.936c-0.24-0.236-0.601-0.354-1.08-0.354h-1.465v2.58H575.305z"
				/>
			<path fill="#F2F2F2" d="M580.273,125.062h5.016v1.224h-3.6v2.053h3.371v1.224h-3.371v2.052h3.6v1.236h-5.016V125.062z"/>
			<path fill="#F2F2F2" d="M589.117,125.062h1.775l2.557,7.788h-1.5l-0.541-1.68h-2.892l-0.552,1.68h-1.5L589.117,125.062z
				 M588.877,130.102h2.184l-1.08-3.348L588.877,130.102z"/>
		</g>
		<g>
			<path fill="#F2F2F2" d="M522.326,37.84h4.907v1.224h-3.491v2.053h3.191v1.212h-3.191v3.3h-1.416V37.84z"/>
			<path fill="#F2F2F2" d="M529.91,37.84h1.775l2.557,7.788h-1.5l-0.541-1.68h-2.892l-0.552,1.68h-1.5L529.91,37.84z M529.67,42.88
				h2.184l-1.08-3.348L529.67,42.88z"/>
			<path fill="#F2F2F2" d="M537.649,37.84l2.136,4.632l2.137-4.632h1.955v7.788h-1.428v-5.916l-2.208,5.064h-0.924l-2.28-5.232
				v6.084h-1.416V37.84H537.649z"/>
			<path fill="#F2F2F2" d="M546.109,37.84h1.416v7.788h-1.416V37.84z"/>
			<path fill="#F2F2F2" d="M551.174,44.392h3.203v1.236h-4.619V37.84h1.416V44.392z"/>
			<path fill="#F2F2F2" d="M555.518,37.84l1.715,3.108l1.801-3.108h1.668l-2.771,4.572v3.216h-1.416v-3.216l-2.677-4.572H555.518z"
				/>
			<path fill="#F2F2F2" d="M566.845,37.84h1.776l2.556,7.788h-1.5l-0.54-1.68h-2.893l-0.551,1.68h-1.5L566.845,37.84z
				 M566.604,42.88h2.185l-1.08-3.348L566.604,42.88z"/>
			<path fill="#F2F2F2" d="M578.341,40.228c0,0.553-0.155,1.024-0.468,1.416c-0.313,0.393-0.76,0.664-1.344,0.816l2.088,3.168
				h-1.848l-1.717-3.036h-1.08v3.036h-1.416V37.84h2.881c0.92,0,1.635,0.22,2.147,0.66C578.089,38.924,578.341,39.5,578.341,40.228z
				 M575.305,41.644c0.52,0,0.912-0.117,1.176-0.354c0.265-0.236,0.396-0.548,0.396-0.937c0-0.388-0.12-0.699-0.359-0.936
				c-0.24-0.236-0.601-0.354-1.08-0.354h-1.465v2.58H575.305z"/>
			<path fill="#F2F2F2" d="M580.273,37.84h5.016v1.224h-3.6v2.053h3.371v1.224h-3.371v2.052h3.6v1.236h-5.016V37.84z"/>
			<path fill="#F2F2F2" d="M589.117,37.84h1.775l2.557,7.788h-1.5l-0.541-1.68h-2.892l-0.552,1.68h-1.5L589.117,37.84z
				 M588.877,42.88h2.184l-1.08-3.348L588.877,42.88z"/>
		</g>
	</g>


<g id="AREAS">
	<rect id="BKR-A405" x="58.574" y="137.487" stroke-width="0" width="30.477" height="35.147"/>
	<rect id="BKR-A404" x="58.574" y="176.54" stroke-width="0" width="30.477" height="46.863"/>
	<rect id="BKR-A403" x="58.574" y="227.31" stroke-width="0" width="30.477" height="46.864"/>
	<rect id="BKR-A402" x="58.574" y="278.078" stroke-width="0" width="30.477" height="46.863"/>
	<rect id="BKR-A401" x="58.574" y="328.848" stroke-width="0" width="30.477" height="35.146"/>
	<rect id="BKR-A400" x="92.779" y="137.488" stroke-width="0" width="45.303" height="226.506"/>
	<rect id="BRS-B305" x="138.453" y="406.611" stroke-width="0" width="127.99" height="52.762"/>
	<rect id="BRS-B304" x="270.97" y="406.611" stroke-width="0" width="117.782" height="52.762"/>
	<rect id="BRS-DS" x="392.779" y="406.609" stroke-width="0" width="29.203" height="52.762"/>
	<rect id="BRS-B303" x="425.125" y="406.609" stroke-width="0" width="36.402" height="52.762"/>
	<rect id="BRS-B302" x="464.438" y="406.609" stroke-width="0" width="66.783" height="52.762"/>
	<rect id="BRS-B301" x="535.273" y="406.609" stroke-width="0" width="62.727" height="52.762"/>
	<path id="BRS-B300" stroke-width="0" d="M602.381,402.771v-23.033h47.082v23.033c0,0,3.418,56.893-47.121,56.893L602.381,402.771z"/>
	<rect id="PDK-P205" x="197.015" y="379.738" stroke-width="0" width="49.91" height="23.033"/>
	<rect id="PDK-P204" x="250.031" y="379.738" stroke-width="0" width="62.498" height="23.033"/>
	<rect id="PDK-P203" x="316.181" y="379.738" stroke-width="0" width="124.153" height="23.033"/>
	<rect id="PDK-P202" x="443.256" y="379.738" stroke-width="0" width="44.43" height="23.033"/>
	<rect id="PDK-P201" x="490.654" y="379.738" stroke-width="0" width="32.355" height="23.033"/>
	<rect id="PDK-P200" x="558.26" y="379.738" stroke-width="0" width="39.582" height="23.033"/>
	<rect id="ERS-E100" x="602.326" y="49.292" stroke-width="0" width="41.572" height="313.562"/>
	<rect id="NRS-N508" x="574.211" y="49.355" stroke-width="0" width="23.463" height="72.378"/>
	<rect id="NRS-N507" x="516.623" y="49.355" stroke-width="0" width="53.746" height="72.378"/>
	<rect id="NRS-N506" x="459.035" y="49.355" stroke-width="0" width="53.748" height="72.378"/>
	<rect id="NRS-N505" x="401.447" y="49.355" stroke-width="0" width="53.748" height="72.378"/>
	<rect id="NRS-N504" x="343.863" y="49.355" stroke-width="0" width="53.745" height="48.594"/>
	<rect id="NRS-N503" x="286.275" y="49.355" stroke-width="0" width="53.748" height="72.378"/>
	<rect id="NRS-N502" x="228.689" y="49.355" stroke-width="0" width="53.746" height="72.378"/>
	<rect id="NRS-N501" x="171.101" y="49.355" stroke-width="0" width="53.748" height="72.378"/>
	<rect id="NRS-N500" x="132.71" y="49.355" stroke-width="0" width="34.662" height="72.378"/>
</g>
<g id="LABELS">
	<text fid="BKR-A405" transform="matrix(1 0 0 1 62.1426 157.728)" fill="#FFFFFF" font-family="'Arial'" font-size="10">A405</text>
	<text fid="BKR-A404" transform="matrix(1 0 0 1 62.1426 202.6387)" fill="#FFFFFF" font-family="'Arial'" font-size="10">A404</text>
	<text fid="BKR-A403" transform="matrix(1 0 0 1 62.1426 253.4092)" fill="#FFFFFF" font-family="'Arial'" font-size="10">A403</text>
	<text fid="BKR-A402" transform="matrix(1 0 0 1 62.1426 304.1777)" fill="#FFFFFF" font-family="'Arial'" font-size="10">A402</text>
	<text fid="BKR-A401" transform="matrix(1 0 0 1 62.1348 350.3721)" fill="#FFFFFF" font-family="'Arial'" font-size="10">A401</text>
	<text fid="BKR-A400" transform="matrix(4.489659e-011 -1 1 4.489659e-011 118.0972 301.2969)" fill="#FFFFFF" font-family="'Arial'" font-size="10">AWAY SUPPORTERS</text>
	<text fid="BRS-B305" transform="matrix(1 0 0 1 190.7705 435.6602)" fill="#FFFFFF" font-family="'Arial'" font-size="10">B305</text>
	<text fid="BRS-B304" transform="matrix(1 0 0 1 318.1836 435.6602)" fill="#FFFFFF" font-family="'Arial'" font-size="10">B304</text>
	<text fid="BRS-DS" transform="matrix(1 0 0 1 400.4355 435.6572)" fill="#FFFFFF" font-family="'Arial'" font-size="10">DS</text>
	<text fid="BRS-B303" transform="matrix(1 0 0 1 431.6484 435.6582)" fill="#FFFFFF" font-family="'Arial'" font-size="10">B303</text>
	<text fid="BRS-B302" transform="matrix(1 0 0 1 486.1523 435.6582)" fill="#FFFFFF" font-family="'Arial'" font-size="10">B302</text>
	<text fid="BRS-B301" transform="matrix(1 0 0 1 554.959 435.6582)" fill="#FFFFFF" font-family="'Arial'" font-size="10">B301</text>
	<text fid="BRS-B300" transform="matrix(1 0 0 1 614.25 422.3691)" fill="#FFFFFF" font-family="'Arial'" font-size="10">B300</text>
	<text fid="PDK-P205" transform="matrix(1 0 0 1 210.293 393.9219)" fill="#FFFFFF" font-family="'Arial'" font-size="10">P205</text>
	<text fid="PDK-P204" transform="matrix(1 0 0 1 269.6025 393.9219)" fill="#FFFFFF" font-family="'Arial'" font-size="10">P204</text>
	<text fid="PDK-P203" transform="matrix(1 0 0 1 366.5801 393.9219)" fill="#FFFFFF" font-family="'Arial'" font-size="10">P203</text>
	<text fid="PDK-P202" transform="matrix(1 0 0 1 453.793 394.1895)" fill="#FFFFFF" font-family="'Arial'" font-size="10">P202</text>
	<text fid="PDK-P201" transform="matrix(1 0 0 1 495.1543 393.9219)" fill="#FFFFFF" font-family="'Arial'" font-size="10">P201</text>
	<text fid="PDK-P200" transform="matrix(1 0 0 1 566.373 393.9219)" fill="#FFFFFF" font-family="'Arial'" font-size="10">P200</text>
	<text fid="ERS-E100" transform="matrix(1 0 0 1 611.4355 208.7402)" fill="#FFFFFF" font-family="'Arial'" font-size="10">E100</text>
	<text fid="NRS-N508" transform="matrix(1 0 0 1 573.9902 88.2119)" fill="#FFFFFF" font-family="'Arial'" font-size="10">N508</text>
	<text fid="NRS-N507" transform="matrix(1 0 0 1 531.543 88.2119)" fill="#FFFFFF" font-family="'Arial'" font-size="10">N507</text>
	<text fid="NRS-N506" transform="matrix(1 0 0 1 473.9551 88.2119)" fill="#FFFFFF" font-family="'Arial'" font-size="10">N506</text>
	<text fid="NRS-N505" transform="matrix(1 0 0 1 416.3672 88.2119)" fill="#FFFFFF" font-family="'Arial'" font-size="10">N505</text>
	<text fid="NRS-N504" transform="matrix(1 0 0 1 358.7813 76.3193)" fill="#FFFFFF" font-family="'Arial'" font-size="10">N504</text>
	<text fid="NRS-N503" transform="matrix(1 0 0 1 301.1958 88.2119)" fill="#FFFFFF" font-family="'Arial'" font-size="10">N503</text>
	<text fid="NRS-N502" transform="matrix(1 0 0 1 243.6089 88.2119)" fill="#FFFFFF" font-family="'Arial'" font-size="10">N502</text>
	<text fid="NRS-N501" transform="matrix(1 0 0 1 186.022 88.2119)" fill="#FFFFFF" font-family="'Arial'" font-size="10">N501</text>
	<text fid="NRS-N500" transform="matrix(1 0 0 1 138.0884 88.2119)" fill="#FFFFFF" font-family="'Arial'" font-size="10">N500</text>
</g>
</svg>
