<svg>
<g id="AREAS">
	<rect id="EU-7" x="2.073" y="126.5" stroke-width="0" width="87.144" height="30.286"/>
	<rect id="EU-6" x="2.073" y="160.785" stroke-width="0" width="87.144" height="30.286"/>
	<rect id="EU-5" x="2.073" y="195.071" stroke-width="0" width="87.144" height="30.286"/>
	<rect id="EU-4" x="2.073" y="229.356" stroke-width="0" width="87.144" height="30.286"/>
	<rect id="EU-3" x="2.073" y="263.642" stroke-width="0" width="87.144" height="30.287"/>
	<rect id="EU-2" x="2.073" y="297.929" stroke-width="0" width="87.144" height="30.285"/>
	<rect id="EU-1" x="2.073" y="332.214" stroke-width="0" width="87.144" height="30.285"/>
	<rect id="EL-7" x="93.217" y="126.5" stroke-width="0" width="54.855" height="30.286"/>
	<rect id="EL-6" x="93.217" y="160.785" stroke-width="0" width="54.855" height="30.286"/>
	<rect id="EL-5" x="93.217" y="195.071" stroke-width="0" width="54.855" height="30.286"/>
	<rect id="EL-4" x="93.217" y="229.356" stroke-width="0" width="54.855" height="30.286"/>
	<rect id="EL-3" x="93.217" y="263.642" stroke-width="0" width="54.855" height="30.287"/>
	<rect id="EL-2" x="93.217" y="297.929" stroke-width="0" width="54.855" height="30.285"/>
	<rect id="EL-1" x="93.217" y="332.214" stroke-width="0" width="54.855" height="30.285"/>
	<rect id="NU-9" x="164.243" y="444.654" stroke-width="0" width="37.295" height="88.912"/>
	<rect id="NU-8" x="205.538" y="444.654" stroke-width="0" width="37.296" height="88.912"/>
	<rect id="NU-7" x="246.834" y="444.654" stroke-width="0" width="37.295" height="88.912"/>
	<rect id="NU-6" x="288.129" y="444.654" stroke-width="0" width="37.295" height="88.912"/>
	<rect id="NU-5" x="329.424" y="444.654" stroke-width="0" width="37.295" height="88.912"/>
	<rect id="NU-4" x="370.719" y="444.654" stroke-width="0" width="37.295" height="88.912"/>
	<rect id="NU-3" x="412.014" y="444.654" stroke-width="0" width="37.296" height="88.912"/>
	<rect id="NU-2" x="453.31" y="444.654" stroke-width="0" width="37.295" height="88.912"/>
	<rect id="NU-1" x="494.604" y="444.654" stroke-width="0" width="37.295" height="88.912"/>
	<rect id="NL-9" x="164.243" y="388.342" stroke-width="0" width="37.295" height="52.313"/>
	<rect id="NL-8" x="205.538" y="388.342" stroke-width="0" width="37.296" height="52.313"/>
	<rect id="NL-7" x="246.834" y="388.342" stroke-width="0" width="37.295" height="52.313"/>
	<rect id="NL-6" x="288.129" y="388.342" stroke-width="0" width="37.295" height="52.313"/>
	<rect id="NL-5" x="329.424" y="388.342" stroke-width="0" width="37.295" height="52.313"/>
	<rect id="NL-4" x="370.719" y="388.342" stroke-width="0" width="37.295" height="52.313"/>
	<rect id="NL-3" x="412.014" y="388.342" stroke-width="0" width="37.296" height="52.313"/>
	<rect id="NL-2" x="453.31" y="388.342" stroke-width="0" width="37.295" height="52.313"/>
	<rect id="NL-1" x="494.604" y="388.342" stroke-width="0" width="37.295" height="52.313"/>
	<rect id="WS-24" x="610.69" y="336.887" stroke-width="0" width="27.311" height="26"/>
	<rect id="WS-16" x="579.38" y="336.887" stroke-width="0" width="27.311" height="26"/>
	<rect id="WS-8" x="548.07" y="336.887" stroke-width="0" width="27.311" height="26"/>
	<rect id="WS-23" x="595.034" y="306.887" stroke-width="0" width="42.966" height="26"/>
	<rect id="WS-15" x="548.07" y="306.887" stroke-width="0" width="42.965" height="26"/>
	<rect id="WS-22" x="610.69" y="276.887" stroke-width="0" width="27.311" height="26"/>
	<rect id="WS-14" x="579.38" y="276.887" stroke-width="0" width="27.311" height="26"/>
	<rect id="WS-7" x="548.07" y="276.887" stroke-width="0" width="27.311" height="26"/>
	<rect id="WS-21" x="610.69" y="246.887" stroke-width="0" width="27.311" height="26"/>
	<rect id="WS-13" x="579.38" y="246.887" stroke-width="0" width="27.311" height="26"/>
	<rect id="WS-20" x="610.69" y="216.888" stroke-width="0" width="27.311" height="25.999"/>
	<rect id="WS-12" x="579.38" y="216.888" stroke-width="0" width="27.311" height="25.999"/>
	<rect id="WS-5" x="548.07" y="216.888" stroke-width="0" width="27.311" height="25.999"/>
	<rect id="WS-19" x="618.518" y="186.888" stroke-width="0" width="19.482" height="26"/>
	<rect id="WS-11" x="595.034" y="186.888" stroke-width="0" width="19.482" height="26"/>
	<rect id="WS-4" x="571.553" y="186.888" stroke-width="0" width="19.481" height="26"/>
	<rect id="WS-3" x="548.07" y="186.888" stroke-width="0" width="19.482" height="26"/>
	<rect id="WS-18" x="610.69" y="156.888" stroke-width="0" width="27.311" height="26"/>
	<rect id="WS-10" x="579.38" y="156.888" stroke-width="0" width="27.311" height="26"/>
	<rect id="WS-2" x="548.07" y="156.888" stroke-width="0" width="27.311" height="26"/>
	<rect id="WS-17" x="610.69" y="126.888" stroke-width="0" width="27.311" height="26"/>
	<rect id="WS-9" x="579.38" y="126.888" stroke-width="0" width="27.311" height="26"/>
	<rect id="WS-1" x="548.07" y="126.888" stroke-width="0" width="27.311" height="26"/>
	<rect id="BL-6" x="482.806" y="1.433" stroke-width="0" width="49.094" height="100"/>
	<rect id="BL-5" x="429.712" y="1.433" stroke-width="0" width="49.094" height="100"/>
	<rect id="BL-4" x="376.617" y="1.433" stroke-width="0" width="49.095" height="100"/>
	<rect id="BL-BDB" x="323.524" y="1.433" stroke-width="0" width="49.094" height="48"/>
	<rect id="BL-BLD" x="323.524" y="53.433" stroke-width="0" width="49.094" height="48"/>
	<rect id="BL-3" x="270.431" y="1.433" stroke-width="0" width="49.094" height="48"/>
	<rect id="BL-100" x="270.431" y="53.433" stroke-width="0" width="49.094" height="48"/>
	<rect id="BL-2" x="217.337" y="1.433" stroke-width="0" width="49.094" height="100"/>
	<rect id="BL-1" x="164.243" y="1.433" stroke-width="0" width="49.094" height="100"/>
	<rect id="WS-6" x="548.07" y="246.887" stroke-width="0" width="27.311" height="11"/>
	<rect id="WS-6B" x="548.07" y="261.887" stroke-width="0" width="27.311" height="11"/>
</g>
<g id="PITCH">
	<rect x="177.001" y="142.245" fill="#029547" width="342.139" height="205.284"/>
	<rect x="177.001" y="142.245" fill="#046938" width="31.104" height="205.284"/>
	<rect x="239.21" y="142.245" fill="#046938" width="31.104" height="205.284"/>
	<rect x="301.415" y="142.245" fill="#046938" width="31.104" height="205.284"/>
	<rect x="363.621" y="142.245" fill="#046938" width="31.104" height="205.284"/>
	<rect x="425.829" y="142.245" fill="#046938" width="31.104" height="205.284"/>
	<rect x="488.036" y="142.245" fill="#046938" width="31.104" height="205.284"/>
	<rect x="190.687" y="155.93" fill="none" stroke="#FFFFFF" width="314.769" height="177.914"/>
	<line fill="none" stroke="#FFFFFF" x1="348.07" y1="155.931" x2="348.07" y2="333.844"/>
	<path fill="none" stroke="#FFFFFF" d="M348.07,285.943c-22.676,0-41.057-18.382-41.057-41.057
		c0-22.677,18.381-41.059,41.057-41.059"/>
	<path fill="none" stroke="#FFFFFF" d="M348.07,203.83c22.677,0,41.061,18.382,41.061,41.058
		c0,22.674-18.384,41.055-41.061,41.055"/>
	<rect x="190.687" y="203.83" fill="none" stroke="#FFFFFF" width="41.058" height="82.113"/>
	<rect x="190.687" y="217.516" fill="none" stroke="#FFFFFF" width="20.528" height="54.742"/>
	<path fill="none" stroke="#FFFFFF" d="M252.272,244.888c0-12.75-8.729-23.432-20.528-26.474v52.945
		C243.542,268.316,252.272,257.636,252.272,244.888z"/>
	<rect x="464.401" y="203.83" fill="none" stroke="#FFFFFF" width="41.054" height="82.113"/>
	<rect x="484.929" y="217.516" fill="none" stroke="#FFFFFF" width="20.525" height="54.742"/>
	<path fill="none" stroke="#FFFFFF" d="M443.869,244.888c0-12.75,8.732-23.432,20.531-26.474v52.945
		C452.603,268.316,443.869,257.636,443.869,244.888z"/>
</g>
<g id="LABELS">
	<text fid="BL-1" transform="matrix(1 0 0 1 185.3591 51.9482)" fill="#FFFFFF" font-family="'Arial'" font-size="12">1</text>
	<text fid="BL-2" transform="matrix(1 0 0 1 238.4529 51.9482)" fill="#FFFFFF" font-family="'Arial'" font-size="12">2</text>
	<text fid="BL-100" transform="matrix(1 0 0 1 284.6853 77.9482)" fill="#FFFFFF" font-family="'Arial'" font-size="12">100</text>
	<text fid="BL-3" transform="matrix(1 0 0 1 291.5466 25.9482)" fill="#FFFFFF" font-family="'Arial'" font-size="12">3</text>
	<text fid="BL-BLD" transform="matrix(1 0 0 1 336.6956 77.9482)" fill="#FFFFFF" font-family="'Arial'" font-size="12">BLD</text>
	<text fid="BL-BDB" transform="matrix(1 0 0 1 335.9221 25.9482)" fill="#FFFFFF" font-family="'Arial'" font-size="12">BDB</text>
	<text fid="BL-4" transform="matrix(1 0 0 1 397.7346 51.9482)" fill="#FFFFFF" font-family="'Arial'" font-size="12">4</text>
	<text fid="BL-5" transform="matrix(1 0 0 1 450.8284 51.9482)" fill="#FFFFFF" font-family="'Arial'" font-size="12">5</text>
	<text fid="BL-6" transform="matrix(1 0 0 1 503.9221 51.9482)" fill="#FFFFFF" font-family="'Arial'" font-size="12">6</text>
	<text fid="WS-1" transform="matrix(1 0 0 1 558.2952 140.4033)" fill="#FFFFFF" font-family="'Arial'" font-size="12">1</text>
	<text fid="WS-9" transform="matrix(1 0 0 1 589.6038 140.4033)" fill="#FFFFFF" font-family="'Arial'" font-size="12">9</text>
	<text fid="WS-17" transform="matrix(1 0 0 1 617.4827 140.4033)" fill="#FFFFFF" font-family="'Arial'" font-size="12">17</text>
	<text fid="WS-2" transform="matrix(1 0 0 1 558.2932 170.4033)" fill="#FFFFFF" font-family="'Arial'" font-size="12">2</text>
	<text fid="WS-10" transform="matrix(1 0 0 1 586.1741 170.4033)" fill="#FFFFFF" font-family="'Arial'" font-size="12">10</text>
	<text fid="WS-18" transform="matrix(1 0 0 1 617.4827 170.4033)" fill="#FFFFFF" font-family="'Arial'" font-size="12">18</text>
	<text fid="WS-3" transform="matrix(1 0 0 1 554.3811 200.4033)" fill="#FFFFFF" font-family="'Arial'" font-size="12">3</text>
	<text fid="WS-4" transform="matrix(1 0 0 1 577.8635 200.4033)" fill="#FFFFFF" font-family="'Arial'" font-size="12">4</text>
	<text fid="WS-11" transform="matrix(1 0 0 1 597.9163 200.4033)" fill="#FFFFFF" font-family="'Arial'" font-size="12">11</text>
	<text fid="WS-19" transform="matrix(1 0 0 1 621.3967 200.4033)" fill="#FFFFFF" font-family="'Arial'" font-size="12">19</text>
	<text fid="WS-5" transform="matrix(1 0 0 1 558.2932 230.4033)" fill="#FFFFFF" font-family="'Arial'" font-size="12">5</text>
	<text fid="WS-12" transform="matrix(1 0 0 1 586.1741 230.4033)" fill="#FFFFFF" font-family="'Arial'" font-size="12">12</text>
	<text fid="WS-20" transform="matrix(1 0 0 1 617.4846 230.4033)" fill="#FFFFFF" font-family="'Arial'" font-size="12">20</text>
	<text fid="WS-6" transform="matrix(1 0 0 1 558.2952 252.9023)" fill="#FFFFFF" font-family="'Arial'" font-size="12">6</text>
	<text fid="WS-6B" transform="matrix(1 0 0 1 554.4963 267.9023)" fill="#FFFFFF" font-family="'Arial'" font-size="12">6B</text>
	<text fid="WS-13" transform="matrix(1 0 0 1 586.1741 260.4023)" fill="#FFFFFF" font-family="'Arial'" font-size="12">13</text>
	<text fid="WS-21" transform="matrix(1 0 0 1 617.4827 260.4023)" fill="#FFFFFF" font-family="'Arial'" font-size="12">21</text>
	<text fid="WS-7" transform="matrix(1 0 0 1 558.2932 290.4014)" fill="#FFFFFF" font-family="'Arial'" font-size="12">7</text>
	<text fid="WS-14" transform="matrix(1 0 0 1 586.1741 290.4014)" fill="#FFFFFF" font-family="'Arial'" font-size="12">14</text>
	<text fid="WS-22" transform="matrix(1 0 0 1 617.4827 290.4014)" fill="#FFFFFF" font-family="'Arial'" font-size="12">22</text>
	<text fid="WS-15" transform="matrix(1 0 0 1 562.6917 320.4033)" fill="#FFFFFF" font-family="'Arial'" font-size="12">15</text>
	<text fid="WS-23" transform="matrix(1 0 0 1 609.6565 320.4033)" fill="#FFFFFF" font-family="'Arial'" font-size="12">23</text>
	<text fid="WS-8" transform="matrix(1 0 0 1 558.2932 350.4014)" fill="#FFFFFF" font-family="'Arial'" font-size="12">8</text>
	<text fid="WS-16" transform="matrix(1 0 0 1 586.1741 350.4014)" fill="#FFFFFF" font-family="'Arial'" font-size="12">16</text>
	<text fid="WS-24" transform="matrix(1 0 0 1 617.4827 350.4033)" fill="#FFFFFF" font-family="'Arial'" font-size="12">24</text>
	<text fid="NL-1" transform="matrix(1 0 0 1 509.8206 415.0127)" fill="#FFFFFF" font-family="'Arial'" font-size="12">1</text>
	<text fid="NL-2" transform="matrix(1 0 0 1 468.5256 415.0127)" fill="#FFFFFF" font-family="'Arial'" font-size="12">2</text>
	<text fid="NL-3" transform="matrix(1 0 0 1 427.2307 415.0127)" fill="#FFFFFF" font-family="'Arial'" font-size="12">3</text>
	<text fid="NL-4" transform="matrix(1 0 0 1 385.9358 415.0127)" fill="#FFFFFF" font-family="'Arial'" font-size="12">4</text>
	<text fid="NL-5" transform="matrix(1 0 0 1 344.6409 415.0127)" fill="#FFFFFF" font-family="'Arial'" font-size="12">5</text>
	<text fid="NL-6" transform="matrix(1 0 0 1 303.3455 415.0127)" fill="#FFFFFF" font-family="'Arial'" font-size="12">6</text>
	<text fid="NL-7" transform="matrix(1 0 0 1 262.0505 415.0127)" fill="#FFFFFF" font-family="'Arial'" font-size="12">7</text>
	<text fid="NL-8" transform="matrix(1 0 0 1 220.7551 415.0127)" fill="#FFFFFF" font-family="'Arial'" font-size="12">8</text>
	<text fid="NL-9" transform="matrix(1 0 0 1 179.4597 415.0127)" fill="#FFFFFF" font-family="'Arial'" font-size="12">9</text>
	<text fid="NU-1" transform="matrix(1 0 0 1 509.8206 489.626)" fill="#FFFFFF" font-family="'Arial'" font-size="12">1</text>
	<text fid="NU-2" transform="matrix(1 0 0 1 468.5256 489.626)" fill="#FFFFFF" font-family="'Arial'" font-size="12">2</text>
	<text fid="NU-3" transform="matrix(1 0 0 1 427.2307 489.626)" fill="#FFFFFF" font-family="'Arial'" font-size="12">3</text>
	<text fid="NU-4" transform="matrix(1 0 0 1 385.9358 489.626)" fill="#FFFFFF" font-family="'Arial'" font-size="12">4</text>
	<text fid="NU-5" transform="matrix(1 0 0 1 344.6409 489.626)" fill="#FFFFFF" font-family="'Arial'" font-size="12">5</text>
	<text fid="NU-6" transform="matrix(1 0 0 1 303.3455 489.626)" fill="#FFFFFF" font-family="'Arial'" font-size="12">6</text>
	<text fid="NU-7" transform="matrix(1 0 0 1 262.0505 489.626)" fill="#FFFFFF" font-family="'Arial'" font-size="12">7</text>
	<text fid="NU-8" transform="matrix(1 0 0 1 220.7551 489.626)" fill="#FFFFFF" font-family="'Arial'" font-size="12">8</text>
	<text fid="NU-9" transform="matrix(1 0 0 1 179.4597 489.626)" fill="#FFFFFF" font-family="'Arial'" font-size="12">9</text>
	<text fid="EL-1" transform="matrix(1 0 0 1 117.2136 347.8721)" fill="#FFFFFF" font-family="'Arial'" font-size="12">1</text>
	<text fid="EL-2" transform="matrix(1 0 0 1 117.2136 313.5869)" fill="#FFFFFF" font-family="'Arial'" font-size="12">2</text>
	<text fid="EL-3" transform="matrix(1 0 0 1 117.2136 279.3018)" fill="#FFFFFF" font-family="'Arial'" font-size="12">3</text>
	<text fid="EL-4" transform="matrix(1 0 0 1 117.2136 245.0146)" fill="#FFFFFF" font-family="'Arial'" font-size="12">4</text>
	<text fid="EL-5" transform="matrix(1 0 0 1 117.2136 210.7295)" fill="#FFFFFF" font-family="'Arial'" font-size="12">5</text>
	<text fid="EL-6" transform="matrix(1 0 0 1 117.2136 176.4434)" fill="#FFFFFF" font-family="'Arial'" font-size="12">6</text>
	<text fid="EL-7" transform="matrix(1 0 0 1 117.2136 142.1582)" fill="#FFFFFF" font-family="'Arial'" font-size="12">7</text>
	<text fid="EU-1" transform="matrix(1 0 0 1 42.2136 347.8721)" fill="#FFFFFF" font-family="'Arial'" font-size="12">1</text>
	<text fid="EU-2" transform="matrix(1 0 0 1 42.2136 313.5869)" fill="#FFFFFF" font-family="'Arial'" font-size="12">2</text>
	<text fid="EU-3" transform="matrix(1 0 0 1 42.2136 279.3008)" fill="#FFFFFF" font-family="'Arial'" font-size="12">3</text>
	<text fid="EU-4" transform="matrix(1 0 0 1 42.2136 245.0146)" fill="#FFFFFF" font-family="'Arial'" font-size="12">4</text>
	<text fid="EU-5" transform="matrix(1 0 0 1 42.2136 210.7295)" fill="#FFFFFF" font-family="'Arial'" font-size="12">5</text>
	<text fid="EU-6" transform="matrix(1 0 0 1 42.2136 176.4434)" fill="#FFFFFF" font-family="'Arial'" font-size="12">6</text>
	<text fid="EU-7" transform="matrix(1 0 0 1 42.2136 142.1582)" fill="#FFFFFF" font-family="'Arial'" font-size="12">7</text>
</g>
<g id="EXTRA">
	<g>
		<path fill="#333333" d="M290.246,115.946h2.823c1.326,0,2.286,0.198,2.878,0.595s0.889,1.023,0.889,1.88
			c0,0.592-0.165,1.081-0.496,1.466s-0.813,0.635-1.446,0.749v0.068c1.518,0.26,2.276,1.057,2.276,2.393
			c0,0.893-0.302,1.59-0.906,2.092s-1.448,0.752-2.533,0.752h-3.486V115.946z M291.408,120.226h1.914
			c0.82,0,1.411-0.129,1.771-0.386s0.54-0.691,0.54-1.302c0-0.561-0.201-0.965-0.602-1.213s-1.039-0.373-1.914-0.373h-1.709V120.226
			z M291.408,121.21v3.739h2.085c0.807,0,1.414-0.156,1.822-0.468s0.612-0.801,0.612-1.466c0-0.62-0.208-1.076-0.625-1.367
			s-1.052-0.438-1.904-0.438H291.408z"/>
		<path fill="#333333" d="M307.992,120.93c0,1.6-0.404,2.857-1.213,3.773s-1.934,1.374-3.374,1.374c-1.472,0-2.608-0.45-3.408-1.35
			s-1.2-2.17-1.2-3.811c0-1.627,0.401-2.888,1.203-3.784s1.941-1.343,3.418-1.343c1.436,0,2.557,0.456,3.363,1.367
			S307.992,119.326,307.992,120.93z M300.028,120.93c0,1.354,0.288,2.38,0.865,3.08s1.414,1.049,2.512,1.049
			c1.107,0,1.944-0.349,2.509-1.046s0.848-1.725,0.848-3.083c0-1.344-0.281-2.364-0.844-3.059s-1.396-1.042-2.499-1.042
			c-1.107,0-1.949,0.35-2.526,1.049S300.028,119.594,300.028,120.93z"/>
		<path fill="#333333" d="M310.221,115.946h2.823c1.326,0,2.286,0.198,2.878,0.595s0.889,1.023,0.889,1.88
			c0,0.592-0.165,1.081-0.496,1.466s-0.813,0.635-1.446,0.749v0.068c1.518,0.26,2.276,1.057,2.276,2.393
			c0,0.893-0.302,1.59-0.906,2.092s-1.448,0.752-2.533,0.752h-3.486V115.946z M311.383,120.226h1.914
			c0.82,0,1.411-0.129,1.771-0.386s0.54-0.691,0.54-1.302c0-0.561-0.201-0.965-0.602-1.213s-1.039-0.373-1.914-0.373h-1.709V120.226
			z M311.383,121.21v3.739h2.085c0.807,0,1.414-0.156,1.822-0.468s0.612-0.801,0.612-1.466c0-0.62-0.208-1.076-0.625-1.367
			s-1.052-0.438-1.904-0.438H311.383z"/>
		<path fill="#333333" d="M322.929,125.94v-9.994h1.162v8.941h4.409v1.053H322.929z"/>
		<path fill="#333333" d="M338.87,120.93c0,1.6-0.404,2.857-1.214,3.773c-0.809,0.916-1.934,1.374-3.373,1.374
			c-1.473,0-2.607-0.45-3.408-1.35c-0.799-0.9-1.199-2.17-1.199-3.811c0-1.627,0.4-2.888,1.203-3.784s1.941-1.343,3.418-1.343
			c1.436,0,2.557,0.456,3.363,1.367S338.87,119.326,338.87,120.93z M330.906,120.93c0,1.354,0.288,2.38,0.865,3.08
			c0.576,0.7,1.414,1.049,2.512,1.049c1.107,0,1.943-0.349,2.509-1.046s0.848-1.725,0.848-3.083c0-1.344-0.281-2.364-0.845-3.059
			c-0.563-0.695-1.395-1.042-2.498-1.042c-1.107,0-1.949,0.35-2.525,1.049C331.194,118.577,330.906,119.594,330.906,120.93z"/>
		<path fill="#333333" d="M342.261,121.784v4.156h-1.162v-9.994h2.741c1.227,0,2.132,0.235,2.717,0.704
			c0.586,0.469,0.879,1.176,0.879,2.119c0,1.322-0.67,2.215-2.01,2.68l2.714,4.491h-1.374l-2.42-4.156H342.261z M342.261,120.786
			h1.593c0.82,0,1.422-0.163,1.805-0.489s0.574-0.814,0.574-1.466c0-0.661-0.195-1.137-0.584-1.429
			c-0.391-0.292-1.016-0.438-1.877-0.438h-1.511V120.786z"/>
		<path fill="#333333" d="M357.73,120.848c0,1.65-0.447,2.911-1.344,3.784c-0.895,0.873-2.184,1.309-3.865,1.309h-2.769v-9.994
			h3.063c1.554,0,2.762,0.431,3.623,1.292S357.73,119.303,357.73,120.848z M356.5,120.889c0-1.303-0.327-2.286-0.98-2.946
			c-0.654-0.661-1.627-0.991-2.916-0.991h-1.688v7.984h1.415c1.385,0,2.427-0.341,3.124-1.022S356.5,122.224,356.5,120.889z"/>
		<path fill="#333333" d="M369.235,123.281c0,0.879-0.319,1.565-0.957,2.058s-1.504,0.738-2.598,0.738
			c-1.185,0-2.097-0.153-2.734-0.458v-1.121c0.41,0.173,0.856,0.31,1.34,0.41s0.962,0.15,1.436,0.15c0.774,0,1.358-0.147,1.75-0.441
			s0.588-0.703,0.588-1.227c0-0.346-0.069-0.63-0.208-0.851c-0.14-0.221-0.372-0.425-0.697-0.612
			c-0.326-0.187-0.822-0.399-1.487-0.636c-0.93-0.333-1.594-0.727-1.993-1.183c-0.398-0.456-0.598-1.05-0.598-1.784
			c0-0.77,0.289-1.383,0.868-1.839s1.345-0.684,2.297-0.684c0.993,0,1.907,0.182,2.741,0.547l-0.362,1.012
			c-0.825-0.346-1.627-0.52-2.406-0.52c-0.615,0-1.097,0.132-1.442,0.396s-0.52,0.631-0.52,1.101c0,0.346,0.064,0.63,0.191,0.851
			s0.343,0.424,0.646,0.608c0.303,0.185,0.766,0.389,1.391,0.612c1.049,0.374,1.77,0.775,2.164,1.203
			C369.038,122.042,369.235,122.598,369.235,123.281z"/>
		<path fill="#333333" d="M374.355,125.94h-1.162v-8.962h-3.165v-1.032h7.492v1.032h-3.165V125.94z"/>
		<path fill="#333333" d="M385.307,125.94l-1.244-3.179h-4.006l-1.23,3.179h-1.176l3.951-10.035h0.978l3.931,10.035H385.307z
			 M383.7,121.716l-1.162-3.097c-0.15-0.392-0.306-0.873-0.465-1.442c-0.101,0.438-0.243,0.918-0.431,1.442l-1.176,3.097H383.7z"/>
		<path fill="#333333" d="M395.69,125.94h-1.326l-5.462-8.388h-0.055c0.072,0.984,0.109,1.887,0.109,2.707v5.681h-1.073v-9.994
			h1.313l5.448,8.354h0.055c-0.01-0.123-0.029-0.519-0.062-1.186s-0.044-1.145-0.034-1.432v-5.735h1.087V125.94z"/>
		<path fill="#333333" d="M406.416,120.848c0,1.65-0.447,2.911-1.344,3.784c-0.895,0.873-2.184,1.309-3.865,1.309h-2.769v-9.994
			h3.063c1.554,0,2.762,0.431,3.623,1.292S406.416,119.303,406.416,120.848z M405.186,120.889c0-1.303-0.327-2.286-0.98-2.946
			c-0.654-0.661-1.627-0.991-2.916-0.991h-1.688v7.984h1.415c1.385,0,2.427-0.341,3.124-1.022S405.186,122.224,405.186,120.889z"/>
	</g>
	<g>
		<path fill="#333333" d="M282.795,374.669c-0.428,0-0.766-0.063-1.012-0.186v-0.99c0.324,0.091,0.661,0.137,1.012,0.137
			c0.451,0,0.794-0.137,1.029-0.41s0.352-0.668,0.352-1.184v-9.994h1.162v9.898c0,0.866-0.219,1.537-0.656,2.014
			S283.615,374.669,282.795,374.669z"/>
		<path fill="#333333" d="M294.272,372.036l-1.244-3.178h-4.006l-1.23,3.178h-1.176l3.951-10.035h0.978l3.931,10.035H294.272z
			 M292.666,367.812l-1.162-3.096c-0.15-0.393-0.305-0.873-0.465-1.443c-0.1,0.438-0.244,0.919-0.431,1.443l-1.176,3.096H292.666z"
			/>
		<path fill="#333333" d="M301.272,372.036l-3.391-8.859h-0.055c0.064,0.702,0.096,1.536,0.096,2.502v6.357h-1.073v-9.994h1.75
			l3.165,8.244h0.055l3.192-8.244h1.736v9.994h-1.162v-6.439c0-0.738,0.032-1.54,0.096-2.406h-0.055l-3.418,8.846H301.272z"/>
		<path fill="#333333" d="M315.061,372.036h-5.571v-9.994h5.571v1.033h-4.409v3.219h4.143v1.025h-4.143v3.678h4.409V372.036z"/>
		<path fill="#333333" d="M322.915,369.378c0,0.879-0.319,1.564-0.957,2.057s-1.504,0.738-2.598,0.738
			c-1.185,0-2.096-0.152-2.734-0.457v-1.121c0.41,0.173,0.857,0.31,1.34,0.41c0.483,0.1,0.961,0.15,1.436,0.15
			c0.775,0,1.358-0.147,1.75-0.441c0.392-0.294,0.588-0.703,0.588-1.227c0-0.347-0.069-0.631-0.208-0.852
			c-0.14-0.221-0.372-0.425-0.698-0.611c-0.326-0.188-0.821-0.399-1.487-0.637c-0.93-0.332-1.594-0.727-1.993-1.182
			c-0.399-0.456-0.598-1.051-0.598-1.785c0-0.77,0.29-1.383,0.868-1.838c0.579-0.456,1.344-0.684,2.297-0.684
			c0.994,0,1.907,0.182,2.741,0.547l-0.362,1.012c-0.825-0.347-1.627-0.52-2.406-0.52c-0.615,0-1.096,0.132-1.442,0.396
			c-0.346,0.264-0.52,0.631-0.52,1.1c0,0.347,0.064,0.631,0.191,0.852s0.343,0.424,0.646,0.608s0.767,0.389,1.391,0.612
			c1.049,0.373,1.77,0.774,2.164,1.203C322.718,368.138,322.915,368.694,322.915,369.378z"/>
		<path fill="#333333" d="M336.184,372.036h-1.162v-4.703h-5.264v4.703h-1.162v-9.994h1.162v4.252h5.264v-4.252h1.162V372.036z"/>
		<path fill="#333333" d="M345.207,372.036l-1.244-3.178h-4.006l-1.23,3.178h-1.176l3.951-10.035h0.978l3.931,10.035H345.207z
			 M343.601,367.812l-1.162-3.096c-0.15-0.393-0.306-0.873-0.465-1.443c-0.101,0.438-0.243,0.919-0.431,1.443l-1.176,3.096H343.601z
			"/>
		<path fill="#333333" d="M348.946,367.88v4.156h-1.162v-9.994h2.741c1.227,0,2.132,0.235,2.717,0.705
			c0.586,0.469,0.879,1.176,0.879,2.119c0,1.321-0.67,2.215-2.01,2.68l2.714,4.49h-1.374l-2.42-4.156H348.946z M348.946,366.882
			h1.593c0.82,0,1.422-0.162,1.805-0.488s0.574-0.814,0.574-1.467c0-0.66-0.195-1.137-0.584-1.428
			c-0.391-0.292-1.016-0.438-1.877-0.438h-1.511V366.882z"/>
		<path fill="#333333" d="M360.834,366.8h3.397v4.861c-0.528,0.168-1.066,0.296-1.613,0.383c-0.547,0.086-1.181,0.129-1.9,0.129
			c-1.513,0-2.69-0.449-3.534-1.35s-1.265-2.161-1.265-3.783c0-1.039,0.208-1.949,0.626-2.731c0.416-0.782,1.018-1.378,1.801-1.791
			s1.702-0.618,2.755-0.618c1.066,0,2.06,0.195,2.98,0.588l-0.451,1.025c-0.902-0.383-1.771-0.574-2.604-0.574
			c-1.217,0-2.167,0.361-2.851,1.086s-1.025,1.73-1.025,3.016c0,1.349,0.329,2.371,0.987,3.068c0.659,0.697,1.627,1.047,2.902,1.047
			c0.693,0,1.369-0.08,2.03-0.24v-3.076h-2.235V366.8z"/>
		<path fill="#333333" d="M367.793,367.88v4.156h-1.162v-9.994h2.741c1.226,0,2.132,0.235,2.718,0.705
			c0.585,0.469,0.878,1.176,0.878,2.119c0,1.321-0.67,2.215-2.01,2.68l2.714,4.49h-1.374l-2.42-4.156H367.793z M367.793,366.882
			h1.593c0.82,0,1.422-0.162,1.805-0.488s0.574-0.814,0.574-1.467c0-0.66-0.194-1.137-0.585-1.428
			c-0.389-0.292-1.015-0.438-1.876-0.438h-1.511V366.882z"/>
		<path fill="#333333" d="M380.856,372.036h-5.571v-9.994h5.571v1.033h-4.409v3.219h4.143v1.025h-4.143v3.678h4.409V372.036z"/>
		<path fill="#333333" d="M389.354,372.036l-1.244-3.178h-4.006l-1.23,3.178h-1.176l3.951-10.035h0.978l3.931,10.035H389.354z
			 M387.747,367.812l-1.162-3.096c-0.15-0.393-0.306-0.873-0.465-1.443c-0.101,0.438-0.243,0.919-0.431,1.443l-1.176,3.096H387.747z
			"/>
		<path fill="#333333" d="M397.639,362.042h1.251l-3.603,9.994h-1.148l-3.582-9.994h1.23l2.297,6.467
			c0.264,0.743,0.475,1.466,0.629,2.168c0.164-0.738,0.379-1.475,0.643-2.209L397.639,362.042z"/>
		<path fill="#333333" d="M405.835,372.036h-5.571v-9.994h5.571v1.033h-4.409v3.219h4.143v1.025h-4.143v3.678h4.409V372.036z"/>
		<path fill="#333333" d="M413.689,369.378c0,0.879-0.318,1.564-0.957,2.057s-1.504,0.738-2.598,0.738
			c-1.186,0-2.096-0.152-2.734-0.457v-1.121c0.41,0.173,0.857,0.31,1.34,0.41c0.482,0.1,0.961,0.15,1.436,0.15
			c0.775,0,1.357-0.147,1.75-0.441s0.588-0.703,0.588-1.227c0-0.347-0.069-0.631-0.209-0.852c-0.139-0.221-0.371-0.425-0.697-0.611
			c-0.325-0.188-0.82-0.399-1.486-0.637c-0.93-0.332-1.594-0.727-1.992-1.182c-0.399-0.456-0.599-1.051-0.599-1.785
			c0-0.77,0.29-1.383,0.868-1.838c0.578-0.456,1.344-0.684,2.297-0.684c0.994,0,1.907,0.182,2.741,0.547l-0.362,1.012
			c-0.824-0.347-1.627-0.52-2.406-0.52c-0.615,0-1.096,0.132-1.442,0.396c-0.347,0.264-0.52,0.631-0.52,1.1
			c0,0.347,0.063,0.631,0.191,0.852s0.343,0.424,0.646,0.608c0.304,0.185,0.768,0.389,1.392,0.612
			c1.048,0.373,1.77,0.774,2.163,1.203C413.492,368.138,413.689,368.694,413.689,369.378z"/>
	</g>
	<g>
		<path fill="#333333" d="M529.504,182.405h9.994v1.162h-8.941v4.409h-1.053V182.405z"/>
		<path fill="#333333" d="M529.504,195.954l3.179-1.244v-4.006l-3.179-1.23v-1.176l10.035,3.951v0.978l-10.035,3.931V195.954z
			 M533.729,194.348l3.097-1.162c0.392-0.15,0.872-0.305,1.442-0.465c-0.438-0.1-0.918-0.244-1.442-0.431l-3.097-1.176V194.348z"/>
		<path fill="#333333" d="M534.597,206.509c-1.649,0-2.911-0.448-3.784-1.343c-0.872-0.896-1.309-2.184-1.309-3.866v-2.769h9.994
			v3.063c0,1.554-0.431,2.762-1.292,3.623S536.142,206.509,534.597,206.509z M534.556,205.278c1.304,0,2.286-0.327,2.946-0.981
			s0.991-1.626,0.991-2.916v-1.688h-7.984v1.415c0,1.385,0.341,2.427,1.022,3.124C532.212,204.93,533.221,205.278,534.556,205.278z"
			/>
		<path fill="#333333" d="M539.498,208.737v2.823c0,1.326-0.198,2.286-0.595,2.878s-1.022,0.889-1.88,0.889
			c-0.592,0-1.081-0.165-1.467-0.496c-0.385-0.331-0.635-0.813-0.748-1.446h-0.068c-0.26,1.518-1.057,2.276-2.393,2.276
			c-0.893,0-1.59-0.302-2.092-0.906s-0.752-1.448-0.752-2.533v-3.486H539.498z M534.234,209.899h-3.739v2.085
			c0,0.807,0.156,1.414,0.468,1.822c0.313,0.408,0.801,0.612,1.467,0.612c0.619,0,1.076-0.208,1.367-0.625s0.438-1.052,0.438-1.904
			V209.899z M535.219,209.899v1.914c0,0.82,0.129,1.411,0.387,1.771c0.257,0.36,0.691,0.54,1.302,0.54
			c0.561,0,0.965-0.201,1.214-0.602c0.248-0.401,0.372-1.039,0.372-1.914v-1.709H535.219z"/>
		<path fill="#333333" d="M533.66,218.971h-4.156v-1.162h9.994v2.741c0,1.226-0.234,2.132-0.704,2.717s-1.176,0.878-2.119,0.878
			c-1.321,0-2.215-0.67-2.68-2.01l-4.491,2.714v-1.374l4.156-2.42V218.971z M534.658,218.971v1.593c0,0.82,0.163,1.422,0.488,1.805
			c0.326,0.383,0.814,0.574,1.467,0.574c0.66,0,1.137-0.195,1.429-0.584s0.438-1.015,0.438-1.876v-1.511H534.658z"/>
		<path fill="#333333" d="M534.515,235.138c-1.6,0-2.857-0.404-3.773-1.213s-1.374-1.934-1.374-3.374c0-1.472,0.45-2.608,1.35-3.408
			c0.9-0.8,2.171-1.2,3.812-1.2c1.627,0,2.888,0.401,3.784,1.203c0.895,0.802,1.343,1.941,1.343,3.418
			c0,1.436-0.456,2.557-1.367,3.363S536.119,235.138,534.515,235.138z M534.515,227.174c-1.354,0-2.38,0.288-3.079,0.865
			c-0.7,0.577-1.05,1.414-1.05,2.512c0,1.107,0.349,1.944,1.046,2.509s1.725,0.848,3.083,0.848c1.345,0,2.364-0.281,3.06-0.844
			c0.694-0.563,1.042-1.396,1.042-2.499c0-1.107-0.35-1.949-1.05-2.526C536.867,227.462,535.85,227.174,534.515,227.174z"/>
		<path fill="#333333" d="M529.504,244.585v-1.367l4.847-3.644l-0.93-1.046h-3.917v-1.162h9.994v1.162h-4.956l4.956,4.532v1.374
			l-4.341-4.02L529.504,244.585z"/>
		<path fill="#333333" d="M529.504,251.53v-5.571h9.994v5.571h-1.032v-4.409h-3.22v4.143h-1.025v-4.143h-3.678v4.409H529.504z"/>
		<path fill="#333333" d="M532.163,259.385c-0.88,0-1.565-0.319-2.058-0.957s-0.738-1.504-0.738-2.598
			c0-1.185,0.152-2.096,0.458-2.734h1.121c-0.173,0.41-0.31,0.857-0.41,1.34s-0.15,0.961-0.15,1.436c0,0.775,0.147,1.358,0.44,1.75
			c0.295,0.392,0.703,0.588,1.228,0.588c0.347,0,0.63-0.069,0.851-0.208c0.222-0.139,0.426-0.372,0.612-0.697
			s0.399-0.821,0.636-1.487c0.332-0.93,0.727-1.594,1.183-1.993s1.05-0.598,1.784-0.598c0.77,0,1.383,0.29,1.839,0.868
			s0.684,1.344,0.684,2.297c0,0.994-0.183,1.907-0.547,2.741l-1.012-0.362c0.347-0.825,0.52-1.627,0.52-2.406
			c0-0.615-0.132-1.096-0.396-1.442s-0.632-0.52-1.101-0.52c-0.346,0-0.63,0.064-0.852,0.191c-0.221,0.127-0.424,0.343-0.607,0.646
			c-0.186,0.303-0.389,0.767-0.612,1.391c-0.374,1.048-0.774,1.77-1.203,2.164S532.847,259.385,532.163,259.385z"/>
		<path fill="#333333" d="M532.163,270.705c-0.88,0-1.565-0.319-2.058-0.957s-0.738-1.504-0.738-2.598
			c0-1.185,0.152-2.096,0.458-2.734h1.121c-0.173,0.41-0.31,0.857-0.41,1.34s-0.15,0.961-0.15,1.436c0,0.775,0.147,1.358,0.44,1.75
			c0.295,0.392,0.703,0.588,1.228,0.588c0.347,0,0.63-0.069,0.851-0.208c0.222-0.139,0.426-0.372,0.612-0.697
			s0.399-0.821,0.636-1.487c0.332-0.93,0.727-1.594,1.183-1.993s1.05-0.598,1.784-0.598c0.77,0,1.383,0.29,1.839,0.868
			s0.684,1.344,0.684,2.297c0,0.994-0.183,1.907-0.547,2.741l-1.012-0.362c0.347-0.825,0.52-1.627,0.52-2.406
			c0-0.615-0.132-1.096-0.396-1.442s-0.632-0.52-1.101-0.52c-0.346,0-0.63,0.064-0.852,0.191c-0.221,0.127-0.424,0.343-0.607,0.646
			c-0.186,0.303-0.389,0.767-0.612,1.391c-0.374,1.048-0.774,1.77-1.203,2.164S532.847,270.705,532.163,270.705z"/>
		<path fill="#333333" d="M529.504,275.825v-1.162h8.962v-3.165h1.032v7.492h-1.032v-3.165H529.504z"/>
		<path fill="#333333" d="M529.504,286.776l3.179-1.244v-4.006l-3.179-1.23v-1.176l10.035,3.951v0.978l-10.035,3.931V286.776z
			 M533.729,285.17l3.097-1.162c0.392-0.15,0.872-0.305,1.442-0.465c-0.438-0.1-0.918-0.244-1.442-0.431l-3.097-1.176V285.17z"/>
		<path fill="#333333" d="M529.504,297.16v-1.326l8.388-5.462v-0.055c-0.984,0.072-1.887,0.109-2.707,0.109h-5.681v-1.073h9.994
			v1.313l-8.354,5.448v0.055c0.123-0.01,0.519-0.029,1.186-0.062c0.668-0.032,1.146-0.044,1.433-0.034h5.735v1.087H529.504z"/>
		<path fill="#333333" d="M534.597,307.886c-1.649,0-2.911-0.447-3.784-1.344c-0.872-0.895-1.309-2.184-1.309-3.865v-2.769h9.994
			v3.063c0,1.554-0.431,2.762-1.292,3.623S536.142,307.886,534.597,307.886z M534.556,306.655c1.304,0,2.286-0.327,2.946-0.98
			c0.66-0.654,0.991-1.627,0.991-2.916v-1.688h-7.984v1.415c0,1.385,0.341,2.427,1.022,3.124
			C532.212,306.307,533.221,306.655,534.556,306.655z"/>
	</g>
	<g>
		<path fill="#333333" d="M169.271,298.323c0,0.428-0.062,0.766-0.185,1.012h-0.991c0.091-0.324,0.137-0.66,0.137-1.012
			c0-0.451-0.137-0.794-0.41-1.029c-0.273-0.234-0.667-0.352-1.183-0.352h-9.994v-1.162h9.898c0.866,0,1.537,0.219,2.013,0.656
			S169.271,297.503,169.271,298.323z"/>
		<path fill="#333333" d="M166.639,293.128h-9.994v-1.162h9.994V293.128z"/>
		<path fill="#333333" d="M166.639,284.802l-8.859,3.391v0.055c0.702-0.064,1.536-0.096,2.502-0.096h6.357v1.073h-9.994v-1.75
			l8.244-3.165v-0.055l-8.244-3.192v-1.736h9.994v1.162h-6.439c-0.738,0-1.541-0.032-2.406-0.096v0.055l8.846,3.418V284.802z"/>
		<path fill="#333333" d="M166.639,272.162l-8.859,3.391v0.055c0.702-0.064,1.536-0.096,2.502-0.096h6.357v1.073h-9.994v-1.75
			l8.244-3.165v-0.055l-8.244-3.192v-1.736h9.994v1.162h-6.439c-0.738,0-1.541-0.032-2.406-0.096v0.055l8.846,3.418V272.162z"/>
		<path fill="#333333" d="M161.642,261.402l-4.997-2.666v-1.258l6.118,3.336h3.876v1.176h-3.821l-6.173,3.329v-1.271
			L161.642,261.402z"/>
		<path fill="#333333" d="M166.639,248.045l-8.859,3.391v0.055c0.702-0.064,1.536-0.096,2.502-0.096h6.357v1.073h-9.994v-1.75
			l8.244-3.165v-0.055l-8.244-3.192v-1.736h9.994v1.162h-6.439c-0.738,0-1.541-0.032-2.406-0.096v0.055l8.846,3.418V248.045z"/>
		<path fill="#333333" d="M157.54,235.549c0,1.098,0.366,1.965,1.097,2.601s1.733,0.954,3.004,0.954
			c1.308,0,2.318-0.307,3.032-0.919s1.07-1.487,1.07-2.622c0-0.697-0.125-1.493-0.376-2.386h1.019c0.26,0.693,0.39,1.547,0.39,2.563
			c0,1.472-0.447,2.608-1.34,3.408s-2.163,1.2-3.808,1.2c-1.03,0-1.932-0.192-2.707-0.578s-1.372-0.941-1.791-1.668
			s-0.629-1.583-0.629-2.567c0-1.048,0.191-1.964,0.574-2.748l0.998,0.492C157.718,234.036,157.54,234.792,157.54,235.549z"/>
		<path fill="#333333" d="M166.639,230.996h-9.994v-1.162h8.941v-4.409h1.053V230.996z"/>
		<path fill="#333333" d="M166.639,223.729h-9.994v-1.162h8.941v-4.409h1.053V223.729z"/>
		<path fill="#333333" d="M162.482,215.301h4.156v1.162h-9.994v-2.741c0-1.226,0.235-2.132,0.704-2.717s1.176-0.878,2.119-0.878
			c1.322,0,2.215,0.67,2.68,2.01l4.491-2.714v1.374l-4.156,2.42V215.301z M161.484,215.301v-1.593c0-0.82-0.163-1.422-0.489-1.805
			s-0.814-0.574-1.466-0.574c-0.661,0-1.137,0.195-1.429,0.584s-0.438,1.015-0.438,1.876v1.511H161.484z"/>
		<path fill="#333333" d="M161.628,199.134c1.6,0,2.857,0.404,3.773,1.213s1.374,1.934,1.374,3.374c0,1.472-0.45,2.608-1.35,3.408
			s-2.17,1.2-3.811,1.2c-1.627,0-2.888-0.401-3.784-1.203s-1.343-1.941-1.343-3.418c0-1.436,0.456-2.557,1.367-3.363
			S160.024,199.134,161.628,199.134z M161.628,207.098c1.354,0,2.38-0.288,3.08-0.865s1.049-1.414,1.049-2.512
			c0-1.107-0.349-1.944-1.046-2.509s-1.725-0.848-3.083-0.848c-1.344,0-2.364,0.281-3.059,0.844s-1.042,1.396-1.042,2.499
			c0,1.107,0.35,1.949,1.049,2.526S160.292,207.098,161.628,207.098z"/>
		<path fill="#333333" d="M161.642,194.362l-4.997-2.666v-1.258l6.118,3.336h3.876v1.176h-3.821l-6.173,3.329v-1.271
			L161.642,194.362z"/>
	</g>
</g>
</svg>
