<svg>
<g id="AREAS">
	<path id="NOR-WW2" stroke-width="0" d="M88.768,88.964v-4.586c0-10.009,3.789-19.45,10.69-26.689l35.42,31.275H88.768z"/>
	<path id="NOR-WW1" stroke-width="0" d="M100.853,56.273c7.209-6.837,16.607-10.589,26.586-10.589h9.083v21.64l0.022,20.423
		L100.853,56.273z"/>
	<polygon id="NOR-W1" stroke-width="0" points="138.497,80.611 138.497,20.304 194.129,20.304 194.129,58.72 293,58.72 293,80.611 	
		"/>
	<rect id="NOR-CO" x="196.129" y="20.304" stroke-width="0" width="59.854" height="36.416"/>
	<polygon id="NOR-CL" stroke-width="0" points="257.986,56.72 257.986,20.304 301.549,20.304 301.549,38.421 318.145,38.421 
		318.145,56.72 	"/>
	<rect id="NOR-W2" x="295" y="58.72" stroke-width="0" width="55.729" height="21.892"/>
	<rect id="NOR-EV" x="303.549" y="20.304" stroke-width="0" width="97.066" height="16.117"/>
	<rect id="NOR-DB" x="320.044" y="38.422" stroke-width="0" width="60.561" height="18.298"/>
	<rect id="NOR-C1" x="352.828" y="58.72" stroke-width="0" width="54.325" height="21.892"/>
	<polygon id="NOR-CS" stroke-width="0" points="382.605,56.72 382.605,38.421 402.615,38.421 402.615,20.304 443.468,20.304 
		443.468,56.72 	"/>
	<rect id="NOR-CY" x="445.468" y="20.304" stroke-width="0" width="60.159" height="36.416"/>
	<polygon id="NOR-C2" stroke-width="0" points="409.156,80.611 409.156,58.72 507.526,58.72 507.526,20.304 563.761,20.304 
		563.761,80.611 	"/>
	<path id="NOR-WT1" stroke-width="0" d="M565.761,54.813v-34.51h5.188c18.352,0,35.611,7.011,48.733,19.764l-53.9,48.027
		L565.761,54.813z"/>
	<path id="NOR-WT2" stroke-width="0" d="M567.389,89.324l53.738-47.84c12.541,12.89,19.535,29.807,19.785,47.84H567.389z"/>
	<rect id="EL-A" x="565.761" y="91.324" stroke-width="0" width="43.563" height="50.183"/>
	<rect id="EL-B" x="565.761" y="143.507" stroke-width="0" width="43.563" height="50.184"/>
	<rect id="EL-C" x="565.761" y="195.691" stroke-width="0" width="43.563" height="50.184"/>
	<rect id="EL-D" x="565.761" y="247.875" stroke-width="0" width="43.563" height="50.184"/>
	<rect id="EL-E" x="565.761" y="300.059" stroke-width="0" width="43.563" height="51.621"/>
	<rect id="EU-CAR" x="611.323" y="91.324" stroke-width="0" width="23.647" height="260.355"/>
	<rect id="EU-AU" x="636.972" y="91.324" stroke-width="0" width="43.563" height="50.183"/>
	<rect id="EU-BU" x="636.972" y="143.507" stroke-width="0" width="43.563" height="50.184"/>
	<polygon id="EU-CU" stroke-width="0" points="636.972,245.875 636.972,195.691 680.531,195.691 680.531,199.633 689.99,199.723 
		689.99,241.823 680.531,241.734 680.531,245.875 	"/>
	<rect id="EU-DU" x="636.972" y="247.875" stroke-width="0" width="43.563" height="50.184"/>
	<rect id="EU-EU" x="636.972" y="300.059" stroke-width="0" width="43.563" height="51.621"/>
	<polygon id="NSS-F" stroke-width="0" points="547.451,452.607 547.451,401.141 551.179,397.369 551.179,385.539 547.451,385.539 
		547.451,358.35 558.029,358.35 558.029,387.539 571.406,387.539 571.406,452.607 	"/>
	<rect id="NSS-ADIS" x="497.064" y="358.35" stroke-width="0" width="48.392" height="10.865"/>
	<polygon id="NSS-G" stroke-width="0" points="497.066,452.607 497.066,401.141 500.782,397.368 500.782,385.539 497.066,385.539 
		497.064,371.214 545.451,371.214 545.451,385.539 541.735,385.539 541.735,397.368 545.451,401.141 545.451,452.607 	"/>
	<polygon id="NSS-H" stroke-width="0" points="446.675,452.607 446.675,401.132 450.297,397.359 450.297,385.539 446.675,385.539 
		446.675,358.35 495.064,358.35 495.064,385.539 491.344,385.539 491.344,397.369 495.066,401.141 495.064,452.607 	"/>
	<polygon id="NSS-DISJ" stroke-width="0" points="396.177,369.214 396.195,358.35 419.366,358.35 419.366,369.214 	"/>
	<polygon id="NSS-J" stroke-width="0" points="396.183,452.607 396.183,401.141 399.905,397.368 399.905,385.539 396.183,385.539 
		396.175,371.214 421.366,371.214 421.366,358.35 444.573,358.35 444.573,385.539 440.949,385.539 440.949,397.368 444.573,401.038 
		444.573,452.607 	"/>
	<polygon id="NSS-K" stroke-width="0" points="345.793,452.607 345.793,401.141 349.515,397.368 349.515,385.539 345.793,385.539 
		345.793,358.35 394.183,358.35 394.183,385.539 390.563,385.539 390.563,397.359 394.183,401.132 394.183,452.607 	"/>
	<polygon id="NSS-L" stroke-width="0" points="295.402,422.544 295.402,401.141 299.118,397.368 299.118,385.539 295.402,385.539 
		295.402,358.35 343.793,358.35 343.793,385.539 340.071,385.539 340.071,397.368 343.793,401.141 343.793,422.544 	"/>
	<rect id="NSS-EXEC" x="295.402" y="424.544" stroke-width="0" width="48.396" height="28.063"/>
	<polygon id="NSS-DISM" stroke-width="0" points="270.208,369.214 270.227,358.35 293.402,358.35 293.402,369.214 	"/>
	<polygon id="NSS-M" stroke-width="0" points="245.011,452.607 245.011,401.132 248.632,397.359 248.632,385.539 245.011,385.539 
		245.011,358.35 268.227,358.35 268.204,371.214 293.402,371.214 293.402,385.539 289.681,385.539 289.681,397.368 293.402,401.141 
		293.402,452.607 	"/>
	<rect id="NSS-DIS" x="194.52" y="358.35" stroke-width="0" width="48.396" height="10.865"/>
	<polygon id="NSS-N" stroke-width="0" points="194.52,452.607 194.52,401.141 198.241,397.368 198.241,385.539 194.52,385.539 
		194.52,371.214 242.911,371.214 242.911,385.539 239.29,385.539 239.29,397.368 242.911,401.039 242.911,452.607 	"/>
	<polygon id="NSS-O" stroke-width="0" points="174.927,452.607 174.905,439.742 155.294,439.742 155.294,358.35 192.52,358.35 
		192.52,385.539 188.899,385.539 188.899,397.359 192.52,401.132 192.52,452.607 	"/>
	<polygon id="NSS-DISU" stroke-width="0" points="155.294,452.607 155.294,441.742 172.909,441.742 172.927,452.607 	"/>
	<path id="NCS-OL" stroke-width="0" d="M152.854,420.954c-11.144-0.187-21.881-3.511-31.146-9.646V384.77H99.89
		c-2.847-6.955-4.327-14.438-4.327-22.063v-9.021h57.291V420.954z"/>
	<path id="NCS-DSOL" stroke-width="0" d="M119.706,409.922c-2.507-1.814-4.878-3.836-7.068-6.023
		c-2.639-2.637-5.034-5.539-7.119-8.623c-1.792-2.646-3.384-5.506-4.744-8.506h18.935L119.706,409.922L119.706,409.922z"/>
	<path id="NCS-LEV1" stroke-width="0" d="M152.998,445.771c-46.943-0.538-84.965-38.887-84.965-85.938l0.014-6.149h25.516v9.021
		c0,32.896,26.508,59.719,59.291,60.252L152.998,445.771z"/>
	<path id="NCS-LEV2" stroke-width="0" d="M153.155,470.587c-62.209-0.543-112.647-51.308-112.647-113.628l0.021-3.279h25.521
		l-0.014,6.148c0,48.165,38.926,87.409,86.978,87.943L153.155,470.587z"/>
	<path id="NCS-OU" stroke-width="0" d="M153.312,495.403c-77.474-0.546-140.34-63.729-140.34-141.315l0.014-0.408h25.541l-0.021,3.272
		c0,63.437,51.345,115.101,114.665,115.635L153.312,495.403z"/>
	<polygon id="WL-PL" stroke-width="0" points="88.743,351.68 88.743,301.136 136.599,301.136 136.696,351.68 	"/>
	<rect id="WL-QL" x="88.743" y="248.592" stroke-width="0" width="47.854" height="50.543"/>
	<rect id="WL-RL" x="88.743" y="196.05" stroke-width="0" width="47.854" height="50.542"/>
	<rect id="WL-SL" x="88.743" y="143.507" stroke-width="0" width="47.854" height="50.543"/>
	<polygon id="WL-TL" stroke-width="0" points="88.743,141.507 88.743,90.964 136.499,90.964 136.595,141.507 	"/>
	<rect id="WU-P" x="12.972" y="301.136" stroke-width="0" width="48.391" height="50.544"/>
	<polygon id="WU-Q" stroke-width="0" points="12.972,299.136 12.972,268.051 2.009,268.141 2.009,248.592 61.363,248.592 
		61.363,299.136 	"/>
	<polygon id="WU-R" stroke-width="0" points="2.009,246.592 2.009,239.342 12.972,239.342 12.972,203.032 2.009,203.032 2.009,196.05 
		61.363,196.05 61.363,246.592 	"/>
	<polygon id="WU-S" stroke-width="0" points="2.009,194.05 2.009,174.396 12.972,174.306 12.972,143.507 61.363,143.507 
		61.363,194.05 	"/>
	<rect id="WU-T" x="12.972" y="90.964" stroke-width="0" width="48.391" height="50.542"/>
</g>
<g id="PITCH">
	<g>
		<polygon fill="#FFFFFF" points="153.795,332.982 548.463,332.982 548.463,105.978 153.795,105.978 		"/>
		<polygon fill="#7AAA41" points="162.485,324.84 539.774,324.84 539.774,114.487 162.485,114.487 		"/>
		<polygon fill="#599B43" points="511.605,116.368 511.605,322.997 530.573,322.997 530.573,116.368 		"/>
		<polygon fill="#599B43" points="473.656,116.368 473.656,322.997 492.628,322.997 492.628,116.368 		"/>
		<polygon fill="#599B43" points="435.698,116.368 435.698,322.997 454.673,322.997 454.673,116.368 		"/>
		<polygon fill="#599B43" points="397.756,116.368 397.756,322.997 416.728,322.997 416.728,116.368 		"/>
		<polygon fill="#599B43" points="360.312,116.368 360.312,322.997 379.271,322.997 379.271,116.368 		"/>
		<polygon fill="#599B43" points="322.343,116.368 322.343,322.997 341.318,322.997 341.318,116.368 		"/>
		<polygon fill="#599B43" points="284.398,116.368 284.398,322.997 303.366,322.997 303.366,116.368 		"/>
		<polygon fill="#599B43" points="246.448,116.368 246.444,322.997 265.413,322.997 265.414,116.368 		"/>
		<polygon fill="#599B43" points="208.496,116.368 208.496,322.997 227.459,322.997 227.46,116.368 		"/>
		<polygon fill="#599B43" points="170.533,116.368 170.532,322.997 189.511,322.997 189.511,116.368 		"/>
		<polygon fill="#BBBDBF" points="161.411,114.487 161.411,115.538 539.862,115.538 539.862,323.793 162.46,323.793 162.46,114.487 
			161.411,114.487 161.411,115.538 161.411,114.487 160.362,114.487 160.362,325.891 541.962,325.891 541.962,113.438 
			160.362,113.438 160.362,114.487 		"/>
		<polygon fill="#FFFFFF" points="527.031,314.355 527.031,313.293 176.896,313.293 176.896,124.804 525.968,124.804 
			525.968,314.355 527.031,314.355 527.031,313.293 527.031,314.355 528.095,314.355 528.095,122.676 174.768,122.676 
			174.768,315.42 528.095,315.42 528.095,314.355 		"/>
		<rect x="350.325" y="123.74" fill="#FFFFFF" width="2.128" height="190.349"/>
		<path fill="#FFFFFF" d="M527.031,130.861c-2.021,0-3.851-0.804-5.171-2.097c-1.322-1.295-2.132-3.063-2.135-5.022h-2.127
			c0,2.554,1.063,4.876,2.771,6.543c1.705,1.672,4.063,2.703,6.659,2.703L527.031,130.861L527.031,130.861z"/>
		<path fill="#FFFFFF" d="M527.031,305.102c-2.595,0-4.954,1.033-6.659,2.703c-1.709,1.67-2.771,3.993-2.771,6.551h2.127
			c0.002-1.961,0.812-3.729,2.134-5.024c1.321-1.293,3.146-2.101,5.171-2.101L527.031,305.102L527.031,305.102z"/>
		<polygon fill="#FFFFFF" points="175.834,271.816 223.394,271.816 223.394,164.712 175.834,164.712 175.834,166.84 221.267,166.84 
			221.267,269.688 175.834,269.688 		"/>
		<polygon fill="#FFFFFF" points="175.834,247.818 202.541,247.818 202.541,188.691 175.834,188.691 175.834,190.82 200.413,190.82 
			200.413,245.689 175.834,245.689 		"/>
		<path fill="#FFFFFF" d="M236.382,218.256h-1.063c0,9.383-5.528,17.415-13.424,20.934l0.438,0.972h1.063v-43.81h-1.063
			l-0.438,0.973c7.895,3.514,13.425,11.564,13.424,20.932L236.382,218.256l1.063,0.001c-0.002-10.218-6.028-19.022-14.685-22.876
			l-1.496-0.667V241.8l1.496-0.666c8.649-3.855,14.683-12.644,14.685-22.877L236.382,218.256L236.382,218.256z"/>
		<path fill="#FFFFFF" d="M175.831,132.987c2.596,0,4.954-1.031,6.653-2.703c1.705-1.667,2.771-3.99,2.771-6.544h-2.127
			c0,1.96-0.813,3.729-2.128,5.023c-1.319,1.293-3.146,2.097-5.169,2.097L175.831,132.987L175.831,132.987z"/>
		<path fill="#FFFFFF" d="M175.831,307.23c2.023,0.002,3.851,0.804,5.169,2.097c1.315,1.296,2.128,3.065,2.128,5.028h2.127
			c0.002-2.562-1.063-4.881-2.771-6.549c-1.699-1.676-4.063-2.705-6.653-2.705L175.831,307.23L175.831,307.23z"/>
		<path fill="#FFFFFF" d="M211.08,219.679v1.063c0.683,0.002,1.313-0.267,1.771-0.712c0.461-0.442,0.755-1.081,0.753-1.773
			c-0.009-1.396-1.143-2.491-2.521-2.496c-1.396,0.003-2.52,1.119-2.521,2.496c-0.001,0.685,0.28,1.323,0.74,1.771
			c0.459,0.449,1.095,0.718,1.777,0.716L211.08,219.679l-0.001-1.063c-0.261-0.012-0.388-0.154-0.396-0.359
			c0-0.189,0.156-0.368,0.396-0.369l0.289,0.119l0.104,0.25c-0.001,0.187-0.146,0.354-0.396,0.359L211.08,219.679L211.08,219.679z"
			/>
		<polygon fill="#FFFFFF" points="527.07,164.955 479.508,164.955 479.508,272.046 527.07,272.046 527.07,269.92 481.636,269.92 
			481.636,167.082 527.07,167.082 		"/>
		<polygon fill="#FFFFFF" points="527.07,188.942 500.358,188.942 500.358,248.067 527.07,248.067 527.07,245.938 502.486,245.938 
			502.486,191.069 527.07,191.069 		"/>
		<path fill="#FFFFFF" d="M466.817,218.504h1.063c0.002-9.412,5.247-17.42,13.122-20.933l-0.436-0.971h-1.063v43.807h1.063
			l0.436-0.972c-7.872-3.511-13.12-11.539-13.122-20.933L466.817,218.504l-1.063-0.001c-0.004,10.191,5.721,19.015,14.386,22.877
			l1.497,0.667v-47.086l-1.497,0.667c-8.663,3.859-14.393,12.666-14.386,22.875L466.817,218.504L466.817,218.504z"/>
		<path fill="#FFFFFF" d="M491.823,217.086v-1.064c-1.356,0.003-2.52,1.077-2.521,2.483c0.008,1.398,1.146,2.487,2.521,2.493
			c1.392-0.003,2.521-1.113,2.521-2.493c0.001-0.688-0.285-1.322-0.742-1.767c-0.458-0.446-1.091-0.718-1.772-0.718L491.823,217.086
			l0.001,1.063c0.246,0.01,0.389,0.163,0.391,0.356c0,0.188-0.154,0.364-0.391,0.366l-0.286-0.119l-0.106-0.247l0.104-0.241
			l0.291-0.115L491.823,217.086L491.823,217.086z"/>
		<path fill="#FFFFFF" d="M350.558,251.306v-1.063c-8.34-0.001-15.883-3.38-21.354-8.846c-5.465-5.467-8.843-13.007-8.843-21.346
			c0-8.339,3.378-15.881,8.843-21.348c5.472-5.465,13.015-8.843,21.354-8.843c8.341,0,15.881,3.379,21.346,8.843
			c5.467,5.466,8.843,13.008,8.844,21.348c-0.001,8.339-3.377,15.879-8.844,21.346c-5.465,5.466-13.005,8.845-21.346,8.846V251.306
			v1.064c17.85-0.001,32.313-14.471,32.313-32.317c-0.002-17.848-14.467-32.316-32.313-32.318
			c-17.854,0.002-32.319,14.471-32.319,32.318c0,17.847,14.475,32.316,32.319,32.317V251.306L350.558,251.306z"/>
	</g>
</g>
<g id="LABELS">
	<text fid="NOR-WW2" transform="matrix(1 0 0 1 95.825 85.7275)" fill="#F5F5F5" font-family="'Arial'" font-size="9">WW2</text>
	<text fid="NOR-WW1" transform="matrix(1 0 0 1 111.7 59.1152)" fill="#F5F5F5" font-family="'Arial'" font-size="9">WW1</text>
	<text fid="NOR-W1" transform="matrix(1 0 0 1 159.3704 52.8574)" fill="#F5F5F5" font-family="'Arial'" font-size="9">W1</text>
	<text fid="NOR-CO" transform="matrix(1 0 0 1 219.3079 40.9121)" fill="#F5F5F5" font-family="'Arial'" font-size="9">CO</text>
	<text fid="NOR-CL" transform="matrix(1 0 0 1 274.075 40.9121)" fill="#F5F5F5" font-family="'Arial'" font-size="9">CL</text>
	<text fid="NOR-W2" transform="matrix(1 0 0 1 316.116 72.0664)" fill="#F5F5F5" font-family="'Arial'" font-size="9">W2</text>
	<text fid="NOR-EV" transform="matrix(1 0 0 1 346.0813 30.7627)" fill="#F5F5F5" font-family="'Arial'" font-size="9">EV</text>
	<text fid="NOR-DB" transform="matrix(1 0 0 1 344.0725 49.9707)" fill="#F5F5F5" font-family="'Arial'" font-size="9">DB</text>
	<text fid="NOR-C1" transform="matrix(1 0 0 1 374.2424 72.0664)" fill="#F5F5F5" font-family="'Arial'" font-size="9">C1</text>
	<text fid="NOR-CS" transform="matrix(1 0 0 1 416.9514 40.9121)" fill="#F5F5F5" font-family="'Arial'" font-size="9">CS</text>
	<text fid="NOR-CY" transform="matrix(1 0 0 1 469.2463 40.9121)" fill="#F5F5F5" font-family="'Arial'" font-size="9">CY</text>
	<text fid="NOR-C2" transform="matrix(1 0 0 1 529.8909 52.8574)" fill="#F5F5F5" font-family="'Arial'" font-size="9">C2</text>
	<text fid="NOR-WT1" transform="matrix(1 0 0 1 573.2249 46.5996)" fill="#F5F5F5" font-family="'Arial'" font-size="9">WT1</text>
	<text fid="NOR-WT2" transform="matrix(1 0 0 1 604.6536 77.8037)" fill="#F5F5F5" font-family="'Arial'" font-size="9">WT2</text>
	<text fid="EL-A" transform="matrix(1 0 0 1 584.2913 118.8154)" fill="#F5F5F5" font-family="'Arial'" font-size="9">A</text>
	<text fid="EL-B" transform="matrix(1 0 0 1 584.5413 171)" fill="#F5F5F5" font-family="'Arial'" font-size="9">B</text>
	<text fid="EL-C" transform="matrix(1 0 0 1 584.2932 223.1826)" fill="#F5F5F5" font-family="'Arial'" font-size="9">C</text>
	<text fid="EU-CAR" transform="matrix(1 0 0 1 613.6477 361.7813)" fill="#333333" font-family="'Arial'" font-size="9">CAR</text>
	<text fid="EU-AU" transform="matrix(1 0 0 1 652.51 118.8164)" fill="#F5F5F5" font-family="'Arial'" font-size="9">AU</text>
	<text fid="EU-BU" transform="matrix(1 0 0 1 652.5022 171)" fill="#F5F5F5" font-family="'Arial'" font-size="9">BU</text>
	<text fid="EU-CU" transform="matrix(1 0 0 1 652.2542 223.1836)" fill="#F5F5F5" font-family="'Arial'" font-size="9">CU</text>
	<text fid="EU-DU" transform="matrix(1 0 0 1 652.2542 275.3672)" fill="#F5F5F5" font-family="'Arial'" font-size="9">DU</text>
	<text fid="EU-EU" transform="matrix(1 0 0 1 652.5022 328.2686)" fill="#F5F5F5" font-family="'Arial'" font-size="9">EU</text>
	<text fid="NSS-F" transform="matrix(1 0 0 1 556.6819 407.8789)" fill="#F5F5F5" font-family="'Arial'" font-size="9">F</text>
	<text fid="NSS-ADIS" transform="matrix(1 0 0 1 510.7639 354.4004)" fill="#333333" font-family="'Arial'" font-size="9">ADIS</text>
	<text fid="NSS-G" transform="matrix(1 0 0 1 517.76 407.8789)" fill="#F5F5F5" font-family="'Arial'" font-size="9">G</text>
	<text fid="NSS-H" transform="matrix(1 0 0 1 467.6213 407.8779)" fill="#F5F5F5" font-family="'Arial'" font-size="9">H</text>
	<text fid="NSS-DISJ" transform="matrix(1 0 0 1 398.0217 354.4004)" fill="#333333" font-family="'Arial'" font-size="9">DISJ</text>
	<text fid="NSS-J" transform="matrix(1 0 0 1 418.1252 407.8779)" fill="#F5F5F5" font-family="'Arial'" font-size="9">J</text>
	<text fid="NSS-K" transform="matrix(1 0 0 1 366.9866 407.8779)" fill="#F5F5F5" font-family="'Arial'" font-size="9">K</text>
	<text fid="NSS-L" transform="matrix(1 0 0 1 317.0906 407.8789)" fill="#F5F5F5" font-family="'Arial'" font-size="9">L</text>
	<text fid="NSS-EXEC" transform="matrix(1 0 0 1 307.3416 440.9766)" fill="#F5F5F5" font-family="'Arial'" font-size="9">EXEC</text>
	<text fid="NSS-DISM" transform="matrix(1 0 0 1 270.554 354.4004)" fill="#333333" font-family="'Arial'" font-size="9">DISM</text>
	<text fid="NSS-M" transform="matrix(1 0 0 1 265.4578 407.8789)" fill="#F5F5F5" font-family="'Arial'" font-size="9">M</text>
	<text fid="NSS-DIS" transform="matrix(1 0 0 1 211.2122 354.4004)" fill="#333333" font-family="'Arial'" font-size="9">DIS</text>
	<text fid="NSS-N" transform="matrix(1 0 0 1 215.4651 407.8789)" fill="#F5F5F5" font-family="'Arial'" font-size="9">N</text>
	<text fid="NSS-O" transform="matrix(1 0 0 1 170.4041 407.8789)" fill="#F5F5F5" font-family="'Arial'" font-size="9">O</text>
	<text fid="NCS-OL" transform="matrix(1 0 0 1 128.2 389.7168)" fill="#F5F5F5" font-family="'Arial'" font-size="9">OL</text>
	<text fid="NCS-LEV1" transform="matrix(1 0 0 1 88.5071 412.125)" fill="#F5F5F5" font-family="'Arial'" font-size="9">LEV1</text>
	<text fid="NCS-LEV2" transform="matrix(1 0 0 1 64.8206 424.5332)" fill="#F5F5F5" font-family="'Arial'" font-size="9">LEV2</text>
	<text fid="NCS-OU" transform="matrix(1 0 0 1 46.3914 436.9414)" fill="#F5F5F5" font-family="'Arial'" font-size="9">OU</text>
	<text fid="WL-PL" transform="matrix(1 0 0 1 107.2112 328.8076)" fill="#F5F5F5" font-family="'Arial'" font-size="9">PL</text>
	<text fid="WL-QL" transform="matrix(1 0 0 1 106.6624 276.2646)" fill="#F5F5F5" font-family="'Arial'" font-size="9">QL</text>
	<text fid="WL-RL" transform="matrix(1 0 0 1 106.9124 223.7217)" fill="#F5F5F5" font-family="'Arial'" font-size="9">RL</text>
	<text fid="WL-SL" transform="matrix(1 0 0 1 107.1614 171.1787)" fill="#F5F5F5" font-family="'Arial'" font-size="9">SL</text>
	<text fid="WL-TL" transform="matrix(1 0 0 1 107.4124 118.6357)" fill="#F5F5F5" font-family="'Arial'" font-size="9">TL</text>
	<text fid="WU-P" transform="matrix(1 0 0 1 34.1663 328.8076)" fill="#F5F5F5" font-family="'Arial'" font-size="9">P</text>
	<text fid="WU-Q" transform="matrix(1 0 0 1 33.6663 282.9756)" fill="#F5F5F5" font-family="'Arial'" font-size="9">Q</text>
	<text fid="WU-R" transform="matrix(1 0 0 1 33.9163 223.7217)" fill="#F5F5F5" font-family="'Arial'" font-size="9">R</text>
	<text fid="WU-S" transform="matrix(1 0 0 1 34.1663 171.1797)" fill="#F5F5F5" font-family="'Arial'" font-size="9">S</text>
	<text fid="WU-T" transform="matrix(1 0 0 1 34.4167 118.6367)" fill="#F5F5F5" font-family="'Arial'" font-size="9">T</text>
	<text fid="EL-D" transform="matrix(1 0 0 1 584.2932 275.3662)" fill="#F5F5F5" font-family="'Arial'" font-size="9">D</text>
	<text fid="EL-E" transform="matrix(1 0 0 1 584.5413 328.2686)" fill="#F5F5F5" font-family="'Arial'" font-size="9">E</text>
</g>
<g id="EXTRAS">
	<polygon fill="#CCCCCC" points="396.185,499.696 396.281,454.607 571.406,454.607 571.406,481.554 558.531,481.554 
		558.531,494.936 533.274,494.936 533.274,481.554 432.504,481.554 432.504,499.696 	"/>
	<path fill="#CCCCCC" d="M63.388,84.378c0-4.589,0.487-9.169,1.447-13.611c1.147-5.332,2.99-10.503,5.461-15.371
		c2.433-4.793,5.472-9.276,9.033-13.326c3.604-4.101,7.725-7.731,12.233-10.788c4.47-3.024,9.296-5.473,14.358-7.277
		c5.059-1.804,10.349-2.962,15.724-3.444c1.913-0.171,3.862-0.258,5.79-0.258h9.063v23.38h-9.063c-1.391,0-2.794,0.071-4.17,0.211
		c-3.473,0.354-6.886,1.154-10.144,2.378c-3.255,1.224-6.354,2.87-9.199,4.892c-2.777,1.971-5.303,4.289-7.509,6.89
		c-2.26,2.663-4.166,5.604-5.669,8.741c-1.479,3.075-2.56,6.33-3.212,9.674c-0.514,2.588-0.771,5.249-0.771,7.908L86.74,351.609
		l-23.385,0.037L63.388,84.378z"/>
	<polygon fill="#CCCCCC" points="380.221,499.696 380.233,454.607 394.281,454.607 394.281,499.696 	"/>
	<polygon fill="#CCCCCC" points="364.156,499.696 364.17,454.607 378.233,454.607 378.221,499.696 	"/>
	<polygon fill="#CCCCCC" points="348.094,499.696 348.104,454.607 362.17,454.607 362.156,499.696 	"/>
	<polygon fill="#CCCCCC" points="332.029,499.696 332.032,454.607 346.104,454.607 346.094,499.696 	"/>
	
		<rect x="300.455" y="470.12" transform="matrix(1.298944e-004 -1 1 1.298944e-004 -154.1941 800.0896)" fill="#CCCCCC" width="45.089" height="14.063"/>
	<rect x="299.902" y="454.607" fill="#CCCCCC" width="14.067" height="45.089"/>
	<rect x="283.836" y="454.607" fill="#CCCCCC" width="14.063" height="45.089"/>
	<rect x="267.77" y="454.607" fill="#CCCCCC" width="14.067" height="26.941"/>
	<rect x="251.704" y="454.607" fill="#CCCCCC" width="14.063" height="26.941"/>
	<rect x="235.637" y="454.607" fill="#CCCCCC" width="14.067" height="26.941"/>
	<rect x="219.572" y="454.607" fill="#CCCCCC" width="14.066" height="26.941"/>
	
		<rect x="197.068" y="461.048" transform="matrix(-2.174815e-004 -1 1 -2.174815e-004 -257.495 678.7212)" fill="#CCCCCC" width="26.943" height="14.064"/>
	<polygon fill="#CCCCCC" points="187.442,481.554 187.436,454.607 201.502,454.607 201.508,481.554 	"/>
	<polygon fill="#CCCCCC" points="171.376,495.406 171.365,454.607 185.436,454.607 185.442,481.554 179.646,481.554 
		179.646,495.406 	"/>
	<polygon fill="#CCCCCC" points="155.294,495.406 155.294,454.607 169.365,454.607 169.376,495.406 	"/>
	<g enable-background="new    ">
		<path fill="#212221" d="M259.871,95.846h3.398v4.441c-0.551,0.18-1.069,0.306-1.556,0.378s-0.983,0.108-1.491,0.108
			c-1.293,0-2.28-0.38-2.962-1.14s-1.022-1.851-1.022-3.272c0-1.383,0.396-2.461,1.187-3.234s1.888-1.16,3.29-1.16
			c0.879,0,1.727,0.176,2.543,0.527l-0.604,1.453c-0.625-0.313-1.275-0.469-1.951-0.469c-0.785,0-1.414,0.264-1.887,0.791
			s-0.709,1.236-0.709,2.127c0,0.93,0.19,1.64,0.571,2.13s0.935,0.735,1.661,0.735c0.379,0,0.764-0.039,1.154-0.117v-1.787h-1.623
			V95.846z"/>
		<path fill="#212221" d="M270.242,100.656h-4.934V92.09h4.934v1.488h-3.117v1.881h2.9v1.488h-2.9v2.209h3.117V100.656z"/>
		<path fill="#212221" d="M279.805,96.361c0,1.418-0.352,2.508-1.055,3.27s-1.711,1.143-3.023,1.143s-2.32-0.381-3.023-1.143
			s-1.055-1.855-1.055-3.281s0.353-2.515,1.058-3.267s1.716-1.128,3.032-1.128s2.323,0.379,3.021,1.137
			S279.805,94.939,279.805,96.361z M273.553,96.361c0,0.957,0.182,1.678,0.545,2.162s0.906,0.727,1.629,0.727
			c1.449,0,2.174-0.963,2.174-2.889c0-1.93-0.721-2.895-2.162-2.895c-0.723,0-1.268,0.243-1.635,0.729
			S273.553,95.404,273.553,96.361z"/>
		<path fill="#212221" d="M283.367,100.656h-1.787V92.09h4.91v1.488h-3.123v2.209h2.906v1.482h-2.906V100.656z"/>
		<path fill="#212221" d="M289.953,100.656h-1.787V92.09h4.91v1.488h-3.123v2.209h2.906v1.482h-2.906V100.656z"/>
		<path fill="#212221" d="M296.569,97.369v3.287h-1.816V92.09h2.496c1.164,0,2.025,0.212,2.584,0.636s0.838,1.067,0.838,1.931
			c0,0.504-0.139,0.952-0.416,1.345s-0.67,0.7-1.178,0.923c1.289,1.926,2.129,3.17,2.52,3.732h-2.016l-2.045-3.287H296.569z
			 M296.569,95.893h0.586c0.574,0,0.998-0.096,1.271-0.287s0.41-0.492,0.41-0.902c0-0.406-0.14-0.695-0.419-0.867
			s-0.712-0.258-1.298-0.258h-0.551V95.893z"/>
		<path fill="#212221" d="M307.608,100.656h-4.934V92.09h4.934v1.488h-3.117v1.881h2.9v1.488h-2.9v2.209h3.117V100.656z"/>
		<path fill="#212221" d="M312.061,95.617l1.787-3.527h1.957l-2.842,5.232v3.334h-1.805v-3.275l-2.842-5.291h1.969L312.061,95.617z"
			/>
		<path fill="#212221" d="M328.344,100.656h-2.068l-1.16-4.5c-0.043-0.16-0.116-0.491-0.22-0.993s-0.163-0.839-0.179-1.011
			c-0.023,0.211-0.082,0.55-0.176,1.017s-0.166,0.8-0.217,0.999l-1.154,4.488h-2.063l-2.186-8.566h1.787l1.096,4.676
			c0.191,0.863,0.33,1.611,0.416,2.244c0.023-0.223,0.077-0.567,0.161-1.034s0.163-0.829,0.237-1.087l1.248-4.799h1.717l1.248,4.799
			c0.055,0.215,0.123,0.543,0.205,0.984s0.145,0.82,0.188,1.137c0.039-0.305,0.102-0.685,0.188-1.14s0.164-0.823,0.234-1.104
			l1.09-4.676h1.787L328.344,100.656z"/>
		<path fill="#212221" d="M336.846,100.656l-0.621-2.039h-3.123l-0.621,2.039h-1.957l3.023-8.602h2.221l3.035,8.602H336.846z
			 M335.791,97.094c-0.574-1.848-0.897-2.893-0.97-3.135s-0.124-0.434-0.155-0.574c-0.129,0.5-0.498,1.736-1.107,3.709H335.791z"/>
		<path fill="#212221" d="M343.186,100.656h-1.816v-7.055h-2.326V92.09h6.469v1.512h-2.326V100.656z"/>
		<path fill="#212221" d="M346.83,100.656V92.09h1.816v7.066h3.475v1.5H346.83z"/>
		<path fill="#212221" d="M353.61,100.656V92.09h1.816v8.566H353.61z"/>
		<path fill="#212221" d="M365.182,100.656h-2.309l-3.727-6.48h-0.053c0.074,1.145,0.111,1.961,0.111,2.449v4.031h-1.623V92.09
			h2.291l3.721,6.416h0.041c-0.059-1.113-0.088-1.9-0.088-2.361V92.09h1.635V100.656z"/>
		<path fill="#212221" d="M370.59,95.846h3.398v4.441c-0.551,0.18-1.069,0.306-1.556,0.378s-0.983,0.108-1.491,0.108
			c-1.293,0-2.28-0.38-2.962-1.14s-1.022-1.851-1.022-3.272c0-1.383,0.396-2.461,1.187-3.234s1.888-1.16,3.29-1.16
			c0.879,0,1.727,0.176,2.543,0.527l-0.604,1.453c-0.625-0.313-1.275-0.469-1.951-0.469c-0.785,0-1.414,0.264-1.887,0.791
			s-0.709,1.236-0.709,2.127c0,0.93,0.19,1.64,0.571,2.13s0.935,0.735,1.661,0.735c0.379,0,0.764-0.039,1.154-0.117v-1.787h-1.623
			V95.846z"/>
		<path fill="#212221" d="M382.783,93.479c-0.684,0-1.213,0.257-1.588,0.771s-0.563,1.229-0.563,2.147
			c0,1.91,0.717,2.865,2.15,2.865c0.602,0,1.33-0.15,2.186-0.451v1.523c-0.703,0.293-1.488,0.439-2.355,0.439
			c-1.246,0-2.199-0.378-2.859-1.134s-0.99-1.841-0.99-3.255c0-0.891,0.162-1.671,0.486-2.341s0.79-1.184,1.397-1.541
			s1.319-0.536,2.136-0.536c0.832,0,1.668,0.201,2.508,0.604l-0.586,1.477c-0.32-0.152-0.643-0.285-0.967-0.398
			S383.096,93.479,382.783,93.479z"/>
		<path fill="#212221" d="M386.791,100.656V92.09h1.816v8.566H386.791z"/>
		<path fill="#212221" d="M394.069,100.656h-1.816v-7.055h-2.326V92.09h6.469v1.512h-2.326V100.656z"/>
		<path fill="#212221" d="M400.379,95.617l1.787-3.527h1.957l-2.842,5.232v3.334h-1.805v-3.275l-2.842-5.291h1.969L400.379,95.617z"
			/>
		<path fill="#212221" d="M413.375,98.277c0,0.773-0.278,1.383-0.835,1.828s-1.331,0.668-2.323,0.668
			c-0.914,0-1.723-0.172-2.426-0.516V98.57c0.578,0.258,1.067,0.439,1.468,0.545s0.767,0.158,1.099,0.158
			c0.398,0,0.704-0.076,0.917-0.229s0.319-0.379,0.319-0.68c0-0.168-0.047-0.317-0.141-0.448s-0.231-0.257-0.413-0.378
			s-0.552-0.314-1.11-0.58c-0.523-0.246-0.916-0.482-1.178-0.709s-0.471-0.49-0.627-0.791s-0.234-0.652-0.234-1.055
			c0-0.758,0.257-1.354,0.771-1.787s1.224-0.65,2.13-0.65c0.445,0,0.87,0.053,1.274,0.158s0.827,0.254,1.269,0.445l-0.586,1.412
			c-0.457-0.188-0.835-0.318-1.134-0.393s-0.593-0.111-0.882-0.111c-0.344,0-0.607,0.08-0.791,0.24s-0.275,0.369-0.275,0.627
			c0,0.16,0.037,0.3,0.111,0.419s0.192,0.234,0.354,0.346s0.546,0.312,1.151,0.601c0.801,0.383,1.35,0.767,1.646,1.151
			S413.375,97.719,413.375,98.277z"/>
		<path fill="#212221" d="M418.233,100.656h-1.816v-7.055h-2.326V92.09h6.469v1.512h-2.326V100.656z"/>
		<path fill="#212221" d="M427.121,100.656l-0.621-2.039h-3.123l-0.621,2.039h-1.957l3.023-8.602h2.221l3.035,8.602H427.121z
			 M426.067,97.094c-0.574-1.848-0.897-2.893-0.97-3.135s-0.124-0.434-0.155-0.574c-0.129,0.5-0.498,1.736-1.107,3.709H426.067z"/>
		<path fill="#212221" d="M437.756,100.656h-2.309l-3.727-6.48h-0.053c0.074,1.145,0.111,1.961,0.111,2.449v4.031h-1.623V92.09
			h2.291l3.721,6.416h0.041c-0.059-1.113-0.088-1.9-0.088-2.361V92.09h1.635V100.656z"/>
		<path fill="#212221" d="M447.02,96.291c0,1.41-0.401,2.49-1.204,3.24s-1.962,1.125-3.478,1.125h-2.426V92.09h2.689
			c1.398,0,2.484,0.369,3.258,1.107S447.02,94.967,447.02,96.291z M445.133,96.338c0-1.84-0.813-2.76-2.438-2.76h-0.967v5.578h0.779
			C444.258,99.156,445.133,98.217,445.133,96.338z"/>
	</g>
	<g enable-background="new    ">
		<path fill="#212221" d="M300.05,340.656h-1.816v-7.055h-2.326v-1.512h6.469v1.512h-2.326V340.656z"/>
		<path fill="#212221" d="M310.714,340.656h-1.811v-3.697h-3.393v3.697h-1.816v-8.566h1.816v3.357h3.393v-3.357h1.811V340.656z"/>
		<path fill="#212221" d="M317.809,340.656h-4.934v-8.566h4.934v1.488h-3.117v1.881h2.9v1.488h-2.9v2.209h3.117V340.656z"/>
		<path fill="#212221" d="M327.77,338.277c0,0.773-0.278,1.383-0.835,1.828s-1.331,0.668-2.323,0.668
			c-0.914,0-1.723-0.172-2.426-0.516v-1.688c0.578,0.258,1.067,0.439,1.468,0.545s0.767,0.158,1.099,0.158
			c0.398,0,0.704-0.076,0.917-0.229s0.319-0.379,0.319-0.68c0-0.168-0.047-0.317-0.141-0.448s-0.231-0.257-0.413-0.378
			s-0.552-0.314-1.11-0.58c-0.523-0.246-0.916-0.482-1.178-0.709s-0.471-0.49-0.627-0.791s-0.234-0.652-0.234-1.055
			c0-0.758,0.257-1.354,0.771-1.787s1.224-0.65,2.13-0.65c0.445,0,0.87,0.053,1.274,0.158s0.827,0.254,1.269,0.445l-0.586,1.412
			c-0.457-0.188-0.835-0.318-1.134-0.393s-0.593-0.111-0.882-0.111c-0.344,0-0.607,0.08-0.791,0.24s-0.275,0.369-0.275,0.627
			c0,0.16,0.037,0.3,0.111,0.419s0.192,0.234,0.354,0.346s0.546,0.312,1.151,0.601c0.801,0.383,1.35,0.767,1.646,1.151
			S327.77,337.719,327.77,338.277z"/>
		<path fill="#212221" d="M337.098,336.361c0,1.418-0.352,2.508-1.055,3.27s-1.711,1.143-3.023,1.143s-2.32-0.381-3.023-1.143
			s-1.055-1.855-1.055-3.281s0.353-2.515,1.058-3.267s1.716-1.128,3.032-1.128s2.323,0.379,3.021,1.137
			S337.098,334.939,337.098,336.361z M330.846,336.361c0,0.957,0.182,1.678,0.545,2.162s0.906,0.727,1.629,0.727
			c1.449,0,2.174-0.963,2.174-2.889c0-1.93-0.721-2.895-2.162-2.895c-0.723,0-1.268,0.243-1.635,0.729
			S330.846,335.404,330.846,336.361z"/>
		<path fill="#212221" d="M345.846,332.09v5.543c0,0.633-0.142,1.188-0.425,1.664s-0.692,0.842-1.228,1.096
			s-1.168,0.381-1.898,0.381c-1.102,0-1.957-0.282-2.566-0.847s-0.914-1.337-0.914-2.317v-5.52h1.811v5.244
			c0,0.66,0.133,1.145,0.398,1.453s0.705,0.463,1.318,0.463c0.594,0,1.024-0.155,1.292-0.466s0.401-0.798,0.401-1.462v-5.232
			H345.846z"/>
		<path fill="#212221" d="M351.248,340.656h-1.816v-7.055h-2.326v-1.512h6.469v1.512h-2.326V340.656z"/>
		<path fill="#212221" d="M361.912,340.656h-1.811v-3.697h-3.393v3.697h-1.816v-8.566h1.816v3.357h3.393v-3.357h1.811V340.656z"/>
		<path fill="#212221" d="M372.248,338.277c0,0.773-0.277,1.383-0.834,1.828s-1.332,0.668-2.324,0.668
			c-0.914,0-1.723-0.172-2.426-0.516v-1.688c0.578,0.258,1.068,0.439,1.469,0.545s0.766,0.158,1.098,0.158
			c0.398,0,0.705-0.076,0.918-0.229s0.318-0.379,0.318-0.68c0-0.168-0.047-0.317-0.141-0.448s-0.23-0.257-0.412-0.378
			s-0.553-0.314-1.111-0.58c-0.523-0.246-0.916-0.482-1.178-0.709s-0.471-0.49-0.627-0.791s-0.234-0.652-0.234-1.055
			c0-0.758,0.258-1.354,0.771-1.787s1.223-0.65,2.129-0.65c0.445,0,0.871,0.053,1.275,0.158s0.826,0.254,1.268,0.445l-0.586,1.412
			c-0.457-0.188-0.834-0.318-1.133-0.393s-0.594-0.111-0.883-0.111c-0.344,0-0.607,0.08-0.791,0.24s-0.275,0.369-0.275,0.627
			c0,0.16,0.037,0.3,0.111,0.419s0.193,0.234,0.355,0.346s0.545,0.312,1.15,0.601c0.801,0.383,1.35,0.767,1.646,1.151
			S372.248,337.719,372.248,338.277z"/>
		<path fill="#212221" d="M377.106,340.656h-1.816v-7.055h-2.326v-1.512h6.469v1.512h-2.326V340.656z"/>
		<path fill="#212221" d="M385.994,340.656l-0.621-2.039h-3.123l-0.621,2.039h-1.957l3.023-8.602h2.221l3.035,8.602H385.994z
			 M384.94,337.094c-0.574-1.848-0.896-2.893-0.969-3.135s-0.125-0.434-0.156-0.574c-0.129,0.5-0.498,1.736-1.107,3.709H384.94z"/>
		<path fill="#212221" d="M396.629,340.656h-2.309l-3.727-6.48h-0.053c0.074,1.145,0.111,1.961,0.111,2.449v4.031h-1.623v-8.566
			h2.291l3.721,6.416h0.041c-0.059-1.113-0.088-1.9-0.088-2.361v-4.055h1.635V340.656z"/>
		<path fill="#212221" d="M405.893,336.291c0,1.41-0.4,2.49-1.203,3.24s-1.963,1.125-3.479,1.125h-2.426v-8.566h2.689
			c1.398,0,2.484,0.369,3.258,1.107S405.893,334.967,405.893,336.291z M404.006,336.338c0-1.84-0.813-2.76-2.438-2.76h-0.967v5.578
			h0.779C403.131,339.156,404.006,338.217,404.006,336.338z"/>
	</g>
	<g enable-background="new    ">
		<path fill="#212221" d="M152.354,307.281v1.816h-7.055v2.326h-1.512v-6.469h1.512v2.326H152.354z"/>
		<path fill="#212221" d="M152.354,296.617v1.811h-3.697v3.393h3.697v1.816h-8.566v-1.816h3.357v-3.393h-3.357v-1.811H152.354z"/>
		<path fill="#212221" d="M152.354,289.521v4.934h-8.566v-4.934h1.488v3.117h1.881v-2.9h1.488v2.9h2.209v-3.117H152.354z"/>
		<path fill="#212221" d="M149.067,282.801h3.287v1.816h-8.566v-2.496c0-1.164,0.212-2.025,0.636-2.584s1.067-0.838,1.931-0.838
			c0.504,0,0.952,0.139,1.345,0.416s0.7,0.67,0.923,1.178c1.926-1.289,3.17-2.129,3.732-2.52v2.016l-3.287,2.045V282.801z
			 M147.59,282.801v-0.586c0-0.574-0.096-0.998-0.287-1.271s-0.492-0.41-0.902-0.41c-0.406,0-0.695,0.14-0.867,0.419
			s-0.258,0.712-0.258,1.298v0.551H147.59z"/>
		<path fill="#212221" d="M152.354,271.762v4.934h-8.566v-4.934h1.488v3.117h1.881v-2.9h1.488v2.9h2.209v-3.117H152.354z"/>
		<path fill="#212221" d="M147.543,266.723v-3.398h4.441c0.18,0.551,0.306,1.069,0.378,1.556s0.108,0.983,0.108,1.491
			c0,1.293-0.38,2.28-1.14,2.962s-1.851,1.022-3.272,1.022c-1.383,0-2.461-0.396-3.234-1.187s-1.16-1.888-1.16-3.29
			c0-0.879,0.176-1.727,0.527-2.543l1.453,0.604c-0.313,0.625-0.469,1.275-0.469,1.951c0,0.785,0.264,1.414,0.791,1.887
			s1.236,0.709,2.127,0.709c0.93,0,1.64-0.19,2.13-0.571s0.735-0.935,0.735-1.661c0-0.379-0.039-0.764-0.117-1.154h-1.787v1.623
			H147.543z"/>
		<path fill="#212221" d="M152.354,256.352v4.934h-8.566v-4.934h1.488v3.117h1.881v-2.9h1.488v2.9h2.209v-3.117H152.354z"/>
		<path fill="#212221" d="M152.354,246.965v2.309l-6.48,3.727v0.053c1.145-0.074,1.961-0.111,2.449-0.111h4.031v1.623h-8.566v-2.291
			l6.416-3.721v-0.041c-1.113,0.059-1.9,0.088-2.361,0.088h-4.055v-1.635H152.354z"/>
		<path fill="#212221" d="M145.176,241.17c0,0.684,0.257,1.213,0.771,1.588s1.229,0.563,2.147,0.563c1.91,0,2.865-0.717,2.865-2.15
			c0-0.602-0.15-1.33-0.451-2.186h1.523c0.293,0.703,0.439,1.488,0.439,2.355c0,1.246-0.378,2.199-1.134,2.859
			s-1.841,0.99-3.255,0.99c-0.891,0-1.671-0.162-2.341-0.486s-1.184-0.79-1.541-1.397s-0.536-1.319-0.536-2.136
			c0-0.832,0.201-1.668,0.604-2.508l1.477,0.586c-0.152,0.32-0.285,0.643-0.398,0.967S145.176,240.857,145.176,241.17z"/>
		<path fill="#212221" d="M147.315,234.496l-3.527-1.787v-1.957l5.232,2.842h3.334v1.805h-3.275l-5.291,2.842v-1.969
			L147.315,234.496z"/>
		<path fill="#212221" d="M149.975,221.5c0.773,0,1.383,0.278,1.828,0.835s0.668,1.331,0.668,2.323c0,0.914-0.172,1.723-0.516,2.426
			h-1.688c0.258-0.578,0.439-1.067,0.545-1.468s0.158-0.767,0.158-1.099c0-0.398-0.076-0.704-0.229-0.917s-0.379-0.319-0.68-0.319
			c-0.168,0-0.317,0.047-0.448,0.141s-0.257,0.231-0.378,0.413s-0.314,0.552-0.58,1.11c-0.246,0.523-0.482,0.916-0.709,1.178
			s-0.49,0.471-0.791,0.627s-0.652,0.234-1.055,0.234c-0.758,0-1.354-0.257-1.787-0.771s-0.65-1.224-0.65-2.13
			c0-0.445,0.053-0.87,0.158-1.274s0.254-0.827,0.445-1.269l1.412,0.586c-0.188,0.457-0.318,0.835-0.393,1.134
			s-0.111,0.593-0.111,0.882c0,0.344,0.08,0.607,0.24,0.791s0.369,0.275,0.627,0.275c0.16,0,0.3-0.037,0.419-0.111
			s0.234-0.192,0.346-0.354s0.312-0.546,0.601-1.151c0.383-0.801,0.767-1.35,1.151-1.646S149.416,221.5,149.975,221.5z"/>
		<path fill="#212221" d="M152.354,215.014v4.934h-8.566v-4.934h1.488v3.117h1.881v-2.9h1.488v2.9h2.209v-3.117H152.354z"/>
		<path fill="#212221" d="M145.176,209.588c0,0.684,0.257,1.213,0.771,1.588s1.229,0.563,2.147,0.563c1.91,0,2.865-0.717,2.865-2.15
			c0-0.602-0.15-1.33-0.451-2.186h1.523c0.293,0.703,0.439,1.488,0.439,2.355c0,1.246-0.378,2.199-1.134,2.859
			s-1.841,0.99-3.255,0.99c-0.891,0-1.671-0.162-2.341-0.486s-1.184-0.79-1.541-1.397s-0.536-1.319-0.536-2.136
			c0-0.832,0.201-1.668,0.604-2.508l1.477,0.586c-0.152,0.32-0.285,0.643-0.398,0.967S145.176,209.275,145.176,209.588z"/>
		<path fill="#212221" d="M143.787,198.607h5.543c0.633,0,1.188,0.142,1.664,0.425s0.842,0.692,1.096,1.228s0.381,1.168,0.381,1.898
			c0,1.102-0.282,1.957-0.847,2.566s-1.337,0.914-2.317,0.914h-5.52v-1.811h5.244c0.66,0,1.145-0.133,1.453-0.398
			s0.463-0.705,0.463-1.318c0-0.594-0.155-1.024-0.466-1.292s-0.798-0.401-1.462-0.401h-5.232V198.607z"/>
		<path fill="#212221" d="M149.067,194.693h3.287v1.816h-8.566v-2.496c0-1.164,0.212-2.025,0.636-2.584s1.067-0.838,1.931-0.838
			c0.504,0,0.952,0.139,1.345,0.416s0.7,0.67,0.923,1.178c1.926-1.289,3.17-2.129,3.732-2.52v2.016l-3.287,2.045V194.693z
			 M147.59,194.693v-0.586c0-0.574-0.096-0.998-0.287-1.271s-0.492-0.41-0.902-0.41c-0.406,0-0.695,0.14-0.867,0.419
			s-0.258,0.712-0.258,1.298v0.551H147.59z"/>
		<path fill="#212221" d="M152.354,188.588h-8.566v-1.816h8.566V188.588z"/>
		<path fill="#212221" d="M152.354,181.311v1.816h-7.055v2.326h-1.512v-6.469h1.512v2.326H152.354z"/>
		<path fill="#212221" d="M147.315,175l-3.527-1.787v-1.957l5.232,2.842h3.334v1.805h-3.275l-5.291,2.842v-1.969L147.315,175z"/>
		<path fill="#212221" d="M149.975,162.004c0.773,0,1.383,0.278,1.828,0.835s0.668,1.331,0.668,2.323
			c0,0.914-0.172,1.723-0.516,2.426h-1.688c0.258-0.578,0.439-1.067,0.545-1.468s0.158-0.767,0.158-1.099
			c0-0.398-0.076-0.704-0.229-0.917s-0.379-0.319-0.68-0.319c-0.168,0-0.317,0.047-0.448,0.141s-0.257,0.231-0.378,0.413
			s-0.314,0.552-0.58,1.11c-0.246,0.523-0.482,0.916-0.709,1.178s-0.49,0.471-0.791,0.627s-0.652,0.234-1.055,0.234
			c-0.758,0-1.354-0.257-1.787-0.771s-0.65-1.224-0.65-2.13c0-0.445,0.053-0.87,0.158-1.274s0.254-0.827,0.445-1.269l1.412,0.586
			c-0.188,0.457-0.318,0.835-0.393,1.134s-0.111,0.593-0.111,0.882c0,0.344,0.08,0.607,0.24,0.791s0.369,0.275,0.627,0.275
			c0.16,0,0.3-0.037,0.419-0.111s0.234-0.192,0.346-0.354s0.312-0.546,0.601-1.151c0.383-0.801,0.767-1.35,1.151-1.646
			S149.416,162.004,149.975,162.004z"/>
		<path fill="#212221" d="M152.354,157.146v1.816h-7.055v2.326h-1.512v-6.469h1.512v2.326H152.354z"/>
		<path fill="#212221" d="M152.354,148.258l-2.039,0.621v3.123l2.039,0.621v1.957l-8.602-3.023v-2.221l8.602-3.035V148.258z
			 M148.791,149.313c-1.848,0.574-2.893,0.897-3.135,0.97s-0.434,0.124-0.574,0.155c0.5,0.129,1.736,0.498,3.709,1.107V149.313z"/>
		<path fill="#212221" d="M152.354,137.623v2.309l-6.48,3.727v0.053c1.145-0.074,1.961-0.111,2.449-0.111h4.031v1.623h-8.566v-2.291
			l6.416-3.721v-0.041c-1.113,0.059-1.9,0.088-2.361,0.088h-4.055v-1.635H152.354z"/>
		<path fill="#212221" d="M147.989,128.359c1.41,0,2.49,0.401,3.24,1.204s1.125,1.962,1.125,3.478v2.426h-8.566v-2.689
			c0-1.398,0.369-2.484,1.107-3.258S146.664,128.359,147.989,128.359z M148.035,130.246c-1.84,0-2.76,0.813-2.76,2.438v0.967h5.578
			v-0.779C150.854,131.121,149.914,130.246,148.035,130.246z"/>
	</g>
	<g enable-background="new    ">
		<path fill="#212221" d="M547.963,183.833v-1.816h7.055v-2.326h1.512v6.469h-1.512v-2.326H547.963z"/>
		<path fill="#212221" d="M547.963,194.497v-1.811h3.697v-3.393h-3.697v-1.816h8.566v1.816h-3.357v3.393h3.357v1.811H547.963z"/>
		<path fill="#212221" d="M547.963,201.593v-4.934h8.566v4.934h-1.488v-3.117h-1.881v2.9h-1.488v-2.9h-2.209v3.117H547.963z"/>
		<path fill="#212221" d="M556.53,206.497v2.666c0,1.215-0.173,2.097-0.519,2.646s-0.896,0.823-1.649,0.823
			c-0.512,0-0.932-0.12-1.26-0.36s-0.525-0.56-0.592-0.958h-0.059c-0.121,0.543-0.348,0.935-0.68,1.175s-0.773,0.36-1.324,0.36
			c-0.781,0-1.391-0.282-1.828-0.847s-0.656-1.331-0.656-2.3v-3.205H556.53z M551.696,208.313h-2.232v1.184
			c0,0.5,0.096,0.869,0.287,1.107s0.484,0.357,0.879,0.357c0.711,0,1.066-0.508,1.066-1.523V208.313z M553.137,208.313v1.055
			c0,0.492,0.076,0.849,0.229,1.069s0.404,0.331,0.756,0.331c0.328,0,0.563-0.12,0.706-0.36s0.214-0.62,0.214-1.14v-0.955H553.137z"
			/>
		<path fill="#212221" d="M547.963,219.804l2.039-0.621v-3.123l-2.039-0.621v-1.957l8.602,3.023v2.221l-8.602,3.035V219.804z
			 M551.526,218.749c1.848-0.574,2.893-0.897,3.135-0.97s0.434-0.124,0.574-0.155c-0.5-0.129-1.736-0.498-3.709-1.107V218.749z"/>
		<path fill="#212221" d="M551.25,224.655h-3.287v-1.816h8.566v2.496c0,1.164-0.212,2.025-0.636,2.584s-1.067,0.838-1.931,0.838
			c-0.504,0-0.952-0.139-1.345-0.416s-0.7-0.67-0.923-1.178c-1.926,1.289-3.17,2.129-3.732,2.52v-2.016l3.287-2.045V224.655z
			 M552.727,224.655v0.586c0,0.574,0.096,0.998,0.287,1.271s0.492,0.41,0.902,0.41c0.406,0,0.695-0.14,0.867-0.419
			s0.258-0.712,0.258-1.298v-0.551H552.727z"/>
		<path fill="#212221" d="M555.141,234.399c0-0.684-0.257-1.213-0.771-1.588s-1.229-0.563-2.147-0.563
			c-1.91,0-2.865,0.717-2.865,2.15c0,0.602,0.15,1.33,0.451,2.186h-1.523c-0.293-0.703-0.439-1.488-0.439-2.355
			c0-1.246,0.378-2.199,1.134-2.859s1.841-0.99,3.255-0.99c0.891,0,1.671,0.162,2.341,0.486s1.184,0.79,1.541,1.397
			s0.536,1.319,0.536,2.136c0,0.832-0.201,1.668-0.604,2.508l-1.477-0.586c0.152-0.32,0.285-0.643,0.398-0.967
			S555.141,234.712,555.141,234.399z"/>
		<path fill="#212221" d="M547.963,238.407h8.566v1.816h-7.066v3.475h-1.5V238.407z"/>
		<path fill="#212221" d="M547.963,250.431l2.039-0.621v-3.123l-2.039-0.621v-1.957l8.602,3.023v2.221l-8.602,3.035V250.431z
			 M551.526,249.376c1.848-0.574,2.893-0.897,3.135-0.97s0.434-0.124,0.574-0.155c-0.5-0.129-1.736-0.498-3.709-1.107V249.376z"/>
		<path fill="#212221" d="M553.002,256.132l3.527,1.787v1.957l-5.232-2.842h-3.334v-1.805h3.275l5.291-2.842v1.969L553.002,256.132z
			"/>
	</g>
</g>
</svg>
