<svg>
<g id="EXTRAS">
	<g>
		<path fill="#000000" d="M197.898,307.619h3.309c0.722,0,1.261,0.171,1.62,0.516c0.358,0.342,0.538,0.83,0.538,1.463
			c0,0.649-0.195,1.158-0.587,1.524c-0.391,0.365-0.988,0.55-1.79,0.55h-1.09v2.391h-2V307.619z M199.898,310.366h0.486
			c0.385,0,0.653-0.065,0.81-0.2c0.156-0.134,0.233-0.304,0.233-0.513c0-0.201-0.068-0.373-0.203-0.514
			c-0.136-0.142-0.389-0.211-0.761-0.211h-0.565V310.366L199.898,310.366z"/>
		<path fill="#000000" d="M207.603,312.998h-2.262l-0.313,1.063h-2.032l2.421-6.442h2.172l2.422,6.442h-2.086L207.603,312.998z
			 M207.189,311.605l-0.711-2.315l-0.704,2.315H207.189z"/>
		<path fill="#000000" d="M210.669,314.063v-6.442h3.317c0.615,0,1.086,0.054,1.411,0.158c0.325,0.105,0.587,0.301,0.786,0.587
			c0.198,0.285,0.299,0.633,0.299,1.043c0,0.357-0.076,0.666-0.229,0.927c-0.151,0.259-0.36,0.469-0.628,0.631
			c-0.171,0.102-0.402,0.188-0.699,0.254c0.236,0.08,0.409,0.158,0.519,0.237c0.073,0.054,0.18,0.166,0.318,0.339
			c0.14,0.174,0.231,0.307,0.278,0.399l0.964,1.867h-2.249l-1.063-1.969c-0.135-0.255-0.255-0.42-0.36-0.496
			c-0.144-0.101-0.307-0.15-0.487-0.15h-0.177v2.615H210.669L210.669,314.063z M212.668,310.23h0.84
			c0.092,0,0.268-0.029,0.527-0.088c0.132-0.026,0.239-0.094,0.323-0.202c0.083-0.108,0.125-0.233,0.125-0.374
			c0-0.207-0.065-0.367-0.198-0.479c-0.131-0.111-0.379-0.167-0.742-0.167h-0.875V310.23L212.668,310.23z"/>
		<path fill="#000000" d="M221.604,312.998h-2.262l-0.313,1.063h-2.032l2.421-6.442h2.172l2.422,6.442h-2.085L221.604,312.998z
			 M221.191,311.605l-0.711-2.315l-0.704,2.315H221.191z"/>
		<path fill="#000000" d="M224.67,307.619h2.957c0.583,0,1.056,0.079,1.413,0.237c0.359,0.158,0.655,0.385,0.891,0.682
			c0.233,0.296,0.403,0.641,0.51,1.032c0.105,0.393,0.158,0.81,0.158,1.248c0,0.688-0.078,1.223-0.234,1.603
			c-0.157,0.38-0.375,0.697-0.652,0.954c-0.278,0.256-0.578,0.427-0.896,0.512c-0.438,0.117-0.833,0.176-1.188,0.176h-2.957
			L224.67,307.619L224.67,307.619z M226.66,309.078v3.521h0.488c0.416,0,0.712-0.047,0.888-0.139
			c0.176-0.094,0.313-0.255,0.413-0.483c0.1-0.229,0.149-0.603,0.149-1.118c0-0.684-0.111-1.149-0.334-1.402
			c-0.224-0.252-0.593-0.378-1.107-0.378L226.66,309.078L226.66,309.078z"/>
		<path fill="#000000" d="M231.639,307.619h5.336v1.376h-3.34v1.023h3.098v1.313h-3.098v1.271h3.436v1.459h-5.432V307.619z"/>
		<path fill="#000000" d="M241.172,314.063v-6.442h3.318c0.615,0,1.085,0.054,1.41,0.158c0.325,0.105,0.587,0.301,0.787,0.587
			c0.197,0.285,0.299,0.633,0.299,1.043c0,0.357-0.077,0.666-0.229,0.927c-0.151,0.259-0.36,0.469-0.628,0.631
			c-0.171,0.102-0.402,0.188-0.698,0.254c0.235,0.08,0.408,0.158,0.518,0.237c0.073,0.054,0.18,0.166,0.318,0.339
			c0.14,0.174,0.231,0.307,0.278,0.399l0.964,1.867h-2.249l-1.063-1.969c-0.135-0.255-0.255-0.42-0.36-0.496
			c-0.144-0.101-0.307-0.15-0.486-0.15h-0.177v2.615H241.172L241.172,314.063z M243.172,310.23h0.84
			c0.091,0,0.267-0.029,0.526-0.088c0.132-0.026,0.239-0.094,0.323-0.202c0.083-0.108,0.125-0.233,0.125-0.374
			c0-0.207-0.066-0.367-0.197-0.479c-0.133-0.111-0.38-0.167-0.743-0.167h-0.874V310.23z"/>
		<path fill="#000000" d="M248.225,307.619h1.995v6.442h-1.995V307.619z"/>
		<path fill="#000000" d="M251.66,307.619h1.859l2.426,3.564v-3.564h1.877v6.442h-1.877l-2.412-3.537v3.537h-1.873V307.619
			L251.66,307.619z"/>
		<path fill="#000000" d="M262.385,311.729v-1.34h3.075v2.746c-0.59,0.401-1.109,0.675-1.563,0.819
			c-0.453,0.146-0.99,0.218-1.611,0.218c-0.764,0-1.388-0.13-1.869-0.392c-0.481-0.261-0.854-0.647-1.121-1.164
			c-0.265-0.516-0.396-1.106-0.396-1.774c0-0.703,0.146-1.314,0.435-1.835c0.291-0.521,0.715-0.915,1.275-1.186
			c0.436-0.208,1.022-0.313,1.762-0.313c0.712,0,1.244,0.063,1.599,0.192c0.353,0.129,0.646,0.33,0.879,0.602
			c0.231,0.271,0.406,0.614,0.524,1.03l-1.921,0.343c-0.079-0.243-0.213-0.43-0.402-0.559c-0.188-0.129-0.43-0.192-0.723-0.192
			c-0.437,0-0.784,0.15-1.044,0.454c-0.259,0.304-0.389,0.782-0.389,1.438c0,0.697,0.131,1.195,0.394,1.494
			c0.262,0.299,0.627,0.448,1.098,0.448c0.222,0,0.435-0.032,0.637-0.098c0.202-0.064,0.434-0.175,0.693-0.328v-0.607h-1.331
			V311.729z"/>
	</g>
	<g>
		<path fill="#000000" d="M300.223,269.139l1.894-0.119c0.041,0.309,0.124,0.542,0.251,0.703c0.204,0.261,0.497,0.391,0.879,0.391
			c0.283,0,0.503-0.065,0.656-0.198c0.154-0.133,0.229-0.288,0.229-0.464c0-0.167-0.072-0.316-0.219-0.448s-0.486-0.256-1.02-0.373
			c-0.874-0.197-1.496-0.457-1.868-0.783c-0.375-0.324-0.563-0.739-0.563-1.243c0-0.331,0.097-0.644,0.288-0.938
			s0.48-0.525,0.865-0.694c0.386-0.168,0.913-0.253,1.584-0.253c0.823,0,1.451,0.154,1.884,0.46s0.688,0.793,0.771,1.461
			l-1.876,0.11c-0.05-0.291-0.154-0.502-0.314-0.633c-0.159-0.134-0.38-0.198-0.661-0.198c-0.23,0-0.405,0.05-0.522,0.146
			c-0.117,0.098-0.176,0.218-0.176,0.357c0,0.104,0.049,0.195,0.146,0.277c0.094,0.085,0.316,0.164,0.668,0.236
			c0.87,0.188,1.493,0.378,1.87,0.569c0.376,0.191,0.65,0.43,0.821,0.714c0.172,0.284,0.257,0.604,0.257,0.954
			c0,0.412-0.113,0.793-0.342,1.143c-0.229,0.349-0.55,0.612-0.959,0.793c-0.41,0.181-0.928,0.271-1.552,0.271
			c-1.096,0-1.854-0.211-2.275-0.633S300.277,269.789,300.223,269.139z"/>
		<path fill="#000000" d="M311.262,264.827h1.985v3.839c0,0.38-0.06,0.738-0.178,1.078c-0.119,0.338-0.305,0.633-0.559,0.887
			c-0.254,0.253-0.521,0.431-0.798,0.533c-0.387,0.144-0.852,0.215-1.394,0.215c-0.313,0-0.655-0.021-1.026-0.065
			c-0.37-0.044-0.681-0.131-0.93-0.261c-0.249-0.131-0.477-0.316-0.683-0.557c-0.207-0.239-0.35-0.486-0.426-0.742
			c-0.123-0.409-0.184-0.772-0.184-1.088v-3.839h1.986v3.93c0,0.351,0.097,0.626,0.292,0.823c0.193,0.196,0.465,0.297,0.811,0.297
			c0.343,0,0.611-0.099,0.807-0.293c0.194-0.194,0.292-0.472,0.292-0.827v-3.93H311.262z"/>
		<path fill="#000000" d="M314.57,264.827h3.727c0.619,0,1.099,0.152,1.431,0.462c0.332,0.307,0.498,0.688,0.498,1.143
			c0,0.381-0.117,0.707-0.355,0.979c-0.158,0.182-0.391,0.324-0.693,0.431c0.462,0.111,0.804,0.303,1.021,0.573
			c0.217,0.271,0.326,0.611,0.326,1.021c0,0.334-0.078,0.634-0.232,0.9c-0.156,0.267-0.367,0.478-0.637,0.633
			c-0.168,0.097-0.42,0.167-0.756,0.211c-0.449,0.059-0.746,0.088-0.894,0.088h-3.436V264.827L314.57,264.827z M316.578,267.354
			h0.865c0.311,0,0.528-0.053,0.648-0.16c0.121-0.105,0.183-0.262,0.183-0.463c0-0.188-0.062-0.334-0.183-0.438
			c-0.12-0.105-0.334-0.158-0.635-0.158h-0.879V267.354L316.578,267.354z M316.578,269.885h1.017c0.342,0,0.584-0.061,0.725-0.182
			s0.211-0.285,0.211-0.49c0-0.19-0.07-0.344-0.209-0.459s-0.383-0.174-0.732-0.174h-1.01L316.578,269.885L316.578,269.885z"/>
		<path fill="#000000" d="M320.903,264.827h1.891l0.683,3.605l0.996-3.605h1.883l1,3.602l0.682-3.602h1.881l-1.42,6.441h-1.953
			l-1.129-4.057l-1.127,4.057h-1.951L320.903,264.827z"/>
		<path fill="#000000" d="M334.528,270.206h-2.262l-0.313,1.063h-2.033l2.423-6.441h2.172l2.42,6.441h-2.084L334.528,270.206z
			 M334.114,268.813l-0.711-2.314l-0.703,2.314H334.114z"/>
		<path fill="#000000" d="M336.151,264.827h2.211l1.299,2.173l1.301-2.173h2.199l-2.504,3.743v2.698h-1.996v-2.698L336.151,264.827z
			"/>
	</g>
	<g>
		<path fill="#000000" d="M107.41,262.633l1.745,0.527c-0.118,0.488-0.303,0.897-0.555,1.227s-0.564,0.575-0.938,0.742
			s-0.85,0.25-1.426,0.25c-0.701,0-1.272-0.103-1.717-0.305c-0.443-0.203-0.827-0.563-1.148-1.074
			c-0.323-0.513-0.483-1.168-0.483-1.967c0-1.066,0.283-1.886,0.851-2.457c0.567-0.572,1.369-0.859,2.406-0.859
			c0.812,0,1.448,0.164,1.914,0.492c0.464,0.328,0.809,0.832,1.033,1.512l-1.758,0.392c-0.061-0.195-0.126-0.34-0.192-0.431
			c-0.111-0.152-0.247-0.27-0.408-0.352s-0.342-0.123-0.541-0.123c-0.451,0-0.797,0.182-1.037,0.545
			c-0.182,0.269-0.271,0.69-0.271,1.268c0,0.715,0.107,1.203,0.324,1.469s0.521,0.396,0.914,0.396c0.381,0,0.669-0.106,0.864-0.32
			C107.18,263.351,107.322,263.04,107.41,262.633z"/>
		<path fill="#000000" d="M109.87,262.053c0-1.052,0.293-1.871,0.879-2.457s1.402-0.879,2.448-0.879
			c1.072,0,1.898,0.288,2.479,0.864c0.58,0.575,0.87,1.382,0.87,2.419c0,0.753-0.127,1.371-0.38,1.853
			c-0.254,0.481-0.62,0.856-1.099,1.125c-0.479,0.269-1.076,0.401-1.791,0.401c-0.728,0-1.328-0.115-1.804-0.347
			c-0.478-0.231-0.862-0.599-1.158-1.1S109.87,262.806,109.87,262.053z M111.861,262.062c0,0.65,0.121,1.118,0.362,1.401
			c0.241,0.285,0.569,0.427,0.985,0.427c0.429,0,0.759-0.14,0.994-0.417c0.233-0.279,0.353-0.778,0.353-1.499
			c0-0.605-0.123-1.05-0.367-1.329c-0.245-0.278-0.577-0.42-0.996-0.42c-0.401,0-0.725,0.144-0.967,0.426
			C111.982,260.936,111.861,261.405,111.861,262.062z"/>
		<path fill="#000000" d="M121.811,258.827h1.985v3.839c0,0.38-0.06,0.738-0.178,1.078c-0.119,0.338-0.305,0.633-0.559,0.887
			c-0.253,0.253-0.521,0.431-0.797,0.533c-0.388,0.144-0.853,0.215-1.395,0.215c-0.313,0-0.655-0.021-1.026-0.065
			c-0.369-0.044-0.681-0.131-0.93-0.261c-0.249-0.131-0.477-0.316-0.683-0.557c-0.207-0.239-0.35-0.486-0.425-0.742
			c-0.123-0.409-0.185-0.772-0.185-1.088v-3.839h1.986v3.93c0,0.351,0.097,0.626,0.292,0.823c0.193,0.196,0.465,0.297,0.811,0.297
			c0.344,0,0.611-0.099,0.808-0.293c0.193-0.194,0.292-0.472,0.292-0.827v-3.93H121.811z"/>
		<path fill="#000000" d="M125.127,258.827h1.859l2.426,3.563v-3.563h1.877v6.441h-1.877L127,261.732v3.537h-1.873V258.827z"/>
		<path fill="#000000" d="M132.161,258.827h6.051v1.591h-2.029v4.852h-1.991v-4.852h-2.029L132.161,258.827L132.161,258.827z"/>
		<path fill="#000000" d="M138.461,258.827h2.211L141.97,261l1.301-2.173h2.2l-2.507,3.743v2.698h-1.993v-2.698L138.461,258.827z"/>
		<path fill="#000000" d="M153.403,262.633l1.744,0.527c-0.117,0.488-0.302,0.897-0.553,1.227c-0.254,0.328-0.565,0.575-0.938,0.742
			c-0.374,0.167-0.85,0.25-1.427,0.25c-0.7,0-1.271-0.103-1.716-0.305c-0.443-0.203-0.827-0.563-1.149-1.074
			c-0.322-0.513-0.482-1.168-0.482-1.967c0-1.066,0.283-1.886,0.851-2.457c0.566-0.572,1.369-0.859,2.406-0.859
			c0.812,0,1.448,0.164,1.914,0.492c0.464,0.328,0.809,0.832,1.034,1.512l-1.758,0.392c-0.063-0.195-0.127-0.34-0.192-0.431
			c-0.112-0.152-0.248-0.27-0.409-0.352s-0.342-0.123-0.54-0.123c-0.452,0-0.798,0.182-1.037,0.545
			c-0.183,0.269-0.273,0.69-0.273,1.268c0,0.715,0.108,1.203,0.326,1.469c0.216,0.266,0.521,0.396,0.914,0.396
			c0.38,0,0.668-0.106,0.863-0.32C153.173,263.351,153.315,263.04,153.403,262.633z"/>
		<path fill="#000000" d="M156.124,258.827h1.99v2.255h2.176v-2.255h2v6.441h-2v-2.604h-2.176v2.604h-1.99V258.827z"/>
		<path fill="#000000" d="M167.572,264.206h-2.261l-0.313,1.063h-2.032l2.422-6.441h2.172l2.421,6.441h-2.085L167.572,264.206z
			 M167.159,262.813l-0.711-2.314l-0.704,2.314H167.159z"/>
		<path fill="#000000" d="M170.59,258.827h2.617l1.01,3.92l1.004-3.92h2.615v6.441h-1.631v-4.913l-1.256,4.913h-1.476l-1.254-4.913
			v4.913h-1.631L170.59,258.827L170.59,258.827z"/>
		<path fill="#000000" d="M179.098,258.827h3.309c0.721,0,1.261,0.171,1.62,0.515c0.358,0.342,0.538,0.83,0.538,1.463
			c0,0.65-0.195,1.158-0.587,1.525c-0.392,0.364-0.988,0.549-1.79,0.549h-1.09v2.391h-2V258.827z M181.098,261.574h0.486
			c0.385,0,0.653-0.066,0.81-0.2c0.155-0.135,0.232-0.305,0.232-0.514c0-0.2-0.067-0.373-0.203-0.514
			c-0.135-0.141-0.388-0.211-0.76-0.211h-0.565V261.574L181.098,261.574z"/>
		<path fill="#000000" d="M188.802,264.206h-2.262l-0.313,1.063h-2.032l2.421-6.441h2.172l2.421,6.441h-2.085L188.802,264.206z
			 M188.389,262.813l-0.711-2.314l-0.704,2.314H188.389z"/>
		<path fill="#000000" d="M194.918,262.936v-1.34h3.076v2.746c-0.59,0.402-1.11,0.675-1.563,0.82
			c-0.453,0.145-0.99,0.217-1.611,0.217c-0.764,0-1.388-0.13-1.869-0.392c-0.481-0.261-0.854-0.647-1.121-1.163
			c-0.265-0.517-0.396-1.107-0.396-1.775c0-0.703,0.146-1.314,0.435-1.835c0.291-0.521,0.715-0.915,1.275-1.186
			c0.436-0.208,1.022-0.313,1.762-0.313c0.712,0,1.244,0.064,1.598,0.193s0.646,0.33,0.879,0.601
			c0.232,0.271,0.407,0.614,0.525,1.03l-1.921,0.343c-0.079-0.243-0.213-0.429-0.402-0.558c-0.188-0.13-0.43-0.193-0.723-0.193
			c-0.438,0-0.784,0.151-1.044,0.454c-0.259,0.304-0.39,0.783-0.39,1.438c0,0.697,0.132,1.195,0.395,1.494
			c0.262,0.299,0.627,0.448,1.097,0.448c0.223,0,0.436-0.032,0.638-0.097c0.201-0.065,0.434-0.176,0.693-0.329v-0.607h-1.332
			V262.936z"/>
		<path fill="#000000" d="M199.19,258.827h1.857l2.427,3.563v-3.563h1.876v6.441h-1.876l-2.413-3.537v3.537h-1.871V258.827z"/>
		<path fill="#000000" d="M206.668,258.827h5.336v1.376h-3.34v1.022h3.099v1.314h-3.099v1.27h3.437v1.459h-5.433V258.827z"/>
		<path fill="#000000" d="M216.178,258.827h3.727c0.621,0,1.099,0.152,1.431,0.462c0.333,0.307,0.499,0.688,0.499,1.143
			c0,0.381-0.119,0.707-0.354,0.979c-0.158,0.182-0.392,0.324-0.695,0.431c0.463,0.111,0.804,0.303,1.022,0.573
			c0.218,0.271,0.326,0.611,0.326,1.021c0,0.334-0.077,0.634-0.231,0.9c-0.156,0.267-0.368,0.478-0.638,0.633
			c-0.167,0.097-0.419,0.167-0.757,0.211c-0.447,0.059-0.745,0.088-0.892,0.088h-3.438V258.827z M218.187,261.354h0.866
			c0.31,0,0.525-0.053,0.646-0.16c0.122-0.105,0.183-0.262,0.183-0.463c0-0.188-0.061-0.334-0.183-0.438
			c-0.121-0.105-0.333-0.158-0.635-0.158h-0.879L218.187,261.354L218.187,261.354z M218.187,263.885h1.015
			c0.344,0,0.585-0.061,0.727-0.182c0.141-0.121,0.211-0.285,0.211-0.49c0-0.19-0.069-0.344-0.209-0.459s-0.384-0.174-0.731-0.174
			h-1.011L218.187,263.885L218.187,263.885z"/>
		<path fill="#000000" d="M226.982,264.206h-2.261l-0.313,1.063h-2.032l2.421-6.441h2.173l2.421,6.441h-2.085L226.982,264.206z
			 M226.569,262.813l-0.711-2.314l-0.704,2.314H226.569z"/>
		<path fill="#000000" d="M230.047,265.27v-6.441h3.318c0.615,0,1.085,0.053,1.41,0.157c0.325,0.105,0.587,0.302,0.787,0.587
			c0.197,0.285,0.299,0.634,0.299,1.044c0,0.356-0.077,0.665-0.229,0.926c-0.151,0.259-0.36,0.469-0.628,0.631
			c-0.171,0.102-0.402,0.188-0.698,0.254c0.235,0.08,0.408,0.158,0.518,0.238c0.073,0.053,0.18,0.166,0.318,0.338
			c0.14,0.174,0.231,0.307,0.278,0.399l0.964,1.867h-2.249l-1.063-1.969c-0.135-0.255-0.255-0.42-0.36-0.496
			c-0.144-0.1-0.307-0.15-0.486-0.15h-0.177v2.615H230.047L230.047,265.27z M232.047,261.438h0.84c0.091,0,0.267-0.028,0.526-0.088
			c0.132-0.026,0.239-0.094,0.323-0.202c0.083-0.107,0.125-0.232,0.125-0.374c0-0.207-0.066-0.367-0.197-0.479
			c-0.133-0.111-0.38-0.167-0.743-0.167h-0.874V261.438z"/>
	</g>
	<g>
		<path fill="#000000" d="M161.92,398.944h3.31c0.721,0,1.261,0.171,1.62,0.516c0.357,0.342,0.538,0.829,0.538,1.463
			c0,0.649-0.195,1.157-0.588,1.524c-0.391,0.365-0.987,0.549-1.79,0.549h-1.09v2.392h-2V398.944z M163.92,401.691h0.487
			c0.384,0,0.653-0.065,0.809-0.2c0.156-0.134,0.233-0.304,0.233-0.513c0-0.201-0.068-0.373-0.203-0.514
			c-0.135-0.142-0.388-0.211-0.76-0.211h-0.566V401.691L163.92,401.691z"/>
		<path fill="#000000" d="M171.624,404.323h-2.261l-0.313,1.063h-2.031l2.421-6.442h2.172l2.421,6.442h-2.085L171.624,404.323z
			 M171.211,402.93l-0.711-2.315l-0.704,2.315H171.211z"/>
		<path fill="#000000" d="M174.69,405.387v-6.442h3.316c0.615,0,1.086,0.053,1.411,0.158c0.325,0.104,0.587,0.301,0.786,0.587
			c0.199,0.285,0.299,0.633,0.299,1.043c0,0.357-0.076,0.666-0.229,0.926s-0.361,0.47-0.628,0.631
			c-0.171,0.103-0.403,0.188-0.699,0.255c0.236,0.079,0.409,0.157,0.518,0.237c0.073,0.054,0.181,0.166,0.318,0.338
			c0.14,0.175,0.232,0.308,0.279,0.4l0.964,1.867h-2.249l-1.064-1.969c-0.135-0.256-0.255-0.421-0.359-0.496
			c-0.145-0.101-0.308-0.15-0.488-0.15h-0.176v2.615H174.69L174.69,405.387z M176.689,401.555h0.84c0.091,0,0.267-0.029,0.527-0.088
			c0.132-0.026,0.238-0.095,0.322-0.202c0.083-0.108,0.125-0.233,0.125-0.374c0-0.207-0.064-0.367-0.197-0.479
			c-0.132-0.11-0.38-0.167-0.742-0.167h-0.875V401.555L176.689,401.555z"/>
		<path fill="#000000" d="M185.626,404.323h-2.261l-0.313,1.063h-2.032l2.421-6.442h2.172l2.421,6.442h-2.085L185.626,404.323z
			 M185.213,402.93l-0.711-2.315l-0.704,2.315H185.213z"/>
		<path fill="#000000" d="M188.691,398.944h2.957c0.583,0,1.055,0.079,1.413,0.237s0.654,0.385,0.89,0.682
			c0.234,0.295,0.404,0.641,0.51,1.032c0.106,0.392,0.158,0.809,0.158,1.248c0,0.688-0.078,1.223-0.234,1.602
			c-0.156,0.381-0.375,0.698-0.651,0.954c-0.279,0.256-0.578,0.428-0.896,0.513c-0.438,0.116-0.833,0.176-1.188,0.176h-2.957
			L188.691,398.944L188.691,398.944z M190.682,400.403v3.521h0.487c0.416,0,0.712-0.047,0.889-0.14
			c0.176-0.093,0.313-0.254,0.413-0.482c0.1-0.229,0.148-0.604,0.148-1.118c0-0.684-0.111-1.15-0.334-1.402
			s-0.592-0.378-1.106-0.378L190.682,400.403L190.682,400.403z"/>
		<path fill="#000000" d="M195.66,398.944h5.336v1.376h-3.34v1.023h3.098v1.313h-3.098v1.271h3.436v1.459h-5.432V398.944z"/>
		<path fill="#000000" d="M205.193,405.387v-6.442h3.318c0.614,0,1.085,0.053,1.409,0.158c0.325,0.104,0.587,0.301,0.787,0.587
			c0.198,0.285,0.299,0.633,0.299,1.043c0,0.357-0.076,0.666-0.229,0.926s-0.361,0.47-0.628,0.631
			c-0.171,0.103-0.403,0.188-0.699,0.255c0.236,0.079,0.409,0.157,0.518,0.237c0.073,0.054,0.181,0.166,0.318,0.338
			c0.14,0.175,0.232,0.308,0.279,0.4l0.964,1.867h-2.249l-1.064-1.969c-0.135-0.256-0.255-0.421-0.359-0.496
			c-0.145-0.101-0.308-0.15-0.487-0.15h-0.176v2.615H205.193L205.193,405.387z M207.193,401.555h0.839
			c0.091,0,0.267-0.029,0.527-0.088c0.132-0.026,0.238-0.095,0.322-0.202c0.083-0.108,0.125-0.233,0.125-0.374
			c0-0.207-0.065-0.367-0.196-0.479c-0.134-0.11-0.38-0.167-0.743-0.167h-0.874V401.555z"/>
		<path fill="#000000" d="M212.246,398.944h1.995v6.442h-1.995V398.944z"/>
		<path fill="#000000" d="M215.682,398.944h1.858l2.426,3.564v-3.564h1.878v6.442h-1.878l-2.411-3.537v3.537h-1.873V398.944
			L215.682,398.944z"/>
		<path fill="#000000" d="M226.406,403.053v-1.34h3.076v2.746c-0.59,0.401-1.11,0.675-1.563,0.819
			c-0.453,0.146-0.989,0.217-1.61,0.217c-0.765,0-1.389-0.13-1.869-0.391c-0.482-0.261-0.855-0.647-1.121-1.164
			c-0.265-0.516-0.397-1.106-0.397-1.774c0-0.703,0.146-1.314,0.436-1.836c0.291-0.521,0.715-0.914,1.274-1.185
			c0.437-0.208,1.023-0.313,1.763-0.313c0.712,0,1.244,0.063,1.598,0.192s0.646,0.33,0.879,0.602
			c0.232,0.271,0.407,0.613,0.525,1.029L227.474,401c-0.079-0.243-0.213-0.43-0.402-0.559c-0.188-0.129-0.43-0.192-0.723-0.192
			c-0.438,0-0.784,0.15-1.044,0.453c-0.26,0.305-0.39,0.783-0.39,1.439c0,0.697,0.131,1.195,0.395,1.494
			c0.262,0.299,0.627,0.448,1.097,0.448c0.222,0,0.435-0.032,0.637-0.098c0.202-0.064,0.435-0.175,0.694-0.329v-0.606h-1.332
			V403.053z"/>
		<path fill="#000000" d="M237.954,402.75l1.745,0.526c-0.118,0.489-0.303,0.898-0.555,1.228c-0.252,0.328-0.564,0.574-0.938,0.741
			s-0.85,0.25-1.426,0.25c-0.701,0-1.272-0.102-1.717-0.305c-0.443-0.203-0.827-0.562-1.148-1.074
			c-0.323-0.512-0.483-1.168-0.483-1.967c0-1.065,0.283-1.885,0.851-2.457s1.369-0.858,2.406-0.858c0.812,0,1.449,0.163,1.914,0.491
			c0.464,0.328,0.809,0.832,1.034,1.513l-1.759,0.392c-0.061-0.196-0.126-0.34-0.192-0.431c-0.111-0.152-0.247-0.271-0.408-0.353
			s-0.342-0.123-0.541-0.123c-0.451,0-0.797,0.183-1.037,0.545c-0.182,0.27-0.271,0.691-0.271,1.269
			c0,0.715,0.106,1.203,0.323,1.469c0.218,0.265,0.521,0.396,0.914,0.396c0.381,0,0.669-0.106,0.864-0.32
			S237.866,403.156,237.954,402.75z"/>
		<path fill="#000000" d="M240.414,402.17c0-1.053,0.293-1.871,0.879-2.457s1.402-0.879,2.448-0.879
			c1.072,0,1.898,0.287,2.479,0.863c0.579,0.575,0.869,1.382,0.869,2.419c0,0.753-0.127,1.371-0.38,1.854
			c-0.254,0.48-0.62,0.855-1.099,1.125c-0.479,0.268-1.076,0.4-1.791,0.4c-0.728,0-1.328-0.114-1.804-0.347
			c-0.478-0.23-0.862-0.598-1.158-1.099S240.414,402.923,240.414,402.17z M242.405,402.179c0,0.649,0.121,1.118,0.362,1.4
			c0.241,0.285,0.569,0.428,0.985,0.428c0.429,0,0.76-0.141,0.994-0.417c0.233-0.279,0.353-0.778,0.353-1.499
			c0-0.606-0.123-1.05-0.367-1.329c-0.245-0.279-0.577-0.42-0.996-0.42c-0.401,0-0.724,0.143-0.967,0.426
			C242.526,401.053,242.405,401.522,242.405,402.179z"/>
		<path fill="#000000" d="M248.189,405.387v-6.442h3.317c0.615,0,1.085,0.053,1.41,0.158c0.325,0.104,0.587,0.301,0.787,0.587
			c0.198,0.285,0.299,0.633,0.299,1.043c0,0.357-0.077,0.666-0.229,0.926c-0.152,0.26-0.361,0.47-0.628,0.631
			c-0.171,0.103-0.403,0.188-0.699,0.255c0.236,0.079,0.409,0.157,0.518,0.237c0.073,0.054,0.181,0.166,0.318,0.338
			c0.14,0.175,0.232,0.308,0.279,0.4l0.964,1.867h-2.249l-1.064-1.969c-0.135-0.256-0.255-0.421-0.359-0.496
			c-0.145-0.101-0.308-0.15-0.487-0.15h-0.176v2.615H248.189L248.189,405.387z M250.189,401.555h0.839
			c0.091,0,0.267-0.029,0.527-0.088c0.132-0.026,0.238-0.095,0.322-0.202c0.083-0.108,0.125-0.233,0.125-0.374
			c0-0.207-0.065-0.367-0.196-0.479c-0.134-0.11-0.381-0.167-0.743-0.167h-0.874V401.555z"/>
		<path fill="#000000" d="M255.176,398.944h1.859l2.426,3.564v-3.564h1.877v6.442h-1.877l-2.412-3.537v3.537h-1.873V398.944
			L255.176,398.944z"/>
		<path fill="#000000" d="M262.656,398.944h5.334v1.376h-3.34v1.023h3.099v1.313h-3.099v1.271h3.438v1.459h-5.432V398.944z"/>
		<path fill="#000000" d="M269.186,405.387v-6.442h3.317c0.615,0,1.085,0.053,1.41,0.158c0.325,0.104,0.587,0.301,0.787,0.587
			c0.198,0.285,0.299,0.633,0.299,1.043c0,0.357-0.077,0.666-0.229,0.926c-0.152,0.26-0.361,0.47-0.628,0.631
			c-0.171,0.103-0.403,0.188-0.699,0.255c0.236,0.079,0.409,0.157,0.518,0.237c0.073,0.054,0.181,0.166,0.318,0.338
			c0.14,0.175,0.232,0.308,0.279,0.4l0.964,1.867h-2.249l-1.064-1.969c-0.135-0.256-0.255-0.421-0.359-0.496
			c-0.145-0.101-0.308-0.15-0.487-0.15h-0.176v2.615H269.186L269.186,405.387z M271.186,401.555h0.839
			c0.091,0,0.267-0.029,0.527-0.088c0.132-0.026,0.238-0.095,0.322-0.202c0.083-0.108,0.125-0.233,0.125-0.374
			c0-0.207-0.065-0.367-0.196-0.479c-0.134-0.11-0.381-0.167-0.743-0.167h-0.874V401.555z"/>
	</g>
	<g>
		<path fill="#000000" d="M14.972,365.97h3.309c0.721,0,1.261,0.171,1.62,0.515c0.357,0.342,0.538,0.83,0.538,1.463
			c0,0.65-0.195,1.158-0.587,1.525c-0.392,0.365-0.988,0.549-1.79,0.549h-1.09v2.391h-2V365.97z M16.972,368.717h0.486
			c0.384,0,0.653-0.066,0.81-0.2c0.155-0.134,0.232-0.304,0.232-0.513c0-0.201-0.067-0.373-0.203-0.515
			c-0.135-0.141-0.388-0.211-0.76-0.211h-0.565V368.717z"/>
		<path fill="#000000" d="M24.676,371.349h-2.261l-0.313,1.063H20.07l2.421-6.441h2.172l2.421,6.441h-2.085L24.676,371.349z
			 M24.263,369.954l-0.711-2.314l-0.704,2.314H24.263z"/>
		<path fill="#000000" d="M27.743,365.97h2.958c0.582,0,1.054,0.079,1.412,0.236c0.359,0.158,0.655,0.386,0.891,0.683
			c0.233,0.295,0.404,0.64,0.511,1.032c0.105,0.392,0.157,0.809,0.157,1.248c0,0.688-0.079,1.223-0.234,1.602
			c-0.157,0.38-0.375,0.698-0.653,0.954s-0.577,0.427-0.896,0.512c-0.438,0.117-0.832,0.176-1.187,0.176h-2.958L27.743,365.97
			L27.743,365.97z M29.734,367.429v3.521h0.487c0.416,0,0.712-0.047,0.888-0.139c0.176-0.093,0.313-0.254,0.413-0.483
			c0.1-0.229,0.148-0.603,0.148-1.118c0-0.684-0.11-1.149-0.334-1.401c-0.223-0.252-0.592-0.378-1.106-0.378L29.734,367.429
			L29.734,367.429z"/>
		<path fill="#000000" d="M34.744,365.97h2.957c0.583,0,1.055,0.079,1.413,0.236c0.359,0.158,0.655,0.386,0.89,0.683
			c0.234,0.295,0.404,0.64,0.511,1.032c0.105,0.392,0.157,0.809,0.157,1.248c0,0.688-0.077,1.223-0.233,1.602
			c-0.157,0.38-0.375,0.698-0.652,0.954c-0.279,0.256-0.578,0.427-0.896,0.512c-0.438,0.117-0.833,0.176-1.188,0.176h-2.957
			L34.744,365.97L34.744,365.97z M36.734,367.429v3.521h0.488c0.416,0,0.712-0.047,0.888-0.139c0.176-0.093,0.313-0.254,0.413-0.483
			c0.1-0.229,0.148-0.603,0.148-1.118c0-0.684-0.11-1.149-0.334-1.401c-0.223-0.252-0.592-0.378-1.106-0.378L36.734,367.429
			L36.734,367.429z"/>
		<path fill="#000000" d="M41.466,369.195c0-1.052,0.293-1.871,0.88-2.457c0.586-0.586,1.401-0.879,2.447-0.879
			c1.072,0,1.898,0.288,2.479,0.864c0.58,0.575,0.87,1.382,0.87,2.419c0,0.753-0.127,1.371-0.38,1.853
			c-0.255,0.481-0.62,0.856-1.1,1.125c-0.479,0.269-1.076,0.401-1.791,0.401c-0.727,0-1.328-0.115-1.804-0.347
			c-0.478-0.231-0.862-0.599-1.158-1.1S41.466,369.948,41.466,369.195z M43.458,369.203c0,0.65,0.121,1.118,0.362,1.401
			c0.242,0.285,0.57,0.427,0.986,0.427c0.428,0,0.759-0.14,0.993-0.417c0.233-0.278,0.353-0.777,0.353-1.499
			c0-0.605-0.123-1.05-0.367-1.329c-0.245-0.278-0.577-0.42-0.996-0.42c-0.4,0-0.724,0.144-0.967,0.427
			C43.579,368.077,43.458,368.548,43.458,369.203z"/>
		<path fill="#000000" d="M53.503,369.775l1.744,0.527c-0.117,0.489-0.302,0.897-0.553,1.227c-0.253,0.328-0.565,0.575-0.938,0.742
			c-0.374,0.167-0.85,0.25-1.427,0.25c-0.7,0-1.271-0.102-1.716-0.305c-0.443-0.203-0.827-0.563-1.149-1.074
			c-0.321-0.512-0.481-1.168-0.481-1.967c0-1.066,0.283-1.886,0.85-2.457c0.567-0.572,1.369-0.859,2.406-0.859
			c0.812,0,1.449,0.164,1.914,0.492c0.464,0.328,0.809,0.832,1.035,1.512l-1.758,0.393c-0.063-0.196-0.128-0.341-0.193-0.432
			c-0.112-0.151-0.248-0.27-0.409-0.352s-0.342-0.123-0.54-0.123c-0.452,0-0.798,0.182-1.037,0.545
			c-0.183,0.269-0.272,0.691-0.272,1.268c0,0.716,0.107,1.203,0.326,1.47c0.216,0.265,0.521,0.396,0.913,0.396
			c0.381,0,0.668-0.105,0.863-0.32C53.274,370.492,53.416,370.183,53.503,369.775z"/>
		<path fill="#000000" d="M56.224,365.97h1.989v2.435l2.086-2.435h2.647l-2.351,2.432l2.455,4.011h-2.45l-1.358-2.648l-1.029,1.077
			v1.571h-1.989V365.97z"/>
		<path fill="#000000" d="M66.708,365.97h5.336v1.376h-3.34v1.022h3.099v1.314h-3.099v1.27h3.437v1.459h-5.433V365.97z"/>
		<path fill="#000000" d="M73.226,365.97h1.858l2.427,3.563v-3.563h1.877v6.441h-1.877l-2.412-3.536v3.536h-1.873V365.97z"/>
		<path fill="#000000" d="M80.257,365.97h6.052v1.591h-2.03v4.852h-1.991v-4.852h-2.029L80.257,365.97L80.257,365.97z"/>
		<path fill="#000000" d="M87.236,372.411v-6.441h3.318c0.614,0,1.085,0.053,1.409,0.158c0.325,0.104,0.587,0.301,0.787,0.587
			c0.198,0.285,0.299,0.633,0.299,1.043c0,0.356-0.076,0.666-0.229,0.926c-0.152,0.259-0.361,0.469-0.628,0.631
			c-0.171,0.102-0.403,0.188-0.699,0.254c0.236,0.08,0.409,0.158,0.519,0.238c0.072,0.053,0.18,0.166,0.317,0.338
			c0.141,0.174,0.232,0.307,0.279,0.4l0.964,1.866h-2.249l-1.063-1.969c-0.136-0.255-0.256-0.42-0.36-0.496
			c-0.145-0.1-0.308-0.149-0.487-0.149h-0.176v2.614H87.236L87.236,372.411z M89.236,368.579h0.839c0.091,0,0.267-0.028,0.527-0.088
			c0.132-0.025,0.238-0.094,0.322-0.202c0.083-0.107,0.125-0.232,0.125-0.374c0-0.206-0.065-0.366-0.196-0.479
			c-0.133-0.111-0.38-0.167-0.743-0.167h-0.874V368.579z"/>
		<path fill="#000000" d="M98.17,371.349h-2.26l-0.313,1.063h-2.032l2.421-6.441h2.172l2.421,6.441h-2.085L98.17,371.349z
			 M97.757,369.954l-0.711-2.314l-0.704,2.314H97.757z"/>
		<path fill="#000000" d="M101.224,365.97h1.857l2.426,3.563v-3.563h1.876v6.441h-1.876l-2.412-3.536v3.536h-1.871V365.97z"/>
		<path fill="#000000" d="M112.997,369.775l1.745,0.527c-0.118,0.489-0.303,0.897-0.555,1.227s-0.564,0.575-0.938,0.742
			s-0.85,0.25-1.426,0.25c-0.701,0-1.272-0.102-1.717-0.305c-0.443-0.203-0.827-0.563-1.148-1.074
			c-0.323-0.512-0.483-1.168-0.483-1.967c0-1.066,0.283-1.886,0.851-2.457c0.567-0.572,1.369-0.859,2.406-0.859
			c0.812,0,1.449,0.164,1.914,0.492c0.464,0.328,0.809,0.832,1.034,1.512l-1.759,0.393c-0.061-0.196-0.126-0.341-0.192-0.432
			c-0.111-0.151-0.247-0.27-0.408-0.352s-0.342-0.123-0.541-0.123c-0.451,0-0.797,0.182-1.037,0.545
			c-0.182,0.269-0.271,0.691-0.271,1.268c0,0.716,0.106,1.203,0.323,1.47c0.218,0.265,0.521,0.396,0.914,0.396
			c0.381,0,0.669-0.105,0.864-0.32C112.767,370.492,112.909,370.183,112.997,369.775z"/>
		<path fill="#000000" d="M115.703,365.97h5.336v1.376h-3.34v1.022h3.098v1.314h-3.098v1.27h3.436v1.459h-5.432V365.97z"/>
	</g>
	<g>
		<path fill="#000000" d="M321.62,295.194h3.31c0.721,0,1.26,0.171,1.618,0.516c0.359,0.342,0.539,0.83,0.539,1.463
			c0,0.649-0.194,1.157-0.588,1.524c-0.391,0.365-0.988,0.549-1.789,0.549h-1.09v2.392h-2V295.194L321.62,295.194z M323.62,297.941
			h0.486c0.385,0,0.653-0.065,0.809-0.2c0.156-0.134,0.234-0.304,0.234-0.513c0-0.201-0.068-0.373-0.203-0.514
			c-0.135-0.142-0.389-0.211-0.76-0.211h-0.566V297.941L323.62,297.941z"/>
		<path fill="#000000" d="M331.323,300.573h-2.26l-0.314,1.063h-2.031l2.421-6.442h2.172l2.422,6.442h-2.086L331.323,300.573z
			 M330.911,299.18l-0.711-2.315l-0.705,2.315H330.911z"/>
		<path fill="#000000" d="M333.233,295.194h2.082l1.449,4.636l1.432-4.636h2.021l-2.393,6.442h-2.158L333.233,295.194z"/>
		<path fill="#000000" d="M340.946,295.194h1.996v6.442h-1.996V295.194z"/>
		<path fill="#000000" d="M344.37,295.194h1.992v4.856h3.104v1.586h-5.098L344.37,295.194L344.37,295.194z"/>
		<path fill="#000000" d="M350.452,295.194h1.994v6.442h-1.994V295.194z"/>
		<path fill="#000000" d="M353.625,298.42c0-1.052,0.291-1.871,0.879-2.457c0.584-0.586,1.4-0.879,2.447-0.879
			c1.072,0,1.898,0.288,2.479,0.864c0.579,0.574,0.868,1.382,0.868,2.418c0,0.753-0.127,1.371-0.379,1.854
			c-0.254,0.48-0.621,0.855-1.1,1.125c-0.479,0.268-1.076,0.4-1.791,0.4c-0.727,0-1.328-0.114-1.803-0.347
			c-0.478-0.23-0.863-0.598-1.158-1.099C353.772,299.8,353.625,299.173,353.625,298.42z M355.616,298.429
			c0,0.649,0.121,1.118,0.361,1.4c0.242,0.285,0.569,0.428,0.987,0.428c0.427,0,0.759-0.141,0.992-0.417
			c0.234-0.279,0.353-0.778,0.353-1.499c0-0.606-0.123-1.05-0.367-1.329s-0.576-0.42-0.994-0.42c-0.402,0-0.725,0.143-0.967,0.426
			C355.737,297.303,355.616,297.772,355.616,298.429z"/>
		<path fill="#000000" d="M361.385,295.194h1.858l2.426,3.564v-3.564h1.877v6.442h-1.877l-2.412-3.537v3.537h-1.872V295.194
			L361.385,295.194z"/>
		<path fill="#000000" d="M371.875,295.194h3.728c0.619,0,1.098,0.153,1.43,0.462c0.332,0.308,0.498,0.688,0.498,1.144
			c0,0.381-0.117,0.707-0.355,0.979c-0.157,0.183-0.391,0.325-0.692,0.432c0.461,0.11,0.803,0.303,1.021,0.572
			c0.218,0.271,0.326,0.612,0.326,1.022c0,0.334-0.078,0.634-0.231,0.899c-0.156,0.268-0.367,0.479-0.638,0.634
			c-0.168,0.097-0.42,0.167-0.756,0.211c-0.449,0.059-0.746,0.088-0.893,0.088h-3.437V295.194L371.875,295.194z M373.883,297.721
			h0.865c0.312,0,0.527-0.053,0.648-0.16c0.121-0.105,0.182-0.262,0.182-0.463c0-0.188-0.061-0.334-0.182-0.438
			c-0.121-0.105-0.334-0.158-0.635-0.158h-0.88L373.883,297.721L373.883,297.721z M373.883,300.252h1.017
			c0.342,0,0.584-0.062,0.725-0.183c0.142-0.121,0.211-0.285,0.211-0.49c0-0.189-0.069-0.344-0.209-0.459
			c-0.139-0.114-0.383-0.174-0.731-0.174h-1.011L373.883,300.252L373.883,300.252z"/>
		<path fill="#000000" d="M382.678,300.573h-2.261l-0.313,1.063h-2.031l2.42-6.442h2.172l2.422,6.442H383L382.678,300.573z
			 M382.266,299.18l-0.711-2.315l-0.705,2.315H382.266z"/>
		<path fill="#000000" d="M385.745,301.637v-6.442h3.318c0.615,0,1.084,0.054,1.41,0.158c0.323,0.105,0.586,0.301,0.786,0.587
			c0.197,0.285,0.3,0.633,0.3,1.043c0,0.357-0.078,0.666-0.23,0.926s-0.361,0.47-0.627,0.631c-0.172,0.103-0.404,0.188-0.699,0.255
			c0.236,0.079,0.408,0.157,0.519,0.237c0.071,0.054,0.18,0.166,0.317,0.338c0.14,0.175,0.232,0.308,0.279,0.4l0.963,1.867h-2.248
			l-1.063-1.969c-0.136-0.256-0.256-0.421-0.361-0.496c-0.143-0.101-0.307-0.15-0.486-0.15h-0.176v2.615H385.745L385.745,301.637z
			 M387.745,297.805h0.838c0.092,0,0.269-0.029,0.527-0.088c0.133-0.026,0.24-0.095,0.324-0.202
			c0.082-0.108,0.125-0.233,0.125-0.374c0-0.207-0.066-0.367-0.197-0.479c-0.133-0.111-0.381-0.167-0.744-0.167h-0.873V297.805
			L387.745,297.805z"/>
	</g>
	<g>
		<path fill="#000000" d="M425.225,328.063h4.922v1.384h-2.924v1.125h2.496v1.301h-2.496v2.634h-1.998V328.063z"/>
		<path fill="#000000" d="M431.214,328.063h5.336v1.376h-3.34v1.023h3.098v1.313h-3.098v1.271h3.436v1.459h-5.432V328.063z"/>
		<path fill="#000000" d="M437.372,332.375l1.896-0.119c0.041,0.308,0.123,0.542,0.25,0.703c0.205,0.261,0.498,0.391,0.879,0.391
			c0.283,0,0.504-0.066,0.656-0.199c0.153-0.133,0.229-0.288,0.229-0.464c0-0.167-0.071-0.316-0.219-0.448s-0.486-0.256-1.02-0.373
			c-0.873-0.196-1.496-0.457-1.867-0.782c-0.375-0.324-0.563-0.739-0.563-1.243c0-0.331,0.097-0.645,0.287-0.938
			c0.191-0.294,0.48-0.524,0.865-0.693c0.387-0.169,0.914-0.254,1.584-0.254c0.824,0,1.451,0.154,1.885,0.46
			c0.433,0.307,0.688,0.794,0.771,1.462l-1.875,0.109c-0.052-0.291-0.154-0.502-0.314-0.633c-0.16-0.133-0.381-0.198-0.662-0.198
			c-0.229,0-0.406,0.05-0.522,0.147c-0.117,0.097-0.177,0.217-0.177,0.356c0,0.104,0.05,0.195,0.146,0.277
			c0.094,0.085,0.316,0.164,0.668,0.237c0.869,0.188,1.492,0.378,1.869,0.568c0.377,0.191,0.649,0.431,0.822,0.714
			c0.172,0.284,0.256,0.604,0.256,0.954c0,0.412-0.113,0.793-0.343,1.144c-0.229,0.348-0.549,0.611-0.959,0.793
			c-0.409,0.18-0.926,0.27-1.551,0.27c-1.096,0-1.854-0.211-2.274-0.633S437.427,333.025,437.372,332.375z"/>
		<path fill="#000000" d="M443.764,328.063h6.053v1.591h-2.031v4.853h-1.989v-4.853h-2.031L443.764,328.063L443.764,328.063z"/>
		<path fill="#000000" d="M450.796,328.063h1.995v6.442h-1.995V328.063z"/>
		<path fill="#000000" d="M453.587,328.063h2.082l1.448,4.636l1.433-4.636h2.02l-2.391,6.442h-2.158L453.587,328.063z"/>
		<path fill="#000000" d="M464.668,333.442h-2.261l-0.313,1.063h-2.033l2.422-6.442h2.172l2.42,6.442h-2.084L464.668,333.442z
			 M464.255,332.049l-0.711-2.315l-0.705,2.315H464.255z"/>
		<path fill="#000000" d="M467.709,328.063h1.989v4.856h3.107v1.586h-5.099v-6.442H467.709z"/>
		<path fill="#000000" d="M481,331.868l1.744,0.527c-0.116,0.489-0.303,0.898-0.555,1.227c-0.252,0.329-0.564,0.575-0.938,0.742
			c-0.374,0.167-0.851,0.25-1.427,0.25c-0.7,0-1.271-0.102-1.717-0.305c-0.443-0.203-0.826-0.563-1.147-1.074
			c-0.322-0.512-0.484-1.168-0.484-1.967c0-1.066,0.285-1.885,0.852-2.457c0.567-0.572,1.369-0.859,2.406-0.859
			c0.812,0,1.449,0.164,1.914,0.492c0.463,0.328,0.809,0.832,1.033,1.512l-1.758,0.393c-0.062-0.196-0.125-0.34-0.193-0.431
			c-0.111-0.152-0.246-0.271-0.408-0.353c-0.16-0.082-0.342-0.123-0.541-0.123c-0.451,0-0.797,0.183-1.037,0.545
			c-0.182,0.27-0.271,0.691-0.271,1.269c0,0.715,0.106,1.203,0.324,1.469c0.217,0.265,0.521,0.396,0.914,0.396
			c0.381,0,0.67-0.105,0.864-0.319S480.913,332.276,481,331.868z"/>
		<path fill="#000000" d="M483.719,328.063h1.989v2.255h2.177v-2.255h2v6.442h-2V331.9h-2.177v2.605h-1.989V328.063z"/>
		<path fill="#000000" d="M495.171,333.442h-2.263l-0.313,1.063h-2.033l2.422-6.442h2.172l2.42,6.442h-2.084L495.171,333.442z
			 M494.757,332.049l-0.711-2.315l-0.703,2.315H494.757z"/>
		<path fill="#000000" d="M498.21,328.063h1.989v4.856h3.107v1.586h-5.098L498.21,328.063L498.21,328.063z"/>
		<path fill="#000000" d="M504.209,328.063h5.334v1.376h-3.341v1.023h3.101v1.313h-3.101v1.271h3.438v1.459h-5.432V328.063z"/>
		<path fill="#000000" d="M510.259,328.063h6.051v1.591h-2.029v4.853h-1.992v-4.853h-2.028L510.259,328.063L510.259,328.063z"/>
		<path fill="#000000" d="M516.864,332.375l1.896-0.119c0.041,0.308,0.123,0.542,0.25,0.703c0.205,0.261,0.498,0.391,0.879,0.391
			c0.283,0,0.504-0.066,0.656-0.199c0.153-0.133,0.229-0.288,0.229-0.464c0-0.167-0.072-0.316-0.219-0.448
			c-0.147-0.132-0.486-0.256-1.021-0.373c-0.873-0.196-1.496-0.457-1.866-0.782c-0.375-0.324-0.563-0.739-0.563-1.243
			c0-0.331,0.096-0.645,0.287-0.938s0.479-0.524,0.865-0.693c0.387-0.169,0.914-0.254,1.584-0.254c0.823,0,1.451,0.154,1.885,0.46
			c0.432,0.307,0.688,0.794,0.77,1.462l-1.875,0.109c-0.051-0.291-0.153-0.502-0.313-0.633c-0.16-0.133-0.381-0.198-0.662-0.198
			c-0.229,0-0.406,0.05-0.523,0.147c-0.116,0.097-0.176,0.217-0.176,0.356c0,0.104,0.049,0.195,0.146,0.277
			c0.094,0.085,0.315,0.164,0.668,0.237c0.869,0.188,1.492,0.378,1.869,0.568c0.377,0.191,0.649,0.431,0.821,0.714
			c0.172,0.284,0.256,0.604,0.256,0.954c0,0.412-0.112,0.793-0.342,1.144c-0.229,0.348-0.549,0.611-0.959,0.793
			c-0.41,0.18-0.926,0.27-1.551,0.27c-1.096,0-1.854-0.211-2.275-0.633C517.159,333.561,516.919,333.025,516.864,332.375z"/>
	</g>
	<g>
		<path fill="#000000" d="M373.499,363.001h4.922v1.384h-2.922v1.125h2.496v1.301h-2.496v2.633h-2V363.001z"/>
		<path fill="#000000" d="M379.573,363.001h1.994v6.441h-1.994V363.001z"/>
		<path fill="#000000" d="M383.008,363.001h1.859l2.426,3.563v-3.563h1.877v6.441h-1.877l-2.412-3.537v3.537h-1.873V363.001
			L383.008,363.001z"/>
		<path fill="#000000" d="M394.366,368.38h-2.26l-0.314,1.063h-2.03l2.42-6.441h2.172l2.422,6.441h-2.086L394.366,368.38z
			 M393.954,366.986l-0.711-2.314l-0.705,2.314H393.954z"/>
		<path fill="#000000" d="M397.405,363.001h1.992v4.855h3.104v1.586h-5.098L397.405,363.001L397.405,363.001z"/>
		<path fill="#000000" d="M406.418,363.001h4.922v1.384h-2.922v1.125h2.496v1.301h-2.496v2.633h-2V363.001z"/>
		<path fill="#000000" d="M416.606,363.001h1.985v3.839c0,0.38-0.061,0.738-0.178,1.078c-0.119,0.338-0.305,0.633-0.559,0.887
			c-0.254,0.253-0.521,0.431-0.797,0.533c-0.388,0.144-0.853,0.215-1.396,0.215c-0.313,0-0.654-0.021-1.024-0.065
			c-0.371-0.044-0.683-0.131-0.931-0.261c-0.25-0.131-0.477-0.316-0.684-0.557c-0.207-0.239-0.348-0.486-0.424-0.742
			c-0.123-0.409-0.185-0.772-0.185-1.088V363h1.986v3.931c0,0.351,0.096,0.626,0.291,0.823c0.195,0.196,0.465,0.297,0.811,0.297
			c0.345,0,0.611-0.099,0.808-0.293c0.194-0.194,0.293-0.472,0.293-0.827v-3.93H416.606z"/>
		<path fill="#000000" d="M419.936,369.443v-6.441h3.318c0.614,0,1.084,0.053,1.409,0.157c0.324,0.105,0.586,0.302,0.787,0.587
			c0.197,0.285,0.299,0.634,0.299,1.043c0,0.357-0.077,0.666-0.229,0.927c-0.152,0.259-0.361,0.469-0.627,0.631
			c-0.172,0.102-0.404,0.188-0.699,0.254c0.236,0.08,0.408,0.158,0.519,0.238c0.071,0.053,0.18,0.166,0.317,0.338
			c0.14,0.174,0.232,0.307,0.279,0.399l0.963,1.867h-2.248l-1.063-1.969c-0.136-0.255-0.257-0.42-0.361-0.496
			c-0.144-0.1-0.307-0.15-0.486-0.15h-0.176v2.615H419.936L419.936,369.443z M421.936,365.611h0.838
			c0.092,0,0.269-0.029,0.527-0.088c0.133-0.026,0.239-0.094,0.324-0.202c0.081-0.107,0.125-0.232,0.125-0.374
			c0-0.207-0.066-0.367-0.197-0.479c-0.133-0.111-0.381-0.167-0.744-0.167h-0.873V365.611L421.936,365.611z"/>
		<path fill="#000000" d="M426.911,363.001h1.99v4.855h3.107v1.586h-5.099L426.911,363.001L426.911,363.001z"/>
		<path fill="#000000" d="M432.509,366.227c0-1.052,0.293-1.871,0.879-2.457s1.401-0.879,2.446-0.879
			c1.072,0,1.898,0.288,2.479,0.864c0.58,0.574,0.871,1.382,0.871,2.419c0,0.753-0.127,1.371-0.381,1.853
			c-0.254,0.482-0.619,0.856-1.099,1.125s-1.075,0.401-1.791,0.401c-0.727,0-1.327-0.115-1.805-0.348
			c-0.477-0.231-0.861-0.598-1.158-1.099C432.657,367.606,432.509,366.979,432.509,366.227z M434.499,366.235
			c0,0.65,0.121,1.118,0.363,1.401c0.242,0.285,0.57,0.427,0.986,0.427c0.428,0,0.758-0.14,0.994-0.417
			c0.231-0.279,0.352-0.778,0.352-1.499c0-0.605-0.123-1.05-0.367-1.329c-0.246-0.279-0.578-0.42-0.996-0.42
			c-0.401,0-0.725,0.143-0.967,0.426C434.62,365.109,434.499,365.578,434.499,366.235z"/>
		<path fill="#000000" d="M440.27,363.001h1.859l2.426,3.563v-3.563h1.877v6.441h-1.877l-2.412-3.537v3.537h-1.873V363.001
			L440.27,363.001z"/>
		<path fill="#000000" d="M450.993,367.109v-1.34h3.076v2.746c-0.59,0.402-1.11,0.675-1.563,0.82
			c-0.453,0.145-0.99,0.217-1.611,0.217c-0.764,0-1.389-0.13-1.869-0.392c-0.481-0.261-0.854-0.647-1.121-1.164
			c-0.266-0.516-0.397-1.106-0.397-1.774c0-0.703,0.146-1.314,0.436-1.835c0.291-0.521,0.715-0.915,1.275-1.186
			c0.436-0.208,1.022-0.313,1.762-0.313c0.711,0,1.244,0.063,1.598,0.193c0.353,0.129,0.646,0.329,0.879,0.601
			c0.232,0.271,0.406,0.614,0.525,1.03l-1.922,0.343c-0.078-0.243-0.213-0.429-0.402-0.558c-0.188-0.13-0.43-0.193-0.723-0.193
			c-0.437,0-0.783,0.15-1.043,0.454s-0.389,0.783-0.389,1.438c0,0.697,0.131,1.195,0.393,1.494s0.627,0.448,1.098,0.448
			c0.222,0,0.435-0.032,0.638-0.097c0.2-0.064,0.434-0.176,0.692-0.329v-0.607h-1.331V367.109z"/>
		<path fill="#000000" d="M458.278,369.443v-6.441h3.318c0.615,0,1.086,0.053,1.41,0.157c0.325,0.105,0.588,0.302,0.787,0.587
			c0.198,0.285,0.299,0.634,0.299,1.043c0,0.357-0.076,0.666-0.229,0.927c-0.151,0.259-0.36,0.469-0.629,0.631
			c-0.17,0.102-0.402,0.188-0.699,0.254c0.236,0.08,0.41,0.158,0.519,0.238c0.074,0.053,0.18,0.166,0.317,0.338
			c0.142,0.174,0.232,0.307,0.279,0.399l0.965,1.867h-2.25l-1.063-1.969c-0.136-0.255-0.254-0.42-0.359-0.496
			c-0.145-0.1-0.307-0.15-0.488-0.15h-0.176v2.615H458.278L458.278,369.443z M460.278,365.611h0.84c0.091,0,0.267-0.029,0.527-0.088
			c0.131-0.026,0.238-0.094,0.322-0.202c0.084-0.107,0.125-0.232,0.125-0.374c0-0.207-0.064-0.367-0.197-0.479
			c-0.131-0.111-0.379-0.167-0.742-0.167h-0.875V365.611z"/>
		<path fill="#000000" d="M465.249,363.001h5.337v1.376h-3.341v1.022h3.099v1.314h-3.099v1.27h3.437v1.459h-5.433V363.001z"/>
		<path fill="#000000" d="M471.405,367.313l1.896-0.119c0.041,0.309,0.123,0.542,0.25,0.703c0.205,0.261,0.498,0.391,0.879,0.391
			c0.283,0,0.504-0.065,0.656-0.198c0.153-0.134,0.231-0.288,0.231-0.464c0-0.168-0.074-0.316-0.221-0.448
			c-0.147-0.132-0.486-0.256-1.021-0.373c-0.873-0.197-1.496-0.457-1.867-0.783c-0.375-0.324-0.563-0.739-0.563-1.243
			c0-0.331,0.096-0.644,0.287-0.938c0.19-0.294,0.479-0.525,0.865-0.694c0.387-0.168,0.914-0.253,1.586-0.253
			c0.821,0,1.448,0.154,1.883,0.46c0.432,0.306,0.688,0.793,0.771,1.461l-1.877,0.11c-0.051-0.291-0.153-0.502-0.313-0.633
			c-0.16-0.134-0.381-0.198-0.662-0.198c-0.23,0-0.406,0.05-0.521,0.146c-0.118,0.099-0.176,0.218-0.176,0.357
			c0,0.104,0.047,0.195,0.146,0.276c0.094,0.086,0.315,0.164,0.668,0.237c0.869,0.188,1.491,0.378,1.869,0.569
			c0.377,0.19,0.649,0.43,0.821,0.714s0.258,0.603,0.258,0.954c0,0.412-0.114,0.793-0.344,1.143
			c-0.229,0.349-0.549,0.612-0.957,0.793c-0.412,0.181-0.928,0.271-1.553,0.271c-1.096,0-1.854-0.211-2.275-0.633
			C471.7,368.498,471.46,367.963,471.405,367.313z"/>
		<path fill="#000000" d="M477.8,363.001h6.051v1.591h-2.031v4.852h-1.99v-4.852h-2.028L477.8,363.001L477.8,363.001z"/>
		<path fill="#000000" d="M488.1,368.38h-2.26l-0.314,1.063h-2.031l2.42-6.441h2.173l2.422,6.441h-2.086L488.1,368.38z
			 M487.688,366.986l-0.711-2.314l-0.705,2.314H487.688z"/>
		<path fill="#000000" d="M495.026,363.001h1.986v3.839c0,0.38-0.062,0.738-0.179,1.078c-0.118,0.338-0.305,0.633-0.559,0.887
			c-0.254,0.253-0.52,0.431-0.797,0.533c-0.387,0.144-0.852,0.215-1.395,0.215c-0.313,0-0.654-0.021-1.025-0.065
			s-0.682-0.131-0.93-0.261c-0.25-0.131-0.478-0.316-0.685-0.557c-0.207-0.239-0.348-0.486-0.424-0.742
			c-0.123-0.409-0.184-0.772-0.184-1.088V363h1.985v3.931c0,0.351,0.097,0.626,0.291,0.823c0.195,0.196,0.465,0.297,0.812,0.297
			c0.344,0,0.61-0.099,0.807-0.293c0.195-0.194,0.293-0.472,0.293-0.827v-3.93H495.026z"/>
		<path fill="#000000" d="M498.356,369.443v-6.441h3.318c0.614,0,1.086,0.053,1.409,0.157c0.326,0.105,0.589,0.302,0.787,0.587
			c0.199,0.285,0.3,0.634,0.3,1.043c0,0.357-0.076,0.666-0.229,0.927c-0.152,0.259-0.361,0.469-0.629,0.631
			c-0.17,0.102-0.402,0.188-0.699,0.254c0.236,0.08,0.41,0.158,0.519,0.238c0.073,0.053,0.18,0.166,0.317,0.338
			c0.142,0.174,0.232,0.307,0.279,0.399l0.965,1.867h-2.25l-1.063-1.969c-0.136-0.255-0.255-0.42-0.359-0.496
			c-0.146-0.1-0.307-0.15-0.488-0.15h-0.176v2.615H498.356L498.356,369.443z M500.356,365.611h0.84c0.09,0,0.267-0.029,0.527-0.088
			c0.131-0.026,0.238-0.094,0.322-0.202c0.084-0.107,0.125-0.232,0.125-0.374c0-0.207-0.064-0.367-0.197-0.479
			c-0.131-0.111-0.379-0.167-0.742-0.167h-0.875V365.611z"/>
		<path fill="#000000" d="M509.293,368.38h-2.261l-0.313,1.063h-2.031l2.42-6.441h2.172l2.422,6.441h-2.086L509.293,368.38z
			 M508.88,366.986l-0.711-2.314l-0.705,2.314H508.88z"/>
		<path fill="#000000" d="M512.344,363.001h1.858l2.427,3.563v-3.563h1.877v6.441h-1.877l-2.412-3.537v3.537h-1.873V363.001
			L512.344,363.001z"/>
		<path fill="#000000" d="M519.375,363.001h6.052v1.591h-2.029v4.852h-1.99v-4.852h-2.03v-1.591H519.375z"/>
	</g>
	<g>
		<path fill="#000000" d="M253.35,326.789h3.309c0.721,0,1.261,0.172,1.62,0.516c0.358,0.342,0.538,0.83,0.538,1.463
			c0,0.65-0.195,1.158-0.587,1.525c-0.392,0.364-0.988,0.549-1.79,0.549h-1.09v2.391h-2V326.789L253.35,326.789z M255.35,329.536
			h0.486c0.385,0,0.653-0.065,0.81-0.199c0.155-0.135,0.232-0.305,0.232-0.514c0-0.201-0.067-0.373-0.203-0.514
			c-0.135-0.142-0.388-0.211-0.76-0.211h-0.565V329.536z"/>
		<path fill="#000000" d="M263.054,332.169h-2.262l-0.313,1.063h-2.032l2.421-6.442h2.172l2.421,6.442h-2.085L263.054,332.169z
			 M262.641,330.775l-0.711-2.314l-0.704,2.314H262.641z"/>
		<path fill="#000000" d="M266.12,326.789h2.958c0.582,0,1.054,0.079,1.412,0.237c0.359,0.158,0.655,0.385,0.891,0.683
			c0.233,0.295,0.404,0.64,0.511,1.031c0.105,0.393,0.157,0.81,0.157,1.248c0,0.688-0.078,1.224-0.234,1.603
			c-0.157,0.38-0.375,0.697-0.653,0.954c-0.278,0.256-0.577,0.427-0.896,0.512c-0.438,0.117-0.832,0.176-1.187,0.176h-2.958
			L266.12,326.789L266.12,326.789z M268.111,328.248v3.521h0.487c0.416,0,0.712-0.047,0.888-0.139
			c0.176-0.094,0.313-0.254,0.413-0.483c0.1-0.229,0.148-0.603,0.148-1.118c0-0.684-0.11-1.149-0.334-1.401
			c-0.223-0.253-0.592-0.379-1.106-0.379L268.111,328.248L268.111,328.248z"/>
		<path fill="#000000" d="M273.121,326.789h2.957c0.583,0,1.055,0.079,1.413,0.237c0.359,0.158,0.655,0.385,0.89,0.683
			c0.234,0.295,0.404,0.64,0.511,1.031c0.105,0.393,0.157,0.81,0.157,1.248c0,0.688-0.077,1.224-0.233,1.603
			c-0.157,0.38-0.375,0.697-0.652,0.954c-0.279,0.256-0.578,0.427-0.896,0.512c-0.438,0.117-0.833,0.176-1.188,0.176h-2.957
			L273.121,326.789L273.121,326.789z M275.111,328.248v3.521h0.488c0.416,0,0.712-0.047,0.888-0.139
			c0.176-0.094,0.313-0.254,0.413-0.483c0.1-0.229,0.148-0.603,0.148-1.118c0-0.684-0.11-1.149-0.334-1.401
			c-0.223-0.253-0.592-0.379-1.106-0.379L275.111,328.248L275.111,328.248z"/>
		<path fill="#000000" d="M279.844,330.016c0-1.052,0.293-1.871,0.879-2.457s1.401-0.879,2.447-0.879
			c1.072,0,1.898,0.288,2.479,0.864c0.58,0.574,0.87,1.382,0.87,2.419c0,0.753-0.127,1.371-0.38,1.853
			c-0.254,0.481-0.62,0.856-1.1,1.125c-0.479,0.269-1.076,0.401-1.791,0.401c-0.727,0-1.328-0.115-1.804-0.348
			c-0.477-0.23-0.862-0.598-1.158-1.099S279.844,330.769,279.844,330.016z M281.835,330.024c0,0.65,0.121,1.118,0.362,1.401
			c0.242,0.285,0.57,0.427,0.986,0.427c0.428,0,0.759-0.14,0.993-0.417c0.233-0.279,0.353-0.778,0.353-1.499
			c0-0.606-0.123-1.05-0.367-1.329c-0.245-0.279-0.577-0.42-0.996-0.42c-0.4,0-0.724,0.143-0.967,0.426
			C281.956,328.898,281.835,329.367,281.835,330.024z"/>
		<path fill="#000000" d="M291.881,330.596l1.744,0.526c-0.117,0.489-0.302,0.898-0.553,1.228c-0.253,0.328-0.565,0.575-0.938,0.742
			s-0.85,0.25-1.427,0.25c-0.7,0-1.271-0.103-1.716-0.306c-0.443-0.202-0.827-0.562-1.149-1.073
			c-0.321-0.513-0.481-1.168-0.481-1.968c0-1.065,0.283-1.885,0.85-2.457c0.567-0.571,1.369-0.858,2.406-0.858
			c0.813,0,1.449,0.164,1.914,0.492c0.464,0.328,0.809,0.832,1.035,1.512l-1.758,0.392c-0.063-0.195-0.127-0.34-0.193-0.431
			c-0.112-0.152-0.248-0.27-0.409-0.352s-0.342-0.123-0.54-0.123c-0.452,0-0.798,0.182-1.037,0.545
			c-0.183,0.269-0.272,0.69-0.272,1.268c0,0.715,0.107,1.203,0.326,1.469c0.216,0.266,0.521,0.396,0.914,0.396
			c0.38,0,0.668-0.106,0.862-0.32C291.651,331.313,291.793,331.003,291.881,330.596z"/>
		<path fill="#000000" d="M294.602,326.789h1.989v2.436l2.087-2.436h2.646l-2.351,2.433l2.456,4.011h-2.451l-1.358-2.648
			l-1.029,1.076v1.572h-1.989V326.789z"/>
		<path fill="#000000" d="M305.117,333.232v-6.442h3.318c0.614,0,1.085,0.054,1.41,0.158c0.324,0.105,0.587,0.301,0.786,0.587
			c0.198,0.285,0.3,0.634,0.3,1.043c0,0.357-0.077,0.666-0.229,0.927c-0.152,0.259-0.361,0.469-0.628,0.631
			c-0.171,0.102-0.403,0.188-0.699,0.254c0.236,0.08,0.409,0.158,0.519,0.238c0.072,0.053,0.18,0.166,0.317,0.338
			c0.141,0.174,0.232,0.307,0.279,0.399l0.964,1.867h-2.249l-1.063-1.969c-0.136-0.255-0.255-0.42-0.36-0.496
			c-0.144-0.1-0.307-0.15-0.487-0.15h-0.176v2.615H305.117L305.117,333.232z M307.117,329.4h0.839c0.091,0,0.268-0.029,0.527-0.088
			c0.132-0.026,0.239-0.094,0.323-0.202c0.083-0.107,0.125-0.232,0.125-0.374c0-0.207-0.066-0.367-0.197-0.479
			c-0.133-0.111-0.38-0.167-0.743-0.167h-0.874V329.4z"/>
		<path fill="#000000" d="M311.688,330.016c0-1.052,0.292-1.871,0.879-2.457c0.585-0.586,1.4-0.879,2.447-0.879
			c1.071,0,1.897,0.288,2.479,0.864c0.581,0.574,0.87,1.382,0.87,2.419c0,0.753-0.127,1.371-0.379,1.853
			c-0.254,0.481-0.621,0.856-1.1,1.125s-1.075,0.401-1.79,0.401c-0.728,0-1.328-0.115-1.805-0.348
			c-0.477-0.23-0.861-0.598-1.158-1.099C311.836,331.395,311.688,330.769,311.688,330.016z M313.678,330.024
			c0,0.65,0.12,1.118,0.361,1.401c0.242,0.285,0.57,0.427,0.987,0.427c0.427,0,0.758-0.14,0.992-0.417
			c0.233-0.279,0.352-0.778,0.352-1.499c0-0.606-0.122-1.05-0.366-1.329s-0.576-0.42-0.994-0.42c-0.402,0-0.726,0.143-0.968,0.426
			C313.799,328.898,313.678,329.367,313.678,330.024z"/>
		<path fill="#000000" d="M319.184,330.016c0-1.052,0.293-1.871,0.879-2.457s1.401-0.879,2.446-0.879
			c1.072,0,1.898,0.288,2.479,0.864c0.58,0.574,0.871,1.382,0.871,2.419c0,0.753-0.127,1.371-0.381,1.853
			c-0.254,0.482-0.619,0.856-1.099,1.125s-1.075,0.401-1.791,0.401c-0.727,0-1.327-0.115-1.805-0.348
			c-0.477-0.231-0.861-0.598-1.158-1.099C319.333,331.396,319.184,330.769,319.184,330.016z M321.174,330.024
			c0,0.65,0.121,1.118,0.363,1.401c0.242,0.285,0.57,0.427,0.986,0.427c0.428,0,0.758-0.14,0.994-0.417
			c0.231-0.279,0.352-0.778,0.352-1.499c0-0.606-0.123-1.05-0.367-1.329c-0.246-0.279-0.578-0.42-0.996-0.42
			c-0.401,0-0.725,0.143-0.967,0.426C321.295,328.898,321.174,329.367,321.174,330.024z"/>
		<path fill="#000000" d="M326.911,326.789h2.617l1.01,3.921l1.002-3.921h2.617v6.442h-1.631v-4.913l-1.256,4.913h-1.478
			l-1.254-4.913v4.913h-1.629L326.911,326.789L326.911,326.789z"/>
		<path fill="#000000" d="M335.081,331.102l1.894-0.119c0.041,0.309,0.125,0.542,0.252,0.703c0.203,0.261,0.496,0.391,0.879,0.391
			c0.283,0,0.502-0.065,0.656-0.198c0.153-0.134,0.229-0.288,0.229-0.465c0-0.167-0.074-0.315-0.219-0.447
			c-0.148-0.132-0.488-0.256-1.021-0.373c-0.875-0.197-1.496-0.457-1.868-0.783c-0.375-0.324-0.563-0.739-0.563-1.243
			c0-0.331,0.096-0.644,0.289-0.938c0.191-0.294,0.479-0.525,0.865-0.694c0.385-0.168,0.912-0.253,1.584-0.253
			c0.821,0,1.451,0.154,1.883,0.46s0.688,0.793,0.771,1.461l-1.877,0.11c-0.049-0.291-0.153-0.502-0.313-0.634
			c-0.158-0.133-0.379-0.197-0.66-0.197c-0.232,0-0.406,0.05-0.523,0.146c-0.116,0.098-0.176,0.217-0.176,0.357
			c0,0.104,0.049,0.194,0.146,0.276c0.094,0.085,0.315,0.164,0.668,0.237c0.871,0.188,1.494,0.378,1.871,0.569
			c0.375,0.19,0.649,0.43,0.819,0.714c0.172,0.284,0.258,0.603,0.258,0.954c0,0.412-0.112,0.793-0.342,1.143
			c-0.229,0.349-0.549,0.612-0.959,0.793s-0.928,0.271-1.551,0.271c-1.096,0-1.855-0.211-2.277-0.633
			C335.373,332.287,335.135,331.752,335.081,331.102z"/>
	</g>
</g>
<g id="AREAS">
	<path id="TP-TP" d="M480.974,217.464c-1.022,0-1.881-0.772-1.989-1.789l-5.006-47.211h-72.047c-1.104,0-2-0.896-2-2
		v-18.469c0-1.104,0.896-2,2-2h158.084c1.104,0,2,0.896,2,2v18.469c0,1.104-0.896,2-2,2h-72.047l-5.006,47.211
		C482.855,216.692,481.997,217.464,480.974,217.464z" stroke-width="0" />
	<path id="LR-LR" d="M370.25,191.16c-1.02,0-1.876-0.768-1.987-1.78l-5-45.22h-33.467c-1.104,0-2-0.896-2-2V123.69
		c0-1.104,0.896-2,2-2h80.907c1.104,0,2,0.896,2,2v18.47c0,1.104-0.896,2-2,2h-33.467l-4.998,45.22
		C372.126,190.393,371.27,191.16,370.25,191.16z" stroke-width="0"/>
	<path id="CP-CP" d="M14.031,438.856c-1.104,0-2-0.896-2-2v-18.47c0-1.104,0.896-2,2-2h67.353c1.104,0,2,0.896,2,2
		v18.47c0,1.104-0.896,2-2,2H14.031z" stroke-width="0"/>
	<path id="OC-OC" d="M522.683,438.856c-1.104,0-2-0.896-2-2v-18.47c0-1.104,0.896-2,2-2h88.612c1.104,0,2,0.896,2,2
		v18.47c0,1.104-0.896,2-2,2H522.683z" stroke-width="0"/>
	<path id="DS-DS" d="M564.276,249.31c-1.018,0-1.873-0.765-1.987-1.774l-4.995-44.226h-42.548c-1.104,0-2-0.896-2-2
		v-18.47c0-1.104,0.896-2,2-2h99.063c1.104,0,2,0.896,2,2v18.469c0,1.104-0.896,2-2,2H571.26l-4.996,44.226
		C566.149,248.545,565.294,249.31,564.276,249.31z" stroke-width="0"/>
	<path id="CC-CC" d="M315.725,116.877h-97.656v61.469c1.003,0,1.85-0.742,1.983-1.736l4.965-37.264h90.708
		c1.104,0,2-0.896,2-2v-18.469C317.725,117.773,316.829,116.877,315.725,116.877z" stroke-width="0"/>
	<path id="CC-CM" d="M48.413,116.877c-1.104,0-2,0.896-2,2v18.469c0,1.104,0.896,2,2,2h160.708l4.966,37.264
		c0.133,0.994,0.98,1.736,1.982,1.736v-61.469H48.413z" stroke-width="0"/>
</g>
<g id="LABELS">
	<text fid="DS-DS" transform="matrix(1 0 0 1 521.489 192.1272)" font-family="'Arial'" font-size="10">DEE ENCLOSURE</text>
	<text fid="TP-TP" transform="matrix(1 0 0 1 407.9031 157.2815)" font-family="'Arial'" font-size="10">TATTERSALLS AND PADDOCK</text>
	<text fid="LR-LR" transform="matrix(1 0 0 1 339.1375 132.9768)" font-family="'Arial'" font-size="10">LONG ROOM</text>
	<text fid="CP-CP" transform="matrix(1 0 0 1 22.1462 428.3147)" font-family="'Arial'" font-size="10">CAR PARK</text>
	<text fid="OC-OC" transform="matrix(1 0 0 1 530.0378 428.3147)" font-family="'Arial'" font-size="10">OPEN COURSE</text>
	<text fid="CC-CC" transform="matrix(1 0 0 1 228.9128 128.1643)" font-family="'Arial'" font-size="10">COUNTY STAND</text>
	<text fid="CC-CM" transform="matrix(1 0 0 1 56.0388 128.1643)" font-family="'Arial'" font-size="10">COUNTY STAND MAY FESTIVAL</text>
</g>
</svg>
