<svg>
<g id="PITCH">
	<polygon fill="#069248" points="130.941,282.471 363.377,148.275 504.41,229.699 271.974,363.897"/>
	<polygon fill="#086B38" points="130.941,282.471 152.071,270.272 293.104,351.698 271.974,363.897"/>
	<polygon fill="#086B38" points="173.201,258.073 194.333,245.872 335.365,327.297 314.233,339.498"/>
	<polygon fill="#086B38" points="215.463,233.673 236.593,221.474 377.627,302.899 356.496,315.098"/>
	<polygon fill="#086B38" points="257.726,209.272 278.854,197.073 419.887,278.498 398.76,290.698"/>
	<polygon fill="#086B38" points="299.987,184.873 321.117,172.674 462.15,254.099 441.02,266.298"/>
	<polygon fill="#086B38" points="342.246,160.474 363.379,148.274 504.41,229.699 483.277,241.9"/>
	<polygon fill="none" stroke="#FFFFFF" points="149.64,282.531 363.48,159.071 485.709,229.639 
		271.868,353.1"/>
	<rect x="317.674" y="185.517" fill="none" stroke="#FFFFFF" width="0" height="141.136"/>
	<path fill="none" stroke="#FFFFFF" d="M289.468,239.801c15.405-8.894,40.521-8.813,56.099,0.182
		c15.576,8.993,15.717,23.494,0.313,32.387c-15.403,8.894-40.519,8.813-56.096-0.181
		C274.206,263.195,274.064,248.695,289.468,239.801z"/>
	<polygon fill="none" stroke="#FFFFFF" points="182.548,301.531 210.44,285.428 266.852,317.997 
		238.959,334.101"/>
	<polygon fill="none" stroke="#FFFFFF" points="191.949,306.958 205.895,298.906 243.504,320.621 
		229.559,328.673"/>
	<path fill="none" stroke="#FFFFFF" d="M252.592,293.66c-8.76-5.057-22.029-5.868-32.132-2.447l36.373,21
		C262.755,306.377,261.353,298.719,252.592,293.66z"/>
	<polygon fill="none" stroke="#FFFFFF" points="368.498,194.173 396.391,178.07 452.803,210.639 
		424.908,226.743"/>
	<polygon fill="none" stroke="#FFFFFF" points="391.844,191.549 405.789,183.498 443.398,205.212 
		429.453,213.264"/>
	<path fill="none" stroke="#FFFFFF" d="M382.756,218.511c-8.76-5.058-10.162-12.72-4.238-18.553l36.373,21
		C404.785,224.377,391.516,223.569,382.756,218.511z"/>
</g>
<g id="STANDS">
	<rect x="600.736" y="220.874" fill="#B7B7B7" width="77.209" height="13.264"/>
	<polygon fill="#CCCCCC" points="621.166,245.934 291.587,436.216 291.587,422.822 621.166,232.539"/>
	<polygon fill="#CCCCCC" points="291.587,436.216 257.278,416.391 257.278,402.996 291.587,422.822"/>
	<polygon fill="#999999" points="257.132,382.156 209.512,409.649 209.512,396.254 257.132,368.761"/>
	<polygon fill="#CCCCCC" points="209.512,409.649 43.95,314.062 43.95,300.666 209.512,396.254"/>
	<polygon fill="#CCCCCC" points="100.99,281.129 7.115,226.93 7.115,213.535 100.99,267.734"/>
	<polygon fill="#CCCCCC" points="398.127,108.403 384.947,100.793 384.947,87.399 398.127,95.008"/>
	<polygon fill="#CCCCCC" points="492.398,229.958 362.967,155.231 362.967,141.836 492.398,216.563"/>
	<polygon fill="#999999" points="142.06,282.772 362.967,155.231 362.967,141.836 142.06,269.376"/>
	<path fill="#E5E5E5" d="M384.947,87.399l13.18,7.609l-28.107,16.228l-105.48-60.899L93.921,148.843l-47.997,35.842l-38.81,28.851
		l93.875,54.199l-57.04,32.932l165.562,95.588l47.62-27.493l0.146,34.235l34.31,19.825l329.579-190.283l-20.43-11.796l77.209,0.131
		l0.27-19.914L433.234,59.52L384.947,87.399z M142.06,269.376l215.692-124.531l5.215-3.01l127.75,73.757l1.682,0.971
		L271.492,344.104L142.06,269.376z"/>
</g>
<g id="AREAS">
	<polygon id="TB-TB1" stroke-width="0" points="216.788,84.603 264.576,57.013 305.875,80.858 258.087,108.448"/>
	<polygon id="TB-TB2" stroke-width="0" points="159.325,117.78 215.009,85.631 256.309,109.475 200.625,141.624"/>
	<polygon id="TB-TB3" stroke-width="0" points="101.855,150.96 157.534,118.814 198.834,142.658 143.155,174.804"/>
	<polygon id="TB-TB5" stroke-width="0" points="62.697,238.969 18,213.164 49.932,189.426 90.031,212.577"/>
	<polygon id="TB-TB4" stroke-width="0" points="100.086,151.981 141.359,175.842 108.346,194.901 91.394,211.268 51.521,188.248"/>
	<polygon id="MS-MS1" stroke-width="0" points="259.894,109.491 307.682,81.901 361.033,112.704 313.247,140.294"/>
	<polygon id="MS-MS2" stroke-width="0" points="173.125,159.588 258.116,110.518 311.468,141.321 226.477,190.39"/>
	<polygon id="MS-MS3" stroke-width="0" points="111.156,195.365 171.342,160.617 224.694,191.42 164.507,226.168"/>
	<polygon id="MS-MS4" stroke-width="0" points="109.358,196.404 162.71,227.206 127.321,247.638 83.128,222.123"/>
	<polygon id="MS-MS5" stroke-width="0" points="81.782,223.422 125.524,248.676 102.516,261.959 64.562,240.046"/>
	<polygon id="FE-FE1" stroke-width="0" points="361.688,135.877 357.717,138.169 339.13,127.438 361.557,114.49"/>
	<polygon id="FE-FE2" stroke-width="0" points="300.886,149.518 337.332,128.476 355.918,139.207 319.473,160.249"/>
	<polygon id="FE-FE3" stroke-width="0" points="262.643,171.597 299.089,150.555 317.676,161.286 281.229,182.329"/>
	<polygon id="FE-FE4" stroke-width="0" points="247.354,192.199 271.063,178.511 279.452,183.355 255.743,197.043"/>
	<polygon id="FE-FE5" stroke-width="0" points="208.005,214.918 231.714,201.229 240.103,206.073 216.393,219.761"/>
	<polygon id="FE-FE6" stroke-width="0" points="182.508,229.638 206.215,215.951 214.604,220.794 190.896,234.482"/>
	<polygon id="FE-FE7" stroke-width="0" points="146.811,238.473 170.52,224.785 189.106,235.516 165.397,249.204"/>
	<polygon id="FE-FE8" stroke-width="0" points="120.864,253.454 144.573,239.765 163.16,250.496 139.451,264.185"/>
	<polygon id="FE-FE9" stroke-width="0" points="104.892,262.675 119.539,254.219 138.125,264.95 132.7,268.082"/>
	<polygon id="GS-GS5" stroke-width="0" points="669.832,216.138 595.016,216.012 595.217,202.142 554.678,178.737 591.438,157.514 
		670.012,202.879"/>
	<polygon id="GS-GS4" stroke-width="0" points="501.957,148.298 538.717,127.075 589.631,156.471 552.871,177.694"/>
	<polygon id="GS-GS3" stroke-width="0" points="462.414,125.469 499.174,104.246 536.908,126.031 500.148,147.255"/>
	<polygon id="GS-GS2" stroke-width="0" points="422.873,102.639 459.631,81.416 497.365,103.202 460.607,124.425"/>
	<polygon id="GS-GS1" stroke-width="0" points="396.512,87.419 433.27,66.197 457.824,80.372 421.064,101.594"/>
	<polygon id="GT-GT8" stroke-width="0" points="592.658,202.74 569.115,189.147 533.18,209.894 543.615,215.919 592.479,215.999"/>
	<polygon id="GT-GT7" stroke-width="0" points="502.686,215.844 496.543,212.301 552.881,179.774 567.309,188.103 529.574,209.889 
		540.01,215.913"/>
	<polygon id="GT-GT6" stroke-width="0" points="470.182,197.08 526.52,164.554 551.074,178.731 494.736,211.258"/>
	<polygon id="GT-GT5" stroke-width="0" points="443.822,181.862 500.16,149.336 524.711,163.51 468.373,196.036"/>
	<polygon id="GT-GT4" stroke-width="0" points="417.461,166.642 473.799,134.115 498.352,148.292 442.014,180.818"/>
	<polygon id="GT-GT3" stroke-width="0" points="459.713,125.984 471.99,133.072 443.814,149.34 415.652,165.598 403.375,158.51 
		391.098,151.422 419.26,135.163 447.436,118.895"/>
	<polygon id="GT-GT2" stroke-width="0" points="364.738,136.203 421.076,103.676 445.629,117.852 389.291,150.378"/>
	<polygon id="GT-GT1" stroke-width="0" points="380.646,111.798 407.895,96.066 419.268,102.632 392.018,118.364"/>
	<polygon id="PK-PK5" stroke-width="0" points="540.031,217.377 490.037,246.24 471.316,235.432 502.693,217.317"/>
	<polygon id="PK-PK4" stroke-width="0" points="418.264,266.062 469.525,236.466 488.248,247.274 436.984,276.87"/>
	<polygon id="PK-PK3" stroke-width="0" points="365.209,296.694 416.471,267.098 435.189,277.906 383.93,307.501"/>
	<polygon id="PK-PK2" stroke-width="0" points="325.413,319.669 363.424,297.724 382.145,308.532 344.133,330.478"/>
	<polygon id="PK-LV4" stroke-width="0" points="285.617,342.646 323.622,320.703 342.342,331.512 304.338,353.453"/>
	<polygon id="PK-LV3" stroke-width="0" points="265.25,354.406 283.821,343.683 302.542,354.491 265.339,375.97"/>
	<polygon id="LB-LB6" stroke-width="0" points="580.961,217.45 528.773,247.581 510.053,236.774 543.623,217.391"/>
	<polygon id="LB-LB5" stroke-width="0" points="468.615,260.697 508.252,237.813 526.973,248.62 487.336,271.504"/>
	<polygon id="LB-LB4" stroke-width="0" points="427.188,284.615 466.824,261.732 485.543,272.539 445.906,295.423"/>
	<polygon id="LB-LB3" stroke-width="0" points="385.738,308.546 425.387,285.656 444.105,296.463 404.459,319.354"/>
	<polygon id="LB-LB2" stroke-width="0" points="345.941,331.523 383.953,309.577 402.672,320.385 364.662,342.33"/>
	<polygon id="LB-LV2" stroke-width="0" points="306.147,354.498 344.152,332.557 362.871,343.365 324.867,365.307"/>
	<polygon id="LB-LV1" stroke-width="0" points="265.365,378.044 304.35,355.535 323.07,366.344 265.452,399.61"/>
	<polygon id="UB-UB6" stroke-width="0" points="534.527,246.346 584.041,217.76 609.604,232.518 560.088,261.105"/>
	<polygon id="UB-UB5" stroke-width="0" points="483.232,275.961 532.736,247.38 558.299,262.138 508.795,290.719"/>
	<polygon id="UB-UB4" stroke-width="0" points="444.752,298.177 481.436,276.998 506.998,291.756 470.314,312.936"/>
	<polygon id="UB-UB3" stroke-width="0" points="406.266,320.398 442.951,299.217 468.514,313.976 431.828,335.156"/>
	<polygon id="UB-UB2" stroke-width="0" points="366.471,343.374 404.48,321.428 430.043,336.187 392.033,358.132"/>
	<polygon id="UB-UV2" stroke-width="0" points="326.674,366.35 364.68,344.407 390.24,359.166 352.236,381.109"/>
	<polygon id="UB-UV1" stroke-width="0" points="265.988,401.387 324.878,367.387 350.441,382.146 291.551,416.145"/>
	<polygon id="PE-PE7" stroke-width="0" points="262.726,358.833 209.477,389.577 199.303,383.703 262.647,347.131"/>
	<polygon id="PE-PE6" stroke-width="0" points="175.339,369.867 239.964,332.557 262.119,345.348 197.494,382.659"/>
	<polygon id="PE-PE5" stroke-width="0" points="151.374,356.031 215.999,318.721 238.155,331.513 173.531,368.824"/>
	<polygon id="PE-PE4" stroke-width="0" points="115.427,335.278 180.052,297.967 214.189,317.677 149.565,354.988"/>
	<polygon id="PE-PE3" stroke-width="0" points="91.462,321.442 156.087,284.13 178.244,296.923 113.62,334.235"/>
	<polygon id="PE-PE2" stroke-width="0" points="67.497,307.605 132.121,270.294 154.279,283.087 89.654,320.398"/>
	<polygon id="PE-PE1" stroke-width="0" points="129.049,269.98 65.688,306.561 55.515,300.687 108.749,269.952"/>
</g>
<g id="AREAS">
	<text fid="TB-TB5" transform="matrix(1 0 0 1 44.8457 216.865)" fill="#F2F2F2" font-family="'Arial'" font-size="10">TB5</text>
	<text fid="TB-TB4" transform="matrix(1 0 0 1 87.2695 184.2913)" fill="#F2F2F2" font-family="'Arial'" font-size="10">TB4</text>
	<text fid="TB-TB3" transform="matrix(1 0 0 1 141.1748 149.4763)" fill="#F2F2F2" font-family="'Arial'" font-size="10">TB3</text>
	<text fid="TB-TB2" transform="matrix(1 0 0 1 198.647 116.2942)" fill="#F2F2F2" font-family="'Arial'" font-size="10">TB2</text>
	<text fid="TB-TB1" transform="matrix(1 0 0 1 252.1616 85.3972)" fill="#F2F2F2" font-family="'Arial'" font-size="10">TB1</text>
	<text fid="MS-MS5" transform="matrix(1 0 0 1 84.7622 245.3577)" fill="#F2F2F2" font-family="'Arial'" font-size="10">MS5</text>
	<text fid="MS-MS4" transform="matrix(1 0 0 1 112.6382 224.6882)" fill="#F2F2F2" font-family="'Arial'" font-size="10">MS4</text>
	<text fid="MS-MS3" transform="matrix(1 0 0 1 157.644 196.0603)" fill="#F2F2F2" font-family="'Arial'" font-size="10">MS3</text>
	<text fid="MS-MS2" transform="matrix(1 0 0 1 232.0156 153.1213)" fill="#F2F2F2" font-family="'Arial'" font-size="10">MS2</text>
	<text fid="MS-MS1" transform="matrix(1 0 0 1 300.1826 113.7639)" fill="#F2F2F2" font-family="'Arial'" font-size="10">MS1</text>
	<text fid="FE-FE2" transform="matrix(1 0 0 1 319.2319 147.0295)" fill="#F2F2F2" font-family="'Arial'" font-size="10">FE2</text>
	<text fid="FE-FE3" transform="matrix(1 0 0 1 282.2671 168.738)" fill="#F2F2F2" font-family="'Arial'" font-size="10">FE3</text>
	<text fid="FE-FE4" transform="matrix(1 0 0 1 257.9009 189.3772)" fill="#F2F2F2" font-family="'Arial'" font-size="6">FE4</text>
	<text fid="FE-FE5" transform="matrix(1 0 0 1 218.5518 212.0959)" fill="#F2F2F2" font-family="'Arial'" font-size="6">FE5</text>
	<text fid="FE-FE6" transform="matrix(1 0 0 1 193.0542 226.8167)" fill="#F2F2F2" font-family="'Arial'" font-size="6">FE6</text>
	<text fid="FE-FE7" transform="matrix(1 0 0 1 158.7886 239.6619)" fill="#F2F2F2" font-family="'Arial'" font-size="10">FE7</text>
	<text fid="FE-FE8" transform="matrix(1 0 0 1 132.8418 254.6418)" fill="#F2F2F2" font-family="'Arial'" font-size="10">FE8</text>
	<text fid="FE-FE9" transform="matrix(1 0 0 1 115.0068 262.7507)" fill="#F2F2F2" font-family="'Arial'" font-size="6">FE9</text>
	<text fid="FE-FE1" transform="matrix(1 0 0 1 347.9072 127.9294)" fill="#F2F2F2" font-family="'Arial'" font-size="6">FE1</text>
	<text fid="GS-GS1" transform="matrix(1 0 0 1 417.1631 86.5627)" fill="#F2F2F2" font-family="'Arial'" font-size="10">GS1</text>
	<text fid="GS-GS2" transform="matrix(1 0 0 1 450.1143 105.2161)" fill="#F2F2F2" font-family="'Arial'" font-size="10">GS2</text>
	<text fid="GS-GS3" transform="matrix(1 0 0 1 489.6563 128.4177)" fill="#F2F2F2" font-family="'Arial'" font-size="10">GS3</text>
	<text fid="GS-GS4" transform="matrix(1 0 0 1 535.7891 155.052)" fill="#F2F2F2" font-family="'Arial'" font-size="10">GS4</text>
	<text fid="GS-GS5" transform="matrix(1 0 0 1 602.3398 189.4934)" fill="#F2F2F2" font-family="'Arial'" font-size="10">GS5</text>
	<text fid="GT-GT1" transform="matrix(1 0 0 1 394.123 108.8157)" fill="#F2F2F2" font-family="'Arial'" font-size="6">GT1</text>
	<text fid="GT-GT2" transform="matrix(1 0 0 1 395.46 129.6946)" fill="#F2F2F2" font-family="'Arial'" font-size="10">GT2</text>
	<text fid="GT-GT3" transform="matrix(1 0 0 1 421.8203 144.9143)" fill="#F2F2F2" font-family="'Arial'" font-size="10">GT3</text>
	<text fid="GT-GT4" transform="matrix(1 0 0 1 448.1826 160.1335)" fill="#F2F2F2" font-family="'Arial'" font-size="10">GT4</text>
	<text fid="GT-GT5" transform="matrix(1 0 0 1 474.543 175.3533)" fill="#F2F2F2" font-family="'Arial'" font-size="10">GT5</text>
	<text fid="GT-GT6" transform="matrix(1 0 0 1 500.9043 190.5725)" fill="#F2F2F2" font-family="'Arial'" font-size="10">GT6</text>
	<text fid="GT-GT7" transform="matrix(1 0 0 1 526.0918 199.4436)" fill="#F2F2F2" font-family="'Arial'" font-size="6">GT7</text>
	<text fid="GT-GT8" transform="matrix(1 0 0 1 553.1953 205.2405)" fill="#F2F2F2" font-family="'Arial'" font-size="10">GT8</text>
	<text fid="PK-LV3" transform="matrix(1 0 0 1 275.3701 358.4944)" fill="#F2F2F2" font-family="'Arial'" font-size="10">LV3</text>
	<text fid="PK-LV4" transform="matrix(1 0 0 1 305.4541 339.7454)" fill="#F2F2F2" font-family="'Arial'" font-size="10">LV4</text>
	<text fid="PK-PK2" transform="matrix(1 0 0 1 344.3281 316.7678)" fill="#F2F2F2" font-family="'Arial'" font-size="10">PK2</text>
	<text fid="PK-PK3" transform="matrix(1 0 0 1 390.749 289.967)" fill="#F2F2F2" font-family="'Arial'" font-size="10">PK3</text>
	<text fid="PK-PK4" transform="matrix(1 0 0 1 443.8057 259.3347)" fill="#F2F2F2" font-family="'Arial'" font-size="10">PK4</text>
	<text fid="PK-PK5" transform="matrix(1 0 0 1 496.2236 229.446)" fill="#F2F2F2" font-family="'Arial'" font-size="10">PK5</text>
	<text fid="LB-LV1" transform="matrix(1 0 0 1 285.6919 375.2395)" fill="#F2F2F2" font-family="'Arial'" font-size="10">LV1</text>
	<text fid="LB-LV2" transform="matrix(1 0 0 1 325.9839 351.5989)" fill="#F2F2F2" font-family="'Arial'" font-size="10">LV2</text>
	<text fid="LB-LB2" transform="matrix(1 0 0 1 365.4102 328.2493)" fill="#F2F2F2" font-family="'Arial'" font-size="10">LB2</text>
	<text fid="LB-LB3" transform="matrix(1 0 0 1 406.0254 304.8)" fill="#F2F2F2" font-family="'Arial'" font-size="10">LB3</text>
	<text fid="LB-LB4" transform="matrix(1 0 0 1 447.4688 281.2444)" fill="#F2F2F2" font-family="'Arial'" font-size="10">LB4</text>
	<text fid="LB-LB5" transform="matrix(1 0 0 1 488.8975 257.3254)" fill="#F2F2F2" font-family="'Arial'" font-size="10">LB5</text>
	<text fid="LB-LB6" transform="matrix(1 0 0 1 536.6104 230.1536)" fill="#F2F2F2" font-family="'Arial'" font-size="10">LB6</text>
	<text fid="UB-UV1" transform="matrix(1 0 0 1 298.4883 394.4338)" fill="#F2F2F2" font-family="'Arial'" font-size="10">UV1</text>
	<text fid="UB-UV2" transform="matrix(1 0 0 1 348.7305 365.425)" fill="#F2F2F2" font-family="'Arial'" font-size="10">UV2</text>
	<text fid="UB-UB2" transform="matrix(1 0 0 1 388.5303 342.4465)" fill="#F2F2F2" font-family="'Arial'" font-size="10">UB2</text>
	<text fid="UB-UB3" transform="matrix(1 0 0 1 427.6631 319.8538)" fill="#F2F2F2" font-family="'Arial'" font-size="10">UB3</text>
	<text fid="UB-UB4" transform="matrix(1 0 0 1 466.1484 297.634)" fill="#F2F2F2" font-family="'Arial'" font-size="10">UB4</text>
	<text fid="UB-UB5" transform="matrix(1 0 0 1 511.0391 271.717)" fill="#F2F2F2" font-family="'Arial'" font-size="10">UB5</text>
	<text fid="UB-UB6" transform="matrix(1 0 0 1 562.3389 242.0994)" fill="#F2F2F2" font-family="'Arial'" font-size="10">UB6</text>
	<text fid="PE-PE1" transform="matrix(1 0 0 1 85.6113 288.8567)" fill="#F2F2F2" font-family="'Arial'" font-size="6">PE1</text>
	<text fid="PE-PE2" transform="matrix(1 0 0 1 101.437 298.0129)" fill="#F2F2F2" font-family="'Arial'" font-size="10">PE2</text>
	<text fid="PE-PE3" transform="matrix(1 0 0 1 125.4023 311.8489)" fill="#F2F2F2" font-family="'Arial'" font-size="10">PE3</text>
	<text fid="PE-PE6" transform="matrix(1 0 0 1 209.2783 360.2747)" fill="#F2F2F2" font-family="'Arial'" font-size="10">PE6</text>
	<text fid="PE-PE4" transform="matrix(1 0 0 1 155.3574 329.1438)" fill="#F2F2F2" font-family="'Arial'" font-size="10">PE4</text>
	<text fid="PE-PE5" transform="matrix(1 0 0 1 185.314 346.4397)" fill="#F2F2F2" font-family="'Arial'" font-size="10">PE5</text>
	<text fid="PE-PE7" transform="matrix(1 0 0 1 227.3438 371.9543)" fill="#F2F2F2" font-family="'Arial'" font-size="6">PE7</text>
</g>
<g id="STAND-LABELS">
	<g>
		<path fill="#CCCCCC" d="M62.681,140.499l4.773-2.756l5.998,3.463c-0.85,1.007-2.051,1.958-3.604,2.854
			c-1.704,0.984-3.52,1.457-5.444,1.42c-1.925-0.037-3.809-0.587-5.65-1.65c-1.796-1.037-2.686-2.139-2.667-3.304
			c0.02-1.165,0.947-2.278,2.782-3.337c0.696-0.402,1.418-0.743,2.169-1.023c0.749-0.281,1.455-0.495,2.116-0.643l1.414,1.908
			c-1.192,0.231-2.265,0.622-3.218,1.172c-0.873,0.504-1.261,1.059-1.167,1.663c0.095,0.604,0.672,1.214,1.733,1.825
			c1.04,0.602,2.05,0.935,3.025,1c0.978,0.066,1.872-0.135,2.684-0.604c0.443-0.256,0.808-0.518,1.095-0.782l-1.743-1.007
			l-1.974,1.141L62.681,140.499z"/>
		<path fill="#CCCCCC" d="M80.993,131.008c1.872,1.082,2.84,2.166,2.9,3.256c0.062,1.09-0.787,2.143-2.547,3.158
			c-1.735,1.002-3.555,1.487-5.46,1.456c-1.904-0.031-3.793-0.587-5.665-1.669c-1.853-1.068-2.807-2.15-2.864-3.246
			c-0.055-1.096,0.793-2.15,2.548-3.163c1.76-1.017,3.579-1.507,5.455-1.471C77.238,129.365,79.115,129.924,80.993,131.008z
			 M73.383,135.402c2.151,1.242,3.97,1.435,5.458,0.575c0.757-0.438,1.057-0.912,0.899-1.424c-0.158-0.514-0.789-1.09-1.895-1.729
			c-1.111-0.641-2.117-1.008-3.019-1.1c-0.9-0.092-1.719,0.074-2.455,0.499C70.874,133.088,71.211,134.148,73.383,135.402z"/>
		<path fill="#CCCCCC" d="M93.337,123.881c1.872,1.082,2.84,2.166,2.9,3.256c0.062,1.09-0.787,2.143-2.547,3.158
			c-1.735,1.002-3.555,1.487-5.46,1.456c-1.904-0.031-3.793-0.587-5.665-1.669c-1.853-1.068-2.807-2.15-2.864-3.246
			c-0.055-1.096,0.793-2.15,2.548-3.163c1.76-1.017,3.579-1.507,5.455-1.471C89.583,122.238,91.459,122.797,93.337,123.881z
			 M85.728,128.275c2.151,1.242,3.97,1.435,5.458,0.575c0.757-0.438,1.057-0.912,0.899-1.424c-0.158-0.514-0.789-1.09-1.894-1.729
			c-1.111-0.641-2.117-1.008-3.02-1.1c-0.9-0.092-1.719,0.074-2.455,0.499C83.218,125.961,83.556,127.021,85.728,128.275z"/>
		<path fill="#CCCCCC" d="M104.5,117.182c1.856,1.072,2.781,2.191,2.769,3.358s-0.938,2.281-2.778,3.344l-3.578,2.065l-11.128-6.424
			l3.828-2.211c1.774-1.023,3.602-1.552,5.481-1.582C100.972,115.703,102.774,116.186,104.5,117.182z M101.505,119.033
			c-1.021-0.588-1.977-0.909-2.87-0.962s-1.748,0.157-2.565,0.628l-0.87,0.502l6.233,3.6l0.666-0.385
			c0.907-0.523,1.308-1.061,1.202-1.611S102.596,119.664,101.505,119.033z"/>
		<path fill="#CCCCCC" d="M112.282,119.386l-11.128-6.425l3.003-1.734l11.128,6.426L112.282,119.386z"/>
		<path fill="#CCCCCC" d="M121.526,110.147c0.69,0.398,1.13,0.852,1.316,1.361c0.188,0.511,0.103,1.041-0.257,1.59
			c-0.358,0.551-0.978,1.08-1.86,1.59c-0.736,0.425-1.407,0.751-2.011,0.979c-0.602,0.229-1.303,0.423-2.101,0.585l-2.68-1.547
			c0.864-0.158,1.687-0.367,2.467-0.628c0.78-0.26,1.427-0.538,1.941-0.835c0.444-0.257,0.692-0.488,0.744-0.697
			c0.052-0.209-0.043-0.385-0.287-0.525c-0.152-0.088-0.328-0.14-0.525-0.158c-0.197-0.018-0.446-0.008-0.748,0.031
			c-0.3,0.039-1.029,0.186-2.186,0.438c-1.051,0.225-1.912,0.354-2.581,0.383c-0.67,0.029-1.293-0.021-1.868-0.152
			c-0.575-0.131-1.137-0.355-1.685-0.672c-1.025-0.592-1.453-1.268-1.285-2.025c0.168-0.76,0.899-1.514,2.195-2.262
			c1.145-0.66,2.579-1.181,4.301-1.561l1.407,1.869c-1.511,0.321-2.642,0.699-3.393,1.133c-0.388,0.225-0.603,0.427-0.643,0.607
			c-0.038,0.182,0.043,0.33,0.246,0.447c0.218,0.127,0.525,0.174,0.922,0.145c0.397-0.03,1.321-0.2,2.771-0.51
			c1.385-0.301,2.51-0.416,3.375-0.344C119.967,109.459,120.775,109.713,121.526,110.147z"/>
		<path fill="#CCCCCC" d="M131.384,101.914c1.872,1.082,2.84,2.166,2.9,3.256c0.062,1.09-0.787,2.143-2.547,3.158
			c-1.734,1.002-3.555,1.487-5.46,1.456c-1.904-0.031-3.793-0.587-5.665-1.669c-1.853-1.068-2.807-2.15-2.864-3.246
			c-0.056-1.096,0.793-2.15,2.548-3.163c1.76-1.017,3.579-1.507,5.456-1.471C127.63,100.271,129.506,100.83,131.384,101.914z
			 M123.775,106.308c2.151,1.242,3.97,1.435,5.458,0.575c0.757-0.438,1.057-0.912,0.9-1.424c-0.158-0.514-0.789-1.09-1.895-1.729
			c-1.111-0.641-2.117-1.008-3.02-1.1c-0.899-0.092-1.718,0.074-2.455,0.499C121.266,103.994,121.604,105.054,123.775,106.308z"/>
		<path fill="#CCCCCC" d="M149.49,97.905l-3.918,2.262l-11.879-2.194l-0.068,0.039c1.328,0.657,2.317,1.173,2.966,1.548l5.017,2.896
			l-2.647,1.527l-11.128-6.424l3.903-2.254l11.757,2.142l0.046-0.026c-1.193-0.606-2.128-1.106-2.808-1.499l-5.031-2.905
			l2.663-1.537L149.49,97.905z"/>
		<path fill="#CCCCCC" d="M154.842,90.138l4.05,2.338l-2.988,1.726l-11.128-6.426l3.623-2.092c3.005-1.734,5.604-1.97,7.796-0.704
			c1.289,0.744,1.66,1.681,1.116,2.81l8.071,0.939l-3.389,1.957l-6.395-0.984L154.842,90.138z M152.581,88.832l0.56-0.322
			c1.044-0.604,1.102-1.172,0.173-1.709c-0.767-0.441-1.661-0.367-2.685,0.223l-0.59,0.342L152.581,88.832z"/>
		<path fill="#CCCCCC" d="M171.156,78.953c1.872,1.08,2.84,2.166,2.9,3.256c0.063,1.089-0.787,2.142-2.546,3.158
			c-1.735,1.001-3.555,1.486-5.46,1.455c-1.904-0.031-3.793-0.588-5.666-1.668c-1.853-1.07-2.806-2.152-2.864-3.248
			c-0.055-1.094,0.793-2.148,2.548-3.162c1.76-1.016,3.579-1.506,5.455-1.471C167.401,77.309,169.278,77.869,171.156,78.953z
			 M163.546,83.346c2.151,1.242,3.97,1.434,5.458,0.575c0.757-0.437,1.057-0.911,0.899-1.425c-0.158-0.512-0.789-1.088-1.895-1.727
			c-1.111-0.643-2.117-1.009-3.019-1.102c-0.9-0.092-1.719,0.074-2.455,0.5C161.037,81.033,161.375,82.092,163.546,83.346z"/>
		<path fill="#CCCCCC" d="M185.517,77.104l-2.63-0.89l-3.594,2.075l1.527,1.526l-3.283,1.896l-7.566-8.534l3.986-2.302l14.827,4.342
			L185.517,77.104z M179.8,75.149l-2.304-0.779c-0.516-0.171-1.177-0.396-1.98-0.676c-0.803-0.281-1.37-0.487-1.7-0.619
			c0.214,0.176,0.551,0.473,1.011,0.893s1.332,1.268,2.62,2.539L179.8,75.149z"/>
		<path fill="#CCCCCC" d="M193.566,65.759c1.856,1.072,2.781,2.191,2.769,3.358c-0.012,1.166-0.937,2.281-2.777,3.344l-3.579,2.066
			l-11.128-6.426l3.828-2.209c1.774-1.025,3.601-1.553,5.481-1.583C190.039,64.28,191.841,64.763,193.566,65.759z M190.572,67.612
			c-1.021-0.59-1.977-0.91-2.87-0.963s-1.748,0.156-2.565,0.629l-0.869,0.502l6.233,3.599l0.666-0.384
			c0.907-0.524,1.308-1.062,1.202-1.613C192.262,68.831,191.663,68.24,190.572,67.612z"/>
	</g>
	<g>
		<path fill="#CCCCCC" d="M323.281,51.07l-1.992,1.15l-5.78-3.337l-1.801,1.04l-1.639-0.947l5.588-3.226l1.639,0.946l-1.795,1.037
			L323.281,51.07z"/>
		<path fill="#CCCCCC" d="M329.309,43.294c1.248,0.721,1.893,1.445,1.935,2.171c0.041,0.727-0.525,1.429-1.699,2.106
			c-1.156,0.667-2.37,0.99-3.64,0.97c-1.27-0.021-2.529-0.392-3.777-1.112c-1.235-0.713-1.871-1.435-1.909-2.164
			c-0.038-0.73,0.528-1.434,1.697-2.109c1.174-0.678,2.386-1.004,3.638-0.98C326.806,42.198,328.057,42.572,329.309,43.294z
			 M324.237,46.224c1.435,0.828,2.647,0.955,3.638,0.383c0.505-0.291,0.705-0.607,0.6-0.949s-0.526-0.726-1.264-1.151
			c-0.741-0.428-1.412-0.673-2.012-0.733c-0.601-0.063-1.146,0.049-1.638,0.332C322.564,44.681,322.789,45.388,324.237,46.224z"/>
		<path fill="#CCCCCC" d="M334.651,38.663c0.829,0.479,1.227,0.988,1.192,1.529c-0.035,0.542-0.499,1.07-1.393,1.587l-0.56,0.323
			l2.461,1.421l-1.992,1.149l-7.419-4.283l2.551-1.473c0.931-0.537,1.836-0.823,2.713-0.857
			C333.082,38.027,333.897,38.228,334.651,38.663z M332.256,41.159l0.364-0.21c0.298-0.173,0.453-0.358,0.46-0.558
			c0.007-0.2-0.139-0.386-0.436-0.558c-0.501-0.289-1.027-0.274-1.578,0.044l-0.514,0.297L332.256,41.159z"/>
		<path fill="#CCCCCC" d="M336.149,35.074l2.572-1.485c1.001-0.578,1.895-0.921,2.68-1.028c0.785-0.108,1.495,0.021,2.126,0.386
			c0.416,0.24,0.666,0.507,0.748,0.799c0.083,0.293-0.007,0.563-0.268,0.812l0.051,0.029c0.578-0.193,1.112-0.268,1.602-0.222
			c0.489,0.045,0.961,0.199,1.414,0.461c0.673,0.389,0.951,0.84,0.837,1.354c-0.116,0.514-0.606,1.021-1.474,1.521l-2.869,1.657
			L336.149,35.074z M340.987,35.568l0.601-0.346c0.285-0.166,0.447-0.327,0.484-0.486c0.039-0.158-0.059-0.305-0.293-0.439
			c-0.416-0.24-0.937-0.18-1.562,0.182l-0.56,0.322L340.987,35.568z M342.454,36.415l1.558,0.898l0.701-0.404
			c0.621-0.359,0.669-0.691,0.141-0.996c-0.247-0.143-0.52-0.203-0.818-0.184c-0.298,0.02-0.604,0.121-0.921,0.304L342.454,36.415z"
			/>
		<path fill="#CCCCCC" d="M355.049,32.729l-1.753-0.593l-2.396,1.383l1.018,1.018l-2.188,1.264l-5.044-5.689l2.657-1.534
			l9.886,2.895L355.049,32.729z M351.238,31.425l-1.535-0.52c-0.346-0.113-0.785-0.264-1.32-0.451
			c-0.535-0.187-0.912-0.324-1.133-0.412c0.143,0.117,0.367,0.315,0.674,0.596c0.306,0.279,0.889,0.844,1.746,1.692L351.238,31.425z
			"/>
		<path fill="#CCCCCC" d="M358.025,31.011l-7.419-4.283l1.991-1.15l5.801,3.349l2.838-1.64l1.619,0.936L358.025,31.011z"/>
		<path fill="#CCCCCC" d="M361.438,22.249c-0.475,0.273-0.648,0.6-0.523,0.979s0.531,0.768,1.219,1.164
			c1.426,0.824,2.68,0.924,3.759,0.301c0.325-0.188,0.597-0.396,0.812-0.626s0.412-0.47,0.593-0.724l1.695,0.979
			c-0.342,0.514-0.899,0.994-1.677,1.443c-1.112,0.643-2.291,0.947-3.534,0.915c-1.242-0.032-2.478-0.403-3.706-1.112
			c-0.768-0.443-1.299-0.916-1.594-1.418c-0.294-0.502-0.328-0.999-0.101-1.491c0.226-0.492,0.704-0.948,1.435-1.37
			c0.797-0.46,1.731-0.799,2.807-1.018l0.967,1.264c-0.4,0.084-0.781,0.178-1.141,0.285C362.086,21.925,361.75,22.07,361.438,22.249
			z"/>
		<path fill="#CCCCCC" d="M373.916,17.54c1.248,0.721,1.893,1.445,1.935,2.171c0.04,0.727-0.524,1.429-1.698,2.106
			c-1.156,0.667-2.37,0.99-3.64,0.97c-1.271-0.021-2.528-0.392-3.776-1.112c-1.236-0.713-1.871-1.435-1.91-2.164
			c-0.037-0.73,0.528-1.434,1.698-2.109c1.174-0.678,2.386-1.004,3.638-0.98S372.664,16.818,373.916,17.54z M368.844,20.47
			c1.435,0.828,2.646,0.955,3.639,0.383c0.504-0.291,0.704-0.607,0.6-0.949c-0.105-0.342-0.526-0.726-1.264-1.151
			c-0.741-0.428-1.412-0.673-2.012-0.733c-0.602-0.063-1.146,0.049-1.638,0.332C367.171,18.927,367.396,19.634,368.844,20.47z"/>
		<path fill="#CCCCCC" d="M385.986,14.866l-2.611,1.509l-7.92-1.463l-0.045,0.026c0.886,0.438,1.545,0.781,1.979,1.031l3.344,1.931
			l-1.766,1.019l-7.418-4.283l2.602-1.502l7.838,1.428l0.031-0.018c-0.795-0.404-1.42-0.737-1.873-0.999l-3.354-1.937l1.775-1.025
			L385.986,14.866z"/>
		<path fill="#CCCCCC" d="M385.544,9.732l-1.479-2.321l2.158-1.246l2.096,4.011l2.897,1.673l-2.007,1.159l-2.837-1.639l-7.007-1.244
			l2.168-1.252L385.544,9.732z"/>
	</g>
	<g>
		<path fill="#CCCCCC" d="M366.977,76.504l-6.853-2.214l-0.044,0.026c0.979,0.484,1.723,0.872,2.227,1.163l3.223,1.86l-1.766,1.02
			l-7.419-4.283l2.652-1.531l6.806,2.152l0.041-0.023l-3.761-3.911l2.658-1.534l7.419,4.283l-1.831,1.057l-3.253-1.878
			c-0.169-0.098-0.354-0.208-0.556-0.329c-0.201-0.123-0.685-0.428-1.448-0.916l-0.045,0.026l3.845,3.938L366.977,76.504z"/>
		<path fill="#CCCCCC" d="M378.271,69.983l-1.754-0.593l-2.395,1.383l1.018,1.019l-2.189,1.264l-5.043-5.689l2.656-1.535
			l9.886,2.895L378.271,69.983z M374.46,68.68l-1.535-0.521c-0.345-0.113-0.784-0.264-1.319-0.45
			c-0.536-0.188-0.913-0.324-1.134-0.412c0.143,0.117,0.368,0.314,0.675,0.595c0.305,0.28,0.889,0.845,1.746,1.692L374.46,68.68z"/>
		<path fill="#CCCCCC" d="M381.246,68.266l-7.418-4.283l2.002-1.156l7.418,4.283L381.246,68.266z"/>
		<path fill="#CCCCCC" d="M391.861,62.137l-2.612,1.508l-7.919-1.463l-0.045,0.026c0.885,0.438,1.545,0.782,1.979,1.032l3.344,1.93
			l-1.766,1.02l-7.419-4.283l2.603-1.502l7.838,1.428l0.03-0.018c-0.794-0.404-1.419-0.738-1.872-1l-3.354-1.936l1.774-1.025
			L391.861,62.137z"/>
		<path fill="#CCCCCC" d="M398.705,55.584c0.46,0.266,0.752,0.568,0.878,0.908c0.125,0.34,0.067,0.693-0.172,1.061
			c-0.239,0.365-0.653,0.719-1.24,1.059c-0.491,0.283-0.938,0.502-1.341,0.653c-0.402,0.152-0.869,0.282-1.4,0.39l-1.786-1.031
			c0.576-0.105,1.124-0.245,1.644-0.418c0.52-0.174,0.952-0.359,1.295-0.557c0.295-0.172,0.461-0.326,0.496-0.466
			s-0.029-0.255-0.193-0.349c-0.102-0.059-0.217-0.094-0.348-0.106c-0.133-0.012-0.299-0.005-0.499,0.021
			c-0.2,0.026-0.687,0.123-1.458,0.291c-0.7,0.151-1.274,0.236-1.721,0.256s-0.862-0.014-1.244-0.102
			c-0.384-0.088-0.759-0.236-1.124-0.447c-0.684-0.395-0.97-0.845-0.856-1.352c0.111-0.506,0.6-1.008,1.464-1.507
			c0.763-0.44,1.719-0.787,2.866-1.04l0.938,1.246c-1.006,0.214-1.761,0.466-2.262,0.755c-0.258,0.149-0.4,0.284-0.428,0.405
			c-0.025,0.121,0.029,0.22,0.164,0.298c0.146,0.084,0.351,0.116,0.615,0.097c0.264-0.021,0.881-0.134,1.848-0.34
			c0.922-0.201,1.672-0.277,2.249-0.23C397.666,55.127,398.204,55.295,398.705,55.584z"/>
		<path fill="#CCCCCC" d="M405.352,54.349l-1.992,1.149l-5.78-3.336l-1.801,1.039l-1.639-0.946l5.588-3.226l1.639,0.945
			l-1.796,1.037L405.352,54.349z"/>
		<path fill="#CCCCCC" d="M412.723,50.092l-1.753-0.593l-2.396,1.383l1.018,1.019l-2.188,1.264l-5.044-5.689l2.657-1.535
			l9.886,2.895L412.723,50.092z M408.912,48.789l-1.535-0.521c-0.346-0.113-0.785-0.264-1.32-0.45
			c-0.535-0.188-0.912-0.324-1.133-0.412c0.143,0.117,0.367,0.314,0.674,0.595c0.306,0.28,0.889,0.845,1.746,1.692L408.912,48.789z"
			/>
		<path fill="#CCCCCC" d="M422.718,44.323l-2.612,1.508l-7.92-1.463l-0.045,0.025c0.887,0.438,1.545,0.782,1.979,1.032l3.344,1.931
			l-1.765,1.02l-7.419-4.283l2.603-1.503l7.838,1.428l0.03-0.018c-0.795-0.404-1.418-0.737-1.871-0.999l-3.355-1.937l1.775-1.024
			L422.718,44.323z"/>
		<path fill="#CCCCCC" d="M426.703,37.557c1.238,0.715,1.853,1.461,1.846,2.238c-0.008,0.778-0.625,1.521-1.853,2.23l-2.386,1.377
			l-7.418-4.283l2.551-1.474c1.184-0.683,2.402-1.035,3.654-1.056C424.352,36.571,425.553,36.893,426.703,37.557z M424.706,38.791
			c-0.68-0.393-1.317-0.606-1.913-0.642s-1.165,0.104-1.709,0.419l-0.581,0.335l4.155,2.399l0.444-0.256
			c0.605-0.35,0.872-0.708,0.801-1.075S425.434,39.211,424.706,38.791z"/>
	</g>
	<g>
		<path fill="#F2F2F2" d="M234.084,242.692l-1.471,0.849l-5.564-3.212l3.267-1.887l1.206,0.696l-1.796,1.037l1.063,0.613
			l1.657-0.956l1.206,0.695l-1.657,0.957L234.084,242.692z"/>
		<path fill="#F2F2F2" d="M240.181,239.171l-1.315-0.444l-1.796,1.037l0.763,0.764l-1.642,0.947l-3.783-4.268l1.994-1.15
			l7.414,2.171L240.181,239.171z M237.322,238.194l-1.151-0.39c-0.258-0.085-0.587-0.198-0.99-0.339
			c-0.401-0.139-0.685-0.242-0.849-0.309c0.106,0.088,0.274,0.236,0.505,0.447c0.229,0.209,0.667,0.633,1.309,1.27L237.322,238.194z
			"/>
		<path fill="#F2F2F2" d="M244.822,236.492l-5.139-1.662l-0.034,0.02c0.735,0.365,1.292,0.655,1.671,0.873l2.416,1.396l-1.323,0.765
			l-5.564-3.213l1.989-1.148l5.104,1.615l0.03-0.018l-2.819-2.934l1.993-1.15l5.564,3.212l-1.373,0.792l-2.44-1.408
			c-0.126-0.072-0.265-0.155-0.416-0.247c-0.151-0.091-0.513-0.319-1.087-0.687l-0.034,0.02l2.885,2.953L244.822,236.492z"/>
		<path fill="#F2F2F2" d="M249.901,233.559l-5.564-3.212l1.501-0.866l5.564,3.212L249.901,233.559z"/>
		<path fill="#F2F2F2" d="M252.598,232.002l-5.564-3.213l1.494-0.861l4.351,2.512l2.129-1.23l1.214,0.701L252.598,232.002z"/>
		<path fill="#F2F2F2" d="M255.578,226.239l-1.109-1.741l1.619-0.935l1.573,3.008l2.173,1.255l-1.505,0.869l-2.127-1.228
			l-5.257-0.935l1.626-0.938L255.578,226.239z"/>
		<path fill="#F2F2F2" d="M271.568,221.05l-3.282,1.896l-5.564-3.213l3.282-1.895l1.206,0.695l-1.789,1.033l0.876,0.506l1.657-0.957
			l1.206,0.697l-1.657,0.956l1.051,0.606l1.789-1.033L271.568,221.05z"/>
		<path fill="#F2F2F2" d="M277.8,217.451l-1.958,1.131l-5.939-1.097l-0.034,0.02c0.664,0.329,1.159,0.587,1.484,0.774l2.508,1.447
			l-1.323,0.764l-5.564-3.212l1.951-1.126l5.879,1.07l0.023-0.014c-0.597-0.303-1.064-0.553-1.405-0.749l-2.516-1.452l1.331-0.769
			L277.8,217.451z"/>
		<path fill="#F2F2F2" d="M277.046,212.793c-0.356,0.206-0.487,0.451-0.393,0.734c0.093,0.285,0.398,0.575,0.913,0.872
			c1.071,0.618,2.011,0.694,2.82,0.228c0.245-0.142,0.448-0.299,0.609-0.471c0.161-0.172,0.31-0.353,0.444-0.542l1.271,0.733
			c-0.255,0.385-0.674,0.746-1.257,1.082c-0.834,0.482-1.718,0.711-2.651,0.687c-0.931-0.024-1.859-0.303-2.779-0.834
			c-0.576-0.333-0.975-0.688-1.195-1.063c-0.221-0.377-0.247-0.75-0.076-1.119c0.169-0.369,0.529-0.711,1.076-1.027
			c0.597-0.344,1.298-0.599,2.104-0.762l0.725,0.947c-0.3,0.063-0.585,0.133-0.855,0.213S277.281,212.658,277.046,212.793z"/>
		<path fill="#F2F2F2" d="M284.023,213.86l-5.564-3.213l1.493-0.862l4.351,2.512l2.13-1.229l1.214,0.701L284.023,213.86z"/>
		<path fill="#F2F2F2" d="M290.914,206.658c0.937,0.541,1.42,1.084,1.451,1.629c0.031,0.545-0.394,1.07-1.273,1.578
			c-0.868,0.502-1.777,0.744-2.73,0.729c-0.951-0.016-1.896-0.294-2.832-0.834c-0.926-0.535-1.404-1.076-1.432-1.623
			c-0.029-0.549,0.396-1.076,1.273-1.582c0.879-0.508,1.79-0.754,2.728-0.735C289.037,205.837,289.975,206.117,290.914,206.658z
			 M287.109,208.856c1.076,0.621,1.985,0.717,2.729,0.287c0.378-0.219,0.528-0.455,0.45-0.712s-0.394-0.544-0.948-0.864
			c-0.555-0.32-1.059-0.504-1.509-0.549c-0.451-0.047-0.86,0.036-1.228,0.248C285.854,207.699,286.024,208.229,287.109,208.856z"/>
		<path fill="#F2F2F2" d="M296.627,204.63c0.346,0.199,0.564,0.427,0.659,0.682c0.092,0.255,0.051,0.52-0.128,0.795
			c-0.179,0.274-0.49,0.54-0.931,0.794c-0.368,0.213-0.703,0.376-1.004,0.49c-0.302,0.113-0.653,0.212-1.052,0.293l-1.34-0.773
			c0.432-0.08,0.844-0.185,1.233-0.314c0.391-0.13,0.713-0.27,0.971-0.418c0.221-0.128,0.347-0.244,0.373-0.349
			s-0.022-0.191-0.144-0.262c-0.076-0.044-0.163-0.071-0.261-0.079c-0.1-0.01-0.224-0.004-0.374,0.016
			c-0.151,0.02-0.515,0.092-1.093,0.218c-0.526,0.113-0.956,0.177-1.292,0.192c-0.335,0.014-0.646-0.012-0.934-0.076
			c-0.286-0.066-0.567-0.178-0.841-0.336c-0.513-0.296-0.728-0.634-0.643-1.014c0.083-0.379,0.45-0.756,1.098-1.13
			c0.573-0.331,1.289-0.591,2.151-0.78l0.703,0.934c-0.756,0.162-1.32,0.35-1.696,0.566c-0.195,0.113-0.302,0.214-0.321,0.305
			c-0.021,0.09,0.021,0.165,0.122,0.223c0.109,0.064,0.263,0.088,0.461,0.072c0.199-0.015,0.661-0.1,1.385-0.254
			c0.693-0.151,1.256-0.209,1.688-0.173C295.848,204.287,296.252,204.413,296.627,204.63z"/>
		<path fill="#F2F2F2" d="M298.309,199.186l3.35,1.934c0.728,0.42,1.087,0.864,1.077,1.332c-0.01,0.467-0.4,0.923-1.172,1.369
			c-0.753,0.435-1.527,0.657-2.32,0.666c-0.793,0.01-1.553-0.195-2.282-0.616l-3.383-1.953l1.501-0.866l3.266,1.885
			c0.394,0.227,0.752,0.35,1.076,0.367c0.323,0.02,0.626-0.055,0.912-0.219c0.305-0.177,0.438-0.355,0.4-0.536
			c-0.04-0.181-0.259-0.388-0.66-0.619l-3.258-1.881L298.309,199.186z"/>
		<path fill="#F2F2F2" d="M304.505,199.696l2.024,1.17l-1.494,0.861l-5.564-3.212l1.812-1.046c1.502-0.867,2.802-0.984,3.898-0.352
			c0.645,0.371,0.831,0.84,0.557,1.404l4.036,0.47l-1.695,0.979l-3.197-0.492L304.505,199.696z M303.374,199.043l0.28-0.162
			c0.522-0.301,0.551-0.586,0.087-0.854c-0.383-0.221-0.831-0.184-1.342,0.111l-0.295,0.171L303.374,199.043z"/>
		<path fill="#F2F2F2" d="M313.56,196.806l-3.282,1.896l-5.564-3.213l3.282-1.895l1.206,0.695l-1.789,1.033l0.876,0.506l1.657-0.957
			l1.206,0.697l-1.657,0.956l1.051,0.606l1.789-1.033L313.56,196.806z"/>
	</g>
	<g>
		<path fill="#CCCCCC" d="M318.469,432.545l3.857-2.228c1.503-0.867,2.842-1.382,4.021-1.543c1.177-0.162,2.24,0.031,3.189,0.58
			c0.624,0.359,0.998,0.759,1.123,1.197c0.124,0.438-0.011,0.844-0.404,1.217l0.076,0.045c0.869-0.291,1.67-0.402,2.404-0.334
			c0.733,0.068,1.441,0.299,2.121,0.691c1.01,0.584,1.428,1.261,1.255,2.031c-0.172,0.771-0.91,1.531-2.21,2.283l-4.304,2.484
			L318.469,432.545z M325.727,433.285l0.899-0.52c0.429-0.247,0.672-0.49,0.728-0.728c0.059-0.238-0.089-0.459-0.439-0.66
			c-0.624-0.361-1.405-0.271-2.343,0.271l-0.839,0.484L325.727,433.285z M327.927,434.556l2.337,1.349l1.051-0.606
			c0.933-0.539,1.003-1.037,0.212-1.494c-0.371-0.214-0.78-0.306-1.227-0.275c-0.448,0.029-0.909,0.182-1.382,0.455L327.927,434.556
			z"/>
		<path fill="#CCCCCC" d="M338.309,421.091l6.699,3.867c1.455,0.84,2.174,1.728,2.154,2.662c-0.021,0.935-0.803,1.848-2.346,2.738
			c-1.508,0.871-3.055,1.315-4.64,1.334c-1.586,0.02-3.106-0.392-4.563-1.232l-6.767-3.906l3.002-1.734l6.53,3.771
			c0.786,0.453,1.504,0.699,2.152,0.734c0.647,0.037,1.256-0.109,1.826-0.438c0.61-0.353,0.877-0.71,0.799-1.072
			s-0.519-0.774-1.32-1.237l-6.515-3.762L338.309,421.091z"/>
		<path fill="#CCCCCC" d="M351.76,426.175l-11.128-6.426l2.987-1.725l8.699,5.023l4.259-2.459l2.429,1.402L351.76,426.175z"/>
		<path fill="#CCCCCC" d="M360.775,420.969l-11.127-6.425l2.987-1.725l8.699,5.022l4.259-2.458l2.428,1.401L360.775,420.969z"/>
		<path fill="#CCCCCC" d="M376.357,411.973l-6.565,3.79l-11.128-6.424l6.565-3.791l2.412,1.393l-3.577,2.066l1.751,1.01l3.313-1.912
			l2.413,1.393l-3.313,1.913l2.101,1.213l3.577-2.065L376.357,411.973z"/>
		<path fill="#CCCCCC" d="M388.824,404.776l-3.919,2.263l-11.879-2.195l-0.067,0.039c1.328,0.657,2.316,1.174,2.966,1.549
			l5.017,2.896l-2.646,1.528l-11.129-6.425l3.903-2.253l11.757,2.141l0.047-0.025c-1.193-0.607-2.129-1.107-2.809-1.5l-5.031-2.904
			l2.662-1.537L388.824,404.776z"/>
		<path fill="#CCCCCC" d="M395.064,397.27c0.691,0.398,1.131,0.853,1.316,1.362c0.188,0.51,0.104,1.04-0.258,1.59
			c-0.357,0.551-0.978,1.08-1.859,1.589c-0.736,0.425-1.407,0.751-2.012,0.979c-0.602,0.229-1.303,0.424-2.101,0.586l-2.68-1.547
			c0.864-0.159,1.687-0.368,2.468-0.629c0.779-0.26,1.426-0.538,1.94-0.835c0.444-0.257,0.692-0.488,0.743-0.697
			c0.053-0.208-0.043-0.384-0.287-0.524c-0.152-0.088-0.327-0.141-0.523-0.158c-0.197-0.018-0.447-0.008-0.748,0.031
			s-1.029,0.185-2.187,0.437c-1.051,0.226-1.911,0.354-2.581,0.383s-1.293-0.021-1.868-0.152s-1.136-0.354-1.685-0.671
			c-1.025-0.592-1.453-1.268-1.285-2.026s0.9-1.513,2.195-2.261c1.145-0.661,2.579-1.182,4.301-1.561l1.407,1.869
			c-1.511,0.32-2.642,0.699-3.394,1.133c-0.388,0.224-0.602,0.426-0.643,0.607c-0.037,0.181,0.043,0.33,0.246,0.447
			c0.219,0.126,0.526,0.174,0.923,0.145c0.397-0.031,1.321-0.201,2.771-0.51c1.385-0.302,2.51-0.417,3.375-0.345
			C393.506,396.583,394.314,396.836,395.064,397.27z"/>
		<path fill="#CCCCCC" d="M403.117,391.847l4.049,2.338l-2.987,1.726l-11.128-6.425l3.623-2.092
			c3.006-1.735,5.604-1.971,7.797-0.705c1.289,0.744,1.66,1.682,1.115,2.811l8.07,0.939l-3.389,1.956l-6.395-0.983L403.117,391.847z
			 M400.855,390.542l0.561-0.323c1.043-0.603,1.102-1.172,0.173-1.708c-0.767-0.442-1.661-0.368-2.685,0.223l-0.59,0.341
			L400.855,390.542z"/>
		<path fill="#CCCCCC" d="M419.431,380.662c1.872,1.081,2.84,2.166,2.9,3.256c0.062,1.089-0.787,2.142-2.547,3.158
			c-1.735,1.001-3.556,1.487-5.46,1.456s-3.793-0.588-5.665-1.669c-1.853-1.069-2.807-2.151-2.864-3.247
			c-0.055-1.095,0.793-2.149,2.549-3.162c1.76-1.017,3.578-1.507,5.455-1.471C415.677,379.019,417.553,379.578,419.431,380.662z
			 M411.822,385.056c2.15,1.242,3.969,1.434,5.457,0.574c0.757-0.437,1.057-0.911,0.9-1.424c-0.158-0.513-0.789-1.089-1.895-1.728
			c-1.111-0.642-2.117-1.009-3.02-1.101c-0.9-0.092-1.719,0.074-2.455,0.5C409.313,382.742,409.65,383.802,411.822,385.056z"/>
		<path fill="#CCCCCC" d="M433.792,378.814l-2.631-0.891l-3.593,2.075l1.526,1.526l-3.283,1.896l-7.565-8.535l3.986-2.301
			l14.826,4.342L433.792,378.814z M428.074,376.859l-2.303-0.78c-0.516-0.171-1.177-0.396-1.98-0.676
			c-0.803-0.28-1.369-0.487-1.699-0.618c0.214,0.175,0.551,0.473,1.011,0.893s1.333,1.267,2.62,2.539L428.074,376.859z"/>
		<path fill="#CCCCCC" d="M441.842,367.468c1.856,1.072,2.78,2.191,2.77,3.359c-0.013,1.166-0.938,2.281-2.778,3.344l-3.578,2.065
			l-11.128-6.425l3.828-2.21c1.773-1.024,3.601-1.552,5.48-1.583C438.314,365.99,440.116,366.472,441.842,367.468z M438.847,369.321
			c-1.021-0.589-1.977-0.909-2.87-0.962c-0.893-0.053-1.748,0.156-2.564,0.628l-0.869,0.502l6.232,3.599l0.666-0.384
			c0.908-0.524,1.309-1.062,1.201-1.612C440.537,370.54,439.938,369.95,438.847,369.321z"/>
		<path fill="#CCCCCC" d="M457.499,361.224c0.69,0.398,1.13,0.852,1.315,1.361c0.189,0.511,0.104,1.041-0.257,1.59
			c-0.357,0.551-0.978,1.08-1.86,1.59c-0.736,0.425-1.406,0.751-2.011,0.979c-0.602,0.229-1.302,0.423-2.101,0.585l-2.68-1.547
			c0.863-0.158,1.686-0.367,2.467-0.628c0.78-0.26,1.428-0.538,1.941-0.835c0.443-0.257,0.691-0.488,0.743-0.697
			s-0.043-0.385-0.287-0.525c-0.152-0.088-0.327-0.14-0.524-0.158c-0.197-0.018-0.446-0.008-0.748,0.031
			c-0.301,0.039-1.029,0.186-2.186,0.438c-1.051,0.225-1.912,0.354-2.582,0.383s-1.292-0.021-1.867-0.152s-1.137-0.355-1.685-0.672
			c-1.025-0.592-1.453-1.268-1.286-2.025c0.169-0.76,0.9-1.514,2.195-2.262c1.146-0.66,2.58-1.181,4.302-1.561l1.407,1.869
			c-1.512,0.321-2.643,0.699-3.394,1.133c-0.388,0.225-0.603,0.427-0.643,0.607c-0.038,0.182,0.043,0.33,0.246,0.447
			c0.218,0.127,0.526,0.174,0.923,0.145c0.396-0.03,1.32-0.2,2.77-0.51c1.385-0.301,2.51-0.416,3.376-0.344
			C455.939,360.536,456.748,360.79,457.499,361.224z"/>
		<path fill="#CCCCCC" d="M467.467,359.37l-2.988,1.726l-8.67-5.005l-2.699,1.559l-2.459-1.42l8.381-4.838l2.459,1.419l-2.693,1.555
			L467.467,359.37z"/>
		<path fill="#CCCCCC" d="M478.525,352.986l-2.631-0.889l-3.593,2.074l1.526,1.527l-3.283,1.895l-7.565-8.533l3.987-2.303
			l14.826,4.343L478.525,352.986z M472.809,351.031l-2.303-0.779c-0.517-0.17-1.178-0.396-1.98-0.676
			c-0.803-0.281-1.37-0.486-1.699-0.619c0.213,0.176,0.551,0.474,1.01,0.894c0.461,0.42,1.333,1.267,2.621,2.539L472.809,351.031z"
			/>
		<path fill="#CCCCCC" d="M493.518,344.33l-3.918,2.263l-11.879-2.195l-0.068,0.039c1.328,0.657,2.317,1.174,2.967,1.549
			l5.017,2.896l-2.647,1.528l-11.127-6.425l3.902-2.253l11.758,2.141l0.045-0.025c-1.193-0.607-2.128-1.107-2.808-1.5l-5.031-2.904
			l2.663-1.537L493.518,344.33z"/>
		<path fill="#CCCCCC" d="M499.495,334.183c1.856,1.072,2.78,2.191,2.769,3.357c-0.012,1.167-0.938,2.281-2.777,3.344l-3.578,2.066
			l-11.128-6.425l3.827-2.21c1.775-1.024,3.602-1.553,5.481-1.582C495.967,332.703,497.77,333.187,499.495,334.183z M496.5,336.034
			c-1.021-0.589-1.977-0.91-2.869-0.963c-0.894-0.053-1.748,0.157-2.566,0.629l-0.869,0.502l6.234,3.6l0.665-0.385
			c0.907-0.523,1.309-1.061,1.202-1.612C498.189,337.255,497.591,336.664,496.5,336.034z"/>
		<path fill="#CCCCCC" d="M518.086,330.146l-2.631-0.889l-3.594,2.074l1.527,1.527l-3.283,1.895l-7.566-8.533l3.986-2.303
			l14.827,4.343L518.086,330.146z M512.368,328.191l-2.304-0.779c-0.516-0.17-1.176-0.396-1.979-0.676
			c-0.803-0.281-1.37-0.486-1.7-0.619c0.215,0.176,0.552,0.474,1.012,0.894s1.332,1.267,2.62,2.539L512.368,328.191z"/>
		<path fill="#CCCCCC" d="M533.078,321.49l-3.918,2.263l-11.88-2.195l-0.067,0.039c1.328,0.657,2.316,1.174,2.966,1.549l5.017,2.896
			l-2.646,1.528l-11.129-6.425l3.904-2.253l11.757,2.141l0.046-0.025c-1.193-0.607-2.129-1.107-2.809-1.5l-5.031-2.904l2.662-1.537
			L533.078,321.49z"/>
		<path fill="#CCCCCC" d="M539.055,311.343c1.856,1.072,2.781,2.191,2.77,3.357c-0.012,1.167-0.938,2.281-2.778,3.344l-3.578,2.066
			l-11.128-6.425l3.828-2.21c1.773-1.024,3.602-1.553,5.48-1.582C535.527,309.864,537.329,310.347,539.055,311.343z
			 M536.061,313.195c-1.021-0.589-1.978-0.91-2.871-0.963c-0.893-0.053-1.748,0.157-2.564,0.629l-0.869,0.502l6.232,3.6l0.666-0.385
			c0.908-0.523,1.309-1.061,1.202-1.612C537.75,314.415,537.15,313.824,536.061,313.195z"/>
		<path fill="#CCCCCC" d="M551.298,302.208c1.243,0.718,1.84,1.482,1.788,2.295s-0.748,1.604-2.089,2.379l-0.84,0.484l3.691,2.132
			l-2.987,1.726l-11.129-6.426l3.828-2.209c1.396-0.807,2.752-1.234,4.067-1.285C548.941,301.253,550.166,301.555,551.298,302.208z
			 M547.706,305.952l0.545-0.314c0.449-0.26,0.679-0.539,0.688-0.838c0.012-0.299-0.205-0.578-0.652-0.836
			c-0.752-0.434-1.54-0.412-2.367,0.066l-0.771,0.445L547.706,305.952z"/>
		<path fill="#CCCCCC" d="M567.434,301.656l-2.631-0.891l-3.594,2.075l1.527,1.526l-3.283,1.896l-7.565-8.535l3.986-2.301
			l14.827,4.342L567.434,301.656z M561.717,299.7l-2.304-0.78c-0.517-0.171-1.177-0.396-1.979-0.676s-1.37-0.487-1.7-0.618
			c0.214,0.175,0.552,0.473,1.011,0.893c0.461,0.42,1.332,1.267,2.621,2.539L561.717,299.7z"/>
		<path fill="#CCCCCC" d="M575.482,290.311c1.857,1.072,2.781,2.191,2.77,3.358c-0.012,1.166-0.938,2.281-2.777,3.344l-3.578,2.066
			l-11.129-6.426l3.828-2.209c1.774-1.025,3.602-1.553,5.48-1.583S573.758,289.315,575.482,290.311z M572.488,292.163
			c-1.021-0.59-1.977-0.91-2.87-0.963s-1.748,0.156-2.565,0.629l-0.869,0.502l6.233,3.599l0.665-0.384
			c0.908-0.524,1.309-1.062,1.202-1.613C574.178,293.383,573.578,292.792,572.488,292.163z"/>
		<path fill="#CCCCCC" d="M586.852,283.747c1.857,1.072,2.781,2.191,2.77,3.357c-0.012,1.167-0.938,2.281-2.777,3.344l-3.578,2.066
			l-11.129-6.425l3.828-2.21c1.774-1.024,3.602-1.553,5.48-1.582C583.324,282.268,585.127,282.751,586.852,283.747z
			 M583.857,285.599c-1.021-0.589-1.977-0.91-2.87-0.963s-1.748,0.157-2.565,0.629l-0.869,0.502l6.233,3.6l0.665-0.385
			c0.908-0.523,1.309-1.061,1.202-1.612C585.547,286.82,584.947,286.229,583.857,285.599z"/>
		<path fill="#CCCCCC" d="M599.401,276.756c1.872,1.081,2.841,2.166,2.9,3.256c0.062,1.089-0.786,2.142-2.547,3.158
			c-1.734,1.001-3.556,1.487-5.46,1.456c-1.903-0.031-3.793-0.588-5.665-1.669c-1.853-1.069-2.807-2.151-2.864-3.247
			c-0.055-1.095,0.793-2.149,2.549-3.162c1.76-1.017,3.578-1.507,5.455-1.471C595.647,275.113,597.523,275.672,599.401,276.756z
			 M591.793,281.15c2.15,1.242,3.97,1.434,5.457,0.574c0.757-0.437,1.057-0.911,0.9-1.424c-0.158-0.513-0.789-1.089-1.895-1.728
			c-1.111-0.642-2.117-1.009-3.02-1.101c-0.9-0.092-1.719,0.074-2.455,0.5C589.283,278.836,589.621,279.896,591.793,281.15z"/>
		<path fill="#CCCCCC" d="M603.08,270.888c-0.711,0.41-0.973,0.899-0.783,1.469c0.186,0.567,0.795,1.149,1.825,1.744
			c2.142,1.236,4.021,1.387,5.64,0.453c0.49-0.283,0.896-0.596,1.218-0.94c0.321-0.344,0.618-0.706,0.889-1.085l2.542,1.469
			c-0.512,0.77-1.35,1.49-2.514,2.163c-1.67,0.964-3.437,1.421-5.301,1.372c-1.864-0.048-3.717-0.604-5.561-1.668
			c-1.15-0.664-1.947-1.373-2.39-2.127c-0.44-0.752-0.491-1.498-0.153-2.236c0.342-0.738,1.059-1.423,2.152-2.055
			c1.195-0.689,2.6-1.199,4.211-1.525l1.452,1.895c-0.603,0.125-1.173,0.267-1.713,0.426
			C604.055,270.402,603.549,270.616,603.08,270.888z"/>
		<path fill="#CCCCCC" d="M626.479,267.566l-3.374,1.947l-6.44-1.193l-0.354,0.818l3.723,2.148l-3.002,1.734l-11.129-6.426
			l3.004-1.733l4.832,2.79c-0.148-0.26-0.316-0.709-0.508-1.35l-1.088-3.31l3.269-1.887l1.497,4.892L626.479,267.566z"/>
	</g>
	<polygon fill="#CCCCCC" points="303.831,59.192 315.149,52.657 313.417,51.657 302.099,58.192 298.623,56.185 296.545,62.37 
		307.259,61.171 	"/>
	<polygon fill="#CCCCCC" points="346.416,84.908 357.733,78.374 356.002,77.374 344.684,83.908 341.208,81.902 339.13,88.087 
		349.844,86.887 	"/>
	<g>
		<g>
			<path fill="#CCCCCC" d="M70.91,339.327c1.104,0.638,1.968,1.431,2.616,2.386l-3.088,0.773c-0.54-0.84-1.173-1.463-1.894-1.88
				c-0.377-0.217-0.715-0.339-1.014-0.357c-0.299-0.025-0.541,0.019-0.737,0.133c-0.209,0.122-0.286,0.292-0.233,0.513
				c0.052,0.214,0.335,0.729,0.861,1.533c0.507,0.764,0.701,1.39,0.59,1.869c-0.112,0.479-0.523,0.925-1.239,1.342
				c-0.653,0.38-1.41,0.619-2.25,0.723c-0.839,0.103-1.718,0.051-2.635-0.147c-0.904-0.199-1.785-0.546-2.634-1.036
				c-0.709-0.409-1.251-0.781-1.636-1.113c-0.377-0.335-0.71-0.726-0.98-1.168l2.544-1.479c0.271,0.479,0.616,0.937,1.058,1.367
				c0.429,0.432,0.896,0.789,1.394,1.077c0.428,0.246,0.81,0.387,1.154,0.416c0.344,0.029,0.637-0.022,0.872-0.158
				c0.139-0.081,0.222-0.181,0.252-0.288c0.031-0.114,0.012-0.25-0.059-0.416c-0.058-0.166-0.303-0.571-0.732-1.21
				c-0.379-0.586-0.592-1.061-0.651-1.434c-0.053-0.368,0.034-0.715,0.249-1.031c0.214-0.317,0.569-0.627,1.095-0.934
				c0.971-0.563,2.089-0.799,3.344-0.7C68.414,338.203,69.665,338.609,70.91,339.327z"/>
		</g>
		<g>
			<polygon fill="#CCCCCC" points="61.441,334.038 59.151,335.369 55.71,333.383 54.049,334.348 57.235,336.188 54.945,337.518 
				51.759,335.679 49.761,336.84 53.202,338.826 50.88,340.176 44.566,336.531 55.127,330.393 			"/>
		</g>
		<g>
			<polygon fill="#CCCCCC" points="52.829,329.066 42.268,335.203 39.375,333.533 43.682,331.031 40.343,329.103 36.036,331.606 
				33.15,329.939 43.711,323.802 46.597,325.468 42.684,327.742 46.023,329.67 49.937,327.396 			"/>
		</g>
		<g>
			<polygon fill="#CCCCCC" points="42.192,322.925 39.858,324.281 37.266,322.784 29.039,327.566 26.166,325.906 34.393,321.126 
				31.8,319.629 34.134,318.273 			"/>
		</g>
		<g>
			<path fill="#CCCCCC" d="M100.739,357.74c0.093,0.729-0.394,1.404-1.466,2.027c-1.186,0.689-2.444,1.014-3.793,0.984
				c-1.343-0.033-2.663-0.42-3.952-1.165l-0.805-0.465l-3.501,2.035l-2.873-1.658l10.561-6.138l3.677,2.123
				C99.935,356.263,100.651,357.015,100.739,357.74z M94.964,358.455c0.497,0.008,0.954-0.11,1.378-0.357
				c0.717-0.416,0.677-0.852-0.121-1.312l-0.741-0.428l-2.43,1.411l0.524,0.303C94.002,358.32,94.468,358.448,94.964,358.455"/>
		</g>
		<g>
			<path fill="#CCCCCC" d="M122.557,389.847l-7.094,8.191l-3.141-1.813l1.455-1.452l-3.454-1.995l-2.515,0.841l-3.161-1.824
				l14.079-4.158L122.557,389.847z M113.257,391.76l2.267,1.31l1.272-1.272c0.278-0.287,0.651-0.652,1.107-1.095
				c0.462-0.446,0.798-0.76,1.02-0.939c-0.292,0.117-0.787,0.302-1.48,0.557C116.75,390.573,115.359,391.057,113.257,391.76"/>
		</g>
		<g>
			<polygon fill="#CCCCCC" points="114.838,385.443 112.503,386.799 109.918,385.306 101.691,390.087 98.812,388.424 
				107.038,383.644 104.446,382.147 106.781,380.79 			"/>
		</g>
		<g>
			<path fill="#CCCCCC" d="M102.7,378.258c1.098,0.634,1.968,1.431,2.609,2.381l-3.088,0.774c-0.54-0.833-1.173-1.464-1.895-1.88
				c-0.376-0.218-0.708-0.336-1.014-0.357c-0.292-0.022-0.547,0.022-0.737,0.133c-0.209,0.121-0.285,0.291-0.233,0.512
				c0.059,0.218,0.341,0.734,0.861,1.534c0.507,0.771,0.708,1.393,0.59,1.868c-0.112,0.479-0.524,0.926-1.24,1.342
				c-0.653,0.38-1.403,0.623-2.242,0.727c-0.846,0.1-1.718,0.052-2.636-0.147c-0.91-0.203-1.791-0.549-2.64-1.039
				c-0.708-0.409-1.251-0.782-1.635-1.113c-0.378-0.336-0.705-0.723-0.98-1.169l2.543-1.478c0.271,0.479,0.623,0.939,1.058,1.367
				c0.436,0.435,0.896,0.796,1.387,1.08c0.428,0.247,0.816,0.384,1.16,0.413c0.351,0.033,0.637-0.022,0.872-0.159
				c0.14-0.081,0.228-0.177,0.253-0.287c0.037-0.11,0.017-0.247-0.053-0.413c-0.064-0.17-0.309-0.575-0.739-1.213
				c-0.373-0.582-0.592-1.062-0.645-1.43c-0.053-0.369,0.021-0.716,0.243-1.036c0.215-0.317,0.582-0.627,1.102-0.93
				c0.971-0.563,2.089-0.8,3.337-0.703C100.199,377.13,101.449,377.535,102.7,378.258z"/>
		</g>
		<g>
			<path fill="#CCCCCC" d="M93.999,373.41l-8.084,0.815l-2.534,5.289l-3.244-1.872l1.934-3.565l-1.357-0.194l-3.533,2.053
				l-2.886-1.666l10.562-6.138l2.886,1.666l-4.586,2.665c0.433-0.081,1.176-0.173,2.232-0.276l5.47-0.59L93.999,373.41z"/>
		</g>
		<g>
			<path fill="#CCCCCC" d="M74.826,369.249l-1.502,4.46l-3.256-1.88l1.59-3.535l-0.728-0.42l-3.844,2.233l-2.873-1.658l10.562-6.138
				l3.48,2.009c2.892,1.67,3.294,3.107,1.213,4.316C78.244,369.348,76.698,369.551,74.826,369.249z M73.61,366.938
				c1.002,0.579,1.951,0.612,2.833,0.1c0.723-0.421,0.599-0.918-0.384-1.485l-0.568-0.328l-2.417,1.404L73.61,366.938"/>
		</g>
		<g>
			<path fill="#CCCCCC" d="M70.151,359.591l-7.087,8.194l-3.142-1.813l1.449-1.456l-3.454-1.994l-2.515,0.841l-3.154-1.821
				l14.072-4.162L70.151,359.591z M60.858,361.508l2.26,1.305l1.272-1.271c0.284-0.284,0.651-0.652,1.107-1.095
				c0.462-0.446,0.804-0.756,1.019-0.94c-0.292,0.118-0.781,0.306-1.474,0.561C64.345,360.318,62.954,360.8,60.858,361.508"/>
		</g>
		<g>
			<path fill="#CCCCCC" d="M81.011,352.244l-1.501,4.46l-3.257-1.88l1.584-3.538l-0.722-0.417l-3.844,2.233l-2.873-1.658
				l10.561-6.138l3.48,2.01c2.892,1.669,3.295,3.106,1.214,4.315C84.429,352.344,82.884,352.547,81.011,352.244z M79.796,349.933
				c1.002,0.579,1.951,0.612,2.833,0.1c0.723-0.42,0.599-0.918-0.39-1.489l-0.563-0.324l-2.417,1.404L79.796,349.933"/>
		</g>
		<g>
			<polygon fill="#CCCCCC" points="78.654,343.977 68.094,350.114 65.208,348.448 75.769,342.31 			"/>
		</g>
		<g>
			<polygon fill="#CCCCCC" points="113.438,364.059 102.877,370.197 99.985,368.527 104.292,366.024 100.952,364.096 
				96.646,366.599 93.76,364.932 104.321,358.795 107.207,360.461 103.293,362.736 106.632,364.663 110.546,362.389 			"/>
		</g>
		<g>
			<polygon fill="#CCCCCC" points="123.794,370.037 115.535,374.837 119.628,377.2 117.326,378.538 110.36,374.517 120.921,368.379 
							"/>
		</g>
		<g>
			<polygon fill="#CCCCCC" points="118.623,367.052 108.062,373.189 105.176,371.523 115.737,365.386 			"/>
		</g>
		<g>
			<polygon fill="#CCCCCC" points="132.478,375.051 121.917,381.189 119.031,379.523 129.591,373.385 			"/>
		</g>
		<g>
			<path fill="#CCCCCC" d="M140.611,380.761c0.087,0.726-0.399,1.4-1.471,2.023c-1.186,0.689-2.444,1.014-3.787,0.988
				c-1.343-0.033-2.663-0.421-3.953-1.165l-0.811-0.468l-3.501,2.034l-2.873-1.659l10.561-6.137l3.685,2.127
				C139.8,379.279,140.518,380.031,140.611,380.761z M134.837,381.476c0.496,0.008,0.947-0.114,1.372-0.361
				c0.717-0.416,0.676-0.852-0.116-1.309l-0.747-0.432l-2.43,1.412l0.523,0.303C133.875,381.34,134.34,381.469,134.837,381.476"/>
		</g>
		<g>
			<path fill="#CCCCCC" d="M195.66,418.438l-1.501,4.46l-3.256-1.88l1.583-3.539l-0.728-0.42l-3.844,2.233l-2.873-1.658
				l10.561-6.138l3.486,2.013c2.892,1.67,3.295,3.107,1.214,4.316C199.078,418.537,197.533,418.74,195.66,418.438z M194.445,416.126
				c1.003,0.578,1.95,0.611,2.832,0.1c0.723-0.42,0.593-0.922-0.39-1.489l-0.568-0.328l-2.417,1.404L194.445,416.126"/>
		</g>
		<g enable-background="new    ">
			<g>
				<path fill="#CCCCCC" d="M168.596,402.812l-1.495,4.464l-3.263-1.884l1.59-3.535l-0.728-0.42l-3.844,2.233l-2.873-1.658
					l10.561-6.138l3.486,2.013c2.892,1.67,3.295,3.107,1.214,4.316C172.02,402.915,170.475,403.117,168.596,402.812z M167.381,400.5
					c1.009,0.582,1.951,0.612,2.832,0.1c0.723-0.42,0.6-0.918-0.384-1.485l-0.568-0.328l-2.416,1.404L167.381,400.5"/>
			</g>
			<g>
				<polygon fill="#CCCCCC" points="185.91,405.901 183.576,407.257 180.984,405.76 172.757,410.541 169.884,408.882 
					178.111,404.102 175.513,402.602 177.847,401.245 				"/>
			</g>
			<g>
				<polygon fill="#CCCCCC" points="193.744,410.423 191.454,411.754 188.013,409.768 186.352,410.734 189.538,412.573 
					187.248,413.904 184.062,412.064 182.064,413.225 185.505,415.212 183.184,416.561 176.869,412.915 187.43,406.778 				"/>
			</g>
		</g>
		<g>
			<path fill="#CCCCCC" d="M145.933,404.902c0.063,1.043-0.727,2.035-2.363,2.986c-1.764,1.024-3.606,1.533-5.541,1.525
				c-1.929-0.011-3.783-0.53-5.552-1.552l-3.441-1.986l10.562-6.138l3.685,2.127C144.986,402.848,145.876,403.863,145.933,404.902z
				 M137.565,407.213c0.91-0.056,1.882-0.384,2.922-0.988c0.964-0.56,1.495-1.091,1.575-1.581c0.08-0.498-0.272-0.973-1.058-1.427
				l-0.836-0.482l-5.917,3.438l0.645,0.372C135.763,407.047,136.655,407.276,137.565,407.213"/>
		</g>
		<g>
			<path fill="#CCCCCC" d="M163.928,393.157l-7.094,8.19l-3.141-1.813l1.456-1.452l-3.455-1.994l-2.521,0.837l-3.154-1.821
				l14.072-4.162L163.928,393.157z M154.628,395.071l2.26,1.305l1.278-1.268c0.278-0.288,0.651-0.652,1.107-1.095
				c0.462-0.446,0.798-0.76,1.007-0.94c-0.28,0.118-0.774,0.302-1.467,0.557C158.122,393.884,156.725,394.363,154.628,395.071"/>
		</g>
		<g>
			<path fill="#CCCCCC" d="M152.978,386.71c1.149,0.663,2,1.441,2.552,2.334l-3.126,0.796c-0.211-0.328-0.449-0.648-0.718-0.944
				c-0.269-0.302-0.626-0.582-1.08-0.844c-0.684-0.395-1.493-0.538-2.427-0.438c-0.941,0.103-1.901,0.438-2.878,1.007
				c-2.036,1.183-2.272,2.223-0.714,3.122c0.466,0.269,0.989,0.497,1.563,0.674c0.567,0.181,1.167,0.343,1.797,0.494l-2.417,1.404
				c-1.275-0.287-2.474-0.752-3.591-1.396c-1.609-0.93-2.378-1.91-2.308-2.942c0.064-1.027,0.975-2.053,2.726-3.07
				c1.091-0.634,2.266-1.072,3.505-1.313c1.246-0.243,2.48-0.272,3.703-0.081C150.789,385.704,151.924,386.102,152.978,386.71z"/>
		</g>
		<g>
			<path fill="#CCCCCC" d="M60.376,355.013c0.093,0.723-0.399,1.4-1.478,2.027c-1.18,0.686-2.438,1.01-3.788,0.98
				c-1.336-0.029-2.656-0.416-3.946-1.161l-0.811-0.468l-3.501,2.034l-2.873-1.658l10.562-6.138l3.684,2.127
				C59.566,353.531,60.283,354.283,60.376,355.013z M54.602,355.728c0.49,0.004,0.947-0.114,1.373-0.361
				c0.717-0.416,0.676-0.852-0.122-1.312l-0.741-0.428l-2.43,1.412l0.523,0.302C53.64,355.592,54.105,355.721,54.602,355.728"/>
		</g>
		<g>
			<path fill="#CCCCCC" d="M137.299,398.41l-10.562,6.138l-3.767-2.175l3.559-6.565l-0.064-0.037
				c-1.077,0.73-1.927,1.275-2.549,1.637l-4.757,2.765l-2.547-1.471l10.562-6.138l3.754,2.168l-3.47,6.499l0.044,0.025
				c1.001-0.656,1.813-1.172,2.46-1.548l4.776-2.776L137.299,398.41z"/>
		</g>
	</g>
	<g>
		<g>
			<path fill="#CCCCCC" d="M542.592,82.377c-0.052,1.036-0.962,2.075-2.744,3.111c-1.776,1.032-3.568,1.563-5.375,1.592
				c-1.801,0.033-3.547-0.438-5.239-1.416c-1.673-0.965-2.479-1.976-2.442-3.026c0.039-1.058,0.949-2.097,2.726-3.129
				c1.764-1.025,3.543-1.548,5.356-1.582c1.813-0.025,3.561,0.446,5.252,1.423C541.816,80.328,542.637,81.338,542.592,82.377z
				 M533.97,84.784c0.853-0.088,1.805-0.435,2.852-1.043c1.053-0.612,1.654-1.169,1.805-1.67c0.144-0.498-0.133-0.951-0.842-1.36
				c-1.442-0.833-3.198-0.648-5.26,0.549c-2.042,1.187-2.349,2.193-0.912,3.022C532.34,84.703,533.124,84.869,533.97,84.784"/>
		</g>
		<g>
			<polygon fill="#CCCCCC" points="532.867,75.352 522.299,81.493 519.413,79.826 523.72,77.323 520.381,75.396 516.073,77.899 
				513.182,76.229 523.749,70.088 526.642,71.757 522.722,74.035 526.061,75.963 529.98,73.685 			"/>
		</g>
		<g>
			<polygon fill="#CCCCCC" points="518.022,66.781 515.732,68.112 512.291,66.125 510.623,67.094 513.809,68.934 511.519,70.265 
				508.333,68.425 506.341,69.583 509.782,71.57 507.455,72.923 501.141,69.277 511.708,63.135 			"/>
		</g>
		<g>
			<polygon fill="#CCCCCC" points="509.409,61.808 498.842,67.949 495.949,66.28 500.256,63.777 496.917,61.849 492.61,64.352 
				489.725,62.686 500.292,56.545 503.178,58.211 499.258,60.489 502.597,62.417 506.517,60.138 			"/>
		</g>
		<g>
			<polygon fill="#CCCCCC" points="498.772,55.667 496.438,57.024 493.847,55.528 485.613,60.312 482.739,58.653 490.973,53.868 
				488.381,52.372 490.715,51.015 			"/>
		</g>
		<g>
			<path fill="#CCCCCC" d="M607.363,118.362l-8.091,0.819l-2.535,5.29l-3.243-1.873l1.934-3.564l-1.357-0.195l-3.532,2.053
				l-2.886-1.666l10.568-6.142l2.885,1.666l-4.593,2.669c0.433-0.081,1.177-0.173,2.232-0.276l5.477-0.594L607.363,118.362z"/>
		</g>
		<g>
			<path fill="#CCCCCC" d="M626.753,129.557l-10.567,6.141l-3.767-2.174l3.564-6.569l-0.07-0.041
				c-1.078,0.737-1.928,1.283-2.543,1.641l-4.764,2.768l-2.548-1.471l10.568-6.142l3.754,2.167l-3.477,6.503l0.045,0.026
				c1.002-0.656,1.819-1.176,2.467-1.552l4.776-2.776L626.753,129.557z"/>
		</g>
		<g enable-background="new    ">
			<g>
				<polygon fill="#CCCCCC" points="591.479,129.767 589.188,131.098 585.748,129.111 584.079,130.08 587.266,131.92 
					584.976,133.251 581.789,131.411 579.798,132.569 583.238,134.555 580.911,135.908 574.597,132.263 585.164,126.121 				"/>
			</g>
			<g>
				<polygon fill="#CCCCCC" points="599.651,134.486 597.361,135.816 593.92,133.829 592.252,134.799 595.438,136.638 
					593.147,137.969 589.962,136.13 587.971,137.287 591.411,139.274 589.083,140.627 582.769,136.981 593.337,130.84 				"/>
			</g>
			<g>
				<polygon fill="#CCCCCC" points="608.794,139.764 606.46,141.12 603.874,139.628 595.641,144.412 592.768,142.754 
					601.001,137.969 598.402,136.469 600.736,135.112 				"/>
			</g>
		</g>
		<g enable-background="new    ">
			<g>
				<path fill="#CCCCCC" d="M561.145,91.677l-13.191,4.626l-3.397-1.961l3.59-3.263c0.14-0.14,0.45-0.409,0.919-0.8
					s0.874-0.715,1.21-0.969c-0.355,0.162-0.807,0.35-1.359,0.567c-0.553,0.225-1.066,0.42-1.542,0.601
					c-0.471,0.177-2.407,0.888-5.799,2.142l-3.396-1.961l7.938-7.66l2.771,1.6l-4.141,3.745c-0.912,0.833-1.665,1.478-2.262,1.935
					c0.553-0.247,1.333-0.567,2.336-0.966c1.011-0.395,1.855-0.715,2.554-0.958l4.935-1.781l2.662,1.537l-3.083,2.85
					c-0.486,0.461-1.07,0.985-1.748,1.563c-0.677,0.579-1.196,1.006-1.558,1.275c0.597-0.273,1.695-0.712,3.296-1.316l6.489-2.411
					L561.145,91.677z"/>
			</g>
			<g>
				<path fill="#CCCCCC" d="M568.716,95.998l-7.101,8.194l-3.141-1.813l1.455-1.452l-3.454-1.995l-2.521,0.837l-3.154-1.821
					l14.079-4.166L568.716,95.998z M559.41,97.915l2.261,1.305l1.284-1.272c0.278-0.288,0.645-0.649,1.107-1.095
					c0.456-0.442,0.791-0.756,1.007-0.94c-0.286,0.121-0.782,0.306-1.468,0.557C562.91,96.724,561.513,97.203,559.41,97.915"/>
			</g>
			<g>
				<polygon fill="#CCCCCC" points="544.066,102.393 534.129,104.115 530,106.515 527.102,104.841 531.142,102.493 534.17,96.68 
					537.299,98.487 535.198,101.815 540.95,100.594 				"/>
			</g>
			<g>
				<path fill="#CCCCCC" d="M573.384,105.652l-1.502,4.468l-3.263-1.883l1.591-3.535l-0.728-0.42l-3.845,2.234l-2.873-1.659
					l10.568-6.141l3.485,2.013c2.892,1.669,3.295,3.107,1.214,4.316C576.809,105.755,575.257,105.962,573.384,105.652z
					 M572.168,103.341c1.009,0.583,1.945,0.616,2.826,0.104c0.729-0.424,0.6-0.918-0.384-1.486l-0.567-0.328l-2.411,1.4
					L572.168,103.341"/>
			</g>
			<g>
				<path fill="#CCCCCC" d="M548.95,105.037c1.104,0.637,1.974,1.434,2.609,2.389l-3.089,0.774
					c-0.539-0.841-1.166-1.467-1.888-1.884c-0.377-0.218-0.715-0.332-1.014-0.358c-0.3-0.018-0.547,0.022-0.743,0.137
					c-0.203,0.118-0.279,0.287-0.227,0.508c0.052,0.221,0.335,0.73,0.854,1.537c0.514,0.767,0.708,1.386,0.597,1.865
					c-0.118,0.483-0.529,0.929-1.24,1.342c-0.653,0.38-1.402,0.623-2.248,0.723c-0.84,0.103-1.725,0.055-2.636-0.147
					c-0.912-0.196-1.792-0.542-2.641-1.032c-0.709-0.409-1.252-0.781-1.63-1.117c-0.384-0.332-0.717-0.722-0.985-1.165l2.543-1.478
					c0.27,0.479,0.622,0.932,1.058,1.367s0.901,0.793,1.393,1.077c0.429,0.247,0.812,0.387,1.161,0.413
					c0.345,0.03,0.636-0.022,0.864-0.155c0.146-0.085,0.235-0.181,0.26-0.291c0.025-0.11,0.005-0.247-0.054-0.413
					c-0.07-0.166-0.314-0.571-0.738-1.213c-0.385-0.582-0.598-1.058-0.65-1.426c-0.053-0.376,0.027-0.719,0.242-1.036
					c0.215-0.317,0.582-0.627,1.103-0.929c0.97-0.564,2.082-0.804,3.343-0.708S547.704,104.318,548.95,105.037z"/>
			</g>
			<g>
				<path fill="#CCCCCC" d="M589.749,109.699c0.057,1.039-0.733,2.039-2.369,2.989c-1.764,1.025-3.612,1.53-5.54,1.519
					c-1.936-0.007-3.784-0.523-5.553-1.544l-3.44-1.987l10.567-6.142l3.684,2.127C588.803,107.646,589.681,108.66,589.749,109.699z
					 M581.375,112.014c0.916-0.059,1.888-0.387,2.922-0.988c0.97-0.564,1.496-1.091,1.576-1.588c0.079-0.49-0.273-0.966-1.059-1.419
					l-0.837-0.482l-5.918,3.439l0.639,0.369C579.572,111.848,580.466,112.07,581.375,112.014"/>
			</g>
			<g>
				<path fill="#CCCCCC" d="M561.419,112.236c1.099,0.634,1.969,1.431,2.609,2.389l-3.088,0.774
					c-0.539-0.841-1.167-1.467-1.888-1.884c-0.377-0.218-0.721-0.335-1.014-0.358c-0.307-0.022-0.548,0.022-0.744,0.137
					c-0.203,0.118-0.278,0.288-0.227,0.508c0.045,0.218,0.335,0.73,0.855,1.538c0.507,0.763,0.707,1.386,0.596,1.865
					c-0.118,0.483-0.529,0.929-1.24,1.342c-0.653,0.38-1.408,0.62-2.249,0.723c-0.839,0.103-1.724,0.056-2.635-0.147
					c-0.911-0.195-1.792-0.542-2.641-1.032c-0.709-0.409-1.252-0.781-1.629-1.117c-0.39-0.335-0.717-0.722-0.987-1.165l2.544-1.478
					c0.271,0.479,0.623,0.933,1.058,1.368c0.43,0.431,0.896,0.789,1.394,1.076c0.428,0.248,0.811,0.387,1.161,0.413
					c0.344,0.029,0.636-0.022,0.864-0.155c0.146-0.085,0.229-0.185,0.259-0.292c0.025-0.11,0.006-0.247-0.06-0.416
					c-0.064-0.163-0.309-0.568-0.731-1.209c-0.385-0.582-0.599-1.058-0.658-1.43c-0.046-0.372,0.035-0.715,0.249-1.032
					c0.209-0.32,0.576-0.63,1.097-0.933c0.971-0.564,2.089-0.8,3.35-0.704C558.918,111.108,560.174,111.517,561.419,112.236z"/>
			</g>
			<g>
				<polygon fill="#CCCCCC" points="573.563,119.424 571.229,120.78 568.638,119.284 560.403,124.069 557.531,122.41 
					565.765,117.625 563.166,116.125 565.5,114.768 				"/>
			</g>
			<g>
				<path fill="#CCCCCC" d="M575.135,127.239l-1.509,4.464l-3.256-1.88l1.591-3.535l-0.729-0.42l-3.844,2.234l-2.873-1.659
					l10.567-6.142l3.479,2.009c2.893,1.669,3.295,3.107,1.208,4.32C578.553,127.338,577.001,127.545,575.135,127.239z
					 M573.912,124.931c1.003,0.579,1.951,0.612,2.833,0.1c0.729-0.424,0.6-0.918-0.384-1.486l-0.568-0.328l-2.417,1.405
					L573.912,124.931"/>
			</g>
		</g>
		<g>
			<polygon fill="#CCCCCC" points="614.77,122.638 612.479,123.969 609.038,121.982 607.369,122.951 610.556,124.791 
				608.266,126.121 605.079,124.282 603.088,125.44 606.529,127.427 604.201,128.78 597.887,125.134 608.455,118.992 			"/>
		</g>
		<g>
			<path fill="#CCCCCC" d="M646.188,140.726l-7.101,8.195l-3.141-1.813l1.455-1.453l-3.46-1.998l-2.516,0.841l-3.154-1.821
				l14.079-4.166L646.188,140.726z M636.882,142.643l2.26,1.305l1.278-1.275c0.284-0.284,0.646-0.649,1.107-1.095
				c0.463-0.439,0.798-0.752,1.014-0.937c-0.293,0.118-0.782,0.306-1.468,0.557C640.382,141.452,638.983,141.931,636.882,142.643"/>
		</g>
		<g>
			<path fill="#CCCCCC" d="M635.387,136.048c0.057,1.04-0.733,2.039-2.369,2.99c-1.764,1.024-3.606,1.534-5.534,1.522
				c-1.942-0.011-3.79-0.527-5.559-1.548l-3.44-1.987l10.567-6.141l3.684,2.126C634.44,133.995,635.324,135.012,635.387,136.048z
				 M627.013,138.364c0.915-0.06,1.888-0.388,2.921-0.988c0.971-0.564,1.496-1.091,1.583-1.585c0.073-0.494-0.279-0.969-1.065-1.423
				l-0.836-0.483l-5.918,3.439l0.645,0.372C625.21,138.198,626.109,138.422,627.013,138.364"/>
		</g>
		<g>
			<polygon fill="#CCCCCC" points="662.348,150.107 654.082,154.91 658.175,157.274 655.872,158.612 648.906,154.59 
				659.475,148.448 			"/>
		</g>
		<g>
			<polygon fill="#CCCCCC" points="653.677,145.101 645.412,149.905 649.504,152.267 647.201,153.606 640.236,149.584 
				650.805,143.443 			"/>
		</g>
		<g>
			<path fill="#CCCCCC" d="M483.736,67.386c0.671,0.387,1.239,0.789,1.706,1.205c0.468,0.417,0.826,0.808,1.076,1.172l-3.146,0.778
				c-0.392-0.66-1.05-1.253-1.963-1.78c-0.844-0.487-1.754-0.704-2.76-0.652c-0.998,0.048-2.002,0.365-3.011,0.951
				c-0.989,0.575-1.527,1.132-1.633,1.674c-0.111,0.538,0.229,1.036,1.008,1.485c0.428,0.247,0.867,0.45,1.308,0.608l1.655-0.962
				l-1.896-1.095l2.201-1.279l4.591,2.65l-5.696,3.311c-1.671-0.479-3.253-1.143-4.747-2.005c-1.641-0.947-2.429-1.954-2.384-3.022
				c0.045-1.062,0.949-2.105,2.693-3.119c1.706-0.991,3.53-1.481,5.452-1.467C480.126,65.852,481.975,66.368,483.736,67.386z"/>
		</g>
		<g>
			<polygon fill="#CCCCCC" points="507.77,81.438 499.505,86.241 503.604,88.607 501.301,89.946 494.336,85.924 504.903,79.782 			
				"/>
		</g>
		<g>
			<path fill="#CCCCCC" d="M530.719,96.193c0.063,1.043-0.728,2.042-2.364,2.994c-1.763,1.024-3.611,1.53-5.54,1.519
				c-1.936-0.008-3.783-0.523-5.552-1.544l-3.441-1.987l10.567-6.141l3.678,2.123C529.777,94.144,530.655,95.158,530.719,96.193z
				 M522.351,98.512c0.915-0.059,1.887-0.387,2.921-0.988c0.971-0.564,1.49-1.095,1.576-1.588c0.074-0.494-0.272-0.966-1.059-1.42
				l-0.836-0.482l-5.918,3.439l0.639,0.369C520.548,98.346,521.44,98.568,522.351,98.512"/>
		</g>
		<g>
			<path fill="#CCCCCC" d="M519.767,88.312l-7.095,8.198l-3.141-1.813l1.455-1.453l-3.461-1.998l-2.515,0.84l-3.154-1.821
				l14.079-4.166L519.767,88.312z M510.466,90.233l2.261,1.305l1.278-1.275c0.285-0.284,0.646-0.649,1.107-1.095
				c0.456-0.442,0.798-0.752,1.014-0.937c-0.293,0.118-0.782,0.306-1.468,0.557C513.96,89.039,512.569,89.521,510.466,90.233"/>
		</g>
		<g>
			<path fill="#CCCCCC" d="M503.523,78.987l-13.186,4.629l-3.396-1.961l3.584-3.266c0.146-0.136,0.45-0.401,0.925-0.796
				c0.462-0.395,0.868-0.719,1.21-0.969c-0.355,0.162-0.807,0.35-1.358,0.567c-0.56,0.221-1.067,0.42-1.544,0.601
				c-0.476,0.173-2.406,0.889-5.798,2.142l-3.396-1.961l7.931-7.664l2.771,1.6l-4.135,3.75c-0.912,0.833-1.666,1.478-2.261,1.935
				c0.552-0.247,1.326-0.571,2.336-0.966c1.003-0.398,1.854-0.715,2.553-0.958l4.935-1.781l2.663,1.537l-3.09,2.846
				c-0.481,0.464-1.07,0.984-1.741,1.566c-0.677,0.579-1.203,1.003-1.559,1.276c0.591-0.277,1.689-0.715,3.296-1.316l6.49-2.411
				L503.523,78.987z"/>
		</g>
		<g>
			<polygon fill="#CCCCCC" points="620.503,146.524 618.213,147.855 614.772,145.868 613.104,146.838 616.29,148.677 614,150.008 
				610.814,148.169 608.822,149.326 612.264,151.313 609.936,152.666 603.621,149.02 614.189,142.879 			"/>
		</g>
		<g>
			<path fill="#CCCCCC" d="M641.122,159.935c0.056,1.04-0.733,2.039-2.37,2.99c-1.764,1.024-3.605,1.534-5.534,1.522
				c-1.935-0.007-3.79-0.527-5.559-1.548l-3.44-1.987l10.567-6.141l3.684,2.126C640.175,157.882,641.052,158.895,641.122,159.935z
				 M632.747,162.25c0.916-0.059,1.888-0.387,2.922-0.988c0.97-0.564,1.496-1.091,1.576-1.589c0.08-0.49-0.272-0.966-1.059-1.419
				l-0.836-0.482l-5.918,3.439l0.638,0.369C630.945,162.084,631.838,162.305,632.747,162.25"/>
		</g>
		<g>
			<path fill="#CCCCCC" d="M632.487,153.444l-10.567,6.141l-3.768-2.175l3.559-6.565l-0.069-0.041
				c-1.071,0.733-1.921,1.279-2.536,1.637l-4.764,2.769l-2.549-1.471l10.568-6.142l3.754,2.167l-3.476,6.502l0.045,0.026
				c1.001-0.656,1.819-1.176,2.466-1.552l4.776-2.776L632.487,153.444z"/>
		</g>
	</g>
</g>
</svg>
