<svg>
  <g id="JS-STAND">
    <polygon fill="#E1F4FD" points="261.881,55.877 233.187,33.316 262.846,27.863 	" />
    <polygon fill="#C3D4DD" points="262.833,22.007 229.866,27.891 229.866,30.706 233.187,33.316 262.846,27.862 262.846,22.009 
		262.833,22.006 	" />
    <polygon fill="#BCBEC0" points="222.071,9.991 262.846,17.273 262.846,22.009 229.867,15.284 229.867,30.8 262.846,56.727 
		222.071,38.602 	" />
    <polygon fill="#A7A9AC" points="222.071,38.585 59.686,68.909 59.686,36.18 222.071,9.991 	" />
    <polygon fill="#939598" points="222.07,38.585 263,56.773 90.806,93.041 59.686,68.909 	" />
    <polygon fill="#E6E7E8" points="262.846,17.272 221.967,9.991 59.763,36.18 90.852,47.214 	" />
    <polygon fill="#D1D3D4" points="59.702,36.179 90.82,47.192 90.82,52.704 67.743,44.539 67.743,60.015 90.82,93.062 59.702,68.928 
			" />
    <polygon fill="#CBCCCE" points="262.833,22.007 90.818,52.704 90.818,47.219 262.833,17.273 	" />
    <polygon fill="#C4C4C4" points="67.743,59.777 67.743,50.092 61.723,51.094 	" />
    <polygon fill="#C4CED4" points="67.742,50.09 67.742,44.539 78.411,48.313 	" />
    <polyline fill="#C4CED4" points="72.307,66.552 67.742,60.016 67.742,59.858 72.337,66.546 72.307,66.552 	" />
    <polygon id="E-EA" stroke-width="0" points="93.736,52.183 90.82,52.703 90.82,52.704 90.818,52.704 78.414,48.314 67.743,50.092 
		67.743,59.777 90.008,91.895 119.572,85.699 	" />
    <polygon id="E-EB" stroke-width="0" points="122.068,47.127 95.61,51.849 122.144,85.16 150.574,79.202 	" />
    <polygon id="E-EC" stroke-width="0" points="149.816,42.175 124.385,46.714 153.057,78.682 180.238,72.986 	" />
    <polygon id="E-ED" stroke-width="0" points="176.509,37.412 152.043,41.778 182.612,72.488 208.624,67.037 	" />
    <polygon id="E-EE" stroke-width="0" points="202.2,32.827 178.65,37.03 210.896,66.561 235.813,61.339 	" />
    <polygon id="E-EF" stroke-width="0" points="226.948,28.411 204.263,32.459 237.991,60.882 261.879,55.876 	" />
    <g>
      <polygon fill="none" points="71.827,42.384 71.586,32.504 248.765,2.864 249.006,12.744 		" />
      <g>
        <path fill="#939598" d="M74.69,32.002c-0.934,0.156-1.662,0.521-2.185,1.095c-0.523,0.573-0.77,1.283-0.749,2.13
				c0.011,0.458,0.1,0.834,0.268,1.144c0.176,0.309,0.398,0.567,0.676,0.781c0.278,0.205,0.691,0.405,1.232,0.592
				c0.589,0.197,0.978,0.349,1.165,0.457c0.195,0.106,0.342,0.221,0.441,0.352s0.151,0.287,0.156,0.477
				c0.008,0.337-0.097,0.606-0.309,0.815c-0.219,0.21-0.536,0.35-0.943,0.418c-0.343,0.058-0.728,0.061-1.146,0.009
				c-0.41-0.053-0.925-0.166-1.531-0.351l0.046,1.884c0.735,0.267,1.578,0.317,2.527,0.159c1.021-0.171,1.821-0.557,2.384-1.145
				c0.562-0.598,0.833-1.328,0.812-2.193c-0.015-0.631-0.18-1.133-0.501-1.513c-0.314-0.381-0.891-0.719-1.73-1.004
				c-0.638-0.223-1.035-0.382-1.206-0.475c-0.17-0.093-0.301-0.202-0.376-0.328c-0.083-0.116-0.127-0.265-0.131-0.446
				c-0.007-0.294,0.083-0.543,0.27-0.748c0.187-0.214,0.456-0.354,0.807-0.413c0.303-0.051,0.607-0.059,0.92-0.023
				c0.313,0.034,0.7,0.108,1.184,0.244l0.568-1.683c-0.468-0.139-0.903-0.231-1.329-0.281C75.593,31.903,75.153,31.925,74.69,32.002
				" />
        <polyline fill="#939598" points="86.039,30.234 79.345,31.354 79.386,33.048 81.795,32.645 81.988,40.554 83.863,40.24 
				83.67,32.331 86.08,31.928 86.039,30.234 			" />
        <path fill="#939598" d="M92.657,37.189c-0.742,0.124-1.315-0.058-1.704-0.54c-0.388-0.473-0.591-1.255-0.617-2.327
				c-0.026-1.072,0.146-1.908,0.507-2.524c0.37-0.6,0.922-0.97,1.672-1.095c1.492-0.25,2.26,0.707,2.313,2.868
				C94.881,35.732,94.157,36.938,92.657,37.189 M92.474,29.01c-1.364,0.229-2.399,0.827-3.104,1.787
				c-0.706,0.969-1.043,2.249-1.004,3.848c0.039,1.59,0.428,2.758,1.183,3.491c0.747,0.734,1.794,0.984,3.151,0.757
				c1.364-0.228,2.391-0.825,3.097-1.802c0.712-0.979,1.042-2.258,1.003-3.848c-0.039-1.591-0.428-2.75-1.167-3.485
				C94.886,29.031,93.838,28.781,92.474,29.01" />
        <path fill="#939598" d="M110.645,26.117l-1.851,0.31l-0.997,5.435c-0.064,0.323-0.134,0.751-0.209,1.276
				c-0.076,0.525-0.137,0.96-0.168,1.304c-0.049-0.348-0.123-0.761-0.223-1.239c-0.099-0.478-0.172-0.839-0.234-1.063l-1.424-5.169
				l-1.779,0.298l-1.162,5.602c-0.065,0.297-0.135,0.716-0.21,1.25c-0.075,0.542-0.121,0.94-0.139,1.186
				c-0.105-0.694-0.269-1.508-0.492-2.435l-1.261-5.057l-1.851,0.31l2.492,9.225l2.138-0.357l1.066-5.229
				c0.051-0.234,0.113-0.618,0.205-1.154c0.083-0.543,0.129-0.933,0.147-1.17c0.021,0.188,0.094,0.558,0.211,1.102
				c0.125,0.543,0.206,0.902,0.259,1.076l1.319,4.839l2.138-0.358L110.645,26.117" />
        <polyline fill="#939598" points="118.08,24.874 112.998,25.724 113.232,35.327 115.083,35.017 114.991,31.223 117.999,30.72 
				117.958,29.06 114.95,29.563 114.89,27.083 118.121,26.542 118.08,24.874 			" />
        <path fill="#939598" d="M125.074,31.767c-0.75,0.125-1.315-0.058-1.704-0.54c-0.388-0.473-0.599-1.254-0.625-2.326
				c-0.026-1.072,0.146-1.908,0.507-2.523c0.37-0.6,0.93-0.971,1.672-1.095c1.492-0.25,2.268,0.705,2.321,2.866
				C127.297,30.31,126.574,31.516,125.074,31.767 M124.883,23.588c-1.357,0.227-2.392,0.825-3.105,1.786
				c-0.706,0.969-1.043,2.249-1.004,3.848c0.039,1.591,0.436,2.757,1.183,3.491s1.802,0.983,3.159,0.756s2.391-0.825,3.097-1.802
				c0.705-0.978,1.042-2.258,1.003-3.848c-0.039-1.591-0.436-2.748-1.174-3.483C127.302,23.608,126.247,23.36,124.883,23.588"
        />
        <path fill="#939598" d="M134.157,26.463l-0.063-2.593l0.567-0.095c0.606-0.102,1.056-0.073,1.347,0.069
				c0.292,0.142,0.452,0.445,0.462,0.895c0.011,0.458-0.124,0.819-0.406,1.083c-0.274,0.263-0.71,0.44-1.301,0.539L134.157,26.463
				 M134.755,22.084l-2.585,0.433l0.234,9.603l1.883-0.315l-0.089-3.683l0.997-0.167l2.204,3.329l2.083-0.349
				c-0.414-0.564-1.318-1.811-2.703-3.748c0.52-0.339,0.911-0.751,1.187-1.24c0.277-0.48,0.408-1.015,0.395-1.576
				c-0.023-0.968-0.329-1.637-0.915-2.017C136.852,21.977,135.96,21.882,134.755,22.084" />
        <path fill="#939598" d="M143.677,28.542l-0.152-6.249l0.997-0.167c1.684-0.282,2.546,0.616,2.596,2.672
				c0.052,2.109-0.825,3.306-2.636,3.609L143.677,28.542 M144.386,20.473l-2.777,0.464l0.234,9.603l2.505-0.419
				c1.572-0.263,2.758-0.887,3.568-1.864c0.809-0.978,1.194-2.257,1.156-3.838c-0.036-1.487-0.463-2.57-1.281-3.266
				C146.965,20.458,145.837,20.23,144.386,20.473" />
        <path fill="#939598" d="M158.49,22.652l-0.069-2.852l0.854-0.143c0.51-0.085,0.889-0.027,1.141,0.156
				c0.245,0.185,0.373,0.52,0.385,0.995c0.011,0.475-0.123,0.862-0.405,1.152c-0.281,0.298-0.709,0.491-1.291,0.589L158.49,22.652
				 M159.33,17.973l-2.833,0.474l0.234,9.603l1.883-0.315l-0.083-3.414l0.806-0.135c1.101-0.185,1.94-0.603,2.517-1.246
				c0.585-0.645,0.869-1.491,0.844-2.52c-0.024-0.994-0.329-1.698-0.9-2.106C161.226,17.908,160.406,17.793,159.33,17.973"
        />
        <path fill="#939598" d="M167.515,20.882l-0.063-2.593l0.575-0.096c0.598-0.1,1.055-0.072,1.347,0.07s0.443,0.446,0.455,0.896
				c0.011,0.458-0.124,0.819-0.398,1.082c-0.282,0.264-0.71,0.44-1.309,0.54L167.515,20.882 M168.113,16.504l-2.577,0.431
				l0.234,9.603l1.875-0.313l-0.09-3.682l0.997-0.167l2.212,3.327l2.083-0.348c-0.422-0.563-1.326-1.809-2.711-3.747
				c0.52-0.338,0.919-0.752,1.195-1.242c0.276-0.48,0.408-1.014,0.394-1.576c-0.023-0.968-0.328-1.638-0.922-2.016
				C170.218,16.395,169.318,16.302,168.113,16.504" />
        <polyline fill="#939598" points="180.073,14.503 174.967,15.357 175.201,24.96 180.308,24.106 180.266,22.42 177.043,22.96 
				176.982,20.488 179.983,19.986 179.942,18.317 176.942,18.819 176.891,16.711 180.114,16.171 180.073,14.503 			" />
        <path fill="#939598" d="M185.711,13.43c-0.933,0.156-1.662,0.521-2.185,1.095c-0.514,0.572-0.77,1.283-0.749,2.13
				c0.011,0.458,0.108,0.832,0.276,1.143s0.391,0.569,0.668,0.783c0.277,0.205,0.691,0.405,1.24,0.59
				c0.582,0.198,0.97,0.351,1.165,0.457c0.187,0.108,0.333,0.222,0.433,0.353c0.1,0.131,0.151,0.288,0.156,0.478
				c0.008,0.337-0.089,0.605-0.308,0.815c-0.22,0.21-0.528,0.349-0.943,0.418c-0.343,0.058-0.72,0.06-1.138,0.008
				c-0.418-0.052-0.933-0.165-1.53-0.352l0.046,1.884c0.735,0.267,1.57,0.319,2.519,0.16c1.029-0.172,1.821-0.557,2.383-1.145
				c0.563-0.598,0.833-1.328,0.812-2.193c-0.016-0.63-0.18-1.133-0.493-1.514c-0.322-0.38-0.899-0.718-1.739-1.003
				c-0.63-0.224-1.035-0.382-1.205-0.475c-0.17-0.093-0.293-0.203-0.376-0.328c-0.083-0.116-0.119-0.267-0.123-0.448
				c-0.007-0.294,0.075-0.542,0.262-0.747c0.187-0.213,0.456-0.354,0.815-0.414c0.295-0.049,0.6-0.057,0.913-0.022
				c0.313,0.034,0.708,0.107,1.183,0.244l0.568-1.683c-0.46-0.14-0.903-0.231-1.321-0.282
				C186.614,13.331,186.174,13.353,185.711,13.43" />
        <path fill="#939598" d="M193.793,12.078c-0.942,0.158-1.67,0.522-2.185,1.094c-0.523,0.574-0.77,1.284-0.749,2.13
				c0.011,0.458,0.1,0.833,0.268,1.144c0.167,0.311,0.398,0.567,0.667,0.783c0.278,0.205,0.691,0.405,1.241,0.59
				c0.589,0.197,0.978,0.349,1.165,0.457c0.195,0.106,0.334,0.222,0.441,0.351c0.099,0.131,0.151,0.288,0.156,0.478
				c0.008,0.337-0.098,0.606-0.317,0.816c-0.211,0.209-0.528,0.349-0.935,0.417c-0.343,0.058-0.728,0.061-1.146,0.009
				c-0.417-0.051-0.925-0.166-1.53-0.351l0.046,1.884c0.735,0.267,1.578,0.317,2.52,0.16c1.029-0.172,1.821-0.556,2.391-1.146
				c0.562-0.598,0.833-1.329,0.812-2.193c-0.016-0.631-0.188-1.132-0.502-1.513c-0.313-0.381-0.898-0.717-1.73-1.004
				c-0.639-0.223-1.043-0.38-1.213-0.474c-0.17-0.093-0.293-0.203-0.376-0.328c-0.075-0.117-0.119-0.267-0.123-0.448
				c-0.007-0.294,0.083-0.543,0.271-0.748c0.179-0.212,0.456-0.354,0.807-0.413c0.303-0.051,0.607-0.058,0.913-0.022
				c0.313,0.034,0.708,0.107,1.184,0.245l0.568-1.683c-0.46-0.14-0.903-0.231-1.321-0.282C194.696,11.979,194.256,12,193.793,12.078
				" />
        <path fill="#939598" d="M206.335,9.979c-0.941,0.158-1.67,0.522-2.184,1.095c-0.523,0.573-0.77,1.283-0.75,2.13
				c0.011,0.458,0.101,0.833,0.269,1.144c0.167,0.311,0.39,0.568,0.668,0.783c0.277,0.205,0.69,0.405,1.24,0.59
				c0.582,0.198,0.97,0.35,1.165,0.457c0.195,0.106,0.334,0.222,0.441,0.352c0.1,0.13,0.151,0.287,0.156,0.477
				c0.008,0.337-0.098,0.606-0.316,0.817c-0.211,0.209-0.528,0.349-0.936,0.417c-0.351,0.059-0.727,0.061-1.145,0.009
				c-0.418-0.051-0.926-0.166-1.531-0.351l0.046,1.884c0.735,0.267,1.578,0.317,2.52,0.16c1.029-0.172,1.821-0.557,2.383-1.146
				c0.57-0.599,0.841-1.329,0.82-2.194c-0.016-0.63-0.188-1.131-0.501-1.513c-0.322-0.38-0.899-0.717-1.731-1.004
				c-0.638-0.223-1.043-0.38-1.213-0.474c-0.17-0.093-0.293-0.203-0.376-0.328c-0.075-0.118-0.119-0.267-0.123-0.448
				c-0.007-0.294,0.083-0.543,0.271-0.749c0.179-0.212,0.456-0.354,0.807-0.413c0.303-0.051,0.607-0.059,0.913-0.022
				c0.313,0.034,0.708,0.107,1.183,0.245l0.568-1.683c-0.459-0.14-0.902-0.231-1.321-0.282
				C207.238,9.881,206.791,9.903,206.335,9.979" />
        <polyline fill="#939598" points="217.676,8.212 210.99,9.331 211.031,11.025 213.433,10.624 213.625,18.532 215.509,18.217 
				215.316,10.309 217.717,9.907 217.676,8.212 			" />
        <path fill="#939598" d="M222.448,13.047c0.576-2.318,0.917-3.764,1.04-4.349c0.036,0.159,0.097,0.357,0.175,0.622
				c0.086,0.255,0.45,1.375,1.091,3.341L222.448,13.047 M224.592,7.021l-2.297,0.384l-2.893,10.161l2.026-0.339l0.583-2.389
				l3.231-0.541l0.702,2.174l2.019-0.338L224.592,7.021" />
        <path fill="#939598" d="M237.95,4.821l-1.692,0.283l0.111,4.547c0.013,0.519,0.066,1.395,0.152,2.63l-0.04,0.006l-4.021-6.548
				l-2.37,0.396l0.234,9.603l1.675-0.28l-0.11-4.521c-0.013-0.544-0.076-1.454-0.179-2.722l0.056-0.009l4.03,6.616l2.386-0.399
				L237.95,4.821" />
        <path fill="#939598" d="M243.488,11.844l-0.152-6.249l1.006-0.168c1.675-0.28,2.546,0.615,2.596,2.672
				c0.051,2.109-0.833,3.307-2.644,3.61L243.488,11.844 M244.205,3.774L241.42,4.24l0.234,9.603l2.505-0.419
				c1.572-0.263,2.758-0.887,3.567-1.864c0.81-0.978,1.195-2.257,1.157-3.838c-0.036-1.487-0.463-2.57-1.281-3.266
				C246.784,3.76,245.649,3.533,244.205,3.774" />
      </g>
    </g>
  </g>
  <g id="PITCH">
    <polygon fill="#F2F2F2" points="596.812,183.04 284.447,52.377 64.745,98.674 317.364,315.313 	" />
    <polygon fill="#84AA3F" points="278.974,54.935 568.578,179.96 320.03,292.229 82.946,97.543 	" />
    <g id="PITCH-MARKINGS">
      <path fill="#FFFFFF" d="M323.406,275.024l-222.585-173.55c-0.097-0.074,0.102-0.195,0.443-0.269l174.664-38.209
			c0.252-0.055,0.557-0.055,0.68,0L540.202,180.45c0.28,0.126,0.274,0.327-0.012,0.451l-215.489,94.123
			C324.242,275.225,323.661,275.227,323.406,275.024 M102.228,101.34l222.373,172.602l214.067-93.264L275.919,63.296L102.228,101.34
			" />
      <path fill="#FFFFFF" d="M109.923,108.572c-0.1-0.078,0.099-0.204,0.446-0.282l177.25-40.078c0.254-0.057,0.564-0.058,0.695,0
			c0.128,0.057,0.026,0.15-0.227,0.209l-177.353,40.151C110.387,108.651,110.023,108.65,109.923,108.572" />
      <path fill="#FFFFFF" d="M139.565,131.684c-0.119-0.092,0.083-0.242,0.449-0.332l185.084-46.416c0.264-0.066,0.598-0.065,0.743,0
			c0.148,0.067,0.055,0.172-0.208,0.238l-185.189,46.51C140.075,131.776,139.683,131.775,139.565,131.684" />
      <path fill="#FFFFFF" d="M300.589,257.234c-0.236-0.186-0.063-0.482,0.386-0.667l213.232-87.257
			c0.286-0.117,0.727-0.116,0.988-0.001c0.261,0.117,0.242,0.306-0.037,0.422l-213.326,87.503
			C301.381,257.419,300.825,257.419,300.589,257.234" />
      <path fill="#FFFFFF" d="M243.067,212.385c-0.191-0.147,0.002-0.386,0.427-0.534l205.833-71.491c0.279-0.096,0.684-0.096,0.901,0
			c0.217,0.098,0.168,0.257-0.112,0.354l-205.938,71.67C243.754,212.531,243.258,212.531,243.067,212.385" />
      <path fill="#FFFFFF" d="M185.231,167.289c-0.148-0.116,0.052-0.301,0.446-0.416l195.472-56.931c0.271-0.081,0.636-0.081,0.813,0
			c0.178,0.077,0.103,0.206-0.172,0.287l-195.578,57.06C185.816,167.404,185.378,167.404,185.231,167.289" />
      <path fill="#FFFFFF" d="M183.88,149.202c-0.139-0.104,0.051-0.271,0.425-0.374l9.467-2.607c0.367-0.1,0.781-0.1,0.921-0.001
			c0.142,0.102-0.041,0.265-0.409,0.368l-9.475,2.613C184.436,149.304,184.02,149.305,183.88,149.202" />
      <path fill="#FFFFFF" d="M160.88,132.176l-11.973-8.864c-0.116-0.089,0.075-0.229,0.429-0.316c0.353-0.087,0.736-0.086,0.854,0
			l11.999,8.844c0.123,0.094-0.067,0.243-0.428,0.336C161.401,132.267,161.006,132.267,160.88,132.176" />
      <path fill="#FFFFFF" d="M270.289,213.174l-19.073-14.121c-0.186-0.138-0.006-0.359,0.401-0.498c0.406-0.136,0.885-0.138,1.072,0
			l19.104,14.082c0.202,0.149,0.026,0.389-0.387,0.536C270.991,213.322,270.49,213.323,270.289,213.174" />
      <path fill="#FFFFFF" d="M188.887,152.907l-10.311-7.632c-0.136-0.099,0.056-0.262,0.426-0.364c0.372-0.1,0.782-0.1,0.918,0
			l10.33,7.614c0.142,0.107-0.048,0.277-0.423,0.382C189.451,153.012,189.028,153.012,188.887,152.907" />
      <path fill="#FFFFFF" d="M207.223,166.484l-11.179-8.278c-0.148-0.108,0.041-0.284,0.422-0.393c0.379-0.11,0.806-0.111,0.954,0
			l11.201,8.256c0.155,0.114-0.033,0.299-0.418,0.414C207.816,166.597,207.378,166.598,207.223,166.484" />
      <path fill="#FFFFFF" d="M135.443,113.342l-4.402-3.258c-0.108-0.079,0.084-0.21,0.427-0.286c0.342-0.08,0.707-0.08,0.816-0.003
			l4.409,3.252c0.112,0.082-0.08,0.214-0.425,0.295C135.922,113.423,135.554,113.423,135.443,113.342" />
      <path fill="#FFFFFF" d="M304.958,238.84l-9.095-6.735c-0.221-0.163-0.057-0.427,0.368-0.59c0.425-0.164,0.948-0.164,1.168-0.001
			l9.11,6.714c0.227,0.169,0.067,0.441-0.363,0.612C305.718,239.01,305.187,239.008,304.958,238.84" />
      <path fill="#FFFFFF" d="M233.565,153.199l-3.852-2.59c-0.155-0.104,0.014-0.273,0.372-0.377c0.363-0.102,0.778-0.102,0.933,0
			l3.857,2.585c0.157,0.105-0.007,0.276-0.37,0.382S233.72,153.306,233.565,153.199" />
      <path fill="#FFFFFF" d="M217.609,142.472l-5.382-3.618c-0.142-0.098,0.027-0.252,0.381-0.351c0.353-0.095,0.753-0.095,0.897,0
			l5.39,3.612c0.148,0.097-0.019,0.257-0.377,0.357C218.164,142.569,217.756,142.57,217.609,142.472" />
      <path fill="#FFFFFF" d="M341.003,105.898c-0.165-0.078-0.071-0.202,0.208-0.28l7.092-1.952c0.277-0.075,0.632-0.075,0.798,0
			c0.164,0.076,0.075,0.199-0.201,0.275l-7.094,1.957C341.525,105.977,341.166,105.976,341.003,105.898" />
      <path fill="#FFFFFF" d="M210.356,141.904c-0.145-0.097,0.028-0.257,0.385-0.355l9.044-2.491c0.351-0.095,0.755-0.095,0.9,0
			c0.144,0.096-0.02,0.253-0.371,0.351l-9.051,2.495C210.905,142.002,210.499,142.003,210.356,141.904" />
      <path fill="#FFFFFF" d="M232.658,135.558c-0.032-0.016,7.224-2.034,7.282-2.05c0.281-0.077,2.081-0.484,2.197-0.407
			c0.173,0.061,0.115,0.187-0.134,0.281c0.032,0.016-7.228,2.037-7.286,2.053c-0.285,0.079-2.089,0.487-2.203,0.407
			C232.339,135.781,232.403,135.652,232.658,135.558" />
      <path fill="#FFFFFF" d="M254.573,129.568c-0.064-0.032,5.404-1.579,5.521-1.61c0.211-0.058,3.407-0.871,3.493-0.814
			c0.202,0.026,0.249,0.12,0.103,0.21c0.065,0.032-5.405,1.58-5.52,1.612c-0.214,0.059-3.414,0.875-3.499,0.815
			C254.467,129.754,254.424,129.66,254.573,129.568" />
      <path fill="#FFFFFF" d="M276.49,123.579c-0.099-0.048,3.583-1.122,3.758-1.17c0.14-0.039,4.733-1.258,4.791-1.22
			c0.23-0.009,0.383,0.053,0.34,0.139c0.098,0.047-3.584,1.122-3.756,1.171c-0.142,0.038-4.738,1.261-4.795,1.222
			C276.595,123.73,276.443,123.666,276.49,123.579" />
      <path fill="#FFFFFF" d="M298.406,117.588c-0.13-0.065,1.764-0.666,1.996-0.73c0.07-0.019,6.059-1.646,6.088-1.627
			c0.259-0.043,0.518-0.012,0.577,0.069c0.13,0.063-1.761,0.665-1.99,0.729c-0.071,0.02-6.063,1.65-6.093,1.629
			C298.724,117.704,298.463,117.672,298.406,117.588" />
      <path fill="#FFFFFF" d="M320.321,111.598c-0.161-0.081-0.056-0.209,0.236-0.289l7.384-2.034c0.287-0.079,0.651-0.079,0.814-0.002
			c0.161,0.079,0.062,0.207-0.226,0.287l-7.388,2.037C320.852,111.678,320.482,111.678,320.321,111.598" />
      <path fill="#FFFFFF" d="M354.531,106.904l-12.235-5.638c-0.161-0.074-0.069-0.195,0.204-0.269c0.275-0.074,0.63-0.074,0.79,0
			l12.243,5.626c0.169,0.077,0.082,0.203-0.195,0.281C355.062,106.982,354.699,106.982,354.531,106.904" />
      <path fill="#FFFFFF" d="M327.05,112.061l-6.005-2.954c-0.161-0.079-0.056-0.207,0.233-0.286c0.287-0.078,0.65-0.077,0.812,0
			l6.011,2.949c0.163,0.08,0.063,0.21-0.227,0.292C327.584,112.14,327.214,112.141,327.05,112.061" />
      <path fill="#FFFFFF" d="M221.25,176.866c-0.165-0.122,0.02-0.317,0.412-0.438l9.948-3.074c0.386-0.119,0.832-0.121,0.999-0.001
			c0.166,0.119-0.01,0.313-0.395,0.432l-9.955,3.082C221.866,176.987,221.413,176.988,221.25,176.866" />
      <path fill="#FFFFFF" d="M227.163,181.246l-12.166-9.008c-0.161-0.119,0.028-0.31,0.417-0.428c0.389-0.118,0.835-0.118,0.996,0
			l12.186,8.985c0.169,0.124-0.015,0.325-0.41,0.449C227.789,181.369,227.332,181.37,227.163,181.246" />
      <path fill="#FFFFFF" d="M256.973,168.938l-6.322-4.25c-0.168-0.113-0.003-0.298,0.364-0.408c0.369-0.113,0.805-0.114,0.972-0.002
			l6.332,4.239c0.174,0.117,0.013,0.306-0.358,0.42C257.588,169.055,257.146,169.055,256.973,168.938" />
      <path fill="#FFFFFF" d="M384.547,126.351c-0.19-0.09-0.109-0.232,0.178-0.321l7.281-2.252c0.283-0.087,0.665-0.087,0.854,0
			c0.19,0.088,0.114,0.23-0.168,0.316l-7.285,2.256C385.123,126.439,384.735,126.439,384.547,126.351" />
      <path fill="#FFFFFF" d="M249.031,168.272c-0.168-0.115-0.002-0.304,0.372-0.418l9.465-2.926c0.367-0.112,0.804-0.114,0.975-0.001
			c0.172,0.114,0.011,0.297-0.356,0.412l-9.47,2.932C249.643,168.388,249.201,168.388,249.031,168.272" />
      <path fill="#FFFFFF" d="M272.176,160.871c-0.037-0.02,7.553-2.39,7.613-2.408c0.294-0.091,2.164-0.562,2.302-0.471
			c0.196,0.072,0.146,0.219-0.11,0.33c0.037,0.018-7.557,2.393-7.615,2.411c-0.3,0.093-2.174,0.563-2.311,0.472
			C271.861,161.131,271.914,160.979,272.176,160.871" />
      <path fill="#FFFFFF" d="M294.949,153.886c-0.075-0.036,5.642-1.853,5.761-1.89c0.222-0.068,3.525-1.008,3.628-0.941
			c0.222,0.032,0.281,0.141,0.136,0.247c0.075,0.037-5.642,1.854-5.761,1.892c-0.224,0.069-3.531,1.012-3.634,0.942
			C294.858,154.104,294.799,153.992,294.949,153.886" />
      <path fill="#FFFFFF" d="M317.723,146.902c-0.112-0.057,3.729-1.317,3.909-1.373c0.146-0.045,4.885-1.455,4.954-1.41
			c0.244-0.009,0.417,0.064,0.381,0.164c0.113,0.056-3.728,1.316-3.904,1.372c-0.15,0.046-4.891,1.46-4.959,1.414
			C317.855,147.077,317.686,147.003,317.723,146.902" />
      <path fill="#FFFFFF" d="M340.496,139.918c-0.149-0.076,1.817-0.781,2.057-0.855c0.073-0.023,6.246-1.902,6.281-1.88
			c0.269-0.051,0.551-0.015,0.627,0.081c0.15,0.074-1.813,0.778-2.051,0.852c-0.074,0.023-6.248,1.908-6.283,1.885
			C340.853,140.051,340.57,140.015,340.496,139.918" />
      <path fill="#FFFFFF" d="M363.269,132.933c-0.187-0.095-0.094-0.243,0.205-0.336l7.606-2.35c0.295-0.092,0.687-0.093,0.873-0.002
			c0.189,0.093,0.102,0.24-0.194,0.332l-7.607,2.356C363.851,133.025,363.455,133.025,363.269,132.933" />
      <path fill="#FFFFFF" d="M399.25,127.51l-14.096-6.494c-0.188-0.085-0.108-0.226,0.173-0.31c0.283-0.087,0.661-0.085,0.847,0
			l14.102,6.481c0.192,0.088,0.125,0.232-0.161,0.323C399.828,127.6,399.443,127.6,399.25,127.51" />
      <path fill="#FFFFFF" d="M370.584,133.468l-6.944-3.416c-0.185-0.09-0.093-0.238,0.204-0.328c0.297-0.092,0.687-0.093,0.871-0.001
			l6.949,3.408c0.188,0.092,0.102,0.243-0.196,0.337C371.169,133.561,370.771,133.561,370.584,133.468" />
      <path fill="#FFFFFF" d="M237.479,155.829l-3.913-2.63c-0.159-0.104,0.008-0.276,0.369-0.382c0.364-0.104,0.784-0.104,0.941,0
			l3.92,2.625c0.16,0.107-0.004,0.279-0.37,0.387C238.063,155.938,237.639,155.938,237.479,155.829" />
      <path fill="#FFFFFF" d="M191.075,124.631l-12.544-8.434c-0.124-0.083,0.05-0.217,0.386-0.3c0.337-0.083,0.71-0.083,0.833,0
			l12.566,8.416c0.132,0.089-0.042,0.231-0.383,0.319C191.59,124.718,191.205,124.72,191.075,124.631" />
      <path fill="#FFFFFF" d="M304.87,201.142l-19.729-13.265c-0.193-0.128-0.036-0.34,0.346-0.467c0.382-0.131,0.847-0.131,1.039,0
			l19.753,13.229c0.208,0.138,0.061,0.363-0.329,0.504C305.561,201.279,305.078,201.281,304.87,201.142" />
      <path fill="#FFFFFF" d="M153.771,104.823c-0.158-0.107,0.093-0.281,0.559-0.39l11.141-2.576c0.458-0.104,0.958-0.105,1.119,0
			c0.162,0.107-0.078,0.278-0.537,0.385l-11.151,2.581C154.434,104.934,153.927,104.934,153.771,104.823" />
      <path fill="#FFFFFF" d="M126.513,111.132c-0.131-0.098,0.109-0.256,0.531-0.355l8.762-2.025c0.416-0.097,0.86-0.097,0.993-0.001
			c0.133,0.097-0.097,0.254-0.515,0.349l-8.769,2.032C127.091,111.23,126.643,111.23,126.513,111.132" />
      <path fill="#FFFFFF" d="M289.801,77.075l-5.392-2.483c-0.132-0.061-0.025-0.158,0.237-0.22c0.261-0.061,0.58-0.061,0.711,0
			l5.395,2.479c0.137,0.063,0.031,0.163-0.232,0.224C290.257,77.138,289.935,77.138,289.801,77.075" />
      <path fill="#FFFFFF" d="M280.953,75.391c-0.16-0.074-0.028-0.196,0.295-0.27l6.69-1.548c0.319-0.073,0.708-0.074,0.87,0
			c0.161,0.074,0.033,0.193-0.284,0.267l-6.695,1.551C281.506,75.466,281.113,75.466,280.953,75.391" />
      <path fill="#FFFFFF" d="M299.289,241.069c-0.276-0.208-0.071-0.547,0.459-0.753l10.94-4.303c0.518-0.203,1.167-0.203,1.447,0
			c0.278,0.203,0.088,0.534-0.432,0.737l-10.948,4.317C300.223,241.278,299.568,241.279,299.289,241.069" />
      <path fill="#FFFFFF" d="M486.074,167.522l-9.999-4.606c-0.243-0.114-0.199-0.295,0.093-0.407c0.292-0.111,0.721-0.111,0.963,0
			l10.006,4.598c0.248,0.114,0.217,0.301-0.081,0.417C486.764,167.639,486.329,167.639,486.074,167.522" />
      <path fill="#FFFFFF" d="M482.215,169.044c-0.305-0.142-0.261-0.372,0.099-0.515l7.47-2.937c0.355-0.139,0.896-0.139,1.2-0.002
			c0.305,0.141,0.268,0.367-0.087,0.508l-7.476,2.945C483.06,169.187,482.52,169.186,482.215,169.044" />
      <path fill="#FFFFFF" d="M196.696,94.953c-0.147-0.085,0.035-0.226,0.408-0.313l7.719-1.783c0.368-0.085,0.786-0.085,0.933,0
			c0.149,0.084-0.028,0.222-0.396,0.307l-7.724,1.79C197.262,95.039,196.841,95.04,196.696,94.953" />
      <path fill="#FFFFFF" d="M387.947,206.164c-0.242-0.142-0.144-0.375,0.221-0.518l6.138-2.413c0.36-0.141,0.845-0.141,1.092-0.001
			c0.235,0.141,0.143,0.37-0.215,0.511l-6.143,2.421C388.678,206.307,388.188,206.309,387.947,206.164" />
      <path fill="#FFFFFF" d="M344.78,120.779l-4.271-2.101c-0.17-0.084-0.07-0.221,0.222-0.305s0.668-0.084,0.839,0l4.273,2.095
			c0.173,0.087,0.077,0.224-0.216,0.311C345.335,120.865,344.954,120.865,344.78,120.779" />
      <path fill="#FFFFFF" d="M349.113,122.909l-4.332-2.13c-0.176-0.087-0.077-0.223,0.217-0.31c0.294-0.084,0.671-0.084,0.846,0
			l4.334,2.125c0.177,0.086,0.082,0.227-0.212,0.315C349.672,122.995,349.289,122.996,349.113,122.909" />
      <path fill="#FFFFFF" d="M297.303,97.431l-14.179-6.973c-0.139-0.069-0.025-0.18,0.255-0.248c0.275-0.069,0.616-0.069,0.756,0
			l14.191,6.959c0.147,0.071,0.038,0.189-0.244,0.261C297.8,97.504,297.451,97.504,297.303,97.431" />
      <path fill="#FFFFFF" d="M422.604,159.048l-21.304-10.476c-0.211-0.101-0.13-0.27,0.174-0.37c0.299-0.103,0.715-0.103,0.92,0
			l21.316,10.45c0.224,0.109,0.155,0.287-0.149,0.395C423.257,159.158,422.828,159.159,422.604,159.048" />
      <path fill="#FFFFFF" d="M256.718,81c-0.181-0.089-0.011-0.237,0.378-0.327l9.31-2.152c0.383-0.088,0.842-0.088,1.025-0.001
			c0.181,0.089,0.02,0.233-0.362,0.322l-9.316,2.157C257.363,81.09,256.899,81.09,256.718,81" />
      <path fill="#FFFFFF" d="M221.623,89.112c-0.149-0.084,0.024-0.22,0.388-0.303l7.527-1.742c0.358-0.083,0.772-0.085,0.921,0
			c0.152,0.082-0.016,0.216-0.374,0.3l-7.533,1.744C222.189,89.197,221.774,89.197,221.623,89.112" />
      <path fill="#FFFFFF" d="M417.073,194.689c-0.241-0.135-0.168-0.351,0.175-0.486l5.772-2.271c0.336-0.133,0.808-0.133,1.057,0
			c0.242,0.131,0.169,0.349-0.168,0.479l-5.779,2.276C417.789,194.824,417.315,194.825,417.073,194.689" />
      <path fill="#FFFFFF" d="M159.475,103.503l-6.834-4.595c-0.132-0.09,0.081-0.236,0.476-0.324c0.396-0.09,0.826-0.09,0.959-0.001
			l6.849,4.585c0.137,0.091-0.075,0.242-0.476,0.334C160.049,103.597,159.613,103.596,159.475,103.503" />
      <path fill="#FFFFFF" d="M261.483,79.897l-7.817-3.846c-0.152-0.075-0.006-0.196,0.324-0.271c0.332-0.076,0.725-0.075,0.878,0
			l7.827,3.837c0.158,0.076,0.015,0.202-0.321,0.281C262.04,79.975,261.641,79.975,261.483,79.897" />
      <path fill="#FFFFFF" d="M454.833,179.828c-0.354-0.174-0.28-0.456,0.168-0.631l10.559-4.152c0.435-0.17,1.068-0.171,1.424,0
			c0.348,0.17,0.286,0.446-0.15,0.616l-10.563,4.167C455.827,180.004,455.182,180.004,454.833,179.828" />
      <path fill="#FFFFFF" d="M333.075,227.771c-0.33-0.226-0.13-0.591,0.441-0.817l13.618-5.353c0.557-0.22,1.277-0.221,1.609,0
			c0.334,0.218,0.154,0.574-0.403,0.794l-13.629,5.374C334.137,227.997,333.404,227.996,333.075,227.771" />
      <path fill="#FFFFFF" d="M475.944,185.393l-15.673-7.707c-0.306-0.15-0.243-0.393,0.143-0.541c0.379-0.149,0.932-0.149,1.236-0.001
			l15.674,7.684c0.317,0.156,0.267,0.409-0.112,0.567C476.826,185.548,476.261,185.548,475.944,185.393" />
      <path fill="#FFFFFF" d="M354.924,234.974l-14.824-9.97c-0.284-0.193-0.119-0.507,0.369-0.698c0.491-0.191,1.118-0.193,1.405,0.001
			l14.84,9.935c0.301,0.201,0.146,0.531-0.348,0.733C355.871,235.176,355.227,235.176,354.924,234.974" />
    </g>
    <polygon fill="#D5D7D8" points="278.974,52.294 570.119,175.293 570.119,182.998 278.974,57.263 	" />
    <polygon fill="#CBCCCE" points="278.974,57.371 81.079,99.785 81.079,93.766 278.974,52.294 	" />
    <polygon fill="#CBCCCE" points="320.03,297.275 570.12,182.999 570.12,175.182 320.03,286.937 	" />
    <polygon fill="#D5D7D8" points="320.03,297.275 81.083,99.917 81.079,93.766 320.03,286.937 	" />
  </g>
  <g id="MIRA-SHOWER-STAND">
    <polygon fill="#E1F4FD" points="300.628,20.917 308.347,19.497 308.327,40.523 303.966,42.823 	" />
    <polygon fill="#BDD1DA" points="305.96,10.646 299.142,11.162 300.628,20.916 308.354,20.916 308.354,11.429 	" />
    <polygon fill="#C7C8CA" points="289.67,54.551 582.004,176.896 645.566,147.918 348.388,42 	" />
    <polygon fill="#BCBEC0" points="346.948,0.989 293.827,6.581 293.827,11.586 308.655,10.466 308.626,40.523 289.67,50.521 
		289.67,54.465 346.948,42.198 	" />
    <polygon fill="#D1D3D4" points="346.948,0.989 645.69,87.185 645.69,148.646 346.948,41.941 	" />
    <polygon fill="#E6E7E8" points="346.648,0.989 645.391,87.185 609.588,95.333 312.115,4.679 	" />
    <polygon fill="#D6E0E5" points="610.136,114.966 595.637,110.149 595.071,106.396 610.11,103.002 	" />
    <polygon fill="#D8E2E8" points="346.648,23.953 308.354,11.429 308.355,10.466 305.961,10.646 293.527,6.581 312.115,4.678 
		346.648,15.203 	" />
    <polygon fill="#D8E2E8" points="583.443,101.391 346.647,23.953 346.647,15.203 609.589,95.333 	" />
    <polygon fill="#D5D7D8" points="293.527,11.556 583.444,109.02 583.444,101.391 293.527,6.581 	" />
    <polygon id="S-SS" stroke-width="0" points="593.157,109.325 563.079,135.768 563.082,135.769 537.519,158.247 582.157,176.901 
		587.126,171.944 585.973,173.092 563.464,164.129 571.599,156.043 594.594,164.496 606.851,152.27 606.854,152.271 
		635.733,123.467 	" />
    <polygon id="S-SR" stroke-width="0" points="583.444,106.101 583.444,109.02 549.307,97.543 494.663,140.337 534.441,156.963 
		590.199,108.344 	" />
    <polygon id="S-SQ" stroke-width="0" points="456.237,124.282 491.909,139.191 546.631,96.644 511.791,84.932 	" />
    <polygon id="S-SP" stroke-width="0" points="509.36,84.114 493.186,78.676 437.637,116.509 453.765,123.249 	" />
    <polygon id="S-SN" stroke-width="0" points="477.647,73.453 421.592,109.804 436.536,116.049 491.996,78.277 	" />
    <polygon id="S-SM" stroke-width="0" points="390.191,96.682 419.354,108.871 475.436,72.709 446.444,62.963 	" />
    <polygon id="S-SL" stroke-width="0" points="444.413,62.28 431.03,57.782 374.922,90.303 388.158,95.84 	" />
    <polygon id="S-SK" stroke-width="0" points="417.815,53.339 388.25,69.852 388.252,69.853 361.603,84.735 373.764,89.818 
		429.769,57.357 	" />
    <polygon id="S-SJ" stroke-width="0" points="335.462,73.812 359.746,83.962 415.951,52.712 391.455,44.477 	" />
    <polygon id="S-SH" stroke-width="0" points="311.469,63.787 333.763,73.102 389.733,43.898 367.103,36.29 	" />
    <polygon id="S-SG" stroke-width="0" points="300.519,49.095 309.714,52.704 302.471,56.409 293.029,52.604 288.872,54.552 
		309.407,63.135 365.214,35.655 344.248,28.607 	" />
    <polygon fill="#D1D3D4" points="645.391,87.036 583.443,101.391 583.443,109.021 610.11,103.002 610.203,149.95 581.81,170.793 
		581.81,177.706 645.391,148.646 	" />
    <g>
      <polygon fill="none" points="350.213,97.336 356.66,7.537 557.313,-6.495 550.866,83.305 		" />
      <g>
        <polyline fill="none" points="356.382,23.053 356.66,7.537 551.146,67.789 550.866,83.305 356.382,23.053 			" />
        <path fill="#939598" d="M356.656,7.753l-0.146,8.075l-0.123,7.019l1.964,0.609l0.127-7.027c0.01-0.799-0.011-2.428-0.053-4.862
				l0.056,0.014l2.289,12.625l2.019,0.622l2.878-10.995l0.062,0.021c-0.086,1.876-0.138,3.039-0.152,3.477
				c-0.024,0.439-0.027,0.826-0.036,1.17l-0.127,7.139l2.05,0.638l0.265-15.095l-2.984-0.932l-2.811,10.742l-0.039-0.015
				l-2.248-12.301L356.656,7.753" />
        <path fill="#939598" d="M376.703,22.824l-2.702-0.841c0.795-3.238,1.278-5.28,1.459-6.116c0.029,0.264,0.084,0.62,0.164,1.069
				S376.061,19.352,376.703,22.824 M374.141,13.102l-3.93,14.029l2.373,0.727l0.818-3.352l3.771,1.169l0.688,3.821l2.372,0.735
				l-3.398-16.297L374.141,13.102" />
        <polyline fill="#939598" points="383.255,15.991 382.982,31.086 389.384,33.067 389.429,30.421 385.235,29.118 385.454,16.669 
				383.255,15.991 			" />
        <path fill="#939598" d="M391.604,18.573l3.245,16.188l2.396,0.742l3.792-14.002l-2.223-0.686l-2.119,8.369
				c-0.331,1.49-0.527,2.542-0.596,3.156c-0.02-0.282-0.08-0.793-0.188-1.531c-0.099-0.74-0.196-1.394-0.301-1.961l-1.792-9.588
				L391.604,18.573" />
        <polyline fill="#939598" points="403.786,22.355 403.521,37.449 409.49,39.297 409.536,36.651 405.766,35.482 405.836,31.59 
				409.34,32.675 409.391,30.054 405.88,28.97 405.941,25.654 409.712,26.823 409.763,24.202 403.786,22.355 			" />
        <path fill="#939598" d="M417.147,33.071c-0.276,0.019-0.605-0.031-0.993-0.152l-0.707-0.216l0.076-4.081l0.66,0.211
				c0.714,0.216,1.238,0.531,1.57,0.937c0.331,0.406,0.492,0.97,0.473,1.692c-0.012,0.722-0.183,1.197-0.521,1.426
				C417.556,32.994,417.369,33.055,417.147,33.071 M413.368,25.323l-0.266,15.094l2.2,0.678l0.103-5.799l1.17,0.364l2.364,6.562
				l2.442,0.756c-0.457-1.135-1.433-3.649-2.937-7.526c0.625-0.198,1.11-0.592,1.458-1.183c0.347-0.582,0.536-1.325,0.552-2.21
				c0.021-1.52-0.299-2.768-0.961-3.716c-0.662-0.958-1.696-1.649-3.103-2.091L413.368,25.323" />
        <path fill="#939598" d="M424.411,28.738l-0.272,15.095l1.964,0.609l0.124-7.105c0.014-0.859-0.003-2.308-0.057-4.355l0.063,0.021
				l4.299,12.811l2.796,0.868l0.265-15.094l-1.971-0.617l-0.128,7.148c-0.018,0.808-0.006,2.205,0.036,4.193l-0.055-0.013
				L427.176,29.6L424.411,28.738" />
        <polyline fill="#939598" points="441.863,34.15 441.816,36.813 444.628,37.681 444.41,50.112 446.608,50.799 446.826,38.368 
				449.647,39.235 449.693,36.571 441.863,34.15 			" />
        <polyline fill="#939598" points="451.43,37.111 454.697,47.505 454.597,53.27 456.779,53.949 456.889,48.073 460.485,39.918 
				458.121,39.183 455.852,44.73 453.809,37.854 451.43,37.111 			" />
        <path fill="#939598" d="M467.034,48.524c-0.278,0.02-0.612-0.034-1.006-0.156l-0.707-0.217l0.076-4.072l0.659,0.202
				c0.707,0.226,1.238,0.531,1.57,0.938c0.333,0.406,0.493,0.969,0.473,1.691c-0.012,0.722-0.19,1.197-0.52,1.435
				C467.432,48.45,467.25,48.509,467.034,48.524 M463.242,40.772l-0.265,15.095l2.198,0.679l0.104-5.791l1.17,0.365l2.363,6.562
				l2.442,0.755c-0.456-1.144-1.432-3.65-2.936-7.525c0.624-0.198,1.11-0.601,1.458-1.184c0.347-0.59,0.528-1.333,0.544-2.217
				c0.029-1.521-0.292-2.76-0.954-3.717c-0.661-0.949-1.696-1.649-3.102-2.083L463.242,40.772" />
        <polyline fill="#939598" points="474.277,44.188 474.004,59.283 479.98,61.139 480.026,58.484 476.258,57.315 476.32,53.424 
				479.83,54.517 479.874,51.896 476.371,50.812 476.432,47.496 480.202,48.665 480.246,46.044 474.277,44.188 			" />
        <path fill="#939598" d="M485.535,47.688c-0.498,0.035-0.923,0.212-1.278,0.53c-0.636,0.577-0.969,1.527-0.992,2.858
				c-0.011,0.713,0.079,1.358,0.254,1.947c0.183,0.588,0.425,1.128,0.734,1.622c0.31,0.501,0.775,1.061,1.396,1.696
				c0.673,0.682,1.112,1.158,1.325,1.443c0.221,0.276,0.386,0.548,0.495,0.814c0.109,0.267,0.153,0.547,0.147,0.848
				c-0.006,0.523-0.136,0.885-0.405,1.075c-0.129,0.089-0.282,0.14-0.462,0.152c-0.188,0.013-0.405-0.016-0.651-0.092
				c-0.4-0.126-0.842-0.353-1.322-0.696c-0.483-0.327-1.064-0.835-1.763-1.507l-0.053,2.972c0.837,0.868,1.813,1.478,2.92,1.821
				c0.557,0.171,1.059,0.242,1.504,0.211c0.518-0.036,0.962-0.209,1.329-0.521c0.684-0.579,1.042-1.54,1.067-2.906
				c0.014-0.979-0.147-1.869-0.5-2.66c-0.345-0.791-0.996-1.672-1.954-2.643c-0.717-0.74-1.18-1.239-1.369-1.492
				c-0.198-0.261-0.334-0.5-0.421-0.743c-0.088-0.234-0.125-0.497-0.121-0.781c0.01-0.455,0.129-0.781,0.354-1.003
				c0.127-0.117,0.279-0.182,0.459-0.194c0.149-0.01,0.316,0.015,0.505,0.076c0.354,0.104,0.703,0.277,1.063,0.518
				c0.359,0.249,0.814,0.621,1.365,1.123l0.749-2.266c-0.525-0.512-1.034-0.932-1.523-1.267c-0.481-0.335-0.994-0.582-1.535-0.75
				C486.366,47.722,485.928,47.661,485.535,47.688" />
        <path fill="#939598" d="M500.204,52.231c-0.501,0.035-0.929,0.212-1.283,0.53c-0.636,0.577-0.961,1.526-0.984,2.857
				c-0.011,0.713,0.071,1.359,0.245,1.948c0.183,0.597,0.426,1.128,0.742,1.63c0.31,0.502,0.775,1.062,1.396,1.688
				c0.666,0.683,1.113,1.158,1.325,1.443c0.214,0.277,0.378,0.557,0.487,0.824c0.11,0.258,0.162,0.538,0.156,0.838
				c-0.005,0.523-0.144,0.885-0.407,1.084c-0.124,0.086-0.273,0.135-0.447,0.147c-0.192,0.014-0.416-0.019-0.672-0.095
				c-0.4-0.127-0.842-0.354-1.323-0.697c-0.481-0.327-1.063-0.835-1.754-1.507l-0.054,2.972c0.838,0.868,1.813,1.478,2.921,1.821
				c0.556,0.172,1.057,0.243,1.501,0.211c0.515-0.036,0.956-0.209,1.323-0.52c0.691-0.572,1.05-1.541,1.067-2.907
				c0.022-0.979-0.146-1.868-0.491-2.651c-0.345-0.8-0.995-1.681-1.954-2.652c-0.726-0.739-1.188-1.23-1.378-1.491
				c-0.19-0.261-0.325-0.501-0.421-0.743c-0.079-0.234-0.116-0.498-0.112-0.781c0.008-0.447,0.12-0.781,0.353-0.995
				c0.123-0.121,0.273-0.185,0.454-0.198c0.148-0.011,0.318,0.014,0.511,0.07c0.345,0.113,0.701,0.286,1.063,0.518
				c0.36,0.25,0.807,0.621,1.356,1.124l0.757-2.267c-0.533-0.503-1.033-0.923-1.523-1.258c-0.489-0.344-0.993-0.591-1.535-0.759
				C501.038,52.265,500.598,52.204,500.204,52.231" />
        <polyline fill="#939598" points="506.958,54.318 506.911,56.981 509.724,57.849 509.497,70.281 511.696,70.968 511.923,58.536 
				514.734,59.404 514.781,56.74 506.958,54.318 			" />
        <path fill="#939598" d="M522.742,68.076l-2.709-0.84c0.803-3.249,1.287-5.29,1.467-6.118c0.029,0.255,0.084,0.621,0.165,1.061
				C521.744,62.637,522.102,64.595,522.742,68.076 M520.181,58.354l-3.929,14.021l2.372,0.735l0.811-3.36l3.778,1.168l0.688,3.831
				l2.372,0.735l-3.406-16.296L520.181,58.354" />
        <path fill="#939598" d="M529.296,61.234l-0.273,15.095l1.964,0.609l0.132-7.097c0.015-0.868-0.01-2.316-0.064-4.354l0.071,0.012
				l4.299,12.819l2.796,0.86l0.265-15.095l-1.971-0.608l-0.128,7.139c-0.018,0.807-0.006,2.206,0.028,4.194l-0.047-0.014
				l-4.3-12.699L529.296,61.234" />
        <path fill="#939598" d="M546.588,78.921c-0.334,0.023-0.708-0.028-1.12-0.155l-0.95-0.294l0.175-9.819l1.171,0.355
				c1.963,0.609,2.926,2.533,2.86,5.78C548.682,77.45,547.967,78.825,546.588,78.921 M542.546,65.344l-0.265,15.094l2.929,0.911
				c0.771,0.238,1.469,0.334,2.091,0.291c0.857-0.06,1.574-0.386,2.157-0.974c0.989-1.022,1.508-2.774,1.55-5.257
				c0.047-2.337-0.39-4.297-1.304-5.889c-0.913-1.592-2.22-2.642-3.907-3.167L542.546,65.344" />
      </g>
    </g>
  </g>
  <g id="LIONS-DEN-BAR">
    <polygon fill="#EDEDED" points="58.588,117.675 80.094,107.47 70.176,99.84 32.2,101.41 58.588,127.381 	" />
    <polygon fill="#D5D7D8" points="24.543,125.311 0.417,99.245 0.417,117.527 24.543,145.355 	" />
    <polygon fill="#DCDDDE" points="17.082,89.207 0.416,99.245 24.548,125.316 42.2,114.666 	" />
    <polygon fill="#CBCCCE" points="58.608,117.669 42.2,114.666 24.543,125.316 24.543,145.373 58.608,137.208 	" />
    <polygon fill="#D5D7D8" points="58.588,117.675 32.101,92.875 17.082,89.207 42.2,114.666 	" />
    <polygon fill="#FFFFFF" points="31.948,126.823 31.948,130.498 34.093,130.005 34.093,130.662 31.22,131.323 31.22,126.988 	"
    />
    <polygon fill="#FFFFFF" points="35.91,125.924 35.91,130.243 35.188,130.409 35.188,126.088 	" />
    <path fill="#FFFFFF" d="M41.392,126.834c0,1.411-0.789,2.448-2.062,2.74c-1.276,0.295-2.069-0.374-2.069-1.796
		c0-1.423,0.793-2.455,2.069-2.744C40.603,124.746,41.392,125.421,41.392,126.834 M37.994,127.61c0,1.05,0.509,1.532,1.336,1.342
		c0.825-0.19,1.333-0.904,1.333-1.952c0-1.054-0.508-1.531-1.333-1.343C38.509,125.843,37.994,126.556,37.994,127.61" />
    <polygon fill="#FFFFFF" points="43.461,124.211 45.451,126.967 45.451,123.76 46.138,123.604 46.138,127.889 45.391,128.061 
		43.39,125.308 43.39,128.521 42.705,128.679 42.705,124.383 	" />
    <path fill="#FFFFFF" d="M48.271,123.12v0.714c0,0.439-0.265,0.822-0.68,0.969v-0.285c0.231-0.101,0.356-0.307,0.356-0.593v-0.06
		l-0.356,0.081v-0.671L48.271,123.12z" />
    <path fill="#FFFFFF" d="M52.072,123.502c-0.029-0.475-0.382-0.684-0.934-0.559c-0.494,0.113-0.782,0.445-0.782,0.743
		c0,0.438,0.447,0.468,1,0.484c0.922,0.027,1.502,0.101,1.502,0.948c0,0.778-0.61,1.475-1.637,1.713
		c-1.059,0.243-1.654-0.154-1.696-1.095l0.684-0.157c0.041,0.549,0.435,0.772,1.07,0.626c0.517-0.118,0.822-0.486,0.822-0.799
		c0-0.13-0.094-0.305-0.228-0.398c-0.2-0.139-0.517-0.119-0.929-0.132c-0.876-0.031-1.295-0.262-1.295-0.976
		c0-0.672,0.571-1.336,1.572-1.563c0.921-0.21,1.514,0.184,1.52,1.013L52.072,123.502z" />
    <path fill="#FFFFFF" d="M29.147,134.707c1.281-0.298,1.924,0.275,1.924,1.704c0,1.392-0.716,2.352-2.047,2.666l-1.57,0.37V135.1
		L29.147,134.707z M28.173,138.636l0.894-0.21c0.863-0.203,1.264-0.799,1.264-1.877c0-0.984-0.419-1.406-1.215-1.22l-0.943,0.22
		V138.636z" />
    <polygon fill="#FFFFFF" points="35.521,133.225 35.521,133.854 33.12,134.414 33.12,135.547 35.334,135.029 35.334,135.636 
		33.12,136.154 33.12,137.461 35.599,136.877 35.599,137.527 32.407,138.279 32.407,133.949 	" />
    <polygon fill="#FFFFFF" points="37.657,132.728 39.664,135.483 39.664,132.261 40.358,132.101 40.358,136.405 39.605,136.583 
		37.586,133.83 37.586,137.058 36.895,137.221 36.895,132.906 	" />
    <path fill="#FFFFFF" d="M45.954,130.8c0.888-0.206,1.332,0.047,1.332,0.774c0,0.41-0.213,0.788-0.568,1.02
		c0.484,0.023,0.745,0.32,0.745,0.867c0,0.752-0.527,1.393-1.485,1.62l-1.87,0.44v-4.292L45.954,130.8z M44.803,132.809l1.009-0.236
		c0.515-0.12,0.763-0.35,0.763-0.779c0-0.371-0.248-0.485-0.74-0.371l-1.032,0.241V132.809z M44.803,134.724l1.115-0.262
		c0.545-0.128,0.818-0.412,0.818-0.865c0-0.478-0.291-0.588-0.859-0.455l-1.074,0.252V134.724z" />
    <path fill="#FFFFFF" d="M50.609,129.719l1.552,3.904l-0.752,0.178l-0.376-1.016l-1.649,0.387L49,134.369l-0.738,0.173l1.552-4.638
		L50.609,129.719z M49.579,132.53l1.26-0.296l-0.63-1.706L49.579,132.53z" />
    <path fill="#FFFFFF" d="M54.993,128.7c0.122-0.028,0.198-0.041,0.221-0.046c0.736-0.172,1.185,0.168,1.185,0.907
		c0,0.485-0.222,0.892-0.602,1.129c0.398,0.037,0.48,0.277,0.503,0.734l0.035,0.601c0.011,0.244,0.017,0.397,0.175,0.448v0.126
		l-0.782,0.184c-0.082-0.135-0.093-0.315-0.105-0.537l-0.023-0.504c-0.024-0.438-0.111-0.654-0.666-0.524
		c-0.012,0.003-0.059,0.014-0.135,0.032l-0.924,0.216v1.754l-0.697,0.164v-4.262L54.993,128.7z M53.869,130.868l1.001-0.234
		c0.548-0.128,0.823-0.358,0.823-0.855c0-0.491-0.28-0.579-0.806-0.457l-1.018,0.237V130.868z" />
  </g>
  <g id="THE-SHED">
    <polygon id="N-SS" stroke-width="0" points="317.34,277.042 93.263,101.221 58.588,117.675 58.588,137.008 262.895,341.109 
		262.895,341.194 317.405,315.389 317.405,277.004 	" />
    <polygon opacity="0.1" fill="#020202" points="262.904,308.978 58.588,117.675 58.588,137.008 262.904,341.118 	" />
    <polygon opacity="0.05" fill="#010101" points="317.405,315.389 262.895,341.194 262.895,309.002 317.405,277.004 	" />
    <g>
      <g>
        <polygon fill="#9E9E9E" points="71.206,172.896 72.974,174.646 67.1,176.521 70.384,179.796 76.258,177.92 78.007,179.655 
				63.039,184.438 61.29,182.694 67.748,180.63 64.464,177.366 58.005,179.429 56.238,177.678 			" />
      </g>
      <g>
        <polygon fill="#9E9E9E" points="81.265,182.895 86.047,187.654 83.448,188.48 80.424,185.48 77.141,186.53 79.949,189.325 
				77.349,190.15 74.541,187.355 70.682,188.594 73.697,191.594 71.079,192.437 66.296,187.677 			" />
      </g>
      <g>
        <polygon fill="#9E9E9E" points="62.502,164.237 68.774,170.477 66.13,171.32 63.877,169.081 51.545,173.011 49.786,171.259 
				62.119,167.328 59.857,165.082 			" />
      </g>
      <g>
        <path fill="#9E9E9E" d="M105.125,206.618c1.13,1.12,1.587,2.065,1.388,2.847c-0.199,0.771-1.055,1.395-2.565,1.88
				c-0.719,0.229-1.467,0.353-2.247,0.362c-0.167,0.002-0.335-0.002-0.505-0.011c-0.953-0.049-1.86-0.255-2.75-0.625
				c-2.117,2.324-3.477,3.818-4.081,4.509l-1.947-1.94l3.756-3.796l-0.933-0.931l-5.739,1.83l-1.768-1.752l14.968-4.783
				L105.125,206.618z M103.206,208.716c0.027-0.363-0.242-0.827-0.807-1.392l-0.53-0.529l-4.057,1.292l0.575,0.564
				c0.556,0.555,1.14,0.903,1.733,1.061c0.258,0.067,0.525,0.1,0.803,0.097c0.372-0.005,0.763-0.073,1.175-0.206
				C102.809,209.378,103.169,209.088,103.206,208.716" />
      </g>
      <g>
        <path fill="#9E9E9E" d="M90.004,195.894c0.71-0.008,1.405,0.041,2.086,0.146c2.121,0.339,3.854,1.175,5.218,2.525
				c0.844,0.846,1.363,1.765,1.542,2.74l-3.12,0.235c-0.071-0.778-0.429-1.492-1.075-2.149c-0.763-0.752-1.832-1.207-3.216-1.372
				c-0.37-0.042-0.748-0.062-1.132-0.057c-1.042,0.012-2.134,0.196-3.265,0.558c-1.628,0.52-2.681,1.104-3.177,1.739
				c-0.487,0.646-0.371,1.311,0.338,2.012c0.359,0.367,0.798,0.717,1.319,1.047l3.121-0.996l-1.579-1.563l2.645-0.845l3.293,3.273
				l-7.754,2.477c-0.853-0.431-1.571-0.854-2.173-1.289c-0.593-0.425-1.14-0.886-1.634-1.373c-1.256-1.247-1.55-2.402-0.883-3.491
				c0.676-1.08,2.242-2.015,4.725-2.805C86.933,196.184,88.503,195.911,90.004,195.894z" />
      </g>
      <g>
        <polygon fill="#9E9E9E" points="111.54,212.994 116.323,217.755 113.724,218.581 110.699,215.581 107.416,216.63 
				110.225,219.426 107.625,220.26 104.816,217.456 100.957,218.694 103.973,221.694 101.355,222.528 96.572,217.777 			" />
      </g>
      <g>
        <polygon fill="#9E9E9E" points="119.221,220.635 124.004,225.377 121.396,226.213 118.38,223.204 115.088,224.263 
				117.906,227.058 115.297,227.883 112.488,225.088 108.63,226.316 111.653,229.326 109.036,230.16 104.253,225.408 			" />
      </g>
      <g>
        <polygon fill="#9E9E9E" points="137.509,238.813 142.292,243.564 139.691,244.398 136.668,241.391 133.385,242.439 
				136.193,245.234 133.593,246.069 130.776,243.275 126.917,244.504 129.941,247.512 127.323,248.347 122.541,243.586 			"
        />
      </g>
      <g>
        <path fill="#9E9E9E" d="M126.894,228.258l2.225,2.205l-7.61,7.17c1.925-0.636,3.274-1.11,4.084-1.37l7.08-2.262l1.588,1.581
				l-14.968,4.782l-2.234-2.23l7.7-7.206l-0.045-0.051c-1.925,0.714-3.319,1.206-4.174,1.476l-7.044,2.252l-1.57-1.564
				L126.894,228.258z" />
      </g>
      <g>
        <polygon fill="#9E9E9E" points="158.246,259.435 160.013,261.178 145.045,265.96 143.277,264.208 			" />
      </g>
      <g>
        <path fill="#9E9E9E" d="M170.735,276.176c0.718-0.009,1.42,0.042,2.105,0.148c2.121,0.33,3.854,1.175,5.218,2.524
				c0.853,0.846,1.363,1.757,1.541,2.74l-3.12,0.227c-0.062-0.77-0.419-1.491-1.074-2.141c-0.763-0.752-1.832-1.206-3.208-1.371
				c-0.372-0.043-0.752-0.062-1.137-0.058c-1.046,0.013-2.138,0.197-3.268,0.558c-1.629,0.521-2.681,1.104-3.168,1.739
				c-0.487,0.646-0.38,1.311,0.329,2.012c0.368,0.367,0.798,0.717,1.319,1.048l3.121-0.996l-1.57-1.563l2.636-0.843l3.293,3.272
				l-7.754,2.477c-0.853-0.431-1.572-0.855-2.173-1.289c-0.593-0.426-1.14-0.886-1.634-1.373c-1.247-1.248-1.542-2.411-0.874-3.491
				c0.667-1.08,2.242-2.015,4.725-2.813C167.677,276.462,169.241,276.193,170.735,276.176z" />
      </g>
      <g>
        <path fill="#9E9E9E" d="M163.262,264.417l2.216,2.205l-7.601,7.161l0.036,0.043c1.889-0.68,3.23-1.145,4.048-1.404l7.079-2.262
				l1.588,1.572l-14.968,4.782l-2.234-2.222l7.709-7.205l-0.054-0.051c-1.925,0.705-3.319,1.205-4.165,1.475l-7.052,2.252
				l-1.57-1.564L163.262,264.417z" />
      </g>
      <g>
        <polygon fill="#9E9E9E" points="149.371,250.598 151.13,252.35 144.275,254.539 146.721,254.667 154.064,255.272 
				156.021,257.213 146.501,256.45 141.07,262.021 139.078,260.029 143.203,255.856 141.505,255.427 136.162,257.132 
				134.403,255.38 			" />
      </g>
      <g>
        <path fill="#9E9E9E" d="M185.54,289.142c0.509-0.006,1.011,0.042,1.507,0.143c1.258,0.245,2.327,0.812,3.206,1.683
				c0.431,0.428,0.745,0.865,0.959,1.313c0.197,0.456,0.349,0.947,0.447,1.473l-3.039,0.226c-0.107-0.552-0.25-0.982-0.411-1.31
				c-0.152-0.335-0.376-0.635-0.655-0.917c-0.332-0.324-0.736-0.536-1.185-0.626c-0.187-0.035-0.368-0.052-0.549-0.05
				c-0.272,0.003-0.542,0.048-0.818,0.135c-0.279,0.09-0.486,0.205-0.621,0.345c-0.136,0.131-0.226,0.313-0.262,0.529
				c-0.036,0.218-0.019,0.701,0.061,1.443c0.115,0.985-0.021,1.73-0.409,2.228c-0.388,0.507-1.063,0.911-2.043,1.217
				c-0.779,0.254-1.555,0.383-2.325,0.393c-0.563,0.006-1.122-0.052-1.676-0.173c-1.321-0.287-2.462-0.905-3.422-1.862
				c-0.888-0.881-1.363-1.757-1.451-2.63l2.951-0.941c0.106,0.708,0.267,1.276,0.473,1.724s0.466,0.825,0.789,1.149
				c0.376,0.376,0.808,0.631,1.284,0.746c0.21,0.055,0.424,0.08,0.642,0.078c0.276-0.004,0.56-0.052,0.851-0.147
				c0.296-0.09,0.513-0.223,0.657-0.389c0.135-0.157,0.225-0.356,0.252-0.607c0.045-0.243,0.01-0.7-0.051-1.392
				c-0.088-0.639-0.052-1.148,0.083-1.522c0.145-0.382,0.406-0.731,0.785-1.047c0.369-0.324,0.909-0.59,1.61-0.814
				C183.983,289.282,184.769,289.15,185.54,289.142z" />
      </g>
      <g>
        <polygon fill="#9E9E9E" points="205.265,306.175 210.048,310.927 207.448,311.761 204.425,308.761 201.141,309.811 
				203.95,312.597 201.35,313.432 198.542,310.636 194.683,311.874 197.697,314.874 195.08,315.709 190.297,310.957 			" />
      </g>
      <g>
        <polygon fill="#9E9E9E" points="195.206,296.176 196.974,297.928 191.101,299.803 194.384,303.067 200.258,301.192 
				202.008,302.936 187.04,307.718 185.29,305.975 191.749,303.91 188.464,300.646 182.006,302.709 180.238,300.958 			" />
      </g>
      <g>
        <path fill="#9E9E9E" d="M215.549,316.396c1.354,1.35,1.766,2.599,1.215,3.755c-0.542,1.165-1.964,2.106-4.276,2.851
				c-1.641,0.521-3.197,0.79-4.673,0.807c-0.741,0.009-1.461-0.045-2.161-0.165c-2.084-0.355-3.863-1.261-5.335-2.722l-2.351-2.333
				l14.978-4.783L215.549,316.396z M210.577,321.2c3.211-1.022,4.032-2.32,2.461-3.885l-0.933-0.931l-9.751,3.113l0.753,0.752
				c1.064,1.057,2.441,1.574,4.129,1.555C208.241,321.793,209.354,321.591,210.577,321.2" />
      </g>
    </g>
  </g>
  <g id="WEST-STAND">
    <polygon id="W-WT" stroke-width="0" points="614.02,150.209 357.244,263.705 357.244,327.464 378.805,346.676 634.496,210.253 
		634.496,171.538 	" />
    <polygon opacity="0.1" fill="#020202" points="357.244,263.705 357.244,327.464 378.805,346.676 378.805,294.342 	" />
    <polygon opacity="0.05" fill="#010101" points="634.496,171.538 634.496,210.253 378.805,346.676 378.805,294.342 	" />
    <g>
      <g>
        <polygon fill="#9D9D9D" points="467.187,303.626 469.262,304.844 464.787,307.202 467.411,308.738 471.561,306.55 
				473.637,307.768 469.485,309.957 472.559,311.758 477.023,309.399 479.117,310.627 472.041,314.363 460.11,307.362 			"
        />
      </g>
      <g>
        <path fill="#9D9D9D" d="M456.843,309.086l8.815,8.649l-2.971,1.563l-7.928-2.803c-0.288-0.098-0.854-0.313-1.708-0.643
				c-0.844-0.33-1.393-0.562-1.653-0.694c0.251,0.193,0.646,0.519,1.158,0.966c0.521,0.455,0.88,0.779,1.078,0.98l4.605,4.544
				l-2.962,1.555l-15.064-5.344l2.565-1.354l8.08,2.987c1.475,0.57,2.715,1.069,3.721,1.522c-0.278-0.202-0.682-0.518-1.212-0.965
				s-0.916-0.799-1.167-1.061l-4.893-4.876l2.457-1.293l8.477,2.974c0.367,0.134,0.926,0.348,1.652,0.651
				c0.737,0.303,1.357,0.561,1.861,0.783c-0.369-0.281-0.809-0.633-1.311-1.071c-0.521-0.438-0.916-0.798-1.213-1.078l-4.947-4.643
				L456.843,309.086z" />
      </g>
      <g>
        <polygon fill="#9D9D9D" points="490.729,291.201 492.84,292.437 489.5,294.203 499.329,299.96 496.727,301.338 486.898,295.572 
				483.567,297.331 481.465,296.095 			" />
      </g>
      <g>
        <path fill="#9D9D9D" d="M479.32,297.971l1.131,1.597c-0.918,0.196-1.638,0.369-2.178,0.535c-0.531,0.166-0.999,0.359-1.413,0.58
				c-0.495,0.261-0.757,0.526-0.802,0.794c-0.037,0.268,0.125,0.503,0.475,0.715c0.226,0.133,0.477,0.222,0.755,0.26
				c0.131,0.023,0.279,0.035,0.443,0.037c0.165,0.002,0.345-0.006,0.538-0.025c0.386-0.029,1.223-0.158,2.492-0.376
				c1.344-0.234,2.461-0.348,3.349-0.337c0.217,0.002,0.42,0.012,0.608,0.03c0.963,0.09,1.834,0.367,2.606,0.818
				c1.078,0.636,1.526,1.341,1.354,2.126c-0.181,0.785-0.974,1.553-2.406,2.305c-1.305,0.694-2.699,1.161-4.193,1.411l-2.345-1.377
				c1.188-0.228,2.142-0.45,2.861-0.665c0.72-0.217,1.314-0.452,1.8-0.705c0.559-0.296,0.901-0.586,0.991-0.87
				c0.1-0.293-0.071-0.563-0.484-0.801c-0.242-0.142-0.512-0.224-0.826-0.262c-0.136-0.016-0.279-0.024-0.431-0.026
				c-0.213-0.002-0.442,0.008-0.693,0.03c-0.424,0.038-1.225,0.158-2.402,0.369c-1.089,0.186-1.979,0.296-2.663,0.305
				c-0.116,0.003-0.232,0.004-0.349,0.002c-0.569-0.007-1.126-0.066-1.656-0.173c-0.64-0.129-1.25-0.353-1.816-0.68
				c-1.051-0.618-1.508-1.298-1.372-2.049c0.128-0.741,0.848-1.45,2.145-2.136c0.64-0.337,1.314-0.624,2.044-0.839
				C477.611,298.348,478.421,298.142,479.32,297.971z" />
      </g>
      <g>
        <polygon fill="#9D9D9D" points="508.599,281.776 510.701,283.012 507.37,284.771 517.198,290.535 514.598,291.904 504.77,286.14 
				501.438,287.906 499.326,286.67 			" />
      </g>
      <g>
        <polygon fill="#9D9D9D" points="519.277,276.139 521.353,277.356 516.886,279.715 519.51,281.251 523.66,279.053 
				525.735,280.271 521.585,282.461 524.657,284.271 529.123,281.912 531.207,283.14 524.141,286.866 512.209,279.865 			"
        />
      </g>
      <g>
        <path fill="#9D9D9D" d="M542.416,277.223l-7.508-1.137l-1.387,0.726l4.582,2.693l-2.611,1.377l-11.931-7.001l3.583-1.893
				c1.666-0.88,3.196-1.354,4.581-1.432c0.169-0.01,0.335-0.014,0.5-0.012c1.212,0.015,2.341,0.335,3.393,0.949
				c0.701,0.415,1.132,0.887,1.284,1.416c0.143,0.529,0.015,1.081-0.408,1.646c4.531,0.591,7.463,0.98,8.812,1.145L542.416,277.223z
				 M533.726,273.97c0.126-0.361-0.099-0.711-0.664-1.046c-0.459-0.265-0.941-0.404-1.449-0.41
				c-0.118-0.002-0.237,0.003-0.358,0.017c-0.639,0.07-1.385,0.33-2.223,0.777l-0.792,0.415l3.225,1.889l0.837-0.448
				C533.13,274.731,533.599,274.331,533.726,273.97" />
      </g>
      <g>
        <path fill="#9D9D9D" d="M555.639,256.898l16.334,4.729l-2.81,1.479l-3.73-1.195l-4.474,2.367l1.947,2.134l-2.8,1.479
				l-7.654-9.318L555.639,256.898z M559.487,262.688l3.195-1.691c-3.38-1.069-5.313-1.681-5.753-1.824
				c-0.431-0.145-0.782-0.261-1.016-0.35C556.426,259.32,557.62,260.614,559.487,262.688" />
      </g>
      <g>
        <path fill="#9D9D9D" d="M555.488,270.325l-7.508-1.138l-1.387,0.728l4.582,2.692l-2.603,1.369l-11.931-7.001l3.574-1.886
				c1.675-0.878,3.196-1.361,4.59-1.439c0.155-0.008,0.31-0.011,0.462-0.009c1.22,0.015,2.359,0.335,3.422,0.956
				c0.7,0.414,1.141,0.886,1.283,1.416c0.144,0.529,0.017,1.081-0.407,1.646c4.532,0.59,7.472,0.98,8.812,1.144L555.488,270.325z
				 M546.806,267.072c0.126-0.361-0.098-0.71-0.673-1.045c-0.455-0.271-0.935-0.406-1.438-0.413
				c-0.122-0.001-0.245,0.006-0.369,0.02c-0.639,0.07-1.376,0.328-2.224,0.769l-0.782,0.422l3.216,1.891l0.838-0.449
				C546.202,267.835,546.679,267.435,546.806,267.072" />
      </g>
      <g>
        <path fill="#9D9D9D" d="M572.788,248.65l1.211,1.649c-0.675,0.121-1.313,0.251-1.943,0.409c-0.621,0.146-1.152,0.349-1.593,0.576
				c-0.982,0.524-1.387,1.133-1.209,1.836c0.17,0.702,0.906,1.429,2.181,2.179c1.548,0.906,2.985,1.367,4.323,1.383
				c0.97,0.012,1.888-0.211,2.754-0.665c0.855-0.456,1.693-1.13,2.504-2.02l2.111,1.236c-0.595,0.771-1.513,1.495-2.756,2.146
				c-1.624,0.854-3.345,1.277-5.147,1.256c-0.176-0.003-0.352-0.01-0.529-0.021c-1.997-0.118-3.983-0.756-5.95-1.904
				c-1.24-0.732-2.103-1.495-2.568-2.288c-0.475-0.793-0.52-1.563-0.14-2.311c0.37-0.757,1.145-1.438,2.315-2.056
				C569.54,249.432,571.016,248.957,572.788,248.65z" />
      </g>
      <g>
        <polygon fill="#9D9D9D" points="583.053,242.488 585.128,243.698 580.663,246.057 583.276,247.602 587.444,245.403 
				589.512,246.622 585.352,248.811 588.425,250.612 592.898,248.254 594.983,249.481 587.916,253.217 575.985,246.216 			"
        />
      </g>
    </g>
  </g>
  <g id="GOAL-POSTS">
    <path fill="#FFFFFF" d="M192.611,89.954l-0.021-0.016l-0.114-0.11l-0.015-0.047l0.036-0.133l0.053-0.06l0.152-0.107
		c0.041-0.031,0.105-0.059,0.186-0.085l0.266-0.085c0.08-0.024,0.176-0.047,0.274-0.061l0.328-0.05
		c0.1-0.014,0.198-0.023,0.291-0.023l0.333-0.001c0.075-0.002,0.14,0.003,0.195,0.012l0.314,0.051l0.091,0.024l0.223,0.085
		l0.053,0.031l0.099,0.1l0.017,0.039l-0.009,0.124l-0.052,0.07l-0.151,0.107c-0.041,0.03-0.105,0.06-0.186,0.085l-0.266,0.086
		c-0.081,0.025-0.177,0.048-0.276,0.062l-0.329,0.05c-0.098,0.016-0.198,0.024-0.29,0.024l-0.334,0.002
		c-0.066,0.001-0.122-0.003-0.174-0.009l-0.343-0.047l-0.11-0.025l-0.206-0.077L192.611,89.954 M193.629,89.638l0.071,0.07
		l0.125,0.046l0.199,0.027l0.122-0.006l0.02-0.005l0.037-0.027l0.006-0.072l-0.065-0.065l-0.147-0.056l-0.178-0.029l-0.107,0.004
		l-0.019,0.006l-0.044,0.031L193.629,89.638" />
    <path fill="#FFFFFF" d="M217.35,84.23l-0.023-0.016l-0.118-0.107l-0.019-0.039l0.004-0.122l0.046-0.068l0.146-0.105
		c0.039-0.029,0.101-0.058,0.179-0.082l0.259-0.083c0.078-0.025,0.17-0.046,0.269-0.06l0.32-0.049
		c0.096-0.015,0.196-0.022,0.286-0.023l0.329-0.002c0.073,0,0.137,0.004,0.194,0.013l0.311,0.05l0.092,0.023l0.223,0.083
		l0.056,0.033l0.103,0.096l0.018,0.037l-0.001,0.124L219.976,84l-0.143,0.104c-0.039,0.029-0.101,0.057-0.179,0.083l-0.259,0.083
		c-0.079,0.025-0.171,0.047-0.27,0.061l-0.321,0.048c-0.098,0.016-0.195,0.023-0.286,0.023l-0.331,0.003
		c-0.072,0-0.139-0.004-0.193-0.014l-0.313-0.051l-0.089-0.02l-0.208-0.075L217.35,84.23 M218.332,83.917l0.078,0.073l0.135,0.047
		l0.179,0.029l0.105-0.005l0.019-0.007l0.035-0.026l0.002-0.068l-0.066-0.064l-0.15-0.054l-0.176-0.029l-0.105,0.003l-0.019,0.007
		l-0.036,0.024L218.332,83.917" />
    <path fill="#FFFFFF" d="M405.16,214.395l-0.049-0.037l-0.3-0.241l-0.062-0.073c-0.23-0.385-0.057-0.777,0.466-1.047
		c0.466-0.239,1.125-0.347,1.809-0.293l0.144,0.02l0.497,0.092c0.067,0.014,0.137,0.033,0.186,0.058l0.43,0.187l0.117,0.065
		l0.299,0.242l0.081,0.101l0.1,0.254l0.018,0.082c-0.043,0.477-0.559,0.719-0.862,0.82c-0.598,0.197-1.374,0.213-2.201,0.042
		c-0.068-0.012-0.124-0.028-0.173-0.053l-0.437-0.188L405.16,214.395 M406.279,213.686l0.204,0.166l0.28,0.122
		c0.242,0.044,0.41,0.047,0.491,0.046l0.031-0.075l-0.063-0.158l-0.199-0.156l-0.279-0.121l-0.305-0.061
		c-0.081-0.003-0.131,0.003-0.143,0.008C406.272,213.47,406.217,213.554,406.279,213.686" />
    <path fill="#FFFFFF" d="M432.629,203.137l-0.051-0.036l-0.311-0.225l-0.087-0.097l-0.111-0.241l-0.007-0.131l0.081-0.225
		c0.02-0.061,0.075-0.12,0.156-0.173l0.272-0.175c0.081-0.054,0.193-0.098,0.317-0.129l0.404-0.103
		c0.124-0.03,0.255-0.048,0.385-0.05l0.479-0.003c0.094-0.001,0.187,0.008,0.268,0.023l0.491,0.088
		c0.067,0.012,0.13,0.029,0.186,0.052l0.429,0.176l0.118,0.063l0.305,0.227l0.088,0.095l0.117,0.24l0.019,0.071
		c0.013,0.336-0.285,0.623-0.82,0.792c-0.603,0.188-1.373,0.189-2.112,0.004l-0.125-0.039l-0.429-0.177L432.629,203.137
		 M433.673,202.478l0.199,0.149l0.304,0.123c0.218,0.049,0.361,0.049,0.429,0.047l0.025-0.069l-0.075-0.15l-0.198-0.148
		l-0.286-0.113l-0.255-0.048l-0.162,0.01l-0.018,0.011l-0.02,0.063L433.673,202.478" />
    <polygon fill="#FFFFFF" points="433.263,177.712 433.263,180.374 406.776,190.584 406.776,187.845 	" />
    <polygon fill="#FFFFFF" points="436.195,201.755 432.952,203.087 432.952,100.142 436.195,99.174 	" />
    <polygon fill="#DA1E37" points="436.195,201.755 432.952,203.087 432.952,179.729 436.195,178.479 	" />
    <polygon fill="#DA1E37" points="436.195,169.434 432.952,170.651 432.952,160.533 436.195,159.352 	" />
    <polygon fill="#DA1E37" points="436.195,149.272 432.952,150.417 432.952,140.298 436.195,139.19 	" />
    <polygon fill="#FFFFFF" points="408.497,213.12 405.049,214.533 405.049,108.439 408.497,107.415 	" />
    <polygon fill="#DA1E37" points="408.497,213.12 405.049,214.533 405.049,190.46 408.497,189.136 	" />
    <polygon fill="#DA1E37" points="408.497,179.814 405.049,181.105 405.049,170.678 408.497,169.425 	" />
    <polygon fill="#DA1E37" points="408.497,159.037 405.049,160.252 405.049,149.825 408.497,148.647 	" />
    <polygon fill="#FFFFFF" points="217.125,66.6 217.125,68.466 194.408,73.254 194.408,71.345 	" />
    <polygon fill="#FFFFFF" points="219.659,83.709 216.856,84.346 216.856,12.243 219.659,11.813 	" />
    <polygon fill="#DA1E37" points="219.659,83.709 216.856,84.346 216.856,67.986 219.659,67.396 	" />
    <polygon fill="#DA1E37" points="219.659,61.056 216.856,61.628 216.856,54.54 219.659,53.99 	" />
    <polygon fill="#DA1E37" points="219.659,46.925 216.856,47.457 216.856,40.369 219.659,39.858 	" />
    <polygon fill="#FFFFFF" points="195.877,89.113 192.935,89.78 192.935,15.891 195.877,15.442 	" />
    <polygon fill="#DA1E37" points="195.877,89.113 192.935,89.78 192.935,73.014 195.877,72.397 	" />
    <polygon fill="#DA1E37" points="195.877,65.901 192.935,66.5 192.935,59.236 195.877,58.66 	" />
    <polygon fill="#DA1E37" points="195.877,51.421 192.935,51.977 192.935,44.714 195.877,44.18 	" />
  </g>
  <g id="LABELS">
    <path fill="#FFFFFF" d="M576.533,143.867c0,2.055,1.175,3.308,2.517,3.823c0.876,0.338,2.22,0.505,2.22-1.083
		c0-1.674-1.711-2.607-3.388-3.851c-1.678-1.243-3.369-2.768-3.369-5.659c0-3.151,2.183-3.858,4.232-3.102
		c2.381,0.876,4.58,3.104,4.58,6.703l-2.442-0.915c-0.081-1.899-1.05-2.739-2.249-3.183c-0.796-0.297-1.716-0.184-1.716,1.114
		c0,1.191,0.541,1.546,3.395,3.615c0.832,0.597,3.398,2.286,3.398,5.82c0,2.859-1.653,4.354-4.761,3.15
		c-2.51-0.974-4.847-3.563-4.816-7.347L576.533,143.867z" />
    <path fill="#FFFFFF" d="M529.141,116.015l5.463,2.012c1.833,0.676,3.002,2.94,3.002,5.166c0,1.732-0.491,2.845-1.629,3.076v0.041
		c1.107,0.829,1.424,2.495,1.498,4.007c0.037,0.943,0.024,2.669,0.429,3.651l-2.256-0.874c-0.273-1.03-0.242-2.438-0.361-3.655
		c-0.154-1.601-0.564-2.435-1.695-2.863l-2.231-0.849v5.706l-2.219-0.858V116.015z M531.359,123.438l2.448,0.922
		c0.995,0.377,1.542-0.035,1.542-1.515c0-1.417-0.547-2.237-1.542-2.609l-2.448-0.91V123.438z" />
    <path fill="#FFFFFF" d="M497.651,119.658l-1.305-2.305c-0.603,0.291-1.367,0.29-2.231-0.044c-2.821-1.097-4.48-4.933-4.48-8.92
		c0-4.105,1.659-6.689,4.48-5.648c2.854,1.048,4.537,4.902,4.537,9.057c0,2.018-0.429,3.657-1.206,4.689l1.156,2.031
		L497.651,119.658z M495.004,112.173l1.044,1.843c0.336-0.576,0.572-1.54,0.572-2.988c0-2.441-0.689-5.042-2.505-5.716
		c-1.808-0.672-2.479,1.407-2.479,3.833c0,2.308,0.671,4.899,2.479,5.594c0.299,0.113,0.672,0.257,0.814,0.115l-0.863-1.519
		L495.004,112.173z" />
    <path fill="#FFFFFF" d="M464.553,92.221l3.834,1.413c2.139,0.788,2.972,3.228,2.972,5.418c0,2.189-0.833,4.007-2.972,3.194
		l-1.97-0.751v4.8l-1.864-0.722V92.221z M466.417,99.208l1.454,0.55c0.877,0.329,1.653,0.323,1.653-1.391
		c0-1.713-0.776-2.305-1.653-2.629l-1.454-0.542V99.208z" />
    <polygon fill="#FFFFFF" points="445.654,85.245 447.406,85.893 450.787,95.923 450.813,95.932 450.813,87.147 452.49,87.766 
		452.49,100.893 450.7,100.198 447.326,90.17 447.308,90.162 447.308,98.885 445.654,98.245 	" />
    <polygon fill="#FFFFFF" points="421.163,76.297 423.48,77.152 425.239,86.478 425.265,86.486 426.936,78.427 429.298,79.297 
		429.298,91.99 427.726,91.382 427.726,82.407 427.701,82.399 425.843,90.653 424.562,90.157 422.723,80.622 422.697,80.614 
		422.697,89.436 421.163,88.838 	" />
    <polygon fill="#FFFFFF" points="398.063,67.866 399.598,68.431 399.598,78.326 403.022,79.641 403.022,81.897 398.063,79.976 	"
    />
    <polygon fill="#FFFFFF" points="384.518,62.779 385.987,63.322 385.987,68.248 388.616,64.29 390.476,64.975 387.833,68.709 
		390.733,77.044 388.863,76.319 386.833,70.184 385.987,71.378 385.987,75.205 384.518,74.636 	" />
    <path fill="#FFFFFF" d="M370.407,65.493c0,1.491-0.224,3.842-2.119,3.107c-1.054-0.409-2.076-1.853-2.076-4.369v-1.002l1.254,0.479
		v0.517c0,1.114,0.149,1.98,0.805,2.233c0.737,0.282,0.737-0.803,0.737-1.614v-7.807l1.399,0.514V65.493z" />
    <polygon fill="#FFFFFF" points="339.147,46.021 340.415,46.489 340.415,50.722 342.761,51.604 342.761,47.354 344.043,47.826 
		344.043,58.928 342.761,58.431 342.761,53.651 340.415,52.763 340.415,57.521 339.147,57.029 	" />
    <path fill="#FFFFFF" d="M319.52,48.224c-0.413,0.897-0.953,1.091-1.472,0.891c-1.648-0.638-2.615-3.455-2.615-6.505
		c0-3.139,0.967-5.225,2.615-4.615c1.097,0.406,2.134,2.131,2.263,4.595l-1.129-0.423c-0.135-1.228-0.578-2.002-1.134-2.209
		c-1.052-0.393-1.448,1.24-1.448,3.095c0,1.764,0.396,3.696,1.448,4.101c0.767,0.291,1.209-0.357,1.275-1.806l-1.184-0.453v-1.736
		l2.254,0.85v5.758l-0.753-0.29L319.52,48.224z" />
    <polygon fill="#FFFFFF" points="231.08,39.378 237.739,38.119 237.739,39.892 233.17,40.763 233.17,42.987 237.131,42.226 
		237.131,43.863 233.17,44.632 233.17,48.61 231.08,49.024 	" />
    <polygon fill="#FFFFFF" points="205.533,44.339 212.943,42.938 212.943,44.75 207.721,45.747 207.721,47.856 212.514,46.935 
		212.514,48.61 207.721,49.541 207.721,51.954 213.052,50.908 213.052,52.721 205.533,54.208 	" />
    <path fill="#FFFFFF" d="M179.162,49.504l4.485-0.848c2.678-0.507,4.682,0.741,4.682,4.066c0,2.905-1.527,5.367-4.682,5.991
		l-4.485,0.888V49.504z M181.453,57.285l2.036-0.4c1.318-0.258,2.576-1.292,2.576-3.513c0-2.024-0.722-3.18-2.984-2.748l-1.628,0.31
		V57.285z" />
    <path fill="#FFFFFF" d="M157.801,56.951c-0.153-0.993-1.184-1.574-2.37-1.348c-2.149,0.41-2.959,2.299-2.959,4.107
		c0,1.722,0.81,3.298,2.959,2.876c1.46-0.287,2.279-1.399,2.461-2.787l2.298-0.447c-0.24,2.605-2.102,4.612-4.759,5.138
		c-3.373,0.669-5.367-1.328-5.367-4.314c0-3.072,1.994-5.84,5.367-6.478c2.385-0.45,4.382,0.494,4.669,2.811L157.801,56.951z"
    />
    <path fill="#FFFFFF" d="M121.379,60.235l5.388-1.02c2.166-0.41,3.628-0.037,3.628,1.922c0,1.032-0.555,1.86-1.541,2.493
		c1.383,0.101,2.08,0.952,2.08,2.264c0,2.134-1.952,3.434-4.007,3.84l-5.548,1.097V60.235z M123.903,64.037l2.544-0.49
		c0.878-0.169,1.532-0.664,1.532-1.549c0-1.004-0.829-1.053-1.724-0.883l-2.352,0.449V64.037z M123.903,68.525l2.688-0.528
		c0.99-0.193,1.849-0.658,1.849-1.749c0-1.078-0.732-1.364-1.8-1.157l-2.737,0.531V68.525z" />
    <path fill="#FFFFFF" d="M93.622,65.549l2.706-0.512l4.462,9.931l-2.721,0.538l-0.904-2.228l-4.486,0.879l-0.947,2.602l-2.691,0.533
		L93.622,65.549z M93.37,72.245l3.109-0.605l-1.511-3.677l-0.034,0.007L93.37,72.245" />
  </g>
</svg>