<svg>
<polygon fill="#F2F2F2" points="596.812,183.04 284.447,52.377 64.745,98.674 317.364,315.313 "/>
<g id="JS-STAND">
	<polygon fill="#E1F4FD" points="261.881,55.877 233.187,33.316 262.846,27.863 	"/>
	<polygon fill="#C3D4DD" points="262.833,22.007 229.866,27.891 229.866,30.706 233.187,33.316 262.846,27.862 262.846,22.009 
		262.833,22.006 	"/>
	<polygon fill="#BCBEC0" points="222.071,9.991 262.846,17.273 262.846,22.009 229.867,15.284 229.867,30.8 262.846,56.727 
		222.071,38.602 	"/>
	<polygon fill="#A7A9AC" points="222.071,38.585 59.686,68.909 59.686,36.18 222.071,9.991 	"/>
	<polygon fill="#939598" points="222.07,38.585 263,56.773 90.806,93.041 59.686,68.909 	"/>
	<polygon fill="#E6E7E8" points="262.846,17.272 221.967,9.991 59.763,36.18 90.852,47.214 	"/>
	<polygon fill="#D1D3D4" points="59.702,36.179 90.82,47.192 90.82,52.704 67.743,44.539 67.743,60.015 90.82,93.062 59.702,68.928 
			"/>
	<polygon fill="#CBCCCE" points="262.833,22.007 90.818,52.704 90.818,47.219 262.833,17.273 	"/>
	<polygon fill="#C4C4C4" points="67.743,59.777 67.743,50.092 61.723,51.094 	"/>
	<path fill="#C4CED4" d="M67.742,50.09v-5.551l10.669,3.775L67.742,50.09z M72.307,66.552l-4.565-6.536v-0.158l4.595,6.688
		L72.307,66.552"/>
	<path fill="#939598" d="M106.295,36.427c0,1.83-0.546,4.906-5.215,5.696c-2.623,0.444-5.191-0.425-5.191-3.554v-1.243l3.141-0.517
		v0.638c0,1.382,0.376,2.32,2.006,2.047c1.824-0.305,1.824-1.641,1.824-2.638v-9.615l3.435-0.54V36.427z"/>
	<path fill="#939598" d="M118.073,34.244c0,1.872,1.582,2.337,3.373,2.037c1.17-0.196,2.952-0.807,2.952-2.238
		c0-1.509-2.271-1.392-4.508-1.575c-2.266-0.18-4.563-0.615-4.563-3.26c0-2.883,2.96-4.731,5.714-5.163
		c3.166-0.498,6.063,0.318,6.063,3.545l-3.215,0.517c-0.106-1.67-1.401-1.895-2.996-1.64c-1.067,0.169-2.306,0.779-2.306,1.961
		c0,1.083,0.727,1.104,4.538,1.391c1.103,0.077,4.484,0.172,4.484,3.339c0,2.561-2.174,4.845-6.291,5.541
		c-3.374,0.571-6.55-0.434-6.506-3.917L118.073,34.244z"/>
	<path fill="#939598" d="M149.909,28.988c0,1.823,1.5,2.283,3.199,1.999c1.11-0.186,2.801-0.774,2.801-2.169
		c0-1.469-2.154-1.364-4.277-1.552c-2.15-0.185-4.328-0.618-4.328-3.194c0-2.808,2.808-4.596,5.421-5.006
		c3.003-0.473,5.752,0.334,5.752,3.478l-3.051,0.49c-0.1-1.627-1.329-1.851-2.842-1.61c-1.013,0.161-2.188,0.75-2.188,1.901
		c0,1.055,0.689,1.078,4.307,1.373c1.045,0.08,4.254,0.187,4.254,3.272c0,2.495-2.063,4.711-5.969,5.371
		c-3.201,0.542-6.214-0.45-6.174-3.842L149.909,28.988z"/>
	<polygon fill="#939598" points="169.875,19.182 165.658,19.854 165.658,17.355 177.113,15.553 177.113,18.028 172.949,18.692 
		172.949,29.645 169.875,30.164 	"/>
	<path fill="#939598" d="M186.786,14.029l3.063-0.481l5.042,12.391l-3.073,0.519l-1.021-2.774l-5.08,0.845l-1.07,3.14l-3.052,0.515
		L186.786,14.029z M186.501,22.222l3.517-0.579l-1.707-4.585l-0.039,0.007L186.501,22.222"/>
	<polygon fill="#939598" points="201.659,11.689 204.55,11.233 210.034,19.1 210.07,19.094 210.07,10.365 212.755,9.941 
		212.755,22.922 209.888,23.406 204.42,15.576 204.384,15.582 204.384,24.335 201.659,24.796 	"/>
	<path fill="#939598" d="M220.682,8.694l5.508-0.867c3.282-0.517,5.735,1.17,5.735,5.406c0,3.699-1.87,6.767-5.735,7.42l-5.508,0.93
		V8.694z M223.497,18.732l2.496-0.417c1.619-0.27,3.16-1.53,3.16-4.361c0-2.58-0.885-4.088-3.658-3.645l-1.998,0.32V18.732z"/>
	<polygon id="E-EA" stroke-width="0" points="93.736,52.183 90.82,52.703 90.82,52.704 90.818,52.704 78.414,48.314 67.743,50.092 
		67.743,59.777 90.008,91.895 119.572,85.699 	"/>
	<polygon id="E-EB" stroke-width="0" points="122.068,47.127 95.61,51.849 122.144,85.16 150.574,79.202 	"/>
	<polygon id="E-EC" stroke-width="0" points="149.816,42.175 124.385,46.714 153.057,78.682 180.238,72.986 	"/>
	<polygon id="E-ED" stroke-width="0" points="176.509,37.412 152.043,41.778 182.612,72.488 208.624,67.037 	"/>
	<polygon id="E-EE" stroke-width="0" points="202.2,32.827 178.65,37.03 210.896,66.561 235.813,61.339 	"/>
	<polygon id="E-EF" stroke-width="0" points="226.948,28.411 204.263,32.459 237.991,60.882 261.879,55.876 	"/>
</g>
<g id="MIRA-SHOWER-STAND">
	<polygon fill="#E1F4FD" points="300.628,20.917 308.347,19.497 308.327,40.523 303.966,42.823 	"/>
	<polygon fill="#BDD1DA" points="305.96,10.646 299.142,11.162 300.628,20.916 308.354,20.916 308.354,11.429 	"/>
	<polygon fill="#C7C8CA" points="289.67,54.551 582.004,176.896 645.566,147.918 348.388,42 	"/>
	<polygon fill="#BCBEC0" points="346.948,0.989 293.827,6.581 293.827,11.586 308.655,10.466 308.626,40.523 289.67,50.521 
		289.67,54.465 346.948,42.198 	"/>
	<polygon fill="#D1D3D4" points="346.948,0.989 645.69,87.185 645.69,148.646 346.948,41.941 	"/>
	<polygon fill="#E6E7E8" points="346.648,0.989 645.391,87.185 609.588,95.333 312.115,4.679 	"/>
	<polygon fill="#D6E0E5" points="610.136,114.966 595.637,110.149 595.071,106.396 610.11,103.002 	"/>
	<polygon fill="#D8E2E8" points="346.648,23.953 308.354,11.429 308.355,10.466 305.961,10.646 293.527,6.581 312.115,4.678 
		346.648,15.203 	"/>
	<polygon fill="#D8E2E8" points="583.443,101.391 346.647,23.953 346.647,15.203 609.589,95.333 	"/>
	<polygon fill="#D5D7D8" points="293.527,11.556 583.444,109.02 583.444,101.391 293.527,6.581 	"/>
	<polygon fill="#939598" points="340.709,4.505 342.941,5.147 344.64,15.159 344.66,15.166 346.275,6.105 348.551,6.759 
		348.551,20.7 347.036,20.229 347.036,10.375 347.015,10.368 345.222,19.666 343.988,19.283 342.212,9.052 342.191,9.046 
		342.191,18.725 340.709,18.264 	"/>
	<polygon fill="#939598" points="353.112,8.071 354.764,8.545 354.764,22.631 353.112,22.118 	"/>
	<path fill="#939598" d="M359.42,9.884l4.154,1.193c1.392,0.401,2.276,2.443,2.276,4.612c0,1.689-0.37,2.844-1.233,3.228v0.039
		c0.841,0.654,1.081,2.233,1.135,3.695c0.033,0.915,0.022,2.598,0.329,3.497l-1.714-0.532c-0.207-0.966-0.186-2.342-0.272-3.51
		c-0.12-1.539-0.435-2.296-1.292-2.554l-1.695-0.512v5.563l-1.688-0.525V9.884z M361.107,16.809l1.857,0.554
		c0.76,0.226,1.173-0.253,1.173-1.695c0-1.382-0.413-2.104-1.173-2.325l-1.857-0.542V16.809z"/>
	<path fill="#939598" d="M372.744,13.714l1.807,0.519l3.02,15.487l-1.848-0.575l-0.608-3.432l-2.995-0.915l-0.625,3.033
		l-1.768-0.549L372.744,13.714z M372.576,22.561l2.076,0.626l-1.012-5.636l-0.022-0.006L372.576,22.561z"/>
	<path fill="#939598" d="M389.698,28.542c0,1.983,0.874,3.023,1.87,3.33c0.653,0.201,1.655,0.174,1.655-1.359
		c0-1.616-1.274-2.272-2.521-3.234c-1.254-0.961-2.514-2.192-2.514-4.982c0-3.04,1.625-4.031,3.153-3.593
		c1.774,0.508,3.412,2.346,3.412,5.817l-1.817-0.535c-0.061-1.821-0.787-2.494-1.678-2.754c-0.593-0.172-1.279,0.067-1.279,1.32
		c0,1.148,0.402,1.414,2.527,3.005c0.62,0.458,2.535,1.722,2.535,5.131c0,2.758-1.234,4.436-3.545,3.716
		c-1.871-0.583-3.613-2.748-3.59-6.405L389.698,28.542z"/>
	<polygon fill="#939598" points="399.797,21.49 401.717,22.041 401.717,27.868 405.278,28.923 405.278,23.065 407.23,23.626 
		407.23,38.937 405.278,38.331 405.278,31.745 401.717,30.675 401.717,37.224 399.797,36.628 	"/>
	<path fill="#939598" d="M416.813,26.012c2.853,0.817,4.537,4.916,4.537,9.56c0,4.512-1.685,7.602-4.537,6.715
		c-2.821-0.88-4.468-4.959-4.468-9.411C412.345,28.294,413.991,25.202,416.813,26.012 M416.813,39.415
		c1.814,0.557,2.498-1.853,2.498-4.453c0-2.73-0.684-5.55-2.498-6.078c-1.802-0.526-2.48,1.878-2.48,4.589
		C414.332,36.052,415.011,38.86,416.813,39.415"/>
	<polygon fill="#939598" points="435.792,47.816 433.685,47.16 432.057,35.836 432.025,35.828 430.435,46.15 428.315,45.491 
		425.817,28.969 427.893,29.565 429.391,40.772 429.422,40.779 431.075,30.48 433.051,31.048 434.697,42.514 434.723,42.522 
		436.308,31.986 438.408,32.589 	"/>
	<polygon fill="#939598" points="443.535,34.063 451.03,36.218 451.03,39.236 445.724,37.688 445.724,41.162 450.589,42.606 
		450.589,45.396 445.724,43.932 445.724,47.904 451.148,49.565 451.148,52.586 443.535,50.223 	"/>
	<path fill="#939598" d="M456.953,37.919l5.599,1.609c1.883,0.541,3.076,2.963,3.076,5.485c0,1.962-0.497,3.283-1.665,3.682v0.046
		c1.137,0.807,1.46,2.656,1.535,4.359c0.043,1.065,0.031,3.022,0.44,4.085l-2.312-0.72c-0.28-1.136-0.249-2.732-0.367-4.095
		c-0.161-1.795-0.59-2.691-1.746-3.04l-2.287-0.69v6.458l-2.273-0.706V37.919z M459.227,46.049l2.505,0.747
		c1.025,0.305,1.584-0.227,1.584-1.903c0-1.606-0.559-2.467-1.584-2.766l-2.505-0.73V46.049z"/>
	<path fill="#939598" d="M473.633,53.977c0,2.244,1.118,3.462,2.393,3.854c0.839,0.258,2.125,0.272,2.125-1.463
		c0-1.83-1.634-2.631-3.232-3.775c-1.608-1.144-3.219-2.592-3.219-5.748c0-3.439,2.082-4.491,4.04-3.93
		c2.269,0.652,4.375,2.804,4.375,6.736l-2.337-0.687c-0.075-2.065-1.007-2.858-2.15-3.19c-0.758-0.221-1.635,0.02-1.635,1.437
		c0,1.3,0.517,1.618,3.238,3.514c0.796,0.545,3.25,2.063,3.25,5.924c0,3.124-1.584,4.968-4.549,4.044
		c-2.393-0.746-4.623-3.276-4.592-7.41L473.633,53.977z"/>
	<path fill="#939598" d="M497.478,61.204c0,2.318,1.199,3.588,2.561,4.007c0.895,0.275,2.263,0.303,2.263-1.489
		c0-1.891-1.747-2.736-3.45-3.934c-1.709-1.198-3.43-2.711-3.43-5.971c0-3.553,2.219-4.619,4.307-4.02
		c2.423,0.696,4.673,2.942,4.673,7.005l-2.492-0.734c-0.08-2.134-1.074-2.963-2.293-3.318c-0.813-0.236-1.753,0.004-1.753,1.468
		c0,1.344,0.554,1.677,3.456,3.664c0.852,0.571,3.475,2.164,3.475,6.155c0,3.228-1.691,5.115-4.854,4.13
		c-2.56-0.796-4.934-3.433-4.902-7.704L497.478,61.204z"/>
	<polygon fill="#939598" points="513.971,57.598 510.379,56.55 510.379,53.275 520.273,56.12 520.273,59.438 516.625,58.374 
		516.625,72.938 513.971,72.111 	"/>
	<path fill="#939598" d="M528.992,58.625l2.834,0.815l4.741,19.695l-2.902-0.902l-0.957-4.36l-4.698-1.434l-0.976,3.734
		l-2.766-0.859L528.992,58.625z M528.73,69.683l3.25,0.982l-1.585-7.152l-0.037-0.01L528.73,69.683z"/>
	<polygon fill="#939598" points="543.086,62.678 545.933,63.495 551.42,77.604 551.457,77.616 551.457,65.083 554.198,65.87 
		554.198,84.614 551.271,83.707 545.803,69.588 545.765,69.578 545.765,81.995 543.086,81.163 	"/>
	<path fill="#939598" d="M562.463,68.247l5.916,1.701c3.594,1.032,6.315,4.938,6.315,11.318c0,5.573-2.076,9.074-6.315,7.757
		l-5.916-1.839V68.247z M565.465,84.604l2.703,0.827c1.759,0.54,3.456-0.443,3.456-4.681c0-3.862-0.976-6.614-3.997-7.497
		l-2.162-0.629V84.604z"/>
	<polygon id="S-SS" stroke-width="0" points="593.157,109.325 563.079,135.768 563.082,135.769 537.519,158.247 582.157,176.901 
		587.126,171.944 585.973,173.092 563.464,164.129 571.599,156.043 594.594,164.496 606.851,152.27 606.854,152.271 
		635.733,123.467 	"/>
	<polygon id="S-SR" stroke-width="0" points="583.444,106.101 583.444,109.02 549.307,97.543 494.663,140.337 534.441,156.963 
		590.199,108.344 	"/>
	<polygon id="S-SQ" stroke-width="0" points="456.237,124.282 491.909,139.191 546.631,96.644 511.791,84.932 	"/>
	<polygon id="S-SP" stroke-width="0" points="509.36,84.114 493.186,78.676 437.637,116.509 453.765,123.249 	"/>
	<polygon id="S-SN" stroke-width="0" points="477.647,73.453 421.592,109.804 436.536,116.049 491.996,78.277 	"/>
	<polygon id="S-SM" stroke-width="0" points="390.191,96.682 419.354,108.871 475.436,72.709 446.444,62.963 	"/>
	<polygon id="S-SL" stroke-width="0" points="444.413,62.28 431.03,57.782 374.922,90.303 388.158,95.84 	"/>
	<polygon id="S-SK" stroke-width="0" points="417.815,53.339 388.25,69.852 388.252,69.853 361.603,84.735 373.764,89.818 
		429.769,57.357 	"/>
	<polygon id="S-SJ" stroke-width="0" points="335.462,73.812 359.746,83.962 415.951,52.712 391.455,44.477 	"/>
	<polygon id="S-SH" stroke-width="0" points="311.469,63.787 333.763,73.102 389.733,43.898 367.103,36.29 	"/>
	<polygon id="S-SG" stroke-width="0" points="300.519,49.095 309.714,52.704 302.471,56.409 293.029,52.604 288.872,54.552 
		309.407,63.135 365.214,35.655 344.248,28.607 	"/>
	<polygon fill="#D1D3D4" points="645.391,87.036 583.443,101.391 583.443,109.021 610.11,103.002 610.203,149.95 581.81,170.793 
		581.81,177.706 645.391,148.646 	"/>
</g>
<g id="EXTRAS">
	<polygon fill="#E6E7E8" points="278.974,54.935 568.578,179.96 320.03,292.229 82.946,97.543 	"/>
	<polygon fill="#D5D7D8" points="278.974,52.294 570.119,175.293 570.119,182.998 278.974,57.263 	"/>
	<polygon fill="#CBCCCE" points="278.974,57.371 81.079,99.785 81.079,93.766 278.974,52.294 	"/>
	<polygon fill="#CBCCCE" points="320.03,297.275 570.12,182.999 570.12,175.182 320.03,286.937 	"/>
	<polygon fill="#D5D7D8" points="320.03,297.275 81.083,99.917 81.079,93.766 320.03,286.937 	"/>
	<polygon fill="#E6E7E8" points="141.107,121.517 184.943,110.508 294.466,184.146 244.262,201.584 	"/>
	<polygon fill="#CBCCCE" points="294.466,184.146 294.466,194.146 244.262,211.584 244.262,201.584 	"/>
	<polygon fill="#D5D7D8" points="244.262,201.584 244.262,211.584 141.107,131.517 141.107,121.517 	"/>
	<g>
		<path fill="#939598" d="M182.858,124.421c-0.922-0.706-1.634-0.638-2.134,0.215c-0.5,0.844-0.732,2.361-0.693,4.537
			c0.021,1.157,0.119,2.237,0.293,3.221c0.174,0.985,0.401,1.908,0.679,2.768c0.28,0.853,0.689,1.839,1.236,2.956
			c0.582,1.194,0.967,2.043,1.16,2.53c0.192,0.497,0.336,0.965,0.44,1.41c0.102,0.453,0.158,0.922,0.167,1.405
			c0.015,0.863-0.083,1.427-0.292,1.702s-0.517,0.252-0.923-0.059c-0.335-0.257-0.71-0.689-1.125-1.304
			c-0.412-0.621-0.918-1.521-1.521-2.713l0.086,4.852c0.732,1.54,1.565,2.663,2.497,3.375c1.007,0.771,1.784,0.734,2.329-0.109
			c0.545-0.852,0.794-2.39,0.755-4.617c-0.029-1.606-0.203-3.076-0.524-4.412c-0.322-1.345-0.901-2.878-1.735-4.598
			c-0.632-1.31-1.033-2.178-1.203-2.624c-0.17-0.445-0.296-0.873-0.378-1.277c-0.082-0.395-0.126-0.829-0.134-1.287
			c-0.013-0.742,0.071-1.274,0.249-1.59c0.178-0.324,0.442-0.342,0.79-0.076c0.296,0.227,0.598,0.559,0.903,1.006
			c0.31,0.45,0.701,1.115,1.174,2.014l0.526-3.609c-0.458-0.896-0.896-1.648-1.314-2.266
			C183.746,125.245,183.31,124.767,182.858,124.421"/>
		<polyline fill="#939598" points="195.248,134.249 188.665,129.213 188.743,133.564 191.109,135.375 191.471,155.673 
			193.318,157.087 192.956,136.788 195.325,138.601 195.248,134.249 		"/>
		<path fill="#939598" d="M201.281,153.069c0.519-5.207,0.831-8.477,0.936-9.818c0.038,0.429,0.1,1.021,0.188,1.779
			c0.086,0.755,0.466,4.01,1.147,9.776L201.281,153.069 M203.269,140.284l-2.259-1.729l-2.636,22.399l1.991,1.523l0.527-5.38
			l3.178,2.432l0.737,6.347l1.993,1.525L203.269,140.284"/>
		<path fill="#939598" d="M214.06,148.292c-1.426-1.091-2.523-0.832-3.287,0.773c-0.766,1.61-1.114,4.41-1.043,8.391
			c0.073,4.093,0.477,7.493,1.209,10.208c0.732,2.723,1.756,4.579,3.072,5.586c0.519,0.397,1.021,0.679,1.512,0.85
			c0.491,0.172,1.013,0.213,1.565,0.125l-0.228-12.778l-3.459-2.646l0.078,4.352l1.651,1.264l0.092,5.137
			c-0.393-0.079-0.781-0.266-1.169-0.563c-0.739-0.565-1.313-1.693-1.726-3.407c-0.413-1.703-0.645-3.899-0.692-6.575
			c-0.046-2.564,0.159-4.418,0.614-5.568c0.452-1.145,1.08-1.413,1.877-0.804c0.69,0.528,1.357,1.481,2.011,2.867l0.539-3.709
			C215.827,150.139,214.955,148.977,214.06,148.292"/>
		<polyline fill="#939598" points="226.205,157.934 221.186,154.094 221.626,178.743 226.645,182.584 226.568,178.267 
			223.396,175.84 223.282,169.485 226.235,171.744 226.158,167.461 223.206,165.202 223.109,159.789 226.281,162.216 
			226.205,157.934 		"/>
	</g>
</g>
<g id="LIONS-DEN-BAR">
	<polygon fill="#EDEDED" points="58.588,117.675 80.094,107.47 70.176,99.84 32.2,101.41 58.588,127.381 	"/>
	<polygon fill="#D5D7D8" points="24.543,125.311 0.417,99.245 0.417,117.527 24.543,145.355 	"/>
	<polygon fill="#DCDDDE" points="17.082,89.207 0.416,99.245 24.548,125.316 42.2,114.666 	"/>
	<polygon fill="#CBCCCE" points="58.608,117.669 42.2,114.666 24.543,125.316 24.543,145.373 58.608,137.208 	"/>
	<polygon fill="#D5D7D8" points="58.588,117.675 32.101,92.875 17.082,89.207 42.2,114.666 	"/>
	<polygon fill="#FFFFFF" points="31.948,126.823 31.948,130.498 34.093,130.005 34.093,130.662 31.22,131.323 31.22,126.988 	"/>
	<polygon fill="#FFFFFF" points="35.91,125.924 35.91,130.243 35.188,130.409 35.188,126.088 	"/>
	<path fill="#FFFFFF" d="M41.392,126.834c0,1.411-0.789,2.448-2.062,2.74c-1.276,0.295-2.069-0.374-2.069-1.796
		c0-1.423,0.793-2.455,2.069-2.744C40.603,124.746,41.392,125.421,41.392,126.834 M37.994,127.61c0,1.05,0.509,1.532,1.336,1.342
		c0.825-0.19,1.333-0.904,1.333-1.952c0-1.054-0.508-1.531-1.333-1.343C38.509,125.843,37.994,126.556,37.994,127.61"/>
	<polygon fill="#FFFFFF" points="43.461,124.211 45.451,126.967 45.451,123.76 46.138,123.604 46.138,127.889 45.391,128.061 
		43.39,125.308 43.39,128.521 42.705,128.679 42.705,124.383 	"/>
	<path fill="#FFFFFF" d="M48.271,123.12v0.714c0,0.439-0.265,0.822-0.68,0.969v-0.285c0.231-0.101,0.356-0.307,0.356-0.593v-0.06
		l-0.356,0.081v-0.671L48.271,123.12z"/>
	<path fill="#FFFFFF" d="M52.072,123.502c-0.029-0.475-0.382-0.684-0.934-0.559c-0.494,0.113-0.782,0.445-0.782,0.743
		c0,0.438,0.447,0.468,1,0.484c0.922,0.027,1.502,0.101,1.502,0.948c0,0.778-0.61,1.475-1.637,1.713
		c-1.059,0.243-1.654-0.154-1.696-1.095l0.684-0.157c0.041,0.549,0.435,0.772,1.07,0.626c0.517-0.118,0.822-0.486,0.822-0.799
		c0-0.13-0.094-0.305-0.228-0.398c-0.2-0.139-0.517-0.119-0.929-0.132c-0.876-0.031-1.295-0.262-1.295-0.976
		c0-0.672,0.571-1.336,1.572-1.563c0.921-0.21,1.514,0.184,1.52,1.013L52.072,123.502z"/>
	<path fill="#FFFFFF" d="M29.147,134.707c1.281-0.298,1.924,0.275,1.924,1.704c0,1.392-0.716,2.352-2.047,2.666l-1.57,0.37V135.1
		L29.147,134.707z M28.173,138.636l0.894-0.21c0.863-0.203,1.264-0.799,1.264-1.877c0-0.984-0.419-1.406-1.215-1.22l-0.943,0.22
		V138.636z"/>
	<polygon fill="#FFFFFF" points="35.521,133.225 35.521,133.854 33.12,134.414 33.12,135.547 35.334,135.029 35.334,135.636 
		33.12,136.154 33.12,137.461 35.599,136.877 35.599,137.527 32.407,138.279 32.407,133.949 	"/>
	<polygon fill="#FFFFFF" points="37.657,132.728 39.664,135.483 39.664,132.261 40.358,132.101 40.358,136.405 39.605,136.583 
		37.586,133.83 37.586,137.058 36.895,137.221 36.895,132.906 	"/>
	<path fill="#FFFFFF" d="M45.954,130.8c0.888-0.206,1.332,0.047,1.332,0.774c0,0.41-0.213,0.788-0.568,1.02
		c0.484,0.023,0.745,0.32,0.745,0.867c0,0.752-0.527,1.393-1.485,1.62l-1.87,0.44v-4.292L45.954,130.8z M44.803,132.809l1.009-0.236
		c0.515-0.12,0.763-0.35,0.763-0.779c0-0.371-0.248-0.485-0.74-0.371l-1.032,0.241V132.809z M44.803,134.724l1.115-0.262
		c0.545-0.128,0.818-0.412,0.818-0.865c0-0.478-0.291-0.588-0.859-0.455l-1.074,0.252V134.724z"/>
	<path fill="#FFFFFF" d="M50.609,129.719l1.552,3.904l-0.752,0.178l-0.376-1.016l-1.649,0.387L49,134.369l-0.738,0.173l1.552-4.638
		L50.609,129.719z M49.579,132.53l1.26-0.296l-0.63-1.706L49.579,132.53z"/>
	<path fill="#FFFFFF" d="M54.993,128.7c0.122-0.028,0.198-0.041,0.221-0.046c0.736-0.172,1.185,0.168,1.185,0.907
		c0,0.485-0.222,0.892-0.602,1.129c0.398,0.037,0.48,0.277,0.503,0.734l0.035,0.601c0.011,0.244,0.017,0.397,0.175,0.448v0.126
		l-0.782,0.184c-0.082-0.135-0.093-0.315-0.105-0.537l-0.023-0.504c-0.024-0.438-0.111-0.654-0.666-0.524
		c-0.012,0.003-0.059,0.014-0.135,0.032l-0.924,0.216v1.754l-0.697,0.164v-4.262L54.993,128.7z M53.869,130.868l1.001-0.234
		c0.548-0.128,0.823-0.358,0.823-0.855c0-0.491-0.28-0.579-0.806-0.457l-1.018,0.237V130.868z"/>
</g>
<g id="WEST-STAND">
	<polygon id="W-WT" stroke-width="0" points="614.02,150.209 357.244,263.705 357.244,327.464 378.805,346.676 634.496,210.253 
		634.496,171.538 	"/>
	
	<polygon opacity="0.1" fill="#020202" points="357.244,263.705 357.244,327.464 378.805,346.676 378.805,294.342 	"/>
	<polygon opacity="0.05" fill="#010101" points="634.496,171.538 634.496,210.253 378.805,346.676 378.805,294.342 	"/>
	<g>
		<g>
			<polygon fill="#9D9D9D" points="407.852,345.04 409.954,346.275 406.623,348.034 416.442,353.799 413.841,355.168 
				404.012,349.403 400.681,351.171 398.57,349.934 			"/>
		</g>
		<g>
			<path fill="#9D9D9D" d="M396.444,351.803l1.121,1.604c-0.919,0.188-1.638,0.361-2.178,0.527
				c-0.521,0.166-0.991,0.359-1.404,0.579c-0.495,0.263-0.766,0.519-0.803,0.795c-0.045,0.268,0.116,0.512,0.477,0.715
				c0.224,0.132,0.467,0.222,0.736,0.26c0.147,0.024,0.31,0.037,0.485,0.039c0.157,0.002,0.326-0.004,0.504-0.019
				c0.388-0.03,1.215-0.158,2.492-0.385c1.328-0.229,2.434-0.344,3.313-0.333c0.234,0.003,0.452,0.015,0.654,0.035
				c0.963,0.081,1.825,0.359,2.607,0.81c1.078,0.636,1.526,1.342,1.344,2.126c-0.172,0.785-0.974,1.563-2.396,2.306
				c-1.306,0.693-2.71,1.169-4.194,1.41l-2.354-1.377c1.188-0.228,2.142-0.441,2.86-0.666c0.721-0.217,1.314-0.451,1.792-0.696
				c0.576-0.304,0.909-0.603,1.01-0.878c0.081-0.284-0.08-0.555-0.494-0.802c-0.233-0.141-0.513-0.222-0.826-0.26
				c-0.132-0.017-0.274-0.025-0.426-0.027c-0.213-0.002-0.444,0.008-0.69,0.03c-0.431,0.038-1.232,0.158-2.402,0.369
				c-1.097,0.193-1.979,0.296-2.681,0.313c-0.086,0.001-0.173,0.001-0.259-0.001c-0.599-0.007-1.171-0.065-1.737-0.171
				c-0.647-0.129-1.24-0.361-1.806-0.688c-1.052-0.618-1.51-1.297-1.382-2.04c0.127-0.742,0.849-1.46,2.153-2.144
				c0.63-0.339,1.313-0.615,2.044-0.841C394.725,352.18,395.544,351.981,396.444,351.803z"/>
		</g>
		<g>
			<path fill="#9D9D9D" d="M431.597,344.212c0.053,1.151-0.858,2.229-2.748,3.219c-1.763,0.934-3.61,1.389-5.53,1.365
				c-0.13-0.001-0.26-0.005-0.392-0.011c-2.067-0.095-4.099-0.725-6.076-1.881c-1.994-1.165-2.999-2.318-3.033-3.47
				c-0.043-1.149,0.876-2.22,2.768-3.217c1.771-0.934,3.61-1.391,5.529-1.367c0.13,0.002,0.261,0.006,0.392,0.012
				c2.05,0.086,4.063,0.715,6.04,1.881C430.522,341.899,431.545,343.063,431.597,344.212z M426.729,346.186
				c2.078-1.099,1.775-2.434-0.91-4.006c-1.56-0.912-3.015-1.378-4.363-1.394c-0.976-0.012-1.894,0.21-2.76,0.667
				c-1.044,0.55-1.485,1.158-1.334,1.835c0.151,0.667,0.896,1.402,2.227,2.18c1.339,0.786,2.598,1.233,3.793,1.36
				c0.188,0.019,0.375,0.028,0.559,0.031C424.925,346.871,425.848,346.648,426.729,346.186"/>
		</g>
		<g>
			<path fill="#9D9D9D" d="M500.901,302.45c1.968,1.156,2.893,2.344,2.79,3.562c-0.109,1.218-1.245,2.406-3.415,3.547l-3.475,1.835
				l-11.931-7.002l3.854-2.028c1.997-1.057,4.067-1.576,6.209-1.559c0.016,0,0.033,0,0.05,0
				C497.097,300.831,499.074,301.382,500.901,302.45z M498.418,308.205c2.512-1.318,2.469-2.755-0.154-4.29
				c-1.38-0.81-2.727-1.222-4.04-1.237c-1.124-0.014-2.224,0.263-3.299,0.827l-1.386,0.735l7.771,4.557L498.418,308.205"/>
		</g>
		<g>
			<path fill="#9D9D9D" d="M490.635,314.647l-7.508-1.146l-1.387,0.734l4.582,2.685l-2.602,1.378l-11.932-7.001l3.574-1.885
				c1.675-0.888,3.196-1.362,4.59-1.441c0.167-0.009,0.333-0.013,0.498-0.011c1.207,0.015,2.344,0.336,3.396,0.949
				c0.7,0.415,1.131,0.887,1.273,1.417c0.152,0.528,0.017,1.081-0.398,1.646c4.523,0.601,7.472,0.981,8.803,1.145L490.635,314.647z
				 M481.952,311.386c0.127-0.361-0.097-0.71-0.672-1.046c-0.456-0.27-0.936-0.405-1.438-0.411
				c-0.121-0.001-0.244,0.005-0.368,0.019c-0.64,0.078-1.377,0.329-2.214,0.777l-0.793,0.414l3.217,1.889l0.846-0.438
				C481.349,312.148,481.826,311.756,481.952,311.386"/>
		</g>
		<g>
			<path fill="#9D9D9D" d="M476.512,320.502c0.062,1.16-0.857,2.229-2.74,3.228c-1.774,0.933-3.638,1.388-5.58,1.364
				c-0.116-0.002-0.231-0.005-0.349-0.009c-2.06-0.095-4.091-0.725-6.077-1.891c-1.985-1.164-2.999-2.318-3.033-3.47
				c-0.033-1.141,0.886-2.219,2.777-3.217c1.761-0.926,3.602-1.381,5.519-1.357c0.131,0.002,0.261,0.005,0.393,0.012
				c2.05,0.085,4.072,0.714,6.049,1.871C475.446,318.198,476.461,319.353,476.512,320.502z M471.651,322.484
				c2.071-1.1,1.768-2.435-0.91-4.005c-1.561-0.919-3.017-1.386-4.368-1.402c-0.974-0.012-1.895,0.21-2.762,0.666
				c-1.036,0.55-1.477,1.159-1.326,1.835c0.152,0.677,0.897,1.402,2.227,2.189c1.33,0.776,2.597,1.232,3.793,1.351
				c0.189,0.02,0.376,0.029,0.561,0.031C469.849,323.161,470.772,322.939,471.651,322.484"/>
		</g>
		<g>
			<path fill="#9D9D9D" d="M441.954,327.045l8.807,8.641l-2.971,1.564l-7.928-2.795c-0.287-0.098-0.854-0.313-1.698-0.643
				c-0.854-0.34-1.401-0.562-1.662-0.694c0.251,0.192,0.646,0.518,1.167,0.965c0.512,0.446,0.871,0.78,1.068,0.981l4.605,4.535
				l-2.952,1.563l-15.063-5.344l2.556-1.354l8.089,2.986c1.475,0.563,2.714,1.07,3.722,1.523c-0.288-0.202-0.684-0.519-1.214-0.966
				c-0.538-0.448-0.925-0.798-1.176-1.069l-4.893-4.866l2.458-1.293l8.476,2.974c0.378,0.134,0.936,0.348,1.663,0.65
				c0.737,0.294,1.348,0.562,1.852,0.783c-0.368-0.281-0.8-0.632-1.312-1.07c-0.521-0.439-0.916-0.799-1.203-1.079l-4.956-4.65
				L441.954,327.045z"/>
		</g>
		<g>
			<polygon fill="#9D9D9D" points="452.253,321.601 454.328,322.819 449.854,325.187 452.927,326.988 457.096,324.789 
				459.152,325.999 454.994,328.197 459.71,330.969 457.144,332.322 445.214,325.32 			"/>
		</g>
		<g>
			<path fill="#9D9D9D" d="M599.827,243.676l16.343,4.729l-2.81,1.479l-3.729-1.195l-4.475,2.367l1.947,2.133l-2.809,1.479
				l-7.646-9.318L599.827,243.676z M603.685,249.464l3.205-1.69c-3.407-1.079-5.321-1.681-5.762-1.825
				c-0.44-0.144-0.782-0.26-1.017-0.357C600.623,246.098,601.817,247.392,603.685,249.464"/>
		</g>
		<g>
			<polygon fill="#9D9D9D" points="590.303,248.758 592.404,249.993 589.073,251.751 598.902,257.517 596.292,258.895 
				586.463,253.129 583.132,254.887 581.029,253.651 			"/>
		</g>
		<g>
			<path fill="#9D9D9D" d="M578.895,255.527l1.13,1.597c-0.917,0.188-1.646,0.369-2.177,0.535s-0.999,0.359-1.413,0.571
				c-0.495,0.271-0.766,0.526-0.802,0.794c-0.037,0.276,0.116,0.512,0.475,0.724c0.225,0.133,0.468,0.222,0.737,0.26
				c0.147,0.02,0.31,0.033,0.485,0.035c0.156,0.002,0.325-0.005,0.504-0.023c0.396-0.029,1.224-0.157,2.492-0.376
				c1.352-0.234,2.471-0.348,3.358-0.337c0.216,0.002,0.419,0.013,0.608,0.03c0.962,0.09,1.834,0.359,2.606,0.819
				c1.078,0.635,1.526,1.341,1.346,2.125c-0.173,0.785-0.966,1.553-2.397,2.306c-1.305,0.693-2.709,1.16-4.193,1.41l-2.354-1.377
				c1.188-0.229,2.143-0.45,2.862-0.666c0.729-0.216,1.323-0.451,1.791-0.704c0.576-0.305,0.909-0.594,1.009-0.879
				c0.09-0.284-0.08-0.554-0.493-0.792c-0.233-0.142-0.504-0.231-0.827-0.261c-0.131-0.017-0.273-0.025-0.426-0.027
				c-0.212-0.002-0.443,0.008-0.69,0.03c-0.431,0.038-1.231,0.158-2.401,0.36c-1.098,0.194-1.979,0.305-2.671,0.313
				c-0.118,0.003-0.235,0.003-0.351,0.002c-0.572-0.007-1.117-0.066-1.655-0.173c-0.639-0.129-1.24-0.353-1.807-0.688
				c-1.051-0.617-1.508-1.289-1.381-2.04c0.136-0.741,0.848-1.45,2.152-2.145c0.641-0.328,1.315-0.614,2.044-0.83
				C577.186,255.896,577.994,255.698,578.895,255.527z"/>
		</g>
		<g>
			<path fill="#9D9D9D" d="M550.319,270.607l1.121,1.596c-0.908,0.188-1.637,0.369-2.177,0.535c-0.521,0.167-0.99,0.36-1.414,0.58
				c-0.485,0.254-0.765,0.518-0.792,0.785c-0.046,0.276,0.116,0.521,0.466,0.724c0.225,0.132,0.477,0.222,0.746,0.26
				c0.147,0.021,0.31,0.032,0.484,0.035c0.158,0.002,0.326-0.005,0.505-0.023c0.396-0.03,1.215-0.158,2.492-0.376
				c1.353-0.234,2.471-0.348,3.357-0.336c0.218,0.002,0.42,0.012,0.609,0.029c0.962,0.09,1.834,0.36,2.607,0.818
				c1.078,0.636,1.526,1.342,1.345,2.127c-0.182,0.784-0.975,1.553-2.396,2.305c-1.307,0.685-2.71,1.161-4.194,1.41l-2.354-1.377
				c1.188-0.228,2.142-0.449,2.861-0.666c0.729-0.215,1.313-0.45,1.791-0.704c0.576-0.305,0.909-0.595,1.009-0.878
				c0.091-0.284-0.079-0.555-0.492-0.793c-0.234-0.142-0.514-0.223-0.827-0.261c-0.132-0.016-0.274-0.025-0.427-0.027
				c-0.212-0.002-0.443,0.008-0.689,0.03c-0.432,0.038-1.232,0.159-2.402,0.36c-1.097,0.194-1.987,0.305-2.671,0.322
				c-0.088,0.001-0.175,0.001-0.261,0c-0.605-0.008-1.179-0.067-1.745-0.18c-0.647-0.12-1.24-0.353-1.806-0.688
				c-1.052-0.617-1.51-1.298-1.382-2.039c0.127-0.742,0.848-1.451,2.145-2.136c0.64-0.339,1.323-0.624,2.053-0.84
				C548.609,270.975,549.411,270.786,550.319,270.607z"/>
		</g>
		<g>
			<path fill="#9D9D9D" d="M561.511,264.699l1.13,1.595c-0.918,0.196-1.646,0.37-2.178,0.536c-0.531,0.167-0.999,0.36-1.413,0.579
				c-0.486,0.255-0.765,0.519-0.802,0.795c-0.036,0.268,0.116,0.503,0.475,0.715c0.226,0.132,0.478,0.222,0.746,0.26
				c0.143,0.025,0.303,0.037,0.478,0.039c0.156,0.002,0.325-0.004,0.504-0.019c0.396-0.039,1.223-0.167,2.491-0.385
				c1.352-0.233,2.472-0.348,3.358-0.337c0.217,0.003,0.42,0.013,0.608,0.03c0.963,0.09,1.834,0.368,2.606,0.818
				c1.078,0.636,1.526,1.342,1.354,2.127c-0.181,0.783-0.974,1.553-2.406,2.305c-1.305,0.693-2.709,1.169-4.192,1.41l-2.354-1.377
				c1.188-0.228,2.141-0.449,2.861-0.666c0.729-0.215,1.322-0.45,1.8-0.704c0.567-0.296,0.901-0.595,1-0.87
				c0.091-0.293-0.08-0.555-0.493-0.802c-0.234-0.141-0.503-0.222-0.827-0.261c-0.132-0.016-0.272-0.024-0.422-0.026
				c-0.211-0.002-0.441,0.008-0.693,0.03c-0.432,0.038-1.224,0.158-2.393,0.36c-1.107,0.202-1.988,0.305-2.681,0.313
				c-0.118,0.003-0.235,0.004-0.352,0.003c-0.566-0.007-1.117-0.065-1.654-0.166c-0.638-0.137-1.24-0.36-1.807-0.687
				c-1.051-0.619-1.508-1.298-1.381-2.049c0.137-0.742,0.857-1.452,2.153-2.136c0.64-0.339,1.314-0.624,2.043-0.841
				C559.801,265.076,560.61,264.878,561.511,264.699z"/>
		</g>
		<g>
			<path fill="#9D9D9D" d="M515.798,296.639l4.239,2.489l-2.593,1.379l-11.931-7.002l3.916-2.071
				c1.495-0.786,2.936-1.201,4.329-1.244c0.111-0.003,0.223-0.005,0.333-0.003c1.278,0.015,2.48,0.354,3.622,1.027
				c1.285,0.751,1.851,1.545,1.704,2.382c-0.145,0.828-0.974,1.648-2.505,2.46L515.798,296.639z M514.577,294.973
				c0.801-0.423,1.252-0.832,1.342-1.221c0.082-0.388-0.16-0.754-0.753-1.099c-0.577-0.344-1.163-0.508-1.759-0.515
				c-0.016,0-0.032,0.001-0.048,0c-0.62,0.01-1.277,0.209-1.988,0.581l-1.188,0.626l3.54,2.083L514.577,294.973"/>
		</g>
		<g>
			<path fill="#9D9D9D" d="M536.883,290.244l-7.518-1.137l-1.386,0.728l4.581,2.692l-2.603,1.369l-11.93-7.002l3.573-1.885
				c1.676-0.878,3.205-1.361,4.591-1.439c0.166-0.01,0.332-0.013,0.497-0.011c1.207,0.015,2.343,0.335,3.395,0.956
				c0.701,0.415,1.132,0.888,1.275,1.417c0.151,0.528,0.024,1.072-0.399,1.638c4.523,0.6,7.463,0.981,8.812,1.145L536.883,290.244z
				 M528.191,286.992c0.127-0.361-0.099-0.71-0.673-1.046c-0.456-0.27-0.935-0.406-1.438-0.412
				c-0.121-0.001-0.244,0.005-0.369,0.019c-0.638,0.069-1.376,0.329-2.214,0.769l-0.792,0.423l3.216,1.889l0.848-0.447
				C527.587,287.755,528.064,287.354,528.191,286.992"/>
		</g>
		<g>
			<polygon fill="#9D9D9D" points="538.177,276.262 540.252,277.479 535.786,279.839 538.401,281.374 542.56,279.186 
				544.626,280.396 540.477,282.584 543.548,284.394 548.015,282.036 550.107,283.263 543.04,286.999 531.108,279.998 			"/>
		</g>
		<g>
			<path fill="#9D9D9D" d="M639.247,229.454c1.959,1.148,2.884,2.335,2.791,3.554c-0.119,1.226-1.255,2.405-3.425,3.556
				l-3.475,1.833l-11.931-7.001l3.854-2.028c1.999-1.065,4.067-1.585,6.209-1.56c0.017,0,0.034,0.001,0.052,0.001
				C635.434,227.834,637.412,228.377,639.247,229.454z M636.764,235.209c2.503-1.328,2.461-2.754-0.163-4.291
				c-1.38-0.809-2.726-1.221-4.04-1.236c-1.124-0.014-2.224,0.263-3.298,0.827l-1.387,0.736l7.771,4.555L636.764,235.209"/>
		</g>
		<g>
			<path fill="#9D9D9D" d="M618.392,233.939l11.93,6.993l-3.304,1.75l-14.367-2.475l-0.081,0.043
				c1.707,0.868,2.894,1.513,3.576,1.91l5.615,3.294l-2.332,1.233l-11.931-7.001l3.286-1.732l14.269,2.421l0.054-0.025
				c-1.635-0.867-2.767-1.486-3.405-1.865l-5.651-3.311L618.392,233.939z"/>
		</g>
	</g>
</g>
<g id="LABELS">
	<path fill="#FFFFFF" d="M576.533,143.867c0,2.055,1.175,3.308,2.517,3.823c0.876,0.338,2.22,0.505,2.22-1.083
		c0-1.674-1.711-2.607-3.388-3.851c-1.678-1.243-3.369-2.768-3.369-5.659c0-3.151,2.183-3.858,4.232-3.102
		c2.381,0.876,4.58,3.104,4.58,6.703l-2.442-0.915c-0.081-1.899-1.05-2.739-2.249-3.183c-0.796-0.297-1.716-0.184-1.716,1.114
		c0,1.191,0.541,1.546,3.395,3.615c0.832,0.597,3.398,2.286,3.398,5.82c0,2.859-1.653,4.354-4.761,3.15
		c-2.51-0.974-4.847-3.563-4.816-7.347L576.533,143.867z"/>
	<path fill="#FFFFFF" d="M529.141,116.015l5.463,2.012c1.833,0.676,3.002,2.94,3.002,5.166c0,1.732-0.491,2.845-1.629,3.076v0.041
		c1.107,0.829,1.424,2.495,1.498,4.007c0.037,0.943,0.024,2.669,0.429,3.651l-2.256-0.874c-0.273-1.03-0.242-2.438-0.361-3.655
		c-0.154-1.601-0.564-2.435-1.695-2.863l-2.231-0.849v5.706l-2.219-0.858V116.015z M531.359,123.438l2.448,0.922
		c0.995,0.377,1.542-0.035,1.542-1.515c0-1.417-0.547-2.237-1.542-2.609l-2.448-0.91V123.438z"/>
	<path fill="#FFFFFF" d="M497.651,119.658l-1.305-2.305c-0.603,0.291-1.367,0.29-2.231-0.044c-2.821-1.097-4.48-4.933-4.48-8.92
		c0-4.105,1.659-6.689,4.48-5.648c2.854,1.048,4.537,4.902,4.537,9.057c0,2.018-0.429,3.657-1.206,4.689l1.156,2.031
		L497.651,119.658z M495.004,112.173l1.044,1.843c0.336-0.576,0.572-1.54,0.572-2.988c0-2.441-0.689-5.042-2.505-5.716
		c-1.808-0.672-2.479,1.407-2.479,3.833c0,2.308,0.671,4.899,2.479,5.594c0.299,0.113,0.672,0.257,0.814,0.115l-0.863-1.519
		L495.004,112.173z"/>
	<path fill="#FFFFFF" d="M464.553,92.221l3.834,1.413c2.139,0.788,2.972,3.228,2.972,5.418c0,2.189-0.833,4.007-2.972,3.194
		l-1.97-0.751v4.8l-1.864-0.722V92.221z M466.417,99.208l1.454,0.55c0.877,0.329,1.653,0.323,1.653-1.391
		c0-1.713-0.776-2.305-1.653-2.629l-1.454-0.542V99.208z"/>
	<polygon fill="#FFFFFF" points="445.654,85.245 447.406,85.893 450.787,95.923 450.813,95.932 450.813,87.147 452.49,87.766 
		452.49,100.893 450.7,100.198 447.326,90.17 447.308,90.162 447.308,98.885 445.654,98.245 	"/>
	<polygon fill="#FFFFFF" points="421.163,76.297 423.48,77.152 425.239,86.478 425.265,86.486 426.936,78.427 429.298,79.297 
		429.298,91.99 427.726,91.382 427.726,82.407 427.701,82.399 425.843,90.653 424.562,90.157 422.723,80.622 422.697,80.614 
		422.697,89.436 421.163,88.838 	"/>
	<polygon fill="#FFFFFF" points="398.063,67.866 399.598,68.431 399.598,78.326 403.022,79.641 403.022,81.897 398.063,79.976 	"/>
	<polygon fill="#FFFFFF" points="384.518,62.779 385.987,63.322 385.987,68.248 388.616,64.29 390.476,64.975 387.833,68.709 
		390.733,77.044 388.863,76.319 386.833,70.184 385.987,71.378 385.987,75.205 384.518,74.636 	"/>
	<path fill="#FFFFFF" d="M370.407,65.493c0,1.491-0.224,3.842-2.119,3.107c-1.054-0.409-2.076-1.853-2.076-4.369v-1.002l1.254,0.479
		v0.517c0,1.114,0.149,1.98,0.805,2.233c0.737,0.282,0.737-0.803,0.737-1.614v-7.807l1.399,0.514V65.493z"/>
	<polygon fill="#FFFFFF" points="339.147,46.021 340.415,46.489 340.415,50.722 342.761,51.604 342.761,47.354 344.043,47.826 
		344.043,58.928 342.761,58.431 342.761,53.651 340.415,52.763 340.415,57.521 339.147,57.029 	"/>
	<path fill="#FFFFFF" d="M319.52,48.224c-0.413,0.897-0.953,1.091-1.472,0.891c-1.648-0.638-2.615-3.455-2.615-6.505
		c0-3.139,0.967-5.225,2.615-4.615c1.097,0.406,2.134,2.131,2.263,4.595l-1.129-0.423c-0.135-1.228-0.578-2.002-1.134-2.209
		c-1.052-0.393-1.448,1.24-1.448,3.095c0,1.764,0.396,3.696,1.448,4.101c0.767,0.291,1.209-0.357,1.275-1.806l-1.184-0.453v-1.736
		l2.254,0.85v5.758l-0.753-0.29L319.52,48.224z"/>
	<polygon fill="#FFFFFF" points="231.08,39.378 237.739,38.119 237.739,39.892 233.17,40.763 233.17,42.987 237.131,42.226 
		237.131,43.863 233.17,44.632 233.17,48.61 231.08,49.024 	"/>
	<polygon fill="#FFFFFF" points="205.533,44.339 212.943,42.938 212.943,44.75 207.721,45.747 207.721,47.856 212.514,46.935 
		212.514,48.61 207.721,49.541 207.721,51.954 213.052,50.908 213.052,52.721 205.533,54.208 	"/>
	<path fill="#FFFFFF" d="M179.162,49.504l4.485-0.848c2.678-0.507,4.682,0.741,4.682,4.066c0,2.905-1.527,5.367-4.682,5.991
		l-4.485,0.888V49.504z M181.453,57.285l2.036-0.4c1.318-0.258,2.576-1.292,2.576-3.513c0-2.024-0.722-3.18-2.984-2.748l-1.628,0.31
		V57.285z"/>
	<path fill="#FFFFFF" d="M157.801,56.951c-0.153-0.993-1.184-1.574-2.37-1.348c-2.149,0.41-2.959,2.299-2.959,4.107
		c0,1.722,0.81,3.298,2.959,2.876c1.46-0.287,2.279-1.399,2.461-2.787l2.298-0.447c-0.24,2.605-2.102,4.612-4.759,5.138
		c-3.373,0.669-5.367-1.328-5.367-4.314c0-3.072,1.994-5.84,5.367-6.478c2.385-0.45,4.382,0.494,4.669,2.811L157.801,56.951z"/>
	<path fill="#FFFFFF" d="M121.379,60.235l5.388-1.02c2.166-0.41,3.628-0.037,3.628,1.922c0,1.032-0.555,1.86-1.541,2.493
		c1.383,0.101,2.08,0.952,2.08,2.264c0,2.134-1.952,3.434-4.007,3.84l-5.548,1.097V60.235z M123.903,64.037l2.544-0.49
		c0.878-0.169,1.532-0.664,1.532-1.549c0-1.004-0.829-1.053-1.724-0.883l-2.352,0.449V64.037z M123.903,68.525l2.688-0.528
		c0.99-0.193,1.849-0.658,1.849-1.749c0-1.078-0.732-1.364-1.8-1.157l-2.737,0.531V68.525z"/>
	<path fill="#FFFFFF" d="M93.622,65.549l2.706-0.512l4.462,9.931l-2.721,0.538l-0.904-2.228l-4.486,0.879l-0.947,2.602l-2.691,0.533
		L93.622,65.549z M93.37,72.245l3.109-0.605l-1.511-3.677l-0.034,0.007L93.37,72.245"/>
</g>
<polygon id="PS-PS" stroke-width="0" points="278.935,59.425 138.89,89.44 174.206,113.204 184.943,110.508 294.466,184.146 
	294.466,194.128 379.799,251.549 549.808,176.404 "/>
</svg>
