<svg>
<g id="THREE-FURLONG">
	<circle fill="#FFFFFF" cx="404.497" cy="49.783" r="20"/>
	<path stroke-width="0" id="TFL-TFL" fill="#222222" d="M399.5,73.613v1.266c0,1.379-1.119,2.5-2.5,2.5H247c-1.38,0-2.5-1.121-2.5-2.5V57.283
		c0-1.381,1.12-2.5,2.5-2.5h9.664l7.74-15.481c0.424-0.845,1.289-1.381,2.236-1.381c0.944,0,1.813,0.535,2.237,1.383l7.734,15.479
		h104.061c1.09,0,2.057,0.705,2.383,1.745c2.209,6.991,7.705,12.487,14.699,14.699C398.797,71.558,399.5,72.522,399.5,73.613z
		 M402.74,52.856h-1.25v1.25v2.5h1.25v-2.5h3.633v2.5h1.25v-2.5v-1.25h-1.25H402.74z M406.372,42.908h-3.633h-1.25v1.25v2.5h1.25
		v-2.5h3.633v2.5h1.25v-2.5v-1.25H406.372z M417.622,40.46v7.448h2.5v2.5h-2.5v7.447h1.25h1.25v1.25v1.25h-1.25v-1.25h-1.25v1.25
		h-1.25v-1.25h-1.25v1.25h-1.25v-1.25h-1.25v1.25h-1.25v-1.25h-1.25v1.25h-1.25v-1.25h-1.25v1.25h-1.25v-1.25h-1.25v1.25h-1.25
		v-1.25h-1.25v1.25h-1.25v-1.25h-1.25v1.25h-1.25v-1.25h-1.25v1.25h-1.25v-1.25h-1.25v1.25h-1.25v-1.25h-1.25v1.25h-1.25v-1.25
		h-1.25v1.25h-1.25v-1.25v-1.25h1.25h1.25v-7.447h-2.5v-2.5h2.5V40.46h-2.5v-1.25h2.5h1.25h23.75h1.25h2.5v1.25H417.622z
		 M414.605,47.908l-6.196-6.198h-7.819l-6.197,6.198H414.605z M392.622,40.46v5.68l4.431-4.43h-1.931v-1.25H392.622z
		 M392.622,50.408v5.633l5.634-5.633H392.622z M392.622,57.856h0.048l-0.048-0.047V57.856z M413.872,57.856h0.778l-7.446-7.447
		h-5.414l-7.446,7.447h0.778h1.25h1.25h1.25h1.25h1.25h1.25h1.25h1.25h1.25h1.25h1.25h1.25h1.25h1.25H413.872z M416.372,57.856
		v-0.047l-0.047,0.047H416.372z M416.372,50.408h-5.633l5.633,5.633V50.408z M416.372,40.46h-2.5v1.25h-1.931l4.431,4.43V40.46z"/>
	<text fid="TFL-TFL" transform="matrix(1 0 0 1 265.6016 66.51)" fill="#FFFFFF" font-family="'Arial'" font-size="12.5">THREE FURLONG</text>
	<path fill="#222222" d="M258.214,51.684l0.498-40.841h8.955c3.62,17.366,7.707,31.892,11.815,43.94h-2.87l-7.734-15.479
		c-0.425-0.848-1.293-1.383-2.237-1.383c-0.947,0-1.813,0.537-2.236,1.381L258.214,51.684z M257.901,77.378l-0.344,28.221h47.611
		c0,0-7.559-7.87-16.802-28.221H257.901z"/>
</g>
<g id="LENNOX">
	<circle fill="#FFFFFF" cx="364.5" cy="141.903" r="20"/>
	<path stroke-width="0" fill="#999999" d="M277.325,186.359c-0.947,0-1.813-0.535-2.236-1.38l-7.739-15.48H257
		c-1.381,0-2.5-1.12-2.5-2.5v-17.594c0-1.38,1.119-2.5,2.5-2.5h83.671c1.091,0,2.056,0.706,2.385,1.746
		c2.21,6.994,7.705,12.486,14.697,14.701c1.04,0.328,1.744,1.292,1.744,2.383V167c0,1.381-1.117,2.5-2.5,2.5h-69.698l-7.736,15.481
		C279.136,185.823,278.271,186.359,277.325,186.359z M362.741,144.976h-1.25v1.25v2.5h1.25v-2.5h3.634v2.5h1.25v-2.5v-1.25h-1.25
		H362.741z M366.375,135.028h-3.634h-1.25v1.25v2.5h1.25v-2.5h3.634v2.5h1.25v-2.5v-1.25H366.375z M380.125,132.581v-1.25h-2.5
		h-1.25h-23.75h-1.25h-2.5v1.25h2.5v7.447h-2.5v2.5h2.5v7.448h-1.25h-1.25v1.25v1.25h1.25v-1.25h1.25v1.25h1.25v-1.25h1.25v1.25
		h1.25v-1.25h1.25v1.25h1.25v-1.25h1.25v1.25h1.25v-1.25h1.25v1.25h1.25v-1.25h1.25v1.25h1.25v-1.25h1.25v1.25h1.25v-1.25h1.25v1.25
		h1.25v-1.25h1.25v1.25h1.25v-1.25h1.25v1.25h1.25v-1.25h1.25v1.25h1.25v-1.25h1.25v1.25h1.25v-1.25v-1.25h-1.25h-1.25v-7.448h2.5
		v-2.5h-2.5v-7.447H380.125z M354.393,140.028l6.197-6.197h7.819l6.196,6.197H354.393z M355.125,132.581v1.25h1.93l-4.43,4.43v-5.68
		H355.125z M358.258,142.528l-5.632,5.634v-5.634H358.258z M352.625,149.929l0.046,0.047h-0.046V149.929z M372.625,149.976h-1.25
		h-1.25h-1.25h-1.25h-1.25h-1.25h-1.25h-1.25h-1.25h-1.25h-1.25h-1.25h-1.25h-1.25h-0.779l7.447-7.448h5.413l7.446,7.448h-0.777
		H372.625z M376.327,149.976l0.048-0.047v0.047H376.327z M376.375,148.162l-5.634-5.634h5.634V148.162z M376.375,138.261
		l-4.432-4.43h1.932v-1.25h2.5V138.261z"/>
	<text transform="matrix(1 0 0 1 271.0273 158.6311)" fill="#FFFFFF" font-family="'Arial'" font-size="12.5">LENNOX</text>
	<path fill="#222222" d="M366.314,161.812c-0.599,0.055-1.201,0.092-1.813,0.092c-11.047,0-20-8.953-20-20
		c0-4.504,1.507-8.646,4.02-11.988C334.175,113.363,320,112.403,320,112.403h-62.991l-1.329,34.891
		c0.385-0.242,0.836-0.388,1.324-0.388h83.671c1.091,0,2.056,0.706,2.385,1.746c2.21,6.994,7.705,12.486,14.697,14.701
		c1.04,0.328,1.744,1.292,1.744,2.383v1.266c0,1.381-1.117,2.5-2.5,2.5h-69.698l-7.736,15.481c-0.426,0.843-1.292,1.378-2.237,1.378
		c-0.947,0-1.813-0.534-2.236-1.38l-7.739-15.48H257c-0.901,0-1.686-0.482-2.125-1.197l-2.857,74.992h145.164
		C376.24,222.351,377.789,193.29,366.314,161.812z"/>
</g>
<g id="GORDON">
	<circle fill="#FFFFFF" cx="438.996" cy="267.334" r="20"/>
	<path stroke-width="0" fill="#999999" d="M351.824,311.793c-0.947,0-1.813-0.538-2.236-1.382l-7.739-15.481h-10.348
		c-1.381,0-2.5-1.12-2.5-2.5v-17.595c0-1.38,1.119-2.5,2.5-2.5h83.67c1.093,0,2.056,0.707,2.386,1.746
		c2.209,6.993,7.705,12.487,14.697,14.702c1.04,0.327,1.743,1.294,1.743,2.382v1.265c0,1.38-1.117,2.5-2.5,2.5h-69.698
		l-7.736,15.481C353.637,311.257,352.77,311.793,351.824,311.793z M437.24,270.407h-1.25v1.25v2.5h1.25v-2.5h3.633v2.5h1.25v-2.5
		v-1.25h-1.25H437.24z M440.872,260.459h-3.633h-1.25v1.25v2.5h1.25v-2.5h3.633v2.5h1.25v-2.5v-1.25H440.872z M454.622,258.011
		v-1.25h-2.5h-1.25h-23.75h-1.25h-2.5v1.25h2.5v7.448h-2.5v2.5h2.5v7.447h-1.25h-1.25v1.25v1.25h1.25v-1.25h1.25v1.25h1.25v-1.25
		h1.25v1.25h1.25v-1.25h1.25v1.25h1.25v-1.25h1.25v1.25h1.25v-1.25h1.25v1.25h1.25v-1.25h1.25v1.25h1.25v-1.25h1.25v1.25h1.25v-1.25
		h1.25v1.25h1.25v-1.25h1.25v1.25h1.25v-1.25h1.25v1.25h1.25v-1.25h1.25v1.25h1.25v-1.25h1.25v1.25h1.25v-1.25v-1.25h-1.25h-1.25
		v-7.447h2.5v-2.5h-2.5v-7.448H454.622z M428.891,265.459l6.197-6.198h7.819l6.196,6.198H428.891z M429.622,258.011v1.25h1.931
		l-4.431,4.43v-5.68H429.622z M432.754,267.959l-5.632,5.633v-5.633H432.754z M447.122,275.407h-1.25h-1.25h-1.25h-1.25h-1.25h-1.25
		h-1.25h-1.25h-1.25h-1.25h-1.25h-1.25h-1.25h-1.25h-0.778l7.444-7.448h5.416l7.445,7.448h-0.777H447.122z M450.872,273.592
		l-5.633-5.633h5.633V273.592z M450.872,263.691l-4.43-4.43h1.93v-1.25h2.5V263.691z"/>
	<text transform="matrix(1 0 0 1 347.1221 284.0627)" fill="#FFFFFF" font-family="'Arial'" font-size="12.5">GORDON</text>
	<path fill="#222222" d="M473,303.332c-10.895-4.796-20.668-10.584-29.233-16.596c-1.53,0.375-3.123,0.597-4.771,0.597
		c-11.045,0-20-8.954-20-20c0-0.398,0.036-0.787,0.061-1.18c-10.883-10.668-16.723-18.82-16.723-18.82H252.019
		c0,11.31-9.352,109.479-9.352,109.479H397.5c0,0-3.438-15.688,10.563-15.688c14.002,0,11.75,15.563,11.75,15.563h2.688
		c0,0,1.125-10,4.75-10s2.625,10.688,2.625,10.688h30.959v-12.709c0-18.944,48.834-17.173,48.834-0.332c0,8.832,0.021,20,0.021,20
		h10.979c-1.166-14.666,14-18.334,14-18.334l10-12.668C544.666,333.332,517.666,323,473,303.332z M433.997,292.43
		c0,1.38-1.117,2.5-2.5,2.5h-69.698l-7.736,15.481c-0.426,0.846-1.292,1.382-2.237,1.382c-0.947,0-1.813-0.538-2.236-1.382
		l-7.739-15.481h-10.348c-1.381,0-2.5-1.12-2.5-2.5v-17.595c0-1.38,1.119-2.5,2.5-2.5h83.67c1.093,0,2.056,0.707,2.386,1.746
		c2.209,6.993,7.705,12.487,14.697,14.702c1.04,0.327,1.743,1.294,1.743,2.382L433.997,292.43L433.997,292.43z"/>
</g>
<g id="RICHMOND">
	<circle fill="#FFFFFF" cx="478.987" cy="401.551" r="20"/>
	<path stroke-width="0" fill="#999999" d="M381.816,446.008c-0.948,0-1.813-0.537-2.235-1.38l-7.739-15.479h-10.348
		c-1.381,0-2.5-1.121-2.5-2.5v-17.597c0-1.38,1.119-2.5,2.5-2.5h93.673c1.089,0,2.056,0.704,2.38,1.745
		c2.212,6.991,7.704,12.483,14.702,14.698c1.039,0.331,1.742,1.296,1.742,2.384v1.27c0,1.379-1.117,2.5-2.5,2.5h-79.7l-7.736,15.479
		C383.627,445.474,382.764,446.008,381.816,446.008z M477.229,404.623h-1.25v1.25v2.5h1.25v-2.5h3.634v2.5h1.25v-2.5v-1.25h-1.25
		H477.229z M480.862,394.676h-3.634h-1.25v1.25v2.5h1.25v-2.5h3.634v2.5h1.25v-2.5v-1.25H480.862z M494.612,392.229v-1.25h-2.5
		h-1.25h-23.75h-1.25h-2.5v1.25h2.5v7.447h-2.5v2.5h2.5v7.447h-1.25h-1.25v1.25v1.25h1.25v-1.25h1.25v1.25h1.25v-1.25h1.25v1.25
		h1.25v-1.25h1.25v1.25h1.25v-1.25h1.25v1.25h1.25v-1.25h1.25v1.25h1.25v-1.25h1.25v1.25h1.25v-1.25h1.25v1.25h1.25v-1.25h1.25v1.25
		h1.25v-1.25h1.25v1.25h1.25v-1.25h1.25v1.25h1.25v-1.25h1.25v1.25h1.25v-1.25h1.25v1.25h1.25v-1.25v-1.25h-1.25h-1.25v-7.447h2.5
		v-2.5h-2.5v-7.447H494.612z M468.879,399.676l6.196-6.197h7.819l6.197,6.197H468.879z M469.612,392.229v1.25h1.93l-4.43,4.431
		v-5.681H469.612z M472.743,402.176l-5.633,5.635v-5.635H472.743z M467.112,409.576l0.047,0.047h-0.047V409.576z M487.112,409.623
		h-1.25h-1.25h-1.25h-1.25h-1.25h-1.25h-1.25h-1.25h-1.25h-1.25h-1.25h-1.25h-1.25h-1.25h-0.779l7.447-7.447h5.414l7.446,7.447
		h-0.778H487.112z M490.815,409.623l0.047-0.047v0.047H490.815z M490.862,407.811l-5.634-5.635h5.634V407.811z M490.862,397.907
		l-4.431-4.432h1.931v-1.25h2.5V397.907z"/>
	<text transform="matrix(1 0 0 1 373.6387 418.2795)" fill="#FFFFFF" font-family="'Arial'" font-size="12.5">RICHMOND</text>
	<path fill="#222222" d="M506.125,372.625c0,0,0,7.375,0,21.875c0,3.622-2.872,6.229-7.182,7.886
		c-0.44,10.654-9.193,19.165-19.958,19.165c-11.045,0-20-8.955-20-20c0-2.479,0.474-4.845,1.298-7.035
		c-0.104-0.449-0.158-0.912-0.158-1.391c0-11.75,0-21,0-21s-31.5,0-34,0s-3.375-10.511-3.375-10.511h-3.625
		c0,0-0.125,5.511-11.25,5.511s-10.691-5.511-10.691-5.511H242.667C243.833,381.23,235.5,429.5,177,469
		c158,48,337-20.5,339.375-41.75c1.109-9.938-12.5-17.375-12.5-17.375s17.25-4.25,17.25-12s0-25.25,0-25.25H506.125z
		 M473.99,426.649c0,1.379-1.118,2.5-2.5,2.5h-79.7l-7.735,15.479c-0.428,0.844-1.291,1.378-2.238,1.378
		c-0.948,0-1.813-0.537-2.235-1.381l-7.739-15.479h-10.348c-1.381,0-2.5-1.121-2.5-2.5V409.05c0-1.38,1.119-2.5,2.5-2.5h93.673
		c1.089,0,2.056,0.704,2.38,1.745c2.212,6.991,7.704,12.483,14.701,14.698c1.04,0.331,1.743,1.295,1.743,2.384L473.99,426.649
		L473.99,426.649z"/>
</g>
</svg>
