<svg>
<g id="CAR-PARK-5-FESTIVAL">
	<circle fill="#FFFFFF" cx="683.657" cy="407.933" r="20"/>
	<path id="FS5-FS5" stroke-width="0" d="M583.986,452.391c-0.946,0-1.813-0.536-2.233-1.382l-7.739-15.479h-60.349
		c-1.382,0-2.5-1.12-2.5-2.5v-17.595c0-1.379,1.118-2.5,2.5-2.5h146.17c1.091,0,2.06,0.705,2.384,1.746
		c2.213,6.991,7.705,12.481,14.7,14.698c1.039,0.33,1.743,1.293,1.743,2.384v1.269c0,1.381-1.118,2.5-2.5,2.5H593.96l-7.737,15.479
		C585.798,451.854,584.933,452.391,583.986,452.391z M693.891,404.65l-2.053-5.293c-0.384-1.016-1.22-1.875-2.808-1.885h-2.892
		H681.2h-2.938c-1.578,0.01-2.417,0.869-2.809,1.885l-2.053,5.293c-0.813,0.104-2.252,1.063-2.249,2.871v6.738h1.995v2.15
		c-0.004,2.646,3.746,2.615,3.746,0v-2.15h6.756h6.733v2.15c0.009,2.615,3.765,2.646,3.768,0v-2.15h1.999v-6.738
		C696.154,405.712,694.714,404.757,693.891,404.65z M675.091,410.195c-0.958,0.002-1.731-0.799-1.729-1.784
		c-0.007-0.986,0.771-1.788,1.729-1.776c0.956-0.012,1.73,0.79,1.729,1.776C676.823,409.396,676.046,410.197,675.091,410.195z
		 M683.657,404.602h-0.021h-8.098l1.545-4.168c0.188-0.593,0.477-1.012,1.158-1.021h5.394h0.021h5.409
		c0.673,0.015,0.965,0.434,1.158,1.021l1.542,4.168H683.657z M692.225,410.195c-0.964,0.002-1.737-0.799-1.744-1.784
		c0.007-0.986,0.78-1.788,1.744-1.776c0.947-0.012,1.729,0.79,1.729,1.776C693.951,409.396,693.177,410.197,692.225,410.195z"/>
	<text fid="FS5-FS5" transform="matrix(1 0 0 1 520.1016 424.8145)" fill="#FFFFFF" font-family="'Arial'" font-size="12.5">CAR PARK 5</text>
	<path fill="#222222" d="M587.723,448.013l-1.5,3.001c-0.425,0.841-1.29,1.377-2.235,1.377c-0.946,0-1.813-0.534-2.233-1.382
		l-2.393-4.777c-5.256-1.093-8.9-1.767-10.282-1.858c-10.423-0.719-17.971,12.31-33.063,11.007
		c-15.094-1.304-30.188-2.382-30.188-2.382s14.734,6.827,3.232,18.328c0,0,43.128-6.47,44.563,39.173
		c0.133,4.31,41.329,30.55,47.079,40.254c5.75,9.703,9.348,31.985,23.723,32.705c14.375,0.719,77.231,0.127,77.231,0.127V476.67
		C701.655,476.67,628.115,456.82,587.723,448.013z"/>
</g>
<g id="CAR-PARK-3">
	<circle fill="#FFFFFF" cx="171.871" cy="519.37" r="20"/>
	<path id="CP3-CP3" stroke-width="0" d="M166.876,543.201v1.269c0,1.382-1.12,2.5-2.5,2.5l-112.498-0.002c-1.38,0-2.5-1.119-2.5-2.5
		v-17.597c0-1.381,1.12-2.5,2.5-2.5h4.164l7.688-15.383c0.424-0.844,1.289-1.382,2.236-1.382c0.947,0,1.813,0.534,2.241,1.379
		l7.687,15.386h72.152c1.09,0,2.06,0.705,2.384,1.744c2.21,6.998,7.705,12.486,14.699,14.704
		C166.171,541.149,166.876,542.11,166.876,543.201z M184.369,518.961v6.737h-1.999v2.15c-0.003,2.648-3.759,2.616-3.766,0v-2.15
		h-6.736h-6.756v2.15c0.004,2.616-3.75,2.648-3.744,0v-2.15h-1.999v-6.737c-0.003-1.812,1.438-2.771,2.251-2.874l2.052-5.291
		c0.391-1.013,1.225-1.874,2.806-1.885h2.939h4.938h2.892c1.584,0.011,2.422,0.872,2.806,1.885l2.053,5.291
		C182.925,516.192,184.366,517.15,184.369,518.961z M165.032,519.851c0.004-0.987-0.771-1.789-1.729-1.779
		c-0.958-0.011-1.733,0.792-1.729,1.779c-0.006,0.985,0.771,1.785,1.729,1.783C164.26,521.636,165.037,520.836,165.032,519.851z
		 M179.984,516.037l-1.545-4.167c-0.194-0.591-0.482-1.01-1.155-1.024h-5.411h-0.021h-5.396c-0.682,0.018-0.974,0.437-1.155,1.024
		l-1.547,4.167h8.098h0.021H179.984z M182.171,519.851c-0.005-0.987-0.78-1.789-1.73-1.779c-0.966-0.011-1.74,0.792-1.747,1.779
		c0.007,0.985,0.781,1.785,1.747,1.783C181.391,521.636,182.166,520.836,182.171,519.851z"/>
	<text fid="CP3-CP3" transform="matrix(1 0 0 1 64.0215 536.252)" fill="#FFFFFF" font-family="'Arial'" font-size="12.5">CAR PARK 3</text>
	<path fill="#222222" d="M49.378,526.871c0-1.381,1.12-2.5,2.5-2.5h4.164l7.688-15.383c0.424-0.844,1.289-1.382,2.236-1.382
		c0.947,0,1.813,0.534,2.241,1.379l5.575,11.157c58.101-38.484,102.646-82.768,102.646-82.768l-25.289-7.33
		C97.999,487.956,0,537.068,0,537.068v23.09c16.729-6.787,33.373-15.333,49.378-24.738V526.871z"/>
</g>
<g id="Annual-Berthed-Parking">
	<circle fill="#FFFFFF" cx="219.651" cy="387.021" r="20"/>
	<path id="CP2-CP2" stroke-width="0" d="M74.978,431.478c-0.947,0-1.813-0.535-2.236-1.38l-7.739-15.479H4.657
		c-1.381,0-2.5-1.121-2.5-2.5v-17.598c0-1.379,1.119-2.5,2.5-2.5h191.17c1.089,0,2.058,0.703,2.383,1.746
		c2.209,6.993,7.705,12.484,14.7,14.697c1.04,0.332,1.746,1.295,1.746,2.387v1.27c0,1.379-1.121,2.5-2.5,2.5H84.954L77.222,430.1
		C76.791,430.942,75.925,431.478,74.978,431.478z M229.883,383.741l-2.052-5.293c-0.383-1.015-1.221-1.875-2.805-1.884h-2.893
		h-4.937h-2.94c-1.581,0.009-2.416,0.869-2.805,1.884l-2.052,5.293c-0.813,0.104-2.254,1.061-2.251,2.87v6.736h1.999v2.148
		c-0.004,2.65,3.748,2.619,3.746,0v-2.148h6.754h6.735v2.148c0.01,2.619,3.764,2.65,3.767,0v-2.148h1.999v-6.736
		C232.144,384.8,230.703,383.844,229.883,383.741z M211.083,389.285c-0.958,0-1.733-0.799-1.729-1.781
		c-0.004-0.986,0.771-1.792,1.729-1.779c0.956-0.009,1.729,0.793,1.729,1.779C212.816,388.488,212.038,389.287,211.083,389.285z
		 M219.652,383.688h-0.021h-8.098l1.546-4.164c0.186-0.594,0.478-1.017,1.156-1.023h5.395h0.021h5.411
		c0.673,0.01,0.961,0.432,1.154,1.023l1.547,4.164H219.652z M228.219,389.285c-0.966,0-1.739-0.799-1.745-1.781
		c0.006-0.986,0.779-1.792,1.745-1.779c0.95-0.009,1.729,0.793,1.731,1.779C229.944,388.488,229.169,389.287,228.219,389.285z"/>
	<text fid="CP2-CP2" transform="matrix(1 0 0 1 16.8003 403.9023)" fill="#FFFFFF" font-family="'Arial'" font-size="12.5">CAR PARK 2</text>
	<path fill="#222222" d="M0,466.89l43.602,8.625c0,0,36.913-35.878,41.053-40.708l-46.573-9.991L0,466.89z"/>
</g>
<g id="RICHMOND-SEATS">
	<path fill="#111111" d="M329.368,433.844c-3.309,0-6-2.691-6-6v-7.123l-43.445-4.154c-2.804-0.268-5.072-2.494-5.39-5.295
		c-0.318-2.801,1.392-5.479,4.064-6.37l9.914-3.304v-2.146c0-3.02,2.26-5.579,5.256-5.953l3.542-0.443
		c0.232-2.767,0.717-5.734,1.648-8.435c-6.255-0.999-14.345-2.039-19.112-2.566c-1.629-0.171-3.149-1.031-4.147-2.359
		c-1.127-1.499-1.489-3.47-0.968-5.271l9.496-32.82c0.738-2.552,3.108-4.333,5.763-4.333c0.149,0,0.299,0.006,0.451,0.017
		l76.71,6.056c1.637,0.131,3.162,0.935,4.19,2.206c1.03,1.268,1.5,2.93,1.287,4.555l-4.354,33.275l12.903,5.108
		c2.619,1.036,4.178,3.805,3.706,6.584l-5.751,33.78c-0.494,2.895-2.981,4.993-5.915,4.993H329.368z"/>
	<polygon id="RIS-RIS" stroke-width="0" points="315.644,345.295 289.989,343.27 285.524,358.705 310.944,361.537 	"/>
	<path id="RIS-RIP" stroke-width="0" d="M280.494,376.089c0-0.001,21.214,2.808,25.187,3.641l4.699-16.243l-25.42-2.832
		L280.494,376.089z"/>
	<path fill="#FFFFFF" d="M358.92,353.434c0-1.931-1.563-3.492-3.494-3.492c-1.93,0-3.492,1.563-3.492,3.492
		c0,1.933,1.563,3.494,3.492,3.494C357.354,356.93,358.92,355.365,358.92,353.434z M342.063,371.908v10.742
		c0,0.99,0.803,1.791,1.789,1.791c0.99,0,1.789-0.803,1.789-1.791v-8.254h7.117c1.365,0.217,2.676-0.668,2.972-2.033l2.405-11.188
		c0.311-1.413-0.596-2.806-2.011-3.114l-0.427-0.09c-1.412-0.306-2.808,0.596-3.114,2.01l-2.065,9.609h-6.054
		c-1.15,0-2.112,0.813-2.348,1.893c-0.013,0.063-0.024,0.132-0.033,0.197c-0.006,0.047-0.008,0.092-0.014,0.137
		C342.07,371.848,342.063,371.877,342.063,371.908z M346.344,376.447c0,0.699,0.728,1.266,1.617,1.266h9.257
		c0.025,0,0.042-0.004,0.064-0.004c0.043,0,0.084-0.006,0.127-0.01c0.794-0.072,1.409-0.594,1.423-1.234
		c0.089-0.178,0.161-0.363,0.216-0.568l2.767-10.467c0.313-1.195-0.083-2.339-0.888-2.553c-0.806-0.212-1.713,0.586-2.029,1.786
		l-2.765,10.464c-0.005,0.021-0.005,0.037-0.011,0.057h-8.165C347.063,375.182,346.342,375.748,346.344,376.447z M305.366,396.611
		v3.369h-2.112v-9.106h2.962c0.658,0,1.22,0.068,1.685,0.203c0.464,0.136,0.844,0.324,1.137,0.565
		c0.294,0.242,0.507,0.527,0.641,0.856s0.2,0.688,0.2,1.075c0,0.296-0.04,0.575-0.119,0.838c-0.079,0.262-0.197,0.505-0.353,0.728
		c-0.156,0.224-0.348,0.422-0.575,0.597c-0.227,0.176-0.489,0.319-0.784,0.432c0.142,0.071,0.274,0.158,0.396,0.263
		c0.123,0.104,0.23,0.231,0.322,0.381l1.938,3.169h-1.913c-0.354,0-0.608-0.133-0.763-0.4l-1.512-2.644
		c-0.067-0.116-0.145-0.2-0.234-0.25c-0.09-0.05-0.216-0.075-0.378-0.075H305.366z M305.366,395.155h0.85
		c0.288,0,0.532-0.036,0.734-0.109c0.202-0.072,0.368-0.174,0.497-0.303c0.129-0.129,0.223-0.28,0.281-0.453
		c0.058-0.173,0.087-0.359,0.087-0.56c0-0.4-0.13-0.713-0.391-0.938s-0.664-0.338-1.209-0.338h-0.85V395.155z M313.878,399.98
		h-2.125v-9.106h2.125V399.98z M321.685,397.624c0.05,0,0.101,0.01,0.149,0.028c0.051,0.019,0.099,0.051,0.145,0.097l0.838,0.882
		c-0.367,0.479-0.826,0.84-1.379,1.084c-0.552,0.244-1.205,0.365-1.959,0.365c-0.692,0-1.312-0.117-1.859-0.353
		s-1.013-0.561-1.394-0.976c-0.381-0.414-0.674-0.906-0.878-1.475s-0.306-1.187-0.306-1.854c0-0.679,0.117-1.303,0.35-1.871
		c0.233-0.569,0.559-1.06,0.978-1.473c0.418-0.412,0.919-0.732,1.503-0.962s1.227-0.344,1.931-0.344c0.342,0,0.664,0.03,0.966,0.091
		c0.302,0.061,0.584,0.144,0.846,0.25c0.264,0.105,0.505,0.233,0.726,0.381c0.221,0.148,0.417,0.312,0.587,0.49l-0.712,0.957
		c-0.046,0.058-0.101,0.111-0.163,0.159s-0.149,0.071-0.262,0.071c-0.075,0-0.146-0.017-0.213-0.05s-0.137-0.073-0.213-0.122
		c-0.074-0.048-0.156-0.1-0.246-0.156c-0.09-0.056-0.195-0.107-0.318-0.156c-0.123-0.048-0.268-0.088-0.432-0.121
		c-0.165-0.033-0.357-0.051-0.578-0.051c-0.383,0-0.733,0.068-1.05,0.203c-0.316,0.136-0.588,0.33-0.815,0.582
		s-0.404,0.557-0.531,0.915s-0.19,0.761-0.19,1.206c0,0.467,0.063,0.882,0.19,1.244s0.3,0.668,0.519,0.916s0.474,0.437,0.766,0.565
		c0.292,0.129,0.604,0.193,0.938,0.193c0.192,0,0.367-0.009,0.525-0.028c0.158-0.019,0.305-0.051,0.441-0.097
		c0.135-0.046,0.264-0.104,0.387-0.178s0.247-0.164,0.372-0.272c0.05-0.041,0.104-0.075,0.163-0.103
		C321.562,397.638,321.622,397.624,321.685,397.624z M331.729,399.98h-2.125v-3.85h-3.7v3.85h-2.125v-9.106h2.125v3.807h3.7v-3.807
		h2.125V399.98z M338.125,396.312c0.077,0.171,0.15,0.346,0.222,0.525c0.071-0.184,0.146-0.362,0.226-0.535
		c0.078-0.173,0.16-0.341,0.243-0.504l2.337-4.604c0.043-0.079,0.085-0.141,0.129-0.185c0.043-0.044,0.093-0.076,0.146-0.097
		c0.055-0.021,0.115-0.031,0.185-0.031s0.149,0,0.241,0h1.611v9.1h-1.861v-5.237c0-0.254,0.012-0.529,0.037-0.825l-2.412,4.682
		c-0.076,0.146-0.177,0.256-0.304,0.331s-0.272,0.112-0.435,0.112h-0.287c-0.162,0-0.308-0.037-0.435-0.112
		s-0.228-0.186-0.304-0.331l-2.424-4.688c0.016,0.146,0.029,0.29,0.037,0.434c0.008,0.145,0.012,0.276,0.012,0.397v5.237h-1.861
		v-9.1h1.611c0.092,0,0.172,0,0.241,0s0.13,0.01,0.185,0.031c0.055,0.021,0.104,0.053,0.146,0.097
		c0.044,0.044,0.087,0.105,0.129,0.185l2.344,4.623C337.968,395.976,338.048,396.141,338.125,396.312z M353.953,395.424
		c0,0.659-0.113,1.271-0.341,1.838s-0.547,1.06-0.96,1.479c-0.412,0.418-0.908,0.746-1.49,0.984
		c-0.581,0.237-1.227,0.355-1.934,0.355c-0.709,0-1.355-0.118-1.938-0.355c-0.584-0.238-1.083-0.566-1.498-0.984
		c-0.414-0.419-0.734-0.912-0.962-1.479s-0.341-1.179-0.341-1.838c0-0.658,0.113-1.271,0.341-1.837s0.548-1.059,0.962-1.476
		c0.415-0.416,0.914-0.743,1.498-0.98c0.582-0.238,1.229-0.356,1.938-0.356c0.707,0,1.353,0.12,1.934,0.359
		c0.582,0.239,1.078,0.567,1.49,0.984c0.413,0.417,0.732,0.908,0.96,1.475C353.84,394.16,353.953,394.771,353.953,395.424z
		 M351.791,395.424c0-0.449-0.059-0.854-0.176-1.215s-0.284-0.666-0.503-0.916s-0.487-0.441-0.804-0.575
		c-0.316-0.133-0.677-0.2-1.08-0.2c-0.409,0-0.772,0.067-1.092,0.2c-0.318,0.134-0.587,0.325-0.806,0.575s-0.387,0.556-0.503,0.916
		c-0.117,0.36-0.176,0.766-0.176,1.215c0,0.455,0.059,0.862,0.176,1.223c0.116,0.36,0.284,0.665,0.503,0.915s0.487,0.44,0.806,0.572
		c0.319,0.131,0.683,0.196,1.092,0.196c0.403,0,0.764-0.065,1.08-0.196c0.316-0.132,0.585-0.322,0.804-0.572
		s0.386-0.555,0.503-0.915S351.791,395.879,351.791,395.424z M356.309,390.887c0.063,0.009,0.119,0.024,0.17,0.047
		c0.049,0.023,0.098,0.056,0.143,0.097c0.047,0.042,0.098,0.099,0.156,0.169l4.326,5.469c-0.018-0.175-0.029-0.345-0.038-0.51
		c-0.009-0.164-0.013-0.319-0.013-0.465v-4.819h1.863v9.106h-1.101c-0.163,0-0.3-0.025-0.413-0.075
		c-0.111-0.05-0.221-0.142-0.324-0.274l-4.294-5.426c0.013,0.159,0.022,0.314,0.031,0.466c0.009,0.152,0.013,0.295,0.013,0.429
		v4.881h-1.863v-9.106h1.113C356.17,390.874,356.246,390.879,356.309,390.887z M372.678,395.424c0,0.659-0.113,1.266-0.34,1.822
		c-0.228,0.557-0.547,1.037-0.96,1.443s-0.909,0.724-1.491,0.95c-0.58,0.228-1.226,0.341-1.934,0.341h-3.537v-9.106h3.537
		c0.708,0,1.354,0.115,1.934,0.344c0.582,0.229,1.078,0.546,1.491,0.95s0.732,0.885,0.96,1.44
		C372.564,394.165,372.678,394.771,372.678,395.424z M370.516,395.424c0-0.449-0.059-0.855-0.176-1.219
		c-0.116-0.362-0.283-0.669-0.502-0.922c-0.219-0.252-0.486-0.445-0.804-0.581c-0.316-0.135-0.677-0.203-1.081-0.203h-1.412v5.856
		h1.412c0.404,0,0.765-0.067,1.081-0.203c0.317-0.136,0.585-0.329,0.804-0.581s0.386-0.56,0.502-0.922
		C370.457,396.287,370.516,395.879,370.516,395.424z M325.498,407.725c-0.063,0.1-0.129,0.175-0.197,0.225s-0.158,0.075-0.266,0.075
		c-0.096,0-0.199-0.03-0.31-0.091s-0.235-0.128-0.375-0.203s-0.3-0.143-0.478-0.203c-0.18-0.061-0.385-0.091-0.613-0.091
		c-0.396,0-0.69,0.085-0.885,0.253c-0.193,0.169-0.29,0.397-0.29,0.685c0,0.184,0.058,0.336,0.175,0.456
		c0.117,0.121,0.27,0.226,0.459,0.313c0.189,0.088,0.406,0.168,0.65,0.241s0.492,0.154,0.747,0.243
		c0.254,0.09,0.503,0.195,0.747,0.316c0.244,0.12,0.46,0.274,0.65,0.462c0.189,0.188,0.342,0.416,0.459,0.685
		c0.116,0.269,0.175,0.593,0.175,0.972c0,0.421-0.073,0.814-0.219,1.182c-0.146,0.366-0.357,0.687-0.634,0.959
		c-0.277,0.273-0.619,0.487-1.025,0.644s-0.868,0.234-1.385,0.234c-0.283,0-0.572-0.029-0.865-0.087
		c-0.294-0.059-0.578-0.141-0.854-0.247s-0.533-0.232-0.775-0.378s-0.452-0.309-0.631-0.487l0.625-0.988
		c0.046-0.074,0.11-0.135,0.193-0.181c0.084-0.046,0.174-0.069,0.27-0.069c0.125,0,0.25,0.04,0.378,0.119
		c0.127,0.079,0.271,0.167,0.431,0.263s0.346,0.184,0.554,0.263s0.454,0.118,0.737,0.118c0.383,0,0.682-0.084,0.895-0.253
		c0.212-0.169,0.318-0.437,0.318-0.803c0-0.213-0.059-0.386-0.176-0.52c-0.116-0.133-0.27-0.243-0.459-0.331
		c-0.189-0.087-0.405-0.164-0.646-0.231c-0.242-0.066-0.49-0.141-0.744-0.222s-0.502-0.181-0.744-0.3
		c-0.241-0.119-0.457-0.275-0.646-0.469s-0.343-0.436-0.459-0.725c-0.117-0.29-0.175-0.647-0.175-1.072c0-0.342,0.069-0.675,0.206-1
		c0.138-0.325,0.34-0.614,0.606-0.869c0.268-0.254,0.594-0.457,0.982-0.609c0.387-0.151,0.83-0.228,1.33-0.228
		c0.279,0,0.551,0.021,0.816,0.065c0.264,0.044,0.516,0.108,0.753,0.193c0.237,0.086,0.46,0.188,0.665,0.307
		c0.207,0.119,0.391,0.253,0.554,0.403L325.498,407.725z M333.06,405.874v1.625h-3.737v2.125h2.862v1.563h-2.862v2.169h3.737v1.625
		h-5.862v-9.106H333.06z M342.734,414.98h-1.637c-0.184,0-0.335-0.043-0.453-0.128c-0.119-0.086-0.201-0.195-0.247-0.328
		l-0.538-1.588h-3.462l-0.538,1.588c-0.041,0.116-0.123,0.222-0.243,0.315c-0.121,0.094-0.269,0.141-0.444,0.141h-1.649l3.524-9.106
		h2.163L342.734,414.98z M336.885,411.499h2.487l-0.837-2.493c-0.055-0.158-0.118-0.345-0.191-0.56
		c-0.072-0.215-0.145-0.447-0.215-0.697c-0.066,0.255-0.136,0.49-0.207,0.706c-0.07,0.217-0.137,0.404-0.199,0.563L336.885,411.499z
		 M349.084,405.874v1.675h-2.563v7.432h-2.111v-7.432h-2.563v-1.675H349.084z M355.035,407.725c-0.063,0.1-0.129,0.175-0.197,0.225
		s-0.157,0.075-0.266,0.075c-0.096,0-0.199-0.03-0.309-0.091c-0.111-0.061-0.236-0.128-0.375-0.203
		c-0.141-0.075-0.3-0.143-0.479-0.203c-0.18-0.061-0.384-0.091-0.613-0.091c-0.396,0-0.689,0.085-0.884,0.253
		c-0.194,0.169-0.29,0.397-0.29,0.685c0,0.184,0.058,0.336,0.174,0.456c0.117,0.121,0.271,0.226,0.46,0.313
		c0.189,0.088,0.406,0.168,0.649,0.241c0.244,0.073,0.493,0.154,0.748,0.243c0.254,0.09,0.502,0.195,0.746,0.316
		c0.244,0.12,0.461,0.274,0.65,0.462s0.342,0.416,0.459,0.685s0.176,0.593,0.176,0.972c0,0.421-0.074,0.814-0.219,1.182
		c-0.146,0.366-0.357,0.687-0.635,0.959c-0.277,0.273-0.619,0.487-1.025,0.644s-0.867,0.234-1.385,0.234
		c-0.283,0-0.571-0.029-0.865-0.087c-0.293-0.059-0.578-0.141-0.854-0.247c-0.274-0.106-0.533-0.232-0.774-0.378
		s-0.452-0.309-0.632-0.487l0.625-0.988c0.047-0.074,0.111-0.135,0.194-0.181s0.173-0.069,0.269-0.069
		c0.125,0,0.251,0.04,0.379,0.119c0.127,0.079,0.27,0.167,0.431,0.263c0.16,0.096,0.345,0.184,0.554,0.263
		c0.207,0.079,0.453,0.118,0.736,0.118c0.384,0,0.682-0.084,0.895-0.253s0.318-0.437,0.318-0.803c0-0.213-0.059-0.386-0.175-0.52
		c-0.116-0.133-0.271-0.243-0.46-0.331c-0.189-0.087-0.404-0.164-0.646-0.231c-0.242-0.066-0.489-0.141-0.744-0.222
		c-0.254-0.081-0.502-0.181-0.743-0.3s-0.458-0.275-0.647-0.469s-0.342-0.436-0.459-0.725c-0.117-0.29-0.175-0.647-0.175-1.072
		c0-0.342,0.069-0.675,0.206-1c0.138-0.325,0.34-0.614,0.606-0.869c0.267-0.254,0.594-0.457,0.981-0.609
		c0.387-0.151,0.831-0.228,1.331-0.228c0.279,0,0.551,0.021,0.815,0.065s0.516,0.108,0.754,0.193
		c0.236,0.086,0.459,0.188,0.665,0.307s0.391,0.253,0.554,0.403L355.035,407.725z"/>
</g>
</svg>
