<svg>
<g id="AREAS">
	
		<rect id="WSL-DA" x="168.422" y="81.504" stroke-width="0" width="24.737" height="33.483"/>
	
		<rect id="WSL-FF" x="195.472" y="81.504" stroke-width="0" width="59.761" height="33.483"/>
	
		<rect id="WSL-GG" x="257.544" y="81.504" stroke-width="0" width="86.808" height="33.483"/>
	
		<rect id="WSL-I1" x="346.662" y="81.504" stroke-width="0" width="51.295" height="33.483"/>
	<rect id="WSL-I2" x="400.27" y="81.504" stroke-width="0" width="33.203" height="33.483"/>
	<rect id="WSL-JJ" x="435.785" y="81.504" stroke-width="0" width="78.17" height="33.483"/>
	<rect id="WSM-F" x="168.422" y="45.672" stroke-width="0" width="59.865" height="33.52"/>
	<rect id="WSM-G" x="230.6" y="45.672" stroke-width="0" width="60.524" height="33.52"/>
	<rect id="WSM-H" x="293.436" y="45.672" stroke-width="0" width="32.808" height="33.52"/>
	<rect id="WSM-DB" x="328.557" y="45.672" stroke-width="0" width="34.033" height="33.52"/>
	<rect id="WSM-H2" x="364.887" y="45.672" stroke-width="0" width="33.07" height="33.52"/>
	<rect id="WSM-I" x="400.27" y="45.672" stroke-width="0" width="60.26" height="33.52"/>
	<rect id="WSM-J" x="462.842" y="45.672" stroke-width="0" width="51.113" height="33.52"/>
	
		<rect id="WSU-K" x="168.422" y="1.146" stroke-width="0" width="42.213" height="42.214"/>
	
		<rect id="WSU-L" x="212.948" y="1.146" stroke-width="0" width="42.213" height="42.214"/>
	
		<rect id="WSU-M" x="257.473" y="1.146" stroke-width="0" width="42.213" height="42.214"/>
	<polygon id="WSU-N" stroke-width="0" points="301.999,43.36 301.999,1.146 
		335.649,1.146 335.649,7.611 326.244,7.611 326.244,43.36 	"/>
	<polygon id="WSU-Y" fill-rule="evenodd" clip-rule="evenodd" stroke-width="0" points="
		328.572,43.36 328.558,9.923 362.574,9.923 362.574,43.36 	"/>
	<polygon id="WSU-O" stroke-width="0" points="364.887,43.36 364.887,7.611 
		355.479,7.611 355.479,1.146 389.133,1.146 389.133,43.36 	"/>
	
		<rect id="WSU-P" x="391.443" y="1.146" stroke-width="0" width="42.215" height="42.214"/>
	
		<rect id="WSU-Q" x="435.969" y="1.146" stroke-width="0" width="42.213" height="42.214"/>
	
		<rect id="WSU-R" x="480.494" y="1.146" stroke-width="0" width="33.461" height="42.214"/>
	
		<rect id="NSL-D3" x="531.434" y="143.821" stroke-width="0" width="11.385" height="33.598"/>
	<polygon id="NSL-4" fill-rule="evenodd" clip-rule="evenodd" stroke-width="0" points="
		531.434,195.035 531.434,179.73 545.131,179.73 545.131,143.821 600.33,143.821 600.33,195.035 	"/>
	
		<rect id="NSL-5" x="531.434" y="197.347" stroke-width="0" width="68.896" height="51.456"/>
	<polygon id="NSL-6" fill-rule="evenodd" clip-rule="evenodd" stroke-width="0" points="
		545.131,311.426 545.131,275.518 531.434,275.518 531.434,251.115 600.543,251.115 600.543,311.426 	"/>
	
		<rect id="NSL-D4" x="531.434" y="277.828" stroke-width="0" width="11.385" height="33.598"/>
	
		<rect id="NSU-D1" x="612.102" y="143.821" stroke-width="0" width="11.385" height="33.598"/>
	<polygon id="NSU-1" fill-rule="evenodd" clip-rule="evenodd" stroke-width="0" points="
		612.102,195.035 612.102,179.73 625.799,179.73 625.799,143.821 681,143.821 681,195.035 	"/>
	
		<rect id="NSU-2" x="612.102" y="197.347" stroke-width="0" width="68.898" height="51.456"/>
	<polygon id="NSU-3" fill-rule="evenodd" clip-rule="evenodd" stroke-width="0" points="
		625.799,311.426 625.799,275.518 612.102,275.518 612.102,251.115 681,251.115 681,311.426 	"/>
	
		<rect id="NSU-D2" x="612.102" y="277.828" stroke-width="0" width="11.385" height="33.598"/>
	
		<rect id="ESL-U3" x="499.271" y="357.986" stroke-width="0" width="14.914" height="42.443"/>
	
		<rect id="ESL-U2" x="462.582" y="357.986" stroke-width="0" width="34.379" height="42.443"/>
	
		<rect id="ESL-U" x="409.346" y="357.986" stroke-width="0" width="50.926" height="42.443"/>
	
		<rect id="ESL-T2" x="346.893" y="357.986" stroke-width="0" width="60.141" height="42.443"/>
	
		<rect id="ESL-T" x="284.268" y="357.986" stroke-width="0" width="60.312" height="42.443"/>
	
		<rect id="ESL-S" x="168.188" y="357.986" stroke-width="0" width="113.768" height="42.443"/>
	
		<rect id="ESU-A" x="462.582" y="402.742" stroke-width="0" width="51.604" height="42.322"/>
	
		<rect id="ESU-B" x="409.346" y="402.742" stroke-width="0" width="50.926" height="42.322"/>
	<polygon id="ESU-C" stroke-width="0" points="346.893,445.064 346.893,418.078 
		364.604,418.078 364.604,402.742 407.033,402.742 407.033,445.064 	"/>
	<rect id="ESU-D" x="329.181" y="402.742" stroke-width="0" width="33.11" height="13.023"/>
	<polygon id="ESU-E" stroke-width="0" points="284.268,445.064 284.268,402.742 
		326.868,402.742 326.868,418.078 344.58,418.078 344.58,445.064 	"/>
	<rect id="ESU-U1" x="230.7" y="402.742" stroke-width="0" width="51.256" height="42.322"/>
	<rect id="ESU-U2" x="168.188" y="402.742" stroke-width="0" width="60.2" height="42.322"/>
	<rect id="SSL-6" x="81.753" y="268.5" stroke-width="0" width="69.193" height="42.926"/>
	<rect id="SSL-5" x="81.753" y="179.877" stroke-width="0" width="69.193" height="86.459"/>
	
		<rect id="SSL-SD" x="139.563" y="143.821" stroke-width="0" width="11.384" height="33.598"/>
	
		<rect id="SSL-4" x="81.753" y="143.821" stroke-width="0" width="55.497" height="33.598"/>
	<polygon id="SSU-3" fill-rule="evenodd" clip-rule="evenodd" stroke-width="0" points="
		1,311.426 1,277.984 49.945,277.984 49.945,286.781 65.953,286.781 65.953,277.984 70.193,277.984 70.193,311.426 	"/>
	
		<rect id="SSU-P2" x="52.256" y="250.871" stroke-width="0" width="11.385" height="33.598"/>
	<polygon id="SSU-2" stroke-width="0" points="1,275.672 1,179.73 49.945,179.73 
		49.945,195.058 43.394,195.058 43.394,250.871 49.945,250.871 49.945,275.672 	"/>
	<rect id="SSU-X" x="45.706" y="197.371" stroke-width="0" width="24.487" height="51.186"/>
	<rect id="SSU-P1" x="52.256" y="161.46" stroke-width="0" width="11.385" height="33.598"/>
	<polygon id="SSU-1" fill-rule="evenodd" clip-rule="evenodd" stroke-width="0" points="
		65.953,177.418 65.953,159.148 49.945,159.148 49.945,177.418 1,177.418 1,143.821 70.193,143.821 70.193,177.418 	"/>
</g>
<g id="EXTRAS">
	<rect x="337.961" y="1.146" fill="#CCCCCC" stroke-width="0" width="15.207" height="6.465"/>
	<rect x="65.953" y="250.871" fill="#CCCCCC" stroke-width="0" width="4.241" height="24.801"/>
	<rect x="65.953" y="179.73" fill="#CCCCCC" stroke-width="0" width="4.241" height="15.328"/>
	<g>
		<path fill="#222222" d="M295.214,343.662c-1.14,0-2.035,0.365-2.69,1.092c-0.653,0.73-0.981,1.727-0.981,2.992
			c0,1.297,0.31,2.303,0.926,3.02s1.499,1.074,2.646,1.074c0.761,0,1.461-0.098,2.099-0.293v0.561
			c-0.602,0.209-1.35,0.316-2.248,0.316c-1.276,0-2.279-0.412-3.013-1.236c-0.731-0.824-1.098-1.975-1.098-3.451
			c0-0.924,0.175-1.738,0.524-2.441c0.35-0.703,0.853-1.246,1.509-1.629c0.656-0.385,1.42-0.574,2.288-0.574
			c0.886,0,1.679,0.166,2.378,0.496l-0.254,0.57C296.637,343.828,295.941,343.662,295.214,343.662z"/>
		<path fill="#222222" d="M306.867,347.746c0,1.441-0.36,2.582-1.08,3.42s-1.714,1.258-2.98,1.258c-1.263,0-2.253-0.42-2.973-1.258
			c-0.722-0.838-1.081-1.982-1.081-3.43c0-1.445,0.362-2.584,1.089-3.414c0.725-0.828,1.718-1.244,2.977-1.244
			c1.268,0,2.258,0.418,2.975,1.252C306.51,345.164,306.867,346.303,306.867,347.746z M299.441,347.746
			c0,1.303,0.291,2.307,0.87,3.016c0.58,0.711,1.412,1.066,2.495,1.066c1.093,0,1.929-0.354,2.505-1.057
			c0.578-0.705,0.867-1.711,0.867-3.025c0-1.307-0.289-2.309-0.867-3.006c-0.576-0.697-1.407-1.047-2.492-1.047
			c-1.08,0-1.913,0.354-2.5,1.057C299.735,345.453,299.441,346.451,299.441,347.746z"/>
		<path fill="#222222" d="M308.954,343.221h2.49c1.121,0,1.944,0.191,2.471,0.572c0.524,0.379,0.788,0.957,0.788,1.727
			c0,0.525-0.161,0.961-0.48,1.313c-0.32,0.35-0.79,0.574-1.408,0.674v0.037c0.726,0.107,1.259,0.336,1.6,0.686
			c0.343,0.352,0.512,0.838,0.512,1.463c0,0.836-0.275,1.479-0.831,1.932c-0.555,0.451-1.342,0.676-2.36,0.676h-2.78V343.221z
			 M309.587,347.266h1.999c0.853,0,1.473-0.145,1.859-0.428c0.388-0.281,0.582-0.727,0.582-1.332c0-0.604-0.22-1.043-0.656-1.316
			s-1.088-0.41-1.952-0.41h-1.832V347.266z M309.587,347.822v3.918h2.136c1.682,0,2.521-0.682,2.521-2.049
			c0-1.248-0.887-1.869-2.658-1.869H309.587z"/>
		<path fill="#222222" d="M316.927,343.221h2.489c1.121,0,1.946,0.191,2.472,0.572c0.526,0.379,0.787,0.957,0.787,1.727
			c0,0.525-0.159,0.961-0.48,1.313c-0.319,0.35-0.789,0.574-1.405,0.674v0.037c0.724,0.107,1.256,0.336,1.598,0.686
			c0.342,0.352,0.513,0.838,0.513,1.463c0,0.836-0.276,1.479-0.833,1.932c-0.554,0.451-1.34,0.676-2.358,0.676h-2.781V343.221z
			 M317.561,347.266h1.998c0.854,0,1.473-0.145,1.859-0.428c0.388-0.281,0.581-0.727,0.581-1.332c0-0.604-0.219-1.043-0.655-1.316
			s-1.086-0.41-1.952-0.41h-1.831V347.266z M317.561,347.822v3.918h2.136c1.68,0,2.52-0.682,2.52-2.049
			c0-1.248-0.884-1.869-2.657-1.869H317.561z"/>
		<path fill="#222222" d="M332.53,347.746c0,1.441-0.36,2.582-1.081,3.42c-0.72,0.838-1.714,1.258-2.98,1.258
			c-1.262,0-2.255-0.42-2.975-1.258s-1.08-1.982-1.08-3.43c0-1.445,0.363-2.584,1.09-3.414c0.727-0.828,1.719-1.244,2.978-1.244
			c1.267,0,2.258,0.418,2.975,1.252C332.171,345.164,332.53,346.303,332.53,347.746z M325.104,347.746
			c0,1.303,0.288,2.307,0.868,3.016c0.58,0.711,1.411,1.066,2.496,1.066c1.093,0,1.928-0.354,2.506-1.057
			c0.576-0.705,0.864-1.711,0.864-3.025c0-1.307-0.288-2.309-0.864-3.006c-0.578-0.697-1.409-1.047-2.493-1.047
			c-1.081,0-1.914,0.354-2.499,1.057C325.396,345.453,325.104,346.451,325.104,347.746z"/>
		<path fill="#222222" d="M334.616,352.299v-9.078h0.633v8.482h4.328v0.596H334.616z"/>
		<path fill="#222222" d="M348.031,347.674c0,1.521-0.398,2.676-1.197,3.453c-0.799,0.783-1.971,1.172-3.52,1.172h-2.174v-9.078
			h2.453c1.447,0,2.551,0.379,3.305,1.137C347.654,345.115,348.031,346.223,348.031,347.674z M347.342,347.697
			c0-1.299-0.328-2.277-0.988-2.934c-0.66-0.654-1.629-0.984-2.91-0.984h-1.668v7.961h1.502
			C345.988,351.74,347.342,350.395,347.342,347.697z"/>
		<path fill="#222222" d="M358.434,349.959c0,0.758-0.279,1.355-0.836,1.801c-0.559,0.441-1.295,0.664-2.221,0.664
			c-1.107,0-1.957-0.123-2.551-0.365v-0.635c0.654,0.277,1.486,0.416,2.502,0.416c0.746,0,1.336-0.172,1.773-0.512
			c0.436-0.342,0.654-0.789,0.654-1.346c0-0.344-0.072-0.627-0.217-0.854c-0.145-0.225-0.381-0.432-0.709-0.617
			c-0.326-0.186-0.805-0.387-1.439-0.604c-0.928-0.318-1.568-0.662-1.922-1.033c-0.354-0.369-0.529-0.863-0.529-1.48
			c0-0.68,0.266-1.232,0.797-1.66c0.531-0.43,1.217-0.643,2.051-0.643c0.854,0,1.654,0.16,2.404,0.482l-0.23,0.547
			c-0.754-0.313-1.475-0.473-2.16-0.473c-0.67,0-1.205,0.156-1.604,0.467c-0.396,0.311-0.594,0.732-0.594,1.268
			c0,0.336,0.059,0.609,0.182,0.824c0.121,0.217,0.322,0.41,0.6,0.582c0.277,0.17,0.754,0.377,1.426,0.617
			c0.709,0.244,1.24,0.48,1.598,0.711s0.615,0.49,0.779,0.783C358.352,349.191,358.434,349.545,358.434,349.959z"/>
		<path fill="#222222" d="M362.717,352.299h-0.641v-8.48h-2.947v-0.598h6.537v0.598h-2.949V352.299z"/>
		<path fill="#222222" d="M371.385,349.094h-3.688l-1.266,3.205h-0.703l3.65-9.115h0.404l3.578,9.115h-0.717L371.385,349.094z
			 M367.926,348.523h3.248l-1.236-3.271c-0.104-0.256-0.227-0.611-0.373-1.068c-0.111,0.398-0.232,0.758-0.365,1.08L367.926,348.523
			z"/>
		<path fill="#222222" d="M381.244,352.299h-0.639l-5.377-8.059h-0.051c0.051,0.959,0.074,1.684,0.074,2.174v5.885h-0.607v-9.078
			h0.633l5.369,8.049h0.041c-0.041-0.746-0.059-1.453-0.059-2.125v-5.924h0.615V352.299z"/>
		<path fill="#222222" d="M390.707,347.674c0,1.521-0.4,2.676-1.199,3.453c-0.797,0.783-1.973,1.172-3.52,1.172h-2.172v-9.078h2.451
			c1.449,0,2.553,0.379,3.307,1.137C390.33,345.115,390.707,346.223,390.707,347.674z M390.018,347.697
			c0-1.299-0.33-2.277-0.988-2.934c-0.662-0.654-1.631-0.984-2.91-0.984h-1.672v7.961h1.504
			C388.66,351.74,390.018,350.395,390.018,347.697z"/>
	</g>
	<g>
		<path fill="#222222" d="M250.05,129.77h-4.961v-9.078h4.961v0.584h-4.328v3.434h4.085v0.582h-4.085v3.894h4.328V129.77z"/>
		<path fill="#222222" d="M256.476,126.566h-3.688l-1.267,3.204h-0.702l3.651-9.115h0.403l3.577,9.115h-0.714L256.476,126.566z
			 M253.017,125.995h3.248l-1.235-3.272c-0.104-0.257-0.228-0.613-0.373-1.068c-0.112,0.398-0.234,0.756-0.367,1.079
			L253.017,125.995z"/>
		<path fill="#222222" d="M264.746,127.429c0,0.758-0.278,1.358-0.834,1.802c-0.557,0.443-1.297,0.664-2.221,0.664
			c-1.109,0-1.959-0.123-2.552-0.367v-0.634c0.655,0.278,1.488,0.417,2.502,0.417c0.746,0,1.336-0.171,1.773-0.513
			c0.437-0.341,0.655-0.789,0.655-1.344c0-0.344-0.072-0.628-0.217-0.854s-0.381-0.431-0.708-0.618
			c-0.326-0.186-0.807-0.387-1.44-0.602c-0.928-0.319-1.567-0.664-1.922-1.034c-0.354-0.371-0.531-0.864-0.531-1.481
			c0-0.678,0.267-1.232,0.799-1.661c0.532-0.428,1.215-0.643,2.051-0.643c0.853,0,1.654,0.161,2.403,0.484l-0.229,0.546
			c-0.754-0.314-1.474-0.472-2.161-0.472c-0.67,0-1.205,0.156-1.603,0.467c-0.397,0.31-0.595,0.732-0.595,1.267
			c0,0.335,0.061,0.611,0.183,0.825c0.122,0.215,0.322,0.41,0.599,0.582c0.277,0.171,0.753,0.377,1.428,0.618
			c0.708,0.244,1.24,0.481,1.596,0.711c0.356,0.229,0.616,0.49,0.779,0.782C264.665,126.662,264.746,127.015,264.746,127.429z"/>
		<path fill="#222222" d="M269.031,129.77h-0.64v-8.482h-2.95v-0.596h6.539v0.596h-2.949V129.77z"/>
		<path fill="#222222" d="M284.261,125.218c0,1.44-0.36,2.581-1.081,3.418c-0.72,0.839-1.713,1.258-2.98,1.258
			c-1.263,0-2.254-0.419-2.975-1.258c-0.72-0.837-1.08-1.981-1.08-3.429c0-1.446,0.363-2.583,1.089-3.413
			c0.726-0.83,1.72-1.246,2.978-1.246c1.266,0,2.258,0.417,2.974,1.252C283.903,122.636,284.261,123.774,284.261,125.218z
			 M276.835,125.218c0,1.3,0.289,2.305,0.869,3.015c0.58,0.71,1.412,1.064,2.497,1.064c1.093,0,1.928-0.353,2.505-1.055
			c0.578-0.704,0.867-1.711,0.867-3.024c0-1.307-0.289-2.31-0.867-3.008c-0.577-0.697-1.409-1.046-2.493-1.046
			c-1.08,0-1.914,0.353-2.5,1.056C277.128,122.923,276.835,123.923,276.835,125.218z"/>
		<path fill="#222222" d="M286.981,129.77h-0.634v-9.078h4.974v0.584h-4.34v3.849h4.098v0.589h-4.098V129.77z"/>
		<path fill="#222222" d="M300.994,129.77h-4.96v-9.078h4.96v0.584h-4.327v3.434h4.085v0.582h-4.085v3.894h4.327V129.77z"/>
		<path fill="#222222" d="M309.649,129.77h-0.64l-5.377-8.059h-0.049c0.049,0.96,0.073,1.684,0.073,2.172v5.887h-0.606v-9.078h0.632
			l5.37,8.047h0.038c-0.038-0.745-0.057-1.454-0.057-2.124v-5.923h0.615V129.77z"/>
		<path fill="#222222" d="M315.79,125.193h3.348v4.142c-0.879,0.372-1.866,0.559-2.963,0.559c-1.432,0-2.53-0.405-3.294-1.214
			c-0.763-0.809-1.146-1.955-1.146-3.438c0-0.922,0.189-1.741,0.568-2.455c0.379-0.713,0.921-1.265,1.626-1.654
			c0.707-0.389,1.517-0.584,2.432-0.584c0.99,0,1.877,0.183,2.665,0.546l-0.256,0.571c-0.785-0.363-1.603-0.546-2.446-0.546
			c-1.196,0-2.145,0.371-2.848,1.108c-0.701,0.739-1.052,1.736-1.052,2.99c0,1.366,0.334,2.394,0.999,3.083
			c0.668,0.689,1.646,1.034,2.938,1.034c0.836,0,1.546-0.119,2.13-0.354v-3.192h-2.701V125.193z"/>
		<path fill="#222222" d="M321.415,129.77v-9.078h0.634v8.481h4.328v0.597H321.415z"/>
		<path fill="#222222" d="M332.313,126.566h-3.688l-1.268,3.204h-0.7l3.65-9.115h0.403l3.576,9.115h-0.712L332.313,126.566z
			 M328.854,125.995h3.248l-1.237-3.272c-0.104-0.257-0.228-0.613-0.371-1.068c-0.111,0.398-0.233,0.756-0.367,1.079
			L328.854,125.995z"/>
		<path fill="#222222" d="M342.172,129.77h-0.641l-5.376-8.059h-0.049c0.049,0.96,0.074,1.684,0.074,2.172v5.887h-0.607v-9.078
			h0.633l5.371,8.047h0.037c-0.037-0.745-0.057-1.454-0.057-2.124v-5.923h0.615V129.77z"/>
		<path fill="#222222" d="M351.635,125.144c0,1.524-0.398,2.676-1.199,3.455c-0.799,0.781-1.973,1.171-3.52,1.171h-2.174v-9.078
			h2.451c1.451,0,2.553,0.377,3.309,1.137C351.256,122.585,351.635,123.692,351.635,125.144z M350.943,125.168
			c0-1.299-0.328-2.277-0.988-2.933c-0.662-0.656-1.631-0.984-2.91-0.984h-1.67v7.959h1.502
			C349.59,129.211,350.943,127.864,350.943,125.168z"/>
		<path fill="#222222" d="M360.898,121.133c-1.141,0-2.033,0.364-2.688,1.093c-0.656,0.728-0.984,1.725-0.984,2.992
			c0,1.296,0.311,2.302,0.926,3.019c0.617,0.716,1.5,1.074,2.646,1.074c0.762,0,1.461-0.097,2.098-0.293v0.56
			c-0.6,0.21-1.35,0.317-2.246,0.317c-1.275,0-2.281-0.413-3.012-1.236c-0.734-0.824-1.1-1.976-1.1-3.452
			c0-0.923,0.176-1.737,0.523-2.441c0.35-0.703,0.854-1.247,1.51-1.63c0.656-0.382,1.42-0.574,2.287-0.574
			c0.885,0,1.68,0.165,2.379,0.497l-0.254,0.571C362.32,121.298,361.627,121.133,360.898,121.133z"/>
		<path fill="#222222" d="M372.551,125.218c0,1.44-0.359,2.581-1.078,3.418c-0.721,0.839-1.715,1.258-2.98,1.258
			c-1.264,0-2.254-0.419-2.975-1.258c-0.721-0.837-1.08-1.981-1.08-3.429c0-1.446,0.363-2.583,1.09-3.413
			c0.725-0.83,1.717-1.246,2.977-1.246c1.266,0,2.258,0.417,2.975,1.252C372.195,122.636,372.551,123.774,372.551,125.218z
			 M365.125,125.218c0,1.3,0.291,2.305,0.871,3.015c0.578,0.71,1.412,1.064,2.496,1.064c1.094,0,1.928-0.353,2.504-1.055
			c0.578-0.704,0.867-1.711,0.867-3.024c0-1.307-0.289-2.31-0.867-3.008c-0.576-0.697-1.408-1.046-2.492-1.046
			c-1.08,0-1.914,0.353-2.5,1.056C365.418,122.923,365.125,123.923,365.125,125.218z"/>
		<path fill="#222222" d="M373.924,126.591v-0.509h2.947v0.509H373.924z"/>
		<path fill="#222222" d="M386.359,125.218c0,1.44-0.359,2.581-1.078,3.418c-0.721,0.839-1.713,1.258-2.98,1.258
			c-1.262,0-2.254-0.419-2.973-1.258c-0.721-0.837-1.082-1.981-1.082-3.429c0-1.446,0.363-2.583,1.09-3.413
			c0.725-0.83,1.719-1.246,2.977-1.246c1.266,0,2.258,0.417,2.977,1.252C386.002,122.636,386.359,123.774,386.359,125.218z
			 M378.934,125.218c0,1.3,0.293,2.305,0.869,3.015c0.582,0.71,1.414,1.064,2.498,1.064c1.092,0,1.928-0.353,2.504-1.055
			c0.576-0.704,0.867-1.711,0.867-3.024c0-1.307-0.291-2.31-0.867-3.008c-0.576-0.697-1.406-1.046-2.492-1.046
			c-1.08,0-1.912,0.353-2.5,1.056C379.229,122.923,378.934,123.923,378.934,125.218z"/>
		<path fill="#222222" d="M393.91,123.3c0,0.877-0.297,1.549-0.895,2.018c-0.596,0.468-1.439,0.701-2.533,0.701h-1.402v3.751h-0.633
			v-9.078h2.223C392.83,120.692,393.91,121.562,393.91,123.3z M389.08,125.473h1.25c1.02,0,1.76-0.168,2.213-0.506
			c0.457-0.338,0.686-0.885,0.686-1.643c0-0.699-0.215-1.218-0.646-1.556c-0.43-0.337-1.096-0.505-2-0.505h-1.502V125.473z"/>
		<path fill="#222222" d="M404.199,127.429c0,0.758-0.277,1.358-0.836,1.802c-0.555,0.443-1.295,0.664-2.219,0.664
			c-1.109,0-1.961-0.123-2.551-0.367v-0.634c0.654,0.278,1.486,0.417,2.5,0.417c0.746,0,1.338-0.171,1.773-0.513
			c0.438-0.341,0.654-0.789,0.654-1.344c0-0.344-0.07-0.628-0.217-0.854c-0.145-0.226-0.381-0.431-0.709-0.618
			c-0.326-0.186-0.805-0.387-1.441-0.602c-0.924-0.319-1.564-0.664-1.92-1.034c-0.352-0.371-0.531-0.864-0.531-1.481
			c0-0.678,0.266-1.232,0.799-1.661c0.531-0.428,1.215-0.643,2.051-0.643c0.854,0,1.654,0.161,2.404,0.484l-0.23,0.546
			c-0.752-0.314-1.475-0.472-2.162-0.472c-0.668,0-1.205,0.156-1.6,0.467c-0.396,0.31-0.596,0.732-0.596,1.267
			c0,0.335,0.061,0.611,0.184,0.825c0.121,0.215,0.32,0.41,0.598,0.582c0.279,0.171,0.756,0.377,1.428,0.618
			c0.709,0.244,1.242,0.481,1.596,0.711c0.357,0.229,0.615,0.49,0.779,0.782C404.117,126.662,404.199,127.015,404.199,127.429z"/>
		<path fill="#222222" d="M408.482,129.77h-0.639v-8.482h-2.949v-0.596h6.537v0.596h-2.949V129.77z"/>
		<path fill="#222222" d="M417.148,126.566h-3.686l-1.266,3.204h-0.703l3.65-9.115h0.404l3.576,9.115h-0.713L417.148,126.566z
			 M413.693,125.995h3.246l-1.234-3.272c-0.105-0.257-0.229-0.613-0.373-1.068c-0.113,0.398-0.234,0.756-0.367,1.079
			L413.693,125.995z"/>
		<path fill="#222222" d="M427.012,129.77h-0.641l-5.377-8.059h-0.049c0.049,0.96,0.074,1.684,0.074,2.172v5.887h-0.609v-9.078
			h0.635l5.371,8.047h0.035c-0.035-0.745-0.055-1.454-0.055-2.124v-5.923h0.615V129.77z"/>
		<path fill="#222222" d="M436.473,125.144c0,1.524-0.398,2.676-1.197,3.455c-0.799,0.781-1.973,1.171-3.521,1.171h-2.172v-9.078
			h2.451c1.449,0,2.551,0.377,3.309,1.137C436.096,122.585,436.473,123.692,436.473,125.144z M435.783,125.168
			c0-1.299-0.33-2.277-0.988-2.933c-0.662-0.656-1.631-0.984-2.91-0.984h-1.672v7.959h1.504
			C434.43,129.211,435.783,127.864,435.783,125.168z"/>
	</g>
	<g>
		<path fill="#222222" d="M515.887,148.254v-0.639h8.48v-2.949h0.596v6.537h-0.596v-2.949H515.887z"/>
		<path fill="#222222" d="M515.887,159.126v-0.64h4.461v-5.302h-4.461v-0.634h9.076v0.634h-4.029v5.302h4.029v0.64H515.887z"/>
		<path fill="#222222" d="M515.887,166.658v-4.961h9.076v4.961h-0.584v-4.328h-3.434v4.085h-0.584v-4.085h-3.891v4.328H515.887z"/>
		<path fill="#222222" d="M518.227,177.026c-0.76,0-1.357-0.278-1.803-0.835c-0.441-0.557-0.662-1.296-0.662-2.219
			c0-1.109,0.121-1.959,0.365-2.552h0.633c-0.275,0.654-0.414,1.488-0.414,2.502c0,0.745,0.17,1.335,0.514,1.772
			c0.338,0.437,0.787,0.656,1.342,0.656c0.344,0,0.629-0.073,0.854-0.218c0.227-0.145,0.432-0.381,0.619-0.708
			c0.186-0.327,0.385-0.807,0.6-1.44c0.322-0.928,0.664-1.568,1.035-1.921c0.369-0.355,0.865-0.531,1.48-0.531
			c0.68,0,1.232,0.266,1.662,0.797c0.428,0.532,0.643,1.216,0.643,2.053c0,0.853-0.162,1.653-0.484,2.402l-0.547-0.229
			c0.314-0.754,0.473-1.474,0.473-2.161c0-0.67-0.156-1.205-0.467-1.602s-0.732-0.596-1.266-0.596c-0.338,0-0.611,0.061-0.826,0.184
			c-0.215,0.122-0.408,0.322-0.58,0.599s-0.377,0.753-0.619,1.428c-0.242,0.708-0.482,1.24-0.711,1.596s-0.49,0.616-0.781,0.779
			C518.994,176.945,518.641,177.026,518.227,177.026z"/>
		<path fill="#222222" d="M515.887,178.945h9.076v0.634h-9.076V178.945z"/>
		<path fill="#222222" d="M519.84,182.782h-3.953v-0.634h9.076v2.161c0,1.126-0.207,1.958-0.625,2.496
			c-0.416,0.538-1.041,0.807-1.879,0.807c-0.605,0-1.117-0.16-1.539-0.481c-0.418-0.321-0.717-0.808-0.9-1.462l-4.133,2.465v-0.757
			l3.953-2.341V182.782z M520.387,182.782v1.732c0,0.766,0.172,1.36,0.512,1.782c0.344,0.422,0.846,0.633,1.512,0.633
			c0.693,0,1.193-0.207,1.51-0.62c0.314-0.414,0.473-1.089,0.473-2.025v-1.502H520.387z"/>
		<path fill="#222222" d="M524.963,193.008v2.49c0,1.121-0.191,1.945-0.57,2.47c-0.381,0.526-0.957,0.79-1.729,0.79
			c-0.525,0-0.961-0.161-1.311-0.481c-0.35-0.321-0.576-0.79-0.674-1.407h-0.037c-0.107,0.724-0.338,1.257-0.688,1.599
			s-0.836,0.512-1.463,0.512c-0.836,0-1.479-0.277-1.93-0.832c-0.451-0.555-0.676-1.342-0.676-2.359v-2.782H524.963z
			 M520.361,193.642h-3.916v2.136c0,1.68,0.682,2.521,2.047,2.521c1.248,0,1.869-0.885,1.869-2.657V193.642z M520.92,193.642v2
			c0,0.852,0.143,1.473,0.426,1.859c0.283,0.387,0.727,0.581,1.334,0.581c0.602,0,1.043-0.218,1.316-0.655
			c0.271-0.437,0.406-1.087,0.406-1.953v-1.832H520.92z"/>
		<path fill="#222222" d="M520.436,208.612c-1.439,0-2.58-0.361-3.416-1.081c-0.838-0.72-1.258-1.713-1.258-2.98
			c0-1.263,0.42-2.255,1.258-2.974c0.836-0.721,1.98-1.081,3.428-1.081s2.582,0.364,3.414,1.089c0.828,0.727,1.244,1.72,1.244,2.978
			c0,1.267-0.418,2.258-1.25,2.974C523.02,208.254,521.883,208.612,520.436,208.612z M520.436,201.186
			c-1.299,0-2.303,0.289-3.014,0.869c-0.711,0.58-1.064,1.412-1.064,2.496c0,1.093,0.352,1.927,1.057,2.505
			c0.701,0.578,1.711,0.866,3.021,0.866c1.309,0,2.311-0.289,3.01-0.866c0.697-0.578,1.047-1.409,1.047-2.493
			c0-1.08-0.352-1.914-1.057-2.499C522.732,201.478,521.732,201.186,520.436,201.186z"/>
		<path fill="#222222" d="M524.963,210.698v2.49c0,1.122-0.191,1.946-0.57,2.471c-0.381,0.526-0.957,0.789-1.729,0.789
			c-0.525,0-0.961-0.161-1.311-0.481c-0.35-0.32-0.576-0.789-0.674-1.406h-0.037c-0.107,0.725-0.338,1.257-0.688,1.599
			c-0.35,0.341-0.836,0.512-1.463,0.512c-0.836,0-1.479-0.277-1.93-0.833c-0.451-0.554-0.676-1.341-0.676-2.359v-2.782H524.963z
			 M520.361,211.331h-3.916v2.136c0,1.68,0.682,2.521,2.047,2.521c1.248,0,1.869-0.886,1.869-2.658V211.331z M520.92,211.331v1.999
			c0,0.853,0.143,1.473,0.426,1.86c0.283,0.386,0.727,0.58,1.334,0.58c0.602,0,1.043-0.218,1.316-0.654
			c0.271-0.438,0.406-1.088,0.406-1.953v-1.832H520.92z"/>
		<path fill="#222222" d="M524.963,218.67v2.489c0,1.122-0.191,1.946-0.57,2.471c-0.381,0.526-0.957,0.788-1.729,0.788
			c-0.525,0-0.961-0.159-1.311-0.481c-0.35-0.32-0.576-0.788-0.674-1.405h-0.037c-0.107,0.724-0.338,1.257-0.688,1.599
			s-0.836,0.512-1.463,0.512c-0.836,0-1.479-0.277-1.93-0.831c-0.451-0.556-0.676-1.341-0.676-2.36v-2.781H524.963z
			 M520.361,219.304h-3.916v2.135c0,1.68,0.682,2.522,2.047,2.522c1.248,0,1.869-0.887,1.869-2.658V219.304z M520.92,219.304v1.999
			c0,0.854,0.143,1.473,0.426,1.859c0.283,0.388,0.727,0.581,1.334,0.581c0.602,0,1.043-0.219,1.316-0.655
			c0.271-0.438,0.406-1.087,0.406-1.953v-1.831H520.92z"/>
		<path fill="#222222" d="M519.996,228.729l4.967,2.657v0.682l-5.57-3.023h-3.506v-0.652h3.457l5.619-3.035v0.727L519.996,228.729z"
			/>
		<path fill="#222222" d="M519.84,237.291h-3.953v-0.633h9.076v2.16c0,1.125-0.207,1.959-0.625,2.496
			c-0.416,0.537-1.041,0.807-1.879,0.807c-0.605,0-1.117-0.16-1.539-0.48c-0.418-0.322-0.717-0.809-0.9-1.461l-4.133,2.463v-0.756
			l3.953-2.342V237.291z M520.387,237.291v1.732c0,0.766,0.172,1.359,0.512,1.781c0.344,0.424,0.846,0.635,1.512,0.635
			c0.693,0,1.193-0.209,1.51-0.621c0.314-0.414,0.473-1.088,0.473-2.025v-1.502H520.387z"/>
		<path fill="#222222" d="M520.436,251.846c-1.439,0-2.58-0.361-3.416-1.082c-0.838-0.719-1.258-1.713-1.258-2.979
			c0-1.264,0.42-2.254,1.258-2.975c0.836-0.721,1.98-1.08,3.428-1.08s2.582,0.363,3.414,1.09c0.828,0.727,1.244,1.719,1.244,2.977
			c0,1.266-0.418,2.258-1.25,2.973C523.02,251.486,521.883,251.846,520.436,251.846z M520.436,244.42
			c-1.299,0-2.303,0.289-3.014,0.869s-1.064,1.41-1.064,2.496c0,1.092,0.352,1.928,1.057,2.504c0.701,0.578,1.711,0.867,3.021,0.867
			c1.309,0,2.311-0.289,3.01-0.867c0.697-0.576,1.047-1.408,1.047-2.492c0-1.08-0.352-1.914-1.057-2.5
			C522.732,244.713,521.732,244.42,520.436,244.42z"/>
		<path fill="#222222" d="M524.963,253.932v2.49c0,1.121-0.191,1.943-0.57,2.469c-0.381,0.527-0.957,0.789-1.729,0.789
			c-0.525,0-0.961-0.16-1.311-0.48s-0.576-0.789-0.674-1.406h-0.037c-0.107,0.723-0.338,1.258-0.688,1.6
			c-0.35,0.34-0.836,0.512-1.463,0.512c-0.836,0-1.479-0.277-1.93-0.832c-0.451-0.557-0.676-1.342-0.676-2.359v-2.781H524.963z
			 M520.361,254.564h-3.916v2.137c0,1.68,0.682,2.52,2.047,2.52c1.248,0,1.869-0.883,1.869-2.656V254.564z M520.92,254.564v2
			c0,0.854,0.143,1.471,0.426,1.857c0.283,0.389,0.727,0.582,1.334,0.582c0.602,0,1.043-0.219,1.316-0.654
			c0.271-0.438,0.406-1.088,0.406-1.953v-1.832H520.92z"/>
		<path fill="#222222" d="M518.227,266.914c-0.76,0-1.357-0.279-1.803-0.836c-0.441-0.555-0.662-1.295-0.662-2.221
			c0-1.107,0.121-1.959,0.365-2.551h0.633c-0.275,0.654-0.414,1.488-0.414,2.502c0,0.746,0.17,1.338,0.514,1.773
			c0.338,0.438,0.787,0.654,1.342,0.654c0.344,0,0.629-0.07,0.854-0.217c0.227-0.145,0.432-0.381,0.619-0.707
			c0.186-0.328,0.385-0.809,0.6-1.441c0.322-0.926,0.664-1.566,1.035-1.922c0.369-0.354,0.865-0.529,1.48-0.529
			c0.68,0,1.232,0.264,1.662,0.797c0.428,0.531,0.643,1.217,0.643,2.053c0,0.854-0.162,1.652-0.484,2.402l-0.547-0.23
			c0.314-0.752,0.473-1.473,0.473-2.16c0-0.67-0.156-1.203-0.467-1.602c-0.311-0.396-0.732-0.596-1.266-0.596
			c-0.338,0-0.611,0.061-0.826,0.184c-0.215,0.121-0.408,0.322-0.58,0.598c-0.172,0.279-0.377,0.756-0.619,1.43
			c-0.242,0.707-0.482,1.238-0.711,1.594c-0.229,0.357-0.49,0.615-0.781,0.779S518.641,266.914,518.227,266.914z"/>
		<path fill="#222222" d="M520.436,276.465c-1.439,0-2.58-0.361-3.416-1.082c-0.838-0.721-1.258-1.715-1.258-2.982
			c0-1.26,0.42-2.25,1.258-2.971c0.836-0.721,1.98-1.08,3.428-1.08s2.582,0.361,3.414,1.088c0.828,0.727,1.244,1.719,1.244,2.979
			c0,1.268-0.418,2.258-1.25,2.973C523.02,276.105,521.883,276.465,520.436,276.465z M520.436,269.037
			c-1.299,0-2.303,0.289-3.014,0.871c-0.711,0.578-1.064,1.41-1.064,2.492c0,1.094,0.352,1.93,1.057,2.51
			c0.701,0.576,1.711,0.863,3.021,0.863c1.309,0,2.311-0.287,3.01-0.863c0.697-0.58,1.047-1.41,1.047-2.494
			c0-1.082-0.352-1.914-1.057-2.5C522.732,269.33,521.732,269.037,520.436,269.037z"/>
		<path fill="#222222" d="M515.887,285.15v-0.639l8.059-5.379v-0.051c-0.963,0.051-1.684,0.076-2.174,0.076h-5.885v-0.607h9.076
			v0.633l-8.045,5.371v0.037c0.744-0.037,1.451-0.055,2.121-0.055h5.924v0.613H515.887z"/>
		<path fill="#222222" d="M518.227,296.035c-0.76,0-1.357-0.279-1.803-0.836c-0.441-0.557-0.662-1.297-0.662-2.219
			c0-1.111,0.121-1.959,0.365-2.553h0.633c-0.275,0.654-0.414,1.486-0.414,2.502c0,0.746,0.17,1.336,0.514,1.773
			c0.338,0.436,0.787,0.654,1.342,0.654c0.344,0,0.629-0.072,0.854-0.217c0.227-0.145,0.432-0.381,0.619-0.709
			c0.186-0.326,0.385-0.805,0.6-1.439c0.322-0.928,0.664-1.568,1.035-1.922c0.369-0.354,0.865-0.531,1.48-0.531
			c0.68,0,1.232,0.268,1.662,0.799c0.428,0.531,0.643,1.215,0.643,2.051c0,0.854-0.162,1.654-0.484,2.404l-0.547-0.23
			c0.314-0.752,0.473-1.475,0.473-2.16c0-0.67-0.156-1.205-0.467-1.604c-0.311-0.396-0.732-0.596-1.266-0.596
			c-0.338,0-0.611,0.061-0.826,0.184s-0.408,0.322-0.58,0.6c-0.172,0.275-0.377,0.754-0.619,1.428
			c-0.242,0.709-0.482,1.238-0.711,1.596s-0.49,0.617-0.781,0.777C518.994,295.953,518.641,296.035,518.227,296.035z"/>
		<path fill="#222222" d="M515.887,300.318v-0.639h8.48v-2.949h0.596v6.537h-0.596v-2.949H515.887z"/>
		<path fill="#222222" d="M519.088,308.986v-3.689l-3.201-1.266v-0.701l9.113,3.65v0.402l-9.113,3.576v-0.711L519.088,308.986z
			 M519.66,305.527v3.248l3.271-1.236c0.258-0.104,0.613-0.229,1.068-0.373c-0.398-0.111-0.756-0.234-1.08-0.365L519.66,305.527z"/>
		<path fill="#222222" d="M515.887,318.846v-0.641l8.059-5.377v-0.047c-0.963,0.047-1.684,0.072-2.174,0.072h-5.885v-0.609h9.076
			v0.635l-8.045,5.371v0.037c0.744-0.037,1.451-0.057,2.121-0.057h5.924v0.615H515.887z"/>
		<path fill="#222222" d="M520.512,328.309c-1.525,0-2.676-0.398-3.455-1.199c-0.781-0.799-1.17-1.973-1.17-3.52v-2.174h9.076v2.453
			c0,1.447-0.379,2.551-1.137,3.307S521.963,328.309,520.512,328.309z M520.486,327.619c1.301,0,2.277-0.33,2.934-0.99
			s0.982-1.629,0.982-2.91v-1.668h-7.957v1.502C516.445,326.264,517.791,327.619,520.486,327.619z"/>
	</g>
	<g>
		<path fill="#222222" d="M166.418,312.693v0.641h-8.482v2.947h-0.595v-6.537h0.595v2.949H166.418z"/>
		<path fill="#222222" d="M166.418,301.822v0.641h-4.464v5.301h4.464v0.635h-9.077v-0.635h4.029v-5.301h-4.029v-0.641H166.418z"/>
		<path fill="#222222" d="M166.418,294.291v4.959h-9.077v-4.959h0.583v4.326h3.434v-4.086h0.583v4.086h3.894v-4.326H166.418z"/>
		<path fill="#222222" d="M164.077,283.92c0.758,0,1.358,0.279,1.801,0.836c0.443,0.557,0.664,1.297,0.664,2.219
			c0,1.109-0.122,1.961-0.366,2.555h-0.635c0.278-0.654,0.417-1.49,0.417-2.504c0-0.744-0.17-1.336-0.512-1.773
			c-0.341-0.436-0.789-0.654-1.345-0.654c-0.343,0-0.627,0.072-0.854,0.217c-0.226,0.146-0.431,0.383-0.618,0.709
			c-0.186,0.326-0.386,0.807-0.601,1.441c-0.32,0.926-0.664,1.566-1.035,1.922c-0.37,0.352-0.864,0.529-1.481,0.529
			c-0.678,0-1.233-0.266-1.661-0.797c-0.428-0.533-0.643-1.217-0.643-2.053c0-0.854,0.161-1.654,0.484-2.402l0.546,0.229
			c-0.314,0.754-0.472,1.473-0.472,2.16c0,0.672,0.156,1.205,0.467,1.604c0.31,0.396,0.732,0.596,1.266,0.596
			c0.335,0,0.611-0.061,0.825-0.184c0.216-0.121,0.41-0.322,0.582-0.6c0.171-0.275,0.377-0.754,0.617-1.428
			c0.244-0.709,0.481-1.238,0.711-1.596c0.229-0.357,0.49-0.615,0.782-0.779C163.31,284.004,163.664,283.92,164.077,283.92z"/>
		<path fill="#222222" d="M166.418,282.004h-9.077v-0.635h9.077V282.004z"/>
		<path fill="#222222" d="M162.462,278.166h3.956v0.631h-9.077v-2.158c0-1.127,0.207-1.959,0.624-2.496
			c0.415-0.539,1.042-0.807,1.878-0.807c0.607,0,1.121,0.158,1.54,0.48c0.417,0.32,0.718,0.807,0.9,1.461l4.135-2.463v0.756
			l-3.956,2.342V278.166z M161.917,278.166v-1.732c0-0.768-0.17-1.359-0.512-1.783c-0.342-0.422-0.845-0.633-1.511-0.633
			c-0.692,0-1.194,0.207-1.51,0.621c-0.315,0.414-0.471,1.088-0.471,2.023v1.504H161.917z"/>
		<path fill="#222222" d="M163.215,263.568v3.688l3.204,1.268v0.701l-9.115-3.652v-0.402l9.115-3.578v0.715L163.215,263.568z
			 M162.644,267.025v-3.248l-3.272,1.236c-0.257,0.104-0.613,0.227-1.068,0.373c0.397,0.113,0.756,0.234,1.08,0.369L162.644,267.025
			z"/>
		<path fill="#222222" d="M166.418,260.309h-9.077v-0.633h8.48v-4.328h0.597V260.309z"/>
		<path fill="#222222" d="M166.418,253.148v0.635h-9.077v-4.975h0.583v4.34h3.85v-4.098h0.589v4.098H166.418z"/>
		<path fill="#222222" d="M162.462,243.463h3.956v0.635h-9.077v-2.162c0-1.125,0.207-1.957,0.624-2.496
			c0.415-0.537,1.042-0.807,1.878-0.807c0.607,0,1.121,0.16,1.54,0.48c0.417,0.322,0.718,0.809,0.9,1.463l4.135-2.465v0.758
			l-3.956,2.34V243.463z M161.917,243.463v-1.732c0-0.766-0.17-1.357-0.512-1.781c-0.342-0.422-0.845-0.635-1.511-0.635
			c-0.692,0-1.194,0.209-1.51,0.621c-0.315,0.416-0.471,1.09-0.471,2.025v1.502H161.917z"/>
		<path fill="#222222" d="M163.215,232.168v3.689l3.204,1.268v0.699l-9.115-3.65v-0.402l9.115-3.576v0.715L163.215,232.168z
			 M162.644,235.629v-3.248l-3.272,1.236c-0.257,0.102-0.613,0.227-1.068,0.373c0.397,0.109,0.756,0.23,1.08,0.365L162.644,235.629z
			"/>
		<path fill="#222222" d="M166.418,224.917l-8.382,3.384v0.051c0.513-0.035,1.039-0.051,1.577-0.051h6.805v0.607h-9.077v-0.979
			l7.984-3.218v-0.036l-7.984-3.216v-0.956h9.077v0.639h-6.879c-0.48,0-0.977-0.025-1.491-0.075v0.049l8.37,3.397V224.917z"/>
		<path fill="#222222" d="M164.077,212.928c0.758,0,1.358,0.278,1.801,0.834c0.443,0.557,0.664,1.297,0.664,2.22
			c0,1.109-0.122,1.959-0.366,2.552h-0.635c0.278-0.655,0.417-1.487,0.417-2.503c0-0.745-0.17-1.335-0.512-1.772
			c-0.341-0.436-0.789-0.655-1.345-0.655c-0.343,0-0.627,0.072-0.854,0.218c-0.226,0.145-0.431,0.381-0.618,0.708
			c-0.186,0.327-0.386,0.807-0.601,1.44c-0.32,0.928-0.664,1.567-1.035,1.921c-0.37,0.354-0.864,0.531-1.481,0.531
			c-0.678,0-1.233-0.266-1.661-0.798c-0.428-0.532-0.643-1.216-0.643-2.052c0-0.853,0.161-1.653,0.484-2.403l0.546,0.23
			c-0.314,0.753-0.472,1.474-0.472,2.161c0,0.67,0.156,1.205,0.467,1.603c0.31,0.396,0.732,0.595,1.266,0.595
			c0.335,0,0.611-0.061,0.825-0.183c0.216-0.123,0.41-0.322,0.582-0.599c0.171-0.277,0.377-0.753,0.617-1.428
			c0.244-0.708,0.481-1.239,0.711-1.596c0.229-0.356,0.49-0.616,0.782-0.778C163.31,213.01,163.664,212.928,164.077,212.928z"/>
		<path fill="#222222" d="M166.418,206.048v4.961h-9.077v-4.961h0.583v4.328h3.434v-4.085h0.583v4.085h3.894v-4.328H166.418z"/>
		<path fill="#222222" d="M162.308,201.907l-4.966-2.657v-0.684l5.568,3.024h3.509v0.652h-3.459l-5.618,3.036v-0.726
			L162.308,201.907z"/>
		<path fill="#222222" d="M164.077,188.967c0.758,0,1.358,0.278,1.801,0.835c0.443,0.557,0.664,1.297,0.664,2.22
			c0,1.109-0.122,1.96-0.366,2.552h-0.635c0.278-0.654,0.417-1.488,0.417-2.502c0-0.746-0.17-1.337-0.512-1.772
			c-0.341-0.437-0.789-0.656-1.345-0.656c-0.343,0-0.627,0.073-0.854,0.218c-0.226,0.145-0.431,0.381-0.618,0.708
			c-0.186,0.327-0.386,0.808-0.601,1.441c-0.32,0.927-0.664,1.568-1.035,1.921c-0.37,0.354-0.864,0.531-1.481,0.531
			c-0.678,0-1.233-0.265-1.661-0.798c-0.428-0.532-0.643-1.216-0.643-2.052c0-0.853,0.161-1.654,0.484-2.403l0.546,0.229
			c-0.314,0.754-0.472,1.474-0.472,2.161c0,0.671,0.156,1.205,0.467,1.603c0.31,0.397,0.732,0.596,1.266,0.596
			c0.335,0,0.611-0.062,0.825-0.183c0.216-0.123,0.41-0.322,0.582-0.6c0.171-0.277,0.377-0.753,0.617-1.428
			c0.244-0.708,0.481-1.239,0.711-1.596c0.229-0.356,0.49-0.616,0.782-0.779C163.31,189.049,163.664,188.967,164.077,188.967z"/>
		<path fill="#222222" d="M166.418,184.683v0.639h-8.482v2.95h-0.595v-6.539h0.595v2.949H166.418z"/>
		<path fill="#222222" d="M163.215,176.015v3.688l3.204,1.267v0.702l-9.115-3.651v-0.403l9.115-3.577v0.715L163.215,176.015z
			 M162.644,179.473v-3.247l-3.272,1.236c-0.257,0.103-0.613,0.228-1.068,0.373c0.397,0.111,0.756,0.233,1.08,0.366L162.644,179.473
			z"/>
		<path fill="#222222" d="M166.418,166.155v0.639l-8.06,5.378v0.05c0.961-0.05,1.685-0.075,2.173-0.075h5.886v0.607h-9.077v-0.632
			l8.046-5.371v-0.037c-0.745,0.037-1.453,0.054-2.124,0.054h-5.923v-0.614H166.418z"/>
		<path fill="#222222" d="M161.792,156.692c1.524,0,2.675,0.4,3.456,1.199c0.78,0.8,1.17,1.973,1.17,3.521v2.174h-9.077v-2.453
			c0-1.448,0.378-2.551,1.136-3.306C159.234,157.071,160.341,156.692,161.792,156.692z M161.816,157.382
			c-1.298,0-2.276,0.33-2.933,0.99c-0.655,0.66-0.984,1.63-0.984,2.909v1.669h7.96v-1.501
			C165.86,158.738,164.513,157.382,161.816,157.382z"/>
	</g>
</g>
<g id="PITCH">
	<g id="PITCH">
		<g>
			<rect x="172.807" y="135.456" fill="#0D9348" width="336.764" height="202.062"/>
			<rect x="172.807" y="135.456" fill="#0C6B38" width="30.614" height="202.062"/>
			<rect x="234.036" y="135.456" fill="#0C6B38" width="30.614" height="202.062"/>
			<rect x="295.266" y="135.456" fill="#0C6B38" width="30.616" height="202.062"/>
			<rect x="356.496" y="135.456" fill="#0C6B38" width="30.615" height="202.062"/>
			<rect x="417.729" y="135.456" fill="#0C6B38" width="30.613" height="202.062"/>
			<rect x="478.956" y="135.456" fill="#0C6B38" width="30.617" height="202.062"/>
			<rect x="186.277" y="148.926" fill="none" stroke="#FFFFFF" width="309.822" height="175.12"/>
			<rect x="341.188" y="148.926" fill="none" stroke="#FFFFFF" width="0" height="175.12"/>
			<circle fill="none" stroke="#FFFFFF" cx="341.188" cy="236.485" r="40.412"/>
			<rect x="186.277" y="196.074" fill="none" stroke="#FFFFFF" width="40.411" height="80.823"/>
			<rect x="186.277" y="209.544" fill="none" stroke="#FFFFFF" width="20.205" height="53.884"/>
			<path fill="none" stroke="#FFFFFF" d="M246.895,236.486c0-12.549-8.594-23.063-20.206-26.058v52.115
				C238.301,259.547,246.895,249.037,246.895,236.486z"/>
			<rect x="455.69" y="196.074" fill="none" stroke="#FFFFFF" width="40.409" height="80.823"/>
			<rect x="475.895" y="209.544" fill="none" stroke="#FFFFFF" width="20.204" height="53.884"/>
			<path fill="none" stroke="#FFFFFF" d="M435.481,236.486c0-12.549,8.598-23.063,20.209-26.058v52.115
				C444.079,259.547,435.481,249.037,435.481,236.486z"/>
		</g>
	</g>
</g>
<g id="LABELS">
	<text fid="WSL-DA" transform="matrix(1 0 0 1 173.5713 101.021)" fill="#FFFFFF" font-family="'Arial'" font-size="10.404">DA</text>
	<text fid="WSL-FF" transform="matrix(1 0 0 1 218.9956 101.021)" fill="#FFFFFF" font-family="'Arial'" font-size="10.404">FF</text>
	<text fid="WSL-GG" transform="matrix(1 0 0 1 292.8535 101.021)" fill="#FFFFFF" font-family="'Arial'" font-size="10.404">GG</text>
	<text fid="WSL-I1" transform="matrix(1 0 0 1 367.9727 101.021)" fill="#FFFFFF" font-family="'Arial'" font-size="10.404">I1</text>
	<text fid="WSL-I2" transform="matrix(1 0 0 1 412.5313 101.021)" fill="#FFFFFF" font-family="'Arial'" font-size="10.404">I2</text>
	<text fid="WSL-JJ" transform="matrix(1 0 0 1 469.668 101.021)" fill="#FFFFFF" font-family="'Arial'" font-size="10.404">JJ</text>
	<text fid="WSM-F" transform="matrix(1 0 0 1 195.1758 65.2061)" fill="#FFFFFF" font-family="'Arial'" font-size="10.404">F</text>
	<text fid="WSM-G" transform="matrix(1 0 0 1 256.8149 65.2061)" fill="#FFFFFF" font-family="'Arial'" font-size="10.404">G</text>
	<text fid="WSM-H" transform="matrix(1 0 0 1 306.082 65.2061)" fill="#FFFFFF" font-family="'Arial'" font-size="10.404">H</text>
	<text fid="WSM-DB" transform="matrix(1 0 0 1 338.3457 65.2061)" fill="#FFFFFF" font-family="'Arial'" font-size="10.404">DB</text>
	<text fid="WSM-H2" transform="matrix(1 0 0 1 374.7725 65.2061)" fill="#FFFFFF" font-family="'Arial'" font-size="10.404">H2</text>
	<text fid="WSM-I" transform="matrix(1 0 0 1 428.9521 65.2061)" fill="#FFFFFF" font-family="'Arial'" font-size="10.404">I</text>
	<text fid="WSM-J" transform="matrix(1 0 0 1 485.7979 65.2061)" fill="#FFFFFF" font-family="'Arial'" font-size="10.404">J</text>
	<text fid="WSU-K" transform="matrix(1 0 0 1 186.0586 25.0278)" fill="#FFFFFF" font-family="'Arial'" font-size="10.404">K</text>
	<text fid="WSU-L" transform="matrix(1 0 0 1 231.1567 25.0278)" fill="#FFFFFF" font-family="'Arial'" font-size="10.404">L</text>
	<text fid="WSU-M" transform="matrix(1 0 0 1 274.2456 25.0278)" fill="#FFFFFF" font-family="'Arial'" font-size="10.404">M</text>
	<text fid="WSU-N" transform="matrix(1 0 0 1 310.3633 25.0278)" fill="#FFFFFF" font-family="'Arial'" font-size="10.404">N</text>
	<text fid="WSU-Y" transform="matrix(1 0 0 1 342.0381 25.0278)" fill="#FFFFFF" font-family="'Arial'" font-size="10.404">Y</text>
	<text fid="WSU-O" transform="matrix(1 0 0 1 372.9609 25.0278)" fill="#FFFFFF" font-family="'Arial'" font-size="10.404">O</text>
	<text fid="WSU-P" transform="matrix(1 0 0 1 409.0801 25.0278)" fill="#FFFFFF" font-family="'Arial'" font-size="10.404">P</text>
	<text fid="WSU-Q" transform="matrix(1 0 0 1 453.0283 25.0278)" fill="#FFFFFF" font-family="'Arial'" font-size="10.404">Q</text>
	<text fid="WSU-R" transform="matrix(1 0 0 1 493.4668 25.0278)" fill="#FFFFFF" font-family="'Arial'" font-size="10.404">R</text>
	<text fid="NSL-D3" transform="matrix(0 1 -1 0 537.6611 153.9688)" fill="#FFFFFF" font-family="'Arial'" font-size="10.404">D3</text>
	<text fid="NSL-4" transform="matrix(1 0 0 1 562.9883 172.2012)" fill="#FFFFFF" font-family="'Arial'" font-size="10.404">4</text>
	<text fid="NSL-5" transform="matrix(1 0 0 1 562.9883 225.8496)" fill="#FFFFFF" font-family="'Arial'" font-size="10.404">5</text>
	<text fid="NSL-6" transform="matrix(1 0 0 1 563.0947 284.043)" fill="#FFFFFF" font-family="'Arial'" font-size="10.404">6</text>
	<text fid="NSL-D4" transform="matrix(0 1 -1 0 537.6611 287.9785)" fill="#FFFFFF" font-family="'Arial'" font-size="10.404">D4</text>
	<text fid="NSU-D1" transform="matrix(0 1 -1 0 618.3301 153.9688)" fill="#FFFFFF" font-family="'Arial'" font-size="10.404">D1</text>
	<text fid="NSU-1" transform="matrix(1 0 0 1 643.6563 172.2012)" fill="#FFFFFF" font-family="'Arial'" font-size="10.404">1</text>
	<text fid="NSU-2" transform="matrix(1 0 0 1 643.6563 225.8477)" fill="#FFFFFF" font-family="'Arial'" font-size="10.404">2</text>
	<text fid="NSU-3" transform="matrix(1 0 0 1 643.6563 284.0449)" fill="#FFFFFF" font-family="'Arial'" font-size="10.404">3</text>
	<text fid="NSU-D2" transform="matrix(0 1 -1 0 618.3301 287.9785)" fill="#FFFFFF" font-family="'Arial'" font-size="10.404">D2</text>
	<text fid="ESL-U3" transform="matrix(0 -1 1 0 506.5039 385.8555)" fill="#FFFFFF" font-family="'Arial'" font-size="10.404">U3</text>
	<text fid="ESL-U2" transform="matrix(1 0 0 1 473.1201 381.748)" fill="#FFFFFF" font-family="'Arial'" font-size="10.404">U2</text>
	<text fid="ESL-U" transform="matrix(1 0 0 1 429.7158 381.748)" fill="#FFFFFF" font-family="'Arial'" font-size="10.404">U</text>
	<text fid="ESL-T2" transform="matrix(1 0 0 1 370.8926 381.748)" fill="#FFFFFF" font-family="'Arial'" font-size="10.404">T2</text>
	<text fid="ESL-T" transform="matrix(1 0 0 1 315.6445 381.748)" fill="#FFFFFF" font-family="'Arial'" font-size="10.404">T</text>
	<text fid="ESL-S" transform="matrix(1 0 0 1 227.229 381.748)" fill="#FFFFFF" font-family="'Arial'" font-size="10.404">S</text>
	<text fid="ESU-A" transform="matrix(1 0 0 1 484.625 426.6777)" fill="#FFFFFF" font-family="'Arial'" font-size="10.404">A</text>
	<text fid="ESU-B" transform="matrix(1 0 0 1 431.3379 426.6777)" fill="#FFFFFF" font-family="'Arial'" font-size="10.404">B</text>
	<text fid="ESU-C" transform="matrix(1 0 0 1 373.2061 426.6777)" fill="#FFFFFF" font-family="'Arial'" font-size="10.404">C</text>
	<text fid="ESU-D" transform="matrix(1 0 0 1 341.9775 408.0273)" fill="#FFFFFF" font-family="'Arial'" font-size="10.404">D</text>
	<text fid="ESU-E" transform="matrix(1 0 0 1 310.9531 426.6777)" fill="#FFFFFF" font-family="'Arial'" font-size="10.404">E</text>
	<text fid="ESU-U1" transform="matrix(1 0 0 1 249.6772 426.6777)" fill="#FFFFFF" font-family="'Arial'" font-size="10.404">U1</text>
	<text fid="ESU-U2" transform="matrix(1 0 0 1 191.6367 426.6777)" fill="#FFFFFF" font-family="'Arial'" font-size="10.404">U2</text>
	<text fid="SSL-6" transform="matrix(1 0 0 1 113.4565 292.7363)" fill="#FFFFFF" font-family="'Arial'" font-size="10.404">6</text>
	<text fid="SSL-5" transform="matrix(1 0 0 1 113.4565 225.7344)" fill="#FFFFFF" font-family="'Arial'" font-size="10.404">5</text>
	<text fid="SSL-SD" transform="matrix(0 -1 1 0 144.8721 167.8457)" fill="#FFFFFF" font-family="'Arial'" font-size="10.404">SD</text>
	<text fid="SSL-4" transform="matrix(1 0 0 1 106.6079 163.3936)" fill="#FFFFFF" font-family="'Arial'" font-size="10.404">4</text>
	<text fid="SSU-3" transform="matrix(1 0 0 1 32.7036 297.4785)" fill="#FFFFFF" font-family="'Arial'" font-size="10.404">3</text>
	<text fid="SSU-P2" transform="matrix(0 -1 1 0 57.5674 274.0313)" fill="#FFFFFF" font-family="'Arial'" font-size="10.404">P2</text>
	<text fid="SSU-2" transform="matrix(1 0 0 1 22.5791 230.4746)" fill="#FFFFFF" font-family="'Arial'" font-size="10.404">2</text>
	<text fid="SSU-X" transform="matrix(1 0 0 1 54.4785 225.7383)" fill="#FFFFFF" font-family="'Arial'" font-size="10.404">X</text>
	<text fid="SSU-P1" transform="matrix(0 -1 1 0 57.5674 184.6211)" fill="#FFFFFF" font-family="'Arial'" font-size="10.404">P1</text>
	<text fid="SSU-1" transform="matrix(1 0 0 1 32.7026 163.3936)" fill="#FFFFFF" font-family="'Arial'" font-size="10.404">1</text>
</g>
</svg>
