<svg>
  <g id="PITCH">
    <rect x="160.961" y="181.582" fill="#74BE45" width="315.777" height="207.586"/>
    <rect x="174.354" y="186.745" fill="#149B49" width="13.398" height="202.423"/>
    <rect x="201.127" y="186.745" fill="#149B49" width="13.401" height="202.423"/>
    <rect x="227.907" y="186.745" fill="#149B49" width="13.396" height="202.423"/>
    <rect x="254.683" y="186.745" fill="#149B49" width="13.394" height="202.423"/>
    <rect x="281.459" y="186.745" fill="#149B49" width="13.391" height="202.423"/>
    <rect x="308.236" y="186.745" fill="#149B49" width="13.388" height="202.423"/>
    <rect x="335.016" y="186.745" fill="#149B49" width="13.389" height="202.423"/>
    <rect x="361.781" y="186.745" fill="#149B49" width="13.398" height="202.423"/>
    <rect x="388.559" y="186.745" fill="#149B49" width="13.396" height="202.423"/>
    <rect x="415.333" y="186.745" fill="#149B49" width="13.401" height="202.423"/>
    <rect x="442.111" y="186.745" fill="#149B49" width="13.408" height="202.423"/>
    <rect x="440.774" y="186.745" fill="#FFFFFF" width="0.749" height="202.423"/>
    <rect x="188.325" y="186.745" fill="#FFFFFF" width="0.75" height="202.423"/>
    <polygon fill="#FFFFFF" points="188.528,278.523 151,267.636 151.343,265.832 188.872,276.719 	"/>
    <polygon fill="#FFFFFF" points="151.343,310.083 151,308.279 188.528,297.392 188.872,299.191 	"/>
    <rect x="170.594" y="272.694" fill="#FFFFFF" width="1.499" height="30.544"/>
    <polygon fill="#FFFFFF" points="441.325,278.523 440.979,276.719 478.503,265.832 478.848,267.636 	"/>
    <polygon fill="#FFFFFF" points="478.503,310.083 440.979,299.191 441.325,297.392 478.848,308.279 	"/>
    <rect x="457.753" y="272.694" fill="#FFFFFF" width="1.503" height="30.544"/>
    <rect x="314.546" y="197.928" fill="#FFFFFF" width="0.751" height="178.876"/>
    <rect x="349.538" y="197.928" fill="#FFFFFF" width="0.743" height="178.876"/>
    <rect x="394.294" y="197.928" fill="#FFFFFF" width="0.749" height="178.876"/>
    <rect x="279.563" y="197.928" fill="#FFFFFF" width="0.75" height="178.876"/>
    <rect x="234.806" y="197.928" fill="#FFFFFF" width="0.749" height="178.876"/>
  </g>
  <g id="AREAS">
    <rect id="CT1-CT3" x="485.134" y="366.661" stroke-width="0" width="11.467" height="22.359"/>
    <rect id="CT1-CT2" x="485.134" y="307.036" stroke-width="0" width="11.467" height="33.253"/>
    <rect id="CT1-CT1" x="485.134" y="227.918" stroke-width="0" width="11.467" height="33.252"/>
    <polygon id="ESL-CT" stroke-width="0" points="498.893,389.021 498.893,364.368 485.134,364.368 485.134,342.582 498.893,342.582 
      498.893,304.743 485.134,304.743 485.134,263.464 498.893,263.464 498.893,225.625 485.134,225.625 485.134,184.919 
      557.554,184.919 557.554,389.021 	"/>
    <rect id="ESU-N" x="574.754" y="342.826" stroke-width="0" width="67.651" height="21.542"/>
    <rect id="CT1-CS5" x="563.288" y="342.826" stroke-width="0" width="9.172" height="21.542"/>
    <rect id="ESU-M" x="563.288" y="306.577" stroke-width="0" width="79.117" height="33.956"/>
    <rect id="ESU-L" x="563.288" y="261.39" stroke-width="0" width="79.117" height="42.893"/>
    <rect id="ESU-K" x="563.288" y="214.217" stroke-width="0" width="79.117" height="44.88"/>
    <rect id="ESU-J" x="574.754" y="184.919" stroke-width="0" width="67.651" height="27.004"/>
    <rect id="CT1-CS4" x="563.288" y="184.919" stroke-width="0" width="9.172" height="27.004"/>
    <rect id="WS-WT" x="36.98" y="181.582" stroke-width="0" width="112.371" height="207.675"/>
    <rect id="SSU-E" x="247.04" y="450.424" stroke-width="0" width="33.419" height="53.318"/>
    <rect id="SSU-C" x="343.879" y="450.424" stroke-width="0" width="33.419" height="53.318"/>
    <polygon id="SSU-D" stroke-width="0" points="331.144,450.424 331.144,481.879 293.194,481.879 293.194,450.424 282.459,450.424 
      282.459,503.742 341.879,503.742 341.879,450.424 	"/>
    <rect id="SSW-SS3" x="295.194" y="450.424" stroke-width="0" width="33.949" height="8.818"/>
    <polygon fill="#CCCCCC" points="295.194,461.242 295.194,470.061 295.194,479.879 329.144,479.879 329.144,470.061 
      329.144,461.242 	"/>
    <rect id="SSW-ST2" x="368.432" y="391.371" stroke-width="0" width="41.733" height="10.818"/>
    <rect id="SSW-ST1" x="216.173" y="391.371" stroke-width="0" width="41.733" height="10.818"/>
    <polygon id="SS-SS" stroke-width="0" points="412.165,391.371 412.165,404.189 366.432,404.189 366.432,391.371 356.334,391.371 
      356.334,409.007 338.698,409.007 338.698,391.371 283.146,391.371 283.146,409.007 265.511,409.007 265.511,391.371 
      259.907,391.371 259.907,404.189 214.173,404.189 214.173,391.371 160.555,391.371 160.555,444.689 187.896,444.689 
      187.896,427.053 196.714,427.053 196.714,444.689 232.485,444.689 232.485,427.053 241.303,427.053 241.303,444.689 
      398.346,444.689 398.346,427.053 407.164,427.053 407.164,444.689 460.686,444.689 476.738,412.3 476.738,391.371 	"/>
    <rect id="NSW-NS3" x="229.857" y="121.73" stroke-width="0" width="24.866" height="9.058"/>
    <rect id="NSW-NS4" x="365.066" y="121.73" stroke-width="0" width="24.865" height="9.058"/>
    <rect id="NSW-NS2" x="404.811" y="111.642" stroke-width="0" width="24.865" height="9.058"/>
    <rect id="NSW-NS1" x="192.443" y="111.642" stroke-width="0" width="24.865" height="9.058"/>
    <rect id="SSU-B" x="379.587" y="450.424" stroke-width="0" width="44.079" height="53.318"/>
    <polygon id="SSU-A" stroke-width="0" points="458.132,450.424 425.666,450.424 425.666,503.742 431.707,503.742 	"/>
    <rect id="SSU-H" x="160.555" y="450.424" stroke-width="0" width="15.897" height="53.318"/>
    <rect id="SSU-G" x="178.452" y="450.424" stroke-width="0" width="31.794" height="53.318"/>
    <rect id="SSU-F" x="212.246" y="450.424" stroke-width="0" width="32.794" height="53.318"/>
    <polygon id="NS-C" stroke-width="0" points="256.724,121.73 256.724,132.788 227.857,132.788 227.857,121.73 222.415,121.73 
      222.415,178.415 262.166,178.415 262.166,121.73 	"/>
    <rect id="NS-A" x="160.555" y="121.73" stroke-width="0" width="26.782" height="56.685"/>
    <rect id="NS-B" x="189.337" y="121.73" stroke-width="0" width="31.078" height="56.685"/>
    <polygon id="NS-H" stroke-width="0" points="476.738,167.084 459.088,149.433 459.088,121.73 436.09,121.73 436.09,178.415 
      476.738,178.415 	"/>
    <rect id="NS-G" x="400.82" y="121.73" stroke-width="0" width="32.846" height="56.685"/>
    <polygon id="NS-F" stroke-width="0" points="391.932,121.73 391.932,132.788 363.066,132.788 363.066,121.73 356.178,121.73 
      356.178,178.415 398.82,178.415 398.82,121.73 	"/>
    <rect x="292.684" y="144.626" fill="#CCCCCC" width="41.167" height="15.037"/>
    <polygon id="NS-D" stroke-width="0" points="312.267,165.663 312.267,161.663 290.684,161.663 290.684,142.626 312.267,142.626 
      312.267,121.73 264.166,121.73 264.166,178.415 307.858,178.415 307.858,165.663 	"/>
    <polygon id="NS-E" stroke-width="0" points="354.178,121.73 314.267,121.73 314.267,142.626 335.85,142.626 335.85,161.663 
      314.267,161.663 314.267,165.663 318.676,165.663 318.676,178.415 354.178,178.415 	"/>
  </g>
  <g id="EXTRAS">
    <rect x="24.291" y="304.743" fill="#333333" width="10.396" height="44.121"/>
    <rect x="551.286" y="46.544" transform="matrix(0.7071 0.7071 -0.7071 0.7071 240.6188 -403.4665)" fill="#CCCCCC" width="112.11" height="84.357"/>
    <g>
      <path fill="#333333" d="M18.558,382.095v0.805H7.886v3.711h-0.75v-8.227h0.75v3.711H18.558z"/>
      <path fill="#333333" d="M7.136,369.938v-0.867l11.422,4.273v0.703l-11.422,4.258v-0.852l7.773-2.875
        c1.172-0.438,2.052-0.731,2.641-0.883c-0.391-0.104-0.997-0.31-1.82-0.617L7.136,369.938z"/>
    </g>
    <g>
      <path fill="#333333" d="M15.612,340.942c0.953,0,1.708,0.351,2.266,1.051c0.558,0.7,0.836,1.632,0.836,2.793
        c0,1.396-0.154,2.466-0.461,3.211h-0.797c0.349-0.823,0.523-1.872,0.523-3.148c0-0.938-0.215-1.681-0.645-2.23
        s-0.993-0.824-1.691-0.824c-0.432,0-0.79,0.091-1.074,0.273c-0.284,0.183-0.543,0.479-0.777,0.891s-0.487,1.016-0.758,1.813
        c-0.401,1.167-0.834,1.973-1.301,2.418c-0.466,0.445-1.087,0.668-1.863,0.668c-0.854,0-1.551-0.335-2.09-1.004
        s-0.809-1.53-0.809-2.582c0-1.073,0.203-2.081,0.609-3.023l0.688,0.289c-0.396,0.948-0.594,1.854-0.594,2.719
        c0,0.844,0.195,1.516,0.586,2.016s0.922,0.75,1.594,0.75c0.422,0,0.769-0.077,1.039-0.23c0.271-0.153,0.515-0.405,0.73-0.754
        c0.216-0.349,0.476-0.948,0.777-1.797c0.308-0.891,0.605-1.56,0.895-2.008s0.617-0.774,0.984-0.98S15.092,340.942,15.612,340.942z
        "/>
      <path fill="#333333" d="M7.69,333.653c0,1.433,0.458,2.56,1.375,3.383c0.917,0.823,2.172,1.234,3.766,1.234
        c1.63,0,2.896-0.388,3.797-1.164c0.901-0.776,1.352-1.886,1.352-3.328c0-0.958-0.122-1.839-0.367-2.641h0.703
        c0.266,0.755,0.398,1.698,0.398,2.828c0,1.604-0.518,2.867-1.555,3.789c-1.036,0.922-2.484,1.383-4.344,1.383
        c-1.161,0-2.185-0.22-3.07-0.66c-0.885-0.44-1.569-1.073-2.051-1.898c-0.481-0.825-0.723-1.785-0.723-2.879
        c0-1.114,0.208-2.112,0.625-2.992l0.719,0.32C7.899,331.861,7.69,332.736,7.69,333.653z"/>
      <path fill="#333333" d="M12.831,318.989c1.813,0,3.246,0.453,4.301,1.359s1.582,2.156,1.582,3.75c0,1.589-0.527,2.836-1.582,3.742
        s-2.493,1.359-4.316,1.359c-1.817,0-3.249-0.457-4.293-1.371c-1.044-0.914-1.566-2.163-1.566-3.746
        c0-1.594,0.525-2.841,1.574-3.742C9.58,319.439,11.014,318.989,12.831,318.989z M12.831,328.333c1.636,0,2.9-0.364,3.793-1.094
        c0.894-0.729,1.34-1.776,1.34-3.141c0-1.375-0.442-2.426-1.328-3.152c-0.885-0.727-2.153-1.09-3.805-1.09
        c-1.646,0-2.907,0.363-3.785,1.09c-0.877,0.727-1.316,1.772-1.316,3.137c0,1.359,0.443,2.407,1.328,3.145
        C9.943,327.965,11.201,328.333,12.831,328.333z"/>
      <path fill="#333333" d="M13.581,315.567h4.977v0.797H7.136v-2.719c0-1.417,0.262-2.464,0.785-3.141s1.312-1.016,2.363-1.016
        c0.766,0,1.412,0.202,1.938,0.605c0.526,0.404,0.904,1.017,1.133,1.84l5.203-3.102v0.953l-4.977,2.945V315.567z M12.894,315.567
        v-2.18c0-0.964-0.215-1.711-0.645-2.242s-1.063-0.797-1.902-0.797c-0.87,0-1.502,0.261-1.898,0.781
        c-0.396,0.521-0.594,1.37-0.594,2.547v1.891H12.894z"/>
      <path fill="#333333" d="M18.558,300.614v6.242H7.136v-6.242H7.87v5.445h4.32v-5.141h0.734v5.141h4.898v-5.445H18.558z"/>
      <path fill="#333333" d="M7.136,298.028v-3.133c0-1.411,0.24-2.448,0.719-3.109c0.479-0.661,1.203-0.992,2.172-0.992
        c0.662,0,1.212,0.202,1.652,0.605c0.44,0.404,0.723,0.994,0.848,1.77h0.047c0.136-0.911,0.423-1.582,0.863-2.012
        c0.44-0.43,1.054-0.645,1.84-0.645c1.052,0,1.862,0.349,2.43,1.047c0.568,0.698,0.852,1.688,0.852,2.969v3.5H7.136z
        M12.222,297.231v-2.516c0-1.073-0.178-1.853-0.535-2.34c-0.356-0.487-0.915-0.73-1.676-0.73c-0.76,0-1.313,0.275-1.656,0.824
        c-0.344,0.55-0.516,1.369-0.516,2.457v2.305H12.222z M12.925,297.231h4.93v-2.688c0-2.114-0.859-3.172-2.578-3.172
        c-1.567,0-2.352,1.115-2.352,3.344V297.231z"/>
      <path fill="#333333" d="M12.831,278.396c1.813,0,3.246,0.453,4.301,1.359s1.582,2.156,1.582,3.75c0,1.589-0.527,2.836-1.582,3.742
        s-2.493,1.359-4.316,1.359c-1.817,0-3.249-0.457-4.293-1.371c-1.044-0.914-1.566-2.163-1.566-3.746
        c0-1.594,0.525-2.841,1.574-3.742C9.58,278.846,11.014,278.396,12.831,278.396z M12.831,287.739c1.636,0,2.9-0.364,3.793-1.094
        c0.894-0.729,1.34-1.776,1.34-3.141c0-1.375-0.442-2.426-1.328-3.152c-0.885-0.727-2.153-1.09-3.805-1.09
        c-1.646,0-2.907,0.363-3.785,1.09c-0.877,0.727-1.316,1.772-1.316,3.137c0,1.359,0.443,2.408,1.328,3.145
        C9.943,287.371,11.201,287.739,12.831,287.739z"/>
      <path fill="#333333" d="M14.526,270.271v4.641l4.031,1.594v0.883l-11.469-4.594v-0.508l11.469-4.5v0.898L14.526,270.271z
        M13.808,274.622v-4.086l-4.117,1.555c-0.323,0.13-0.771,0.287-1.344,0.469c0.5,0.141,0.953,0.294,1.359,0.461L13.808,274.622z"/>
      <path fill="#333333" d="M13.581,265.372h4.977v0.797H7.136v-2.719c0-1.417,0.262-2.463,0.785-3.141
        c0.523-0.677,1.312-1.016,2.363-1.016c0.766,0,1.412,0.202,1.938,0.605c0.526,0.404,0.904,1.017,1.133,1.84l5.203-3.102v0.953
        l-4.977,2.945V265.372z M12.894,265.372v-2.18c0-0.963-0.215-1.711-0.645-2.242s-1.063-0.797-1.902-0.797
        c-0.87,0-1.502,0.261-1.898,0.781c-0.396,0.521-0.594,1.37-0.594,2.547v1.891H12.894z"/>
      <path fill="#333333" d="M12.737,247.989c1.917,0,3.366,0.503,4.348,1.508c0.982,1.005,1.473,2.482,1.473,4.43v2.734H7.136v-3.086
        c0-1.823,0.477-3.209,1.43-4.16C9.519,248.465,10.909,247.989,12.737,247.989z M12.769,248.856c-1.635,0-2.866,0.416-3.691,1.246
        c-0.825,0.831-1.238,2.051-1.238,3.66v2.102h10.016v-1.891C17.854,250.563,16.159,248.856,12.769,248.856z"/>
    </g>
    <g>
      <path fill="#F5F5F5" d="M598.402,52.697c-0.887-0.886-1.867-1.301-2.943-1.243c-1.076,0.059-2.107,0.58-3.094,1.566
        c-1.008,1.009-1.551,2.032-1.629,3.069s0.33,2.003,1.223,2.896c0.594,0.593,1.213,1.062,1.861,1.406l-0.436,0.435
        c-0.631-0.303-1.297-0.804-1.996-1.503c-0.992-0.993-1.453-2.094-1.383-3.307c0.072-1.211,0.682-2.393,1.832-3.543
        c0.719-0.719,1.488-1.215,2.309-1.491c0.82-0.275,1.635-0.307,2.443-0.094c0.809,0.212,1.551,0.657,2.229,1.333
        c0.689,0.69,1.178,1.436,1.465,2.238l-0.643,0.247C599.381,53.934,598.969,53.264,598.402,52.697z"/>
      <path fill="#F5F5F5" d="M594.811,62.553l7.066-7.067l0.494,0.493l-6.604,6.603l3.369,3.369l-0.463,0.464L594.811,62.553z"/>
      <path fill="#F5F5F5" d="M612.154,65.762l-4.572,4.573c-0.813,0.812-1.684,1.211-2.609,1.199c-0.93-0.013-1.814-0.44-2.654-1.281
        c-0.818-0.818-1.229-1.687-1.229-2.605c0-0.917,0.41-1.789,1.232-2.61l4.553-4.553l0.498,0.498l-4.572,4.573
        c-0.68,0.68-1.02,1.398-1.021,2.153c-0.002,0.756,0.342,1.478,1.031,2.168c0.674,0.673,1.383,1.009,2.125,1.007
        c0.742-0.001,1.445-0.332,2.105-0.993l4.621-4.621L612.154,65.762z"/>
      <path fill="#F5F5F5" d="M614.078,67.686l1.938,1.938c0.875,0.874,1.367,1.663,1.48,2.369c0.113,0.707-0.131,1.358-0.73,1.958
        c-0.408,0.409-0.875,0.625-1.396,0.647c-0.521,0.023-1.063-0.167-1.619-0.57l-0.029,0.029c0.48,0.648,0.717,1.241,0.711,1.779
        c-0.006,0.538-0.254,1.05-0.74,1.537c-0.65,0.651-1.367,0.937-2.15,0.856c-0.783-0.08-1.57-0.517-2.363-1.31l-2.166-2.166
        L614.078,67.686z M610.99,71.761l-3.051,3.05l1.662,1.663c1.309,1.309,2.496,1.431,3.559,0.368
        c0.971-0.97,0.766-2.145-0.613-3.524L610.99,71.761z M611.424,71.326l1.557,1.557c0.664,0.664,1.258,1.036,1.779,1.117
        c0.521,0.08,1.018-0.115,1.488-0.586c0.471-0.47,0.643-0.982,0.516-1.534c-0.127-0.553-0.527-1.167-1.201-1.84l-1.426-1.426
        L611.424,71.326z"/>
      <path fill="#F5F5F5" d="M621.514,85.61c-0.59,0.59-1.273,0.84-2.053,0.751s-1.527-0.493-2.246-1.211
        c-0.863-0.863-1.43-1.621-1.701-2.271l0.494-0.493c0.293,0.725,0.834,1.483,1.623,2.272c0.58,0.58,1.174,0.907,1.779,0.981
        c0.605,0.074,1.125-0.105,1.557-0.537c0.268-0.268,0.432-0.546,0.496-0.833c0.063-0.288,0.039-0.632-0.07-1.032
        c-0.109-0.4-0.328-0.93-0.654-1.591c-0.473-0.97-0.703-1.737-0.689-2.3c0.012-0.565,0.258-1.087,0.738-1.567
        c0.529-0.528,1.168-0.752,1.914-0.672c0.748,0.081,1.447,0.446,2.098,1.097c0.664,0.664,1.162,1.413,1.494,2.248l-0.604,0.246
        c-0.342-0.831-0.779-1.514-1.314-2.049c-0.523-0.522-1.059-0.816-1.609-0.884c-0.553-0.068-1.035,0.106-1.451,0.522
        c-0.26,0.261-0.428,0.523-0.5,0.785c-0.072,0.263-0.068,0.569,0.014,0.918c0.084,0.351,0.293,0.881,0.631,1.593
        c0.361,0.741,0.592,1.34,0.689,1.796c0.098,0.455,0.098,0.861-0.002,1.215C622.047,84.95,621.836,85.288,621.514,85.61z"/>
      <path fill="#F5F5F5" d="M626.303,94.045l-0.498-0.498l3.477-3.476l-4.129-4.128l-3.475,3.476l-0.494-0.493l7.066-7.067
        l0.494,0.493l-3.137,3.137l4.127,4.128l3.137-3.137l0.498,0.498L626.303,94.045z"/>
      <path fill="#F5F5F5" d="M637.787,98.443c-1.121,1.122-2.289,1.728-3.502,1.82c-1.213,0.092-2.313-0.355-3.299-1.342
        c-0.982-0.982-1.428-2.081-1.336-3.294c0.092-1.213,0.701-2.384,1.83-3.512c1.125-1.125,2.293-1.727,3.504-1.809
        c1.211-0.08,2.307,0.37,3.287,1.349c0.986,0.986,1.434,2.083,1.342,3.29S638.912,97.319,637.787,98.443z M632.006,92.662
        c-1.012,1.012-1.566,2.021-1.67,3.023c-0.102,1.004,0.27,1.928,1.115,2.772c0.85,0.851,1.775,1.227,2.773,1.129
        c0.994-0.1,2.006-0.659,3.027-1.68c1.018-1.019,1.572-2.024,1.668-3.016c0.092-0.993-0.283-1.911-1.127-2.756
        c-0.842-0.841-1.764-1.215-2.768-1.124C634.021,91.104,633.016,91.653,632.006,92.662z"/>
      <path fill="#F5F5F5" d="M645.16,102.828c-0.684,0.683-1.439,0.976-2.268,0.875c-0.828-0.1-1.668-0.575-2.518-1.425l-1.094-1.093
        l-2.92,2.919l-0.492-0.493l7.066-7.067l1.73,1.73C646.348,99.957,646.512,101.474,645.16,102.828z M639.707,100.759l0.971,0.972
        c0.797,0.796,1.504,1.241,2.121,1.332c0.615,0.092,1.221-0.157,1.811-0.746c0.543-0.545,0.779-1.116,0.707-1.714
        s-0.461-1.249-1.162-1.951l-1.17-1.17L639.707,100.759z"/>
      <path fill="#F5F5F5" d="M603.291,86.905c0.445-0.445,0.941-0.706,1.49-0.781c0.549-0.076,1.322,0.036,2.318,0.335l0.033-0.759
        c0.016-0.441,0.082-0.824,0.199-1.146c0.115-0.323,0.293-0.603,0.531-0.842c0.461-0.46,0.98-0.672,1.559-0.635
        c0.578,0.037,1.127,0.316,1.646,0.834c0.498,0.499,0.764,1.025,0.795,1.578c0.031,0.553-0.186,1.06-0.645,1.521
        c-0.34,0.338-0.762,0.536-1.27,0.592c-0.508,0.056-1.229-0.038-2.164-0.283l-0.023,4.394c0.43-0.035,0.85-0.121,1.262-0.256
        s0.857-0.338,1.334-0.609l0.465,0.465c-0.996,0.59-2.02,0.939-3.07,1.048l-0.01,2.582l-0.652-0.653l0.02-1.885
        c-0.586-0.006-1.063-0.059-1.43-0.157c-0.365-0.098-0.721-0.25-1.068-0.455c-0.346-0.204-0.693-0.482-1.045-0.833
        c-0.674-0.673-1.037-1.369-1.09-2.085C602.422,88.158,602.695,87.501,603.291,86.905z M604.035,90.559
        c0.412,0.412,0.859,0.72,1.344,0.924c0.482,0.203,1.057,0.303,1.721,0.303l0.01-4.678c-0.67-0.207-1.184-0.325-1.543-0.358
        c-0.357-0.033-0.676,0.002-0.953,0.104c-0.279,0.101-0.547,0.279-0.801,0.533c-0.461,0.461-0.672,0.972-0.633,1.533
        C603.219,89.481,603.502,90.027,604.035,90.559z M608.391,84.222c-0.256,0.254-0.426,0.554-0.514,0.899
        c-0.086,0.345-0.121,0.87-0.105,1.575c0.785,0.239,1.398,0.339,1.836,0.3c0.439-0.038,0.811-0.211,1.117-0.517
        c0.303-0.303,0.449-0.648,0.438-1.037c-0.012-0.388-0.188-0.752-0.529-1.094c-0.367-0.367-0.75-0.564-1.146-0.587
        C609.086,83.736,608.723,83.89,608.391,84.222z"/>
      <path fill="#F5F5F5" d="M565.338,71.999L564.84,71.5l6.604-6.603l-2.295-2.296l0.463-0.464l5.09,5.09l-0.463,0.464l-2.297-2.296
        L565.338,71.999z"/>
      <path fill="#F5F5F5" d="M568.684,75.343l7.066-7.067l0.494,0.493l-7.068,7.067L568.684,75.343z"/>
      <path fill="#F5F5F5" d="M580.918,74.13c-0.887-0.886-1.867-1.3-2.943-1.242s-2.107,0.58-3.094,1.566
        c-1.01,1.009-1.553,2.032-1.629,3.069c-0.078,1.038,0.33,2.003,1.223,2.896c0.594,0.593,1.213,1.062,1.861,1.406l-0.436,0.435
        c-0.631-0.303-1.297-0.804-1.996-1.503c-0.992-0.992-1.453-2.094-1.383-3.306c0.07-1.211,0.682-2.393,1.832-3.543
        c0.719-0.718,1.488-1.215,2.309-1.49c0.82-0.276,1.635-0.307,2.443-0.095c0.809,0.213,1.551,0.658,2.229,1.335
        c0.689,0.689,1.178,1.436,1.465,2.238l-0.643,0.246C581.896,75.367,581.484,74.697,580.918,74.13z"/>
      <path fill="#F5F5F5" d="M582.078,88.737l-0.604-0.604l1.02-6.443l-1.773-0.111l-2.9,2.9l-0.494-0.493l7.066-7.067l0.494,0.493
        l-3.674,3.674h1.566l5.66-0.121l0.627,0.628l-5.883,0.092L582.078,88.737z"/>
      <path fill="#F5F5F5" d="M586.941,93.601l-3.863-3.862l7.066-7.067l3.863,3.862l-0.455,0.455l-3.369-3.369l-2.672,2.673l3.18,3.181
        l-0.453,0.455l-3.182-3.181l-3.031,3.031l3.369,3.369L586.941,93.601z"/>
      <path fill="#F5F5F5" d="M590.383,97.042l-0.498-0.498l6.602-6.603l-2.295-2.296l0.463-0.464l5.09,5.09l-0.463,0.464l-2.297-2.296
        L590.383,97.042z"/>
      <path fill="#F5F5F5" d="M605.783,105.356c-1.121,1.122-2.289,1.728-3.502,1.82c-1.215,0.091-2.313-0.355-3.299-1.342
        c-0.982-0.982-1.43-2.081-1.338-3.294c0.092-1.213,0.703-2.384,1.83-3.512c1.125-1.125,2.293-1.728,3.506-1.807
        c1.209-0.082,2.305,0.368,3.285,1.348c0.986,0.985,1.434,2.083,1.342,3.289C607.516,103.065,606.908,104.232,605.783,105.356z
        M600.002,99.575c-1.012,1.012-1.568,2.02-1.67,3.023c-0.102,1.004,0.27,1.928,1.113,2.772c0.852,0.851,1.775,1.227,2.771,1.128
        c0.998-0.098,2.008-0.659,3.029-1.68c1.018-1.018,1.574-2.022,1.668-3.016c0.094-0.992-0.283-1.911-1.127-2.755
        c-0.842-0.842-1.764-1.216-2.768-1.125S601.01,98.567,600.002,99.575z"/>
      <path fill="#F5F5F5" d="M604.357,111.017l-0.494-0.493l7.066-7.067l3.873,3.872l-0.455,0.455l-3.379-3.379l-2.996,2.997
        l3.189,3.19l-0.459,0.459l-3.189-3.19L604.357,111.017z"/>
      <path fill="#F5F5F5" d="M609.326,115.985l-0.494-0.493l7.066-7.067l3.873,3.872l-0.455,0.455l-3.379-3.379l-2.996,2.997
        l3.189,3.19l-0.459,0.459l-3.189-3.19L609.326,115.985z"/>
      <path fill="#F5F5F5" d="M613.803,120.462l7.066-7.067l0.492,0.493l-7.066,7.067L613.803,120.462z"/>
      <path fill="#F5F5F5" d="M626.035,119.248c-0.885-0.886-1.867-1.3-2.943-1.242c-1.076,0.058-2.107,0.58-3.094,1.566
        c-1.008,1.009-1.551,2.032-1.629,3.07c-0.078,1.037,0.33,2.002,1.223,2.895c0.594,0.594,1.215,1.062,1.861,1.407l-0.436,0.435
        c-0.631-0.303-1.295-0.804-1.996-1.504c-0.992-0.992-1.453-2.094-1.381-3.306c0.07-1.211,0.682-2.393,1.832-3.543
        c0.719-0.718,1.486-1.216,2.307-1.491s1.635-0.307,2.443-0.095c0.811,0.214,1.553,0.659,2.229,1.335
        c0.689,0.689,1.178,1.436,1.465,2.237l-0.643,0.247C627.016,120.485,626.604,119.815,626.035,119.248z"/>
      <path fill="#F5F5F5" d="M626.307,132.967l-3.861-3.862l7.066-7.067l3.861,3.862l-0.453,0.455l-3.369-3.369l-2.674,2.673
        l3.182,3.181l-0.455,0.455l-3.18-3.181l-3.031,3.031l3.369,3.369L626.307,132.967z"/>
    </g>
    <g>
      <path fill="#333333" d="M663.912,217.702c0-1.432-0.458-2.56-1.375-3.383s-2.172-1.234-3.766-1.234
        c-1.63,0-2.896,0.388-3.797,1.164s-1.352,1.885-1.352,3.328c0,0.958,0.122,1.838,0.367,2.641h-0.703
        c-0.266-0.755-0.398-1.698-0.398-2.828c0-1.604,0.519-2.867,1.555-3.789s2.484-1.383,4.344-1.383c1.161,0,2.185,0.22,3.07,0.66
        s1.569,1.073,2.051,1.898s0.723,1.785,0.723,2.879c0,1.115-0.208,2.112-0.625,2.992l-0.719-0.32
        C663.704,219.493,663.912,218.618,663.912,217.702z"/>
      <path fill="#333333" d="M657.076,228.264v-4.641l-4.031-1.594v-0.883l11.469,4.594v0.508l-11.469,4.5v-0.898L657.076,228.264z
        M657.795,223.913v4.086l4.117-1.555c0.323-0.13,0.771-0.287,1.344-0.469c-0.5-0.141-0.953-0.294-1.359-0.461L657.795,223.913z"/>
      <path fill="#333333" d="M658.021,233.163h-4.977v-0.797h11.422v2.719c0,1.417-0.262,2.463-0.785,3.141s-1.312,1.016-2.363,1.016
        c-0.766,0-1.411-0.202-1.938-0.605s-0.903-1.017-1.133-1.84l-5.203,3.102v-0.953l4.977-2.945V233.163z M658.709,233.163v2.18
        c0,0.963,0.215,1.711,0.645,2.242s1.063,0.797,1.902,0.797c0.87,0,1.503-0.26,1.898-0.781s0.594-1.37,0.594-2.547v-1.891H658.709z
        "/>
      <path fill="#333333" d="M653.045,250.178v-0.805l10.141-6.766v-0.063c-1.208,0.063-2.12,0.094-2.734,0.094h-7.406v-0.766h11.422
        v0.797l-10.125,6.758v0.047c0.938-0.047,1.828-0.07,2.672-0.07h7.453v0.773H653.045z"/>
      <path fill="#333333" d="M653.045,259.655v-6.242h11.422v6.242h-0.734v-5.445h-4.32v5.141h-0.734v-5.141h-4.898v5.445H653.045z"/>
      <path fill="#333333" d="M658.803,266.733v4.211h-5.211c-0.469-1.104-0.703-2.346-0.703-3.727c0-1.802,0.509-3.184,1.527-4.145
        s2.46-1.441,4.324-1.441c1.161,0,2.191,0.238,3.09,0.715s1.593,1.159,2.082,2.047s0.734,1.908,0.734,3.059
        c0,1.245-0.229,2.362-0.688,3.352l-0.719-0.32c0.458-0.99,0.688-2.016,0.688-3.078c0-1.505-0.465-2.699-1.395-3.582
        s-2.184-1.324-3.762-1.324c-1.719,0-3.012,0.419-3.879,1.258s-1.301,2.07-1.301,3.695c0,1.052,0.148,1.945,0.445,2.68h4.016
        v-3.398H658.803z"/>
      <path fill="#333333" d="M653.045,273.811h11.422v0.797h-11.422V273.811z"/>
      <path fill="#333333" d="M653.045,284.084v-6.242h11.422v6.242h-0.734v-5.445h-4.32v5.141h-0.734v-5.141h-4.898v5.445H653.045z"/>
      <path fill="#333333" d="M655.99,297.131c-0.953,0-1.708-0.35-2.266-1.051s-0.836-1.631-0.836-2.793
        c0-1.396,0.153-2.466,0.461-3.211h0.797c-0.349,0.823-0.523,1.873-0.523,3.148c0,0.938,0.215,1.681,0.645,2.23
        s0.993,0.824,1.691,0.824c0.433,0,0.79-0.091,1.074-0.273s0.543-0.479,0.777-0.891s0.487-1.016,0.758-1.813
        c0.401-1.167,0.835-1.973,1.301-2.418s1.087-0.668,1.863-0.668c0.854,0,1.551,0.334,2.09,1.004s0.809,1.53,0.809,2.582
        c0,1.073-0.203,2.081-0.609,3.023l-0.688-0.289c0.396-0.948,0.594-1.854,0.594-2.719c0-0.844-0.195-1.516-0.586-2.016
        s-0.922-0.75-1.594-0.75c-0.422,0-0.769,0.077-1.039,0.23s-0.515,0.405-0.73,0.754s-0.476,0.948-0.777,1.797
        c-0.308,0.891-0.605,1.56-0.895,2.008s-0.617,0.775-0.984,0.98S656.511,297.131,655.99,297.131z"/>
      <path fill="#333333" d="M653.045,302.522v-0.805h10.672v-3.711h0.75v8.227h-0.75v-3.711H653.045z"/>
      <path fill="#333333" d="M657.076,313.428v-4.64l-4.031-1.594v-0.883l11.469,4.593v0.508l-11.469,4.5v-0.898L657.076,313.428z
        M657.795,309.077v4.085l4.117-1.555c0.323-0.13,0.771-0.286,1.344-0.469c-0.5-0.141-0.953-0.294-1.359-0.461L657.795,309.077z"/>
      <path fill="#333333" d="M653.045,325.834v-0.805l10.141-6.766v-0.063c-1.208,0.063-2.12,0.094-2.734,0.094h-7.406v-0.766h11.422
        v0.797l-10.125,6.758v0.047c0.938-0.047,1.828-0.07,2.672-0.07h7.453v0.773H653.045z"/>
      <path fill="#333333" d="M658.865,337.74c-1.917,0-3.366-0.503-4.348-1.508s-1.473-2.481-1.473-4.43v-2.734h11.422v3.086
        c0,1.823-0.477,3.21-1.43,4.16S660.693,337.74,658.865,337.74z M658.834,336.873c1.636,0,2.866-0.415,3.691-1.246
        s1.238-2.051,1.238-3.66v-2.102h-10.016v1.891C653.748,335.167,655.443,336.873,658.834,336.873z"/>
    </g>
    <rect x="24.291" y="366.811" fill="#333333" width="10.396" height="22.061"/>
    <g>
      <path fill="#333333" d="M240.078,520.178c0,0.953-0.351,1.709-1.051,2.266c-0.701,0.558-1.632,0.836-2.793,0.836
        c-1.396,0-2.466-0.154-3.211-0.461v-0.797c0.823,0.35,1.872,0.523,3.148,0.523c0.938,0,1.681-0.215,2.23-0.645
        c0.549-0.43,0.824-0.993,0.824-1.691c0-0.432-0.091-0.79-0.273-1.074c-0.183-0.283-0.479-0.543-0.891-0.777
        c-0.412-0.234-1.016-0.486-1.813-0.758c-1.167-0.4-1.973-0.834-2.418-1.301c-0.445-0.466-0.668-1.087-0.668-1.863
        c0-0.854,0.334-1.551,1.004-2.09c0.669-0.539,1.53-0.809,2.582-0.809c1.073,0,2.081,0.203,3.023,0.609l-0.289,0.688
        c-0.948-0.396-1.854-0.594-2.719-0.594c-0.844,0-1.516,0.195-2.016,0.586s-0.75,0.922-0.75,1.594c0,0.422,0.077,0.769,0.23,1.039
        c0.153,0.271,0.405,0.515,0.754,0.73c0.349,0.217,0.948,0.476,1.797,0.777c0.891,0.308,1.56,0.605,2.008,0.895
        c0.448,0.289,0.774,0.617,0.98,0.984C239.975,519.213,240.078,519.657,240.078,520.178z"/>
      <path fill="#333333" d="M252.093,517.396c0,1.813-0.453,3.246-1.359,4.301s-2.156,1.582-3.75,1.582
        c-1.589,0-2.836-0.527-3.742-1.582s-1.359-2.493-1.359-4.316c0-1.817,0.457-3.248,1.371-4.293
        c0.914-1.044,2.163-1.566,3.746-1.566c1.594,0,2.841,0.525,3.742,1.574C251.643,514.146,252.093,515.579,252.093,517.396z
        M242.75,517.396c0,1.636,0.364,2.9,1.094,3.793c0.729,0.894,1.776,1.34,3.141,1.34c1.375,0,2.426-0.442,3.152-1.328
        c0.727-0.885,1.09-2.153,1.09-3.805c0-1.646-0.363-2.907-1.09-3.785c-0.727-0.877-1.772-1.316-3.137-1.316
        c-1.359,0-2.408,0.443-3.145,1.328C243.118,514.509,242.75,515.767,242.75,517.396z"/>
      <path fill="#333333" d="M263.117,511.701v7.391c0,1.313-0.38,2.339-1.141,3.078c-0.761,0.74-1.82,1.109-3.18,1.109
        c-1.323,0-2.355-0.371-3.098-1.113s-1.113-1.777-1.113-3.105v-7.359h0.805v7.391c0,1.1,0.305,1.955,0.914,2.566
        c0.609,0.612,1.471,0.918,2.586,0.918c1.088,0,1.932-0.301,2.531-0.902c0.599-0.602,0.898-1.436,0.898-2.504v-7.469H263.117z"/>
      <path fill="#333333" d="M269.203,523.123h-0.805v-10.672h-3.711v-0.75h8.227v0.75h-3.711V523.123z"/>
      <path fill="#333333" d="M282.882,523.123h-0.805v-5.617h-6.672v5.617h-0.797v-11.422h0.797v5.07h6.672v-5.07h0.805V523.123z"/>
      <path fill="#333333" d="M296.578,520.178c0,0.953-0.351,1.709-1.051,2.266c-0.701,0.558-1.632,0.836-2.793,0.836
        c-1.396,0-2.466-0.154-3.211-0.461v-0.797c0.823,0.35,1.872,0.523,3.148,0.523c0.938,0,1.681-0.215,2.23-0.645
        c0.549-0.43,0.824-0.993,0.824-1.691c0-0.432-0.091-0.79-0.273-1.074c-0.183-0.283-0.479-0.543-0.891-0.777
        c-0.412-0.234-1.016-0.486-1.813-0.758c-1.167-0.4-1.973-0.834-2.418-1.301c-0.445-0.466-0.668-1.087-0.668-1.863
        c0-0.854,0.334-1.551,1.004-2.09c0.669-0.539,1.53-0.809,2.582-0.809c1.073,0,2.081,0.203,3.023,0.609l-0.289,0.688
        c-0.948-0.396-1.854-0.594-2.719-0.594c-0.844,0-1.516,0.195-2.016,0.586s-0.75,0.922-0.75,1.594c0,0.422,0.077,0.769,0.23,1.039
        c0.153,0.271,0.405,0.515,0.754,0.73c0.349,0.217,0.948,0.476,1.797,0.777c0.891,0.308,1.56,0.605,2.008,0.895
        c0.448,0.289,0.774,0.617,0.98,0.984C296.475,519.213,296.578,519.657,296.578,520.178z"/>
      <path fill="#333333" d="M301.968,523.123h-0.805v-10.672h-3.711v-0.75h8.227v0.75h-3.711V523.123z"/>
      <path fill="#333333" d="M312.875,519.092h-4.641l-1.594,4.031h-0.883l4.594-11.469h0.508l4.5,11.469h-0.898L312.875,519.092z
        M308.523,518.373h4.086l-1.555-4.117c-0.13-0.322-0.287-0.771-0.469-1.344c-0.141,0.5-0.294,0.953-0.461,1.359L308.523,518.373z"
        />
      <path fill="#333333" d="M325.281,523.123h-0.805l-6.766-10.141h-0.063c0.063,1.209,0.094,2.12,0.094,2.734v7.406h-0.766v-11.422
        h0.797l6.758,10.125h0.047c-0.047-0.938-0.07-1.828-0.07-2.672v-7.453h0.773V523.123z"/>
      <path fill="#333333" d="M337.187,517.303c0,1.917-0.503,3.366-1.508,4.348c-1.005,0.982-2.482,1.473-4.43,1.473h-2.734v-11.422
        h3.086c1.823,0,3.209,0.477,4.16,1.43C336.711,514.084,337.187,515.475,337.187,517.303z M336.32,517.334
        c0-1.635-0.416-2.865-1.246-3.691c-0.831-0.825-2.051-1.238-3.66-1.238h-2.102v10.016h1.891
        C334.614,522.42,336.32,520.725,336.32,517.334z"/>
      <path fill="#333333" d="M350.273,520.178c0,0.953-0.352,1.709-1.051,2.266c-0.701,0.558-1.633,0.836-2.793,0.836
        c-1.396,0-2.467-0.154-3.211-0.461v-0.797c0.822,0.35,1.871,0.523,3.148,0.523c0.938,0,1.68-0.215,2.23-0.645
        c0.549-0.43,0.824-0.993,0.824-1.691c0-0.432-0.092-0.79-0.273-1.074c-0.184-0.283-0.48-0.543-0.891-0.777
        c-0.412-0.234-1.016-0.486-1.813-0.758c-1.168-0.4-1.973-0.834-2.418-1.301c-0.445-0.466-0.668-1.087-0.668-1.863
        c0-0.854,0.334-1.551,1.004-2.09c0.668-0.539,1.529-0.809,2.582-0.809c1.072,0,2.08,0.203,3.023,0.609l-0.289,0.688
        c-0.949-0.396-1.855-0.594-2.719-0.594c-0.844,0-1.516,0.195-2.016,0.586s-0.75,0.922-0.75,1.594c0,0.422,0.076,0.769,0.23,1.039
        c0.152,0.271,0.404,0.515,0.754,0.73c0.348,0.217,0.947,0.476,1.797,0.777c0.891,0.308,1.559,0.605,2.008,0.895
        c0.447,0.289,0.773,0.617,0.98,0.984C350.17,519.213,350.273,519.657,350.273,520.178z"/>
      <path fill="#333333" d="M358.93,523.123h-6.242v-11.422h6.242v0.734h-5.445v4.32h5.141v0.734h-5.141v4.898h5.445V523.123z"/>
      <path fill="#333333" d="M367.016,519.092h-4.641l-1.594,4.031h-0.883l4.594-11.469H365l4.5,11.469h-0.898L367.016,519.092z
        M362.664,518.373h4.086l-1.555-4.117c-0.131-0.322-0.287-0.771-0.469-1.344c-0.141,0.5-0.295,0.953-0.461,1.359L362.664,518.373z
        "/>
      <path fill="#333333" d="M374.094,523.123h-0.805v-10.672h-3.711v-0.75h8.227v0.75h-3.711V523.123z"/>
      <path fill="#333333" d="M379.5,523.123v-11.422h0.797v11.422H379.5z"/>
      <path fill="#333333" d="M391.836,523.123h-0.805l-6.766-10.141h-0.063c0.063,1.209,0.094,2.12,0.094,2.734v7.406h-0.766v-11.422
        h0.797l6.758,10.125h0.047c-0.047-0.938-0.07-1.828-0.07-2.672v-7.453h0.773V523.123z"/>
      <path fill="#333333" d="M399.563,517.365h4.211v5.211c-1.105,0.469-2.348,0.703-3.727,0.703c-1.803,0-3.184-0.509-4.145-1.527
        c-0.961-1.018-1.441-2.459-1.441-4.324c0-1.161,0.238-2.191,0.715-3.09s1.158-1.592,2.047-2.082
        c0.887-0.489,1.906-0.734,3.059-0.734c1.244,0,2.361,0.229,3.352,0.688l-0.32,0.719c-0.99-0.458-2.016-0.688-3.078-0.688
        c-1.506,0-2.699,0.465-3.582,1.395s-1.324,2.184-1.324,3.762c0,1.719,0.418,3.012,1.258,3.879c0.838,0.867,2.07,1.301,3.695,1.301
        c1.051,0,1.945-0.148,2.68-0.445v-4.016h-3.398V517.365z"/>
    </g>
  </g>
  <g id="LABELS">
    <text fid="WS-WT" transform="matrix(0 -1 1 0 97.728 355.6855)" fill="#F2F2F2" font-family="'Arial'" font-size="14">WESTERN TERRACE</text>
    <text fid="SS-SS" transform="matrix(1 0 0 1 233.7305 421.7637)" fill="#F2F2F2" font-family="'Arial'" font-size="14">SOUTH STAND TERRACE</text>
    <text fid="CT1-CT3" transform="matrix(0 1 -1 0 493.4063 369.3398)" fill="#F2F2F2" font-family="'Arial'" font-size="9">CT3</text>
    <text fid="SSW-ST2" transform="matrix(1 0 0 1 381.0449 396.0947)" fill="#F2F2F2" font-family="'Arial'" font-size="9">ST2</text>
    <text fid="SSW-ST1" transform="matrix(1 0 0 1 228.7871 396.0947)" fill="#F2F2F2" font-family="'Arial'" font-size="9">ST1</text>
    <text fid="SSU-E" transform="matrix(1 0 0 1 260.748 495.2119)" fill="#F2F2F2" font-family="'Arial'" font-size="9">E</text>
    <text fid="SSU-H" transform="matrix(1 0 0 1 165.2539 495.2119)" fill="#F2F2F2" font-family="'Arial'" font-size="9">H</text>
    <text fid="NS-A" transform="matrix(1 0 0 1 170.9429 151.5449)" fill="#F2F2F2" font-family="'Arial'" font-size="9">A</text>
    <text fid="NS-B" transform="matrix(1 0 0 1 201.8745 151.5449)" fill="#F2F2F2" font-family="'Arial'" font-size="9">B</text>
    <text fid="NS-C" transform="matrix(1 0 0 1 239.0405 151.5449)" fill="#F2F2F2" font-family="'Arial'" font-size="9">C</text>
    <text fid="NSW-NS3" transform="matrix(1 0 0 1 233.5366 125.6592)" fill="#F2F2F2" font-family="'Arial'" font-size="9">NS3</text>
    <text fid="NSW-NS1" transform="matrix(1 0 0 1 196.1221 115.5713)" fill="#F2F2F2" font-family="'Arial'" font-size="9">NS1</text>
    <text fid="NSW-NS2" transform="matrix(1 0 0 1 408.4893 115.5713)" fill="#F2F2F2" font-family="'Arial'" font-size="9">NS2</text>
    <text fid="NSW-NS4" transform="matrix(1 0 0 1 368.7451 125.6592)" fill="#F2F2F2" font-family="'Arial'" font-size="9">NS4</text>
    <text fid="NS-D" transform="matrix(1 0 0 1 274.0894 151.5449)" fill="#F2F2F2" font-family="'Arial'" font-size="9">D</text>
    <text fid="NS-E" transform="matrix(1 0 0 1 342.0117 151.5449)" fill="#F2F2F2" font-family="'Arial'" font-size="9">E</text>
    <text fid="NS-F" transform="matrix(1 0 0 1 374.75 151.5449)" fill="#F2F2F2" font-family="'Arial'" font-size="9">F</text>
    <text fid="NS-G" transform="matrix(1 0 0 1 413.7422 151.5449)" fill="#F2F2F2" font-family="'Arial'" font-size="9">G</text>
    <text fid="NS-H" transform="matrix(1 0 0 1 444.5879 151.5449)" fill="#F2F2F2" font-family="'Arial'" font-size="9">H</text>
    <text fid="SSU-G" transform="matrix(1 0 0 1 191.1558 495.2119)" fill="#F2F2F2" font-family="'Arial'" font-size="9">G</text>
    <text fid="SSU-F" transform="matrix(1 0 0 1 225.894 495.2119)" fill="#F2F2F2" font-family="'Arial'" font-size="9">F</text>
    <text fid="SSU-D" transform="matrix(1 0 0 1 308.9189 495.2119)" fill="#F2F2F2" font-family="'Arial'" font-size="9">D</text>
    <text fid="SSW-SS3" transform="matrix(1 0 0 1 304.6084 454.4346)" fill="#F2F2F2" font-family="'Arial'" font-size="9">SS3</text>
    <text fid="SSU-C" transform="matrix(1 0 0 1 357.3379 495.2119)" fill="#F2F2F2" font-family="'Arial'" font-size="9">C</text>
    <text fid="SSU-B" transform="matrix(1 0 0 1 398.625 495.2119)" fill="#F2F2F2" font-family="'Arial'" font-size="9">B</text>
    <text fid="SSU-A" transform="matrix(1 0 0 1 427.916 495.2119)" fill="#F2F2F2" font-family="'Arial'" font-size="9">A</text>
    <text fid="CT1-CT2" transform="matrix(0 1 -1 0 493.4063 315.1616)" fill="#F2F2F2" font-family="'Arial'" font-size="9">CT2</text>
    <text fid="CT1-CT1" transform="matrix(0 1 -1 0 493.4063 236.043)" fill="#F2F2F2" font-family="'Arial'" font-size="9">CT1</text>
    <text fid="ESL-CT" transform="matrix(0 1 -1 0 523.8213 215.1411)" fill="#F2F2F2" font-family="'Arial'" font-size="14">CARNEGIE TERRACE</text>
    <text fid="ESU-N" transform="matrix(1 0 0 1 597.8779 357.2656)" fill="#F2F2F2" font-family="'Arial'" font-size="14">E</text>
    <text fid="ESU-M" transform="matrix(1 0 0 1 597.1152 327.2236)" fill="#F2F2F2" font-family="'Arial'" font-size="14">D</text>
    <text fid="ESU-L" transform="matrix(1 0 0 1 599.2695 286.5073)" fill="#F2F2F2" font-family="'Arial'" font-size="14">C</text>
    <text fid="ESU-K" transform="matrix(1 0 0 1 598.2578 240.3267)" fill="#F2F2F2" font-family="'Arial'" font-size="14">B</text>
    <text fid="ESU-J" transform="matrix(1 0 0 1 599.4072 202.0908)" fill="#F2F2F2" font-family="'Arial'" font-size="14">A</text>
    <text fid="CT1-CS5" transform="matrix(0 1 -1 0 568.2881 344.8428)" fill="#F2F2F2" font-family="'Arial'" font-size="9">CS5</text>
    <text fid="CT1-CS4" transform="matrix(0 1 -1 0 568.2881 189.6675)" fill="#F2F2F2" font-family="'Arial'" font-size="9">CS4</text>
    <rect x="247.04" y="448.274" fill="none" width="33.419" height="2.149"/>
    <rect x="247.04" y="503.742" fill="none" width="33.419" height="18.114"/>
    <rect x="343.879" y="448.274" fill="none" width="33.419" height="2.149"/>
    <rect x="343.879" y="503.742" fill="none" width="33.419" height="18.114"/>
    <rect x="295.194" y="447.283" fill="none" width="33.949" height="3.141"/>
    <g>
      <path fill="#333333" d="M228.067,101.887h-6.242V90.465h6.242V91.2h-5.445v4.32h5.141v0.734h-5.141v4.898h5.445V101.887z"/>
      <path fill="#333333" d="M235.677,101.887l-4.258-10.547h-0.063c0.042,0.646,0.063,1.308,0.063,1.984v8.563h-0.766V90.465h1.234
        l4.047,10.047h0.047l4.047-10.047h1.203v11.422h-0.805v-8.656c0-0.604,0.031-1.229,0.094-1.875h-0.063l-4.273,10.531H235.677z"/>
      <path fill="#333333" d="M250.7,101.887h-6.242V90.465h6.242V91.2h-5.445v4.32h5.141v0.734h-5.141v4.898h5.445V101.887z"/>
      <path fill="#333333" d="M254.083,96.911v4.977h-0.797V90.465h2.719c1.417,0,2.463,0.262,3.141,0.785
        c0.677,0.523,1.016,1.312,1.016,2.363c0,0.766-0.202,1.412-0.605,1.938c-0.404,0.526-1.017,0.904-1.84,1.133l3.102,5.203h-0.953
        l-2.945-4.977H254.083z M254.083,96.223h2.18c0.963,0,1.711-0.215,2.242-0.645s0.797-1.063,0.797-1.902
        c0-0.87-0.261-1.502-0.781-1.898c-0.521-0.396-1.37-0.594-2.547-0.594h-1.891V96.223z"/>
      <path fill="#333333" d="M268.294,97.856h-4.641l-1.594,4.031h-0.883l4.594-11.469h0.508l4.5,11.469h-0.898L268.294,97.856z
        M263.942,97.137h4.086l-1.555-4.117c-0.13-0.323-0.287-0.771-0.469-1.344c-0.141,0.5-0.294,0.953-0.461,1.359L263.942,97.137z"/>
      <path fill="#333333" d="M272.396,101.887V90.465h0.797v10.672h5.445v0.75H272.396z"/>
      <path fill="#333333" d="M289.278,96.067c0,1.917-0.503,3.366-1.508,4.348c-1.005,0.982-2.482,1.473-4.43,1.473h-2.734V90.465
        h3.086c1.823,0,3.209,0.477,4.16,1.43C288.803,92.848,289.278,94.239,289.278,96.067z M288.411,96.098
        c0-1.635-0.416-2.866-1.246-3.691c-0.831-0.825-2.051-1.238-3.66-1.238h-2.102v10.016h1.891
        C286.705,101.184,288.411,99.489,288.411,96.098z"/>
      <path fill="#333333" d="M304.364,101.887h-0.805l-6.766-10.141h-0.063c0.063,1.208,0.094,2.12,0.094,2.734v7.406h-0.766V90.465
        h0.797l6.758,10.125h0.047c-0.047-0.938-0.07-1.828-0.07-2.672v-7.453h0.773V101.887z"/>
      <path fill="#333333" d="M317.2,96.161c0,1.813-0.453,3.246-1.359,4.301s-2.156,1.582-3.75,1.582c-1.589,0-2.836-0.527-3.742-1.582
        s-1.359-2.493-1.359-4.316c0-1.817,0.457-3.249,1.371-4.293c0.914-1.044,2.163-1.566,3.746-1.566c1.594,0,2.841,0.525,3.742,1.574
        C316.75,92.91,317.2,94.343,317.2,96.161z M307.856,96.161c0,1.636,0.364,2.9,1.094,3.793c0.729,0.894,1.776,1.34,3.141,1.34
        c1.375,0,2.426-0.442,3.152-1.328c0.727-0.885,1.09-2.153,1.09-3.805c0-1.646-0.363-2.907-1.09-3.785
        c-0.727-0.877-1.772-1.316-3.137-1.316c-1.359,0-2.408,0.443-3.145,1.328C308.225,93.273,307.856,94.531,307.856,96.161z"/>
      <path fill="#333333" d="M320.622,96.911v4.977h-0.797V90.465h2.719c1.417,0,2.463,0.262,3.141,0.785
        c0.677,0.523,1.016,1.312,1.016,2.363c0,0.766-0.202,1.412-0.605,1.938c-0.404,0.526-1.017,0.904-1.84,1.133l3.102,5.203h-0.953
        l-2.945-4.977H320.622z M320.622,96.223h2.18c0.963,0,1.711-0.215,2.242-0.645s0.797-1.063,0.797-1.902
        c0-0.87-0.261-1.502-0.781-1.898c-0.521-0.396-1.37-0.594-2.547-0.594h-1.891V96.223z"/>
      <path fill="#333333" d="M332.31,101.887h-0.805V91.215h-3.711v-0.75h8.227v0.75h-3.711V101.887z"/>
      <path fill="#333333" d="M345.989,101.887h-0.805V96.27h-6.672v5.617h-0.797V90.465h0.797v5.07h6.672v-5.07h0.805V101.887z"/>
      <path fill="#333333" d="M359.685,98.942c0,0.953-0.352,1.708-1.051,2.266c-0.701,0.558-1.632,0.836-2.793,0.836
        c-1.396,0-2.467-0.154-3.211-0.461v-0.797c0.822,0.349,1.872,0.523,3.148,0.523c0.938,0,1.681-0.215,2.23-0.645
        c0.549-0.43,0.824-0.993,0.824-1.691c0-0.432-0.092-0.79-0.273-1.074c-0.184-0.284-0.479-0.543-0.891-0.777
        c-0.412-0.234-1.016-0.487-1.813-0.758c-1.167-0.401-1.973-0.834-2.418-1.301c-0.445-0.466-0.668-1.087-0.668-1.863
        c0-0.854,0.334-1.551,1.004-2.09c0.669-0.539,1.529-0.809,2.582-0.809c1.072,0,2.08,0.203,3.023,0.609l-0.289,0.688
        c-0.948-0.396-1.854-0.594-2.719-0.594c-0.844,0-1.516,0.195-2.016,0.586s-0.75,0.922-0.75,1.594c0,0.422,0.076,0.769,0.23,1.039
        c0.153,0.271,0.404,0.515,0.754,0.73c0.349,0.216,0.947,0.476,1.797,0.777c0.891,0.308,1.56,0.605,2.008,0.895
        c0.447,0.289,0.773,0.617,0.98,0.984C359.581,97.977,359.685,98.421,359.685,98.942z"/>
      <path fill="#333333" d="M365.075,101.887h-0.805V91.215h-3.711v-0.75h8.227v0.75h-3.711V101.887z"/>
      <path fill="#333333" d="M375.981,97.856h-4.641l-1.594,4.031h-0.883l4.594-11.469h0.508l4.5,11.469h-0.898L375.981,97.856z
        M371.63,97.137h4.086l-1.555-4.117c-0.131-0.323-0.287-0.771-0.469-1.344c-0.141,0.5-0.295,0.953-0.461,1.359L371.63,97.137z"/>
      <path fill="#333333" d="M388.388,101.887h-0.805l-6.766-10.141h-0.063c0.063,1.208,0.094,2.12,0.094,2.734v7.406h-0.766V90.465
        h0.797l6.758,10.125h0.047c-0.047-0.938-0.07-1.828-0.07-2.672v-7.453h0.773V101.887z"/>
      <path fill="#333333" d="M400.294,96.067c0,1.917-0.504,3.366-1.508,4.348c-1.006,0.982-2.482,1.473-4.43,1.473h-2.734V90.465
        h3.086c1.822,0,3.209,0.477,4.16,1.43C399.817,92.848,400.294,94.239,400.294,96.067z M399.427,96.098
        c0-1.635-0.416-2.866-1.246-3.691c-0.832-0.825-2.051-1.238-3.66-1.238h-2.102v10.016h1.891
        C397.72,101.184,399.427,99.489,399.427,96.098z"/>
    </g>
  </g>
</svg>