<svg>
<g id="PITCH">
	<rect x="160.961" y="181.582" fill="#74BE45" width="315.777" height="207.586"/>
	<rect x="174.354" y="186.745" fill="#149B49" width="13.398" height="202.423"/>
	<rect x="201.127" y="186.745" fill="#149B49" width="13.401" height="202.423"/>
	<rect x="227.907" y="186.745" fill="#149B49" width="13.396" height="202.423"/>
	<rect x="254.683" y="186.745" fill="#149B49" width="13.394" height="202.423"/>
	<rect x="281.459" y="186.745" fill="#149B49" width="13.391" height="202.423"/>
	<rect x="308.236" y="186.745" fill="#149B49" width="13.388" height="202.423"/>
	<rect x="335.016" y="186.745" fill="#149B49" width="13.389" height="202.423"/>
	<rect x="361.781" y="186.745" fill="#149B49" width="13.398" height="202.423"/>
	<rect x="388.559" y="186.745" fill="#149B49" width="13.396" height="202.423"/>
	<rect x="415.333" y="186.745" fill="#149B49" width="13.401" height="202.423"/>
	<rect x="442.111" y="186.745" fill="#149B49" width="13.408" height="202.423"/>
	<rect x="440.774" y="186.745" fill="#FFFFFF" width="0.749" height="202.423"/>
	<rect x="188.325" y="186.745" fill="#FFFFFF" width="0.75" height="202.423"/>
	<polygon fill="#FFFFFF" points="188.528,278.523 151,267.636 151.343,265.832 188.872,276.719 	"/>
	<polygon fill="#FFFFFF" points="151.343,310.083 151,308.279 188.528,297.392 188.872,299.191 	"/>
	<rect x="170.594" y="272.694" fill="#FFFFFF" width="1.499" height="30.544"/>
	<polygon fill="#FFFFFF" points="441.325,278.523 440.979,276.719 478.503,265.832 478.848,267.636 	"/>
	<polygon fill="#FFFFFF" points="478.503,310.083 440.979,299.191 441.325,297.392 478.848,308.279 	"/>
	<rect x="457.753" y="272.694" fill="#FFFFFF" width="1.503" height="30.544"/>
	<rect x="314.546" y="197.928" fill="#FFFFFF" width="0.751" height="178.876"/>
	<rect x="349.538" y="197.928" fill="#FFFFFF" width="0.743" height="178.876"/>
	<rect x="394.294" y="197.928" fill="#FFFFFF" width="0.749" height="178.876"/>
	<rect x="279.563" y="197.928" fill="#FFFFFF" width="0.75" height="178.876"/>
	<rect x="234.806" y="197.928" fill="#FFFFFF" width="0.749" height="178.876"/>
</g>
<g id="EXTRAS">
	<rect x="24.291" y="304.743" fill="#333333" width="10.396" height="44.121"/>
	<rect x="24.291" y="366.661" fill="#333333" width="10.396" height="44.122"/>
	<rect x="462.106" y="20.702" fill="#CCCCCC" width="68.986" height="91.683"/>
	
		<rect x="551.286" y="46.544" transform="matrix(0.7071 0.7071 -0.7071 0.7071 240.6189 -403.4665)" fill="#CCCCCC" width="112.11" height="84.357"/>
	<g>
		<path fill="#333333" d="M267.738,16.385L263.48,5.838h-0.063c0.042,0.646,0.063,1.307,0.063,1.984v8.563h-0.766V4.963h1.234
			l4.047,10.047h0.047l4.047-10.047h1.203v11.422h-0.805V7.729c0-0.604,0.031-1.229,0.094-1.875h-0.063l-4.273,10.531H267.738z"/>
		<path fill="#333333" d="M282.019,12.354h-4.641l-1.594,4.031h-0.883l4.594-11.469h0.508l4.5,11.469h-0.898L282.019,12.354z
			 M277.667,11.635h4.086l-1.555-4.117c-0.13-0.323-0.287-0.771-0.469-1.344c-0.141,0.5-0.294,0.953-0.461,1.359L277.667,11.635z"/>
		<path fill="#333333" d="M286.121,16.385V4.963h0.797v11.422H286.121z"/>
		<path fill="#333333" d="M298.457,16.385h-0.805l-6.766-10.141h-0.063c0.063,1.208,0.094,2.12,0.094,2.734v7.406h-0.766V4.963
			h0.797l6.758,10.125h0.047c-0.047-0.938-0.07-1.828-0.07-2.672V4.963h0.773V16.385z"/>
		<path fill="#333333" d="M312.152,13.44c0,0.953-0.35,1.708-1.051,2.266s-1.631,0.836-2.793,0.836
			c-1.396,0-2.466-0.154-3.211-0.461v-0.797c0.823,0.349,1.873,0.523,3.148,0.523c0.938,0,1.681-0.215,2.23-0.645
			s0.824-0.994,0.824-1.691c0-0.432-0.091-0.791-0.273-1.074s-0.479-0.543-0.891-0.777s-1.016-0.487-1.813-0.758
			c-1.167-0.401-1.973-0.834-2.418-1.301s-0.668-1.087-0.668-1.863c0-0.854,0.334-1.551,1.004-2.09s1.53-0.809,2.582-0.809
			c1.073,0,2.081,0.203,3.023,0.609l-0.289,0.688c-0.948-0.396-1.854-0.594-2.719-0.594c-0.844,0-1.516,0.195-2.016,0.586
			s-0.75,0.922-0.75,1.594c0,0.422,0.077,0.768,0.23,1.039s0.405,0.514,0.754,0.73s0.948,0.475,1.797,0.777
			c0.891,0.307,1.56,0.605,2.008,0.895s0.775,0.617,0.98,0.984S312.152,12.919,312.152,13.44z"/>
		<path fill="#333333" d="M317.542,16.385h-0.805V5.713h-3.711v-0.75h8.227v0.75h-3.711V16.385z"/>
		<path fill="#333333" d="M328.449,12.354h-4.641l-1.594,4.031h-0.883l4.594-11.469h0.508l4.5,11.469h-0.898L328.449,12.354z
			 M324.097,11.635h4.086l-1.555-4.117c-0.13-0.323-0.287-0.771-0.469-1.344c-0.141,0.5-0.294,0.953-0.461,1.359L324.097,11.635z"/>
		<path fill="#333333" d="M340.855,16.385h-0.805l-6.766-10.141h-0.063c0.063,1.208,0.094,2.12,0.094,2.734v7.406h-0.766V4.963
			h0.797l6.758,10.125h0.047c-0.047-0.938-0.07-1.828-0.07-2.672V4.963h0.773V16.385z"/>
		<path fill="#333333" d="M352.761,10.565c0,1.917-0.502,3.366-1.508,4.348c-1.005,0.982-2.481,1.473-4.43,1.473h-2.733V4.963h3.085
			c1.823,0,3.21,0.477,4.16,1.43C352.286,7.346,352.761,8.737,352.761,10.565z M351.894,10.596c0-1.635-0.415-2.866-1.246-3.691
			c-0.83-0.826-2.051-1.238-3.66-1.238h-2.101v10.016h1.89C350.188,15.682,351.894,13.987,351.894,10.596z"/>
	</g>
	<g>
		<path fill="#333333" d="M252.513,113.736c0,1.104-0.375,1.951-1.125,2.539s-1.813,0.883-3.188,0.883h-1.766v4.719h-0.797v-11.422
			h2.797C251.154,110.455,252.513,111.548,252.513,113.736z M246.435,116.47h1.57c1.287,0,2.216-0.212,2.789-0.637
			s0.859-1.113,0.859-2.066c0-0.88-0.271-1.533-0.813-1.957s-1.38-0.637-2.516-0.637h-1.891V116.47z"/>
		<path fill="#333333" d="M260.498,117.845h-4.641l-1.594,4.031h-0.883l4.594-11.469h0.508l4.5,11.469h-0.898L260.498,117.845z
			 M256.146,117.126h4.086l-1.555-4.117c-0.13-0.323-0.287-0.771-0.469-1.344c-0.141,0.5-0.294,0.953-0.461,1.359L256.146,117.126z"
			/>
		<path fill="#333333" d="M273.271,116.056c0,1.917-0.502,3.366-1.508,4.348s-2.482,1.473-4.43,1.473h-2.734v-11.422h3.086
			c1.823,0,3.209,0.477,4.16,1.43S273.271,114.228,273.271,116.056z M272.404,116.087c0-1.635-0.416-2.866-1.246-3.691
			s-2.051-1.238-3.66-1.238h-2.102v10.016h1.891C270.698,121.173,272.404,119.478,272.404,116.087z"/>
		<path fill="#333333" d="M284.568,116.056c0,1.917-0.502,3.366-1.508,4.348s-2.482,1.473-4.43,1.473h-2.734v-11.422h3.086
			c1.823,0,3.209,0.477,4.16,1.43S284.568,114.228,284.568,116.056z M283.701,116.087c0-1.635-0.416-2.866-1.246-3.691
			s-2.051-1.238-3.66-1.238h-2.102v10.016h1.891C281.995,121.173,283.701,119.478,283.701,116.087z"/>
		<path fill="#333333" d="M296.794,116.15c0,1.813-0.453,3.246-1.359,4.301s-2.156,1.582-3.75,1.582
			c-1.588,0-2.836-0.527-3.742-1.582s-1.359-2.494-1.359-4.316c0-1.818,0.457-3.249,1.371-4.293s2.163-1.566,3.746-1.566
			c1.594,0,2.841,0.525,3.742,1.574S296.794,114.332,296.794,116.15z M287.451,116.15c0,1.635,0.365,2.9,1.094,3.793
			s1.776,1.34,3.141,1.34c1.375,0,2.426-0.443,3.152-1.328s1.09-2.154,1.09-3.805c0-1.646-0.363-2.908-1.09-3.785
			s-1.772-1.316-3.137-1.316c-1.359,0-2.408,0.443-3.145,1.328S287.451,114.52,287.451,116.15z"/>
		<path fill="#333333" d="M304.294,111.009c-1.432,0-2.56,0.458-3.383,1.375s-1.234,2.172-1.234,3.766
			c0,1.63,0.388,2.896,1.164,3.797s1.885,1.352,3.328,1.352c0.958,0,1.838-0.123,2.641-0.367v0.703
			c-0.755,0.266-1.698,0.398-2.828,0.398c-1.604,0-2.867-0.518-3.789-1.555s-1.383-2.484-1.383-4.344c0-1.162,0.22-2.185,0.66-3.07
			s1.073-1.569,1.898-2.051s1.785-0.723,2.879-0.723c1.115,0,2.112,0.208,2.992,0.625l-0.32,0.719
			C306.086,111.218,305.211,111.009,304.294,111.009z"/>
		<path fill="#333333" d="M317.037,121.876h-0.977l-4.383-6.031l-1.523,1.344v4.688h-0.797v-11.422h0.797v5.938l1.266-1.266
			l4.477-4.672h1.016l-4.68,4.828L317.037,121.876z"/>
		<path fill="#333333" d="M329.115,118.931c0,0.953-0.35,1.708-1.051,2.266s-1.631,0.836-2.793,0.836
			c-1.396,0-2.466-0.154-3.211-0.461v-0.797c0.823,0.349,1.873,0.523,3.148,0.523c0.938,0,1.681-0.215,2.23-0.645
			s0.824-0.994,0.824-1.691c0-0.432-0.091-0.791-0.273-1.074s-0.479-0.543-0.891-0.777s-1.016-0.487-1.813-0.758
			c-1.167-0.401-1.973-0.834-2.418-1.301s-0.668-1.087-0.668-1.863c0-0.854,0.334-1.551,1.004-2.09s1.53-0.809,2.582-0.809
			c1.073,0,2.081,0.203,3.023,0.609l-0.289,0.688c-0.948-0.396-1.854-0.594-2.719-0.594c-0.844,0-1.516,0.195-2.016,0.586
			s-0.75,0.922-0.75,1.594c0,0.422,0.077,0.768,0.23,1.039s0.405,0.514,0.754,0.73s0.948,0.475,1.797,0.777
			c0.891,0.307,1.56,0.605,2.008,0.895s0.775,0.617,0.98,0.984S329.115,118.41,329.115,118.931z"/>
		<path fill="#333333" d="M334.505,121.876h-0.805v-10.672h-3.711v-0.75h8.227v0.75h-3.711V121.876z"/>
		<path fill="#333333" d="M345.411,117.845h-4.64l-1.594,4.031h-0.883l4.594-11.469h0.508l4.499,11.469h-0.898L345.411,117.845z
			 M341.06,117.126h4.086l-1.555-4.117c-0.131-0.323-0.287-0.771-0.469-1.344c-0.141,0.5-0.295,0.953-0.461,1.359L341.06,117.126z"
			/>
		<path fill="#333333" d="M357.817,121.876h-0.805l-6.766-10.141h-0.063c0.063,1.208,0.094,2.12,0.094,2.734v7.406h-0.766v-11.422
			h0.797l6.758,10.125h0.047c-0.047-0.938-0.07-1.828-0.07-2.672v-7.453h0.773V121.876z"/>
		<path fill="#333333" d="M369.724,116.056c0,1.917-0.503,3.366-1.508,4.348s-2.481,1.473-4.43,1.473h-2.734v-11.422h3.086
			c1.823,0,3.21,0.477,4.16,1.43S369.724,114.228,369.724,116.056z M368.856,116.087c0-1.635-0.415-2.866-1.246-3.691
			s-2.051-1.238-3.66-1.238h-2.102v10.016h1.891C367.15,121.173,368.856,119.478,368.856,116.087z"/>
	</g>
	<g>
		<path fill="#333333" d="M262.313,550.068c0,0.953-0.35,1.708-1.051,2.266s-1.631,0.836-2.793,0.836
			c-1.396,0-2.466-0.153-3.211-0.461v-0.797c0.823,0.349,1.873,0.523,3.148,0.523c0.938,0,1.681-0.215,2.23-0.645
			s0.824-0.993,0.824-1.691c0-0.433-0.091-0.79-0.273-1.074s-0.479-0.543-0.891-0.777s-1.016-0.487-1.813-0.758
			c-1.167-0.401-1.973-0.835-2.418-1.301s-0.668-1.087-0.668-1.863c0-0.854,0.334-1.551,1.004-2.09s1.53-0.809,2.582-0.809
			c1.073,0,2.081,0.203,3.023,0.609l-0.289,0.688c-0.948-0.396-1.854-0.594-2.719-0.594c-0.844,0-1.516,0.195-2.016,0.586
			s-0.75,0.922-0.75,1.594c0,0.422,0.077,0.769,0.23,1.039s0.405,0.515,0.754,0.73s0.948,0.476,1.797,0.777
			c0.891,0.308,1.56,0.605,2.008,0.895s0.775,0.617,0.98,0.984S262.313,549.548,262.313,550.068z"/>
		<path fill="#333333" d="M274.329,547.287c0,1.813-0.453,3.246-1.359,4.301s-2.156,1.582-3.75,1.582
			c-1.588,0-2.836-0.527-3.742-1.582s-1.359-2.493-1.359-4.316c0-1.817,0.457-3.249,1.371-4.293s2.163-1.566,3.746-1.566
			c1.594,0,2.841,0.524,3.742,1.574S274.329,545.47,274.329,547.287z M264.985,547.287c0,1.636,0.365,2.899,1.094,3.793
			s1.776,1.34,3.141,1.34c1.375,0,2.426-0.442,3.152-1.328s1.09-2.153,1.09-3.805c0-1.646-0.363-2.907-1.09-3.785
			s-1.772-1.316-3.137-1.316c-1.359,0-2.408,0.442-3.145,1.328S264.985,545.657,264.985,547.287z"/>
		<path fill="#333333" d="M285.352,541.592v7.391c0,1.313-0.38,2.339-1.141,3.078s-1.82,1.109-3.18,1.109
			c-1.323,0-2.355-0.371-3.098-1.113s-1.113-1.777-1.113-3.105v-7.359h0.805v7.391c0,1.099,0.305,1.954,0.914,2.566
			s1.471,0.918,2.586,0.918c1.088,0,1.932-0.301,2.531-0.902s0.898-1.437,0.898-2.504v-7.469H285.352z"/>
		<path fill="#333333" d="M291.438,553.014h-0.805v-10.672h-3.711v-0.75h8.227v0.75h-3.711V553.014z"/>
		<path fill="#333333" d="M305.118,553.014h-0.805v-5.617h-6.672v5.617h-0.797v-11.422h0.797v5.07h6.672v-5.07h0.805V553.014z"/>
		<path fill="#333333" d="M318.813,550.068c0,0.953-0.35,1.708-1.051,2.266s-1.631,0.836-2.793,0.836
			c-1.396,0-2.466-0.153-3.211-0.461v-0.797c0.823,0.349,1.873,0.523,3.148,0.523c0.938,0,1.681-0.215,2.23-0.645
			s0.824-0.993,0.824-1.691c0-0.433-0.091-0.79-0.273-1.074s-0.479-0.543-0.891-0.777s-1.016-0.487-1.813-0.758
			c-1.167-0.401-1.973-0.835-2.418-1.301s-0.668-1.087-0.668-1.863c0-0.854,0.334-1.551,1.004-2.09s1.53-0.809,2.582-0.809
			c1.073,0,2.081,0.203,3.023,0.609l-0.289,0.688c-0.948-0.396-1.854-0.594-2.719-0.594c-0.844,0-1.516,0.195-2.016,0.586
			s-0.75,0.922-0.75,1.594c0,0.422,0.077,0.769,0.23,1.039s0.405,0.515,0.754,0.73s0.948,0.476,1.797,0.777
			c0.891,0.308,1.56,0.605,2.008,0.895s0.775,0.617,0.98,0.984S318.813,549.548,318.813,550.068z"/>
		<path fill="#333333" d="M324.204,553.014h-0.805v-10.672h-3.711v-0.75h8.227v0.75h-3.711V553.014z"/>
		<path fill="#333333" d="M335.11,548.982h-4.641l-1.594,4.031h-0.883l4.594-11.469h0.508l4.5,11.469h-0.898L335.11,548.982z
			 M330.758,548.264h4.086l-1.555-4.117c-0.13-0.323-0.287-0.771-0.469-1.344c-0.141,0.5-0.294,0.953-0.461,1.359L330.758,548.264z"
			/>
		<path fill="#333333" d="M347.517,553.014h-0.805l-6.766-10.141h-0.063c0.063,1.208,0.094,2.12,0.094,2.734v7.406h-0.766v-11.422
			h0.797l6.758,10.125h0.047c-0.047-0.938-0.07-1.828-0.07-2.672v-7.453h0.773V553.014z"/>
		<path fill="#333333" d="M359.423,547.193c0,1.917-0.503,3.366-1.508,4.348s-2.481,1.473-4.43,1.473h-2.734v-11.422h3.086
			c1.823,0,3.21,0.477,4.16,1.43S359.423,545.365,359.423,547.193z M358.556,547.225c0-1.636-0.415-2.866-1.246-3.691
			s-2.051-1.238-3.66-1.238h-2.102v10.016h1.891C356.85,552.311,358.556,550.615,358.556,547.225z"/>
	</g>
	<g>
		<path fill="#333333" d="M18.558,392.968v0.805H7.886v3.711h-0.75v-8.227h0.75v3.711H18.558z"/>
		<path fill="#333333" d="M7.136,380.812v-0.867l11.422,4.273v0.703l-11.422,4.258v-0.852l7.773-2.875
			c1.172-0.438,2.052-0.731,2.641-0.883c-0.391-0.104-0.997-0.31-1.82-0.617L7.136,380.812z"/>
	</g>
	<g>
		<path fill="#333333" d="M15.612,340.942c0.953,0,1.708,0.351,2.266,1.051c0.558,0.7,0.836,1.632,0.836,2.793
			c0,1.396-0.154,2.466-0.461,3.211h-0.797c0.349-0.823,0.523-1.872,0.523-3.148c0-0.938-0.215-1.681-0.645-2.23
			s-0.993-0.824-1.691-0.824c-0.432,0-0.79,0.091-1.074,0.273c-0.284,0.183-0.543,0.479-0.777,0.891s-0.487,1.016-0.758,1.813
			c-0.401,1.167-0.834,1.973-1.301,2.418c-0.466,0.445-1.087,0.668-1.863,0.668c-0.854,0-1.551-0.335-2.09-1.004
			s-0.809-1.53-0.809-2.582c0-1.073,0.203-2.081,0.609-3.023l0.688,0.289c-0.396,0.948-0.594,1.854-0.594,2.719
			c0,0.844,0.195,1.516,0.586,2.016s0.922,0.75,1.594,0.75c0.422,0,0.769-0.077,1.039-0.23c0.271-0.153,0.515-0.405,0.73-0.754
			c0.216-0.349,0.476-0.948,0.777-1.797c0.308-0.891,0.605-1.56,0.895-2.008s0.617-0.774,0.984-0.98S15.092,340.942,15.612,340.942z
			"/>
		<path fill="#333333" d="M7.69,333.653c0,1.433,0.458,2.56,1.375,3.383c0.917,0.823,2.172,1.234,3.766,1.234
			c1.63,0,2.896-0.388,3.797-1.164c0.901-0.776,1.352-1.886,1.352-3.328c0-0.958-0.122-1.839-0.367-2.641h0.703
			c0.266,0.755,0.398,1.698,0.398,2.828c0,1.604-0.518,2.867-1.555,3.789c-1.036,0.922-2.484,1.383-4.344,1.383
			c-1.161,0-2.185-0.22-3.07-0.66c-0.885-0.44-1.569-1.073-2.051-1.898c-0.481-0.825-0.723-1.785-0.723-2.879
			c0-1.114,0.208-2.112,0.625-2.992l0.719,0.32C7.899,331.861,7.69,332.736,7.69,333.653z"/>
		<path fill="#333333" d="M12.831,318.989c1.813,0,3.246,0.453,4.301,1.359s1.582,2.156,1.582,3.75c0,1.589-0.527,2.836-1.582,3.742
			s-2.493,1.359-4.316,1.359c-1.817,0-3.249-0.457-4.293-1.371c-1.044-0.914-1.566-2.163-1.566-3.746
			c0-1.594,0.525-2.841,1.574-3.742C9.58,319.439,11.014,318.989,12.831,318.989z M12.831,328.333c1.636,0,2.9-0.364,3.793-1.094
			c0.894-0.729,1.34-1.776,1.34-3.141c0-1.375-0.442-2.426-1.328-3.152c-0.885-0.727-2.153-1.09-3.805-1.09
			c-1.646,0-2.907,0.363-3.785,1.09c-0.877,0.727-1.316,1.772-1.316,3.137c0,1.359,0.443,2.407,1.328,3.145
			C9.943,327.965,11.201,328.333,12.831,328.333z"/>
		<path fill="#333333" d="M13.581,315.567h4.977v0.797H7.136v-2.719c0-1.417,0.262-2.464,0.785-3.141s1.312-1.016,2.363-1.016
			c0.766,0,1.412,0.202,1.938,0.605c0.526,0.404,0.904,1.017,1.133,1.84l5.203-3.102v0.953l-4.977,2.945V315.567z M12.894,315.567
			v-2.18c0-0.964-0.215-1.711-0.645-2.242s-1.063-0.797-1.902-0.797c-0.87,0-1.502,0.261-1.898,0.781
			c-0.396,0.521-0.594,1.37-0.594,2.547v1.891H12.894z"/>
		<path fill="#333333" d="M18.558,300.614v6.242H7.136v-6.242H7.87v5.445h4.32v-5.141h0.734v5.141h4.898v-5.445H18.558z"/>
		<path fill="#333333" d="M7.136,298.028v-3.133c0-1.411,0.24-2.448,0.719-3.109c0.479-0.661,1.203-0.992,2.172-0.992
			c0.662,0,1.212,0.202,1.652,0.605c0.44,0.404,0.723,0.994,0.848,1.77h0.047c0.136-0.911,0.423-1.582,0.863-2.012
			c0.44-0.43,1.054-0.645,1.84-0.645c1.052,0,1.862,0.349,2.43,1.047c0.568,0.698,0.852,1.688,0.852,2.969v3.5H7.136z
			 M12.222,297.231v-2.516c0-1.073-0.178-1.853-0.535-2.34c-0.356-0.487-0.915-0.73-1.676-0.73c-0.76,0-1.313,0.275-1.656,0.824
			c-0.344,0.55-0.516,1.369-0.516,2.457v2.305H12.222z M12.925,297.231h4.93v-2.688c0-2.114-0.859-3.172-2.578-3.172
			c-1.567,0-2.352,1.115-2.352,3.344V297.231z"/>
		<path fill="#333333" d="M12.831,278.396c1.813,0,3.246,0.453,4.301,1.359s1.582,2.156,1.582,3.75c0,1.589-0.527,2.836-1.582,3.742
			s-2.493,1.359-4.316,1.359c-1.817,0-3.249-0.457-4.293-1.371c-1.044-0.914-1.566-2.163-1.566-3.746
			c0-1.594,0.525-2.841,1.574-3.742C9.58,278.846,11.014,278.396,12.831,278.396z M12.831,287.739c1.636,0,2.9-0.364,3.793-1.094
			c0.894-0.729,1.34-1.776,1.34-3.141c0-1.375-0.442-2.426-1.328-3.152c-0.885-0.727-2.153-1.09-3.805-1.09
			c-1.646,0-2.907,0.363-3.785,1.09c-0.877,0.727-1.316,1.772-1.316,3.137c0,1.359,0.443,2.408,1.328,3.145
			C9.943,287.371,11.201,287.739,12.831,287.739z"/>
		<path fill="#333333" d="M14.526,270.271v4.641l4.031,1.594v0.883l-11.469-4.594v-0.508l11.469-4.5v0.898L14.526,270.271z
			 M13.808,274.622v-4.086l-4.117,1.555c-0.323,0.13-0.771,0.287-1.344,0.469c0.5,0.141,0.953,0.294,1.359,0.461L13.808,274.622z"/>
		<path fill="#333333" d="M13.581,265.372h4.977v0.797H7.136v-2.719c0-1.417,0.262-2.463,0.785-3.141
			c0.523-0.677,1.312-1.016,2.363-1.016c0.766,0,1.412,0.202,1.938,0.605c0.526,0.404,0.904,1.017,1.133,1.84l5.203-3.102v0.953
			l-4.977,2.945V265.372z M12.894,265.372v-2.18c0-0.963-0.215-1.711-0.645-2.242s-1.063-0.797-1.902-0.797
			c-0.87,0-1.502,0.261-1.898,0.781c-0.396,0.521-0.594,1.37-0.594,2.547v1.891H12.894z"/>
		<path fill="#333333" d="M12.737,247.989c1.917,0,3.366,0.503,4.348,1.508c0.982,1.005,1.473,2.482,1.473,4.43v2.734H7.136v-3.086
			c0-1.823,0.477-3.209,1.43-4.16C9.519,248.465,10.909,247.989,12.737,247.989z M12.769,248.856c-1.635,0-2.866,0.416-3.691,1.246
			c-0.825,0.831-1.238,2.051-1.238,3.66v2.102h10.016v-1.891C17.854,250.563,16.159,248.856,12.769,248.856z"/>
	</g>
	<g>
		<path fill="#333333" d="M68.845,142.981h-0.656l-2.508-8.813c-0.208-0.724-0.365-1.317-0.469-1.781
			c-0.083,0.453-0.202,0.974-0.355,1.563c-0.154,0.589-0.994,3.599-2.52,9.031h-0.672l-3.141-11.422h0.836l2,7.359
			c0.078,0.297,0.151,0.572,0.219,0.824c0.068,0.253,0.129,0.49,0.184,0.711c0.055,0.222,0.104,0.435,0.148,0.641
			c0.044,0.206,0.084,0.413,0.121,0.621c0.125-0.708,0.391-1.784,0.797-3.227l1.953-6.93h0.883l2.289,7.953
			c0.266,0.917,0.456,1.656,0.57,2.219c0.068-0.375,0.155-0.773,0.262-1.195s0.91-3.414,2.41-8.977h0.805L68.845,142.981z"/>
		<path fill="#333333" d="M80.259,142.981h-6.242V131.56h6.242v0.734h-5.445v4.32h5.141v0.734h-5.141v4.898h5.445V142.981z"/>
		<path fill="#333333" d="M89.15,140.036c0,0.953-0.35,1.708-1.051,2.266c-0.701,0.558-1.631,0.836-2.793,0.836
			c-1.396,0-2.466-0.154-3.211-0.461v-0.797c0.823,0.349,1.873,0.523,3.148,0.523c0.938,0,1.681-0.215,2.23-0.645
			s0.824-0.993,0.824-1.691c0-0.432-0.091-0.79-0.273-1.074c-0.182-0.284-0.479-0.543-0.891-0.777s-1.016-0.487-1.813-0.758
			c-1.167-0.401-1.973-0.834-2.418-1.301c-0.445-0.466-0.668-1.087-0.668-1.863c0-0.854,0.334-1.551,1.004-2.09
			s1.53-0.809,2.582-0.809c1.073,0,2.081,0.203,3.023,0.609l-0.289,0.688c-0.948-0.396-1.854-0.594-2.719-0.594
			c-0.844,0-1.516,0.195-2.016,0.586s-0.75,0.922-0.75,1.594c0,0.422,0.077,0.769,0.23,1.039c0.154,0.271,0.405,0.515,0.754,0.73
			c0.349,0.216,0.948,0.476,1.797,0.777c0.891,0.308,1.56,0.605,2.008,0.895s0.775,0.617,0.98,0.984S89.15,139.516,89.15,140.036z"
			/>
		<path fill="#333333" d="M94.541,142.981h-0.805V132.31h-3.711v-0.75h8.227v0.75h-3.711V142.981z"/>
		<path fill="#333333" d="M106.189,142.981h-6.242V131.56h6.242v0.734h-5.445v4.32h5.141v0.734h-5.141v4.898h5.445V142.981z"/>
		<path fill="#333333" d="M109.572,138.005v4.977h-0.797V131.56h2.719c1.417,0,2.463,0.262,3.141,0.785s1.016,1.312,1.016,2.363
			c0,0.766-0.202,1.412-0.605,1.938c-0.404,0.526-1.017,0.904-1.84,1.133l3.102,5.203h-0.953l-2.945-4.977H109.572z
			 M109.572,137.317h2.18c0.963,0,1.711-0.215,2.242-0.645s0.797-1.063,0.797-1.902c0-0.87-0.26-1.502-0.781-1.898
			c-0.521-0.396-1.37-0.594-2.547-0.594h-1.891V137.317z"/>
		<path fill="#333333" d="M126.587,142.981h-0.805l-6.766-10.141h-0.063c0.063,1.208,0.094,2.12,0.094,2.734v7.406h-0.766V131.56
			h0.797l6.758,10.125h0.047c-0.047-0.938-0.07-1.828-0.07-2.672v-7.453h0.773V142.981z"/>
		<path fill="#333333" d="M65.462,156.741h-0.805v-10.672h-3.711v-0.75h8.227v0.75h-3.711V156.741z"/>
		<path fill="#333333" d="M77.111,156.741h-6.242v-11.422h6.242v0.734h-5.445v4.32h5.141v0.734h-5.141v4.898h5.445V156.741z"/>
		<path fill="#333333" d="M80.494,151.765v4.977h-0.797v-11.422h2.719c1.417,0,2.463,0.262,3.141,0.785s1.016,1.312,1.016,2.363
			c0,0.766-0.202,1.412-0.605,1.938c-0.404,0.526-1.017,0.904-1.84,1.133l3.102,5.203h-0.953l-2.945-4.977H80.494z M80.494,151.077
			h2.18c0.963,0,1.711-0.215,2.242-0.645s0.797-1.063,0.797-1.902c0-0.87-0.26-1.502-0.781-1.898
			c-0.521-0.396-1.37-0.594-2.547-0.594h-1.891V151.077z"/>
		<path fill="#333333" d="M90.001,151.765v4.977h-0.797v-11.422h2.719c1.417,0,2.463,0.262,3.141,0.785s1.016,1.312,1.016,2.363
			c0,0.766-0.202,1.412-0.605,1.938c-0.404,0.526-1.017,0.904-1.84,1.133l3.102,5.203h-0.953l-2.945-4.977H90.001z M90.001,151.077
			h2.18c0.963,0,1.711-0.215,2.242-0.645s0.797-1.063,0.797-1.902c0-0.87-0.26-1.502-0.781-1.898
			c-0.521-0.396-1.37-0.594-2.547-0.594h-1.891V151.077z"/>
		<path fill="#333333" d="M104.212,152.71h-4.641l-1.594,4.031h-0.883l4.594-11.469h0.508l4.5,11.469h-0.898L104.212,152.71z
			 M99.861,151.991h4.086l-1.555-4.117c-0.13-0.323-0.287-0.771-0.469-1.344c-0.141,0.5-0.294,0.953-0.461,1.359L99.861,151.991z"/>
		<path fill="#333333" d="M113.189,145.874c-1.432,0-2.56,0.458-3.383,1.375c-0.823,0.917-1.234,2.172-1.234,3.766
			c0,1.63,0.388,2.896,1.164,3.797c0.776,0.901,1.885,1.352,3.328,1.352c0.958,0,1.838-0.122,2.641-0.367v0.703
			c-0.755,0.266-1.698,0.398-2.828,0.398c-1.604,0-2.867-0.518-3.789-1.555c-0.922-1.036-1.383-2.484-1.383-4.344
			c0-1.161,0.22-2.185,0.66-3.07c0.44-0.885,1.073-1.569,1.898-2.051c0.826-0.481,1.785-0.723,2.879-0.723
			c1.115,0,2.112,0.208,2.992,0.625l-0.32,0.719C114.98,146.083,114.105,145.874,113.189,145.874z"/>
		<path fill="#333333" d="M124.494,156.741h-6.242v-11.422h6.242v0.734h-5.445v4.32h5.141v0.734h-5.141v4.898h5.445V156.741z"/>
	</g>
	<g>
		<path fill="#F5F5F5" d="M474.178,63.536c0,0.966-0.328,1.707-0.984,2.222s-1.586,0.772-2.789,0.772h-1.545v4.129h-0.697v-9.994
			h2.447C472.988,60.665,474.178,61.622,474.178,63.536z M468.859,65.929h1.374c1.126,0,1.939-0.186,2.44-0.557
			s0.752-0.974,0.752-1.808c0-0.77-0.237-1.341-0.711-1.712s-1.208-0.557-2.201-0.557h-1.654V65.929z"/>
		<path fill="#F5F5F5" d="M481.164,67.132h-4.061l-1.395,3.527h-0.772l4.02-10.035h0.444l3.938,10.035h-0.786L481.164,67.132z
			 M477.356,66.503h3.575l-1.36-3.603c-0.114-0.283-0.251-0.674-0.41-1.176c-0.123,0.438-0.258,0.834-0.403,1.189L477.356,66.503z"
			/>
		<path fill="#F5F5F5" d="M490.659,60.665h0.759l-3.739,9.994h-0.615l-3.726-9.994h0.745l2.516,6.802
			c0.383,1.025,0.641,1.795,0.772,2.311c0.091-0.342,0.271-0.873,0.54-1.593L490.659,60.665z"/>
		<path fill="#F5F5F5" d="M492.833,70.659v-9.994h0.697v9.994H492.833z"/>
		<path fill="#F5F5F5" d="M496.36,70.659v-9.994h0.697v9.338h4.765v0.656H496.36z"/>
		<path fill="#F5F5F5" d="M503.545,70.659v-9.994h0.697v9.994H503.545z"/>
		<path fill="#F5F5F5" d="M515.474,65.648c0,1.586-0.396,2.84-1.189,3.763s-1.887,1.384-3.281,1.384
			c-1.39,0-2.481-0.461-3.274-1.384s-1.189-2.182-1.189-3.777c0-1.59,0.4-2.843,1.199-3.756c0.801-0.914,1.893-1.371,3.278-1.371
			c1.395,0,2.486,0.459,3.274,1.377S515.474,64.058,515.474,65.648z M507.298,65.648c0,1.431,0.319,2.537,0.957,3.319
			s1.554,1.172,2.748,1.172c1.203,0,2.122-0.387,2.759-1.162c0.635-0.775,0.953-1.884,0.953-3.329c0-1.44-0.318-2.544-0.953-3.312
			c-0.637-0.768-1.551-1.152-2.745-1.152c-1.189,0-2.106,0.387-2.751,1.162C507.62,63.122,507.298,64.222,507.298,65.648z"/>
		<path fill="#F5F5F5" d="M525.037,70.659h-0.704l-5.92-8.873h-0.055c0.055,1.057,0.082,1.855,0.082,2.393v6.48h-0.67v-9.994h0.697
			l5.913,8.859h0.041c-0.041-0.82-0.062-1.6-0.062-2.338v-6.521h0.677V70.659z"/>
	</g>
	<g>
		<path fill="#F5F5F5" d="M598.402,52.697c-0.887-0.886-1.867-1.301-2.943-1.243c-1.076,0.059-2.107,0.58-3.094,1.566
			c-1.008,1.009-1.551,2.032-1.629,3.069s0.33,2.003,1.223,2.896c0.594,0.593,1.213,1.062,1.861,1.406l-0.436,0.435
			c-0.631-0.303-1.297-0.804-1.996-1.503c-0.992-0.993-1.453-2.094-1.383-3.307c0.072-1.211,0.682-2.393,1.832-3.543
			c0.719-0.719,1.488-1.215,2.309-1.491c0.82-0.275,1.635-0.307,2.443-0.094c0.809,0.212,1.551,0.657,2.229,1.333
			c0.689,0.69,1.178,1.436,1.465,2.238l-0.643,0.247C599.381,53.934,598.969,53.264,598.402,52.697z"/>
		<path fill="#F5F5F5" d="M594.811,62.553l7.066-7.067l0.494,0.493l-6.604,6.603l3.369,3.369l-0.463,0.464L594.811,62.553z"/>
		<path fill="#F5F5F5" d="M612.154,65.762l-4.572,4.573c-0.813,0.812-1.684,1.211-2.609,1.199c-0.93-0.013-1.814-0.44-2.654-1.281
			c-0.818-0.818-1.229-1.687-1.229-2.605c0-0.917,0.41-1.789,1.232-2.61l4.553-4.553l0.498,0.498l-4.572,4.573
			c-0.68,0.68-1.02,1.398-1.021,2.153c-0.002,0.756,0.342,1.478,1.031,2.168c0.674,0.673,1.383,1.009,2.125,1.007
			c0.742-0.001,1.445-0.332,2.105-0.993l4.621-4.621L612.154,65.762z"/>
		<path fill="#F5F5F5" d="M614.078,67.686l1.938,1.938c0.875,0.874,1.367,1.663,1.48,2.369c0.113,0.707-0.131,1.358-0.73,1.958
			c-0.408,0.409-0.875,0.625-1.396,0.647c-0.521,0.023-1.063-0.167-1.619-0.57l-0.029,0.029c0.48,0.648,0.717,1.241,0.711,1.779
			c-0.006,0.538-0.254,1.05-0.74,1.537c-0.65,0.651-1.367,0.937-2.15,0.856c-0.783-0.08-1.57-0.517-2.363-1.31l-2.166-2.166
			L614.078,67.686z M610.99,71.761l-3.051,3.05l1.662,1.663c1.309,1.309,2.496,1.431,3.559,0.368
			c0.971-0.97,0.766-2.145-0.613-3.524L610.99,71.761z M611.424,71.326l1.557,1.557c0.664,0.664,1.258,1.036,1.779,1.117
			c0.521,0.08,1.018-0.115,1.488-0.586c0.471-0.47,0.643-0.982,0.516-1.534c-0.127-0.553-0.527-1.167-1.201-1.84l-1.426-1.426
			L611.424,71.326z"/>
		<path fill="#F5F5F5" d="M621.514,85.61c-0.59,0.59-1.273,0.84-2.053,0.751s-1.527-0.493-2.246-1.211
			c-0.863-0.863-1.43-1.621-1.701-2.271l0.494-0.493c0.293,0.725,0.834,1.483,1.623,2.272c0.58,0.58,1.174,0.907,1.779,0.981
			c0.605,0.074,1.125-0.105,1.557-0.537c0.268-0.268,0.432-0.546,0.496-0.833c0.063-0.288,0.039-0.632-0.07-1.032
			c-0.109-0.4-0.328-0.93-0.654-1.591c-0.473-0.97-0.703-1.737-0.689-2.3c0.012-0.565,0.258-1.087,0.738-1.567
			c0.529-0.528,1.168-0.752,1.914-0.672c0.748,0.081,1.447,0.446,2.098,1.097c0.664,0.664,1.162,1.413,1.494,2.248l-0.604,0.246
			c-0.342-0.831-0.779-1.514-1.314-2.049c-0.523-0.522-1.059-0.816-1.609-0.884c-0.553-0.068-1.035,0.106-1.451,0.522
			c-0.26,0.261-0.428,0.523-0.5,0.785c-0.072,0.263-0.068,0.569,0.014,0.918c0.084,0.351,0.293,0.881,0.631,1.593
			c0.361,0.741,0.592,1.34,0.689,1.796c0.098,0.455,0.098,0.861-0.002,1.215C622.047,84.95,621.836,85.288,621.514,85.61z"/>
		<path fill="#F5F5F5" d="M626.303,94.045l-0.498-0.498l3.477-3.476l-4.129-4.128l-3.475,3.476l-0.494-0.493l7.066-7.067
			l0.494,0.493l-3.137,3.137l4.127,4.128l3.137-3.137l0.498,0.498L626.303,94.045z"/>
		<path fill="#F5F5F5" d="M637.787,98.443c-1.121,1.122-2.289,1.728-3.502,1.82c-1.213,0.092-2.313-0.355-3.299-1.342
			c-0.982-0.982-1.428-2.081-1.336-3.294c0.092-1.213,0.701-2.384,1.83-3.512c1.125-1.125,2.293-1.727,3.504-1.809
			c1.211-0.08,2.307,0.37,3.287,1.349c0.986,0.986,1.434,2.083,1.342,3.29S638.912,97.319,637.787,98.443z M632.006,92.662
			c-1.012,1.012-1.566,2.021-1.67,3.023c-0.102,1.004,0.27,1.928,1.115,2.772c0.85,0.851,1.775,1.227,2.773,1.129
			c0.994-0.1,2.006-0.659,3.027-1.68c1.018-1.019,1.572-2.024,1.668-3.016c0.092-0.993-0.283-1.911-1.127-2.756
			c-0.842-0.841-1.764-1.215-2.768-1.124C634.021,91.104,633.016,91.653,632.006,92.662z"/>
		<path fill="#F5F5F5" d="M645.16,102.828c-0.684,0.683-1.439,0.976-2.268,0.875c-0.828-0.1-1.668-0.575-2.518-1.425l-1.094-1.093
			l-2.92,2.919l-0.492-0.493l7.066-7.067l1.73,1.73C646.348,99.957,646.512,101.474,645.16,102.828z M639.707,100.759l0.971,0.972
			c0.797,0.796,1.504,1.241,2.121,1.332c0.615,0.092,1.221-0.157,1.811-0.746c0.543-0.545,0.779-1.116,0.707-1.714
			s-0.461-1.249-1.162-1.951l-1.17-1.17L639.707,100.759z"/>
		<path fill="#F5F5F5" d="M603.291,86.905c0.445-0.445,0.941-0.706,1.49-0.781c0.549-0.076,1.322,0.036,2.318,0.335l0.033-0.759
			c0.016-0.441,0.082-0.824,0.199-1.146c0.115-0.323,0.293-0.603,0.531-0.842c0.461-0.46,0.98-0.672,1.559-0.635
			c0.578,0.037,1.127,0.316,1.646,0.834c0.498,0.499,0.764,1.025,0.795,1.578c0.031,0.553-0.186,1.06-0.645,1.521
			c-0.34,0.338-0.762,0.536-1.27,0.592c-0.508,0.056-1.229-0.038-2.164-0.283l-0.023,4.394c0.43-0.035,0.85-0.121,1.262-0.256
			s0.857-0.338,1.334-0.609l0.465,0.465c-0.996,0.59-2.02,0.939-3.07,1.048l-0.01,2.582l-0.652-0.653l0.02-1.885
			c-0.586-0.006-1.063-0.059-1.43-0.157c-0.365-0.098-0.721-0.25-1.068-0.455c-0.346-0.204-0.693-0.482-1.045-0.833
			c-0.674-0.673-1.037-1.369-1.09-2.085C602.422,88.158,602.695,87.501,603.291,86.905z M604.035,90.559
			c0.412,0.412,0.859,0.72,1.344,0.924c0.482,0.203,1.057,0.303,1.721,0.303l0.01-4.678c-0.67-0.207-1.184-0.325-1.543-0.358
			c-0.357-0.033-0.676,0.002-0.953,0.104c-0.279,0.101-0.547,0.279-0.801,0.533c-0.461,0.461-0.672,0.972-0.633,1.533
			C603.219,89.481,603.502,90.027,604.035,90.559z M608.391,84.222c-0.256,0.254-0.426,0.554-0.514,0.899
			c-0.086,0.345-0.121,0.87-0.105,1.575c0.785,0.239,1.398,0.339,1.836,0.3c0.439-0.038,0.811-0.211,1.117-0.517
			c0.303-0.303,0.449-0.648,0.438-1.037c-0.012-0.388-0.188-0.752-0.529-1.094c-0.367-0.367-0.75-0.564-1.146-0.587
			C609.086,83.736,608.723,83.89,608.391,84.222z"/>
		<path fill="#F5F5F5" d="M565.338,71.999L564.84,71.5l6.604-6.603l-2.295-2.296l0.463-0.464l5.09,5.09l-0.463,0.464l-2.297-2.296
			L565.338,71.999z"/>
		<path fill="#F5F5F5" d="M568.684,75.343l7.066-7.067l0.494,0.493l-7.068,7.067L568.684,75.343z"/>
		<path fill="#F5F5F5" d="M580.918,74.13c-0.887-0.886-1.867-1.3-2.943-1.242s-2.107,0.58-3.094,1.566
			c-1.01,1.009-1.553,2.032-1.629,3.069c-0.078,1.038,0.33,2.003,1.223,2.896c0.594,0.593,1.213,1.062,1.861,1.406l-0.436,0.435
			c-0.631-0.303-1.297-0.804-1.996-1.503c-0.992-0.992-1.453-2.094-1.383-3.306c0.07-1.211,0.682-2.393,1.832-3.543
			c0.719-0.718,1.488-1.215,2.309-1.49c0.82-0.276,1.635-0.307,2.443-0.095c0.809,0.213,1.551,0.658,2.229,1.335
			c0.689,0.689,1.178,1.436,1.465,2.238l-0.643,0.246C581.896,75.367,581.484,74.697,580.918,74.13z"/>
		<path fill="#F5F5F5" d="M582.078,88.737l-0.604-0.604l1.02-6.443l-1.773-0.111l-2.9,2.9l-0.494-0.493l7.066-7.067l0.494,0.493
			l-3.674,3.674h1.566l5.66-0.121l0.627,0.628l-5.883,0.092L582.078,88.737z"/>
		<path fill="#F5F5F5" d="M586.941,93.601l-3.863-3.862l7.066-7.067l3.863,3.862l-0.455,0.455l-3.369-3.369l-2.672,2.673l3.18,3.181
			l-0.453,0.455l-3.182-3.181l-3.031,3.031l3.369,3.369L586.941,93.601z"/>
		<path fill="#F5F5F5" d="M590.383,97.042l-0.498-0.498l6.602-6.603l-2.295-2.296l0.463-0.464l5.09,5.09l-0.463,0.464l-2.297-2.296
			L590.383,97.042z"/>
		<path fill="#F5F5F5" d="M605.783,105.356c-1.121,1.122-2.289,1.728-3.502,1.82c-1.215,0.091-2.313-0.355-3.299-1.342
			c-0.982-0.982-1.43-2.081-1.338-3.294c0.092-1.213,0.703-2.384,1.83-3.512c1.125-1.125,2.293-1.728,3.506-1.807
			c1.209-0.082,2.305,0.368,3.285,1.348c0.986,0.985,1.434,2.083,1.342,3.289C607.516,103.065,606.908,104.232,605.783,105.356z
			 M600.002,99.575c-1.012,1.012-1.568,2.02-1.67,3.023c-0.102,1.004,0.27,1.928,1.113,2.772c0.852,0.851,1.775,1.227,2.771,1.128
			c0.998-0.098,2.008-0.659,3.029-1.68c1.018-1.018,1.574-2.022,1.668-3.016c0.094-0.992-0.283-1.911-1.127-2.755
			c-0.842-0.842-1.764-1.216-2.768-1.125S601.01,98.567,600.002,99.575z"/>
		<path fill="#F5F5F5" d="M604.357,111.017l-0.494-0.493l7.066-7.067l3.873,3.872l-0.455,0.455l-3.379-3.379l-2.996,2.997
			l3.189,3.19l-0.459,0.459l-3.189-3.19L604.357,111.017z"/>
		<path fill="#F5F5F5" d="M609.326,115.985l-0.494-0.493l7.066-7.067l3.873,3.872l-0.455,0.455l-3.379-3.379l-2.996,2.997
			l3.189,3.19l-0.459,0.459l-3.189-3.19L609.326,115.985z"/>
		<path fill="#F5F5F5" d="M613.803,120.462l7.066-7.067l0.492,0.493l-7.066,7.067L613.803,120.462z"/>
		<path fill="#F5F5F5" d="M626.035,119.248c-0.885-0.886-1.867-1.3-2.943-1.242c-1.076,0.058-2.107,0.58-3.094,1.566
			c-1.008,1.009-1.551,2.032-1.629,3.07c-0.078,1.037,0.33,2.002,1.223,2.895c0.594,0.594,1.215,1.062,1.861,1.407l-0.436,0.435
			c-0.631-0.303-1.295-0.804-1.996-1.504c-0.992-0.992-1.453-2.094-1.381-3.306c0.07-1.211,0.682-2.393,1.832-3.543
			c0.719-0.718,1.486-1.216,2.307-1.491s1.635-0.307,2.443-0.095c0.811,0.214,1.553,0.659,2.229,1.335
			c0.689,0.689,1.178,1.436,1.465,2.237l-0.643,0.247C627.016,120.485,626.604,119.815,626.035,119.248z"/>
		<path fill="#F5F5F5" d="M626.307,132.967l-3.861-3.862l7.066-7.067l3.861,3.862l-0.453,0.455l-3.369-3.369l-2.674,2.673
			l3.182,3.181l-0.455,0.455l-3.18-3.181l-3.031,3.031l3.369,3.369L626.307,132.967z"/>
	</g>
	<g>
		<path fill="#333333" d="M673.912,217.702c0-1.432-0.458-2.56-1.375-3.383s-2.172-1.234-3.766-1.234
			c-1.63,0-2.896,0.388-3.797,1.164s-1.352,1.885-1.352,3.328c0,0.958,0.122,1.838,0.367,2.641h-0.703
			c-0.266-0.755-0.398-1.698-0.398-2.828c0-1.604,0.519-2.867,1.555-3.789s2.484-1.383,4.344-1.383c1.161,0,2.185,0.22,3.07,0.66
			s1.569,1.073,2.051,1.898s0.723,1.785,0.723,2.879c0,1.115-0.208,2.112-0.625,2.992l-0.719-0.32
			C673.704,219.493,673.912,218.618,673.912,217.702z"/>
		<path fill="#333333" d="M667.076,228.264v-4.641l-4.031-1.594v-0.883l11.469,4.594v0.508l-11.469,4.5v-0.898L667.076,228.264z
			 M667.795,223.913v4.086l4.117-1.555c0.323-0.13,0.771-0.287,1.344-0.469c-0.5-0.141-0.953-0.294-1.359-0.461L667.795,223.913z"/>
		<path fill="#333333" d="M668.021,233.163h-4.977v-0.797h11.422v2.719c0,1.417-0.262,2.463-0.785,3.141s-1.312,1.016-2.363,1.016
			c-0.766,0-1.411-0.202-1.938-0.605s-0.903-1.017-1.133-1.84l-5.203,3.102v-0.953l4.977-2.945V233.163z M668.709,233.163v2.18
			c0,0.963,0.215,1.711,0.645,2.242s1.063,0.797,1.902,0.797c0.87,0,1.503-0.26,1.898-0.781s0.594-1.37,0.594-2.547v-1.891H668.709z
			"/>
		<path fill="#333333" d="M663.045,250.178v-0.805l10.141-6.766v-0.063c-1.208,0.063-2.12,0.094-2.734,0.094h-7.406v-0.766h11.422
			v0.797l-10.125,6.758v0.047c0.938-0.047,1.828-0.07,2.672-0.07h7.453v0.773H663.045z"/>
		<path fill="#333333" d="M663.045,259.655v-6.242h11.422v6.242h-0.734v-5.445h-4.32v5.141h-0.734v-5.141h-4.898v5.445H663.045z"/>
		<path fill="#333333" d="M668.803,266.733v4.211h-5.211c-0.469-1.104-0.703-2.346-0.703-3.727c0-1.802,0.509-3.184,1.527-4.145
			s2.46-1.441,4.324-1.441c1.161,0,2.191,0.238,3.09,0.715s1.593,1.159,2.082,2.047s0.734,1.908,0.734,3.059
			c0,1.245-0.229,2.362-0.688,3.352l-0.719-0.32c0.458-0.99,0.688-2.016,0.688-3.078c0-1.505-0.465-2.699-1.395-3.582
			s-2.184-1.324-3.762-1.324c-1.719,0-3.012,0.419-3.879,1.258s-1.301,2.07-1.301,3.695c0,1.052,0.148,1.945,0.445,2.68h4.016
			v-3.398H668.803z"/>
		<path fill="#333333" d="M663.045,273.811h11.422v0.797h-11.422V273.811z"/>
		<path fill="#333333" d="M663.045,284.084v-6.242h11.422v6.242h-0.734v-5.445h-4.32v5.141h-0.734v-5.141h-4.898v5.445H663.045z"/>
		<path fill="#333333" d="M665.99,297.131c-0.953,0-1.708-0.35-2.266-1.051s-0.836-1.631-0.836-2.793
			c0-1.396,0.153-2.466,0.461-3.211h0.797c-0.349,0.823-0.523,1.873-0.523,3.148c0,0.938,0.215,1.681,0.645,2.23
			s0.993,0.824,1.691,0.824c0.433,0,0.79-0.091,1.074-0.273s0.543-0.479,0.777-0.891s0.487-1.016,0.758-1.813
			c0.401-1.167,0.835-1.973,1.301-2.418s1.087-0.668,1.863-0.668c0.854,0,1.551,0.334,2.09,1.004s0.809,1.53,0.809,2.582
			c0,1.073-0.203,2.081-0.609,3.023l-0.688-0.289c0.396-0.948,0.594-1.854,0.594-2.719c0-0.844-0.195-1.516-0.586-2.016
			s-0.922-0.75-1.594-0.75c-0.422,0-0.769,0.077-1.039,0.23s-0.515,0.405-0.73,0.754s-0.476,0.948-0.777,1.797
			c-0.308,0.891-0.605,1.56-0.895,2.008s-0.617,0.775-0.984,0.98S666.511,297.131,665.99,297.131z"/>
		<path fill="#333333" d="M663.045,302.522v-0.805h10.672v-3.711h0.75v8.227h-0.75v-3.711H663.045z"/>
		<path fill="#333333" d="M667.076,313.428v-4.64l-4.031-1.594v-0.883l11.469,4.593v0.508l-11.469,4.5v-0.898L667.076,313.428z
			 M667.795,309.077v4.085l4.117-1.555c0.323-0.13,0.771-0.286,1.344-0.469c-0.5-0.141-0.953-0.294-1.359-0.461L667.795,309.077z"/>
		<path fill="#333333" d="M663.045,325.834v-0.805l10.141-6.766v-0.063c-1.208,0.063-2.12,0.094-2.734,0.094h-7.406v-0.766h11.422
			v0.797l-10.125,6.758v0.047c0.938-0.047,1.828-0.07,2.672-0.07h7.453v0.773H663.045z"/>
		<path fill="#333333" d="M668.865,337.74c-1.917,0-3.366-0.503-4.348-1.508s-1.473-2.481-1.473-4.43v-2.734h11.422v3.086
			c0,1.823-0.477,3.21-1.43,4.16S670.693,337.74,668.865,337.74z M668.834,336.873c1.636,0,2.866-0.415,3.691-1.246
			s1.238-2.051,1.238-3.66v-2.102h-10.016v1.891C663.748,335.167,665.443,336.873,668.834,336.873z"/>
	</g>
	<g>
		<path fill="#333333" d="M490.914,395.238c-1.433,0-2.56,0.458-3.383,1.375s-1.234,2.172-1.234,3.766
			c0,1.63,0.388,2.896,1.164,3.797s1.886,1.352,3.328,1.352c0.958,0,1.839-0.122,2.641-0.367v0.703
			c-0.755,0.266-1.698,0.398-2.828,0.398c-1.604,0-2.867-0.519-3.789-1.555s-1.383-2.484-1.383-4.344c0-1.161,0.22-2.185,0.66-3.07
			s1.073-1.569,1.898-2.051s1.785-0.723,2.879-0.723c1.114,0,2.112,0.208,2.992,0.625l-0.32,0.719
			C492.706,395.446,491.831,395.238,490.914,395.238z"/>
		<path fill="#333333" d="M501.477,402.074h-4.641l-1.594,4.031h-0.883l4.594-11.469h0.508l4.5,11.469h-0.898L501.477,402.074z
			 M497.125,401.355h4.086l-1.555-4.117c-0.13-0.323-0.286-0.771-0.469-1.344c-0.141,0.5-0.294,0.953-0.461,1.359L497.125,401.355z"
			/>
		<path fill="#333333" d="M506.375,401.129v4.977h-0.797v-11.422h2.719c1.417,0,2.464,0.262,3.141,0.785s1.016,1.312,1.016,2.363
			c0,0.766-0.202,1.411-0.605,1.938s-1.017,0.903-1.84,1.133l3.102,5.203h-0.953l-2.945-4.977H506.375z M506.375,400.441h2.18
			c0.964,0,1.711-0.215,2.242-0.645s0.797-1.063,0.797-1.902c0-0.87-0.261-1.503-0.781-1.898s-1.37-0.594-2.547-0.594h-1.891
			V400.441z"/>
		<path fill="#333333" d="M523.391,406.105h-0.805l-6.766-10.141h-0.063c0.063,1.208,0.094,2.12,0.094,2.734v7.406h-0.766v-11.422
			h0.797l6.758,10.125h0.047c-0.047-0.938-0.07-1.828-0.07-2.672v-7.453h0.773V406.105z"/>
		<path fill="#333333" d="M532.867,406.105h-6.242v-11.422h6.242v0.734h-5.445v4.32h5.141v0.734h-5.141v4.898h5.445V406.105z"/>
		<path fill="#333333" d="M539.945,400.348h4.211v5.211c-1.104,0.469-2.347,0.703-3.727,0.703c-1.802,0-3.184-0.509-4.145-1.527
			s-1.441-2.46-1.441-4.324c0-1.161,0.238-2.191,0.715-3.09s1.159-1.593,2.047-2.082s1.907-0.734,3.059-0.734
			c1.245,0,2.362,0.229,3.352,0.688l-0.32,0.719c-0.989-0.458-2.016-0.688-3.078-0.688c-1.505,0-2.699,0.465-3.582,1.395
			s-1.324,2.184-1.324,3.762c0,1.719,0.419,3.012,1.258,3.879s2.07,1.301,3.695,1.301c1.052,0,1.945-0.148,2.68-0.445v-4.016h-3.398
			V400.348z"/>
		<path fill="#333333" d="M547.023,406.105v-11.422h0.797v11.422H547.023z"/>
		<path fill="#333333" d="M557.297,406.105h-6.242v-11.422h6.242v0.734h-5.445v4.32h5.141v0.734h-5.141v4.898h5.445V406.105z"/>
		<path fill="#333333" d="M504.496,416.92c0,0.953-0.351,1.708-1.051,2.266s-1.632,0.836-2.793,0.836
			c-1.396,0-2.466-0.153-3.211-0.461v-0.797c0.823,0.349,1.872,0.523,3.148,0.523c0.938,0,1.681-0.215,2.23-0.645
			s0.824-0.993,0.824-1.691c0-0.433-0.091-0.79-0.273-1.074s-0.479-0.543-0.891-0.777s-1.016-0.487-1.813-0.758
			c-1.167-0.401-1.973-0.835-2.418-1.301s-0.668-1.087-0.668-1.863c0-0.854,0.335-1.551,1.004-2.09s1.53-0.809,2.582-0.809
			c1.073,0,2.081,0.203,3.023,0.609l-0.289,0.688c-0.948-0.396-1.854-0.594-2.719-0.594c-0.844,0-1.516,0.195-2.016,0.586
			s-0.75,0.922-0.75,1.594c0,0.422,0.077,0.769,0.23,1.039s0.405,0.515,0.754,0.73s0.948,0.476,1.797,0.777
			c0.891,0.308,1.56,0.605,2.008,0.895s0.774,0.617,0.98,0.984S504.496,416.399,504.496,416.92z"/>
		<path fill="#333333" d="M509.887,419.865h-0.805v-10.672h-3.711v-0.75h8.227v0.75h-3.711V419.865z"/>
		<path fill="#333333" d="M520.793,415.834h-4.641l-1.594,4.031h-0.883l4.594-11.469h0.508l4.5,11.469h-0.898L520.793,415.834z
			 M516.441,415.115h4.086l-1.555-4.117c-0.13-0.323-0.286-0.771-0.469-1.344c-0.141,0.5-0.294,0.953-0.461,1.359L516.441,415.115z"
			/>
		<path fill="#333333" d="M533.199,419.865h-0.805l-6.766-10.141h-0.063c0.063,1.208,0.094,2.12,0.094,2.734v7.406h-0.766v-11.422
			h0.797l6.758,10.125h0.047c-0.047-0.938-0.07-1.828-0.07-2.672v-7.453h0.773V419.865z"/>
		<path fill="#333333" d="M545.105,414.045c0,1.917-0.503,3.366-1.508,4.348s-2.481,1.473-4.43,1.473h-2.734v-11.422h3.086
			c1.823,0,3.21,0.477,4.16,1.43S545.105,412.217,545.105,414.045z M544.238,414.076c0-1.636-0.415-2.866-1.246-3.691
			s-2.051-1.238-3.66-1.238h-2.102v10.016h1.891C542.532,419.162,544.238,417.467,544.238,414.076z"/>
		<path fill="#333333" d="M493.641,433.625h-0.805v-10.672h-3.711v-0.75h8.227v0.75h-3.711V433.625z"/>
		<path fill="#333333" d="M505.289,433.625h-6.242v-11.422h6.242v0.734h-5.445v4.32h5.141v0.734h-5.141v4.898h5.445V433.625z"/>
		<path fill="#333333" d="M508.672,428.648v4.977h-0.797v-11.422h2.719c1.417,0,2.464,0.262,3.141,0.785s1.016,1.312,1.016,2.363
			c0,0.766-0.202,1.411-0.605,1.938s-1.017,0.903-1.84,1.133l3.102,5.203h-0.953l-2.945-4.977H508.672z M508.672,427.961h2.18
			c0.964,0,1.711-0.215,2.242-0.645s0.797-1.063,0.797-1.902c0-0.87-0.261-1.503-0.781-1.898s-1.37-0.594-2.547-0.594h-1.891
			V427.961z"/>
		<path fill="#333333" d="M518.18,428.648v4.977h-0.797v-11.422h2.719c1.417,0,2.464,0.262,3.141,0.785s1.016,1.312,1.016,2.363
			c0,0.766-0.202,1.411-0.605,1.938s-1.017,0.903-1.84,1.133l3.102,5.203h-0.953l-2.945-4.977H518.18z M518.18,427.961h2.18
			c0.964,0,1.711-0.215,2.242-0.645s0.797-1.063,0.797-1.902c0-0.87-0.261-1.503-0.781-1.898s-1.37-0.594-2.547-0.594h-1.891
			V427.961z"/>
		<path fill="#333333" d="M532.391,429.594h-4.641l-1.594,4.031h-0.883l4.594-11.469h0.508l4.5,11.469h-0.898L532.391,429.594z
			 M528.039,428.875h4.086l-1.555-4.117c-0.13-0.323-0.286-0.771-0.469-1.344c-0.141,0.5-0.294,0.953-0.461,1.359L528.039,428.875z"
			/>
		<path fill="#333333" d="M541.367,422.758c-1.433,0-2.56,0.458-3.383,1.375s-1.234,2.172-1.234,3.766
			c0,1.63,0.388,2.896,1.164,3.797s1.886,1.352,3.328,1.352c0.958,0,1.839-0.122,2.641-0.367v0.703
			c-0.755,0.266-1.698,0.398-2.828,0.398c-1.604,0-2.867-0.519-3.789-1.555s-1.383-2.484-1.383-4.344c0-1.161,0.22-2.185,0.66-3.07
			s1.073-1.569,1.898-2.051s1.785-0.723,2.879-0.723c1.114,0,2.112,0.208,2.992,0.625l-0.32,0.719
			C543.159,422.966,542.284,422.758,541.367,422.758z"/>
		<path fill="#333333" d="M552.672,433.625h-6.242v-11.422h6.242v0.734h-5.445v4.32h5.141v0.734h-5.141v4.898h5.445V433.625z"/>
	</g>
	<rect x="411.851" y="35.733" fill="#CCCCCC" width="42.166" height="74.281"/>
	<g>
		<path fill="#FFFFFF" d="M419.631,98.213h-0.449v-6.425h3.521v0.413h-3.071v2.725h2.9v0.417h-2.9V98.213z"/>
		<path fill="#FFFFFF" d="M426.793,95.945h-2.609l-0.896,2.268h-0.497l2.584-6.451h0.286l2.531,6.451h-0.506L426.793,95.945z
			 M424.346,95.541h2.299l-0.875-2.316c-0.073-0.182-0.161-0.434-0.264-0.756c-0.079,0.281-0.166,0.536-0.26,0.765L424.346,95.541z"
			/>
		<path fill="#FFFFFF" d="M431.926,98.213l-2.395-5.933h-0.035c0.023,0.363,0.035,0.735,0.035,1.116v4.816h-0.431v-6.425h0.694
			l2.276,5.651h0.026l2.276-5.651h0.677v6.425h-0.453v-4.869c0-0.34,0.018-0.691,0.053-1.055h-0.035l-2.403,5.924H431.926z"/>
		<path fill="#FFFFFF" d="M436.865,98.213v-6.425h0.449v6.425H436.865z"/>
		<path fill="#FFFFFF" d="M439.133,98.213v-6.425h0.449v6.003h3.063v0.422H439.133z"/>
		<path fill="#FFFFFF" d="M445.229,95.304l1.881-3.516h0.483l-2.14,3.942v2.483h-0.462v-2.448l-2.149-3.977h0.515L445.229,95.304z"
			/>
		<path fill="#FFFFFF" d="M426.379,104.945h-2.611l-0.896,2.268h-0.496l2.584-6.451h0.285l2.531,6.451h-0.505L426.379,104.945z
			 M423.931,104.541h2.298l-0.874-2.316c-0.073-0.182-0.161-0.434-0.264-0.756c-0.079,0.281-0.165,0.536-0.259,0.765
			L423.931,104.541z"/>
		<path fill="#FFFFFF" d="M429.134,104.414v2.799h-0.448v-6.425h1.529c0.797,0,1.386,0.147,1.767,0.441
			c0.381,0.295,0.571,0.738,0.571,1.33c0,0.431-0.113,0.794-0.341,1.09s-0.571,0.508-1.034,0.637l1.744,2.927h-0.536l-1.657-2.799
			H429.134z M429.134,104.027h1.226c0.543,0,0.963-0.121,1.262-0.363c0.299-0.241,0.448-0.598,0.448-1.07
			c0-0.489-0.146-0.845-0.439-1.068s-0.771-0.334-1.433-0.334h-1.063V104.027z"/>
		<path fill="#FFFFFF" d="M437.545,107.213h-3.512v-6.425h3.512v0.413h-3.063v2.43h2.891v0.413h-2.891v2.755h3.063V107.213z"/>
		<path fill="#FFFFFF" d="M442.094,104.945h-2.611l-0.896,2.268h-0.496l2.584-6.451h0.285l2.531,6.451h-0.505L442.094,104.945z
			 M439.646,104.541h2.298l-0.874-2.316c-0.073-0.182-0.161-0.434-0.264-0.756c-0.079,0.281-0.165,0.536-0.259,0.765
			L439.646,104.541z"/>
	</g>
</g>
<g id="AREAS">
	<path id="WS-WT" stroke-width="0" d="M150.498,538.313c-62.594,0-113.518-50.924-113.518-113.518V161.708h112.371v230.752h21.786
		v145.853H150.498z"/>
	<rect id="SSW-SSW" x="400.665" y="392.461" stroke-width="0" width="49.105" height="14.905"/>
	<path id="SS-SS" stroke-width="0" d="M173.43,538.313V392.461h55.784v43.572h19.895v-43.572h131.662v43.572h19.895V409.66h49.105
		v128.653H173.43z M401.569,482.693h14.982V464.24h-14.982V482.693z M357.425,482.693h14.981V464.24h-14.981V482.693z
		 M274.293,482.693h14.981V464.24h-14.981V482.693z M210.282,482.693h14.981V464.24h-14.981V482.693z"/>
	<rect id="CT1-CT3" x="485.134" y="366.661" stroke-width="0" width="11.467" height="22.359"/>
	<rect id="CT1-CT2" x="485.134" y="307.036" stroke-width="0" width="11.467" height="33.253"/>
	<rect id="CT1-CT1" x="485.134" y="227.918" stroke-width="0" width="11.467" height="33.252"/>
	<polygon id="ESL-CT" stroke-width="0" points="498.893,389.021 498.893,364.368 485.134,364.368 485.134,342.582 498.893,342.582 
		498.893,304.743 485.134,304.743 485.134,263.464 498.893,263.464 498.893,225.625 485.134,225.625 485.134,184.919 
		557.554,184.919 557.554,389.021 	"/>
	<path id="ESU-N" stroke-width="0" d="M574.754,364.368v-21.542h67.651v21.542H574.754z M572.46,364.368v-21.542h-9.172v21.542H572.46
		z"/>
	<rect id="ESU-M" x="563.288" y="306.577" stroke-width="0" width="79.117" height="33.956"/>
	<rect id="ESU-L" x="563.288" y="261.39" stroke-width="0" width="79.117" height="42.893"/>
	<rect id="ESU-K" x="563.288" y="214.217" stroke-width="0" width="79.117" height="44.88"/>
	<path id="ESU-J" stroke-width="0" d="M574.754,211.923v-27.004h67.651v27.004H574.754z M572.46,211.923v-27.004h-9.172v27.004H572.46
		z"/>
	<rect id="EH-CH5" x="644.699" y="342.826" stroke-width="0" width="13.759" height="21.542"/>
	<rect id="EH-CH4" x="644.699" y="306.577" stroke-width="0" width="13.759" height="33.956"/>
	<rect id="EH-CH3" x="644.699" y="261.39" stroke-width="0" width="13.759" height="42.893"/>
	<rect id="EH-CH2" x="644.699" y="214.217" stroke-width="0" width="13.759" height="44.88"/>
	<rect id="EH-CH1" x="644.699" y="184.919" stroke-width="0" width="13.759" height="27.004"/>
	<rect id="TLB-TL" x="459.987" y="134.566" stroke-width="0" width="52.586" height="30.587"/>
	<rect id="NSL-HP" x="412.854" y="126.445" stroke-width="0" width="40.158" height="51.696"/>
	<rect id="NSL-GP" x="370.403" y="126.445" stroke-width="0" width="40.158" height="51.696"/>
	<polygon id="NSL-FP" stroke-width="0" points="339.418,178.142 339.418,142.981 363.914,142.981 363.914,126.445 368.11,126.445 
		368.11,178.142 	"/>
	<path id="NSL-DP" stroke-width="0" d="M312.826,178.142v-35.16h24.299v35.16H312.826z M297.845,178.142v-35.16h-15.784v35.16H297.845
		z"/>
	<polygon id="NSL-CP" stroke-width="0" points="244.196,178.142 244.196,126.445 276.586,126.445 276.586,142.981 279.768,142.981 
		279.768,178.142 	"/>
	<rect id="NSL-BP" x="206.331" y="126.445" stroke-width="0" width="35.572" height="51.696"/>
	<rect id="NSL-AP" x="160.439" y="126.445" stroke-width="0" width="43.598" height="51.696"/>
	<rect id="NSU-D" x="278.879" y="91.015" stroke-width="0" width="82.741" height="14.243"/>
	<rect id="NSU-H" x="412.854" y="37.025" stroke-width="0" width="40.158" height="51.696"/>
	<rect id="NSU-G" x="370.403" y="37.025" stroke-width="0" width="40.158" height="51.696"/>
	<rect id="NSU-F" x="339.418" y="37.025" stroke-width="0" width="28.692" height="51.696"/>
	<rect id="NSU-E" x="282.061" y="37.025" stroke-width="0" width="55.064" height="51.696"/>
	<rect id="NSU-C" x="244.196" y="37.025" stroke-width="0" width="35.572" height="51.696"/>
	<rect id="NSU-B" x="206.331" y="37.025" stroke-width="0" width="35.572" height="51.696"/>
	<rect id="NSU-A" x="160.439" y="37.025" stroke-width="0" width="43.598" height="51.696"/>
	<rect id="NSB-NSB6" x="409.447" y="20.973" stroke-width="0" width="43.565" height="13.76"/>
	<rect id="NSB-NSB5" x="362.348" y="20.973" stroke-width="0" width="44.807" height="13.76"/>
	<rect id="NSB-NSB4" x="312.955" y="20.973" stroke-width="0" width="47.101" height="13.76"/>
	<rect id="NSB-NSB3" x="253.243" y="20.973" stroke-width="0" width="57.419" height="13.76"/>
	<rect id="NSB-NSB2" x="204.997" y="20.973" stroke-width="0" width="45.953" height="13.76"/>
	<rect id="NSB-NSB1" x="160.439" y="20.973" stroke-width="0" width="42.264" height="13.76"/>
</g>
<g id="LABELS">
	<text fid="WS-WT" transform="matrix(0 -1 1 0 97.728 346.1455)" fill="#F2F2F2" font-family="'Arial'" font-size="14">WESTERN TERRACE</text>
	<text fid="SSW-SSW" transform="matrix(1 0 0 1 413.4648 400.5205)" fill="#F2F2F2" font-family="'Arial'" font-size="9">SSW</text>
	<text fid="SS-SS" transform="matrix(1 0 0 1 262.8032 516.0684)" fill="#F2F2F2" font-family="'Arial'" font-size="14">SOUTH STAND</text>
	<text fid="CT1-CT3" transform="matrix(0 1 -1 0 490.4063 369.3398)" fill="#F2F2F2" font-family="'Arial'" font-size="9">CT3</text>
	<text fid="CT1-CT2" transform="matrix(0 1 -1 0 490.4063 315.1616)" fill="#F2F2F2" font-family="'Arial'" font-size="9">CT2</text>
	<text fid="CT1-CT1" transform="matrix(0 1 -1 0 490.4063 236.043)" fill="#F2F2F2" font-family="'Arial'" font-size="9">CT1</text>
	<text fid="ESL-CT" transform="matrix(0 1 -1 0 523.8213 191.6567)" fill="#F2F2F2" font-family="'Arial'" font-size="14">CARNEGIE STAND TERRACE</text>
	<text fid="ESU-N" transform="matrix(1 0 0 1 597.8779 357.2656)" fill="#F2F2F2" font-family="'Arial'" font-size="14">N</text>
	<text fid="ESU-M" transform="matrix(1 0 0 1 597.1152 327.2236)" fill="#F2F2F2" font-family="'Arial'" font-size="14">M</text>
	<text fid="ESU-L" transform="matrix(1 0 0 1 599.2695 286.5073)" fill="#F2F2F2" font-family="'Arial'" font-size="14">L</text>
	<text fid="ESU-K" transform="matrix(1 0 0 1 598.2578 240.3267)" fill="#F2F2F2" font-family="'Arial'" font-size="14">K</text>
	<text fid="ESU-J" transform="matrix(1 0 0 1 599.4072 202.0908)" fill="#F2F2F2" font-family="'Arial'" font-size="14">J</text>
	<text fid="EH-CH5" transform="matrix(0 1 -1 0 651.1201 344.5957)" fill="#F2F2F2" font-family="'Arial'" font-size="9">CH5</text>
	<text fid="EH-CH4" transform="matrix(0 1 -1 0 651.1201 314.5532)" fill="#F2F2F2" font-family="'Arial'" font-size="9">CH4</text>
	<text fid="EH-CH3" transform="matrix(0 1 -1 0 651.1201 273.8345)" fill="#F2F2F2" font-family="'Arial'" font-size="9">CH3</text>
	<text fid="EH-CH2" transform="matrix(0 1 -1 0 651.1201 227.6548)" fill="#F2F2F2" font-family="'Arial'" font-size="9">CH2</text>
	<text fid="EH-CH1" transform="matrix(0 1 -1 0 651.1201 189.4189)" fill="#F2F2F2" font-family="'Arial'" font-size="9">CH1</text>
	<text fid="TLB-TL" transform="matrix(1 0 0 1 478.501 148.5293)" fill="#F2F2F2" font-family="'Arial'" font-size="14">TL</text>
	<text fid="NSL-HP" transform="matrix(1 0 0 1 423.501 152.9634)" fill="#F2F2F2" font-family="'Arial'" font-size="14">HP</text>
	<text fid="NSL-GP" transform="matrix(1 0 0 1 380.667 152.9634)" fill="#F2F2F2" font-family="'Arial'" font-size="14">GP</text>
	<text fid="NSL-FP" transform="matrix(1 0 0 1 345.0977 161.231)" fill="#F2F2F2" font-family="'Arial'" font-size="14">FP</text>
	<text fid="NSL-DP" transform="matrix(1 0 0 1 315.543 161.231)" fill="#F2F2F2" font-family="'Arial'" font-size="14">DP</text>
	<text fid="NSL-CP" transform="matrix(1 0 0 1 252.5488 152.9634)" fill="#F2F2F2" font-family="'Arial'" font-size="14">CP</text>
	<text fid="NSL-BP" transform="matrix(1 0 0 1 215.0635 152.9634)" fill="#F2F2F2" font-family="'Arial'" font-size="14">BP</text>
	<text fid="NSL-AP" transform="matrix(1 0 0 1 173.1963 152.9634)" fill="#F2F2F2" font-family="'Arial'" font-size="14">AP</text>
	<text fid="NSU-D" transform="matrix(1 0 0 1 317 98.5952)" fill="#F2F2F2" font-family="'Arial'" font-size="9">D</text>
	<text fid="NSU-H" transform="matrix(1 0 0 1 427.582 61.543)" fill="#F2F2F2" font-family="'Arial'" font-size="14">H</text>
	<text fid="NSU-G" transform="matrix(1 0 0 1 386.2803 61.543)" fill="#F2F2F2" font-family="'Arial'" font-size="14">G</text>
	<text fid="NSU-F" transform="matrix(1 0 0 1 349.1748 61.543)" fill="#F2F2F2" font-family="'Arial'" font-size="14">F</text>
	<text fid="NSU-E" transform="matrix(1 0 0 1 304.625 61.543)" fill="#F2F2F2" font-family="'Arial'" font-size="14">E</text>
	<text fid="NSU-C" transform="matrix(1 0 0 1 257.0132 61.543)" fill="#F2F2F2" font-family="'Arial'" font-size="14">C</text>
	<text fid="NSU-B" transform="matrix(1 0 0 1 219.5283 61.543)" fill="#F2F2F2" font-family="'Arial'" font-size="14">B</text>
	<text fid="NSU-A" transform="matrix(1 0 0 1 177.6479 61.543)" fill="#F2F2F2" font-family="'Arial'" font-size="14">A</text>
	<text fid="NSB-NSB6" transform="matrix(1 0 0 1 419.4746 28.605)" fill="#F2F2F2" font-family="'Arial'" font-size="9">NSB6</text>
	<text fid="NSB-NSB5" transform="matrix(1 0 0 1 372.9961 28.605)" fill="#F2F2F2" font-family="'Arial'" font-size="9">NSB5</text>
	<text fid="NSB-NSB4" transform="matrix(1 0 0 1 324.75 28.605)" fill="#F2F2F2" font-family="'Arial'" font-size="9">NSB4</text>
	<text fid="NSB-NSB3" transform="matrix(1 0 0 1 270.1973 28.605)" fill="#F2F2F2" font-family="'Arial'" font-size="9">NSB3</text>
	<text fid="NSB-NSB2" transform="matrix(1 0 0 1 216.2178 28.605)" fill="#F2F2F2" font-family="'Arial'" font-size="9">NSB2</text>
	<text fid="NSB-NSB1" transform="matrix(1 0 0 1 169.8159 28.605)" fill="#F2F2F2" font-family="'Arial'" font-size="9">NSB1</text>
</g>
</svg>
