<svg>
<g id="AREAS">
	<polygon id="SSL-01" stroke-width="0" points="114.901,444.751 
		114.901,414.004 147.072,414.004 147.072,435.359 154.19,435.359 154.19,444.751 	"/>
	<polygon id="SSL-02" stroke-width="0" points="156.19,444.751 
		156.19,414.004 213.99,414.004 213.99,427.665 209.719,427.665 209.719,436.782 213.99,436.782 213.99,444.751 	"/>
	<polygon id="SSL-03" stroke-width="0" points="215.99,444.751 
		215.99,436.782 220.26,436.782 220.26,427.665 215.99,427.665 215.99,414.004 273.788,414.004 273.788,444.751 	"/>
	<polygon id="SSL-04" stroke-width="0" points="275.788,444.751 
		275.788,435.359 285.754,435.359 285.754,414.004 296.568,414.004 296.568,423.971 314.23,423.971 314.23,414.004 321.955,414.004 
		321.955,444.751 	"/>
	<polygon id="SSL-05" stroke-width="0" points="341.038,444.751 
		341.038,414.004 349.245,414.004 349.245,423.971 366.906,423.971 366.906,414.004 377.72,414.004 377.72,435.359 387.689,435.359 
		387.689,444.751 	"/>
	<polygon id="SSL-06" stroke-width="0" points="389.689,444.751 
		389.689,414.004 447.487,414.004 447.487,427.665 440.366,427.665 440.366,435.359 447.487,435.359 447.487,444.751 	"/>
	<polygon id="SSL-07" stroke-width="0" points="449.487,444.751 
		449.487,435.359 456.606,435.359 456.606,427.665 449.487,427.665 449.487,414.004 507.282,414.004 507.282,444.751 	"/>
	<polygon id="SSL-08" stroke-width="0" points="509.282,444.751 
		509.282,435.359 516.404,435.359 516.404,414.004 548.573,414.004 548.573,444.751 	"/>
	<polygon id="SSU-09" stroke-width="0" points="114.901,488.889 
		114.901,458.14 186.226,458.14 186.226,467.53 181.243,467.53 181.243,478.073 186.226,478.073 186.226,488.889 	"/>
	<polygon id="SSU-10" stroke-width="0" points="188.226,488.889 
		188.226,478.073 193.208,478.073 193.208,467.53 188.226,467.53 188.226,458.14 244.601,458.14 244.601,467.53 239.618,467.53 
		239.618,475.228 244.601,475.228 244.601,488.889 	"/>
	<polygon id="SSU-11" stroke-width="0" points="246.601,488.889 
		246.601,475.228 251.585,475.228 251.585,467.53 246.601,467.53 246.601,458.14 295.144,458.14 295.144,467.53 290.873,467.53 
		290.873,473.803 299.413,473.803 299.413,488.889 	"/>
	<path id="SSU-12" stroke-width="0" d="M301.413,488.889V467.53h-4.271V456.14
		h-21.354v-9.389h111.898v9.389h-22.78v11.394h-4.271v21.355H301.413z M313.653,473.803h36.167v-4.847h-11.389V456.14h-13.392
		v12.816h-11.39L313.653,473.803L313.653,473.803z"/>
	<polygon id="SSU-13" stroke-width="0" points="362.637,488.889 
		362.637,473.803 371.182,473.803 371.182,467.53 366.906,467.53 366.906,458.14 417.586,458.14 417.586,467.53 411.895,467.53 
		411.895,475.228 417.586,475.228 417.586,488.889 	"/>
	<polygon id="SSU-14" stroke-width="0" points="419.586,488.889 
		419.586,475.228 425.281,475.228 425.281,467.53 419.586,467.53 419.586,458.14 475.962,458.14 475.962,467.53 470.268,467.53 
		470.268,479.496 475.962,479.496 475.962,488.889 	"/>
	<polygon id="SSU-15" stroke-width="0" points="477.962,488.889 
		477.962,479.496 483.656,479.496 483.656,467.53 477.962,467.53 477.962,458.14 548.573,458.14 548.573,488.889 	"/>
	<polygon id="ES-21" stroke-width="0" points="613.223,113.013 
		613.223,105.893 596.982,105.893 596.982,113.013 581.896,113.013 581.896,77.994 634,77.994 634,113.013 	"/>
	<polygon id="ES-20" stroke-width="0" points="613.223,171.387 
		613.223,165.692 581.896,165.692 581.896,115.013 598.982,115.013 598.982,107.893 611.223,107.893 611.223,115.013 634,115.013 
		634,171.387 	"/>
	<polygon id="ES-19" stroke-width="0" points="613.223,231.186 
		613.223,225.49 596.982,225.49 596.982,231.186 581.896,231.186 581.896,167.692 611.223,167.692 611.223,173.387 634,173.387 
		634,225.49 624.032,225.49 624.032,231.186 	"/>
	<polygon id="ES-18" stroke-width="0" points="613.223,290.982 
		613.223,285.288 581.896,285.288 581.896,233.186 598.982,233.186 598.982,227.49 611.223,227.49 611.223,233.186 624.032,233.186 
		624.032,238.882 634,238.882 634,290.982 	"/>
	<polygon id="ES-17" stroke-width="0" points="613.223,355.053 
		613.223,345.086 596.982,345.086 596.982,355.053 581.896,355.053 581.896,287.288 611.223,287.288 611.223,292.982 634,292.982 
		634,355.053 	"/>
	<polygon id="ES-16" stroke-width="0" points="581.896,380.682 
		581.896,357.053 598.982,357.053 598.982,347.086 611.223,347.086 611.223,357.053 634,357.053 634,380.682 	"/>
	<polygon id="NS-29" stroke-width="0" points="114.901,66.028 114.901,1.111 
		142.088,1.111 142.088,38.976 135.682,38.976 135.682,48.095 142.088,48.095 142.088,66.028 	"/>
	<polygon id="NS-28" stroke-width="0" points="144.088,66.028 144.088,48.095 
		150.496,48.095 150.496,38.976 144.088,38.976 144.088,1.111 203.311,1.111 203.311,38.976 196.904,38.976 196.904,50.943 
		203.311,50.943 203.311,66.028 	"/>
	<polygon id="NS-27" stroke-width="0" points="205.311,66.028 205.311,50.943 
		211.719,50.943 211.719,38.976 205.311,38.976 205.311,1.111 265.957,1.111 265.957,38.976 259.549,38.976 259.549,50.943 
		265.957,50.943 265.957,66.028 	"/>
	<polygon id="NS-26" stroke-width="0" points="267.957,66.028 267.957,50.943 
		274.364,50.943 274.364,38.976 267.957,38.976 267.957,1.111 320.772,1.111 320.772,9.654 327.18,9.654 327.18,38.976 
		320.772,38.976 320.772,46.672 327.18,46.672 327.18,66.028 	"/>
	<polygon id="NS-25" stroke-width="0" points="329.18,66.028 
		329.18,46.672 335.586,46.672 335.586,38.976 329.18,38.976 329.18,9.654 334.159,9.654 334.159,1.111 388.4,1.111 388.4,38.976 
		381.99,38.976 381.99,50.943 388.4,50.943 388.4,66.028 	"/>
	<polygon id="NS-24" stroke-width="0" points="390.4,66.028 390.4,50.943 
		396.809,50.943 396.809,38.976 390.4,38.976 390.4,1.111 451.044,1.111 451.044,38.976 444.639,38.976 444.639,50.943 
		451.044,50.943 451.044,66.028 	"/>
	<polygon id="NS-23" stroke-width="0" points="453.044,66.028 
		453.044,50.943 459.452,50.943 459.452,38.976 453.044,38.976 453.044,1.111 511.559,1.111 511.559,38.976 505.864,38.976 
		505.864,48.095 511.559,48.095 511.559,66.028 	"/>
	<polygon id="NS-22" stroke-width="0" points="513.559,66.028 
		513.559,48.095 519.25,48.095 519.25,38.976 513.559,38.976 513.559,1.111 548.573,1.111 548.573,66.028 	"/>
</g>
<g id="LABELS">
	<text fid="SSL-01" transform="matrix(1 0 0 1 125.4246 432.0449)" fill="#F5F5F5" font-family="'Arial'" font-size="10">01</text>
	<text fid="SSL-02" transform="matrix(1 0 0 1 179.5286 432.0449)" fill="#F5F5F5" font-family="'Arial'" font-size="10">02</text>
	<text fid="SSL-03" transform="matrix(1 0 0 1 239.3274 432.0449)" fill="#F5F5F5" font-family="'Arial'" font-size="10">03</text>
	<text fid="SSL-04" transform="matrix(1 0 0 1 298.2942 437.124)" fill="#F5F5F5" font-family="'Arial'" font-size="10">04</text>
	<text fid="SSL-05" transform="matrix(1 0 0 1 353.5823 437.124)" fill="#F5F5F5" font-family="'Arial'" font-size="10">05</text>
	<text fid="SSL-06" transform="matrix(1 0 0 1 413.0276 432.0449)" fill="#F5F5F5" font-family="'Arial'" font-size="10">06</text>
	<text fid="SSL-07" transform="matrix(1 0 0 1 472.8245 432.0449)" fill="#F5F5F5" font-family="'Arial'" font-size="10">07</text>
	<text fid="SSL-08" transform="matrix(1 0 0 1 526.928 432.834)" fill="#F5F5F5" font-family="'Arial'" font-size="10">08</text>
	<text fid="SSU-09" transform="matrix(1 0 0 1 145.0007 476.1816)" fill="#F5F5F5" font-family="'Arial'" font-size="10">09</text>
	<text fid="SSU-10" transform="matrix(1 0 0 1 210.8518 476.1816)" fill="#F5F5F5" font-family="'Arial'" font-size="10">10</text>
	<text fid="SSU-11" transform="matrix(1 0 0 1 267.4456 476.1816)" fill="#F5F5F5" font-family="'Arial'" font-size="10">11</text>
	<text fid="SSU-12" transform="matrix(1 0 0 1 326.178 484.0127)" fill="#F5F5F5" font-family="'Arial'" font-size="10">12</text>
	<text fid="SSU-13" transform="matrix(1 0 0 1 384.5491 476.1816)" fill="#F5F5F5" font-family="'Arial'" font-size="10">13</text>
	<text fid="SSU-14" transform="matrix(1 0 0 1 442.2131 476.1816)" fill="#F5F5F5" font-family="'Arial'" font-size="10">14</text>
	<text fid="SSU-15" transform="matrix(1 0 0 1 507.7053 476.1816)" fill="#F5F5F5" font-family="'Arial'" font-size="10">15</text>
	<text fid="ES-21" transform="matrix(1 0 0 1 602.387 94.6104)" fill="#F5F5F5" font-family="'Arial'" font-size="10">21</text>
	<text fid="ES-20" transform="matrix(1 0 0 1 602.387 142.3066)" fill="#F5F5F5" font-family="'Arial'" font-size="10">20</text>
	<text fid="ES-19" transform="matrix(1 0 0 1 602.387 202.1064)" fill="#F5F5F5" font-family="'Arial'" font-size="10">19</text>
	<text fid="ES-18" transform="matrix(1 0 0 1 602.387 261.9043)" fill="#F5F5F5" font-family="'Arial'" font-size="10">18</text>
	<text fid="ES-17" transform="matrix(1 0 0 1 602.387 323.8379)" fill="#F5F5F5" font-family="'Arial'" font-size="10">17</text>
	<text fid="ES-16" transform="matrix(1 0 0 1 602.387 371.5332)" fill="#F5F5F5" font-family="'Arial'" font-size="10">16</text>
	<text fid="NS-29" transform="matrix(1 0 0 1 122.9329 36.2363)" fill="#F5F5F5" font-family="'Arial'" font-size="10">29</text>
	<text fid="NS-28" transform="matrix(1 0 0 1 168.1375 36.2363)" fill="#F5F5F5" font-family="'Arial'" font-size="10">28</text>
	<text fid="NS-27" transform="matrix(1 0 0 1 230.071 36.2363)" fill="#F5F5F5" font-family="'Arial'" font-size="10">27</text>
	<text fid="NS-26" transform="matrix(1 0 0 1 292.0061 36.2363)" fill="#F5F5F5" font-family="'Arial'" font-size="10">26</text>
	<text fid="NS-25" transform="matrix(1 0 0 1 353.2288 36.2363)" fill="#F5F5F5" font-family="'Arial'" font-size="10">25</text>
	<text fid="NS-24" transform="matrix(1 0 0 1 415.1604 36.2363)" fill="#F5F5F5" font-family="'Arial'" font-size="10">24</text>
	<text fid="NS-23" transform="matrix(1 0 0 1 476.7405 36.2363)" fill="#F5F5F5" font-family="'Arial'" font-size="10">23</text>
	<text fid="NS-22" transform="matrix(1 0 0 1 525.5042 36.2363)" fill="#F5F5F5" font-family="'Arial'" font-size="10">22</text>
</g>
<g id="EXTRAS">
	
		<rect x="115.901" y="446.751" fill="#CCCCCC" stroke="#222222" stroke-width="0" width="158.89" height="9.389"/>
	
		<rect x="390.689" y="446.751" fill="#CCCCCC" stroke="#222222" stroke-width="0" width="158.884" height="9.389"/>
	
		<rect x="1" y="77.994" fill="#CCCCCC" stroke="#222222" stroke-width="0" width="79.151" height="302.688"/>
</g>
<g id="PITCH">
	<g>
		<g>
			<rect x="143.781" y="118.007" fill="#72BE44" width="373.5" height="245.531"/>
		</g>
		<g>
			<rect x="160.025" y="118.007" fill="#109A49" width="16.252" height="245.531"/>
		</g>
		<g>
			<rect x="192.5" y="118.007" fill="#109A49" width="16.256" height="245.531"/>
		</g>
		<g>
			<rect x="224.983" y="118.007" fill="#109A49" width="16.248" height="245.531"/>
		</g>
		<g>
			<rect x="257.46" y="118.007" fill="#109A49" width="16.249" height="245.531"/>
		</g>
		<g>
			<rect x="289.938" y="118.007" fill="#109A49" width="16.242" height="245.531"/>
		</g>
		<g>
			<rect x="322.42" y="118.007" fill="#109A49" width="16.238" height="245.531"/>
		</g>
		<g>
			<rect x="354.901" y="118.007" fill="#109A49" width="16.242" height="245.531"/>
		</g>
		<g>
			<rect x="387.365" y="118.007" fill="#109A49" width="16.254" height="245.531"/>
		</g>
		<g>
			<rect x="419.848" y="118.007" fill="#109A49" width="16.248" height="245.531"/>
		</g>
		<g>
			<rect x="452.323" y="118.007" fill="#109A49" width="16.254" height="245.531"/>
		</g>
		<g>
			<rect x="484.805" y="118.007" fill="#109A49" width="16.262" height="245.531"/>
		</g>
		<g id="LINES">
			<rect x="483.182" y="118.007" fill="#FFFFFF" width="0.912" height="245.531"/>
			<rect x="176.971" y="118.007" fill="#FFFFFF" width="0.91" height="245.531"/>
			<g>
				<polygon fill="#FFFFFF" points="177.218,229.331 131.699,216.123 132.115,213.938 177.635,227.143 				"/>
				<polygon fill="#FFFFFF" points="132.115,267.609 131.699,265.424 177.218,252.217 177.635,254.4 				"/>
				<rect x="155.464" y="222.26" fill="#FFFFFF" width="1.82" height="37.049"/>
				<polygon fill="#FFFFFF" points="483.85,229.331 483.432,227.143 528.947,213.938 529.363,216.123 				"/>
				<polygon fill="#FFFFFF" points="528.947,267.609 483.432,254.4 483.85,252.217 529.363,265.424 				"/>
				<rect x="503.777" y="222.26" fill="#FFFFFF" width="1.822" height="37.049"/>
			</g>
			<rect x="330.073" y="131.571" fill="#FFFFFF" width="0.914" height="216.971"/>
			<rect x="372.517" y="131.571" fill="#FFFFFF" width="0.904" height="216.971"/>
			<rect x="426.803" y="131.571" fill="#FFFFFF" width="0.91" height="216.971"/>
			<rect x="287.641" y="131.571" fill="#FFFFFF" width="0.907" height="216.971"/>
			<rect x="233.352" y="131.571" fill="#FFFFFF" width="0.908" height="216.971"/>
		</g>
		<g>
			<path fill="#2B2E31" d="M301.531,103.06h-1.924l-3.104-5.4h-0.044c0.062,0.954,0.093,1.634,0.093,2.041v3.359h-1.354v-7.139
				h1.909l3.102,5.347h0.033c-0.049-0.928-0.07-1.583-0.07-1.968v-3.379h1.359V103.06L301.531,103.06z"/>
			<path fill="#2B2E31" d="M309.809,99.48c0,1.182-0.293,2.09-0.879,2.725c-0.586,0.635-1.426,0.952-2.521,0.952
				c-1.094,0-1.934-0.317-2.52-0.952c-0.586-0.635-0.879-1.546-0.879-2.734s0.294-2.096,0.881-2.722
				c0.588-0.626,1.43-0.94,2.527-0.94c1.097,0,1.936,0.316,2.517,0.947S309.809,98.295,309.809,99.48z M304.599,99.48
				c0,0.797,0.151,1.398,0.454,1.802c0.303,0.404,0.755,0.605,1.354,0.605c1.207,0,1.813-0.802,1.813-2.407
				c0-1.608-0.604-2.412-1.802-2.412c-0.604,0-1.06,0.203-1.362,0.608C304.751,98.082,304.599,98.683,304.599,99.48z"/>
			<path fill="#2B2E31" d="M312.802,100.32v2.739h-1.517V95.92h2.08c0.973,0,1.688,0.177,2.153,0.53
				c0.465,0.353,0.698,0.89,0.698,1.609c0,0.42-0.116,0.793-0.35,1.121c-0.229,0.327-0.559,0.583-0.979,0.769
				c1.074,1.605,1.771,2.642,2.1,3.11h-1.68l-1.704-2.739H312.802z M312.802,99.09h0.485c0.479,0,0.831-0.08,1.063-0.239
				c0.228-0.16,0.342-0.41,0.342-0.752c0-0.338-0.116-0.58-0.35-0.723c-0.232-0.143-0.596-0.215-1.081-0.215h-0.459V99.09z"/>
			<path fill="#2B2E31" d="M320.644,103.06h-1.514v-5.879h-1.938v-1.26h5.391v1.26h-1.938L320.644,103.06L320.644,103.06z"/>
			<path fill="#2B2E31" d="M329.529,103.06h-1.508v-3.081h-2.828v3.081h-1.514v-7.139h1.514v2.798h2.828v-2.798h1.508V103.06z"/>
			<path fill="#2B2E31" d="M338.143,101.077c0,0.645-0.231,1.152-0.695,1.523s-1.106,0.557-1.936,0.557
				c-0.762,0-1.438-0.143-2.021-0.43v-1.406c0.481,0.215,0.892,0.366,1.226,0.454c0.334,0.088,0.639,0.132,0.916,0.132
				c0.332,0,0.586-0.063,0.764-0.19s0.266-0.316,0.266-0.566c0-0.14-0.039-0.265-0.114-0.374c-0.078-0.109-0.192-0.214-0.347-0.315
				c-0.149-0.101-0.46-0.262-0.926-0.483c-0.436-0.205-0.763-0.402-0.979-0.591c-0.222-0.189-0.396-0.409-0.523-0.659
				s-0.195-0.543-0.195-0.879c0-0.631,0.216-1.128,0.646-1.489c0.428-0.361,1.02-0.542,1.772-0.542c0.371,0,0.728,0.044,1.063,0.132
				s0.688,0.211,1.058,0.371l-0.486,1.177c-0.383-0.156-0.695-0.265-0.944-0.327s-0.494-0.093-0.734-0.093
				c-0.287,0-0.507,0.067-0.66,0.2c-0.149,0.133-0.229,0.308-0.229,0.522c0,0.133,0.03,0.25,0.092,0.349
				c0.063,0.099,0.16,0.195,0.296,0.288c0.137,0.093,0.455,0.26,0.96,0.5c0.667,0.319,1.124,0.639,1.371,0.959
				C338.02,100.219,338.143,100.612,338.143,101.077z"/>
			<path fill="#2B2E31" d="M342.191,103.06h-1.514v-5.879h-1.939v-1.26h5.394v1.26h-1.938L342.191,103.06L342.191,103.06z"/>
			<path fill="#2B2E31" d="M349.598,103.06l-0.521-1.699h-2.602l-0.519,1.699h-1.633l2.521-7.168h1.85l2.529,7.168H349.598z
				 M348.719,100.091c-0.479-1.54-0.748-2.411-0.811-2.612c-0.06-0.201-0.104-0.361-0.13-0.479
				c-0.104,0.417-0.414,1.447-0.922,3.091H348.719z"/>
			<path fill="#2B2E31" d="M358.461,103.06h-1.927l-3.104-5.4h-0.045c0.063,0.954,0.094,1.634,0.094,2.041v3.359h-1.354v-7.139
				h1.908l3.103,5.347h0.035c-0.052-0.928-0.074-1.583-0.074-1.968v-3.379h1.362v7.139H358.461z"/>
			<path fill="#2B2E31" d="M366.18,99.422c0,1.175-0.334,2.075-1.003,2.7s-1.636,0.938-2.897,0.938h-2.021v-7.139h2.237
				c1.166,0,2.07,0.308,2.718,0.923C365.859,97.459,366.18,98.318,366.18,99.422z M364.607,99.461c0-1.533-0.677-2.3-2.031-2.3
				h-0.805v4.648h0.648C363.879,101.81,364.607,101.027,364.607,99.461z"/>
		</g>
		<g>
			<path fill="#2B2E31" d="M300.243,382.145c0,0.646-0.229,1.151-0.693,1.522s-1.109,0.558-1.938,0.558
				c-0.762,0-1.436-0.144-2.021-0.431v-1.405c0.479,0.215,0.89,0.365,1.223,0.453c0.334,0.088,0.642,0.133,0.916,0.133
				c0.332,0,0.587-0.063,0.764-0.188c0.181-0.127,0.27-0.313,0.27-0.565c0-0.141-0.039-0.266-0.117-0.373s-0.193-0.215-0.345-0.313
				c-0.152-0.101-0.46-0.263-0.925-0.483c-0.438-0.205-0.767-0.4-0.981-0.591c-0.219-0.188-0.393-0.407-0.521-0.659
				c-0.131-0.251-0.195-0.544-0.195-0.879c0-0.632,0.214-1.128,0.642-1.488c0.432-0.36,1.021-0.543,1.775-0.543
				c0.371,0,0.725,0.045,1.062,0.133s0.689,0.211,1.061,0.371l-0.488,1.176c-0.381-0.153-0.696-0.264-0.945-0.324
				c-0.249-0.063-0.493-0.096-0.731-0.096c-0.287,0-0.507,0.067-0.659,0.201c-0.152,0.133-0.229,0.31-0.229,0.521
				c0,0.134,0.027,0.25,0.093,0.35c0.062,0.101,0.16,0.194,0.295,0.288c0.136,0.093,0.455,0.261,0.96,0.5
				c0.667,0.318,1.124,0.64,1.372,0.96C300.119,381.285,300.243,381.68,300.243,382.145z"/>
			<path fill="#2B2E31" d="M308.02,380.547c0,1.182-0.293,2.09-0.879,2.725c-0.586,0.638-1.426,0.953-2.521,0.953
				c-1.094,0-1.934-0.315-2.52-0.953c-0.586-0.635-0.879-1.545-0.879-2.731s0.294-2.099,0.881-2.724
				c0.588-0.627,1.43-0.938,2.527-0.938c1.097,0,1.936,0.313,2.517,0.947C307.727,378.456,308.02,379.361,308.02,380.547z
				 M302.81,380.547c0,0.799,0.151,1.396,0.454,1.803c0.303,0.404,0.755,0.604,1.354,0.604c1.207,0,1.813-0.804,1.813-2.407
				c0-1.607-0.604-2.412-1.802-2.412c-0.604,0-1.06,0.202-1.362,0.608C302.962,379.146,302.81,379.749,302.81,380.547z"/>
			<path fill="#2B2E31" d="M315.31,376.986v4.619c0,0.525-0.118,0.988-0.354,1.388c-0.232,0.396-0.574,0.7-1.021,0.913
				c-0.446,0.212-0.974,0.316-1.582,0.316c-0.918,0-1.631-0.234-2.139-0.705c-0.511-0.473-0.765-1.115-0.765-1.934v-4.602h1.512
				v4.369c0,0.551,0.107,0.955,0.329,1.211c0.224,0.258,0.59,0.389,1.102,0.389c0.494,0,0.854-0.131,1.076-0.391
				c0.224-0.258,0.335-0.664,0.335-1.219v-4.359h1.507V376.986L315.31,376.986z"/>
			<path fill="#2B2E31" d="M319.812,384.126h-1.514v-5.879h-1.938v-1.261h5.394v1.261h-1.938L319.812,384.126L319.812,384.126z"/>
			<path fill="#2B2E31" d="M328.697,384.126h-1.508v-3.081h-2.828v3.081h-1.514v-7.14h1.514v2.799h2.828v-2.799h1.508V384.126z"/>
			<path fill="#2B2E31" d="M337.311,382.145c0,0.646-0.231,1.151-0.695,1.522s-1.106,0.558-1.936,0.558
				c-0.762,0-1.438-0.144-2.021-0.431v-1.405c0.481,0.215,0.892,0.365,1.226,0.453s0.639,0.133,0.916,0.133
				c0.332,0,0.586-0.063,0.764-0.188s0.266-0.313,0.266-0.565c0-0.141-0.039-0.266-0.114-0.373
				c-0.078-0.107-0.192-0.215-0.347-0.313c-0.149-0.101-0.46-0.263-0.926-0.483c-0.436-0.205-0.763-0.4-0.979-0.591
				c-0.222-0.188-0.396-0.407-0.523-0.659c-0.128-0.251-0.195-0.544-0.195-0.879c0-0.632,0.216-1.128,0.646-1.488
				c0.428-0.36,1.02-0.543,1.772-0.543c0.371,0,0.728,0.045,1.063,0.133s0.688,0.211,1.058,0.371l-0.485,1.176
				c-0.384-0.153-0.696-0.264-0.945-0.324c-0.249-0.063-0.494-0.096-0.734-0.096c-0.287,0-0.507,0.067-0.66,0.201
				c-0.149,0.133-0.229,0.31-0.229,0.521c0,0.134,0.03,0.25,0.092,0.35c0.063,0.101,0.16,0.194,0.296,0.288
				c0.137,0.093,0.455,0.261,0.96,0.5c0.667,0.318,1.124,0.64,1.371,0.96C337.188,381.285,337.311,381.68,337.311,382.145z"/>
			<path fill="#2B2E31" d="M341.359,384.126h-1.514v-5.879h-1.939v-1.261h5.394v1.261h-1.938L341.359,384.126L341.359,384.126z"/>
			<path fill="#2B2E31" d="M348.766,384.126l-0.521-1.699h-2.602l-0.518,1.699h-1.634l2.521-7.168h1.85l2.529,7.168H348.766z
				 M347.887,381.157c-0.479-1.539-0.748-2.41-0.811-2.612c-0.06-0.202-0.104-0.361-0.13-0.479
				c-0.104,0.416-0.414,1.445-0.922,3.091H347.887z"/>
			<path fill="#2B2E31" d="M357.629,384.126h-1.927l-3.104-5.399h-0.045c0.063,0.953,0.094,1.635,0.094,2.041v3.358h-1.354v-7.14
				h1.907l3.103,5.348h0.035c-0.052-0.928-0.074-1.583-0.074-1.968v-3.38h1.363L357.629,384.126L357.629,384.126z"/>
			<path fill="#2B2E31" d="M365.348,380.488c0,1.175-0.334,2.074-1.003,2.699s-1.635,0.938-2.897,0.938h-2.021v-7.141h2.239
				c1.164,0,2.068,0.31,2.716,0.925C365.027,378.525,365.348,379.385,365.348,380.488z M363.775,380.527
				c0-1.533-0.677-2.301-2.031-2.301h-0.805v4.646h0.648C363.047,382.876,363.775,382.093,363.775,380.527z"/>
		</g>
		<g>
			<path fill="#2B2E31" d="M123.959,288.053v-2.832h3.701c0.147,0.459,0.255,0.895,0.313,1.297c0.063,0.405,0.09,0.819,0.09,1.242
				c0,1.077-0.313,1.9-0.946,2.469c-0.637,0.567-1.542,0.854-2.729,0.854c-1.152,0-2.051-0.329-2.695-0.989
				c-0.645-0.656-0.967-1.57-0.967-2.738c0-0.732,0.146-1.438,0.439-2.119l1.211,0.502c-0.262,0.521-0.394,1.063-0.394,1.627
				c0,0.654,0.223,1.179,0.659,1.572c0.439,0.393,1.03,0.59,1.772,0.59c0.772,0,1.364-0.157,1.772-0.479
				c0.408-0.314,0.612-0.775,0.612-1.384c0-0.313-0.032-0.638-0.098-0.962h-1.489v1.354h-1.257v-0.004H123.959z"/>
			<path fill="#2B2E31" d="M124.389,277.042c1.182,0,2.09,0.293,2.725,0.879c0.638,0.586,0.952,1.427,0.952,2.521
				c0,1.096-0.314,1.936-0.952,2.521c-0.635,0.586-1.546,0.879-2.731,0.879c-1.188,0-2.096-0.294-2.722-0.881
				c-0.63-0.588-0.94-1.432-0.94-2.525c0-1.099,0.316-1.938,0.947-2.52C122.296,277.333,123.204,277.042,124.389,277.042z
				 M124.389,282.252c0.798,0,1.398-0.15,1.802-0.454c0.404-0.303,0.605-0.756,0.605-1.356c0-1.207-0.802-1.813-2.407-1.813
				c-1.604,0-2.412,0.602-2.412,1.803c0,0.604,0.203,1.059,0.608,1.361C122.99,282.098,123.592,282.252,124.389,282.252z"/>
			<path fill="#2B2E31" d="M127.968,275.563h-7.139v-1.514h5.889v-2.896h1.25V275.563z"/>
			<path fill="#2B2E31" d="M124.33,263.99c1.176,0,2.072,0.335,2.697,1.003c0.625,0.67,0.938,1.635,0.938,2.897v2.021h-7.139v-2.241
				c0-1.165,0.308-2.068,0.923-2.715C122.365,264.309,123.227,263.99,124.33,263.99z M124.369,265.563
				c-1.533,0-2.303,0.68-2.303,2.031v0.807h4.648v-0.647C126.718,266.292,125.936,265.563,124.369,265.563z"/>
			<path fill="#2B2E31" d="M125.985,258.297c0.646,0,1.152,0.23,1.523,0.696c0.371,0.463,0.557,1.108,0.557,1.937
				c0,0.762-0.143,1.438-0.43,2.021h-1.406c0.215-0.482,0.366-0.891,0.454-1.225s0.132-0.64,0.132-0.916
				c0-0.332-0.063-0.586-0.188-0.765c-0.125-0.178-0.315-0.267-0.566-0.267c-0.14,0-0.265,0.037-0.373,0.115
				c-0.106,0.078-0.214,0.191-0.313,0.347c-0.104,0.149-0.265,0.459-0.483,0.925c-0.205,0.438-0.4,0.764-0.591,0.98
				c-0.188,0.22-0.408,0.394-0.659,0.521c-0.25,0.13-0.543,0.195-0.879,0.195c-0.631,0-1.128-0.217-1.489-0.645
				c-0.358-0.429-0.542-1.02-0.542-1.773c0-0.37,0.044-0.727,0.132-1.063c0.09-0.336,0.214-0.688,0.371-1.057l1.18,0.486
				c-0.156,0.383-0.268,0.695-0.327,0.945c-0.063,0.247-0.094,0.493-0.094,0.733c0,0.286,0.065,0.506,0.198,0.659
				c0.136,0.151,0.311,0.229,0.522,0.229c0.134,0,0.25-0.031,0.35-0.093c0.102-0.062,0.195-0.16,0.288-0.296
				c0.093-0.135,0.26-0.455,0.5-0.959c0.319-0.668,0.64-1.125,0.96-1.372C125.127,258.421,125.521,258.297,125.985,258.297z"/>
			<path fill="#2B2E31" d="M127.968,253.98l-5.601,1.719v0.044c1.14-0.063,1.896-0.093,2.277-0.093h3.32v1.353h-7.139v-2.062
				l5.459-1.688v-0.028l-5.459-1.793v-2.061h7.139v1.411h-3.379c-0.159,0-0.343-0.003-0.552-0.009
				c-0.208-0.004-0.765-0.025-1.66-0.064v0.044l5.591,1.841L127.968,253.98L127.968,253.98z"/>
			<path fill="#2B2E31" d="M127.968,247.574h-7.139v-1.514h7.139V247.574z"/>
			<path fill="#2B2E31" d="M127.968,241.51v1.514h-5.879v1.938h-1.26v-5.391h1.26v1.938L127.968,241.51L127.968,241.51z"/>
			<path fill="#2B2E31" d="M127.968,232.623v1.509h-3.081v2.827h3.081v1.514h-7.139v-1.514h2.798v-2.827h-2.798v-1.509H127.968z"/>
			<path fill="#2B2E31" d="M125.985,226.607c0.646,0,1.152,0.232,1.523,0.696c0.371,0.464,0.557,1.109,0.557,1.938
				c0,0.762-0.143,1.436-0.43,2.021h-1.406c0.215-0.481,0.366-0.89,0.454-1.223c0.088-0.334,0.132-0.639,0.132-0.916
				c0-0.332-0.063-0.587-0.188-0.764c-0.127-0.177-0.315-0.266-0.566-0.266c-0.14,0-0.265,0.039-0.373,0.117
				c-0.106,0.078-0.214,0.193-0.313,0.344c-0.104,0.151-0.265,0.46-0.483,0.925c-0.205,0.437-0.4,0.763-0.591,0.981
				c-0.188,0.219-0.408,0.393-0.659,0.522c-0.25,0.13-0.543,0.195-0.879,0.195c-0.631,0-1.128-0.214-1.489-0.642
				c-0.358-0.429-0.542-1.02-0.542-1.775c0-0.371,0.044-0.725,0.132-1.062c0.091-0.337,0.214-0.689,0.371-1.057l1.18,0.488
				c-0.156,0.381-0.268,0.696-0.327,0.945c-0.063,0.249-0.094,0.494-0.094,0.735c0,0.287,0.065,0.506,0.198,0.659
				c0.136,0.153,0.311,0.229,0.522,0.229c0.134,0,0.25-0.031,0.35-0.093c0.102-0.062,0.195-0.16,0.288-0.295
				c0.093-0.135,0.26-0.455,0.5-0.959c0.319-0.667,0.64-1.125,0.96-1.372C125.127,226.731,125.521,226.607,125.985,226.607z"/>
			<path fill="#2B2E31" d="M125.985,218.502c0.646,0,1.152,0.232,1.523,0.696c0.371,0.464,0.557,1.109,0.557,1.936
				c0,0.762-0.143,1.436-0.43,2.021h-1.406c0.215-0.482,0.366-0.89,0.454-1.223s0.132-0.639,0.132-0.916
				c0-0.332-0.063-0.587-0.188-0.764s-0.315-0.266-0.566-0.266c-0.14,0-0.265,0.039-0.373,0.117
				c-0.106,0.078-0.214,0.193-0.313,0.344c-0.104,0.151-0.265,0.46-0.483,0.925c-0.205,0.436-0.4,0.763-0.591,0.981
				c-0.188,0.218-0.408,0.392-0.659,0.522c-0.25,0.13-0.543,0.195-0.879,0.195c-0.631,0-1.128-0.214-1.489-0.642
				c-0.358-0.428-0.542-1.02-0.542-1.775c0-0.371,0.044-0.725,0.132-1.062c0.091-0.337,0.214-0.689,0.371-1.057l1.18,0.488
				c-0.156,0.381-0.268,0.696-0.327,0.945c-0.063,0.249-0.094,0.494-0.094,0.735c0,0.287,0.065,0.506,0.198,0.659
				c0.136,0.153,0.311,0.229,0.522,0.229c0.134,0,0.25-0.031,0.35-0.093c0.102-0.062,0.195-0.16,0.288-0.295
				c0.093-0.135,0.26-0.455,0.5-0.959c0.319-0.667,0.64-1.125,0.96-1.372C125.127,218.625,125.521,218.502,125.985,218.502z"/>
			<path fill="#2B2E31" d="M127.968,214.454v1.514h-5.879v1.938h-1.26v-5.391h1.26v1.938L127.968,214.454L127.968,214.454z"/>
			<path fill="#2B2E31" d="M127.968,207.047l-1.699,0.518v2.603l1.699,0.518v1.631l-7.168-2.52v-1.851l7.168-2.529V207.047z
				 M124.999,207.926c-1.539,0.479-2.41,0.748-2.612,0.808c-0.201,0.06-0.361,0.104-0.479,0.129
				c0.417,0.107,1.444,0.415,3.091,0.923V207.926L124.999,207.926z"/>
			<path fill="#2B2E31" d="M127.968,198.185v1.924l-5.4,3.105v0.044c0.954-0.062,1.638-0.093,2.041-0.093h3.359v1.353h-7.139v-1.909
				l5.347-3.101v-0.034c-0.928,0.049-1.583,0.073-1.968,0.073h-3.379v-1.362H127.968z"/>
			<path fill="#2B2E31" d="M124.33,190.465c1.176,0,2.072,0.334,2.697,1.003c0.625,0.669,0.938,1.635,0.938,2.898v2.021h-7.139
				v-2.241c0-1.166,0.308-2.07,0.923-2.715C122.365,190.786,123.227,190.465,124.33,190.465z M124.369,192.037
				c-1.533,0-2.303,0.677-2.303,2.031v0.806h4.648v-0.649C126.718,192.766,125.936,192.037,124.369,192.037z"/>
		</g>
		<g>
			<path fill="#2B2E31" d="M533.092,215.719v-4.111h7.139v4.111h-1.24v-2.598h-1.564v2.417h-1.24v-2.417h-1.841v2.598H533.092z"/>
			<path fill="#2B2E31" d="M533.092,221.578l1.696-0.518v-2.603l-1.696-0.518v-1.631l7.168,2.52v1.851l-7.168,2.529V221.578z
				 M536.061,220.699c1.539-0.479,2.41-0.748,2.612-0.808s0.358-0.104,0.479-0.129c-0.417-0.107-1.446-0.415-3.091-0.923V220.699z"
				/>
			<path fill="#2B2E31" d="M535.073,228.321c-0.645,0-1.149-0.232-1.521-0.696s-0.56-1.109-0.56-1.936
				c0-0.762,0.146-1.436,0.433-2.021h1.403c-0.215,0.482-0.363,0.89-0.453,1.223c-0.088,0.333-0.133,0.639-0.133,0.916
				c0,0.332,0.063,0.587,0.19,0.764c0.127,0.177,0.313,0.266,0.564,0.266c0.142,0,0.267-0.039,0.374-0.117
				c0.107-0.078,0.215-0.193,0.313-0.344c0.101-0.151,0.262-0.46,0.483-0.925c0.203-0.436,0.398-0.763,0.591-0.981
				c0.188-0.218,0.407-0.392,0.659-0.522c0.25-0.13,0.544-0.195,0.879-0.195c0.632,0,1.128,0.214,1.486,0.642
				c0.361,0.428,0.543,1.02,0.543,1.775c0,0.371-0.045,0.725-0.133,1.062s-0.211,0.689-0.371,1.057l-1.177-0.488
				c0.156-0.381,0.267-0.696,0.327-0.945c0.062-0.249,0.093-0.494,0.093-0.735c0-0.287-0.064-0.506-0.2-0.659
				c-0.133-0.153-0.308-0.229-0.521-0.229c-0.134,0-0.25,0.031-0.349,0.093c-0.103,0.062-0.195,0.16-0.289,0.295
				c-0.095,0.135-0.263,0.455-0.5,0.959c-0.318,0.667-0.642,1.125-0.959,1.372C535.933,228.198,535.536,228.321,535.073,228.321z"/>
			<path fill="#2B2E31" d="M533.092,232.369v-1.514h5.879v-1.938h1.26v5.391h-1.26v-1.938L533.092,232.369L533.092,232.369z"/>
			<path fill="#2B2E31" d="M535.073,242.218c-0.645,0-1.149-0.232-1.521-0.695c-0.371-0.465-0.56-1.109-0.56-1.937
				c0-0.762,0.146-1.436,0.433-2.021h1.403c-0.215,0.481-0.363,0.89-0.453,1.224c-0.088,0.333-0.133,0.639-0.133,0.915
				c0,0.332,0.063,0.587,0.19,0.765c0.127,0.177,0.313,0.266,0.564,0.266c0.142,0,0.267-0.039,0.374-0.117
				c0.107-0.078,0.215-0.193,0.313-0.344c0.103-0.152,0.262-0.461,0.483-0.926c0.203-0.436,0.398-0.764,0.591-0.981
				c0.188-0.217,0.407-0.392,0.659-0.522c0.25-0.13,0.544-0.195,0.879-0.195c0.632,0,1.128,0.214,1.486,0.643
				c0.361,0.428,0.543,1.02,0.543,1.774c0,0.371-0.045,0.726-0.133,1.062c-0.088,0.338-0.211,0.689-0.371,1.058l-1.177-0.488
				c0.156-0.381,0.267-0.696,0.327-0.944c0.063-0.25,0.093-0.494,0.093-0.735c0-0.286-0.064-0.507-0.2-0.659
				c-0.133-0.152-0.308-0.229-0.521-0.229c-0.134,0-0.25,0.03-0.349,0.093c-0.103,0.063-0.195,0.16-0.289,0.295
				c-0.095,0.136-0.263,0.455-0.5,0.96c-0.318,0.667-0.642,1.124-0.959,1.372C535.933,242.095,535.536,242.218,535.073,242.218z"/>
			<path fill="#2B2E31" d="M533.092,246.266v-1.514h5.879v-1.938h1.26v5.391h-1.26v-1.938h-5.879V246.266z"/>
			<path fill="#2B2E31" d="M533.092,253.673l1.696-0.519v-2.604l-1.696-0.518V248.4l7.168,2.521v1.853l-7.168,2.527V253.673z
				 M536.061,252.794c1.539-0.479,2.41-0.748,2.612-0.81s0.358-0.104,0.479-0.129c-0.417-0.106-1.446-0.414-3.091-0.922V252.794z"/>
			<path fill="#2B2E31" d="M533.092,262.535v-1.924l5.397-3.105v-0.044c-0.953,0.063-1.635,0.093-2.041,0.093h-3.356v-1.353h7.139
				v1.909l-5.347,3.101v0.034c0.928-0.049,1.583-0.073,1.968-0.073h3.379v1.362H533.092L533.092,262.535z"/>
			<path fill="#2B2E31" d="M536.729,270.255c-1.175,0-2.075-0.334-2.7-1.004c-0.625-0.668-0.938-1.635-0.938-2.897v-2.021h7.139
				v2.241c0,1.166-0.308,2.07-0.923,2.715S537.83,270.255,536.729,270.255z M536.69,268.684c1.533,0,2.3-0.679,2.3-2.031v-0.807
				h-4.646v0.649C534.342,267.954,535.125,268.684,536.69,268.684z"/>
		</g>
	</g>
</g>
</svg>
