<svg>
   <g id="PITCH">
      <path fill="#069348" d="M273.454,283.636l-33.839-19.537l-1.598,0.929l33.839,19.537L273.454,283.636 M294.956,281.14
         l-51.109-29.508l-14.468,8.408l7.93,4.578l2.302-1.338l35.256,20.355l-2.302,1.338l7.923,4.574L294.956,281.14 M259.314,254.728
         l-40.663-23.477l-19.505,11.335l29.523,17.045l15.172-8.817l9.283,5.359C255.103,255.521,257.185,255.039,259.314,254.728
         M288.732,271.712L260.15,255.21c-2.161,0.284-4.277,0.745-6.284,1.391l32.485,18.756
         C287.459,274.191,288.249,272.964,288.732,271.712 M330.224,295.667l-40.66-23.475c-0.533,1.233-1.356,2.441-2.479,3.588
         l9.29,5.363l-15.172,8.817l29.517,17.041L330.224,295.667 M339.214,300.857l-8.281-4.781l-19.505,11.335l8.281,4.781
         L339.214,300.857 M369.222,273.004L257.65,208.588l-19.499,11.331l111.572,64.417L369.222,273.004 M378.212,278.194l-8.281-4.781
         l-19.499,11.331l8.281,4.781L378.212,278.194 M316.074,208.84l-29.525-17.047l-9.395,5.459l31.424,18.143
         C310.306,213.021,312.803,210.792,316.074,208.84 M367.887,238.754l-51.104-29.505c-3.277,1.958-5.756,4.201-7.437,6.589
         l47.19,27.246C360.654,242.102,364.519,240.658,367.887,238.754 M398.121,256.209l-29.519-17.042
         c-3.361,1.901-7.2,3.354-11.294,4.362l31.418,18.14L398.121,256.209 M328.079,204.064l-31.425-18.144l-9.4,5.463l29.525,17.047
         C320.14,206.528,323.982,205.072,328.079,204.064 M376.035,231.752l-47.19-27.245c-4.122,0.982-7.988,2.427-11.358,4.333
         l51.104,29.505C371.871,236.386,374.353,234.143,376.035,231.752 M408.226,250.337l-31.419-18.14
         c-1.727,2.376-4.227,4.606-7.5,6.561l29.519,17.042L408.226,250.337 M417.216,255.527l-8.281-4.781l-19.499,11.332l8.281,4.781
         L417.216,255.527 M447.229,227.671l-111.572-64.417l-19.505,11.335l111.572,64.417L447.229,227.671 M456.22,232.86l-8.281-4.78
         l-19.505,11.335l8.281,4.781L456.22,232.86 M431.521,190.993l-32.485-18.755c-1.107,1.165-1.897,2.392-2.38,3.645l28.582,16.502
         C427.397,192.1,429.514,191.638,431.521,190.993 M404.185,157.633l-29.522-17.045l-19.506,11.335l40.663,23.477
         c0.532-1.235,1.354-2.442,2.476-3.59l-9.283-5.359L404.185,157.633 M447.371,182.566l-33.839-19.537l-1.599,0.929l33.839,19.537
         L447.371,182.566 M456.003,187.55l-7.924-4.575l-2.303,1.338l-35.256-20.355l2.303-1.338l-7.93-4.578l-14.469,8.408l8.389,4.844
         l34.331,19.82l8.39,4.844L456.003,187.55 M486.234,205.004l-29.517-17.042l-15.173,8.818l-9.29-5.363
         c-1.976,0.653-4.057,1.134-6.186,1.447l40.659,23.475L486.234,205.004 M495.224,210.194l-8.28-4.781l-19.506,11.335l8.281,4.781
         L495.224,210.194 M385.171,124.066L170.659,248.728l129.551,74.796l-129.551-74.796l19.499-11.332l8.281,4.781l19.505-11.335
         l-8.281-4.781l19.499-11.332l8.281,4.781l19.499-11.331l-8.281-4.781l19.505-11.335l8.281,4.781l19.499-11.332l-8.281-4.781
         l19.499-11.332l8.281,4.781l19.505-11.335l-8.281-4.781l19.499-11.332l8.281,4.781l19.505-11.335l-8.28-4.781L385.171,124.066"/>
      <path fill="#056938" d="M228.67,259.631l-29.523-17.045l-10.568,6.142l29.523,17.045L228.67,259.631 M237.308,264.618l-7.93-4.578
         l-10.568,6.142l7.93,4.578L237.308,264.618 M271.855,284.564l-33.839-19.537l-10.568,6.142l33.839,19.536L271.855,284.564
         M280.488,289.548l-7.923-4.574l-10.568,6.141l7.923,4.575L280.488,289.548 M310.719,307.002l-29.517-17.041l-10.568,6.141
         l29.517,17.042L310.719,307.002 M319.708,312.192l-8.281-4.781l-11.272,6.551l-112.989-65.234l11.272-6.551l-8.281-4.781
         l-19.499,11.332l129.551,74.796L319.708,312.192"/>
      <path fill="#056938" d="M282.275,258.908c-5.917-3.416-14.313-4.724-22.125-3.698l28.582,16.502
         C290.476,267.183,288.192,262.324,282.275,258.908 M237.442,219.51l-8.281-4.781l-19.499,11.332l8.281,4.781L237.442,219.51
         M349.723,284.336l-111.572-64.417l-19.499,11.332l40.663,23.477c8.311-1.219,17.343,0.122,23.664,3.771
         c6.316,3.647,8.664,8.876,6.586,13.693l40.66,23.475L349.723,284.336 M358.713,289.525l-8.281-4.781l-19.499,11.332l8.281,4.781
         L358.713,289.525"/>
      <path fill="#056938" d="M276.446,196.843l-8.281-4.781l-19.505,11.335l8.281,4.781L276.446,196.843 M356.536,243.084l-47.19-27.246
         c-5.321,7.559-2.661,16.586,7.956,22.715C327.918,244.683,343.507,246.191,356.536,243.084 M388.727,261.669l-31.418-18.14
         c-13.47,3.313-29.698,1.791-40.711-4.567c-11.018-6.361-13.696-15.755-8.019-23.566l-31.424-18.143l-19.505,11.335l111.572,64.416
         L388.727,261.669 M397.717,266.859l-8.281-4.781l-19.505,11.335l8.281,4.781L397.717,266.859"/>
      <path fill="#056938" d="M368.085,209.041c-10.616-6.13-26.208-7.641-39.24-4.534l47.19,27.245
         C381.358,224.194,378.701,215.17,368.085,209.041 M315.444,174.18l-8.281-4.781l-19.499,11.332l8.281,4.781L315.444,174.18
         M427.725,239.006l-111.572-64.417l-19.499,11.332l31.425,18.144c13.467-3.315,29.693-1.794,40.71,4.567
         c11.014,6.358,13.694,15.753,8.018,23.565l31.419,18.14L427.725,239.006 M436.715,244.196l-8.281-4.781l-19.499,11.331l8.281,4.781
         L436.715,244.196"/>
      <path fill="#056938" d="M354.448,151.514l-8.281-4.781l-19.499,11.332l8.281,4.781L354.448,151.514 M425.237,192.384
         l-28.582-16.502c-1.745,4.529,0.541,9.388,6.457,12.803C409.029,192.101,417.425,193.409,425.237,192.384 M466.729,216.339
         l-40.659-23.475c-8.309,1.22-17.345-0.123-23.661-3.77c-6.321-3.649-8.666-8.877-6.589-13.695l-40.663-23.477l-19.499,11.332
         l111.572,64.417L466.729,216.339 M475.719,221.529l-8.281-4.781l-19.499,11.332l8.281,4.78L475.719,221.529"/>
      <path fill="#056938" d="M414.752,151.491l-29.522-17.045l-10.567,6.141l29.522,17.045L414.752,151.491 M423.391,156.479
         l-7.93-4.578l-10.567,6.142l7.93,4.578L423.391,156.479 M457.938,176.425L424.1,156.888l-10.567,6.142l33.839,19.537
         L457.938,176.425 M466.57,181.409l-7.924-4.575l-10.567,6.141l7.924,4.575L466.57,181.409 M496.802,198.863l-29.517-17.042
         l-10.567,6.141l29.517,17.042L496.802,198.863 M514.723,198.863l-129.552-74.796l-19.498,11.331l8.28,4.781l11.271-6.55
         l30.231,17.454l8.639,4.987l35.256,20.355l8.639,4.987l30.226,17.451l-11.271,6.55l8.28,4.781L514.723,198.863"/>
      <path fill="#FFFFFF" d="M316.778,208.431l-29.525-17.047l-0.351-0.202l-0.704,0.409l0.351,0.202l29.525,17.047
         c0.117-0.07,0.234-0.139,0.353-0.208C316.544,208.564,316.661,208.497,316.778,208.431 M368.591,238.345l-51.104-29.505
         c-0.118,0.066-0.235,0.134-0.352,0.201c-0.119,0.069-0.235,0.138-0.353,0.208l51.104,29.505c0.121-0.068,0.239-0.136,0.358-0.205
         C368.361,238.481,368.477,238.413,368.591,238.345 M399.183,256.007l-0.357-0.207l-29.519-17.042
         c-0.115,0.068-0.229,0.136-0.347,0.204c-0.118,0.068-0.237,0.137-0.357,0.205l29.519,17.042l0.357,0.207L399.183,256.007"/>
      <path fill="#FFFFFF" d="M328.845,204.507c13.031-3.107,28.624-1.596,39.24,4.534c10.616,6.129,13.273,15.153,7.95,22.711
         c-1.683,2.391-4.164,4.634-7.444,6.593c-0.114,0.068-0.229,0.137-0.346,0.204c-0.119,0.069-0.237,0.137-0.358,0.205
         c-3.368,1.904-7.232,3.348-11.351,4.33c-13.029,3.107-28.618,1.599-39.234-4.531c-10.617-6.129-13.276-15.156-7.956-22.715
         c1.681-2.388,4.16-4.631,7.437-6.589c0.117-0.07,0.233-0.139,0.353-0.208c0.116-0.067,0.233-0.135,0.352-0.201
         C320.857,206.934,324.724,205.489,328.845,204.507 M368.789,208.632c-11.018-6.361-27.243-7.882-40.71-4.567
         c-4.096,1.008-7.938,2.463-11.3,4.366c-0.118,0.066-0.234,0.133-0.351,0.201c-0.119,0.069-0.236,0.138-0.353,0.208
         c-3.271,1.953-5.769,4.181-7.495,6.556c-5.678,7.812-3,17.205,8.019,23.566c11.013,6.358,27.241,7.88,40.711,4.567
         c4.094-1.008,7.933-2.461,11.294-4.362c0.12-0.068,0.239-0.137,0.357-0.205c0.117-0.068,0.231-0.136,0.347-0.204
         c3.273-1.954,5.773-4.185,7.5-6.561C382.483,224.385,379.803,214.99,368.789,208.632"/>
      <path fill="#FFFFFF" d="M229.378,260.04l14.468-8.408l51.109,29.508l-14.468,8.408l-10.568,6.142l-7.923-4.575l-0.704,0.409
         l-35.256-20.354l0.704-0.409l-7.93-4.578L229.378,260.04 M296.375,281.144l-9.29-5.363c-0.062,0.063-0.125,0.128-0.19,0.191
         l-0.329,0.324l-34.331-19.82l0.559-0.191c0.11-0.038,0.22-0.075,0.33-0.111l-9.283-5.359l-15.172,8.817l-10.568,6.142l-0.704,0.409
         l52.533,30.329l0.704-0.409l10.568-6.141L296.375,281.144"/>
      <path fill="#FFFFFF" d="M238.017,265.027l1.598-0.929l33.839,19.537l-1.598,0.929l-10.568,6.141l-33.839-19.536L238.017,265.027
         M274.867,283.636L239.61,263.28l-2.302,1.338l-10.568,6.142l-0.704,0.409l35.256,20.354l0.704-0.409l10.568-6.141L274.867,283.636
         "/>
      <path fill="#FFFFFF" d="M260.15,255.21c7.812-1.025,16.208,0.282,22.125,3.698s8.201,8.274,6.457,12.804
         c-0.483,1.252-1.273,2.479-2.381,3.645l-32.485-18.756C255.873,255.955,257.989,255.494,260.15,255.21 M282.979,258.499
         c-6.321-3.649-15.354-4.99-23.664-3.771c-2.13,0.312-4.211,0.793-6.189,1.445c-0.11,0.036-0.22,0.073-0.33,0.111l-0.559,0.191
         l34.331,19.82l0.329-0.324c0.065-0.063,0.128-0.128,0.19-0.191c1.123-1.146,1.946-2.354,2.479-3.588
         C291.643,267.375,289.295,262.146,282.979,258.499"/>
      <polygon fill="none" points="170.659,248.728 385.171,124.066 514.723,198.863 300.21,323.523"/>
   </g>
   <g id="EXTRAS">
      <polyline fill="#C2C3C4" points="101.596,98.356 98.914,96.808 95.007,99.078 92.714,97.755 96.33,95.654 93.693,94.131 
         90.078,96.232 88.169,95.13 92.076,92.86 89.439,91.337 82.271,95.503 94.428,102.521 101.596,98.356"/>
      <path fill="#C2C3C4" d="M102.305,92.181c-1.408-1.393-2.361-2.318-2.86-2.775c-0.505-0.461-0.877-0.785-1.107-0.977
         c0.364,0.144,0.982,0.369,1.856,0.675c0.874,0.306,1.6,0.549,2.167,0.737l2.513,0.848L102.305,92.181 M114.688,90.748
         l-16.197-4.729l-4.352,2.529l8.262,9.341l3.59-2.086l-1.67-1.67l3.92-2.278l2.875,0.97L114.688,90.748"/>
      <path fill="#C2C3C4" d="M120.195,83.271c-0.824-0.476-1.704-0.748-2.652-0.825c-0.942-0.081-2.17,0.048-3.683,0.379
         c-1.583,0.343-2.593,0.531-3.026,0.568c-0.433,0.029-0.77-0.019-1.006-0.155c-0.224-0.129-0.313-0.291-0.27-0.494
         c0.043-0.195,0.278-0.42,0.703-0.667c0.818-0.476,2.057-0.892,3.709-1.246l-1.545-2.046c-1.881,0.42-3.444,0.995-4.693,1.721
         c-1.415,0.822-2.211,1.648-2.397,2.481c-0.18,0.83,0.289,1.57,1.406,2.215c0.6,0.347,1.212,0.59,1.836,0.73
         c0.631,0.144,1.312,0.199,2.044,0.166c0.731-0.033,1.667-0.177,2.817-0.424c1.258-0.28,2.059-0.442,2.384-0.483
         c0.33-0.044,0.604-0.055,0.814-0.037c0.223,0.019,0.415,0.078,0.581,0.173c0.268,0.155,0.371,0.347,0.309,0.575
         c-0.05,0.229-0.322,0.483-0.811,0.767c-0.558,0.324-1.263,0.63-2.12,0.915c-0.851,0.287-1.747,0.52-2.688,0.696l2.924,1.688
         c0.871-0.181,1.633-0.395,2.294-0.646c0.661-0.25,1.391-0.608,2.196-1.076c0.964-0.56,1.636-1.143,2.033-1.744
         c0.391-0.604,0.483-1.183,0.276-1.744C121.422,84.201,120.949,83.707,120.195,83.271"/>
      <polyline fill="#C2C3C4" points="124.553,74.045 121.865,72.493 112.712,77.813 115.4,79.364 118.35,77.65 127.818,83.117 
         131.079,81.222 121.61,75.755 124.553,74.045"/>
      <path fill="#C2C3C4" d="M144.343,69.238c-0.824-0.476-1.697-0.752-2.646-0.829c-0.949-0.078-2.176,0.051-3.689,0.383
         c-1.583,0.343-2.594,0.531-3.02,0.564c-0.439,0.033-0.771-0.018-1.006-0.155c-0.224-0.129-0.313-0.291-0.277-0.49
         c0.05-0.199,0.278-0.42,0.703-0.667c0.818-0.476,2.058-0.892,3.71-1.246l-1.545-2.046c-1.875,0.417-3.438,0.992-4.687,1.718
         c-1.415,0.822-2.218,1.652-2.398,2.481c-0.186,0.833,0.282,1.574,1.4,2.219c0.6,0.347,1.213,0.59,1.837,0.729
         c0.631,0.144,1.312,0.199,2.043,0.166s1.666-0.177,2.817-0.424c1.265-0.284,2.06-0.442,2.39-0.486
         c0.324-0.041,0.598-0.052,0.814-0.037c0.217,0.022,0.408,0.081,0.574,0.177c0.268,0.155,0.372,0.346,0.315,0.571
         c-0.056,0.232-0.328,0.486-0.81,0.767c-0.564,0.328-1.269,0.634-2.126,0.918c-0.851,0.288-1.747,0.52-2.688,0.696l2.924,1.688
         c0.871-0.181,1.633-0.395,2.293-0.645c0.661-0.251,1.397-0.612,2.196-1.076c0.964-0.561,1.642-1.146,2.039-1.748
         c0.385-0.601,0.483-1.183,0.277-1.744C145.577,70.164,145.097,69.673,144.343,69.238"/>
      <polyline fill="#C2C3C4" points="148.702,60.012 146.014,58.459 136.86,63.779 139.548,65.331 142.498,63.617 151.967,69.083 
         155.233,67.185 145.765,61.718 148.702,60.012"/>
      <path fill="#C2C3C4" d="M158.493,59.529c-1.407-1.394-2.361-2.319-2.86-2.776c-0.505-0.461-0.876-0.785-1.107-0.977
         c0.364,0.144,0.982,0.368,1.856,0.674c0.874,0.306,1.6,0.549,2.167,0.737l2.512,0.848L158.493,59.529 M170.875,58.095
         l-16.197-4.729l-4.351,2.529l8.268,9.337l3.584-2.083l-1.671-1.67l3.92-2.278l2.876,0.969L170.875,58.095"/>
      <path fill="#C2C3C4" d="M183.676,50.656l-12.157-7.019l-2.905,1.688l5.498,3.174c0.74,0.427,1.762,0.973,3.064,1.637l-0.051,0.029
         l-12.843-2.322l-4.263,2.477l12.157,7.019l2.892-1.681l-5.478-3.163c-0.708-0.409-1.794-0.977-3.243-1.688l0.076-0.044
         l12.971,2.381L183.676,50.656"/>
      <path fill="#C2C3C4" d="M180.043,41.753l0.945-0.549c0.895-0.52,1.835-0.748,2.809-0.693c0.975,0.056,2.014,0.406,3.131,1.051
         c1.188,0.686,1.847,1.331,1.965,1.935c0.111,0.601-0.318,1.19-1.314,1.77l-0.723,0.42L180.043,41.753 M190.2,39.527
         c-1.89-1.091-3.853-1.614-5.908-1.581c-2.049,0.037-4.044,0.619-5.985,1.747l-4.18,2.429l12.157,7.019l3.908-2.271
         c2.011-1.168,3.022-2.393,3.033-3.671C193.236,41.919,192.224,40.695,190.2,39.527"/>
      <path fill="#C2C3C4" d="M40.816,358.713l2.759-1.604l0.651,0.376c1.124,0.648,1.268,1.216,0.437,1.699
         c-1.009,0.586-2.085,0.546-3.233-0.118L40.816,358.713 M46.739,356.077l-3.978-2.297l-12.071,7.016l3.282,1.895l4.39-2.552
         l0.83,0.479l-1.81,4.041l3.722,2.148l1.721-5.098c2.141,0.346,3.908,0.118,5.31-0.697
         C50.514,359.631,50.046,357.986,46.739,356.077"/>
      <polyline fill="#C2C3C4" points="61.5,364.6 54.279,360.431 42.208,367.445 49.429,371.614 52.087,370.07 48.155,367.799 
         50.432,366.476 54.071,368.577 56.691,367.055 53.052,364.953 54.948,363.852 58.881,366.122 61.5,364.6"/>
      <path fill="#C2C3C4" d="M74.129,371.891l-3.677-2.123l-7.838,2.603c-0.419,0.14-0.978,0.347-1.671,0.616
         c-0.698,0.265-1.257,0.501-1.682,0.703c0.508-0.332,1.261-0.991,2.28-1.976l4.461-4.516l-3.69-2.131l-8.106,9.305l3.869,2.233
         L74.129,371.891"/>
      <polyline fill="#C2C3C4" points="78.739,374.553 75.438,372.646 63.367,379.661 66.668,381.567 78.739,374.553"/>
      <polyline fill="#C2C3C4" points="88.584,380.236 81.369,376.071 69.298,383.086 76.513,387.252 79.171,385.707 75.238,383.436 
         77.515,382.112 81.154,384.214 83.775,382.691 80.135,380.59 82.031,379.488 85.965,381.759 88.584,380.236"/>
      <path fill="#C2C3C4" d="M99.411,386.282c-1.423-0.822-2.864-1.287-4.297-1.394c-1.438-0.11-2.71,0.154-3.826,0.803
         c-0.596,0.347-1.015,0.701-1.255,1.063c-0.245,0.364-0.339,0.759-0.279,1.183c0.059,0.425,0.311,0.966,0.747,1.637
         c0.488,0.73,0.764,1.191,0.842,1.383s0.097,0.351,0.066,0.472c-0.038,0.125-0.139,0.236-0.304,0.332
         c-0.26,0.15-0.584,0.214-0.985,0.181c-0.395-0.037-0.841-0.192-1.326-0.473c-0.569-0.328-1.093-0.74-1.592-1.234
         s-0.902-1.014-1.205-1.563l-2.912,1.692c0.315,0.505,0.692,0.951,1.128,1.335c0.435,0.383,1.055,0.807,1.866,1.274
         c0.97,0.561,1.978,0.951,3.022,1.181c1.039,0.231,2.045,0.283,3.005,0.169c0.967-0.118,1.825-0.395,2.573-0.829
         c0.812-0.472,1.287-0.984,1.411-1.53c0.13-0.549-0.096-1.261-0.674-2.138c-0.598-0.918-0.925-1.504-0.984-1.751
         c-0.058-0.255,0.03-0.446,0.271-0.586c0.215-0.125,0.496-0.178,0.839-0.155c0.344,0.029,0.726,0.162,1.154,0.409
         c0.83,0.479,1.547,1.194,2.169,2.149l3.527-0.881C101.661,387.918,100.669,387.008,99.411,386.282"/>
      <polyline fill="#C2C3C4" points="113.28,394.494 104.073,389.18 101.41,390.728 104.372,392.438 94.965,397.904 98.253,399.803 
         107.66,394.336 110.616,396.042 113.28,394.494"/>
      <path fill="#C2C3C4" d="M111.475,401.72c2.401-0.812,3.995-1.36,4.783-1.648c0.794-0.291,1.353-0.505,1.683-0.638
         c-0.247,0.211-0.632,0.568-1.158,1.073c-0.519,0.509-0.942,0.925-1.259,1.249l-1.462,1.457L111.475,401.72 M122.104,399.529
         l-4.38-2.528l-16.087,4.756l3.607,2.082l2.871-0.958l3.952,2.281l-1.665,1.655l3.595,2.075L122.104,399.529"/>
      <path fill="#C2C3C4" d="M138.953,409.316l-2.924-1.688l-5.461,3.174c-0.736,0.428-1.675,1.017-2.815,1.769l-0.051-0.029
         l3.974-7.428l-4.291-2.477l-12.071,7.015l2.905,1.677l5.443-3.163c0.704-0.409,1.674-1.031,2.91-1.868l0.07,0.04l-4.063,7.509
         l4.304,2.485L138.953,409.316"/>
      <path fill="#C2C3C4" d="M135.464,418.193l6.769-3.934l0.958,0.553c0.894,0.517,1.298,1.058,1.206,1.622
         c-0.099,0.567-0.694,1.173-1.804,1.817c-1.18,0.686-2.298,1.062-3.341,1.128c-1.037,0.063-2.057-0.188-3.053-0.763L135.464,418.193
         M145.784,413.261l-4.201-2.425l-12.071,7.015l3.933,2.271c2.017,1.165,4.127,1.758,6.336,1.77c2.208,0.011,4.324-0.568,6.342-1.74
         c1.871-1.087,2.768-2.23,2.698-3.417C148.75,415.546,147.738,414.389,145.784,413.261"/>
      <path fill="#C2C3C4" d="M519.5,23.165c-1.424-0.822-2.858-1.291-4.291-1.397c-1.439-0.111-2.716,0.159-3.826,0.804
         c-0.596,0.347-1.015,0.7-1.261,1.065c-0.239,0.361-0.333,0.756-0.273,1.18s0.312,0.966,0.741,1.633
         c0.487,0.737,0.77,1.195,0.848,1.386c0.071,0.188,0.092,0.347,0.06,0.476c-0.03,0.122-0.132,0.232-0.296,0.328
         c-0.268,0.155-0.598,0.214-0.986,0.181c-0.401-0.034-0.842-0.192-1.326-0.472c-0.568-0.328-1.099-0.737-1.592-1.235
         c-0.499-0.494-0.902-1.014-1.211-1.56l-2.905,1.688c0.314,0.505,0.686,0.947,1.121,1.331c0.435,0.383,1.061,0.811,1.865,1.275
         c0.97,0.56,1.984,0.954,3.023,1.187c1.038,0.225,2.044,0.284,3.011,0.166s1.812-0.395,2.561-0.83
         c0.817-0.475,1.292-0.98,1.423-1.53c0.13-0.549-0.096-1.261-0.674-2.138c-0.598-0.917-0.925-1.503-0.984-1.751
         c-0.059-0.254,0.03-0.446,0.265-0.582c0.222-0.129,0.502-0.181,0.846-0.158c0.343,0.029,0.727,0.162,1.153,0.409
         c0.824,0.476,1.547,1.194,2.164,2.153l3.526-0.888C521.756,24.798,520.758,23.891,519.5,23.165"/>
      <path fill="#C2C3C4" d="M520.993,35.256c-1.634-0.943-1.284-2.094,1.05-3.45c2.354-1.368,4.357-1.578,6.004-0.626
         c0.811,0.468,1.133,0.984,0.964,1.556c-0.176,0.567-0.859,1.202-2.064,1.902s-2.285,1.098-3.251,1.194
         C522.722,35.93,521.823,35.735,520.993,35.256 M530.724,29.624c-1.928-1.113-3.936-1.655-6.003-1.622
         c-2.069,0.033-4.115,0.63-6.125,1.799c-2.03,1.18-3.067,2.374-3.111,3.576c-0.044,1.209,0.886,2.363,2.788,3.461
         c1.935,1.117,3.936,1.655,5.991,1.622c2.062-0.037,4.107-0.641,6.144-1.824c2.036-1.184,3.079-2.367,3.137-3.554
         C533.595,31.89,532.658,30.74,530.724,29.624"/>
      <path fill="#C2C3C4" d="M548.953,40.369l-3.281-1.895l-7.072,4.11c-0.869,0.505-1.65,0.782-2.331,0.83
         c-0.682,0.047-1.362-0.125-2.033-0.513c-0.626-0.361-0.908-0.745-0.841-1.154c0.062-0.413,0.518-0.862,1.374-1.36l7.085-4.118
         l-3.301-1.906l-7.346,4.269c-1.579,0.918-2.344,1.88-2.3,2.882c0.057,1.003,0.902,1.983,2.563,2.942
         c1.691,0.977,3.432,1.475,5.194,1.493c1.77,0.015,3.44-0.438,5.02-1.356L548.953,40.369"/>
      <polyline fill="#C2C3C4" points="559.826,46.646 550.619,41.331 547.949,42.882 550.912,44.593 541.505,50.06 544.793,51.958 
         554.2,46.491 557.156,48.198 559.826,46.646"/>
      <polyline fill="#C2C3C4" points="571.982,53.665 568.682,51.759 564.203,54.361 560.386,52.157 564.863,49.555 561.563,47.649 
         549.486,54.667 552.786,56.573 557.709,53.712 561.526,55.917 556.604,58.777 559.905,60.683 571.982,53.665"/>
      <path fill="#C2C3C4" d="M583.302,60.001c-1.424-0.822-2.853-1.286-4.29-1.397c-1.439-0.11-2.711,0.162-3.821,0.807
         c-0.596,0.347-1.014,0.701-1.26,1.065c-0.24,0.361-0.334,0.756-0.273,1.18c0.06,0.424,0.311,0.966,0.741,1.633
         c0.481,0.734,0.764,1.191,0.842,1.383c0.077,0.191,0.097,0.35,0.06,0.476c-0.031,0.122-0.126,0.235-0.291,0.331
         c-0.267,0.155-0.597,0.214-0.992,0.178c-0.395-0.03-0.835-0.188-1.326-0.473c-0.563-0.324-1.093-0.733-1.585-1.23
         c-0.499-0.494-0.903-1.014-1.212-1.56l-2.905,1.688c0.315,0.505,0.687,0.947,1.121,1.331c0.436,0.383,1.055,0.807,1.865,1.275
         c0.971,0.56,1.979,0.951,3.018,1.183c1.045,0.229,2.044,0.284,3.011,0.166s1.817-0.391,2.566-0.826
         c0.818-0.475,1.287-0.983,1.417-1.533c0.131-0.549-0.09-1.257-0.674-2.138c-0.597-0.918-0.919-1.5-0.983-1.751
         c-0.059-0.254,0.028-0.446,0.264-0.583c0.222-0.129,0.502-0.181,0.852-0.155c0.338,0.026,0.727,0.162,1.148,0.406
         c0.83,0.479,1.547,1.194,2.163,2.152l3.533-0.885C585.558,61.634,584.56,60.728,583.302,60.001"/>
      <polyline fill="#C2C3C4" points="597.184,68.214 587.97,62.895 585.3,64.447 588.269,66.161 578.861,71.627 582.143,73.522 
         591.55,68.055 594.513,69.766 597.184,68.214"/>
      <path fill="#C2C3C4" d="M595.372,75.436c2.401-0.812,3.995-1.36,4.783-1.648c0.794-0.292,1.358-0.501,1.683-0.638
         c-0.247,0.21-0.634,0.568-1.152,1.077c-0.526,0.504-0.95,0.921-1.272,1.249l-1.456,1.453L595.372,75.436 M606,73.246l-4.38-2.529
         l-16.093,4.759l3.607,2.083l2.877-0.962l3.952,2.281l-1.664,1.663l3.588,2.071L606,73.246"/>
      <path fill="#C2C3C4" d="M622.85,83.033l-2.925-1.688l-5.461,3.174c-0.736,0.428-1.675,1.017-2.815,1.77l-0.045-0.026l3.968-7.431
         l-4.291-2.478l-12.077,7.019l2.911,1.681l5.442-3.163c0.704-0.409,1.668-1.036,2.904-1.872l0.076,0.044l-4.068,7.505l4.304,2.484
         L622.85,83.033"/>
      <path fill="#C2C3C4" d="M619.361,91.909l6.768-3.934l0.958,0.553c0.9,0.52,1.292,1.062,1.199,1.626
         c-0.093,0.564-0.687,1.168-1.797,1.813c-1.18,0.686-2.298,1.062-3.335,1.132c-1.037,0.063-2.063-0.192-3.059-0.767L619.361,91.909
         M629.688,86.98l-4.208-2.429l-12.077,7.019l3.934,2.271c2.023,1.168,4.14,1.759,6.342,1.766c2.208,0.011,4.324-0.568,6.335-1.736
         c1.877-1.091,2.774-2.227,2.704-3.421C632.646,89.262,631.635,88.104,629.688,86.98"/>
      <path fill="#C2C3C4" d="M408.324,416.351l-10.962-6.329l-3.28,1.906l11.243,6.491c0.792,0.457,1.24,0.848,1.331,1.172
         c0.104,0.324-0.124,0.642-0.663,0.955c-0.229,0.133-0.463,0.247-0.704,0.335c-0.242,0.096-0.464,0.181-0.673,0.266l2.554,1.475
         c0.647-0.243,1.27-0.538,1.866-0.885c1.434-0.834,2.084-1.699,1.951-2.606C410.862,418.227,409.972,417.302,408.324,416.351"/>
      <path fill="#C2C3C4" d="M409.022,410.265c-2.375-1.371-2.744-2.532-1.108-3.483c0.8-0.464,1.702-0.648,2.683-0.546
         c0.981,0.097,2.084,0.498,3.297,1.198c1.207,0.696,1.897,1.323,2.072,1.888c0.17,0.56-0.159,1.083-0.983,1.563
         C413.358,411.828,411.372,411.621,409.022,410.265 M417.332,405.436c-2.049-1.184-4.103-1.795-6.158-1.828
         c-2.043-0.033-4.025,0.505-5.947,1.622c-1.916,1.113-2.851,2.271-2.787,3.469c0.059,1.201,1.102,2.385,3.126,3.553
         c2.043,1.181,4.108,1.784,6.189,1.818c2.075,0.029,4.063-0.505,5.961-1.607c1.921-1.117,2.851-2.271,2.78-3.466
         C420.432,407.806,419.375,406.615,417.332,405.436"/>
      <polyline fill="#C2C3C4" points="435.95,401.672 423.8,394.657 420.521,396.563 425.022,399.161 421.229,401.366 416.728,398.768 
         413.455,400.67 425.604,407.685 428.877,405.782 423.924,402.922 427.717,400.718 432.671,403.577 435.95,401.672"/>
      <path fill="#C2C3C4" d="M450.058,393.474l-12.149-7.015l-2.905,1.688l5.49,3.17c0.747,0.431,1.769,0.977,3.064,1.637l-0.051,0.029
         l-12.837-2.318l-4.256,2.474l12.149,7.015l2.887-1.678l-5.478-3.162c-0.709-0.409-1.788-0.974-3.236-1.691l0.07-0.041l12.976,2.377
         L450.058,393.474"/>
      <path fill="#C2C3C4" d="M454.74,377.461c-1.761,0.365-3.291,0.922-4.598,1.681c-1.192,0.693-1.978,1.445-2.343,2.256
         c-0.377,0.812-0.321,1.63,0.161,2.452c0.481,0.821,1.357,1.6,2.616,2.325c2.011,1.161,4.038,1.766,6.068,1.813
         c2.037,0.052,3.962-0.453,5.789-1.515c1.269-0.737,2.187-1.53,2.748-2.374l-2.777-1.604c-0.296,0.416-0.626,0.814-0.974,1.194
         c-0.354,0.376-0.791,0.719-1.323,1.028c-1.771,1.029-3.821,0.866-6.164-0.486c-1.123-0.648-1.788-1.283-2.002-1.905
         c-0.201-0.623,0.083-1.158,0.862-1.611c0.514-0.299,1.061-0.534,1.651-0.708c0.597-0.177,1.213-0.336,1.868-0.472L454.74,377.461"
         />
      <polyline fill="#C2C3C4" points="478.386,377.011 466.236,369.996 462.957,371.902 467.458,374.5 463.671,376.701 459.17,374.103 
         455.891,376.009 468.04,383.023 471.32,381.117 466.366,378.257 470.153,376.057 475.107,378.917 478.386,377.011"/>
      <path fill="#C2C3C4" d="M479.598,370.553c-1.408-1.394-2.361-2.318-2.867-2.779c-0.499-0.457-0.863-0.785-1.1-0.974
         c0.356,0.141,0.975,0.365,1.854,0.675c0.88,0.303,1.602,0.55,2.162,0.734l2.519,0.851L479.598,370.553 M491.974,369.115
         l-16.191-4.726l-4.352,2.528l8.263,9.334l3.583-2.083l-1.67-1.67l3.926-2.281l2.876,0.969L491.974,369.115"/>
      <path fill="#C2C3C4" d="M486.873,360.88l0.648-0.376c1.116-0.648,2.089-0.733,2.926-0.251c1.016,0.587,0.955,1.213-0.181,1.873
         l-0.615,0.357L486.873,360.88 M503.626,362.344l-8.808-1.014c0.592-1.239,0.191-2.264-1.22-3.078
         c-2.394-1.382-5.231-1.117-8.511,0.789l-3.958,2.3l12.149,7.015l3.261-1.895l-4.425-2.555l0.825-0.479l6.987,1.065L503.626,362.344
         "/>
      <polyline fill="#C2C3C4" points="512.64,357.105 509.99,355.576 505.34,358.278 495.84,352.793 492.579,354.688 504.729,361.702 
         512.64,357.105"/>
      <polyline fill="#C2C3C4" points="521.742,351.815 519.067,350.271 515.16,352.542 512.867,351.219 516.482,349.117 
         513.846,347.595 510.23,349.696 508.315,348.59 512.223,346.319 509.592,344.801 502.424,348.966 514.574,355.98 521.742,351.815
         "/>
      <path fill="#C2C3C4" d="M528.061,343.868c-0.817-0.472-1.702-0.748-2.651-0.826c-0.942-0.073-2.163,0.052-3.683,0.388
         c-1.583,0.343-2.588,0.527-3.026,0.561c-0.432,0.036-0.771-0.02-1.006-0.155c-0.224-0.129-0.313-0.291-0.265-0.49
         c0.037-0.199,0.278-0.421,0.697-0.664c0.824-0.479,2.051-0.896,3.702-1.249l-1.532-2.046c-1.881,0.42-3.449,0.991-4.699,1.718
         c-1.415,0.822-2.212,1.648-2.397,2.48c-0.187,0.833,0.288,1.571,1.412,2.22c0.594,0.343,1.206,0.586,1.837,0.729
         s1.306,0.195,2.037,0.162s1.673-0.173,2.817-0.424c1.265-0.276,2.059-0.435,2.39-0.479c0.331-0.044,0.599-0.059,0.814-0.037
         c0.217,0.022,0.407,0.074,0.573,0.171c0.269,0.154,0.372,0.346,0.315,0.578c-0.056,0.225-0.328,0.479-0.816,0.763
         c-0.559,0.324-1.263,0.63-2.114,0.918c-0.852,0.287-1.753,0.517-2.694,0.693l2.925,1.688c0.87-0.173,1.639-0.391,2.299-0.641
         c0.655-0.255,1.385-0.612,2.19-1.08c0.964-0.561,1.642-1.14,2.032-1.744c0.392-0.604,0.483-1.183,0.283-1.739
         C529.294,344.801,528.814,344.304,528.061,343.868"/>
      <path fill="#C2C3C4" d="M541.878,326.038l-3.146,1.828l4.771,4.306c1.189,1.062,2.065,1.795,2.608,2.189
         c-0.536-0.243-1.378-0.59-2.525-1.039c-1.148-0.45-2.175-0.838-3.086-1.158l-5.632-2.053l-3.02,1.754l3.531,3.274
         c0.474,0.456,1.106,1.021,1.894,1.688s1.42,1.188,1.918,1.556c-0.906-0.398-2.182-0.899-3.827-1.504l-7.404-2.754l-3.146,1.829
         l15.138,5.278l3.856-2.241c-2.482-2.249-3.901-3.531-4.253-3.845c-0.346-0.316-0.742-0.656-1.178-1.024
         c-0.44-0.365-0.812-0.667-1.125-0.899c0.491,0.225,1.129,0.49,1.913,0.803c0.772,0.314,1.302,0.517,1.582,0.612l6.447,2.385
         l3.857-2.241L541.878,326.038"/>
      <polyline fill="#C2C3C4" points="562.756,327.98 560.081,326.437 556.174,328.707 553.882,327.383 557.497,325.282 554.86,323.76 
         551.245,325.861 549.329,324.755 553.236,322.484 550.606,320.966 543.438,325.131 555.589,332.146 562.756,327.98"/>
      <path fill="#C2C3C4" d="M569.075,320.033c-0.816-0.472-1.702-0.748-2.651-0.826c-0.936-0.077-2.164,0.052-3.676,0.384
         c-1.583,0.343-2.595,0.53-3.033,0.563c-0.426,0.033-0.771-0.019-1.007-0.154c-0.223-0.129-0.313-0.291-0.263-0.49
         c0.037-0.199,0.277-0.421,0.703-0.668c0.818-0.476,2.05-0.896,3.702-1.249l-1.538-2.042c-1.882,0.42-3.451,0.991-4.7,1.718
         c-1.414,0.821-2.211,1.647-2.397,2.48c-0.18,0.829,0.289,1.57,1.412,2.22c0.594,0.343,1.206,0.586,1.837,0.729
         s1.306,0.195,2.037,0.161c0.732-0.032,1.673-0.172,2.817-0.423c1.265-0.276,2.065-0.439,2.39-0.479
         c0.331-0.044,0.598-0.059,0.814-0.037c0.223,0.019,0.407,0.074,0.574,0.17c0.268,0.155,0.37,0.347,0.314,0.579
         c-0.056,0.225-0.328,0.479-0.816,0.763c-0.559,0.324-1.264,0.63-2.114,0.918c-0.852,0.287-1.753,0.517-2.694,0.693l2.925,1.688
         c0.877-0.177,1.64-0.391,2.3-0.642c0.654-0.254,1.384-0.611,2.189-1.079c0.964-0.561,1.642-1.14,2.033-1.744
         c0.391-0.604,0.483-1.184,0.282-1.74C570.31,320.965,569.829,320.468,569.075,320.033"/>
      <polyline fill="#C2C3C4" points="573.434,310.807 570.752,309.258 561.6,314.577 564.281,316.125 567.23,314.411 576.699,319.878 
         579.959,317.983 570.491,312.517 573.434,310.807"/>
      <path fill="#C2C3C4" d="M593.224,305.999c-0.816-0.472-1.702-0.748-2.646-0.829c-0.942-0.073-2.17,0.056-3.682,0.387
         c-1.583,0.343-2.595,0.531-3.033,0.564c-0.426,0.033-0.771-0.019-1.007-0.155c-0.223-0.128-0.306-0.294-0.263-0.489
         c0.037-0.2,0.277-0.421,0.702-0.668c0.818-0.476,2.051-0.896,3.703-1.25l-1.539-2.041c-1.875,0.416-3.443,0.987-4.693,1.714
         c-1.42,0.825-2.218,1.651-2.403,2.484c-0.181,0.829,0.288,1.57,1.412,2.219c0.594,0.343,1.206,0.586,1.837,0.729
         c0.631,0.145,1.306,0.196,2.037,0.162c0.731-0.032,1.673-0.173,2.817-0.423c1.265-0.277,2.065-0.439,2.396-0.483
         c0.324-0.041,0.592-0.056,0.814-0.037c0.216,0.022,0.4,0.078,0.566,0.174c0.269,0.154,0.372,0.346,0.322,0.574
         c-0.063,0.229-0.335,0.483-0.817,0.763c-0.564,0.329-1.269,0.635-2.12,0.922c-0.851,0.288-1.753,0.517-2.693,0.693l2.924,1.688
         c0.877-0.177,1.639-0.391,2.299-0.642c0.655-0.254,1.392-0.615,2.19-1.08c0.964-0.56,1.647-1.143,2.032-1.743
         c0.392-0.604,0.49-1.188,0.289-1.744C594.457,306.932,593.978,306.435,593.224,305.999"/>
      <polyline fill="#C2C3C4" points="597.583,296.772 594.901,295.225 585.748,300.544 588.43,302.092 591.379,300.378 
         600.847,305.845 604.107,303.95 594.639,298.483 597.583,296.772"/>
      <path fill="#C2C3C4" d="M607.38,296.293c-1.408-1.393-2.361-2.318-2.866-2.779c-0.499-0.457-0.87-0.781-1.101-0.973
         c0.357,0.14,0.976,0.364,1.856,0.674c0.873,0.307,1.594,0.554,2.162,0.734l2.518,0.852L607.38,296.293 M619.756,294.855
         l-16.191-4.726l-4.351,2.529l8.256,9.337l3.59-2.087l-1.67-1.67l3.92-2.277l2.876,0.969L619.756,294.855"/>
      <path fill="#C2C3C4" d="M632.557,287.417l-12.15-7.015l-2.905,1.688l5.491,3.17c0.747,0.431,1.769,0.977,3.064,1.637l-0.051,0.029
         l-12.837-2.318l-4.263,2.477l12.15,7.015l2.893-1.681l-5.479-3.162c-0.708-0.409-1.787-0.974-3.242-1.688l0.076-0.044l12.971,2.381
         L632.557,287.417"/>
      <path fill="#C2C3C4" d="M628.93,278.519l0.946-0.55c0.894-0.52,1.828-0.752,2.802-0.696c0.975,0.056,2.02,0.409,3.131,1.051
         c1.193,0.689,1.853,1.334,1.965,1.936c0.117,0.604-0.324,1.194-1.314,1.769l-0.723,0.421L628.93,278.519 M639.081,276.288
         c-1.884-1.087-3.854-1.614-5.902-1.577c-2.049,0.036-4.044,0.619-5.984,1.747l-4.181,2.429l12.15,7.015l3.907-2.271
         c2.011-1.168,3.022-2.392,3.034-3.672C642.123,278.685,641.111,277.461,639.081,276.288"/>
      <polygon fill="#939597" points="427.697,143.844 454.087,158.798 454.087,173.386 456.087,174.541 456.087,157.632 
         425.697,140.413 425.697,156.995 427.697,158.149"/>
      <polygon fill="#939597" points="231.31,259.917 257.699,274.872 257.699,289.46 259.699,290.614 259.699,273.706 229.31,256.485 
         229.31,273.067 231.31,274.224"/>
   </g>
   <g id="BLOCKS">
      <polygon fill="#9C9DA0" points="396.175,10.637 396.094,39.167 395.097,75.716 395.178,47.186"/>
      <path fill="#A7A9AB" d="M395.178,47.186l-0.081,28.531c-1.098,0.009-2.195,0.032-3.291,0.07l0.08-28.531
         C392.982,47.218,394.08,47.195,395.178,47.186"/>
      <path fill="#ABADAF" d="M391.886,47.255l-0.08,28.531c-2.789,0.095-5.568,0.279-8.322,0.553l0.081-28.531
         C386.318,47.535,389.098,47.35,391.886,47.255"/>
      <path fill="#AFB1B3" d="M383.564,47.808l-0.081,28.531c-3.281,0.325-6.524,0.776-9.702,1.348l0.081-28.53
         C377.04,48.584,380.283,48.133,383.564,47.808"/>
      <path fill="#B3B5B6" d="M373.862,49.156l-0.081,28.53c-2.295,0.413-4.555,0.89-6.769,1.428l0.081-28.531
         C369.308,50.046,371.567,49.569,373.862,49.156"/>
      <polygon fill="#8C8E90" points="367.094,50.584 367.013,79.115 340.261,46.577 340.341,18.046"/>
      <polygon fill="#C1C3C4" points="484.297,28.835 484.216,57.366 438.57,83.892 438.651,55.361"/>
      <path fill="#909294" d="M438.651,55.361l-0.081,28.531c-0.95-0.417-1.916-0.817-2.896-1.204l0.081-28.53
         C436.735,54.544,437.701,54.945,438.651,55.361"/>
      <path fill="#949598" d="M435.755,54.158l-0.081,28.53c-2.679-1.054-5.469-1.993-8.355-2.815l0.08-28.531
         C430.286,52.165,433.076,53.104,435.755,54.158"/>
      <path fill="#98999C" d="M427.398,51.342l-0.08,28.531c-2.365-0.673-4.795-1.268-7.28-1.782l0.081-28.53
         C422.604,50.074,425.034,50.669,427.398,51.342"/>
      <path fill="#9B9D9F" d="M420.119,49.561l-0.081,28.53c-2.263-0.468-4.571-0.869-6.919-1.201l0.081-28.531
         C415.548,48.691,417.856,49.092,420.119,49.561"/>
      <path fill="#9FA1A3" d="M413.2,48.359l-0.081,28.531c-2.269-0.321-4.574-0.579-6.909-0.771l0.08-28.531
         C408.626,47.78,410.932,48.038,413.2,48.359"/>
      <path fill="#A3A5A7" d="M406.29,47.587l-0.08,28.531c-1.038-0.085-2.082-0.158-3.132-0.218l0.081-28.531
         C404.208,47.429,405.253,47.502,406.29,47.587"/>
      <path fill="#B7B9BA" d="M359.965,52.641l-0.081,28.531c-5.222,1.688-9.971,3.642-14.189,5.835l0.08-28.53
         C349.994,56.283,354.743,54.329,359.965,52.641"/>
      <polygon fill="#939597" points="345.774,58.477 345.694,87.007 301.851,61.694 301.931,33.164"/>
      <polygon fill="#C1C3C4" points="432.936,58.66 432.854,87.191 392.201,110.838 392.282,82.308"/>
      <polygon fill="#C1C3C4" points="396.229,84.586 396.147,113.116 393.54,114.631 393.621,86.101"/>
      <polygon fill="#939597" points="393.621,86.101 393.54,114.631 351.376,90.288 351.457,61.757"/>
      <polygon fill="#C1C3C4" points="305.007,41.45 304.926,69.98 285.3,81.386 285.381,52.855"/>
      <polygon fill="#939597" points="285.381,52.855 285.3,81.386 241.942,56.353 242.022,27.822"/>
      <polygon fill="#C1C3C4" points="378.099,83.723 378.019,112.254 358.411,123.648 358.492,95.117"/>
      <polygon fill="#939597" points="358.492,95.117 358.411,123.648 290.989,84.722 291.07,56.191"/>
      <polygon fill="#C1C3C4" points="279.895,56.095 279.814,84.626 256.395,98.236 256.476,69.705"/>
      <polygon fill="#939597" points="256.476,69.705 256.395,98.236 212.992,73.177 213.073,44.646"/>
      <polygon fill="#C1C3C4" points="352.853,98.395 352.772,126.925 325.928,142.525 326.009,113.995"/>
      <polygon fill="#939597" points="326.009,113.995 325.928,142.525 258.506,103.599 258.587,75.068"/>
      <polygon fill="#C1C3C4" points="250.837,72.982 250.756,101.513 227.337,115.122 227.418,86.592"/>
      <polygon fill="#939597" points="227.418,86.592 227.337,115.122 183.934,90.063 184.015,61.533"/>
      <polygon fill="#C1C3C4" points="221.779,89.869 221.698,118.399 196.591,132.99 196.672,104.459"/>
      <polygon fill="#939597" points="196.672,104.459 196.591,132.99 153.125,107.894 153.206,79.363"/>
      <polygon fill="#C1C3C4" points="320.37,117.271 320.289,145.802 284.691,166.489 284.772,137.959"/>
      <polygon fill="#939597" points="284.772,137.959 284.691,166.489 217.173,127.508 217.254,98.978"/>
      <polygon fill="#C1C3C4" points="191.033,107.736 190.953,136.267 165.846,150.857 165.927,122.326"/>
      <polygon fill="#939597" points="165.927,122.326 165.846,150.857 122.379,125.761 122.46,97.23"/>
      <polygon fill="#C1C3C4" points="279.133,141.236 279.052,169.767 248.954,187.258 249.034,158.728"/>
      <polygon fill="#939597" points="249.034,158.728 248.954,187.258 181.436,148.276 181.517,119.746"/>
      <polygon fill="#C1C3C4" points="160.288,125.603 160.207,154.134 135.101,168.724 135.182,140.193"/>
      <polygon fill="#939597" points="135.182,140.193 135.101,168.724 91.634,143.628 91.715,115.098"/>
      <polygon fill="#C1C3C4" points="243.396,162.004 243.314,190.535 214.79,207.112 214.87,178.581"/>
      <polygon fill="#939597" points="214.87,178.581 214.79,207.112 147.367,168.186 147.448,139.655"/>
      <polygon fill="#C1C3C4" points="129.542,143.471 129.462,172.001 106.043,185.61 106.124,157.08"/>
      <polygon fill="#939597" points="106.124,157.08 106.043,185.61 62.64,160.552 62.721,132.021"/>
      <polygon fill="#C1C3C4" points="209.231,181.858 209.15,210.389 185.732,223.998 185.813,195.468"/>
      <polygon fill="#939597" points="185.813,195.468 185.732,223.998 118.31,185.072 118.391,156.542"/>
      <polygon fill="#C1C3C4" points="100.485,160.357 100.404,188.888 76.985,202.498 77.065,173.967"/>
      <polygon fill="#939597" points="77.065,173.967 76.985,202.498 33.582,177.438 33.663,148.908"/>
      <polygon fill="#C1C3C4" points="180.174,198.745 180.093,227.275 153.527,242.714 153.608,214.183"/>
      <polygon fill="#939597" points="153.608,214.183 153.527,242.714 86.15,203.813 86.231,175.283"/>
      <polygon fill="#C1C3C4" points="71.49,177.155 71.409,205.686 51.808,217.076 51.889,188.546"/>
      <polygon fill="#939597" points="51.889,188.546 51.808,217.076 8.45,192.043 8.531,163.513"/>
      <polygon fill="#C1C3C4" points="147.969,217.46 147.888,245.99 124.914,259.342 124.995,230.812"/>
      <polygon fill="#939597" points="124.995,230.812 124.914,259.342 57.492,220.416 57.572,191.885"/>
      <polygon fill="#C1C3C4" points="511.476,43.439 511.396,71.97 470.621,95.666 470.702,67.135"/>
      <polygon fill="#939597" points="470.702,67.135 470.621,95.666 450.057,83.792 450.138,55.262"/>
      <polygon fill="#939597" points="407.537,84.589 407.456,113.12 403.511,110.842 403.591,82.312"/>
      <polygon fill="#939597" points="419.627,96.794 419.546,125.325 402.946,115.741 403.027,87.21"/>
      <polygon fill="#C1C3C4" points="465.038,70.404 464.957,98.935 419.546,125.325 419.627,96.794"/>
      <polygon fill="#C1C3C4" points="537.698,58.593 537.617,87.124 496.85,110.815 496.931,82.285"/>
      <polygon fill="#939597" points="496.931,82.285 496.85,110.815 476.291,98.946 476.372,70.416"/>
      <polygon fill="#C1C3C4" points="491.316,85.547 491.235,114.078 445.8,140.482 445.881,111.952"/>
      <polygon fill="#939597" points="445.881,111.952 445.8,140.482 425.241,128.613 425.322,100.082"/>
      <polygon fill="#C1C3C4" points="563.933,73.74 563.852,102.271 523.084,125.962 523.165,97.431"/>
      <polygon fill="#939597" points="523.165,97.431 523.084,125.962 502.5,114.078 502.581,85.547"/>
      <polygon fill="#C1C3C4" points="517.551,100.694 517.47,129.225 472.034,155.629 472.115,127.098"/>
      <polygon fill="#939597" points="472.115,127.098 472.034,155.629 451.457,143.749 451.538,115.218"/>
      <polygon fill="#C1C3C4" points="590.174,88.89 590.093,117.421 549.325,141.112 549.406,112.582"/>
      <polygon fill="#939597" points="549.406,112.582 549.325,141.112 528.76,129.239 528.841,100.708"/>
      <polygon fill="#C1C3C4" points="543.792,115.844 543.711,144.375 498.275,170.779 498.356,142.249"/>
      <polygon fill="#939597" points="498.356,142.249 498.275,170.779 477.69,158.895 477.771,130.364"/>
      <polygon fill="#C1C3C4" points="616.407,104.037 616.327,132.567 575.585,156.244 575.665,127.713"/>
      <polygon fill="#939597" points="575.665,127.713 575.585,156.244 555.021,144.371 555.101,115.84"/>
      <polygon fill="#C1C3C4" points="570.026,130.99 569.945,159.521 524.51,185.926 524.591,157.395"/>
      <polygon fill="#939597" points="524.591,157.395 524.51,185.926 503.932,174.045 504.013,145.515"/>
      <polygon fill="#C1C3C4" points="642.643,119.183 642.562,147.714 601.819,171.391 601.9,142.86"/>
      <polygon fill="#939597" points="601.9,142.86 601.819,171.391 581.261,159.521 581.342,130.99"/>
      <polygon fill="#C1C3C4" points="596.262,146.137 596.181,174.668 550.744,201.072 550.825,172.542"/>
      <polygon fill="#939597" points="550.825,172.542 550.744,201.072 530.167,189.192 530.248,160.661"/>
      <path fill="#9B9D9F" d="M611.791,165.989l-0.081,28.531c0,0.116-0.002,0.23-0.006,0.344l0.081-28.531
         C611.789,166.22,611.79,166.105,611.791,165.989"/>
      <path fill="#9FA1A3" d="M611.785,166.333l-0.081,28.531c-0.02,0.703-0.096,1.366-0.217,1.977l0.08-28.531
         C611.689,167.699,611.766,167.037,611.785,166.333"/>
      <path fill="#A3A5A7" d="M611.567,168.311l-0.08,28.531c-0.104,0.516-0.239,0.996-0.403,1.434l0.081-28.53
         C611.329,169.307,611.465,168.827,611.567,168.311"/>
      <path fill="#A7A9AB" d="M611.165,169.745l-0.081,28.53c-0.133,0.357-0.284,0.686-0.452,0.984l0.081-28.531
         C610.88,170.431,611.032,170.102,611.165,169.745"/>
      <path fill="#ABADAF" d="M610.713,170.729l-0.081,28.531c-0.139,0.248-0.288,0.474-0.447,0.677l0.081-28.531
         C610.425,171.203,610.574,170.977,610.713,170.729"/>
      <path fill="#AFB1B3" d="M610.266,171.405l-0.081,28.531c-0.035,0.045-0.071,0.09-0.108,0.133l0.081-28.531
         C610.194,171.496,610.23,171.451,610.266,171.405"/>
      <polygon fill="#B1B3B5" points="610.157,171.539 610.076,200.069 565.269,199.207 565.35,170.676"/>
      <polygon fill="#C1C3C4" points="602.839,176.036 602.758,204.566 568.656,224.384 568.737,195.854"/>
      <polygon fill="#939597" points="568.737,195.854 568.656,224.384 545.225,210.855 545.306,182.325"/>
      <polygon fill="#C1C3C4" points="563.104,199.186 563.023,227.716 533.712,244.75 533.793,216.22"/>
      <polygon fill="#939597" points="533.793,216.22 533.712,244.75 510.28,231.223 510.361,202.691"/>
      <polygon fill="#C1C3C4" points="528.153,219.496 528.073,248.027 505.333,261.242 505.413,232.712"/>
      <polygon fill="#939597" points="505.413,232.712 505.333,261.242 481.901,247.715 481.982,219.184"/>
      <polygon fill="#C1C3C4" points="492.81,240.036 492.729,268.567 457.138,289.25 457.218,260.72"/>
      <polygon fill="#939597" points="457.218,260.72 457.138,289.25 433.706,275.723 433.787,247.191"/>
      <polygon fill="#C1C3C4" points="451.579,263.997 451.498,292.527 424.267,308.353 424.348,279.822"/>
      <polygon fill="#939597" points="424.348,279.822 424.267,308.353 401.027,294.936 401.107,266.404"/>
      <polygon fill="#C1C3C4" points="418.715,283.096 418.634,311.626 390.794,327.805 390.875,299.274"/>
      <polygon fill="#939597" points="390.875,299.274 390.794,327.805 367.362,314.277 367.443,285.746"/>
      <polygon fill="#C1C3C4" points="385.235,302.552 385.155,331.082 358.171,346.764 358.252,318.232"/>
      <polygon fill="#939597" points="358.252,318.232 358.171,346.764 334.74,333.235 334.821,304.705"/>
      <polygon fill="#C1C3C4" points="352.62,321.506 352.539,350.036 323.417,366.96 323.498,338.43"/>
      <polygon fill="#939597" points="323.498,338.43 323.417,366.96 300.177,353.543 300.258,325.012"/>
      <polygon fill="#C1C3C4" points="680.5,181.156 680.419,209.687 646.648,229.312 646.729,200.781"/>
      <polygon fill="#939597" points="646.729,200.781 646.648,229.312 608.928,207.534 609.009,179.003"/>
      <polygon fill="#C1C3C4" points="641.071,204.047 640.99,232.578 607.213,252.207 607.294,223.677"/>
      <polygon fill="#939597" points="607.294,223.677 607.213,252.207 569.53,230.451 569.611,201.921"/>
      <polygon fill="#C1C3C4" points="601.565,227.027 601.485,255.558 577.083,269.739 577.164,241.208"/>
      <polygon fill="#939597" points="577.164,241.208 577.083,269.739 539.382,247.973 539.463,219.441"/>
      <polygon fill="#939597" points="537.22,244.983 537.139,273.514 516.217,261.435 516.297,232.903"/>
      <polygon fill="#939597" points="530.968,268.218 530.887,296.748 513.968,286.979 514.048,258.449"/>
      <polygon fill="#C1C3C4" points="571.665,244.566 571.584,273.098 530.887,296.748 530.968,268.218"/>
      <polygon fill="#C1C3C4" points="525.328,271.546 525.247,300.076 500.648,314.372 500.729,285.841"/>
      <polygon fill="#939597" points="500.729,285.841 500.648,314.372 462.813,292.527 462.895,263.997"/>
      <polygon fill="#C1C3C4" points="462.087,308.136 462.006,336.667 434.165,352.846 434.246,324.314"/>
      <polygon fill="#939597" points="434.246,324.314 434.165,352.846 396.47,331.082 396.551,302.552"/>
      <polygon fill="#C1C3C4" points="428.607,327.592 428.526,356.123 401.542,371.804 401.623,343.273"/>
      <polygon fill="#939597" points="401.623,343.273 401.542,371.804 363.847,350.04 363.928,321.51"/>
      <polygon fill="#C1C3C4" points="395.991,346.546 395.91,375.077 360.312,395.765 360.393,367.233"/>
      <polygon fill="#939597" points="360.393,367.233 360.312,395.765 322.616,374.001 322.697,345.471"/>
      <path fill="#B3B5B6" d="M71.814,206.583l-0.081,28.531c-2.843,1.826-5.344,3.74-7.49,5.728l0.081-28.531
         C66.471,210.322,68.972,208.409,71.814,206.583"/>
      <path fill="#AFB1B3" d="M64.324,212.31l-0.081,28.531c-1.32,1.222-2.506,2.472-3.555,3.746l0.081-28.53
         C61.818,214.782,63.004,213.532,64.324,212.31"/>
      <polygon fill="#ABADAF" points="60.769,216.057 60.688,244.587 9.522,238.943 9.604,210.413"/>
      <path fill="#A7A9AB" d="M57.758,220.439l-0.081,28.53c-0.583,1.052-1.074,2.113-1.476,3.184l0.081-28.53
         C56.684,222.553,57.176,221.49,57.758,220.439"/>
      <path fill="#A3A5A7" d="M56.283,223.623l-0.081,28.53c-0.408,1.089-0.723,2.186-0.944,3.289l0.081-28.53
         C55.56,225.809,55.874,224.711,56.283,223.623"/>
      <path fill="#9FA1A3" d="M55.338,226.912l-0.081,28.53c-0.223,1.114-0.351,2.234-0.384,3.358l0.081-28.531
         C54.987,229.146,55.115,228.025,55.338,226.912"/>
      <path fill="#9B9D9F" d="M54.954,230.27l-0.081,28.531c-0.005,0.175-0.008,0.35-0.009,0.524l0.081-28.531
         C54.946,230.619,54.949,230.444,54.954,230.27"/>
      <polygon fill="#BBBCBE" points="57.479,240.941 57.398,269.473 5.792,277.103 5.873,248.572"/>
      <path fill="#909294" d="M5.873,248.572l-0.081,28.53c-2.093-5.136-3.13-10.365-3.115-15.587l0.081-28.53
         C2.742,238.206,3.78,243.437,5.873,248.572"/>
      <path fill="none" d="M2.676,261.516c0.027-9.51,0.054-19.02,0.081-28.53c-0.015,5.221,1.022,10.451,3.115,15.587l-0.081,28.53
         C3.699,271.967,2.662,266.737,2.676,261.516z"/>
      <polygon fill="#C1C3C4" points="118.352,233.451 118.271,261.981 80.733,283.797 80.813,255.267"/>
      <path fill="#909294" d="M80.813,255.267l-0.081,28.53c-6.528-4.15-11.511-8.784-14.472-13.499
         c-2.286-3.623-3.423-7.296-3.413-10.924l0.081-28.53c-0.01,3.627,1.126,7.301,3.413,10.924
         C69.303,246.481,74.286,251.115,80.813,255.267"/>
      <polygon fill="#C1C3C4" points="75.162,258.551 75.081,287.081 36.331,309.601 36.412,281.07"/>
      <path fill="#909294" d="M36.412,281.07l-0.081,28.53c-13.155-8.08-22.92-17.709-28.439-28.022l0.081-28.53
         C13.491,263.361,23.256,272.99,36.412,281.07"/>
      <polygon fill="#C1C3C4" points="148.047,254.094 147.967,282.624 120.837,298.391 120.918,269.859"/>
      <polygon fill="#939597" points="120.918,269.859 120.837,298.391 94.016,282.904 94.097,254.374"/>
      <polygon fill="#C1C3C4" points="180.457,272.893 180.376,301.424 153.323,317.146 153.403,288.615"/>
      <polygon fill="#939597" points="153.403,288.615 153.323,317.146 126.495,301.656 126.575,273.125"/>
      <polygon fill="#C1C3C4" points="212.942,291.648 212.861,320.179 185.808,335.9 185.889,307.37"/>
      <polygon fill="#939597" points="185.889,307.37 185.808,335.9 158.979,320.411 159.061,291.881"/>
      <polygon fill="#C1C3C4" points="245.427,310.403 245.346,338.935 218.293,354.656 218.374,326.125"/>
      <polygon fill="#939597" points="218.374,326.125 218.293,354.656 191.464,339.167 191.545,310.636"/>
      <polygon fill="#C1C3C4" points="277.912,329.159 277.832,357.689 250.778,373.411 250.859,344.881"/>
      <polygon fill="#939597" points="250.859,344.881 250.778,373.411 223.949,357.922 224.03,329.392"/>
      <polygon fill="#C1C3C4" points="109.789,269.967 109.708,298.497 63.51,325.345 63.591,296.813"/>
      <polygon fill="#939597" points="63.591,296.813 63.51,325.345 42.083,312.974 42.164,284.443"/>
      <polygon fill="#C1C3C4" points="136.872,285.604 136.792,314.134 90.594,340.981 90.674,312.45"/>
      <polygon fill="#939597" points="90.674,312.45 90.594,340.981 69.167,328.61 69.248,300.08"/>
      <polygon fill="#C1C3C4" points="163.962,301.244 163.881,329.774 117.684,356.622 117.765,328.091"/>
      <polygon fill="#939597" points="117.765,328.091 117.684,356.622 96.257,344.251 96.337,315.72"/>
      <polygon fill="#C1C3C4" points="191.046,316.881 190.965,345.411 144.767,372.258 144.848,343.728"/>
      <polygon fill="#939597" points="144.848,343.728 144.767,372.258 123.34,359.888 123.421,331.357"/>
      <polygon fill="#C1C3C4" points="218.13,332.518 218.049,361.048 171.852,387.896 171.932,359.364"/>
      <polygon fill="#939597" points="171.932,359.364 171.852,387.896 150.424,375.524 150.505,346.994"/>
      <polygon fill="#C1C3C4" points="245.22,348.158 245.139,376.688 198.941,403.536 199.022,375.005"/>
      <polygon fill="#939597" points="199.022,375.005 198.941,403.536 177.514,391.165 177.595,362.634"/>
      <path fill="#B7B9BA" d="M308.4,346.93l-0.081,28.531c-2.125,1.03-4.396,1.932-6.77,2.694l0.081-28.531
         C304.004,348.862,306.274,347.961,308.4,346.93"/>
      <path fill="#B3B5B6" d="M301.63,349.624l-0.081,28.531c-2.479,0.795-5.071,1.438-7.734,1.919l0.081-28.531
         C296.559,351.063,299.151,350.42,301.63,349.624"/>
      <path fill="#AFB1B3" d="M293.896,351.543l-0.081,28.531c-1.656,0.298-3.338,0.533-5.037,0.701l0.081-28.53
         C290.558,352.076,292.24,351.842,293.896,351.543"/>
      <path fill="#ABADAF" d="M288.859,352.245l-0.081,28.53c-1.08,0.107-2.165,0.188-3.255,0.24c-0.441,0.023-0.882,0.043-1.322,0.058
         l0.081-28.53c0.44-0.015,0.881-0.034,1.322-0.058C286.694,352.433,287.78,352.352,288.859,352.245"/>
      <path fill="#A7A9AB" d="M284.282,352.543l-0.081,28.53c-1.375,0.047-2.744,0.053-4.103,0.019l0.081-28.53
         C281.538,352.596,282.908,352.59,284.282,352.543"/>
      <path fill="#A3A5A7" d="M280.179,352.562l-0.081,28.53c-1.312-0.032-2.614-0.103-3.903-0.209l0.081-28.53
         C277.564,352.459,278.867,352.528,280.179,352.562"/>
      <path fill="#9FA1A3" d="M276.276,352.353l-0.081,28.53c-1.291-0.106-2.568-0.249-3.827-0.427l0.081-28.531
         C273.708,352.104,274.985,352.246,276.276,352.353"/>
      <path fill="#9B9D9F" d="M272.449,351.925l-0.081,28.531c-1.312-0.187-2.604-0.411-3.87-0.673l0.081-28.53
         C269.846,351.515,271.138,351.739,272.449,351.925"/>
      <path fill="#98999C" d="M268.58,351.253l-0.081,28.53c-1.39-0.287-2.749-0.62-4.07-0.996l0.081-28.531
         C265.831,350.633,267.19,350.965,268.58,351.253"/>
      <path fill="#949598" d="M264.509,350.256l-0.081,28.531c-1.597-0.455-3.138-0.974-4.613-1.555l0.081-28.53
         C261.372,349.282,262.913,349.801,264.509,350.256"/>
      <path fill="#909294" d="M259.896,348.702l-0.081,28.53c-0.847-0.333-1.672-0.687-2.474-1.061l0.081-28.53
         C258.224,348.016,259.049,348.369,259.896,348.702"/>
      <polygon fill="#8C8E90" points="298.3,389.724 298.219,418.254 290.384,385.321 290.465,356.791"/>
      <path fill="#B7B9BA" d="M354.702,370.422l-0.081,28.531c-9.367,5.179-19.549,9.534-30.235,12.961l0.081-28.531
         C335.153,379.956,345.335,375.602,354.702,370.422"/>
      <path fill="#B3B5B6" d="M324.466,383.383l-0.081,28.531c-7.74,2.481-15.745,4.477-23.898,5.945l0.081-28.53
         C308.722,387.86,316.727,385.865,324.466,383.383"/>
      <path fill="#AFB1B3" d="M300.568,389.329l-0.081,28.53c-0.755,0.137-1.511,0.268-2.268,0.395l0.081-28.53
         C299.057,389.597,299.813,389.465,300.568,389.329"/>
      <path fill="#AFB1B3" d="M290.485,390.862l-0.081,28.53c-1.799,0.23-3.591,0.434-5.376,0.611l0.081-28.531
         C286.894,391.296,288.686,391.092,290.485,390.862"/>
      <path fill="#ABADAF" d="M285.108,391.473l-0.081,28.531c-4,0.396-7.962,0.661-11.877,0.795l0.081-28.53
         C277.146,392.135,281.108,391.87,285.108,391.473"/>
      <path fill="#A7A9AB" d="M273.231,392.269l-0.081,28.53c-3.44,0.117-6.843,0.134-10.203,0.05l0.081-28.53
         C266.388,392.402,269.792,392.386,273.231,392.269"/>
      <path fill="#A3A5A7" d="M263.028,392.318l-0.081,28.53c-3.132-0.078-6.227-0.243-9.278-0.494l0.081-28.531
         C256.802,392.075,259.896,392.24,263.028,392.318"/>
      <path fill="#9FA1A3" d="M253.75,391.823l-0.081,28.531c-2.992-0.247-5.943-0.576-8.848-0.987l0.081-28.531
         C247.807,391.248,250.758,391.577,253.75,391.823"/>
      <path fill="#9B9D9F" d="M244.902,390.836l-0.081,28.531c-2.995-0.425-5.941-0.937-8.833-1.534l0.081-28.531
         C238.962,389.9,241.908,390.412,244.902,390.836"/>
      <path fill="#98999C" d="M236.07,389.302l-0.081,28.531c-3.186-0.659-6.306-1.423-9.352-2.291l0.081-28.531
         C229.765,387.879,232.884,388.643,236.07,389.302"/>
      <path fill="#949598" d="M226.718,387.011l-0.081,28.531c-3.76-1.071-7.408-2.301-10.93-3.688l0.081-28.53
         C219.311,384.71,222.958,385.939,226.718,387.011"/>
      <path fill="#909294" d="M215.788,383.324l-0.081,28.531c-3.832-1.508-7.516-3.201-11.033-5.076l0.081-28.53
         C208.272,380.124,211.956,381.816,215.788,383.324"/>
   </g>
   <g id="AREAS">
      <path id="NE-H27" fill="#D3D4D5" stroke-width="0" d="M71.814,206.583c-4.591,2.949-8.289,6.126-11.045,9.474l-51.166-5.644
         c5.588-8.943,14.451-17.17,26.38-24.517L71.814,206.583z"/>
      <path id="NE-H26" fill="#D3D4D5" stroke-width="0" d="M57.758,220.439c-3.654,6.598-3.748,13.612-0.279,20.502l-51.606,7.631
         c-4.542-11.147-4.112-22.736,1.254-33.718L57.758,220.439z"/>
      <path id="NE-H25" fill="#D3D4D5" stroke-width="0" d="M60.195,245.324c3.445,4.7,8.465,9.135,14.967,13.227l-38.75,22.52
         c-13.156-8.08-22.921-17.709-28.439-28.022L60.195,245.324z"/>
      <path id="NE-NEL" fill="#D3D4D5" stroke-width="0" d="M118.352,233.451l-37.539,21.815c-6.527-4.151-11.511-8.785-14.471-13.499
         c-4.713-7.469-4.541-15.15,0.492-22.202c2.469-3.462,6.04-6.728,10.63-9.721L118.352,233.451z"/>
      <path id="NW-F24" fill="#D3D4D5" stroke-width="0" d="M282.474,357.203l8.011,33.659c-32.407,4.144-62.648-0.309-85.73-12.613l47.003-27.315
         C260.265,355.044,271.191,357.281,282.474,357.203z"/>
      <polygon id="N-N12" fill="#D3D4D5" stroke-width="0" points="109.789,269.967 63.591,296.813 42.164,284.443 88.362,257.596"/>
      <polygon id="N-N11" fill="#D3D4D5" stroke-width="0" points="136.872,285.604 90.674,312.45 69.248,300.08 115.445,273.232"/>
      <polygon id="N-N10" fill="#D3D4D5" stroke-width="0" points="163.962,301.244 117.765,328.091 96.337,315.72 142.535,288.873"/>
      <polygon id="N-N9" fill="#D3D4D5" stroke-width="0" points="191.046,316.881 144.848,343.728 123.421,331.357 169.619,304.51"/>
      <polygon id="N-N8" fill="#D3D4D5" stroke-width="0" points="218.13,332.518 171.932,359.364 150.505,346.994 196.703,320.146"/>
      <polygon id="N-N7" fill="#D3D4D5" stroke-width="0" points="245.22,348.158 199.022,375.005 177.595,362.634 223.793,335.787"/>
      <polygon id="N-N6" fill="#D3D4D5" stroke-width="0" points="148.047,254.094 120.918,269.859 94.097,254.374 121.226,238.608"/>
      <polygon id="N-N5" fill="#D3D4D5" stroke-width="0" points="180.457,272.893 153.403,288.615 126.575,273.125 153.629,257.403"/>
      <polygon id="N-N4" fill="#D3D4D5" stroke-width="0" points="212.942,291.648 185.889,307.37 159.061,291.881 186.114,276.159"/>
      <polygon id="N-N3" fill="#D3D4D5" stroke-width="0" points="245.427,310.403 218.374,326.125 191.545,310.636 218.599,294.914"/>
      <polygon id="N-N2" fill="#D3D4D5" stroke-width="0" points="277.912,329.159 250.859,344.881 224.03,329.392 251.084,313.67"/>
      <path id="N-N1" fill="#D3D4D5" stroke-width="0" d="M308.4,346.93c-6.6,3.2-14.589,5.157-22.795,5.556c-10.294,0.546-20.385-1.209-28.182-4.844
         l26.02-15.121L308.4,346.93z"/>
      <path id="W-F23" fill="#D3D4D5" stroke-width="0" d="M354.702,370.422c-16.78,9.278-36.171,15.91-56.402,19.302l-7.835-32.933
         c9.883-1.011,19.223-3.849,26.574-8.113L354.702,370.422z"/>
      <polygon id="W-D13" fill="#D3D4D5" stroke-width="0" points="395.991,346.546 360.393,367.233 322.697,345.471 358.296,324.783"/>
      <polygon id="W-D12" fill="#D3D4D5" stroke-width="0" points="428.607,327.592 401.623,343.273 363.928,321.51 390.912,305.828"/>
      <polygon id="W-D11" fill="#D3D4D5" stroke-width="0" points="462.087,308.136 434.246,324.314 396.551,302.552 424.391,286.372"/>
      <polygon id="W-BREM" fill="#D3D4D5" stroke-width="0" points="525.328,271.546 500.729,285.841 462.895,263.997 487.493,249.701"/>
      <polygon id="W-B4" fill="#D3D4D5" stroke-width="0" points="571.665,244.566 530.968,268.218 514.048,258.449 537.22,244.983 516.297,232.903 
         533.823,222.719"/>
      <polygon id="W-B3" fill="#D3D4D5" stroke-width="0" points="601.565,227.027 577.164,241.208 539.463,219.441 563.864,205.261"/>
      <polygon id="W-B2" fill="#D3D4D5" stroke-width="0" points="641.071,204.047 607.294,223.677 569.611,201.921 603.389,182.292"/>
      <polygon id="W-B1" fill="#D3D4D5" stroke-width="0" points="680.5,181.156 646.729,200.781 609.009,179.003 642.78,159.377"/>
      <polygon id="W-C22" fill="#D3D4D5" stroke-width="0" points="352.62,321.506 323.498,338.43 300.258,325.012 329.38,308.088"/>
      <polygon id="W-C21" fill="#D3D4D5" stroke-width="0" points="385.235,302.552 358.252,318.232 334.821,304.705 361.805,289.023"/>
      <polygon id="W-C20" fill="#D3D4D5" stroke-width="0" points="418.715,283.096 390.875,299.274 367.443,285.746 395.284,269.567"/>
      <polygon id="W-C19" fill="#D3D4D5" stroke-width="0" points="451.579,263.997 424.348,279.822 401.107,266.404 428.339,250.579"/>
      <polygon id="W-C18" fill="#D3D4D5" stroke-width="0" points="492.81,240.036 457.218,260.72 433.787,247.191 469.379,226.508"/>
      <polygon id="W-C17" fill="#D3D4D5" stroke-width="0" points="528.153,219.496 505.413,232.712 481.982,219.184 504.723,205.969"/>
      <polygon id="W-C16" fill="#D3D4D5" stroke-width="0" points="563.104,199.186 533.793,216.22 510.361,202.691 539.673,185.657"/>
      <polygon id="W-C15" fill="#D3D4D5" stroke-width="0" points="602.839,176.036 568.737,195.854 545.306,182.325 557.631,175.163"/>
      <polygon id="S-SS6" fill="#D3D4D5" stroke-width="0" points="642.643,119.183 601.9,142.86 581.342,130.99 622.084,107.313"/>
      <polygon id="S-SS5" fill="#D3D4D5" stroke-width="0" points="616.407,104.037 575.665,127.713 555.101,115.84 595.843,92.164"/>
      <polygon id="S-SS4" fill="#D3D4D5" stroke-width="0" points="590.174,88.89 549.406,112.582 528.841,100.708 569.608,77.017"/>
      <polygon id="S-SS3" fill="#D3D4D5" stroke-width="0" points="563.933,73.74 523.165,97.431 502.581,85.547 543.349,61.856"/>
      <polygon id="S-SS2" fill="#D3D4D5" stroke-width="0" points="537.698,58.593 496.931,82.285 476.372,70.416 517.14,46.724"/>
      <polygon id="S-SS1" fill="#D3D4D5" stroke-width="0" points="511.476,43.439 470.702,67.135 450.138,55.262 490.911,31.566"/>
      <path id="S-FA7" fill="#D3D4D5" stroke-width="0" d="M601.791,149.499c11.418,8.04,11.211,18.678,8.366,22.04l-44.808-0.862L601.791,149.499z"/>
      <polygon id="S-FA6" fill="#D3D4D5" stroke-width="0" points="596.262,146.137 550.825,172.542 530.248,160.661 575.684,134.257"/>
      <polygon id="S-FA5" fill="#D3D4D5" stroke-width="0" points="570.026,130.99 524.591,157.395 504.013,145.515 549.449,119.11"/>
      <polygon id="S-FA4" fill="#D3D4D5" stroke-width="0" points="543.792,115.844 498.356,142.249 477.771,130.364 523.208,103.959"/>
      <polygon id="S-FA3" fill="#D3D4D5" stroke-width="0" points="517.551,100.694 472.115,127.098 451.538,115.218 496.974,88.813"/>
      <polygon id="S-FA2" fill="#D3D4D5" stroke-width="0" points="491.316,85.547 445.881,111.952 425.322,100.082 470.758,73.678"/>
      <polygon id="S-FA1" fill="#D3D4D5" stroke-width="0" points="465.038,70.404 419.627,96.794 403.027,87.21 407.537,84.589 403.591,82.312 
         444.492,58.542"/>
      <path id="SE-SE3" fill="#D3D4D5" stroke-width="0" d="M484.297,28.835l-45.646,26.526c-10.304-4.516-22.474-7.251-35.492-7.992l0.996-36.689
         C433.879,11.396,462.113,17.791,484.297,28.835z"/>
      <path id="SE-SE2" fill="#D3D4D5" stroke-width="0" d="M396.175,10.637l-0.997,36.549c-9.622,0.081-19.219,1.242-28.084,3.398l-26.753-32.538
         C357.81,13.398,376.995,10.851,396.175,10.637z"/>
      <path id="SE-SE1" fill="#D3D4D5" stroke-width="0" d="M333.226,20.133l26.739,32.508c-5.222,1.688-9.971,3.642-14.19,5.835l-43.843-25.313
         C311.175,28.095,321.682,23.719,333.226,20.133z"/>
      <path id="SE-SEL" fill="#D3D4D5" stroke-width="0" d="M432.936,58.66l-40.653,23.647l3.946,2.278l-2.607,1.515l-42.164-24.343
         c4.55-2.333,9.763-4.365,15.538-6.042c9.925-2.794,20.979-4.136,31.951-3.878C411.408,52.162,423.093,54.513,432.936,58.66z"/>
      <polygon id="E-L44" fill="#D3D4D5" stroke-width="0" points="305.007,41.45 285.381,52.855 242.022,27.822 261.648,16.417"/>
      <polygon id="E-L43" fill="#D3D4D5" stroke-width="0" points="279.895,56.095 256.476,69.705 213.073,44.646 236.492,31.037"/>
      <polygon id="E-L42" fill="#D3D4D5" stroke-width="0" points="250.837,72.982 227.418,86.592 184.015,61.533 207.434,47.923"/>
      <polygon id="E-L41" fill="#D3D4D5" stroke-width="0" points="221.779,89.869 196.672,104.459 153.206,79.363 178.312,64.773"/>
      <polygon id="E-L40" fill="#D3D4D5" stroke-width="0" points="191.033,107.736 165.927,122.326 122.46,97.23 147.566,82.641"/>
      <polygon id="E-L39" fill="#D3D4D5" stroke-width="0" points="160.288,125.603 135.182,140.193 91.715,115.098 116.821,100.508"/>
      <polygon id="E-L38" fill="#D3D4D5" stroke-width="0" points="129.542,143.471 106.124,157.08 62.721,132.021 86.14,118.412"/>
      <polygon id="E-L37" fill="#D3D4D5" stroke-width="0" points="100.485,160.357 77.065,173.967 33.663,148.908 57.082,135.298"/>
      <polygon id="E-L36" fill="#D3D4D5" stroke-width="0" points="71.49,177.155 51.889,188.546 8.531,163.513 28.132,152.122"/>
      <polygon id="E-L35" fill="#D3D4D5" stroke-width="0" points="378.099,83.723 358.492,95.117 291.07,56.191 310.677,44.797"/>
      <polygon id="E-L34" fill="#D3D4D5" stroke-width="0" points="352.853,98.395 326.009,113.995 258.587,75.068 285.431,59.468"/>
      <polygon id="E-L33" fill="#D3D4D5" stroke-width="0" points="320.37,117.271 284.772,137.959 217.254,98.978 252.852,78.29"/>
      <polygon id="E-L32" fill="#D3D4D5" stroke-width="0" points="279.133,141.236 249.034,158.728 181.517,119.746 211.615,102.254"/>
      <polygon id="E-L31" fill="#D3D4D5" stroke-width="0" points="243.396,162.004 214.87,178.581 147.448,139.655 175.973,123.078"/>
      <polygon id="E-L30" fill="#D3D4D5" stroke-width="0" points="209.231,181.858 185.813,195.468 118.391,156.542 141.809,142.932"/>
      <polygon id="E-L29" fill="#D3D4D5" stroke-width="0" points="180.174,198.745 153.608,214.183 86.231,175.283 112.796,159.845"/>
      <polygon id="E-L28" fill="#D3D4D5" stroke-width="0" points="147.969,217.46 124.995,230.812 57.572,191.885 80.547,178.534"/>
   </g>
   <g id="LABELS" display="none">
      <text fid="E-L28" transform="matrix(1 0 0 1 94.4282 203.3403)" display="inline" fill="#FFFFFF" font-family="'Arial'" font-size="10">L28</text>
      <text fid="E-L29" transform="matrix(1 0 0 1 124.8599 185.6812)" display="inline" fill="#FFFFFF" font-family="'Arial'" font-size="10">L29</text>
      <text fid="E-L30" transform="matrix(1 0 0 1 155.4688 167.8667)" display="inline" fill="#FFFFFF" font-family="'Arial'" font-size="10">L30</text>
      <text fid="E-L31" transform="matrix(1 0 0 1 187.0796 149.4966)" display="inline" fill="#FFFFFF" font-family="'Arial'" font-size="10">L31</text>
      <text fid="E-L32" transform="matrix(1 0 0 1 221.9824 129.1577)" display="inline" fill="#FFFFFF" font-family="'Arial'" font-size="10">L32</text>
      <text fid="E-L33" transform="matrix(1 0 0 1 260.4697 106.7915)" display="inline" fill="#FFFFFF" font-family="'Arial'" font-size="10">L33</text>
      <text fid="E-L34" transform="matrix(1.1598 0 0 1 296.0444 85.3989)" display="inline" fill="#FFFFFF" font-family="'Arial'" font-size="10">L34</text>
      <text fid="E-L35" transform="matrix(1.1598 0 0 1 324.9092 68.6245)" display="inline" fill="#FFFFFF" font-family="'Arial'" font-size="10">L35</text>
      <text fid="E-L36" transform="matrix(1 0 0 1 31.668 169.0015)" display="inline" fill="#FFFFFF" font-family="'Arial'" font-size="10">L36</text>
      <text fid="E-L37" transform="matrix(1 0 0 1 58.7314 153.3003)" display="inline" fill="#FFFFFF" font-family="'Arial'" font-size="10">L37</text>
      <text fid="E-L38" transform="matrix(1 0 0 1 87.7896 136.4126)" display="inline" fill="#FFFFFF" font-family="'Arial'" font-size="10">L38</text>
      <text fid="E-L39" transform="matrix(1 0 0 1 117.6592 119.0171)" display="inline" fill="#FFFFFF" font-family="'Arial'" font-size="10">L39</text>
      <text fid="E-L40" transform="matrix(1 0 0 1 148.4048 101.1499)" display="inline" fill="#FFFFFF" font-family="'Arial'" font-size="10">L40</text>
      <text fid="E-L41" transform="matrix(1 0 0 1 179.1499 83.2827)" display="inline" fill="#FFFFFF" font-family="'Arial'" font-size="10">L41</text>
      <text fid="E-L42" transform="matrix(1 0 0 1 209.0835 65.9253)" display="inline" fill="#FFFFFF" font-family="'Arial'" font-size="10">L42</text>
      <text fid="E-L43" transform="matrix(1.1598 0 0 1 236.8081 49.0376)" display="inline" fill="#FFFFFF" font-family="'Arial'" font-size="10">L43</text>
      <text fid="E-L44" transform="matrix(1.1598 0 0 1 263.8394 33.3032)" display="inline" fill="#FFFFFF" font-family="'Arial'" font-size="10">L44</text>
      <text fid="SE-SEL" transform="matrix(1.1598 0 0 1 381.3691 62.5425)" display="inline" fill="#FFFFFF" font-family="'Arial'" font-size="10">SEL</text>
      <text fid="SE-SE1" transform="matrix(1.1598 0 0 1 322.1626 37.979)" display="inline" fill="#FFFFFF" font-family="'Arial'" font-size="10">SE1</text>
      <text fid="SE-SE2" transform="matrix(1.1598 0 0 1 362.665 29.2261)" display="inline" fill="#FFFFFF" font-family="'Arial'" font-size="10">SE2</text>
      <text fid="SE-SE3" transform="matrix(1.1598 0 0 1 422.2207 31.6411)" display="inline" fill="#FFFFFF" font-family="'Arial'" font-size="10">SE3</text>
      <text fid="S-FA1" transform="matrix(1.1598 0 0 1 423.7168 76.3354)" display="inline" fill="#FFFFFF" font-family="'Arial'" font-size="10">FA1</text>
      <text fid="S-FA2" transform="matrix(1.1598 0 0 1 448.0039 91.4819)" display="inline" fill="#FFFFFF" font-family="'Arial'" font-size="10">FA2</text>
      <text fid="S-FA3" transform="matrix(1.1598 0 0 1 474.2285 106.6235)" display="inline" fill="#FFFFFF" font-family="'Arial'" font-size="10">FA3</text>
      <text fid="S-FA4" transform="matrix(1.1598 0 0 1 500.4668 121.772)" display="inline" fill="#FFFFFF" font-family="'Arial'" font-size="10">FA4</text>
      <text fid="S-FA5" transform="matrix(1.1598 0 0 1 526.7031 136.9194)" display="inline" fill="#FFFFFF" font-family="'Arial'" font-size="10">FA5</text>
      <text fid="S-FA6" transform="matrix(1.1598 0 0 1 552.9395 152.0659)" display="inline" fill="#FFFFFF" font-family="'Arial'" font-size="10">FA6</text>
      <text fid="S-FA7" transform="matrix(1.1598 0 0 1 587.4238 163.7759)" display="inline" fill="#FFFFFF" font-family="'Arial'" font-size="10">FA7</text>
      <text fid="S-SS1" transform="matrix(1.1598 0 0 1 469.8457 48.0181)" display="inline" fill="#FFFFFF" font-family="'Arial'" font-size="10">SS1</text>
      <text fid="S-SS2" transform="matrix(1.1598 0 0 1 496.0742 63.1724)" display="inline" fill="#FFFFFF" font-family="'Arial'" font-size="10">SS2</text>
      <text fid="S-SS3" transform="matrix(1.1598 0 0 1 522.2949 78.311)" display="inline" fill="#FFFFFF" font-family="'Arial'" font-size="10">SS3</text>
      <text fid="S-SS4" transform="matrix(1.1598 0 0 1 548.5469 93.4663)" display="inline" fill="#FFFFFF" font-family="'Arial'" font-size="10">SS4</text>
      <text fid="S-SS5" transform="matrix(1.1598 0 0 1 574.793 108.606)" display="inline" fill="#FFFFFF" font-family="'Arial'" font-size="10">SS5</text>
      <text fid="S-SS6" transform="matrix(1.1598 0 0 1 601.0313 123.7544)" display="inline" fill="#FFFFFF" font-family="'Arial'" font-size="10">SS6</text>
      <text fid="W-C15" transform="matrix(1.1598 0 0 1 559.6357 182.1001)" display="inline" fill="#FFFFFF" font-family="'Arial'" font-size="10">C15</text>
      <text fid="W-C16" transform="matrix(1.1598 0 0 1 526.0947 199.605)" display="inline" fill="#FFFFFF" font-family="'Arial'" font-size="10">C16</text>
      <text fid="W-C17" transform="matrix(1.1598 0 0 1 494.4297 218.0078)" display="inline" fill="#FFFFFF" font-family="'Arial'" font-size="10">C17</text>
      <text fid="W-C18" transform="matrix(1.1598 0 0 1 452.6602 242.2813)" display="inline" fill="#FFFFFF" font-family="'Arial'" font-size="10">C18</text>
      <text fid="W-C19" transform="matrix(1.1598 0 0 1 415.7051 263.8682)" display="inline" fill="#FFFFFF" font-family="'Arial'" font-size="10">C19</text>
      <text fid="W-C20" transform="matrix(1.1598 0 0 1 382.4414 283.0879)" display="inline" fill="#FFFFFF" font-family="'Arial'" font-size="10">C20</text>
      <text fid="W-C21" transform="matrix(1.1598 0 0 1 349.3896 302.2949)" display="inline" fill="#FFFFFF" font-family="'Arial'" font-size="10">C21</text>
      <text fid="W-C22" transform="matrix(1.1598 0 0 1 315.8008 321.9258)" display="inline" fill="#FFFFFF" font-family="'Arial'" font-size="10">C22</text>
      <text fid="W-B1" transform="matrix(1.1598 0 0 1 637.6621 178.7466)" display="inline" fill="#FFFFFF" font-family="'Arial'" font-size="10">B1</text>
      <text fid="W-B2" transform="matrix(1.1598 0 0 1 598.248 201.6519)" display="inline" fill="#FFFFFF" font-family="'Arial'" font-size="10">B2</text>
      <text fid="W-B3" transform="matrix(1.1598 0 0 1 560.2939 220.4023)" display="inline" fill="#FFFFFF" font-family="'Arial'" font-size="10">B3</text>
      <text fid="W-B4" transform="matrix(1.1598 0 0 1 541.7637 244.1367)" display="inline" fill="#FFFFFF" font-family="'Arial'" font-size="10">B4</text>
      <text fid="W-BREM" transform="matrix(1.1598 0 0 1 476.3574 266.4385)" display="inline" fill="#FFFFFF" font-family="'Arial'" font-size="10">BREM</text>
      <text fid="W-D11" transform="matrix(1.1598 0 0 1 419.1113 304.0107)" display="inline" fill="#FFFFFF" font-family="'Arial'" font-size="10">D11</text>
      <text fid="W-D12" transform="matrix(1.1598 0 0 1 385.6289 323.2178)" display="inline" fill="#FFFFFF" font-family="'Arial'" font-size="10">D12</text>
      <text fid="W-D13" transform="matrix(1.1598 0 0 1 348.7061 344.6758)" display="inline" fill="#FFFFFF" font-family="'Arial'" font-size="10">D13</text>
      <text fid="W-F23" transform="matrix(1.1598 0 0 1 307.187 367.873)" display="inline" fill="#FFFFFF" font-family="'Arial'" font-size="10">F23</text>
      <text fid="NW-F24" transform="matrix(1.1598 0 0 1 246.0479 370.3838)" display="inline" fill="#FFFFFF" font-family="'Arial'" font-size="10">F24</text>
      <text fid="N-N1" transform="matrix(1.1598 0 0 1 275.5137 344.2969)" display="inline" fill="#FFFFFF" font-family="'Arial'" font-size="10">N1</text>
      <text fid="N-N2" transform="matrix(1.1598 0 0 1 243.5581 327.9434)" display="inline" fill="#FFFFFF" font-family="'Arial'" font-size="10">N2</text>
      <text fid="N-N3" transform="matrix(1.1598 0 0 1 211.0732 309.1865)" display="inline" fill="#FFFFFF" font-family="'Arial'" font-size="10">N3</text>
      <text fid="N-N4" transform="matrix(1.1598 0 0 1 178.5879 290.4316)" display="inline" fill="#FFFFFF" font-family="'Arial'" font-size="10">N4</text>
      <text fid="N-N5" transform="matrix(1.1598 0 0 1 146.1035 271.6777)" display="inline" fill="#FFFFFF" font-family="'Arial'" font-size="10">N5</text>
      <text fid="N-N6" transform="matrix(1.1598 0 0 1 113.6582 252.9023)" display="inline" fill="#FFFFFF" font-family="'Arial'" font-size="10">N6</text>
      <text fid="N-N7" transform="matrix(1.1598 0 0 1 203.9941 354.0635)" display="inline" fill="#FFFFFF" font-family="'Arial'" font-size="10">N7</text>
      <text fid="N-N8" transform="matrix(1.1598 0 0 1 176.9043 338.4229)" display="inline" fill="#FFFFFF" font-family="'Arial'" font-size="10">N8</text>
      <text fid="N-N9" transform="matrix(1.1598 0 0 1 149.8203 322.7852)" display="inline" fill="#FFFFFF" font-family="'Arial'" font-size="10">N9</text>
      <text fid="N-N10" transform="matrix(1.1598 0 0 1 119.5117 307.1484)" display="inline" fill="#FFFFFF" font-family="'Arial'" font-size="10">N10</text>
      <text fid="N-N11" transform="matrix(1.1598 0 0 1 92.8525 291.5078)" display="inline" fill="#FFFFFF" font-family="'Arial'" font-size="10">N11</text>
      <text fid="N-N12" transform="matrix(1.1598 0 0 1 65.3379 275.8711)" display="inline" fill="#FFFFFF" font-family="'Arial'" font-size="10">N12</text>
      <text fid="NE-NEL" transform="matrix(1.1598 0 0 1 75.0781 231.2246)" display="inline" fill="#FFFFFF" font-family="'Arial'" font-size="10">NEL</text>
      <text fid="NE-H25" transform="matrix(1.1598 0 0 1 30.7578 259.8203)" display="inline" fill="#FFFFFF" font-family="'Arial'" font-size="10">H25</text>
      <text fid="NE-H26" transform="matrix(1.1598 0 0 1 19.3477 230.3633)" display="inline" fill="#FFFFFF" font-family="'Arial'" font-size="10">H26</text>
      <text fid="NE-H27" transform="matrix(1.1598 0 0 1 29.9795 203.6987)" display="inline" fill="#FFFFFF" font-family="'Arial'" font-size="10">H27</text>
   </g>
</svg>