<svg>
    <g id="AREAS">
        <path id="BFW-WC" fill="#333333" stroke="#333333" stroke-miterlimit="10" d="M588.846,130.283
        c-0.472-13.149-5.598-25.498-14.591-35.156l9.904-9.904c11.631,12.31,18.212,28.173,18.694,45.061H588.846z"/>
        <rect id="BCU-G" x="129.667" y="3.364" width="46.825" height="46.825"/>
        <rect id="BCU-H" x="180.493" y="3.364" width="46.825" height="46.825"/>
        <rect id="BCU-J" x="231.318" y="3.364" width="46.826" height="46.825"/>
        <rect id="BCU-K" x="282.144" y="3.364" width="46.825" height="46.825"/>
        <rect id="BCU-L" x="332.968" y="3.364" width="46.826" height="46.825"/>
        <rect id="BCU-M" x="383.794" y="3.364" width="46.825" height="46.825"/>
        <rect id="BCU-N" x="434.62" y="3.364" width="46.825" height="46.825"/>
        <rect id="BCU-P" x="485.445" y="3.364" width="46.825" height="46.825"/>
        <rect id="BCL-Q" x="129.667" y="72.671" width="97.65" height="46.826"/>
        <rect id="BCL-R" x="231.318" y="72.671" width="97.65" height="46.826"/>
        <rect id="BCL-S" x="332.968" y="72.671" width="97.651" height="46.826"/>
        <rect id="BCL-T" x="434.62" y="72.671" width="97.65" height="46.826"/>
        <path id="BFU-U1" d="M577.794,85.931
            c-11.365-10.688-25.973-16.75-41.524-17.229v-34.13c24.65,0.494,47.82,10.108,65.644,27.238L577.794,85.931z"/>
        <path id="BFU-U2" fill="#333333" stroke="#333333" stroke-miterlimit="10" d="M597.882,160.843v-26.56h9v-2
        c0-18.701-7.049-36.339-19.893-49.89l17.753-17.754C622.335,82.942,632,106.885,632,132.283v28.56H597.882z"/>
        <rect id="BFU-V1" x="597.882" y="164.843" width="34.118" height="88.826"/>
        <polygon id="BFU-V2" points="597.882,312.883 597.882,257.669 
            632,257.669 632,277.447 614.283,312.883 	"/>
        <path id="BFL-W1" fill="#333333" stroke="#333333" stroke-miterlimit="10" d="M546.901,130.283
        c-0.86-5.452-5.179-9.77-10.631-10.63V72.704c14.485,0.477,28.09,6.122,38.694,16.057l-6.341,6.341l1.414,1.414
        c9.099,9.1,14.312,21.025,14.806,33.768H546.901z"/>
        <rect id="BFL-W2" x="547.057" y="134.283" width="46.825" height="26.56"/>
        <rect id="BFL-X1" x="547.057" y="164.843" width="46.825" height="49.1"/>
        <rect id="BFL-X2" x="547.057" y="217.942" width="46.825" height="49.099"/>
        <rect id="BFL-Y1" x="547.057" y="271.042" width="46.825" height="41.842"/>
        <rect id="BFL-Y2" x="547.057" y="316.883" width="61.505" height="50.243"/>
        <rect id="BFL-Z1" x="547.057" y="371.126" width="61.505" height="26.941"/>
        <path id="BFL-Z2" d="M540.952,410.971c3.198-1.953,5.37-5.203,5.95-8.903
            h61.634c-0.759,28.671-17.792,54.168-43.993,65.854L540.952,410.971z"/>
        <polygon id="MST-A2" points="482.446,428.246 519.047,423.878 
            522.83,450.46 485.294,455.206 	"/>
        <polygon id="MST-A1" points="447.548,432.411 478.473,428.72 
            481.325,455.708 449.569,459.72 	"/>
        <polygon id="MST-B2" points="413.436,436.48 443.573,432.884 
            445.595,460.222 414.625,464.137 	"/>
        <polygon id="MST-B1" points="396.788,438.467 409.453,436.956 
            410.644,464.641 397.565,466.294 	"/>
        <polygon id="MST-C2" points="357.983,466.543 357.983,438.698 
            392.792,438.698 393.57,466.543 	"/>
        <rect id="MST-C1" x="327.144" y="438.698" width="26.839" height="27.846"/>
        <rect id="MST-D2" x="301.883" y="438.698" width="21.261" height="27.846"/>
        <polygon id="MST-D1" points="279.93,466.543 280.137,438.698 
            297.883,438.698 297.883,466.543 	"/>
        <polygon id="MST-RR3" points="239.793,463.075 241.008,434.841 
            268.486,437.752 268.076,466.368 	"/>
        <polygon id="MST-RR2" points="214.044,460.078 215.882,432.18 
            237.022,434.419 235.809,462.611 	"/>
        <polygon id="MST-RR1" points="169.135,454.85 172.02,427.533 
            211.901,431.758 210.066,459.615 	"/>
        <polygon id="MST-F1" points="127.602,450.018 131.414,423.231 
            168.042,427.112 165.162,454.388 	"/>
        <polygon id="MST-A4" points="485.714,459.184 523.393,454.421 
            530.578,504.909 490.987,509.109 	"/>
        <polygon id="MST-A3" points="457.046,462.807 481.746,459.686 
            487.009,509.531 461.023,512.29 	"/>
        <polygon id="MST-B4" points="414.798,468.147 453.074,463.31 
            457.044,512.711 416.901,516.969 	"/>
        <polygon id="MST-B3" points="397.676,470.312 410.817,468.651 
            412.916,517.392 399.033,518.864 	"/>
        <polygon id="MST-C4" points="357.983,519.081 357.983,496.281 
            369.883,496.281 369.883,486.59 394.13,486.59 395.038,519.081 	"/>
        <rect id="MST-C3" x="327.144" y="496.281" width="26.839" height="22.8"/>
        <polygon id="MST-D4" points="288.244,519.081 288.244,470.543 
            306.009,470.543 306.009,486.59 323.144,486.59 323.144,519.081 	"/>
        <polygon id="MST-D3" points="261.147,519.081 262.283,469.719 
            269.355,470.543 284.244,470.543 284.244,519.081 	"/>
        <polygon id="MST-E2" points="237.479,516.858 239.621,467.082 
            258.292,469.255 257.151,518.875 	"/>
        <polygon id="MST-E1" points="197.013,512.706 200.885,462.574 
            235.637,466.618 233.493,516.449 	"/>
        <polygon id="MST-F3" points="163.389,509.255 168.715,458.829 
            196.909,462.111 193.033,512.296 	"/>
        <polygon id="MST-F2" points="119.809,504.784 127.039,453.979 
            164.742,458.366 159.41,508.847 	"/>
        <rect id="TEU-T1" x="3" y="347.95" width="59.532" height="64.152"/>
        <rect id="TEU-T2" x="3" y="296.88" width="59.532" height="46.825"/>
        <rect id="TEU-T3" x="3" y="246.055" width="59.532" height="46.825"/>
        <rect id="TEU-T4" x="3" y="195.229" width="59.532" height="46.826"/>
        <rect id="TEU-T5" x="3" y="127.078" width="59.532" height="64.152"/>
        <polygon id="TEL-T6" points="81.868,412.102 81.868,347.95 
            119.452,347.95 119.452,394.792 102.141,412.102 	"/>
        <rect id="TEL-T7" x="81.868" y="296.88" width="37.584" height="46.825"/>
        <rect id="TEL-T8" x="81.868" y="246.055" width="37.584" height="46.825"/>
        <rect id="TEL-T9" x="81.868" y="195.229" width="37.584" height="46.826"/>
        <polygon id="TEL-T10" points="81.868,191.229 81.868,127.078 
            102.141,127.078 119.452,144.388 119.452,191.229 	"/>
    </g>
    <g id="PITCH">
        <g>
            <polygon fill="#FFFFFF" points="135.945,382.312 530.613,382.312 530.613,155.309 135.945,155.309 135.945,382.312"/>
            <polygon fill="#79AA41" points="144.635,374.171 521.924,374.171 521.924,163.818 144.635,163.818 144.635,374.171"/>
            <polygon fill="#599B43" points="493.755,165.698 493.755,372.327 512.724,372.327 512.724,165.698 493.755,165.698"/>
            <polygon fill="#599B43" points="455.809,165.698 455.809,372.327 474.778,372.327 474.778,165.698 455.809,165.698"/>
            <polygon fill="#599B43" points="417.853,165.698 417.853,372.327 436.823,372.327 436.823,165.698 417.853,165.698"/>
            <polygon fill="#599B43" points="379.906,165.698 379.906,372.327 398.877,372.327 398.877,165.698 379.906,165.698"/>
            <polygon fill="#599B43" points="342.461,165.698 342.461,372.327 361.421,372.327 361.421,165.698 342.461,165.698"/>
            <polygon fill="#599B43" points="304.493,165.698 304.493,372.327 323.468,372.327 323.468,165.698 304.493,165.698"/>
            <polygon fill="#599B43" points="266.548,165.698 266.548,372.327 285.521,372.327 285.521,165.698 266.548,165.698"/>
            <polygon fill="#599B43" points="228.598,165.698 228.594,372.327 247.563,372.327 247.564,165.698 228.598,165.698"/>
            <polygon fill="#599B43" points="190.646,165.698 190.646,372.327 209.609,372.327 209.61,165.698 190.646,165.698"/>
            <polygon fill="#599B43" points="152.683,165.698 152.682,372.327 171.66,372.327 171.66,165.698 152.683,165.698"/>
            <polygon fill="#BBBDBF" points="143.561,163.818 143.561,164.868 522.012,164.868 522.012,373.124 144.61,373.124 144.61,163.818 
                143.561,163.818 143.561,164.868 143.561,163.818 142.512,163.818 142.512,375.221 524.112,375.221 524.112,162.769 
                142.512,162.769 142.512,163.818 143.561,163.818"/>
            <polygon fill="#FFFFFF" points="509.181,363.685 509.181,362.624 159.045,362.624 159.045,174.135 508.118,174.135 
                508.118,363.685 509.181,363.685 509.181,362.624 509.181,363.685 510.245,363.685 510.245,172.007 156.917,172.007 
                156.917,364.751 510.245,364.751 510.245,363.685 509.181,363.685"/>
            <rect x="332.48" y="173.071" fill="#FFFFFF" width="2.128" height="190.348"/>
            <path fill="#FFFFFF" d="M509.181,180.192c-2.026,0-3.85-0.804-5.171-2.097c-1.322-1.295-2.132-3.064-2.134-5.023h-2.127
                c0,2.554,1.063,4.876,2.772,6.543c1.705,1.672,4.064,2.704,6.659,2.704V180.192L509.181,180.192z"/>
            <path fill="#FFFFFF" d="M509.181,354.432c-2.595,0-4.954,1.034-6.659,2.704c-1.709,1.67-2.772,3.993-2.772,6.549h2.127
                c0.002-1.96,0.812-3.732,2.134-5.028c1.321-1.293,3.145-2.096,5.171-2.096V354.432L509.181,354.432z"/>
            <polygon fill="#FFFFFF" points="157.984,321.147 205.543,321.147 205.543,214.043 157.984,214.043 157.984,216.171 
                203.416,216.171 203.416,319.019 157.984,319.019 157.984,321.147"/>
            <polygon fill="#FFFFFF" points="157.984,297.149 184.691,297.149 184.691,238.022 157.984,238.022 157.984,240.151 
                182.563,240.151 182.563,295.02 157.984,295.02 157.984,297.149"/>
            <path fill="#FFFFFF" d="M218.532,267.587h-1.062c0,9.383-5.533,17.415-13.424,20.934l0.433,0.971h1.064v-43.809h-1.064
                l-0.433,0.972c7.89,3.514,13.425,11.565,13.424,20.932H218.532h1.065c-0.002-10.218-6.033-19.022-14.685-22.876l-1.496-0.667
                v47.086l1.496-0.666c8.65-3.855,14.683-12.643,14.685-22.877H218.532L218.532,267.587z"/>
            <path fill="#FFFFFF" d="M157.981,182.318c2.595,0,4.954-1.032,6.658-2.704c1.705-1.667,2.768-3.99,2.767-6.543h-2.127
                c0,1.959-0.808,3.73-2.128,5.023c-1.32,1.293-3.141,2.097-5.169,2.097V182.318L157.981,182.318z"/>
            <path fill="#FFFFFF" d="M157.981,356.561c2.028,0.003,3.85,0.803,5.169,2.096c1.32,1.296,2.128,3.066,2.128,5.028h2.127
                c0.001-2.556-1.061-4.879-2.767-6.548c-1.704-1.671-4.063-2.705-6.658-2.705V356.561L157.981,356.561z"/>
            <path fill="#FFFFFF" d="M193.23,269.01v1.063c0.682,0.002,1.313-0.266,1.773-0.711c0.461-0.443,0.755-1.082,0.753-1.774
                c-0.009-1.395-1.142-2.491-2.526-2.496c-1.394,0.003-2.515,1.119-2.518,2.496c-0.001,0.685,0.28,1.323,0.74,1.771
                c0.459,0.449,1.095,0.717,1.778,0.715V269.01v-1.063c-0.256-0.011-0.383-0.154-0.391-0.359c0-0.189,0.156-0.368,0.391-0.369
                l0.289,0.119l0.109,0.25c-0.001,0.187-0.151,0.354-0.398,0.359V269.01L193.23,269.01z"/>
            <polygon fill="#FFFFFF" points="509.22,214.285 461.658,214.285 461.658,321.377 509.22,321.377 509.22,319.251 463.786,319.251 
                463.786,216.412 509.22,216.412 509.22,214.285"/>
            <polygon fill="#FFFFFF" points="509.22,238.273 482.508,238.273 482.508,297.398 509.22,297.398 509.22,295.269 484.636,295.269 
                484.636,240.4 509.22,240.4 509.22,238.273"/>
            <path fill="#FFFFFF" d="M448.967,267.835h1.064c0.002-9.412,5.248-17.42,13.122-20.932l-0.431-0.971h-1.065v43.807h1.065
                l0.431-0.972c-7.872-3.511-13.12-11.539-13.122-20.933H448.967h-1.064c-0.003,10.192,5.72,19.015,14.386,22.877l1.497,0.667
                v-47.086l-1.497,0.667c-8.663,3.86-14.389,12.666-14.386,22.875H448.967L448.967,267.835z"/>
            <path fill="#FFFFFF" d="M473.974,266.417v-1.064c-1.361,0.003-2.519,1.077-2.524,2.483c0.008,1.399,1.146,2.487,2.524,2.493
                c1.387-0.003,2.516-1.113,2.516-2.493c0.001-0.687-0.285-1.322-0.742-1.766c-0.458-0.447-1.091-0.718-1.773-0.718V266.417v1.063
                c0.246,0.009,0.384,0.163,0.386,0.356c0,0.188-0.154,0.364-0.386,0.366l-0.286-0.119l-0.111-0.247l0.106-0.241l0.291-0.115
                V266.417L473.974,266.417z"/>
            <path fill="#FFFFFF" d="M332.708,300.637v-1.063c-8.34-0.001-15.883-3.379-21.35-8.845c-5.465-5.467-8.843-13.007-8.843-21.346
                c0-8.339,3.378-15.881,8.843-21.348c5.467-5.464,13.01-8.842,21.35-8.842s15.88,3.378,21.345,8.842
                c5.467,5.466,8.843,13.008,8.844,21.348c-0.001,8.339-3.377,15.879-8.844,21.346c-5.465,5.466-13.005,8.844-21.345,8.845V300.637
                v1.064c17.849-0.001,32.313-14.47,32.315-32.317c-0.002-17.848-14.467-32.316-32.315-32.318
                c-17.851,0.002-32.32,14.47-32.32,32.318c0,17.848,14.47,32.316,32.32,32.317V300.637L332.708,300.637z"/>
        </g>
    </g>
    <g id="EXTRAS">
        <rect x="129.667" y="54.189" fill="#CCCCCC" width="402.603" height="14.482"/>
        <rect x="66.532" y="127.078" fill="#CCCCCC" width="11.335" height="285.024"/>
        <g>
            <path fill="#58595B" d="M297.098,423.764l-2.596-7.5h-0.047c0.023,0.289,0.043,0.576,0.059,0.861
                c0.016,0.246,0.028,0.505,0.038,0.776s0.015,0.519,0.015,0.741v5.121h-1.008v-8.566h1.617l2.414,6.984h0.035l2.426-6.984h1.617
                v8.566h-1.09v-5.197c0-0.203,0.004-0.436,0.012-0.697s0.018-0.512,0.029-0.75c0.016-0.277,0.029-0.559,0.041-0.844h-0.047
                l-2.619,7.488H297.098z"/>
            <path fill="#58595B" d="M309.016,423.764l-0.938-2.654h-3.193l-0.949,2.654h-1.102l3.146-8.602h0.996l3.152,8.602H309.016z
                M307.732,420.143l-0.867-2.484c-0.023-0.07-0.052-0.156-0.085-0.258s-0.067-0.211-0.103-0.328s-0.07-0.239-0.105-0.366
                s-0.068-0.251-0.1-0.372c-0.027,0.121-0.059,0.246-0.094,0.375s-0.07,0.253-0.105,0.372s-0.069,0.229-0.103,0.328
                s-0.062,0.183-0.085,0.249l-0.85,2.484H307.732z"/>
            <path fill="#58595B" d="M313.715,423.764h-3.105v-0.598l1.008-0.24v-6.891l-1.008-0.24v-0.598h3.105v0.598l-1.008,0.24v6.891
                l1.008,0.24V423.764z"/>
            <path fill="#58595B" d="M321.777,423.764h-1.26l-4.212-7.09h-0.047c0.023,0.301,0.043,0.6,0.059,0.896
                c0.016,0.254,0.028,0.52,0.038,0.797s0.015,0.527,0.015,0.75v4.646h-1.008v-8.566h1.248l4.195,7.055h0.041
                c-0.012-0.297-0.025-0.59-0.041-0.879c-0.004-0.125-0.008-0.253-0.014-0.384s-0.012-0.262-0.018-0.393s-0.011-0.257-0.012-0.378
                c-0.003-0.121-0.004-0.232-0.004-0.334v-4.688h1.02V423.764z"/>
            <path fill="#58595B" d="M331.738,421.473c0,0.379-0.067,0.718-0.202,1.017s-0.327,0.552-0.577,0.759s-0.555,0.364-0.914,0.472
                s-0.764,0.161-1.213,0.161c-0.434,0-0.839-0.034-1.216-0.103s-0.692-0.169-0.946-0.302v-1.043
                c0.133,0.063,0.284,0.124,0.454,0.185s0.349,0.114,0.536,0.161s0.381,0.085,0.58,0.114s0.396,0.044,0.592,0.044
                c0.625,0,1.087-0.117,1.386-0.352s0.448-0.57,0.448-1.008c0-0.211-0.028-0.395-0.085-0.551s-0.156-0.3-0.299-0.431
                s-0.333-0.258-0.571-0.381s-0.539-0.257-0.902-0.401c-0.348-0.137-0.649-0.286-0.905-0.448s-0.467-0.345-0.633-0.548
                s-0.289-0.434-0.369-0.691s-0.12-0.551-0.12-0.879c0-0.344,0.063-0.65,0.188-0.92s0.301-0.497,0.527-0.683
                s0.497-0.327,0.812-0.425s0.661-0.146,1.04-0.146c0.465,0,0.883,0.044,1.254,0.132s0.701,0.2,0.99,0.337l-0.393,0.914
                c-0.254-0.113-0.542-0.212-0.864-0.296s-0.655-0.126-0.999-0.126c-0.477,0-0.846,0.11-1.107,0.331s-0.393,0.519-0.393,0.894
                c0,0.223,0.029,0.415,0.088,0.577s0.156,0.309,0.293,0.439s0.317,0.254,0.542,0.369s0.501,0.237,0.829,0.366
                c0.355,0.141,0.667,0.285,0.935,0.434s0.491,0.316,0.671,0.504s0.315,0.404,0.407,0.65S331.738,421.137,331.738,421.473z"/>
            <path fill="#58595B" d="M335.951,423.764h-1.096v-7.605h-2.449v-0.961h5.988v0.961h-2.443V423.764z"/>
            <path fill="#58595B" d="M343.978,423.764l-0.938-2.654h-3.193l-0.949,2.654h-1.102l3.146-8.602h0.996l3.152,8.602H343.978z
                M342.695,420.143l-0.867-2.484c-0.023-0.07-0.052-0.156-0.085-0.258s-0.067-0.211-0.103-0.328s-0.07-0.239-0.105-0.366
                s-0.068-0.251-0.1-0.372c-0.027,0.121-0.059,0.246-0.094,0.375s-0.07,0.253-0.105,0.372s-0.069,0.229-0.103,0.328
                s-0.062,0.183-0.085,0.249l-0.85,2.484H342.695z"/>
            <path fill="#58595B" d="M352.673,423.764h-1.26l-4.213-7.09h-0.047c0.023,0.301,0.043,0.6,0.059,0.896
                c0.016,0.254,0.028,0.52,0.038,0.797s0.015,0.527,0.015,0.75v4.646h-1.008v-8.566h1.248l4.195,7.055h0.041
                c-0.012-0.297-0.025-0.59-0.041-0.879c-0.004-0.125-0.009-0.253-0.015-0.384s-0.012-0.262-0.018-0.393s-0.01-0.257-0.012-0.378
                s-0.003-0.232-0.003-0.334v-4.688h1.02V423.764z"/>
            <path fill="#58595B" d="M361.316,419.399c0,0.723-0.094,1.356-0.281,1.901s-0.459,1-0.814,1.365s-0.792,0.64-1.31,0.823
                s-1.104,0.275-1.761,0.275h-2.145v-8.566h2.385c0.598,0,1.139,0.09,1.623,0.27s0.896,0.446,1.236,0.8s0.603,0.792,0.788,1.315
                S361.316,418.711,361.316,419.399z M360.162,419.434c0-0.57-0.064-1.063-0.193-1.479s-0.316-0.759-0.563-1.028
                s-0.549-0.47-0.908-0.601s-0.768-0.196-1.225-0.196h-1.178v6.697h0.949c1.031,0,1.809-0.285,2.332-0.855
                S360.162,420.555,360.162,419.434z"/>
        </g>
        <g>
            <path fill="#58595B" d="M267.762,129.493h2.338c0.5,0,0.94,0.038,1.321,0.114s0.699,0.199,0.955,0.369s0.448,0.393,0.577,0.668
                s0.193,0.614,0.193,1.017c0,0.242-0.038,0.469-0.114,0.68s-0.187,0.396-0.331,0.557s-0.323,0.294-0.536,0.401
                s-0.454,0.179-0.724,0.214v0.059c0.27,0.047,0.522,0.114,0.759,0.202s0.442,0.209,0.618,0.363s0.314,0.349,0.416,0.583
                s0.152,0.52,0.152,0.855c0,0.391-0.063,0.739-0.19,1.046s-0.311,0.566-0.551,0.779s-0.532,0.376-0.876,0.489
                s-0.732,0.17-1.166,0.17h-2.842V129.493z M268.852,133.125h1.43c0.328,0,0.604-0.029,0.826-0.088s0.402-0.146,0.539-0.261
                s0.235-0.26,0.296-0.434s0.091-0.376,0.091-0.606c0-0.469-0.15-0.805-0.451-1.008s-0.775-0.305-1.424-0.305h-1.307V133.125z
                M268.852,134.04v3.094h1.559c0.344,0,0.632-0.039,0.864-0.117s0.42-0.188,0.563-0.328s0.245-0.31,0.308-0.507
                s0.094-0.415,0.094-0.653c0-0.219-0.032-0.42-0.097-0.604s-0.17-0.341-0.316-0.472s-0.341-0.232-0.583-0.305
                s-0.543-0.108-0.902-0.108H268.852z"/>
            <path fill="#58595B" d="M276.305,134.52v3.539h-1.09v-8.566h2.086c1.039,0,1.807,0.201,2.303,0.604s0.744,1.012,0.744,1.828
                c0,0.34-0.048,0.637-0.144,0.891s-0.223,0.472-0.381,0.653s-0.339,0.333-0.542,0.454s-0.412,0.221-0.627,0.299l2.332,3.838h-1.283
                l-2.057-3.539H276.305z M276.305,133.594h0.961c0.352,0,0.65-0.034,0.896-0.103s0.448-0.17,0.606-0.305s0.273-0.303,0.346-0.504
                s0.108-0.437,0.108-0.706c0-0.281-0.04-0.52-0.12-0.715s-0.201-0.355-0.363-0.48s-0.367-0.216-0.615-0.272
                s-0.542-0.085-0.882-0.085h-0.938V133.594z"/>
            <path fill="#58595B" d="M284.713,138.059h-3.105v-0.598l1.008-0.24v-6.891l-1.008-0.24v-0.598h3.105v0.598l-1.008,0.24v6.891
                l1.008,0.24V138.059z"/>
            <path fill="#58595B" d="M291.375,138.059l-0.938-2.654h-3.193l-0.949,2.654h-1.102l3.146-8.602h0.996l3.152,8.602H291.375z
                M290.092,134.438l-0.867-2.484c-0.023-0.07-0.052-0.156-0.085-0.258s-0.067-0.211-0.103-0.328s-0.07-0.239-0.105-0.366
                s-0.068-0.251-0.1-0.372c-0.027,0.121-0.059,0.246-0.094,0.375s-0.07,0.253-0.105,0.372s-0.069,0.229-0.103,0.328
                s-0.062,0.183-0.085,0.249l-0.85,2.484H290.092z"/>
            <path fill="#58595B" d="M300.071,138.059h-1.26l-4.213-7.09h-0.047c0.023,0.301,0.043,0.6,0.059,0.896
                c0.016,0.254,0.028,0.52,0.038,0.797s0.015,0.527,0.015,0.75v4.646h-1.008v-8.566h1.248l4.195,7.055h0.041
                c-0.012-0.297-0.025-0.59-0.041-0.879c-0.004-0.125-0.009-0.253-0.015-0.384s-0.012-0.262-0.018-0.393s-0.01-0.257-0.012-0.378
                s-0.003-0.232-0.003-0.334v-4.688h1.02V138.059z"/>
            <path fill="#58595B" d="M309,130.331c-0.418,0-0.797,0.079-1.137,0.237s-0.63,0.386-0.87,0.683s-0.426,0.658-0.557,1.084
                s-0.196,0.906-0.196,1.441c0,0.551,0.058,1.04,0.173,1.468s0.288,0.788,0.519,1.081s0.518,0.516,0.861,0.668
                s0.746,0.229,1.207,0.229c0.348,0,0.678-0.034,0.99-0.103s0.621-0.147,0.926-0.237v0.949c-0.152,0.059-0.305,0.11-0.457,0.155
                s-0.312,0.081-0.478,0.108s-0.344,0.048-0.533,0.062s-0.399,0.021-0.63,0.021c-0.641,0-1.195-0.105-1.664-0.316
                s-0.856-0.51-1.163-0.896s-0.534-0.852-0.683-1.395s-0.223-1.145-0.223-1.805c0-0.648,0.085-1.242,0.255-1.781
                s0.42-1.002,0.75-1.389s0.739-0.688,1.228-0.902s1.049-0.322,1.682-0.322c0.422,0,0.824,0.043,1.207,0.129
                s0.729,0.211,1.037,0.375l-0.457,0.914c-0.246-0.125-0.514-0.232-0.803-0.322S309.368,130.331,309,130.331z"/>
            <path fill="#58595B" d="M312.756,138.059v-8.566h1.09v7.594h3.357v0.973H312.756z"/>
            <path fill="#58595B" d="M325.53,133.764c0,0.66-0.079,1.262-0.237,1.805s-0.394,1.008-0.706,1.395s-0.7,0.686-1.163,0.896
                s-0.997,0.316-1.603,0.316c-0.637,0-1.188-0.105-1.655-0.316s-0.854-0.51-1.16-0.896s-0.534-0.853-0.683-1.397
                s-0.223-1.149-0.223-1.813s0.074-1.267,0.223-1.808s0.377-1.003,0.686-1.386s0.697-0.679,1.166-0.888s1.021-0.313,1.658-0.313
                c0.605,0,1.138,0.104,1.597,0.313s0.845,0.506,1.157,0.891s0.548,0.848,0.706,1.389S325.53,133.096,325.53,133.764z
                M319.254,133.764c0,0.535,0.051,1.017,0.152,1.444s0.257,0.791,0.466,1.09s0.475,0.527,0.797,0.686s0.706,0.237,1.151,0.237
                s0.829-0.079,1.151-0.237s0.588-0.387,0.797-0.686s0.362-0.662,0.46-1.09s0.146-0.909,0.146-1.444
                c0-0.539-0.049-1.021-0.146-1.447s-0.25-0.786-0.457-1.081s-0.471-0.521-0.791-0.68s-0.703-0.237-1.148-0.237
                s-0.83,0.079-1.154,0.237s-0.592,0.385-0.803,0.68s-0.367,0.655-0.469,1.081S319.254,133.225,319.254,133.764z"/>
            <path fill="#58595B" d="M333.569,129.481v5.555c0,0.445-0.064,0.859-0.193,1.242s-0.323,0.715-0.583,0.996
                s-0.586,0.502-0.979,0.662s-0.854,0.24-1.386,0.24c-0.5,0-0.941-0.075-1.324-0.226s-0.704-0.364-0.964-0.642
                s-0.456-0.61-0.589-0.999s-0.199-0.821-0.199-1.298v-5.52h1.096v5.578c0,0.684,0.169,1.213,0.507,1.588s0.849,0.563,1.532,0.563
                c0.348,0,0.646-0.053,0.896-0.158s0.455-0.254,0.615-0.445s0.279-0.42,0.357-0.686s0.119-0.557,0.123-0.873v-5.578H333.569z"/>
            <path fill="#58595B" d="M339.235,133.536h2.836v4.201c-0.215,0.07-0.432,0.133-0.65,0.188s-0.443,0.101-0.674,0.138
                s-0.473,0.065-0.727,0.085s-0.527,0.029-0.82,0.029c-0.613,0-1.156-0.103-1.629-0.308s-0.871-0.498-1.195-0.879
                s-0.57-0.844-0.738-1.389s-0.252-1.157-0.252-1.837c0-0.672,0.093-1.279,0.278-1.822s0.456-1.005,0.812-1.386
                s0.794-0.674,1.315-0.879s1.116-0.308,1.784-0.308c0.434,0,0.85,0.043,1.248,0.129s0.77,0.211,1.113,0.375l-0.422,0.949
                c-0.141-0.066-0.292-0.129-0.454-0.188s-0.329-0.11-0.501-0.155s-0.349-0.081-0.53-0.108s-0.362-0.041-0.542-0.041
                c-0.477,0-0.898,0.079-1.266,0.237s-0.675,0.386-0.923,0.683s-0.437,0.658-0.565,1.084s-0.193,0.906-0.193,1.441
                c0,0.508,0.054,0.973,0.161,1.395s0.278,0.785,0.513,1.09s0.537,0.541,0.908,0.709s0.818,0.252,1.342,0.252
                c0.172,0,0.329-0.005,0.472-0.015s0.274-0.022,0.396-0.038s0.235-0.034,0.343-0.056s0.212-0.042,0.313-0.062v-2.555h-1.752
                V133.536z"/>
            <path fill="#58595B" d="M350.18,138.059h-1.09v-3.996h-3.902v3.996h-1.09v-8.566h1.09v3.609h3.902v-3.609h1.09V138.059z"/>
            <path fill="#58595B" d="M360.141,135.768c0,0.379-0.067,0.718-0.202,1.017s-0.327,0.552-0.577,0.759s-0.555,0.364-0.914,0.472
                s-0.764,0.161-1.213,0.161c-0.434,0-0.839-0.034-1.216-0.103s-0.692-0.169-0.946-0.302v-1.043
                c0.133,0.063,0.284,0.124,0.454,0.185s0.349,0.114,0.536,0.161s0.381,0.085,0.58,0.114s0.396,0.044,0.592,0.044
                c0.625,0,1.087-0.117,1.386-0.352s0.448-0.57,0.448-1.008c0-0.211-0.028-0.395-0.085-0.551s-0.156-0.3-0.299-0.431
                s-0.333-0.258-0.571-0.381s-0.539-0.257-0.902-0.401c-0.348-0.137-0.649-0.286-0.905-0.448s-0.467-0.345-0.633-0.548
                s-0.289-0.434-0.369-0.691s-0.12-0.551-0.12-0.879c0-0.344,0.063-0.65,0.188-0.92s0.301-0.497,0.527-0.683
                s0.497-0.327,0.812-0.425s0.661-0.146,1.04-0.146c0.465,0,0.883,0.044,1.254,0.132s0.701,0.2,0.99,0.337l-0.393,0.914
                c-0.254-0.113-0.542-0.212-0.864-0.296s-0.655-0.126-0.999-0.126c-0.477,0-0.846,0.11-1.107,0.331s-0.393,0.519-0.393,0.894
                c0,0.223,0.029,0.415,0.088,0.577s0.156,0.309,0.293,0.439s0.317,0.254,0.542,0.369s0.501,0.237,0.829,0.366
                c0.355,0.141,0.667,0.285,0.935,0.434s0.491,0.316,0.671,0.504s0.315,0.404,0.407,0.65S360.141,135.432,360.141,135.768z"/>
            <path fill="#58595B" d="M364.354,138.059h-1.096v-7.605h-2.449v-0.961h5.988v0.961h-2.443V138.059z"/>
            <path fill="#58595B" d="M372.381,138.059l-0.938-2.654h-3.193l-0.949,2.654H366.2l3.146-8.602h0.996l3.152,8.602H372.381z
                M371.098,134.438l-0.867-2.484c-0.023-0.07-0.052-0.156-0.085-0.258s-0.067-0.211-0.103-0.328s-0.07-0.239-0.105-0.366
                s-0.068-0.251-0.1-0.372c-0.027,0.121-0.059,0.246-0.094,0.375s-0.07,0.253-0.105,0.372s-0.069,0.229-0.103,0.328
                s-0.062,0.183-0.085,0.249l-0.85,2.484H371.098z"/>
            <path fill="#58595B" d="M381.077,138.059h-1.26l-4.213-7.09h-0.047c0.023,0.301,0.043,0.6,0.059,0.896
                c0.016,0.254,0.028,0.52,0.038,0.797s0.015,0.527,0.015,0.75v4.646h-1.008v-8.566h1.248l4.195,7.055h0.041
                c-0.012-0.297-0.025-0.59-0.041-0.879c-0.004-0.125-0.009-0.253-0.015-0.384s-0.012-0.262-0.018-0.393s-0.01-0.257-0.012-0.378
                s-0.003-0.232-0.003-0.334v-4.688h1.02V138.059z"/>
            <path fill="#58595B" d="M389.719,133.694c0,0.723-0.094,1.356-0.281,1.901s-0.459,1-0.814,1.365s-0.792,0.64-1.31,0.823
                s-1.104,0.275-1.761,0.275h-2.145v-8.566h2.385c0.598,0,1.139,0.09,1.623,0.27s0.896,0.446,1.236,0.8s0.603,0.792,0.788,1.315
                S389.719,133.006,389.719,133.694z M388.565,133.729c0-0.57-0.064-1.063-0.193-1.479s-0.316-0.759-0.563-1.028
                s-0.549-0.47-0.908-0.601s-0.768-0.196-1.225-0.196h-1.178v6.697h0.949c1.031,0,1.809-0.285,2.332-0.855
                S388.565,134.85,388.565,133.729z"/>
        </g>
        <g>
            <path fill="#58595B" d="M137.101,298.327v1.096h-7.605v2.449h-0.961v-5.988h0.961v2.443H137.101z"/>
            <path fill="#58595B" d="M133.562,293.504h3.539v1.09h-8.566v-2.086c0-1.039,0.201-1.807,0.604-2.303s1.012-0.744,1.828-0.744
                c0.34,0,0.637,0.048,0.891,0.144s0.472,0.223,0.653,0.381s0.333,0.339,0.454,0.542s0.221,0.412,0.299,0.627l3.838-2.332v1.283
                l-3.539,2.057V293.504z M132.636,293.504v-0.961c0-0.352-0.034-0.65-0.103-0.896s-0.17-0.448-0.305-0.606
                s-0.303-0.273-0.504-0.346s-0.437-0.108-0.706-0.108c-0.281,0-0.52,0.04-0.715,0.12s-0.355,0.201-0.48,0.363
                s-0.216,0.367-0.272,0.615s-0.085,0.542-0.085,0.882v0.938H132.636z"/>
            <path fill="#58595B" d="M137.101,283.069v4.447h-8.566v-4.447h0.961v3.357h2.648v-3.135h0.949v3.135h3.047v-3.357H137.101z"/>
            <path fill="#58595B" d="M137.101,274.766v1.26l-7.09,4.213v0.047c0.301-0.023,0.6-0.043,0.896-0.059
                c0.254-0.016,0.52-0.028,0.797-0.038s0.527-0.015,0.75-0.015h4.646v1.008h-8.566v-1.248l7.055-4.195v-0.041
                c-0.297,0.012-0.59,0.025-0.879,0.041c-0.125,0.004-0.253,0.009-0.384,0.015s-0.262,0.012-0.393,0.018s-0.257,0.01-0.378,0.012
                s-0.232,0.003-0.334,0.003h-4.688v-1.02H137.101z"/>
            <path fill="#58595B" d="M137.101,269.938v1.096h-7.605v2.449h-0.961v-5.988h0.961v2.443H137.101z"/>
            <path fill="#58595B" d="M137.101,258.641v4.447h-8.566v-4.447h0.961v3.357h2.648v-3.135h0.949v3.135h3.047v-3.357H137.101z"/>
            <path fill="#58595B" d="M137.101,250.338v1.26l-7.09,4.213v0.047c0.301-0.023,0.6-0.043,0.896-0.059
                c0.254-0.016,0.52-0.028,0.797-0.038s0.527-0.015,0.75-0.015h4.646v1.008h-8.566v-1.248l7.055-4.195v-0.041
                c-0.297,0.012-0.59,0.025-0.879,0.041c-0.125,0.004-0.253,0.009-0.384,0.015s-0.262,0.012-0.393,0.018s-0.257,0.01-0.378,0.012
                s-0.232,0.003-0.334,0.003h-4.688v-1.02H137.101z"/>
            <path fill="#58595B" d="M132.735,241.696c0.723,0,1.356,0.094,1.901,0.281s1,0.459,1.365,0.814s0.64,0.792,0.823,1.31
                s0.275,1.104,0.275,1.761v2.145h-8.566v-2.385c0-0.598,0.09-1.139,0.27-1.623s0.446-0.896,0.8-1.236s0.792-0.603,1.315-0.788
                S132.048,241.696,132.735,241.696z M132.771,242.85c-0.57,0-1.063,0.064-1.479,0.193s-0.759,0.316-1.028,0.563
                s-0.47,0.549-0.601,0.908s-0.196,0.768-0.196,1.225v1.178h6.697v-0.949c0-1.031-0.285-1.809-0.855-2.332
                S133.892,242.85,132.771,242.85z"/>
        </g>
        <g>
            <path fill="#58595B" d="M538.023,213.617v2.338c0,0.5-0.038,0.94-0.114,1.321s-0.199,0.699-0.369,0.955s-0.393,0.448-0.668,0.577
                s-0.614,0.193-1.017,0.193c-0.242,0-0.469-0.038-0.68-0.114s-0.396-0.187-0.557-0.331s-0.294-0.323-0.401-0.536
                s-0.179-0.454-0.214-0.724h-0.059c-0.047,0.27-0.114,0.522-0.202,0.759s-0.209,0.442-0.363,0.618s-0.349,0.314-0.583,0.416
                s-0.52,0.152-0.855,0.152c-0.391,0-0.739-0.063-1.046-0.19s-0.566-0.311-0.779-0.551s-0.376-0.532-0.489-0.876
                s-0.17-0.732-0.17-1.166v-2.842H538.023z M533.476,214.707h-3.094v1.559c0,0.344,0.039,0.632,0.117,0.864s0.188,0.42,0.328,0.563
                s0.31,0.245,0.507,0.308s0.415,0.094,0.653,0.094c0.219,0,0.42-0.032,0.604-0.097s0.341-0.17,0.472-0.316s0.232-0.341,0.305-0.583
                s0.108-0.543,0.108-0.902V214.707z M534.39,214.707v1.43c0,0.328,0.029,0.604,0.088,0.826s0.146,0.402,0.261,0.539
                s0.26,0.235,0.434,0.296s0.376,0.091,0.606,0.091c0.469,0,0.805-0.15,1.008-0.451s0.305-0.775,0.305-1.424v-1.307H534.39z"/>
            <path fill="#58595B" d="M532.996,222.16h-3.539v-1.09h8.566v2.086c0,1.039-0.201,1.807-0.604,2.303s-1.012,0.744-1.828,0.744
                c-0.34,0-0.637-0.048-0.891-0.144s-0.472-0.223-0.653-0.381s-0.333-0.339-0.454-0.542s-0.221-0.412-0.299-0.627l-3.838,2.332
                v-1.283l3.539-2.057V222.16z M533.921,222.16v0.961c0,0.352,0.034,0.65,0.103,0.896s0.17,0.448,0.305,0.606
                s0.303,0.273,0.504,0.346s0.437,0.108,0.706,0.108c0.281,0,0.52-0.04,0.715-0.12s0.355-0.201,0.48-0.363s0.216-0.367,0.272-0.615
                s0.085-0.542,0.085-0.882v-0.938H533.921z"/>
            <path fill="#58595B" d="M529.457,230.568v-3.105h0.598l0.24,1.008h6.891l0.24-1.008h0.598v3.105h-0.598l-0.24-1.008h-6.891
                l-0.24,1.008H529.457z"/>
            <path fill="#58595B" d="M533.822,238.525c-0.723,0-1.356-0.094-1.901-0.281s-1-0.459-1.365-0.814s-0.64-0.792-0.823-1.31
                s-0.275-1.104-0.275-1.761v-2.145h8.566v2.385c0,0.598-0.09,1.139-0.27,1.623s-0.446,0.896-0.8,1.236s-0.792,0.603-1.315,0.788
                S534.509,238.525,533.822,238.525z M533.787,237.371c0.57,0,1.063-0.064,1.479-0.193s0.759-0.316,1.028-0.563
                s0.47-0.549,0.601-0.908s0.196-0.768,0.196-1.225v-1.178h-6.697v0.949c0,1.031,0.285,1.809,0.855,2.332
                S532.666,237.371,533.787,237.371z"/>
            <path fill="#58595B" d="M533.98,243.839v2.836h-4.201c-0.07-0.215-0.133-0.432-0.188-0.65s-0.101-0.443-0.138-0.674
                s-0.065-0.473-0.085-0.727s-0.029-0.527-0.029-0.82c0-0.613,0.103-1.156,0.308-1.629s0.498-0.871,0.879-1.195
                s0.844-0.57,1.389-0.738s1.157-0.252,1.837-0.252c0.672,0,1.279,0.093,1.822,0.278s1.005,0.456,1.386,0.812
                s0.674,0.794,0.879,1.315s0.308,1.116,0.308,1.784c0,0.434-0.043,0.85-0.129,1.248s-0.211,0.77-0.375,1.113l-0.949-0.422
                c0.066-0.141,0.129-0.292,0.188-0.454s0.11-0.329,0.155-0.501s0.081-0.349,0.108-0.53s0.041-0.362,0.041-0.542
                c0-0.477-0.079-0.898-0.237-1.266s-0.386-0.675-0.683-0.923s-0.658-0.437-1.084-0.565s-0.906-0.193-1.441-0.193
                c-0.508,0-0.973,0.054-1.395,0.161s-0.785,0.278-1.09,0.513s-0.541,0.537-0.709,0.908s-0.252,0.818-0.252,1.342
                c0,0.172,0.005,0.329,0.015,0.472s0.022,0.274,0.038,0.396s0.034,0.235,0.056,0.343s0.042,0.212,0.062,0.313h2.555v-1.752H533.98z
                "/>
            <path fill="#58595B" d="M529.457,249.792v-1.09h8.566v4.447h-0.961v-3.357h-3.023v3.135h-0.961v-3.135H529.457z"/>
            <path fill="#58595B" d="M533.751,261.593c-0.66,0-1.262-0.079-1.805-0.237s-1.008-0.394-1.395-0.706s-0.686-0.7-0.896-1.163
                s-0.316-0.997-0.316-1.603c0-0.637,0.105-1.188,0.316-1.655s0.51-0.854,0.896-1.16s0.853-0.534,1.397-0.683
                s1.149-0.223,1.813-0.223s1.267,0.074,1.808,0.223s1.003,0.377,1.386,0.686s0.679,0.697,0.888,1.166s0.313,1.021,0.313,1.658
                c0,0.605-0.104,1.138-0.313,1.597s-0.506,0.845-0.891,1.157s-0.848,0.548-1.389,0.706S534.419,261.593,533.751,261.593z
                M533.751,255.318c-0.535,0-1.017,0.051-1.444,0.152s-0.791,0.257-1.09,0.466s-0.527,0.475-0.686,0.797s-0.237,0.706-0.237,1.151
                s0.079,0.829,0.237,1.151s0.387,0.588,0.686,0.797s0.662,0.362,1.09,0.46s0.909,0.146,1.444,0.146
                c0.539,0,1.021-0.049,1.447-0.146s0.786-0.25,1.081-0.457s0.521-0.471,0.68-0.791s0.237-0.703,0.237-1.148
                s-0.079-0.83-0.237-1.154s-0.385-0.592-0.68-0.803s-0.655-0.367-1.081-0.469S534.291,255.318,533.751,255.318z"/>
            <path fill="#58595B" d="M532.996,264.593h-3.539v-1.09h8.566v2.086c0,1.039-0.201,1.807-0.604,2.303s-1.012,0.744-1.828,0.744
                c-0.34,0-0.637-0.048-0.891-0.144s-0.472-0.223-0.653-0.381s-0.333-0.339-0.454-0.542s-0.221-0.412-0.299-0.627l-3.838,2.332
                v-1.283l3.539-2.057V264.593z M533.921,264.593v0.961c0,0.352,0.034,0.65,0.103,0.896s0.17,0.448,0.305,0.606
                s0.303,0.273,0.504,0.346s0.437,0.108,0.706,0.108c0.281,0,0.52-0.04,0.715-0.12s0.355-0.201,0.48-0.363s0.216-0.367,0.272-0.615
                s0.085-0.542,0.085-0.882v-0.938H533.921z"/>
            <path fill="#58595B" d="M533.822,276.892c-0.723,0-1.356-0.094-1.901-0.281s-1-0.459-1.365-0.814s-0.64-0.792-0.823-1.31
                s-0.275-1.104-0.275-1.761v-2.145h8.566v2.385c0,0.598-0.09,1.139-0.27,1.623s-0.446,0.896-0.8,1.236s-0.792,0.603-1.315,0.788
                S534.509,276.892,533.822,276.892z M533.787,275.738c0.57,0,1.063-0.064,1.479-0.193s0.759-0.316,1.028-0.563
                s0.47-0.549,0.601-0.908s0.196-0.768,0.196-1.225v-1.178h-6.697v0.949c0,1.031,0.285,1.809,0.855,2.332
                S532.666,275.738,533.787,275.738z"/>
            <path fill="#58595B" d="M531.748,286.419c-0.379,0-0.718-0.067-1.017-0.202s-0.552-0.327-0.759-0.577s-0.364-0.555-0.472-0.914
                s-0.161-0.764-0.161-1.213c0-0.434,0.034-0.839,0.103-1.216s0.169-0.692,0.302-0.946h1.043c-0.063,0.133-0.124,0.284-0.185,0.454
                s-0.114,0.349-0.161,0.536s-0.085,0.381-0.114,0.58s-0.044,0.396-0.044,0.592c0,0.625,0.117,1.087,0.352,1.386
                s0.57,0.448,1.008,0.448c0.211,0,0.395-0.028,0.551-0.085s0.3-0.156,0.431-0.299s0.258-0.333,0.381-0.571s0.257-0.539,0.401-0.902
                c0.137-0.348,0.286-0.649,0.448-0.905s0.345-0.467,0.548-0.633s0.434-0.289,0.691-0.369s0.551-0.12,0.879-0.12
                c0.344,0,0.65,0.063,0.92,0.188s0.497,0.301,0.683,0.527s0.327,0.497,0.425,0.812s0.146,0.661,0.146,1.04
                c0,0.465-0.044,0.883-0.132,1.254s-0.2,0.701-0.337,0.99l-0.914-0.393c0.113-0.254,0.212-0.542,0.296-0.864
                s0.126-0.655,0.126-0.999c0-0.477-0.11-0.846-0.331-1.107s-0.519-0.393-0.894-0.393c-0.223,0-0.415,0.029-0.577,0.088
                s-0.309,0.156-0.439,0.293s-0.254,0.317-0.369,0.542s-0.237,0.501-0.366,0.829c-0.141,0.355-0.285,0.667-0.434,0.935
                s-0.316,0.491-0.504,0.671s-0.404,0.315-0.65,0.407S532.083,286.419,531.748,286.419z"/>
            <path fill="#58595B" d="M529.457,290.632v-1.096h7.605v-2.449h0.961v5.988h-0.961v-2.443H529.457z"/>
            <path fill="#58595B" d="M529.457,298.66l2.654-0.938v-3.193l-2.654-0.949v-1.102l8.602,3.146v0.996l-8.602,3.152V298.66z
                M533.078,297.376l2.484-0.867c0.07-0.023,0.156-0.052,0.258-0.085s0.211-0.067,0.328-0.103s0.239-0.07,0.366-0.105
                s0.251-0.068,0.372-0.1c-0.121-0.027-0.246-0.059-0.375-0.094s-0.253-0.07-0.372-0.105s-0.229-0.069-0.328-0.103
                s-0.183-0.062-0.249-0.085l-2.484-0.85V297.376z"/>
            <path fill="#58595B" d="M529.457,307.355v-1.26l7.09-4.213v-0.047c-0.301,0.023-0.6,0.043-0.896,0.059
                c-0.254,0.016-0.52,0.028-0.797,0.038s-0.527,0.015-0.75,0.015h-4.646v-1.008h8.566v1.248l-7.055,4.195v0.041
                c0.297-0.012,0.59-0.025,0.879-0.041c0.125-0.004,0.253-0.009,0.384-0.015s0.262-0.012,0.393-0.018s0.257-0.01,0.378-0.012
                s0.232-0.003,0.334-0.003h4.688v1.02H529.457z"/>
            <path fill="#58595B" d="M533.822,315.998c-0.723,0-1.356-0.094-1.901-0.281s-1-0.459-1.365-0.814s-0.64-0.792-0.823-1.31
                s-0.275-1.104-0.275-1.761v-2.145h8.566v2.385c0,0.598-0.09,1.139-0.27,1.623s-0.446,0.896-0.8,1.236s-0.792,0.603-1.315,0.788
                S534.509,315.998,533.822,315.998z M533.787,314.843c0.57,0,1.063-0.064,1.479-0.193s0.759-0.316,1.028-0.563
                s0.47-0.549,0.601-0.908s0.196-0.768,0.196-1.225v-1.178h-6.697v0.949c0,1.031,0.285,1.809,0.855,2.332
                S532.666,314.843,533.787,314.843z"/>
        </g>
        <polygon fill="#CCCCCC" points="327.144,492.281 327.144,482.59 310.009,482.59 310.009,470.543 393.682,470.543 
        394.019,482.59 365.883,482.59 365.883,492.281   "/>
    </g>
    <g id="LABELS">
        <text fid="BFW-WC" transform="matrix(1 0 0 1 583.7231 112.5293)" fill="#FFFFFF" font-family="'Arial'" font-size="7">WC</text>
        <text fid="BCU-G" transform="matrix(1 0 0 1 148.4131 29.9775)" fill="#FFFFFF" font-family="'Arial'" font-size="12">G</text>
        <text fid="BCU-H" transform="matrix(1 0 0 1 199.5723 29.9775)" fill="#FFFFFF" font-family="'Arial'" font-size="12">H</text>
        <text fid="BCU-J" transform="matrix(1 0 0 1 251.7305 29.9775)" fill="#FFFFFF" font-family="'Arial'" font-size="12">J</text>
        <text fid="BCU-K" transform="matrix(1 0 0 1 301.5542 29.9775)" fill="#FFFFFF" font-family="'Arial'" font-size="12">K</text>
        <text fid="BCU-L" transform="matrix(1 0 0 1 353.0386 29.9775)" fill="#FFFFFF" font-family="'Arial'" font-size="12">L</text>
        <text fid="BCU-M" transform="matrix(1 0 0 1 402.2095 29.9775)" fill="#FFFFFF" font-family="'Arial'" font-size="12">M</text>
        <text fid="BCU-N" transform="matrix(1 0 0 1 453.6997 29.9775)" fill="#FFFFFF" font-family="'Arial'" font-size="12">N</text>
        <text fid="BCU-P" transform="matrix(1 0 0 1 504.856 29.9775)" fill="#FFFFFF" font-family="'Arial'" font-size="12">P</text>
        <text fid="BCL-Q" transform="matrix(1 0 0 1 173.8257 101.4941)" fill="#FFFFFF" font-family="'Arial'" font-size="12">Q</text>
        <text fid="BCL-R" transform="matrix(1 0 0 1 275.8101 99.2852)" fill="#FFFFFF" font-family="'Arial'" font-size="12">R</text>
        <text fid="BCL-S" transform="matrix(1 0 0 1 377.7915 99.2852)" fill="#FFFFFF" font-family="'Arial'" font-size="12">S</text>
        <text fid="BCL-T" transform="matrix(1 0 0 1 479.7798 99.2852)" fill="#FFFFFF" font-family="'Arial'" font-size="12">T</text>
        <text fid="BFU-U1" transform="matrix(1 0 0 1 561.4224 63.4521)" fill="#FFFFFF" font-family="'Arial'" font-size="12">U1</text>
        <text fid="BFU-U2" transform="matrix(1 0 0 1 606.9399 113.8633)" fill="#FFFFFF" font-family="'Arial'" font-size="12">U2</text>
        <text fid="BFU-V1" transform="matrix(1 0 0 1 607.6021 212.4565)" fill="#FFFFFF" font-family="'Arial'" font-size="12">V1</text>
        <text fid="BFU-V2" transform="matrix(1 0 0 1 607.6021 288.4771)" fill="#FFFFFF" font-family="'Arial'" font-size="12">V2</text>
        <text fid="BFL-W1" transform="matrix(1 0 0 1 551.5571 113.8633)" fill="#FFFFFF" font-family="'Arial'" font-size="12">W1</text>
        <text fid="BFL-W2" transform="matrix(1 0 0 1 561.4692 150.7637)" fill="#FFFFFF" font-family="'Arial'" font-size="12">W2</text>
        <text fid="BFL-X1" transform="matrix(1 0 0 1 563.1304 192.5933)" fill="#FFFFFF" font-family="'Arial'" font-size="12">X1</text>
        <text fid="BFL-X2" transform="matrix(1 0 0 1 563.1304 245.6924)" fill="#FFFFFF" font-family="'Arial'" font-size="12">X2</text>
        <text fid="BFL-Y1" transform="matrix(1 0 0 1 563.1304 295.1626)" fill="#FFFFFF" font-family="'Arial'" font-size="12">Y1</text>
        <text fid="BFL-Y2" transform="matrix(1 0 0 1 563.1304 345.2056)" fill="#FFFFFF" font-family="'Arial'" font-size="12">Y2</text>
        <text fid="BFL-Z1" transform="matrix(1 0 0 1 563.4673 387.7974)" fill="#FFFFFF" font-family="'Arial'" font-size="12">Z1</text>
        <text fid="BFL-Z2" transform="matrix(1 0 0 1 563.4673 428.1958)" fill="#FFFFFF" font-family="'Arial'" font-size="12">Z2</text>
        <text fid="MST-A2" transform="matrix(1 0 0 1 495.3081 442.7427)" fill="#FFFFFF" font-family="'Arial'" font-size="12">A2</text>
        <text fid="MST-A1" transform="matrix(1 0 0 1 457.1069 447.4204)" fill="#FFFFFF" font-family="'Arial'" font-size="12">A1</text>
        <text fid="MST-B2" transform="matrix(1 0 0 1 422.1763 451.7114)" fill="#FFFFFF" font-family="'Arial'" font-size="12">B2</text>
        <text fid="MST-B1" transform="matrix(1 0 0 1 398.2114 454.2925)" fill="#FFFFFF" font-family="'Arial'" font-size="9">B1</text>
        <text fid="MST-C2" transform="matrix(1 0 0 1 368.106 455.8208)" fill="#FFFFFF" font-family="'Arial'" font-size="12">C2</text>
        <text fid="MST-C1" transform="matrix(1 0 0 1 332.8931 455.8208)" fill="#FFFFFF" font-family="'Arial'" font-size="12">C1</text>
        <text fid="MST-D2" transform="matrix(1 0 0 1 304.8438 455.8208)" fill="#FFFFFF" font-family="'Arial'" font-size="12">D2</text>
        <text fid="MST-D1" transform="matrix(1 0 0 1 281.2368 455.8208)" fill="#FFFFFF" font-family="'Arial'" font-size="12">D1</text>
        <text fid="MST-RR3" transform="matrix(1 0 0 1 242.1367 453.8052)" fill="#FFFFFF" font-family="'Arial'" font-size="12">RR3</text>
        <text fid="MST-RR2" transform="matrix(1 0 0 1 216.5313 450.063)" fill="#FFFFFF" font-family="'Arial'" font-size="9">RR2</text>
        <text fid="MST-RR1" transform="matrix(1 0 0 1 178.5151 446.7739)" fill="#FFFFFF" font-family="'Arial'" font-size="12">RR1</text>
        <text fid="MST-F1" transform="matrix(1 0 0 1 140.8198 442.0103)" fill="#FFFFFF" font-family="'Arial'" font-size="12">F1</text>
        <text fid="MST-A4" transform="matrix(1 0 0 1 500.8169 484.9653)" fill="#FFFFFF" font-family="'Arial'" font-size="12">A4</text>
        <text fid="MST-A3" transform="matrix(1 0 0 1 464.6978 489.188)" fill="#FFFFFF" font-family="'Arial'" font-size="12">A3</text>
        <text fid="MST-B4" transform="matrix(1 0 0 1 428.5825 493.3403)" fill="#FFFFFF" font-family="'Arial'" font-size="12">B4</text>
        <text fid="MST-B3" transform="matrix(1 0 0 1 399.1802 496.4243)" fill="#FFFFFF" font-family="'Arial'" font-size="10">B3</text>
        <text fid="MST-C4" transform="matrix(1 0 0 1 368.8403 510.8813)" fill="#FFFFFF" font-family="'Arial'" font-size="12">C4</text>
        <text fid="MST-C3" transform="matrix(1 0 0 1 332.8931 510.8813)" fill="#FFFFFF" font-family="'Arial'" font-size="12">C3</text>
        <text fid="MST-D4" transform="matrix(1 0 0 1 298.0239 510.8813)" fill="#FFFFFF" font-family="'Arial'" font-size="12">D4</text>
        <text fid="MST-D3" transform="matrix(1 0 0 1 265.0259 497.6001)" fill="#FFFFFF" font-family="'Arial'" font-size="12">D3</text>
        <text fid="MST-E2" transform="matrix(1 0 0 1 240.5464 496.1792)" fill="#FFFFFF" font-family="'Arial'" font-size="12">E2</text>
        <text fid="MST-E1" transform="matrix(1 0 0 1 208.9858 492.7114)" fill="#FFFFFF" font-family="'Arial'" font-size="12">E1</text>
        <text fid="MST-F3" transform="matrix(1 0 0 1 173.147 488.7632)" fill="#FFFFFF" font-family="'Arial'" font-size="12">F3</text>
        <text fid="MST-F2" transform="matrix(1 0 0 1 135.2734 484.6138)" fill="#FFFFFF" font-family="'Arial'" font-size="12">F2</text>
        <text fid="MST-PB" transform="matrix(1 0 0 1 375.9927 476.9673)" fill="#FFFFFF" font-family="'Arial'" font-size="9">PB</text>
        <text fid="MST-LG" transform="matrix(1 0 0 1 340.5103 476.9673)" fill="#FFFFFF" font-family="'Arial'" font-size="9">LG</text>
        <text fid="MST-DB" transform="matrix(1 0 0 1 310.3247 476.9673)" fill="#FFFFFF" font-family="'Arial'" font-size="9">DB</text>
        <text fid="TEU-T1" transform="matrix(1 0 0 1 25.7642 383.2271)" fill="#FFFFFF" font-family="'Arial'" font-size="12">T1</text>
        <text fid="TEU-T2" transform="matrix(1 0 0 1 25.7642 323.4937)" fill="#FFFFFF" font-family="'Arial'" font-size="12">T2</text>
        <text fid="TEU-T3" transform="matrix(1 0 0 1 25.7642 272.6685)" fill="#FFFFFF" font-family="'Arial'" font-size="12">T3</text>
        <text fid="TEU-T4" transform="matrix(1 0 0 1 25.7642 221.8433)" fill="#FFFFFF" font-family="'Arial'" font-size="12">T4</text>
        <text fid="TEU-T5" transform="matrix(1 0 0 1 25.7642 162.354)" fill="#FFFFFF" font-family="'Arial'" font-size="12">T5</text>
        <text fid="TEL-T6" transform="matrix(1 0 0 1 93.6582 383.2271)" fill="#FFFFFF" font-family="'Arial'" font-size="12">T6</text>
        <text fid="TEL-T7" transform="matrix(1 0 0 1 93.6582 323.4937)" fill="#FFFFFF" font-family="'Arial'" font-size="12">T7</text>
        <text fid="TEL-T8" transform="matrix(1 0 0 1 93.6582 272.6685)" fill="#FFFFFF" font-family="'Arial'" font-size="12">T8</text>
        <text fid="TEL-T9" transform="matrix(1 0 0 1 93.6582 221.8433)" fill="#FFFFFF" font-family="'Arial'" font-size="12">T9</text>
        <text fid="TEL-T10" transform="matrix(1 0 0 1 90.3213 162.354)" fill="#FFFFFF" font-family="'Arial'" font-size="12">T10</text>
    </g>
</svg>