<svg>
<g>
	<g>
		<polyline fill="#DBDBDA" points="617.191,126.915 453.79,56.134 385.316,91.445 322.008,61.03 14.794,204.889 75.148,251.393 
			1,289.629 162.438,429.556 239.668,378.158 331.295,448.76 639,213.323 550.93,171.012 617.191,126.915 		"/>
	</g>
	<polyline fill="#CCCBCB" points="376.67,92.894 321.879,66.347 28.489,204.891 80.889,244.723 376.67,92.894 	"/>
	<polyline fill="#CCCBCB" points="226.924,375.537 76.115,258.441 16.202,289.627 164.745,416.432 226.924,375.537 	"/>
	<polyline fill="#CCCBCB" points="604.938,126.911 454.773,61.363 394.179,92.9 546.125,165.593 604.938,126.911 	"/>
	<polyline fill="#CCCBCB" points="625.219,213.323 549.235,176.506 423.852,260.445 461.885,282.766 451.099,290.419 413.014,267.7 
		252.488,375.166 331.375,435.135 625.219,213.323 	"/>
	<polygon id="EAS-AA" fill="#E43D74" stroke-width="0" points="119.36,214.661 67.449,177.527 29.851,195.297 81.161,234.249 119.36,214.661 	"/>
	<polygon id="EAS-AB" fill="#E43D74" stroke-width="0" points="156.912,195.401 104.501,160.017 68.253,177.147 120.175,214.242 156.912,195.401 
			"/>
	<polyline fill="#FFFFFF" points="120.175,214.242 68.253,177.147 67.449,177.527 119.36,214.661 120.175,214.242 	"/>
	<polygon id="EAS-AE" fill="#E43D74" stroke-width="0" points="259.275,142.905 205.926,112.082 174.329,127.015 221.48,155.602 227.455,159.225 
		259.275,142.905 	"/>
	<polygon id="EAS-AH" fill="#E43D74" stroke-width="0" points="348.523,97.135 294.878,70.041 267.087,83.175 314.678,108.24 320.692,111.407 
		348.523,97.135 	"/>
	<polygon id="EAS-AJ" fill="#E43D74" stroke-width="0" points="375.5,83.299 321.863,57.288 295.468,69.762 349.114,96.831 375.5,83.299 	"/>
	<polyline fill="#FFFFFF" points="349.114,96.831 295.468,69.762 294.878,70.041 348.523,97.135 349.114,96.831 	"/>
	<polygon id="EAS-AC" fill="#E43D74" stroke-width="0" points="186.717,173.267 139.852,143.31 105.267,159.654 151.781,191.02 186.717,173.267 	
		"/>
	<polyline fill="#FFFFFF" points="186.717,173.267 139.852,143.31 186.717,173.267 151.781,191.02 105.267,159.654 104.501,160.017 
		151.59,191.809 151.007,191.414 186.717,173.267 	"/>
	<polygon id="EAS-AD" fill="#E43D74" stroke-width="0" points="220.775,155.959 173.629,127.345 140.583,142.963 187.456,172.892 
		220.775,155.959 	"/>
	<polyline fill="#FFFFFF" points="221.48,155.602 174.329,127.015 173.629,127.345 220.775,155.959 187.456,172.892 
		140.583,142.963 139.852,143.31 186.717,173.267 187.456,172.892 221.48,155.602 	"/>
	<polygon id="EAS-AF" fill="#E43D74" stroke-width="0" points="284.345,123.654 236.846,97.468 206.601,111.762 253.959,139.097 284.345,123.654 
			"/>
	<polyline fill="#FFFFFF" points="284.345,123.654 236.846,97.468 284.345,123.654 253.959,139.097 206.601,111.762 
		205.926,112.082 253.872,139.784 253.28,139.441 284.345,123.654 	"/>
	<polygon id="EAS-AG" fill="#E43D74" stroke-width="0" points="314.056,108.557 266.467,83.469 237.488,97.165 284.99,123.327 314.056,108.557 	
		"/>
	<polyline fill="#FFFFFF" points="314.678,108.24 267.087,83.175 266.467,83.469 314.056,108.557 284.99,123.327 237.488,97.165 
		236.846,97.468 284.345,123.654 284.99,123.327 314.678,108.24 	"/>
	<polyline fill="#EAEAEA" points="192.662,177.067 187.306,173.643 152.366,191.414 157.69,195.004 192.662,177.067 	"/>
	<polyline fill="#FFFFFF" points="187.456,172.892 186.717,173.267 151.007,191.414 151.59,191.809 156.912,195.401 157.69,195.004 
		152.366,191.414 187.306,173.643 192.662,177.067 186.717,173.267 187.456,172.892 	"/>
	<polyline fill="#EAEAEA" points="226.749,159.586 221.366,156.318 188.045,173.267 193.403,176.688 226.749,159.586 	"/>
	<polyline fill="#FFFFFF" points="227.455,159.225 221.48,155.602 187.456,172.892 186.717,173.267 192.662,177.067 
		193.403,176.688 188.045,173.267 221.366,156.318 226.749,159.586 227.455,159.225 	"/>
	<polyline fill="#EAEAEA" points="290.353,126.967 284.94,123.982 254.552,139.438 259.953,142.557 290.353,126.967 	"/>
	<polyline fill="#FFFFFF" points="284.99,123.327 284.345,123.654 253.28,139.441 253.872,139.784 259.275,142.905 259.953,142.557 
		254.552,139.438 284.94,123.982 290.353,126.967 284.345,123.654 284.99,123.327 	"/>
	<polyline fill="#EAEAEA" points="320.071,111.726 314.652,108.869 285.583,123.654 290.997,126.637 320.071,111.726 	"/>
	<polyline fill="#FFFFFF" points="320.692,111.407 314.678,108.24 284.99,123.327 284.345,123.654 290.353,126.967 290.997,126.637 
		285.583,123.654 314.652,108.869 320.071,111.726 320.692,111.407 	"/>
	<polygon id="LEX-FB" fill="#E43D74" stroke-width="0" points="598.06,223.164 523.108,185.31 495.783,203.623 503.589,207.734 571.254,243.371 
		598.06,223.164 	"/>
	<polygon id="LEX-FA" fill="#E43D74" stroke-width="0" points="623.839,203.729 549.448,167.654 523.686,184.922 598.625,222.737 
		623.839,203.729 	"/>
	<polyline fill="#FFFFFF" points="598.625,222.737 523.686,184.922 523.108,185.31 598.06,223.164 598.625,222.737 	"/>
	<polygon id="LEX-FG" fill="#E43D74" stroke-width="0" points="445.133,338.45 376.024,294.275 340.572,318.326 409.854,365.044 445.133,338.45 	
		"/>
	<polygon id="LEX-FF" fill="#E43D74" stroke-width="0" points="479.171,312.79 410.324,271.004 376.772,293.768 445.873,337.891 479.171,312.79 	
		"/>
	<polyline fill="#FFFFFF" points="445.873,337.891 376.772,293.768 376.024,294.275 445.133,338.45 445.873,337.891 	"/>
	<polygon id="LEX-FD" fill="#E43D74" stroke-width="0" points="541.788,265.585 473.67,228.03 443.5,248.498 512.004,288.038 541.788,265.585 	
		"/>
	<polygon id="LEX-FC" fill="#E43D74" stroke-width="0" points="570.653,243.825 502.978,208.149 474.308,227.598 542.416,265.109 
		570.653,243.825 	"/>
	<path fill="#FFFFFF" d="M542.416,265.109l-68.108-37.512l-0.638,0.433l68.118,37.555L542.416,265.109 M571.254,243.371
		l-67.665-35.637l-0.611,0.415l67.675,35.676L571.254,243.371"/>
	<polyline fill="#EAEAEA" points="375.233,293.768 368.098,289.209 332.639,312.975 339.78,317.791 375.233,293.768 	"/>
	<polyline fill="#FFFFFF" points="376.024,294.275 368.098,289.209 375.233,293.768 339.78,317.791 340.572,318.326 
		376.024,294.275 	"/>
	<polygon id="LEX-FJ" fill="#E43D74" stroke-width="0" points="370.771,394.507 301.411,344.893 262.068,371.583 331.379,424.203 
		370.771,394.507 	"/>
	<polygon id="LEX-FH" fill="#E43D74" stroke-width="0" points="409.067,365.639 339.781,318.861 302.248,344.324 371.608,393.877 
		409.067,365.639 	"/>
	<path fill="#FFFFFF" d="M371.608,393.877l-69.357-49.553l-0.838,0.568l69.358,49.613L371.608,393.877 M409.854,365.044
		l-69.282-46.718l-0.789,0.536l69.284,46.774L409.854,365.044"/>
	<polyline fill="#EAEAEA" points="300.619,344.324 293.485,339.221 254.157,365.58 261.277,370.982 300.619,344.324 	"/>
	<polyline fill="#FFFFFF" points="301.411,344.893 293.485,339.221 300.619,344.324 261.277,370.982 262.068,371.583 
		301.411,344.893 	"/>
	<polyline fill="#EAEAEA" points="338.99,318.326 331.848,313.505 294.32,338.658 301.456,343.759 338.99,318.326 	"/>
	<polyline fill="#FFFFFF" points="340.572,318.326 339.78,317.791 332.639,312.975 331.848,313.505 338.99,318.326 301.456,343.759 
		294.32,338.658 293.485,339.221 301.411,344.893 302.248,344.324 339.781,318.861 340.572,318.326 	"/>
	<polyline fill="#EAEAEA" points="409.534,270.525 402.416,266.205 368.846,288.707 375.979,293.262 409.534,270.525 	"/>
	<polyline fill="#FFFFFF" points="410.324,271.004 402.416,266.205 409.534,270.525 375.979,293.262 368.846,288.707 
		368.098,289.209 376.024,294.275 376.772,293.768 410.324,271.004 	"/>
	<polyline fill="#EAEAEA" points="472.887,227.598 465.823,223.704 435.619,243.949 442.713,248.043 472.887,227.598 	"/>
	<polyline fill="#FFFFFF" points="473.67,228.03 465.823,223.704 472.887,227.598 442.713,248.043 443.5,248.498 473.67,228.03 	"/>
	<polyline fill="#EAEAEA" points="502.198,207.738 495.172,204.034 466.462,223.277 473.525,227.167 502.198,207.738 	"/>
	<polyline fill="#FFFFFF" points="503.589,207.734 495.783,203.623 495.172,204.034 502.198,207.738 473.525,227.167 
		466.462,223.277 465.823,223.704 473.67,228.03 474.308,227.598 502.978,208.149 503.589,207.734 	"/>
	<polygon id="LEX-FE" fill="#E43D74" stroke-width="0" points="511.335,288.542 434.944,244.404 425.317,250.855 463.383,273.174 
		451.225,281.813 413.102,259.044 403.125,265.73 479.87,312.261 511.335,288.542 	"/>
	<path fill="#FFFFFF" d="M479.87,312.261l-76.745-46.53l-0.709,0.476l7.908,4.799l68.847,41.786L479.87,312.261 M512.004,288.038
		l-68.504-39.54l-0.787-0.455l-7.094-4.094l-0.677,0.455l76.393,44.138L512.004,288.038"/>
	<polygon id="SOU-BA" fill="#E43D74" stroke-width="0" points="476.985,61.958 454.866,52.296 395.341,83.307 417.617,93.956 476.985,61.958 	"/>
	<polygon id="SOU-BB" fill="#E43D74" stroke-width="0" points="500.758,72.343 477.609,62.23 418.245,94.256 441.601,105.42 500.758,72.343 	"/>
	<polyline fill="#FFFFFF" points="477.609,62.23 476.985,61.958 417.617,93.956 418.245,94.256 477.609,62.23 	"/>
	<polygon id="SOU-BC" fill="#E43D74" stroke-width="0" points="525.308,83.067 501.402,72.624 442.251,105.73 466.407,117.278 525.308,83.067 	
		"/>
	<polyline fill="#FFFFFF" points="501.402,72.624 500.758,72.343 441.601,105.42 442.251,105.73 501.402,72.624 	"/>
	<polygon id="SOU-BD" fill="#E43D74" stroke-width="0" points="550.686,94.153 525.973,83.357 467.081,117.6 492.099,129.558 550.686,94.153 	"/>
	<polyline fill="#FFFFFF" points="525.973,83.357 525.308,83.067 466.407,117.278 467.081,117.6 525.973,83.357 	"/>
	<polygon id="SOU-BE" fill="#E43D74" stroke-width="0" points="576.929,105.618 551.373,94.454 492.795,129.891 518.71,142.278 576.929,105.618 	
		"/>
	<polyline fill="#FFFFFF" points="551.373,94.454 550.686,94.153 492.099,129.558 492.795,129.891 551.373,94.454 	"/>
	<polygon id="SOU-BF" fill="#E43D74" stroke-width="0" points="603.71,117.317 577.64,105.929 519.433,142.623 545.918,155.284 603.71,117.317 	
		"/>
	<polyline fill="#FFFFFF" points="577.64,105.929 576.929,105.618 518.71,142.278 519.433,142.623 577.64,105.929 	"/>
	<polygon id="NOR-GD" fill="#E43D74" stroke-width="0" points="108.996,275.557 75.82,249.764 17.714,280.033 50.275,307.787 108.996,275.557 	
		"/>
	<polygon id="NOR-GC" fill="#E43D74" stroke-width="0" points="145.304,303.786 109.619,276.042 50.889,308.311 85.996,338.234 145.304,303.786 	
		"/>
	<polyline fill="#FFFFFF" points="109.619,276.042 108.996,275.557 50.275,307.787 50.889,308.311 109.619,276.042 	"/>
	<polygon id="NOR-GB" fill="#E43D74" stroke-width="0" points="184.094,333.945 145.97,304.307 86.653,338.795 124.257,370.85 184.094,333.945 	
		"/>
	<polyline fill="#FFFFFF" points="145.97,304.307 145.304,303.786 85.996,338.234 86.653,338.795 145.97,304.307 	"/>
	<polygon id="NOR-GA" fill="#E43D74" stroke-width="0" points="225.25,365.945 184.807,334.5 124.962,371.448 164.967,405.549 225.25,365.945 	
		"/>
	<polyline fill="#FFFFFF" points="184.807,334.5 184.094,333.945 124.257,370.85 124.962,371.448 184.807,334.5 	"/>
	<path fill="#FFFFFF" d="M295.468,69.762l26.395-12.474L375.5,83.299l-26.388,13.532l-0.591,0.304l-27.831,14.272l-0.621,0.318
		l-29.072,14.911l-0.646,0.33l-30.398,15.59l-0.68,0.349l-31.818,16.319l-0.706,0.361l-33.348,17.102l-0.739,0.38l-34.974,17.937
		l-0.776,0.397l-36.737,18.841l-0.815,0.419l-38.197,19.588l-51.312-38.952l37.6-17.77l0.804-0.38l36.248-17.131l0.766-0.362
		l34.585-16.345l0.731-0.347l33.046-15.618l0.7-0.33l31.597-14.933l0.675-0.32l30.245-14.294l0.643-0.303l28.979-13.696l0.62-0.294
		l27.791-13.134L295.468,69.762 M377.831,83.3l-55.947-27.085L27.111,195.294l53.493,40.719L377.831,83.3"/>
	<path fill="#FFFFFF" d="M184.807,334.5l40.443,31.445l-60.283,39.604l-40.005-34.101l-0.705-0.601l-37.604-32.054l-0.655-0.562
		l-35.108-29.922l-0.614-0.522l-32.561-27.754l58.104-30.271l33.178,25.793l0.623,0.485l35.685,27.744l0.666,0.521l38.124,29.641
		L184.807,334.5 M228.586,365.943L76.399,247.939l-61.721,32.094l149.834,128.103L228.586,365.943"/>
	<path fill="#FFFFFF" d="M577.64,105.929l26.07,11.389l-57.792,37.967l-26.485-12.661l-0.723-0.345l-25.915-12.388l-0.696-0.333
		L467.081,117.6l-0.674-0.321l-24.157-11.548l-0.649-0.311l-23.354-11.164l-0.628-0.3l-22.276-10.649l59.525-31.011l22.117,9.662
		l0.624,0.272l23.149,10.112l0.644,0.281l23.906,10.443l0.665,0.29l24.713,10.796l0.688,0.301l25.556,11.164L577.64,105.929
		 M606.161,117.314L454.675,51.24l-61.666,32.065l153.317,73.41L606.161,117.314"/>
	<path fill="#FFFFFF" d="M523.686,184.922l25.762-17.268l74.393,36.075l-25.215,19.008l-0.564,0.427l-26.806,20.207l-0.603,0.454
		l-28.236,21.284l-0.627,0.476l-29.784,22.453l-0.669,0.504l-31.465,23.719l-0.699,0.529l-33.297,25.101l-0.741,0.561
		l-35.279,26.594l-0.787,0.594l-37.459,28.239l-0.837,0.63l-39.392,29.696l-69.313-52.62l-0.791-0.6l-7.118-5.403l39.326-26.358
		l0.835-0.563l37.528-25.153l0.791-0.529l35.459-23.767l0.748-0.502l33.57-22.502l0.709-0.476l9.977-6.687l38.123,22.769
		l12.158-8.639l-38.066-22.318l9.627-6.451l0.677-0.454l30.204-20.245l0.639-0.427l28.71-19.243l0.611-0.411l27.323-18.313
		L523.686,184.922 M626.593,203.729l-77.572-37.554l-126.636,84.677l37.995,22.321l-9.416,6.672l-38.038-22.668l-162.11,108.398
		l80.548,61.313L626.593,203.729"/>
</g>
<g id="STADIUM">
	<path fill="#00A54D" d="M294.072,311.523L159.5,220.729l-23.457,12.387l134.217,93.795L294.072,311.523 M298.698,308.535
		l-134.638-90.218l-3.765,1.988L294.886,311L298.698,308.535 M306.852,314l-7.381-4.947l-29.28,18.938L134.598,233.12l28.844-15.216
		l-5.893-3.95l-36.646,19.163L269.574,338.38L306.852,314"/>
	<path fill="#8BC640" d="M198.427,199.441l-5.925-3.768l-34.955,18.277l5.893,3.949L198.427,199.441 M334.05,285.701L199.052,199.84
		l-34.99,18.478l134.638,90.217L334.05,285.701 M342.199,290.886l-7.38-4.694l-35.352,22.863L306.85,314L342.199,290.886"/>
	<path fill="#00A54D" d="M348.727,276.218l-135.091-84.08l-14.583,7.702l134.998,85.861L348.727,276.218 M231.823,181.822l-5.95-3.6
		l-33.371,17.45l5.925,3.768L231.823,181.822 M367.617,264.016l-135.166-81.813l-18.076,9.545l135.095,83.99L367.617,264.016
		 M375.759,268.941l-7.369-4.461l-33.564,21.711l7.38,4.692L375.759,268.941"/>
	<path fill="#8BC640" d="M399.188,243.62l-135.175-78.085l-31.563,16.668l135.167,81.813L399.188,243.62 M263.732,164.989
		l-5.963-3.444l-31.896,16.678l5.951,3.6L263.732,164.989 M407.656,248.085l-7.349-4.243l-31.923,20.641l7.369,4.461
		L407.656,248.085"/>
	<path fill="#00A54D" d="M294.247,148.889l-5.973-3.296l-30.508,15.952l5.963,3.444L294.247,148.889 M429.92,223.769
		l-135.041-74.532l-30.176,15.936l135.175,78.003L429.92,223.769 M438.013,228.235l-7.327-4.043l-30.377,19.647l7.349,4.243
		L438.013,228.235"/>
	<path fill="#8BC640" d="M445.933,213.424l-134.916-72.71l-16.138,8.522l135.041,74.532L445.933,213.424 M323.471,133.472
		l-5.976-3.157l-29.221,15.278l5.973,3.296L323.471,133.472 M458.884,205.058l-134.782-71.253l-12.434,6.566l134.905,72.639
		L458.884,205.058 M466.943,209.318l-7.296-3.856l-28.963,18.73l7.327,4.043L466.943,209.318"/>
	<path fill="#00A54D" d="M351.475,118.698l-5.971-3.029l-28.013,14.646l5.976,3.157L351.475,118.698 M486.525,187.202
		l-134.421-68.185l-28.002,14.786l134.782,71.253L486.525,187.202 M494.539,191.27l-7.259-3.683l-27.636,17.874l7.296,3.856
		L494.539,191.27"/>
	<path fill="#8BC640" d="M489.352,185.376l-134.376-67.875l-2.872,1.517l134.421,68.185L489.352,185.376 M506.905,174.038
		l-134.08-65.963l-17.246,9.107l134.365,67.811L506.905,174.038 M520.903,174.036l-148.531-72.415l-26.865,14.048l5.971,3.029
		l21.305-11.242l135.453,66.582l-20.952,13.55l7.261,3.683L520.903,174.036"/>
	<path fill="#FFFFFF" d="M355.578,117.183l17.246-9.107l134.082,65.963l-16.958,10.955l0.372,0.189l-0.593,0.383l-0.378-0.189
		l-2.827,1.826l-27.641,17.855l-12.312,7.952l0.376,0.203l-0.64,0.417l-0.378-0.205L429.92,223.77l-30.042,19.407l0.381,0.222
		l-0.688,0.443l-0.383-0.22l-31.57,20.396L349.47,275.74l0.384,0.238l-0.743,0.479l-0.384-0.242l-14.677,9.483l-35.352,22.832
		l-3.813,2.465l0.379,0.256l-0.813,0.528l-0.385-0.26l-23.815,15.389l-134.215-93.795l23.457-12.386l-0.314-0.214l0.802-0.421
		l0.314,0.211l3.765-1.988l34.99-18.478l14.583-7.702l-0.316-0.197l0.74-0.39l0.316,0.196l18.076-9.545l31.563-16.668l-0.317-0.184
		l0.688-0.363l0.318,0.184l30.177-15.936l16.138-8.522l-0.318-0.171l0.646-0.343l0.323,0.171l12.434-6.566l28.002-14.787
		l2.872-1.517l-0.318-0.16l0.604-0.317L355.578,117.183 M508.237,174.038l-135.453-66.582l-21.304,11.242l-28.011,14.773
		l-29.222,15.417l-30.518,16.101l-31.909,16.834l-33.395,17.618L163.44,217.9l-28.844,15.217l135.592,94.876l29.28-18.938
		l35.352-22.865l33.564-21.709l31.923-20.643l30.377-19.647l28.963-18.732l27.636-17.873L508.237,174.038"/>
	<polyline fill="#FFFFFF" points="400.259,243.396 399.878,243.175 264.704,165.172 264.385,164.989 263.698,165.352 
		264.014,165.535 399.188,243.62 399.573,243.84 400.259,243.396 	"/>
	<polyline fill="#FFFFFF" points="490.321,185.182 489.947,184.992 355.578,117.183 355.261,117.022 354.656,117.34 354.976,117.5 
		489.352,185.376 489.73,185.564 490.321,185.182 	"/>
	<polyline fill="#FFFFFF" points="446.95,213.213 446.573,213.01 311.668,140.371 311.346,140.2 310.698,140.543 311.017,140.714 
		445.933,213.424 446.311,213.63 446.95,213.213 	"/>
	<polyline fill="#FFFFFF" points="349.854,275.977 349.47,275.738 214.375,191.748 214.059,191.552 213.32,191.941 213.636,192.139 
		348.727,276.218 349.111,276.456 349.854,275.977 	"/>
	<polyline fill="#FFFFFF" points="295.265,311.257 294.886,311 160.299,220.306 159.984,220.095 159.182,220.516 159.496,220.729 
		294.072,311.523 294.455,311.784 295.265,311.257 	"/>
	<polygon fill="none" points="120.903,233.112 372.369,101.621 520.903,174.036 269.573,338.375 	"/>
	<polygon fill="none" points="217.008,258.262 448.225,125.472 464.09,133.307 232.876,269.293 	"/>
	<polygon fill="#028342" points="217.008,258.262 219.052,259.684 222.678,257.595 220.596,256.201 	"/>
	<polygon fill="#028342" points="230.784,267.841 232.876,269.293 236.742,267.02 234.615,265.593 	"/>
	<polygon fill="#028342" points="273.086,245.646 270.986,244.27 269.905,244.905 272.04,246.262 	"/>
	<polygon fill="#028342" points="259.204,236.554 257.151,235.21 255.842,235.959 257.93,237.288 	"/>
	<polygon fill="#6EAA43" points="269.905,244.905 245.516,259.204 233.763,251.21 257.93,237.288 255.842,235.959 220.596,256.201 
		222.678,257.595 231.334,252.607 243.084,260.627 234.615,265.593 236.742,267.02 272.04,246.262 	"/>
	<polygon fill="none" points="428.49,135.46 440.331,141.287 440.912,140.946 429.069,135.123 	"/>
	<polygon fill="none" points="422.622,151.67 423.221,151.319 411.356,145.33 410.755,145.675 	"/>
	<polygon fill="#A5A5A5" points="438.55,129.663 436.496,128.651 432.513,130.941 434.578,131.95 	"/>
	<polygon fill="#DCDCDC" points="422.622,151.67 424.738,152.736 425.33,152.384 423.221,151.319 	"/>
	<polygon fill="#A5A5A5" points="452.365,136.485 450.279,135.456 446.414,137.72 448.524,138.747 	"/>
	<polygon fill="#DCDCDC" points="429.069,135.123 427.001,134.106 426.422,134.441 428.49,135.46 	"/>
	<polygon fill="#DCDCDC" points="440.331,141.287 442.443,142.323 443.024,141.981 440.912,140.946 	"/>
	<polygon fill="#DCDCDC" points="411.356,145.33 409.281,144.284 408.681,144.628 410.755,145.675 	"/>
	<polygon fill="#6EAA43" points="431.26,146.604 419.507,140.634 428.49,135.46 426.422,134.441 409.281,144.284 411.356,145.33 
		417.685,141.682 429.447,147.672 423.221,151.319 425.33,152.384 442.443,142.323 440.331,141.287 	"/>
	<polygon fill="#6EAA43" points="446.414,137.72 440.912,140.946 443.024,141.981 448.524,138.747 	"/>
	<polygon fill="#6EAA43" points="434.578,131.95 432.513,130.941 427.001,134.106 429.069,135.123 	"/>
	<polygon fill="#6EAA43" points="420.303,153.031 422.397,154.113 424.738,152.736 422.622,151.67 	"/>
	<polygon fill="#6EAA43" points="408.531,146.955 410.755,145.675 408.681,144.628 406.478,145.895 	"/>
	<polygon fill="#CECECE" points="218.986,218.354 221.766,258.705 219.446,260.075 216.598,219.694 	"/>
	<polygon fill="#A7A7A7" points="216.598,219.694 219.446,260.075 217.465,258.712 214.567,218.358 	"/>
	<polygon fill="#FFFFFF" points="218.986,218.354 216.598,219.694 214.567,218.358 216.952,217.022 	"/>
	<polygon fill="#A7A7A7" points="233.803,254.203 233.907,255.857 233.098,256.334 232.992,254.677 	"/>
	<polygon fill="#A7A7A7" points="232.992,254.677 233.098,256.334 219.285,247.006 219.165,245.355 	"/>
	<polygon fill="#FFFFFF" points="233.803,254.203 232.992,254.677 219.165,245.355 219.973,244.893 	"/>
	<polygon fill="#CECECE" points="232.721,227.354 235.162,267.895 232.84,269.293 230.331,228.725 	"/>
	<polygon fill="#A7A7A7" points="230.331,228.725 232.84,269.293 230.809,267.895 228.249,227.354 	"/>
	<polygon fill="#FFFFFF" points="232.721,227.354 230.331,228.725 228.249,227.354 230.639,225.99 	"/>
	<polygon fill="#CECECE" points="412.84,108.528 410.761,146.122 409.017,147.152 411.052,109.531 	"/>
	<polygon fill="#A6A6A6" points="411.052,109.531 409.017,147.152 407.031,146.121 409.022,108.527 	"/>
	<polygon fill="#FFFFFF" points="412.84,108.528 411.052,109.531 409.022,108.527 410.807,107.527 	"/>
	<polygon fill="#A7A7A7" points="424.715,141.297 424.615,142.839 424.017,143.19 424.115,141.648 	"/>
	<polygon fill="#A6A6A6" points="424.115,141.648 424.017,143.19 410.213,136.211 410.301,134.676 	"/>
	<polygon fill="#FFFFFF" points="424.715,141.297 424.115,141.648 410.301,134.676 410.898,134.331 	"/>
	<polygon fill="#CECECE" points="426.56,115.278 424.142,153.063 422.397,154.113 424.777,116.3 	"/>
	<polygon fill="#A6A6A6" points="424.777,116.3 422.397,154.113 420.366,153.059 422.697,115.274 	"/>
	<polygon fill="#FFFFFF" points="426.56,115.278 424.777,116.3 422.697,115.274 424.483,114.256 	"/>
</g>
<text fid="EAS-AA" transform="matrix(1 0 0 1 67.9329 208.5557)" fill="#FFFFFF" font-family="'Arial'" font-size="10">AA</text>
<text fid="EAS-AB" transform="matrix(1 0 0 1 105.9202 189.7969)" fill="#FFFFFF" font-family="'Arial'" font-size="10">AB</text>
<text fid="EAS-AC" transform="matrix(1 0 0 1 139.0535 169.832)" fill="#FFFFFF" font-family="'Arial'" font-size="10">AC</text>
<text fid="EAS-AD" transform="matrix(1 0 0 1 173.7405 152.7861)" fill="#FFFFFF" font-family="'Arial'" font-size="10">AD</text>
<text fid="EAS-AE" transform="matrix(1 0 0 1 210.1389 138.3213)" fill="#FFFFFF" font-family="'Arial'" font-size="10">AE</text>
<text fid="EAS-AF" transform="matrix(1 0 0 1 239.0916 120.9492)" fill="#FFFFFF" font-family="'Arial'" font-size="10">AF</text>
<text fid="EAS-AG" transform="matrix(1 0 0 1 268.5549 106.0654)" fill="#FFFFFF" font-family="'Arial'" font-size="10">AG</text>
<text fid="EAS-AH" transform="matrix(1 0 0 1 300.8665 93.3916)" fill="#FFFFFF" font-family="'Arial'" font-size="10">AH</text>
<text fid="EAS-AJ" transform="matrix(1 0 0 1 329.6565 79.7275)" fill="#FFFFFF" font-family="'Arial'" font-size="10">AJ</text>
<text fid="SOU-BA" transform="matrix(1 0 0 1 429.4827 75.7939)" fill="#FFFFFF" font-family="'Arial'" font-size="10">BA</text>
<text fid="SOU-BB" transform="matrix(1 0 0 1 452.8323 86.4932)" fill="#FFFFFF" font-family="'Arial'" font-size="10">BB</text>
<text fid="SOU-BC" transform="matrix(1 0 0 1 476.8342 97.6182)" fill="#FFFFFF" font-family="'Arial'" font-size="10">BC</text>
<text fid="SOU-BD" transform="matrix(1 0 0 1 501.9377 109.125)" fill="#FFFFFF" font-family="'Arial'" font-size="10">BD</text>
<text fid="SOU-BE" transform="matrix(1 0 0 1 528.1926 121.0342)" fill="#FFFFFF" font-family="'Arial'" font-size="10">BE</text>
<text fid="SOU-BF" transform="matrix(1 0 0 1 555.1819 133.2744)" fill="#FFFFFF" font-family="'Arial'" font-size="10">BF</text>
<text fid="LEX-FA" transform="matrix(1 0 0 1 567.6399 197.8633)" fill="#FFFFFF" font-family="'Arial'" font-size="10">FA</text>
<text fid="LEX-FB" transform="matrix(1 0 0 1 540.5334 217.0078)" fill="#FFFFFF" font-family="'Arial'" font-size="10">FB</text>
<text fid="LEX-FC" transform="matrix(1 0 0 1 515.8147 239.2969)" fill="#FFFFFF" font-family="'Arial'" font-size="10">FC</text>
<text fid="LEX-FD" transform="matrix(1 0 0 1 485.9788 260.7012)" fill="#FFFFFF" font-family="'Arial'" font-size="10">FD</text>
<text fid="LEX-FE" transform="matrix(1 0 0 1 460.8411 291)" fill="#FFFFFF" font-family="'Arial'" font-size="10">FE</text>
<text fid="LEX-FF" transform="matrix(1 0 0 1 421.8635 307.1143)" fill="#FFFFFF" font-family="'Arial'" font-size="10">FF</text>
<text fid="LEX-FG" transform="matrix(1 0 0 1 385.9084 332.3271)" fill="#FFFFFF" font-family="'Arial'" font-size="10">FG</text>
<text fid="LEX-FH" transform="matrix(1 0 0 1 348.9924 359.0371)" fill="#FFFFFF" font-family="'Arial'" font-size="10">FH</text>
<text fid="LEX-FJ" transform="matrix(1 0 0 1 310.8645 387.2148)" fill="#FFFFFF" font-family="'Arial'" font-size="10">FJ</text>
<text fid="NOR-GA" transform="matrix(1 0 0 1 167.8723 372.6924)" fill="#FFFFFF" font-family="'Arial'" font-size="10">GA</text>
<text fid="NOR-GB" transform="matrix(1 0 0 1 128.1492 340.2451)" fill="#FFFFFF" font-family="'Arial'" font-size="10">GB</text>
<text fid="NOR-GC" transform="matrix(1 0 0 1 90.5959 309.8057)" fill="#FFFFFF" font-family="'Arial'" font-size="10">GC</text>
<text fid="NOR-GD" transform="matrix(1 0 0 1 55.8547 281.4424)" fill="#FFFFFF" font-family="'Arial'" font-size="10">GD</text>
<g enable-background="new    ">
	<path fill="#3E3E3E" d="M491.4,47.27h-1.261c-0.148-1.362-0.976-2.044-2.479-2.044c-0.637,0-1.166,0.136-1.598,0.406
		c-0.431,0.27-0.646,0.705-0.646,1.302c0,0.131,0.019,0.255,0.05,0.371c0.032,0.117,0.092,0.22,0.176,0.309
		c0.084,0.088,0.166,0.17,0.244,0.244c0.079,0.075,0.193,0.146,0.344,0.21c0.148,0.065,0.279,0.119,0.395,0.161
		c0.109,0.042,0.266,0.089,0.461,0.141c0.195,0.051,0.355,0.091,0.482,0.119c0.125,0.027,0.305,0.065,0.531,0.111
		c0.229,0.047,0.403,0.084,0.524,0.112c0.467,0.103,0.861,0.215,1.188,0.336c0.326,0.121,0.655,0.287,0.986,0.497
		s0.583,0.487,0.756,0.833c0.174,0.346,0.26,0.751,0.26,1.218c0,0.672-0.205,1.241-0.614,1.708c-0.41,0.467-0.897,0.796-1.464,0.987
		c-0.563,0.191-1.174,0.287-1.826,0.287c-1.194,0-2.184-0.299-2.963-0.896c-0.777-0.597-1.168-1.475-1.168-2.632h1.262
		c0,0.793,0.277,1.393,0.84,1.799c0.562,0.406,1.25,0.609,2.072,0.609c0.709,0,1.309-0.141,1.799-0.42
		c0.489-0.28,0.732-0.747,0.732-1.4c0-0.242-0.054-0.459-0.159-0.65c-0.106-0.191-0.242-0.348-0.405-0.47
		c-0.164-0.121-0.381-0.233-0.65-0.336c-0.271-0.103-0.522-0.182-0.764-0.238c-0.237-0.056-0.528-0.121-0.875-0.195
		c-0.148-0.028-0.262-0.052-0.336-0.07c-0.383-0.084-0.703-0.161-0.959-0.23c-0.257-0.07-0.539-0.178-0.85-0.322
		c-0.309-0.145-0.556-0.304-0.74-0.477c-0.188-0.172-0.344-0.396-0.471-0.672c-0.125-0.275-0.188-0.59-0.188-0.944
		c0-0.952,0.354-1.678,1.063-2.178c0.709-0.499,1.563-0.749,2.563-0.749c1.073,0,1.944,0.265,2.617,0.791
		C491.009,45.424,491.363,46.215,491.4,47.27z"/>
	<path fill="#3E3E3E" d="M493.39,51.904c-0.347-0.775-0.519-1.629-0.519-2.563s0.172-1.787,0.519-2.562
		c0.345-0.775,0.889-1.414,1.631-1.918c0.741-0.505,1.621-0.757,2.639-0.757c1.021,0,1.896,0.252,2.641,0.757
		c0.742,0.504,1.286,1.143,1.632,1.918c0.346,0.774,0.52,1.628,0.52,2.562s-0.174,1.787-0.52,2.563
		c-0.346,0.774-0.89,1.413-1.632,1.918c-0.741,0.504-1.62,0.756-2.641,0.756c-1.018,0-1.896-0.252-2.639-0.756
		S493.733,52.678,493.39,51.904z M494.544,47.375c-0.229,0.602-0.345,1.258-0.345,1.967s0.114,1.365,0.345,1.967
		c0.229,0.604,0.609,1.111,1.146,1.526s1.191,0.623,1.968,0.623c0.774,0,1.431-0.208,1.968-0.623s0.92-0.924,1.146-1.526
		c0.229-0.602,0.343-1.258,0.343-1.967s-0.112-1.365-0.343-1.967c-0.229-0.604-0.609-1.11-1.146-1.526
		c-0.537-0.415-1.19-0.623-1.968-0.623c-0.773,0-1.431,0.208-1.968,0.623S494.773,46.773,494.544,47.375z"/>
	<path fill="#3E3E3E" d="M512.051,44.344v6.384c0,1.251-0.342,2.205-1.021,2.863c-0.68,0.658-1.649,0.987-2.911,0.987
		c-1.324,0-2.342-0.317-3.046-0.952c-0.702-0.635-1.057-1.601-1.057-2.898v-6.384h1.329v6.384c0,0.878,0.239,1.552,0.722,2.023
		c0.479,0.472,1.164,0.707,2.052,0.707c0.842,0,1.483-0.235,1.934-0.707c0.447-0.472,0.673-1.146,0.673-2.023v-6.384H512.051z"/>
	<path fill="#3E3E3E" d="M516.446,54.34v-8.876h-3.332v-1.12h7.994v1.12h-3.332v8.876H516.446z"/>
	<path fill="#3E3E3E" d="M522.214,54.34v-9.996h1.33v4.298h5.266v-4.298h1.329v9.996h-1.329v-4.578h-5.266v4.578H522.214z"/>
	<path fill="#3E3E3E" d="M543.256,47.27h-1.26c-0.148-1.362-0.978-2.044-2.479-2.044c-0.636,0-1.166,0.136-1.597,0.406
		c-0.432,0.27-0.646,0.705-0.646,1.302c0,0.131,0.02,0.255,0.05,0.371c0.032,0.117,0.093,0.22,0.177,0.309
		c0.084,0.088,0.166,0.17,0.245,0.244c0.077,0.075,0.191,0.146,0.343,0.21c0.147,0.065,0.278,0.119,0.394,0.161
		c0.11,0.042,0.268,0.089,0.461,0.141c0.197,0.051,0.356,0.091,0.483,0.119c0.125,0.027,0.304,0.065,0.531,0.111
		c0.229,0.047,0.402,0.084,0.523,0.112c0.467,0.103,0.862,0.215,1.188,0.336s0.655,0.287,0.985,0.497
		c0.331,0.21,0.583,0.487,0.758,0.833c0.173,0.346,0.259,0.751,0.259,1.218c0,0.672-0.205,1.241-0.614,1.708
		c-0.411,0.467-0.898,0.796-1.464,0.987c-0.564,0.191-1.174,0.287-1.827,0.287c-1.194,0-2.183-0.299-2.961-0.896
		c-0.779-0.597-1.169-1.475-1.169-2.632h1.261c0,0.793,0.278,1.393,0.84,1.799c0.563,0.406,1.25,0.609,2.072,0.609
		c0.709,0,1.309-0.141,1.799-0.42c0.49-0.28,0.733-0.747,0.733-1.4c0-0.242-0.053-0.459-0.159-0.65
		c-0.107-0.191-0.243-0.348-0.406-0.47c-0.164-0.121-0.381-0.233-0.649-0.336c-0.271-0.103-0.523-0.182-0.765-0.238
		c-0.236-0.056-0.527-0.121-0.875-0.195c-0.147-0.028-0.262-0.052-0.336-0.07c-0.383-0.084-0.703-0.161-0.959-0.23
		c-0.257-0.07-0.539-0.178-0.849-0.322c-0.309-0.145-0.555-0.304-0.741-0.477c-0.187-0.172-0.343-0.396-0.47-0.672
		c-0.125-0.275-0.188-0.59-0.188-0.944c0-0.952,0.354-1.678,1.063-2.178c0.709-0.499,1.563-0.749,2.563-0.749
		c1.073,0,1.945,0.265,2.617,0.791C542.864,45.424,543.219,46.215,543.256,47.27z"/>
	<path fill="#3E3E3E" d="M547.554,54.34v-8.876h-3.331v-1.12h7.993v1.12h-3.332v8.876H547.554z"/>
	<path fill="#3E3E3E" d="M550.844,54.34l3.906-9.996h1.47l3.906,9.996h-1.472l-1.092-3.01h-4.229l-1.12,3.01H550.844z
		 M555.448,45.548l-1.691,4.662h3.39l-1.666-4.662H555.448z"/>
	<path fill="#3E3E3E" d="M561.092,54.34v-9.996h1.414l5.265,8.106h0.027v-8.106h1.261v9.996h-1.456l-5.223-8.022h-0.027v8.022
		H561.092z"/>
	<path fill="#3E3E3E" d="M571.213,54.34v-9.996h3.432c1.561,0,2.749,0.396,3.568,1.19c0.822,0.793,1.23,1.983,1.23,3.569
		c0,3.491-1.602,5.236-4.802,5.236L571.213,54.34L571.213,54.34z M572.544,45.464v7.756h2.213c0.242,0,0.479-0.016,0.707-0.049
		c0.229-0.032,0.517-0.126,0.859-0.28c0.347-0.153,0.641-0.361,0.883-0.623c0.241-0.261,0.455-0.648,0.638-1.162
		c0.183-0.513,0.271-1.119,0.271-1.819c0-1.251-0.262-2.2-0.781-2.85c-0.522-0.648-1.373-0.973-2.55-0.973H572.544z"/>
</g>
<g enable-background="new    ">
	<path fill="#3E3E3E" d="M535.809,62.653l-5.798,5.789c-0.099,0.099-0.216,0.148-0.354,0.148c-0.136,0-0.253-0.05-0.352-0.148
		l-5.798-5.789c-0.099-0.099-0.147-0.218-0.147-0.355c0-0.137,0.052-0.257,0.147-0.355l1.298-1.289
		c0.099-0.099,0.216-0.148,0.352-0.148c0.138,0,0.255,0.05,0.354,0.148l4.146,4.148l4.148-4.148
		c0.099-0.099,0.216-0.148,0.352-0.148c0.138,0,0.255,0.05,0.354,0.148l1.298,1.289c0.099,0.099,0.147,0.218,0.147,0.355
		C535.957,62.434,535.906,62.553,535.809,62.653z"/>
</g>
<g enable-background="new    ">
	<path fill="#3E3E3E" d="M145.228,94.45v-9.996h3.43c1.56,0,2.749,0.396,3.568,1.19c0.821,0.793,1.232,1.983,1.232,3.569
		c0,3.491-1.604,5.236-4.803,5.236L145.228,94.45L145.228,94.45z M146.557,85.574v7.756h2.212c0.243,0,0.479-0.016,0.707-0.049
		c0.229-0.032,0.519-0.126,0.861-0.28c0.345-0.153,0.639-0.361,0.882-0.623c0.243-0.261,0.455-0.648,0.637-1.162
		c0.185-0.513,0.273-1.119,0.273-1.819c0-1.251-0.263-2.2-0.784-2.85c-0.521-0.648-1.372-0.973-2.548-0.973H146.557z"/>
	<path fill="#3E3E3E" d="M155.083,94.45v-9.996h1.33v4.298h5.264v-4.298h1.33v9.996h-1.33v-4.578h-5.264v4.578H155.083z"/>
	<path fill="#3E3E3E" d="M165.19,94.45v-9.996h1.33v8.876h5.292v1.12H165.19z"/>
	<path fill="#3E3E3E" d="M183.908,87.379h-1.262c-0.146-1.362-0.975-2.044-2.479-2.044c-0.635,0-1.167,0.136-1.597,0.406
		c-0.431,0.271-0.646,0.705-0.646,1.302c0,0.131,0.019,0.255,0.05,0.371c0.032,0.117,0.09,0.22,0.174,0.309
		c0.086,0.088,0.166,0.17,0.246,0.244c0.078,0.075,0.193,0.146,0.344,0.21c0.148,0.065,0.279,0.119,0.394,0.161
		c0.113,0.042,0.266,0.089,0.462,0.141c0.195,0.051,0.356,0.091,0.482,0.119c0.126,0.027,0.304,0.065,0.529,0.111
		c0.229,0.047,0.404,0.084,0.525,0.112c0.467,0.103,0.862,0.215,1.188,0.336c0.325,0.121,0.654,0.287,0.986,0.497
		c0.33,0.21,0.582,0.487,0.757,0.833c0.173,0.346,0.26,0.751,0.26,1.218c0,0.672-0.206,1.241-0.616,1.708
		c-0.409,0.467-0.897,0.796-1.463,0.987c-0.564,0.191-1.174,0.287-1.827,0.287c-1.193,0-2.182-0.299-2.961-0.896
		c-0.778-0.597-1.169-1.475-1.169-2.632h1.261c0,0.793,0.279,1.393,0.84,1.799c0.563,0.406,1.251,0.609,2.071,0.609
		c0.709,0,1.31-0.141,1.8-0.42c0.489-0.28,0.734-0.747,0.734-1.4c0-0.242-0.055-0.459-0.161-0.65
		c-0.106-0.191-0.241-0.348-0.405-0.47c-0.163-0.121-0.382-0.233-0.648-0.336c-0.271-0.103-0.525-0.182-0.766-0.238
		c-0.238-0.056-0.528-0.121-0.875-0.195c-0.146-0.028-0.263-0.052-0.336-0.07c-0.384-0.084-0.702-0.161-0.959-0.23
		c-0.257-0.07-0.539-0.178-0.848-0.322c-0.31-0.144-0.558-0.304-0.742-0.477c-0.188-0.172-0.343-0.396-0.469-0.672
		s-0.188-0.59-0.188-0.944c0-0.952,0.354-1.678,1.063-2.178c0.709-0.499,1.563-0.749,2.563-0.749c1.074,0,1.945,0.265,2.618,0.791
		C183.517,85.534,183.87,86.325,183.908,87.379z"/>
	<path fill="#3E3E3E" d="M188.206,94.45v-8.876h-3.332v-1.12h7.994v1.12h-3.332v8.876H188.206z"/>
	<path fill="#3E3E3E" d="M191.495,94.45l3.906-9.996h1.471l3.906,9.996h-1.473l-1.092-3.01h-4.229l-1.119,3.01H191.495z
		 M196.101,85.658l-1.692,4.662h3.39l-1.666-4.662H196.101z"/>
	<path fill="#3E3E3E" d="M201.743,94.45v-9.996h1.414l5.265,8.106h0.028v-8.106h1.26v9.996h-1.456l-5.222-8.021h-0.028v8.021
		H201.743z"/>
	<path fill="#3E3E3E" d="M211.866,94.45v-9.996h3.432c1.559,0,2.748,0.396,3.568,1.19c0.819,0.793,1.23,1.983,1.23,3.569
		c0,3.491-1.602,5.236-4.803,5.236L211.866,94.45L211.866,94.45z M213.197,85.574v7.756h2.212c0.24,0,0.479-0.016,0.707-0.049
		c0.229-0.032,0.517-0.126,0.859-0.28c0.348-0.153,0.641-0.361,0.882-0.623c0.243-0.261,0.455-0.648,0.64-1.162
		c0.183-0.513,0.271-1.119,0.271-1.819c0-1.251-0.262-2.2-0.784-2.85c-0.521-0.648-1.372-0.973-2.548-0.973H213.197z"/>
</g>
<g enable-background="new    ">
	<path fill="#3E3E3E" d="M187.344,102.762l-5.797,5.789c-0.1,0.099-0.217,0.148-0.353,0.148c-0.137,0-0.254-0.05-0.354-0.148
		l-5.798-5.789c-0.099-0.099-0.147-0.218-0.147-0.355c0-0.137,0.052-0.257,0.147-0.355l1.298-1.289
		c0.102-0.099,0.217-0.148,0.354-0.148c0.136,0,0.253,0.05,0.353,0.148l4.147,4.148l4.146-4.148
		c0.102-0.099,0.217-0.148,0.354-0.148c0.136,0,0.253,0.05,0.353,0.148l1.297,1.289c0.1,0.099,0.147,0.218,0.147,0.355
		C187.492,102.544,187.442,102.665,187.344,102.762z"/>
</g>
<g enable-background="new    ">
	<path fill="#3E3E3E" d="M72.791,370.504l-1.297,1.288c-0.101,0.102-0.216,0.148-0.354,0.148c-0.136,0-0.253-0.05-0.353-0.148
		l-4.147-4.146l-4.146,4.146c-0.101,0.102-0.216,0.148-0.354,0.148c-0.136,0-0.253-0.05-0.353-0.148l-1.297-1.288
		c-0.101-0.1-0.147-0.219-0.147-0.354c0-0.139,0.049-0.257,0.147-0.354l5.797-5.789c0.1-0.1,0.217-0.146,0.353-0.146
		c0.137,0,0.252,0.05,0.354,0.146l5.797,5.789c0.1,0.101,0.147,0.219,0.147,0.354C72.94,370.286,72.891,370.405,72.791,370.504z"/>
</g>
<g enable-background="new    ">
	<path fill="#3E3E3E" d="M20.97,386.105v-9.996h1.414l5.265,8.104h0.027v-8.104h1.261v9.996h-1.456l-5.223-8.022H22.23v8.022H20.97z
		"/>
	<path fill="#3E3E3E" d="M31.05,383.67c-0.346-0.773-0.519-1.63-0.519-2.563c0-0.936,0.172-1.787,0.519-2.563
		c0.346-0.772,0.89-1.413,1.631-1.918c0.742-0.505,1.622-0.757,2.641-0.757s1.896,0.252,2.639,0.757s1.286,1.146,1.632,1.918
		c0.346,0.774,0.52,1.629,0.52,2.563c0,0.934-0.174,1.787-0.52,2.563c-0.346,0.773-0.89,1.412-1.632,1.918
		c-0.741,0.504-1.622,0.756-2.639,0.756c-1.019,0-1.896-0.252-2.641-0.756C31.939,385.083,31.395,384.444,31.05,383.67z
		 M32.204,379.141c-0.229,0.602-0.343,1.258-0.343,1.967s0.112,1.365,0.343,1.967c0.229,0.604,0.61,1.111,1.146,1.526
		c0.537,0.415,1.191,0.623,1.969,0.623c0.774,0,1.43-0.208,1.967-0.623s0.919-0.926,1.146-1.526
		c0.229-0.602,0.345-1.258,0.345-1.967s-0.114-1.365-0.345-1.967c-0.229-0.604-0.609-1.11-1.146-1.526
		c-0.537-0.415-1.191-0.623-1.967-0.623c-0.773,0-1.432,0.208-1.969,0.623C32.815,378.03,32.434,378.538,32.204,379.141z"/>
	<path fill="#3E3E3E" d="M41.732,386.105v-9.996h4.703c0.935,0,1.675,0.234,2.221,0.707c0.546,0.472,0.817,1.106,0.817,1.911
		c0,0.625-0.146,1.164-0.435,1.615c-0.29,0.452-0.724,0.76-1.302,0.917v0.026c0.53,0.104,0.898,0.327,1.104,0.674
		c0.205,0.347,0.336,0.809,0.394,1.388c0.009,0.072,0.023,0.311,0.049,0.705c0.021,0.396,0.046,0.672,0.068,0.817
		c0.022,0.149,0.075,0.354,0.154,0.609c0.078,0.257,0.186,0.465,0.314,0.623h-1.483c-0.112-0.121-0.183-0.313-0.21-0.567
		c-0.028-0.256-0.05-0.572-0.063-0.95c-0.015-0.38-0.045-0.691-0.092-0.943c-0.037-0.289-0.084-0.525-0.141-0.707
		c-0.056-0.185-0.142-0.366-0.259-0.555c-0.117-0.188-0.279-0.322-0.49-0.413c-0.21-0.089-0.469-0.134-0.776-0.134h-3.248v4.271
		L41.732,386.105L41.732,386.105z M43.062,380.716h2.771c0.72,0,1.283-0.129,1.694-0.387c0.41-0.256,0.614-0.721,0.614-1.393
		c0-0.516-0.146-0.928-0.439-1.239c-0.294-0.313-0.739-0.469-1.337-0.469h-3.306L43.062,380.716L43.062,380.716z"/>
	<path fill="#3E3E3E" d="M53.338,386.105v-8.876h-3.332v-1.12h7.993v1.12h-3.332v8.876H53.338z"/>
	<path fill="#3E3E3E" d="M59.106,386.105v-9.996h1.329v4.298H65.7v-4.298h1.33v9.996H65.7v-4.578h-5.266v4.578H59.106z"/>
	<path fill="#3E3E3E" d="M80.148,379.035h-1.261c-0.147-1.361-0.977-2.044-2.479-2.044c-0.635,0-1.167,0.136-1.597,0.406
		c-0.43,0.27-0.646,0.705-0.646,1.302c0,0.131,0.018,0.255,0.05,0.371c0.032,0.117,0.091,0.22,0.175,0.31
		c0.084,0.088,0.166,0.17,0.245,0.243c0.079,0.075,0.192,0.146,0.344,0.21c0.148,0.065,0.279,0.119,0.393,0.161
		s0.267,0.089,0.462,0.143c0.196,0.052,0.357,0.092,0.483,0.117c0.126,0.027,0.303,0.065,0.53,0.111
		c0.229,0.047,0.404,0.084,0.524,0.112c0.468,0.103,0.863,0.215,1.189,0.336s0.655,0.287,0.986,0.497s0.583,0.485,0.756,0.833
		c0.174,0.346,0.261,0.751,0.261,1.218c0,0.672-0.206,1.241-0.616,1.708s-0.897,0.796-1.463,0.986
		c-0.564,0.189-1.176,0.286-1.827,0.286c-1.194,0-2.184-0.3-2.961-0.896c-0.778-0.596-1.169-1.476-1.169-2.632h1.26
		c0,0.793,0.28,1.393,0.841,1.799c0.562,0.406,1.25,0.609,2.071,0.609c0.709,0,1.31-0.144,1.799-0.422
		c0.49-0.278,0.735-0.746,0.735-1.398c0-0.242-0.056-0.459-0.161-0.65c-0.106-0.188-0.243-0.348-0.405-0.47
		c-0.164-0.121-0.382-0.231-0.651-0.336c-0.271-0.104-0.523-0.182-0.763-0.238c-0.238-0.056-0.53-0.12-0.875-0.192
		c-0.147-0.028-0.263-0.055-0.336-0.07c-0.384-0.084-0.703-0.161-0.96-0.229s-0.538-0.179-0.847-0.32
		c-0.31-0.146-0.558-0.306-0.742-0.479c-0.188-0.172-0.343-0.396-0.469-0.672c-0.126-0.274-0.188-0.59-0.188-0.943
		c0-0.951,0.354-1.679,1.063-2.179c0.709-0.499,1.563-0.749,2.563-0.749c1.072,0,1.945,0.267,2.617,0.791
		C79.756,377.189,80.11,377.98,80.148,379.035z"/>
	<path fill="#3E3E3E" d="M84.445,386.105v-8.876h-3.332v-1.12h7.993v1.12h-3.331v8.876H84.445z"/>
	<path fill="#3E3E3E" d="M87.735,386.105l3.904-9.996h1.472l3.904,9.996h-1.47l-1.093-3.012h-4.229l-1.119,3.012H87.735z
		 M92.341,377.313l-1.693,4.662h3.389l-1.666-4.662H92.341z"/>
	<path fill="#3E3E3E" d="M97.982,386.105v-9.996h1.414l5.265,8.104h0.027v-8.104h1.261v9.996h-1.456l-5.224-8.022h-0.026v8.022
		H97.982z"/>
	<path fill="#3E3E3E" d="M108.105,386.105v-9.996h3.431c1.56,0,2.749,0.396,3.569,1.188s1.23,1.982,1.23,3.568
		c0,3.491-1.601,5.236-4.802,5.236L108.105,386.105L108.105,386.105z M109.435,377.229v7.756h2.213c0.242,0,0.479-0.018,0.707-0.049
		c0.229-0.032,0.517-0.126,0.86-0.28c0.345-0.152,0.64-0.36,0.882-0.623c0.243-0.261,0.455-0.646,0.639-1.162
		c0.182-0.513,0.271-1.118,0.271-1.817c0-1.251-0.263-2.199-0.784-2.852c-0.521-0.646-1.372-0.973-2.548-0.973H109.435
		L109.435,377.229z"/>
</g>
<g>
	<path fill="#3E3E3E" d="M512.485,333.436l-1.297,1.289c-0.1,0.099-0.217,0.148-0.352,0.148c-0.137,0-0.254-0.05-0.352-0.148
		l-4.148-4.148l-4.148,4.148c-0.1,0.099-0.217,0.148-0.352,0.148c-0.137,0-0.254-0.05-0.352-0.148l-1.297-1.289
		c-0.1-0.099-0.148-0.218-0.148-0.355s0.049-0.257,0.148-0.355l5.797-5.789c0.098-0.099,0.215-0.148,0.352-0.148
		c0.135,0,0.252,0.05,0.352,0.148l5.797,5.789c0.098,0.099,0.148,0.218,0.148,0.355S512.582,333.337,512.485,333.436z"/>
</g>
<g>
	<path fill="#3E3E3E" d="M472.776,349.037h-1.387l-2.283-8.404h-0.027l-2.312,8.404h-1.387l-2.563-10.001h1.359l1.961,8.32h0.027
		l2.242-8.32h1.441l2.214,8.32h0.028l2.031-8.32h1.33L472.776,349.037z"/>
	<path fill="#3E3E3E" d="M476.705,339.036h6.906v1.12h-5.576v3.18h5.197v1.121h-5.197v3.459h5.617v1.121h-6.947V339.036z"/>
	<path fill="#3E3E3E" d="M491.044,341.963c-0.154-1.429-1.106-2.045-2.479-2.045c-1.121,0-2.241,0.406-2.241,1.709
		c0,1.232,1.597,1.415,3.208,1.779c1.597,0.364,3.193,0.924,3.193,2.886c0,2.129-2.087,2.983-3.908,2.983
		c-2.241,0-4.133-1.093-4.133-3.53h1.262c0,1.681,1.4,2.409,2.913,2.409c1.204,0,2.536-0.378,2.536-1.82
		c0-1.373-1.598-1.611-3.194-1.961c-1.597-0.351-3.208-0.813-3.208-2.647c0-2.031,1.807-2.928,3.629-2.928
		c2.045,0,3.6,0.966,3.684,3.165H491.044z"/>
	<path fill="#3E3E3E" d="M496.6,340.156h-3.334v-1.12h7.999v1.12h-3.334v8.881H496.6V340.156z"/>
	<path fill="#3E3E3E" d="M512.044,341.963c-0.154-1.429-1.106-2.045-2.479-2.045c-1.121,0-2.241,0.406-2.241,1.709
		c0,1.232,1.597,1.415,3.208,1.779c1.597,0.364,3.193,0.924,3.193,2.886c0,2.129-2.087,2.983-3.908,2.983
		c-2.241,0-4.133-1.093-4.133-3.53h1.262c0,1.681,1.4,2.409,2.913,2.409c1.204,0,2.536-0.378,2.536-1.82
		c0-1.373-1.598-1.611-3.194-1.961c-1.597-0.351-3.208-0.813-3.208-2.647c0-2.031,1.807-2.928,3.629-2.928
		c2.045,0,3.6,0.966,3.684,3.165H512.044z"/>
	<path fill="#3E3E3E" d="M517.6,340.156h-3.334v-1.12h7.998v1.12h-3.334v8.881h-1.33V340.156z"/>
	<path fill="#3E3E3E" d="M524.796,339.036h1.471l3.908,10.001h-1.471l-1.093-3.012h-4.23l-1.12,3.012h-1.373L524.796,339.036z
		 M523.801,344.905h3.391l-1.667-4.665h-0.028L523.801,344.905z"/>
	<path fill="#3E3E3E" d="M531.137,339.036h1.414l5.268,8.11h0.027v-8.11h1.261v10.001h-1.456l-5.226-8.026h-0.028v8.026h-1.26
		V339.036z"/>
	<path fill="#3E3E3E" d="M541.258,339.036h3.432c3.082,0,4.805,1.54,4.805,4.762c0,3.349-1.471,5.239-4.805,5.239h-3.432V339.036z
		 M542.589,347.916h2.214c0.91,0,3.361-0.252,3.361-3.936c0-2.382-0.883-3.824-3.334-3.824h-2.241V347.916z"/>
</g>
</svg>
