<svg>
<g id="PITCH">
	<rect x="188.734" y="194.265" fill="#029547" width="304.364" height="182.619"/>
	<rect x="188.734" y="194.265" fill="#046938" width="27.669" height="182.619"/>
	<rect x="244.074" y="194.265" fill="#046938" width="27.669" height="182.619"/>
	<rect x="299.411" y="194.265" fill="#046938" width="27.67" height="182.619"/>
	<rect x="354.75" y="194.265" fill="#046938" width="27.67" height="182.619"/>
	<rect x="410.091" y="194.265" fill="#046938" width="27.67" height="182.619"/>
	<rect x="465.429" y="194.265" fill="#046938" width="27.671" height="182.619"/>
	<rect x="200.908" y="206.439" fill="none" stroke="#FFFFFF" stroke-miterlimit="10" width="280.016" height="158.271"/>
	<line fill="none" stroke="#FFFFFF" stroke-miterlimit="10" x1="340.915" y1="206.439" x2="340.915" y2="364.71"/>
	<path fill="none" stroke="#FFFFFF" stroke-miterlimit="10" d="M340.915,322.099c-20.172,0-36.523-16.353-36.523-36.523
		c0-20.173,16.352-36.525,36.523-36.525"/>
	<path fill="none" stroke="#FFFFFF" stroke-miterlimit="10" d="M340.915,249.051c20.174,0,36.526,16.352,36.526,36.525
		c0,20.17-16.354,36.523-36.526,36.523"/>
	<rect x="200.908" y="249.051" fill="none" stroke="#FFFFFF" stroke-miterlimit="10" width="36.522" height="73.048"/>
	<rect x="200.908" y="261.225" fill="none" stroke="#FFFFFF" stroke-miterlimit="10" width="18.262" height="48.699"/>
	<path fill="none" stroke="#FFFFFF" stroke-miterlimit="10" d="M255.694,285.576c0-11.342-7.766-20.845-18.263-23.551v47.101
		C247.928,306.417,255.694,296.917,255.694,285.576z"/>
	<rect x="444.402" y="249.051" fill="none" stroke="#FFFFFF" stroke-miterlimit="10" width="36.521" height="73.048"/>
	<rect x="462.663" y="261.225" fill="none" stroke="#FFFFFF" stroke-miterlimit="10" width="18.261" height="48.699"/>
	<path fill="none" stroke="#FFFFFF" stroke-miterlimit="10" d="M426.139,285.576c0-11.342,7.768-20.845,18.264-23.551v47.101
		C433.906,306.417,426.139,296.917,426.139,285.576z"/>
</g>
<g id="AREAS">
	<rect id="BF-BF5" x="93.771" y="185.452" stroke-width="0" width="60.524" height="39.336"/>
	<rect id="BF-BF4" x="93.771" y="227.794" stroke-width="0" width="60.524" height="39.337"/>
	<rect id="BF-BF3" x="93.771" y="270.137" stroke-width="0" width="60.524" height="39.337"/>
	<rect id="BF-BF2" x="93.771" y="312.479" stroke-width="0" width="60.524" height="39.336"/>
	<rect id="BF-BF1" x="93.771" y="354.821" stroke-width="0" width="60.524" height="55.479"/>
	<polygon id="GW-GW3" stroke-width="0" points="177.375,92.125 189.981,92.125 189.981,153.473 167.402,153.473 156.483,110.392 
		177.375,110.392 	"/>
	<polygon id="GW-GW2" stroke-width="0" points="165.025,154.522 155.501,164.032 119.154,144.882 119.154,116.189 124.951,110.392 
		153.395,110.392 	"/>
	<polygon id="GW-GW1" stroke-width="0" points="93.771,182.446 93.771,147.294 117.28,147.294 154.295,166.786 154.277,182.446 	"/>
	<rect id="BR-BRN" x="84.35" y="164.515" stroke-width="0" width="6.415" height="10.113"/>
	<rect id="BR-BR5" x="24.5" y="177.634" stroke-width="0" width="66.265" height="47.153"/>
	<rect id="BR-BR4" x="24.5" y="227.794" stroke-width="0" width="66.265" height="39.337"/>
	<rect id="BR-BR3" x="24.5" y="270.137" stroke-width="0" width="66.265" height="39.337"/>
	<rect id="BR-BR2" x="24.5" y="312.479" stroke-width="0" width="66.265" height="39.336"/>
	<rect id="BR-BR1" x="24.5" y="354.821" stroke-width="0" width="66.265" height="55.479"/>
	<polygon id="CD-CD7" stroke-width="0" points="172.608,563.544 172.608,589.642 162.096,589.642 162.096,622.306 119.964,622.306 
		119.964,563.544 	"/>
	<polygon id="CD-CD6" stroke-width="0" points="165.102,622.306 165.102,592.65 175.615,592.65 175.615,563.544 237.184,563.544 
		237.184,589.642 226.672,589.642 226.672,622.306 	"/>
	<polygon id="CD-CD5" stroke-width="0" points="229.678,592.65 240.189,592.65 240.189,563.544 297.04,563.544 297.04,589.642 
		286.527,589.642 286.527,622.306 229.678,622.306 	"/>
	<polygon id="CD-CD4" stroke-width="0" points="289.534,622.306 289.534,592.65 300.047,592.65 300.047,563.544 355.821,563.544 
		355.821,592.65 366.334,592.65 366.334,622.306 	"/>
	<polygon id="CD-CD3" stroke-width="0" points="369.342,622.306 369.342,589.642 358.824,589.642 358.824,563.544 415.68,563.544 
		415.68,592.65 426.19,592.65 426.19,622.306 	"/>
	<polygon id="CD-CD2" stroke-width="0" points="429.196,589.642 418.685,589.642 418.685,563.544 480.252,563.544 480.252,592.65 
		490.768,592.65 490.768,622.306 429.196,622.306 	"/>
	<polygon id="CD-CD1" stroke-width="0" points="562.903,622.306 493.771,622.306 493.771,589.642 483.26,589.642 483.26,563.544 
		562.903,563.544 	"/>
	<polygon id="MR-MRT" stroke-width="0" points="170.059,545.357 145.901,545.357 145.901,536.132 121.688,536.132 121.688,518.001 
		170.059,518.001 	"/>
	<rect id="MR-MRS" x="173.064" y="518.001" stroke-width="0" width="53.339" height="27.355"/>
	<polygon id="MR-MRR" stroke-width="0" points="229.41,518.001 270.52,518.001 270.52,536.753 261.917,545.357 229.41,545.357 	"/>
	<rect id="MR-MRQ" x="273.525" y="518.001" stroke-width="0" width="42.672" height="17.871"/>
	<rect id="MR-MRE" x="319.203" y="518.001" stroke-width="0" width="43.605" height="17.871"/>
	<rect id="MR-MRD" x="365.817" y="518.001" stroke-width="0" width="42.674" height="17.871"/>
	<polygon id="MR-MRC" stroke-width="0" points="420.098,545.357 411.494,536.753 411.494,518.001 452.604,518.001 452.604,545.357 	
		"/>
	<rect id="MR-MRB" x="455.61" y="518.001" stroke-width="0" width="53.34" height="27.355"/>
	<polygon id="MR-MRA" stroke-width="0" points="560.326,518.001 560.326,536.132 536.114,536.132 536.114,545.357 511.955,545.357 
		511.955,518.001 	"/>
	<rect id="MF-MFP" x="121.688" y="471.3" stroke-width="0" width="44.617" height="43.695"/>
	<rect id="MF-MFO" x="169.31" y="471.3" stroke-width="0" width="42.313" height="43.695"/>
	<rect id="MF-MFN" x="214.63" y="471.3" stroke-width="0" width="36.545" height="43.695"/>
	<rect id="MF-MFM" x="254.181" y="471.3" stroke-width="0" width="41.159" height="43.695"/>
	<polygon id="MF-MLF" stroke-width="0" points="326.803,504.539 339.505,504.539 339.505,514.996 298.342,514.996 298.277,494.787 
		326.803,494.787 	"/>
	<polygon id="MF-MFL" stroke-width="0" points="298.342,471.3 339.505,471.3 339.505,481.757 326.803,481.757 326.803,491.781 
		298.277,491.781 	"/>
	<rect id="MF-DIR" x="329.809" y="484.765" stroke-width="0" width="22.396" height="16.768"/>
	<polygon id="MF-MFK" stroke-width="0" points="342.512,504.539 355.215,504.539 355.215,481.757 342.512,481.757 342.512,471.3 
		383.67,471.3 383.67,514.996 342.512,514.996 	"/>
	<rect id="MF-MFJ" x="386.676" y="471.3" stroke-width="0" width="41.158" height="43.695"/>
	<rect id="MF-MFH" x="430.842" y="471.3" stroke-width="0" width="36.545" height="43.695"/>
	<rect id="MF-MFG" x="470.393" y="471.3" stroke-width="0" width="42.313" height="43.695"/>
	<rect id="MF-MFF" x="515.713" y="471.3" stroke-width="0" width="44.613" height="43.695"/>
	<polygon id="ENC-SW5" stroke-width="0" points="121.688,468.296 121.688,435.55 145.901,435.55 145.901,417.677 162.845,417.677 
		162.845,468.296 	"/>
	<rect id="ENC-SW4" x="165.852" y="417.677" stroke-width="0" width="41.159" height="50.617"/>
	<rect id="ENC-SW3" x="210.017" y="417.677" stroke-width="0" width="41.158" height="50.617"/>
	<rect id="ENC-SW2" x="254.181" y="417.677" stroke-width="0" width="41.159" height="50.617"/>
	<polygon id="ENC-SW1" stroke-width="0" points="298.347,417.677 339.505,417.677 339.505,453.802 310.711,453.802 298.347,466.169 	
		"/>
	<polygon id="ENC-SE5" stroke-width="0" points="371.305,453.802 342.512,453.802 342.512,417.677 383.67,417.677 383.67,466.169 	"/>
	<rect id="ENC-SE4" x="386.676" y="417.677" stroke-width="0" width="41.158" height="50.617"/>
	<rect id="ENC-SE3" x="430.844" y="417.677" stroke-width="0" width="41.158" height="50.617"/>
	<rect id="ENC-SE2" x="475.008" y="417.677" stroke-width="0" width="41.154" height="50.617"/>
	<polygon id="ENC-SE1" stroke-width="0" points="519.172,417.677 536.114,417.677 536.114,435.55 560.326,435.55 560.326,468.296 
		519.172,468.296 	"/>
	<rect id="CR-CR5" x="591.235" y="354.821" stroke-width="0" width="66.266" height="55.479"/>
	<rect id="CR-CR4" x="591.235" y="312.479" stroke-width="0" width="66.266" height="39.336"/>
	<rect id="CR-CR3" x="591.235" y="270.137" stroke-width="0" width="66.266" height="39.337"/>
	<rect id="CR-CR2" x="591.235" y="227.794" stroke-width="0" width="66.266" height="39.337"/>
	<rect id="CR-CR1" x="591.235" y="177.634" stroke-width="0" width="66.266" height="47.153"/>
	<rect id="CR-CRN" x="591.235" y="164.515" stroke-width="0" width="6.416" height="10.113"/>
	<rect id="CF-CF5" x="527.709" y="354.821" stroke-width="0" width="60.521" height="55.479"/>
	<rect id="CF-CF4" x="527.709" y="312.479" stroke-width="0" width="60.521" height="39.336"/>
	<rect id="CF-CF3" x="527.709" y="270.137" stroke-width="0" width="60.521" height="39.337"/>
	<rect id="CF-CF2" x="527.709" y="227.794" stroke-width="0" width="60.521" height="39.337"/>
	<rect id="CF-CF1" x="527.709" y="185.452" stroke-width="0" width="60.521" height="39.336"/>
	<polygon id="GE-GE3" stroke-width="0" points="527.709,166.786 564.719,147.294 588.229,147.294 588.229,182.446 527.723,182.446 	
		"/>
	<polygon id="GE-GE2" stroke-width="0" points="557.049,110.392 562.846,116.189 562.846,144.882 526.5,164.032 516.975,154.522 
		528.604,110.392 	"/>
	<polygon id="GE-GE1" stroke-width="0" points="525.518,110.392 514.598,153.473 492.02,153.473 492.02,92.125 504.627,92.125 
		504.627,110.392 	"/>
	<rect id="GF-GF7" x="448.477" y="92.125" stroke-width="0" width="40.537" height="61.348"/>
	<rect id="GF-GF6" x="406.088" y="92.125" stroke-width="0" width="39.385" height="61.348"/>
	<rect id="GF-GF5" x="363.696" y="92.125" stroke-width="0" width="39.383" height="61.348"/>
	<rect id="GF-GF4" x="321.309" y="92.125" stroke-width="0" width="39.385" height="61.348"/>
	<rect id="GF-GF3" x="278.919" y="92.125" stroke-width="0" width="39.384" height="61.348"/>
	<rect id="GF-GF2" x="236.529" y="92.125" stroke-width="0" width="39.385" height="61.348"/>
	<rect id="GF-GF1" x="192.986" y="92.125" stroke-width="0" width="40.537" height="61.348"/>
	<rect id="GR-GRE" x="507.633" y="82.704" stroke-width="0" width="10.109" height="6.415"/>
	<rect id="GR-GLE" x="342.505" y="82.704" stroke-width="0" width="162.122" height="6.415"/>
	<rect id="GR-GLW" x="177.375" y="82.704" stroke-width="0" width="162.121" height="6.415"/>
	<rect id="GR-GRW" x="164.255" y="82.704" stroke-width="0" width="10.113" height="6.415"/>
	<rect id="GR-GR7" x="448.477" y="24.103" stroke-width="0" width="56.15" height="55.594"/>
	<rect id="GR-GR6" x="406.088" y="24.103" stroke-width="0" width="39.385" height="55.594"/>
	<rect id="GR-GR5" x="363.696" y="24.103" stroke-width="0" width="39.383" height="55.594"/>
	<rect id="GR-GR4" x="321.309" y="24.103" stroke-width="0" width="39.385" height="55.594"/>
	<rect id="GR-GR3" x="278.919" y="24.103" stroke-width="0" width="39.384" height="55.594"/>
	<rect id="GR-GR2" x="236.529" y="24.103" stroke-width="0" width="39.385" height="55.594"/>
	<rect id="GR-GR1" x="177.375" y="24.103" stroke-width="0" width="56.147" height="55.594"/>
</g>
<g id="EXTRAS">
	<g>
		<path fill="#1A1D1E" d="M524.885,84.238h3.158v3.908c-0.828,0.352-1.761,0.527-2.795,0.527c-1.353,0-2.389-0.382-3.108-1.146
			c-0.72-0.764-1.081-1.845-1.081-3.243c0-0.871,0.179-1.644,0.536-2.317c0.356-0.673,0.869-1.194,1.535-1.562
			c0.666-0.368,1.431-0.551,2.294-0.551c0.934,0,1.771,0.172,2.514,0.516l-0.24,0.539c-0.742-0.344-1.512-0.516-2.309-0.516
			c-1.129,0-2.024,0.349-2.688,1.046s-0.992,1.638-0.992,2.821c0,1.289,0.313,2.259,0.942,2.909s1.553,0.976,2.771,0.976
			c0.789,0,1.459-0.111,2.01-0.334v-3.012h-2.549L524.885,84.238L524.885,84.238z"/>
		<path fill="#1A1D1E" d="M530.791,84.824v3.732h-0.599V79.99h2.039c1.063,0,1.848,0.196,2.355,0.589
			c0.507,0.393,0.762,0.983,0.762,1.772c0,0.574-0.151,1.059-0.454,1.453s-0.763,0.678-1.38,0.85l2.326,3.902h-0.716l-2.209-3.732
			H530.791z M530.791,84.309h1.635c0.723,0,1.283-0.161,1.682-0.483c0.399-0.322,0.598-0.798,0.598-1.427
			c0-0.652-0.194-1.127-0.586-1.424c-0.391-0.297-1.026-0.445-1.909-0.445h-1.418L530.791,84.309L530.791,84.309z"/>
		<path fill="#1A1D1E" d="M542.006,88.557h-4.683V79.99h4.683v0.551h-4.084v3.24h3.854v0.551h-3.854v3.674h4.084V88.557z"/>
	</g>
	<g>
		<path fill="#1A1D1E" d="M604.252,164.07c-1.074,0-1.92,0.344-2.537,1.031s-0.927,1.629-0.927,2.824
			c0,1.223,0.291,2.172,0.873,2.848c0.582,0.676,1.414,1.014,2.496,1.014c0.72,0,1.379-0.092,1.98-0.275v0.527
			c-0.566,0.199-1.273,0.299-2.121,0.299c-1.203,0-2.15-0.389-2.842-1.166c-0.692-0.777-1.037-1.863-1.037-3.258
			c0-0.871,0.165-1.639,0.495-2.303c0.33-0.664,0.805-1.177,1.424-1.538c0.619-0.361,1.339-0.542,2.159-0.542
			c0.836,0,1.584,0.156,2.244,0.469l-0.24,0.539C605.596,164.227,604.939,164.07,604.252,164.07z"/>
		<path fill="#1A1D1E" d="M608.646,168.488v3.731h-0.598v-8.566h2.039c1.063,0,1.848,0.196,2.354,0.589
			c0.507,0.393,0.762,0.983,0.762,1.772c0,0.574-0.15,1.059-0.453,1.453c-0.304,0.394-0.764,0.678-1.381,0.85l2.326,3.902h-0.715
			l-2.209-3.732H608.646z M608.646,167.973h1.635c0.724,0,1.283-0.161,1.683-0.483c0.398-0.322,0.598-0.798,0.598-1.427
			c0-0.652-0.195-1.127-0.586-1.424c-0.391-0.297-1.027-0.445-1.91-0.445h-1.418L608.646,167.973L608.646,167.973z"/>
		<path fill="#1A1D1E" d="M621.407,172.221h-0.604l-5.074-7.605h-0.047c0.047,0.906,0.07,1.59,0.07,2.051v5.555h-0.574v-8.566h0.598
			l5.068,7.594h0.035c-0.035-0.703-0.054-1.371-0.054-2.004v-5.59h0.58L621.407,172.221L621.407,172.221z"/>
	</g>
	<g>
		<path fill="#1A1D1E" d="M255.494,175.846c0,1.072-0.395,1.922-1.183,2.549s-1.835,0.94-3.142,0.94
			c-1.57,0-2.774-0.173-3.612-0.519v-0.896c0.926,0.393,2.106,0.589,3.542,0.589c1.055,0,1.892-0.242,2.509-0.725
			c0.618-0.483,0.928-1.118,0.928-1.903c0-0.486-0.104-0.889-0.309-1.208c-0.205-0.319-0.539-0.611-1.002-0.875
			c-0.463-0.264-1.143-0.548-2.039-0.853c-1.313-0.451-2.219-0.939-2.72-1.463s-0.751-1.223-0.751-2.096
			c0-0.961,0.376-1.745,1.129-2.351s1.721-0.91,2.905-0.91c1.207,0,2.341,0.229,3.4,0.686l-0.324,0.773
			c-1.066-0.445-2.086-0.668-3.06-0.668c-0.949,0-1.705,0.22-2.268,0.659c-0.563,0.439-0.845,1.037-0.845,1.793
			c0,0.475,0.087,0.864,0.26,1.169c0.173,0.305,0.456,0.579,0.848,0.822c0.392,0.243,1.066,0.535,2.021,0.875
			c1.002,0.346,1.755,0.681,2.259,1.006c0.504,0.325,0.872,0.694,1.103,1.107C255.376,174.76,255.494,175.26,255.494,175.846z"/>
		<path fill="#1A1D1E" d="M264.397,174.624h-5.221l-1.793,4.535h-0.993l5.168-12.902h0.571l5.063,12.902h-1.011L264.397,174.624z
			 M259.501,173.815h4.597l-1.749-4.632c-0.146-0.363-0.322-0.867-0.527-1.512c-0.157,0.563-0.33,1.072-0.519,1.529L259.501,173.815
			z"/>
		<path fill="#1A1D1E" d="M278.354,179.159h-0.904l-7.611-11.408h-0.07c0.07,1.359,0.105,2.385,0.105,3.076v8.332h-0.861v-12.85
			h0.896l7.603,11.391h0.053c-0.053-1.055-0.079-2.057-0.079-3.006v-8.385h0.87L278.354,179.159L278.354,179.159z"/>
		<path fill="#1A1D1E" d="M291.749,172.611c0,2.156-0.565,3.787-1.696,4.891s-2.792,1.657-4.983,1.657h-3.075v-12.85h3.472
			c2.051,0,3.611,0.536,4.68,1.608C291.215,168.989,291.749,170.555,291.749,172.611z M290.773,172.646
			c0-1.84-0.467-3.224-1.401-4.153c-0.936-0.929-2.308-1.393-4.118-1.393h-2.364v11.268h2.127
			C288.854,178.368,290.773,176.461,290.773,172.646z"/>
		<path fill="#1A1D1E" d="M297.655,173.341l3.762-7.031h0.968l-4.28,7.884v4.966h-0.923v-4.896l-4.298-7.954h1.028L297.655,173.341z
			"/>
		<path fill="#1A1D1E" d="M306.769,182.402c-0.539,0-0.981-0.079-1.327-0.237v-0.773c0.457,0.117,0.895,0.176,1.311,0.176
			c1.418,0,2.127-0.773,2.127-2.32V166.31h0.896v12.85C309.775,181.321,308.773,182.402,306.769,182.402z"/>
		<path fill="#1A1D1E" d="M319.513,174.624h-5.222l-1.793,4.535h-0.992l5.168-12.902h0.57l5.063,12.902h-1.011L319.513,174.624z
			 M314.617,173.815h4.598l-1.749-4.632c-0.146-0.363-0.322-0.867-0.527-1.512c-0.158,0.563-0.331,1.072-0.519,1.529
			L314.617,173.815z"/>
		<path fill="#1A1D1E" d="M325.024,173.561v5.599h-0.896v-12.85h3.059c1.594,0,2.771,0.294,3.533,0.883
			c0.762,0.589,1.143,1.475,1.143,2.659c0,0.861-0.227,1.588-0.681,2.18c-0.454,0.592-1.145,1.017-2.07,1.274l3.489,5.854h-1.072
			l-3.313-5.599H325.024L325.024,173.561z M325.024,172.787h2.452c1.084,0,1.925-0.242,2.521-0.725
			c0.598-0.483,0.896-1.197,0.896-2.14c0-0.979-0.293-1.69-0.879-2.136c-0.586-0.446-1.541-0.668-2.865-0.668h-2.127
			L325.024,172.787L325.024,172.787z"/>
		<path fill="#1A1D1E" d="M344.579,172.611c0,2.156-0.565,3.787-1.696,4.891s-2.792,1.657-4.983,1.657h-3.076v-12.85h3.473
			c2.051,0,3.61,0.536,4.68,1.608S344.579,170.555,344.579,172.611z M343.604,172.646c0-1.84-0.467-3.224-1.401-4.153
			c-0.934-0.929-2.307-1.393-4.117-1.393h-2.364v11.268h2.127C341.686,178.368,343.604,176.461,343.604,172.646z"/>
		<path fill="#1A1D1E" d="M347.532,179.159v-12.85h0.896v12.85H347.532z"/>
		<path fill="#1A1D1E" d="M361.409,179.159h-0.903l-7.611-11.408h-0.07c0.07,1.359,0.105,2.385,0.105,3.076v8.332h-0.861v-12.85
			h0.896l7.602,11.391h0.053c-0.053-1.055-0.077-2.057-0.077-3.006v-8.385h0.868L361.409,179.159L361.409,179.159z"/>
		<path fill="#1A1D1E" d="M372.072,179.159h-7.022v-12.85h7.022v0.826h-6.127v4.86h5.783v0.826h-5.783v5.511h6.127V179.159z"/>
		<path fill="#1A1D1E" d="M380.553,179.159h-0.896v-12.85h7.041v0.826h-6.145v5.449h5.801v0.835h-5.801V179.159z"/>
		<path fill="#1A1D1E" d="M389.588,173.561v5.599h-0.896v-12.85h3.06c1.594,0,2.771,0.294,3.532,0.883
			c0.763,0.589,1.144,1.475,1.144,2.659c0,0.861-0.228,1.588-0.682,2.18c-0.454,0.592-1.144,1.017-2.068,1.274l3.487,5.854h-1.071
			l-3.313-5.599H389.588L389.588,173.561z M389.588,172.787h2.453c1.084,0,1.924-0.242,2.521-0.725s0.896-1.197,0.896-2.14
			c0-0.979-0.293-1.69-0.879-2.136c-0.586-0.446-1.541-0.668-2.864-0.668h-2.127L389.588,172.787L389.588,172.787z"/>
		<path fill="#1A1D1E" d="M410.189,172.717c0,2.039-0.51,3.652-1.529,4.838c-1.019,1.186-2.426,1.78-4.219,1.78
			c-1.787,0-3.188-0.593-4.209-1.78c-1.02-1.187-1.529-2.805-1.529-4.856c0-2.045,0.515-3.655,1.542-4.83
			c1.028-1.175,2.434-1.762,4.215-1.762c1.793,0,3.196,0.59,4.211,1.771C409.684,169.059,410.189,170.672,410.189,172.717z
			 M399.678,172.717c0,1.84,0.41,3.262,1.229,4.267c0.82,1.005,1.998,1.507,3.533,1.507c1.547,0,2.729-0.498,3.547-1.494
			c0.816-0.996,1.228-2.423,1.228-4.28c0-1.852-0.41-3.271-1.228-4.258s-1.994-1.481-3.528-1.481c-1.529,0-2.709,0.498-3.537,1.494
			C400.093,169.468,399.678,170.883,399.678,172.717z"/>
		<path fill="#1A1D1E" d="M422.486,179.159h-0.905l-7.61-11.408h-0.07c0.07,1.359,0.105,2.385,0.105,3.076v8.332h-0.861v-12.85
			h0.896l7.604,11.391h0.053c-0.053-1.055-0.079-2.057-0.079-3.006v-8.385h0.87L422.486,179.159L422.486,179.159z"/>
		<path fill="#1A1D1E" d="M429.473,179.159h-0.905v-12.006h-4.175v-0.844h9.255v0.844h-4.175V179.159L429.473,179.159z"/>
	</g>
	<g>
		<path fill="#1A1D1E" d="M269.266,14.028c0,1.072-0.394,1.922-1.182,2.549s-1.835,0.94-3.143,0.94
			c-1.569,0-2.773-0.173-3.611-0.519v-0.896c0.926,0.393,2.105,0.589,3.542,0.589c1.055,0,1.891-0.242,2.509-0.725
			c0.618-0.483,0.927-1.118,0.927-1.903c0-0.486-0.103-0.889-0.308-1.208s-0.539-0.611-1.002-0.875s-1.144-0.548-2.039-0.853
			c-1.313-0.451-2.22-0.939-2.721-1.463s-0.751-1.223-0.751-2.096c0-0.961,0.376-1.745,1.129-2.351
			c0.754-0.606,1.722-0.91,2.905-0.91c1.207,0,2.341,0.229,3.401,0.686l-0.325,0.773c-1.066-0.445-2.086-0.668-3.059-0.668
			c-0.949,0-1.705,0.22-2.269,0.659c-0.563,0.439-0.844,1.037-0.844,1.793c0,0.475,0.086,0.864,0.259,1.169
			c0.173,0.305,0.456,0.579,0.848,0.822c0.393,0.243,1.066,0.535,2.021,0.875c1.002,0.346,1.755,0.681,2.259,1.006
			c0.504,0.325,0.872,0.694,1.104,1.107C269.148,12.942,269.266,13.442,269.266,14.028z"/>
		<path fill="#1A1D1E" d="M278.169,12.807h-5.222l-1.793,4.535h-0.992L275.33,4.44h0.57l5.063,12.902h-1.011L278.169,12.807z
			 M273.274,11.998h4.598l-1.749-4.632c-0.146-0.363-0.322-0.867-0.527-1.512c-0.158,0.563-0.331,1.072-0.519,1.529L273.274,11.998z
			"/>
		<path fill="#1A1D1E" d="M292.126,17.342h-0.905L283.61,5.934h-0.069c0.069,1.359,0.104,2.385,0.104,3.076v8.332h-0.86V4.492h0.896
			l7.604,11.391h0.053c-0.053-1.055-0.079-2.057-0.079-3.006V4.492h0.87L292.126,17.342L292.126,17.342z"/>
		<path fill="#1A1D1E" d="M305.521,10.794c0,2.156-0.565,3.787-1.696,4.891s-2.792,1.657-4.982,1.657h-3.076V4.492h3.472
			c2.051,0,3.611,0.536,4.681,1.608C304.987,7.172,305.521,8.737,305.521,10.794z M304.545,10.829c0-1.84-0.468-3.224-1.402-4.153
			c-0.936-0.929-2.307-1.393-4.118-1.393h-2.363v11.268h2.126C302.626,16.551,304.545,14.644,304.545,10.829z"/>
		<path fill="#1A1D1E" d="M311.427,11.523l3.762-7.031h0.967l-4.279,7.884v4.966h-0.924v-4.896l-4.298-7.954h1.028L311.427,11.523z"
			/>
		<path fill="#1A1D1E" d="M320.541,20.585c-0.538,0-0.98-0.079-1.326-0.237v-0.773c0.457,0.117,0.894,0.176,1.31,0.176
			c1.418,0,2.127-0.773,2.127-2.32V4.492h0.896v12.85C323.547,19.504,322.545,20.585,320.541,20.585z"/>
		<path fill="#1A1D1E" d="M333.285,12.807h-5.221l-1.793,4.535h-0.993l5.168-12.902h0.571l5.063,12.902h-1.011L333.285,12.807z
			 M328.39,11.998h4.597l-1.749-4.632c-0.146-0.363-0.321-0.867-0.526-1.512c-0.158,0.563-0.331,1.072-0.52,1.529L328.39,11.998z"/>
		<path fill="#1A1D1E" d="M338.796,11.743v5.599H337.9V4.492h3.06c1.594,0,2.771,0.294,3.533,0.883
			c0.763,0.589,1.144,1.475,1.144,2.659c0,0.861-0.229,1.588-0.683,2.18c-0.454,0.592-1.145,1.017-2.069,1.274l3.489,5.854h-1.071
			l-3.314-5.599H338.796z M338.796,10.97h2.451c1.084,0,1.927-0.242,2.523-0.725s0.896-1.197,0.896-2.14
			c0-0.979-0.293-1.69-0.879-2.136c-0.586-0.446-1.541-0.668-2.865-0.668h-2.127L338.796,10.97L338.796,10.97z"/>
		<path fill="#1A1D1E" d="M358.352,10.794c0,2.156-0.564,3.787-1.695,4.891s-2.793,1.657-4.983,1.657h-3.076V4.492h3.473
			c2.051,0,3.61,0.536,4.68,1.608C357.82,7.172,358.352,8.737,358.352,10.794z M357.377,10.829c0-1.84-0.469-3.224-1.402-4.153
			c-0.935-0.929-2.307-1.393-4.117-1.393h-2.365v11.268h2.127C355.456,16.551,357.377,14.644,357.377,10.829z"/>
		<path fill="#1A1D1E" d="M361.305,17.342V4.492h0.896v12.85H361.305z"/>
		<path fill="#1A1D1E" d="M375.184,17.342h-0.906l-7.611-11.408h-0.069c0.069,1.359,0.104,2.385,0.104,3.076v8.332h-0.86V4.492
			h0.896l7.604,11.391h0.053c-0.053-1.055-0.08-2.057-0.08-3.006V4.492h0.871L375.184,17.342L375.184,17.342z"/>
		<path fill="#1A1D1E" d="M385.844,17.342h-7.021V4.492h7.021v0.826h-6.125v4.86h5.783v0.826h-5.783v5.511h6.125V17.342z"/>
		<path fill="#1A1D1E" d="M394.325,11.743v5.599h-0.896V4.492h3.059c1.594,0,2.771,0.294,3.533,0.883s1.143,1.475,1.143,2.659
			c0,0.861-0.228,1.588-0.682,2.18c-0.454,0.592-1.145,1.017-2.07,1.274l3.49,5.854h-1.072l-3.313-5.599H394.325z M394.325,10.97
			h2.451c1.084,0,1.926-0.242,2.523-0.725c0.597-0.483,0.896-1.197,0.896-2.14c0-0.979-0.293-1.69-0.879-2.136
			c-0.586-0.446-1.541-0.668-2.865-0.668h-2.127L394.325,10.97L394.325,10.97z"/>
		<path fill="#1A1D1E" d="M411.148,17.342h-7.021V4.492h7.021v0.826h-6.126v4.86h5.783v0.826h-5.783v5.511h6.126V17.342z"/>
		<path fill="#1A1D1E" d="M420.244,12.807h-5.221l-1.793,4.535h-0.993l5.168-12.902h0.571l5.063,12.902h-1.011L420.244,12.807z
			 M415.35,11.998h4.597l-1.749-4.632c-0.146-0.363-0.321-0.867-0.526-1.512c-0.158,0.563-0.331,1.072-0.52,1.529L415.35,11.998z"/>
		<path fill="#1A1D1E" d="M425.755,11.743v5.599h-0.896V4.492h3.06c1.594,0,2.771,0.294,3.532,0.883
			c0.763,0.589,1.144,1.475,1.144,2.659c0,0.861-0.229,1.588-0.682,2.18c-0.455,0.592-1.145,1.017-2.069,1.274l3.488,5.854h-1.071
			l-3.313-5.599H425.755z M425.755,10.97h2.451c1.085,0,1.926-0.242,2.522-0.725s0.896-1.197,0.896-2.14
			c0-0.979-0.294-1.69-0.88-2.136c-0.586-0.446-1.541-0.668-2.864-0.668h-2.127L425.755,10.97L425.755,10.97z"/>
	</g>
	<g>
		<path fill="#1A1D1E" d="M519.104,221.994c0-1.611-0.516-2.88-1.547-3.806c-1.031-0.926-2.443-1.389-4.236-1.389
			c-1.834,0-3.258,0.437-4.271,1.31c-1.014,0.873-1.521,2.121-1.521,3.744c0,1.078,0.137,2.068,0.412,2.971h-0.791
			c-0.299-0.85-0.447-1.91-0.447-3.182c0-1.805,0.582-3.226,1.748-4.263s2.795-1.556,4.888-1.556c1.307,0,2.459,0.247,3.455,0.743
			c0.995,0.494,1.765,1.206,2.307,2.135c0.542,0.929,0.813,2.009,0.813,3.239c0,1.254-0.233,2.376-0.702,3.366l-0.81-0.36
			C518.868,224.01,519.104,223.025,519.104,221.994z"/>
		<path fill="#1A1D1E" d="M513.32,238.491c-2.039,0-3.65-0.51-4.838-1.529c-1.187-1.019-1.779-2.426-1.779-4.219
			c0-1.787,0.594-3.19,1.779-4.21c1.187-1.02,2.805-1.529,4.855-1.529c2.045,0,3.654,0.515,4.829,1.542
			c1.176,1.029,1.763,2.434,1.763,4.215c0,1.793-0.59,3.196-1.771,4.21C516.977,237.985,515.365,238.491,513.32,238.491z
			 M513.32,227.979c-1.84,0-3.262,0.41-4.267,1.23s-1.507,1.998-1.507,3.533c0,1.547,0.498,2.729,1.493,3.547
			c0.996,0.816,2.423,1.226,4.279,1.226c1.853,0,3.271-0.409,4.259-1.226c0.987-0.818,1.481-1.994,1.481-3.529
			c0-1.529-0.498-2.709-1.494-3.537C516.57,228.394,515.154,227.979,513.32,227.979z"/>
		<path fill="#1A1D1E" d="M516.036,249.179c-1.241,0-2.194-0.422-2.856-1.266c-0.662-0.844-0.992-2.039-0.992-3.586v-1.986h-5.309
			v-0.896h12.85v3.146C519.729,247.649,518.497,249.179,516.036,249.179z M512.961,242.341v1.767c0,1.447,0.237,2.493,0.716,3.138
			c0.478,0.645,1.253,0.967,2.325,0.967c0.989,0,1.724-0.305,2.2-0.914c0.478-0.609,0.718-1.553,0.718-2.83v-2.127L512.961,242.341
			L512.961,242.341z"/>
		<path fill="#1A1D1E" d="M506.879,251.974h12.85v0.896h-12.006v6.126h-0.844V251.974z"/>
		<path fill="#1A1D1E" d="M511.413,267.398v-5.221l-4.534-1.793v-0.993l12.901,5.168v0.571l-12.901,5.063v-1.011L511.413,267.398z
			 M512.223,262.503v4.597l4.631-1.749c0.363-0.146,0.867-0.322,1.512-0.527c-0.563-0.158-1.071-0.331-1.528-0.52L512.223,262.503z"
			/>
		<path fill="#1A1D1E" d="M506.879,281.355v-0.905l11.407-7.611v-0.07c-1.358,0.07-2.385,0.105-3.075,0.105h-8.332v-0.861h12.85
			v0.896l-11.391,7.603v0.053c1.055-0.053,2.057-0.079,3.006-0.079h8.385v0.87L506.879,281.355L506.879,281.355z"/>
		<path fill="#1A1D1E" d="M513.426,294.75c-2.156,0-3.786-0.565-4.892-1.696c-1.104-1.131-1.655-2.792-1.655-4.983v-3.076h12.85
			v3.472c0,2.051-0.537,3.61-1.609,4.68C517.048,294.217,515.482,294.75,513.426,294.75z M513.391,293.774
			c1.84,0,3.225-0.468,4.153-1.402c0.928-0.934,1.394-2.307,1.394-4.117v-2.364H507.67v2.127
			C507.67,291.855,509.575,293.774,513.391,293.774z"/>
		<path fill="#1A1D1E" d="M506.879,303.275v-0.896h12.85v7.04h-0.826v-6.144h-5.449v5.801h-0.836v-5.801H506.879z"/>
		<path fill="#1A1D1E" d="M512.477,312.311h-5.598v-0.896h12.85v3.059c0,1.594-0.295,2.771-0.884,3.533
			c-0.589,0.762-1.477,1.143-2.659,1.143c-0.861,0-1.588-0.228-2.18-0.681c-0.592-0.455-1.017-1.145-1.273-2.07l-5.854,3.489v-1.072
			l5.598-3.313V312.311L512.477,312.311z M513.25,312.311v2.452c0,1.084,0.241,1.925,0.726,2.522
			c0.484,0.597,1.196,0.896,2.14,0.896c0.979,0,1.691-0.293,2.138-0.879c0.445-0.586,0.668-1.541,0.668-2.865v-2.127L513.25,312.311
			L513.25,312.311z"/>
		<path fill="#1A1D1E" d="M513.32,332.912c-2.039,0-3.65-0.51-4.838-1.529c-1.187-1.018-1.779-2.426-1.779-4.219
			c0-1.787,0.594-3.189,1.779-4.209c1.187-1.021,2.805-1.53,4.855-1.53c2.045,0,3.654,0.515,4.829,1.542
			c1.176,1.029,1.763,2.435,1.763,4.216c0,1.793-0.59,3.196-1.771,4.21C516.977,332.406,515.365,332.912,513.32,332.912z
			 M513.32,322.4c-1.84,0-3.262,0.41-4.267,1.23s-1.507,1.998-1.507,3.533c0,1.547,0.498,2.729,1.493,3.547
			c0.996,0.815,2.423,1.226,4.279,1.226c1.853,0,3.271-0.409,4.259-1.226c0.987-0.818,1.481-1.994,1.481-3.529
			c0-1.529-0.498-2.709-1.494-3.537C516.57,322.814,515.154,322.4,513.32,322.4z"/>
		<path fill="#1A1D1E" d="M506.879,345.208v-0.905l11.407-7.611v-0.069c-1.358,0.069-2.385,0.104-3.075,0.104h-8.332v-0.86h12.85
			v0.896l-11.391,7.603v0.053c1.055-0.053,2.057-0.078,3.006-0.078h8.385v0.869H506.879L506.879,345.208z"/>
		<path fill="#1A1D1E" d="M506.879,352.195v-0.904h12.006v-4.176h0.844v9.256h-0.844v-4.176H506.879L506.879,352.195z"/>
	</g>
	<g>
		<path fill="#1A1D1E" d="M676.684,228.88c0-1.611-0.516-2.88-1.547-3.806c-1.031-0.926-2.443-1.389-4.236-1.389
			c-1.834,0-3.258,0.437-4.271,1.31c-1.014,0.873-1.521,2.121-1.521,3.744c0,1.078,0.138,2.068,0.413,2.971h-0.791
			c-0.299-0.85-0.448-1.91-0.448-3.182c0-1.805,0.583-3.226,1.749-4.263c1.166-1.037,2.795-1.556,4.888-1.556
			c1.307,0,2.458,0.247,3.454,0.743c0.995,0.494,1.765,1.206,2.308,2.135c0.541,0.929,0.813,2.009,0.813,3.239
			c0,1.254-0.233,2.376-0.702,3.366l-0.81-0.36C676.448,230.896,676.684,229.911,676.684,228.88z"/>
		<path fill="#1A1D1E" d="M670.9,245.377c-2.039,0-3.651-0.51-4.838-1.529c-1.188-1.02-1.78-2.426-1.78-4.219
			c0-1.787,0.594-3.19,1.78-4.21c1.186-1.02,2.805-1.529,4.854-1.529c2.046,0,3.654,0.515,4.83,1.542
			c1.175,1.029,1.763,2.434,1.763,4.215c0,1.793-0.59,3.196-1.771,4.21C674.559,244.87,672.945,245.377,670.9,245.377z
			 M670.9,234.865c-1.84,0-3.262,0.41-4.268,1.229c-1.004,0.82-1.507,1.998-1.507,3.533c0,1.547,0.497,2.729,1.493,3.547
			c0.996,0.816,2.423,1.226,4.28,1.226c1.853,0,3.271-0.409,4.258-1.226c0.988-0.818,1.481-1.994,1.481-3.529
			c0-1.529-0.498-2.709-1.494-3.537C674.149,235.279,672.734,234.865,670.9,234.865z"/>
		<path fill="#1A1D1E" d="M673.615,256.064c-1.242,0-2.193-0.422-2.855-1.266c-0.662-0.844-0.993-2.039-0.993-3.586v-1.986h-5.31
			v-0.896h12.851v3.146C677.308,254.535,676.076,256.064,673.615,256.064z M670.539,249.227v1.767c0,1.447,0.239,2.493,0.717,3.138
			c0.479,0.645,1.253,0.967,2.324,0.967c0.99,0,1.725-0.305,2.202-0.914s0.716-1.553,0.716-2.83v-2.127L670.539,249.227
			L670.539,249.227z"/>
		<path fill="#1A1D1E" d="M664.457,258.859h12.851v0.896h-12.006v6.126h-0.845V258.859z"/>
		<path fill="#1A1D1E" d="M668.992,274.284v-5.221l-4.535-1.793v-0.993l12.902,5.168v0.571l-12.902,5.063v-1.011L668.992,274.284z
			 M669.802,269.389v4.597l4.632-1.749c0.363-0.146,0.867-0.322,1.512-0.527c-0.563-0.158-1.072-0.331-1.528-0.519L669.802,269.389z
			"/>
		<path fill="#1A1D1E" d="M664.457,288.241v-0.905l11.408-7.611v-0.07c-1.358,0.07-2.385,0.104-3.076,0.104h-8.331v-0.861h12.85
			v0.896l-11.391,7.603v0.053c1.055-0.053,2.057-0.079,3.006-0.079h8.385v0.87L664.457,288.241L664.457,288.241z"/>
		<path fill="#1A1D1E" d="M671.006,301.636c-2.156,0-3.787-0.565-4.892-1.696s-1.657-2.792-1.657-4.983v-3.076h12.851v3.472
			c0,2.051-0.536,3.61-1.608,4.68C674.628,301.103,673.063,301.636,671.006,301.636z M670.971,300.66
			c1.84,0,3.225-0.468,4.151-1.402c0.931-0.935,1.395-2.307,1.395-4.117v-2.364h-11.269v2.127
			C665.248,298.741,667.156,300.66,670.971,300.66z"/>
		<path fill="#1A1D1E" d="M670.057,310.161h-5.6v-0.896h12.851v3.059c0,1.594-0.294,2.771-0.884,3.533
			c-0.588,0.762-1.476,1.143-2.658,1.143c-0.861,0-1.588-0.228-2.18-0.681c-0.593-0.455-1.018-1.145-1.274-2.07l-5.854,3.489v-1.072
			l5.6-3.313V310.161z M670.829,310.161v2.452c0,1.084,0.242,1.925,0.726,2.521c0.483,0.598,1.197,0.896,2.141,0.896
			c0.979,0,1.69-0.293,2.136-0.879c0.446-0.586,0.669-1.541,0.669-2.865v-2.127L670.829,310.161L670.829,310.161z"/>
		<path fill="#1A1D1E" d="M664.457,326.983v-7.022h12.851v7.022h-0.826v-6.126h-4.86v5.783h-0.825v-5.783h-5.512v6.126H664.457z"/>
		<path fill="#1A1D1E" d="M668.992,336.08v-5.221l-4.535-1.793v-0.992l12.902,5.168v0.57l-12.902,5.063v-1.011L668.992,336.08z
			 M669.802,331.185v4.598l4.632-1.75c0.363-0.146,0.867-0.322,1.512-0.527c-0.563-0.157-1.072-0.33-1.528-0.519L669.802,331.185z"
			/>
		<path fill="#1A1D1E" d="M670.057,341.591h-5.6v-0.896h12.851v3.059c0,1.595-0.294,2.771-0.884,3.533
			c-0.588,0.762-1.476,1.144-2.658,1.144c-0.861,0-1.588-0.228-2.18-0.681c-0.593-0.455-1.018-1.146-1.274-2.07l-5.854,3.488v-1.071
			l5.6-3.313V341.591z M670.829,341.591v2.451c0,1.084,0.242,1.926,0.726,2.522c0.483,0.599,1.197,0.896,2.141,0.896
			c0.979,0,1.69-0.293,2.136-0.879c0.446-0.586,0.669-1.541,0.669-2.865v-2.127h-5.671V341.591z"/>
	</g>
	<g>
		<path fill="#1A1D1E" d="M162.193,369.94v-3.524c0-1.588,0.271-2.754,0.81-3.498s1.354-1.115,2.442-1.115
			c0.744,0,1.364,0.227,1.859,0.681s0.813,1.118,0.953,1.991h0.053c0.152-1.025,0.478-1.78,0.971-2.264
			c0.496-0.483,1.187-0.726,2.07-0.726c1.185,0,2.095,0.394,2.733,1.179c0.638,0.785,0.958,1.897,0.958,3.34v3.938L162.193,369.94
			L162.193,369.94z M167.915,369.044v-2.83c0-1.207-0.2-2.086-0.604-2.633c-0.399-0.549-1.028-0.822-1.885-0.822
			s-1.477,0.31-1.863,0.928c-0.386,0.618-0.58,1.539-0.58,2.764v2.594H167.915L167.915,369.044z M168.706,369.044h5.546v-3.023
			c0-2.379-0.967-3.568-2.9-3.568c-1.764,0-2.646,1.254-2.646,3.762V369.044L168.706,369.044z"/>
		<path fill="#1A1D1E" d="M169.444,357.759h5.6v0.896h-12.851v-3.059c0-1.595,0.295-2.771,0.884-3.533
			c0.59-0.763,1.476-1.144,2.658-1.144c0.861,0,1.588,0.228,2.181,0.682c0.592,0.454,1.017,1.145,1.273,2.068l5.854-3.487v1.071
			l-5.6,3.313V357.759L169.444,357.759z M168.67,357.759v-2.453c0-1.084-0.241-1.924-0.727-2.521
			c-0.481-0.598-1.195-0.896-2.14-0.896c-0.979,0-1.69,0.293-2.136,0.879c-0.446,0.586-0.668,1.541-0.668,2.864v2.127H168.67
			L168.67,357.759z"/>
		<path fill="#1A1D1E" d="M168.6,337.158c2.039,0,3.651,0.51,4.839,1.528c1.187,1.021,1.779,2.426,1.779,4.219
			c0,1.787-0.594,3.188-1.779,4.21c-1.188,1.02-2.806,1.528-4.855,1.528c-2.045,0-3.654-0.515-4.829-1.542s-1.763-2.434-1.763-4.214
			c0-1.793,0.591-3.197,1.771-4.212C164.943,337.664,166.555,337.158,168.6,337.158z M168.6,347.669c1.84,0,3.263-0.41,4.268-1.23
			c1.006-0.82,1.508-1.998,1.508-3.533c0-1.547-0.498-2.729-1.494-3.547s-2.423-1.227-4.28-1.227c-1.852,0-3.271,0.408-4.259,1.227
			c-0.986,0.816-1.48,1.994-1.48,3.529c0,1.529,0.498,2.708,1.494,3.537C165.352,347.253,166.766,347.669,168.6,347.669z"/>
		<path fill="#1A1D1E" d="M168.6,323.402c2.039,0,3.651,0.51,4.839,1.529c1.187,1.02,1.779,2.426,1.779,4.219
			c0,1.787-0.594,3.191-1.779,4.211c-1.188,1.02-2.806,1.529-4.855,1.529c-2.045,0-3.654-0.516-4.829-1.543
			c-1.175-1.028-1.763-2.434-1.763-4.215c0-1.793,0.591-3.195,1.771-4.209C164.943,323.91,166.555,323.402,168.6,323.402z
			 M168.6,333.914c1.84,0,3.263-0.41,4.268-1.23c1.006-0.82,1.508-1.998,1.508-3.533c0-1.547-0.498-2.729-1.494-3.546
			s-2.423-1.226-4.28-1.226c-1.852,0-3.271,0.408-4.259,1.226c-0.986,0.817-1.48,1.993-1.48,3.528c0,1.529,0.498,2.709,1.494,3.537
			C165.352,333.5,166.766,333.914,168.6,333.914z"/>
		<path fill="#1A1D1E" d="M175.042,314.797l-11.865,4.79v0.07c0.727-0.047,1.471-0.07,2.232-0.07h9.633v0.861h-12.851v-1.389
			l11.304-4.553v-0.053l-11.304-4.553v-1.354h12.851v0.905h-9.738c-0.68,0-1.383-0.035-2.109-0.105v0.07l11.849,4.808
			L175.042,314.797L175.042,314.797z"/>
		<path fill="#1A1D1E" d="M175.042,304.918h-12.851v-0.896h12.006v-6.126h0.845V304.918L175.042,304.918z"/>
		<path fill="#1A1D1E" d="M168.6,284.879c2.039,0,3.651,0.51,4.839,1.529c1.187,1.02,1.779,2.426,1.779,4.219
			c0,1.787-0.594,3.19-1.779,4.21c-1.188,1.02-2.806,1.529-4.855,1.529c-2.045,0-3.654-0.514-4.829-1.542
			c-1.175-1.028-1.763-2.433-1.763-4.214c0-1.793,0.591-3.196,1.771-4.21C164.943,285.386,166.555,284.879,168.6,284.879z
			 M168.6,295.391c1.84,0,3.263-0.41,4.268-1.23c1.006-0.82,1.508-1.998,1.508-3.533c0-1.547-0.498-2.729-1.494-3.546
			s-2.423-1.226-4.28-1.226c-1.852,0-3.271,0.409-4.259,1.226c-0.986,0.817-1.48,1.994-1.48,3.529c0,1.529,0.498,2.708,1.494,3.538
			S166.766,295.391,168.6,295.391z"/>
		<path fill="#1A1D1E" d="M170.507,275.739v5.221l4.535,1.793v0.993l-12.902-5.168v-0.571l12.902-5.063v1.011L170.507,275.739z
			 M169.699,280.634v-4.597l-4.633,1.749c-0.362,0.146-0.866,0.322-1.512,0.527c0.563,0.158,1.072,0.331,1.529,0.519
			L169.699,280.634z"/>
		<path fill="#1A1D1E" d="M175.042,261.782v0.905l-11.408,7.611v0.07c1.359-0.07,2.385-0.105,3.076-0.105h8.332v0.861h-12.851
			v-0.896l11.392-7.603v-0.053c-1.056,0.053-2.058,0.079-3.006,0.079h-8.386v-0.87L175.042,261.782L175.042,261.782z"/>
		<path fill="#1A1D1E" d="M175.042,252.571v0.896h-12.851v-7.04h0.826v6.144h5.449v-5.801h0.835v5.801H175.042z"/>
		<path fill="#1A1D1E" d="M169.444,243.536h5.6v0.896h-12.851v-3.059c0-1.594,0.295-2.771,0.884-3.533
			c0.59-0.762,1.476-1.143,2.658-1.143c0.861,0,1.588,0.227,2.181,0.681c0.592,0.454,1.017,1.144,1.273,2.07l5.854-3.489v1.072
			l-5.6,3.313V243.536L169.444,243.536z M168.67,243.536v-2.452c0-1.084-0.241-1.925-0.727-2.522
			c-0.481-0.598-1.195-0.896-2.14-0.896c-0.979,0-1.69,0.293-2.136,0.879c-0.446,0.586-0.668,1.541-0.668,2.865v2.127
			L168.67,243.536L168.67,243.536z"/>
		<path fill="#1A1D1E" d="M168.6,222.934c2.039,0,3.651,0.51,4.839,1.529c1.187,1.02,1.779,2.426,1.779,4.219
			c0,1.787-0.594,3.19-1.779,4.21c-1.188,1.02-2.806,1.529-4.855,1.529c-2.045,0-3.654-0.514-4.829-1.542
			c-1.175-1.028-1.763-2.433-1.763-4.214c0-1.793,0.591-3.196,1.771-4.21C164.943,223.441,166.555,222.934,168.6,222.934z
			 M168.6,233.446c1.84,0,3.263-0.41,4.268-1.23c1.006-0.82,1.508-1.998,1.508-3.533c0-1.547-0.498-2.729-1.494-3.546
			c-0.996-0.817-2.423-1.226-4.28-1.226c-1.852,0-3.271,0.409-4.259,1.226c-0.986,0.817-1.48,1.994-1.48,3.529
			c0,1.529,0.498,2.708,1.494,3.538S166.766,233.446,168.6,233.446z"/>
		<path fill="#1A1D1E" d="M175.042,210.638v0.905l-11.408,7.611v0.07c1.359-0.07,2.385-0.105,3.076-0.105h8.332v0.861h-12.851
			v-0.896l11.392-7.603v-0.053c-1.056,0.053-2.058,0.079-3.006,0.079h-8.386v-0.87L175.042,210.638L175.042,210.638z"/>
		<path fill="#1A1D1E" d="M175.042,203.651v0.904h-12.006v4.175h-0.845v-9.255h0.845v4.176H175.042z"/>
	</g>
	<g>
		<path fill="#1A1D1E" d="M4.691,363.054v-3.524c0-1.588,0.271-2.754,0.81-3.497c0.539-0.744,1.354-1.117,2.442-1.117
			c0.744,0,1.364,0.228,1.859,0.683c0.495,0.452,0.813,1.116,0.953,1.989h0.053c0.152-1.024,0.478-1.778,0.971-2.264
			c0.496-0.482,1.187-0.725,2.07-0.725c1.185,0,2.095,0.393,2.733,1.178c0.638,0.785,0.958,1.898,0.958,3.34v3.938L4.691,363.054
			L4.691,363.054z M10.413,362.158v-2.83c0-1.207-0.2-2.084-0.604-2.634c-0.399-0.547-1.029-0.821-1.885-0.821
			c-0.856,0-1.477,0.311-1.863,0.928c-0.387,0.619-0.58,1.539-0.58,2.765v2.593H10.413L10.413,362.158z M11.204,362.158h5.546
			v-3.023c0-2.379-0.967-3.568-2.9-3.568c-1.764,0-2.646,1.254-2.646,3.762V362.158z"/>
		<path fill="#1A1D1E" d="M11.942,350.873h5.6v0.896H4.691v-3.06c0-1.594,0.295-2.771,0.884-3.533
			c0.59-0.762,1.476-1.143,2.658-1.143c0.861,0,1.588,0.227,2.181,0.682c0.592,0.453,1.017,1.145,1.273,2.07l5.854-3.49v1.072
			l-5.6,3.313V350.873z M11.169,350.873v-2.453c0-1.084-0.241-1.924-0.727-2.521c-0.481-0.598-1.195-0.896-2.14-0.896
			c-0.979,0-1.69,0.293-2.136,0.879c-0.446,0.586-0.667,1.541-0.667,2.865v2.127H11.169z"/>
		<path fill="#1A1D1E" d="M11.099,330.271c2.039,0,3.651,0.51,4.839,1.529c1.187,1.02,1.779,2.426,1.779,4.219
			c0,1.787-0.594,3.189-1.779,4.21c-1.188,1.021-2.806,1.528-4.855,1.528c-2.045,0-3.654-0.514-4.829-1.541
			c-1.175-1.029-1.763-2.434-1.763-4.215c0-1.793,0.591-3.196,1.771-4.211C7.441,330.777,9.054,330.271,11.099,330.271z
			 M11.099,340.783c1.84,0,3.263-0.41,4.268-1.23c1.006-0.82,1.508-1.998,1.508-3.533c0-1.547-0.498-2.729-1.494-3.547
			c-0.996-0.816-2.423-1.227-4.28-1.227c-1.852,0-3.271,0.409-4.259,1.227c-0.986,0.818-1.48,1.994-1.48,3.529
			c0,1.528,0.498,2.709,1.494,3.537C7.85,340.369,9.265,340.783,11.099,340.783z"/>
		<path fill="#1A1D1E" d="M11.099,316.516c2.039,0,3.651,0.51,4.839,1.529c1.187,1.02,1.779,2.426,1.779,4.219
			c0,1.786-0.594,3.19-1.779,4.21c-1.188,1.02-2.806,1.529-4.855,1.529c-2.045,0-3.654-0.515-4.829-1.543
			c-1.175-1.027-1.763-2.434-1.763-4.214c0-1.793,0.591-3.196,1.771-4.21C7.441,317.022,9.054,316.516,11.099,316.516z
			 M11.099,327.027c1.84,0,3.263-0.41,4.268-1.23c1.006-0.819,1.508-1.998,1.508-3.532c0-1.547-0.498-2.729-1.494-3.546
			c-0.996-0.817-2.423-1.226-4.28-1.226c-1.852,0-3.271,0.409-4.259,1.226c-0.986,0.817-1.48,1.994-1.48,3.529
			c0,1.529,0.498,2.708,1.494,3.538C7.85,326.612,9.265,327.027,11.099,327.027z"/>
		<path fill="#1A1D1E" d="M17.541,307.911l-11.865,4.79v0.07c0.727-0.047,1.471-0.07,2.232-0.07h9.633v0.861H4.691v-1.389
			l11.304-4.553v-0.053l-11.304-4.553v-1.354h12.851v0.905H7.803c-0.68,0-1.383-0.035-2.109-0.105v0.07l11.849,4.808L17.541,307.911
			L17.541,307.911z"/>
		<path fill="#1A1D1E" d="M17.541,298.032H4.691v-0.896h12.006v-6.126h0.845V298.032z"/>
		<path fill="#1A1D1E" d="M11.099,277.993c2.039,0,3.651,0.51,4.839,1.529c1.187,1.02,1.779,2.426,1.779,4.219
			c0,1.787-0.594,3.19-1.779,4.21c-1.188,1.02-2.806,1.529-4.855,1.529c-2.045,0-3.654-0.514-4.829-1.542s-1.763-2.433-1.763-4.214
			c0-1.793,0.591-3.196,1.771-4.21C7.441,278.5,9.054,277.993,11.099,277.993z M11.099,288.505c1.84,0,3.263-0.41,4.268-1.23
			c1.006-0.82,1.508-1.998,1.508-3.533c0-1.547-0.498-2.729-1.494-3.546c-0.996-0.817-2.423-1.227-4.28-1.227
			c-1.852,0-3.271,0.409-4.259,1.227c-0.986,0.817-1.48,1.994-1.48,3.529c0,1.529,0.498,2.708,1.494,3.538
			C7.851,288.093,9.265,288.505,11.099,288.505z"/>
		<path fill="#1A1D1E" d="M13.006,268.853v5.221l4.535,1.793v0.993l-12.902-5.168v-0.571l12.902-5.063v1.011L13.006,268.853z
			 M12.197,273.748v-4.597L7.565,270.9c-0.362,0.146-0.866,0.322-1.512,0.527c0.563,0.158,1.072,0.331,1.529,0.52L12.197,273.748z"
			/>
		<path fill="#1A1D1E" d="M17.541,254.896v0.905l-11.408,7.611v0.07c1.359-0.07,2.385-0.105,3.076-0.105h8.332v0.861H4.691v-0.896
			l11.392-7.603v-0.053c-1.056,0.053-2.058,0.079-3.006,0.079H4.691v-0.87L17.541,254.896L17.541,254.896z"/>
		<path fill="#1A1D1E" d="M11.942,245.685h5.6v0.896H4.691v-3.059c0-1.594,0.295-2.771,0.884-3.533
			c0.59-0.762,1.476-1.144,2.658-1.144c0.861,0,1.588,0.228,2.181,0.681c0.592,0.454,1.017,1.144,1.273,2.07l5.854-3.489v1.072
			l-5.6,3.313V245.685z M11.169,245.685v-2.452c0-1.084-0.241-1.925-0.727-2.522c-0.481-0.598-1.195-0.896-2.14-0.896
			c-0.979,0-1.69,0.293-2.136,0.879c-0.446,0.586-0.667,1.539-0.667,2.864v2.127H11.169z"/>
		<path fill="#1A1D1E" d="M17.541,228.862v7.022H4.691v-7.022h0.826v6.126h4.86v-5.783h0.826v5.783h5.511v-6.126H17.541z"/>
		<path fill="#1A1D1E" d="M13.006,219.766v5.221l4.535,1.793v0.993l-12.902-5.168v-0.571l12.902-5.063v1.011L13.006,219.766z
			 M12.197,224.661v-4.597l-4.632,1.749c-0.362,0.146-0.866,0.322-1.512,0.527c0.563,0.158,1.072,0.331,1.529,0.519L12.197,224.661z
			"/>
		<path fill="#1A1D1E" d="M11.942,214.255h5.6v0.896H4.691v-3.059c0-1.594,0.295-2.771,0.884-3.533
			c0.59-0.762,1.476-1.143,2.658-1.143c0.861,0,1.588,0.227,2.181,0.681c0.592,0.454,1.017,1.144,1.273,2.07l5.854-3.489v1.072
			l-5.6,3.313V214.255z M11.169,214.255v-2.452c0-1.084-0.241-1.925-0.727-2.521c-0.481-0.598-1.195-0.896-2.14-0.896
			c-0.979,0-1.69,0.293-2.136,0.879c-0.446,0.586-0.667,1.54-0.667,2.864v2.127H11.169z"/>
	</g>
	<g>
		<path fill="#1A1D1E" d="M236.156,384.721h3.524c1.588,0,2.754,0.271,3.498,0.809c0.744,0.539,1.116,1.354,1.116,2.443
			c0,0.743-0.228,1.364-0.682,1.858c-0.453,0.496-1.117,0.813-1.99,0.953v0.053c1.024,0.152,1.779,0.478,2.263,0.972
			c0.483,0.496,0.725,1.187,0.725,2.069c0,1.185-0.393,2.096-1.178,2.733s-1.897,0.958-3.34,0.958h-3.938v-12.849H236.156z
			 M237.053,390.442h2.83c1.207,0,2.084-0.2,2.632-0.603c0.548-0.4,0.822-1.029,0.822-1.885c0-0.856-0.31-1.478-0.927-1.863
			c-0.618-0.387-1.54-0.58-2.765-0.58h-2.593V390.442z M237.053,391.233v5.546h3.023c2.379,0,3.567-0.967,3.567-2.9
			c0-1.764-1.254-2.646-3.762-2.646H237.053z"/>
		<path fill="#1A1D1E" d="M247.441,397.57v-12.85h0.896v12.85H247.441z"/>
		<path fill="#1A1D1E" d="M251.977,397.57v-12.85h0.896v12.006h6.126v0.844H251.977z"/>
		<path fill="#1A1D1E" d="M261.214,397.57v-12.85h0.896v12.006h6.126v0.844H261.214z"/>
		<path fill="#1A1D1E" d="M282.22,394.257c0,1.072-0.394,1.922-1.182,2.549s-1.835,0.939-3.143,0.939
			c-1.569,0-2.773-0.172-3.611-0.519v-0.896c0.926,0.393,2.105,0.588,3.542,0.588c1.055,0,1.891-0.242,2.509-0.725
			c0.618-0.484,0.927-1.117,0.927-1.902c0-0.486-0.103-0.89-0.308-1.209c-0.205-0.318-0.539-0.61-1.002-0.875
			c-0.464-0.264-1.144-0.547-2.039-0.853c-1.313-0.451-2.22-0.938-2.721-1.464c-0.501-0.523-0.751-1.223-0.751-2.096
			c0-0.961,0.376-1.744,1.129-2.353c0.753-0.604,1.722-0.909,2.905-0.909c1.207,0,2.341,0.229,3.401,0.687l-0.325,0.772
			c-1.066-0.445-2.086-0.668-3.059-0.668c-0.949,0-1.705,0.221-2.269,0.659c-0.563,0.438-0.844,1.037-0.844,1.793
			c0,0.476,0.086,0.864,0.259,1.169s0.456,0.579,0.848,0.821c0.394,0.244,1.066,0.535,2.021,0.875
			c1.002,0.347,1.755,0.683,2.259,1.006c0.504,0.326,0.872,0.695,1.104,1.106C282.104,393.171,282.22,393.671,282.22,394.257z"/>
		<path fill="#1A1D1E" d="M288.284,397.57h-0.905v-12.006h-4.175v-0.844h9.255v0.844h-4.175V397.57L288.284,397.57z"/>
		<path fill="#1A1D1E" d="M295.263,391.972v5.599h-0.896v-12.85h3.059c1.594,0,2.771,0.295,3.533,0.883
			c0.762,0.59,1.143,1.476,1.143,2.659c0,0.861-0.227,1.588-0.681,2.18s-1.145,1.018-2.07,1.273l3.489,5.854h-1.072l-3.313-5.599
			H295.263L295.263,391.972z M295.263,391.199h2.452c1.084,0,1.925-0.242,2.521-0.727c0.599-0.482,0.896-1.196,0.896-2.141
			c0-0.979-0.293-1.689-0.879-2.136s-1.541-0.668-2.865-0.668h-2.127L295.263,391.199L295.263,391.199z"/>
		<path fill="#1A1D1E" d="M314.511,384.721v8.313c0,1.478-0.429,2.631-1.283,3.463c-0.855,0.832-2.048,1.248-3.577,1.248
			c-1.488,0-2.649-0.418-3.484-1.252c-0.836-0.836-1.253-2-1.253-3.494v-8.278h0.905v8.313c0,1.236,0.343,2.199,1.028,2.887
			c0.686,0.689,1.655,1.033,2.909,1.033c1.225,0,2.174-0.338,2.848-1.016c0.674-0.676,1.011-1.615,1.011-2.816v-8.401H314.511
			L314.511,384.721z"/>
		<path fill="#1A1D1E" d="M321.357,397.57h-0.905v-12.006h-4.175v-0.844h9.255v0.844h-4.175V397.57L321.357,397.57z"/>
		<path fill="#1A1D1E" d="M336.746,397.57h-0.904v-6.318h-7.506v6.318h-0.896v-12.85h0.896v5.703h7.506v-5.703h0.904V397.57z"/>
		<path fill="#1A1D1E" d="M350.713,397.57l-4.79-11.865h-0.07c0.047,0.728,0.07,1.471,0.07,2.232v9.633h-0.861v-12.85h1.389
			l4.554,11.303h0.053l4.553-11.303h1.354v12.85h-0.905v-9.738c0-0.68,0.035-1.383,0.105-2.108h-0.07l-4.809,11.848L350.713,397.57
			L350.713,397.57z"/>
		<path fill="#1A1D1E" d="M366.779,393.035h-5.221l-1.793,4.535h-0.993l5.168-12.902h0.571l5.063,12.902h-1.011L366.779,393.035z
			 M361.884,392.227h4.597l-1.749-4.632c-0.146-0.363-0.322-0.867-0.527-1.512c-0.157,0.563-0.331,1.071-0.519,1.528
			L361.884,392.227z"/>
		<path fill="#1A1D1E" d="M371.394,397.57v-12.85h0.896v12.85H371.394z"/>
		<path fill="#1A1D1E" d="M385.271,397.57h-0.905l-7.61-11.408h-0.07c0.07,1.359,0.104,2.385,0.104,3.076v8.332h-0.86v-12.85h0.896
			l7.604,11.391h0.053c-0.053-1.055-0.079-2.057-0.079-3.006v-8.385h0.87L385.271,397.57L385.271,397.57z"/>
		<path fill="#1A1D1E" d="M400.679,394.257c0,1.072-0.396,1.922-1.183,2.549c-0.789,0.627-1.836,0.939-3.143,0.939
			c-1.57,0-2.774-0.172-3.612-0.519v-0.896c0.927,0.393,2.106,0.588,3.542,0.588c1.056,0,1.892-0.242,2.511-0.725
			c0.616-0.484,0.927-1.117,0.927-1.902c0-0.486-0.104-0.89-0.309-1.209c-0.205-0.318-0.539-0.61-1.002-0.875
			c-0.463-0.264-1.143-0.547-2.039-0.853c-1.313-0.451-2.219-0.938-2.721-1.464c-0.5-0.523-0.751-1.223-0.751-2.096
			c0-0.961,0.376-1.744,1.13-2.353c0.752-0.604,1.721-0.909,2.904-0.909c1.207,0,2.341,0.229,3.4,0.687l-0.324,0.772
			c-1.066-0.445-2.086-0.668-3.06-0.668c-0.949,0-1.705,0.221-2.268,0.659c-0.563,0.438-0.844,1.037-0.844,1.793
			c0,0.476,0.086,0.864,0.26,1.169c0.172,0.305,0.455,0.579,0.848,0.821c0.394,0.244,1.066,0.535,2.021,0.875
			c1.002,0.347,1.755,0.683,2.259,1.006c0.504,0.326,0.871,0.695,1.103,1.106C400.563,393.171,400.679,393.671,400.679,394.257z"/>
		<path fill="#1A1D1E" d="M406.742,397.57h-0.904v-12.006h-4.176v-0.844h9.256v0.844h-4.176V397.57L406.742,397.57z"/>
		<path fill="#1A1D1E" d="M419.013,393.035h-5.222l-1.793,4.535h-0.992l5.168-12.902h0.57l5.063,12.902h-1.011L419.013,393.035z
			 M414.116,392.227h4.598l-1.749-4.632c-0.146-0.363-0.322-0.867-0.527-1.512c-0.158,0.563-0.331,1.071-0.519,1.528
			L414.116,392.227z"/>
		<path fill="#1A1D1E" d="M432.97,397.57h-0.905l-7.611-11.408h-0.069c0.069,1.359,0.104,2.385,0.104,3.076v8.332h-0.86v-12.85
			h0.896l7.604,11.391h0.053c-0.053-1.055-0.079-2.057-0.079-3.006v-8.385h0.87L432.97,397.57L432.97,397.57z"/>
		<path fill="#1A1D1E" d="M446.364,391.022c0,2.156-0.564,3.787-1.695,4.892c-1.132,1.105-2.792,1.656-4.983,1.656h-3.076v-12.85
			h3.472c2.052,0,3.61,0.535,4.681,1.607C445.83,387.4,446.364,388.966,446.364,391.022z M445.389,391.058
			c0-1.84-0.468-3.225-1.402-4.152c-0.935-0.929-2.307-1.394-4.117-1.394h-2.363v11.269h2.127
			C443.47,396.779,445.389,394.873,445.389,391.058z"/>
	</g>
	<g>
		<path fill="#1A1D1E" d="M425.314,411.794h-4.682v-8.565h4.682v0.551h-4.084v3.24h3.855v0.551h-3.855v3.675h4.084V411.794z"/>
		<path fill="#1A1D1E" d="M431.379,408.771h-3.48l-1.195,3.023h-0.662l3.445-8.603h0.381l3.375,8.603h-0.674L431.379,408.771z
			 M428.115,408.232h3.064l-1.166-3.088c-0.099-0.242-0.215-0.578-0.353-1.008c-0.104,0.375-0.221,0.715-0.346,1.02L428.115,408.232
			z"/>
		<path fill="#1A1D1E" d="M439.184,409.585c0,0.715-0.263,1.281-0.788,1.699s-1.224,0.627-2.095,0.627
			c-1.047,0-1.851-0.115-2.408-0.346v-0.598c0.617,0.262,1.404,0.393,2.361,0.393c0.702,0,1.261-0.16,1.673-0.482
			s0.618-0.746,0.618-1.27c0-0.324-0.068-0.593-0.205-0.806c-0.138-0.214-0.359-0.407-0.668-0.583
			c-0.31-0.176-0.763-0.365-1.359-0.568c-0.875-0.301-1.479-0.626-1.813-0.977c-0.334-0.35-0.502-0.814-0.502-1.396
			c0-0.641,0.252-1.162,0.754-1.566s1.146-0.606,1.937-0.606c0.805,0,1.562,0.151,2.269,0.457l-0.218,0.517
			c-0.711-0.297-1.391-0.445-2.039-0.445c-0.633,0-1.137,0.146-1.512,0.439c-0.375,0.293-0.563,0.69-0.563,1.194
			c0,0.315,0.058,0.575,0.173,0.778c0.114,0.203,0.304,0.387,0.564,0.549c0.262,0.162,0.711,0.355,1.349,0.583
			c0.668,0.229,1.17,0.454,1.506,0.671s0.581,0.463,0.734,0.738C439.107,408.862,439.184,409.195,439.184,409.585z"/>
		<path fill="#1A1D1E" d="M443.227,411.794h-0.604v-8.004h-2.782v-0.563h6.17v0.563h-2.783V411.794L443.227,411.794z"/>
		<path fill="#1A1D1E" d="M455.079,411.794h-4.682v-8.565h4.682v0.551h-4.084v3.24h3.855v0.551h-3.855v3.675h4.084V411.794z"/>
		<path fill="#1A1D1E" d="M463.247,411.794h-0.604l-5.074-7.604h-0.047c0.047,0.906,0.07,1.59,0.07,2.052v5.555h-0.574v-8.566h0.598
			l5.068,7.594h0.035c-0.035-0.703-0.054-1.371-0.054-2.004v-5.59h0.58L463.247,411.794L463.247,411.794z"/>
		<path fill="#1A1D1E" d="M469.329,403.645c-1.073,0-1.92,0.344-2.536,1.03c-0.617,0.688-0.927,1.63-0.927,2.824
			c0,1.224,0.291,2.172,0.873,2.849c0.582,0.676,1.414,1.014,2.496,1.014c0.719,0,1.379-0.092,1.98-0.274v0.527
			c-0.566,0.198-1.273,0.299-2.121,0.299c-1.203,0-2.15-0.39-2.842-1.166c-0.692-0.777-1.037-1.863-1.037-3.258
			c0-0.871,0.165-1.64,0.495-2.304c0.329-0.664,0.805-1.177,1.424-1.538s1.339-0.542,2.159-0.542c0.836,0,1.584,0.156,2.243,0.47
			l-0.239,0.539C470.674,403.8,470.018,403.645,469.329,403.645z"/>
		<path fill="#1A1D1E" d="M473.127,411.794v-8.565h0.598v8.004h4.084v0.563h-4.682V411.794z"/>
		<path fill="#1A1D1E" d="M486.486,407.5c0,1.359-0.34,2.436-1.02,3.227c-0.681,0.791-1.617,1.188-2.813,1.188
			c-1.19,0-2.127-0.396-2.807-1.188s-1.021-1.87-1.021-3.236c0-1.363,0.344-2.438,1.028-3.221c0.686-0.783,1.622-1.175,2.81-1.175
			c1.195,0,2.132,0.394,2.808,1.181S486.486,406.137,486.486,407.5z M479.479,407.5c0,1.228,0.273,2.176,0.82,2.846
			s1.332,1.005,2.354,1.005c1.031,0,1.819-0.332,2.364-0.996s0.817-1.614,0.817-2.854c0-1.233-0.272-2.181-0.817-2.838
			c-0.545-0.658-1.329-0.988-2.354-0.988c-1.02,0-1.806,0.332-2.357,0.996S479.479,406.277,479.479,407.5z"/>
		<path fill="#1A1D1E" d="M493.184,409.585c0,0.715-0.263,1.281-0.788,1.699s-1.224,0.627-2.095,0.627
			c-1.047,0-1.851-0.115-2.408-0.346v-0.598c0.617,0.262,1.404,0.393,2.361,0.393c0.702,0,1.261-0.16,1.673-0.482
			s0.618-0.746,0.618-1.27c0-0.324-0.068-0.593-0.205-0.806c-0.138-0.214-0.359-0.407-0.668-0.583
			c-0.31-0.176-0.763-0.365-1.359-0.568c-0.875-0.301-1.479-0.626-1.813-0.977c-0.334-0.35-0.502-0.814-0.502-1.396
			c0-0.641,0.252-1.162,0.754-1.566s1.146-0.606,1.937-0.606c0.805,0,1.562,0.151,2.269,0.457l-0.218,0.517
			c-0.711-0.297-1.391-0.445-2.039-0.445c-0.633,0-1.137,0.146-1.512,0.439c-0.375,0.293-0.563,0.69-0.563,1.194
			c0,0.315,0.058,0.575,0.173,0.778c0.114,0.203,0.304,0.387,0.564,0.549c0.262,0.162,0.711,0.355,1.349,0.583
			c0.668,0.229,1.17,0.454,1.506,0.671s0.581,0.463,0.734,0.738C493.107,408.862,493.184,409.195,493.184,409.585z"/>
		<path fill="#1A1D1E" d="M501.293,403.229v5.543c0,0.983-0.285,1.754-0.855,2.31c-0.57,0.555-1.365,0.832-2.385,0.832
			c-0.992,0-1.768-0.279-2.323-0.836s-0.835-1.332-0.835-2.328v-5.521h0.604v5.543c0,0.824,0.229,1.466,0.687,1.925
			s1.104,0.688,1.938,0.688c0.816,0,1.449-0.225,1.898-0.676s0.674-1.078,0.674-1.879v-5.602L501.293,403.229L501.293,403.229z"/>
		<path fill="#1A1D1E" d="M504.223,408.063v3.731h-0.598v-8.565h2.038c1.063,0,1.849,0.196,2.355,0.589s0.762,0.982,0.762,1.771
			c0,0.574-0.15,1.06-0.454,1.453c-0.303,0.395-0.763,0.679-1.38,0.851l2.326,3.901h-0.715l-2.209-3.731H504.223z M504.223,407.546
			h1.635c0.723,0,1.283-0.16,1.682-0.482c0.399-0.322,0.599-0.798,0.599-1.427c0-0.652-0.195-1.128-0.586-1.425
			c-0.392-0.297-1.027-0.444-1.91-0.444h-1.418L504.223,407.546L504.223,407.546z"/>
		<path fill="#1A1D1E" d="M515.438,411.794h-4.682v-8.565h4.682v0.551h-4.084v3.24h3.855v0.551h-3.855v3.675h4.084V411.794z"/>
	</g>
	<g>
		<path fill="#1A1D1E" d="M173.888,411.794h-0.492l-1.881-6.608c-0.156-0.543-0.272-0.987-0.352-1.336
			c-0.063,0.34-0.151,0.729-0.268,1.172s-0.745,2.699-1.89,6.772h-0.504l-2.355-8.565h0.627l1.5,5.521
			c0.06,0.223,0.113,0.428,0.164,0.617s0.098,0.367,0.139,0.533s0.077,0.326,0.11,0.48s0.063,0.31,0.091,0.466
			c0.095-0.531,0.293-1.339,0.599-2.421l1.465-5.196h0.662l1.717,5.965c0.199,0.688,0.342,1.242,0.428,1.664
			c0.052-0.28,0.116-0.58,0.196-0.896c0.08-0.316,0.683-2.562,1.808-6.732h0.604L173.888,411.794z"/>
		<path fill="#1A1D1E" d="M182.448,411.794h-4.682v-8.565h4.682v0.551h-4.084v3.24h3.855v0.551h-3.855v3.675h4.084V411.794z"/>
		<path fill="#1A1D1E" d="M189.116,409.585c0,0.715-0.264,1.281-0.788,1.699c-0.525,0.418-1.225,0.627-2.096,0.627
			c-1.047,0-1.85-0.115-2.407-0.346v-0.598c0.616,0.262,1.403,0.393,2.36,0.393c0.703,0,1.261-0.16,1.673-0.482
			s0.618-0.746,0.618-1.27c0-0.324-0.067-0.593-0.205-0.806c-0.137-0.214-0.358-0.407-0.668-0.583
			c-0.309-0.176-0.762-0.365-1.358-0.568c-0.875-0.301-1.479-0.626-1.813-0.977c-0.334-0.35-0.501-0.814-0.501-1.396
			c0-0.641,0.251-1.162,0.753-1.566s1.147-0.606,1.938-0.606c0.805,0,1.561,0.151,2.268,0.457l-0.217,0.517
			c-0.711-0.297-1.392-0.445-2.039-0.445c-0.633,0-1.137,0.146-1.512,0.439c-0.375,0.293-0.563,0.69-0.563,1.194
			c0,0.315,0.059,0.575,0.173,0.778c0.115,0.203,0.305,0.387,0.565,0.549s0.711,0.355,1.348,0.583
			c0.668,0.229,1.17,0.454,1.506,0.671s0.581,0.463,0.735,0.738C189.039,408.862,189.116,409.195,189.116,409.585z"/>
		<path fill="#1A1D1E" d="M193.159,411.794h-0.604v-8.004h-2.783v-0.563h6.17v0.563h-2.782V411.794L193.159,411.794z"/>
		<path fill="#1A1D1E" d="M205.013,411.794h-4.682v-8.565h4.682v0.551h-4.084v3.24h3.855v0.551h-3.855v3.675h4.084V411.794z"/>
		<path fill="#1A1D1E" d="M213.181,411.794h-0.604l-5.074-7.604h-0.047c0.047,0.906,0.069,1.59,0.069,2.052v5.555h-0.573v-8.566
			h0.598l5.068,7.594h0.034c-0.034-0.703-0.053-1.371-0.053-2.004v-5.59h0.58L213.181,411.794L213.181,411.794z"/>
		<path fill="#1A1D1E" d="M219.263,403.645c-1.074,0-1.92,0.344-2.537,1.03c-0.617,0.688-0.926,1.63-0.926,2.824
			c0,1.224,0.291,2.172,0.873,2.849c0.582,0.676,1.414,1.014,2.496,1.014c0.719,0,1.379-0.092,1.979-0.274v0.527
			c-0.565,0.198-1.272,0.299-2.121,0.299c-1.202,0-2.149-0.39-2.842-1.166c-0.691-0.777-1.037-1.863-1.037-3.258
			c0-0.871,0.165-1.64,0.495-2.304s0.806-1.177,1.424-1.538c0.619-0.361,1.34-0.542,2.159-0.542c0.836,0,1.584,0.156,2.244,0.47
			l-0.24,0.539C220.606,403.8,219.95,403.645,219.263,403.645z"/>
		<path fill="#1A1D1E" d="M223.06,411.794v-8.565h0.599v8.004h4.084v0.563h-4.683V411.794z"/>
		<path fill="#1A1D1E" d="M236.419,407.5c0,1.359-0.34,2.436-1.021,3.227c-0.68,0.791-1.616,1.188-2.813,1.188
			c-1.191,0-2.127-0.396-2.808-1.188c-0.68-0.791-1.02-1.87-1.02-3.236c0-1.363,0.343-2.438,1.028-3.221
			c0.685-0.783,1.622-1.175,2.81-1.175c1.195,0,2.131,0.394,2.807,1.181C236.08,405.062,236.419,406.137,236.419,407.5z
			 M229.411,407.5c0,1.228,0.272,2.176,0.819,2.846s1.332,1.005,2.355,1.005c1.031,0,1.818-0.332,2.364-0.996
			c0.545-0.664,0.816-1.614,0.816-2.854c0-1.233-0.271-2.181-0.816-2.838c-0.546-0.658-1.329-0.988-2.354-0.988
			c-1.02,0-1.806,0.332-2.358,0.996C229.687,405.333,229.411,406.277,229.411,407.5z"/>
		<path fill="#1A1D1E" d="M243.116,409.585c0,0.715-0.264,1.281-0.788,1.699c-0.525,0.418-1.225,0.627-2.096,0.627
			c-1.047,0-1.85-0.115-2.407-0.346v-0.598c0.616,0.262,1.403,0.393,2.36,0.393c0.703,0,1.261-0.16,1.673-0.482
			s0.618-0.746,0.618-1.27c0-0.324-0.067-0.593-0.205-0.806c-0.137-0.214-0.358-0.407-0.668-0.583
			c-0.309-0.176-0.762-0.365-1.358-0.568c-0.875-0.301-1.479-0.626-1.813-0.977c-0.334-0.35-0.501-0.814-0.501-1.396
			c0-0.641,0.251-1.162,0.753-1.566s1.147-0.606,1.938-0.606c0.805,0,1.561,0.151,2.268,0.457l-0.217,0.517
			c-0.711-0.297-1.392-0.445-2.039-0.445c-0.633,0-1.137,0.146-1.512,0.439c-0.375,0.293-0.563,0.69-0.563,1.194
			c0,0.315,0.059,0.575,0.173,0.778c0.115,0.203,0.305,0.387,0.565,0.549s0.711,0.355,1.348,0.583
			c0.668,0.229,1.17,0.454,1.506,0.671s0.581,0.463,0.735,0.738C243.039,408.862,243.116,409.195,243.116,409.585z"/>
		<path fill="#1A1D1E" d="M251.226,403.229v5.543c0,0.983-0.285,1.754-0.854,2.31c-0.57,0.555-1.365,0.832-2.386,0.832
			c-0.991,0-1.767-0.279-2.322-0.836c-0.557-0.557-0.835-1.332-0.835-2.328v-5.521h0.604v5.543c0,0.824,0.229,1.466,0.687,1.925
			s1.104,0.688,1.938,0.688c0.816,0,1.449-0.225,1.898-0.676c0.448-0.451,0.674-1.078,0.674-1.879v-5.602L251.226,403.229
			L251.226,403.229z"/>
		<path fill="#1A1D1E" d="M254.155,408.063v3.731h-0.598v-8.565h2.039c1.063,0,1.848,0.196,2.355,0.589
			c0.507,0.393,0.762,0.982,0.762,1.771c0,0.574-0.151,1.06-0.454,1.453c-0.303,0.395-0.763,0.679-1.38,0.851l2.326,3.901h-0.716
			l-2.209-3.731H254.155z M254.155,407.546h1.636c0.723,0,1.282-0.16,1.682-0.482s0.598-0.798,0.598-1.427
			c0-0.652-0.194-1.128-0.586-1.425c-0.391-0.297-1.026-0.444-1.91-0.444h-1.418L254.155,407.546L254.155,407.546z"/>
		<path fill="#1A1D1E" d="M265.37,411.794h-4.683v-8.565h4.683v0.551h-4.084v3.24h3.854v0.551h-3.854v3.675h4.084V411.794z"/>
	</g>
	<g>
		<path fill="#1A1D1E" d="M301.419,545.751c-1.611,0-2.881,0.516-3.807,1.547s-1.389,2.443-1.389,4.236
			c0,1.834,0.438,3.258,1.311,4.27c0.872,1.014,2.12,1.521,3.743,1.521c1.078,0,2.068-0.137,2.971-0.412v0.791
			c-0.85,0.299-1.909,0.447-3.182,0.447c-1.805,0-3.226-0.582-4.263-1.748s-1.556-2.795-1.556-4.889
			c0-1.307,0.248-2.457,0.743-3.453c0.494-0.996,1.206-1.766,2.136-2.307c0.929-0.543,2.008-0.813,3.238-0.813
			c1.254,0,2.376,0.232,3.366,0.701l-0.36,0.811C303.435,545.986,302.449,545.751,301.419,545.751z"/>
		<path fill="#1A1D1E" d="M307.114,557.976v-12.85h0.896v12.006h6.126v0.844H307.114z"/>
		<path fill="#1A1D1E" d="M325.8,545.126v8.314c0,1.477-0.429,2.631-1.283,3.463c-0.855,0.832-2.048,1.248-3.577,1.248
			c-1.488,0-2.65-0.418-3.485-1.252c-0.835-0.836-1.252-2-1.252-3.494v-8.279h0.905v8.314c0,1.236,0.343,2.199,1.028,2.887
			c0.686,0.689,1.655,1.033,2.909,1.033c1.225,0,2.174-0.338,2.848-1.016c0.674-0.676,1.011-1.615,1.011-2.816v-8.402H325.8
			L325.8,545.126z"/>
		<path fill="#1A1D1E" d="M329.298,545.126h3.523c1.588,0,2.754,0.271,3.498,0.811c0.744,0.537,1.116,1.354,1.116,2.441
			c0,0.744-0.227,1.365-0.681,1.859c-0.454,0.496-1.118,0.813-1.991,0.953v0.053c1.024,0.152,1.78,0.477,2.263,0.971
			c0.483,0.496,0.726,1.188,0.726,2.07c0,1.184-0.394,2.096-1.179,2.732c-0.785,0.639-1.897,0.959-3.34,0.959h-3.938v-12.85H329.298
			z M330.194,550.849h2.83c1.207,0,2.084-0.199,2.632-0.604c0.548-0.4,0.822-1.029,0.822-1.885s-0.309-1.477-0.927-1.863
			c-0.618-0.385-1.54-0.58-2.765-0.58h-2.593V550.849L330.194,550.849z M330.194,551.64v5.547h3.023c2.379,0,3.567-0.969,3.567-2.9
			c0-1.764-1.254-2.646-3.762-2.646H330.194z"/>
		<path fill="#1A1D1E" d="M355.015,551.429c0,2.156-0.565,3.787-1.696,4.893c-1.131,1.104-2.792,1.656-4.982,1.656h-3.076v-12.852
			h3.472c2.051,0,3.61,0.537,4.68,1.609C354.482,547.806,355.015,549.373,355.015,551.429z M354.038,551.464
			c0-1.84-0.468-3.225-1.401-4.154c-0.936-0.928-2.308-1.393-4.117-1.393h-2.364v11.268h2.127
			C352.119,557.185,354.038,555.279,354.038,551.464z"/>
		<path fill="#1A1D1E" d="M364.99,557.976h-7.021v-12.85h7.021v0.826h-6.126v4.861h5.783v0.824h-5.783v5.512h6.126V557.976z"/>
		<path fill="#1A1D1E" d="M373.384,545.751c-1.611,0-2.88,0.516-3.807,1.547c-0.926,1.031-1.389,2.443-1.389,4.236
			c0,1.834,0.438,3.258,1.31,4.27c0.873,1.014,2.121,1.521,3.744,1.521c1.078,0,2.068-0.137,2.972-0.412v0.791
			c-0.851,0.299-1.91,0.447-3.183,0.447c-1.805,0-3.226-0.582-4.263-1.748s-1.556-2.795-1.556-4.889
			c0-1.307,0.247-2.457,0.742-3.453c0.494-0.996,1.206-1.766,2.136-2.307c0.929-0.543,2.009-0.813,3.238-0.813
			c1.255,0,2.376,0.232,3.366,0.701l-0.359,0.811C375.399,545.986,374.414,545.751,373.384,545.751z"/>
		<path fill="#1A1D1E" d="M387.719,557.976h-1.1l-4.931-6.783l-1.714,1.512v5.273h-0.896v-12.852h0.896v6.68l1.424-1.424
			l5.036-5.256h1.143l-5.265,5.434L387.719,557.976z"/>
	</g>
	<g>
		<path fill="#1A1D1E" d="M299.606,636.003h-4.682v-8.566h4.682v0.551h-4.084v3.24h3.855v0.551h-3.855v3.674h4.084V636.003z"/>
		<path fill="#1A1D1E" d="M308.049,631.638c0,1.438-0.377,2.523-1.131,3.262c-0.755,0.736-1.861,1.104-3.322,1.104h-2.051v-8.566
			h2.313c1.367,0,2.407,0.357,3.12,1.072S308.049,630.267,308.049,631.638z M307.399,631.662c0-1.229-0.312-2.15-0.935-2.77
			s-1.538-0.93-2.745-0.93h-1.576v7.512h1.418C306.119,635.476,307.399,634.205,307.399,631.662z"/>
		<path fill="#1A1D1E" d="M313.785,636.003l-3.192-7.91h-0.047c0.03,0.484,0.047,0.98,0.047,1.488v6.422h-0.574v-8.566h0.926
			l3.035,7.535h0.035l3.035-7.535h0.901v8.566h-0.604v-6.492c0-0.453,0.022-0.922,0.07-1.406h-0.048l-3.204,7.898H313.785z"/>
		<path fill="#1A1D1E" d="M320.371,636.003v-8.566h0.599v8.566H320.371z"/>
		<path fill="#1A1D1E" d="M328.123,633.794c0,0.715-0.263,1.281-0.787,1.699c-0.525,0.418-1.225,0.627-2.096,0.627
			c-1.047,0-1.85-0.115-2.408-0.346v-0.6c0.617,0.264,1.404,0.395,2.361,0.395c0.703,0,1.261-0.162,1.673-0.484
			s0.618-0.744,0.618-1.268c0-0.324-0.067-0.594-0.205-0.807c-0.137-0.213-0.358-0.406-0.668-0.584
			c-0.309-0.176-0.762-0.363-1.358-0.566c-0.875-0.303-1.479-0.627-1.813-0.977s-0.501-0.814-0.501-1.396
			c0-0.643,0.251-1.164,0.753-1.568s1.147-0.605,1.938-0.605c0.805,0,1.561,0.152,2.268,0.457l-0.217,0.516
			c-0.711-0.297-1.392-0.445-2.039-0.445c-0.633,0-1.137,0.146-1.512,0.439s-0.563,0.691-0.563,1.195
			c0,0.316,0.059,0.576,0.173,0.779c0.115,0.203,0.305,0.385,0.565,0.547s0.711,0.357,1.348,0.584c0.668,0.23,1.17,0.453,1.506,0.67
			c0.336,0.219,0.581,0.463,0.735,0.738S328.123,633.404,328.123,633.794z"/>
		<path fill="#1A1D1E" d="M332.166,636.003h-0.604V628h-2.783v-0.564h6.17V628h-2.782L332.166,636.003L332.166,636.003z"/>
		<path fill="#1A1D1E" d="M343.422,631.708c0,1.359-0.341,2.434-1.021,3.225s-1.617,1.188-2.812,1.188
			c-1.191,0-2.127-0.396-2.808-1.188c-0.68-0.791-1.02-1.869-1.02-3.236c0-1.363,0.343-2.438,1.028-3.219
			c0.685-0.783,1.621-1.176,2.81-1.176c1.195,0,2.13,0.395,2.806,1.182S343.422,630.345,343.422,631.708z M336.414,631.708
			c0,1.227,0.273,2.174,0.82,2.844s1.332,1.006,2.355,1.006c1.03,0,1.819-0.332,2.364-0.996c0.546-0.664,0.816-1.615,0.816-2.854
			c0-1.234-0.271-2.182-0.816-2.84c-0.545-0.658-1.329-0.986-2.353-0.986c-1.02,0-1.806,0.332-2.358,0.996
			C336.692,629.542,336.414,630.486,336.414,631.708z"/>
		<path fill="#1A1D1E" d="M351.618,636.003h-0.604l-5.074-7.605h-0.047c0.047,0.906,0.07,1.59,0.07,2.051v5.555h-0.574v-8.564h0.598
			l5.068,7.594h0.035c-0.035-0.703-0.054-1.371-0.054-2.004v-5.59h0.58L351.618,636.003L351.618,636.003z"/>
		<path fill="#1A1D1E" d="M363.665,631.638c0,1.438-0.377,2.523-1.131,3.262c-0.754,0.736-1.86,1.104-3.321,1.104h-2.052v-8.566
			h2.314c1.367,0,2.407,0.357,3.12,1.072S363.665,630.267,363.665,631.638z M363.016,631.662c0-1.229-0.313-2.15-0.936-2.77
			s-1.537-0.93-2.744-0.93h-1.576v7.512h1.418C361.736,635.476,363.016,634.205,363.016,631.662z"/>
		<path fill="#1A1D1E" d="M366.232,632.271v3.732h-0.598v-8.566h2.039c1.063,0,1.848,0.195,2.354,0.59
			c0.507,0.393,0.762,0.982,0.762,1.771c0,0.574-0.15,1.059-0.453,1.453c-0.304,0.393-0.764,0.678-1.381,0.85l2.326,3.902h-0.715
			l-2.209-3.732H366.232L366.232,632.271z M366.232,631.755h1.635c0.724,0,1.283-0.162,1.683-0.482
			c0.398-0.322,0.598-0.799,0.598-1.428c0-0.652-0.195-1.127-0.586-1.424s-1.027-0.445-1.91-0.445h-1.418L366.232,631.755
			L366.232,631.755z"/>
		<path fill="#1A1D1E" d="M372.766,636.003v-8.566h0.598v8.566H372.766z"/>
		<path fill="#1A1D1E" d="M380.852,627.437h0.65l-3.205,8.566h-0.527l-3.193-8.566h0.64l2.155,5.83
			c0.328,0.879,0.55,1.539,0.662,1.98c0.078-0.293,0.232-0.748,0.463-1.365L380.852,627.437z"/>
		<path fill="#1A1D1E" d="M387.396,636.003h-4.682v-8.566h4.682v0.551h-4.084v3.24h3.854v0.551h-3.854v3.674h4.084V636.003z"/>
	</g>
	<g>
		<path fill="#1A1D1E" d="M17.46,534.328l-3.193-7.91H14.22c0.031,0.484,0.047,0.98,0.047,1.488v6.422h-0.574v-8.566h0.927
			l3.034,7.535h0.035l3.035-7.535h0.902v8.566h-0.604v-6.492c0-0.453,0.023-0.922,0.07-1.406h-0.047l-3.205,7.898H17.46z"/>
		<path fill="#1A1D1E" d="M28.171,531.304h-3.48l-1.194,3.023h-0.662l3.444-8.604h0.382l3.375,8.604H29.36L28.171,531.304z
			 M24.907,530.765h3.063l-1.166-3.088c-0.098-0.242-0.215-0.578-0.352-1.008c-0.105,0.375-0.222,0.715-0.347,1.02L24.907,530.765z"
			/>
		<path fill="#1A1D1E" d="M31.247,534.328v-8.566h0.598v8.566H31.247z"/>
		<path fill="#1A1D1E" d="M40.499,534.328h-0.604l-5.074-7.605h-0.047c0.047,0.906,0.07,1.59,0.07,2.051v5.555H34.27v-8.566h0.599
			l5.067,7.596h0.035c-0.035-0.703-0.053-1.371-0.053-2.004v-5.592h0.58L40.499,534.328L40.499,534.328z"/>
		<path fill="#1A1D1E" d="M50.771,532.119c0,0.715-0.263,1.281-0.788,1.699c-0.524,0.418-1.224,0.627-2.095,0.627
			c-1.047,0-1.85-0.115-2.408-0.348V533.5c0.617,0.262,1.404,0.393,2.361,0.393c0.703,0,1.261-0.16,1.673-0.482
			s0.618-0.744,0.618-1.27c0-0.322-0.068-0.592-0.205-0.805s-0.359-0.408-0.668-0.584s-0.762-0.365-1.359-0.568
			c-0.875-0.301-1.479-0.625-1.813-0.975s-0.501-0.816-0.501-1.398c0-0.641,0.251-1.162,0.753-1.566s1.146-0.605,1.937-0.605
			c0.806,0,1.562,0.152,2.269,0.457l-0.217,0.516c-0.711-0.297-1.392-0.445-2.039-0.445c-0.634,0-1.138,0.146-1.513,0.439
			s-0.563,0.691-0.563,1.195c0,0.316,0.058,0.576,0.173,0.779s0.304,0.385,0.565,0.547c0.261,0.162,0.711,0.357,1.348,0.584
			c0.668,0.229,1.17,0.453,1.506,0.67s0.581,0.463,0.735,0.738C50.694,531.394,50.771,531.728,50.771,532.119z"/>
		<path fill="#1A1D1E" d="M54.813,534.328H54.21v-8.004h-2.783v-0.564h6.17v0.564h-2.783L54.813,534.328L54.813,534.328z"/>
		<path fill="#1A1D1E" d="M62.993,531.304h-3.48l-1.195,3.023h-0.662l3.445-8.604h0.381l3.375,8.604h-0.674L62.993,531.304z
			 M59.729,530.765h3.064l-1.166-3.088c-0.099-0.242-0.215-0.578-0.353-1.008c-0.104,0.375-0.221,0.715-0.346,1.02L59.729,530.765z"
			/>
		<path fill="#1A1D1E" d="M72.298,534.328h-0.604l-5.073-7.605h-0.047c0.047,0.906,0.069,1.59,0.069,2.051v5.555h-0.574v-8.566
			h0.599l5.067,7.596h0.035c-0.035-0.703-0.053-1.371-0.053-2.004v-5.592h0.58L72.298,534.328L72.298,534.328z"/>
		<path fill="#1A1D1E" d="M81.228,529.962c0,1.438-0.377,2.523-1.131,3.26c-0.754,0.738-1.861,1.105-3.322,1.105h-2.051v-8.566
			h2.314c1.366,0,2.406,0.357,3.12,1.072C80.871,527.548,81.228,528.591,81.228,529.962z M80.577,529.986
			c0-1.229-0.313-2.15-0.936-2.77c-0.623-0.621-1.538-0.93-2.745-0.93h-1.576v7.512h1.418
			C79.298,533.8,80.577,532.529,80.577,529.986z"/>
		<path fill="#1A1D1E" d="M86.911,530.595v3.732h-0.599v-8.566h2.039c1.063,0,1.849,0.195,2.355,0.588
			c0.507,0.395,0.762,0.984,0.762,1.773c0,0.574-0.151,1.059-0.454,1.453c-0.303,0.393-0.763,0.678-1.38,0.85l2.326,3.902h-0.715
			l-2.209-3.732H86.911L86.911,530.595z M86.911,530.08h1.635c0.723,0,1.283-0.162,1.682-0.484c0.399-0.32,0.599-0.797,0.599-1.426
			c0-0.652-0.195-1.127-0.586-1.424c-0.392-0.297-1.027-0.445-1.91-0.445h-1.418L86.911,530.08L86.911,530.08z"/>
		<path fill="#1A1D1E" d="M98.126,534.328h-4.683v-8.566h4.683v0.551h-4.084v3.24h3.854v0.551h-3.854v3.674h4.084V534.328z"/>
		<path fill="#1A1D1E" d="M104.19,531.304h-3.479l-1.195,3.023h-0.662l3.445-8.604h0.381l3.375,8.604h-0.674L104.19,531.304z
			 M100.927,530.765h3.064l-1.166-3.088c-0.099-0.242-0.216-0.578-0.353-1.008c-0.104,0.375-0.221,0.715-0.346,1.02L100.927,530.765
			z"/>
		<path fill="#1A1D1E" d="M107.864,530.595v3.732h-0.598v-8.566h2.039c1.063,0,1.848,0.195,2.355,0.588
			c0.507,0.395,0.762,0.984,0.762,1.773c0,0.574-0.151,1.059-0.454,1.453c-0.303,0.393-0.763,0.678-1.38,0.85l2.326,3.902H112.2
			l-2.209-3.732H107.864L107.864,530.595z M107.864,530.08h1.636c0.723,0,1.283-0.162,1.682-0.484
			c0.399-0.32,0.598-0.797,0.598-1.426c0-0.652-0.194-1.127-0.586-1.424c-0.391-0.297-1.026-0.445-1.909-0.445h-1.418v3.779H107.864
			z"/>
	</g>
	<g>
		<path fill="#1A1D1E" d="M9.42,468.988l-3.193-7.91H6.18c0.031,0.482,0.047,0.979,0.047,1.488v6.422H5.652v-8.566h0.927
			l3.034,7.535h0.035l3.035-7.535h0.902v8.566h-0.604v-6.492c0-0.453,0.023-0.922,0.07-1.406h-0.047l-3.205,7.898H9.42z"/>
		<path fill="#1A1D1E" d="M20.131,465.964h-3.48l-1.194,3.023h-0.662l3.444-8.604h0.382l3.375,8.604H21.32L20.131,465.964z
			 M16.867,465.425h3.063l-1.166-3.088c-0.098-0.242-0.215-0.578-0.352-1.008c-0.105,0.375-0.222,0.715-0.347,1.02L16.867,465.425z"
			/>
		<path fill="#1A1D1E" d="M23.207,468.988v-8.566h0.598v8.566H23.207z"/>
		<path fill="#1A1D1E" d="M32.459,468.988h-0.604l-5.074-7.605h-0.047c0.047,0.906,0.07,1.59,0.07,2.051v5.555H26.23v-8.566h0.599
			l5.067,7.594h0.035c-0.035-0.703-0.053-1.371-0.053-2.004v-5.59h0.58L32.459,468.988L32.459,468.988z"/>
		<path fill="#1A1D1E" d="M42.73,466.779c0,0.715-0.263,1.279-0.788,1.697c-0.524,0.42-1.224,0.629-2.095,0.629
			c-1.047,0-1.85-0.115-2.408-0.348v-0.598c0.617,0.262,1.404,0.393,2.361,0.393c0.703,0,1.261-0.16,1.673-0.482
			s0.618-0.744,0.618-1.27c0-0.324-0.068-0.592-0.205-0.805s-0.359-0.408-0.668-0.584s-0.762-0.365-1.359-0.568
			c-0.875-0.301-1.479-0.625-1.813-0.975c-0.334-0.352-0.501-0.816-0.501-1.398c0-0.641,0.251-1.162,0.753-1.566
			s1.146-0.605,1.937-0.605c0.806,0,1.562,0.152,2.269,0.457l-0.217,0.516c-0.711-0.297-1.392-0.445-2.039-0.445
			c-0.634,0-1.138,0.146-1.513,0.439s-0.563,0.691-0.563,1.195c0,0.316,0.058,0.576,0.173,0.779s0.304,0.385,0.565,0.547
			c0.261,0.162,0.711,0.355,1.348,0.584c0.668,0.229,1.17,0.453,1.506,0.67s0.581,0.463,0.735,0.738
			C42.653,466.054,42.73,466.388,42.73,466.779z"/>
		<path fill="#1A1D1E" d="M46.773,468.988H46.17v-8.004h-2.783v-0.564h6.17v0.564h-2.783L46.773,468.988L46.773,468.988z"/>
		<path fill="#1A1D1E" d="M54.953,465.964h-3.48l-1.195,3.023h-0.661l3.444-8.604h0.381l3.375,8.604h-0.674L54.953,465.964z
			 M51.689,465.425h3.064l-1.166-3.088c-0.099-0.242-0.215-0.578-0.353-1.008c-0.104,0.375-0.221,0.715-0.346,1.02L51.689,465.425z"
			/>
		<path fill="#1A1D1E" d="M64.258,468.988h-0.604l-5.073-7.605h-0.047c0.047,0.906,0.069,1.59,0.069,2.051v5.555h-0.574v-8.566
			h0.599l5.067,7.594h0.035c-0.035-0.703-0.053-1.371-0.053-2.004v-5.59h0.58L64.258,468.988L64.258,468.988z"/>
		<path fill="#1A1D1E" d="M73.188,464.623c0,1.438-0.377,2.523-1.131,3.26c-0.754,0.738-1.861,1.105-3.322,1.105h-2.051v-8.566
			h2.314c1.367,0,2.406,0.357,3.12,1.072C72.831,462.208,73.188,463.251,73.188,464.623z M72.537,464.646
			c0-1.227-0.313-2.148-0.936-2.77c-0.623-0.619-1.538-0.928-2.745-0.928h-1.576v7.512h1.419
			C71.258,468.46,72.537,467.189,72.537,464.646z"/>
		<path fill="#1A1D1E" d="M78.871,468.988h-0.599v-8.566h4.693v0.551H78.87v3.633h3.866v0.557H78.87L78.871,468.988L78.871,468.988z
			"/>
		<path fill="#1A1D1E" d="M84.895,465.255v3.732h-0.598v-8.566h2.039c1.063,0,1.848,0.195,2.354,0.588
			c0.508,0.395,0.763,0.984,0.763,1.773c0,0.574-0.151,1.059-0.454,1.453c-0.304,0.393-0.764,0.678-1.38,0.85l2.325,3.902H89.23
			l-2.209-3.732H84.895z M84.895,464.74h1.635c0.724,0,1.283-0.162,1.683-0.484c0.398-0.322,0.598-0.797,0.598-1.426
			c0-0.652-0.194-1.127-0.586-1.424c-0.391-0.297-1.027-0.445-1.91-0.445h-1.418L84.895,464.74L84.895,464.74z"/>
		<path fill="#1A1D1E" d="M98.629,464.693c0,1.357-0.34,2.434-1.021,3.225c-0.68,0.791-1.616,1.188-2.813,1.188
			c-1.191,0-2.127-0.396-2.808-1.188c-0.68-0.791-1.02-1.869-1.02-3.236c0-1.363,0.343-2.438,1.028-3.221
			c0.685-0.783,1.622-1.174,2.81-1.174c1.195,0,2.131,0.393,2.807,1.18C98.29,462.253,98.629,463.33,98.629,464.693z
			 M91.621,464.693c0,1.227,0.272,2.174,0.819,2.844s1.332,1.006,2.355,1.006c1.031,0,1.819-0.332,2.364-0.996
			s0.816-1.615,0.816-2.854c0-1.234-0.271-2.182-0.816-2.84s-1.329-0.986-2.354-0.986c-1.02,0-1.806,0.332-2.357,0.996
			C91.897,462.527,91.621,463.47,91.621,464.693z"/>
		<path fill="#1A1D1E" d="M106.826,468.988h-0.604l-5.074-7.605h-0.047c0.047,0.906,0.07,1.59,0.07,2.051v5.555h-0.574v-8.566h0.598
			l5.068,7.594h0.035c-0.035-0.703-0.053-1.371-0.053-2.004v-5.59h0.58L106.826,468.988L106.826,468.988z"/>
		<path fill="#1A1D1E" d="M111.484,468.988h-0.604v-8.004h-2.783v-0.564h6.17v0.564h-2.783V468.988z"/>
	</g>
	<g>
		<path fill="#1A1D1E" d="M58.944,163.661h2.351c1.059,0,1.836,0.18,2.332,0.539c0.496,0.359,0.744,0.902,0.744,1.629
			c0,0.496-0.151,0.909-0.454,1.239c-0.304,0.33-0.745,0.542-1.327,0.636v0.035c0.684,0.102,1.187,0.317,1.509,0.646
			c0.322,0.33,0.483,0.79,0.483,1.38c0,0.789-0.263,1.396-0.785,1.822c-0.523,0.426-1.267,0.639-2.228,0.639h-2.625V163.661z
			 M59.542,167.475h1.887c0.805,0,1.39-0.134,1.755-0.401c0.365-0.267,0.548-0.687,0.548-1.257c0-0.57-0.206-0.984-0.618-1.242
			c-0.411-0.258-1.025-0.387-1.843-0.387h-1.729V167.475z M59.542,168.002v3.697h2.016c1.586,0,2.379-0.645,2.379-1.934
			c0-1.176-0.836-1.764-2.508-1.764L59.542,168.002L59.542,168.002z"/>
		<path fill="#1A1D1E" d="M67.065,168.495v3.732h-0.598v-8.566h2.039c1.063,0,1.848,0.196,2.354,0.589
			c0.508,0.393,0.763,0.983,0.763,1.772c0,0.574-0.151,1.059-0.454,1.453s-0.764,0.678-1.38,0.85l2.326,3.902H71.4l-2.209-3.732
			H67.065z M67.065,167.979H68.7c0.723,0,1.282-0.161,1.682-0.483c0.398-0.322,0.598-0.798,0.598-1.427
			c0-0.652-0.194-1.127-0.586-1.424c-0.391-0.297-1.026-0.445-1.91-0.445h-1.418L67.065,167.979L67.065,167.979z"/>
		<path fill="#1A1D1E" d="M79.827,172.227h-0.604l-5.074-7.605h-0.047c0.047,0.906,0.07,1.59,0.07,2.051v5.555h-0.574v-8.566h0.598
			l5.068,7.594H79.3c-0.035-0.703-0.053-1.371-0.053-2.004v-5.59h0.58V172.227z"/>
	</g>
	<g>
		<path fill="#191C1E" d="M142.109,84.239h3.158v3.908c-0.828,0.352-1.76,0.527-2.795,0.527c-1.352,0-2.388-0.382-3.108-1.146
			s-1.081-1.845-1.081-3.243c0-0.871,0.179-1.644,0.536-2.317s0.869-1.194,1.535-1.562s1.431-0.551,2.294-0.551
			c0.934,0,1.771,0.172,2.514,0.516l-0.24,0.539c-0.742-0.344-1.512-0.516-2.309-0.516c-1.129,0-2.024,0.349-2.687,1.046
			s-0.993,1.638-0.993,2.821c0,1.289,0.314,2.259,0.943,2.909s1.553,0.976,2.771,0.976c0.789,0,1.459-0.111,2.01-0.334v-3.012
			h-2.549V84.239z"/>
		<path fill="#191C1E" d="M148.015,84.825v3.732h-0.598v-8.566h2.039c1.063,0,1.848,0.196,2.355,0.589s0.762,0.983,0.762,1.772
			c0,0.574-0.151,1.059-0.454,1.453s-0.763,0.678-1.38,0.85l2.326,3.902h-0.715l-2.209-3.732H148.015z M148.015,84.309h1.635
			c0.723,0,1.283-0.161,1.682-0.483s0.598-0.798,0.598-1.427c0-0.652-0.195-1.127-0.586-1.424s-1.027-0.445-1.91-0.445h-1.418
			V84.309z"/>
		<path fill="#191C1E" d="M161.375,88.557h-0.492l-1.881-6.609c-0.156-0.543-0.273-0.988-0.352-1.336
			c-0.063,0.34-0.151,0.73-0.267,1.172s-0.745,2.699-1.89,6.773h-0.504l-2.355-8.566h0.627l1.5,5.52
			c0.059,0.223,0.113,0.429,0.164,0.618s0.097,0.367,0.138,0.533s0.078,0.326,0.111,0.48s0.063,0.31,0.091,0.466
			c0.094-0.531,0.293-1.338,0.598-2.42l1.465-5.197h0.662l1.717,5.965c0.199,0.688,0.342,1.242,0.428,1.664
			c0.051-0.281,0.116-0.58,0.196-0.896s0.683-2.561,1.808-6.732h0.604L161.375,88.557z"/>
	</g>
</g>
<g id="LABELS">
	<text fid="GW-GW3" transform="matrix(1 0 0 1 160.012 126.7046)" fill="#FFFFFF" font-family="'Arial'" font-size="11">GW3</text>
	<text fid="GW-GW2" transform="matrix(1 0 0 1 124.3611 141.1167)" fill="#FFFFFF" font-family="'Arial'" font-size="11">GW2</text>
	<text fid="GW-GW1" transform="matrix(1 0 0 1 109.3083 173.2827)" fill="#FFFFFF" font-family="'Arial'" font-size="11">GW1</text>
	<text fid="BR-BR5" transform="matrix(1 0 0 1 44.7649 209.0249)" fill="#FFFFFF" font-family="'Arial'" font-size="11">BR5</text>
	<text fid="BR-BR4" transform="matrix(1 0 0 1 44.7649 251.3667)" fill="#FFFFFF" font-family="'Arial'" font-size="11">BR4</text>
	<text fid="BR-BR3" transform="matrix(1 0 0 1 44.7649 293.7104)" fill="#FFFFFF" font-family="'Arial'" font-size="11">BR3</text>
	<text fid="BR-BR2" transform="matrix(1 0 0 1 44.7649 336.0542)" fill="#FFFFFF" font-family="'Arial'" font-size="11">BR2</text>
	<text fid="BR-BR1" transform="matrix(1 0 0 1 44.7649 386.4683)" fill="#FFFFFF" font-family="'Arial'" font-size="11">BR1</text>
	<text fid="BF-BF5" transform="matrix(1 0 0 1 111.7878 205.5171)" fill="#FFFFFF" font-family="'Arial'" font-size="11">BF5</text>
	<text fid="BF-BF4" transform="matrix(1 0 0 1 111.7878 251.769)" fill="#FFFFFF" font-family="'Arial'" font-size="11">BF4</text>
	<text fid="BF-BF3" transform="matrix(1 0 0 1 111.7878 294.1118)" fill="#FFFFFF" font-family="'Arial'" font-size="11">BF3</text>
	<text fid="BF-BF2" transform="matrix(1 0 0 1 111.7878 336.4565)" fill="#FFFFFF" font-family="'Arial'" font-size="11">BF2</text>
	<text fid="BF-BF1" transform="matrix(1 0 0 1 111.7878 386.8687)" fill="#FFFFFF" font-family="'Arial'" font-size="11">BF1</text>
	<text fid="CD-CD7" transform="matrix(1 0 0 1 127.8552 596.8315)" fill="#FFFFFF" font-family="'Arial'" font-size="11">CD7</text>
	<text fid="CD-CD6" transform="matrix(1 0 0 1 187.9685 596.8315)" fill="#FFFFFF" font-family="'Arial'" font-size="11">CD6</text>
	<text fid="CD-CD5" transform="matrix(1 0 0 1 250.1843 596.8315)" fill="#FFFFFF" font-family="'Arial'" font-size="11">CD5</text>
	<text fid="CD-CD4" transform="matrix(1 0 0 1 314.7595 596.8315)" fill="#FFFFFF" font-family="'Arial'" font-size="11">CD4</text>
	<text fid="CD-CD3" transform="matrix(1 0 0 1 379.3362 596.8315)" fill="#FFFFFF" font-family="'Arial'" font-size="11">CD3</text>
	<text fid="CD-CD2" transform="matrix(1 0 0 1 441.551 596.8315)" fill="#FFFFFF" font-family="'Arial'" font-size="11">CD2</text>
	<text fid="CD-CD1" transform="matrix(1 0 0 1 515.1643 596.8315)" fill="#FFFFFF" font-family="'Arial'" font-size="11">CD1</text>
	<text fid="MR-MRT" transform="matrix(1 0 0 1 131.7732 530.8452)" fill="#FFFFFF" font-family="'Arial'" font-size="11">MRT</text>
	<text fid="MR-MRS" transform="matrix(1 0 0 1 185.3215 530.8452)" fill="#FFFFFF" font-family="'Arial'" font-size="11">MRS</text>
	<text fid="MR-MRR" transform="matrix(1 0 0 1 235.2449 530.8452)" fill="#FFFFFF" font-family="'Arial'" font-size="11">MRR</text>
	<text fid="MR-MRQ" transform="matrix(1 0 0 1 279.8298 530.8452)" fill="#FFFFFF" font-family="'Arial'" font-size="11">MRQ</text>
	<text fid="MR-MRE" transform="matrix(1 0 0 1 326.594 530.8452)" fill="#FFFFFF" font-family="'Arial'" font-size="11">MRE</text>
	<text fid="MR-MRD" transform="matrix(1 0 0 1 372.4338 530.8452)" fill="#FFFFFF" font-family="'Arial'" font-size="11">MRD</text>
	<text fid="MR-MRC" transform="matrix(1 0 0 1 417.3284 530.8452)" fill="#FFFFFF" font-family="'Arial'" font-size="11">MRC</text>
	<text fid="MR-MRB" transform="matrix(1 0 0 1 467.8694 530.8452)" fill="#FFFFFF" font-family="'Arial'" font-size="11">MRB</text>
	<text fid="MR-MRA" transform="matrix(1 0 0 1 521.7307 530.8452)" fill="#FFFFFF" font-family="'Arial'" font-size="11">MRA</text>
	<text fid="MF-MFP" transform="matrix(1 0 0 1 130.2048 497.0542)" fill="#FFFFFF" font-family="'Arial'" font-size="11">MFP</text>
	<text fid="MF-MFO" transform="matrix(1 0 0 1 176.0559 497.0542)" fill="#FFFFFF" font-family="'Arial'" font-size="11">MFO</text>
	<text fid="MF-MFN" transform="matrix(1 0 0 1 218.803 497.0542)" fill="#FFFFFF" font-family="'Arial'" font-size="11">MFN</text>
	<text fid="MF-MFM" transform="matrix(1 0 0 1 260.0413 497.0542)" fill="#FFFFFF" font-family="'Arial'" font-size="11">MFM</text>
	<text fid="MF-MLF" transform="matrix(1 0 0 1 299.3347 507.9956)" fill="#FFFFFF" font-family="'Arial'" font-size="11">MLF</text>
	<text fid="MF-MFL" transform="matrix(1 0 0 1 299.3298 484.646)" fill="#FFFFFF" font-family="'Arial'" font-size="11">MFL</text>
	<text fid="MF-DIR" transform="matrix(1 0 0 1 329.3879 496.2554)" fill="#FFFFFF" font-family="'Arial'" font-size="11">DIR</text>
	<text fid="MF-MFK" transform="matrix(1 0 0 1 355.6506 497.0542)" fill="#FFFFFF" font-family="'Arial'" font-size="11">MFK</text>
	<text fid="MF-MFJ" transform="matrix(1 0 0 1 394.3967 497.0542)" fill="#FFFFFF" font-family="'Arial'" font-size="11">MFJ</text>
	<text fid="MF-MFH" transform="matrix(1 0 0 1 435.0139 497.0542)" fill="#FFFFFF" font-family="'Arial'" font-size="11">MFH</text>
	<text fid="MF-MFG" transform="matrix(1 0 0 1 477.1389 497.0542)" fill="#FFFFFF" font-family="'Arial'" font-size="11">MFG</text>
	<text fid="MF-MFF" transform="matrix(1 0 0 1 524.5432 497.0542)" fill="#FFFFFF" font-family="'Arial'" font-size="11">MFF</text>
	<text fid="ENC-SW5" transform="matrix(1 0 0 1 128.1609 455.8276)" fill="#FFFFFF" font-family="'Arial'" font-size="11">SW5</text>
	<text fid="ENC-SW4" transform="matrix(1 0 0 1 172.3264 446.8921)" fill="#FFFFFF" font-family="'Arial'" font-size="11">SW4</text>
	<text fid="ENC-SW3" transform="matrix(1 0 0 1 216.4905 446.8921)" fill="#FFFFFF" font-family="'Arial'" font-size="11">SW3</text>
	<text fid="ENC-SW2" transform="matrix(1 0 0 1 260.6545 446.8921)" fill="#FFFFFF" font-family="'Arial'" font-size="11">SW2</text>
	<text fid="ENC-SW1" transform="matrix(1 0 0 1 304.8191 446.8921)" fill="#FFFFFF" font-family="'Arial'" font-size="11">SW1</text>
	<text fid="ENC-SE5" transform="matrix(1 0 0 1 350.5334 446.8921)" fill="#FFFFFF" font-family="'Arial'" font-size="11">SE5</text>
	<text fid="ENC-SE4" transform="matrix(1 0 0 1 394.6975 446.8921)" fill="#FFFFFF" font-family="'Arial'" font-size="11">SE4</text>
	<text fid="ENC-SE3" transform="matrix(1 0 0 1 438.8635 446.8921)" fill="#FFFFFF" font-family="'Arial'" font-size="11">SE3</text>
	<text fid="ENC-SE2" transform="matrix(1 0 0 1 483.0276 446.8921)" fill="#FFFFFF" font-family="'Arial'" font-size="11">SE2</text>
	<text fid="ENC-SE1" transform="matrix(1 0 0 1 527.1917 455.8276)" fill="#FFFFFF" font-family="'Arial'" font-size="11">SE1</text>
	<text fid="CR-CR5" transform="matrix(1 0 0 1 611.1956 386.8687)" fill="#FFFFFF" font-family="'Arial'" font-size="11">CR5</text>
	<text fid="CR-CR4" transform="matrix(1 0 0 1 611.1956 336.4565)" fill="#FFFFFF" font-family="'Arial'" font-size="11">CR4</text>
	<text fid="CR-CR3" transform="matrix(1 0 0 1 611.1956 294.1118)" fill="#FFFFFF" font-family="'Arial'" font-size="11">CR3</text>
	<text fid="CR-CR2" transform="matrix(1 0 0 1 611.1956 251.769)" fill="#FFFFFF" font-family="'Arial'" font-size="11">CR2</text>
	<text fid="CR-CR1" transform="matrix(1 0 0 1 611.1956 205.5171)" fill="#FFFFFF" font-family="'Arial'" font-size="11">CR1</text>
	<text fid="CF-CF5" transform="matrix(1 0 0 1 545.4143 386.4683)" fill="#FFFFFF" font-family="'Arial'" font-size="11">CF5</text>
	<text fid="CF-CF4" transform="matrix(1 0 0 1 545.4143 336.0542)" fill="#FFFFFF" font-family="'Arial'" font-size="11">CF4</text>
	<text fid="CF-CF3" transform="matrix(1 0 0 1 545.4143 293.7104)" fill="#FFFFFF" font-family="'Arial'" font-size="11">CF3</text>
	<text fid="CF-CF2" transform="matrix(1 0 0 1 545.4143 251.3667)" fill="#FFFFFF" font-family="'Arial'" font-size="11">CF2</text>
	<text fid="CF-CF1" transform="matrix(1 0 0 1 545.4143 209.0249)" fill="#FFFFFF" font-family="'Arial'" font-size="11">CF1</text>
	<text fid="GE-GE3" transform="matrix(1 0 0 1 544.7913 173.2827)" fill="#FFFFFF" font-family="'Arial'" font-size="11">GE3</text>
	<text fid="GE-GE2" transform="matrix(1 0 0 1 526.7327 141.1167)" fill="#FFFFFF" font-family="'Arial'" font-size="11">GE2</text>
	<text fid="GE-GE1" transform="matrix(1 0 0 1 494.4553 126.7046)" fill="#FFFFFF" font-family="'Arial'" font-size="11">GE1</text>
	<text fid="GF-GF7" transform="matrix(1 0 0 1 455.8831 126.7046)" fill="#FFFFFF" font-family="'Arial'" font-size="11">GF7</text>
	<text fid="GF-GF6" transform="matrix(1 0 0 1 412.9143 126.7046)" fill="#FFFFFF" font-family="'Arial'" font-size="11">GF6</text>
	<text fid="GF-GF5" transform="matrix(1 0 0 1 370.5256 126.7046)" fill="#FFFFFF" font-family="'Arial'" font-size="11">GF5</text>
	<text fid="GF-GF4" transform="matrix(1 0 0 1 328.137 126.7046)" fill="#FFFFFF" font-family="'Arial'" font-size="11">GF4</text>
	<text fid="GF-GF3" transform="matrix(1 0 0 1 285.7473 126.7046)" fill="#FFFFFF" font-family="'Arial'" font-size="11">GF3</text>
	<text fid="GF-GF2" transform="matrix(1 0 0 1 243.3586 126.7046)" fill="#FFFFFF" font-family="'Arial'" font-size="11">GF2</text>
	<text fid="GF-GF1" transform="matrix(1 0 0 1 200.3918 126.7046)" fill="#FFFFFF" font-family="'Arial'" font-size="11">GF1</text>
	<text fid="GR-GR7" transform="matrix(1 0 0 1 463.0647 55.8042)" fill="#FFFFFF" font-family="'Arial'" font-size="11">GR7</text>
	<text fid="GR-GR6" transform="matrix(1 0 0 1 412.2932 55.8042)" fill="#FFFFFF" font-family="'Arial'" font-size="11">GR6</text>
	<text fid="GR-GR5" transform="matrix(1 0 0 1 369.9026 55.8042)" fill="#FFFFFF" font-family="'Arial'" font-size="11">GR5</text>
	<text fid="GR-GR4" transform="matrix(1 0 0 1 327.5149 55.8042)" fill="#FFFFFF" font-family="'Arial'" font-size="11">GR4</text>
	<text fid="GR-GR3" transform="matrix(1 0 0 1 285.1252 55.8042)" fill="#FFFFFF" font-family="'Arial'" font-size="11">GR3</text>
	<text fid="GR-GR2" transform="matrix(1 0 0 1 242.7366 55.8042)" fill="#FFFFFF" font-family="'Arial'" font-size="11">GR2</text>
	<text fid="GR-GR1" transform="matrix(1 0 0 1 191.9631 55.8042)" fill="#FFFFFF" font-family="'Arial'" font-size="11">GR1</text>
	<text fid="GR-GLE" transform="matrix(1 0 0 1 414.5608 85.8521)" fill="#FFFFFF" font-family="'Arial'" font-size="9">GLE</text>
	<text fid="GR-GLW" transform="matrix(1 0 0 1 249.4314 85.8521)" fill="#FFFFFF" font-family="'Arial'" font-size="9">GLW</text>
</g>
</svg>
