<svg>
   <g id="AREAS">
      <polyline id="SU-H1" stroke-width="0" points="590.154,399.633 585.828,396.502 
         579.689,399.32 579.689,402.83 582.26,401.826 586.831,404.771 590.154,399.633"/>
      <polyline id="SU-H2" stroke-width="0" points="601.969,406.859 601.842,407.109 
         593.011,401.594 592.446,402.598 601.217,408.111 599.65,410.617 597.958,409.551 594.637,414.879 597.331,416.568 
         595.766,419.072 585.932,412.936 584.866,414.691 582.234,412.748 582.546,412.371 585.68,407.361 579.978,403.787 
         580.104,403.225 578.225,401.094 574.903,402.598 564.758,416.881 560.747,421.518 569.578,429.098 572.273,425.965 
         579.351,432.166 577.66,434.172 579.226,435.551 575.279,440.184 580.855,445.012 579.915,446.139 580.92,446.139 580.92,446.512 
         582.358,446.512 584.237,444.322 582.609,442.943 588.687,435.928 597.206,424.461 595.513,423.209 604.784,408.551 
         601.969,406.859"/>
      <polyline id="SU-H3" stroke-width="0" points="582.262,444.869 580.571,444.869 
         580.76,445.057 578.815,447.314 566.915,436.979 566.161,437.854 565.85,438.105 563.594,435.848 567.479,431.402 558.769,423.822 
         541.666,440.799 550.687,451.449 551.878,450.445 553.759,452.637 549.309,456.523 559.582,468.488 566.788,462.285 
         582.262,446.564 582.262,444.869"/>
      <polyline id="SU-H4" stroke-width="0" points="537.963,459.283 534.579,455.146 
         529.067,459.66 510.272,472.627 513.154,477.074 520.358,472.314 522.175,474.943 520.672,476.008 535.079,497.936 
         547.735,489.041 546.545,487.287 547.484,486.66 546.296,484.969 558.948,474.695 556.255,471.438 557.071,470.811 
         546.985,458.658 545.167,460.096 549.176,464.922 543.788,469.43 542.475,467.865 540.155,469.684 536.27,464.859 534.768,466.049 
         532.951,463.479 537.963,459.283"/>
      <polyline id="SU-H5" stroke-width="0" points="511.718,482.117 507.771,484.684 
         516.729,500.223 528.82,492.703 518.983,477.48 518.043,478.107 522.49,485.125 515.791,489.383 511.718,482.117"/>
      <polyline id="SU-H6" stroke-width="0" points="504.35,486.174 502.533,487.113 
         501.028,484.355 510.489,478.594 507.607,474.145 488.938,484.859 482.425,487.99 484.678,492.816 490.632,490.061 
         492.133,492.877 490.254,493.818 492.384,498.453 491.257,500.205 490.191,500.707 502.284,521.695 522.14,511.045 
         521.575,510.043 518.444,511.734 504.35,486.174"/>
      <polyline id="SU-K1" stroke-width="0" points="490.589,501.256 491.214,502.57 
         485.513,505.201 489.397,513.473 496.977,524.246 502.615,521.365 490.589,501.256"/>
      <polyline id="SU-K2" stroke-width="0" points="482.264,494.195 480.009,489.311 
         460.087,497.518 453.259,499.711 454.824,504.783 460.525,503.031 461.341,506.1 460.211,506.475 462.09,512.428 459.207,513.305 
         459.836,515.309 453.886,517.188 460.087,537.109 458.271,537.674 458.271,538.736 472.115,534.604 490.219,527.525 
         487.025,515.309 479.446,499.021 478.192,499.584 476.876,496.703 482.264,494.195"/>
      <polyline id="SU-K3" stroke-width="0" points="451.929,506.082 450.303,501.008 
         429.441,506.459 422.422,507.648 423.298,512.973 429.188,511.973 429.565,515.104 428.374,515.355 429.441,521.496 
         426.493,521.994 426.869,524.061 420.668,525.127 423.989,544.801 422.296,545.111 422.296,546.992 436.331,544.801 
         459.26,539.037 459.26,537.781 457.125,538.406 448.484,510.531 447.106,510.969 446.229,507.898 451.929,506.082"/>
      <polyline id="SU-K4" stroke-width="0" points="416.258,517.035 414.192,517.348 
         413.879,514.215 420.269,513.148 419.393,507.824 412.312,509.016 403.168,509.705 408.678,548.605 423.088,546.73 
         423.088,544.598 420.958,544.973 416.258,517.035"/>
      <polyline id="SU-L1" stroke-width="0" points="397.456,515.916 397.516,518.986 
         396.138,519.107 396.326,525.311 393.381,525.438 393.381,527.504 387.182,527.754 387.87,547.738 385.489,547.803 
         385.489,549.932 400.65,549.367 408.922,548.305 402.467,509.773 391.255,510.715 391.441,516.104 397.456,515.916"/>
      <polyline id="SU-L2" stroke-width="0" points="387.937,516.574 387.748,511.121 
         356.553,511.373 356.553,516.762 362.565,516.762 362.565,519.895 361.188,519.895 361.188,526.16 358.181,526.16 358.181,528.227 
         351.917,528.227 351.917,548.271 350.977,548.271 350.977,550.404 385.932,550.152 385.932,548.15 384.368,548.211 
         383.428,519.832 382.049,519.895 381.927,516.762 387.937,516.574"/>
      <polyline id="SU-L3" stroke-width="0" points="347.644,519.514 347.644,517.447 
         338.81,517.447 331.417,526.904 331.417,547.893 332.108,547.893 332.108,550.025 351.154,550.025 351.154,547.893 
         349.024,547.893 349.024,519.514 347.644,519.514"/>
      <polyline id="SU-L4" stroke-width="0" points="328.771,525.932 324.824,517.162 
         323.758,517.162 323.758,526.746 320.627,526.746 320.627,537.207 328.771,537.207 328.771,525.932"/>
      <polyline id="SU-M1" stroke-width="0" points="316.933,526.971 316.933,524.4 
         309.791,520.455 309.791,526.594 311.984,526.846 311.984,537.434 320.378,537.434 320.378,526.971 316.933,526.971"/>
      <polyline id="SU-M2" stroke-width="0" points="309.919,526.473 309.919,520.521 
         304.092,517.262 292.69,517.262 292.69,519.332 291.25,519.332 291.25,547.709 289.685,547.709 289.685,549.717 309.416,549.84 
         309.416,548.588 308.853,548.588 308.853,526.348 309.919,526.473"/>
      <polyline id="SU-M3" stroke-width="0" points="283.523,516.279 283.523,510.891 
         252.326,510.641 252.137,516.092 258.026,516.279 257.901,519.408 256.647,519.348 255.707,547.727 254.705,547.727 
         254.705,549.605 289.725,549.795 289.725,547.789 288.159,547.789 288.159,527.742 281.896,527.742 281.896,525.672 
         278.889,525.672 278.889,519.408 277.509,519.408 277.509,516.279 283.523,516.279"/>
      <polyline id="SU-M4" stroke-width="0" points="248.955,516.291 249.143,510.904 
         238.243,509.586 235.047,548.99 254.405,550.119 254.656,548.055 252.526,547.928 253.153,527.941 243.945,527.629 
         244.194,519.297 242.816,519.234 242.942,516.104 248.955,516.291"/>
      <polyline id="SU-N1" stroke-width="0" points="238.294,509.857 227.52,508.982 
         220.44,507.791 219.563,513.117 225.954,514.18 225.639,517.314 223.573,517 218.874,544.941 215.93,544.439 216.306,546.756 
         234.786,548.826 238.294,509.857"/>
      <polyline id="SU-N2" stroke-width="0" points="217.993,507.16 210.977,505.971 
         190.115,500.516 188.487,505.594 194.188,507.408 193.248,510.416 191.995,510.041 183.537,537.041 181.281,536.352 
         181.469,538.609 204.21,544.309 219.309,546.814 219.371,544.809 216.426,544.309 219.748,524.639 213.607,523.572 
         213.919,521.508 210.977,521.006 212.042,514.865 210.663,514.615 211.228,511.484 217.117,512.486 217.993,507.16"/>
      <polyline id="SU-N3" stroke-width="0" points="185.318,505.086 186.885,500.01 
         166.651,492.619 160.135,489.611 157.878,494.498 163.268,497.002 161.825,499.82 160.699,499.32 153.306,515.234 151.552,528.451 
         168.029,534.908 181.56,539.041 181.811,536.973 180.37,536.533 186.321,517.49 180.308,515.609 180.934,513.604 178.115,512.73 
         179.931,506.777 178.617,506.336 179.556,503.33 185.318,505.086"/>
      <polyline id="SU-Q1" stroke-width="0" points="157.805,488.441 138.697,478.355 
         132.621,474.598 129.801,479.045 139.763,485.061 138.196,487.877 135.942,486.688 121.845,512.248 119.152,510.744 
         118.587,511.748 134.311,520.455 147.343,499.908 149.972,494.268 147.593,493.014 149.159,490.258 155.55,493.264 
         157.805,488.441"/>
      <polygon id="SU-N4" stroke-width="0" points="149.758,501.268 147.227,500.091 
         134.311,520.455 134.133,520.356 134.032,520.564 142.302,524.383 150.634,514.297 154.582,505.779 148.879,503.148"/>
      <polyline id="SU-Q2" stroke-width="0" points="133.388,485.188 129.441,482.617 
         126.935,487.064 119.293,484.684 123.177,478.609 122.238,477.982 117.413,485.498 128.439,494.082 133.388,485.188"/>
      <path id="SU-Q3" stroke-width="0" d="M118.549,475.092l1.816-2.629
         c2.444,1.564,4.825,3.129,7.206,4.695l2.819-4.447l-24.058-17.23l-3.383,4.074l4.825,4.01l-1.817,2.631l-1.566-1.254l-2.943,3.699
         l-3.009,2.129l-6.954-5.764l4.01-4.822l-1.817-1.443l-10.023,12.152l0.75,0.629l-2.63,3.258l10.965,9.084l4.635,3.256l-1.19,1.756
         l6.827,4.76l-1.189,1.756l3.885,2.691l14.282-21.924L118.549,475.092"/>
      <polyline id="SU-Q4" stroke-width="0" points="98.626,441.527 81.586,424.551 
         72.815,432.131 77.013,436.893 74.757,439.148 73.378,437.707 61.54,448.045 60.098,446.414 58.407,447.793 73.566,463.018 
         80.708,469.217 91.047,457.189 86.597,453.367 88.414,451.176 89.604,452.178 98.626,441.527"/>
      <polyline id="SU-Q5" stroke-width="0" points="75.266,417.227 64.116,401.566 
         54.343,407.705 57.663,413.092 54.967,414.721 54.029,413.279 44.192,419.42 42.626,416.912 45.257,415.223 43.629,412.592 
         39.369,415.598 43.567,422.301 52.275,434.08 50.582,435.33 51.334,436.398 54.844,440.346 53.215,441.725 58.601,447.926 
         60.481,446.924 59.102,445.357 64.742,440.533 60.733,435.895 62.298,434.518 60.231,432.137 67.373,425.936 70.443,429.443 
         79.151,421.861 75.266,417.227"/>
      <polyline id="SU-Q6" stroke-width="0" points="53.561,405.543 63.397,399.404 
         60.953,395.395 58.134,397.148 47.295,402.66 36.02,409.303 40.217,416.008 44.477,412.998 42.786,410.365 41.156,411.367 
         39.59,408.863 48.612,403.164 52.183,403.352 53.561,405.543"/>
      <polyline id="W-B8" stroke-width="0" points="163.589,53.838 163.151,52.086 
         159.768,53.025 160.269,54.777 157.512,55.596 156.948,53.838 155.946,54.154 155.382,52.398 152.75,53.273 151.686,50.021 
         151.31,50.143 150.685,48.453 141.851,51.523 142.854,54.217 140.975,54.904 139.908,52.275 135.023,54.217 173.05,143.99 
         185.766,139.668 164.278,53.65 163.589,53.838"/>
      <polyline id="W-B7" stroke-width="0" points="123.792,59.17 110.637,66.063 111.512,67.629 
         109.509,68.754 157.997,151.326 168.583,145.873 130.494,56.1 125.672,58.295 126.359,59.924 124.606,60.799 123.792,59.17"/>
      <polyline id="W-B6" stroke-width="0" points="95.05,77.457 93.987,75.953 84.527,82.846 
         144.667,159.775 154.565,153.008 104.949,68.938 95.677,74.828 96.867,76.268 95.05,77.457"/>
      <polyline id="W-B5" stroke-width="0" points="68.603,96.855 60.833,104.563 132.252,171.09 
         142.839,161.381 83.825,86.02 82.447,87.082 81.319,85.705 70.043,95.412 71.297,96.795 69.855,98.172 68.603,96.855"/>
      <polyline id="W-B4" stroke-width="0" points="59.309,108.943 58.119,110.262 
         56.741,109.006 52.356,114.078 53.671,115.271 47.344,123.102 45.966,122.037 37.32,134.125 38.822,135.129 38.261,135.879 
         118.825,188.064 129.537,174.223 59.309,108.943"/>
      <polyline id="W-B3" stroke-width="0" points="22.702,164.422 21.261,167.68 
         109.593,205.141 116.735,191.488 34.292,139.113 27.712,150.389 21.073,163.67 22.702,164.422"/>
      <polyline id="W-B2" stroke-width="0" points="103.425,224.066 108.248,209.406 
         18.225,171.314 8.39,201.199 103.425,224.066"/>
      <polyline id="W-B1" stroke-width="0" points="7.271,204.875 4.263,221.479 2.509,236.324 
         99.738,243.152 102.118,227.68 7.271,204.875"/>
      <polyline id="W-A7" stroke-width="0" points="99.416,246.648 2.312,239.879 2,255.104 
         2.563,269.887 99.416,261.305 99.416,246.648"/>
      <polyline id="W-A6" stroke-width="0" points="101.903,280.004 99.522,265.592 
         2.607,274.111 4.863,290.15 7.555,303.496 101.903,280.004"/>
      <polyline id="W-A5" stroke-width="0" points="107.628,297.109 102.993,283.203 
         8.645,306.885 10.086,312.082 11.15,311.768 17.166,329.623 16.099,329.998 18.105,335.074 107.628,297.109"/>
      <polyline id="W-A4" stroke-width="0" points="116.046,313.996 109.281,301.027 
         19.758,339.055 29.719,358.977 42.123,352.086 45.381,357.975 116.046,313.996"/>
      <polyline id="W-A3" stroke-width="0" points="128.539,331.301 118.139,317.645 
         47.537,361.746 55.617,373.463 66.957,386.994 128.539,331.301"/>
      <polyline id="W-A2" stroke-width="0" points="136.925,340.818 130.41,334.43 70.144,391.5 
         83.925,404.906 136.925,340.818"/>
      <polyline id="W-A1" stroke-width="0" points="137.204,352.672 143.03,345.717 
         141.214,344.15 113.711,376.537 119.162,381.174 121.292,379.043 120.415,378.23 124.299,374.408 123.421,373.656 126.053,370.525 
         133.384,359.061 138.145,353.422 137.204,352.672"/>
      <polyline id="SL-P6" stroke-width="0" points="112.425,386.785 116.811,381.775 
         114.118,379.52 110.61,383.781 100.522,393.426 96.326,398.502 99.083,400.695 99.833,399.818 98.017,398.313 101.086,394.553 
         112.425,386.785"/>
      <path id="SL-P5" stroke-width="0" d="M154.3,376.723l-20.047,31.135l-3.946-2.508
         l-7.955,11.969c0.813,0.563,1.628,1.127,2.442,1.691l-0.689,0.938l-14.595-10.271l-6.641-5.451l0.689-0.875l2.381,1.813
         l7.579-9.207l-0.939-0.754l1.378-5.449l5.325-6.078l5.452,4.449l14.283,10.211l14.345-22.24L154.3,376.723"/>
      <polyline id="SL-P4" stroke-width="0" points="189.03,370.77 176.94,364.379 
         169.109,359.49 136.657,410.049 141.23,412.99 139.666,415.311 138.725,414.746 129.579,428.967 127.011,427.338 128.889,424.457 
         126.885,423.203 123.814,427.965 134.152,434.543 132.962,436.422 150.628,446.133 151.38,443.816 150.126,443.189 
         158.208,425.773 157.394,425.396 158.585,422.828 163.659,425.209 189.03,370.77"/>
      <polyline id="SL-P3" stroke-width="0" points="209.444,378.523 191.778,371.695 
         166.404,426.135 171.73,428.641 170.478,431.146 169.413,430.711 164.652,440.918 161.958,439.668 161.018,441.734 
         155.254,439.041 152.874,444.113 150.18,442.863 149.617,444.99 161.832,450.754 179.938,457.646 186.266,437.223 185.199,436.846 
         186.203,434.217 191.59,435.906 209.444,378.523"/>
      <polyline id="SL-P2" stroke-width="0" points="220.19,405.074 224.325,382.459 
         212.297,379.324 194.38,436.646 199.767,438.338 199.141,441.094 198.014,440.719 194.693,451.496 191.812,450.615 
         191.184,452.621 185.107,450.68 182.728,458.385 183.228,458.572 181.976,462.52 184.106,463.145 185.358,459.199 193.189,461.643 
         209.916,465.713 211.984,466.029 215.618,444.98 214.301,444.666 214.803,441.91 221.38,443.037 228.396,408.703 222.884,407.703 
         223.197,405.826 220.19,405.074"/>
      <polyline id="SL-P1" stroke-width="0" points="256.587,386.574 247.252,386.135 
         235.663,384.818 224.386,443.834 229.085,444.646 228.583,447.402 227.833,447.279 225.89,458.432 223.697,458.055 
         223.384,460.059 216.368,458.867 214.989,466.887 215.302,466.887 214.614,470.959 216.868,471.336 217.557,467.264 
         225.764,468.705 242.366,470.395 252.639,470.771 252.516,474.842 254.706,474.906 254.833,471.461 253.454,471.4 253.515,469.457 
         250.762,469.332 250.824,466.26 260.532,466.512 260.532,449.598 256.336,449.41 256.587,386.574"/>
      <polyline id="SL-O2" stroke-width="0" points="291.434,391.307 290.558,391.307 
         290.558,386.736 263.743,386.736 263.993,391.307 262.803,391.307 262.803,441.424 278.09,441.613 278.214,449.256 
         274.144,449.256 274.395,462.664 263.43,462.664 263.43,470.742 292.122,470.742 292.122,469.367 290.808,469.367 290.808,466.295 
         298.889,466.295 298.889,422.443 291.434,422.443 291.434,391.307"/>
      <polyline id="SL-O1" stroke-width="0" points="312.837,438.117 312.837,422.455 
         301.5,422.455 301.5,461.801 308.516,461.801 308.516,467.186 305.382,467.186 305.382,468.502 320.419,468.502 320.419,438.117 
         312.837,438.117"/>
      <polyline id="SL-J2" stroke-width="0" points="327.821,438.117 320.241,438.117 
         320.241,468.502 335.276,468.502 335.276,467.186 332.334,467.186 332.334,461.801 339.16,461.801 339.16,422.455 327.821,422.455 
         327.821,438.117"/>
      <polyline id="SL-J1" stroke-width="0" points="377.764,391.371 376.637,391.371 
         376.888,386.799 350.075,386.799 350.075,391.371 349.135,391.371 349.135,422.508 341.742,422.508 341.742,466.359 
         349.826,466.359 349.826,469.43 348.447,469.43 348.447,470.807 377.139,470.807 377.139,462.729 366.237,462.729 366.49,449.32 
         362.355,449.32 362.415,447.064 359.662,447.064 359.598,441.74 377.764,441.486 377.764,391.371"/>
      <polyline id="SL-I6" stroke-width="0" points="394.379,386.135 384.983,386.574 
         385.295,449.41 381.101,449.598 381.101,466.512 390.809,466.26 390.809,469.332 388.114,469.457 388.178,471.4 386.8,471.461 
         386.926,474.908 389.118,474.842 388.994,470.771 399.204,470.395 415.807,468.705 424.073,467.264 424.767,471.336 
         427.021,470.959 426.332,466.887 426.646,466.887 425.263,458.869 418.252,460.059 417.937,458.055 415.682,458.432 
         413.801,447.279 413.049,447.404 412.549,444.648 417.247,443.834 405.905,384.818 394.379,386.135"/>
      <polyline id="SL-I5" stroke-width="0" points="417.337,382.641 421.532,405.254 
         418.526,406.006 418.842,407.883 413.266,408.887 420.343,443.219 426.92,442.09 427.424,444.846 426.107,445.158 429.743,466.209 
         431.809,465.898 448.535,461.822 456.364,459.383 457.62,463.328 459.75,462.701 458.496,458.756 458.998,458.566 456.553,450.861 
         450.541,452.803 449.916,450.795 447.03,451.676 443.713,440.898 442.583,441.275 441.958,438.518 447.346,436.826 
         429.428,379.506 417.337,382.641"/>
      <polyline id="SL-I4" stroke-width="0" points="450.005,371.783 432.34,378.613 
         450.192,435.998 455.521,434.307 456.586,436.938 455.521,437.314 461.847,457.736 479.95,450.846 494.051,444.266 
         491.604,442.953 488.91,444.203 486.531,439.131 480.764,441.824 479.829,439.756 477.133,441.01 472.372,430.797 471.306,431.236 
         470.054,428.73 475.379,426.225 450.005,371.783"/>
      <polyline id="SL-I3" stroke-width="0" points="472.401,358.848 464.635,363.736 
         452.544,370.125 477.914,424.566 482.991,422.186 484.179,424.752 483.365,425.129 491.447,442.545 488.753,443.799 
         489.629,445.867 508.614,435.781 507.42,433.9 521.517,424.879 520.829,423.939 519.827,424.566 517.445,420.871 512.434,424.002 
         511.432,421.998 508.926,423.564 502.849,414.104 501.844,414.668 500.343,412.35 504.915,409.406 472.401,358.848"/>
      <polyline id="SL-I2" stroke-width="0" points="527.326,396.473 535.033,405.621 
         536.85,404.178 537.975,406.121 542.55,402.361 545.12,405.934 547.875,403.674 548.688,404.555 535.784,415.268 521.752,425.166 
         521.06,424.162 522.063,423.473 512.728,408.877 509.41,406.434 506.591,408.313 483.534,372.416 484.539,371.789 501.767,398.793 
         516.111,388.58 521.563,384.133 526.009,389.457 527.763,386.951 532.4,392.65 527.326,396.473"/>
      <polyline id="SL-I1" stroke-width="0" points="528.255,386.488 530.198,388.18 
         533.329,389.557 540.471,395.008 547.176,403.09 548.051,402.4 541.035,393.879 530.95,384.232 527.441,379.973 524.749,382.225 
         528.255,386.488"/>
      <polyline id="E-G8" stroke-width="0" points="502.767,352.334 501.893,353.086 
         517.992,373.322 517.053,374.072 520.999,377.895 520.059,378.709 522.188,380.84 527.702,376.203 498.76,343.814 496.941,345.383 
         502.767,352.334"/>
      <polyline id="E-G7" stroke-width="0" points="512.362,332.205 502.339,342.102 
         556.529,405.189 559.221,402.871 558.469,401.992 560.85,399.861 561.727,400.676 570.25,392.344 569.433,391.531 571.751,388.9 
         572.629,389.715 575.009,387.02 512.362,332.205"/>
      <polyline id="E-G6" stroke-width="0" points="523.191,317.213 514.673,328.68 
         577.633,383.121 584.899,374.098 593.606,361.629 523.191,317.213"/>
      <polyline id="E-G5" stroke-width="0" points="532.285,301.238 525.645,313.895 
         595.437,357.184 596.687,355.115 597.689,355.74 598.943,353.736 593.618,350.73 594.935,348.727 601.761,352.611 601.199,353.676 
         602.139,354.238 602.764,353.174 609.091,356.871 610.28,354.801 611.661,355.619 617.235,344.779 616.234,344.279 
         617.173,342.525 618.176,343.025 620.117,338.516 532.285,301.238"/>
      <polyline id="E-G4" stroke-width="0" points="538.239,283.703 533.729,297.234 
         621.622,334.57 623.438,330.061 622.436,329.623 623.313,327.369 624.316,327.742 629.015,313.9 627.888,313.523 628.576,311.205 
         629.642,311.52 630.894,306.82 538.239,283.703"/>
      <polyline id="E-G3" stroke-width="0" points="635.702,278.334 636.832,278.459 
         637.268,273.572 542.169,265.24 539.854,279.336 632.443,302.453 633.57,297.691 632.508,297.441 633.006,295.063 634.073,295.311 
         636.517,280.902 635.387,280.715 635.702,278.334"/>
      <polyline id="E-G2" stroke-width="0" points="637.875,245.141 637.562,240.318 
         542.338,246.957 542.213,261.242 637.313,269.574 637.688,264.689 636.56,264.625 636.748,262.182 637.875,262.242 638,247.646 
         636.875,247.646 636.748,245.205 637.875,245.141"/>
      <polyline id="E-G1" stroke-width="0" points="634.227,212.834 632.908,206.822 
         539.877,228.248 542.136,242.781 637.359,236.078 636.922,231.191 635.853,231.252 635.729,230.002 636.795,229.938 
         634.728,215.279 633.598,215.467 633.1,213.023 634.227,212.834"/>
      <polyline id="E-F7" stroke-width="0" points="624.941,179.578 623.123,175.004 
         534.665,210.775 538.989,224.682 632.021,203.26 630.578,197.244 629.453,197.559 629.138,196.303 630.267,196.053 
         625.819,181.895 624.753,182.271 623.877,179.951 624.941,179.578"/>
      <polyline id="E-F6" stroke-width="0" points="611.986,152.955 610.231,149.762 
         611.172,149.197 608.73,145 526.914,194.178 533.239,206.957 621.76,171.188 619.881,166.676 618.877,167.115 617.878,164.92 
         618.94,164.42 612.991,152.393 611.986,152.955"/>
      <polyline id="E-F5" stroke-width="0" points="591.949,122.039 592.827,121.348 
         589.757,117.592 516.583,178.922 524.916,190.574 606.735,141.396 604.165,137.262 603.225,137.889 601.908,135.82 
         602.849,135.193 594.333,123.293 593.454,123.98 591.949,122.039"/>
      <polyline id="E-F4" stroke-width="0" points="571.724,98.498 570.971,99.311 
         569.156,97.619 569.909,96.807 566.274,93.549 503.688,165.592 513.713,175.807 586.821,114.471 583.626,110.775 582.813,111.465 
         581.183,109.65 581.996,108.896 571.724,98.498"/>
      <polyline id="E-F3" stroke-width="0" points="557.089,86.523 557.777,85.711 
         545.998,77.002 545.373,77.879 543.368,76.564 543.997,75.625 539.861,72.994 489.304,153.934 500.77,162.453 563.418,90.408 
         559.658,87.215 558.969,88.09 557.089,86.523"/>
      <polyline id="E-F2" stroke-width="0" points="531.877,68.439 531.25,69.377 529.184,68.188 
         529.749,67.188 516.716,60.422 516.279,61.426 514.024,60.422 514.523,59.42 510.014,57.479 472.738,145.309 485.396,151.949 
         536.012,70.945 531.877,68.439"/>
      <polyline id="E-F1" stroke-width="0" points="487.511,53.023 484.439,52.084 
         483.877,53.836 477.797,52.211 455.996,139.539 468.653,143.863 505.991,55.969 501.418,54.09 501.042,55.09 498.725,54.213 
         499.103,53.15 492.143,50.705 491.583,52.398 488.075,51.27 487.511,53.023"/>
      <polyline id="N-D5" stroke-width="0" points="470.811,54.027 467.176,53.15 466.739,54.904 
         453.271,52.461 453.147,53.521 446.942,52.838 447.065,51.709 438.423,51.08 434.287,135.527 441.556,136.156 449.951,137.85 
         470.811,54.027"/>
      <polyline id="N-D4" stroke-width="0" points="434.47,54.381 428.894,53.941 428.894,52.814 
         416.428,52.752 416.428,53.877 413.168,53.877 413.168,52.752 408.219,52.752 408.219,135.506 430.521,135.635 434.47,54.381"/>
      <polyline id="N-D3" stroke-width="0" points="399.747,52.27 399.747,54.084 379.263,54.084 
         379.263,135.023 403.383,135.023 403.383,52.27 399.747,52.27"/>
      <polyline id="N-D2" stroke-width="0" points="365.816,52.633 365.816,53.762 
         362.182,53.762 362.182,52.633 352.534,52.633 352.534,135.389 375.464,135.389 375.464,52.633 365.816,52.633"/>
      <polyline id="N-D1" stroke-width="0" points="342.375,54.357 342.375,52.539 
         330.345,52.539 330.345,53.668 327.402,53.668 327.402,52.539 323.768,52.539 323.768,135.297 347.887,135.297 347.887,54.357 
         342.375,54.357"/>
      <polyline id="N-C5" stroke-width="0" points="310.896,53.695 310.896,52.566 
         298.866,52.566 298.866,54.385 293.292,54.385 293.292,135.326 317.411,135.326 317.411,52.566 313.777,52.566 313.777,53.695 
         310.896,53.695"/>
      <polyline id="N-C4" stroke-width="0" points="279.297,52.449 279.297,53.576 
         275.665,53.576 275.665,52.449 266.017,52.449 266.017,135.205 288.946,135.205 288.946,52.449 279.297,52.449"/>
      <polyline id="N-C3" stroke-width="0" points="261.915,135.234 261.915,54.297 
         242.619,54.297 242.619,52.479 237.795,52.479 237.795,135.234 261.915,135.234"/>
      <polyline id="N-C2" stroke-width="0" points="233.503,52.479 228.679,52.479 
         228.679,53.605 222.979,53.605 222.979,52.479 210.888,52.664 211.012,54.545 207.191,54.732 211.138,135.359 233.503,135.232 
         233.503,52.479"/>
      <polyline id="N-C1" stroke-width="0" points="194.201,51.799 194.515,55.432 
         192.135,55.686 191.883,53.865 188.187,54.307 187.937,52.551 174.467,54.994 174.091,53.238 170.458,54.117 191.319,137.938 
         197.271,136.625 206.919,135.621 202.847,51.172 194.201,51.799"/>
   </g>
   <g id="LABELS">
      <text fid="N-C1" transform="matrix(1 0 0 1 186.2969 97.2227)" fill="#FFFFFF" font-family="'Arial'" font-size="10">C1</text>
      <text fid="N-C2" transform="matrix(1 0 0 1 213.9556 96.5859)" fill="#FFFFFF" font-family="'Arial'" font-size="10">C2</text>
      <text fid="N-C3" transform="matrix(1 0 0 1 243.4634 96.5234)" fill="#FFFFFF" font-family="'Arial'" font-size="10">C3</text>
      <text fid="N-C4" transform="matrix(1 0 0 1 271.0894 96.4941)" fill="#FFFFFF" font-family="'Arial'" font-size="10">C4</text>
      <text fid="N-C5" transform="matrix(1 0 0 1 298.96 96.6133)" fill="#FFFFFF" font-family="'Arial'" font-size="10">C5</text>
      <text fid="N-D1" transform="matrix(1 0 0 1 329.4355 96.5859)" fill="#FFFFFF" font-family="'Arial'" font-size="10">D1</text>
      <text fid="N-D2" transform="matrix(1 0 0 1 357.6074 96.6777)" fill="#FFFFFF" font-family="'Arial'" font-size="10">D2</text>
      <text fid="N-D3" transform="matrix(1 0 0 1 384.9307 96.3145)" fill="#FFFFFF" font-family="'Arial'" font-size="10">D3</text>
      <text fid="N-D4" transform="matrix(1 0 0 1 414.9531 96.8604)" fill="#FFFFFF" font-family="'Arial'" font-size="10">D4</text>
      <text fid="N-D5" transform="matrix(1 0 0 1 442.1563 97.1328)" fill="#FFFFFF" font-family="'Arial'" font-size="10">D5</text>
      <text fid="E-F1" transform="matrix(1 0 0 1 472.1582 99.9512)" fill="#FFFFFF" font-family="'Arial'" font-size="10">F1</text>
      <text fid="E-F2" transform="matrix(1 0 0 1 496.5391 107.3809)" fill="#FFFFFF" font-family="'Arial'" font-size="10">F2</text>
      <text fid="E-F3" transform="matrix(1 0 0 1 520.5264 120.3916)" fill="#FFFFFF" font-family="'Arial'" font-size="10">F3</text>
      <text fid="E-F4" transform="matrix(1 0 0 1 539.4199 137.3457)" fill="#FFFFFF" font-family="'Arial'" font-size="10">F4</text>
      <text fid="E-F5" transform="matrix(1 0 0 1 555.8242 158.751)" fill="#FFFFFF" font-family="'Arial'" font-size="10">F5</text>
      <text fid="E-F6" transform="matrix(1 0 0 1 568.502 181.6455)" fill="#FFFFFF" font-family="'Arial'" font-size="10">F6</text>
      <text fid="E-F7" transform="matrix(1 0 0 1 577.5078 206.5098)" fill="#FFFFFF" font-family="'Arial'" font-size="10">F7</text>
      <text fid="E-G1" transform="matrix(1 0 0 1 581.9473 232.4688)" fill="#FFFFFF" font-family="'Arial'" font-size="10">G1</text>
      <text fid="E-G2" transform="matrix(1 0 0 1 583.4355 257.6133)" fill="#FFFFFF" font-family="'Arial'" font-size="10">G2</text>
      <text fid="E-G3" transform="matrix(1 0 0 1 581.8906 284.5146)" fill="#FFFFFF" font-family="'Arial'" font-size="10">G3</text>
      <text fid="E-G4" transform="matrix(1 0 0 1 575.6416 309.8037)" fill="#FFFFFF" font-family="'Arial'" font-size="10">G4</text>
      <text fid="E-G5" transform="matrix(1 0 0 1 566.2109 333.8789)" fill="#FFFFFF" font-family="'Arial'" font-size="10">G5</text>
      <text fid="E-G6" transform="matrix(1 0 0 1 547.4688 352.834)" fill="#FFFFFF" font-family="'Arial'" font-size="10">G6</text>
      <text fid="E-G7" transform="matrix(1 0 0 1 532.0039 372.3652)" fill="#FFFFFF" font-family="'Arial'" font-size="10">G7</text>
      <text fid="SL-I2" transform="matrix(1 0 0 1 517.9414 409.1455)" fill="#FFFFFF" font-family="'Arial'" font-size="10">I2</text>
      <text fid="SL-I3" transform="matrix(1 0 0 1 477.8594 405.0244)" fill="#FFFFFF" font-family="'Arial'" font-size="10">I3</text>
      <text fid="SL-I4" transform="matrix(1 0 0 1 452.0254 417.4268)" fill="#FFFFFF" font-family="'Arial'" font-size="10">I4</text>
      <text fid="SL-I5" transform="matrix(1 0 0 1 425.3379 425.5244)" fill="#FFFFFF" font-family="'Arial'" font-size="10">I5</text>
      <text fid="SL-I6" transform="matrix(1 0 0 1 394.8906 432.5313)" fill="#FFFFFF" font-family="'Arial'" font-size="10">I6</text>
      <text fid="SL-J1" transform="matrix(1 0 0 1 354.4727 431.4707)" fill="#FFFFFF" font-family="'Arial'" font-size="10">J1</text>
      <text fid="SL-J2" transform="matrix(1 0 0 1 324.4199 448.1465)" fill="#FFFFFF" font-family="'Arial'" font-size="10">J2</text>
      <text fid="SL-O1" transform="matrix(1 0 0 1 304.2896 448.1465)" fill="#FFFFFF" font-family="'Arial'" font-size="10">O1</text>
      <text fid="SL-O2" transform="matrix(1 0 0 1 274.1758 431.4063)" fill="#FFFFFF" font-family="'Arial'" font-size="10">O2</text>
      <text fid="SL-P1" transform="matrix(1 0 0 1 236.457 432.5293)" fill="#FFFFFF" font-family="'Arial'" font-size="10">P1</text>
      <text fid="SL-P2" transform="matrix(1 0 0 1 206.0703 425.3438)" fill="#FFFFFF" font-family="'Arial'" font-size="10">P2</text>
      <text fid="SL-P3" transform="matrix(1 0 0 1 178.4146 417.3389)" fill="#FFFFFF" font-family="'Arial'" font-size="10">P3</text>
      <text fid="SL-P4" transform="matrix(1 0 0 1 150.3062 405.4795)" fill="#FFFFFF" font-family="'Arial'" font-size="10">P4</text>
      <text fid="SL-P5" transform="matrix(1 0 0 1 114.4683 404.6885)" fill="#FFFFFF" font-family="'Arial'" font-size="10">P5</text>
      <text fid="W-A2" transform="matrix(1 0 0 1 97.4263 372.3359)" fill="#FFFFFF" font-family="'Arial'" font-size="10">A2</text>
      <text fid="W-A3" transform="matrix(1 0 0 1 81.9297 354.9873)" fill="#FFFFFF" font-family="'Arial'" font-size="10">A3</text>
      <text fid="W-A4" transform="matrix(1 0 0 1 61.7939 332.6699)" fill="#FFFFFF" font-family="'Arial'" font-size="10">A4</text>
      <text fid="W-A5" transform="matrix(1 0 0 1 52.0283 308.8066)" fill="#FFFFFF" font-family="'Arial'" font-size="10">A5</text>
      <text fid="W-A6" transform="matrix(1 0 0 1 46.147 284.2109)" fill="#FFFFFF" font-family="'Arial'" font-size="10">A6</text>
      <text fid="W-A7" transform="matrix(1 0 0 1 44.6001 257.5498)" fill="#FFFFFF" font-family="'Arial'" font-size="10">A7</text>
      <text fid="W-B1" transform="matrix(1 0 0 1 46.1978 230.6807)" fill="#FFFFFF" font-family="'Arial'" font-size="10">B1</text>
      <text fid="W-B2" transform="matrix(1 0 0 1 52.2031 204.3584)" fill="#FFFFFF" font-family="'Arial'" font-size="10">B2</text>
      <text fid="W-B3" transform="matrix(1 0 0 1 62.7881 178.7949)" fill="#FFFFFF" font-family="'Arial'" font-size="10">B3</text>
      <text fid="W-B4" transform="matrix(1 0 0 1 77.313 153.1719)" fill="#FFFFFF" font-family="'Arial'" font-size="10">B4</text>
      <text fid="W-B5" transform="matrix(1 0 0 1 95.7207 131.0654)" fill="#FFFFFF" font-family="'Arial'" font-size="10">B5</text>
      <text fid="W-B6" transform="matrix(1 0 0 1 113.4307 117.0234)" fill="#FFFFFF" font-family="'Arial'" font-size="10">B6</text>
      <text fid="W-B7" transform="matrix(1 0 0 1 133.9302 106.3809)" fill="#FFFFFF" font-family="'Arial'" font-size="10">B7</text>
      <text fid="W-B8" transform="matrix(1 0 0 1 157.2788 98.8887)" fill="#FFFFFF" font-family="'Arial'" font-size="10">B8</text>
      <text fid="SU-Q5" transform="matrix(1 0 0 1 52.5903 424.4131)" fill="#FFFFFF" font-family="'Arial'" font-size="10">Q5</text>
      <text fid="SU-Q4" transform="matrix(1 0 0 1 71.8467 449.5518)" fill="#FFFFFF" font-family="'Arial'" font-size="10">Q4</text>
      <text fid="SU-Q3" transform="matrix(1 0 0 1 99.4111 479.4482)" fill="#FFFFFF" font-family="'Arial'" font-size="10">Q3</text>
      <text fid="SU-Q1" transform="matrix(1 0 0 1 132.5264 500.1943)" fill="#FFFFFF" font-family="'Arial'" font-size="10">Q1</text>
      <text fid="SU-N3" transform="matrix(1 0 0 1 162.8267 516.9941)" fill="#FFFFFF" font-family="'Arial'" font-size="10">N3</text>
      <text fid="SU-N2" transform="matrix(1 0 0 1 194.1226 526.332)" fill="#FFFFFF" font-family="'Arial'" font-size="10">N2</text>
      <text fid="SU-N1" transform="matrix(1 0 0 1 223.7202 530.9756)" fill="#FFFFFF" font-family="'Arial'" font-size="10">N1</text>
      <text fid="SU-M4" transform="matrix(1 0 0 1 237.9058 539.5195)" fill="#FFFFFF" font-family="'Arial'" font-size="10">M4</text>
      <text fid="SU-M3" transform="matrix(1 0 0 1 263.9854 538.8857)" fill="#FFFFFF" font-family="'Arial'" font-size="10">M3</text>
      <text fid="SU-M2" transform="matrix(1 0 0 1 292.856 536.2178)" fill="#FFFFFF" font-family="'Arial'" font-size="10">M2</text>
      <text fid="SU-L3" transform="matrix(1 0 0 1 335.7246 536.4033)" fill="#FFFFFF" font-family="'Arial'" font-size="10">L3</text>
      <text fid="SU-L2" transform="matrix(1 0 0 1 363.8955 533.4307)" fill="#FFFFFF" font-family="'Arial'" font-size="10">L2</text>
      <text fid="SU-L1" transform="matrix(1 0 0 1 391.6436 542.5195)" fill="#FFFFFF" font-family="'Arial'" font-size="10">L1</text>
      <text fid="SU-K3" transform="matrix(1 0 0 1 433.8477 526.667)" fill="#FFFFFF" font-family="'Arial'" font-size="10">K3</text>
      <text fid="SU-K2" transform="matrix(1 0 0 1 465.623 516.6914)" fill="#FFFFFF" font-family="'Arial'" font-size="10">K2</text>
      <text fid="SU-H6" transform="matrix(1 0 0 1 495.8906 505.5879)" fill="#FFFFFF" font-family="'Arial'" font-size="10">H6</text>
      <text fid="SU-H4" transform="matrix(1 0 0 1 528.2188 479.209)" fill="#FFFFFF" font-family="'Arial'" font-size="10">H4</text>
      <text fid="SU-H3" transform="matrix(1 0 0 1 555.5723 448.8223)" fill="#FFFFFF" font-family="'Arial'" font-size="10">H3</text>
      <text fid="SU-H2" transform="matrix(1 0 0 1 576.375 426.4707)" fill="#FFFFFF" font-family="'Arial'" font-size="10">H2</text>
      <g id="SU-K4">
         <text transform="matrix(1 0 0 1 402.4785 505.084)" fill="#333333" font-family="'Arial'" font-size="10">K4</text>
      </g>
      <text fid="SL-I1" transform="matrix(1 0 0 1 534.0527 401.5498)" fill="#333333" font-family="'Arial'" font-size="8">I1</text>
      <text fid="E-G8" transform="matrix(1 0 0 1 497.1152 371.2422)" fill="#333333" font-family="'Arial'" font-size="10">G8</text>
      <text fid="SL-P6" transform="matrix(1 0 0 1 88.1753 410.6367)" fill="#333333" font-family="'Arial'" font-size="10">P6</text>
      <text fid="W-A1" transform="matrix(1 0 0 1 132.8799 368.2646)" fill="#333333" font-family="'Arial'" font-size="10">A1</text>
      <text fid="SU-Q6" transform="matrix(1 0 0 1 33.9697 400.124)" fill="#333333" font-family="'Arial'" font-size="10">Q6</text>
      <text fid="SU-Q2" transform="matrix(1 0 0 1 111.9126 499.8721)" fill="#333333" font-family="'Arial'" font-size="10">Q2</text>
      <text fid="SU-N4" transform="matrix(1 0 0 1 131.0166 534.7559)" fill="#333333" font-family="'Arial'" font-size="10">N4</text>
      <text fid="SU-M1" transform="matrix(1 0 0 1 310.9165 547.373)" fill="#333333" font-family="'Arial'" font-size="10">M1</text>
      <text fid="SU-L4" transform="matrix(1 0 0 1 319.2793 515.6094)" fill="#333333" font-family="'Arial'" font-size="10">L4</text>
      <text fid="SU-K1" transform="matrix(1 0 0 1 493.1279 532.9619)" fill="#333333" font-family="'Arial'" font-size="10">K1</text>
      <text fid="SU-H1" transform="matrix(1 0 0 1 577.3652 394.167)" fill="#333333" font-family="'Arial'" font-size="10">H1</text>
      <text fid="SU-H5" transform="matrix(1 0 0 1 520.459 506.8623)" fill="#333333" font-family="'Arial'" font-size="10">H5</text>
   </g>
   <g id="PITCH">
      <rect x="169.363" y="161.348" fill="#0D9348" width="301.271" height="189.585"/>
      <rect x="169.363" y="161.348" fill="#0C6B38" width="27.387" height="189.585"/>
      <rect x="224.139" y="161.348" fill="#0C6B38" width="27.388" height="189.585"/>
      <rect x="278.916" y="161.348" fill="#0C6B38" width="27.39" height="189.585"/>
      <rect x="333.694" y="161.348" fill="#0C6B38" width="27.388" height="189.585"/>
      <rect x="388.474" y="161.348" fill="#0C6B38" width="27.387" height="189.585"/>
      <rect x="443.245" y="161.348" fill="#0C6B38" width="27.392" height="189.585"/>
      <rect x="181.413" y="173.986" fill="none" stroke="#FFFFFF" stroke-miterlimit="10" width="277.171" height="164.306"/>
      <rect x="319.998" y="173.986" fill="none" stroke="#FFFFFF" stroke-miterlimit="10" width="0" height="164.306"/>
      <ellipse fill="none" stroke="#FFFFFF" stroke-miterlimit="10" cx="319.998" cy="256.14" rx="36.151" ry="37.915"/>
      <rect x="181.413" y="218.225" fill="none" stroke="#FFFFFF" stroke-miterlimit="10" width="36.152" height="75.831"/>
      <rect x="181.413" y="230.86" fill="none" stroke="#FFFFFF" stroke-miterlimit="10" width="18.076" height="50.557"/>
      <path fill="none" stroke="#FFFFFF" stroke-miterlimit="10" d="M235.642,256.14c0-11.774-7.688-21.64-18.077-24.446v48.896
         C227.953,277.775,235.642,267.913,235.642,256.14z"/>
      <rect x="422.435" y="218.225" fill="none" stroke="#FFFFFF" stroke-miterlimit="10" width="36.148" height="75.831"/>
      <rect x="440.506" y="230.86" fill="none" stroke="#FFFFFF" stroke-miterlimit="10" width="18.076" height="50.557"/>
      <path fill="none" stroke="#FFFFFF" stroke-miterlimit="10" d="M404.353,256.14c0-11.774,7.692-21.64,18.082-24.446v48.896
         C412.046,277.775,404.353,267.913,404.353,256.14z"/>
   </g>
   <g id="EXTRAS">
      <rect x="338.81" y="29.596" fill="#CCCCCC" width="31.201" height="7.393"/>
      <rect x="372.953" y="29.596" fill="#CCCCCC" width="31.198" height="7.393"/>
      <rect x="304.67" y="29.596" fill="#CCCCCC" width="31.198" height="7.393"/>
      <rect x="236.445" y="29.596" fill="#CCCCCC" width="31.136" height="7.393"/>
      <rect x="270.527" y="29.596" fill="#CCCCCC" width="31.197" height="7.393"/>
      <rect x="298.412" y="379.035" fill="#CCCCCC" width="14.909" height="3.758"/>
      <polyline fill="#CCCCCC" points="294.403,390.248 295.028,390.248 295.028,399.207 296.219,399.207 296.219,403.783 310,403.783 
         310,399.207 311.692,399.207 311.692,398.018 309.375,398.018 309.375,390.248 310,390.248 310,386.742 294.403,386.742 
         294.403,390.248"/>
      <rect x="328.105" y="379.035" fill="#CCCCCC" width="14.91" height="3.758"/>
      <polyline fill="#CCCCCC" points="331.427,386.742 331.427,390.248 332.052,390.248 332.052,398.018 329.799,398.018 
         329.799,399.207 331.489,399.207 331.489,403.783 345.272,403.783 345.272,399.207 346.462,399.207 346.462,390.248 
         347.087,390.248 347.087,386.742 331.427,386.742"/>
      <rect x="294.403" y="415.873" fill="#CCCCCC" width="7.142" height="1.191"/>
      <rect x="339.947" y="415.869" fill="#CCCCCC" width="7.144" height="1.188"/>
      <rect x="339.947" y="413.611" fill="#CCCCCC" width="7.144" height="1.191"/>
      <rect x="331.115" y="411.42" fill="#CCCCCC" width="13.156" height="1.189"/>
      <rect x="322.971" y="416.682" fill="#CCCCCC" width="13.658" height="1.379"/>
      <rect x="304.866" y="416.682" fill="#CCCCCC" width="13.656" height="1.379"/>
      <rect x="294.403" y="413.613" fill="#CCCCCC" width="7.144" height="1.189"/>
      <rect x="297.223" y="411.42" fill="#CCCCCC" width="13.157" height="1.189"/>
      <g>
         <path fill="#333333" d="M281.931,155.334h-0.704l-5.92-8.873h-0.055c0.055,1.058,0.082,1.854,0.082,2.393v6.48h-0.67v-9.994h0.697
            l5.913,8.859h0.041c-0.041-0.82-0.062-1.6-0.062-2.338v-6.521h0.677V155.334z"/>
         <path fill="#333333" d="M293.162,150.323c0,1.586-0.396,2.841-1.189,3.763c-0.793,0.924-1.887,1.385-3.281,1.385
            c-1.39,0-2.481-0.461-3.274-1.385c-0.793-0.922-1.189-2.182-1.189-3.776c0-1.591,0.4-2.843,1.2-3.757
            c0.8-0.913,1.893-1.37,3.278-1.37c1.395,0,2.486,0.459,3.274,1.378C292.768,147.479,293.162,148.732,293.162,150.323z
            M284.986,150.323c0,1.431,0.319,2.537,0.957,3.319c0.638,0.781,1.554,1.172,2.748,1.172c1.203,0,2.123-0.388,2.758-1.162
            s0.954-1.885,0.954-3.329c0-1.44-0.318-2.544-0.954-3.312c-0.636-0.769-1.551-1.152-2.745-1.152c-1.189,0-2.106,0.388-2.751,1.162
            S284.986,148.896,284.986,150.323z"/>
         <path fill="#333333" d="M296.156,150.979v4.354h-0.697v-9.994h2.379c1.24,0,2.156,0.229,2.748,0.688
            c0.592,0.457,0.889,1.146,0.889,2.067c0,0.67-0.177,1.235-0.53,1.695s-0.89,0.791-1.61,0.991l2.714,4.553h-0.834l-2.577-4.354
            H296.156z M296.156,150.378h1.907c0.843,0,1.497-0.188,1.962-0.563c0.465-0.377,0.697-0.932,0.697-1.665
            c0-0.761-0.228-1.314-0.684-1.661s-1.199-0.52-2.229-0.52h-1.654V150.378z"/>
         <path fill="#333333" d="M306.383,155.334h-0.704v-9.338h-3.247v-0.656h7.198v0.656h-3.247V155.334z"/>
         <path fill="#333333" d="M318.353,155.334h-0.704v-4.915h-5.838v4.915h-0.697v-9.994h0.697v4.437h5.838v-4.437h0.704V155.334z"/>
         <path fill="#333333" d="M330.336,152.757c0,0.834-0.307,1.495-0.92,1.982c-0.612,0.487-1.428,0.731-2.443,0.731
            c-1.221,0-2.158-0.135-2.81-0.403v-0.697c0.72,0.306,1.638,0.458,2.755,0.458c0.82,0,1.471-0.188,1.951-0.564
            c0.481-0.375,0.722-0.869,0.722-1.479c0-0.378-0.079-0.691-0.239-0.94c-0.16-0.248-0.42-0.475-0.779-0.68
            s-0.889-0.426-1.586-0.663c-1.021-0.351-1.727-0.73-2.115-1.138c-0.391-0.408-0.585-0.952-0.585-1.631
            c0-0.747,0.293-1.357,0.878-1.828c0.586-0.473,1.34-0.708,2.26-0.708c0.939,0,1.82,0.178,2.646,0.533l-0.253,0.602
            c-0.83-0.347-1.623-0.52-2.379-0.52c-0.738,0-1.326,0.171-1.764,0.513s-0.656,0.807-0.656,1.395c0,0.369,0.067,0.672,0.201,0.909
            c0.135,0.237,0.355,0.45,0.66,0.64c0.305,0.188,0.83,0.415,1.572,0.68c0.779,0.269,1.365,0.529,1.757,0.783
            c0.392,0.252,0.678,0.539,0.858,0.861C330.246,151.912,330.336,152.301,330.336,152.757z"/>
         <path fill="#333333" d="M335.053,155.334h-0.704v-9.338h-3.247v-0.656h7.198v0.656h-3.247V155.334z"/>
         <path fill="#333333" d="M344.596,151.807h-4.061l-1.395,3.527h-0.772l4.02-10.035h0.444l3.938,10.035h-0.786L344.596,151.807z
            M340.788,151.178h3.575l-1.36-3.603c-0.114-0.282-0.251-0.675-0.41-1.176c-0.123,0.438-0.257,0.834-0.403,1.189L340.788,151.178z
            "/>
         <path fill="#333333" d="M355.451,155.334h-0.704l-5.92-8.873h-0.055c0.055,1.058,0.082,1.854,0.082,2.393v6.48h-0.67v-9.994h0.697
            l5.913,8.859h0.041c-0.041-0.82-0.062-1.6-0.062-2.338v-6.521h0.677V155.334z"/>
         <path fill="#333333" d="M365.869,150.241c0,1.677-0.439,2.945-1.319,3.804c-0.88,0.859-2.172,1.289-3.876,1.289h-2.393v-9.994h2.7
            c1.595,0,2.809,0.417,3.641,1.251C365.453,147.425,365.869,148.642,365.869,150.241z M365.11,150.269
            c0-1.431-0.363-2.508-1.09-3.229c-0.728-0.723-1.795-1.084-3.203-1.084h-1.839v8.764h1.654
            C363.618,154.719,365.11,153.235,365.11,150.269z"/>
      </g>
      <g>
         <path fill="#333333" d="M218.121,367.334h-0.704v-9.338h-3.247v-0.656h7.198v0.656h-3.247V367.334z"/>
         <path fill="#333333" d="M230.09,367.334h-0.704v-4.915h-5.838v4.915h-0.697v-9.994h0.697v4.437h5.838v-4.437h0.704V367.334z"/>
         <path fill="#333333" d="M238.382,367.334h-5.462v-9.994h5.462v0.643h-4.765v3.78h4.498v0.643h-4.498v4.286h4.765V367.334z"/>
         <path fill="#333333" d="M252.246,367.334h-0.574l-2.194-7.711c-0.182-0.634-0.319-1.153-0.41-1.559
            c-0.073,0.396-0.177,0.853-0.311,1.367s-0.869,3.149-2.205,7.902h-0.588l-2.748-9.994h0.731l1.75,6.439
            c0.068,0.26,0.132,0.5,0.191,0.721c0.059,0.222,0.113,0.429,0.161,0.623c0.048,0.193,0.091,0.38,0.13,0.561
            c0.039,0.18,0.074,0.36,0.106,0.543c0.109-0.62,0.342-1.561,0.697-2.823l1.709-6.063h0.772l2.003,6.959
            c0.232,0.802,0.399,1.449,0.499,1.941c0.059-0.328,0.136-0.677,0.229-1.046s0.796-2.987,2.109-7.854h0.704L252.246,367.334z"/>
         <path fill="#333333" d="M256.771,367.334v-9.994h0.697v9.994H256.771z"/>
         <path fill="#333333" d="M260.298,367.334v-9.994h0.697v9.338h4.765v0.656H260.298z"/>
         <path fill="#333333" d="M267.483,367.334v-9.994h0.697v9.338h4.765v0.656H267.483z"/>
         <path fill="#333333" d="M274.667,367.334v-9.994h0.697v9.994H274.667z"/>
         <path fill="#333333" d="M283.007,363.807h-4.061l-1.395,3.527h-0.772l4.02-10.035h0.444l3.938,10.035h-0.786L283.007,363.807z
            M279.2,363.178h3.575l-1.36-3.603c-0.114-0.282-0.25-0.675-0.41-1.176c-0.123,0.438-0.257,0.834-0.403,1.189L279.2,363.178z"/>
         <path fill="#333333" d="M290.992,367.334l-3.726-9.229h-0.055c0.037,0.565,0.055,1.144,0.055,1.736v7.492h-0.67v-9.994h1.08
            l3.541,8.791h0.041l3.541-8.791h1.053v9.994h-0.704v-7.574c0-0.528,0.027-1.075,0.082-1.641h-0.055l-3.739,9.215H290.992z"/>
         <path fill="#333333" d="M309.551,367.334h-0.704v-4.915h-5.838v4.915h-0.697v-9.994h0.697v4.437h5.838v-4.437h0.704V367.334z"/>
         <path fill="#333333" d="M312.381,367.334v-9.994h0.697v9.994H312.381z"/>
         <path fill="#333333" d="M315.909,367.334v-9.994h0.697v9.338h4.765v0.656H315.909z"/>
         <path fill="#333333" d="M323.094,367.334v-9.994h0.697v9.338h4.764v0.656H323.094z"/>
         <path fill="#333333" d="M339.432,364.757c0,0.834-0.307,1.495-0.92,1.982s-1.428,0.731-2.443,0.731
            c-1.222,0-2.158-0.135-2.811-0.403v-0.697c0.721,0.306,1.639,0.458,2.756,0.458c0.82,0,1.471-0.188,1.951-0.564
            c0.48-0.375,0.721-0.869,0.721-1.479c0-0.378-0.079-0.691-0.238-0.94c-0.16-0.248-0.42-0.475-0.779-0.68
            c-0.36-0.205-0.889-0.426-1.586-0.663c-1.021-0.351-1.727-0.73-2.116-1.138c-0.39-0.408-0.585-0.952-0.585-1.631
            c0-0.747,0.293-1.357,0.879-1.828c0.586-0.473,1.339-0.708,2.26-0.708c0.938,0,1.82,0.178,2.645,0.533l-0.252,0.602
            c-0.83-0.347-1.623-0.52-2.379-0.52c-0.738,0-1.326,0.171-1.764,0.513s-0.656,0.807-0.656,1.395c0,0.369,0.066,0.672,0.201,0.909
            s0.354,0.45,0.66,0.64c0.305,0.188,0.829,0.415,1.572,0.68c0.779,0.269,1.364,0.529,1.756,0.783
            c0.393,0.252,0.678,0.539,0.858,0.861C339.342,363.912,339.432,364.301,339.432,364.757z"/>
         <path fill="#333333" d="M344.148,367.334h-0.705v-9.338h-3.246v-0.656h7.197v0.656h-3.246V367.334z"/>
         <path fill="#333333" d="M353.691,363.807h-4.061l-1.395,3.527h-0.773l4.02-10.035h0.445l3.938,10.035h-0.787L353.691,363.807z
            M349.883,363.178h3.576l-1.361-3.603c-0.113-0.282-0.25-0.675-0.41-1.176c-0.123,0.438-0.257,0.834-0.402,1.189L349.883,363.178z
            "/>
         <path fill="#333333" d="M364.547,367.334h-0.705l-5.92-8.873h-0.055c0.055,1.058,0.082,1.854,0.082,2.393v6.48h-0.67v-9.994h0.697
            l5.914,8.859h0.041c-0.041-0.82-0.063-1.6-0.063-2.338v-6.521h0.678V367.334z"/>
         <path fill="#333333" d="M374.964,362.241c0,1.677-0.439,2.945-1.319,3.804c-0.88,0.859-2.172,1.289-3.876,1.289h-2.393v-9.994h2.7
            c1.595,0,2.809,0.417,3.641,1.251C374.548,359.425,374.964,360.642,374.964,362.241z M374.205,362.269
            c0-1.431-0.363-2.508-1.09-3.229c-0.728-0.723-1.795-1.084-3.203-1.084h-1.839v8.764h1.654
            C372.713,366.719,374.205,365.235,374.205,362.269z"/>
         <path fill="#333333" d="M380.897,367.334v-9.994h0.697v9.338h4.765v0.656H380.897z"/>
         <path fill="#333333" d="M396.484,362.323c0,1.586-0.396,2.841-1.189,3.763c-0.793,0.924-1.887,1.385-3.281,1.385
            c-1.39,0-2.481-0.461-3.274-1.385c-0.793-0.922-1.189-2.182-1.189-3.776c0-1.591,0.399-2.843,1.2-3.757
            c0.799-0.913,1.892-1.37,3.277-1.37c1.395,0,2.486,0.459,3.274,1.378C396.09,359.479,396.484,360.732,396.484,362.323z
            M388.309,362.323c0,1.431,0.319,2.537,0.957,3.319c0.638,0.781,1.554,1.172,2.748,1.172c1.203,0,2.123-0.388,2.758-1.162
            c0.637-0.774,0.954-1.885,0.954-3.329c0-1.44-0.317-2.544-0.954-3.312c-0.635-0.769-1.55-1.152-2.744-1.152
            c-1.189,0-2.106,0.388-2.752,1.162C388.631,359.796,388.309,360.896,388.309,362.323z"/>
         <path fill="#333333" d="M406.744,367.334h-0.574l-2.194-7.711c-0.183-0.634-0.319-1.153-0.41-1.559
            c-0.073,0.396-0.177,0.853-0.312,1.367c-0.134,0.515-0.869,3.149-2.204,7.902h-0.588l-2.748-9.994h0.731l1.75,6.439
            c0.068,0.26,0.132,0.5,0.191,0.721c0.06,0.222,0.113,0.429,0.16,0.623c0.049,0.193,0.092,0.38,0.131,0.561
            c0.038,0.18,0.073,0.36,0.105,0.543c0.109-0.62,0.342-1.561,0.697-2.823l1.709-6.063h0.772l2.003,6.959
            c0.232,0.802,0.398,1.449,0.499,1.941c0.06-0.328,0.136-0.677,0.229-1.046c0.093-0.369,0.796-2.987,2.108-7.854h0.704
            L406.744,367.334z"/>
         <path fill="#333333" d="M416.732,367.334h-5.462v-9.994h5.462v0.643h-4.765v3.78h4.498v0.643h-4.498v4.286h4.765V367.334z"/>
         <path fill="#333333" d="M419.692,362.979v4.354h-0.697v-9.994h2.379c1.239,0,2.155,0.229,2.748,0.688
            c0.593,0.457,0.889,1.146,0.889,2.067c0,0.67-0.177,1.235-0.53,1.695c-0.353,0.46-0.89,0.791-1.609,0.991l2.714,4.553h-0.834
            l-2.577-4.354H419.692z M419.692,362.378h1.907c0.843,0,1.497-0.188,1.962-0.563c0.465-0.377,0.697-0.932,0.697-1.665
            c0-0.761-0.228-1.314-0.684-1.661s-1.198-0.52-2.229-0.52h-1.654V362.378z"/>
      </g>
      <g>
         <path fill="#333333" d="M144,281.701v0.574l-7.711,2.195c-0.634,0.182-1.153,0.318-1.559,0.41
            c0.396,0.072,0.853,0.176,1.367,0.311s3.149,0.869,7.902,2.205v0.588l-9.994,2.748V290l6.439-1.75
            c0.26-0.068,0.5-0.132,0.721-0.191c0.222-0.059,0.429-0.112,0.623-0.16c0.193-0.048,0.38-0.092,0.561-0.13
            c0.18-0.038,0.36-0.074,0.543-0.106c-0.62-0.109-1.561-0.342-2.823-0.697l-6.063-1.709v-0.771l6.959-2.004
            c0.802-0.232,1.449-0.398,1.941-0.498c-0.328-0.06-0.677-0.137-1.046-0.229s-2.987-0.796-7.854-2.108v-0.705L144,281.701z"/>
         <path fill="#333333" d="M144,271.715v5.461h-9.994v-5.461h0.643v4.764h3.78v-4.498h0.643v4.498h4.286v-4.764H144z"/>
         <path fill="#333333" d="M141.423,263.936c0.834,0,1.495,0.307,1.982,0.919s0.731,1.428,0.731,2.444
            c0,1.221-0.135,2.157-0.403,2.809h-0.697c0.306-0.72,0.458-1.638,0.458-2.754c0-0.82-0.188-1.471-0.564-1.952
            c-0.375-0.481-0.869-0.722-1.479-0.722c-0.378,0-0.691,0.08-0.94,0.24c-0.248,0.159-0.475,0.419-0.68,0.779
            c-0.205,0.359-0.426,0.889-0.663,1.586c-0.351,1.021-0.73,1.726-1.138,2.115c-0.408,0.39-0.952,0.584-1.631,0.584
            c-0.747,0-1.357-0.293-1.828-0.878c-0.473-0.585-0.708-1.339-0.708-2.259c0-0.939,0.178-1.821,0.533-2.646l0.602,0.254
            c-0.347,0.829-0.52,1.622-0.52,2.379c0,0.738,0.171,1.326,0.513,1.764s0.807,0.656,1.395,0.656c0.369,0,0.672-0.068,0.909-0.202
            s0.45-0.354,0.64-0.659c0.188-0.306,0.415-0.83,0.68-1.572c0.269-0.779,0.529-1.365,0.783-1.758
            c0.252-0.392,0.539-0.678,0.861-0.857C140.578,264.025,140.967,263.936,141.423,263.936z"/>
         <path fill="#333333" d="M144,259.219v0.703h-9.338v3.248h-0.656v-7.199h0.656v3.248H144z"/>
         <path fill="#333333" d="M141.423,245.334c0.834,0,1.495,0.307,1.982,0.92s0.731,1.428,0.731,2.443
            c0,1.222-0.135,2.158-0.403,2.811h-0.697c0.306-0.721,0.458-1.639,0.458-2.756c0-0.82-0.188-1.471-0.564-1.951
            c-0.375-0.48-0.869-0.721-1.479-0.721c-0.378,0-0.691,0.079-0.94,0.238c-0.248,0.16-0.475,0.42-0.68,0.779
            c-0.205,0.36-0.426,0.889-0.663,1.586c-0.351,1.021-0.73,1.727-1.138,2.116c-0.408,0.39-0.952,0.585-1.631,0.585
            c-0.747,0-1.357-0.293-1.828-0.879c-0.473-0.586-0.708-1.339-0.708-2.26c0-0.938,0.178-1.82,0.533-2.645l0.602,0.252
            c-0.347,0.83-0.52,1.623-0.52,2.379c0,0.738,0.171,1.326,0.513,1.764s0.807,0.656,1.395,0.656c0.369,0,0.672-0.066,0.909-0.201
            s0.45-0.354,0.64-0.66c0.188-0.305,0.415-0.829,0.68-1.572c0.269-0.779,0.529-1.364,0.783-1.756
            c0.252-0.393,0.539-0.678,0.861-0.858C140.578,245.424,140.967,245.334,141.423,245.334z"/>
         <path fill="#333333" d="M144,240.617v0.705h-9.338v3.246h-0.656v-7.197h0.656v3.246H144z"/>
         <path fill="#333333" d="M140.473,231.074v4.061l3.527,1.395v0.773l-10.035-4.02v-0.445L144,228.9v0.787L140.473,231.074z
            M139.844,234.883v-3.576l-3.603,1.361c-0.282,0.113-0.675,0.25-1.176,0.41c0.438,0.123,0.834,0.257,1.189,0.402L139.844,234.883z
            "/>
         <path fill="#333333" d="M144,220.219v0.705l-8.873,5.92v0.055c1.058-0.055,1.854-0.082,2.393-0.082H144v0.67h-9.994v-0.697
            l8.859-5.914v-0.041c-0.82,0.041-1.6,0.063-2.338,0.063h-6.521v-0.678H144z"/>
         <path fill="#333333" d="M138.907,209.801c1.677,0,2.945,0.44,3.804,1.32C143.57,212,144,213.292,144,214.996v2.393h-9.994v-2.699
            c0-1.596,0.417-2.809,1.251-3.641S137.308,209.801,138.907,209.801z M138.935,210.561c-1.431,0-2.508,0.363-3.229,1.09
            c-0.723,0.727-1.084,1.795-1.084,3.203v1.838h8.764v-1.654C143.385,212.053,141.901,210.561,138.935,210.561z"/>
      </g>
      <g>
         <path fill="#333333" d="M493,217.84v-5.461h9.994v5.461h-0.643v-4.764h-3.78v4.498h-0.643v-4.498h-4.286v4.764H493z"/>
         <path fill="#333333" d="M496.527,224.916v-4.061L493,219.461v-0.773l10.035,4.02v0.445L493,227.09v-0.787L496.527,224.916z
            M497.156,221.107v3.576l3.603-1.361c0.282-0.113,0.675-0.25,1.176-0.41c-0.438-0.123-0.834-0.257-1.189-0.402L497.156,221.107z"
            />
         <path fill="#333333" d="M495.577,234.021c-0.834,0-1.495-0.307-1.982-0.92s-0.731-1.428-0.731-2.443
            c0-1.222,0.135-2.158,0.403-2.811h0.697c-0.306,0.721-0.458,1.639-0.458,2.756c0,0.82,0.188,1.471,0.564,1.951
            c0.375,0.48,0.869,0.721,1.479,0.721c0.378,0,0.691-0.079,0.94-0.238c0.248-0.16,0.475-0.42,0.68-0.779
            c0.205-0.36,0.426-0.889,0.663-1.586c0.351-1.021,0.73-1.727,1.138-2.116c0.408-0.39,0.952-0.585,1.631-0.585
            c0.747,0,1.357,0.293,1.828,0.879c0.473,0.586,0.708,1.339,0.708,2.26c0,0.938-0.178,1.82-0.533,2.645l-0.602-0.252
            c0.347-0.83,0.52-1.623,0.52-2.379c0-0.738-0.171-1.326-0.513-1.764s-0.807-0.656-1.395-0.656c-0.369,0-0.672,0.066-0.909,0.201
            s-0.45,0.354-0.64,0.66c-0.188,0.305-0.415,0.829-0.68,1.572c-0.269,0.779-0.529,1.364-0.783,1.756
            c-0.252,0.393-0.539,0.678-0.861,0.858C496.422,233.932,496.033,234.021,495.577,234.021z"/>
         <path fill="#333333" d="M493,238.738v-0.705h9.338v-3.246h0.656v7.197h-0.656v-3.246H493z"/>
         <path fill="#333333" d="M495.577,252.621c-0.834,0-1.495-0.307-1.982-0.919s-0.731-1.428-0.731-2.444
            c0-1.221,0.135-2.157,0.403-2.809h0.697c-0.306,0.72-0.458,1.638-0.458,2.754c0,0.82,0.188,1.471,0.564,1.952
            c0.375,0.481,0.869,0.722,1.479,0.722c0.378,0,0.691-0.08,0.94-0.24c0.248-0.159,0.475-0.419,0.68-0.779
            c0.205-0.359,0.426-0.889,0.663-1.586c0.351-1.021,0.73-1.726,1.138-2.115c0.408-0.39,0.952-0.584,1.631-0.584
            c0.747,0,1.357,0.293,1.828,0.878c0.473,0.585,0.708,1.339,0.708,2.259c0,0.939-0.178,1.821-0.533,2.646l-0.602-0.254
            c0.347-0.829,0.52-1.622,0.52-2.379c0-0.738-0.171-1.326-0.513-1.764s-0.807-0.656-1.395-0.656c-0.369,0-0.672,0.068-0.909,0.202
            s-0.45,0.354-0.64,0.659c-0.188,0.306-0.415,0.83-0.68,1.572c-0.269,0.779-0.529,1.365-0.783,1.758
            c-0.252,0.392-0.539,0.678-0.861,0.857C496.422,252.531,496.033,252.621,495.577,252.621z"/>
         <path fill="#333333" d="M493,257.338v-0.703h9.338v-3.248h0.656v7.199h-0.656v-3.248H493z"/>
         <path fill="#333333" d="M496.527,266.881v-4.061L493,261.426v-0.771l10.035,4.02v0.443L493,269.055v-0.785L496.527,266.881z
            M497.156,263.074v3.574l3.603-1.359c0.282-0.114,0.675-0.251,1.176-0.41c-0.438-0.123-0.834-0.258-1.189-0.404L497.156,263.074z"
            />
         <path fill="#333333" d="M493,277.736v-0.703l8.873-5.92v-0.055c-1.058,0.055-1.854,0.082-2.393,0.082H493v-0.67h9.994v0.697
            l-8.859,5.912v0.041c0.82-0.041,1.6-0.061,2.338-0.061h6.521v0.676H493z"/>
         <path fill="#333333" d="M498.093,288.154c-1.677,0-2.945-0.439-3.804-1.318c-0.859-0.88-1.289-2.172-1.289-3.877v-2.393h9.994
            v2.701c0,1.595-0.417,2.809-1.251,3.64S499.692,288.154,498.093,288.154z M498.065,287.396c1.431,0,2.508-0.363,3.229-1.091
            c0.723-0.728,1.084-1.794,1.084-3.202v-1.84h-8.764v1.654C493.615,285.903,495.099,287.396,498.065,287.396z"/>
      </g>
      <g>
         <path fill="#333333" d="M220.083,569.334h-0.704v-9.338h-3.247v-0.656h7.198v0.656h-3.247V569.334z"/>
         <path fill="#333333" d="M232.052,569.334h-0.704v-4.915h-5.838v4.915h-0.697v-9.994h0.697v4.437h5.838v-4.437h0.704V569.334z"/>
         <path fill="#333333" d="M240.344,569.334h-5.462v-9.994h5.462v0.643h-4.765v3.78h4.498v0.643h-4.498v4.286h4.765V569.334z"/>
         <path fill="#333333" d="M254.208,569.334h-0.574l-2.194-7.711c-0.182-0.634-0.319-1.153-0.41-1.559
            c-0.073,0.396-0.177,0.853-0.311,1.367s-0.869,3.149-2.205,7.902h-0.588l-2.748-9.994h0.731l1.75,6.439
            c0.068,0.26,0.132,0.5,0.191,0.721c0.059,0.222,0.113,0.429,0.161,0.623c0.048,0.193,0.091,0.38,0.13,0.561
            c0.039,0.18,0.074,0.36,0.106,0.543c0.109-0.62,0.342-1.561,0.697-2.823l1.709-6.063h0.772l2.003,6.959
            c0.232,0.802,0.399,1.449,0.499,1.941c0.059-0.328,0.136-0.677,0.229-1.046s0.796-2.987,2.109-7.854h0.704L254.208,569.334z"/>
         <path fill="#333333" d="M258.733,569.334v-9.994h0.697v9.994H258.733z"/>
         <path fill="#333333" d="M262.26,569.334v-9.994h0.697v9.338h4.765v0.656H262.26z"/>
         <path fill="#333333" d="M269.445,569.334v-9.994h0.697v9.338h4.765v0.656H269.445z"/>
         <path fill="#333333" d="M276.629,569.334v-9.994h0.697v9.994H276.629z"/>
         <path fill="#333333" d="M284.969,565.807h-4.061l-1.395,3.527h-0.772l4.02-10.035h0.444l3.938,10.035h-0.786L284.969,565.807z
            M281.162,565.178h3.575l-1.36-3.603c-0.114-0.282-0.25-0.675-0.41-1.176c-0.123,0.438-0.257,0.834-0.403,1.189L281.162,565.178z"
            />
         <path fill="#333333" d="M292.954,569.334l-3.726-9.229h-0.055c0.037,0.565,0.055,1.144,0.055,1.736v7.492h-0.67v-9.994h1.08
            l3.541,8.791h0.041l3.541-8.791h1.053v9.994h-0.704v-7.574c0-0.528,0.027-1.075,0.082-1.641h-0.055l-3.739,9.215H292.954z"/>
         <path fill="#333333" d="M311.513,569.334h-0.704v-4.915h-5.838v4.915h-0.697v-9.994h0.697v4.437h5.838v-4.437h0.704V569.334z"/>
         <path fill="#333333" d="M314.343,569.334v-9.994h0.697v9.994H314.343z"/>
         <path fill="#333333" d="M317.871,569.334v-9.994h0.697v9.338h4.764v0.656H317.871z"/>
         <path fill="#333333" d="M325.055,569.334v-9.994h0.697v9.338h4.766v0.656H325.055z"/>
         <path fill="#333333" d="M341.393,566.757c0,0.834-0.307,1.495-0.919,1.982s-1.428,0.731-2.444,0.731
            c-1.221,0-2.157-0.135-2.809-0.403v-0.697c0.72,0.306,1.638,0.458,2.754,0.458c0.82,0,1.471-0.188,1.952-0.564
            c0.481-0.375,0.722-0.869,0.722-1.479c0-0.378-0.08-0.691-0.24-0.94c-0.159-0.248-0.419-0.475-0.779-0.68
            c-0.359-0.205-0.889-0.426-1.586-0.663c-1.021-0.351-1.726-0.73-2.115-1.138c-0.39-0.408-0.584-0.952-0.584-1.631
            c0-0.747,0.293-1.357,0.878-1.828c0.585-0.473,1.339-0.708,2.259-0.708c0.939,0,1.821,0.178,2.646,0.533l-0.254,0.602
            c-0.829-0.347-1.622-0.52-2.379-0.52c-0.738,0-1.326,0.171-1.764,0.513s-0.656,0.807-0.656,1.395c0,0.369,0.068,0.672,0.202,0.909
            s0.354,0.45,0.659,0.64c0.306,0.188,0.83,0.415,1.572,0.68c0.779,0.269,1.365,0.529,1.758,0.783
            c0.392,0.252,0.678,0.539,0.857,0.861C341.303,565.912,341.393,566.301,341.393,566.757z"/>
         <path fill="#333333" d="M346.109,569.334h-0.703v-9.338h-3.248v-0.656h7.199v0.656h-3.248V569.334z"/>
         <path fill="#333333" d="M355.652,565.807h-4.061l-1.395,3.527h-0.771l4.02-10.035h0.443l3.938,10.035h-0.785L355.652,565.807z
            M351.846,565.178h3.574l-1.359-3.603c-0.114-0.282-0.251-0.675-0.41-1.176c-0.123,0.438-0.258,0.834-0.404,1.189L351.846,565.178
            z"/>
         <path fill="#333333" d="M366.508,569.334h-0.703l-5.92-8.873h-0.055c0.055,1.058,0.082,1.854,0.082,2.393v6.48h-0.67v-9.994h0.697
            l5.912,8.859h0.041c-0.041-0.82-0.061-1.6-0.061-2.338v-6.521h0.676V569.334z"/>
         <path fill="#333333" d="M376.927,564.241c0,1.677-0.439,2.945-1.319,3.804c-0.88,0.859-2.172,1.289-3.876,1.289h-2.393v-9.994h2.7
            c1.595,0,2.809,0.417,3.641,1.251C376.511,561.425,376.927,562.642,376.927,564.241z M376.168,564.269
            c0-1.431-0.363-2.508-1.09-3.229c-0.728-0.723-1.795-1.084-3.203-1.084h-1.839v8.764h1.654
            C374.676,568.719,376.168,567.235,376.168,564.269z"/>
         <path fill="#333333" d="M390.209,559.34v6.467c0,1.148-0.333,2.046-0.998,2.693s-1.593,0.971-2.782,0.971
            c-1.157,0-2.062-0.324-2.71-0.975c-0.65-0.648-0.975-1.555-0.975-2.717v-6.439h0.704v6.467c0,0.962,0.267,1.71,0.8,2.246
            c0.533,0.535,1.287,0.803,2.263,0.803c0.952,0,1.69-0.264,2.215-0.789c0.524-0.527,0.786-1.257,0.786-2.191v-6.535H390.209z"/>
         <path fill="#333333" d="M398.944,562.211c0,0.966-0.328,1.707-0.984,2.222s-1.586,0.772-2.789,0.772h-1.545v4.129h-0.697v-9.994
            h2.447C397.755,559.34,398.944,560.297,398.944,562.211z M393.626,564.604H395c1.126,0,1.939-0.186,2.44-0.557
            c0.501-0.372,0.752-0.975,0.752-1.809c0-0.771-0.237-1.341-0.711-1.713c-0.474-0.371-1.208-0.557-2.201-0.557h-1.654V564.604z"/>
         <path fill="#333333" d="M407.134,562.211c0,0.966-0.328,1.707-0.984,2.222s-1.586,0.772-2.789,0.772h-1.545v4.129h-0.697v-9.994
            h2.447C405.944,559.34,407.134,560.297,407.134,562.211z M401.815,564.604h1.374c1.126,0,1.939-0.186,2.44-0.557
            c0.501-0.372,0.752-0.975,0.752-1.809c0-0.771-0.237-1.341-0.711-1.713c-0.474-0.371-1.208-0.557-2.201-0.557h-1.654V564.604z"/>
         <path fill="#333333" d="M414.77,569.334h-5.462v-9.994h5.462v0.643h-4.765v3.78h4.498v0.643h-4.498v4.286h4.765V569.334z"/>
         <path fill="#333333" d="M417.729,564.979v4.354h-0.697v-9.994h2.379c1.239,0,2.155,0.229,2.748,0.688
            c0.593,0.457,0.889,1.146,0.889,2.067c0,0.67-0.177,1.235-0.53,1.695c-0.353,0.46-0.89,0.791-1.609,0.991l2.714,4.553h-0.834
            l-2.577-4.354H417.729z M417.729,564.378h1.907c0.843,0,1.497-0.188,1.962-0.563c0.465-0.377,0.697-0.932,0.697-1.665
            c0-0.761-0.228-1.314-0.684-1.661s-1.198-0.52-2.229-0.52h-1.654V564.378z"/>
      </g>
   </g>
</svg>