<svg>
<g id="AREAS">
	<rect id="EL-GR3B" x="436.705" y="157.843" stroke-width="0" width="131.125" height="18.938"/>
	<rect id="EL-GR3C" x="343.001" y="157.843" stroke-width="0" width="89.707" height="18.938"/>
	<rect id="EL-GR6C" x="249.297" y="157.843" stroke-width="0" width="89.704" height="18.938"/>
	<rect id="EL-GR6B" x="118.171" y="157.843" stroke-width="0" width="127.126" height="18.938"/>
	<path id="EU-PP" stroke-width="0" d="M619.938,124.901c-9.106-9.139-20.209-16.064-32.331-20.165l20.08-48.476
		c18.443,7.204,35.378,17.454,50.392,30.497L619.938,124.901z"/>
	<path id="EU-OO" stroke-width="0" d="M583.771,103.543c-7.415-2.11-15.095-3.179-22.856-3.179h-14.121V44.461
		c19.624,0.222,38.83,3.713,57.148,10.386L583.771,103.543z"/>
	<rect id="EU-NN" x="478.863" y="44.45" stroke-width="0" width="63.931" height="55.914"/>
	<rect id="EU-MM" x="410.932" y="44.45" stroke-width="0" width="63.932" height="55.914"/>
	<rect id="EU-LL" x="343.001" y="44.45" stroke-width="0" width="63.931" height="55.914"/>
	<rect id="EU-KK" x="275.07" y="44.45" stroke-width="0" width="63.931" height="55.914"/>
	<rect id="EU-JJ" x="207.138" y="44.45" stroke-width="0" width="63.932" height="55.914"/>
	<rect id="EU-II" x="139.208" y="44.45" stroke-width="0" width="63.931" height="55.914"/>
	<path id="EU-HH" stroke-width="0" d="M78.059,54.848c18.319-6.673,37.525-10.164,57.148-10.386v55.902h-14.121
		c-7.764,0-15.444,1.069-22.857,3.179L78.059,54.848z"/>
	<path id="EU-GG" stroke-width="0" d="M23.922,86.758c15.015-13.044,31.95-23.293,50.393-30.497l20.079,48.476
		c-12.12,4.101-23.222,11.026-32.328,20.166L23.922,86.758z"/>
	<rect id="S-P" x="590.768" y="307.728" stroke-width="0" width="49.479" height="122.053"/>
	<rect id="S-O" x="590.768" y="208.565" stroke-width="0" width="49.479" height="95.162"/>
	<path id="S-N" stroke-width="0" d="M590.768,204.565v-20.869c0-16.461-13.392-29.854-29.853-29.854h-14.121v-49.479h14.121
		c43.743,0,79.331,35.589,79.331,79.333v20.869H590.768z"/>
	<rect id="EC-M" x="444.896" y="104.364" stroke-width="0" width="97.897" height="49.479"/>
	<rect id="EC-L" x="343.001" y="104.364" stroke-width="0" width="97.896" height="49.479"/>
	<rect id="EC-K" x="241.105" y="104.364" stroke-width="0" width="97.896" height="49.479"/>
	<rect id="EC-J" x="139.208" y="104.364" stroke-width="0" width="97.897" height="49.479"/>
	<path id="N-I" stroke-width="0" d="M41.754,204.565v-20.869c0-43.744,35.588-79.333,79.333-79.333h14.121v49.479h-14.122
		c-16.461,0-29.854,13.392-29.854,29.854v20.869H41.754z"/>
	<rect id="N-H" x="41.754" y="208.565" stroke-width="0" width="49.478" height="95.162"/>
	<rect id="N-G" x="41.754" y="307.728" stroke-width="0" width="49.478" height="122.053"/>
	<polygon id="WU-S" stroke-width="0" points="497.623,540.616 545.19,534.562 549.769,594.463 501.057,600.519 	"/>
	<polygon id="WU-R" stroke-width="0" points="446.083,547.173 493.646,541.123 497.079,601.013 448.371,607.066 	"/>
	<polygon id="WU-Q" stroke-width="0" points="395.69,607.32 394.547,547.42 442.09,547.42 444.378,607.32 	"/>
	<polygon id="WU-P" stroke-width="0" points="343.001,607.32 343.001,547.42 390.547,547.42 391.69,607.32 	"/>
	<polygon id="WU-N" stroke-width="0" points="290.312,607.32 291.457,547.42 339.001,547.42 339.001,607.32 	"/>
	<polygon id="WU-M" stroke-width="0" points="237.625,607.32 239.913,547.42 287.456,547.42 286.311,607.32 	"/>
	<polygon id="WU-L" stroke-width="0" points="184.923,601.013 188.355,541.123 235.919,547.173 233.631,607.066 	"/>
	<polygon id="WU-K" stroke-width="0" points="132.23,594.463 136.809,534.562 184.378,540.616 180.944,600.519 	"/>
	<polygon id="WL-J" stroke-width="0" points="493.022,460.323 539.058,454.287 543.636,514.186 496.453,520.228 	"/>
	<polygon id="WL-H" stroke-width="0" points="443.015,466.884 489.046,460.845 492.476,520.737 445.301,526.774 	"/>
	<polygon id="WL-G" stroke-width="0" points="394.156,527.036 393.012,467.138 439.021,467.138 441.308,527.036 	"/>
	<polygon id="WL-F" stroke-width="0" points="343.001,527.036 343.001,483.521 348.735,483.521 348.735,467.138 389.011,467.138 
		390.155,527.036 	"/>
	<polygon id="WL-D" stroke-width="0" points="291.847,527.036 292.99,467.138 333.267,467.138 333.267,483.521 339.001,483.521 
		339.001,527.036 	"/>
	<polygon id="WL-C" stroke-width="0" points="240.692,527.036 242.981,467.138 288.989,467.138 287.846,527.036 	"/>
	<polygon id="WL-B" stroke-width="0" points="189.523,520.737 192.957,460.845 238.988,466.884 236.7,526.774 	"/>
	<polygon id="WL-A" stroke-width="0" points="138.366,514.186 142.944,454.287 188.98,460.323 185.546,520.229 	"/>
	<rect id="EL-GR6A" x="95.232" y="208.565" stroke-width="0" width="18.938" height="221.215"/>
	<rect id="EL-GR3A" x="567.83" y="208.565" stroke-width="0" width="18.938" height="221.215"/>
</g>
<g id="LABELS">
	<text fid="WL-A" transform="matrix(1 0 0 1 159.3384 490.459)" fill="#FFFFFF" font-family="'Arial'" font-size="12">A</text>
	<text fid="WL-B" transform="matrix(1 0 0 1 210.2539 497.0098)" fill="#FFFFFF" font-family="'Arial'" font-size="12">B</text>
	<text fid="WL-C" transform="matrix(1 0 0 1 260.5078 500.2871)" fill="#FFFFFF" font-family="'Arial'" font-size="12">C</text>
	<text fid="WL-D" transform="matrix(1 0 0 1 311.0908 500.2871)" fill="#FFFFFF" font-family="'Arial'" font-size="12">D</text>
	<text fid="WL-F" transform="matrix(1 0 0 1 362.9131 500.2871)" fill="#FFFFFF" font-family="'Arial'" font-size="12">F</text>
	<text fid="WL-G" transform="matrix(1 0 0 1 412.4922 500.2871)" fill="#FFFFFF" font-family="'Arial'" font-size="12">G</text>
	<text fid="WL-H" transform="matrix(1 0 0 1 463.4121 497.0098)" fill="#FFFFFF" font-family="'Arial'" font-size="12">H</text>
	<text fid="WL-J" transform="matrix(1 0 0 1 515.3291 490.458)" fill="#FFFFFF" font-family="'Arial'" font-size="12">J</text>
	<text fid="WU-K" transform="matrix(1 0 0 1 154.3022 570.7402)" fill="#FFFFFF" font-family="'Arial'" font-size="12">K</text>
	<text fid="WU-L" transform="matrix(1 0 0 1 207.0786 577.2949)" fill="#FFFFFF" font-family="'Arial'" font-size="12">L</text>
	<text fid="WU-M" transform="matrix(1 0 0 1 257.542 580.5703)" fill="#FFFFFF" font-family="'Arial'" font-size="12">M</text>
	<text fid="WU-N" transform="matrix(1 0 0 1 310.3232 580.5703)" fill="#FFFFFF" font-family="'Arial'" font-size="12">N</text>
	<text fid="WU-P" transform="matrix(1 0 0 1 363.3438 580.5703)" fill="#FFFFFF" font-family="'Arial'" font-size="12">P</text>
	<text fid="WU-Q" transform="matrix(1 0 0 1 414.7949 580.5703)" fill="#FFFFFF" font-family="'Arial'" font-size="12">Q</text>
	<text fid="WU-R" transform="matrix(1 0 0 1 467.248 577.2949)" fill="#FFFFFF" font-family="'Arial'" font-size="12">R</text>
	<text fid="WU-S" transform="matrix(1 0 0 1 519.6943 570.7402)" fill="#FFFFFF" font-family="'Arial'" font-size="12">S</text>
	<text fid="N-G" transform="matrix(1 0 0 1 61.8262 371.9551)" fill="#FFFFFF" font-family="'Arial'" font-size="12">G</text>
	<text fid="N-H" transform="matrix(1 0 0 1 62.1606 259.3477)" fill="#FFFFFF" font-family="'Arial'" font-size="12">H</text>
	<text fid="N-I" transform="matrix(1 0 0 1 86.814 157.666)" fill="#FFFFFF" font-family="'Arial'" font-size="12">I</text>
	<text fid="EC-J" transform="matrix(1 0 0 1 185.1563 132.3047)" fill="#FFFFFF" font-family="'Arial'" font-size="12">J</text>
	<text fid="EC-K" transform="matrix(1 0 0 1 286.0508 132.3047)" fill="#FFFFFF" font-family="'Arial'" font-size="12">K</text>
	<text fid="EC-L" transform="matrix(1 0 0 1 388.6064 132.3047)" fill="#FFFFFF" font-family="'Arial'" font-size="12">L</text>
	<text fid="EC-M" transform="matrix(1 0 0 1 488.8477 132.3047)" fill="#FFFFFF" font-family="'Arial'" font-size="12">M</text>
	<text fid="S-N" transform="matrix(1 0 0 1 589.1875 157.666)" fill="#FFFFFF" font-family="'Arial'" font-size="12">N</text>
	<text fid="S-O" transform="matrix(1 0 0 1 610.8398 259.3477)" fill="#FFFFFF" font-family="'Arial'" font-size="12">O</text>
	<text fid="S-P" transform="matrix(1 0 0 1 611.5049 371.9551)" fill="#FFFFFF" font-family="'Arial'" font-size="12">P</text>
	<text fid="EU-GG" transform="matrix(1 0 0 1 49.8242 93.7813)" fill="#FFFFFF" font-family="'Arial'" font-size="12">GG</text>
	<text fid="EU-HH" transform="matrix(1 0 0 1 97.9673 77.2031)" fill="#FFFFFF" font-family="'Arial'" font-size="12">HH</text>
	<text fid="EU-II" transform="matrix(1 0 0 1 167.8389 75.6074)" fill="#FFFFFF" font-family="'Arial'" font-size="12">II</text>
	<text fid="EU-JJ" transform="matrix(1 0 0 1 233.104 75.6074)" fill="#FFFFFF" font-family="'Arial'" font-size="12">JJ</text>
	<text fid="EU-KK" transform="matrix(1 0 0 1 299.0317 75.6074)" fill="#FFFFFF" font-family="'Arial'" font-size="12">KK</text>
	<text fid="EU-LL" transform="matrix(1 0 0 1 368.2871 75.6074)" fill="#FFFFFF" font-family="'Arial'" font-size="12">LL</text>
	<text fid="EU-MM" transform="matrix(1 0 0 1 432.9023 75.6074)" fill="#FFFFFF" font-family="'Arial'" font-size="12">MM</text>
	<text fid="EU-NN" transform="matrix(1 0 0 1 502.1621 75.6074)" fill="#FFFFFF" font-family="'Arial'" font-size="12">NN</text>
	<text fid="EU-OO" transform="matrix(1 0 0 1 566.0332 77.2031)" fill="#FFFFFF" font-family="'Arial'" font-size="12">OO</text>
	<text fid="EU-PP" transform="matrix(1 0 0 1 614.8379 93.7813)" fill="#FFFFFF" font-family="'Arial'" font-size="12">PP</text>
	<text fid="EL-GR6A" transform="matrix(0 -1 1 0 104.9023 335.8545)" fill="#FFFFFF" font-family="'Arial'" font-size="12">GR6A</text>
	<text fid="EL-GR6B" transform="matrix(1 0 0 1 165.395 167.5137)" fill="#FFFFFF" font-family="'Arial'" font-size="12">GR6B</text>
	<text fid="EL-GR6C" transform="matrix(1 0 0 1 277.479 167.5137)" fill="#FFFFFF" font-family="'Arial'" font-size="12">GR6C</text>
	<text fid="EL-GR3C" transform="matrix(1 0 0 1 371.1836 167.5137)" fill="#FFFFFF" font-family="'Arial'" font-size="12">GR3C</text>
	<text fid="EL-GR3B" transform="matrix(1 0 0 1 485.9277 167.5137)" fill="#FFFFFF" font-family="'Arial'" font-size="12">GR3B</text>
	<text fid="EL-GR3A" transform="matrix(0 1 -1 0 577.0977 302.4917)" fill="#FFFFFF" font-family="'Arial'" font-size="12">GR3A</text>
</g>
<g id="EXTRAS">
	<rect x="374.237" y="446.656" fill="#CCCCCC" width="58.471" height="7.47"/>
	<rect x="155.592" y="188.974" fill="#CCCCCC" width="7.469" height="20.577"/>
	<rect x="611.775" y="441.971" fill="#CCCCCC" width="7.467" height="20.575"/>
	<rect x="106.702" y="175.797" fill="#CCCCCC" width="7.469" height="20.576"/>
	<rect x="139.208" y="11.681" fill="#CCCCCC" width="7.469" height="20.577"/>
	<rect x="535.325" y="11.681" fill="#CCCCCC" width="7.469" height="20.577"/>
	<rect x="651.531" y="113.24" fill="#CCCCCC" width="7.469" height="20.577"/>
	<rect x="23" y="113.24" fill="#CCCCCC" width="7.469" height="20.577"/>
	<rect x="118.565" y="476.969" fill="#CCCCCC" width="7.47" height="20.573"/>
	<rect x="112.431" y="565.852" fill="#CCCCCC" width="7.468" height="20.578"/>
	<rect x="555.967" y="476.969" fill="#CCCCCC" width="7.469" height="20.573"/>
	<rect x="562.101" y="565.852" fill="#CCCCCC" width="7.469" height="20.578"/>
	<rect x="518.94" y="188.974" fill="#CCCCCC" width="7.469" height="20.577"/>
</g>
<g id="EXTRA-LABELS">
	<g>
		<path d="M304.77,628.859h-0.656l-2.508-8.813c-0.208-0.724-0.365-1.317-0.469-1.781c-0.083,0.453-0.202,0.974-0.355,1.563
			c-0.154,0.589-0.994,3.599-2.52,9.031h-0.672l-3.141-11.422h0.836l2,7.359c0.078,0.297,0.151,0.571,0.219,0.824
			c0.067,0.253,0.129,0.489,0.184,0.711s0.104,0.435,0.148,0.641c0.044,0.206,0.084,0.413,0.121,0.621
			c0.125-0.708,0.391-1.784,0.797-3.227l1.953-6.93h0.883l2.289,7.953c0.266,0.917,0.456,1.656,0.57,2.219
			c0.067-0.375,0.155-0.773,0.262-1.195c0.106-0.422,0.91-3.414,2.41-8.977h0.805L304.77,628.859z"/>
		<path d="M316.184,628.859h-6.242v-11.422h6.242v0.734h-5.445v4.32h5.141v0.734h-5.141v4.898h5.445V628.859z"/>
		<path d="M325.074,625.914c0,0.953-0.351,1.708-1.051,2.266c-0.701,0.558-1.632,0.836-2.793,0.836
			c-1.396,0-2.466-0.153-3.211-0.461v-0.797c0.823,0.349,1.872,0.523,3.148,0.523c0.938,0,1.681-0.215,2.23-0.645
			c0.549-0.43,0.824-0.993,0.824-1.691c0-0.433-0.091-0.79-0.273-1.074c-0.183-0.284-0.479-0.543-0.891-0.777
			c-0.412-0.234-1.016-0.487-1.813-0.758c-1.167-0.401-1.973-0.835-2.418-1.301s-0.668-1.087-0.668-1.863
			c0-0.854,0.334-1.551,1.004-2.09c0.669-0.539,1.53-0.809,2.582-0.809c1.073,0,2.081,0.203,3.023,0.609l-0.289,0.688
			c-0.948-0.396-1.854-0.594-2.719-0.594c-0.844,0-1.516,0.195-2.016,0.586s-0.75,0.922-0.75,1.594c0,0.422,0.077,0.769,0.23,1.039
			c0.153,0.271,0.405,0.515,0.754,0.73c0.349,0.216,0.948,0.476,1.797,0.777c0.891,0.308,1.56,0.605,2.008,0.895
			c0.448,0.289,0.774,0.617,0.98,0.984C324.971,624.949,325.074,625.394,325.074,625.914z"/>
		<path d="M330.465,628.859h-0.805v-10.672h-3.711v-0.75h8.227v0.75h-3.711V628.859z"/>
		<path d="M346.332,625.914c0,0.953-0.351,1.708-1.051,2.266c-0.701,0.558-1.632,0.836-2.793,0.836
			c-1.396,0-2.466-0.153-3.211-0.461v-0.797c0.823,0.349,1.872,0.523,3.148,0.523c0.938,0,1.681-0.215,2.23-0.645
			c0.549-0.43,0.824-0.993,0.824-1.691c0-0.433-0.092-0.79-0.273-1.074c-0.183-0.284-0.479-0.543-0.891-0.777
			c-0.412-0.234-1.016-0.487-1.813-0.758c-1.167-0.401-1.973-0.835-2.418-1.301s-0.668-1.087-0.668-1.863
			c0-0.854,0.334-1.551,1.004-2.09c0.669-0.539,1.53-0.809,2.582-0.809c1.072,0,2.08,0.203,3.023,0.609l-0.289,0.688
			c-0.948-0.396-1.854-0.594-2.719-0.594c-0.844,0-1.516,0.195-2.016,0.586s-0.75,0.922-0.75,1.594c0,0.422,0.077,0.769,0.23,1.039
			c0.153,0.271,0.405,0.515,0.754,0.73c0.349,0.216,0.947,0.476,1.797,0.777c0.891,0.308,1.56,0.605,2.008,0.895
			c0.447,0.289,0.774,0.617,0.98,0.984C346.229,624.949,346.332,625.394,346.332,625.914z"/>
		<path d="M351.723,628.859h-0.805v-10.672h-3.711v-0.75h8.227v0.75h-3.711V628.859z"/>
		<path d="M362.629,624.828h-4.641l-1.594,4.031h-0.883l4.594-11.469h0.508l4.5,11.469h-0.898L362.629,624.828z M358.277,624.109
			h4.086l-1.555-4.117c-0.131-0.323-0.287-0.771-0.469-1.344c-0.141,0.5-0.295,0.953-0.461,1.359L358.277,624.109z"/>
		<path d="M375.035,628.859h-0.805l-6.766-10.141h-0.063c0.063,1.208,0.094,2.12,0.094,2.734v7.406h-0.766v-11.422h0.797
			l6.758,10.125h0.047c-0.047-0.938-0.07-1.828-0.07-2.672v-7.453h0.773V628.859z"/>
		<path d="M386.941,623.039c0,1.917-0.503,3.366-1.508,4.348c-1.006,0.981-2.482,1.473-4.43,1.473h-2.734v-11.422h3.086
			c1.822,0,3.209,0.477,4.16,1.43C386.466,619.82,386.941,621.211,386.941,623.039z M386.074,623.07
			c0-1.636-0.416-2.866-1.246-3.691c-0.831-0.825-2.051-1.238-3.66-1.238h-2.102v10.016h1.891
			C384.368,628.156,386.074,626.461,386.074,623.07z"/>
	</g>
	<g>
		<path d="M304.246,26.512h-6.242V15.09h6.242v0.734h-5.445v4.32h5.141v0.734h-5.141v4.898h5.445V26.512z"/>
		<path d="M312.332,22.481h-4.641l-1.594,4.031h-0.883l4.594-11.469h0.508l4.5,11.469h-0.898L312.332,22.481z M307.98,21.762h4.086
			l-1.555-4.117c-0.13-0.323-0.287-0.771-0.469-1.344c-0.141,0.5-0.294,0.953-0.461,1.359L307.98,21.762z"/>
		<path d="M322.738,23.567c0,0.953-0.351,1.708-1.051,2.266c-0.701,0.558-1.632,0.836-2.793,0.836c-1.396,0-2.466-0.153-3.211-0.461
			v-0.797c0.823,0.349,1.872,0.523,3.148,0.523c0.938,0,1.681-0.215,2.23-0.645c0.549-0.43,0.824-0.993,0.824-1.691
			c0-0.433-0.091-0.79-0.273-1.074c-0.183-0.284-0.479-0.543-0.891-0.777c-0.412-0.234-1.016-0.487-1.813-0.758
			c-1.167-0.401-1.973-0.835-2.418-1.301s-0.668-1.087-0.668-1.863c0-0.854,0.334-1.551,1.004-2.09
			c0.669-0.539,1.53-0.809,2.582-0.809c1.073,0,2.081,0.203,3.023,0.609l-0.289,0.688c-0.948-0.396-1.854-0.594-2.719-0.594
			c-0.844,0-1.516,0.195-2.016,0.586s-0.75,0.922-0.75,1.594c0,0.422,0.077,0.769,0.23,1.039c0.153,0.271,0.405,0.515,0.754,0.73
			c0.349,0.216,0.948,0.476,1.797,0.777c0.891,0.308,1.56,0.605,2.008,0.895c0.448,0.289,0.774,0.617,0.98,0.984
			C322.635,22.602,322.738,23.046,322.738,23.567z"/>
		<path d="M328.129,26.512h-0.805V15.84h-3.711v-0.75h8.227v0.75h-3.711V26.512z"/>
		<path d="M343.996,23.567c0,0.953-0.351,1.708-1.051,2.266c-0.701,0.558-1.632,0.836-2.793,0.836c-1.396,0-2.466-0.153-3.211-0.461
			v-0.797c0.823,0.349,1.872,0.523,3.148,0.523c0.938,0,1.681-0.215,2.23-0.645c0.549-0.43,0.824-0.993,0.824-1.691
			c0-0.433-0.092-0.79-0.273-1.074c-0.183-0.284-0.479-0.543-0.891-0.777c-0.412-0.234-1.016-0.487-1.813-0.758
			c-1.167-0.401-1.973-0.835-2.418-1.301s-0.668-1.087-0.668-1.863c0-0.854,0.334-1.551,1.004-2.09
			c0.669-0.539,1.53-0.809,2.582-0.809c1.073,0,2.08,0.203,3.023,0.609l-0.289,0.688c-0.948-0.396-1.854-0.594-2.719-0.594
			c-0.844,0-1.516,0.195-2.016,0.586s-0.75,0.922-0.75,1.594c0,0.422,0.077,0.769,0.23,1.039c0.153,0.271,0.405,0.515,0.754,0.73
			c0.349,0.216,0.948,0.476,1.797,0.777c0.891,0.308,1.56,0.605,2.008,0.895c0.447,0.289,0.774,0.617,0.98,0.984
			C343.893,22.602,343.996,23.046,343.996,23.567z"/>
		<path d="M349.387,26.512h-0.805V15.84h-3.711v-0.75h8.227v0.75h-3.711V26.512z"/>
		<path d="M360.293,22.481h-4.641l-1.594,4.031h-0.883l4.594-11.469h0.508l4.5,11.469h-0.898L360.293,22.481z M355.941,21.762h4.086
			l-1.555-4.117c-0.131-0.323-0.287-0.771-0.469-1.344c-0.141,0.5-0.295,0.953-0.461,1.359L355.941,21.762z"/>
		<path d="M372.699,26.512h-0.805l-6.766-10.141h-0.063c0.063,1.208,0.094,2.12,0.094,2.734v7.406h-0.766V15.09h0.797l6.758,10.125
			h0.047c-0.047-0.938-0.07-1.828-0.07-2.672V15.09h0.773V26.512z"/>
		<path d="M384.605,20.692c0,1.917-0.503,3.366-1.508,4.348c-1.006,0.981-2.482,1.473-4.43,1.473h-2.734V15.09h3.086
			c1.822,0,3.209,0.477,4.16,1.43C384.13,17.473,384.605,18.864,384.605,20.692z M383.738,20.723c0-1.636-0.416-2.866-1.246-3.691
			c-0.831-0.825-2.051-1.238-3.66-1.238h-2.102v10.016h1.891C382.032,25.809,383.738,24.114,383.738,20.723z"/>
	</g>
	<g>
		<path d="M31.278,353.008v0.805l-10.141,6.766v0.063c1.208-0.063,2.12-0.094,2.734-0.094h7.406v0.766H19.856v-0.797l10.125-6.758
			v-0.047c-0.938,0.047-1.828,0.07-2.672,0.07h-7.453v-0.773H31.278z"/>
		<path d="M25.551,340.172c1.813,0,3.246,0.453,4.301,1.359s1.582,2.156,1.582,3.75c0,1.589-0.527,2.836-1.582,3.742
			s-2.493,1.359-4.316,1.359c-1.817,0-3.249-0.457-4.293-1.371s-1.566-2.162-1.566-3.746c0-1.594,0.525-2.841,1.574-3.742
			C22.3,340.623,23.734,340.172,25.551,340.172z M25.551,349.516c1.636,0,2.899-0.364,3.793-1.094
			c0.894-0.729,1.34-1.775,1.34-3.141c0-1.375-0.442-2.426-1.328-3.152s-2.153-1.09-3.805-1.09c-1.646,0-2.907,0.363-3.785,1.09
			s-1.316,1.772-1.316,3.137c0,1.359,0.442,2.408,1.328,3.145C22.664,349.147,23.921,349.516,25.551,349.516z"/>
		<path d="M26.301,336.75h4.977v0.797H19.856v-2.719c0-1.416,0.262-2.463,0.785-3.141c0.523-0.677,1.312-1.016,2.363-1.016
			c0.766,0,1.411,0.202,1.938,0.605c0.526,0.404,0.903,1.018,1.133,1.84l5.203-3.102v0.953l-4.977,2.945V336.75z M25.614,336.75
			v-2.18c0-0.963-0.215-1.711-0.645-2.242s-1.063-0.797-1.902-0.797c-0.87,0-1.503,0.261-1.898,0.781
			c-0.396,0.521-0.594,1.37-0.594,2.547v1.891H25.614z"/>
		<path d="M31.278,325.063v0.805H20.606v3.711h-0.75v-8.227h0.75v3.711H31.278z"/>
		<path d="M31.278,311.383v0.805h-5.617v6.672h5.617v0.797H19.856v-0.797h5.07v-6.672h-5.07v-0.805H31.278z"/>
		<path d="M28.333,297.688c0.953,0,1.708,0.351,2.266,1.051c0.558,0.701,0.836,1.632,0.836,2.793c0,1.396-0.153,2.466-0.461,3.211
			h-0.797c0.349-0.823,0.523-1.872,0.523-3.148c0-0.938-0.215-1.681-0.645-2.23c-0.43-0.549-0.993-0.824-1.691-0.824
			c-0.433,0-0.79,0.091-1.074,0.273c-0.284,0.183-0.543,0.479-0.777,0.891c-0.234,0.412-0.487,1.016-0.758,1.813
			c-0.401,1.167-0.835,1.973-1.301,2.418s-1.087,0.668-1.863,0.668c-0.854,0-1.551-0.334-2.09-1.004
			c-0.539-0.669-0.809-1.53-0.809-2.582c0-1.073,0.203-2.081,0.609-3.023l0.688,0.289c-0.396,0.948-0.594,1.854-0.594,2.719
			c0,0.844,0.195,1.516,0.586,2.016s0.922,0.75,1.594,0.75c0.422,0,0.769-0.077,1.039-0.23c0.271-0.153,0.515-0.405,0.73-0.754
			c0.216-0.349,0.476-0.948,0.777-1.797c0.308-0.891,0.605-1.56,0.895-2.008c0.289-0.448,0.617-0.774,0.984-0.98
			C27.368,297.791,27.812,297.688,28.333,297.688z"/>
		<path d="M31.278,292.297v0.805H20.606v3.711h-0.75v-8.227h0.75v3.711H31.278z"/>
		<path d="M27.247,281.391v4.641l4.031,1.594v0.883l-11.469-4.594v-0.508l11.469-4.5v0.898L27.247,281.391z M26.528,285.742v-4.086
			l-4.117,1.555c-0.323,0.13-0.771,0.287-1.344,0.469c0.5,0.141,0.953,0.294,1.359,0.461L26.528,285.742z"/>
		<path d="M31.278,268.984v0.805l-10.141,6.766v0.063c1.208-0.063,2.12-0.094,2.734-0.094h7.406v0.766H19.856v-0.797l10.125-6.758
			v-0.047c-0.938,0.047-1.828,0.07-2.672,0.07h-7.453v-0.773H31.278z"/>
		<path d="M25.458,257.078c1.917,0,3.366,0.503,4.348,1.508c0.981,1.005,1.473,2.482,1.473,4.43v2.734H19.856v-3.086
			c0-1.823,0.477-3.209,1.43-4.16C22.239,257.554,23.629,257.078,25.458,257.078z M25.489,257.945c-1.636,0-2.866,0.416-3.691,1.246
			c-0.825,0.831-1.238,2.051-1.238,3.66v2.102h10.016v-1.891C30.575,259.651,28.879,257.945,25.489,257.945z"/>
	</g>
	<g>
		<path d="M653.668,264.402c-0.953,0-1.708-0.351-2.266-1.051c-0.558-0.701-0.836-1.632-0.836-2.793
			c0-1.396,0.153-2.466,0.461-3.211h0.797c-0.349,0.823-0.523,1.872-0.523,3.148c0,0.938,0.215,1.681,0.645,2.23
			c0.43,0.549,0.993,0.824,1.691,0.824c0.433,0,0.79-0.091,1.074-0.273c0.284-0.183,0.543-0.479,0.777-0.891
			c0.234-0.412,0.487-1.016,0.758-1.813c0.401-1.167,0.835-1.973,1.301-2.418s1.087-0.668,1.863-0.668
			c0.854,0,1.551,0.334,2.09,1.004c0.539,0.669,0.809,1.53,0.809,2.582c0,1.073-0.203,2.081-0.609,3.023l-0.688-0.289
			c0.396-0.948,0.594-1.854,0.594-2.719c0-0.844-0.195-1.516-0.586-2.016s-0.922-0.75-1.594-0.75c-0.422,0-0.769,0.077-1.039,0.23
			c-0.271,0.153-0.515,0.405-0.73,0.754c-0.216,0.349-0.476,0.948-0.777,1.797c-0.308,0.891-0.605,1.56-0.895,2.008
			c-0.289,0.448-0.617,0.774-0.984,0.98C654.633,264.299,654.188,264.402,653.668,264.402z"/>
		<path d="M656.449,276.418c-1.813,0-3.246-0.453-4.301-1.359s-1.582-2.156-1.582-3.75c0-1.589,0.527-2.836,1.582-3.742
			s2.493-1.359,4.316-1.359c1.817,0,3.249,0.457,4.293,1.371s1.566,2.163,1.566,3.746c0,1.594-0.525,2.841-1.574,3.742
			C659.7,275.967,658.267,276.418,656.449,276.418z M656.449,267.074c-1.636,0-2.899,0.364-3.793,1.094
			c-0.894,0.729-1.34,1.776-1.34,3.141c0,1.375,0.442,2.426,1.328,3.152s2.153,1.09,3.805,1.09c1.646,0,2.907-0.363,3.785-1.09
			s1.316-1.772,1.316-3.137c0-1.359-0.442-2.408-1.328-3.145C659.337,267.442,658.079,267.074,656.449,267.074z"/>
		<path d="M662.145,287.441h-7.391c-1.313,0-2.339-0.38-3.078-1.141c-0.739-0.761-1.109-1.82-1.109-3.18
			c0-1.323,0.371-2.355,1.113-3.098s1.777-1.113,3.105-1.113h7.359v0.805h-7.391c-1.099,0-1.954,0.305-2.566,0.914
			s-0.918,1.471-0.918,2.586c0,1.088,0.301,1.932,0.902,2.531c0.602,0.599,1.437,0.898,2.504,0.898h7.469V287.441z"/>
		<path d="M650.723,293.527v-0.805h10.672v-3.711h0.75v8.227h-0.75v-3.711H650.723z"/>
		<path d="M650.723,307.207v-0.805h5.617v-6.672h-5.617v-0.797h11.422v0.797h-5.07v6.672h5.07v0.805H650.723z"/>
		<path d="M653.668,320.902c-0.953,0-1.708-0.351-2.266-1.051c-0.558-0.701-0.836-1.632-0.836-2.793
			c0-1.396,0.153-2.466,0.461-3.211h0.797c-0.349,0.823-0.523,1.872-0.523,3.148c0,0.938,0.215,1.681,0.645,2.23
			c0.43,0.549,0.993,0.824,1.691,0.824c0.433,0,0.79-0.091,1.074-0.273c0.284-0.183,0.543-0.479,0.777-0.891
			c0.234-0.412,0.487-1.016,0.758-1.813c0.401-1.167,0.835-1.973,1.301-2.418s1.087-0.668,1.863-0.668
			c0.854,0,1.551,0.334,2.09,1.004c0.539,0.669,0.809,1.53,0.809,2.582c0,1.073-0.203,2.081-0.609,3.023l-0.688-0.289
			c0.396-0.948,0.594-1.854,0.594-2.719c0-0.844-0.195-1.516-0.586-2.016s-0.922-0.75-1.594-0.75c-0.422,0-0.769,0.077-1.039,0.23
			c-0.271,0.153-0.515,0.405-0.73,0.754c-0.216,0.349-0.476,0.948-0.777,1.797c-0.308,0.891-0.605,1.56-0.895,2.008
			c-0.289,0.448-0.617,0.774-0.984,0.98C654.633,320.799,654.188,320.902,653.668,320.902z"/>
		<path d="M650.723,326.293v-0.805h10.672v-3.711h0.75v8.227h-0.75v-3.711H650.723z"/>
		<path d="M654.754,337.199v-4.641l-4.031-1.594v-0.883l11.469,4.594v0.508l-11.469,4.5v-0.898L654.754,337.199z M655.473,332.848
			v4.086l4.117-1.555c0.323-0.131,0.771-0.287,1.344-0.469c-0.5-0.141-0.953-0.295-1.359-0.461L655.473,332.848z"/>
		<path d="M650.723,349.605v-0.805l10.141-6.766v-0.063c-1.208,0.063-2.12,0.094-2.734,0.094h-7.406v-0.766h11.422v0.797
			l-10.125,6.758v0.047c0.938-0.047,1.828-0.07,2.672-0.07h7.453v0.773H650.723z"/>
		<path d="M656.543,361.512c-1.917,0-3.366-0.503-4.348-1.508c-0.981-1.006-1.473-2.482-1.473-4.43v-2.734h11.422v3.086
			c0,1.822-0.477,3.209-1.43,4.16C659.762,361.036,658.371,361.512,656.543,361.512z M656.512,360.645
			c1.636,0,2.866-0.416,3.691-1.246c0.825-0.831,1.238-2.051,1.238-3.66v-2.102h-10.016v1.891
			C651.426,358.938,653.121,360.645,656.512,360.645z"/>
	</g>
</g>
<g id="PITCH">
	<rect x="170.558" y="200.455" fill="#74BE45" width="340.885" height="224.09"/>
	<rect x="185.384" y="200.455" fill="#149B49" width="14.833" height="224.09"/>
	<rect x="215.023" y="200.455" fill="#149B49" width="14.836" height="224.09"/>
	<rect x="244.669" y="200.455" fill="#149B49" width="14.83" height="224.09"/>
	<rect x="274.311" y="200.455" fill="#149B49" width="14.828" height="224.09"/>
	<rect x="303.954" y="200.455" fill="#149B49" width="14.823" height="224.09"/>
	<rect x="333.598" y="200.455" fill="#149B49" width="14.82" height="224.09"/>
	<rect x="363.243" y="200.455" fill="#149B49" width="14.822" height="224.09"/>
	<rect x="392.874" y="200.455" fill="#149B49" width="14.833" height="224.09"/>
	<rect x="422.518" y="200.455" fill="#149B49" width="14.829" height="224.09"/>
	<rect x="452.157" y="200.455" fill="#149B49" width="14.835" height="224.09"/>
	<rect x="481.802" y="200.455" fill="#149B49" width="14.843" height="224.09"/>
	<rect x="480.321" y="200.455" fill="#FFFFFF" width="0.832" height="224.09"/>
	<rect x="200.85" y="200.455" fill="#FFFFFF" width="0.83" height="224.09"/>
	<polygon fill="#FFFFFF" points="201.075,302.058 159.531,290.003 159.91,288.008 201.456,300.059 	"/>
	<polygon fill="#FFFFFF" points="159.91,336.994 159.531,334.998 201.075,322.945 201.456,324.938 	"/>
	<rect x="181.221" y="295.604" fill="#FFFFFF" width="1.66" height="33.812"/>
	<polygon fill="#FFFFFF" points="480.931,302.058 480.549,300.059 522.089,288.008 522.47,290.003 	"/>
	<polygon fill="#FFFFFF" points="522.089,336.994 480.549,324.938 480.931,322.945 522.47,334.998 	"/>
	<rect x="499.118" y="295.604" fill="#FFFFFF" width="1.664" height="33.812"/>
	<rect x="340.583" y="212.834" fill="#FFFFFF" width="0.832" height="198.023"/>
	<rect x="379.319" y="212.834" fill="#FFFFFF" width="0.824" height="198.023"/>
	<rect x="428.865" y="212.834" fill="#FFFFFF" width="0.829" height="198.023"/>
	<rect x="301.855" y="212.834" fill="#FFFFFF" width="0.83" height="198.023"/>
	<rect x="252.307" y="212.834" fill="#FFFFFF" width="0.83" height="198.023"/>
</g>
</svg>
