<svg>
<g id="AREAS">
	<polygon id="GA-GA01" fill="#FFCB05" points="M481.898,483.499l-6.217-3.235l47.404-91.101c0.804-1.923,4.511-7.785,19.915-8.545
		l0.065-0.003c0.247-0.016,2.997-0.211,6.349-1.839c4.612-2.24,8.188-6.04,10.629-11.295c5.573-12.001,4.905-23.95-1.835-32.782
		c-0.961-1.259-1.967-2.468-3.031-3.749c-6.677-8.034-14.247-17.139-7.919-37.059l8.252-25.756l0.042-0.078
		c0.103-0.295,0.696-2.177,0.331-5.402c-0.378-3.329-1.876-8.776-6.858-15.854c-0.992-1.273-9.103-12.278-10.586-33.031v-0.015
		l-4.211-62.657c-0.007-0.126-0.773-12.882-4.559-25.421l-0.037-0.124l-10.671-47.896c-0.013-0.057-1.465-6.313-5.803-12.805
		c-5.626-8.419-13.294-13.316-22.788-14.555l0.906-6.95c11.514,1.502,21.146,7.669,27.857,17.833
		c4.985,7.553,6.602,14.655,6.668,14.954l10.613,47.642c3.963,13.193,4.764,26.124,4.809,26.906l4.205,62.588
		c0.721,10.076,3.166,17.489,5.092,21.933c2.037,4.706,3.938,7.171,4.043,7.305l0.077,0.094l0.056,0.083
		c4.934,6.984,7.7,13.696,8.226,19.952c0.369,4.4-0.514,7.141-0.862,8.023l-8.125,25.361c-5.165,16.259,0.301,22.835,6.633,30.45
		c1.063,1.279,2.162,2.602,3.211,3.977c4.012,5.257,6.396,11.644,6.893,18.469c0.515,7.064-0.923,14.304-4.272,21.517
		c-3.992,8.597-9.977,12.807-14.294,14.824c-4.528,2.115-8.183,2.338-8.784,2.361c-10.937,0.544-13.468,3.813-13.771,4.273
		l-0.024,0.078l-0.137,0.262L481.898,483.499z M476.328,491.592l-6.218-3.231l-53.038,102.051l6.219,3.231L476.328,491.592z
		 M396.389,200.806l-65.962-57.051l-0.049-0.042c-0.466-0.388-4.646-3.758-9.467-3.897c-0.983-0.082-3.897-0.1-6.481,2.127
		c-2.593,2.235-3.908,5.86-3.908,10.773v6.32l0.021,0.193c0.012,0.095,0.98,9.563-5.342,16.627
		c-4.684,5.231-12.269,7.884-22.547,7.884l-0.139,0.002c-0.068,0.002-6.791,0.235-13.792-2.452
		c-8.919-3.424-13.93-9.91-14.893-19.281c-0.021-0.756-0.114-7.009,2.401-11.893l-6.229-3.209
		c-3.546,6.883-3.187,15.164-3.169,15.513l0.013,0.175c1.203,12.109,7.899,20.836,19.367,25.238
		c7.986,3.066,15.588,2.942,16.5,2.916c12.328-0.011,21.65-3.449,27.709-10.218c7.875-8.798,7.261-20.076,7.109-21.852v-5.962
		c0-2.603,0.516-4.576,1.416-5.413c0.498-0.463,1.07-0.51,1.279-0.51l0,0l0.068,0.021l0.359,0.005
		c2.02,0.028,4.483,1.667,5.226,2.268l65.923,57.019L396.389,200.806z M458.696,254.389l-56.321-48.578l-4.577,5.307l56.321,48.578
		L458.696,254.389z M390.521,330.587c7.38-3.318,11.917-7.035,12.485-7.513l27.188-21.751l-4.378-5.472l-27.227,21.781l-0.085,0.071
		c-0.042,0.035-4.191,3.53-11.076,6.59c-9.103,4.047-18.446,5.472-27.763,4.236l-22.029-2.97l-0.937,6.945l22.036,2.971
		c2.412,0.32,4.844,0.479,7.286,0.479C374.277,335.953,382.627,334.136,390.521,330.587z M303.502,341.392
		c6.289-7.296,12.717-8.103,12.988-8.133l-0.033,0.003l-0.654-6.978c-0.381,0.035-9.426,0.985-17.68,10.614l-0.059,0.068
		l-26.786,34.723l5.549,4.281L303.502,341.392z M218.757,453.064l-5.738-4.023L199.653,468.1l5.738,4.024L218.757,453.064z
		 M326.957,615.848c-3.083-9.143-8.471-19.249-16.012-30.033c-5.586-7.99-10.229-13.27-10.423-13.491l-38.14-42.35l-5.208,4.69
		l38.103,42.307c0.515,0.589,18.244,20.964,25.039,41.115L326.957,615.848z M473.885,46.659l-0.633-6.979l-60.27,5.466l0.633,6.979
		L473.885,46.659z"/>
	
		<rect id="ABY-ABY1" x="266.945" y="346.786" transform="matrix(-0.6528 0.7575 -0.7575 -0.6528 719.4954 375.8292)" fill="#00B0D8" width="13.356" height="12.016"/>
	
		<rect id="ABY-ABY2" x="276.969" y="335.153" transform="matrix(-0.6528 0.7576 -0.7576 -0.6528 727.2524 348.9862)" fill="#00B0D8" width="13.356" height="12.017"/>
	
		<rect id="ABY-ABY3" x="286.993" y="323.52" transform="matrix(-0.6528 0.7575 -0.7575 -0.6528 735.0075 322.1884)" fill="#00B0D8" width="13.356" height="12.016"/>
	
		<rect id="BKT-BKS4" x="572.398" y="334.352" transform="matrix(-0.9895 0.1445 -0.1445 -0.9895 1200.1372 596.6994)" fill="#00B0D8" width="12.017" height="15.134"/>
	
		<rect id="BKT-BKS3" x="569.923" y="317.397" transform="matrix(-0.9895 0.1444 -0.1444 -0.9895 1192.7542 563.3503)" fill="#00B0D8" width="12.017" height="15.134"/>
	
		<rect id="BKT-BKS2" x="567.447" y="300.443" transform="matrix(-0.9895 0.1445 -0.1445 -0.9895 1185.3958 529.9348)" fill="#00B0D8" width="12.018" height="15.135"/>
	
		<rect id="BKT-BKS1" x="564.973" y="283.488" transform="matrix(-0.9895 0.1445 -0.1445 -0.9895 1178.0253 496.5535)" fill="#00B0D8" width="12.017" height="15.134"/>
	<polygon id="CCN-CC1" fill="#00B0D8" points="M189.224,508.67c-0.861-2.643-1.432-5.426-1.768-8.621l11.973-1.05
		c0.233,2.114,0.596,3.942,1.12,5.63L189.224,508.67z"/>
	<polygon id="CCN-CC2" fill="#00B0D8" points="M194.022,518.381c-1.749-2.63-3.106-5.206-4.126-7.827l11.324-4.04
		c0.667,1.651,1.538,3.282,2.681,5.021L194.022,518.381z"/>
	<polygon id="CCN-CC4" fill="#00B0D8" points="M206.807,533.259c-1.996-2.011-3.727-3.82-5.254-5.49l8.932-8.04
		c1.39,1.52,2.979,3.179,4.819,5.033L206.807,533.259z"/>
	
		<rect id="COC-COPC" x="534.259" y="52.507" transform="matrix(-0.9681 0.2504 -0.2504 -0.9681 1079.0056 -12.0149)" fill="#00B0D8" width="12.017" height="20.241"/>
	
		<rect id="COB-COPB" x="520.523" y="30.168" transform="matrix(-0.6767 0.7363 -0.7363 -0.6767 911.1532 -323.1423)" fill="#00B0D8" width="12.016" height="16.656"/>
	
		<rect id="COA-COPA" x="494.432" y="18.518" transform="matrix(-0.0147 0.9999 -0.9999 -0.0147 537.9406 -469.8001)" fill="#00B0D8" width="12.016" height="23.249"/>
	
		<rect id="FAC-FCV3" x="389.364" y="294.556" transform="matrix(-0.9584 0.2855 -0.2855 -0.9584 864.1995 475.1508)" fill="#00B0D8" width="16.208" height="12.016"/>
	
		<rect id="FAC-FCV2" x="371.914" y="299.753" transform="matrix(-0.9584 0.2855 -0.2855 -0.9584 831.5038 490.3242)" fill="#00B0D8" width="16.208" height="12.016"/>
	
		<rect id="FAC-FCV1" x="354.465" y="304.951" transform="matrix(-0.9584 0.2855 -0.2855 -0.9584 798.8251 505.4647)" fill="#00B0D8" width="16.207" height="12.017"/>
	
		<rect id="IPS-IP4B" x="245.008" y="378.591" transform="matrix(-0.6065 0.7951 -0.7951 -0.6065 707.5388 419.0329)" fill="#00B0D8" width="10.141" height="12.017"/>
	
		<rect id="IPS-IP4A" x="237.645" y="388.243" transform="matrix(-0.6065 0.7951 -0.7951 -0.6065 703.3839 440.3939)" fill="#00B0D8" width="10.141" height="12.017"/>
	
		<rect id="IPS-IP3B" x="230.281" y="397.896" transform="matrix(-0.6065 0.7951 -0.7951 -0.6065 699.2331 461.7293)" fill="#00B0D8" width="10.141" height="12.017"/>
	
		<rect id="IPS-IP3A" x="222.917" y="407.55" transform="matrix(-0.6064 0.7951 -0.7951 -0.6064 695.0841 483.0652)" fill="#00B0D8" width="10.142" height="12.017"/>
	
		<rect id="IPS-IP2" x="215.555" y="417.203" transform="matrix(-0.6065 0.7951 -0.7951 -0.6065 690.9235 504.463)" fill="#00B0D8" width="10.14" height="12.016"/>
	
		<rect id="IPS-IP1" x="208.191" y="426.855" transform="matrix(-0.6065 0.7951 -0.7951 -0.6065 686.7611 525.8605)" fill="#00B0D8" width="10.141" height="12.016"/>
	
		<polygon id="LUF-LU2" fill="#00B0D8" points="241.723,124.258 253.176,100.102 258.605,102.676 264.034,105.25 252.582,129.406"/>
	
		<rect x="281.049" y="511.609" transform="matrix(-0.7439 0.6683 -0.6683 -0.7439 847.2332 712.6838)" fill="#333333" width="12.016" height="14.147"/>
	
		<rect x="291.84" y="523.621" transform="matrix(-0.7438 0.6683 -0.6683 -0.7438 874.091 726.3833)" fill="#333333" width="12.017" height="14.147"/>
	
		<rect id="SSS-SIL" x="501.652" y="221.936" transform="matrix(-0.3572 0.934 -0.934 -0.3572 901.6552 -165.1577)" fill="#00B0D8" width="12.017" height="11.513"/>
	
		<rect id="STA-STA2" x="377.638" y="641.291" transform="matrix(-0.6726 0.74 -0.74 -0.6726 1120.5061 798.8692)" fill="#00B0D8" width="11.798" height="12.017"/>
	
		<rect id="STA-STA1" x="386.919" y="631.08" transform="matrix(-0.6727 0.74 -0.74 -0.6727 1128.4666 774.9669)" fill="#00B0D8" width="11.799" height="12.017"/>
	
		<rect id="STB-STB1" x="354.631" y="644.87" transform="matrix(-0.0484 0.9988 -0.9988 -0.0484 1032.7043 326.8679)" fill="#00B0D8" width="12.016" height="21.044"/>
	
		<rect id="STC-STC1" x="328.91" y="634.825" transform="matrix(-0.5724 0.82 -0.82 -0.5724 1056.183 740.8915)" fill="#00B0D8" width="12.017" height="21.998"/>
	
		<rect id="VAL-VA3" x="245.664" y="556.927" transform="matrix(-0.6644 0.7474 -0.7474 -0.6644 840.5008 750.8176)" fill="#00B0D8" width="12.017" height="14.392"/>
	
		<rect id="VAL-VA2" x="257.916" y="567.817" transform="matrix(-0.6644 0.7474 -0.7474 -0.6644 869.0212 759.8181)" fill="#00B0D8" width="12.016" height="14.391"/>
	
		<rect id="VAL-VA1" x="270.168" y="578.707" transform="matrix(-0.6644 0.7474 -0.7474 -0.6644 897.5686 768.7364)" fill="#00B0D8" width="12.017" height="14.393"/>
	
		<rect id="VIA-VLA2" x="419.93" y="278.591" transform="matrix(-0.7694 0.6388 -0.6388 -0.7694 934.3554 231.8642)" fill="#00B0D8" width="10.785" height="12.017"/>
	
		<rect id="VIA-VLA1" x="410.09" y="286.759" transform="matrix(-0.7694 0.6387 -0.6387 -0.7694 922.1685 252.6416)" fill="#00B0D8" width="10.787" height="12.016"/>
	
		<rect id="VIB-VLB2" x="443.1" y="259.656" transform="matrix(-0.7746 0.6324 -0.6324 -0.7746 962.9881 188.1366)" fill="#00B0D8" width="9.74" height="12.017"/>
	
		<rect id="VIB-VLB1" x="434.002" y="267.082" transform="matrix(-0.7747 0.6323 -0.6323 -0.7747 951.5513 207.1447)" fill="#00B0D8" width="9.743" height="12.016"/>
	
		<rect x="391.065" y="162.221" transform="matrix(-0.6592 0.752 -0.752 -0.6592 782.3241 -26.0857)" fill="#333333" width="12.016" height="4.032"/>
	
		<rect id="WOA-WDA2" x="273.224" y="65.15" transform="matrix(-0.5311 0.8473 -0.8473 -0.5311 488.3422 -127.916)" fill="#00B0D8" width="12.679" height="12.016"/>
	
		<rect id="WOA-WDA1" x="265.427" y="77.587" transform="matrix(-0.5311 0.8473 -0.8473 -0.5311 486.9425 -102.2664)" fill="#00B0D8" width="12.679" height="12.017"/>
	
		<rect id="WOB-WDB2" x="299.107" y="41.277" transform="matrix(-0.7907 0.6122 -0.6122 -0.7907 575.8094 -102.2703)" fill="#00B0D8" width="12.556" height="12.016"/>
	
		<rect id="WOB-WDB1" x="287.598" y="50.188" transform="matrix(-0.7907 0.6122 -0.6122 -0.7907 560.6505 -79.2744)" fill="#00B0D8" width="12.556" height="12.016"/>
	
		<rect x="454.123" y="460.18" transform="matrix(-0.4675 0.884 -0.884 -0.4675 1080.6833 281.4081)" fill="#333333" width="2.926" height="12.015"/>
	
		<rect id="CLA-CLBA" x="214.663" y="531.515" transform="matrix(-0.6626 0.749 -0.749 -0.6626 769.0581 727.4639)" fill="#00B0D8" width="12.016" height="10.887"/>
	
		<rect id="SRC-SRC" x="258.601" y="89.508" transform="matrix(-0.5495 0.8355 -0.8355 -0.5495 487.9545 -72.0703)" fill="#00B0D8" width="9.613" height="12.017"/>
	
		<rect id="NPS-NPS2" x="370.016" y="30.185" transform="matrix(-0.9951 0.0991 -0.0991 -0.9951 767.1638 34.2958)" fill="#00B0D8" width="25.43" height="12.017"/>
	
		<rect id="NPS-NPS1" x="342.721" y="32.902" transform="matrix(-0.9951 0.099 -0.099 -0.9951 712.9773 42.4253)" fill="#00B0D8" width="25.429" height="12.016"/>
	<polygon id="CCN-CC3" fill="#00B0D8" points="M200.215,526.282c-1.983-2.241-3.647-4.303-5.054-6.258l9.879-6.845
		c1.131,1.558,2.485,3.228,4.107,5.063L200.215,526.282z"/>
	
		<rect id="NPD-NPSD" x="331.72" y="44.755" transform="matrix(0.0981 0.9952 -0.9952 0.0981 352.8351 -286.0372)" fill="#F287B7" width="5" height="13.76"/>
	
		<rect id="IPD-IPDS" x="225.15" y="408.687" transform="matrix(-0.5988 0.8009 -0.8009 -0.5988 725.2224 459.084)" fill="#F287B7" width="44.945" height="5.008"/>
	<polygon id="COE-COPE" fill="#F287B7" points="M524.199,64.973c-2.281-4.246-9.808-16.817-20.396-19.962l1.16-4.878
		c12.492,3.547,20.821,17.154,23.702,22.567L524.199,64.973z"/>
	<polygon id="LUD-LUD2" fill="#F287B7" points="M264.292,176.687c-4.915-3.53-7.856-8.534-8.564-14.567l4.999-0.378
		c0.574,4.481,2.695,8.092,6.317,10.755L264.292,176.687z"/>
	<polygon id="LUD-LUD1" fill="#F287B7" points="M281.851,181.987c-5.887-0.075-11.471-1.555-15.887-4.202l2.752-4.191
		c3.568,2.082,8.243,3.296,13.063,3.383L281.851,181.987z"/>
	<polygon id="LUT-LUDA" fill="#F287B7" points="M283.779,176.948c5.058-0.234,9.64-1.688,12.396-3.922l3.544,3.562
		c-3.629,3.137-9.423,5.102-15.869,5.37L283.779,176.948z"/>
	
		<rect id="CAD-CLD2" x="229.679" y="543.948" transform="matrix(-0.677 0.7359 -0.7359 -0.677 791.2787 744.9664)" fill="#F287B7" width="5.008" height="4.306"/>
	
		<rect id="CAD-CLD1" x="234.32" y="548.219" transform="matrix(-0.677 0.7359 -0.7359 -0.677 802.2046 748.7118)" fill="#F287B7" width="5.008" height="4.306"/>
			
		<polygon id="LUF-LU1B" fill="#00B0D8" points="244.308,148.134 251.912,130.825 246.409,128.409 240.909,125.992 233.304,143.301"/>
	<polygon id="LUF-LU1A" fill="#00B0D8" points="243.505,149.964 232.501,145.133 224.898,162.442 230.4,164.858 235.901,167.274"/>	
	
		<rect id="WOD-WDBD" x="312.239" y="51.556" transform="matrix(0.6049 0.7963 -0.7963 0.6049 168.5918 -228.6794)" fill="#F287B7" width="5" height="7.992"/>
</g>
<g id="EXTRAS">
	<g>
		<polygon fill="#333333" points="459.374,475.271 460.71,472.606 470.369,477.46 469.027,480.122"/>
	</g>
	<g>
		
			<rect x="460.378" y="476.918" transform="matrix(-0.4473 0.8944 -0.8944 -0.4473 1099.8556 285.0136)" fill="#333333" width="2.98" height="10.815"/>
	</g>
	<g>
		
			<rect x="402.804" y="187.446" transform="matrix(-0.6608 0.7506 -0.7506 -0.6608 819.7615 7.4005)" fill="#333333" width="10.809" height="2.98"/>
	</g>
	<g>
		
			<rect x="407.807" y="191.86" transform="matrix(-0.6595 0.7517 -0.7517 -0.6595 831.0757 10.2637)" fill="#333333" width="10.814" height="2.98"/>
	</g>
	<g>
		<polygon fill="none" stroke="#333333" stroke-width="2" points="M552.876,338.922c-1.749-4.774-4.317-8.758-6.451-11.581
			c-1.855-2.452-3.388-4.026-3.804-4.443c-2.876-3.463-4.644-6.868-5.712-10.052c-1.075-3.211-1.436-6.205-1.436-8.785
			c-0.001-2.629,0.376-4.827,0.747-6.342c0.184-0.758,0.366-1.345,0.498-1.729c0.065-0.192,0.117-0.333,0.15-0.42
			c0.018-0.043,0.028-0.073,0.035-0.089c0.003-0.006,0.004-0.01,0.005-0.011c0-0.001,0-0.001,0-0.001l0,0l0.069-0.182l9.379-27.891
			c0.002-0.004,0.004-0.009,0.005-0.014c0.53-1.351,0.894-2.703,1.122-4.035c0.208-1.218,0.303-2.42,0.303-3.59
			c-0.009-5.209-1.801-9.769-3.536-13.053c-0.054-0.102-0.108-0.203-0.163-0.303c0-0.002-0.002-0.004-0.003-0.006
			c-0.051-0.094-0.102-0.187-0.152-0.278c-0.007-0.013-0.015-0.027-0.022-0.04c-0.045-0.082-0.091-0.163-0.136-0.242
			c-0.009-0.015-0.017-0.03-0.024-0.044c-0.046-0.08-0.091-0.159-0.136-0.237c-0.007-0.012-0.014-0.024-0.021-0.035
			c-0.21-0.363-0.417-0.706-0.617-1.027c-0.004-0.006-0.009-0.012-0.012-0.019c-0.047-0.073-0.092-0.145-0.136-0.216
			c-0.007-0.009-0.012-0.017-0.018-0.025c-0.044-0.071-0.089-0.14-0.133-0.207c-0.004-0.007-0.008-0.014-0.013-0.021
			c-0.242-0.375-0.473-0.716-0.684-1.019c-0.002-0.003-0.004-0.006-0.006-0.009c-0.041-0.058-0.082-0.115-0.12-0.171
			c-0.002-0.001-0.003-0.003-0.004-0.005c-0.476-0.669-0.841-1.132-1.024-1.357c-9.286-14.562-9.402-25.011-9.407-25.621v-0.029l0,0
			l-0.005-0.194l-3.217-55.424c-0.254-6.2-1.066-13.353-1.813-18.991c-0.747-5.641-1.432-9.75-1.436-9.769l-0.058-0.263
			L510.784,79.92l-0.013-0.047c-2.093-7.081-5.192-12.542-8.728-16.692c-5.308-6.234-11.545-9.473-16.639-11.126
			c-5.1-1.656-9.082-1.765-10.115-1.766c-0.146,0-0.233,0.002-0.26,0.003l-0.179,0.012L356.789,62.185l-0.033,0.003
			c-19.691,2.247-31.289,5.243-39.505,9.181c-4.101,1.966-7.324,4.173-10.174,6.543c-2.852,2.372-5.327,4.884-8.028,7.523
			c-11.143,10.89-15.504,19.551-15.607,19.754l-0.026,0.054l-18.538,39.3c-2.109,4.002-2.731,7.814-2.729,10.833
			c0.004,4.052,1.081,6.702,1.167,6.917l0.007,0.017c1.265,3.002,3.004,5.34,4.907,7.097c2.858,2.643,6.032,3.977,8.561,4.658
			c2.535,0.681,4.454,0.723,4.955,0.724h0.038c0.253,0.006,0.505,0.01,0.755,0.01c4.59,0.006,8.349-1.166,11.258-2.985
			c2.185-1.36,3.884-3.06,5.19-4.809c1.958-2.628,3.049-5.365,3.675-7.458c0.621-2.095,0.775-3.558,0.789-3.679l0.008-0.098
			l1.236-19.53c0.161-2.002,0.675-3.571,1.339-4.848c0.999-1.913,2.374-3.186,3.511-3.984c0.565-0.398,1.065-0.671,1.406-0.838
			c0.169-0.083,0.299-0.14,0.375-0.172c0.039-0.016,0.064-0.026,0.074-0.03c0.006-0.002,0.006-0.002,0.006-0.002l0,0l0.096-0.037
			c3.59-1.467,6.9-2.009,9.896-2.011c4.768-0.001,8.773,1.396,11.587,2.807c1.405,0.704,2.507,1.407,3.241,1.923
			c0.367,0.257,0.643,0.468,0.818,0.607c0.088,0.07,0.151,0.122,0.189,0.153c0.017,0.014,0.028,0.024,0.034,0.029l69.253,60.994
			l3.427-3.907L340.7,125.935c-0.126-0.108-2.045-1.78-5.386-3.456c-3.338-1.672-8.124-3.356-13.916-3.358
			c-3.626-0.001-7.637,0.669-11.846,2.391c-0.496,0.19-2.541,1.03-4.727,3.04c-1.191,1.099-2.419,2.557-3.4,4.435
			c-0.98,1.876-1.703,4.169-1.914,6.861l-0.004,0.041l-1.233,19.511c-0.063,0.52-0.614,4.051-2.659,7.33
			c-1.099,1.773-2.596,3.469-4.664,4.732c-2.072,1.259-4.739,2.133-8.412,2.139c-0.215,0-0.436-0.003-0.66-0.009l-0.109,0
			c0,0,0,0-0.006,0h-0.017c-0.232,0.005-2.802-0.046-5.662-1.247c-1.434-0.598-2.939-1.471-4.323-2.752
			c-1.382-1.282-2.658-2.968-3.644-5.291c-0.083-0.216-0.773-2.141-0.77-4.925c0.002-2.336,0.466-5.263,2.153-8.454l0.054-0.107
			l18.545-39.316c0.228-0.444,4.372-8.368,14.583-18.346c2.743-2.683,5.125-5.089,7.717-7.243c3.895-3.225,8.268-5.962,15.398-8.401
			c7.12-2.43,16.984-4.498,31.532-6.155l117.932-11.867c0.01,0,0.019,0,0.029,0c0.864-0.006,6.728,0.15,13.155,3.435
			c3.22,1.641,6.59,4.049,9.642,7.631c3.045,3.58,5.786,8.34,7.692,14.775l14.065,51.074c0.019,0.117,0.051,0.312,0.095,0.581
			c0.521,3.242,2.648,17.054,3.068,27.433l0.002,0.045l3.213,55.356v0.009c-0.005,1.38,0.327,12.976,10.312,28.555
			c0.012,0.017,0.023,0.036,0.036,0.054c0.006,0.009,0.013,0.018,0.019,0.026c0.047,0.068,0.101,0.138,0.149,0.196
			c0.001,0.001,0.002,0.001,0.002,0.002c0,0,0.001,0.001,0.002,0.001c0,0.001,0.001,0.001,0.002,0.002c0,0.001,0,0.001,0.002,0.002
			c0.001,0,0.001,0.001,0.001,0.001c0.003,0.004,0.008,0.009,0.013,0.016l0.001,0c0.007,0.007,0.014,0.016,0.021,0.026
			c0.001,0,0.001,0.001,0.001,0.001c0.035,0.043,0.091,0.113,0.165,0.207l0,0c0.019,0.023,0.038,0.049,0.059,0.076
			c0,0,0.001,0,0.001,0c0.021,0.027,0.042,0.055,0.064,0.084c0.001,0,0.001,0,0.001,0c0.022,0.029,0.046,0.06,0.069,0.091
			c0.002,0.002,0.004,0.005,0.006,0.007c0.022,0.03,0.047,0.063,0.071,0.096c0.002,0.003,0.004,0.006,0.006,0.009
			c0.024,0.032,0.05,0.065,0.075,0.1c0.004,0.005,0.007,0.009,0.01,0.014c0.026,0.035,0.053,0.07,0.078,0.107
			c0.004,0.005,0.008,0.009,0.011,0.014c0.027,0.037,0.055,0.075,0.083,0.114c0.004,0.005,0.008,0.01,0.012,0.016
			c0.027,0.038,0.057,0.078,0.086,0.119c0.004,0.007,0.009,0.014,0.014,0.021c0.027,0.039,0.057,0.08,0.085,0.121
			c0.007,0.009,0.014,0.019,0.02,0.027c0.028,0.041,0.057,0.082,0.085,0.123c0.008,0.012,0.016,0.022,0.023,0.034
			c0.027,0.04,0.057,0.082,0.085,0.123c0.009,0.014,0.019,0.028,0.028,0.042c0.027,0.041,0.055,0.083,0.083,0.125
			c0.011,0.016,0.021,0.03,0.031,0.045c0.028,0.042,0.058,0.085,0.086,0.128c0.011,0.017,0.022,0.034,0.033,0.05
			c0.027,0.042,0.056,0.085,0.083,0.128c0.014,0.02,0.026,0.04,0.039,0.06c0.027,0.042,0.055,0.084,0.082,0.126
			c0.015,0.022,0.027,0.044,0.043,0.066c0.026,0.042,0.054,0.084,0.08,0.127c0.016,0.025,0.031,0.049,0.048,0.074
			c0.024,0.04,0.049,0.081,0.074,0.121c0.018,0.03,0.036,0.059,0.055,0.089c0.023,0.038,0.047,0.076,0.07,0.114
			c0.021,0.033,0.04,0.066,0.061,0.1c0.021,0.035,0.042,0.071,0.064,0.107c0.022,0.039,0.046,0.076,0.069,0.115
			c0.018,0.03,0.035,0.062,0.054,0.093c0.026,0.045,0.054,0.09,0.08,0.136c0.014,0.023,0.027,0.047,0.04,0.07
			c0.032,0.054,0.063,0.108,0.095,0.165c0.007,0.011,0.015,0.023,0.021,0.035c0.172,0.301,0.346,0.617,0.518,0.947
			c0.576,1.092,1.138,2.333,1.61,3.673c0.738,2.093,1.255,4.425,1.25,6.812c-0.001,0.741-0.05,1.488-0.153,2.239
			c-0.163,1.169-0.461,2.349-0.931,3.537l-0.007,0.015l-0.041,0.113l-0.039,0.116c-0.149,0.41-0.927,2.316-2.668,4.102
			c-0.969,0.998-2.225,1.969-3.869,2.703c-1.647,0.731-3.695,1.238-6.324,1.24c-1.019,0-2.123-0.078-3.321-0.251
			c-7.64-1.108-12.116-1.907-14.647-2.419c-1.265-0.256-2.043-0.44-2.48-0.554c-0.219-0.056-0.353-0.095-0.418-0.114
			c-0.03-0.01-0.046-0.014-0.049-0.016l0,0l-0.001,0.001l-0.088-0.029l0,0c-0.027-0.008-4.501-1.409-9.938-6.319
			c-0.01-0.009-0.021-0.018-0.029-0.027c-0.394-0.363-0.807-0.723-1.242-1.078l-81.359-71.658l-3.434,3.901l81.399,71.694
			l0.078,0.067c0.001,0,0.001,0,0.002,0c0.321,0.26,0.641,0.543,0.972,0.84c2.509,2.3,3.845,4.641,4.594,6.598
			c0.837,2.192,0.906,3.908,0.905,4.38c0,0.058-0.001,0.097-0.001,0.114c-0.001,0.003-0.001,0.006-0.001,0.007l0,0
			c0,0.002,0,0.002,0,0.002l0.001,0l-0.005,0.147c0,14.279-2.663,26.078-5.319,34.285c-1.327,4.103-2.652,7.307-3.637,9.469
			c-0.492,1.081-0.898,1.902-1.179,2.444c-0.14,0.271-0.247,0.474-0.318,0.604c-0.035,0.065-0.062,0.112-0.077,0.141
			c-0.009,0.014-0.015,0.024-0.018,0.029l-0.001,0.002l-0.022,0.042c-0.009,0.018-0.019,0.035-0.027,0.052l-0.026,0.051
			c-1.283,2.605-2.53,3.727-3.355,4.249c-0.418,0.262-0.741,0.377-0.957,0.435c-0.108,0.028-0.189,0.042-0.24,0.048
			c-0.017,0.002-0.031,0.003-0.041,0.004c-0.055-0.002-0.106-0.003-0.172-0.002c-0.072,0.001-0.141,0.002-0.207,0.002
			c-1.208-0.002-2.072-0.2-2.718-0.458l-0.18-0.104c-0.982-0.619-1.528-1.265-1.841-1.729c-0.156-0.233-0.249-0.42-0.296-0.524
			c-0.019-0.04-0.029-0.068-0.035-0.082c-0.001-0.004-0.004-0.009-0.005-0.014l-0.005-0.019l-10.396-31.187
			c-0.572-1.703-1.453-3.636-3.096-5.247c-0.818-0.8-1.834-1.5-3.025-1.98c-1.191-0.482-2.547-0.739-4.016-0.738
			c-2.766-0.001-4.947,0.661-6.442,1.353c-1.385,0.64-2.194,1.297-2.429,1.501c-0.096,0.08-0.524,0.44-1.239,1.039
			c-5.708,4.779-29.612,24.733-45.943,37.499c-5.213,4.074-10.618,6.484-15.61,7.886c-4.99,1.4-9.564,1.784-13.046,1.783
			c-2.069,0-3.751-0.135-4.898-0.267c-0.573-0.065-1.014-0.13-1.302-0.178c-0.145-0.023-0.252-0.042-0.317-0.055
			c-0.033-0.006-0.056-0.01-0.068-0.013c-0.003,0-0.005-0.001-0.007-0.001c0,0,0,0,0,0c-0.002,0-0.004,0-0.004,0l-0.193-0.032
			c0,0-6.807-0.866-29.206-3.712c-2.57-0.327-4.963-0.473-7.185-0.473c-8.381-0.005-14.329,2.094-18.173,4.277
			c-3.849,2.181-5.591,4.414-5.757,4.633l-0.013,0.018l-94.791,127.709c-3.597,4.67-4.367,8.794-4.367,11.179
			c0,0.02,0,0.038,0,0.057c0,0.986,0.12,1.666,0.188,1.975c2.429,13.751,7.668,23.867,12.328,30.547
			c4.185,6.001,7.898,9.245,8.731,9.939c2.011,2.146,4.026,3.632,6.004,4.58c2.014,0.969,3.982,1.362,5.742,1.359
			c2.561-0.003,4.637-0.797,6.063-1.574c1.431-0.782,2.244-1.555,2.365-1.671l0.096-0.098l6.684-7.178
			c0.737-0.797,1.385-1.245,1.938-1.505c0.556-0.258,1.027-0.345,1.5-0.347c0.525,0,1.064,0.122,1.605,0.342
			c0.811,0.327,1.595,0.886,2.141,1.361c0.273,0.238,0.489,0.451,0.627,0.597c0.069,0.072,0.119,0.128,0.147,0.16
			c0.014,0.014,0.022,0.025,0.025,0.029h0l0.043,0.05c0.007,0.009,18.083,20.562,37.907,42.121
			c9.716,10.563,17.489,22.423,22.807,31.624c2.659,4.601,4.707,8.537,6.086,11.314c0.69,1.389,1.213,2.488,1.561,3.234
			c0.175,0.375,0.306,0.66,0.392,0.852c0.043,0.096,0.074,0.168,0.096,0.213c0.021,0.047,0.028,0.064,0.028,0.064l0.093,0.191
			c4.97,9.215,11.698,14.109,17.363,16.572c5.671,2.477,10.258,2.609,11.279,2.611c0.024,0,0.047,0,0.068,0
			c0.802,0.049,1.584,0.072,2.347,0.072c7.737,0.006,13.352-2.373,16.969-4.809c3.271-2.195,4.946-4.4,5.344-4.961
			c8.544-10.572,17.765-25.008,24.9-36.854c7.146-11.868,12.173-21.117,12.185-21.14l0.023-0.041l41.194-79.23l-4.644-2.335
			l-41.147,79.137c-0.021,0.039-0.094,0.173-0.218,0.398c-1.119,2.041-6.321,11.453-13.199,22.763
			c-6.873,11.308-15.44,24.53-23.192,34.103l-0.133,0.18h-0.001c-0.037,0.057-1.386,1.975-4.282,3.846
			c-2.905,1.873-7.331,3.738-13.799,3.744c-0.685,0-1.395-0.021-2.13-0.066l-0.222-0.004l0,0c0,0-0.003,0-0.007,0
			c-0.008,0-0.027,0-0.057,0c-0.532,0.002-4.426-0.084-9.196-2.176c-4.763-2.098-10.414-6.096-14.833-14.207
			c-0.867-1.926-12.417-27.463-31.85-48.615c-9.888-10.754-19.347-21.265-26.334-29.086c-3.493-3.91-6.368-7.149-8.369-9.408
			c-1-1.131-1.783-2.016-2.314-2.618c-0.531-0.604-0.811-0.922-0.813-0.923c-0.215-0.25-1.013-1.15-2.298-2.094
			c-0.717-0.523-1.591-1.062-2.626-1.484c-1.032-0.421-2.238-0.727-3.567-0.727c-1.189-0.002-2.469,0.255-3.708,0.84
			c-1.242,0.581-2.433,1.475-3.542,2.677l-6.604,7.093c-0.143,0.124-0.643,0.531-1.385,0.912c-0.868,0.447-2.036,0.851-3.407,0.85
			c-1.013-0.003-2.156-0.207-3.494-0.848c-1.336-0.641-2.872-1.731-4.559-3.554c-0.073-0.08-0.204-0.2-0.289-0.269l0,0
			c-0.085-0.067-3.819-3.095-8.074-9.273c-4.256-6.184-9.039-15.506-11.281-28.25l-0.035-0.16h0.001
			c-0.006-0.029-0.064-0.326-0.064-0.848c0.012-1.362,0.356-4.233,3.311-8.095l0.027-0.036L310.6,347.276
			c0.08-0.099,1.439-1.764,4.479-3.424c3.126-1.703,8.026-3.432,15.313-3.436c1.995,0,4.167,0.131,6.529,0.431
			c11.199,1.423,18.501,2.351,23.003,2.923c3.935,0.5,5.726,0.728,6.118,0.778c0.59,0.112,3.376,0.599,7.53,0.599
			c3.858,0,8.901-0.42,14.45-1.976c5.546-1.555,11.6-4.255,17.407-8.795c18.792-14.691,47.333-38.66,47.345-38.669l0.036-0.032
			h0.001c0,0,0.001-0.001,0.003-0.003c0.01-0.007,0.034-0.028,0.08-0.061c0.419-0.306,2.222-1.522,5.388-1.523
			c0.88,0,1.536,0.146,2.07,0.36c0.792,0.325,1.367,0.815,1.891,1.513c0.516,0.692,0.932,1.592,1.245,2.538l10.377,31.131
			c0.147,0.525,0.613,1.906,1.919,3.343c0.732,0.8,1.74,1.595,3.039,2.183l36.82,21.207l0.04,0.023
			c2.045,1.133,3.138,2.27,3.749,3.256c0.606,0.99,0.781,1.878,0.787,2.729c0.002,0.845-0.206,1.639-0.421,2.202
			c-0.105,0.28-0.21,0.502-0.28,0.638c-0.036,0.068-0.063,0.115-0.076,0.138c-0.006,0.012-0.009,0.016-0.009,0.016l0.001,0.001
			l-0.116,0.206l-7.409,14.818l-1.713,3.18c-0.09,0.168-0.159,0.342-0.209,0.519l-47.38,91.125l4.647,2.328l49.247-94.716
			c0.988-1.712,2.178-2.977,3.444-3.952c1.914-1.473,4.038-2.265,5.771-2.674c1.729-0.411,3.051-0.434,3.267-0.434
			c0.007,0,0.012,0.002,0.017,0.002s0.009,0,0.009,0l0,0l0,0l0,0h0.06c0.216-0.006,4.671-0.005,9.998-2.283
			c2.659-1.143,5.538-2.87,8.134-5.479c1.294-1.299,2.513-2.817,3.593-4.573l0.01-0.016c0.437-0.709,0.847-1.459,1.233-2.248
			c0.572-1.169,1.089-2.424,1.531-3.774c0.889-2.707,1.269-5.396,1.269-7.983C554.836,345.647,554.039,342.104,552.876,338.922z
			 M522.108,371.859c-0.049,0.018-0.1,0.037-0.149,0.056l1.965-3.93c0.062-0.104,0.149-0.262,0.25-0.464
			c0.361,0.366,0.719,0.697,1.063,0.994c1.264,1.088,2.375,1.744,3.01,2.076C527.047,370.655,524.763,370.903,522.108,371.859z
			 M548.629,355.774c-0.154,0.471-0.318,0.926-0.491,1.366c-0.003,0.008-0.007,0.016-0.01,0.023
			c-0.083,0.208-0.166,0.413-0.251,0.615c-0.021,0.047-0.042,0.093-0.063,0.14c-0.068,0.159-0.139,0.317-0.21,0.473
			c-0.036,0.078-0.072,0.153-0.109,0.229c-0.057,0.121-0.114,0.242-0.172,0.361c-0.048,0.096-0.097,0.189-0.146,0.285
			c-0.049,0.095-0.097,0.19-0.146,0.284c-0.056,0.104-0.111,0.205-0.168,0.307c-0.045,0.082-0.089,0.164-0.136,0.244
			c-0.058,0.102-0.116,0.2-0.175,0.299c-0.039,0.065-0.078,0.132-0.117,0.197c-0.309,0.393-1.617,1.983-3.518,3.478
			c-1.057,0.833-2.291,1.634-3.606,2.208c-1.318,0.576-2.704,0.925-4.126,0.925c-1.317-0.003-2.684-0.286-4.189-1.054l-0.143-0.066
			v-0.001c0,0-0.011-0.005-0.041-0.02c-0.228-0.107-1.325-0.672-2.546-1.814c-1.226-1.145-2.571-2.838-3.424-5.299
			c-0.021-0.063-0.048-0.123-0.075-0.185c-0.231-0.619-0.531-1.243-0.912-1.858c-1.15-1.864-2.992-3.602-5.642-5.065l-20.871-12.021
			c-0.028-0.02-0.056-0.041-0.085-0.059c-2.325-1.425-3.554-2.834-4.243-4.05c-0.684-1.219-0.856-2.291-0.861-3.172
			c-0.001-0.604,0.091-1.109,0.176-1.439c0.032-0.127,0.063-0.228,0.087-0.297c0.396-0.683,0.775-1.445,1.129-2.294
			c1.042-1.898,11.12-20.878,11.146-49.328c0.004-0.079,0.007-0.193,0.007-0.342c-0.001-0.713-0.073-2.221-0.588-4.18
			c1.021,0.456,1.693,0.678,1.889,0.74c0.313,0.104,1.182,0.363,3.559,0.846c2.668,0.54,7.227,1.351,14.932,2.469
			c1.432,0.208,2.786,0.305,4.068,0.305c3.414,0.002,6.305-0.7,8.663-1.792c0.142-0.065,0.278-0.134,0.415-0.202l-5.559,16.532
			c-0.299,0.747-1.796,4.732-1.801,10.502c0,3.063,0.43,6.629,1.705,10.436c1.274,3.806,3.397,7.844,6.729,11.826
			c0.069,0.083,0.107,0.125,0.186,0.199l-0.001,0c0.081,0.076,2.839,2.798,5.518,7.022c1.341,2.111,2.658,4.594,3.63,7.29
			c0.974,2.697,1.598,5.599,1.598,8.577C549.639,351.495,549.337,353.617,548.629,355.774z"/>
		<polygon fill="#999999" points="M552.876,338.922c-1.749-4.774-4.317-8.758-6.451-11.581c-1.855-2.452-3.388-4.026-3.804-4.443
			c-2.876-3.463-4.644-6.868-5.712-10.052c-1.075-3.211-1.436-6.205-1.436-8.785c-0.001-2.629,0.376-4.827,0.747-6.342
			c0.184-0.758,0.366-1.345,0.498-1.729c0.065-0.192,0.117-0.333,0.15-0.42c0.018-0.043,0.028-0.073,0.035-0.089
			c0.003-0.006,0.004-0.01,0.005-0.011c0-0.001,0-0.001,0-0.001l0,0l0.069-0.182l9.379-27.891c0.002-0.004,0.004-0.009,0.005-0.014
			c0.53-1.351,0.894-2.703,1.122-4.035c0.208-1.218,0.303-2.42,0.303-3.59c-0.009-5.209-1.801-9.769-3.536-13.053
			c-0.054-0.102-0.108-0.203-0.163-0.303c0-0.002-0.002-0.004-0.003-0.006c-0.051-0.094-0.102-0.187-0.152-0.278
			c-0.007-0.013-0.015-0.027-0.022-0.04c-0.045-0.082-0.091-0.163-0.136-0.242c-0.009-0.015-0.017-0.03-0.024-0.044
			c-0.046-0.08-0.091-0.159-0.136-0.237c-0.007-0.012-0.014-0.024-0.021-0.035c-0.21-0.363-0.417-0.706-0.617-1.027
			c-0.004-0.006-0.009-0.012-0.012-0.019c-0.047-0.073-0.092-0.145-0.136-0.216c-0.007-0.009-0.012-0.017-0.018-0.025
			c-0.044-0.071-0.089-0.14-0.133-0.207c-0.004-0.007-0.008-0.014-0.013-0.021c-0.242-0.375-0.473-0.716-0.684-1.019
			c-0.002-0.003-0.004-0.006-0.006-0.009c-0.041-0.058-0.082-0.115-0.12-0.171c-0.002-0.001-0.003-0.003-0.004-0.005
			c-0.476-0.669-0.841-1.132-1.024-1.357c-9.286-14.562-9.402-25.011-9.407-25.621v-0.029l0,0l-0.005-0.194l-3.217-55.424
			c-0.254-6.2-1.066-13.353-1.813-18.991c-0.747-5.641-1.432-9.75-1.436-9.769l-0.058-0.263L510.784,79.92l-0.013-0.047
			c-2.093-7.081-5.192-12.542-8.728-16.692c-5.308-6.234-11.545-9.473-16.639-11.126c-5.1-1.656-9.082-1.765-10.115-1.766
			c-0.146,0-0.233,0.002-0.26,0.003l-0.179,0.012L356.789,62.185l-0.033,0.003c-19.691,2.247-31.289,5.243-39.505,9.181
			c-4.101,1.966-7.324,4.173-10.174,6.543c-2.852,2.372-5.327,4.884-8.028,7.523c-11.143,10.89-15.504,19.551-15.607,19.754
			l-0.026,0.054l-18.538,39.3c-2.109,4.002-2.731,7.814-2.729,10.833c0.004,4.052,1.081,6.702,1.167,6.917l0.007,0.017
			c1.265,3.002,3.004,5.34,4.907,7.097c2.858,2.643,6.032,3.977,8.561,4.658c2.535,0.681,4.454,0.723,4.955,0.724h0.038
			c0.253,0.006,0.505,0.01,0.755,0.01c4.59,0.006,8.349-1.166,11.258-2.985c2.185-1.36,3.884-3.06,5.19-4.809
			c1.958-2.628,3.049-5.365,3.675-7.458c0.621-2.095,0.775-3.558,0.789-3.679l0.008-0.098l1.236-19.53
			c0.161-2.002,0.675-3.571,1.339-4.848c0.999-1.913,2.374-3.186,3.511-3.984c0.565-0.398,1.065-0.671,1.406-0.838
			c0.169-0.083,0.299-0.14,0.375-0.172c0.039-0.016,0.064-0.026,0.074-0.03c0.006-0.002,0.006-0.002,0.006-0.002l0,0l0.096-0.037
			c3.59-1.467,6.9-2.009,9.896-2.011c4.768-0.001,8.773,1.396,11.587,2.807c1.405,0.704,2.507,1.407,3.241,1.923
			c0.367,0.257,0.643,0.468,0.818,0.607c0.088,0.07,0.151,0.122,0.189,0.153c0.017,0.014,0.028,0.024,0.034,0.029l69.253,60.994
			l3.427-3.907L340.7,125.935c-0.126-0.108-2.045-1.78-5.386-3.456c-3.338-1.672-8.124-3.356-13.916-3.358
			c-3.626-0.001-7.637,0.669-11.846,2.391c-0.496,0.19-2.541,1.03-4.727,3.04c-1.191,1.099-2.419,2.557-3.4,4.435
			c-0.98,1.876-1.703,4.169-1.914,6.861l-0.004,0.041l-1.233,19.511c-0.063,0.52-0.614,4.051-2.659,7.33
			c-1.099,1.773-2.596,3.469-4.664,4.732c-2.072,1.259-4.739,2.133-8.412,2.139c-0.215,0-0.436-0.003-0.66-0.009l-0.109,0
			c0,0,0,0-0.006,0h-0.017c-0.232,0.005-2.802-0.046-5.662-1.247c-1.434-0.598-2.939-1.471-4.323-2.752
			c-1.382-1.282-2.658-2.968-3.644-5.291c-0.083-0.216-0.773-2.141-0.77-4.925c0.002-2.336,0.466-5.263,2.153-8.454l0.054-0.107
			l18.545-39.316c0.228-0.444,4.372-8.368,14.583-18.346c2.743-2.683,5.125-5.089,7.717-7.243c3.895-3.225,8.268-5.962,15.398-8.401
			c7.12-2.43,16.984-4.498,31.532-6.155l117.932-11.867c0.01,0,0.019,0,0.029,0c0.864-0.006,6.728,0.15,13.155,3.435
			c3.22,1.641,6.59,4.049,9.642,7.631c3.045,3.58,5.786,8.34,7.692,14.775l14.065,51.074c0.019,0.117,0.051,0.312,0.095,0.581
			c0.521,3.242,2.648,17.054,3.068,27.433l0.002,0.045l3.213,55.356v0.009c-0.005,1.38,0.327,12.976,10.312,28.555
			c0.012,0.017,0.023,0.036,0.036,0.054c0.006,0.009,0.013,0.018,0.019,0.026c0.047,0.068,0.101,0.138,0.149,0.196
			c0.001,0.001,0.002,0.001,0.002,0.002c0,0,0.001,0.001,0.002,0.001c0,0.001,0.001,0.001,0.002,0.002c0,0.001,0,0.001,0.002,0.002
			c0.001,0,0.001,0.001,0.001,0.001c0.003,0.004,0.008,0.009,0.013,0.016l0.001,0c0.007,0.007,0.014,0.016,0.021,0.026
			c0.001,0,0.001,0.001,0.001,0.001c0.035,0.043,0.091,0.113,0.165,0.207l0,0c0.019,0.023,0.038,0.049,0.059,0.076
			c0,0,0.001,0,0.001,0c0.021,0.027,0.042,0.055,0.064,0.084c0.001,0,0.001,0,0.001,0c0.022,0.029,0.046,0.06,0.069,0.091
			c0.002,0.002,0.004,0.005,0.006,0.007c0.022,0.03,0.047,0.063,0.071,0.096c0.002,0.003,0.004,0.006,0.006,0.009
			c0.024,0.032,0.05,0.065,0.075,0.1c0.004,0.005,0.007,0.009,0.01,0.014c0.026,0.035,0.053,0.07,0.078,0.107
			c0.004,0.005,0.008,0.009,0.011,0.014c0.027,0.037,0.055,0.075,0.083,0.114c0.004,0.005,0.008,0.01,0.012,0.016
			c0.027,0.038,0.057,0.078,0.086,0.119c0.004,0.007,0.009,0.014,0.014,0.021c0.027,0.039,0.057,0.08,0.085,0.121
			c0.007,0.009,0.014,0.019,0.02,0.027c0.028,0.041,0.057,0.082,0.085,0.123c0.008,0.012,0.016,0.022,0.023,0.034
			c0.027,0.04,0.057,0.082,0.085,0.123c0.009,0.014,0.019,0.028,0.028,0.042c0.027,0.041,0.055,0.083,0.083,0.125
			c0.011,0.016,0.021,0.03,0.031,0.045c0.028,0.042,0.058,0.085,0.086,0.128c0.011,0.017,0.022,0.034,0.033,0.05
			c0.027,0.042,0.056,0.085,0.083,0.128c0.014,0.02,0.026,0.04,0.039,0.06c0.027,0.042,0.055,0.084,0.082,0.126
			c0.015,0.022,0.027,0.044,0.043,0.066c0.026,0.042,0.054,0.084,0.08,0.127c0.016,0.025,0.031,0.049,0.048,0.074
			c0.024,0.04,0.049,0.081,0.074,0.121c0.018,0.03,0.036,0.059,0.055,0.089c0.023,0.038,0.047,0.076,0.07,0.114
			c0.021,0.033,0.04,0.066,0.061,0.1c0.021,0.035,0.042,0.071,0.064,0.107c0.022,0.039,0.046,0.076,0.069,0.115
			c0.018,0.03,0.035,0.062,0.054,0.093c0.026,0.045,0.054,0.09,0.08,0.136c0.014,0.023,0.027,0.047,0.04,0.07
			c0.032,0.054,0.063,0.108,0.095,0.165c0.007,0.011,0.015,0.023,0.021,0.035c0.172,0.301,0.346,0.617,0.518,0.947
			c0.576,1.092,1.138,2.333,1.61,3.673c0.738,2.093,1.255,4.425,1.25,6.812c-0.001,0.741-0.05,1.488-0.153,2.239
			c-0.163,1.169-0.461,2.349-0.931,3.537l-0.007,0.015l-0.041,0.113l-0.039,0.116c-0.149,0.41-0.927,2.316-2.668,4.102
			c-0.969,0.998-2.225,1.969-3.869,2.703c-1.647,0.731-3.695,1.238-6.324,1.24c-1.019,0-2.123-0.078-3.321-0.251
			c-7.64-1.108-12.116-1.907-14.647-2.419c-1.265-0.256-2.043-0.44-2.48-0.554c-0.219-0.056-0.353-0.095-0.418-0.114
			c-0.03-0.01-0.046-0.014-0.049-0.016l0,0l-0.001,0.001l-0.088-0.029l0,0c-0.027-0.008-4.501-1.409-9.938-6.319
			c-0.01-0.009-0.021-0.018-0.029-0.027c-0.394-0.363-0.807-0.723-1.242-1.078l-81.359-71.658l-3.434,3.901l81.399,71.694
			l0.078,0.067c0.001,0,0.001,0,0.002,0c0.321,0.26,0.641,0.543,0.972,0.84c2.509,2.3,3.845,4.641,4.594,6.598
			c0.837,2.192,0.906,3.908,0.905,4.38c0,0.058-0.001,0.097-0.001,0.114c-0.001,0.003-0.001,0.006-0.001,0.007l0,0
			c0,0.002,0,0.002,0,0.002l0.001,0l-0.005,0.147c0,14.279-2.663,26.078-5.319,34.285c-1.327,4.103-2.652,7.307-3.637,9.469
			c-0.492,1.081-0.898,1.902-1.179,2.444c-0.14,0.271-0.247,0.474-0.318,0.604c-0.035,0.065-0.062,0.112-0.077,0.141
			c-0.009,0.014-0.015,0.024-0.018,0.029l-0.001,0.002l-0.022,0.042c-0.009,0.018-0.019,0.035-0.027,0.052l-0.026,0.051
			c-1.283,2.605-2.53,3.727-3.355,4.249c-0.418,0.262-0.741,0.377-0.957,0.435c-0.108,0.028-0.189,0.042-0.24,0.048
			c-0.017,0.002-0.031,0.003-0.041,0.004c-0.055-0.002-0.106-0.003-0.172-0.002c-0.072,0.001-0.141,0.002-0.207,0.002
			c-1.208-0.002-2.072-0.2-2.718-0.458l-0.18-0.104c-0.982-0.619-1.528-1.265-1.841-1.729c-0.156-0.233-0.249-0.42-0.296-0.524
			c-0.019-0.04-0.029-0.068-0.035-0.082c-0.001-0.004-0.004-0.009-0.005-0.014l-0.005-0.019l-10.396-31.187
			c-0.572-1.703-1.453-3.636-3.096-5.247c-0.818-0.8-1.834-1.5-3.025-1.98c-1.191-0.482-2.547-0.739-4.016-0.738
			c-2.766-0.001-4.947,0.661-6.442,1.353c-1.385,0.64-2.194,1.297-2.429,1.501c-0.096,0.08-0.524,0.44-1.239,1.039
			c-5.708,4.779-29.612,24.733-45.943,37.499c-5.213,4.074-10.618,6.484-15.61,7.886c-4.99,1.4-9.564,1.784-13.046,1.783
			c-2.069,0-3.751-0.135-4.898-0.267c-0.573-0.065-1.014-0.13-1.302-0.178c-0.145-0.023-0.252-0.042-0.317-0.055
			c-0.033-0.006-0.056-0.01-0.068-0.013c-0.003,0-0.005-0.001-0.007-0.001c0,0,0,0,0,0c-0.002,0-0.004,0-0.004,0l-0.193-0.032
			c0,0-6.807-0.866-29.206-3.712c-2.57-0.327-4.963-0.473-7.185-0.473c-8.381-0.005-14.329,2.094-18.173,4.277
			c-3.849,2.181-5.591,4.414-5.757,4.633l-0.013,0.018l-94.791,127.709c-3.597,4.67-4.367,8.794-4.367,11.179
			c0,0.02,0,0.038,0,0.057c0,0.986,0.12,1.666,0.188,1.975c2.429,13.751,7.668,23.867,12.328,30.547
			c4.185,6.001,7.898,9.245,8.731,9.939c2.011,2.146,4.026,3.632,6.004,4.58c2.014,0.969,3.982,1.362,5.742,1.359
			c2.561-0.003,4.637-0.797,6.063-1.574c1.431-0.782,2.244-1.555,2.365-1.671l0.096-0.098l6.684-7.178
			c0.737-0.797,1.385-1.245,1.938-1.505c0.556-0.258,1.027-0.345,1.5-0.347c0.525,0,1.064,0.122,1.605,0.342
			c0.811,0.327,1.595,0.886,2.141,1.361c0.273,0.238,0.489,0.451,0.627,0.597c0.069,0.072,0.119,0.128,0.147,0.16
			c0.014,0.014,0.022,0.025,0.025,0.029h0l0.043,0.05c0.007,0.009,18.083,20.562,37.907,42.121
			c9.716,10.563,17.489,22.423,22.807,31.624c2.659,4.601,4.707,8.537,6.086,11.314c0.69,1.389,1.213,2.488,1.561,3.234
			c0.175,0.375,0.306,0.66,0.392,0.852c0.043,0.096,0.074,0.168,0.096,0.213c0.021,0.047,0.028,0.064,0.028,0.064l0.093,0.191
			c4.97,9.215,11.698,14.109,17.363,16.572c5.671,2.477,10.258,2.609,11.279,2.611c0.024,0,0.047,0,0.068,0
			c0.802,0.049,1.584,0.072,2.347,0.072c7.737,0.006,13.352-2.373,16.969-4.809c3.271-2.195,4.946-4.4,5.344-4.961
			c8.544-10.572,17.765-25.008,24.9-36.854c7.146-11.868,12.173-21.117,12.185-21.14l0.023-0.041l41.194-79.23l-4.644-2.335
			l-41.147,79.137c-0.021,0.039-0.094,0.173-0.218,0.398c-1.119,2.041-6.321,11.453-13.199,22.763
			c-6.873,11.308-15.44,24.53-23.192,34.103l-0.133,0.18h-0.001c-0.037,0.057-1.386,1.975-4.282,3.846
			c-2.905,1.873-7.331,3.738-13.799,3.744c-0.685,0-1.395-0.021-2.13-0.066l-0.222-0.004l0,0c0,0-0.003,0-0.007,0
			c-0.008,0-0.027,0-0.057,0c-0.532,0.002-4.426-0.084-9.196-2.176c-4.763-2.098-10.414-6.096-14.833-14.207
			c-0.867-1.926-12.417-27.463-31.85-48.615c-9.888-10.754-19.347-21.265-26.334-29.086c-3.493-3.91-6.368-7.149-8.369-9.408
			c-1-1.131-1.783-2.016-2.314-2.618c-0.531-0.604-0.811-0.922-0.813-0.923c-0.215-0.25-1.013-1.15-2.298-2.094
			c-0.717-0.523-1.591-1.062-2.626-1.484c-1.032-0.421-2.238-0.727-3.567-0.727c-1.189-0.002-2.469,0.255-3.708,0.84
			c-1.242,0.581-2.433,1.475-3.542,2.677l-6.604,7.093c-0.143,0.124-0.643,0.531-1.385,0.912c-0.868,0.447-2.036,0.851-3.407,0.85
			c-1.013-0.003-2.156-0.207-3.494-0.848c-1.336-0.641-2.872-1.731-4.559-3.554c-0.073-0.08-0.204-0.2-0.289-0.269l0,0
			c-0.085-0.067-3.819-3.095-8.074-9.273c-4.256-6.184-9.039-15.506-11.281-28.25l-0.035-0.16h0.001
			c-0.006-0.029-0.064-0.326-0.064-0.848c0.012-1.362,0.356-4.233,3.311-8.095l0.027-0.036L310.6,347.276
			c0.08-0.099,1.439-1.764,4.479-3.424c3.126-1.703,8.026-3.432,15.313-3.436c1.995,0,4.167,0.131,6.529,0.431
			c11.199,1.423,18.501,2.351,23.003,2.923c3.935,0.5,5.726,0.728,6.118,0.778c0.59,0.112,3.376,0.599,7.53,0.599
			c3.858,0,8.901-0.42,14.45-1.976c5.546-1.555,11.6-4.255,17.407-8.795c18.792-14.691,47.333-38.66,47.345-38.669l0.036-0.032
			h0.001c0,0,0.001-0.001,0.003-0.003c0.01-0.007,0.034-0.028,0.08-0.061c0.419-0.306,2.222-1.522,5.388-1.523
			c0.88,0,1.536,0.146,2.07,0.36c0.792,0.325,1.367,0.815,1.891,1.513c0.516,0.692,0.932,1.592,1.245,2.538l10.377,31.131
			c0.147,0.525,0.613,1.906,1.919,3.343c0.732,0.8,1.74,1.595,3.039,2.183l36.82,21.207l0.04,0.023
			c2.045,1.133,3.138,2.27,3.749,3.256c0.606,0.99,0.781,1.878,0.787,2.729c0.002,0.845-0.206,1.639-0.421,2.202
			c-0.105,0.28-0.21,0.502-0.28,0.638c-0.036,0.068-0.063,0.115-0.076,0.138c-0.006,0.012-0.009,0.016-0.009,0.016l0.001,0.001
			l-0.116,0.206l-7.409,14.818l-1.713,3.18c-0.09,0.168-0.159,0.342-0.209,0.519l-47.38,91.125l4.647,2.328l49.247-94.716
			c0.988-1.712,2.178-2.977,3.444-3.952c1.914-1.473,4.038-2.265,5.771-2.674c1.729-0.411,3.051-0.434,3.267-0.434
			c0.007,0,0.012,0.002,0.017,0.002s0.009,0,0.009,0l0,0l0,0l0,0h0.06c0.216-0.006,4.671-0.005,9.998-2.283
			c2.659-1.143,5.538-2.87,8.134-5.479c1.294-1.299,2.513-2.817,3.593-4.573l0.01-0.016c0.437-0.709,0.847-1.459,1.233-2.248
			c0.572-1.169,1.089-2.424,1.531-3.774c0.889-2.707,1.269-5.396,1.269-7.983C554.836,345.647,554.039,342.104,552.876,338.922z
			 M522.108,371.859c-0.049,0.018-0.1,0.037-0.149,0.056l1.965-3.93c0.062-0.104,0.149-0.262,0.25-0.464
			c0.361,0.366,0.719,0.697,1.063,0.994c1.264,1.088,2.375,1.744,3.01,2.076C527.047,370.655,524.763,370.903,522.108,371.859z
			 M548.629,355.774c-0.154,0.471-0.318,0.926-0.491,1.366c-0.003,0.008-0.007,0.016-0.01,0.023
			c-0.083,0.208-0.166,0.413-0.251,0.615c-0.021,0.047-0.042,0.093-0.063,0.14c-0.068,0.159-0.139,0.317-0.21,0.473
			c-0.036,0.078-0.072,0.153-0.109,0.229c-0.057,0.121-0.114,0.242-0.172,0.361c-0.048,0.096-0.097,0.189-0.146,0.285
			c-0.049,0.095-0.097,0.19-0.146,0.284c-0.056,0.104-0.111,0.205-0.168,0.307c-0.045,0.082-0.089,0.164-0.136,0.244
			c-0.058,0.102-0.116,0.2-0.175,0.299c-0.039,0.065-0.078,0.132-0.117,0.197c-0.309,0.393-1.617,1.983-3.518,3.478
			c-1.057,0.833-2.291,1.634-3.606,2.208c-1.318,0.576-2.704,0.925-4.126,0.925c-1.317-0.003-2.684-0.286-4.189-1.054l-0.143-0.066
			v-0.001c0,0-0.011-0.005-0.041-0.02c-0.228-0.107-1.325-0.672-2.546-1.814c-1.226-1.145-2.571-2.838-3.424-5.299
			c-0.021-0.063-0.048-0.123-0.075-0.185c-0.231-0.619-0.531-1.243-0.912-1.858c-1.15-1.864-2.992-3.602-5.642-5.065l-20.871-12.021
			c-0.028-0.02-0.056-0.041-0.085-0.059c-2.325-1.425-3.554-2.834-4.243-4.05c-0.684-1.219-0.856-2.291-0.861-3.172
			c-0.001-0.604,0.091-1.109,0.176-1.439c0.032-0.127,0.063-0.228,0.087-0.297c0.396-0.683,0.775-1.445,1.129-2.294
			c1.042-1.898,11.12-20.878,11.146-49.328c0.004-0.079,0.007-0.193,0.007-0.342c-0.001-0.713-0.073-2.221-0.588-4.18
			c1.021,0.456,1.693,0.678,1.889,0.74c0.313,0.104,1.182,0.363,3.559,0.846c2.668,0.54,7.227,1.351,14.932,2.469
			c1.432,0.208,2.786,0.305,4.068,0.305c3.414,0.002,6.305-0.7,8.663-1.792c0.142-0.065,0.278-0.134,0.415-0.202l-5.559,16.532
			c-0.299,0.747-1.796,4.732-1.801,10.502c0,3.063,0.43,6.629,1.705,10.436c1.274,3.806,3.397,7.844,6.729,11.826
			c0.069,0.083,0.107,0.125,0.186,0.199l-0.001,0c0.081,0.076,2.839,2.798,5.518,7.022c1.341,2.111,2.658,4.594,3.63,7.29
			c0.974,2.697,1.598,5.599,1.598,8.577C549.639,351.495,549.337,353.617,548.629,355.774z"/>
	</g>
	
	<text transform="matrix(1 0 0 1 303.0239 291.7671)" fill="#222222" font-family="'Arial'" font-size="10">FARM CURVE</text>
	<text transform="matrix(1 0 0 1 377.998 261.3555)" fill="#222222" font-family="'Arial'" font-size="10">VILLAGE</text>
	<text transform="matrix(1 0 0 1 403.0352 145.3975)" fill="#222222" font-family="'Arial'" font-size="10">WELLINGTON </text>
	<text transform="matrix(1 0 0 1 418.3125 158.0859)" fill="#222222" font-family="'Arial'" font-size="10">BRIDGE</text>
	<text transform="matrix(1 0 0 1 393.5137 83.855)" fill="#222222" font-family="'Arial'" font-size="10">NATIONAL PITS</text>
	<text transform="matrix(1 0 0 1 396.5625 96.5435)" fill="#222222" font-family="'Arial'" font-size="10">and PADDOCK</text>
	<text transform="matrix(1 0 0 1 292.457 411.1909)" fill="#222222" font-family="'Arial'" font-size="10">THE SILVERSTONE</text>
	<text transform="matrix(1 0 0 1 325.248 423.8794)" fill="#222222" font-family="'Arial'" font-size="10">WING</text>
	<text transform="matrix(1 0 0 1 153.6626 514.5781)" fill="#222222" font-family="'Arial'" font-size="10">CLUB</text>
	<text transform="matrix(1 0 0 1 145.3325 527.2666)" fill="#222222" font-family="'Arial'" font-size="10">CORNER</text>
	<text transform="matrix(1 0 0 1 134.0557 389.8843)" fill="#222222" font-family="'Arial'" font-size="10">INTERNATIONAL</text>
	<text transform="matrix(1 0 0 1 136.2803 402.5728)" fill="#222222" font-family="'Arial'" font-size="10">PITS STRAIGHT</text>
	<text transform="matrix(1 0 0 1 342.6777 10.1196)" fill="#222222" font-family="'Arial'" font-size="10">NATIONAL</text>
	<text transform="matrix(1 0 0 1 329.9023 22.8081)" fill="#222222" font-family="'Arial'" font-size="10">PITS STRAIGHT</text>
	<text transform="matrix(1 0 0 1 449.8066 211.7896)" fill="#222222" font-family="'Arial'" font-size="10">SILVERSTONE</text>
	<text transform="matrix(1 0 0 1 476.7578 224.478)" fill="#222222" font-family="'Arial'" font-size="10">SIX</text>
	<text transform="matrix(1 0 0 1 574.8164 366.6567)" fill="#222222" font-family="'Arial'" font-size="10">BECKETTS</text>
	<text transform="matrix(1 0 0 1 578.1416 379.2563)" fill="#222222" font-family="'Arial'" font-size="10">and CLUB</text>
	<text transform="matrix(1 0 0 1 566.2012 391.856)" fill="#222222" font-family="'Arial'" font-size="10">SILVERSTONE</text>
	<text transform="matrix(1 0 0 1 231.6724 338.5093)" fill="#222222" font-family="'Arial'" font-size="10">ABBEY</text>
	<text transform="matrix(1 0 0 1 546.3525 12.1875)" fill="#222222" font-family="'Arial'" font-size="10">COPSE</text>
	<text transform="matrix(1 0 0 1 168.8379 546.1016)" fill="#222222" font-family="'Arial'" font-size="10">CLUB A</text>
	<text transform="matrix(1 0 0 1 224.8369 585.9023)" fill="#222222" font-family="'Arial'" font-size="10">VALE</text>
	<text transform="matrix(1 0 0 1 306.834 508.3809)" fill="#222222" font-family="'Arial'" font-size="10">LAKESIDE</text>
	<text transform="matrix(1 0 0 1 390.2568 448.8662)" fill="#222222" font-family="'Arial'" font-size="10">DRIVE CENTRE</text>
	<text transform="matrix(1 0 0 1 376.6953 678.3594)" fill="#222222" font-family="'Arial'" font-size="10">STOWE</text>
	<circle fill="#222222" cx="399.363" cy="653.525" r="7.5"/>
	<text transform="matrix(1 0 0 1 395.75 653.1924)" fill="#FFFFFF" font-family="'Arial'" font-size="10">A</text>
	<circle fill="#222222" cx="360.639" cy="670.859" r="7.5"/>
	<text transform="matrix(1 0 0 1 357.0264 670.5254)" fill="#FFFFFF" font-family="'Arial'" font-size="10">B</text>
	<circle fill="#222222" cx="409.835" cy="277.1" r="7.5"/>
	<text transform="matrix(1 0 0 1 406.2217 276.7666)" fill="#FFFFFF" font-family="'Arial'" font-size="10">A</text>
	
	<circle fill="#222222" cx="261.386" cy="70.095" r="7.5"/>
	<text transform="matrix(1 0 0 1 257.7725 69.7617)" fill="#FFFFFF" font-family="'Arial'" font-size="10">A</text>
	<circle fill="#222222" cx="503.803" cy="14.122" r="7.5"/>
	<text transform="matrix(1 0 0 1 500.1895 13.7891)" fill="#FFFFFF" font-family="'Arial'" font-size="10">A</text>
	<circle fill="#222222" cx="431.299" cy="257.93" r="7.5"/>
	<text transform="matrix(1 0 0 1 427.6865 257.5977)" fill="#FFFFFF" font-family="'Arial'" font-size="10">B</text>
	
	<circle fill="#222222" cx="288.021" cy="40.132" r="7.5"/>
	<text transform="matrix(1 0 0 1 284.4082 39.7988)" fill="#FFFFFF" font-family="'Arial'" font-size="10">B</text>
	<circle fill="#222222" cx="539.417" cy="23.964" r="7.5"/>
	<text transform="matrix(1 0 0 1 535.8037 23.6309)" fill="#FFFFFF" font-family="'Arial'" font-size="10">B</text>
	<circle fill="#222222" cx="327.069" cy="661.393" r="7.5"/>
	<text transform="matrix(1 0 0 1 323.1807 661.0596)" fill="#FFFFFF" font-family="'Arial'" font-size="10">C</text>
	<circle fill="#222222" cx="556.357" cy="56.196" r="7.5"/>
	<text transform="matrix(1 0 0 1 552.4688 55.8633)" fill="#FFFFFF" font-family="'Arial'" font-size="10">C</text>

<text transform="matrix(1 0 0 1 176.0359 120.9922)" fill="#222222" font-family="'Arial'" font-size="10">LUFFIELD</text>
	<text transform="matrix(1 0 0 1 233.2971 91.5708)" fill="#222222" font-family="'Arial'" font-size="10">SRC</text>
	<circle fill="#222222" cx="222.284" cy="138.976" r="7.5"/>
	<text transform="matrix(1 0 0 1 218.6707 138.6426)" fill="#FFFFFF" font-family="'Arial'" font-size="10">A</text>
	<circle fill="#222222" cx="236.026" cy="107.602" r="7.5"/>
	<text transform="matrix(1 0 0 1 232.4133 107.2681)" fill="#FFFFFF" font-family="'Arial'" font-size="10">B</text>
	<text transform="matrix(1 0 0 1 213.2629 51.1426)" fill="#222222" font-family="'Arial'" font-size="10">WOODCOTE</text>

	<g id="COMPASS">
		<path fill="#333333" d="M610.328,637.077c-9.533,0-17.264,7.73-17.264,17.264c0,9.535,7.73,17.266,17.264,17.266
			s17.266-7.73,17.266-17.266C627.594,644.808,619.861,637.077,610.328,637.077z M618.029,666.817l-0.423-0.73l-0.747,0.43
			l0.429,0.746c-1.951,1.051-4.172,1.664-6.528,1.732v-2.566h-0.864v2.566c-2.356-0.068-4.576-0.682-6.528-1.732l0.431-0.746
			l-0.749-0.43l-0.421,0.73c-1.939-1.201-3.575-2.836-4.773-4.775l0.729-0.42l-0.432-0.748l-0.742,0.43
			c-1.056-1.953-1.665-4.174-1.733-6.531h3.258v-0.861h-3.258c0.068-2.357,0.679-4.58,1.733-6.531l0.742,0.43l0.432-0.748
			l-0.729-0.42c1.2-1.939,2.835-3.574,4.773-4.775l0.421,0.73l0.749-0.432l-0.431-0.744c1.952-1.053,4.172-1.664,6.53-1.732v2.568
			h0.862v-2.568c2.357,0.068,4.579,0.68,6.529,1.732l-0.428,0.742l0.746,0.432l0.422-0.729c1.938,1.201,3.574,2.836,4.776,4.775
			l-0.731,0.42l0.432,0.748l0.744-0.428c1.053,1.951,1.664,4.172,1.732,6.529h-2.568v0.863h2.568
			c-0.07,2.357-0.68,4.576-1.732,6.529l-0.744-0.43l-0.432,0.748l0.731,0.42C621.604,663.981,619.967,665.616,618.029,666.817z
			 M611.71,654.343c0,0.762-0.618,1.379-1.382,1.379c-0.763,0.002-1.381-0.617-1.381-1.383c0-0.762,0.616-1.379,1.381-1.379
			C611.092,652.96,611.71,653.579,611.71,654.343z M610.328,644.329l-3.452,9.152v1.379l3.452,9.496l3.453-9.496v-1.379
			L610.328,644.329z M610.328,656.759c-1.335,0-2.417-1.082-2.417-2.416c0-1.336,1.082-2.418,2.417-2.418
			c1.336,0,2.417,1.082,2.417,2.418S611.664,656.759,610.328,656.759z"/>
		<text transform="matrix(1 0 0 1 608.002 630.9541)" fill="#333333" font-family="'Arial'" font-size="8.6805">N</text>
		<text transform="matrix(1 0 0 1 608.002 678.0947)" fill="#333333" font-family="'Arial'" font-size="8.6805">S</text>
		<text transform="matrix(1 0 0 1 582.9785 657.4121)" fill="#333333" font-family="'Arial'" font-size="8.6805">W</text>
		<text transform="matrix(1 0 0 1 631.0117 657.4121)" fill="#333333" font-family="'Arial'" font-size="8.6805">E</text>
	</g>
		
		<rect x="247.556" y="393.796" transform="matrix(-0.567 0.8237 -0.8237 -0.567 777.5608 384.4377)" fill="#333333" width="80.374" height="5.56"/>
	
		<rect x="395.136" y="65.803" transform="matrix(-0.9944 0.1056 -0.1056 -0.9944 859.394 89.6733)" fill="#333333" width="64.372" height="3.585"/>
</g>
<g id="MotoGP">
	<text transform="matrix(1 0 0 1 542.0081 589.085)" fill="#222222" font-family="'Arial'" font-size="10">MotoGP Woodcote B</text>
	<rect id="WOB-WDB3" x="569.604" y="602.57" width="14.172" height="14.173"/>
	<rect id="WOB-WDB4" x="594.172" y="602.57" width="14.172" height="14.173"/>
</g>
	<g id="THE_VIEW">
		<rect id="BDF-FAR2" x="331.894" y="306.46" transform="matrix(-0.9747 -0.2233 0.2233 -0.9747 598.8127 692.6572)" fill="#00B0D8" width="13.359" height="12.016"/>
		<text transform="matrix(1 0 0 1 274.7603 310.833)" fill="#222222" font-family="'Arial'" font-size="10">THE VIEW</text>
	</g>
</svg>
