<svg>
<g id="PITCH">
	<g>
		<rect x="82.924" y="194.091" fill="#069248" width="502.574" height="301.548"/>
		<rect x="82.924" y="194.091" fill="#086B38" width="45.688" height="301.548"/>
		<rect x="174.301" y="194.091" fill="#086B38" width="45.688" height="301.548"/>
		<rect x="265.677" y="194.091" fill="#086B38" width="45.689" height="301.548"/>
		<rect x="357.057" y="194.091" fill="#086B38" width="45.688" height="301.548"/>
		<rect x="448.436" y="194.091" fill="#086B38" width="45.688" height="301.548"/>
		<rect x="539.811" y="194.091" fill="#086B38" width="45.691" height="301.548"/>
		<rect x="103.027" y="214.193" fill="none" stroke="#FFFFFF" stroke-miterlimit="10" width="462.368" height="261.343"/>
		<rect x="334.211" y="214.193" fill="none" stroke="#FFFFFF" stroke-miterlimit="10" width="0" height="261.343"/>
		<circle fill="none" stroke="#FFFFFF" stroke-miterlimit="10" cx="334.211" cy="344.863" r="60.309"/>
		<rect x="103.027" y="284.555" fill="none" stroke="#FFFFFF" stroke-miterlimit="10" width="60.308" height="120.617"/>
		<rect x="103.027" y="304.656" fill="none" stroke="#FFFFFF" stroke-miterlimit="10" width="30.153" height="80.415"/>
		<path fill="none" stroke="#FFFFFF" stroke-miterlimit="10" d="M193.49,344.864c0-18.728-12.825-34.418-30.155-38.887v77.774
			C180.665,379.279,193.49,363.594,193.49,344.864z"/>
		<rect x="505.09" y="284.555" fill="none" stroke="#FFFFFF" stroke-miterlimit="10" width="60.305" height="120.617"/>
		<rect x="535.242" y="304.656" fill="none" stroke="#FFFFFF" stroke-miterlimit="10" width="30.149" height="80.415"/>
		<path fill="none" stroke="#FFFFFF" stroke-miterlimit="10" d="M474.93,344.864c0-18.728,12.832-34.418,30.16-38.887v77.774
			C487.762,379.279,474.93,363.594,474.93,344.864z"/>
	</g>
</g>
<g id="EXTRAS">
	<rect x="403.645" y="606.185" fill="none" stroke="#CCCCCC" stroke-miterlimit="10" width="156.237" height="16.655"/>
	<rect x="200.745" y="606.185" fill="none" stroke="#CCCCCC" stroke-miterlimit="10" width="116.152" height="16.655"/>
	<polygon fill="none" stroke="#CCCCCC" stroke-miterlimit="10" points="582.535,543.156 582.535,624.056 625.532,624.056 
		625.532,638.904 664.539,638.904 669.818,633.625 669.818,549.588 596.276,549.588 596.055,543.156 	"/>
	<polygon fill="none" stroke="#CCCCCC" stroke-miterlimit="10" points="223.824,72.953 223.824,48.135 320.229,48.135 
		320.229,71.844 264.604,71.844 264.604,54.114 255.956,54.114 255.956,72.953 	"/>
	<rect x="322.229" y="48.135" fill="none" stroke="#CCCCCC" stroke-miterlimit="10" width="41.218" height="20.049"/>
	<rect x="365.445" y="48.135" fill="none" stroke="#CCCCCC" stroke-miterlimit="10" width="60.92" height="24.818"/>
	<polygon fill="none" stroke="#CCCCCC" stroke-miterlimit="10" points="428.365,72.953 428.365,48.135 482.428,48.135 
		482.428,46.584 543.854,46.584 543.854,70.072 480.428,70.072 480.428,72.953 	"/>
	<rect x="156.051" y="48.135" fill="none" stroke="#CCCCCC" stroke-miterlimit="10" width="48.053" height="24.142"/>
	<polygon fill="none" stroke="#CCCCCC" stroke-miterlimit="10" points="107.067,71.184 107.067,68.918 98.679,68.918 98.679,37.028 
		101.94,37.028 101.94,11.951 148.019,11.951 148.019,71.184 	"/>
	<polygon fill="none" stroke="#CCCCCC" stroke-miterlimit="10" points="366.825,653.823 366.825,629.656 360.834,629.656 
		360.834,624.84 435.969,624.84 435.969,653.823 	"/>
	<polygon fill="none" stroke="#CCCCCC" stroke-miterlimit="10" points="72.583,544.444 32.612,544.444 32.612,561.778 
		72.583,561.778 72.583,604.185 110.385,604.185 110.385,561.778 110.385,544.444 	"/>
	<polygon fill="none" stroke="#CCCCCC" stroke-miterlimit="10" points="75.661,70.145 75.661,102.098 50.099,102.098 
		50.099,121.594 75.661,121.594 75.661,126.822 32.125,126.822 32.125,167.684 75.661,167.684 75.661,157.916 93.027,157.916 
		93.027,70.145 	"/>
	<rect x="559.609" y="47.584" fill="none" stroke="#CCCCCC" stroke-miterlimit="10" width="63.797" height="22.6"/>
	<g>
		<path fill="#333333" d="M453.654,610.096h2.35c1.059,0,1.836,0.18,2.332,0.539c0.496,0.356,0.744,0.899,0.744,1.629
			c0,0.496-0.152,0.908-0.455,1.238c-0.303,0.327-0.744,0.543-1.326,0.637v0.035c0.687,0.102,1.188,0.313,1.508,0.646
			c0.322,0.33,0.484,0.791,0.484,1.381c0,0.789-0.262,1.396-0.785,1.822c-0.521,0.426-1.266,0.639-2.227,0.639h-2.625V610.096
			L453.654,610.096z M454.252,613.907h1.887c0.808,0,1.392-0.135,1.754-0.399c0.365-0.27,0.552-0.688,0.552-1.256
			c0-0.57-0.207-0.984-0.619-1.242s-1.025-0.39-1.842-0.39h-1.729L454.252,613.907L454.252,613.907z M454.252,614.438v3.697h2.016
			c1.586,0,2.382-0.646,2.382-1.937c0-1.176-0.839-1.764-2.511-1.764L454.252,614.438L454.252,614.438z"/>
		<path fill="#333333" d="M465.303,615.639h-3.479l-1.195,3.021h-0.662l3.445-8.602h0.381l3.375,8.602h-0.674L465.303,615.639z
			 M462.039,615.1h3.063l-1.165-3.088c-0.099-0.242-0.216-0.578-0.353-1.008c-0.104,0.375-0.221,0.715-0.346,1.02L462.039,615.1z"/>
		<path fill="#333333" d="M468.977,614.93v3.729h-0.598v-8.563h2.039c1.063,0,1.848,0.194,2.355,0.588
			c0.507,0.393,0.762,0.984,0.762,1.772c0,0.572-0.152,1.06-0.455,1.451c-0.303,0.396-0.762,0.681-1.379,0.853l2.326,3.899h-0.715
			l-2.212-3.729H468.977L468.977,614.93z M468.977,614.411h1.638c0.723,0,1.28-0.159,1.682-0.481s0.598-0.797,0.598-1.426
			c0-0.652-0.192-1.127-0.586-1.427c-0.391-0.297-1.024-0.442-1.907-0.442h-1.42L468.977,614.411L468.977,614.411z"/>
		<path fill="#333333" d="M481.363,610.096l-3.193,8.563h-0.609l3.188-8.563H481.363z"/>
		<path fill="#333333" d="M491.594,618.659h-0.729l-3.287-4.521l-1.146,1.008v3.516h-0.598v-8.563h0.598v4.453l0.949-0.949
			l3.357-3.504h0.762l-3.51,3.621L491.594,618.659z"/>
		<path fill="#333333" d="M492.807,618.659v-8.563h0.601v8.563H492.807z"/>
		<path fill="#333333" d="M503.031,614.365c0,1.359-0.34,2.437-1.021,3.228c-0.68,0.791-1.617,1.188-2.813,1.188
			c-1.191,0-2.127-0.396-2.81-1.188c-0.68-0.792-1.02-1.869-1.02-3.236c0-1.363,0.342-2.438,1.027-3.221
			c0.685-0.783,1.621-1.174,2.811-1.174c1.195,0,2.131,0.393,2.807,1.18C502.692,611.928,503.031,613.004,503.031,614.365z
			 M496.023,614.365c0,1.229,0.271,2.177,0.817,2.847s1.332,1.006,2.355,1.006c1.03,0,1.815-0.332,2.36-0.996
			c0.547-0.664,0.818-1.615,0.818-2.854c0-1.231-0.271-2.182-0.818-2.84c-0.545-0.658-1.325-0.986-2.352-0.986
			c-1.021,0-1.807,0.332-2.359,0.996C496.298,612.198,496.023,613.145,496.023,614.365z"/>
		<path fill="#333333" d="M509.729,616.45c0,0.718-0.264,1.281-0.786,1.699c-0.525,0.418-1.226,0.627-2.097,0.627
			c-1.047,0-1.85-0.115-2.405-0.346v-0.601c0.614,0.265,1.401,0.396,2.358,0.396c0.703,0,1.26-0.162,1.672-0.484
			c0.412-0.319,0.619-0.744,0.619-1.268c0-0.324-0.065-0.594-0.205-0.81c-0.137-0.213-0.356-0.403-0.668-0.58
			c-0.309-0.178-0.762-0.364-1.356-0.567c-0.875-0.301-1.48-0.627-1.814-0.979c-0.334-0.35-0.5-0.813-0.5-1.396
			c0-0.642,0.25-1.164,0.752-1.568c0.502-0.401,1.148-0.604,1.938-0.604c0.805,0,1.561,0.15,2.268,0.457l-0.217,0.516
			c-0.711-0.297-1.394-0.445-2.039-0.445c-0.633,0-1.137,0.146-1.512,0.439s-0.563,0.69-0.563,1.195c0,0.313,0.06,0.574,0.172,0.776
			c0.115,0.203,0.308,0.388,0.566,0.548c0.261,0.161,0.711,0.356,1.348,0.584c0.668,0.229,1.17,0.452,1.506,0.671
			c0.336,0.218,0.58,0.464,0.734,0.736C509.651,615.728,509.729,616.063,509.729,616.45z"/>
		<path fill="#333333" d="M517.299,618.659h-0.729l-3.287-4.521l-1.146,1.008v3.516h-0.598v-8.563h0.598v4.453l0.949-0.949
			l3.357-3.504h0.762l-3.51,3.621L517.299,618.659z"/>
	</g>
	<g>
		<path fill="#333333" d="M221.901,618.659h-0.598v-8.563h4.693v0.551H221.9v3.633h3.867v0.56H221.9L221.901,618.659
			L221.901,618.659z"/>
		<path fill="#333333" d="M231.452,615.639h-3.48l-1.195,3.021h-0.662l3.445-8.602h0.381l3.375,8.602h-0.674L231.452,615.639z
			 M228.188,615.1h3.064l-1.166-3.088c-0.098-0.242-0.215-0.578-0.352-1.008c-0.105,0.375-0.221,0.715-0.346,1.02L228.188,615.1z"/>
		<path fill="#333333" d="M235.126,614.93v3.729h-0.598v-8.563h2.039c1.063,0,1.848,0.194,2.355,0.588
			c0.507,0.393,0.762,0.984,0.762,1.772c0,0.572-0.151,1.06-0.454,1.451c-0.303,0.396-0.763,0.681-1.38,0.853l2.326,3.899h-0.715
			l-2.209-3.729H235.126L235.126,614.93z M235.126,614.411h1.635c0.723,0,1.283-0.159,1.682-0.481s0.598-0.797,0.598-1.426
			c0-0.652-0.195-1.127-0.586-1.427c-0.391-0.297-1.027-0.442-1.91-0.442h-1.418L235.126,614.411L235.126,614.411z"/>
		<path fill="#333333" d="M249.933,612.557c0,0.828-0.281,1.463-0.844,1.904c-0.563,0.438-1.359,0.659-2.391,0.659h-1.324v3.539
			h-0.598v-8.563h2.098C248.913,610.096,249.933,610.916,249.933,612.557z M245.374,614.607h1.178c0.965,0,1.662-0.16,2.092-0.479
			c0.43-0.319,0.645-0.834,0.645-1.552c0-0.658-0.203-1.147-0.609-1.469c-0.406-0.317-1.035-0.477-1.887-0.477h-1.418
			L245.374,614.607L245.374,614.607z"/>
		<path fill="#333333" d="M258.997,614.365c0,1.359-0.34,2.437-1.02,3.228s-1.617,1.188-2.813,1.188
			c-1.191,0-2.127-0.396-2.807-1.188s-1.02-1.869-1.02-3.236c0-1.363,0.343-2.438,1.028-3.221c0.685-0.783,1.622-1.174,2.81-1.174
			c1.195,0,2.131,0.393,2.807,1.18C258.658,611.928,258.997,613.004,258.997,614.365z M251.989,614.365
			c0,1.229,0.273,2.177,0.82,2.847s1.332,1.006,2.355,1.006c1.031,0,1.819-0.332,2.364-0.996c0.545-0.664,0.817-1.615,0.817-2.854
			c0-1.231-0.272-2.182-0.817-2.84c-0.545-0.658-1.329-0.986-2.353-0.986c-1.02,0-1.806,0.332-2.358,0.996
			C252.265,612.198,251.989,613.145,251.989,614.365z"/>
		<path fill="#333333" d="M265.694,616.45c0,0.718-0.263,1.281-0.788,1.699c-0.525,0.418-1.224,0.627-2.095,0.627
			c-1.047,0-1.85-0.115-2.408-0.346v-0.601c0.617,0.265,1.404,0.396,2.361,0.396c0.703,0,1.261-0.162,1.673-0.484
			c0.412-0.319,0.618-0.744,0.618-1.268c0-0.324-0.068-0.594-0.205-0.81c-0.137-0.213-0.359-0.403-0.668-0.58
			c-0.309-0.178-0.762-0.364-1.359-0.567c-0.875-0.301-1.479-0.627-1.813-0.979c-0.334-0.35-0.501-0.813-0.501-1.396
			c0-0.642,0.251-1.164,0.753-1.568c0.502-0.401,1.147-0.604,1.937-0.604c0.805,0,1.561,0.15,2.268,0.457l-0.217,0.516
			c-0.711-0.297-1.391-0.445-2.039-0.445c-0.633,0-1.137,0.146-1.512,0.439s-0.563,0.69-0.563,1.195
			c0,0.313,0.058,0.574,0.173,0.776c0.115,0.203,0.304,0.388,0.565,0.548c0.261,0.161,0.711,0.356,1.348,0.584
			c0.668,0.229,1.17,0.452,1.506,0.671c0.336,0.218,0.581,0.464,0.735,0.736C265.617,615.728,265.694,616.063,265.694,616.45z"/>
		<path fill="#333333" d="M269.737,618.659h-0.604v-8.004h-2.783v-0.563h6.17v0.563h-2.783V618.659L269.737,618.659z"/>
		<path fill="#333333" d="M276.909,610.096h2.35c1.059,0,1.836,0.18,2.332,0.539c0.496,0.356,0.744,0.899,0.744,1.629
			c0,0.496-0.151,0.908-0.454,1.238c-0.303,0.327-0.745,0.543-1.327,0.637v0.035c0.684,0.102,1.187,0.313,1.509,0.646
			s0.483,0.791,0.483,1.381c0,0.789-0.262,1.396-0.785,1.822c-0.523,0.426-1.266,0.639-2.227,0.639h-2.625V610.096z
			 M277.507,613.907h1.887c0.805,0,1.39-0.135,1.755-0.399c0.365-0.27,0.548-0.688,0.548-1.256c0-0.57-0.206-0.984-0.618-1.242
			s-1.026-0.39-1.843-0.39h-1.729V613.907z M277.507,614.438v3.697h2.016c1.586,0,2.379-0.646,2.379-1.937
			c0-1.176-0.836-1.764-2.508-1.764L277.507,614.438L277.507,614.438z"/>
		<path fill="#333333" d="M288.558,615.639h-3.48l-1.195,3.021h-0.662l3.445-8.602h0.381l3.375,8.602h-0.674L288.558,615.639z
			 M285.294,615.1h3.064l-1.166-3.088c-0.098-0.242-0.215-0.578-0.352-1.008c-0.105,0.375-0.221,0.715-0.346,1.02L285.294,615.1z"/>
		<path fill="#333333" d="M292.231,614.93v3.729h-0.598v-8.563h2.039c1.063,0,1.848,0.194,2.355,0.588
			c0.507,0.393,0.762,0.984,0.762,1.772c0,0.572-0.151,1.06-0.454,1.451c-0.303,0.396-0.763,0.681-1.38,0.853l2.326,3.899h-0.715
			l-2.209-3.729H292.231L292.231,614.93z M292.231,614.411h1.635c0.723,0,1.283-0.159,1.682-0.481
			c0.399-0.322,0.598-0.797,0.598-1.426c0-0.652-0.195-1.127-0.586-1.427c-0.391-0.297-1.027-0.442-1.91-0.442h-1.418
			L292.231,614.411L292.231,614.411z"/>
	</g>
	<g>
		<path fill="#333333" d="M386.191,55.504h2.35c1.059,0,1.836,0.18,2.332,0.539c0.496,0.356,0.744,0.899,0.744,1.629
			c0,0.496-0.151,0.909-0.454,1.239c-0.304,0.33-0.745,0.542-1.327,0.636v0.035c0.684,0.102,1.188,0.314,1.51,0.646
			c0.321,0.33,0.482,0.79,0.482,1.38c0,0.789-0.262,1.396-0.785,1.822s-1.266,0.639-2.227,0.639h-2.625V55.504z M386.789,59.319
			h1.887c0.805,0,1.391-0.134,1.756-0.398c0.364-0.27,0.547-0.688,0.547-1.257c0-0.57-0.205-0.984-0.617-1.242
			c-0.41-0.258-1.024-0.389-1.844-0.389h-1.729V59.319z M386.789,59.846v3.697h2.016c1.586,0,2.379-0.646,2.379-1.937
			c0-1.176-0.836-1.764-2.508-1.764L386.789,59.846L386.789,59.846z"/>
		<path fill="#333333" d="M397.84,61.047h-3.48l-1.192,3.021h-0.662l3.445-8.602h0.381l3.375,8.602h-0.675L397.84,61.047z
			 M394.576,60.508h3.064l-1.166-3.088c-0.101-0.242-0.218-0.578-0.354-1.008c-0.104,0.375-0.224,0.715-0.349,1.02L394.576,60.508z"
			/>
		<path fill="#333333" d="M401.514,60.338v3.729h-0.598v-8.563h2.039c1.063,0,1.848,0.196,2.355,0.589
			c0.506,0.393,0.762,0.983,0.762,1.771c0,0.574-0.151,1.062-0.454,1.453c-0.304,0.396-0.763,0.681-1.38,0.853l2.326,3.899h-0.715
			l-2.209-3.729L401.514,60.338L401.514,60.338z M401.514,59.823h1.635c0.726,0,1.283-0.158,1.685-0.48s0.601-0.798,0.601-1.427
			c0-0.652-0.195-1.127-0.588-1.427c-0.392-0.297-1.025-0.442-1.908-0.442h-1.418v3.776H401.514z"/>
	</g>
	<g>
		<path fill="#333333" d="M476.744,64.071h-0.732l-3.287-4.521l-1.143,1.008v3.517h-0.598V55.51h0.598v4.453l0.949-0.949
			l3.354-3.504h0.765l-3.513,3.621L476.744,64.071z"/>
		<path fill="#333333" d="M477.957,64.071v-8.563h0.598v8.563H477.957z"/>
		<path fill="#333333" d="M488.182,59.776c0,1.359-0.34,2.438-1.02,3.229s-1.617,1.187-2.813,1.187
			c-1.188,0-2.127-0.396-2.807-1.187s-1.02-1.87-1.02-3.237c0-1.363,0.342-2.437,1.024-3.22c0.688-0.783,1.623-1.175,2.813-1.175
			c1.192,0,2.131,0.394,2.807,1.181S488.182,58.413,488.182,59.776z M481.174,59.776c0,1.229,0.273,2.178,0.82,2.848
			s1.332,1.005,2.354,1.005c1.031,0,1.818-0.332,2.363-0.996s0.818-1.615,0.818-2.854c0-1.231-0.273-2.181-0.818-2.839
			s-1.328-0.984-2.352-0.984c-1.021,0-1.81,0.332-2.359,0.993C481.449,57.61,481.174,58.553,481.174,59.776z"/>
		<path fill="#333333" d="M494.879,61.862c0,0.718-0.264,1.281-0.789,1.699c-0.522,0.418-1.223,0.627-2.094,0.627
			c-1.047,0-1.85-0.115-2.408-0.346v-0.598c0.617,0.262,1.404,0.393,2.361,0.393c0.703,0,1.26-0.161,1.672-0.483
			c0.412-0.319,0.619-0.742,0.619-1.269c0-0.324-0.068-0.593-0.205-0.806s-0.359-0.407-0.668-0.583
			c-0.312-0.179-0.762-0.365-1.359-0.568c-0.875-0.301-1.479-0.626-1.813-0.976c-0.334-0.353-0.5-0.815-0.5-1.397
			c0-0.641,0.25-1.163,0.752-1.567c0.502-0.401,1.146-0.604,1.938-0.604c0.808,0,1.563,0.152,2.271,0.457l-0.22,0.516
			c-0.711-0.297-1.391-0.442-2.036-0.442c-0.636,0-1.14,0.146-1.515,0.438s-0.563,0.691-0.563,1.195
			c0,0.313,0.057,0.576,0.172,0.777c0.115,0.202,0.305,0.388,0.563,0.55c0.264,0.162,0.712,0.354,1.351,0.583
			c0.668,0.229,1.17,0.454,1.506,0.671s0.58,0.463,0.734,0.735C494.801,61.138,494.879,61.471,494.879,61.862z"/>
		<path fill="#333333" d="M502.449,64.071h-0.732l-3.287-4.521l-1.143,1.008v3.517h-0.598V55.51h0.598v4.453l0.949-0.949
			l3.354-3.504h0.765l-3.513,3.621L502.449,64.071z"/>
	</g>
	<g>
		<path fill="#333333" d="M582.143,62.412h-0.729l-3.287-4.523l-1.143,1.008v3.519h-0.601v-8.566h0.601V58.3l0.946-0.949
			l3.357-3.504h0.762l-3.51,3.621L582.143,62.412z"/>
		<path fill="#333333" d="M583.355,62.412v-8.566h0.598v8.566H583.355z"/>
		<path fill="#333333" d="M593.58,58.117c0,1.356-0.34,2.435-1.021,3.226c-0.68,0.791-1.614,1.187-2.813,1.187
			c-1.191,0-2.127-0.396-2.807-1.187c-0.683-0.791-1.021-1.87-1.021-3.237c0-1.36,0.342-2.437,1.027-3.22
			c0.685-0.783,1.623-1.175,2.811-1.175c1.195,0,2.131,0.394,2.807,1.181C593.241,55.679,593.58,56.753,593.58,58.117z
			 M586.572,58.117c0,1.227,0.271,2.175,0.817,2.845c0.55,0.67,1.332,1.005,2.355,1.005c1.031,0,1.817-0.332,2.363-0.996
			c0.545-0.664,0.815-1.615,0.815-2.854c0-1.234-0.271-2.184-0.815-2.842c-0.546-0.655-1.328-0.984-2.354-0.984
			c-1.02,0-1.807,0.332-2.357,0.996C586.847,55.951,586.572,56.894,586.572,58.117z"/>
		<path fill="#333333" d="M600.277,60.203c0,0.715-0.267,1.278-0.789,1.696c-0.525,0.418-1.226,0.627-2.097,0.627
			c-1.047,0-1.85-0.112-2.405-0.346v-0.598c0.614,0.262,1.401,0.393,2.358,0.393c0.703,0,1.263-0.161,1.672-0.48
			c0.412-0.322,0.619-0.745,0.619-1.271c0-0.324-0.065-0.593-0.205-0.806c-0.137-0.213-0.356-0.407-0.668-0.583
			c-0.309-0.176-0.762-0.365-1.356-0.568c-0.875-0.301-1.48-0.626-1.814-0.976c-0.334-0.353-0.5-0.815-0.5-1.397
			c0-0.641,0.25-1.163,0.752-1.564c0.502-0.404,1.148-0.606,1.938-0.606c0.805,0,1.561,0.152,2.268,0.457l-0.217,0.516
			c-0.711-0.297-1.391-0.442-2.039-0.442c-0.633,0-1.137,0.146-1.512,0.438s-0.563,0.691-0.563,1.195
			c0,0.316,0.06,0.576,0.172,0.779c0.115,0.203,0.308,0.386,0.566,0.548s0.711,0.354,1.348,0.583
			c0.668,0.229,1.17,0.454,1.506,0.671s0.58,0.463,0.734,0.738C600.199,59.479,600.277,59.812,600.277,60.203z"/>
		<path fill="#333333" d="M607.848,62.412h-0.729l-3.287-4.523l-1.146,1.008v3.519h-0.598v-8.566h0.598V58.3l0.949-0.949
			l3.357-3.504h0.762l-3.51,3.621L607.848,62.412z"/>
	</g>
	<g>
		<path fill="#333333" d="M170.104,64.498h-0.732l-3.287-4.523l-1.143,1.008V64.5h-0.598v-8.566h0.598v4.453l0.949-0.949
			l3.357-3.504h0.762l-3.51,3.621L170.104,64.498z"/>
		<path fill="#333333" d="M171.317,64.498v-8.566h0.598v8.566H171.317z"/>
		<path fill="#333333" d="M181.542,60.203c0,1.356-0.34,2.435-1.02,3.226s-1.617,1.188-2.813,1.188
			c-1.191,0-2.127-0.396-2.807-1.188c-0.68-0.791-1.02-1.87-1.02-3.237c0-1.36,0.342-2.437,1.027-3.22
			c0.685-0.783,1.623-1.175,2.811-1.175c1.195,0,2.131,0.394,2.807,1.181C181.203,57.765,181.542,58.84,181.542,60.203z
			 M174.534,60.203c0,1.227,0.273,2.175,0.82,2.845s1.332,1.005,2.355,1.005c1.031,0,1.818-0.332,2.363-0.996
			c0.545-0.664,0.818-1.615,0.818-2.854c0-1.234-0.273-2.184-0.818-2.842c-0.545-0.655-1.328-0.984-2.352-0.984
			c-1.02,0-1.807,0.332-2.359,0.996C174.809,58.037,174.534,58.98,174.534,60.203z"/>
		<path fill="#333333" d="M188.239,62.289c0,0.715-0.264,1.278-0.789,1.696c-0.525,0.418-1.223,0.627-2.094,0.627
			c-1.047,0-1.85-0.112-2.408-0.346V63.67c0.617,0.262,1.404,0.393,2.361,0.393c0.703,0,1.26-0.161,1.672-0.48
			c0.412-0.322,0.619-0.745,0.619-1.271c0-0.324-0.068-0.593-0.205-0.806s-0.359-0.407-0.668-0.583s-0.762-0.365-1.359-0.568
			c-0.875-0.301-1.48-0.626-1.814-0.976c-0.334-0.353-0.5-0.815-0.5-1.397c0-0.641,0.25-1.163,0.752-1.564
			c0.502-0.404,1.148-0.606,1.938-0.606c0.805,0,1.561,0.152,2.268,0.457l-0.217,0.517c-0.711-0.298-1.391-0.443-2.039-0.443
			c-0.633,0-1.137,0.146-1.512,0.438s-0.563,0.691-0.563,1.195c0,0.316,0.057,0.576,0.172,0.779
			c0.115,0.203,0.305,0.386,0.566,0.548c0.261,0.162,0.711,0.354,1.348,0.583c0.668,0.229,1.17,0.454,1.506,0.671
			s0.58,0.463,0.734,0.738C188.161,61.565,188.239,61.898,188.239,62.289z"/>
		<path fill="#333333" d="M195.81,64.498h-0.732l-3.287-4.523l-1.143,1.008V64.5h-0.598v-8.566h0.598v4.453l0.949-0.949l3.357-3.504
			h0.762l-3.51,3.621L195.81,64.498z"/>
	</g>
	<g>
		<path fill="#333333" d="M468.553,634.293h2.353c1.059,0,1.836,0.18,2.332,0.539c0.496,0.356,0.743,0.899,0.743,1.629
			c0,0.496-0.149,0.906-0.452,1.236c-0.306,0.33-0.746,0.542-1.328,0.639v0.032c0.684,0.104,1.188,0.317,1.51,0.647
			s0.482,0.79,0.482,1.38c0,0.789-0.265,1.396-0.785,1.822c-0.523,0.426-1.269,0.639-2.229,0.639h-2.625V634.293L468.553,634.293z
			 M469.15,638.107h1.887c0.805,0,1.391-0.134,1.756-0.401c0.365-0.267,0.547-0.687,0.547-1.257c0-0.567-0.205-0.981-0.617-1.242
			c-0.412-0.258-1.024-0.387-1.844-0.387h-1.729V638.107z M469.15,638.635v3.697h2.016c1.586,0,2.379-0.646,2.379-1.937
			c0-1.176-0.836-1.764-2.508-1.764L469.15,638.635L469.15,638.635z"/>
		<path fill="#333333" d="M476.076,642.859v-8.563h0.598v8.004h4.084v0.563L476.076,642.859L476.076,642.859z"/>
		<path fill="#333333" d="M488.533,634.293v5.543c0,0.981-0.285,1.754-0.855,2.309c-0.567,0.555-1.365,0.832-2.385,0.832
			c-0.992,0-1.766-0.278-2.322-0.835c-0.556-0.557-0.836-1.333-0.836-2.329v-5.52h0.604v5.543c0,0.821,0.229,1.466,0.686,1.925
			s1.104,0.688,1.939,0.688c0.813,0,1.446-0.226,1.896-0.677s0.674-1.077,0.674-1.878v-5.602L488.533,634.293L488.533,634.293z"/>
		<path fill="#333333" d="M495.547,642.859h-4.682v-8.563h4.682v0.551h-4.084v3.24h3.855v0.551h-3.855v3.674h4.084V642.859z"/>
		<path fill="#333333" d="M502.215,640.65c0,0.715-0.262,1.281-0.787,1.699c-0.522,0.418-1.225,0.627-2.096,0.627
			c-1.047,0-1.85-0.115-2.408-0.346v-0.601c0.617,0.265,1.404,0.396,2.361,0.396c0.703,0,1.262-0.161,1.674-0.483
			s0.617-0.745,0.617-1.269c0-0.324-0.068-0.595-0.205-0.809c-0.137-0.213-0.359-0.404-0.668-0.583
			c-0.309-0.176-0.762-0.362-1.359-0.565c-0.875-0.303-1.479-0.626-1.813-0.979c-0.334-0.35-0.502-0.813-0.502-1.396
			c0-0.644,0.252-1.163,0.754-1.567c0.502-0.403,1.146-0.604,1.936-0.604c0.808,0,1.563,0.149,2.271,0.457l-0.218,0.516
			c-0.713-0.297-1.393-0.445-2.038-0.445c-0.636,0-1.14,0.146-1.515,0.439s-0.563,0.688-0.563,1.192
			c0,0.316,0.059,0.576,0.174,0.779s0.303,0.386,0.564,0.548c0.261,0.162,0.711,0.356,1.348,0.583
			c0.668,0.23,1.17,0.454,1.506,0.671c0.336,0.22,0.582,0.464,0.736,0.738C502.138,639.926,502.215,640.26,502.215,640.65z"/>
		<path fill="#333333" d="M507.143,642.859v-8.563h0.601v8.004h4.084v0.563L507.143,642.859L507.143,642.859z"/>
		<path fill="#333333" d="M520.502,638.564c0,1.359-0.34,2.435-1.02,3.226c-0.683,0.791-1.617,1.188-2.813,1.188
			c-1.19,0-2.127-0.396-2.807-1.188c-0.683-0.791-1.021-1.867-1.021-3.234c0-1.363,0.344-2.438,1.029-3.22
			c0.685-0.783,1.621-1.178,2.809-1.178c1.195,0,2.131,0.396,2.81,1.184C520.163,636.125,520.502,637.198,520.502,638.564z
			 M513.494,638.564c0,1.229,0.271,2.175,0.82,2.845c0.547,0.67,1.332,1.005,2.354,1.005c1.031,0,1.82-0.331,2.365-0.993
			c0.545-0.664,0.813-1.615,0.813-2.854c0-1.234-0.271-2.181-0.813-2.839s-1.33-0.987-2.354-0.987c-1.02,0-1.805,0.332-2.354,0.996
			C513.771,636.399,513.494,637.342,513.494,638.564z"/>
		<path fill="#333333" d="M528.77,634.293v5.543c0,0.981-0.282,1.754-0.854,2.309s-1.365,0.832-2.385,0.832
			c-0.992,0-1.769-0.278-2.322-0.835s-0.836-1.333-0.836-2.329v-5.52h0.604v5.543c0,0.821,0.229,1.466,0.688,1.925
			s1.104,0.688,1.938,0.688c0.816,0,1.449-0.226,1.898-0.677s0.674-1.077,0.674-1.878v-5.602L528.77,634.293L528.77,634.293z"/>
		<path fill="#333333" d="M537.33,642.859h-0.604l-5.071-7.604h-0.047c0.047,0.903,0.067,1.59,0.067,2.051v5.555h-0.573v-8.563h0.6
			l5.066,7.594h0.034c-0.034-0.703-0.053-1.371-0.053-2.004v-5.59h0.58L537.33,642.859L537.33,642.859z"/>
		<path fill="#333333" d="M543.125,638.541h3.158v3.905c-0.828,0.354-1.76,0.527-2.795,0.527c-1.354,0-2.39-0.382-3.107-1.146
			c-0.72-0.764-1.082-1.845-1.082-3.24c0-0.871,0.183-1.646,0.537-2.317c0.357-0.673,0.869-1.194,1.535-1.563
			c0.666-0.365,1.43-0.551,2.293-0.551c0.934,0,1.771,0.172,2.514,0.519l-0.237,0.539c-0.742-0.347-1.515-0.519-2.312-0.519
			c-1.129,0-2.021,0.352-2.686,1.046c-0.663,0.697-0.994,1.641-0.994,2.821c0,1.289,0.313,2.259,0.94,2.909
			c0.632,0.647,1.556,0.976,2.771,0.976c0.789,0,1.459-0.108,2.01-0.334v-3.012h-2.549L543.125,638.541L543.125,638.541z"/>
		<path fill="#333333" d="M553.115,642.859h-4.685v-8.563h4.685v0.551h-4.084v3.24h3.854v0.551h-3.854v3.674h4.084V642.859z"/>
	</g>
	<g>
		<path fill="#333333" d="M615.793,584.336h-3.479l-1.195,3.021h-0.662l3.445-8.602h0.381l3.375,8.602h-0.674L615.793,584.336z
			 M612.529,583.797h3.063l-1.166-3.088c-0.098-0.242-0.215-0.578-0.352-1.011c-0.105,0.375-0.224,0.717-0.349,1.021
			L612.529,583.797z"/>
		<path fill="#333333" d="M625.695,587.359h-0.492l-1.881-6.606c-0.156-0.545-0.273-0.988-0.354-1.338
			c-0.063,0.342-0.147,0.729-0.266,1.174c-0.116,0.439-0.746,2.696-1.892,6.771h-0.506l-2.354-8.563h0.627l1.5,5.52
			c0.059,0.223,0.113,0.428,0.164,0.617c0.051,0.188,0.098,0.367,0.139,0.533s0.078,0.324,0.111,0.479s0.063,0.313,0.09,0.467
			c0.094-0.528,0.293-1.338,0.599-2.42l1.467-5.194h0.661l1.718,5.965c0.197,0.688,0.342,1.242,0.428,1.664
			c0.051-0.281,0.117-0.58,0.197-0.896c0.08-0.313,0.682-2.561,1.807-6.729h0.604L625.695,587.359z"/>
		<path fill="#333333" d="M633.699,584.336h-3.48l-1.192,3.021h-0.662l3.442-8.602h0.381l3.375,8.602h-0.674L633.699,584.336z
			 M630.436,583.797h3.064l-1.166-3.088c-0.098-0.242-0.215-0.578-0.352-1.011c-0.105,0.375-0.224,0.717-0.349,1.021
			L630.436,583.797z"/>
		<path fill="#333333" d="M638.744,583.48l2.508-4.688h0.646l-2.854,5.259v3.311h-0.615v-3.264l-2.862-5.306h0.686L638.744,583.48z"
			/>
		<path fill="#333333" d="M616.811,601.759h-0.729l-3.287-4.523l-1.143,1.008v3.519h-0.601v-8.566h0.601v4.453l0.946-0.949
			l3.357-3.504h0.762l-3.51,3.621L616.811,601.759z"/>
		<path fill="#333333" d="M618.023,601.759v-8.566h0.598v8.566H618.023z"/>
		<path fill="#333333" d="M628.248,597.464c0,1.356-0.34,2.435-1.021,3.226c-0.68,0.791-1.614,1.188-2.813,1.188
			c-1.191,0-2.127-0.396-2.807-1.188c-0.683-0.791-1.021-1.87-1.021-3.237c0-1.36,0.342-2.437,1.027-3.22
			c0.685-0.783,1.623-1.175,2.811-1.175c1.195,0,2.131,0.394,2.807,1.181C627.909,595.026,628.248,596.101,628.248,597.464z
			 M621.24,597.464c0,1.227,0.271,2.175,0.817,2.845c0.55,0.67,1.332,1.005,2.355,1.005c1.031,0,1.817-0.332,2.363-0.996
			c0.545-0.664,0.815-1.615,0.815-2.854c0-1.234-0.271-2.184-0.815-2.839c-0.546-0.658-1.328-0.987-2.354-0.987
			c-1.02,0-1.807,0.332-2.357,0.996C621.515,595.298,621.24,596.24,621.24,597.464z"/>
		<path fill="#333333" d="M634.945,599.55c0,0.715-0.267,1.278-0.789,1.696c-0.525,0.42-1.226,0.629-2.094,0.629
			c-1.05,0-1.853-0.114-2.408-0.348v-0.598c0.617,0.262,1.401,0.393,2.358,0.393c0.703,0,1.263-0.161,1.673-0.48
			c0.411-0.322,0.618-0.745,0.618-1.271c0-0.324-0.065-0.593-0.205-0.806c-0.137-0.213-0.356-0.407-0.668-0.583
			c-0.309-0.176-0.762-0.365-1.356-0.568c-0.875-0.301-1.48-0.626-1.814-0.976c-0.334-0.353-0.5-0.815-0.5-1.397
			c0-0.641,0.25-1.163,0.752-1.564c0.502-0.404,1.148-0.606,1.938-0.606c0.805,0,1.561,0.152,2.268,0.457l-0.217,0.516
			c-0.711-0.297-1.391-0.442-2.039-0.442c-0.633,0-1.137,0.146-1.512,0.438s-0.563,0.691-0.563,1.195
			c0,0.316,0.06,0.576,0.172,0.779c0.115,0.203,0.308,0.386,0.566,0.548s0.711,0.354,1.348,0.583
			c0.668,0.229,1.17,0.454,1.506,0.671s0.58,0.463,0.734,0.738C634.867,598.823,634.945,599.156,634.945,599.55z"/>
		<path fill="#333333" d="M642.516,601.759h-0.729l-3.287-4.523l-1.146,1.008v3.519h-0.598v-8.566h0.598v4.453l0.949-0.949
			l3.357-3.504h0.762l-3.51,3.621L642.516,601.759z"/>
	</g>
	<g>
		<path fill="#333333" d="M81.147,577.842h-0.732l-3.287-4.523l-1.143,1.008v3.519h-0.598v-8.566h0.598v4.453l0.949-0.949
			l3.357-3.504h0.762l-3.51,3.621L81.147,577.842z"/>
		<path fill="#333333" d="M82.36,577.842v-8.566h0.598v8.566H82.36z"/>
		<path fill="#333333" d="M92.585,573.547c0,1.356-0.34,2.435-1.02,3.226s-1.617,1.188-2.813,1.188
			c-1.191,0-2.127-0.396-2.807-1.188c-0.68-0.791-1.02-1.87-1.02-3.237c0-1.36,0.343-2.437,1.028-3.22s1.622-1.175,2.81-1.175
			c1.195,0,2.131,0.394,2.807,1.181C92.246,571.109,92.585,572.184,92.585,573.547z M85.577,573.547c0,1.227,0.273,2.175,0.82,2.845
			s1.332,1.005,2.355,1.005c1.031,0,1.819-0.332,2.364-0.996c0.545-0.664,0.817-1.615,0.817-2.854c0-1.234-0.272-2.184-0.817-2.842
			c-0.545-0.655-1.329-0.984-2.353-0.984c-1.02,0-1.806,0.332-2.358,0.996C85.853,571.381,85.577,572.323,85.577,573.547z"/>
		<path fill="#333333" d="M99.282,575.633c0,0.715-0.263,1.278-0.788,1.696c-0.525,0.419-1.224,0.63-2.095,0.63
			c-1.047,0-1.85-0.115-2.408-0.349v-0.598c0.617,0.262,1.404,0.393,2.361,0.393c0.703,0,1.261-0.161,1.673-0.48
			c0.412-0.322,0.618-0.745,0.618-1.271c0-0.323-0.068-0.593-0.205-0.806s-0.359-0.407-0.668-0.583s-0.762-0.365-1.359-0.568
			c-0.875-0.301-1.479-0.626-1.813-0.976c-0.334-0.353-0.501-0.815-0.501-1.397c0-0.641,0.251-1.163,0.753-1.564
			c0.502-0.404,1.147-0.606,1.937-0.606c0.805,0,1.561,0.152,2.268,0.457l-0.217,0.516c-0.711-0.297-1.391-0.442-2.039-0.442
			c-0.633,0-1.137,0.146-1.512,0.438s-0.563,0.691-0.563,1.195c0,0.316,0.058,0.576,0.173,0.779
			c0.115,0.203,0.304,0.386,0.565,0.548c0.261,0.162,0.711,0.354,1.348,0.583c0.668,0.229,1.17,0.454,1.506,0.671
			s0.581,0.463,0.735,0.738C99.205,574.906,99.282,575.24,99.282,575.633z"/>
		<path fill="#333333" d="M106.853,577.842h-0.732l-3.287-4.523l-1.143,1.008v3.519h-0.598v-8.566h0.598v4.453l0.949-0.949
			l3.357-3.504h0.762l-3.51,3.621L106.853,577.842z"/>
	</g>
	<g>
		<path fill="#333333" d="M576.168,648.909v4.685h-8.566v-4.685h0.554v4.084h3.237v-3.854h0.554v3.854h3.674v-4.084H576.168z"/>
		<path fill="#333333" d="M576.168,643.202l-7.91,3.193v0.047c0.484-0.031,0.98-0.047,1.488-0.047h6.422v0.574h-8.566v-0.927
			l7.535-3.034v-0.035l-7.535-3.035v-0.901h8.566v0.604h-6.492c-0.453,0-0.922-0.023-1.406-0.07v0.047l7.898,3.205V643.202z"/>
		<path fill="#333333" d="M576.168,631.938v4.682h-8.566v-4.682h0.554v4.084h3.237v-3.855h0.554v3.855h3.674v-4.084H576.168z"/>
		<path fill="#333333" d="M572.436,629.4h3.732v0.599h-8.566v-2.037c0-1.063,0.196-1.851,0.592-2.355
			c0.393-0.507,0.98-0.762,1.771-0.762c0.574,0,1.061,0.148,1.453,0.454c0.394,0.303,0.678,0.763,0.85,1.38l3.902-2.326v0.715
			l-3.732,2.209L572.436,629.4L572.436,629.4z M571.92,629.4v-1.635c0-0.724-0.161-1.283-0.482-1.683
			c-0.32-0.398-0.799-0.6-1.428-0.6c-0.649,0-1.127,0.195-1.424,0.586c-0.297,0.394-0.445,1.027-0.445,1.91v1.418L571.92,629.4
			L571.92,629.4z"/>
		<path fill="#333333" d="M571.85,619.495v-3.155h3.908c0.354,0.828,0.527,1.76,0.527,2.795c0,1.352-0.382,2.388-1.146,3.105
			c-0.764,0.723-1.845,1.081-3.242,1.081c-0.869,0-1.645-0.179-2.315-0.536c-0.673-0.354-1.194-0.867-1.563-1.533
			c-0.366-0.665-0.551-1.433-0.551-2.296c0-0.934,0.172-1.771,0.519-2.514l0.538,0.24c-0.346,0.742-0.518,1.512-0.518,2.309
			c0,1.129,0.35,2.024,1.046,2.688c0.697,0.664,1.641,0.993,2.821,0.993c1.289,0,2.259-0.314,2.909-0.943
			c0.647-0.629,0.976-1.553,0.976-2.771c0-0.788-0.109-1.459-0.334-2.012h-3.012v2.549L571.85,619.495L571.85,619.495z"/>
		<path fill="#333333" d="M576.168,609.508v4.682h-8.566v-4.682h0.554v4.084h3.237v-3.855h0.554v3.855h3.674v-4.084H576.168z"/>
		<path fill="#333333" d="M576.168,601.34v0.604l-7.604,5.074v0.047c0.903-0.047,1.59-0.07,2.051-0.07h5.555v0.574h-8.563v-0.598
			l7.594-5.068v-0.035c-0.703,0.035-1.371,0.056-2.004,0.056h-5.591v-0.58L576.168,601.34L576.168,601.34z"/>
		<path fill="#333333" d="M568.018,595.258c0,1.071,0.347,1.92,1.031,2.537c0.688,0.614,1.629,0.926,2.824,0.926
			c1.223,0,2.172-0.291,2.848-0.873c0.679-0.582,1.017-1.414,1.017-2.496c0-0.719-0.095-1.379-0.275-1.98h0.527
			c0.196,0.566,0.299,1.273,0.299,2.121c0,1.203-0.392,2.15-1.166,2.845c-0.777,0.689-1.863,1.034-3.258,1.034
			c-0.871,0-1.642-0.162-2.306-0.492s-1.177-0.808-1.538-1.427c-0.358-0.616-0.542-1.339-0.542-2.156
			c0-0.837,0.156-1.584,0.472-2.244l0.539,0.237C568.174,593.911,568.018,594.57,568.018,595.258z"/>
		<path fill="#333333" d="M572.289,589.49l-4.688-2.508v-0.645l5.259,2.854h3.311v0.615h-3.264l-5.306,2.865v-0.688L572.289,589.49z
			"/>
		<path fill="#333333" d="M576.168,577.325v4.685h-8.566v-4.685h0.554v4.084h3.237v-3.854h0.554v3.854h3.674v-4.084H576.168z"/>
		<path fill="#333333" d="M576.168,570.145v0.686l-3.996,2.531l3.996,2.578v0.662l-4.465-2.883l-4.104,2.619v-0.677l3.669-2.313
			L567.6,571v-0.642l4.093,2.654L576.168,570.145z"/>
		<path fill="#333333" d="M576.168,568.932h-8.566v-0.598h8.566V568.932z"/>
		<path fill="#333333" d="M576.168,563.676v0.604h-8.004v2.783h-0.563v-6.17h0.563v2.783H576.168L576.168,563.676z"/>
	</g>
	<g>
		<path fill="#333333" d="M44.124,133.266c-0.895,0-1.6,0.287-2.114,0.859c-0.514,0.569-0.771,1.354-0.771,2.354
			c0,1.021,0.243,1.813,0.728,2.373c0.485,0.563,1.178,0.845,2.08,0.845c0.599,0,1.149-0.074,1.65-0.229v0.438
			c-0.472,0.166-1.061,0.249-1.768,0.249c-1.002,0-1.792-0.321-2.368-0.972c-0.576-0.646-0.864-1.553-0.864-2.715
			c0-0.726,0.138-1.366,0.413-1.919s0.67-0.98,1.187-1.282s1.116-0.452,1.799-0.452c0.697,0,1.32,0.13,1.87,0.394l-0.2,0.446
			C45.244,133.396,44.697,133.266,44.124,133.266z"/>
		<path fill="#333333" d="M53.289,136.479c0,1.133-0.283,2.029-0.85,2.688s-1.348,0.986-2.344,0.986
			c-0.993,0-1.772-0.327-2.339-0.986c-0.567-0.659-0.85-1.562-0.85-2.698c0-1.136,0.286-2.03,0.857-2.683
			c0.571-0.653,1.352-0.979,2.341-0.979c0.996,0,1.776,0.328,2.339,0.984C53.006,134.447,53.289,135.342,53.289,136.479z
			 M47.449,136.479c0,1.022,0.228,1.813,0.684,2.371c0.456,0.561,1.11,0.837,1.963,0.837c0.859,0,1.516-0.274,1.97-0.83
			c0.454-0.553,0.681-1.346,0.681-2.378c0-1.026-0.227-1.814-0.681-2.366c-0.454-0.549-1.107-0.82-1.96-0.82
			c-0.85,0-1.505,0.274-1.965,0.83C47.681,134.673,47.449,135.459,47.449,136.479z"/>
		<path fill="#333333" d="M60.12,140.058h-0.503l-4.229-6.338H55.35c0.039,0.755,0.059,1.325,0.059,1.709v4.629H54.93v-7.139h0.498
			l4.224,6.328h0.029c-0.029-0.586-0.044-1.146-0.044-1.67v-4.658h0.483V140.058z"/>
		<path fill="#333333" d="M64.002,140.058h-0.503v-6.67H61.18v-0.469h5.142v0.469h-2.319L64.002,140.058L64.002,140.058z"/>
		<path fill="#333333" d="M67.879,136.947v3.11h-0.498v-7.139h1.699c0.885,0,1.54,0.164,1.963,0.491
			c0.423,0.324,0.635,0.816,0.635,1.477c0,0.479-0.126,0.882-0.378,1.211s-0.636,0.565-1.15,0.708l1.938,3.252h-0.596l-1.841-3.11
			H67.879L67.879,136.947z M67.879,136.518h1.362c0.602,0,1.069-0.134,1.401-0.403c0.332-0.269,0.498-0.662,0.498-1.188
			c0-0.543-0.163-0.939-0.488-1.188c-0.325-0.245-0.856-0.368-1.592-0.368h-1.182L67.879,136.518L67.879,136.518z"/>
		<path fill="#333333" d="M79.324,136.479c0,1.133-0.283,2.029-0.85,2.688s-1.348,0.986-2.344,0.986
			c-0.993,0-1.772-0.327-2.339-0.986s-0.85-1.562-0.85-2.698c0-1.136,0.286-2.03,0.857-2.683c0.571-0.653,1.352-0.979,2.341-0.979
			c0.996,0,1.776,0.328,2.339,0.984C79.041,134.447,79.324,135.342,79.324,136.479z M73.484,136.479
			c0,1.022,0.228,1.813,0.684,2.371c0.456,0.561,1.11,0.837,1.963,0.837c0.859,0,1.516-0.274,1.97-0.83
			c0.454-0.553,0.681-1.346,0.681-2.378c0-1.026-0.227-1.814-0.681-2.366c-0.454-0.549-1.107-0.82-1.96-0.82
			c-0.85,0-1.505,0.274-1.965,0.83C73.716,134.673,73.484,135.459,73.484,136.479z"/>
		<path fill="#333333" d="M80.965,140.058v-7.139h0.498v6.67h3.403v0.469H80.965z"/>
		<path fill="#333333" d="M49.158,148.947v3.11H48.66v-7.139h1.699c0.885,0,1.54,0.164,1.963,0.491
			c0.423,0.324,0.635,0.816,0.635,1.477c0,0.479-0.126,0.882-0.378,1.211s-0.636,0.565-1.15,0.708l1.938,3.252h-0.596l-1.841-3.11
			H49.158L49.158,148.947z M49.158,148.518h1.362c0.602,0,1.069-0.134,1.401-0.403c0.332-0.269,0.498-0.662,0.498-1.188
			c0-0.543-0.163-0.939-0.488-1.188c-0.325-0.245-0.856-0.368-1.592-0.368h-1.182L49.158,148.518L49.158,148.518z"/>
		<path fill="#333333" d="M60.604,148.479c0,1.133-0.283,2.029-0.85,2.688s-1.348,0.986-2.344,0.986
			c-0.993,0-1.772-0.327-2.339-0.986c-0.567-0.659-0.85-1.562-0.85-2.698c0-1.136,0.286-2.03,0.857-2.683
			c0.571-0.653,1.352-0.979,2.341-0.979c0.996,0,1.776,0.328,2.339,0.984C60.321,146.447,60.604,147.342,60.604,148.479z
			 M54.764,148.479c0,1.022,0.228,1.813,0.684,2.371c0.456,0.561,1.11,0.837,1.963,0.837c0.859,0,1.516-0.274,1.97-0.83
			c0.454-0.553,0.681-1.346,0.681-2.378c0-1.026-0.227-1.814-0.681-2.366c-0.454-0.549-1.107-0.82-1.96-0.82
			c-0.85,0-1.505,0.274-1.965,0.83C54.996,146.673,54.764,147.459,54.764,148.479z"/>
		<path fill="#333333" d="M68.245,148.479c0,1.133-0.283,2.029-0.85,2.688s-1.348,0.986-2.344,0.986
			c-0.993,0-1.772-0.327-2.339-0.986s-0.85-1.562-0.85-2.698c0-1.136,0.286-2.03,0.857-2.683c0.571-0.653,1.352-0.979,2.341-0.979
			c0.996,0,1.776,0.328,2.339,0.984C67.962,146.447,68.245,147.342,68.245,148.479z M62.405,148.479
			c0,1.022,0.228,1.813,0.684,2.371c0.456,0.561,1.11,0.837,1.963,0.837c0.859,0,1.516-0.274,1.97-0.83
			c0.454-0.553,0.681-1.346,0.681-2.378c0-1.026-0.227-1.814-0.681-2.366c-0.454-0.549-1.107-0.82-1.96-0.82
			c-0.85,0-1.505,0.274-1.965,0.83C62.637,146.673,62.405,147.459,62.405,148.479z"/>
		<path fill="#333333" d="M73.025,152.058l-2.661-6.592h-0.039c0.026,0.404,0.039,0.817,0.039,1.24v5.352h-0.479v-7.139h0.771
			l2.529,6.276h0.029l2.529-6.276h0.752v7.139h-0.503v-5.41c0-0.377,0.02-0.768,0.059-1.172h-0.039l-2.671,6.582H73.025
			L73.025,152.058z"/>
	</g>
	<g>
		<path fill="#333333" d="M108.568,38.507h-0.498v-7.139h3.911v0.459h-3.413v3.024h3.223v0.464h-3.223V38.507z"/>
		<path fill="#333333" d="M116.527,35.988h-2.9l-0.996,2.521h-0.552l2.871-7.168h0.317l2.813,7.168h-0.562L116.527,35.988z
			 M113.807,35.539h2.554l-0.972-2.573c-0.082-0.202-0.179-0.482-0.293-0.84c-0.088,0.313-0.184,0.596-0.288,0.85L113.807,35.539z"
			/>
		<path fill="#333333" d="M122.23,38.507l-2.661-6.592h-0.039c0.026,0.401,0.039,0.814,0.039,1.237v5.354h-0.479v-7.139h0.771
			l2.529,6.276h0.029l2.529-6.276h0.752v7.139h-0.503v-5.41c0-0.377,0.02-0.768,0.059-1.172h-0.039l-2.671,6.582H122.23z"/>
		<path fill="#333333" d="M127.718,38.507v-7.139h0.498v7.139H127.718z"/>
		<path fill="#333333" d="M130.238,38.507v-7.139h0.498v6.67h3.403v0.469H130.238z"/>
		<path fill="#333333" d="M137.01,35.275l2.09-3.903h0.537l-2.378,4.38v2.759h-0.513v-2.72l-2.388-4.419h0.571L137.01,35.275z"/>
		<path fill="#333333" d="M115.252,43.369h1.958c0.882,0,1.53,0.147,1.943,0.446c0.413,0.302,0.62,0.752,0.62,1.357
			c0,0.414-0.126,0.758-0.378,1.033c-0.252,0.272-0.621,0.452-1.106,0.527v0.029c0.57,0.084,0.989,0.265,1.257,0.54
			s0.403,0.658,0.403,1.15c0,0.655-0.218,1.164-0.654,1.519c-0.436,0.355-1.055,0.532-1.855,0.532h-2.188V43.369z M115.75,46.547
			h1.572c0.67,0,1.158-0.111,1.462-0.334c0.304-0.226,0.457-0.572,0.457-1.047c0-0.478-0.172-0.82-0.515-1.035
			c-0.343-0.215-0.855-0.322-1.536-0.322h-1.44V46.547z M115.75,46.987v3.081h1.68c1.322,0,1.982-0.537,1.982-1.608
			c0-0.98-0.697-1.473-2.09-1.473H115.75z"/>
		<path fill="#333333" d="M124.959,47.988h-2.9l-0.996,2.521h-0.552l2.871-7.168h0.317l2.813,7.168h-0.562L124.959,47.988z
			 M122.24,47.539h2.554l-0.972-2.573c-0.082-0.202-0.179-0.482-0.293-0.84c-0.088,0.313-0.184,0.596-0.288,0.85L122.24,47.539z"/>
		<path fill="#333333" d="M128.021,47.397v3.11h-0.498v-7.139h1.699c0.885,0,1.54,0.164,1.963,0.488
			c0.423,0.327,0.635,0.819,0.635,1.479c0,0.479-0.126,0.882-0.378,1.211s-0.636,0.563-1.15,0.708l1.938,3.252h-0.596l-1.841-3.11
			H128.021z M128.021,46.967h1.362c0.602,0,1.069-0.134,1.401-0.403c0.332-0.269,0.498-0.665,0.498-1.188
			c0-0.543-0.163-0.939-0.488-1.188s-0.856-0.371-1.592-0.371h-1.182L128.021,46.967L128.021,46.967z"/>
	</g>
	<rect x="461.301" y="624.84" fill="none" stroke="#CCCCCC" stroke-miterlimit="10" width="98.581" height="28.982"/>
	<g>
		<path fill="#333333" d="M376.107,629.555c0,0.828-0.281,1.463-0.844,1.904c-0.563,0.438-1.359,0.659-2.394,0.659h-1.324v3.539
			h-0.598v-8.563h2.098C375.088,627.094,376.107,627.911,376.107,629.555z M371.549,631.605h1.178c0.965,0,1.662-0.16,2.092-0.479
			c0.433-0.316,0.646-0.834,0.646-1.549c0-0.66-0.201-1.147-0.607-1.469c-0.405-0.321-1.034-0.477-1.889-0.477h-1.418
			L371.549,631.605L371.549,631.605z"/>
		<path fill="#333333" d="M377.971,635.657v-8.563h0.598v8.004h4.084v0.563L377.971,635.657L377.971,635.657z"/>
		<path fill="#333333" d="M388.254,632.637h-3.48l-1.192,3.021h-0.662l3.442-8.602h0.384l3.375,8.602h-0.677L388.254,632.637z
			 M384.99,632.098h3.064l-1.166-3.088c-0.101-0.242-0.218-0.578-0.354-1.008c-0.104,0.375-0.224,0.715-0.349,1.02L384.99,632.098z"
			/>
		<path fill="#333333" d="M393.563,635.657h-0.604v-8.004h-2.783v-0.563h6.17v0.563h-2.783V635.657L393.563,635.657z"/>
		<path fill="#333333" d="M397.617,635.657v-8.563h0.598v8.563H397.617z"/>
		<path fill="#333333" d="M406.869,635.657h-0.604l-5.074-7.604h-0.047c0.047,0.906,0.067,1.59,0.067,2.051v5.555h-0.571v-8.563
			h0.598l5.068,7.594h0.032c-0.032-0.703-0.053-1.371-0.053-2.004v-5.59h0.579L406.869,635.657L406.869,635.657z"/>
		<path fill="#333333" d="M415.594,627.094v5.543c0,0.981-0.285,1.754-0.855,2.309c-0.567,0.558-1.362,0.832-2.385,0.832
			c-0.992,0-1.768-0.279-2.324-0.836c-0.555-0.557-0.834-1.332-0.834-2.328v-5.52h0.604v5.543c0,0.824,0.229,1.465,0.687,1.924
			c0.459,0.459,1.104,0.689,1.938,0.689c0.816,0,1.449-0.229,1.897-0.681c0.449-0.45,0.675-1.075,0.675-1.877v-5.602
			L415.594,627.094L415.594,627.094z"/>
		<path fill="#333333" d="M421.693,635.657l-3.193-7.907h-0.047c0.031,0.481,0.047,0.979,0.047,1.485v6.422h-0.574v-8.563h0.926
			l3.035,7.535h0.035l3.035-7.535h0.902v8.563h-0.604v-6.489c0-0.453,0.023-0.925,0.07-1.406h-0.047l-3.205,7.896H421.693
			L421.693,635.657z"/>
		<path fill="#333333" d="M388.793,647.851c0,0.715-0.264,1.281-0.789,1.699s-1.223,0.627-2.094,0.627
			c-1.047,0-1.85-0.115-2.408-0.349v-0.598c0.617,0.262,1.404,0.394,2.361,0.394c0.703,0,1.26-0.159,1.672-0.481
			s0.619-0.745,0.619-1.271c0-0.321-0.068-0.593-0.205-0.806s-0.359-0.407-0.668-0.583s-0.762-0.365-1.359-0.568
			c-0.875-0.301-1.48-0.625-1.814-0.976c-0.334-0.35-0.5-0.815-0.5-1.396c0-0.642,0.25-1.161,0.752-1.565s1.148-0.606,1.938-0.606
			c0.806,0,1.562,0.152,2.269,0.457l-0.217,0.519c-0.711-0.297-1.392-0.445-2.039-0.445c-0.634,0-1.138,0.146-1.513,0.439
			s-0.563,0.688-0.563,1.192c0,0.316,0.06,0.576,0.175,0.779c0.112,0.203,0.305,0.386,0.563,0.548
			c0.262,0.162,0.711,0.356,1.348,0.583c0.671,0.229,1.173,0.454,1.509,0.671s0.58,0.463,0.731,0.738
			C388.715,647.125,388.793,647.46,388.793,647.851z"/>
		<path fill="#333333" d="M396.902,641.49v5.543c0,0.984-0.285,1.756-0.855,2.312c-0.57,0.555-1.365,0.832-2.385,0.832
			c-0.992,0-1.768-0.278-2.324-0.835c-0.556-0.56-0.834-1.333-0.834-2.329v-5.521h0.604v5.543c0,0.824,0.229,1.469,0.688,1.928
			s1.104,0.688,1.938,0.688c0.815,0,1.449-0.226,1.897-0.677c0.449-0.451,0.675-1.077,0.675-1.878v-5.604H396.902L396.902,641.49z"
			/>
		<path fill="#333333" d="M399.234,650.06v-8.566h0.598v8.566H399.234z"/>
		<path fill="#333333" d="M404.49,650.06h-0.604v-8.004h-2.782v-0.563h6.17v0.563h-2.781L404.49,650.06L404.49,650.06z"/>
		<path fill="#333333" d="M413.227,650.06h-4.682v-8.566h4.682v0.554h-4.084v3.237h3.855v0.554h-3.855v3.674h4.084V650.06z"/>
	</g>
	<rect x="296.897" y="544.444" fill="none" stroke="#CCCCCC" stroke-miterlimit="10" width="28.407" height="21.836"/>
	<polygon fill="none" stroke="#CCCCCC" stroke-miterlimit="10" points="339.946,544.444 339.946,556.354 339.946,566.28 
		355.555,566.28 355.555,544.444 	"/>
	<g>
		<path fill="#231F20" d="M168.908,172.154c0,1.242-0.422,2.194-1.266,2.856s-2.039,0.993-3.586,0.993h-1.986v5.309h-0.896v-12.85
			h3.146C167.379,168.462,168.908,169.693,168.908,172.154z M162.07,175.23h1.767c1.447,0,2.493-0.239,3.138-0.716
			s0.967-1.252,0.967-2.325c0-0.99-0.305-1.724-0.914-2.202s-1.553-0.716-2.83-0.716h-2.127V175.23z"/>
		<path fill="#231F20" d="M177.891,176.777h-5.221l-1.793,4.535h-0.993l5.168-12.902h0.571l5.063,12.902h-1.011L177.891,176.777z
			 M172.995,175.968h4.597l-1.749-4.632c-0.146-0.363-0.322-0.867-0.527-1.512c-0.158,0.563-0.331,1.072-0.519,1.529
			L172.995,175.968z"/>
		<path fill="#231F20" d="M191.953,168.462v8.314c0,1.477-0.428,2.631-1.283,3.463s-2.048,1.248-3.577,1.248
			c-1.488,0-2.65-0.417-3.485-1.252s-1.252-2-1.252-3.494v-8.279h0.905v8.314c0,1.236,0.343,2.199,1.028,2.887
			s1.655,1.033,2.909,1.033c1.225,0,2.174-0.338,2.848-1.015s1.011-1.616,1.011-2.817v-8.402H191.953z"/>
		<path fill="#231F20" d="M195.451,181.312v-12.85h0.896v12.006h6.126v0.844H195.451z"/>
		<path fill="#231F20" d="M210.261,175.713v5.599h-0.896v-12.85h3.059c1.594,0,2.771,0.294,3.533,0.883s1.143,1.475,1.143,2.659
			c0,0.861-0.227,1.588-0.681,2.18s-1.144,1.017-2.07,1.274l3.489,5.854h-1.072l-3.313-5.599H210.261z M210.261,174.94h2.452
			c1.084,0,1.925-0.242,2.522-0.725s0.896-1.197,0.896-2.14c0-0.979-0.293-1.69-0.879-2.136s-1.541-0.668-2.865-0.668h-2.127V174.94
			z"/>
		<path fill="#231F20" d="M230.862,174.869c0,2.039-0.51,3.652-1.529,4.838s-2.426,1.78-4.219,1.78c-1.787,0-3.19-0.593-4.21-1.78
			s-1.529-2.805-1.529-4.856c0-2.045,0.514-3.655,1.542-4.83s2.433-1.762,4.214-1.762c1.793,0,3.196,0.59,4.21,1.771
			S230.862,172.824,230.862,174.869z M220.351,174.869c0,1.84,0.41,3.262,1.23,4.267s1.998,1.507,3.533,1.507
			c1.547,0,2.729-0.498,3.546-1.494s1.226-2.423,1.226-4.28c0-1.852-0.409-3.271-1.226-4.258s-1.994-1.481-3.529-1.481
			c-1.529,0-2.708,0.498-3.538,1.494S220.351,173.035,220.351,174.869z"/>
		<path fill="#231F20" d="M233.815,168.462h3.524c1.588,0,2.754,0.27,3.498,0.809s1.116,1.354,1.116,2.443
			c0,0.744-0.227,1.364-0.681,1.859s-1.118,0.813-1.991,0.954v0.053c1.025,0.152,1.78,0.476,2.263,0.971s0.725,1.185,0.725,2.07
			c0,1.184-0.393,2.095-1.178,2.733s-1.898,0.958-3.34,0.958h-3.938V168.462z M234.712,174.184h2.83
			c1.207,0,2.084-0.201,2.632-0.602s0.822-1.03,0.822-1.885s-0.309-1.477-0.927-1.863s-1.54-0.58-2.764-0.58h-2.593V174.184z
			 M234.712,174.975v5.546h3.023c2.379,0,3.568-0.967,3.568-2.9c0-1.764-1.254-2.646-3.762-2.646H234.712z"/>
		<path fill="#231F20" d="M245.101,181.312v-12.85h0.896v12.85H245.101z"/>
		<path fill="#231F20" d="M258.979,181.312h-0.905l-7.611-11.408h-0.07c0.07,1.359,0.105,2.385,0.105,3.076v8.332h-0.861v-12.85
			h0.896l7.603,11.391h0.053c-0.053-1.055-0.079-2.057-0.079-3.006v-8.385h0.87V181.312z"/>
		<path fill="#231F20" d="M269.71,177.998c0,1.072-0.394,1.922-1.182,2.549s-1.835,0.94-3.142,0.94c-1.57,0-2.774-0.173-3.612-0.519
			v-0.896c0.926,0.393,2.106,0.589,3.542,0.589c1.055,0,1.891-0.242,2.509-0.725s0.927-1.118,0.927-1.903
			c0-0.486-0.103-0.889-0.308-1.208s-0.539-0.611-1.002-0.875s-1.143-0.548-2.039-0.853c-1.313-0.451-2.219-0.939-2.72-1.463
			s-0.751-1.223-0.751-2.096c0-0.961,0.376-1.745,1.129-2.351s1.721-0.91,2.905-0.91c1.207,0,2.341,0.229,3.401,0.686l-0.325,0.773
			c-1.066-0.445-2.086-0.668-3.059-0.668c-0.949,0-1.705,0.22-2.268,0.659s-0.844,1.037-0.844,1.793
			c0,0.475,0.086,0.864,0.259,1.169s0.456,0.579,0.848,0.822s1.066,0.535,2.021,0.875c1.002,0.346,1.755,0.681,2.259,1.006
			s0.872,0.694,1.103,1.107S269.71,177.412,269.71,177.998z"/>
		<path fill="#231F20" d="M283.228,174.869c0,2.039-0.51,3.652-1.529,4.838s-2.426,1.78-4.219,1.78c-1.787,0-3.19-0.593-4.21-1.78
			s-1.529-2.805-1.529-4.856c0-2.045,0.514-3.655,1.542-4.83s2.433-1.762,4.214-1.762c1.793,0,3.196,0.59,4.21,1.771
			S283.228,172.824,283.228,174.869z M272.716,174.869c0,1.84,0.41,3.262,1.23,4.267s1.998,1.507,3.533,1.507
			c1.547,0,2.729-0.498,3.546-1.494s1.226-2.423,1.226-4.28c0-1.852-0.409-3.271-1.226-4.258s-1.994-1.481-3.529-1.481
			c-1.529,0-2.708,0.498-3.538,1.494S272.716,173.035,272.716,174.869z"/>
		<path fill="#231F20" d="M295.523,181.312h-0.905l-7.611-11.408h-0.07c0.07,1.359,0.105,2.385,0.105,3.076v8.332h-0.861v-12.85
			h0.896l7.603,11.391h0.053c-0.053-1.055-0.079-2.057-0.079-3.006v-8.385h0.87V181.312z"/>
		<path fill="#231F20" d="M310.931,177.998c0,1.072-0.394,1.922-1.182,2.549s-1.835,0.94-3.142,0.94
			c-1.57,0-2.774-0.173-3.612-0.519v-0.896c0.926,0.393,2.106,0.589,3.542,0.589c1.055,0,1.891-0.242,2.509-0.725
			s0.927-1.118,0.927-1.903c0-0.486-0.103-0.889-0.308-1.208s-0.539-0.611-1.002-0.875s-1.143-0.548-2.039-0.853
			c-1.313-0.451-2.219-0.939-2.72-1.463s-0.751-1.223-0.751-2.096c0-0.961,0.376-1.745,1.129-2.351s1.721-0.91,2.905-0.91
			c1.207,0,2.341,0.229,3.401,0.686l-0.325,0.773c-1.066-0.445-2.086-0.668-3.059-0.668c-0.949,0-1.705,0.22-2.268,0.659
			s-0.844,1.037-0.844,1.793c0,0.475,0.086,0.864,0.259,1.169s0.456,0.579,0.848,0.822s1.066,0.535,2.021,0.875
			c1.002,0.346,1.755,0.681,2.259,1.006s0.872,0.694,1.103,1.107S310.931,177.412,310.931,177.998z"/>
		<path fill="#231F20" d="M324.448,174.869c0,2.039-0.51,3.652-1.529,4.838s-2.426,1.78-4.219,1.78c-1.787,0-3.19-0.593-4.21-1.78
			s-1.529-2.805-1.529-4.856c0-2.045,0.514-3.655,1.542-4.83s2.433-1.762,4.214-1.762c1.793,0,3.196,0.59,4.21,1.771
			S324.448,172.824,324.448,174.869z M313.937,174.869c0,1.84,0.41,3.262,1.23,4.267s1.998,1.507,3.533,1.507
			c1.547,0,2.729-0.498,3.546-1.494s1.226-2.423,1.226-4.28c0-1.852-0.409-3.271-1.226-4.258s-1.994-1.481-3.529-1.481
			c-1.529,0-2.708,0.498-3.538,1.494S313.937,173.035,313.937,174.869z"/>
		<path fill="#231F20" d="M327.401,181.312v-12.85h0.896v12.006h6.126v0.844H327.401z"/>
		<path fill="#231F20" d="M336.639,181.312v-12.85h0.896v12.85H336.639z"/>
		<path fill="#231F20" d="M346.658,169.086c-1.611,0-2.88,0.516-3.806,1.547s-1.389,2.443-1.389,4.236
			c0,1.834,0.437,3.258,1.31,4.271s2.121,1.521,3.744,1.521c1.078,0,2.068-0.138,2.971-0.413v0.791
			c-0.85,0.299-1.91,0.448-3.182,0.448c-1.805,0-3.226-0.583-4.263-1.749s-1.556-2.795-1.556-4.887c0-1.307,0.248-2.458,0.743-3.454
			c0.496-0.996,1.207-1.765,2.136-2.307c0.928-0.542,2.008-0.813,3.238-0.813c1.254,0,2.376,0.234,3.366,0.703l-0.36,0.809
			C348.674,169.321,347.689,169.086,346.658,169.086z"/>
		<path fill="#231F20" d="M352.354,181.312v-12.85h0.896v12.85H352.354z"/>
		<path fill="#231F20" d="M360.237,181.312h-0.905v-12.006h-4.175v-0.844h9.255v0.844h-4.175V181.312z"/>
		<path fill="#231F20" d="M377.121,174.869c0,2.039-0.51,3.652-1.529,4.838s-2.426,1.78-4.219,1.78c-1.787,0-3.19-0.593-4.21-1.78
			s-1.529-2.805-1.529-4.856c0-2.045,0.515-3.655,1.542-4.83c1.029-1.175,2.434-1.762,4.215-1.762c1.793,0,3.196,0.59,4.21,1.771
			S377.121,172.824,377.121,174.869z M366.609,174.869c0,1.84,0.41,3.262,1.23,4.267s1.998,1.507,3.533,1.507
			c1.547,0,2.729-0.498,3.547-1.494c0.816-0.996,1.226-2.423,1.226-4.28c0-1.852-0.409-3.271-1.226-4.258
			c-0.818-0.987-1.994-1.481-3.529-1.481c-1.529,0-2.709,0.498-3.537,1.494C367.023,171.62,366.609,173.035,366.609,174.869z"/>
		<path fill="#231F20" d="M380.971,175.713v5.599h-0.896v-12.85h3.059c1.594,0,2.771,0.294,3.533,0.883s1.143,1.475,1.143,2.659
			c0,0.861-0.227,1.588-0.682,2.18c-0.453,0.592-1.144,1.017-2.069,1.274l3.489,5.854h-1.072l-3.313-5.599H380.971z M380.971,174.94
			h2.452c1.084,0,1.925-0.242,2.522-0.725s0.896-1.197,0.896-2.14c0-0.979-0.293-1.69-0.879-2.136s-1.541-0.668-2.865-0.668h-2.127
			V174.94z"/>
		<path fill="#231F20" d="M397.863,177.998c0,1.072-0.395,1.922-1.182,2.549c-0.789,0.627-1.836,0.94-3.143,0.94
			c-1.57,0-2.774-0.173-3.612-0.519v-0.896c0.926,0.393,2.106,0.589,3.542,0.589c1.055,0,1.891-0.242,2.51-0.725
			c0.617-0.483,0.927-1.118,0.927-1.903c0-0.486-0.103-0.889-0.308-1.208s-0.539-0.611-1.002-0.875s-1.143-0.548-2.039-0.853
			c-1.313-0.451-2.219-0.939-2.721-1.463c-0.5-0.524-0.751-1.223-0.751-2.096c0-0.961,0.376-1.745,1.13-2.351
			c0.752-0.606,1.721-0.91,2.904-0.91c1.207,0,2.341,0.229,3.401,0.686l-0.325,0.773c-1.066-0.445-2.086-0.668-3.059-0.668
			c-0.949,0-1.705,0.22-2.268,0.659s-0.844,1.037-0.844,1.793c0,0.475,0.086,0.864,0.26,1.169c0.172,0.305,0.455,0.579,0.848,0.822
			s1.066,0.535,2.021,0.875c1.002,0.346,1.755,0.681,2.259,1.006s0.872,0.694,1.103,1.107
			C397.748,176.913,397.863,177.412,397.863,177.998z"/>
		<path fill="#231F20" d="M415.494,181.312h-0.738l-2.821-9.914c-0.234-0.814-0.41-1.482-0.527-2.004
			c-0.094,0.51-0.228,1.096-0.399,1.758c-0.174,0.662-1.118,4.049-2.835,10.16h-0.756l-3.533-12.85h0.94l2.25,8.279
			c0.088,0.334,0.17,0.643,0.246,0.927s0.145,0.551,0.207,0.8c0.061,0.249,0.117,0.489,0.166,0.721
			c0.051,0.231,0.096,0.464,0.137,0.699c0.141-0.797,0.439-2.007,0.896-3.63l2.197-7.796h0.993l2.575,8.947
			c0.299,1.031,0.513,1.863,0.642,2.496c0.076-0.422,0.174-0.87,0.294-1.345s1.024-3.841,2.712-10.099h0.905L415.494,181.312z"/>
		<path fill="#231F20" d="M428.335,181.312h-7.022v-12.85h7.022v0.826h-6.126v4.86h5.783v0.826h-5.783v5.511h6.126V181.312z"/>
		<path fill="#231F20" d="M438.337,177.998c0,1.072-0.395,1.922-1.182,2.549c-0.789,0.627-1.836,0.94-3.143,0.94
			c-1.57,0-2.774-0.173-3.612-0.519v-0.896c0.926,0.393,2.106,0.589,3.542,0.589c1.055,0,1.891-0.242,2.51-0.725
			c0.617-0.483,0.927-1.118,0.927-1.903c0-0.486-0.103-0.889-0.308-1.208s-0.539-0.611-1.002-0.875s-1.143-0.548-2.039-0.853
			c-1.313-0.451-2.219-0.939-2.721-1.463c-0.5-0.524-0.751-1.223-0.751-2.096c0-0.961,0.376-1.745,1.13-2.351
			c0.752-0.606,1.721-0.91,2.904-0.91c1.207,0,2.341,0.229,3.401,0.686l-0.325,0.773c-1.066-0.445-2.086-0.668-3.059-0.668
			c-0.949,0-1.705,0.22-2.268,0.659s-0.844,1.037-0.844,1.793c0,0.475,0.086,0.864,0.26,1.169c0.172,0.305,0.455,0.579,0.848,0.822
			s1.066,0.535,2.021,0.875c1.002,0.346,1.755,0.681,2.259,1.006s0.871,0.694,1.103,1.107S438.337,177.412,438.337,177.998z"/>
		<path fill="#231F20" d="M444.401,181.312h-0.905v-12.006h-4.175v-0.844h9.255v0.844h-4.175V181.312z"/>
		<path fill="#231F20" d="M462.252,177.998c0,1.072-0.395,1.922-1.182,2.549c-0.789,0.627-1.836,0.94-3.143,0.94
			c-1.57,0-2.774-0.173-3.612-0.519v-0.896c0.926,0.393,2.106,0.589,3.542,0.589c1.055,0,1.891-0.242,2.51-0.725
			c0.617-0.483,0.927-1.118,0.927-1.903c0-0.486-0.103-0.889-0.308-1.208s-0.539-0.611-1.002-0.875s-1.143-0.548-2.039-0.853
			c-1.313-0.451-2.219-0.939-2.721-1.463c-0.5-0.524-0.751-1.223-0.751-2.096c0-0.961,0.376-1.745,1.13-2.351
			c0.752-0.606,1.721-0.91,2.904-0.91c1.207,0,2.341,0.229,3.401,0.686l-0.325,0.773c-1.066-0.445-2.086-0.668-3.059-0.668
			c-0.949,0-1.705,0.22-2.268,0.659s-0.844,1.037-0.844,1.793c0,0.475,0.086,0.864,0.26,1.169c0.172,0.305,0.455,0.579,0.848,0.822
			s1.066,0.535,2.021,0.875c1.002,0.346,1.755,0.681,2.259,1.006s0.871,0.694,1.103,1.107S462.252,177.412,462.252,177.998z"/>
		<path fill="#231F20" d="M468.316,181.312h-0.905v-12.006h-4.175v-0.844h9.255v0.844h-4.175V181.312z"/>
		<path fill="#231F20" d="M480.586,176.777h-5.221l-1.793,4.535h-0.993l5.168-12.902h0.571l5.063,12.902h-1.011L480.586,176.777z
			 M475.69,175.968h4.597l-1.749-4.632c-0.146-0.363-0.322-0.867-0.527-1.512c-0.158,0.563-0.331,1.072-0.519,1.529L475.69,175.968z
			"/>
		<path fill="#231F20" d="M494.543,181.312h-0.905l-7.611-11.408h-0.07c0.07,1.359,0.105,2.385,0.105,3.076v8.332H485.2v-12.85
			h0.896l7.603,11.391h0.053c-0.053-1.055-0.079-2.057-0.079-3.006v-8.385h0.87V181.312z"/>
		<path fill="#231F20" d="M507.938,174.764c0,2.156-0.565,3.787-1.696,4.891s-2.792,1.657-4.983,1.657h-3.076v-12.85h3.472
			c2.051,0,3.61,0.536,4.68,1.608S507.938,172.707,507.938,174.764z M506.962,174.799c0-1.84-0.468-3.224-1.402-4.153
			s-2.307-1.393-4.117-1.393h-2.364v11.268h2.127C505.043,180.521,506.962,178.614,506.962,174.799z"/>
	</g>
	<g>
		<path fill="#231F20" d="M220.368,525.312h-0.896v-12.85h7.04v0.826h-6.144v5.449h5.801v0.835h-5.801V525.312z"/>
		<path fill="#231F20" d="M234.694,520.777h-5.221l-1.793,4.535h-0.993l5.168-12.902h0.571l5.063,12.902h-1.011L234.694,520.777z
			 M229.799,519.968h4.597l-1.749-4.632c-0.146-0.363-0.322-0.867-0.527-1.512c-0.158,0.563-0.331,1.072-0.519,1.529
			L229.799,519.968z"/>
		<path fill="#231F20" d="M239.309,525.312v-12.85h0.896v12.85H239.309z"/>
		<path fill="#231F20" d="M244.74,519.713v5.599h-0.896v-12.85h3.059c1.594,0,2.771,0.294,3.533,0.884
			c0.762,0.588,1.143,1.475,1.143,2.658c0,0.861-0.227,1.588-0.681,2.18s-1.144,1.017-2.07,1.274l3.489,5.854h-1.072l-3.313-5.599
			H244.74z M244.74,518.94h2.452c1.084,0,1.925-0.242,2.522-0.725c0.598-0.484,0.896-1.197,0.896-2.141
			c0-0.979-0.293-1.69-0.879-2.136s-1.541-0.668-2.865-0.668h-2.127V518.94z"/>
		<path fill="#231F20" d="M255.437,525.312h-0.896v-12.85h7.04v0.826h-6.144v5.449h5.801v0.835h-5.801V525.312z"/>
		<path fill="#231F20" d="M263.575,525.312v-12.85h0.896v12.85H263.575z"/>
		<path fill="#231F20" d="M275.133,525.312h-7.022v-12.85h7.022v0.826h-6.126v4.86h5.783v0.826h-5.783v5.511h6.126V525.312z"/>
		<path fill="#231F20" d="M278.042,525.312v-12.85h0.896v12.006h6.126v0.844H278.042z"/>
		<path fill="#231F20" d="M297.035,518.764c0,2.156-0.565,3.787-1.696,4.891c-1.131,1.105-2.792,1.657-4.983,1.657h-3.076v-12.85
			h3.472c2.051,0,3.611,0.536,4.68,1.608S297.035,516.707,297.035,518.764z M296.06,518.799c0-1.84-0.467-3.225-1.402-4.152
			c-0.935-0.93-2.307-1.394-4.118-1.394h-2.364v11.268h2.127C294.141,524.521,296.06,522.614,296.06,518.799z"/>
		<path fill="#231F20" d="M304.664,512.462h3.524c1.588,0,2.754,0.27,3.498,0.809s1.116,1.354,1.116,2.443
			c0,0.744-0.227,1.364-0.681,1.858c-0.454,0.496-1.118,0.813-1.991,0.954v0.053c1.025,0.152,1.78,0.476,2.263,0.972
			c0.483,0.494,0.725,1.185,0.725,2.069c0,1.184-0.393,2.095-1.178,2.733s-1.898,0.958-3.34,0.958h-3.938V512.462z M305.561,518.184
			h2.83c1.207,0,2.084-0.201,2.632-0.602c0.548-0.402,0.822-1.03,0.822-1.886s-0.309-1.477-0.927-1.863s-1.54-0.58-2.764-0.58
			h-2.593V518.184z M305.561,518.975v5.546h3.023c2.379,0,3.568-0.967,3.568-2.9c0-1.764-1.254-2.646-3.762-2.646H305.561z"/>
		<path fill="#231F20" d="M321.601,525.312l-4.79-11.865h-0.07c0.047,0.727,0.07,1.471,0.07,2.232v9.633h-0.861v-12.85h1.389
			l4.553,11.303h0.053l4.553-11.303h1.354v12.85h-0.905v-9.738c0-0.68,0.035-1.383,0.105-2.109h-0.07l-4.808,11.848H321.601z"/>
		<path fill="#231F20" d="M341.719,525.312h-0.738l-2.821-9.914c-0.234-0.814-0.41-1.482-0.527-2.004
			c-0.094,0.51-0.227,1.096-0.4,1.758s-1.118,4.049-2.834,10.16h-0.756l-3.533-12.85h0.94l2.25,8.279
			c0.088,0.334,0.17,0.644,0.246,0.927c0.076,0.285,0.145,0.551,0.207,0.801c0.062,0.248,0.117,0.488,0.167,0.721
			c0.05,0.23,0.095,0.464,0.136,0.698c0.141-0.797,0.439-2.007,0.896-3.63l2.197-7.796h0.993l2.575,8.947
			c0.299,1.031,0.513,1.863,0.642,2.496c0.076-0.422,0.175-0.87,0.294-1.345c0.121-0.475,1.024-3.841,2.712-10.099h0.905
			L341.719,525.312z"/>
		<path fill="#231F20" d="M359.235,525.312h-7.022v-12.85h7.022v0.826h-6.126v4.86h5.783v0.826h-5.783v5.511h6.126V525.312z"/>
		<path fill="#231F20" d="M368.332,520.777h-5.221l-1.793,4.535h-0.993l5.168-12.902h0.571l5.063,12.902h-1.011L368.332,520.777z
			 M363.437,519.968h4.597l-1.749-4.632c-0.146-0.363-0.322-0.867-0.527-1.512c-0.158,0.563-0.331,1.072-0.519,1.529
			L363.437,519.968z"/>
		<path fill="#231F20" d="M380.039,521.998c0,1.072-0.395,1.922-1.182,2.549c-0.789,0.627-1.836,0.94-3.143,0.94
			c-1.57,0-2.774-0.173-3.612-0.519v-0.896c0.926,0.393,2.106,0.589,3.542,0.589c1.055,0,1.891-0.241,2.51-0.726
			c0.617-0.482,0.927-1.117,0.927-1.902c0-0.486-0.103-0.889-0.308-1.209c-0.205-0.318-0.539-0.61-1.002-0.874
			s-1.143-0.548-2.039-0.853c-1.313-0.451-2.219-0.939-2.721-1.463c-0.5-0.525-0.751-1.224-0.751-2.097
			c0-0.961,0.376-1.745,1.13-2.351c0.752-0.607,1.721-0.91,2.904-0.91c1.207,0,2.341,0.229,3.401,0.686l-0.325,0.773
			c-1.066-0.445-2.086-0.668-3.059-0.668c-0.949,0-1.705,0.22-2.268,0.659s-0.844,1.037-0.844,1.793c0,0.475,0.086,0.864,0.26,1.169
			c0.172,0.305,0.455,0.578,0.848,0.822c0.393,0.242,1.066,0.534,2.021,0.874c1.002,0.346,1.755,0.681,2.259,1.007
			c0.504,0.324,0.872,0.693,1.103,1.107C379.924,520.912,380.039,521.412,380.039,521.998z"/>
		<path fill="#231F20" d="M386.104,525.312h-0.905v-12.006h-4.175v-0.844h9.255v0.844h-4.175V525.312z"/>
		<path fill="#231F20" d="M403.954,521.998c0,1.072-0.394,1.922-1.183,2.549c-0.787,0.627-1.835,0.94-3.142,0.94
			c-1.57,0-2.774-0.173-3.612-0.519v-0.896c0.926,0.393,2.106,0.589,3.542,0.589c1.055,0,1.892-0.241,2.509-0.726
			c0.619-0.482,0.928-1.117,0.928-1.902c0-0.486-0.103-0.889-0.308-1.209c-0.205-0.318-0.539-0.61-1.002-0.874
			s-1.143-0.548-2.039-0.853c-1.313-0.451-2.22-0.939-2.72-1.463c-0.502-0.525-0.752-1.224-0.752-2.097
			c0-0.961,0.377-1.745,1.129-2.351c0.754-0.607,1.722-0.91,2.905-0.91c1.207,0,2.341,0.229,3.401,0.686l-0.325,0.773
			c-1.066-0.445-2.086-0.668-3.059-0.668c-0.949,0-1.705,0.22-2.268,0.659s-0.844,1.037-0.844,1.793
			c0,0.475,0.087,0.864,0.259,1.169c0.174,0.305,0.456,0.578,0.849,0.822c0.393,0.242,1.066,0.534,2.021,0.874
			c1.002,0.346,1.755,0.681,2.259,1.007c0.504,0.324,0.871,0.693,1.104,1.107C403.838,520.912,403.954,521.412,403.954,521.998z"/>
		<path fill="#231F20" d="M410.019,525.312h-0.905v-12.006h-4.175v-0.844h9.255v0.844h-4.175V525.312z"/>
		<path fill="#231F20" d="M422.288,520.777h-5.221l-1.793,4.535h-0.993l5.168-12.902h0.571l5.063,12.902h-1.011L422.288,520.777z
			 M417.393,519.968h4.597l-1.749-4.632c-0.146-0.363-0.322-0.867-0.527-1.512c-0.158,0.563-0.331,1.072-0.519,1.529
			L417.393,519.968z"/>
		<path fill="#231F20" d="M436.245,525.312h-0.905l-7.611-11.408h-0.07c0.07,1.359,0.105,2.385,0.105,3.076v8.332h-0.861v-12.85
			h0.896l7.603,11.391h0.053c-0.053-1.055-0.079-2.057-0.079-3.006v-8.385h0.87V525.312z"/>
		<path fill="#231F20" d="M449.64,518.764c0,2.156-0.565,3.787-1.696,4.891c-1.131,1.105-2.792,1.657-4.983,1.657h-3.076v-12.85
			h3.472c2.051,0,3.61,0.536,4.68,1.608S449.64,516.707,449.64,518.764z M448.664,518.799c0-1.84-0.468-3.225-1.402-4.152
			c-0.935-0.93-2.307-1.394-4.117-1.394h-2.364v11.268h2.127C446.745,524.521,448.664,522.614,448.664,518.799z"/>
	</g>
	<g>
		<path fill="#231F20" d="M76.899,477.823v0.904H64.894v4.176H64.05v-9.256h0.844v4.176H76.899z"/>
		<path fill="#231F20" d="M71.301,470.844h5.599v0.896H64.05v-3.059c0-1.594,0.294-2.771,0.883-3.533s1.475-1.143,2.659-1.143
			c0.861,0,1.588,0.227,2.18,0.681s1.017,1.144,1.274,2.069l5.854-3.488v1.072l-5.599,3.313V470.844z M70.527,470.844v-2.453
			c0-1.084-0.242-1.924-0.725-2.521s-1.197-0.896-2.14-0.896c-0.979,0-1.69,0.293-2.136,0.879s-0.668,1.541-0.668,2.865v2.127
			H70.527z"/>
		<path fill="#231F20" d="M72.364,454.856v5.221l4.535,1.793v0.994l-12.902-5.168v-0.572l12.902-5.063v1.012L72.364,454.856z
			 M71.556,459.752v-4.598l-4.632,1.75c-0.363,0.146-0.867,0.322-1.512,0.527c0.563,0.158,1.072,0.33,1.529,0.518L71.556,459.752z"
			/>
		<path fill="#231F20" d="M70.352,440.487c2.156,0,3.787,0.564,4.891,1.695s1.657,2.793,1.657,4.984v3.076H64.05v-3.473
			c0-2.051,0.536-3.61,1.608-4.68S68.295,440.487,70.352,440.487z M70.387,441.461c-1.84,0-3.224,0.468-4.153,1.402
			s-1.393,2.307-1.393,4.117v2.365h11.268v-2.127C76.108,443.381,74.201,441.461,70.387,441.461z"/>
		<path fill="#231F20" d="M76.899,430.51v7.023H64.05v-7.023h0.826v6.127h4.86v-5.783h0.826v5.783h5.511v-6.127H76.899z"/>
		<path fill="#231F20" d="M67.741,415.192c1.242,0,2.194,0.422,2.856,1.266s0.993,2.039,0.993,3.586v1.986h5.309v0.896H64.05v-3.146
			C64.05,416.721,65.28,415.192,67.741,415.192z M70.817,422.03v-1.768c0-1.447-0.239-2.492-0.716-3.137s-1.252-0.967-2.325-0.967
			c-0.99,0-1.724,0.305-2.202,0.914s-0.716,1.553-0.716,2.83v2.127H70.817z"/>
		<path fill="#231F20" d="M71.301,411.5h5.599v0.896H64.05v-3.059c0-1.594,0.294-2.771,0.883-3.533s1.475-1.143,2.659-1.143
			c0.861,0,1.588,0.227,2.18,0.681s1.017,1.144,1.274,2.069l5.854-3.488v1.072l-5.599,3.313V411.5z M70.527,411.5v-2.453
			c0-1.084-0.242-1.924-0.725-2.521s-1.197-0.896-2.14-0.896c-0.979,0-1.69,0.293-2.136,0.879s-0.668,1.541-0.668,2.865v2.127
			H70.527z"/>
		<path fill="#231F20" d="M76.899,401.699H64.05v-0.896h12.85V401.699z"/>
		<path fill="#231F20" d="M64.674,391.68c0,1.611,0.516,2.881,1.547,3.807s2.443,1.389,4.236,1.389c1.834,0,3.258-0.438,4.271-1.311
			s1.521-2.121,1.521-3.744c0-1.078-0.138-2.068-0.413-2.971h0.791c0.299,0.85,0.448,1.91,0.448,3.182
			c0,1.805-0.583,3.227-1.749,4.264s-2.795,1.555-4.887,1.555c-1.307,0-2.458-0.247-3.454-0.742s-1.765-1.207-2.307-2.136
			s-0.813-2.009-0.813-3.239c0-1.254,0.234-2.375,0.703-3.365l0.809,0.359C64.908,389.664,64.674,390.649,64.674,391.68z"/>
		<path fill="#231F20" d="M76.899,378.963v7.021H64.05v-7.021h0.826v6.125h4.86v-5.783h0.826v5.783h5.511v-6.125H76.899z"/>
		<path fill="#231F20" d="M64.674,365.893c0,1.611,0.516,2.881,1.547,3.807s2.443,1.389,4.236,1.389
			c1.834,0,3.258-0.438,4.271-1.311s1.521-2.121,1.521-3.744c0-1.078-0.138-2.068-0.413-2.971h0.791
			c0.299,0.85,0.448,1.91,0.448,3.182c0,1.805-0.583,3.227-1.749,4.264s-2.795,1.555-4.887,1.555c-1.307,0-2.458-0.247-3.454-0.742
			s-1.765-1.207-2.307-2.136s-0.813-2.009-0.813-3.239c0-1.254,0.234-2.375,0.703-3.365l0.809,0.359
			C64.908,363.877,64.674,364.862,64.674,365.893z"/>
		<path fill="#231F20" d="M72.364,354.01v5.221l4.535,1.793v0.994l-12.902-5.168v-0.572l12.902-5.063v1.012L72.364,354.01z
			 M71.556,358.906v-4.598l-4.632,1.75c-0.363,0.146-0.867,0.322-1.512,0.527c0.563,0.158,1.072,0.33,1.529,0.518L71.556,358.906z"
			/>
		<path fill="#231F20" d="M71.301,348.5h5.599v0.896H64.05v-3.059c0-1.594,0.294-2.771,0.883-3.533s1.475-1.143,2.659-1.143
			c0.861,0,1.588,0.227,2.18,0.681s1.017,1.144,1.274,2.07l5.854-3.489v1.072l-5.599,3.313V348.5z M70.527,348.5v-2.452
			c0-1.084-0.242-1.925-0.725-2.522s-1.197-0.896-2.14-0.896c-0.979,0-1.69,0.293-2.136,0.879s-0.668,1.541-0.668,2.865v2.127
			H70.527z"/>
		<path fill="#231F20" d="M73.586,331.607c1.072,0,1.922,0.394,2.549,1.182s0.94,1.835,0.94,3.142c0,1.57-0.173,2.774-0.519,3.612
			H75.66c0.393-0.926,0.589-2.106,0.589-3.542c0-1.055-0.242-1.891-0.725-2.509s-1.118-0.927-1.903-0.927
			c-0.486,0-0.889,0.103-1.208,0.308s-0.611,0.539-0.875,1.002s-0.548,1.143-0.853,2.039c-0.451,1.313-0.939,2.219-1.463,2.72
			s-1.223,0.751-2.096,0.751c-0.961,0-1.745-0.376-2.351-1.129s-0.91-1.721-0.91-2.905c0-1.207,0.229-2.341,0.686-3.401l0.773,0.325
			c-0.445,1.066-0.668,2.086-0.668,3.059c0,0.949,0.22,1.705,0.659,2.268s1.037,0.844,1.793,0.844c0.475,0,0.864-0.086,1.169-0.259
			s0.579-0.456,0.822-0.848s0.535-1.066,0.875-2.021c0.346-1.002,0.681-1.755,1.006-2.259s0.694-0.872,1.107-1.103
			S73,331.607,73.586,331.607z"/>
		<path fill="#231F20" d="M73.586,317.123c1.072,0,1.922,0.394,2.549,1.182s0.94,1.835,0.94,3.142c0,1.57-0.173,2.774-0.519,3.612
			H75.66c0.393-0.926,0.589-2.106,0.589-3.542c0-1.055-0.242-1.891-0.725-2.509s-1.118-0.927-1.903-0.927
			c-0.486,0-0.889,0.103-1.208,0.308s-0.611,0.539-0.875,1.002s-0.548,1.143-0.853,2.039c-0.451,1.313-0.939,2.219-1.463,2.72
			s-1.223,0.751-2.096,0.751c-0.961,0-1.745-0.376-2.351-1.129s-0.91-1.721-0.91-2.905c0-1.207,0.229-2.341,0.686-3.401l0.773,0.325
			c-0.445,1.066-0.668,2.086-0.668,3.059c0,0.949,0.22,1.705,0.659,2.268s1.037,0.844,1.793,0.844c0.475,0,0.864-0.086,1.169-0.259
			s0.579-0.456,0.822-0.848s0.535-1.066,0.875-2.021c0.346-1.002,0.681-1.755,1.006-2.259s0.694-0.872,1.107-1.103
			S73,317.123,73.586,317.123z"/>
		<path fill="#231F20" d="M70.457,303.605c2.039,0,3.652,0.51,4.838,1.529s1.78,2.426,1.78,4.219c0,1.787-0.593,3.19-1.78,4.21
			s-2.805,1.529-4.856,1.529c-2.045,0-3.655-0.514-4.83-1.542s-1.762-2.433-1.762-4.214c0-1.793,0.59-3.196,1.771-4.21
			S68.412,303.605,70.457,303.605z M70.457,314.117c1.84,0,3.262-0.41,4.267-1.23s1.507-1.998,1.507-3.533
			c0-1.547-0.498-2.729-1.494-3.546s-2.423-1.226-4.28-1.226c-1.852,0-3.271,0.409-4.258,1.226s-1.481,1.994-1.481,3.529
			c0,1.529,0.498,2.708,1.494,3.538S68.623,314.117,70.457,314.117z"/>
		<path fill="#231F20" d="M64.05,291.204h8.314c1.477,0,2.631,0.428,3.463,1.283s1.248,2.048,1.248,3.577
			c0,1.488-0.417,2.65-1.252,3.485s-2,1.252-3.494,1.252H64.05v-0.905h8.314c1.236,0,2.199-0.343,2.887-1.028
			s1.033-1.655,1.033-2.909c0-1.225-0.338-2.174-1.015-2.848s-1.616-1.011-2.817-1.011H64.05V291.204z"/>
		<path fill="#231F20" d="M76.899,284.357v0.905H64.894v4.175H64.05v-9.255h0.844v4.175H76.899z"/>
		<path fill="#231F20" d="M76.899,268.967v0.906H70.58v7.505h6.319v0.896H64.05v-0.896h5.704v-7.505H64.05v-0.906H76.899z"/>
		<path fill="#231F20" d="M73.586,253.561c1.072,0,1.922,0.395,2.549,1.182c0.627,0.789,0.94,1.836,0.94,3.143
			c0,1.57-0.173,2.774-0.519,3.612H75.66c0.393-0.926,0.589-2.106,0.589-3.542c0-1.055-0.242-1.891-0.725-2.51
			c-0.483-0.617-1.118-0.927-1.903-0.927c-0.486,0-0.889,0.103-1.208,0.308s-0.611,0.539-0.875,1.002s-0.548,1.143-0.853,2.039
			c-0.451,1.313-0.939,2.219-1.463,2.721c-0.524,0.5-1.223,0.751-2.096,0.751c-0.961,0-1.745-0.376-2.351-1.13
			c-0.606-0.752-0.91-1.721-0.91-2.904c0-1.207,0.229-2.341,0.686-3.401l0.773,0.325c-0.445,1.066-0.668,2.086-0.668,3.059
			c0,0.949,0.22,1.705,0.659,2.268s1.037,0.844,1.793,0.844c0.475,0,0.864-0.086,1.169-0.26c0.305-0.172,0.579-0.455,0.822-0.848
			s0.535-1.066,0.875-2.021c0.346-1.002,0.681-1.755,1.006-2.259s0.694-0.871,1.107-1.103S73,253.561,73.586,253.561z"/>
		<path fill="#231F20" d="M76.899,247.496v0.905H64.894v4.175H64.05v-9.255h0.844v4.175H76.899z"/>
		<path fill="#231F20" d="M72.364,235.226v5.221l4.535,1.793v0.993l-12.902-5.168v-0.571l12.902-5.063v1.011L72.364,235.226z
			 M71.556,240.121v-4.597l-4.632,1.749c-0.363,0.146-0.867,0.322-1.512,0.527c0.563,0.158,1.072,0.331,1.529,0.519L71.556,240.121z
			"/>
		<path fill="#231F20" d="M76.899,221.27v0.905l-11.408,7.611v0.07c1.359-0.07,2.385-0.105,3.076-0.105h8.332v0.861H64.05v-0.896
			l11.391-7.603v-0.053c-1.055,0.053-2.057,0.079-3.006,0.079H64.05v-0.87H76.899z"/>
		<path fill="#231F20" d="M70.352,207.874c2.156,0,3.787,0.565,4.891,1.696s1.657,2.792,1.657,4.983v3.076H64.05v-3.472
			c0-2.051,0.536-3.61,1.608-4.68S68.295,207.874,70.352,207.874z M70.387,208.85c-1.84,0-3.224,0.468-4.153,1.402
			s-1.393,2.307-1.393,4.117v2.364h11.268v-2.127C76.108,210.769,74.201,208.85,70.387,208.85z"/>
	</g>
	<g>
		<path fill="#231F20" d="M673.575,173.382c0-1.611-0.516-2.88-1.547-3.806s-2.443-1.389-4.236-1.389
			c-1.834,0-3.258,0.437-4.271,1.31S662,171.618,662,173.241c0,1.078,0.138,2.068,0.413,2.971h-0.791
			c-0.299-0.85-0.448-1.91-0.448-3.182c0-1.805,0.583-3.226,1.749-4.263s2.795-1.556,4.887-1.556c1.307,0,2.458,0.248,3.454,0.743
			s1.766,1.207,2.307,2.136c0.543,0.929,0.813,2.008,0.813,3.239c0,1.254-0.234,2.376-0.703,3.366l-0.809-0.36
			C673.341,175.398,673.575,174.413,673.575,173.382z"/>
		<path fill="#231F20" d="M667.792,189.879c-2.039,0-3.651-0.51-4.839-1.529c-1.186-1.02-1.779-2.426-1.779-4.219
			c0-1.787,0.594-3.19,1.779-4.21c1.188-1.02,2.806-1.529,4.856-1.529c2.045,0,3.655,0.514,4.829,1.542
			c1.176,1.028,1.763,2.433,1.763,4.214c0,1.793-0.591,3.196-1.771,4.21C671.449,189.372,669.837,189.879,667.792,189.879z
			 M667.792,179.367c-1.84,0-3.263,0.41-4.267,1.23c-1.006,0.82-1.508,1.998-1.508,3.533c0,1.547,0.498,2.729,1.494,3.546
			s2.423,1.226,4.28,1.226c1.852,0,3.271-0.409,4.259-1.226c0.986-0.817,1.48-1.994,1.48-3.529c0-1.529-0.498-2.708-1.494-3.538
			S669.626,179.367,667.792,179.367z"/>
		<path fill="#231F20" d="M661.35,192.832h12.85v0.896h-12.006v6.126h-0.844V192.832z"/>
		<path fill="#231F20" d="M667.792,212.871c-2.039,0-3.651-0.51-4.839-1.529c-1.186-1.02-1.779-2.426-1.779-4.219
			c0-1.787,0.594-3.19,1.779-4.21c1.188-1.02,2.806-1.529,4.856-1.529c2.045,0,3.655,0.514,4.829,1.542
			c1.176,1.028,1.763,2.433,1.763,4.214c0,1.793-0.591,3.196-1.771,4.21C671.449,212.365,669.837,212.871,667.792,212.871z
			 M667.792,202.36c-1.84,0-3.263,0.41-4.267,1.23c-1.006,0.82-1.508,1.998-1.508,3.533c0,1.547,0.498,2.729,1.494,3.546
			s2.423,1.226,4.28,1.226c1.852,0,3.271-0.409,4.259-1.226c0.986-0.817,1.48-1.994,1.48-3.529c0-1.529-0.498-2.708-1.494-3.538
			S669.626,202.36,667.792,202.36z"/>
		<path fill="#231F20" d="M674.199,225.273h-8.314c-1.477,0-2.631-0.428-3.463-1.283s-1.248-2.048-1.248-3.577
			c0-1.488,0.418-2.65,1.252-3.485c0.836-0.835,2-1.252,3.494-1.252h8.279v0.905h-8.314c-1.236,0-2.199,0.343-2.887,1.028
			c-0.689,0.686-1.033,1.655-1.033,2.909c0,1.225,0.338,2.174,1.016,2.848c0.676,0.674,1.615,1.011,2.816,1.011h8.402V225.273z"/>
		<path fill="#231F20" d="M666.948,229.667h-5.599v-0.896h12.85v3.059c0,1.594-0.295,2.771-0.883,3.533
			c-0.59,0.762-1.476,1.143-2.659,1.143c-0.861,0-1.588-0.227-2.18-0.681s-1.017-1.144-1.274-2.07l-5.854,3.489v-1.072l5.599-3.313
			V229.667z M667.722,229.667v2.452c0,1.084,0.241,1.925,0.726,2.522c0.482,0.598,1.196,0.896,2.14,0.896
			c0.979,0,1.69-0.293,2.136-0.879s0.668-1.541,0.668-2.865v-2.127H667.722z"/>
		<path fill="#231F20" d="M661.35,240.364v-0.896h12.85v7.04h-0.826v-6.144h-5.449v5.801h-0.835v-5.801H661.35z"/>
		<path fill="#231F20" d="M665.885,254.69v-5.221l-4.535-1.793v-0.993l12.902,5.168v0.571l-12.902,5.063v-1.011L665.885,254.69z
			 M666.693,249.794v4.597l4.632-1.749c0.363-0.146,0.867-0.322,1.512-0.527c-0.563-0.158-1.072-0.331-1.529-0.519L666.693,249.794z
			"/>
		<path fill="#231F20" d="M664.663,266.397c-1.072,0-1.922-0.394-2.549-1.182s-0.94-1.835-0.94-3.142
			c0-1.57,0.173-2.774,0.519-3.612h0.896c-0.393,0.926-0.589,2.106-0.589,3.542c0,1.055,0.242,1.891,0.725,2.509
			c0.484,0.618,1.118,0.927,1.903,0.927c0.486,0,0.89-0.103,1.208-0.308c0.32-0.205,0.611-0.539,0.875-1.002
			s0.548-1.143,0.853-2.039c0.451-1.313,0.938-2.219,1.464-2.72c0.523-0.501,1.223-0.751,2.096-0.751
			c0.961,0,1.744,0.376,2.352,1.129c0.605,0.753,0.909,1.721,0.909,2.905c0,1.207-0.229,2.341-0.686,3.401l-0.773-0.325
			c0.445-1.066,0.668-2.086,0.668-3.059c0-0.949-0.22-1.705-0.659-2.268s-1.037-0.844-1.793-0.844c-0.475,0-0.864,0.086-1.169,0.259
			s-0.579,0.456-0.821,0.848c-0.244,0.393-0.535,1.066-0.875,2.021c-0.346,1.002-0.682,1.755-1.006,2.259
			c-0.326,0.504-0.695,0.872-1.107,1.103C665.748,266.281,665.249,266.397,664.663,266.397z"/>
		<path fill="#231F20" d="M661.35,272.461v-0.905h12.006v-4.175h0.844v9.255h-0.844v-4.175H661.35z"/>
		<path fill="#231F20" d="M661.35,292.562v-0.905l11.408-7.611v-0.07c-1.359,0.07-2.385,0.105-3.076,0.105h-8.332v-0.861h12.85
			v0.896l-11.391,7.603v0.053c1.055-0.053,2.057-0.079,3.006-0.079h8.385v0.87H661.35z"/>
		<path fill="#231F20" d="M667.792,307.002c-2.039,0-3.651-0.51-4.839-1.529c-1.186-1.02-1.779-2.426-1.779-4.219
			c0-1.787,0.594-3.19,1.779-4.21c1.188-1.02,2.806-1.529,4.856-1.529c2.045,0,3.655,0.514,4.829,1.542
			c1.176,1.028,1.763,2.433,1.763,4.214c0,1.793-0.591,3.196-1.771,4.21C671.449,306.495,669.837,307.002,667.792,307.002z
			 M667.792,296.49c-1.84,0-3.263,0.41-4.267,1.23c-1.006,0.82-1.508,1.998-1.508,3.533c0,1.547,0.498,2.729,1.494,3.546
			s2.423,1.226,4.28,1.226c1.852,0,3.271-0.409,4.259-1.226c0.986-0.817,1.48-1.994,1.48-3.529c0-1.529-0.498-2.708-1.494-3.538
			S669.626,296.49,667.792,296.49z"/>
		<path fill="#231F20" d="M666.948,310.852h-5.599v-0.896h12.85v3.059c0,1.594-0.295,2.771-0.883,3.533
			c-0.59,0.762-1.476,1.143-2.659,1.143c-0.861,0-1.588-0.227-2.18-0.681s-1.017-1.144-1.274-2.07l-5.854,3.489v-1.072l5.599-3.313
			V310.852z M667.722,310.852v2.452c0,1.084,0.241,1.925,0.726,2.522c0.482,0.598,1.196,0.896,2.14,0.896
			c0.979,0,1.69-0.293,2.136-0.879s0.668-1.541,0.668-2.865v-2.127H667.722z"/>
		<path fill="#231F20" d="M661.35,324v-0.905h12.006v-4.175h0.844v9.255h-0.844V324H661.35z"/>
		<path fill="#231F20" d="M661.35,339.39v-0.905h6.319v-7.506h-6.319v-0.896h12.85v0.896h-5.704v7.506h5.704v0.905H661.35z"/>
		<path fill="#231F20" d="M664.663,354.797c-1.072,0-1.922-0.395-2.549-1.182c-0.627-0.789-0.94-1.836-0.94-3.143
			c0-1.57,0.173-2.774,0.519-3.612h0.896c-0.393,0.926-0.589,2.106-0.589,3.542c0,1.055,0.242,1.891,0.725,2.51
			c0.484,0.617,1.118,0.927,1.903,0.927c0.486,0,0.89-0.103,1.208-0.308c0.32-0.205,0.611-0.539,0.875-1.002
			s0.548-1.143,0.853-2.039c0.451-1.313,0.938-2.219,1.464-2.72c0.523-0.501,1.223-0.751,2.096-0.751
			c0.961,0,1.744,0.376,2.352,1.129c0.605,0.753,0.909,1.721,0.909,2.905c0,1.207-0.229,2.341-0.686,3.401l-0.773-0.325
			c0.445-1.066,0.668-2.086,0.668-3.059c0-0.949-0.22-1.705-0.659-2.268s-1.037-0.844-1.793-0.844c-0.475,0-0.864,0.086-1.169,0.259
			s-0.579,0.456-0.821,0.848c-0.244,0.393-0.535,1.066-0.875,2.021c-0.346,1.002-0.682,1.755-1.006,2.259
			c-0.326,0.504-0.695,0.872-1.107,1.103C665.748,354.682,665.249,354.797,664.663,354.797z"/>
		<path fill="#231F20" d="M661.35,360.862v-0.905h12.006v-4.175h0.844v9.255h-0.844v-4.175H661.35z"/>
		<path fill="#231F20" d="M665.885,373.131v-5.221l-4.535-1.793v-0.993l12.902,5.168v0.571l-12.902,5.063v-1.011L665.885,373.131z
			 M666.693,368.236v4.597l4.632-1.749c0.363-0.146,0.867-0.322,1.512-0.527c-0.563-0.158-1.072-0.331-1.529-0.519L666.693,368.236z
			"/>
		<path fill="#231F20" d="M661.35,387.088v-0.905l11.408-7.611v-0.07c-1.359,0.07-2.385,0.105-3.076,0.105h-8.332v-0.861h12.85
			v0.896l-11.391,7.603v0.053c1.055-0.053,2.057-0.079,3.006-0.079h8.385v0.87H661.35z"/>
		<path fill="#231F20" d="M667.897,400.483c-2.156,0-3.786-0.565-4.892-1.696c-1.104-1.131-1.656-2.792-1.656-4.983v-3.076h12.85
			v3.472c0,2.051-0.536,3.61-1.608,4.681C671.519,399.948,669.954,400.483,667.897,400.483z M667.862,399.507
			c1.84,0,3.224-0.468,4.153-1.401c0.928-0.936,1.393-2.308,1.393-4.118v-2.364h-11.268v2.127
			C662.141,397.588,664.048,399.507,667.862,399.507z"/>
		<path fill="#231F20" d="M666.28,407.013c1.553,0,3.006,0.228,4.359,0.681c1.354,0.455,2.54,1.109,3.56,1.965v0.993
			c-1.066-0.867-2.275-1.532-3.625-1.995c-1.352-0.463-2.776-0.694-4.276-0.694c-2.83,0-5.429,0.891-7.796,2.672v-0.976
			c0.996-0.861,2.159-1.518,3.489-1.969S664.751,407.013,666.28,407.013z"/>
		<path fill="#231F20" d="M665.885,419.195v-5.221l-4.535-1.793v-0.993l12.902,5.168v0.571l-12.902,5.063v-1.011L665.885,419.195z
			 M666.693,414.299v4.597l4.632-1.749c0.363-0.146,0.867-0.322,1.512-0.527c-0.563-0.158-1.072-0.331-1.529-0.519L666.693,414.299z
			"/>
		<path fill="#231F20" d="M661.35,434.048v-0.738l9.914-2.821c0.814-0.234,1.482-0.41,2.004-0.527
			c-0.51-0.094-1.096-0.228-1.758-0.399c-0.662-0.174-4.049-1.118-10.16-2.835v-0.756l12.85-3.533v0.94l-8.279,2.25
			c-0.334,0.088-0.643,0.17-0.928,0.246c-0.283,0.076-0.551,0.145-0.799,0.207c-0.25,0.061-0.49,0.116-0.721,0.166
			c-0.232,0.05-0.465,0.096-0.699,0.137c0.797,0.141,2.007,0.439,3.63,0.896l7.796,2.197v0.993l-8.947,2.575
			c-1.031,0.299-1.863,0.513-2.496,0.642c0.422,0.076,0.87,0.174,1.345,0.294s3.841,1.024,10.099,2.712v0.905L661.35,434.048z"/>
		<path fill="#231F20" d="M665.885,446.054v-5.221l-4.535-1.793v-0.993l12.902,5.168v0.571l-12.902,5.063v-1.011L665.885,446.054z
			 M666.693,441.158v4.597l4.632-1.749c0.363-0.146,0.867-0.322,1.512-0.527c-0.563-0.158-1.072-0.331-1.529-0.519L666.693,441.158z
			"/>
		<path fill="#231F20" d="M667.168,453.621l7.031,3.762v0.967l-7.884-4.28h-4.966v-0.923h4.896l7.954-4.298v1.028L667.168,453.621z"
			/>
		<path fill="#231F20" d="M664.663,471.938c-1.072,0-1.922-0.395-2.549-1.182c-0.627-0.789-0.94-1.836-0.94-3.143
			c0-1.57,0.173-2.774,0.519-3.612h0.896c-0.393,0.926-0.589,2.106-0.589,3.542c0,1.055,0.242,1.891,0.725,2.51
			c0.484,0.617,1.118,0.927,1.903,0.927c0.486,0,0.89-0.103,1.208-0.308c0.32-0.205,0.611-0.539,0.875-1.002
			s0.548-1.143,0.853-2.039c0.451-1.313,0.938-2.219,1.464-2.721c0.523-0.5,1.223-0.751,2.096-0.751c0.961,0,1.744,0.376,2.352,1.13
			c0.605,0.752,0.909,1.721,0.909,2.904c0,1.207-0.229,2.341-0.686,3.401l-0.773-0.325c0.445-1.066,0.668-2.086,0.668-3.059
			c0-0.949-0.22-1.705-0.659-2.268s-1.037-0.844-1.793-0.844c-0.475,0-0.864,0.086-1.169,0.26c-0.305,0.172-0.579,0.455-0.821,0.848
			c-0.244,0.393-0.535,1.066-0.875,2.021c-0.346,1.002-0.682,1.755-1.006,2.259c-0.326,0.504-0.695,0.871-1.107,1.103
			C665.748,471.822,665.249,471.938,664.663,471.938z"/>
		<path fill="#231F20" d="M661.35,478.002v-0.905h12.006v-4.175h0.844v9.255h-0.844v-4.175H661.35z"/>
		<path fill="#231F20" d="M665.885,490.272v-5.221l-4.535-1.793v-0.993l12.902,5.168v0.571l-12.902,5.063v-1.011L665.885,490.272z
			 M666.693,485.376v4.597l4.632-1.749c0.363-0.146,0.867-0.322,1.512-0.527c-0.563-0.158-1.072-0.331-1.529-0.519L666.693,485.376z
			"/>
		<path fill="#231F20" d="M661.35,504.229v-0.905l11.408-7.611v-0.07c-1.359,0.07-2.385,0.105-3.076,0.105h-8.332v-0.861h12.85
			v0.896l-11.391,7.603v0.053c1.055-0.053,2.057-0.079,3.006-0.079h8.385v0.87H661.35z"/>
		<path fill="#231F20" d="M667.897,517.623c-2.156,0-3.786-0.565-4.892-1.696c-1.104-1.131-1.656-2.792-1.656-4.983v-3.076h12.85
			v3.472c0,2.051-0.536,3.61-1.608,4.68S669.954,517.623,667.897,517.623z M667.862,516.648c1.84,0,3.224-0.468,4.153-1.402
			c0.928-0.935,1.393-2.307,1.393-4.117v-2.364h-11.268v2.127C662.141,514.729,664.048,516.648,667.862,516.648z"/>
		<path fill="#231F20" d="M666.28,522.932c-1.541,0-2.977-0.228-4.307-0.681c-1.33-0.455-2.487-1.109-3.472-1.965v-0.976
			c2.367,1.781,4.966,2.672,7.796,2.672c1.506,0,2.935-0.231,4.284-0.694c1.352-0.463,2.557-1.128,3.617-1.995v0.993
			c-1.025,0.861-2.217,1.518-3.572,1.969C669.27,522.706,667.821,522.932,666.28,522.932z"/>
	</g>
</g>
<g id="AREAS">
	<rect id="EXB-20" x="539.736" y="655.823" stroke-width="0" width="20.146" height="16.655"/>
	<rect id="EXB-19" x="518.592" y="655.823" stroke-width="0" width="19.146" height="16.655"/>
	<rect id="EXB-18" x="497.446" y="655.823" stroke-width="0" width="19.146" height="16.655"/>
	<rect id="EXB-17" x="476.301" y="655.823" stroke-width="0" width="19.146" height="16.655"/>
	<rect id="EXB-16" x="455.156" y="655.823" stroke-width="0" width="19.145" height="16.655"/>
	<rect id="EXB-15" x="434.011" y="655.823" stroke-width="0" width="19.146" height="16.655"/>
	<rect id="EXB-14" x="412.865" y="655.823" stroke-width="0" width="19.146" height="16.655"/>
	<rect id="EXB-12A" x="391.721" y="655.823" stroke-width="0" width="19.146" height="16.655"/>
	<rect id="EXB-12" x="370.575" y="655.823" stroke-width="0" width="19.146" height="16.655"/>
	<rect id="EXB-11" x="349.43" y="655.823" stroke-width="0" width="19.146" height="16.655"/>
	<rect id="EXB-10" x="328.285" y="655.823" stroke-width="0" width="19.145" height="16.655"/>
	<rect id="EXB-7" x="243.704" y="655.823" stroke-width="0" width="82.581" height="16.655"/>
	<rect id="EXB-6" x="222.559" y="655.823" stroke-width="0" width="19.145" height="16.655"/>
	<rect id="EXB-5" x="201.414" y="655.823" stroke-width="0" width="19.145" height="16.655"/>
	<rect id="EXB-4" x="180.268" y="655.823" stroke-width="0" width="19.146" height="16.655"/>
	<rect id="EXB-3" x="159.123" y="655.823" stroke-width="0" width="19.145" height="16.655"/>
	<rect id="EXB-2" x="137.978" y="655.823" stroke-width="0" width="19.146" height="16.655"/>
	<rect id="EXB-1" x="115.833" y="655.823" stroke-width="0" width="20.145" height="16.655"/>
	<rect id="SU-SUJ" x="2.111" y="178.312" stroke-width="0" width="26.223" height="71.457"/>
	<rect id="SU-SUI" x="2.111" y="257.635" stroke-width="0" width="26.223" height="60.313"/>
	<rect id="SU-SUHB" x="2.111" y="358.469" stroke-width="0" width="26.223" height="27.656"/>
	<rect id="SU-SUHY" x="2.111" y="325.813" stroke-width="0" width="26.223" height="27.656"/>
	<rect id="SU-SUG" x="2.111" y="394.648" stroke-width="0" width="26.223" height="60.313"/>
	<rect id="SU-SUF" x="2.111" y="462.824" stroke-width="0" width="26.223" height="71.456"/>
	<rect id="SL-SLO" x="31.612" y="178.312" stroke-width="0" width="26.223" height="71.457"/>
	<rect id="SL-SLN" x="31.612" y="257.635" stroke-width="0" width="26.223" height="60.313"/>
	<rect id="SL-SLL" x="31.612" y="394.648" stroke-width="0" width="26.223" height="60.313"/>
	<rect id="SL-SLK" x="31.612" y="462.824" stroke-width="0" width="26.223" height="71.456"/>
	<path id="ES-EE" stroke-width="0" d="M145.893,604.185h-30.061v-59.74h30.061V604.185z M194.798,544.444h-43.172v43.123h13.945
		v16.617h29.227V544.444L194.798,544.444z"/>
	<path id="ES-ED" stroke-width="0" d="M231.116,604.185h-30.371v-59.74h37.272v43.123h-6.901V604.185z M290.736,544.444h-46.449
		v43.123h6.973v16.617h39.476V544.444z"/>
	<path id="ES-EC" stroke-width="0" d="M422.813,604.185h-43.533v-59.74h51.169v43.123h-7.636V604.185L422.813,604.185z
		 M373.161,544.444h-15.606v21.836h15.606V544.444z"/>
	<polygon id="ES-EB" stroke-width="0" points="481.301,544.444 436.033,544.444 436.033,587.567 442.981,587.567 442.981,604.185 
		481.301,604.185 	"/>
	<path id="ES-EA" stroke-width="0" d="M522.161,604.185h-35.703v-59.74h45.267v43.123h-9.563L522.161,604.185L522.161,604.185z
		 M559.882,544.444h-22.321v43.123h2.729v16.617h19.595L559.882,544.444L559.882,544.444z"/>
	<polygon id="NS-NF" stroke-width="0" points="598.13,473.943 597.568,535.311 651.963,535.311 652.489,473.943 	"/>
	<polygon id="NS-NE" stroke-width="0" points="598.69,412.672 598.194,466.825 652.551,466.825 653.015,412.672 	"/>
	<polygon id="NS-ND" stroke-width="0" points="599.16,361.349 598.761,405.016 653.08,405.016 653.455,361.349 	"/>
	<polygon id="NS-NC" stroke-width="0" points="599.627,310.297 599.229,353.965 653.518,353.965 653.893,310.297 	"/>
	<polygon id="NS-NB" stroke-width="0" points="600.185,249.375 599.689,303.531 653.951,303.531 654.415,249.375 	"/>
	<polygon id="NS-NA" stroke-width="0" points="650.339,170.961 650.339,179.208 616,179.208 600.796,182.651 600.255,241.723 
		654.479,241.723 655.096,169.969 	"/>
	<path id="NS-NWW" stroke-width="0" d="M617.724,87.908l15.485,15.482l5.552,30.453L622.9,148.81l1.427,2.007h4.438l14.596,14.437
		l-37.909,11.261l-16.813-16.971l3.986-9.041h-3.986l22.522-55.831L617.724,87.908z M605.451,86.295h-40.06v69.62h17.22
		l-0.157-5.574l22.997-57.258V86.295L605.451,86.295z"/>
	<path id="WS-WX" stroke-width="0" d="M530.242,86.295v69.62H505.09v-69.62H530.242L530.242,86.295z M560.395,86.295h-25.149v69.62
		h25.149V86.295z"/>
	<rect id="WS-WW" x="467.212" y="86.295" stroke-width="0" width="32.878" height="69.62"/>
	<rect id="WS-WV" x="402.212" y="86.295" stroke-width="0" width="60" height="69.62"/>
	<rect id="WS-WU" x="337.211" y="86.295" stroke-width="0" width="60" height="69.62"/>
	<rect id="WS-WT" x="272.211" y="86.295" stroke-width="0" width="60" height="69.62"/>
	<rect id="WS-WS" x="207.211" y="86.295" stroke-width="0" width="60" height="69.62"/>
	<rect id="WS-WR" x="173.314" y="86.295" stroke-width="0" width="28.897" height="69.62"/>
	<rect id="WS-WQ" x="128.129" y="86.295" stroke-width="0" width="40.185" height="69.62"/>
	<rect id="WS-WP" x="103.027" y="126.243" stroke-width="0" width="20.103" height="29.673"/>
	<polygon id="ES-DIR" stroke-width="0" points="339.946,600.278 331.205,600.278 331.205,568.28 296.897,568.28 296.897,604.185 
		373.161,604.185 373.161,568.28 339.946,568.28 	"/>
	<rect id="SL-SLMY" x="31.612" y="325.813" stroke-width="0" width="26.223" height="27.656"/>
	<rect id="SL-SLMB" x="31.612" y="358.657" stroke-width="0" width="26.223" height="27.468"/>
</g>
<g id="LABELS">
	<text fid="EXB-20" transform="matrix(1 0 0 1 544.2471 663.8206)" fill="#F2F2F2" font-family="'Arial'" font-size="10">20</text>
	<text fid="EXB-19" transform="matrix(1 0 0 1 522.6035 663.8206)" fill="#F2F2F2" font-family="'Arial'" font-size="10">19</text>
	<text fid="EXB-18" transform="matrix(1 0 0 1 501.457 663.8206)" fill="#F2F2F2" font-family="'Arial'" font-size="10">18</text>
	<text fid="EXB-17" transform="matrix(1 0 0 1 480.3125 663.8206)" fill="#F2F2F2" font-family="'Arial'" font-size="10">17</text>
	<text fid="EXB-16" transform="matrix(1 0 0 1 459.168 663.8206)" fill="#F2F2F2" font-family="'Arial'" font-size="10">16</text>
	<text fid="EXB-15" transform="matrix(1 0 0 1 438.0215 663.8206)" fill="#F2F2F2" font-family="'Arial'" font-size="10">15</text>
	<text fid="EXB-14" transform="matrix(1 0 0 1 416.877 663.8206)" fill="#F2F2F2" font-family="'Arial'" font-size="10">14</text>
	<text fid="EXB-12A" transform="matrix(1 0 0 1 392.1104 663.8206)" fill="#F2F2F2" font-family="'Arial'" font-size="10">12A</text>
	<text fid="EXB-12" transform="matrix(1 0 0 1 374.5859 663.8206)" fill="#F2F2F2" font-family="'Arial'" font-size="10">12</text>
	<text fid="EXB-11" transform="matrix(1 0 0 1 353.4414 663.8206)" fill="#F2F2F2" font-family="'Arial'" font-size="10">11</text>
	<text fid="EXB-10" transform="matrix(1 0 0 1 332.2959 663.8206)" fill="#F2F2F2" font-family="'Arial'" font-size="10">10</text>
	<text fid="EXB-7" transform="matrix(1 0 0 1 282.2139 663.8206)" fill="#F2F2F2" font-family="'Arial'" font-size="10">7</text>
	<text fid="EXB-6" transform="matrix(1 0 0 1 229.3506 663.8206)" fill="#F2F2F2" font-family="'Arial'" font-size="10">6</text>
	<text fid="EXB-5" transform="matrix(1 0 0 1 208.2056 663.8206)" fill="#F2F2F2" font-family="'Arial'" font-size="10">5</text>
	<text fid="EXB-4" transform="matrix(1 0 0 1 187.0601 663.8206)" fill="#F2F2F2" font-family="'Arial'" font-size="10">4</text>
	<text fid="EXB-3" transform="matrix(1 0 0 1 165.915 663.8206)" fill="#F2F2F2" font-family="'Arial'" font-size="10">3</text>
	<text fid="EXB-2" transform="matrix(1 0 0 1 144.7695 663.8206)" fill="#F2F2F2" font-family="'Arial'" font-size="10">2</text>
	<text fid="EXB-1" transform="matrix(1 0 0 1 123.124 663.8206)" fill="#F2F2F2" font-family="'Arial'" font-size="10">1</text>
	<text fid="SU-SUJ" transform="matrix(1 0 0 1 11.2227 218.3069)" fill="#F2F2F2" font-family="'Arial'" font-size="16">J</text>
	<text fid="SU-SUI" transform="matrix(1 0 0 1 13 292.0588)" fill="#F2F2F2" font-family="'Arial'" font-size="16">I</text>
	<text fid="SU-SUHB" transform="matrix(0 -1 1 0 15.4229 380.5891)" fill="#F2F2F2" font-family="'Arial'" font-size="12">HB</text>
	<text fid="SU-SUHY" transform="matrix(0 -1 1 0 15.4229 347.9749)" fill="#F2F2F2" font-family="'Arial'" font-size="12">HY</text>
	<text fid="SU-SUG" transform="matrix(1 0 0 1 9 429.0725)" fill="#F2F2F2" font-family="'Arial'" font-size="16">G</text>
	<text fid="SU-SUF" transform="matrix(1 0 0 1 10.3359 502.8225)" fill="#F2F2F2" font-family="'Arial'" font-size="16">F</text>
	<text fid="SL-SLO" transform="matrix(1 0 0 1 38.5005 218.3069)" fill="#F2F2F2" font-family="'Arial'" font-size="16">O</text>
	<text fid="SL-SLN" transform="matrix(1 0 0 1 38.9458 292.0588)" fill="#F2F2F2" font-family="'Arial'" font-size="16">N</text>
	<text fid="SL-SLMB" transform="matrix(0 -1 1 0 44.627 381.2542)" fill="#F2F2F2" font-family="'Arial'" font-size="12">MB</text>
	<text fid="SL-SLMY" transform="matrix(0 -1 1 0 44.627 348.6409)" fill="#F2F2F2" font-family="'Arial'" font-size="12">MY</text>
	<text fid="SL-SLL" transform="matrix(1 0 0 1 40.2661 429.0725)" fill="#F2F2F2" font-family="'Arial'" font-size="16">L</text>
	<text fid="SL-SLK" transform="matrix(1 0 0 1 39.3872 502.8225)" fill="#F2F2F2" font-family="'Arial'" font-size="16">K</text>
	<text fid="ES-EE" transform="matrix(1 0 0 1 124.9512 578.5813)" fill="#F2F2F2" font-family="'Arial'" font-size="16">E</text>
	<text fid="ES-ED" transform="matrix(1 0 0 1 214.3677 578.5813)" fill="#F2F2F2" font-family="'Arial'" font-size="16">D</text>
	<text fid="ES-EC" transform="matrix(1 0 0 1 399.0859 578.5813)" fill="#F2F2F2" font-family="'Arial'" font-size="16">C</text>
	<text fid="ES-EB" transform="matrix(1 0 0 1 453.3311 578.5813)" fill="#F2F2F2" font-family="'Arial'" font-size="16">B</text>
	<text fid="ES-EA" transform="matrix(1 0 0 1 501.8623 578.5813)" fill="#F2F2F2" font-family="'Arial'" font-size="16">A</text>
	<text fid="NS-NF" transform="matrix(1 0 0 1 617.0117 508.8938)" fill="#F2F2F2" font-family="'Arial'" font-size="16">NF</text>
	<text fid="NS-NE" transform="matrix(1 0 0 1 616.5625 444.0178)" fill="#F2F2F2" font-family="'Arial'" font-size="16">NE</text>
	<text fid="NS-ND" transform="matrix(1 0 0 1 616.1211 387.4495)" fill="#F2F2F2" font-family="'Arial'" font-size="16">ND</text>
	<text fid="NS-NC" transform="matrix(1 0 0 1 616.1211 336.3977)" fill="#F2F2F2" font-family="'Arial'" font-size="16">NC</text>
	<text fid="NS-NB" transform="matrix(1 0 0 1 616.5625 280.72)" fill="#F2F2F2" font-family="'Arial'" font-size="16">NB</text>
	<text fid="NS-NA" transform="matrix(1 0 0 1 616.1055 220.1135)" fill="#F2F2F2" font-family="'Arial'" font-size="16">NA</text>
	<text fid="NS-NWW" transform="matrix(1 0 0 1 603.9678 140.0569)" fill="#F2F2F2" font-family="'Arial'" font-size="16">YZ</text>
	<text fid="WS-WX" transform="matrix(1 0 0 1 511.9805 125.3723)" fill="#F2F2F2" font-family="'Arial'" font-size="16">X</text>
	<text fid="WS-WW" transform="matrix(1 0 0 1 476.0996 125.3723)" fill="#F2F2F2" font-family="'Arial'" font-size="16">W</text>
	<text fid="WS-WV" transform="matrix(1 0 0 1 426.876 125.3723)" fill="#F2F2F2" font-family="'Arial'" font-size="16">V</text>
	<text fid="WS-WU" transform="matrix(1 0 0 1 361.4346 125.3723)" fill="#F2F2F2" font-family="'Arial'" font-size="16">U</text>
	<text fid="WS-WT" transform="matrix(1 0 0 1 297.3247 125.3723)" fill="#F2F2F2" font-family="'Arial'" font-size="16">T</text>
	<text fid="WS-WS" transform="matrix(1 0 0 1 231.8755 125.3723)" fill="#F2F2F2" font-family="'Arial'" font-size="16">S</text>
	<text fid="WS-WR" transform="matrix(1 0 0 1 181.9854 125.3723)" fill="#F2F2F2" font-family="'Arial'" font-size="16">R</text>
	<text fid="WS-WQ" transform="matrix(1 0 0 1 141.999 125.3723)" fill="#F2F2F2" font-family="'Arial'" font-size="16">Q</text>
	<text fid="WS-WP" transform="matrix(1 0 0 1 107.7422 145.3459)" fill="#F2F2F2" font-family="'Arial'" font-size="16">P</text>
	<text fid="ES-DIR" transform="matrix(1 0 0 1 305.1392 590.0305)" fill="#F2F2F2" font-family="'Arial'" font-size="10">DIR</text>
</g>
</svg>
