<svg>
<g id="AREAS">
	<polygon id="ITC-03" points="474.244,441.649 498.798,441.649 
		498.798,355.659 474.244,355.659 	"/>
	<polygon id="ITC-04" points="431.296,441.649 467.405,441.649 
		467.405,355.658 431.296,355.658 	"/>
	<polyline id="ITC-05" points="388.371,405.302 388.371,355.659 
		424.483,355.659 424.483,441.649 398.083,441.649 398.083,405.302 388.371,405.302 	"/>
	<polygon id="ITC-06" points="345.451,405.29 381.566,405.29 
		381.566,355.659 345.451,355.659 	"/>
	<polygon id="ITC-07" points="302.532,405.302 338.642,405.302 
		338.642,355.659 302.532,355.659 	"/>
	<polygon id="ITC-08" points="259.607,405.302 295.721,405.302 
		295.721,355.659 259.607,355.659 	"/>
	<polyline id="ITC-09" points="216.684,355.659 252.799,355.659 
		252.799,405.302 240.818,405.346 240.818,441.649 216.684,441.649 216.684,355.659 	"/>
	<polygon id="ITC-10" points="173.765,441.649 209.879,441.649 
		209.879,355.659 173.765,355.659 	"/>
	<polygon id="ITC-11" points="130.842,441.649 166.954,441.649 
		166.954,355.659 130.842,355.659 	"/>
	<path id="ITC-12" d="M91.646,435.997
		c10.282,3.656,21.368,5.656,32.919,5.656h1.018v-48.919l-15.499-3.271L91.646,435.997"/>
	<path id="ITC-13" d="M46.149,402.243
		c10.119,13.748,23.918,24.746,39.97,31.59l35.171-82.885L46.149,402.243"/>
	<path id="ITC-14" d="M34.244,380.603
		c2.371,6.094,5.897,12.724,9.438,18.139l43.722-28.603l-4.535-7.247L34.244,380.603"/>
	<path id="CHP-15" d="M27.979,319.964v22.746
		c0,10.572,1.781,20.743,5.065,30.246l87.692-31.528v-21.464H27.979"/>
	<polygon id="CHP-16" points="27.979,313.988 120.738,313.988 
		120.738,283.525 27.979,283.525 	"/>
	<path id="CHP-17" d="M27.979,276.182v-29.639h31.81v29.639H27.979
		L27.979,276.182z M82.193,276.182h38.545v-29.639H82.193V276.182L82.193,276.182z"/>
	<path id="CHP-18" d="M27.979,241.012v-28.569h31.81v28.569H27.979
		L27.979,241.012z M82.193,241.012h38.545v-28.569H82.193V241.012L82.193,241.012z"/>
	<path id="CHP-19" d="M27.979,206.489v-27.845h31.81v27.845H27.979
		L27.979,206.489z M82.193,206.489h38.545v-27.845H82.193V206.489L82.193,206.489z"/>
	<polygon id="FAM-20" points="27.563,173.367 120.321,173.367 
		120.321,144.023 27.563,144.023 	"/>
	<path id="FAM-21" d="M29.207,108.192
		c-0.765,3.8-1.229,8.689-1.229,14.719v16.909h92.759v-13.81L29.207,108.192"/>
	<path id="FAM-22" d="M36.155,85.199
		c-2.297,5.27-4.597,11.512-5.729,18.287l48.376,10.069l1.634-8.648L36.155,85.199"/>
	<path id="FAM-23" d="M52.38,60.147
		c-6.332,6.974-10.306,12.316-14.329,20.899l36.313,16.957l7.79-8.843L52.38,60.147"/>
	<path id="FAM-24" d="M81.797,38.138
		c-10.166,4.936-19.322,11.574-27.083,19.53L87.873,90.98l-9.504,9.801l39.962,18.405l6.36-2.869L81.797,38.138"/>
	<path id="FAM-25" d="M113.174,29.004
		c-9.432,1.092-18.449,3.516-26.854,7.076l24.938,48.144l11.319-3.951L113.174,29.004"/>
	<path id="FAM-26" d="M134.235,120.763l-16.924-92.15
		c2.398-0.173,4.818-0.266,7.254-0.266h11.354v92.416H134.235"/>
	<polygon id="FAM-27" points="139.074,123.607 163.625,123.607 
		163.625,28.347 139.074,28.347 	"/>
	<polygon id="KNG-28" points="170.463,123.607 206.577,123.607 
		206.577,28.347 170.463,28.347 	"/>
	<polygon id="KNG-29" points="213.388,123.607 249.502,123.607 
		249.502,28.347 213.388,28.347 	"/>
	<polygon id="KNG-30" points="256.308,123.607 292.422,123.607 
		292.422,28.347 256.308,28.347 	"/>
	<path id="KNG-31" d="M299.229,123.607v-39.66h36.114v39.66H299.229
		L299.229,123.607z M299.229,65.749h36.114V28.347h-36.114V65.749L299.229,65.749z"/>
	<path id="KNG-32" d="M342.151,123.607v-39.72h36.112v39.721
		L342.151,123.607L342.151,123.607z M342.151,65.749h36.112V28.35h-36.112V65.749L342.151,65.749z"/>
	<polygon id="KNG-33" points="385.073,123.607 421.186,123.607 
		421.186,28.347 385.073,28.347 	"/>
	<polygon id="KNG-34" points="427.993,123.607 464.104,123.607 
		464.104,28.347 427.993,28.347 	"/>
	<polygon id="KNG-35" points="470.918,123.607 507.03,123.607 
		507.03,28.347 470.918,28.347 	"/>
	<path id="KNG-36" d="M510.434,82.344l15.458,3.925l23.356-49.942
		c-11.882-5.128-25.016-7.979-38.814-7.979V82.344L510.434,82.344z"/>
	<path id="KNG-37" d="M589.67,68.892
		c-8.998-12.609-21.057-22.986-35.105-30.084l-39.038,80.803l6.731,5.271h34.424l-13.075-17.132L589.67,68.892"/>
	<path id="KNG-38" d="M604.838,102.875
		c-2.29-10.367-6.325-20.107-11.788-28.912l-41.173,32.464l8.267,11.109L604.838,102.875"/>
	<path id="KNG-39" d="M606.097,109.818
		c0.612,4.28,0.93,8.654,0.93,13.093v7.866h-43.932v-8.72L606.097,109.818"/>
	<polygon id="NOR-40" points="507.03,161.4 606.995,161.4 
		606.995,136.001 507.03,136.001 	"/>
	<polygon id="NOR-41" points="507.03,190.318 606.995,190.318 
		606.995,164.913 507.03,164.913 	"/>
	<polygon id="NOR-42" points="507.03,219.662 606.995,219.662 
		606.995,194.261 507.03,194.261 	"/>
	<polygon id="NOR-43" points="507.03,249.014 606.995,249.014 
		606.995,223.607 507.03,223.607 	"/>
	<polygon id="NOR-44" points="507.031,288.906 606.906,288.906 
		606.906,253.609 507.031,253.609 	"/>
	<polygon id="NOR-45" points="507.03,320.642 606.995,320.642 
		606.995,293.395 507.03,293.395 	"/>
	<polygon id="NOR-46" points="507.03,353.859 606.995,353.859 
		606.995,325.192 507.03,325.192 	"/>
	<path id="NOR-4748" d="M594.226,394.091
		c6.256-10.646,10.456-22.595,12.063-35.313h-98.439l72.756,53.198c3.905-4.201,8.682-10.03,11.773-14.874L594.226,394.091z"/>
	<path id="ITC-0102" d="M532.169,439.237
		c-6.992,1.58-14.268,2.416-21.738,2.416h-7.806l0.297-82.769l74.598,56.175c-10.547,9.977-23.396,17.634-37.682,22.109
		L532.169,439.237z"/>
</g>
<g id="LABELS">
	<text fid="ITC-03" transform="matrix(1 0 0 1 480.9553 402.0645)" fill="#FFFFFF" font-family="'Arial'" font-size="8.6361">03</text>
	<text fid="ITC-04" transform="matrix(1 0 0 1 443.4651 376.7178)" fill="#FFFFFF" font-family="'Arial'" font-size="8.6361">04</text>
	<text fid="ITC-05" transform="matrix(1 0 0 1 400.801 378.2139)" fill="#FFFFFF" font-family="'Arial'" font-size="8.6361">05</text>
	<text fid="ITC-06" transform="matrix(1 0 0 1 357.7229 378.2139)" fill="#FFFFFF" font-family="'Arial'" font-size="8.6361">06</text>
	<text fid="ITC-07" transform="matrix(1 0 0 1 315.1375 378.2139)" fill="#FFFFFF" font-family="'Arial'" font-size="8.6361">07</text>
	<text fid="ITC-08" transform="matrix(1 0 0 1 271.991 378.2139)" fill="#FFFFFF" font-family="'Arial'" font-size="8.6361">08</text>
	<text fid="ITC-09" transform="matrix(1 0 0 1 228.9651 378.2139)" fill="#FFFFFF" font-family="'Arial'" font-size="8.6361">09</text>
	<text fid="ITC-10" transform="matrix(1 0 0 1 187.1477 378.2139)" fill="#FFFFFF" font-family="'Arial'" font-size="8.6361">10</text>
	<text fid="ITC-11" transform="matrix(1 0 0 1 145.6541 378.2139)" fill="#FFFFFF" font-family="'Arial'" font-size="8.6361">11</text>
	<text fid="ITC-12" transform="matrix(1 0 0 1 107.2971 429.0518)" fill="#FFFFFF" font-family="'Arial'" font-size="8.6361">12</text>
	<text fid="ITC-13" transform="matrix(1 0 0 1 70.5715 409.0254)" fill="#FFFFFF" font-family="'Arial'" font-size="8.6361">13</text>
	<text fid="ITC-14" transform="matrix(1 0 0 1 42.7961 388.8848)" fill="#FFFFFF" font-family="'Arial'" font-size="8.6361">14</text>
	<text fid="CHP-15" transform="matrix(1 0 0 1 67.7126 341.1768)" fill="#FFFFFF" font-family="'Arial'" font-size="8.6361">15</text>
	<text fid="CHP-16" transform="matrix(1 0 0 1 69.7957 301.5566)" fill="#FFFFFF" font-family="'Arial'" font-size="8.6361">16</text>
	<text fid="CHP-17" transform="matrix(1 0 0 1 96.2292 264.3809)" fill="#FFFFFF" font-family="'Arial'" font-size="8.6361">17</text>
	<text fid="CHP-18" transform="matrix(1 0 0 1 96.1418 229.5146)" fill="#FFFFFF" font-family="'Arial'" font-size="8.6361">18</text>
	<text fid="CHP-19" transform="matrix(1 0 0 1 96.0295 194.9326)" fill="#FFFFFF" font-family="'Arial'" font-size="8.6361">19</text>
	<text fid="FAM-20" transform="matrix(1 0 0 1 65.05 162.626)" fill="#FFFFFF" font-family="'Arial'" font-size="8.6361">20</text>
	<text fid="FAM-21" transform="matrix(1 0 0 1 38.5676 125.5625)" fill="#FFFFFF" font-family="'Arial'" font-size="8.6361">21</text>
	<text fid="FAM-22" transform="matrix(1 0 0 1 37.6208 100.7676)" fill="#FFFFFF" font-family="'Arial'" font-size="8.6361">22</text>
	<text fid="FAM-23" transform="matrix(1 0 0 1 48.4182 79.7734)" fill="#FFFFFF" font-family="'Arial'" font-size="8.6361">23</text>
	<text fid="FAM-24" transform="matrix(1 0 0 1 70.1213 61.4023)" fill="#FFFFFF" font-family="'Arial'" font-size="8.6361">24</text>
	<text fid="FAM-25" transform="matrix(1 0 0 1 98.7961 48.04)" fill="#FFFFFF" font-family="'Arial'" font-size="8.6361">25</text>
	<text fid="FAM-26" transform="matrix(1 0 0 1 122.2537 40.5508)" fill="#FFFFFF" font-family="'Arial'" font-size="8.6361">26</text>
	<text fid="FAM-27" transform="matrix(1 0 0 1 146.2947 76.0957)" fill="#FFFFFF" font-family="'Arial'" font-size="8.6361">27</text>
	<text fid="KNG-28" transform="matrix(1 0 0 1 183.325 76.0957)" fill="#FFFFFF" font-family="'Arial'" font-size="8.6361">28</text>
	<text fid="KNG-29" transform="matrix(1 0 0 1 226.1453 76.0957)" fill="#FFFFFF" font-family="'Arial'" font-size="8.6361">29</text>
	<text fid="KNG-30" transform="matrix(1 0 0 1 268.7522 76.0957)" fill="#FFFFFF" font-family="'Arial'" font-size="8.6361">30</text>
	<text fid="KNG-31" transform="matrix(1 0 0 1 313.0916 105.0859)" fill="#FFFFFF" font-family="'Arial'" font-size="8.6361">31</text>
	<text fid="KNG-32" transform="matrix(1 0 0 1 355.0686 105.0859)" fill="#FFFFFF" font-family="'Arial'" font-size="8.6361">32</text>
	<text fid="KNG-33" transform="matrix(1 0 0 1 397.967 76.0957)" fill="#FFFFFF" font-family="'Arial'" font-size="8.6361">33</text>
	<text fid="KNG-34" transform="matrix(1 0 0 1 440.6311 76.0957)" fill="#FFFFFF" font-family="'Arial'" font-size="8.6361">34</text>
	<text fid="KNG-35" transform="matrix(1 0 0 1 483.8225 76.0957)" fill="#FFFFFF" font-family="'Arial'" font-size="8.6361">35</text>
	<text fid="KNG-36" transform="matrix(1 0 0 1 520.1096 47.2754)" fill="#FFFFFF" font-family="'Arial'" font-size="8.6361">36</text>
	<text fid="KNG-37" transform="matrix(1 0 0 1 558.2971 66.9766)" fill="#FFFFFF" font-family="'Arial'" font-size="8.6361">37</text>
	<text fid="KNG-38" transform="matrix(1 0 0 1 582.0139 98.0352)" fill="#FFFFFF" font-family="'Arial'" font-size="8.6361">38</text>
	<text fid="KNG-39" transform="matrix(1 0 0 1 590.3909 125.1807)" fill="#FFFFFF" font-family="'Arial'" font-size="8.6361">39</text>
	<text fid="NOR-40" transform="matrix(1 0 0 1 551.1233 152.1123)" fill="#FFFFFF" font-family="'Arial'" font-size="8.6361">40</text>
	<text fid="NOR-41" transform="matrix(1 0 0 1 552.6311 181.3711)" fill="#FFFFFF" font-family="'Arial'" font-size="8.6361">41</text>
	<text fid="NOR-42" transform="matrix(1 0 0 1 551.5959 210.709)" fill="#FFFFFF" font-family="'Arial'" font-size="8.6361">42</text>
	<text fid="NOR-43" transform="matrix(1 0 0 1 550.7756 240.0586)" fill="#FFFFFF" font-family="'Arial'" font-size="8.6361">43</text>
	<text fid="NOR-44" transform="matrix(1 0 0 1 550.4495 272.7813)" fill="#FFFFFF" font-family="'Arial'" font-size="8.6361">44</text>
	<text fid="NOR-45" transform="matrix(1 0 0 1 550.7522 310.3506)" fill="#FFFFFF" font-family="'Arial'" font-size="8.6361">45</text>
	<text fid="NOR-46" transform="matrix(1 0 0 1 550.6077 342.9385)" fill="#FFFFFF" font-family="'Arial'" font-size="8.6361">46</text>
	<text fid="NOR-4748" transform="matrix(1 0 0 1 546.2629 377.6797)" fill="#FFFFFF" font-family="'Arial'" font-size="8.6361">47/48</text>
	<text fid="ITC-0102" transform="matrix(1 0 0 1 514.2659 402.5723)" fill="#FFFFFF" font-family="'Arial'" font-size="8.6361">01/02</text>
</g>
<g id="EXTRAS">
	<path fill="ffffff" d="M298.238,78.21v-6.045h2.256c0.938,0,1.708,0.287,2.31,0.859c0.602,0.573,0.903,1.288,0.903,2.146v0.018
		c0,0.863-0.303,1.583-0.903,2.159c-0.602,0.576-1.372,0.864-2.31,0.864L298.238,78.21L298.238,78.21z M299.3,77.243h1.192
		c0.627,0,1.134-0.19,1.52-0.57s0.579-0.87,0.579-1.468v-0.017c0-0.599-0.193-1.091-0.579-1.477
		c-0.386-0.386-0.893-0.579-1.52-0.579H299.3V77.243z"/>
	<path fill="ffffff" d="M304.793,78.21v-6.045h1.062v6.045H304.793z"/>
	<path fill="ffffff" d="M309.327,78.296c-0.961,0-1.804-0.322-2.521-0.967l0.639-0.76c0.604,0.524,1.241,0.786,1.909,0.786
		c0.328,0,0.589-0.069,0.782-0.207s0.289-0.323,0.289-0.553v-0.018c0-0.225-0.092-0.403-0.276-0.535
		c-0.184-0.132-0.547-0.262-1.088-0.389c-0.346-0.086-0.633-0.173-0.864-0.259c-0.229-0.086-0.438-0.199-0.62-0.337
		c-0.187-0.138-0.318-0.307-0.402-0.505c-0.083-0.199-0.125-0.433-0.125-0.704v-0.017c0-0.518,0.191-0.94,0.579-1.265
		c0.386-0.325,0.881-0.488,1.483-0.488c0.829,0,1.562,0.253,2.193,0.76l-0.57,0.803c-0.559-0.415-1.104-0.622-1.641-0.622
		c-0.3,0-0.539,0.068-0.717,0.203c-0.181,0.135-0.27,0.307-0.27,0.514v0.018c0,0.236,0.099,0.418,0.29,0.548
		c0.193,0.129,0.574,0.263,1.146,0.401c0.668,0.161,1.159,0.376,1.473,0.644c0.314,0.268,0.471,0.644,0.471,1.127v0.017
		c0,0.559-0.197,0.999-0.596,1.321C310.493,78.135,309.971,78.296,309.327,78.296z"/>
	<path fill="ffffff" d="M311.833,78.21l2.66-6.088h0.982l2.66,6.088h-1.123l-0.613-1.459h-2.856l-0.622,1.459H311.833z
		 M313.931,75.809h2.082l-1.045-2.418L313.931,75.809z"/>
	<path fill="ffffff" d="M318.914,78.21v-6.045h2.712c0.694,0,1.223,0.179,1.58,0.536c0.271,0.271,0.404,0.604,0.404,1.002v0.017
		c0,0.599-0.286,1.048-0.862,1.347c0.801,0.271,1.199,0.76,1.199,1.468v0.017c0,0.53-0.2,0.938-0.604,1.227
		c-0.403,0.288-0.947,0.432-1.633,0.432L318.914,78.21L318.914,78.21z M319.959,74.712h1.451c0.351,0,0.629-0.069,0.833-0.208
		c0.202-0.139,0.307-0.342,0.307-0.613v-0.018c0-0.242-0.092-0.43-0.276-0.565c-0.184-0.135-0.444-0.203-0.786-0.203h-1.526
		L319.959,74.712L319.959,74.712z M319.959,77.269h1.762c0.368,0,0.655-0.07,0.859-0.211s0.307-0.347,0.307-0.618v-0.017
		c0-0.541-0.415-0.812-1.244-0.812h-1.684V77.269L319.959,77.269z"/>
	<path fill="ffffff" d="M324.89,78.21v-6.045h1.063v5.078h3.178v0.967H324.89z"/>
	<path fill="ffffff" d="M329.977,78.21v-6.045h4.482v0.95h-3.42v1.572h3.029v0.95h-3.029v1.624h3.463v0.95L329.977,78.21
		L329.977,78.21z"/>
	<path fill="ffffff" d="M335.504,78.21v-6.045h2.254c0.938,0,1.708,0.287,2.311,0.859c0.604,0.573,0.902,1.288,0.902,2.146v0.018
		c0,0.863-0.301,1.583-0.902,2.159c-0.603,0.576-1.372,0.864-2.311,0.864L335.504,78.21L335.504,78.21z M336.566,77.243h1.191
		c0.628,0,1.134-0.19,1.52-0.57c0.388-0.38,0.579-0.87,0.579-1.468v-0.017c0-0.599-0.191-1.091-0.579-1.477
		c-0.386-0.386-0.892-0.579-1.52-0.579h-1.191V77.243z"/>
	<path fill="ffffff" d="M346.446,78.296c-0.962,0-1.803-0.322-2.521-0.967l0.64-0.76c0.604,0.524,1.24,0.786,1.908,0.786
		c0.328,0,0.589-0.069,0.781-0.207c0.191-0.138,0.29-0.323,0.29-0.553v-0.018c0-0.225-0.093-0.403-0.276-0.535
		c-0.185-0.132-0.548-0.262-1.089-0.389c-0.345-0.086-0.633-0.173-0.863-0.259c-0.229-0.086-0.438-0.199-0.622-0.337
		c-0.184-0.138-0.315-0.307-0.399-0.505c-0.083-0.199-0.125-0.433-0.125-0.704v-0.017c0-0.518,0.19-0.94,0.578-1.265
		c0.386-0.325,0.881-0.488,1.483-0.488c0.829,0,1.563,0.253,2.194,0.76l-0.57,0.803c-0.559-0.415-1.104-0.622-1.641-0.622
		c-0.3,0-0.539,0.068-0.717,0.203c-0.181,0.135-0.27,0.307-0.27,0.514v0.018c0,0.236,0.098,0.418,0.289,0.548
		c0.192,0.129,0.574,0.263,1.146,0.401c0.667,0.161,1.156,0.376,1.472,0.644c0.313,0.268,0.471,0.644,0.471,1.127v0.017
		c0,0.559-0.197,0.999-0.596,1.321C347.611,78.135,347.091,78.296,346.446,78.296z"/>
	<path fill="ffffff" d="M349.598,78.21v-6.045h4.482v0.95h-3.42v1.572h3.029v0.95h-3.029v1.624h3.463v0.95L349.598,78.21
		L349.598,78.21z"/>
	<path fill="ffffff" d="M354.606,78.21l2.66-6.088h0.984l2.66,6.088h-1.123l-0.613-1.459h-2.858l-0.621,1.459H354.606z
		 M356.705,75.809h2.081l-1.047-2.418L356.705,75.809z"/>
	<path fill="ffffff" d="M362.403,78.21v-5.061h-1.917v-0.985h4.905v0.985h-1.917v5.061H362.403z"/>
	<path fill="ffffff" d="M366.315,78.21v-6.045h1.063v6.045H366.315z"/>
	<path fill="ffffff" d="M368.732,78.21v-6.045h0.984l3.238,4.18v-4.18H374v6.045h-0.892l-3.333-4.301v4.301H368.732z"/>
	<path fill="ffffff" d="M378.167,78.313c-0.935,0-1.688-0.295-2.269-0.885c-0.579-0.59-0.868-1.331-0.868-2.224v-0.017
		c0-0.864,0.297-1.601,0.887-2.211s1.335-0.916,2.23-0.916c0.507,0,0.938,0.068,1.296,0.203c0.356,0.135,0.699,0.341,1.027,0.617
		l-0.674,0.803c-0.253-0.219-0.508-0.381-0.765-0.488c-0.258-0.106-0.565-0.16-0.93-0.16c-0.553,0-1.018,0.208-1.395,0.626
		s-0.565,0.92-0.565,1.507v0.018c0,0.627,0.189,1.144,0.569,1.55c0.38,0.406,0.875,0.609,1.483,0.609
		c0.564,0,1.053-0.152,1.461-0.458v-1.131h-1.547v-0.924h2.573v2.539C379.957,78,379.117,78.313,378.167,78.313z"/>
	<path fill="ffffff" d="M278.591,437.115v-6.045h2.254c0.938,0,1.708,0.286,2.31,0.857c0.604,0.572,0.903,1.288,0.903,2.146v0.018
		c0,0.863-0.301,1.583-0.903,2.159c-0.602,0.575-1.37,0.863-2.31,0.863L278.591,437.115L278.591,437.115z M279.653,436.148h1.192
		c0.627,0,1.134-0.19,1.52-0.57c0.388-0.38,0.579-0.869,0.579-1.468v-0.02c0-0.599-0.191-1.091-0.579-1.477
		c-0.386-0.386-0.893-0.579-1.52-0.579h-1.192V436.148z"/>
	<path fill="ffffff" d="M285.131,437.115v-6.045h1.062v6.045H285.131z"/>
	<path fill="ffffff" d="M289.665,437.201c-0.961,0-1.804-0.322-2.521-0.967l0.641-0.762c0.604,0.523,1.239,0.786,1.907,0.786
		c0.328,0,0.589-0.067,0.782-0.208c0.193-0.138,0.289-0.32,0.289-0.553v-0.017c0-0.227-0.092-0.403-0.276-0.536
		c-0.184-0.133-0.547-0.264-1.088-0.391c-0.346-0.086-0.633-0.173-0.862-0.259c-0.231-0.086-0.438-0.198-0.622-0.337
		c-0.187-0.138-0.318-0.307-0.402-0.505c-0.083-0.199-0.125-0.436-0.125-0.704v-0.018c0-0.52,0.193-0.939,0.579-1.267
		s0.881-0.488,1.485-0.488c0.827,0,1.56,0.256,2.191,0.762l-0.57,0.804c-0.559-0.415-1.104-0.622-1.641-0.622
		c-0.3,0-0.539,0.067-0.717,0.203c-0.179,0.136-0.27,0.307-0.27,0.514v0.02c0,0.234,0.099,0.419,0.29,0.548
		c0.193,0.13,0.574,0.264,1.146,0.4c0.668,0.161,1.159,0.375,1.473,0.645c0.314,0.269,0.472,0.644,0.472,1.127v0.018
		c0,0.561-0.198,0.999-0.597,1.321C290.831,437.04,290.309,437.201,289.665,437.201z"/>
	<path fill="ffffff" d="M292.176,437.115l2.66-6.089h0.982l2.66,6.089h-1.123l-0.611-1.46h-2.858l-0.622,1.46H292.176z
		 M294.274,434.715h2.082l-1.045-2.419L294.274,434.715z"/>
	<path fill="ffffff" d="M299.258,437.115v-6.045h2.711c0.697,0,1.224,0.178,1.581,0.535c0.271,0.271,0.406,0.604,0.406,1.002v0.017
		c0,0.6-0.288,1.049-0.863,1.348c0.8,0.271,1.2,0.762,1.2,1.47v0.018c0,0.53-0.202,0.938-0.604,1.227
		c-0.4,0.289-0.945,0.434-1.632,0.434h-2.799V437.115z M300.303,433.617h1.451c0.351,0,0.629-0.068,0.833-0.207
		c0.204-0.138,0.307-0.343,0.307-0.613v-0.017c0-0.242-0.092-0.433-0.274-0.566c-0.187-0.135-0.446-0.202-0.786-0.202h-1.528
		L300.303,433.617L300.303,433.617z M300.303,436.174h1.762c0.368,0,0.655-0.07,0.859-0.212c0.204-0.141,0.307-0.347,0.307-0.617
		v-0.018c0-0.541-0.415-0.813-1.244-0.813h-1.684V436.174L300.303,436.174z"/>
	<path fill="ffffff" d="M305.234,437.115v-6.045h1.063v5.078h3.178v0.967H305.234z"/>
	<path fill="ffffff" d="M310.32,437.115v-6.045h4.482v0.947h-3.42v1.572h3.031v0.95h-3.031v1.623h3.463v0.95L310.32,437.115
		L310.32,437.115z"/>
	<path fill="ffffff" d="M315.847,437.115v-6.045h2.254c0.938,0,1.708,0.286,2.312,0.857c0.602,0.572,0.9,1.288,0.9,2.146v0.018
		c0,0.863-0.301,1.583-0.9,2.159c-0.604,0.575-1.371,0.863-2.312,0.863L315.847,437.115L315.847,437.115z M316.909,436.148h1.19
		c0.627,0,1.134-0.19,1.521-0.57c0.386-0.38,0.576-0.869,0.576-1.468v-0.02c0-0.599-0.19-1.091-0.576-1.477
		c-0.388-0.386-0.895-0.579-1.521-0.579h-1.19V436.148z"/>
	<path fill="ffffff" d="M326.79,437.201c-0.962,0-1.805-0.322-2.522-0.967l0.642-0.762c0.604,0.523,1.238,0.786,1.906,0.786
		c0.328,0,0.589-0.067,0.781-0.208c0.193-0.138,0.29-0.32,0.29-0.553v-0.017c0-0.227-0.093-0.403-0.276-0.536
		c-0.185-0.133-0.548-0.264-1.089-0.391c-0.345-0.086-0.633-0.173-0.861-0.259c-0.23-0.086-0.438-0.198-0.622-0.337
		c-0.186-0.138-0.317-0.307-0.401-0.505c-0.083-0.199-0.125-0.436-0.125-0.704v-0.018c0-0.52,0.192-0.939,0.578-1.267
		s0.881-0.488,1.485-0.488c0.827,0,1.561,0.256,2.192,0.762l-0.57,0.804c-0.559-0.415-1.104-0.622-1.641-0.622
		c-0.3,0-0.539,0.067-0.717,0.203c-0.179,0.136-0.27,0.307-0.27,0.514v0.02c0,0.234,0.098,0.419,0.289,0.548
		c0.192,0.13,0.574,0.264,1.146,0.4c0.667,0.161,1.158,0.375,1.472,0.645c0.314,0.269,0.471,0.644,0.471,1.127v0.018
		c0,0.561-0.196,0.999-0.596,1.321C327.955,437.039,327.435,437.201,326.79,437.201z"/>
	<path fill="ffffff" d="M329.941,437.115v-6.045h4.482v0.947h-3.42v1.572h3.031v0.95h-3.031v1.623h3.463v0.95L329.941,437.115
		L329.941,437.115z"/>
	<path fill="ffffff" d="M334.95,437.115l2.658-6.089h0.984l2.66,6.089h-1.123l-0.613-1.46h-2.856l-0.621,1.46H334.95z
		 M337.049,434.715h2.081l-1.045-2.419L337.049,434.715z"/>
	<path fill="ffffff" d="M342.732,437.115v-5.063h-1.917v-0.982h4.905v0.982h-1.917v5.063H342.732z"/>
	<path fill="ffffff" d="M346.645,437.115v-6.045h1.063v6.045H346.645z"/>
	<path fill="ffffff" d="M349.054,437.115v-6.045h0.984l3.236,4.18v-4.18h1.045v6.045h-0.89l-3.333-4.301v4.301H349.054z"/>
	<path fill="ffffff" d="M358.488,437.219c-0.933,0-1.688-0.295-2.267-0.885c-0.579-0.591-0.868-1.332-0.868-2.224v-0.02
		c0-0.864,0.295-1.601,0.885-2.211c0.592-0.609,1.335-0.915,2.232-0.915c0.507,0,0.938,0.067,1.296,0.202
		c0.356,0.136,0.699,0.342,1.027,0.618l-0.674,0.803c-0.253-0.219-0.51-0.381-0.766-0.488c-0.257-0.104-0.564-0.157-0.929-0.157
		c-0.553,0-1.019,0.209-1.396,0.626c-0.377,0.417-0.563,0.92-0.563,1.507v0.018c0,0.627,0.188,1.146,0.569,1.55
		c0.38,0.406,0.875,0.609,1.483,0.609c0.564,0,1.051-0.152,1.46-0.458v-1.132h-1.546v-0.924h2.573v2.539
		C360.278,436.905,359.438,437.219,358.488,437.219z"/>
	<path fill="ffffff" d="M292.031,450.991v-6.045h1.063v2.513h2.885v-2.513h1.063v6.045h-1.063v-2.548h-2.885v2.548H292.031z"/>
	<path fill="ffffff" d="M303.496,450.18c-0.601,0.61-1.356,0.915-2.271,0.915s-1.669-0.302-2.263-0.904
		c-0.593-0.604-0.891-1.341-0.891-2.202v-0.02c0-0.862,0.301-1.601,0.898-2.211c0.599-0.608,1.356-0.915,2.271-0.915
		c0.914,0,1.669,0.302,2.262,0.906c0.593,0.604,0.89,1.339,0.89,2.202v0.018C304.394,448.832,304.094,449.569,303.496,450.18z
		 M299.769,449.493c0.391,0.417,0.879,0.626,1.475,0.626c0.593,0,1.079-0.206,1.463-0.617c0.383-0.412,0.573-0.917,0.573-1.516
		v-0.02c0-0.599-0.192-1.105-0.583-1.522c-0.389-0.417-0.88-0.626-1.473-0.626s-1.081,0.206-1.464,0.615
		c-0.383,0.412-0.574,0.917-0.574,1.518v0.018C299.186,448.567,299.38,449.075,299.769,449.493z"/>
	<path fill="ffffff" d="M307.495,451.077c-0.961,0-1.804-0.322-2.521-0.967l0.639-0.762c0.604,0.523,1.241,0.786,1.909,0.786
		c0.328,0,0.589-0.067,0.782-0.208c0.193-0.138,0.289-0.32,0.289-0.553v-0.017c0-0.227-0.092-0.403-0.276-0.536
		c-0.184-0.132-0.547-0.264-1.088-0.391c-0.346-0.086-0.633-0.173-0.864-0.259c-0.229-0.086-0.438-0.198-0.62-0.337
		c-0.187-0.138-0.318-0.307-0.402-0.505c-0.083-0.199-0.125-0.435-0.125-0.704v-0.018c0-0.52,0.193-0.939,0.579-1.267
		s0.881-0.488,1.483-0.488c0.829,0,1.562,0.256,2.193,0.762l-0.57,0.804c-0.559-0.415-1.104-0.622-1.641-0.622
		c-0.3,0-0.539,0.067-0.717,0.203c-0.181,0.136-0.27,0.307-0.27,0.514v0.02c0,0.234,0.099,0.419,0.29,0.548
		c0.193,0.13,0.574,0.264,1.146,0.402c0.668,0.159,1.159,0.375,1.473,0.643c0.313,0.269,0.471,0.644,0.471,1.127v0.018
		c0,0.561-0.197,0.999-0.596,1.321C308.661,450.916,308.139,451.077,307.495,451.077z"/>
	<path fill="ffffff" d="M310.647,450.991v-6.045h2.383c0.703,0,1.263,0.184,1.678,0.553c0.415,0.368,0.622,0.857,0.622,1.468v0.02
		c0,0.648-0.229,1.155-0.688,1.52s-1.035,0.544-1.729,0.544h-1.201v1.943L310.647,450.991L310.647,450.991z M311.709,448.09h1.233
		c0.397,0,0.716-0.101,0.95-0.303c0.236-0.201,0.354-0.46,0.354-0.777v-0.017c0-0.347-0.117-0.612-0.352-0.799
		c-0.231-0.188-0.551-0.281-0.955-0.281h-1.233L311.709,448.09L311.709,448.09z"/>
	<path fill="ffffff" d="M316.217,450.991v-6.045h1.062v6.045H316.217z"/>
	<path fill="ffffff" d="M320.122,450.991v-5.063h-1.917v-0.982h4.903v0.982h-1.917v5.063H320.122z"/>
	<path fill="ffffff" d="M322.678,450.991l2.66-6.089h0.982l2.66,6.089h-1.123l-0.611-1.46h-2.858l-0.621,1.46H322.678z
		 M324.776,448.591h2.081l-1.045-2.419L324.776,448.591z"/>
	<path fill="ffffff" d="M329.758,450.991v-6.045h1.063v5.078H334v0.967H329.758z"/>
	<path fill="ffffff" d="M334.905,450.991v-6.045h1.063v6.045H334.905z"/>
	<path fill="ffffff" d="M338.809,450.991v-5.063h-1.917v-0.982h4.905v0.982h-1.917v5.063H338.809z"/>
	<path fill="ffffff" d="M344.424,450.991v-2.384l-2.401-3.661h1.252l1.693,2.677l1.71-2.677h1.218l-2.399,3.636v2.409H344.424
		L344.424,450.991z"/>
	<path fill="ffffff" d="M74.934,269.057h-6.045v-2.254c0-0.938,0.287-1.707,0.859-2.311c0.571-0.602,1.288-0.902,2.146-0.902h0.02
		c0.861,0,1.583,0.301,2.157,0.902c0.576,0.604,0.864,1.372,0.864,2.311L74.934,269.057L74.934,269.057z M73.967,267.994v-1.191
		c0-0.628-0.19-1.134-0.57-1.52c-0.38-0.387-0.87-0.579-1.468-0.579h-0.017c-0.601,0-1.093,0.192-1.479,0.579
		c-0.386,0.386-0.579,0.892-0.579,1.52v1.191H73.967z"/>
	<path fill="ffffff" d="M74.934,262.502h-6.045v-1.063h6.045V262.502z"/>
	<path fill="ffffff" d="M75.021,257.967c0,0.963-0.32,1.803-0.967,2.522l-0.76-0.64c0.522-0.604,0.786-1.24,0.786-1.908
		c0-0.328-0.069-0.59-0.207-0.781c-0.14-0.193-0.323-0.29-0.555-0.29h-0.018c-0.225,0-0.403,0.093-0.535,0.276
		c-0.132,0.185-0.262,0.547-0.389,1.088c-0.086,0.346-0.173,0.634-0.259,0.863s-0.199,0.438-0.338,0.623
		c-0.139,0.184-0.308,0.315-0.506,0.399c-0.197,0.083-0.433,0.125-0.704,0.125h-0.017c-0.518,0-0.938-0.19-1.265-0.578
		c-0.325-0.386-0.488-0.881-0.488-1.483c0-0.83,0.253-1.563,0.76-2.195l0.805,0.57c-0.415,0.56-0.622,1.104-0.622,1.642
		c0,0.3,0.066,0.538,0.201,0.717c0.137,0.179,0.309,0.269,0.516,0.269h0.018c0.236,0,0.418-0.097,0.548-0.289
		c0.129-0.191,0.265-0.573,0.401-1.146c0.161-0.667,0.376-1.157,0.644-1.472c0.27-0.314,0.646-0.471,1.129-0.471h0.017
		c0.559,0,0.999,0.196,1.321,0.596C74.859,256.802,75.021,257.322,75.021,257.967z"/>
	<path fill="ffffff" d="M74.934,255.463l-6.088-2.66v-0.984l6.088-2.658v1.123l-1.459,0.611v2.858l1.459,0.621V255.463z
		 M72.533,253.364v-2.081l-2.418,1.045L72.533,253.364z"/>
	<path fill="ffffff" d="M74.934,248.377h-6.045v-2.712c0-0.696,0.179-1.224,0.536-1.58c0.271-0.271,0.604-0.405,1.002-0.405h0.017
		c0.601,0,1.05,0.287,1.349,0.863c0.271-0.801,0.76-1.201,1.468-1.201h0.017c0.53,0,0.938,0.202,1.229,0.604
		c0.288,0.404,0.432,0.947,0.432,1.635L74.934,248.377L74.934,248.377z M71.437,247.332v-1.451c0-0.352-0.067-0.629-0.208-0.833
		c-0.139-0.204-0.342-0.307-0.611-0.307h-0.02c-0.242,0-0.43,0.092-0.563,0.276c-0.137,0.184-0.203,0.444-0.203,0.784v1.528
		L71.437,247.332L71.437,247.332z M73.993,247.332v-1.762c0-0.368-0.07-0.655-0.211-0.859c-0.143-0.204-0.349-0.307-0.618-0.307
		h-0.019c-0.541,0-0.812,0.414-0.812,1.244v1.684H73.993L73.993,247.332z"/>
	<path fill="ffffff" d="M74.934,242.406h-6.045v-1.063h5.078v-3.178h0.967V242.406z"/>
	<path fill="ffffff" d="M74.934,237.318h-6.045v-4.48h0.95v3.419h1.572v-3.03h0.948v3.03h1.624v-3.462h0.95V237.318L74.934,237.318
		z"/>
	<path fill="ffffff" d="M74.934,231.793h-6.045v-2.254c0-0.938,0.287-1.708,0.859-2.31c0.571-0.602,1.288-0.903,2.146-0.903h0.02
		c0.861,0,1.583,0.301,2.157,0.903c0.576,0.602,0.864,1.372,0.864,2.31L74.934,231.793L74.934,231.793z M73.967,230.731v-1.192
		c0-0.627-0.19-1.134-0.57-1.52c-0.38-0.386-0.87-0.579-1.468-0.579h-0.017c-0.601,0-1.093,0.193-1.479,0.579
		c-0.386,0.386-0.579,0.893-0.579,1.52v1.192H73.967z"/>
	<path fill="ffffff" d="M75.021,220.852c0,0.961-0.32,1.802-0.967,2.521l-0.76-0.639c0.522-0.604,0.786-1.241,0.786-1.909
		c0-0.328-0.069-0.589-0.207-0.782c-0.14-0.193-0.323-0.289-0.555-0.289h-0.018c-0.225,0-0.403,0.092-0.535,0.276
		c-0.132,0.184-0.262,0.547-0.389,1.088c-0.086,0.346-0.173,0.633-0.259,0.864s-0.199,0.438-0.338,0.622
		c-0.139,0.185-0.308,0.318-0.506,0.402c-0.197,0.083-0.433,0.125-0.704,0.125h-0.017c-0.518,0-0.938-0.193-1.265-0.579
		c-0.325-0.386-0.488-0.881-0.488-1.485c0-0.829,0.253-1.56,0.76-2.193l0.805,0.57c-0.415,0.559-0.622,1.105-0.622,1.641
		c0,0.3,0.066,0.539,0.201,0.717c0.137,0.179,0.309,0.268,0.516,0.268h0.018c0.236,0,0.418-0.097,0.548-0.29
		c0.129-0.193,0.265-0.574,0.401-1.144c0.161-0.668,0.376-1.159,0.644-1.473c0.27-0.313,0.646-0.471,1.129-0.471h0.017
		c0.559,0,0.999,0.199,1.321,0.596C74.859,219.686,75.021,220.207,75.021,220.852z"/>
	<path fill="ffffff" d="M74.934,217.699h-6.045v-4.482h0.95v3.42h1.572v-3.031h0.948v3.031h1.624v-3.463h0.95V217.699
		L74.934,217.699z"/>
	<path fill="ffffff" d="M74.934,212.688l-6.088-2.66v-0.984l6.088-2.66v1.123l-1.459,0.613v2.858l1.459,0.622V212.688z
		 M72.533,210.589v-2.082l-2.418,1.045L72.533,210.589z"/>
	<path fill="ffffff" d="M74.934,204.898h-5.061v1.917h-0.985v-4.906h0.985v1.917h5.061V204.898z"/>
	<path fill="ffffff" d="M74.934,200.988h-6.045v-1.062h6.045V200.988z"/>
	<path fill="ffffff" d="M74.934,198.57h-6.045v-0.984l4.18-3.239h-4.18v-1.045h6.045v0.89l-4.301,3.333h4.301V198.57z"/>
	<path fill="ffffff" d="M75.038,189.14c0,0.933-0.295,1.688-0.887,2.267c-0.59,0.579-1.331,0.868-2.224,0.868h-0.017
		c-0.864,0-1.603-0.295-2.211-0.885c-0.61-0.59-0.916-1.334-0.916-2.232c0-0.507,0.066-0.938,0.201-1.295
		c0.137-0.357,0.343-0.7,0.617-1.028l0.805,0.673c-0.221,0.253-0.383,0.508-0.488,0.765c-0.106,0.256-0.16,0.565-0.16,0.928
		c0,0.553,0.208,1.018,0.626,1.395c0.417,0.377,0.92,0.566,1.507,0.566h0.02c0.627,0,1.144-0.19,1.55-0.57
		c0.406-0.38,0.607-0.875,0.607-1.486c0-0.564-0.15-1.05-0.458-1.459H72.48v1.546h-0.924v-2.573h2.539
		C74.724,187.35,75.038,188.19,75.038,189.14z"/>
	<path fill="ffffff" d="M175.897,460.069v-6.045h1.063v6.045H175.897z"/>
	<path fill="ffffff" d="M179.801,460.069v-5.063h-1.917v-0.982h4.906v0.982h-1.917v5.063H179.801z"/>
	<path fill="ffffff" d="M186.122,460.173c-0.875,0-1.606-0.299-2.193-0.896c-0.587-0.601-0.881-1.335-0.881-2.21v-0.02
		c0-0.875,0.293-1.615,0.881-2.22c0.587-0.604,1.333-0.906,2.236-0.906c0.522,0,0.969,0.08,1.334,0.241
		c0.363,0.161,0.709,0.395,1.03,0.699l-0.683,0.786c-0.541-0.501-1.104-0.751-1.692-0.751c-0.568,0-1.045,0.204-1.425,0.615
		c-0.38,0.412-0.568,0.917-0.568,1.518v0.018c0,0.601,0.188,1.106,0.568,1.524c0.38,0.417,0.855,0.626,1.425,0.626
		c0.347,0,0.65-0.065,0.916-0.194c0.267-0.13,0.538-0.327,0.82-0.592l0.684,0.689c-0.342,0.356-0.7,0.624-1.08,0.805
		C187.114,460.084,186.658,460.173,186.122,460.173z"/>
	<path fill="ffffff" d="M189.433,460.069v-6.045h1.063v2.513h2.885v-2.513h1.062v6.045h-1.062v-2.548h-2.885v2.548H189.433z"/>
	<path fill="ffffff" d="M195.737,460.069v-6.045h4.482v0.947h-3.42v1.572h3.031v0.95h-3.031v1.623h3.463v0.95L195.737,460.069
		L195.737,460.069z"/>
	<path fill="ffffff" d="M201.264,460.069v-6.045h0.984l3.237,4.18v-4.18h1.047v6.045h-0.892l-3.333-4.303v4.303H201.264z"/>
	<path fill="ffffff" d="M212.975,460.173c-0.875,0-1.604-0.299-2.191-0.896c-0.589-0.601-0.883-1.335-0.883-2.21v-0.02
		c0-0.875,0.293-1.615,0.883-2.22c0.587-0.604,1.333-0.906,2.234-0.906c0.524,0,0.969,0.08,1.334,0.241s0.709,0.395,1.032,0.699
		l-0.683,0.786c-0.541-0.501-1.105-0.751-1.692-0.751c-0.57,0-1.045,0.204-1.425,0.615c-0.38,0.412-0.57,0.917-0.57,1.518v0.018
		c0,0.601,0.19,1.106,0.57,1.524c0.38,0.417,0.854,0.626,1.425,0.626c0.345,0,0.65-0.065,0.916-0.194
		c0.265-0.13,0.538-0.327,0.82-0.592l0.682,0.689c-0.34,0.356-0.7,0.624-1.08,0.805C213.967,460.084,213.51,460.173,212.975,460.173
		z"/>
	<path fill="ffffff" d="M216.263,460.069v-6.045h4.482v0.947h-3.42v1.572h3.029v0.95h-3.029v1.623h3.463v0.95L216.263,460.069
		L216.263,460.069z"/>
	<path fill="ffffff" d="M221.79,460.069v-6.045h0.982l3.239,4.18v-4.18h1.045v6.045h-0.89l-3.333-4.303v4.303H221.79z"/>
	<path fill="ffffff" d="M229.838,460.069v-5.063h-1.917v-0.982h4.906v0.982h-1.917v5.063H229.838z"/>
	<path fill="ffffff" d="M233.69,460.069v-6.045h2.694c0.749,0,1.33,0.199,1.745,0.604c0.334,0.345,0.501,0.78,0.501,1.304v0.02
		c0,0.478-0.13,0.871-0.389,1.179c-0.261,0.308-0.61,0.525-1.056,0.652l1.632,2.288h-1.252l-1.483-2.107h-1.33v2.107L233.69,460.069
		L233.69,460.069z M234.752,457.021h1.555c0.38,0,0.682-0.094,0.907-0.276c0.225-0.186,0.337-0.429,0.337-0.733v-0.018
		c0-0.322-0.109-0.57-0.328-0.743c-0.219-0.172-0.527-0.259-0.924-0.259h-1.546L234.752,457.021L234.752,457.021z"/>
	<path fill="ffffff" d="M239.675,460.069v-6.045h4.482v0.947h-3.422v1.572h3.031v0.95h-3.031v1.623h3.465v0.95L239.675,460.069
		L239.675,460.069z"/>
	<path fill="ffffff" d="M283.118,423.126v-6.045h1.062v6.045H283.118z"/>
	<path fill="ffffff" d="M287.021,423.126v-5.061h-1.917v-0.984h4.906v0.984h-1.917v5.061H287.021z"/>
	<path fill="ffffff" d="M293.364,423.229c-0.875,0-1.604-0.299-2.191-0.896s-0.881-1.335-0.881-2.21v-0.02
		c0-0.875,0.293-1.613,0.881-2.22c0.587-0.604,1.333-0.906,2.236-0.906c0.522,0,0.969,0.08,1.334,0.241
		c0.363,0.161,0.709,0.396,1.03,0.699l-0.683,0.786c-0.541-0.501-1.105-0.751-1.692-0.751c-0.568,0-1.045,0.206-1.425,0.617
		c-0.38,0.412-0.57,0.917-0.57,1.516v0.018c0,0.601,0.19,1.106,0.57,1.524c0.38,0.417,0.855,0.626,1.425,0.626
		c0.347,0,0.65-0.065,0.916-0.194c0.267-0.13,0.538-0.325,0.82-0.592l0.682,0.691c-0.34,0.354-0.698,0.624-1.08,0.803
		C294.356,423.14,293.9,423.229,293.364,423.229z"/>
	<path fill="ffffff" d="M296.664,423.126v-6.045h1.062v2.513h2.885v-2.513h1.063v6.045h-1.063v-2.548h-2.885v2.548H296.664z"/>
	<path fill="ffffff" d="M302.968,423.126v-6.045h4.482v0.949h-3.422v1.57h3.031v0.95h-3.031v1.623h3.465v0.95L302.968,423.126
		L302.968,423.126z"/>
	<path fill="ffffff" d="M308.496,423.126v-6.045h0.982l3.239,4.18v-4.18h1.045v6.045h-0.89l-3.333-4.301v4.301H308.496z"/>
	<path fill="ffffff" d="M317.391,423.126v-6.045h2.384c0.702,0,1.263,0.184,1.677,0.553c0.413,0.368,0.62,0.857,0.62,1.468v0.02
		c0,0.648-0.229,1.157-0.687,1.52c-0.458,0.363-1.035,0.544-1.731,0.544h-1.198v1.943L317.391,423.126L317.391,423.126z
		 M318.453,420.225h1.232c0.397,0,0.714-0.101,0.95-0.303c0.236-0.201,0.354-0.46,0.354-0.777v-0.017
		c0-0.346-0.117-0.612-0.353-0.799c-0.23-0.188-0.551-0.281-0.954-0.281h-1.232L318.453,420.225L318.453,420.225z"/>
	<path fill="ffffff" d="M322.9,423.126v-6.045h2.694c0.748,0,1.33,0.201,1.744,0.604c0.334,0.347,0.501,0.78,0.501,1.306v0.018
		c0,0.479-0.129,0.871-0.389,1.179c-0.261,0.31-0.61,0.525-1.056,0.652l1.633,2.288h-1.252l-1.483-2.107h-1.33v2.107L322.9,423.126
		L322.9,423.126z M323.963,420.077h1.554c0.381,0,0.685-0.092,0.907-0.276c0.225-0.184,0.337-0.429,0.337-0.731v-0.02
		c0-0.322-0.109-0.568-0.328-0.743c-0.219-0.172-0.527-0.259-0.924-0.259h-1.546V420.077z"/>
	<path fill="ffffff" d="M328.885,423.126v-6.045h4.482v0.949h-3.422v1.57h3.031v0.95h-3.031v1.623h3.465v0.95L328.885,423.126
		L328.885,423.126z"/>
	<path fill="ffffff" d="M334.412,423.126v-6.045h1.131l1.84,2.858l1.84-2.858h1.131v6.045h-1.063v-4.335l-1.908,2.85h-0.034
		l-1.892-2.833v4.318H334.412z"/>
	<path fill="ffffff" d="M341.71,423.126v-6.045h1.063v6.045H341.71z"/>
	<path fill="ffffff" d="M346.618,423.221c-0.803,0-1.432-0.228-1.889-0.682c-0.458-0.455-0.687-1.114-0.687-1.979v-3.479h1.062
		v3.437c0,0.555,0.138,0.979,0.406,1.278c0.271,0.3,0.646,0.449,1.123,0.449s0.851-0.146,1.118-0.432
		c0.267-0.288,0.399-0.705,0.399-1.254v-3.479h1.063v3.428c0,0.881-0.23,1.555-0.691,2.019
		C348.066,422.989,347.43,423.221,346.618,423.221z"/>
	<path fill="ffffff" d="M350.403,423.126v-6.045h1.133l1.84,2.858l1.84-2.858h1.131v6.045h-1.063v-4.335l-1.908,2.85h-0.034
		l-1.892-2.833v4.318H350.403z"/>
	<path fill="ffffff" d="M398.536,457.355v-6.047h1.063v6.047H398.536z"/>
	<path fill="ffffff" d="M402.443,457.355v-5.063h-1.917v-0.984h4.905v0.984h-1.917v5.063H402.443z"/>
	<path fill="ffffff" d="M408.771,457.459c-0.875,0-1.604-0.299-2.191-0.898c-0.589-0.599-0.883-1.335-0.883-2.21v-0.018
		c0-0.875,0.294-1.615,0.883-2.22c0.587-0.604,1.333-0.906,2.234-0.906c0.524,0,0.971,0.08,1.335,0.241
		c0.365,0.161,0.709,0.395,1.031,0.699l-0.682,0.784c-0.542-0.501-1.105-0.751-1.693-0.751c-0.569,0-1.045,0.206-1.425,0.617
		c-0.38,0.412-0.569,0.917-0.569,1.518v0.018c0,0.599,0.189,1.106,0.569,1.524c0.38,0.417,0.854,0.626,1.425,0.626
		c0.346,0,0.651-0.065,0.916-0.194c0.265-0.13,0.538-0.327,0.82-0.592l0.683,0.689c-0.34,0.356-0.7,0.624-1.08,0.805
		C409.764,457.37,409.307,457.459,408.771,457.459z"/>
	<path fill="ffffff" d="M412.079,457.355v-6.047h1.063v2.515h2.884v-2.515h1.063v6.047h-1.063v-2.55h-2.884v2.55H412.079z"/>
	<path fill="ffffff" d="M418.384,457.355v-6.047h4.48v0.949h-3.42v1.572h3.031v0.95h-3.031v1.623h3.463v0.948h-4.523V457.355z"/>
	<path fill="ffffff" d="M423.908,457.355v-6.047h0.984l3.238,4.182v-4.182h1.045v6.047h-0.892l-3.333-4.303v4.303H423.908z"/>
	<path fill="ffffff" d="M435.612,457.459c-0.875,0-1.604-0.299-2.191-0.898c-0.59-0.599-0.883-1.335-0.883-2.21v-0.018
		c0-0.875,0.293-1.615,0.883-2.22c0.587-0.604,1.333-0.906,2.234-0.906c0.524,0,0.969,0.08,1.335,0.241
		c0.365,0.161,0.709,0.395,1.031,0.699l-0.682,0.784c-0.542-0.501-1.105-0.751-1.693-0.751c-0.569,0-1.045,0.206-1.425,0.617
		c-0.38,0.412-0.569,0.917-0.569,1.518v0.018c0,0.599,0.189,1.106,0.569,1.524c0.38,0.417,0.854,0.626,1.425,0.626
		c0.346,0,0.651-0.065,0.916-0.194c0.265-0.13,0.538-0.327,0.82-0.592l0.683,0.689c-0.34,0.356-0.7,0.624-1.08,0.805
		C436.605,457.37,436.147,457.459,435.612,457.459z"/>
	<path fill="ffffff" d="M438.92,457.355v-6.047h4.48v0.949h-3.42v1.572h3.031v0.95h-3.031v1.623h3.463v0.948h-4.523V457.355z"/>
	<path fill="ffffff" d="M444.447,457.355v-6.047h0.984l3.238,4.182v-4.182h1.045v6.047h-0.892l-3.333-4.303v4.303H444.447z"/>
	<path fill="ffffff" d="M452.494,457.355v-5.063h-1.917v-0.984h4.905v0.984h-1.917v5.063H452.494z"/>
	<path fill="ffffff" d="M456.342,457.355v-6.047h2.692c0.748,0,1.33,0.201,1.744,0.604c0.334,0.345,0.501,0.78,0.501,1.304v0.02
		c0,0.478-0.129,0.871-0.389,1.179c-0.259,0.308-0.61,0.525-1.054,0.652l1.633,2.288h-1.252l-1.485-2.107h-1.33v2.107H456.342
		L456.342,457.355z M457.404,454.307h1.554c0.383,0,0.685-0.092,0.907-0.274c0.227-0.186,0.337-0.431,0.337-0.733v-0.018
		c0-0.322-0.107-0.57-0.328-0.743c-0.219-0.172-0.525-0.259-0.924-0.259h-1.546V454.307z"/>
	<path fill="ffffff" d="M462.336,457.355v-6.047h4.48v0.949h-3.42v1.572h3.031v0.95h-3.031v1.623h3.463v0.948h-4.523V457.355z"/>
	<path fill="ffffff" d="M33.525,69.561l-5.229-3.034l2.258-3.892l0.836,0.485l-1.725,2.973l1.427,0.828l1.53-2.636l0.837,0.485
		l-1.53,2.636l2.129,1.235L33.525,69.561z"/>
	<path fill="ffffff" d="M35.532,65.987l-3.545-5.621l0.555-0.814l6.53,1.219L38.442,61.7l-1.552-0.313l-1.604,2.365l0.856,1.334
		L35.532,65.987z M34.724,62.903l1.169-1.722l-2.588-0.494L34.724,62.903z"/>
	<path fill="ffffff" d="M33.525,69.561l-5.229-3.034l2.258-3.892l0.836,0.485l-1.725,2.973l1.427,0.828l1.53-2.636l0.837,0.485
		l-1.53,2.636l2.129,1.235L33.525,69.561z"/>
	<path fill="ffffff" d="M39.483,60.242l-4.669-3.84l0.721-0.874l3.376,0.395l-1.04-3.236l0.719-0.874l4.669,3.839l-0.675,0.82
		l-3.351-2.753l0.989,3.284L40.2,57.03l-3.392-0.339l3.336,2.743L39.483,60.242z"/>
	<path fill="ffffff" d="M44.137,54.769l-4.407-4.138l0.729-0.774l4.405,4.138L44.137,54.769z"/>
	<path fill="ffffff" d="M45.736,53.057l-4.182-4.365l0.767-0.735l3.515,3.667l2.294-2.199l0.669,0.698L45.736,53.057z"/>
	<path fill="ffffff" d="M49.91,49.203l-1.568-1.795l-4.216-1.179l0.941-0.824l3.036,0.902l-0.473-3.141l0.917-0.801l0.583,4.317
		l1.584,1.814L49.91,49.203z"/>
	<path fill="ffffff" d="M45.736,53.057l-4.182-4.365l0.767-0.735l3.515,3.667l2.294-2.199l0.669,0.698L45.736,53.057z"/>
	<path fill="ffffff" d="M56.533,43.848c-0.76,0.591-1.619,0.854-2.583,0.788l0.035-0.992c0.8,0.041,1.461-0.144,1.988-0.555
		c0.259-0.202,0.421-0.417,0.488-0.645c0.065-0.227,0.03-0.432-0.112-0.613l-0.01-0.013c-0.138-0.178-0.32-0.262-0.548-0.253
		c-0.229,0.009-0.592,0.129-1.099,0.362c-0.323,0.146-0.604,0.253-0.84,0.327c-0.232,0.074-0.467,0.113-0.695,0.117
		c-0.23,0.005-0.44-0.046-0.628-0.151c-0.188-0.104-0.364-0.265-0.531-0.478l-0.013-0.015c-0.316-0.407-0.425-0.859-0.32-1.353
		c0.104-0.493,0.395-0.927,0.871-1.298c0.652-0.51,1.387-0.759,2.195-0.75l0.045,0.983c-0.694,0.017-1.254,0.189-1.677,0.519
		c-0.234,0.184-0.383,0.385-0.438,0.601c-0.059,0.217-0.022,0.407,0.104,0.57l0.011,0.014c0.146,0.187,0.333,0.271,0.565,0.254
		c0.23-0.017,0.615-0.146,1.149-0.387c0.625-0.283,1.145-0.417,1.557-0.398s0.767,0.218,1.063,0.599l0.013,0.014
		c0.344,0.441,0.458,0.91,0.343,1.408C57.354,43.004,57.042,43.452,56.533,43.848z"/>
	<path fill="ffffff" d="M60.008,41.114l-2.973-4.095l-1.553,1.126l-0.578-0.797l3.972-2.881l0.578,0.797l-1.553,1.126l2.975,4.095
		L60.008,41.114z"/>
	<path fill="ffffff" d="M62.029,39.603l-1.183-6.539l0.818-0.548l5.601,3.575l-0.933,0.625l-1.323-0.871l-2.374,1.592l0.297,1.559
		L62.029,39.603z M62.435,36.44l1.729-1.16l-2.215-1.427L62.435,36.44z"/>
	<path fill="ffffff" d="M60.008,41.114l-2.973-4.095l-1.553,1.126l-0.578-0.797l3.972-2.881l0.578,0.797l-1.553,1.126l2.975,4.095
		L60.008,41.114z"/>
	<path fill="ffffff" d="M67.846,35.732l-3.08-5.201l0.847-0.502l4.916,1.946L68.4,28.379l0.899-0.533l3.08,5.201L71.613,33.5
		l-5.06-2.002l2.191,3.701L67.846,35.732z"/>
	<path fill="ffffff" d="M73.418,32.458l-2.63-5.443l2.027-0.98c0.847-0.408,1.663-0.486,2.454-0.231
		c0.791,0.253,1.373,0.767,1.746,1.539l0.008,0.016c0.375,0.777,0.418,1.557,0.127,2.337c-0.292,0.779-0.858,1.375-1.705,1.783
		L73.418,32.458z M73.955,31.125l1.071-0.519c0.565-0.273,0.938-0.665,1.121-1.174c0.184-0.51,0.145-1.035-0.118-1.574l-0.008-0.016
		c-0.26-0.539-0.646-0.898-1.163-1.078c-0.515-0.18-1.056-0.133-1.621,0.14l-1.071,0.519L73.955,31.125z"/>
	<path fill="ffffff" d="M567.387,33.168l3.604-4.854l0.854,0.633l-1.813,2.441l4.12-0.727l1.048,0.777l-3.566,0.589l0.055,4.332
		l-1.033-0.767l-0.035-3.415l-1.333,0.215L568.24,33.8L567.387,33.168z"/>
	<path fill="ffffff" d="M572.199,36.777l3.731-4.756l0.836,0.656l-3.731,4.756L572.199,36.777z"/>
	<path fill="ffffff" d="M574.073,38.25l3.862-4.65l0.758,0.629l-0.181,5.285l2.671-3.215l0.805,0.667l-3.861,4.65l-0.686-0.568
		l0.186-5.438l-2.748,3.309L574.073,38.25z"/>
	<path fill="ffffff" d="M581.125,44.42c-0.692-0.625-1.057-1.351-1.09-2.177c-0.032-0.826,0.248-1.57,0.849-2.232l0.011-0.013
		c0.579-0.641,1.292-0.99,2.139-1.047c0.85-0.057,1.605,0.216,2.271,0.817c0.376,0.34,0.648,0.68,0.824,1.02
		c0.174,0.339,0.289,0.722,0.349,1.146l-1.038,0.145c-0.041-0.332-0.121-0.624-0.239-0.874c-0.12-0.251-0.313-0.499-0.582-0.742
		c-0.409-0.371-0.896-0.527-1.455-0.47c-0.559,0.057-1.036,0.303-1.43,0.739l-0.012,0.013c-0.42,0.466-0.626,0.976-0.617,1.532
		c0.011,0.556,0.241,1.038,0.694,1.447c0.419,0.378,0.882,0.592,1.39,0.64l0.759-0.839l-1.146-1.037l0.617-0.686l1.909,1.726
		l-1.702,1.884C582.662,45.387,581.828,45.057,581.125,44.42z"/>
	<path fill="ffffff" d="M585.294,48.325c-0.688-0.673-1.063-1.492-1.123-2.457l0.985-0.095c0.065,0.797,0.336,1.429,0.813,1.897
		c0.232,0.229,0.468,0.363,0.703,0.399c0.232,0.037,0.433-0.027,0.594-0.192l0.012-0.012c0.157-0.16,0.216-0.354,0.179-0.576
		c-0.038-0.223-0.207-0.57-0.507-1.04c-0.186-0.303-0.331-0.566-0.436-0.789c-0.104-0.224-0.172-0.448-0.207-0.676
		c-0.035-0.227-0.014-0.441,0.066-0.642c0.077-0.2,0.214-0.397,0.401-0.59l0.014-0.012c0.361-0.37,0.795-0.537,1.299-0.499
		c0.503,0.038,0.971,0.269,1.4,0.692c0.592,0.58,0.938,1.273,1.035,2.078l-0.97,0.175c-0.108-0.688-0.354-1.218-0.736-1.593
		c-0.214-0.21-0.433-0.329-0.653-0.357c-0.223-0.028-0.404,0.032-0.551,0.18l-0.013,0.012c-0.165,0.168-0.226,0.366-0.178,0.594
		c0.047,0.227,0.226,0.59,0.536,1.088c0.362,0.582,0.563,1.079,0.601,1.49c0.037,0.411-0.114,0.789-0.453,1.134l-0.012,0.012
		c-0.393,0.399-0.841,0.575-1.352,0.526C586.239,49.026,585.754,48.776,585.294,48.325z"/>
	<path fill="ffffff" d="M587.532,50.45l4.396-4.15l0.729,0.772l-3.691,3.486l2.182,2.312l-0.703,0.664L587.532,50.45z"/>
	<path fill="ffffff" d="M590.641,53.713l6.354-1.939l0.642,0.748l-2.896,5.98l-0.729-0.854l0.71-1.415l-1.859-2.171l-1.513,0.478
		L590.641,53.713z M593.827,53.745l1.354,1.581l1.157-2.367L593.827,53.745z"/>
	<path fill="ffffff" d="M595.142,59.027l4.828-3.638l0.592,0.786l-1.389,5.102l3.338-2.516l0.629,0.834l-4.827,3.638l-0.536-0.71
		l1.429-5.25l-3.435,2.588L595.142,59.027z"/>
	<path fill="ffffff" d="M599.007,64.228l5.078-3.28l1.223,1.894c0.51,0.788,0.687,1.59,0.532,2.406
		c-0.155,0.817-0.595,1.457-1.313,1.922l-0.015,0.009c-0.727,0.469-1.493,0.607-2.303,0.414c-0.813-0.193-1.472-0.684-1.979-1.472
		L599.007,64.228z M600.396,64.595l0.646,1.001c0.343,0.527,0.775,0.849,1.306,0.967s1.044,0.015,1.547-0.311l0.015-0.009
		c0.503-0.325,0.813-0.754,0.929-1.288c0.112-0.533,0.002-1.063-0.34-1.59l-0.646-1.001L600.396,64.595z"/>
	<path fill="ffffff" d="M603.563,71.585l5.434-2.652l0.434,0.885l-2.336,4.744l3.756-1.833l0.458,0.938l-5.435,2.652l-0.391-0.799
		l2.403-4.882l-3.864,1.886L603.563,71.585z"/>
	<path fill="ffffff" d="M608.831,81.962c-0.773-0.359-1.314-0.969-1.622-1.832c-0.308-0.863-0.273-1.675,0.098-2.436
		c0.371-0.762,0.963-1.287,1.776-1.576l0.017-0.006c0.813-0.29,1.606-0.254,2.384,0.105c0.776,0.361,1.317,0.972,1.623,1.834
		c0.308,0.863,0.274,1.675-0.097,2.436c-0.37,0.761-0.963,1.287-1.776,1.576l-0.017,0.006
		C610.403,82.358,609.608,82.323,608.831,81.962z M608.231,78.222c-0.263,0.506-0.296,1.039-0.097,1.598
		c0.198,0.559,0.557,0.95,1.07,1.172c0.519,0.224,1.059,0.234,1.621,0.034l0.018-0.006c0.563-0.201,0.978-0.553,1.241-1.06
		c0.263-0.506,0.296-1.038,0.097-1.596c-0.199-0.56-0.556-0.95-1.072-1.173c-0.516-0.223-1.057-0.234-1.62-0.033l-0.017,0.006
		C608.906,77.363,608.493,77.717,608.231,78.222z"/>
	<path fill="ffffff" d="M608.545,83.877l5.904-1.293l0.576,2.632c0.16,0.73,0.087,1.343-0.218,1.833
		c-0.269,0.4-0.655,0.656-1.167,0.768l-0.019,0.003c-0.467,0.103-0.879,0.061-1.233-0.127c-0.356-0.187-0.646-0.483-0.861-0.89
		l-1.887,2.084l-0.27-1.223l1.74-1.902l-0.284-1.299l-2.059,0.451L608.545,83.877z M611.75,84.264l0.33,1.518
		c0.082,0.372,0.236,0.647,0.467,0.828c0.229,0.179,0.488,0.237,0.789,0.172l0.017-0.003c0.315-0.069,0.533-0.229,0.655-0.48
		c0.122-0.25,0.141-0.57,0.056-0.958l-0.331-1.51L611.75,84.264z"/>
	<path fill="ffffff" d="M609.896,91.102l5.014-0.693l-0.263-1.898l0.976-0.135l0.674,4.859l-0.978,0.135l-0.263-1.899l-5.016,0.693
		L609.896,91.102z"/>
	<path fill="ffffff" d="M610.396,94.863l6.017-0.593l0.104,1.057l-2.501,0.247l0.282,2.87l2.501-0.247l0.104,1.058l-6.016,0.593
		l-0.104-1.058l2.535-0.25l-0.282-2.87l-2.534,0.25L610.396,94.863z"/>
	<path fill="ffffff" d="M487.198,458.318l0.019-6.045l1.063,0.003l-0.017,6.045L487.198,458.318z"/>
	<path fill="ffffff" d="M491.132,458.334l0.014-5.061l-1.917-0.007l0.003-0.982l4.905,0.014l-0.003,0.984l-1.917-0.006
		l-0.016,5.061L491.132,458.334z"/>
	<path fill="ffffff" d="M497.479,458.45c-0.875-0.003-1.605-0.304-2.191-0.904c-0.586-0.6-0.877-1.338-0.874-2.214v-0.017
		c0.003-0.875,0.299-1.614,0.889-2.219c0.588-0.604,1.335-0.902,2.236-0.899c0.524,0.001,0.971,0.084,1.335,0.246
		s0.708,0.396,1.029,0.701l-0.685,0.783c-0.54-0.503-1.104-0.754-1.69-0.756c-0.567-0.002-1.046,0.203-1.427,0.613
		c-0.381,0.411-0.572,0.915-0.573,1.514v0.02c-0.002,0.599,0.188,1.105,0.564,1.524c0.379,0.418,0.854,0.628,1.424,0.63
		c0.346,0.001,0.649-0.063,0.916-0.19c0.265-0.129,0.539-0.325,0.822-0.589l0.681,0.691c-0.341,0.355-0.702,0.622-1.082,0.8
		C498.472,458.364,498.014,458.451,497.479,458.45z"/>
	<path fill="ffffff" d="M500.778,458.355l0.019-6.047l1.063,0.004l-0.007,2.514l2.884,0.008l0.007-2.513l1.063,0.003l-0.019,6.045
		l-1.063-0.003l0.007-2.548l-2.884-0.01l-0.007,2.55L500.778,458.355z"/>
	<path fill="ffffff" d="M507.084,458.373l0.017-6.045l4.48,0.012l-0.003,0.949l-3.42-0.009l-0.004,1.57l3.031,0.01l-0.003,0.948
		l-3.031-0.008l-0.004,1.623l3.463,0.009l-0.003,0.95L507.084,458.373z"/>
	<path fill="ffffff" d="M512.423,457.938l-0.505-6.022l0.979-0.082l3.577,3.894l-0.353-4.165l1.042-0.087l0.508,6.023l-0.889,0.074
		l-3.682-4.007l0.358,4.283L512.423,457.938z"/>
	<path fill="ffffff" d="M521.527,456.998l-0.937-5.973l0.973-0.152l3.847,3.628l-0.646-4.13l1.032-0.162l0.937,5.973l-0.879,0.14
		l-3.96-3.732l0.667,4.249L521.527,456.998z"/>
	<path fill="ffffff" d="M532.962,454.126c-0.466,0.719-1.146,1.171-2.04,1.355c-0.896,0.184-1.696,0.042-2.399-0.433
		c-0.702-0.472-1.141-1.132-1.315-1.977l-0.004-0.02c-0.174-0.847-0.028-1.628,0.436-2.347c0.463-0.718,1.143-1.17,2.039-1.354
		c0.896-0.186,1.694-0.041,2.396,0.432c0.703,0.473,1.145,1.132,1.316,1.977l0.004,0.02
		C533.569,452.625,533.425,453.407,532.962,454.126z M529.174,454.207c0.465,0.33,0.985,0.436,1.566,0.315
		c0.58-0.119,1.019-0.422,1.311-0.899c0.291-0.482,0.377-1.015,0.257-1.601l-0.004-0.02c-0.121-0.586-0.414-1.046-0.879-1.376
		c-0.466-0.329-0.988-0.436-1.568-0.315c-0.581,0.12-1.018,0.423-1.31,0.9c-0.291,0.481-0.377,1.015-0.256,1.603l0.004,0.018
		C528.413,453.418,528.709,453.877,529.174,454.207z"/>
	<path fill="ffffff" d="M535.158,454.44l-1.5-5.855l2.61-0.668c0.726-0.187,1.339-0.136,1.841,0.152
		c0.408,0.251,0.679,0.632,0.811,1.139l0.004,0.017c0.119,0.465,0.091,0.876-0.084,1.238c-0.177,0.363-0.461,0.661-0.859,0.896
		l2.149,1.811l-1.214,0.313l-1.963-1.674l-1.287,0.33l0.521,2.041L535.158,454.44z M535.433,451.225l1.506-0.387
		c0.368-0.094,0.639-0.258,0.81-0.492c0.175-0.231,0.223-0.498,0.146-0.795l-0.005-0.016c-0.08-0.313-0.247-0.526-0.502-0.639
		c-0.255-0.113-0.575-0.12-0.96-0.021l-1.497,0.383L535.433,451.225z"/>
	<path fill="ffffff" d="M542.508,452.476l-1.467-4.843l-1.838,0.559l-0.283-0.942l4.693-1.423l0.285,0.94l-1.835,0.558l1.468,4.843
		L542.508,452.476z"/>
	<path fill="ffffff" d="M546.36,451.268l-2.029-5.691l1-0.356l0.846,2.366l2.718-0.969l-0.844-2.366l1-0.354l2.027,5.691l-1,0.356
		l-0.854-2.399l-2.717,0.969l0.854,2.399L546.36,451.268z"/>
	<path fill="ffffff" d="M53.942,432.428l3.368-5.02L58.193,428l-3.366,5.02L53.942,432.428z"/>
	<path fill="ffffff" d="M57.186,434.592l2.755-4.245l-1.605-1.044l0.536-0.825l4.112,2.673l-0.534,0.823l-1.608-1.044l-2.755,4.246
		L57.186,434.592z"/>
	<path fill="ffffff" d="M62.424,438.027c-0.744-0.459-1.21-1.1-1.396-1.916c-0.185-0.818-0.048-1.602,0.412-2.346l0.011-0.016
		c0.459-0.744,1.098-1.22,1.916-1.426c0.814-0.206,1.608-0.071,2.379,0.402c0.444,0.274,0.78,0.576,1.008,0.905
		c0.227,0.329,0.396,0.708,0.51,1.14l-0.992,0.311c-0.199-0.711-0.547-1.221-1.047-1.529c-0.482-0.299-0.998-0.373-1.537-0.223
		s-0.966,0.481-1.278,0.991l-0.011,0.015c-0.313,0.51-0.42,1.041-0.314,1.597c0.104,0.556,0.397,0.981,0.884,1.28
		c0.294,0.184,0.589,0.287,0.881,0.315c0.293,0.026,0.63,0.005,1.009-0.072l0.219,0.946c-0.478,0.126-0.925,0.164-1.342,0.117
		C63.316,438.473,62.879,438.309,62.424,438.027z"/>
	<path fill="ffffff" d="M65.307,439.67l3.021-5.236l0.921,0.531l-1.256,2.177l2.497,1.441l1.256-2.177l0.921,0.528l-3.021,5.236
		l-0.921-0.53l1.273-2.207l-2.497-1.439l-1.273,2.207L65.307,439.67z"/>
	<path fill="ffffff" d="M70.729,442.759l2.85-5.332l3.952,2.111l-0.445,0.838l-3.019-1.61l-0.738,1.388l2.674,1.428l-0.448,0.838
		l-2.674-1.428l-0.767,1.433l3.057,1.631l-0.448,0.838L70.729,442.759z"/>
	<path fill="ffffff" d="M75.748,445.449l2.456-5.523l0.897,0.399l1.261,5.136l1.698-3.82l0.955,0.427l-2.456,5.522l-0.813-0.361
		l-1.298-5.282l-1.747,3.931L75.748,445.449z"/>
	<path fill="ffffff" d="M86.313,449.727c-0.913-0.302-1.608-0.87-2.09-1.711l0.846-0.521c0.41,0.688,0.933,1.136,1.564,1.347
		c0.312,0.104,0.581,0.119,0.806,0.049c0.229-0.068,0.377-0.216,0.449-0.434l0.006-0.017c0.07-0.216,0.039-0.412-0.094-0.597
		c-0.134-0.184-0.438-0.422-0.912-0.712c-0.3-0.188-0.546-0.363-0.738-0.518c-0.189-0.154-0.353-0.326-0.483-0.518
		c-0.13-0.188-0.205-0.391-0.224-0.604c-0.017-0.215,0.02-0.451,0.104-0.708l0.005-0.019c0.163-0.49,0.478-0.832,0.947-1.02
		c0.468-0.188,0.987-0.187,1.563,0.004c0.787,0.261,1.402,0.73,1.846,1.411l-0.795,0.583c-0.398-0.568-0.854-0.938-1.36-1.105
		c-0.284-0.095-0.533-0.104-0.744-0.031c-0.212,0.07-0.353,0.207-0.417,0.402l-0.005,0.019c-0.074,0.224-0.041,0.427,0.102,0.609
		c0.144,0.184,0.463,0.432,0.961,0.74c0.582,0.362,0.981,0.722,1.195,1.073c0.213,0.354,0.244,0.76,0.092,1.219l-0.005,0.017
		c-0.175,0.53-0.502,0.888-0.98,1.066C87.47,449.94,86.925,449.93,86.313,449.727z"/>
	<path fill="ffffff" d="M94.652,451.256c-0.738,0.428-1.551,0.521-2.433,0.273c-0.883-0.245-1.527-0.738-1.937-1.479
		c-0.41-0.741-0.499-1.526-0.269-2.358l0.004-0.018c0.231-0.832,0.717-1.463,1.458-1.89c0.741-0.428,1.552-0.521,2.436-0.274
		c0.882,0.246,1.525,0.739,1.937,1.48s0.498,1.526,0.266,2.358l-0.004,0.019C95.878,450.199,95.392,450.829,94.652,451.256z
		 M91.246,449.596c0.262,0.507,0.68,0.84,1.251,0.998c0.568,0.159,1.096,0.092,1.574-0.202c0.479-0.294,0.8-0.729,0.961-1.307
		l0.004-0.017c0.159-0.577,0.108-1.118-0.153-1.625c-0.262-0.508-0.679-0.838-1.25-0.997c-0.572-0.159-1.096-0.094-1.576,0.202
		c-0.479,0.294-0.798,0.729-0.959,1.307l-0.004,0.017C90.933,448.549,90.983,449.09,91.246,449.596z"/>
	<path fill="ffffff" d="M98.612,453.158c-0.776-0.186-1.338-0.55-1.679-1.1c-0.341-0.548-0.412-1.24-0.212-2.082l0.801-3.388
		l1.033,0.244l-0.791,3.346c-0.127,0.538-0.094,0.983,0.103,1.337c0.192,0.354,0.522,0.586,0.988,0.695
		c0.465,0.11,0.861,0.056,1.188-0.162c0.327-0.219,0.553-0.594,0.679-1.127l0.801-3.387l1.034,0.244l-0.789,3.337
		c-0.203,0.855-0.582,1.458-1.137,1.804C100.076,453.267,99.402,453.346,98.612,453.158z"/>
	<path fill="ffffff" d="M103.812,454.221l1.027-4.955l-1.878-0.389l0.2-0.964l4.804,0.995l-0.2,0.964l-1.877-0.389l-1.027,4.954
		L103.812,454.221z"/>
	<path fill="ffffff" d="M107.525,454.983l1.084-5.947l1.045,0.188l-0.449,2.475l2.837,0.518l0.451-2.473l1.046,0.188l-1.084,5.947
		l-1.046-0.188l0.455-2.508l-2.837-0.518l-0.457,2.506L107.525,454.983z"/>
	<path fill="ffffff" d="M269.957,18.69v-6.045h1.062v3.04l2.876-3.04h1.306l-2.515,2.6l2.625,3.446h-1.287l-2.063-2.72
		l-0.941,0.967v1.753L269.957,18.69L269.957,18.69z"/>
	<path fill="ffffff" d="M276.02,18.69v-6.045h1.063v6.045H276.02z"/>
	<path fill="ffffff" d="M278.438,18.69v-6.045h0.984l3.239,4.18v-4.18h1.045v6.045h-0.892l-3.333-4.301v4.301H278.438z"/>
	<path fill="ffffff" d="M287.882,18.794c-0.935,0-1.688-0.295-2.269-0.885c-0.577-0.59-0.866-1.331-0.866-2.224v-0.017
		c0-0.864,0.295-1.601,0.885-2.211s1.334-0.916,2.23-0.916c0.509,0,0.938,0.068,1.297,0.203c0.355,0.135,0.698,0.341,1.026,0.617
		l-0.673,0.803c-0.253-0.219-0.508-0.381-0.765-0.488c-0.257-0.106-0.565-0.16-0.93-0.16c-0.553,0-1.018,0.208-1.395,0.626
		c-0.377,0.417-0.566,0.92-0.566,1.507v0.018c0,0.627,0.19,1.144,0.57,1.55c0.38,0.406,0.875,0.609,1.486,0.609
		c0.563,0,1.05-0.152,1.459-0.458v-1.131h-1.546v-0.924h2.571v2.539C289.672,18.48,288.832,18.794,287.882,18.794z"/>
	<path fill="ffffff" d="M293.641,18.777c-0.961,0-1.802-0.322-2.521-0.967l0.639-0.76c0.604,0.524,1.241,0.786,1.909,0.786
		c0.328,0,0.589-0.069,0.782-0.207c0.191-0.138,0.287-0.323,0.287-0.553v-0.018c0-0.225-0.092-0.403-0.274-0.535
		c-0.186-0.132-0.547-0.262-1.088-0.389c-0.348-0.086-0.633-0.173-0.864-0.259s-0.438-0.199-0.622-0.337
		c-0.185-0.138-0.318-0.307-0.402-0.505c-0.083-0.199-0.125-0.433-0.125-0.704v-0.017c0-0.518,0.193-0.94,0.579-1.265
		c0.388-0.325,0.881-0.488,1.485-0.488c0.829,0,1.56,0.253,2.193,0.76l-0.57,0.803c-0.561-0.415-1.105-0.622-1.643-0.622
		c-0.3,0-0.537,0.068-0.717,0.203c-0.179,0.135-0.268,0.307-0.268,0.514v0.018c0,0.236,0.097,0.418,0.29,0.548
		c0.191,0.129,0.574,0.263,1.144,0.401c0.668,0.161,1.159,0.376,1.475,0.644c0.313,0.268,0.471,0.644,0.471,1.127v0.017
		c0,0.559-0.199,0.999-0.596,1.321C294.807,18.616,294.286,18.777,293.641,18.777z"/>
	<path fill="ffffff" d="M296.793,18.69v-6.045h1.062v5.078h3.18v0.967H296.793z"/>
	<path fill="ffffff" d="M301.362,18.69l2.66-6.088h0.984l2.66,6.088h-1.123l-0.613-1.459h-2.858l-0.62,1.459H301.362z
		 M303.46,16.29h2.082l-1.045-2.418L303.46,16.29z"/>
	<path fill="ffffff" d="M308.443,18.69v-6.045h0.984l3.239,4.18v-4.18h1.045v6.045h-0.892l-3.333-4.301v4.301H308.443z"/>
	<path fill="ffffff" d="M315.007,18.69v-6.045h2.254c0.938,0,1.709,0.287,2.311,0.859c0.604,0.573,0.902,1.288,0.902,2.146v0.018
		c0,0.863-0.301,1.583-0.902,2.159c-0.602,0.576-1.37,0.864-2.311,0.864L315.007,18.69L315.007,18.69z M316.069,17.723h1.192
		c0.627,0,1.135-0.19,1.521-0.57c0.388-0.38,0.578-0.87,0.578-1.468v-0.017c0-0.599-0.19-1.091-0.578-1.477
		c-0.386-0.386-0.893-0.579-1.521-0.579h-1.192V17.723z"/>
	<path fill="ffffff" d="M323.833,18.69v-6.045h2.384c0.702,0,1.261,0.185,1.675,0.553c0.415,0.369,0.622,0.858,0.622,1.468v0.017
		c0,0.651-0.229,1.157-0.687,1.52c-0.458,0.363-1.035,0.544-1.731,0.544h-1.2v1.943H323.833z M324.896,15.789h1.234
		c0.396,0,0.714-0.101,0.95-0.302c0.234-0.201,0.354-0.46,0.354-0.777v-0.017c0-0.345-0.117-0.612-0.351-0.799
		c-0.232-0.187-0.551-0.281-0.954-0.281h-1.234L324.896,15.789L324.896,15.789z"/>
	<path fill="ffffff" d="M329.343,18.69v-6.045h2.694c0.748,0,1.33,0.202,1.742,0.604c0.334,0.346,0.501,0.78,0.501,1.304v0.017
		c0,0.478-0.129,0.871-0.389,1.179c-0.259,0.308-0.608,0.525-1.054,0.652l1.633,2.289h-1.252l-1.485-2.107h-1.33v2.107H329.343z
		 M330.405,15.642h1.556c0.381,0,0.683-0.092,0.907-0.276c0.225-0.185,0.337-0.429,0.337-0.734v-0.017
		c0-0.322-0.109-0.57-0.328-0.743c-0.221-0.173-0.527-0.259-0.924-0.259h-1.548V15.642z"/>
	<path fill="ffffff" d="M335.327,18.69v-6.045h4.48v0.95h-3.42v1.572h3.031v0.95h-3.031v1.624h3.463v0.95L335.327,18.69
		L335.327,18.69z"/>
	<path fill="ffffff" d="M340.854,18.69v-6.045h1.131l1.842,2.859l1.84-2.859h1.131v6.045h-1.063v-4.335l-1.906,2.85h-0.034
		l-1.894-2.833v4.318H340.854z"/>
	<path fill="ffffff" d="M348.152,18.69v-6.045h1.063v6.045H348.152z"/>
	<path fill="ffffff" d="M353.048,18.786c-0.801,0-1.43-0.228-1.887-0.683c-0.458-0.455-0.688-1.114-0.688-1.978v-3.48h1.063v3.438
		c0,0.553,0.136,0.979,0.404,1.278c0.271,0.299,0.646,0.449,1.123,0.449c0.479,0,0.853-0.144,1.118-0.432
		c0.27-0.288,0.401-0.706,0.401-1.252v-3.48h1.063v3.429c0,0.881-0.229,1.553-0.689,2.017
		C354.496,18.554,353.859,18.786,353.048,18.786z"/>
	<path fill="ffffff" d="M356.858,18.69v-6.045h1.131l1.842,2.859l1.84-2.859h1.131v6.045h-1.063v-4.335l-1.906,2.85h-0.034
		l-1.894-2.833v4.318H356.858z"/>
	<path fill="ffffff" d="M380.214,18.69v-6.045h1.063v3.04l2.875-3.04h1.307l-2.516,2.6l2.626,3.446h-1.287l-2.063-2.72
		l-0.941,0.967v1.753L380.214,18.69L380.214,18.69z"/>
	<path fill="ffffff" d="M386.276,18.69v-6.045h1.063v6.045H386.276z"/>
	<path fill="ffffff" d="M388.692,18.69v-6.045h0.984l3.238,4.18v-4.18h1.045v6.045h-0.892l-3.333-4.301v4.301H388.692z"/>
	<path fill="ffffff" d="M398.127,18.794c-0.935,0-1.688-0.295-2.269-0.885c-0.579-0.59-0.866-1.331-0.866-2.224v-0.017
		c0-0.864,0.295-1.601,0.885-2.211s1.335-0.916,2.23-0.916c0.509,0,0.938,0.068,1.296,0.203c0.356,0.135,0.699,0.341,1.027,0.617
		l-0.674,0.803c-0.253-0.219-0.508-0.381-0.764-0.488c-0.259-0.106-0.566-0.16-0.931-0.16c-0.553,0-1.018,0.208-1.395,0.626
		s-0.565,0.92-0.565,1.507v0.018c0,0.627,0.189,1.144,0.569,1.55c0.38,0.406,0.875,0.609,1.484,0.609
		c0.563,0,1.052-0.152,1.461-0.458v-1.131h-1.548v-0.924h2.573v2.539C399.917,18.48,399.077,18.794,398.127,18.794z"/>
	<path fill="ffffff" d="M403.887,18.777c-0.962,0-1.803-0.322-2.522-0.967l0.642-0.76c0.604,0.524,1.24,0.786,1.908,0.786
		c0.328,0,0.589-0.069,0.779-0.207c0.193-0.138,0.29-0.323,0.29-0.553v-0.018c0-0.225-0.093-0.403-0.274-0.535
		c-0.187-0.132-0.548-0.262-1.089-0.389c-0.347-0.086-0.635-0.173-0.863-0.259c-0.23-0.086-0.438-0.199-0.622-0.337
		c-0.184-0.138-0.317-0.307-0.401-0.505c-0.083-0.199-0.125-0.433-0.125-0.704v-0.017c0-0.518,0.192-0.94,0.578-1.265
		c0.386-0.325,0.881-0.488,1.485-0.488c0.829,0,1.561,0.253,2.192,0.76l-0.568,0.803c-0.561-0.415-1.105-0.622-1.643-0.622
		c-0.3,0-0.539,0.068-0.717,0.203c-0.179,0.135-0.268,0.307-0.268,0.514v0.018c0,0.236,0.096,0.418,0.289,0.548
		c0.19,0.129,0.572,0.263,1.145,0.401c0.667,0.161,1.158,0.376,1.472,0.644c0.314,0.268,0.473,0.644,0.473,1.127v0.017
		c0,0.559-0.198,0.999-0.598,1.321C405.052,18.616,404.531,18.777,403.887,18.777z"/>
	<path fill="ffffff" d="M407.038,18.69v-6.045h1.063v5.078h3.178v0.967H407.038z"/>
	<path fill="ffffff" d="M411.606,18.69l2.66-6.088h0.984l2.66,6.088h-1.123l-0.613-1.459h-2.858l-0.621,1.459H411.606z
		 M413.705,16.29h2.081l-1.047-2.418L413.705,16.29z"/>
	<path fill="ffffff" d="M418.688,18.69v-6.045h0.984l3.236,4.18v-4.18h1.045v6.045h-0.89l-3.333-4.301v4.301H418.688z"/>
	<path fill="ffffff" d="M425.252,18.69v-6.045h2.254c0.938,0,1.708,0.287,2.311,0.859c0.604,0.573,0.902,1.288,0.902,2.146v0.018
		c0,0.863-0.301,1.583-0.902,2.159c-0.603,0.576-1.372,0.864-2.311,0.864L425.252,18.69L425.252,18.69z M426.314,17.723h1.191
		c0.628,0,1.134-0.19,1.52-0.57c0.386-0.38,0.579-0.87,0.579-1.468v-0.017c0-0.599-0.193-1.091-0.579-1.477
		c-0.386-0.386-0.892-0.579-1.52-0.579h-1.191V17.723z"/>
	<path fill="ffffff" d="M436.884,18.794c-0.875,0-1.606-0.299-2.193-0.898c-0.588-0.599-0.881-1.336-0.881-2.211v-0.017
		c0-0.875,0.293-1.615,0.881-2.22c0.587-0.604,1.333-0.907,2.236-0.907c0.522,0,0.969,0.081,1.335,0.242
		c0.365,0.162,0.709,0.395,1.031,0.7l-0.684,0.786c-0.542-0.5-1.104-0.751-1.691-0.751c-0.569,0-1.047,0.206-1.427,0.617
		c-0.38,0.411-0.567,0.917-0.567,1.516v0.018c0,0.599,0.188,1.107,0.567,1.524s0.855,0.626,1.427,0.626
		c0.346,0,0.649-0.065,0.916-0.194c0.265-0.13,0.536-0.327,0.818-0.592l0.685,0.691c-0.342,0.357-0.7,0.625-1.08,0.803
		C437.877,18.705,437.419,18.794,436.884,18.794z"/>
	<path fill="ffffff" d="M440.194,18.69v-6.045h4.482v0.95h-3.42v1.572h3.029v0.95h-3.029v1.624h3.463v0.95L440.194,18.69
		L440.194,18.69z"/>
	<path fill="ffffff" d="M445.722,18.69v-6.045h0.982l3.238,4.18v-4.18h1.045v6.045h-0.89l-3.333-4.301v4.301H445.722z"/>
	<path fill="ffffff" d="M453.771,18.69v-5.06h-1.917v-0.985h4.905v0.985h-1.917v5.061L453.771,18.69L453.771,18.69z"/>
	<path fill="ffffff" d="M457.62,18.69v-6.045h2.694c0.748,0,1.33,0.202,1.744,0.604c0.334,0.346,0.501,0.78,0.501,1.304v0.017
		c0,0.478-0.129,0.871-0.389,1.179c-0.261,0.308-0.61,0.525-1.056,0.652l1.635,2.289h-1.25l-1.485-2.107h-1.33v2.107H457.62z
		 M458.685,15.642h1.554c0.381,0,0.685-0.092,0.907-0.276c0.225-0.185,0.337-0.429,0.337-0.734v-0.017
		c0-0.322-0.109-0.57-0.328-0.743s-0.525-0.259-0.924-0.259h-1.546V15.642z"/>
	<path fill="ffffff" d="M463.606,18.69v-6.045h4.482v0.95h-3.42v1.572h3.029v0.95h-3.029v1.624h3.463v0.95L463.606,18.69
		L463.606,18.69z"/>
	<path fill="ffffff" d="M165.368,18.69v-6.045h1.062v3.04l2.876-3.04h1.304l-2.513,2.6l2.625,3.446h-1.287l-2.063-2.72
		l-0.941,0.967v1.753L165.368,18.69L165.368,18.69z"/>
	<path fill="ffffff" d="M171.431,18.69v-6.045h1.063v6.045H171.431z"/>
	<path fill="ffffff" d="M173.849,18.69v-6.045h0.984l3.237,4.18v-4.18h1.047v6.045h-0.892l-3.333-4.301v4.301H173.849z"/>
	<path fill="ffffff" d="M183.29,18.794c-0.935,0-1.688-0.295-2.269-0.885c-0.579-0.59-0.868-1.331-0.868-2.224v-0.017
		c0-0.864,0.297-1.601,0.887-2.211s1.334-0.916,2.23-0.916c0.507,0,0.938,0.068,1.295,0.203c0.357,0.135,0.7,0.341,1.028,0.617
		l-0.673,0.803c-0.253-0.219-0.508-0.381-0.767-0.488c-0.256-0.106-0.563-0.16-0.928-0.16c-0.553,0-1.018,0.208-1.395,0.626
		c-0.377,0.417-0.566,0.92-0.566,1.507v0.018c0,0.627,0.19,1.144,0.57,1.55c0.38,0.406,0.875,0.609,1.485,0.609
		c0.563,0,1.051-0.152,1.459-0.458v-1.131h-1.547v-0.924h2.573v2.539C185.08,18.48,184.239,18.794,183.29,18.794z"/>
	<path fill="ffffff" d="M189.029,18.777c-0.961,0-1.802-0.322-2.521-0.967l0.639-0.76c0.604,0.524,1.241,0.786,1.909,0.786
		c0.328,0,0.589-0.069,0.782-0.207c0.191-0.138,0.289-0.323,0.289-0.553v-0.018c0-0.225-0.092-0.403-0.276-0.535
		c-0.184-0.132-0.547-0.262-1.088-0.389c-0.346-0.086-0.633-0.173-0.864-0.259c-0.229-0.086-0.438-0.199-0.622-0.337
		c-0.185-0.138-0.316-0.307-0.4-0.505c-0.083-0.199-0.125-0.433-0.125-0.704v-0.017c0-0.518,0.191-0.94,0.579-1.265
		c0.386-0.325,0.881-0.488,1.483-0.488c0.829,0,1.562,0.253,2.193,0.76l-0.57,0.803c-0.559-0.415-1.104-0.622-1.641-0.622
		c-0.3,0-0.539,0.068-0.717,0.203c-0.181,0.135-0.27,0.307-0.27,0.514v0.018c0,0.236,0.099,0.418,0.29,0.548
		c0.193,0.129,0.574,0.263,1.146,0.401c0.668,0.161,1.157,0.376,1.473,0.644c0.313,0.268,0.471,0.644,0.471,1.127v0.017
		c0,0.559-0.199,0.999-0.596,1.321C190.195,18.616,189.673,18.777,189.029,18.777z"/>
	<path fill="ffffff" d="M192.181,18.69v-6.045h1.063v5.078h3.178v0.967H192.181z"/>
	<path fill="ffffff" d="M196.75,18.69l2.66-6.088h0.982l2.66,6.088h-1.123l-0.613-1.459h-2.856l-0.622,1.459H196.75z
		 M198.848,16.29h2.082l-1.045-2.418L198.848,16.29z"/>
	<path fill="ffffff" d="M203.831,18.69v-6.045h0.982l3.239,4.18v-4.18h1.045v6.045h-0.89l-3.333-4.301v4.301H203.831z"/>
	<path fill="ffffff" d="M210.395,18.69v-6.045h2.254c0.938,0,1.708,0.287,2.312,0.859c0.602,0.573,0.901,1.288,0.901,2.146v0.018
		c0,0.863-0.301,1.583-0.901,2.159c-0.604,0.576-1.372,0.864-2.312,0.864L210.395,18.69L210.395,18.69z M211.457,17.723h1.19
		c0.627,0,1.136-0.19,1.521-0.57c0.386-0.38,0.579-0.87,0.579-1.468v-0.017c0-0.599-0.193-1.091-0.579-1.477
		c-0.386-0.386-0.895-0.579-1.521-0.579h-1.19V17.723z"/>
	<path fill="ffffff" d="M222.038,18.794c-0.875,0-1.606-0.299-2.193-0.898s-0.881-1.336-0.881-2.211v-0.017
		c0-0.875,0.293-1.615,0.881-2.22c0.587-0.604,1.333-0.907,2.236-0.907c0.522,0,0.969,0.081,1.334,0.242
		c0.364,0.162,0.709,0.395,1.03,0.7l-0.683,0.786c-0.541-0.5-1.104-0.751-1.692-0.751c-0.568,0-1.045,0.206-1.425,0.617
		c-0.38,0.412-0.568,0.917-0.568,1.516v0.018c0,0.599,0.188,1.107,0.568,1.524s0.855,0.626,1.425,0.626
		c0.347,0,0.65-0.065,0.916-0.194c0.267-0.13,0.538-0.327,0.82-0.592l0.684,0.691c-0.342,0.357-0.7,0.625-1.08,0.803
		C223.03,18.705,222.574,18.794,222.038,18.794z"/>
	<path fill="ffffff" d="M225.349,18.69v-6.045h4.482v0.95h-3.42v1.572h3.029v0.95h-3.029v1.624h3.463v0.95L225.349,18.69
		L225.349,18.69z"/>
	<path fill="ffffff" d="M230.875,18.69v-6.045h0.982l3.239,4.18v-4.18h1.045v6.045h-0.89l-3.333-4.301v4.301H230.875z"/>
	<path fill="ffffff" d="M238.924,18.69v-5.06h-1.917v-0.985h4.906v0.985h-1.917v5.061L238.924,18.69L238.924,18.69z"/>
	<path fill="ffffff" d="M242.776,18.69v-6.045h2.694c0.749,0,1.33,0.202,1.745,0.604c0.334,0.346,0.501,0.78,0.501,1.304v0.017
		c0,0.478-0.13,0.871-0.389,1.179c-0.261,0.308-0.61,0.525-1.056,0.652l1.632,2.289h-1.252l-1.483-2.107h-1.33v2.107H242.776z
		 M243.838,15.642h1.555c0.38,0,0.684-0.092,0.907-0.276c0.225-0.185,0.337-0.429,0.337-0.734v-0.017
		c0-0.322-0.109-0.57-0.328-0.743s-0.525-0.259-0.924-0.259h-1.546L243.838,15.642L243.838,15.642z"/>
	<path fill="ffffff" d="M248.761,18.69v-6.045h4.482v0.95h-3.422v1.572h3.031v0.95h-3.031v1.624h3.465v0.95L248.761,18.69
		L248.761,18.69z"/>
	<path fill="ffffff" d="M19.004,309.61c0,0.875-0.299,1.604-0.898,2.191c-0.599,0.588-1.336,0.881-2.211,0.881h-0.017
		c-0.875,0-1.615-0.293-2.22-0.881c-0.604-0.587-0.907-1.333-0.907-2.234c0-0.524,0.081-0.971,0.242-1.335
		c0.16-0.365,0.395-0.709,0.698-1.031l0.786,0.682c-0.5,0.542-0.751,1.105-0.751,1.693c0,0.567,0.206,1.045,0.617,1.425
		s0.917,0.569,1.516,0.569h0.02c0.599,0,1.105-0.189,1.522-0.569s0.626-0.855,0.626-1.425c0-0.346-0.063-0.651-0.192-0.916
		c-0.13-0.267-0.327-0.538-0.592-0.82l0.689-0.683c0.357,0.34,0.625,0.7,0.803,1.08C18.915,308.617,19.004,309.075,19.004,309.61z"
		/>
	<path fill="ffffff" d="M18.901,306.3h-6.045v-1.063h2.515v-2.886h-2.515v-1.063h6.045v1.063h-2.548v2.886h2.548V306.3z"/>
	<path fill="ffffff" d="M18.901,300.514l-6.088-2.66v-0.982l6.088-2.66v1.123l-1.459,0.611v2.858l1.459,0.621V300.514z
		 M16.5,298.415v-2.081l-2.418,1.045L16.5,298.415z"/>
	<path fill="ffffff" d="M18.901,293.432h-6.045v-2.384c0-0.702,0.187-1.261,0.555-1.675c0.367-0.415,0.856-0.622,1.468-0.622h0.017
		c0.651,0,1.157,0.229,1.521,0.687c0.361,0.459,0.544,1.035,0.544,1.731v1.2h1.941L18.901,293.432L18.901,293.432z M15.999,292.369
		v-1.234c0-0.396-0.103-0.714-0.304-0.949c-0.199-0.235-0.46-0.354-0.775-0.354h-0.019c-0.345,0-0.61,0.115-0.799,0.352
		c-0.187,0.231-0.279,0.551-0.279,0.953v1.234L15.999,292.369L15.999,292.369z"/>
	<path fill="ffffff" d="M18.901,287.922h-6.045v-4.482h0.95v3.42h1.572v-3.029h0.95v3.029h1.624v-3.463h0.948V287.922
		L18.901,287.922z"/>
	<path fill="ffffff" d="M18.901,282.396h-6.045v-1.063h5.078v-3.179h0.967V282.396z"/>
	<path fill="ffffff" d="M18.987,272.866c0,0.962-0.32,1.803-0.967,2.522l-0.76-0.642c0.524-0.604,0.786-1.24,0.786-1.908
		c0-0.327-0.069-0.589-0.207-0.78c-0.138-0.192-0.323-0.289-0.553-0.289h-0.02c-0.225,0-0.401,0.092-0.535,0.274
		c-0.132,0.187-0.262,0.548-0.389,1.089c-0.086,0.346-0.173,0.635-0.259,0.863s-0.199,0.438-0.337,0.622
		c-0.14,0.184-0.309,0.315-0.505,0.399c-0.199,0.084-0.435,0.125-0.704,0.125H14.52c-0.518,0-0.938-0.19-1.265-0.578
		c-0.325-0.385-0.488-0.881-0.488-1.483c0-0.829,0.253-1.562,0.76-2.192l0.805,0.568c-0.415,0.561-0.622,1.104-0.622,1.643
		c0,0.299,0.066,0.539,0.203,0.717c0.135,0.179,0.307,0.268,0.514,0.268h0.018c0.236,0,0.418-0.096,0.55-0.289
		c0.129-0.191,0.263-0.574,0.399-1.145c0.161-0.668,0.376-1.158,0.646-1.473c0.268-0.313,0.644-0.472,1.127-0.472h0.017
		c0.561,0,0.999,0.198,1.321,0.597C18.826,271.701,18.987,272.223,18.987,272.866z"/>
	<path fill="ffffff" d="M18.901,268.357H13.84v1.918h-0.985v-4.905h0.985v1.917h5.061V268.357z"/>
	<path fill="ffffff" d="M18.901,265.809l-6.088-2.66v-0.982l6.088-2.66v1.123l-1.459,0.613v2.857l1.459,0.62V265.809z M16.5,263.71
		v-2.081l-2.418,1.045L16.5,263.71z"/>
	<path fill="ffffff" d="M18.901,258.727h-6.045v-0.982l4.182-3.238h-4.182v-1.045h6.045v0.891l-4.301,3.334h4.301V258.727z"/>
	<path fill="ffffff" d="M18.901,252.154h-6.045V249.9c0-0.938,0.287-1.707,0.859-2.312c0.573-0.603,1.288-0.901,2.146-0.901h0.02
		c0.863,0,1.583,0.302,2.159,0.901c0.574,0.604,0.862,1.372,0.862,2.312L18.901,252.154L18.901,252.154z M17.934,251.093v-1.19
		c0-0.629-0.188-1.135-0.57-1.521c-0.38-0.386-0.868-0.579-1.468-0.579h-0.017c-0.601,0-1.091,0.193-1.479,0.579
		c-0.386,0.386-0.577,0.892-0.577,1.521v1.19H17.934z"/>
	<path fill="ffffff" d="M616.085,284.711l6.089,2.66v0.984l-6.089,2.66v-1.123l1.46-0.613v-2.858l-1.46-0.621V284.711z
		 M618.485,286.811v2.08l2.419-1.045L618.485,286.811z"/>
	<path fill="ffffff" d="M616.041,292.656l6.089-2.107v1.149l-4.481,1.44l4.499,1.484v0.896l-4.499,1.485l4.481,1.442v1.112
		l-6.089-2.105v-0.915l4.345-1.484l-4.345-1.486V292.656z"/>
	<path fill="ffffff" d="M616.085,299.099l6.089,2.66v0.984l-6.089,2.66v-1.123l1.46-0.613v-2.858l-1.46-0.619V299.099z
		 M618.485,301.197v2.081l2.419-1.045L618.485,301.197z"/>
	<path fill="ffffff" d="M616.085,307.003h2.384l3.661-2.401v1.252l-2.679,1.693l2.679,1.71v1.218l-3.638-2.399h-2.408
		L616.085,307.003L616.085,307.003z"/>
	<path fill="ffffff" d="M616.085,313.478h6.045v4.499h-0.969v-3.437h-1.647v3.048h-0.968v-3.048h-2.462L616.085,313.478
		L616.085,313.478z"/>
	<path fill="ffffff" d="M616.085,317.674l6.089,2.66v0.984l-6.089,2.66v-1.123l1.46-0.613v-2.858l-1.46-0.621V317.674z
		 M618.485,319.772v2.079l2.419-1.045L618.485,319.772z"/>
	<path fill="ffffff" d="M616.085,324.767h6.045v0.984l-4.182,3.238h4.182v1.045h-6.045v-0.892l4.301-3.333h-4.301V324.767z"/>
	<path fill="ffffff" d="M615.997,333.443c0-0.962,0.322-1.805,0.969-2.522l0.76,0.64c-0.523,0.604-0.786,1.24-0.786,1.908
		c0,0.328,0.069,0.589,0.208,0.781c0.138,0.193,0.322,0.29,0.553,0.29h0.019c0.225,0,0.401-0.093,0.536-0.276
		c0.132-0.185,0.262-0.548,0.389-1.089c0.086-0.345,0.173-0.633,0.259-0.861c0.086-0.23,0.198-0.438,0.337-0.622
		c0.14-0.186,0.309-0.317,0.505-0.401c0.199-0.083,0.436-0.125,0.704-0.125h0.02c0.518,0,0.938,0.192,1.265,0.578
		s0.488,0.881,0.488,1.483c0,0.829-0.254,1.563-0.762,2.194l-0.804-0.57c0.415-0.559,0.622-1.104,0.622-1.641
		c0-0.3-0.067-0.539-0.203-0.717c-0.136-0.179-0.307-0.27-0.514-0.27h-0.02c-0.234,0-0.419,0.098-0.548,0.289
		c-0.13,0.192-0.264,0.574-0.4,1.146c-0.161,0.667-0.375,1.158-0.645,1.472c-0.269,0.314-0.644,0.471-1.127,0.471h-0.018
		c-0.561,0-0.999-0.196-1.321-0.596C616.159,334.608,615.997,334.088,615.997,333.443z"/>
	<path fill="ffffff" d="M616.929,176.233h6.045v0.984l-4.18,3.239h4.18v1.045h-6.045v-0.89l4.301-3.333h-4.301V176.233z"/>
	<path fill="ffffff" d="M617.74,187.956c-0.608-0.599-0.915-1.356-0.915-2.271s0.304-1.669,0.906-2.263
		c0.604-0.593,1.339-0.889,2.202-0.889h0.018c0.864,0,1.603,0.299,2.211,0.898c0.61,0.599,0.915,1.356,0.915,2.271
		s-0.302,1.669-0.904,2.262c-0.604,0.593-1.34,0.89-2.202,0.89h-0.02C619.088,188.854,618.351,188.555,617.74,187.956z
		 M618.427,184.229c-0.417,0.389-0.626,0.879-0.626,1.473c0,0.593,0.206,1.081,0.617,1.463c0.41,0.383,0.917,0.575,1.516,0.575
		h0.018c0.601,0,1.107-0.194,1.524-0.583c0.417-0.389,0.626-0.88,0.626-1.473c0-0.593-0.206-1.081-0.617-1.464
		c-0.412-0.383-0.917-0.574-1.516-0.574h-0.02C619.353,183.646,618.845,183.841,618.427,184.229z"/>
	<path fill="ffffff" d="M616.929,189.884h6.045v2.694c0,0.749-0.201,1.33-0.604,1.745c-0.345,0.334-0.778,0.501-1.304,0.501h-0.018
		c-0.479,0-0.871-0.13-1.181-0.389c-0.308-0.259-0.523-0.61-0.65-1.054l-2.288,1.632v-1.252l2.105-1.485v-1.33h-2.105V189.884
		L616.929,189.884z M619.978,190.946v1.555c0,0.38,0.092,0.682,0.276,0.907c0.184,0.225,0.429,0.337,0.731,0.337h0.02
		c0.32,0,0.568-0.109,0.741-0.328c0.174-0.219,0.261-0.527,0.261-0.924v-1.546L619.978,190.946L619.978,190.946z"/>
	<path fill="ffffff" d="M616.929,197.346h5.061v-1.917h0.984v4.906h-0.984v-1.917h-5.061V197.346z"/>
	<path fill="ffffff" d="M616.929,201.189h6.045v1.062h-2.513v2.885h2.513v1.063h-6.045v-1.063h2.548v-2.885h-2.548V201.189z"/>
	<path fill="ffffff" d="M616.929,206.966l6.089,2.66v0.984l-6.089,2.66v-1.123l1.46-0.613v-2.858l-1.46-0.622V206.966z
		 M619.327,209.064v2.082l2.419-1.045L619.327,209.064z"/>
	<path fill="ffffff" d="M616.929,214.039h6.045v1.131l-2.858,1.839l2.858,1.839v1.131h-6.045v-1.062h4.335l-2.85-1.909v-0.035
		l2.831-1.891h-4.316V214.039L616.929,214.039z"/>
	<path fill="ffffff" d="M616.843,225.735c0-0.961,0.32-1.802,0.967-2.521l0.76,0.639c-0.521,0.604-0.786,1.241-0.786,1.909
		c0,0.328,0.069,0.589,0.208,0.782c0.14,0.193,0.322,0.289,0.555,0.289h0.017c0.225,0,0.403-0.092,0.536-0.276
		c0.132-0.184,0.262-0.547,0.389-1.088c0.086-0.346,0.173-0.633,0.259-0.864s0.198-0.438,0.338-0.622
		c0.139-0.185,0.308-0.318,0.506-0.402c0.197-0.083,0.434-0.125,0.703-0.125h0.019c0.518,0,0.938,0.193,1.265,0.579
		c0.326,0.386,0.488,0.881,0.488,1.485c0,0.829-0.254,1.56-0.76,2.193l-0.806-0.57c0.415-0.559,0.622-1.105,0.622-1.641
		c0-0.3-0.065-0.539-0.203-0.717c-0.136-0.179-0.307-0.268-0.514-0.268h-0.018c-0.236,0-0.419,0.097-0.548,0.29
		c-0.132,0.193-0.266,0.574-0.402,1.144c-0.161,0.668-0.375,1.159-0.643,1.473c-0.271,0.313-0.646,0.471-1.128,0.471h-0.019
		c-0.559,0-0.999-0.199-1.321-0.596C617.004,226.901,616.843,226.38,616.843,225.735z"/>
	<path fill="ffffff" d="M616.929,230.244h5.061v-1.917h0.984v4.906h-0.984v-1.917h-5.061V230.244z"/>
	<path fill="ffffff" d="M616.929,232.783l6.089,2.659v0.984l-6.089,2.66v-1.123l1.46-0.613v-2.855l-1.46-0.622V232.783z
		 M619.327,234.881v2.081l2.419-1.045L619.327,234.881z"/>
	<path fill="ffffff" d="M616.929,239.864h6.045v0.983l-4.18,3.237h4.18v1.045h-6.045v-0.89l4.301-3.333h-4.301V239.864z"/>
	<path fill="ffffff" d="M616.929,246.436h6.045v2.254c0,0.938-0.286,1.707-0.859,2.312c-0.57,0.603-1.288,0.901-2.146,0.901h-0.02
		c-0.861,0-1.583-0.301-2.158-0.901c-0.574-0.604-0.862-1.372-0.862-2.312V246.436z M617.896,247.497v1.19
		c0,0.629,0.19,1.135,0.57,1.521s0.869,0.579,1.468,0.579h0.018c0.601,0,1.093-0.193,1.479-0.579s0.579-0.892,0.579-1.521v-1.19
		H617.896z"/>
</g>
<g>
	<polygon fill="#FFFFFF" points="133.91,342.464 493.56,342.464 493.56,135.602 133.91,135.602 	"/>
	<polygon fill="#79AA41" points="141.828,335.046 485.642,335.046 485.642,143.356 141.828,143.356 	"/>
	<polygon fill="#599B43" points="459.972,145.068 459.972,333.365 477.258,333.365 477.258,145.068 	"/>
	<polygon fill="#599B43" points="425.393,145.068 425.393,333.365 442.679,333.365 442.679,145.068 	"/>
	<polygon fill="#599B43" points="390.805,145.068 390.805,333.365 408.092,333.365 408.092,145.068 	"/>
	<polygon fill="#599B43" points="356.224,145.068 356.224,333.365 373.513,333.365 373.513,145.068 	"/>
	<polygon fill="#599B43" points="322.102,145.068 322.102,333.365 339.38,333.365 339.38,145.068 	"/>
	<polygon fill="#599B43" points="287.503,145.068 287.503,333.365 304.794,333.365 304.794,145.068 	"/>
	<polygon fill="#599B43" points="252.924,145.068 252.924,333.365 270.212,333.365 270.214,145.068 	"/>
	<polygon fill="#599B43" points="218.341,145.068 218.338,333.365 235.624,333.365 235.625,145.068 	"/>
	<polygon fill="#599B43" points="183.756,145.068 183.756,333.365 201.037,333.365 201.038,145.068 	"/>
	<polygon fill="#599B43" points="149.163,145.068 149.161,333.365 166.455,333.365 166.455,145.068 	"/>
	<polygon fill="#BBBDBF" points="140.85,143.356 140.85,144.313 485.723,144.313 485.723,334.09 141.806,334.09 141.806,143.356 
		140.85,143.356 140.85,144.313 140.85,143.356 139.894,143.356 139.894,336.002 487.636,336.002 487.636,142.4 139.894,142.4 
		139.894,143.356 	"/>
	<polygon fill="#FFFFFF" points="474.029,325.49 474.029,324.522 154.96,324.522 154.96,152.757 473.06,152.757 473.06,325.49 
		474.029,325.49 474.029,324.522 474.029,325.49 474.996,325.49 474.996,150.818 153.021,150.818 153.021,326.461 474.996,326.461 
		474.996,325.49 	"/>
	<rect x="313.007" y="151.788" fill="#FFFFFF" width="1.938" height="173.458"/>
	<path fill="#FFFFFF" d="M474.029,158.277c-1.846,0-3.507-0.732-4.713-1.911c-1.204-1.181-1.942-2.793-1.944-4.578h-1.938
		c0,2.327,0.97,4.443,2.525,5.963c1.555,1.523,3.703,2.464,6.067,2.464L474.029,158.277L474.029,158.277z"/>
	<path fill="#FFFFFF" d="M474.029,317.059c-2.364,0-4.515,0.941-6.067,2.465c-1.558,1.521-2.525,3.639-2.525,5.969h1.938
		c0.004-1.787,0.74-3.402,1.944-4.583c1.206-1.179,2.867-1.909,4.713-1.909L474.029,317.059L474.029,317.059z"/>
	<polygon fill="#FFFFFF" points="153.993,286.727 197.332,286.727 197.332,189.125 153.993,189.125 153.993,191.063 
		195.394,191.063 195.394,284.787 153.993,284.787 	"/>
	<polygon fill="#FFFFFF" points="153.993,264.855 178.33,264.855 178.33,210.977 153.993,210.977 153.993,212.916 176.391,212.916 
		176.391,262.917 153.993,262.917 	"/>
	<path fill="#FFFFFF" d="M209.169,237.918h-0.968c0,8.551-5.042,15.869-12.233,19.077l0.394,0.884h0.972v-39.922h-0.972
		l-0.394,0.887c7.189,3.202,12.234,10.538,12.233,19.074H209.169h0.97c-0.001-9.312-5.498-17.334-13.382-20.847l-1.364-0.607v42.908
		l1.364-0.606c7.882-3.514,13.38-11.521,13.382-20.848H209.169L209.169,237.918z"/>
	<path fill="#FFFFFF" d="M153.99,160.215c2.363,0,4.515-0.94,6.066-2.464c1.553-1.52,2.522-3.636,2.521-5.963h-1.938
		c0,1.785-0.736,3.398-1.938,4.578c-1.203,1.179-2.863,1.911-4.711,1.911L153.99,160.215L153.99,160.215z"/>
	<path fill="#FFFFFF" d="M153.99,318.998c1.848,0.002,3.508,0.729,4.711,1.909c1.201,1.181,1.938,2.794,1.938,4.583h1.938
		c0.001-2.33-0.968-4.447-2.521-5.968c-1.553-1.522-3.703-2.466-6.068-2.466v1.94L153.99,318.998L153.99,318.998z"/>
	<path fill="#FFFFFF" d="M186.111,239.215v0.969c0.622,0.002,1.197-0.242,1.616-0.646c0.42-0.405,0.688-0.987,0.688-1.618
		c-0.01-1.271-1.041-2.271-2.305-2.273c-1.27,0.004-2.292,1.021-2.294,2.273c-0.001,0.624,0.255,1.206,0.676,1.613
		c0.417,0.408,0.996,0.652,1.618,0.65V239.215v-0.97c-0.231-0.011-0.349-0.142-0.354-0.327c0-0.173,0.142-0.335,0.354-0.336
		l0.265,0.107l0.101,0.229c-0.001,0.17-0.138,0.322-0.364,0.327L186.111,239.215L186.111,239.215z"/>
	<polygon fill="#FFFFFF" points="474.064,189.345 430.723,189.345 430.723,286.936 474.064,286.936 474.064,284.998 432.66,284.998 
		432.66,191.283 474.064,191.283 	"/>
	<polygon fill="#FFFFFF" points="474.064,211.205 449.724,211.205 449.724,265.084 474.064,265.084 474.064,263.145 451.66,263.145 
		451.66,213.144 474.064,213.144 	"/>
	<path fill="#FFFFFF" d="M419.158,238.145h0.97c0.003-8.577,4.78-15.874,11.959-19.075l-0.396-0.885h-0.97v39.92h0.97l0.396-0.885
		c-7.177-3.199-11.956-10.518-11.959-19.076H419.158h-0.972c-0.003,9.289,5.212,17.328,13.108,20.848l1.363,0.607v-42.911
		l-1.363,0.608c-7.896,3.518-13.111,11.542-13.108,20.848H419.158L419.158,238.145z"/>
	<path fill="#FFFFFF" d="M441.945,236.852v-0.971c-1.24,0.003-2.294,0.982-2.3,2.264c0.008,1.274,1.044,2.269,2.3,2.271
		c1.266-0.003,2.294-1.014,2.294-2.271c0.001-0.625-0.261-1.205-0.678-1.607c-0.416-0.408-0.994-0.654-1.616-0.654V236.852v0.969
		c0.228,0.01,0.353,0.148,0.354,0.324c0,0.17-0.144,0.332-0.354,0.334l-0.261-0.107l-0.102-0.227l0.098-0.22l0.265-0.104V236.852
		L441.945,236.852z"/>
	<path fill="#FFFFFF" d="M313.213,268.036v-0.97c-7.602,0-14.473-3.078-19.455-8.061c-4.981-4.98-8.059-11.854-8.059-19.451
		c0-7.6,3.076-14.473,8.059-19.454c4.979-4.979,11.854-8.059,19.455-8.059c7.601,0,14.471,3.079,19.452,8.059
		c4.979,4.981,8.058,11.854,8.059,19.454c-0.001,7.601-3.078,14.471-8.059,19.451c-4.981,4.979-11.853,8.061-19.452,8.061V268.036
		v0.97c16.266-0.001,29.447-13.186,29.449-29.449c-0.002-16.266-13.186-29.45-29.449-29.452
		c-16.269,0.002-29.452,13.187-29.452,29.452c0,16.264,13.186,29.448,29.452,29.449V268.036L313.213,268.036z"/>
</g>
</svg>
