<svg>
<g id="AREAS">
	<rect id="S-J" x="117.491" y="2.741" stroke-width="0" width="36.422" height="78.837"/>
	<rect id="S-K" x="157.898" y="2.741" stroke-width="0" width="36.411" height="78.837"/>
	<rect id="S-L" x="198.298" y="2.741" stroke-width="0" width="36.415" height="78.837"/>
	<rect id="S-M" x="238.705" y="2.741" stroke-width="0" width="36.399" height="78.837"/>
	<rect id="S-N" x="279.118" y="2.741" stroke-width="0" width="36.396" height="78.837"/>
	<rect id="S-O" x="319.512" y="2.741" stroke-width="0" width="36.407" height="78.837"/>
	<rect id="S-P" x="359.912" y="2.741" stroke-width="0" width="36.401" height="78.837"/>
	<rect id="S-Q" x="400.311" y="2.741" stroke-width="0" width="36.415" height="78.837"/>
	<rect id="S-R" x="440.714" y="2.741" stroke-width="0" width="36.418" height="78.837"/>
	<rect id="S-S" x="481.115" y="2.741" stroke-width="0" width="36.416" height="78.837"/>
	<rect id="T-A" x="117.491" y="85.578" stroke-width="0" width="400.037" height="51.223"/>
	
		<rect id="C-AL" x="492.639" y="453.402" stroke-width="0" width="24.874" height="105.111"/>
	<rect id="C-BL" x="434.93" y="453.402" stroke-width="0" width="53.719" height="86.929"/>
	<polygon id="C-CL" stroke-width="0" points="377.203,540.33 377.209,471.586 
		406.066,471.586 406.068,453.402 430.935,453.402 430.93,540.33 	"/>
	<path id="C-WL" stroke-width="0" d="M327.307,467.586v-14.185h74.762v14.185H327.307z
		 M307.676,467.586v-14.185h-74.764v14.185H307.676z"/>
	<polygon id="C-DL" stroke-width="0" points="261.781,503.938 261.781,471.592 
		307.686,471.586 307.686,489.773 327.314,489.773 327.314,471.586 373.219,471.586 373.218,503.939 	"/>
	<polygon id="C-EL" stroke-width="0" points="204.057,540.33 204.053,453.402 
		228.912,453.402 228.912,471.586 257.771,471.586 257.773,540.33 	"/>
	
		<rect id="C-FL" x="146.328" y="453.402" stroke-width="0" width="53.729" height="86.929"/>
	
		<rect id="C-GL" x="117.479" y="453.402" stroke-width="0" width="24.857" height="105.111"/>
	<path id="C-WU" stroke-width="0" d="M377.203,558.518V544.33h111.438v14.188H377.203z
		 M257.775,558.518V544.33H146.335v14.188H257.775z"/>
	
		<rect id="C-AU" x="492.634" y="562.518" stroke-width="0" width="24.869" height="68.741"/>
	
		<rect id="C-BU" x="434.925" y="562.518" stroke-width="0" width="53.714" height="68.741"/>
	
		<rect id="C-CU" x="377.201" y="562.518" stroke-width="0" width="53.727" height="68.741"/>
	
		<rect id="C-DU" x="261.775" y="580.701" stroke-width="0" width="111.432" height="50.558"/>
	
		<rect id="C-EU" x="204.058" y="562.518" stroke-width="0" width="53.718" height="68.741"/>
	
		<rect id="C-FU" x="146.336" y="562.518" stroke-width="0" width="53.726" height="68.741"/>
	
		<rect id="C-GU" x="117.483" y="562.517" stroke-width="0" width="24.857" height="68.742"/>
	<rect id="E-W1" x="2" y="401.717" stroke-width="0" width="111.479" height="48.188"/>
	<rect id="E-W2" x="2.003" y="349.535" stroke-width="0" width="111.479" height="48.182"/>
	<rect id="E-W3" x="2.005" y="297.353" stroke-width="0" width="111.479" height="48.184"/>
	<rect id="E-W4" x="2.008" y="245.167" stroke-width="0" width="111.476" height="48.186"/>
	
		<rect id="E-W7" x="71.294" y="140.801" stroke-width="0" width="42.188" height="100.366"/>
	<polygon id="E-W5" stroke-width="0" points="2.013,241.167 2.016,219.073 
		25.107,219.073 25.107,192.981 67.299,192.981 67.297,241.167 	"/>
	<polygon id="E-W6" stroke-width="0" points="25.107,188.981 25.107,162.89 2.015,162.89 
		2.016,140.801 67.295,140.801 67.295,188.981 	"/>
	<rect id="E-W8" x="2.013" y="166.89" stroke-width="0" width="19.095" height="48.183"/>
	<polygon id="W-D3" stroke-width="0" points="530.334,430 530.334,404.834 530.334,389.166 
		530.334,364 520.471,364 520.471,430 	"/>
	<polygon id="W-D2" stroke-width="0" points="530.334,322 530.334,296.834 530.334,281.167 
		530.334,256 520.471,256 520.471,322 	"/>
	<polygon id="W-D1" stroke-width="0" points="520.471,165.834 520.471,214.834 
		530.334,214.834 530.334,189.667 530.334,174 530.334,154.685 529.815,154.916 	"/>
	
		<rect id="W-CH" x="576.834" y="235.481" stroke-width="0" width="25.166" height="53.039"/>
	<polygon id="W-PD" stroke-width="0" points="557,314 572.834,314 572.834,292.52 
		572.834,290.52 572.834,264 557,264 	"/>
	<polygon id="W-T" stroke-width="0" points="596.741,153.956 596.741,155.956 
		534.334,155.956 534.334,174 546,174 546,189.667 534.334,189.667 534.334,206.834 602,206.834 602,142.5 557.666,142.5 
		534.334,152.902 534.334,153.956 	"/>
	<polygon id="W-U" stroke-width="0" points="534.334,210.834 534.334,218.834 
		520.471,218.834 520.471,252 534.334,252 534.334,260 572.834,260 572.834,231.481 602,231.481 602,210.834 	"/>
	<path id="W-V" stroke-width="0" d="M534.334,264H553v50h-18.666v-17.167H546v-15.667
		h-11.666V264z M576.834,314h21.688L602,302.528V292.52h-25.166V314z"/>
	<polygon id="W-W" stroke-width="0" points="534.334,326 520.471,326 520.471,360 
		534.334,360 534.334,368 582.156,368 597.311,318 534.334,318 	"/>
	<path id="W-X" stroke-width="0" d="M534.334,423.82h30.902l-7.902,26.084h-36.863V434
		h13.863V423.82z M534.334,389.166H546v15.668h-11.666v16.984h31.512L580.944,372h-46.609V389.166L534.334,389.166z"/>
	<rect id="C-EX" stroke-width="0" x="261.771" y="507.978" width="111.438" height="32.354"/>
	<rect id="C-18" stroke-width="0" x="261.771" y="544.33" width="53.743" height="32.377"/>
	<rect id="C-VIP" stroke-width="0" x="319.512" y="544.33" width="53.697" height="32.377"/>
</g>
<g id="PITCH">
	<g id="PITCH">
		<g>
			<g>
				<rect x="130.75" y="172.336" fill="#76B72A" width="373.5" height="245.53"/>
			</g>
			<g>
				<rect x="146.994" y="172.336" fill="#009339" width="16.252" height="245.53"/>
			</g>
			<g>
				<rect x="179.469" y="172.336" fill="#009339" width="16.256" height="245.53"/>
			</g>
			<g>
				<rect x="211.952" y="172.336" fill="#009339" width="16.248" height="245.53"/>
			</g>
			<g>
				<rect x="244.429" y="172.336" fill="#009339" width="16.249" height="245.53"/>
			</g>
			<g>
				<rect x="276.907" y="172.336" fill="#009339" width="16.238" height="245.53"/>
			</g>
			<g>
				<rect x="309.39" y="172.336" fill="#009339" width="16.239" height="245.53"/>
			</g>
			<g>
				<rect x="341.867" y="172.336" fill="#009339" width="16.239" height="245.53"/>
			</g>
			<g>
				<rect x="374.337" y="172.336" fill="#009339" width="16.253" height="245.53"/>
			</g>
			<g>
				<rect x="406.816" y="172.336" fill="#009339" width="16.247" height="245.53"/>
			</g>
			<g>
				<rect x="439.288" y="172.336" fill="#009339" width="16.258" height="245.53"/>
			</g>
			<g>
				<rect x="471.772" y="172.336" fill="#009339" width="16.262" height="245.53"/>
			</g>
			<g id="LINES">
				<rect x="470.15" y="172.336" fill="#FFFFFF" width="0.91" height="245.53"/>
				<rect x="163.939" y="172.336" fill="#FFFFFF" width="0.91" height="245.53"/>
				<g>
					<polygon fill="#FFFFFF" points="164.187,283.66 118.668,270.452 119.084,268.267 164.604,281.472 					"/>
					<polygon fill="#FFFFFF" points="119.084,321.938 118.668,319.753 164.187,306.546 164.604,308.729 					"/>
					<rect x="142.433" y="276.589" fill="#FFFFFF" width="1.82" height="37.048"/>
					<polygon fill="#FFFFFF" points="470.817,283.66 470.399,281.472 515.911,268.267 516.328,270.452 					"/>
					<polygon fill="#FFFFFF" points="515.911,321.938 470.399,308.729 470.817,306.546 516.328,319.753 					"/>
					<rect x="490.741" y="276.589" fill="#FFFFFF" width="1.822" height="37.048"/>
				</g>
				<rect x="317.039" y="185.9" fill="#FFFFFF" width="0.913" height="216.971"/>
				<rect x="359.484" y="185.9" fill="#FFFFFF" width="0.904" height="216.971"/>
				<rect x="413.771" y="185.9" fill="#FFFFFF" width="0.908" height="216.971"/>
				<rect x="274.609" y="185.9" fill="#FFFFFF" width="0.907" height="216.971"/>
				<rect x="220.32" y="185.9" fill="#FFFFFF" width="0.908" height="216.971"/>
			</g>
		</g>
	</g>
</g>
<g id="LABELS">
	<text fid="E-W1" transform="matrix(1 0 0 1 50.2415 429.0098)" fill="#FFFFFF" font-family="'Arial'" font-size="10">W1</text>
	<text fid="E-W2" transform="matrix(1 0 0 1 50.2415 376.8262)" fill="#FFFFFF" font-family="'Arial'" font-size="10">W2</text>
	<text fid="E-W3" transform="matrix(1 0 0 1 50.2439 324.6436)" fill="#FFFFFF" font-family="'Arial'" font-size="10">W3</text>
	<text fid="E-W7" transform="matrix(1 0 0 1 84.8875 194.1846)" fill="#FFFFFF" font-family="'Arial'" font-size="10">W7</text>
	<text fid="E-W4" transform="matrix(1 0 0 1 50.2454 272.46)" fill="#FFFFFF" font-family="'Arial'" font-size="10">W4</text>
	<text fid="E-W5" transform="matrix(1 0 0 1 38.7 220.2754)" fill="#FFFFFF" font-family="'Arial'" font-size="10">W5</text>
	<text fid="E-W6" transform="matrix(1 0 0 1 38.7 168.0918)" fill="#FFFFFF" font-family="'Arial'" font-size="10">W6</text>
	<text fid="E-W8" transform="matrix(1 0 0 1 4.0583 194.1807)" fill="#FFFFFF" font-family="'Arial'" font-size="10">W8</text>
	<text fid="S-K" transform="matrix(1 0 0 1 172.7673 44.8262)" fill="#FFFFFF" font-family="'Arial'" font-size="10">K</text>
	<text fid="S-L" transform="matrix(1 0 0 1 213.7195 44.8262)" fill="#FFFFFF" font-family="'Arial'" font-size="10">L</text>
	<text fid="S-M" transform="matrix(1 0 0 1 251.3518 44.8262)" fill="#FFFFFF" font-family="'Arial'" font-size="10">M </text>
	<text fid="S-N" transform="matrix(1 0 0 1 293.7048 44.8262)" fill="#FFFFFF" font-family="'Arial'" font-size="10">N</text>
	<text fid="S-O" transform="matrix(1 0 0 1 333.8264 44.8262)" fill="#FFFFFF" font-family="'Arial'" font-size="10">O</text>
	<text fid="S-P" transform="matrix(1 0 0 1 374.7815 44.8262)" fill="#FFFFFF" font-family="'Arial'" font-size="10">P</text>
	<text fid="S-Q" transform="matrix(1 0 0 1 414.6292 44.8262)" fill="#FFFFFF" font-family="'Arial'" font-size="10">Q</text>
	<text fid="S-R" transform="matrix(1 0 0 1 455.3127 44.8262)" fill="#FFFFFF" font-family="'Arial'" font-size="10">R</text>
	<text fid="S-S" transform="matrix(1 0 0 1 495.9885 44.8262)" fill="#FFFFFF" font-family="'Arial'" font-size="10">S</text>
	<text fid="S-J" transform="matrix(1 0 0 1 133.2009 44.8262)" fill="#FFFFFF" font-family="'Arial'" font-size="10">J</text>
	<text fid="T-A" transform="matrix(1 0 0 1 297.3167 113.8555)" fill="#FFFFFF" font-family="'Arial'" font-size="10">TERRACE</text>
	<text fid="C-AL" transform="matrix(1 0 0 1 498.9631 508.627)" fill="#FFFFFF" font-family="'Arial'" font-size="10">AL</text>
	<text fid="C-AU" transform="matrix(1 0 0 1 498.1292 599.5557)" fill="#FFFFFF" font-family="'Arial'" font-size="10">AU</text>
	<text fid="C-BL" transform="matrix(1 0 0 1 455.6682 499.5342)" fill="#FFFFFF" font-family="'Arial'" font-size="10">BL</text>
	<text fid="C-BU" transform="matrix(1 0 0 1 454.8362 599.5557)" fill="#FFFFFF" font-family="'Arial'" font-size="10">BU</text>
	<text fid="C-CL" transform="matrix(1 0 0 1 397.6741 499.5342)" fill="#FFFFFF" font-family="'Arial'" font-size="10">CL</text>
	<text fid="C-CU" transform="matrix(1 0 0 1 396.844 599.5557)" fill="#FFFFFF" font-family="'Arial'" font-size="10">CU</text>
	<text fid="C-DL" transform="matrix(1 0 0 1 343.8655 490.4297)" fill="#FFFFFF" font-family="'Arial'" font-size="10">DL</text>
	<text fid="C-DU" transform="matrix(1 0 0 1 310.2673 608.6475)" fill="#FFFFFF" font-family="'Arial'" font-size="10">DU</text>
	<text fid="C-EL" transform="matrix(1 0 0 1 224.7913 499.5342)" fill="#FFFFFF" font-family="'Arial'" font-size="10">EL</text>
	<text fid="C-EU" transform="matrix(1 0 0 1 223.9705 599.5557)" fill="#FFFFFF" font-family="'Arial'" font-size="10">EU</text>
	<text fid="C-FL" transform="matrix(1 0 0 1 167.3518 499.5342)" fill="#FFFFFF" font-family="'Arial'" font-size="10">FL</text>
	<text fid="C-FU" transform="matrix(1 0 0 1 166.533 599.5557)" fill="#FFFFFF" font-family="'Arial'" font-size="10">FU</text>
	<text fid="C-GL" transform="matrix(1 0 0 1 123.2327 508.627)" fill="#FFFFFF" font-family="'Arial'" font-size="10">GL</text>
	<text fid="C-GU" transform="matrix(1 0 0 1 122.4119 599.5547)" fill="#FFFFFF" font-family="'Arial'" font-size="10">GU</text>
	<text fid="W-T" transform="matrix(1 0 0 1 565.2034 177.334)" fill="#FFFFFF" font-family="'Arial'" font-size="10">T</text>
	<text fid="W-U" transform="matrix(1 0 0 1 557.6252 238.084)" fill="#FFFFFF" font-family="'Arial'" font-size="10">U</text>
	<text fid="W-CH" transform="matrix(1 0 0 1 582.1956 264.667)" fill="#FFFFFF" font-family="'Arial'" font-size="10">CH</text>
	<text fid="W-PD" transform="matrix(1 0 0 1 557.9709 291.668)" fill="#FFFFFF" font-family="'Arial'" font-size="10">PD</text>
	<text fid="W-V" transform="matrix(1 0 0 1 540.3323 308.084)" fill="#FFFFFF" font-family="'Arial'" font-size="10">V</text>
	<text fid="W-W" transform="matrix(1 0 0 1 554.1721 345.668)" fill="#FFFFFF" font-family="'Arial'" font-size="10">W</text>
	<text fid="W-X" transform="matrix(1 0 0 1 547.3733 413.6191)" fill="#FFFFFF" font-family="'Arial'" font-size="10">X</text>
	<text fid="C-EX" transform="matrix(1 0 0 1 310.8196 526.8228)" fill="#FFFFFF" font-family="'Arial'" font-size="10">EX</text>
	<text fid="C-18" transform="matrix(1 0 0 1 283.0808 563.1851)" fill="#FFFFFF" font-family="'Arial'" font-size="10">18</text>
	<text fid="C-VIP" transform="matrix(1 0 0 1 338.3918 563.186)" fill="#FFFFFF" font-family="'Arial'" font-size="10">VIP</text>
</g>
<g id="EXTRAS">
	<g enable-background="new    ">
		<path fill="#333333" d="M289.304,155.548c0,0.596-0.219,1.067-0.657,1.416c-0.438,0.349-1.02,0.522-1.746,0.522
			c-0.873,0-1.542-0.096-2.007-0.288V156.7c0.515,0.218,1.17,0.327,1.968,0.327c0.586,0,1.052-0.135,1.395-0.402
			c0.343-0.27,0.515-0.621,0.515-1.058c0-0.271-0.057-0.494-0.171-0.671c-0.114-0.178-0.299-0.34-0.557-0.486
			s-0.635-0.305-1.133-0.474c-0.729-0.251-1.233-0.521-1.512-0.813c-0.277-0.291-0.417-0.679-0.417-1.164
			c0-0.534,0.209-0.969,0.627-1.307c0.418-0.336,0.956-0.505,1.614-0.505c0.67,0,1.3,0.127,1.891,0.381l-0.182,0.43
			c-0.592-0.247-1.159-0.371-1.699-0.371c-0.526,0-0.946,0.122-1.26,0.366c-0.313,0.244-0.469,0.576-0.469,0.996
			c0,0.264,0.048,0.479,0.144,0.649c0.097,0.169,0.253,0.321,0.472,0.456c0.218,0.136,0.592,0.298,1.123,0.486
			c0.557,0.192,0.975,0.379,1.255,0.559c0.279,0.182,0.483,0.387,0.612,0.615C289.24,154.945,289.304,155.223,289.304,155.548z"/>
		<path fill="#333333" d="M296.814,153.81c0,1.133-0.283,2.028-0.85,2.688c-0.566,0.658-1.348,0.988-2.344,0.988
			c-0.993,0-1.772-0.33-2.34-0.988c-0.565-0.66-0.85-1.559-0.85-2.698c0-1.136,0.286-2.03,0.857-2.683
			c0.57-0.653,1.352-0.979,2.341-0.979c0.996,0,1.775,0.328,2.339,0.983C296.532,151.777,296.814,152.674,296.814,153.81z
			 M290.974,153.81c0,1.022,0.229,1.813,0.685,2.37c0.455,0.559,1.109,0.838,1.963,0.838c0.858,0,1.516-0.276,1.97-0.83
			s0.681-1.346,0.681-2.378c0-1.028-0.227-1.817-0.681-2.366c-0.454-0.548-1.107-0.822-1.96-0.822c-0.851,0-1.505,0.276-1.965,0.83
			C291.206,152.006,290.974,152.791,290.974,153.81z"/>
		<path fill="#333333" d="M303.702,150.25v4.619c0,0.82-0.237,1.462-0.713,1.924c-0.475,0.462-1.138,0.693-1.986,0.693
			c-0.827,0-1.473-0.232-1.937-0.695c-0.464-0.465-0.696-1.111-0.696-1.941v-4.6h0.503v4.619c0,0.687,0.19,1.222,0.571,1.604
			c0.381,0.383,0.919,0.574,1.616,0.574c0.68,0,1.208-0.188,1.582-0.564c0.375-0.375,0.562-0.897,0.562-1.564v-4.668L303.702,150.25
			L303.702,150.25z"/>
		<path fill="#333333" d="M307.507,157.389h-0.503v-6.67h-2.319v-0.469h5.142v0.469h-2.318L307.507,157.389L307.507,157.389z"/>
		<path fill="#333333" d="M316.057,157.389h-0.503v-3.511h-4.17v3.511h-0.498v-7.139h0.498v3.169h4.17v-3.169h0.503V157.389z"/>
		<path fill="#333333" d="M324.615,155.548c0,0.596-0.219,1.067-0.656,1.416c-0.438,0.349-1.021,0.522-1.745,0.522
			c-0.872,0-1.542-0.096-2.008-0.288V156.7c0.515,0.218,1.171,0.327,1.969,0.327c0.586,0,1.051-0.135,1.394-0.402
			c0.344-0.27,0.517-0.621,0.517-1.058c0-0.271-0.058-0.494-0.172-0.671c-0.113-0.178-0.3-0.34-0.557-0.486
			s-0.635-0.305-1.133-0.474c-0.729-0.251-1.233-0.521-1.511-0.813c-0.279-0.291-0.418-0.679-0.418-1.164
			c0-0.534,0.209-0.969,0.627-1.307c0.419-0.336,0.957-0.505,1.613-0.505c0.672,0,1.301,0.127,1.891,0.381l-0.182,0.43
			c-0.593-0.247-1.158-0.371-1.698-0.371c-0.527,0-0.947,0.122-1.261,0.366c-0.313,0.244-0.469,0.576-0.469,0.996
			c0,0.264,0.048,0.479,0.145,0.649c0.097,0.169,0.254,0.321,0.472,0.456c0.218,0.136,0.593,0.298,1.123,0.486
			c0.557,0.192,0.976,0.379,1.255,0.559c0.279,0.182,0.484,0.387,0.613,0.615C324.552,154.945,324.615,155.223,324.615,155.548z"/>
		<path fill="#333333" d="M327.986,157.389h-0.503v-6.67h-2.319v-0.469h5.143v0.469h-2.319L327.986,157.389L327.986,157.389z"/>
		<path fill="#333333" d="M334.802,154.869h-2.9l-0.996,2.52h-0.552l2.871-7.168h0.316l2.813,7.168h-0.562L334.802,154.869z
			 M332.081,154.42h2.555l-0.973-2.573c-0.082-0.202-0.18-0.481-0.293-0.84c-0.088,0.313-0.184,0.596-0.288,0.85L332.081,154.42z"/>
		<path fill="#333333" d="M342.556,157.389h-0.503l-4.229-6.338h-0.039c0.039,0.755,0.06,1.325,0.06,1.709v4.629h-0.479v-7.139
			h0.498l4.225,6.328h0.028c-0.028-0.586-0.044-1.143-0.044-1.67v-4.658h0.483L342.556,157.389L342.556,157.389z"/>
		<path fill="#333333" d="M349.996,153.751c0,1.198-0.313,2.104-0.941,2.718c-0.629,0.613-1.551,0.92-2.77,0.92h-1.709v-7.139h1.93
			c1.139,0,2.006,0.298,2.6,0.894C349.699,151.739,349.996,152.608,349.996,153.751z M349.454,153.771
			c0-1.022-0.26-1.791-0.778-2.308c-0.52-0.516-1.281-0.773-2.287-0.773h-1.313v6.26h1.183
			C348.389,156.949,349.454,155.89,349.454,153.771z"/>
	</g>
	<g enable-background="new    ">
		<path fill="#333333" d="M237.812,438.455h-0.503v-6.67h-2.319v-0.469h5.143v0.469h-2.319L237.812,438.455L237.812,438.455z"/>
		<path fill="#333333" d="M246.362,438.455h-0.503v-3.511h-4.17v3.511h-0.498v-7.139h0.498v3.169h4.17v-3.169h0.503V438.455z"/>
		<path fill="#333333" d="M252.285,438.455h-3.901v-7.139h3.901v0.459h-3.403v2.699h3.213v0.459h-3.213v3.063h3.403V438.455z"/>
		<path fill="#333333" d="M261.67,438.455h-0.503v-3.511h-4.17v3.511h-0.498v-7.139h0.498v3.169h4.17v-3.169h0.503V438.455z"/>
		<path fill="#333333" d="M269.692,434.876c0,1.133-0.282,2.028-0.85,2.688c-0.566,0.657-1.348,0.987-2.344,0.987
			c-0.993,0-1.772-0.33-2.339-0.987c-0.566-0.66-0.851-1.56-0.851-2.698c0-1.136,0.286-2.03,0.857-2.684
			c0.57-0.652,1.352-0.979,2.341-0.979c0.996,0,1.776,0.328,2.339,0.982C269.41,432.844,269.692,433.74,269.692,434.876z
			 M263.852,434.876c0,1.022,0.229,1.813,0.685,2.37c0.456,0.559,1.109,0.838,1.963,0.838c0.858,0,1.516-0.276,1.97-0.83
			s0.681-1.346,0.681-2.378c0-1.028-0.227-1.817-0.681-2.366c-0.454-0.548-1.107-0.821-1.96-0.821c-0.85,0-1.505,0.275-1.965,0.829
			C264.084,433.072,263.852,433.857,263.852,434.876z"/>
		<path fill="#333333" d="M271.333,438.455v-7.139h0.498v6.67h3.402v0.469H271.333z"/>
		<path fill="#333333" d="M276.465,438.455v-7.139h0.498v6.67h3.403v0.469H276.465z"/>
		<path fill="#333333" d="M285.034,435.936h-2.9l-0.996,2.521h-0.552l2.871-7.168h0.316l2.813,7.168h-0.563L285.034,435.936z
			 M282.314,435.486h2.555l-0.973-2.573c-0.082-0.202-0.179-0.481-0.293-0.84c-0.088,0.313-0.184,0.596-0.288,0.85L282.314,435.486z
			"/>
		<path fill="#333333" d="M292.788,438.455h-0.503l-4.229-6.338h-0.039c0.039,0.755,0.06,1.325,0.06,1.709v4.629h-0.479v-7.139
			h0.498l4.224,6.327h0.029c-0.029-0.586-0.044-1.143-0.044-1.67v-4.657h0.483L292.788,438.455L292.788,438.455z"/>
		<path fill="#333333" d="M300.229,434.817c0,1.197-0.314,2.104-0.942,2.718c-0.628,0.613-1.551,0.92-2.769,0.92h-1.709v-7.139
			h1.929c1.14,0,2.006,0.298,2.601,0.894C299.932,432.806,300.229,433.675,300.229,434.817z M299.687,434.837
			c0-1.021-0.26-1.791-0.779-2.308c-0.519-0.517-1.281-0.773-2.287-0.773h-1.313v6.26h1.183
			C298.62,438.016,299.687,436.956,299.687,434.837z"/>
		<path fill="#333333" d="M304.057,436.644c0-0.448,0.12-0.832,0.359-1.146c0.238-0.315,0.686-0.649,1.34-1.001l-0.366-0.4
			c-0.215-0.23-0.375-0.457-0.479-0.679c-0.104-0.222-0.155-0.452-0.155-0.693c0-0.466,0.154-0.835,0.466-1.107
			c0.311-0.273,0.729-0.41,1.252-0.41c0.504,0,0.904,0.132,1.199,0.396c0.295,0.265,0.441,0.629,0.441,1.095
			c0,0.342-0.113,0.654-0.342,0.938c-0.228,0.285-0.64,0.603-1.235,0.95l2.207,2.231c0.199-0.234,0.368-0.49,0.509-0.768
			c0.14-0.276,0.262-0.604,0.365-0.98h0.47c-0.205,0.801-0.546,1.493-1.021,2.08l1.299,1.309h-0.659l-0.941-0.962
			c-0.299,0.293-0.566,0.507-0.801,0.642c-0.234,0.137-0.491,0.239-0.77,0.312c-0.277,0.071-0.595,0.106-0.95,0.106
			c-0.68,0-1.215-0.168-1.604-0.503S304.057,437.246,304.057,436.644z M306.279,438.113c0.417,0,0.798-0.07,1.146-0.213
			c0.347-0.142,0.688-0.381,1.022-0.716l-2.357-2.367c-0.443,0.233-0.764,0.434-0.959,0.599c-0.197,0.164-0.341,0.342-0.431,0.534
			c-0.09,0.191-0.134,0.417-0.134,0.674c0,0.466,0.151,0.83,0.454,1.094C305.323,437.982,305.741,438.113,306.279,438.113z
			 M305.278,432.713c0,0.257,0.065,0.495,0.195,0.713s0.377,0.501,0.742,0.851c0.518-0.276,0.877-0.535,1.079-0.776
			c0.201-0.241,0.303-0.516,0.303-0.825c0-0.306-0.102-0.555-0.303-0.744c-0.202-0.19-0.476-0.285-0.82-0.285
			c-0.371,0-0.663,0.095-0.876,0.282C305.385,432.116,305.278,432.378,305.278,432.713z"/>
		<path fill="#333333" d="M314.194,431.316h1.958c0.882,0,1.53,0.148,1.944,0.448c0.413,0.301,0.619,0.752,0.619,1.357
			c0,0.413-0.125,0.758-0.378,1.033c-0.253,0.273-0.621,0.451-1.106,0.528v0.029c0.57,0.085,0.989,0.265,1.257,0.539
			c0.27,0.275,0.402,0.659,0.402,1.15c0,0.656-0.218,1.164-0.654,1.519c-0.436,0.354-1.054,0.532-1.854,0.532h-2.188
			L314.194,431.316L314.194,431.316z M314.692,434.495h1.572c0.67,0,1.158-0.111,1.462-0.335c0.305-0.224,0.457-0.571,0.457-1.047
			c0-0.477-0.172-0.82-0.517-1.035c-0.343-0.215-0.854-0.322-1.535-0.322h-1.44L314.692,434.495L314.692,434.495z M314.692,434.935
			v3.081h1.68c1.322,0,1.982-0.536,1.982-1.61c0-0.979-0.696-1.471-2.089-1.471H314.692z"/>
		<path fill="#333333" d="M323.901,435.936H321l-0.996,2.521h-0.552l2.871-7.168h0.316l2.813,7.168h-0.561L323.901,435.936z
			 M321.182,435.486h2.553l-0.971-2.573c-0.082-0.202-0.18-0.481-0.293-0.84c-0.088,0.313-0.186,0.596-0.289,0.85L321.182,435.486z"
			/>
		<path fill="#333333" d="M326.963,435.345v3.11h-0.498v-7.139h1.698c0.886,0,1.539,0.163,1.964,0.489
			c0.423,0.328,0.635,0.82,0.635,1.479c0,0.479-0.127,0.882-0.379,1.211s-0.637,0.563-1.15,0.708l1.939,3.252h-0.597l-1.842-3.11
			H326.963z M326.963,434.915h1.36c0.604,0,1.07-0.134,1.402-0.403c0.332-0.268,0.498-0.664,0.498-1.188
			c0-0.544-0.163-0.939-0.488-1.188c-0.326-0.247-0.855-0.371-1.592-0.371h-1.182L326.963,434.915L326.963,434.915z"/>
		<path fill="#333333" d="M332.905,435.345v3.11h-0.498v-7.139h1.699c0.886,0,1.54,0.163,1.963,0.489
			c0.424,0.328,0.635,0.82,0.635,1.479c0,0.479-0.125,0.882-0.378,1.211s-0.636,0.563-1.148,0.708l1.938,3.252h-0.596l-1.84-3.11
			H332.905z M332.905,434.915h1.363c0.602,0,1.068-0.134,1.4-0.403c0.332-0.268,0.497-0.664,0.497-1.188
			c0-0.544-0.161-0.939-0.487-1.188c-0.325-0.247-0.855-0.371-1.592-0.371h-1.183L332.905,434.915L332.905,434.915z"/>
		<path fill="#333333" d="M342.25,438.455h-3.9v-7.139h3.9v0.459h-3.402v2.699h3.213v0.459h-3.213v3.063h3.402V438.455z"/>
		<path fill="#333333" d="M345.727,438.455h-0.502v-6.67h-2.32v-0.469h5.144v0.469h-2.32L345.727,438.455L345.727,438.455z"/>
		<path fill="#333333" d="M350.967,438.455h-0.504v-6.67h-2.318v-0.469h5.141v0.469h-2.317L350.967,438.455L350.967,438.455z"/>
		<path fill="#333333" d="M360.883,436.614c0,0.596-0.22,1.066-0.656,1.416c-0.438,0.349-1.021,0.521-1.746,0.521
			c-0.872,0-1.541-0.096-2.006-0.288v-0.498c0.514,0.219,1.17,0.327,1.967,0.327c0.586,0,1.051-0.135,1.396-0.401
			c0.344-0.271,0.516-0.621,0.516-1.059c0-0.271-0.058-0.494-0.172-0.671c-0.113-0.178-0.299-0.34-0.558-0.486
			c-0.257-0.146-0.635-0.305-1.133-0.474c-0.729-0.251-1.231-0.521-1.511-0.813c-0.278-0.291-0.417-0.68-0.417-1.164
			c0-0.534,0.209-0.97,0.627-1.308c0.418-0.336,0.956-0.505,1.613-0.505c0.671,0,1.301,0.127,1.891,0.381l-0.182,0.431
			c-0.592-0.247-1.158-0.371-1.699-0.371c-0.527,0-0.947,0.122-1.26,0.365c-0.313,0.244-0.469,0.576-0.469,0.996
			c0,0.265,0.049,0.48,0.145,0.649s0.253,0.321,0.471,0.456c0.22,0.136,0.594,0.298,1.123,0.486
			c0.558,0.191,0.977,0.379,1.256,0.559c0.279,0.182,0.484,0.387,0.612,0.615C360.819,436.012,360.883,436.289,360.883,436.614z"/>
		<path fill="#333333" d="M364.252,438.455h-0.502v-6.67h-2.32v-0.469h5.143v0.469h-2.319L364.252,438.455L364.252,438.455z"/>
		<path fill="#333333" d="M371.069,435.936h-2.899l-0.996,2.521h-0.552l2.871-7.168h0.316l2.813,7.168h-0.561L371.069,435.936z
			 M368.35,435.486h2.553l-0.971-2.573c-0.082-0.202-0.18-0.481-0.293-0.84c-0.088,0.313-0.186,0.596-0.289,0.85L368.35,435.486z"/>
		<path fill="#333333" d="M378.823,438.455h-0.502l-4.229-6.338h-0.039c0.039,0.755,0.059,1.325,0.059,1.709v4.629h-0.479v-7.139
			h0.498l4.223,6.327h0.029c-0.029-0.586-0.043-1.143-0.043-1.67v-4.657h0.481L378.823,438.455L378.823,438.455z"/>
		<path fill="#333333" d="M386.264,434.817c0,1.197-0.313,2.104-0.941,2.718c-0.629,0.613-1.552,0.92-2.77,0.92h-1.709v-7.139h1.93
			c1.139,0,2.006,0.298,2.6,0.894C385.968,432.806,386.264,433.675,386.264,434.817z M385.723,434.837
			c0-1.021-0.26-1.791-0.779-2.308s-1.281-0.773-2.287-0.773h-1.313v6.26h1.182C384.656,438.016,385.723,436.956,385.723,434.837z"
			/>
	</g>
	<g enable-background="new    ">
		<path fill="#333333" d="M124.936,359.644v0.503h-6.67v2.319h-0.469v-5.142h0.469v2.319H124.936z"/>
		<path fill="#333333" d="M124.936,351.094v0.503h-3.511v4.17h3.511v0.498h-7.139v-0.498h3.169v-4.17h-3.169v-0.503H124.936z"/>
		<path fill="#333333" d="M124.936,345.171v3.901h-7.139v-3.901h0.459v3.403h2.7v-3.213h0.459v3.213h3.062v-3.403H124.936z"/>
		<path fill="#333333" d="M124.936,337.817l-6.592,2.661v0.039c0.403-0.025,0.817-0.039,1.24-0.039h5.352v0.479h-7.139v-0.771
			l6.279-2.529v-0.029l-6.279-2.529v-0.752h7.139v0.503h-5.41c-0.378,0-0.769-0.02-1.172-0.059v0.039l6.582,2.671V337.817z"/>
		<path fill="#333333" d="M122.416,328.892v2.9l2.52,0.996v0.552l-7.168-2.871v-0.317l7.168-2.813v0.562L122.416,328.892z
			 M121.967,331.611v-2.554l-2.573,0.972c-0.202,0.082-0.481,0.18-0.84,0.293c0.313,0.088,0.596,0.184,0.85,0.288L121.967,331.611z"
			/>
		<path fill="#333333" d="M124.936,324.468v0.503h-6.67v2.319h-0.469v-5.142h0.469v2.319H124.936z"/>
		<path fill="#333333" d="M124.936,319.229v0.503h-6.67v2.319h-0.469v-5.142h0.469v2.319H124.936z"/>
		<path fill="#333333" d="M124.936,315.85h-7.139v-0.498h7.139V315.85z"/>
		<path fill="#333333" d="M121.357,307.329c1.133,0,2.028,0.283,2.688,0.85c0.658,0.566,0.988,1.348,0.988,2.344
			c0,0.993-0.33,1.772-0.988,2.339c-0.66,0.566-1.559,0.85-2.698,0.85c-1.136,0-2.03-0.286-2.683-0.857
			c-0.653-0.571-0.979-1.352-0.979-2.341c0-0.996,0.328-1.776,0.983-2.339C119.324,307.611,120.221,307.329,121.357,307.329z
			 M121.357,313.169c1.022,0,1.813-0.228,2.37-0.684c0.559-0.456,0.838-1.11,0.838-1.963c0-0.859-0.276-1.516-0.83-1.97
			s-1.346-0.681-2.378-0.681c-1.028,0-1.817,0.227-2.366,0.681c-0.548,0.454-0.822,1.107-0.822,1.96c0,0.85,0.276,1.505,0.83,1.965
			S120.338,313.169,121.357,313.169z"/>
		<path fill="#333333" d="M124.936,305.688h-7.139v-0.498h6.67v-3.403h0.469V305.688z"/>
		<path fill="#333333" d="M124.936,300.557h-7.139v-0.498h7.139V300.557z"/>
		<path fill="#333333" d="M124.936,289.751v0.41l-5.508,1.567c-0.452,0.13-0.823,0.228-1.113,0.293
			c0.283,0.052,0.608,0.126,0.977,0.222s2.249,0.621,5.645,1.575v0.42l-7.139,1.963v-0.522l4.6-1.25
			c0.186-0.049,0.357-0.094,0.516-0.137c0.157-0.042,0.306-0.081,0.443-0.115c0.139-0.034,0.272-0.065,0.4-0.093
			c0.129-0.028,0.259-0.053,0.389-0.076c-0.442-0.078-1.115-0.244-2.017-0.498l-4.331-1.221v-0.552l4.971-1.431
			c0.573-0.166,1.035-0.285,1.387-0.356c-0.234-0.042-0.483-0.097-0.747-0.164s-2.134-0.569-5.61-1.506v-0.503L124.936,289.751z"/>
		<path fill="#333333" d="M121.357,280.518c1.133,0,2.028,0.283,2.688,0.85c0.658,0.566,0.988,1.348,0.988,2.344
			c0,0.993-0.33,1.772-0.988,2.339c-0.66,0.566-1.559,0.85-2.698,0.85c-1.136,0-2.03-0.286-2.683-0.857
			c-0.653-0.571-0.979-1.352-0.979-2.341c0-0.996,0.328-1.776,0.983-2.339C119.324,280.799,120.221,280.518,121.357,280.518z
			 M121.357,286.357c1.022,0,1.813-0.228,2.37-0.684c0.559-0.456,0.838-1.11,0.838-1.963c0-0.859-0.276-1.516-0.83-1.97
			s-1.346-0.681-2.378-0.681c-1.028,0-1.817,0.227-2.366,0.681c-0.548,0.454-0.822,1.107-0.822,1.96c0,0.85,0.276,1.505,0.83,1.965
			S120.338,286.357,121.357,286.357z"/>
		<path fill="#333333" d="M121.357,272.876c1.133,0,2.028,0.283,2.688,0.85c0.658,0.566,0.988,1.348,0.988,2.344
			c0,0.993-0.33,1.772-0.988,2.339c-0.66,0.566-1.559,0.85-2.698,0.85c-1.136,0-2.03-0.286-2.683-0.857
			c-0.653-0.571-0.979-1.352-0.979-2.341c0-0.996,0.328-1.776,0.983-2.339C119.324,273.158,120.221,272.876,121.357,272.876z
			 M121.357,278.716c1.022,0,1.813-0.228,2.37-0.684c0.559-0.456,0.838-1.11,0.838-1.963c0-0.859-0.276-1.516-0.83-1.97
			s-1.346-0.681-2.378-0.681c-1.028,0-1.817,0.227-2.366,0.681c-0.548,0.454-0.822,1.107-0.822,1.96c0,0.85,0.276,1.505,0.83,1.965
			S120.338,278.716,121.357,278.716z"/>
		<path fill="#333333" d="M121.298,265.815c1.198,0,2.104,0.314,2.718,0.942c0.613,0.628,0.92,1.551,0.92,2.769v1.709h-7.139v-1.929
			c0-1.139,0.298-2.006,0.894-2.6S120.156,265.815,121.298,265.815z M121.318,266.357c-1.022,0-1.791,0.26-2.308,0.779
			c-0.516,0.519-0.773,1.282-0.773,2.288v1.313h6.26v-1.182C124.496,267.423,123.437,266.357,121.318,266.357z"/>
		<path fill="#333333" d="M123.095,260.234c0.596,0,1.067,0.219,1.416,0.657s0.522,1.02,0.522,1.746
			c0,0.873-0.096,1.542-0.288,2.007h-0.498c0.218-0.514,0.327-1.17,0.327-1.968c0-0.586-0.135-1.051-0.402-1.394
			c-0.27-0.343-0.621-0.515-1.058-0.515c-0.271,0-0.494,0.057-0.671,0.171c-0.178,0.114-0.34,0.299-0.486,0.557
			s-0.305,0.635-0.474,1.133c-0.251,0.729-0.521,1.233-0.813,1.511c-0.291,0.278-0.679,0.417-1.164,0.417
			c-0.534,0-0.969-0.209-1.307-0.627c-0.336-0.418-0.505-0.956-0.505-1.614c0-0.67,0.127-1.3,0.381-1.89l0.43,0.181
			c-0.247,0.592-0.371,1.159-0.371,1.699c0,0.527,0.122,0.947,0.366,1.26s0.576,0.469,0.996,0.469c0.264,0,0.48-0.048,0.649-0.144
			s0.321-0.253,0.456-0.471c0.136-0.218,0.298-0.592,0.486-1.123c0.192-0.557,0.379-0.975,0.559-1.255
			c0.182-0.28,0.387-0.484,0.615-0.613C122.492,260.299,122.77,260.234,123.095,260.234z"/>
		<path fill="#333333" d="M123.095,252.188c0.596,0,1.067,0.219,1.416,0.657s0.522,1.02,0.522,1.746
			c0,0.873-0.096,1.542-0.288,2.007h-0.498c0.218-0.514,0.327-1.17,0.327-1.968c0-0.586-0.135-1.051-0.402-1.394
			c-0.27-0.343-0.621-0.515-1.058-0.515c-0.271,0-0.494,0.057-0.671,0.171c-0.178,0.114-0.34,0.299-0.486,0.557
			s-0.305,0.635-0.474,1.133c-0.251,0.729-0.521,1.233-0.813,1.511c-0.291,0.278-0.679,0.417-1.164,0.417
			c-0.534,0-0.969-0.209-1.307-0.627c-0.336-0.418-0.505-0.956-0.505-1.614c0-0.67,0.127-1.3,0.381-1.89l0.43,0.181
			c-0.247,0.592-0.371,1.159-0.371,1.699c0,0.527,0.122,0.947,0.366,1.26s0.576,0.469,0.996,0.469c0.264,0,0.48-0.048,0.649-0.144
			s0.321-0.253,0.456-0.471c0.136-0.218,0.298-0.592,0.486-1.123c0.192-0.557,0.379-0.975,0.559-1.255
			c0.182-0.28,0.387-0.484,0.615-0.613C122.492,252.252,122.77,252.188,123.095,252.188z"/>
		<path fill="#333333" d="M124.936,248.818v0.503h-6.67v2.319h-0.469v-5.142h0.469v2.319H124.936z"/>
		<path fill="#333333" d="M122.416,242.002v2.9l2.52,0.996v0.552l-7.168-2.871v-0.317l7.168-2.813v0.562L122.416,242.002z
			 M121.967,244.722v-2.554l-2.573,0.972c-0.202,0.082-0.481,0.179-0.84,0.293c0.313,0.088,0.596,0.184,0.85,0.288L121.967,244.722z
			"/>
		<path fill="#333333" d="M124.936,234.248v0.503l-6.338,4.229v0.039c0.755-0.039,1.325-0.059,1.709-0.059h4.629v0.479h-7.139
			v-0.498l6.328-4.224v-0.029c-0.586,0.029-1.143,0.044-1.67,0.044h-4.658v-0.483H124.936z"/>
		<path fill="#333333" d="M121.298,226.807c1.198,0,2.104,0.314,2.718,0.942c0.613,0.628,0.92,1.551,0.92,2.769v1.709h-7.139v-1.929
			c0-1.139,0.298-2.006,0.894-2.6S120.156,226.807,121.298,226.807z M121.318,227.349c-1.022,0-1.791,0.26-2.308,0.779
			c-0.516,0.519-0.773,1.282-0.773,2.288v1.313h6.26v-1.182C124.496,228.415,123.437,227.349,121.318,227.349z"/>
	</g>
	<g enable-background="new    ">
		<path fill="#333333" d="M509.063,242.834v-0.503h6.67v-2.319h0.469v5.142h-0.469v-2.319H509.063z"/>
		<path fill="#333333" d="M509.063,251.384v-0.503h3.511v-4.17h-3.511v-0.498h7.139v0.498h-3.169v4.17h3.169v0.503H509.063z"/>
		<path fill="#333333" d="M509.063,257.307v-3.901h7.139v3.901h-0.459v-3.403h-2.7v3.213h-0.459v-3.213h-3.062v3.403H509.063z"/>
		<path fill="#333333" d="M512.173,262.019h-3.11v-0.498h7.139v1.699c0,0.885-0.164,1.54-0.49,1.963
			c-0.328,0.423-0.82,0.635-1.478,0.635c-0.479,0-0.882-0.126-1.211-0.378s-0.564-0.636-0.708-1.15l-3.252,1.938v-0.596l3.11-1.841
			V262.019z M512.603,262.019v1.362c0,0.602,0.134,1.069,0.403,1.401c0.268,0.332,0.664,0.498,1.188,0.498
			c0.544,0,0.939-0.163,1.187-0.488s0.371-0.856,0.371-1.592v-1.182H512.603z"/>
		<path fill="#333333" d="M512.642,273.464c-1.133,0-2.028-0.283-2.688-0.85c-0.658-0.566-0.988-1.348-0.988-2.344
			c0-0.993,0.33-1.772,0.988-2.339c0.66-0.566,1.559-0.85,2.698-0.85c1.136,0,2.03,0.286,2.683,0.857
			c0.653,0.571,0.979,1.352,0.979,2.341c0,0.996-0.328,1.776-0.983,2.339C514.674,273.182,513.778,273.464,512.642,273.464z
			 M512.642,267.624c-1.022,0-1.813,0.228-2.37,0.684c-0.559,0.456-0.838,1.11-0.838,1.963c0,0.859,0.276,1.516,0.83,1.97
			s1.346,0.681,2.378,0.681c1.028,0,1.817-0.227,2.366-0.681c0.548-0.454,0.822-1.107,0.822-1.96c0-0.85-0.276-1.505-0.83-1.965
			S513.66,267.624,512.642,267.624z"/>
		<path fill="#333333" d="M516.201,275.104v1.958c0,0.882-0.149,1.53-0.449,1.943s-0.752,0.62-1.357,0.62
			c-0.413,0-0.758-0.126-1.033-0.378c-0.274-0.252-0.451-0.621-0.529-1.106h-0.029c-0.085,0.57-0.265,0.989-0.539,1.257
			c-0.275,0.269-0.659,0.403-1.15,0.403c-0.657,0-1.164-0.218-1.519-0.654s-0.532-1.055-0.532-1.855v-2.188H516.201z
			 M512.583,275.603h-3.081v1.68c0,1.322,0.537,1.982,1.611,1.982c0.979,0,1.47-0.697,1.47-2.09V275.603z M513.023,275.603v1.572
			c0,0.67,0.111,1.158,0.335,1.462c0.223,0.304,0.571,0.457,1.047,0.457s0.82-0.172,1.035-0.515s0.322-0.855,0.322-1.536v-1.44
			H513.023z"/>
		<path fill="#333333" d="M509.063,281.374h7.139v0.498h-7.139V281.374z"/>
		<path fill="#333333" d="M509.063,289.084v-0.503l6.338-4.229v-0.039c-0.755,0.039-1.325,0.059-1.709,0.059h-4.629v-0.479h7.139
			v0.498l-6.328,4.224v0.029c0.586-0.029,1.143-0.044,1.67-0.044h4.658v0.483H509.063z"/>
		<path fill="#333333" d="M509.063,298.874v-0.503h3.511v-4.17h-3.511v-0.498h7.139v0.498h-3.169v4.17h3.169v0.503H509.063z"/>
		<path fill="#333333" d="M512.642,306.896c-1.133,0-2.028-0.283-2.688-0.85c-0.658-0.566-0.988-1.348-0.988-2.344
			c0-0.993,0.33-1.772,0.988-2.339c0.66-0.566,1.559-0.85,2.698-0.85c1.136,0,2.03,0.286,2.683,0.857
			c0.653,0.571,0.979,1.352,0.979,2.341c0,0.996-0.328,1.776-0.983,2.339C514.674,306.615,513.778,306.896,512.642,306.896z
			 M512.642,301.057c-1.022,0-1.813,0.228-2.37,0.684c-0.559,0.456-0.838,1.11-0.838,1.963c0,0.859,0.276,1.516,0.83,1.97
			s1.346,0.681,2.378,0.681c1.028,0,1.817-0.227,2.366-0.681c0.548-0.454,0.822-1.107,0.822-1.96c0-0.85-0.276-1.505-0.83-1.965
			S513.66,301.057,512.642,301.057z"/>
		<path fill="#333333" d="M512.642,314.538c-1.133,0-2.028-0.283-2.688-0.85c-0.658-0.566-0.988-1.348-0.988-2.344
			c0-0.993,0.33-1.772,0.988-2.339c0.66-0.566,1.559-0.85,2.698-0.85c1.136,0,2.03,0.286,2.683,0.857
			c0.653,0.571,0.979,1.352,0.979,2.341c0,0.996-0.328,1.776-0.983,2.339C514.674,314.256,513.778,314.538,512.642,314.538z
			 M512.642,308.698c-1.022,0-1.813,0.228-2.37,0.684c-0.559,0.456-0.838,1.11-0.838,1.963c0,0.859,0.276,1.516,0.83,1.97
			s1.346,0.681,2.378,0.681c1.028,0,1.817-0.227,2.366-0.681c0.548-0.454,0.822-1.107,0.822-1.96c0-0.85-0.276-1.505-0.83-1.965
			S513.66,308.698,512.642,308.698z"/>
		<path fill="#333333" d="M512.7,321.599c-1.198,0-2.104-0.313-2.718-0.942c-0.613-0.629-0.92-1.551-0.92-2.769v-1.709h7.139v1.929
			c0,1.139-0.298,2.006-0.894,2.6C514.712,321.302,513.843,321.599,512.7,321.599z M512.681,321.057c1.022,0,1.791-0.26,2.308-0.779
			c0.516-0.519,0.773-1.281,0.773-2.287v-1.313h-6.26v1.182C509.502,319.99,510.562,321.057,512.681,321.057z"/>
		<path fill="#333333" d="M510.904,329.777c-0.596,0-1.067-0.219-1.416-0.656c-0.349-0.438-0.522-1.02-0.522-1.746
			c0-0.873,0.096-1.541,0.288-2.007h0.498c-0.218,0.515-0.327,1.171-0.327,1.968c0,0.586,0.135,1.051,0.402,1.395
			c0.27,0.343,0.621,0.515,1.058,0.515c0.271,0,0.494-0.058,0.671-0.171c0.178-0.113,0.34-0.299,0.486-0.557
			s0.305-0.635,0.474-1.133c0.251-0.729,0.521-1.232,0.813-1.512c0.291-0.277,0.679-0.417,1.164-0.417
			c0.534,0,0.969,0.209,1.307,0.628c0.336,0.418,0.505,0.955,0.505,1.613c0,0.67-0.127,1.301-0.381,1.89l-0.43-0.181
			c0.247-0.592,0.371-1.158,0.371-1.699c0-0.527-0.122-0.947-0.366-1.26s-0.576-0.469-0.996-0.469c-0.264,0-0.48,0.048-0.649,0.145
			c-0.169,0.096-0.321,0.252-0.456,0.471c-0.136,0.219-0.298,0.592-0.486,1.123c-0.192,0.557-0.379,0.975-0.559,1.255
			c-0.182,0.28-0.387,0.484-0.615,0.612C511.506,329.713,511.229,329.777,510.904,329.777z"/>
		<path fill="#333333" d="M509.063,333.146v-0.503h6.67v-2.319h0.469v5.142h-0.469v-2.319H509.063z"/>
		<path fill="#333333" d="M511.582,339.963v-2.9l-2.52-0.996v-0.552l7.168,2.871v0.317l-7.168,2.813v-0.562L511.582,339.963z
			 M512.031,337.243v2.554l2.573-0.972c0.202-0.081,0.481-0.179,0.84-0.293c-0.313-0.088-0.596-0.185-0.85-0.288L512.031,337.243z"
			/>
		<path fill="#333333" d="M509.063,347.717v-0.503l6.338-4.229v-0.039c-0.755,0.039-1.325,0.059-1.709,0.059h-4.629v-0.479h7.139
			v0.498l-6.328,4.224v0.029c0.586-0.029,1.143-0.044,1.67-0.044h4.658v0.483H509.063z"/>
		<path fill="#333333" d="M512.7,355.158c-1.198,0-2.104-0.314-2.718-0.942c-0.613-0.628-0.92-1.552-0.92-2.769v-1.709h7.139v1.929
			c0,1.14-0.298,2.006-0.894,2.601C514.712,354.861,513.843,355.158,512.7,355.158z M512.681,354.616
			c1.022,0,1.791-0.26,2.308-0.778c0.516-0.52,0.773-1.282,0.773-2.288v-1.313h-6.26v1.182
			C509.502,353.551,510.562,354.616,512.681,354.616z"/>
	</g>
</g>
</svg>
