<svg>
<g id="AREAS">
	<polygon id="W-L1" points="
		178.43,130.357 179.022,131.174 187.959,143.495 192.823,139.952 192.952,139.858 193.103,139.809 200.305,137.467 187.954,99.988 
		174.674,104.301 173.885,104.557 173.487,103.828 171.369,99.944 152.79,113.383 169.768,136.77 177.618,130.958 	"/>
	<polygon id="W-L2" points="
		189.856,99.37 203.217,95.028 223.621,95.028 223.621,134.489 209.467,134.489 202.208,136.849 	"/>
	
		<rect id="W-L3" x="225.621" y="95.028" width="23.897" height="39.461"/>
	<polygon id="W-L4" points="
		251.519,134.489 251.519,95.028 275.396,95.028 275.443,134.489 	"/>
	<path id="W-L5" d="
		M277.443,134.489l-0.047-39.461h10.552l-0.013,11.677l22.792-0.087c0.886,0.526,2.354,0.846,3.396,0.993l-0.026,17.792l-5.69,0.011
		l0.021,9.076H277.443z"/>
	<path id="W-L6" d="
		M321.901,134.489v-9.104l-5.805,0.013l0.026-17.713c1.342-0.09,2.665-0.429,3.945-1.01l22.299,0.027l0.012-11.674h10.861v39.461
		H321.901z"/>
	<polygon id="W-L7" points="
		355.239,134.489 355.239,95.028 362.153,95.028 362.153,99.862 379.124,99.862 379.124,134.489 	"/>
	<polygon id="W-L8" points="
		381.124,134.489 381.124,99.862 398.124,99.862 398.124,95.028 405.475,95.028 405.475,134.489 	"/>
	<polygon id="W-L9" points="
		421.167,134.489 407.475,134.489 407.475,95.028 427.412,95.028 438.43,98.608 426.12,136.119 	"/>
	<polygon id="W-L10" points="
		436.624,139.573 428.02,136.744 440.332,99.226 455.812,104.253 466.317,111.791 455.166,128.273 450.12,124.594 438.026,140.59 	
		"/>
	<polygon id="W-L11" points="
		456.938,141.591 462.648,133.729 456.783,129.452 467.942,112.957 478.477,120.509 476.817,122.033 479.581,125.835 
		459.156,143.201 	"/>
	<polygon id="W-M1" points="
		132.238,67.383 142.201,59.961 161.994,53.532 172.407,87.038 159.708,91.163 152.985,96.046 	"/>
	<polygon id="W-M2" points="
		163.896,52.914 184.519,46.214 189.504,81.482 174.31,86.419 	"/>
	<polygon id="W-M3" points="
		186.141,46.173 212.201,45.882 212.903,80.5 191.837,81.316 	"/>
	
		<rect id="W-M4" x="214.557" y="46.154" width="27.347" height="34.598"/>
	<polygon id="W-M5" points="
		243.903,80.767 243.903,46.146 270.855,45.915 270.855,81.17 	"/>
	<polygon id="W-M6" points="
		272.855,81.186 272.855,45.908 300.166,45.967 300.166,81.189 	"/>
	<polygon id="W-M7" points="
		302.166,45.966 329.815,45.898 329.772,81.144 302.166,81.188 	"/>
	<polygon id="W-M8" points="
		331.772,81.144 331.815,45.897 358.819,45.943 358.819,81.165 	"/>
	
		<rect id="W-M9" x="360.819" y="45.945" width="27.382" height="35.221"/>
	
		<rect id="W-M10" x="390.201" y="45.945" width="27.124" height="35.221"/>
	<polygon id="W-M11" points="
		419.325,81.168 419.325,45.939 446.446,45.763 440.932,81.206 	"/>
	<polygon id="W-M12" points="
		442.907,81.519 448.423,46.069 469.904,53.064 458.988,86.746 	"/>
	<polygon id="W-M13" points="
		472.688,91.197 460.891,87.364 471.806,53.684 489.117,59.323 499.864,67.236 478.658,95.521 	"/>
	<polygon id="W-M14" points="
		480.278,96.695 501.475,68.422 523.308,84.499 498.16,109.651 	"/>
	<polygon id="W-M15" points="
		499.575,111.064 524.715,85.919 540.632,107.874 511.923,128.083 	"/>
	<polygon id="W-U1" points="
		86.61,27.203 100.198,17.381 121.219,11.036 130.771,38.387 113.518,43.43 103.396,50.774 	"/>
	<polygon id="W-U2" points="
		123.136,10.458 151.651,1.851 156.261,30.939 132.692,37.826 	"/>
	<polygon id="W-U3" points="
		153.631,1.568 192.946,1.749 192.946,30.305 158.239,30.644 	"/>
	
		<rect id="W-U4" x="194.946" y="1.753" width="33.808" height="28.542"/>
	
		<rect id="W-U5" x="230.754" y="1.753" width="33.809" height="28.542"/>
	
		<rect id="W-U6" x="266.563" y="1.753" width="31.701" height="28.542"/>
	
		<rect id="W-U7" x="300.264" y="1.753" width="29.589" height="28.542"/>
	
		<rect id="W-U8" x="331.853" y="1.753" width="34.728" height="28.542"/>
	<polygon id="W-U9" points="
		368.58,30.301 368.58,1.751 403.577,1.678 403.577,30.522 	"/>
	<polygon id="W-U10" points="
		405.577,30.532 405.577,1.673 440.292,1.565 440.374,30.644 	"/>
	<polygon id="W-U11" points="
		442.374,30.647 442.292,1.563 479.736,1.563 475.125,30.652 	"/>
	<polygon id="W-U12" points="
		477.1,30.965 481.712,1.875 509.111,10.776 500.437,38.549 	"/>
	<polygon id="W-U13" points="
		519.217,44.651 502.339,39.167 511.014,11.395 532.576,18.398 546.944,28.972 529.926,52.463 	"/>
	<polygon id="W-U14" points="
		531.541,53.642 548.556,30.157 575.962,50.327 555.163,70.873 	"/>
	
		<polygon id="N-L12" points="
		461.376,163.508 452.752,151.937 460.287,144.865 480.76,127.458 495.091,147.184 499.513,160 464.114,171.456 	"/>
	
		<polygon id="N-L13" points="
		467.275,194.796 467.275,180.634 464.766,173.347 500.165,161.891 504.593,174.728 504.593,194.796 	"/>
	
		<rect id="N-L14" x="467.275" y="196.796" width="37.317" height="23.837"/>
	
		<rect id="N-L15" x="467.275" y="222.633" width="37.317" height="23.923"/>
	
		<rect id="N-L16" x="467.275" y="248.556" width="37.317" height="23.928"/>
	
		<polygon id="N-L17" points="
		464.807,295.996 467.275,288.661 467.275,274.483 504.593,274.483 504.593,294.576 500.32,307.536 	"/>
	
		<polygon id="N-L18" points="
		459.766,323.977 452.976,317.244 461.746,305.09 464.168,297.892 499.694,309.436 495.453,322.321 483.615,338.636 	"/>
	
		<polygon id="N-M16" points="
		517.979,136.435 513.098,129.703 541.807,109.493 549.862,120.6 553.967,132.927 520.456,144.029 	"/>
	
		<polygon id="N-M17" points="
		521.076,145.93 554.599,134.825 563.225,160.727 527.758,166.42 	"/>
	
		<polygon id="N-M18" points="
		528.072,189.497 528.072,168.395 563.545,162.701 563.545,189.497 	"/>
	
		<rect id="N-M19" x="528.072" y="191.497" width="35.473" height="27.557"/>
	
		<rect id="N-M20" x="528.072" y="221.054" width="35.473" height="27.188"/>
	
		<rect id="N-M21" x="528.072" y="250.241" width="35.473" height="27.334"/>
	
		<polygon id="N-M22" points="
		528.072,300.97 528.072,279.575 563.545,279.575 563.545,306.283 	"/>
	
		<polygon id="N-M23" points="
		522.348,319.542 527.761,302.945 563.23,308.259 556.116,330.258 	"/>
	
		<polygon id="N-M24" points="
		513.442,338.823 518.135,332.618 522.107,321.197 555.664,332.576 550.022,348.906 541.549,360.02 	"/>
	
		<polygon id="W-U15" points="
		556.58,72.284 577.382,51.736 597.588,78.931 574.051,95.919 	"/>
	<polygon id="N-U16" points="
		581.27,105.691 575.239,97.528 598.78,80.537 607.303,92.009 614.423,114.243 587.071,123.547 	"/>
	<polygon id="N-U17" points="
		595.428,149.294 587.689,125.45 615.033,116.147 624.266,144.977 624.266,150.803 595.425,153.135 	"/>
	<polygon id="N-U18" points="
		595.39,191.478 595.423,155.141 624.266,152.81 624.266,191.478 	"/>
	<polygon id="N-U19" points="
		595.352,235.408 595.388,193.478 624.266,193.478 624.266,212.231 613.599,212.231 613.599,235.408 	"/>
	<polygon id="N-U20" points="
		595.313,275.396 595.35,237.408 613.599,237.408 613.599,262.697 624.266,262.697 624.266,275.396 	"/>
	<polygon id="N-U21" points="
		595.283,308.783 595.312,277.396 624.266,277.396 624.266,308.783 	"/>
	<polygon id="N-U22" points="
		591.285,333.13 595.273,321.687 595.281,310.783 624.266,310.783 624.266,326.241 618.638,343.381 	"/>
	<polygon id="N-U23" points="
		580.907,362.91 590.627,335.02 618.014,345.282 607.813,376.349 	"/>
	<polygon id="N-U24" points="
		565.178,385.122 579.986,364.686 606.898,378.128 587.646,404.601 	"/>
	<polygon id="E-L19" points="
		456.729,339.501 461.994,335.452 456.888,327.785 459.21,325.982 482.438,340.259 477.719,346.763 481.035,350.426 
		470.362,358.032 	"/>
	<polygon id="E-L20" points="
		441.749,338.664 444.006,337.027 449.696,344.917 455.145,340.721 468.733,359.193 457.224,367.397 453.174,368.764 	"/>
	<polygon id="E-L21" points="
		406.888,334.766 421.044,334.766 435.554,330.012 439.638,338.728 451.277,369.403 427.857,377.295 406.846,377.297 	"/>
	<polygon id="E-L22" points="
		380.956,377.297 380.993,334.766 404.888,334.766 404.846,377.297 	"/>
	<polygon id="E-L23" points="
		355.056,334.766 378.993,334.766 378.956,377.297 354.953,377.302 	"/>
	<polygon id="E-L24" points="
		329.168,377.302 329.168,334.766 353.056,334.766 352.953,377.302 	"/>
	
		<rect id="E-L25" x="303.274" y="334.766" width="23.894" height="42.536"/>
	
		<rect id="E-L26" x="277.336" y="334.766" width="23.938" height="42.537"/>
	
		<rect id="E-L27" x="251.438" y="334.766" width="23.898" height="42.54"/>
	
		<rect id="E-L28" x="225.539" y="334.766" width="23.898" height="42.54"/>
	<polygon id="E-L29" points="
		188.987,372.648 202.536,331.067 209.287,334.766 223.539,334.766 223.539,377.306 203.218,377.309 	"/>
	<polygon id="E-L30" points="
		173.442,367.554 154.372,353.972 169.921,332.769 177.928,338.572 189.442,322.935 194.082,326.433 200.751,330.09 
		187.086,372.025 	"/>
	<polygon id="E-M25" points="
		499.578,358.305 512.235,340.854 540.747,361.491 524.806,383.272 	"/>
	<polygon id="E-M26" points="
		481.032,372.163 498.165,359.721 523.395,384.689 501.695,400.747 	"/>
	<polygon id="E-M27" points="
		465.271,380.638 472.689,378.227 479.415,373.339 500.088,401.937 489.491,409.777 476.07,414.104 	"/>
	<polygon id="E-M28" points="
		442.91,387.9 463.369,381.256 474.167,414.719 448.498,423.006 	"/>
	<polygon id="E-M29" points="
		419.532,423.316 419.532,388.214 440.935,388.214 446.522,423.316 	"/>
	
		<rect id="E-M30" x="390.125" y="388.214" width="27.407" height="35.103"/>
	
		<rect id="E-M31" x="360.925" y="388.214" width="27.2" height="35.103"/>
	
		<rect id="E-M32" x="331.582" y="388.214" width="27.343" height="35.103"/>
	<polygon id="E-M33" points="
		302.426,423.316 302.426,397.229 315.722,397.229 315.722,388.214 329.582,388.214 329.582,423.316 	"/>
	<polygon id="E-M34" points="
		273.063,423.316 273.063,388.214 286.646,388.214 286.646,397.229 300.426,397.229 300.426,423.316 	"/>
	
		<rect id="E-M35" x="243.836" y="388.214" width="27.228" height="35.103"/>
	<polygon id="E-M36" points="
		214.521,423.316 214.53,388.214 241.836,388.214 241.836,423.316 	"/>
	<polygon id="E-M37" points="
		185.386,423.316 191.062,388.214 212.53,388.214 212.521,423.316 	"/>
	<polygon id="E-M38" points="
		157.772,414.567 168.502,381.12 189.086,387.896 183.411,423.001 	"/>
	<polygon id="E-M39" points="
		146.233,401.35 137.666,394.86 152.928,373.336 159.603,378.192 166.602,380.495 158.69,405.157 	"/>
	<polygon id="E-U25" points="
		550.525,402.13 555.429,398.568 563.999,386.747 586.465,406.224 576.622,419.76 569.283,425.101 	"/>
	<polygon id="E-U26" points="
		530.63,416.573 548.904,403.307 567.663,426.279 547.813,440.722 	"/>
	<polygon id="E-U27" points="
		503.916,429.948 518.965,425.046 529.012,417.748 546.196,441.898 532.523,451.849 513.02,458.011 	"/>
	<polygon id="E-U28" points="
		477.153,438.669 502.014,430.567 511.113,458.613 481.364,468.012 	"/>
	<polygon id="E-U29" points="
		444.097,438.979 475.177,438.979 479.389,468.32 444.097,468.336 	"/>
	<polygon id="E-U30" points="
		407.315,438.979 442.097,438.979 442.097,468.336 407.333,468.347 	"/>
	<polygon id="E-U31" points="
		371.203,438.979 405.315,438.979 405.333,468.347 371.203,468.359 	"/>
	<polygon id="E-U32" points="
		334.729,438.979 369.203,438.979 369.203,468.359 334.74,468.375 	"/>
	<polygon id="E-U33" points="
		299.545,438.979 332.729,438.979 332.74,468.375 299.545,468.386 	"/>
	<polygon id="E-U34" points="
		264.612,438.979 297.545,438.979 297.545,468.386 264.629,468.398 	"/>
	<polygon id="E-U35" points="
		227.833,438.979 262.612,438.979 262.629,468.398 227.851,468.412 	"/>
	<polygon id="E-U36" points="
		191.417,438.979 225.833,438.979 225.851,468.412 191.438,468.424 	"/>
	<polygon id="E-U37" points="
		158.437,438.979 189.417,438.979 189.438,468.424 153.962,468.438 	"/>
	<polygon id="E-U38" points="
		124.213,458.724 131.815,430.651 156.461,438.667 151.989,468.108 	"/>
	<path id="E-U39" d="
		M100.152,450.59l-14.339-10.616c0,0,14.401-19.77,16.878-23.166l10.65,7.834l16.569,5.39l-7.596,28.051L100.152,450.59z"/>
	<path id="S-L31" d="
		M142.639,345.618l-9.467-18.577l36.568-18.484c2.213,6.286,6.343,9.779,8.247,11.12l-6.803,8.313l-1.831,2.176l-16.609,22.646
		L142.639,345.618z"/>
	<path id="S-L32" d="
		M130.02,320.859l-2.271-16.586l-0.002-23.318h40.547l-0.004,18.816c0,2.38,0.288,4.679,0.855,6.845l-36.882,18.644L130.02,320.859z
		"/>
	<polygon id="S-L33" points="
		127.747,278.955 127.746,237.22 168.315,237.22 168.295,278.955 	"/>
	<polygon id="S-L34" points="
		127.746,235.22 127.745,207.491 168.333,207.491 168.316,235.22 	"/>
	<path id="S-L35" d="
		M127.745,205.491l-0.003-30.485l40.604-0.281c0,4.704-0.005,16.345-0.012,30.767H127.745z"/>
	<path id="S-L36" d="
		M127.742,147.727l13.113-25.711l10.313-7.46l17.628,24.282l10.831,12.713c-2.68,2.488-10.761,10.816-11.258,21.174l-40.627,0.281
		V147.727z"/>
	<polygon id="S-M40" points="
		115.751,378.26 134.298,359.785 151.31,372.159 136.071,393.652 	"/>
	<polygon id="S-M41" points="
		106.832,366.456 99.62,371.894 91.811,361.487 120.474,341.312 132.867,358.388 114.354,376.828 	"/>
	<polygon id="S-M42" points="
		83.075,349.437 82.198,348.145 77.896,334.814 111.497,323.987 114.419,332.955 119.3,339.692 90.625,359.877 	"/>
	<polygon id="S-M43" points="
		69.331,308.274 104.639,302.959 110.877,322.086 77.282,332.911 	"/>
	<polygon id="S-M44" points="
		69.018,274.589 104.327,274.609 104.327,300.983 69.018,306.299 	"/>
	<polygon id="S-M45" points="
		69.018,272.589 69.018,243.546 104.327,243.458 104.327,272.609 	"/>
	<polygon id="S-M46" points="
		69.018,214.786 104.327,214.743 104.327,241.458 69.018,241.546 	"/>
	<polygon id="S-M47" points="
		69.018,188.448 104.327,188.337 104.327,212.743 69.018,212.786 	"/>
	<polygon id="S-M48" points="
		69.018,161.832 71.42,154.463 104.991,165.368 104.327,167.4 104.327,186.337 69.018,186.448 	"/>
	<polygon id="S-M49" points="
		72.041,152.562 77.051,137.191 85.687,140.17 90.345,126.035 114.218,137.067 105.611,163.467 	"/>
	<polygon id="S-M50" points="
		91.282,124.264 110.005,99.027 128.884,116.505 119.895,128.893 115.231,135.332 	"/>
	<polygon id="S-M51" points="
		111.204,97.412 114.883,92.455 136.074,76.096 151.367,97.222 133.417,110.263 130.067,114.875 	"/>
	<path id="S-U40" d="
		M57.033,418.653l20.301-20.502l23.746,17.471c-2.477,3.396-16.875,23.161-16.875,23.161L57.033,418.653z"/>
	<polygon id="S-U41" points="
		33.785,388.162 57.208,371.161 75.921,396.736 55.615,417.243 	"/>
	<polygon id="S-U42" points="
		25.145,376.654 16.055,348.476 43.628,339.211 51.452,363.294 56.027,369.547 32.584,386.563 	"/>
	<polygon id="S-U43" points="
		8.622,325.433 8.603,307.183 37.451,307.183 37.451,320.209 43.01,337.309 15.441,346.572 	"/>
	<polygon id="S-U44" points="
		8.601,305.183 8.562,270.323 37.451,270.323 37.451,305.183 	"/>
	<polygon id="S-U45" points="
		8.56,268.323 8.554,262.872 21.429,262.872 21.429,237.408 37.451,237.408 37.451,268.323 	"/>
	<polygon id="S-U46" points="
		21.429,235.408 21.429,212.409 8.5,212.409 8.491,204.54 37.451,204.662 37.451,235.408 	"/>
	<polygon id="S-U47" points="
		8.489,202.54 8.455,170.263 37.451,170.263 37.451,202.662 	"/>
	
		<polygon id="S-U48" points="
		8.453,168.263 8.425,142.7 13.76,126.596 41.231,136.003 37.451,147.305 37.451,168.263 	"/>
	
		<polygon id="S-U49" points="
		14.389,124.697 25.449,91.31 30.171,84.81 54.438,100.905 51.707,104.668 41.865,134.106 	"/>
	
		<polygon id="S-U50" points="
		31.347,83.191 55.18,50.387 76.249,70.867 55.614,99.285 	"/>
	
		<polygon id="S-U51" points="
		56.553,48.932 84.989,28.374 101.777,51.949 77.66,69.45 	"/>
</g>
<g id="PITCH">
	<g>
		<rect x="195.845" y="169.835" fill-rule="evenodd" clip-rule="evenodd" fill="#72BE44" width="243.31" height="129.646"/>
	</g>
	<g>
		<rect x="206.427" y="169.835" fill-rule="evenodd" clip-rule="evenodd" fill="#109A49" width="10.587" height="129.646"/>
	</g>
	<g>
		<rect x="227.582" y="169.835" fill-rule="evenodd" clip-rule="evenodd" fill="#109A49" width="10.589" height="129.646"/>
	</g>
	<g>
		<rect x="248.742" y="169.835" fill-rule="evenodd" clip-rule="evenodd" fill="#109A49" width="10.585" height="129.646"/>
	</g>
	<g>
		<rect x="269.898" y="169.835" fill-rule="evenodd" clip-rule="evenodd" fill="#109A49" width="10.585" height="129.646"/>
	</g>
	<g>
		<rect x="291.057" y="169.835" fill-rule="evenodd" clip-rule="evenodd" fill="#109A49" width="10.581" height="129.646"/>
	</g>
	<g>
		<rect x="312.216" y="169.835" fill-rule="evenodd" clip-rule="evenodd" fill="#109A49" width="10.579" height="129.646"/>
	</g>
	<g>
		<rect x="333.376" y="169.835" fill-rule="evenodd" clip-rule="evenodd" fill="#109A49" width="10.579" height="129.646"/>
	</g>
	<g>
		<rect x="354.526" y="169.835" fill-rule="evenodd" clip-rule="evenodd" fill="#109A49" width="10.588" height="129.646"/>
	</g>
	<g>
		<rect x="375.685" y="169.835" fill-rule="evenodd" clip-rule="evenodd" fill="#109A49" width="10.584" height="129.646"/>
	</g>
	<g>
		<rect x="396.84" y="169.835" fill-rule="evenodd" clip-rule="evenodd" fill="#109A49" width="10.589" height="129.646"/>
	</g>
	<g>
		<rect x="417.999" y="169.835" fill-rule="evenodd" clip-rule="evenodd" fill="#109A49" width="10.594" height="129.646"/>
	</g>
	<g id="LINES">
		<rect x="434.874" y="169.835" fill="#FFFFFF" width="0.592" height="129.646"/>
		<rect x="416.942" y="169.835" fill="#FFFFFF" width="0.594" height="129.646"/>
		<rect x="217.465" y="169.835" fill="#FFFFFF" width="0.593" height="129.646"/>
		<rect x="199.533" y="169.835" fill="#FFFFFF" width="0.593" height="129.646"/>
		<g>
			
				<rect x="187.705" y="223.96" transform="matrix(0.9734 0.2289 -0.2289 0.9734 56.8013 -40.4974)" fill="#FFFFFF" width="30.461" height="1.185"/>
			
				<rect x="202.343" y="229.533" transform="matrix(0.2289 0.9734 -0.9734 0.2289 394.7369 -8.8193)" fill="#FFFFFF" width="1.186" height="30.461"/>
			<rect x="203.455" y="224.882" fill="#FFFFFF" width="1.186" height="19.563"/>
			
				<rect x="431.472" y="209.322" transform="matrix(0.2289 0.9735 -0.9735 0.2289 551.7771 -247.4359)" fill="#FFFFFF" width="1.186" height="30.46"/>
			
				<rect x="416.835" y="244.172" transform="matrix(0.9734 0.229 -0.229 0.9734 67.5226 -92.4279)" fill="#FFFFFF" width="30.461" height="1.185"/>
			<rect x="430.358" y="224.882" fill="#FFFFFF" width="1.187" height="19.563"/>
		</g>
		<rect x="317.202" y="176.997" fill="#FFFFFF" width="0.595" height="114.564"/>
		<rect x="344.85" y="176.997" fill="#FFFFFF" width="0.591" height="114.564"/>
		<rect x="380.215" y="176.997" fill="#FFFFFF" width="0.592" height="114.564"/>
		<rect x="289.56" y="176.997" fill="#FFFFFF" width="0.591" height="114.564"/>
		<rect x="254.193" y="176.997" fill="#FFFFFF" width="0.592" height="114.564"/>
	</g>
	<g>
		<path fill="#FFFFFF" d="M296.444,297.558v-4.278h0.566v1.757h2.224v-1.757h0.566v4.278h-0.566v-2.017h-2.224v2.017H296.444z"/>
		<path fill="#FFFFFF" d="M300.273,297.558l1.643-4.278h0.61l1.751,4.278h-0.645l-0.499-1.296h-1.789l-0.47,1.296H300.273z
			 M301.507,295.801h1.451l-0.446-1.186c-0.136-0.359-0.238-0.655-0.304-0.887c-0.055,0.274-0.131,0.547-0.23,0.817L301.507,295.801
			z"/>
		<path fill="#FFFFFF" d="M304.707,297.558v-4.278h0.566v3.773h2.107v0.505H304.707z"/>
		<path fill="#FFFFFF" d="M308.083,297.558v-4.278h2.887v0.505h-2.32v1.325h2.008v0.505h-2.008v1.943H308.083z"/>
		<path fill="#FFFFFF" d="M312.452,297.558l-1.135-4.278h0.58l0.651,2.805c0.07,0.294,0.13,0.585,0.181,0.875
			c0.109-0.457,0.174-0.721,0.192-0.791l0.814-2.889h0.684l0.612,2.165c0.154,0.537,0.265,1.042,0.333,1.515
			c0.055-0.271,0.125-0.58,0.213-0.931l0.672-2.749h0.568l-1.173,4.278H315.1l-0.901-3.26c-0.076-0.272-0.121-0.44-0.135-0.502
			c-0.045,0.196-0.087,0.363-0.125,0.502l-0.908,3.26H312.452z"/>
		<path fill="#FFFFFF" d="M316.655,297.558l1.644-4.278h0.609l1.751,4.278h-0.645l-0.499-1.296h-1.789l-0.47,1.296H316.655z
			 M317.89,295.801h1.451l-0.447-1.186c-0.136-0.359-0.237-0.655-0.303-0.887c-0.055,0.274-0.132,0.547-0.231,0.817L317.89,295.801z
			"/>
		<path fill="#FFFFFF" d="M321.874,297.558v-1.813l-1.649-2.466h0.688l0.844,1.29c0.155,0.241,0.301,0.482,0.435,0.724
			c0.129-0.224,0.284-0.476,0.467-0.756l0.829-1.258h0.66l-1.708,2.466v1.813H321.874z"/>
		<path fill="#FFFFFF" d="M326.184,297.558v-4.278h0.566v3.773h2.107v0.505H326.184z"/>
		<path fill="#FFFFFF" d="M329.628,297.558v-4.278h0.566v4.278H329.628z"/>
		<path fill="#FFFFFF" d="M331.187,297.558v-4.278h0.581l2.247,3.359v-3.359h0.543v4.278h-0.581l-2.247-3.362v3.362H331.187z"/>
		<path fill="#FFFFFF" d="M335.521,297.558v-4.278h3.094v0.505h-2.527v1.311h2.367v0.502h-2.367v1.456h2.627v0.505H335.521z"/>
	</g>
	<g>
		<path fill="#FFFFFF" d="M288.739,297.558h-0.525v-3.348c-0.126,0.121-0.292,0.241-0.498,0.362c-0.206,0.12-0.39,0.211-0.553,0.271
			v-0.508c0.294-0.139,0.551-0.306,0.771-0.503c0.22-0.196,0.375-0.387,0.467-0.571h0.339V297.558z"/>
		<path fill="#FFFFFF" d="M290.084,295.447c0-0.506,0.052-0.913,0.156-1.222c0.104-0.308,0.259-0.546,0.464-0.713
			c0.206-0.168,0.464-0.251,0.775-0.251c0.229,0,0.431,0.046,0.604,0.139c0.173,0.092,0.316,0.226,0.429,0.399
			s0.202,0.387,0.266,0.637c0.064,0.25,0.096,0.587,0.096,1.011c0,0.502-0.051,0.907-0.154,1.216
			c-0.104,0.309-0.257,0.547-0.463,0.715c-0.205,0.169-0.464,0.253-0.778,0.253c-0.413,0-0.736-0.148-0.972-0.444
			C290.225,296.831,290.084,296.251,290.084,295.447z M290.624,295.447c0,0.702,0.082,1.17,0.247,1.402s0.367,0.349,0.608,0.349
			s0.444-0.116,0.608-0.35c0.165-0.233,0.247-0.701,0.247-1.401c0-0.704-0.083-1.172-0.247-1.403
			c-0.164-0.231-0.369-0.348-0.614-0.348c-0.241,0-0.434,0.103-0.578,0.307C290.714,294.264,290.624,294.745,290.624,295.447z"/>
	</g>
	<g>
		<path fill="#FFFFFF" d="M254.157,297.053v0.505h-2.828c-0.004-0.126,0.016-0.248,0.061-0.365c0.072-0.192,0.188-0.382,0.346-0.568
			c0.159-0.188,0.388-0.403,0.688-0.648c0.465-0.381,0.779-0.684,0.943-0.906c0.163-0.223,0.245-0.434,0.245-0.632
			c0-0.208-0.075-0.384-0.223-0.526c-0.149-0.144-0.343-0.215-0.583-0.215c-0.253,0-0.455,0.076-0.607,0.228
			c-0.152,0.152-0.229,0.362-0.23,0.631l-0.54-0.056c0.037-0.403,0.176-0.71,0.417-0.921c0.241-0.211,0.565-0.316,0.972-0.316
			c0.411,0,0.735,0.113,0.975,0.341c0.24,0.228,0.359,0.51,0.359,0.847c0,0.171-0.035,0.34-0.105,0.505
			c-0.07,0.165-0.186,0.34-0.349,0.522s-0.432,0.434-0.81,0.753c-0.315,0.265-0.518,0.444-0.607,0.539
			c-0.089,0.094-0.164,0.188-0.222,0.284H254.157z"/>
		<path fill="#FFFFFF" d="M257.481,297.053v0.505h-2.828c-0.004-0.126,0.016-0.248,0.061-0.365c0.072-0.192,0.188-0.382,0.346-0.568
			c0.159-0.188,0.388-0.403,0.688-0.648c0.465-0.381,0.779-0.684,0.943-0.906c0.163-0.223,0.245-0.434,0.245-0.632
			c0-0.208-0.075-0.384-0.223-0.526c-0.149-0.144-0.343-0.215-0.583-0.215c-0.253,0-0.455,0.076-0.607,0.228
			c-0.152,0.152-0.229,0.362-0.23,0.631l-0.54-0.056c0.037-0.403,0.176-0.71,0.417-0.921c0.241-0.211,0.565-0.316,0.972-0.316
			c0.411,0,0.735,0.113,0.975,0.341c0.24,0.228,0.359,0.51,0.359,0.847c0,0.171-0.035,0.34-0.105,0.505
			c-0.07,0.165-0.186,0.34-0.349,0.522s-0.432,0.434-0.81,0.753c-0.315,0.265-0.518,0.444-0.607,0.539
			c-0.089,0.094-0.164,0.188-0.222,0.284H257.481z"/>
	</g>
	<g>
		<path fill="#FFFFFF" d="M344.029,297.558h-0.525v-3.348c-0.126,0.121-0.292,0.241-0.497,0.362c-0.205,0.12-0.39,0.211-0.554,0.271
			v-0.508c0.294-0.139,0.551-0.306,0.771-0.503c0.221-0.196,0.376-0.387,0.468-0.571h0.338V297.558z"/>
		<path fill="#FFFFFF" d="M345.375,295.447c0-0.506,0.052-0.913,0.156-1.222c0.104-0.308,0.259-0.546,0.464-0.713
			c0.205-0.168,0.464-0.251,0.775-0.251c0.229,0,0.431,0.046,0.604,0.139c0.174,0.092,0.316,0.226,0.43,0.399
			c0.112,0.174,0.201,0.387,0.266,0.637c0.063,0.25,0.096,0.587,0.096,1.011c0,0.502-0.052,0.907-0.154,1.216
			c-0.104,0.309-0.258,0.547-0.463,0.715c-0.205,0.169-0.465,0.253-0.777,0.253c-0.413,0-0.737-0.148-0.973-0.444
			C345.516,296.831,345.375,296.251,345.375,295.447z M345.915,295.447c0,0.702,0.082,1.17,0.246,1.402
			c0.165,0.232,0.368,0.349,0.609,0.349s0.443-0.116,0.608-0.35c0.164-0.233,0.246-0.701,0.246-1.401
			c0-0.704-0.082-1.172-0.246-1.403c-0.165-0.231-0.369-0.348-0.614-0.348c-0.241,0-0.435,0.103-0.578,0.307
			C346.006,294.264,345.915,294.745,345.915,295.447z"/>
	</g>
	<g>
		<path fill="#FFFFFF" d="M380.175,297.053v0.505h-2.828c-0.004-0.126,0.017-0.248,0.062-0.365c0.072-0.192,0.188-0.382,0.346-0.568
			c0.159-0.188,0.388-0.403,0.688-0.648c0.465-0.381,0.779-0.684,0.942-0.906c0.164-0.223,0.245-0.434,0.245-0.632
			c0-0.208-0.074-0.384-0.223-0.526c-0.149-0.144-0.343-0.215-0.582-0.215c-0.253,0-0.456,0.076-0.607,0.228
			c-0.151,0.152-0.229,0.362-0.23,0.631l-0.54-0.056c0.037-0.403,0.176-0.71,0.417-0.921s0.565-0.316,0.973-0.316
			c0.41,0,0.735,0.113,0.975,0.341s0.358,0.51,0.358,0.847c0,0.171-0.035,0.34-0.104,0.505c-0.07,0.165-0.187,0.34-0.349,0.522
			c-0.163,0.183-0.433,0.434-0.811,0.753c-0.315,0.265-0.518,0.444-0.606,0.539c-0.09,0.094-0.164,0.188-0.223,0.284H380.175z"/>
		<path fill="#FFFFFF" d="M383.499,297.053v0.505h-2.828c-0.004-0.126,0.017-0.248,0.062-0.365c0.072-0.192,0.188-0.382,0.346-0.568
			c0.159-0.188,0.388-0.403,0.688-0.648c0.465-0.381,0.779-0.684,0.942-0.906c0.164-0.223,0.245-0.434,0.245-0.632
			c0-0.208-0.074-0.384-0.223-0.526c-0.149-0.144-0.343-0.215-0.582-0.215c-0.253,0-0.456,0.076-0.607,0.228
			c-0.151,0.152-0.229,0.362-0.23,0.631l-0.54-0.056c0.037-0.403,0.176-0.71,0.417-0.921s0.565-0.316,0.973-0.316
			c0.41,0,0.735,0.113,0.975,0.341s0.358,0.51,0.358,0.847c0,0.171-0.035,0.34-0.104,0.505c-0.07,0.165-0.187,0.34-0.349,0.522
			c-0.163,0.183-0.433,0.434-0.811,0.753c-0.315,0.265-0.518,0.444-0.606,0.539c-0.09,0.094-0.164,0.188-0.223,0.284H383.499z"/>
	</g>
	<g>
		<path fill="#FFFFFF" d="M304.746,175.601h-0.543v-1.991h-1.944v1.991h-0.543v-4.267h0.543v1.798h1.944v-1.798h0.543V175.601z"/>
		<path fill="#FFFFFF" d="M308.406,175.601l-0.467-1.322h-1.591l-0.473,1.322h-0.549l1.567-4.285h0.496l1.57,4.285H308.406z
			 M307.767,173.797l-0.432-1.237c-0.012-0.035-0.025-0.078-0.042-0.128c-0.017-0.051-0.034-0.105-0.051-0.164
			c-0.018-0.059-0.035-0.119-0.052-0.183c-0.018-0.063-0.034-0.125-0.05-0.185c-0.014,0.06-0.029,0.123-0.047,0.187
			c-0.018,0.064-0.035,0.126-0.052,0.186c-0.018,0.059-0.035,0.114-0.051,0.164c-0.017,0.049-0.031,0.091-0.042,0.124l-0.423,1.237
			H307.767z"/>
		<path fill="#FFFFFF" d="M309.541,175.601v-4.267h0.543v3.783h1.672v0.484H309.541z"/>
		<path fill="#FFFFFF" d="M313.02,175.601h-0.543v-4.267h2.215v0.479h-1.672v1.506h1.562v0.479h-1.562V175.601z"/>
		<path fill="#FFFFFF" d="M317.253,171.334h0.575l0.668,2.499c0.029,0.109,0.058,0.218,0.086,0.327s0.055,0.215,0.079,0.317
			s0.046,0.199,0.064,0.29c0.019,0.092,0.033,0.174,0.045,0.249c0.008-0.074,0.018-0.155,0.029-0.243
			c0.012-0.087,0.025-0.179,0.041-0.275c0.016-0.097,0.032-0.195,0.051-0.295s0.038-0.198,0.06-0.293l0.584-2.574h0.581
			l-1.071,4.267h-0.549l-0.741-2.738c-0.027-0.099-0.054-0.201-0.079-0.306c-0.025-0.105-0.049-0.204-0.07-0.295
			c-0.022-0.107-0.045-0.211-0.066-0.313c-0.021,0.1-0.043,0.203-0.064,0.31c-0.02,0.091-0.041,0.192-0.065,0.301
			s-0.051,0.216-0.077,0.321l-0.707,2.72h-0.549l-1.126-4.267h0.575l0.65,2.595c0.023,0.089,0.045,0.183,0.064,0.279
			s0.037,0.192,0.054,0.288c0.017,0.095,0.031,0.187,0.045,0.275c0.014,0.089,0.025,0.17,0.035,0.244
			c0.01-0.072,0.022-0.156,0.037-0.251c0.015-0.096,0.031-0.196,0.051-0.301s0.04-0.212,0.063-0.32s0.046-0.209,0.071-0.305
			L317.253,171.334z"/>
		<path fill="#FFFFFF" d="M323.133,175.601l-0.467-1.322h-1.591l-0.473,1.322h-0.549l1.567-4.285h0.496l1.57,4.285H323.133z
			 M322.494,173.797l-0.433-1.237c-0.012-0.035-0.025-0.078-0.042-0.128c-0.017-0.051-0.034-0.105-0.051-0.164
			c-0.018-0.059-0.035-0.119-0.053-0.183c-0.018-0.063-0.034-0.125-0.05-0.185c-0.014,0.06-0.029,0.123-0.047,0.187
			c-0.018,0.064-0.035,0.126-0.053,0.186c-0.018,0.059-0.034,0.114-0.051,0.164c-0.017,0.049-0.03,0.091-0.042,0.124l-0.424,1.237
			H322.494z"/>
		<path fill="#FFFFFF" d="M324.963,173.491l0.992-2.157h0.584l-1.302,2.606v1.661h-0.546v-1.631l-1.302-2.636h0.593L324.963,173.491
			z"/>
		<path fill="#FFFFFF" d="M328.529,175.601v-4.279h0.566v3.774h2.107v0.505H328.529z"/>
		<path fill="#FFFFFF" d="M331.974,175.601v-4.279h0.566v4.279H331.974z"/>
		<path fill="#FFFFFF" d="M333.532,175.601v-4.279h0.581l2.247,3.359v-3.359h0.543v4.279h-0.581l-2.247-3.362v3.362H333.532z"/>
		<path fill="#FFFFFF" d="M337.866,175.601v-4.279h3.094v0.505h-2.527v1.311h2.367v0.502h-2.367v1.457h2.627v0.505H337.866z"/>
	</g>
	<g>
		<path fill="#FFFFFF" d="M288.739,175.338h-0.525v-3.348c-0.126,0.121-0.292,0.241-0.498,0.362
			c-0.206,0.121-0.39,0.211-0.553,0.271v-0.508c0.294-0.138,0.551-0.306,0.771-0.502s0.375-0.387,0.467-0.572h0.339V175.338z"/>
		<path fill="#FFFFFF" d="M290.084,173.228c0-0.506,0.052-0.913,0.156-1.221s0.259-0.546,0.464-0.714
			c0.206-0.167,0.464-0.251,0.775-0.251c0.229,0,0.431,0.046,0.604,0.139c0.173,0.093,0.316,0.226,0.429,0.4
			c0.113,0.174,0.202,0.386,0.266,0.636c0.064,0.25,0.096,0.587,0.096,1.011c0,0.502-0.051,0.907-0.154,1.216
			c-0.104,0.309-0.257,0.547-0.463,0.715c-0.205,0.168-0.464,0.252-0.778,0.252c-0.413,0-0.736-0.147-0.972-0.443
			C290.225,174.611,290.084,174.031,290.084,173.228z M290.624,173.228c0,0.703,0.082,1.17,0.247,1.403
			c0.165,0.232,0.367,0.349,0.608,0.349s0.444-0.117,0.608-0.35c0.165-0.234,0.247-0.701,0.247-1.401
			c0-0.704-0.083-1.172-0.247-1.404c-0.164-0.231-0.369-0.347-0.614-0.347c-0.241,0-0.434,0.102-0.578,0.307
			C290.714,172.044,290.624,172.525,290.624,173.228z"/>
	</g>
	<g>
		<path fill="#FFFFFF" d="M254.157,174.833v0.505h-2.828c-0.004-0.126,0.016-0.248,0.061-0.365c0.072-0.193,0.188-0.382,0.346-0.569
			c0.159-0.187,0.388-0.403,0.688-0.648c0.465-0.381,0.779-0.683,0.943-0.906c0.163-0.223,0.245-0.433,0.245-0.632
			c0-0.208-0.075-0.384-0.223-0.527c-0.149-0.143-0.343-0.214-0.583-0.214c-0.253,0-0.455,0.076-0.607,0.228s-0.229,0.362-0.23,0.63
			l-0.54-0.055c0.037-0.403,0.176-0.71,0.417-0.921c0.241-0.211,0.565-0.317,0.972-0.317c0.411,0,0.735,0.114,0.975,0.342
			c0.24,0.228,0.359,0.51,0.359,0.846c0,0.171-0.035,0.34-0.105,0.505c-0.07,0.166-0.186,0.34-0.349,0.522
			c-0.163,0.183-0.432,0.434-0.81,0.753c-0.315,0.265-0.518,0.444-0.607,0.539s-0.164,0.189-0.222,0.285H254.157z"/>
		<path fill="#FFFFFF" d="M257.481,174.833v0.505h-2.828c-0.004-0.126,0.016-0.248,0.061-0.365c0.072-0.193,0.188-0.382,0.346-0.569
			c0.159-0.187,0.388-0.403,0.688-0.648c0.465-0.381,0.779-0.683,0.943-0.906c0.163-0.223,0.245-0.433,0.245-0.632
			c0-0.208-0.075-0.384-0.223-0.527c-0.149-0.143-0.343-0.214-0.583-0.214c-0.253,0-0.455,0.076-0.607,0.228s-0.229,0.362-0.23,0.63
			l-0.54-0.055c0.037-0.403,0.176-0.71,0.417-0.921c0.241-0.211,0.565-0.317,0.972-0.317c0.411,0,0.735,0.114,0.975,0.342
			c0.24,0.228,0.359,0.51,0.359,0.846c0,0.171-0.035,0.34-0.105,0.505c-0.07,0.166-0.186,0.34-0.349,0.522
			c-0.163,0.183-0.432,0.434-0.81,0.753c-0.315,0.265-0.518,0.444-0.607,0.539s-0.164,0.189-0.222,0.285H257.481z"/>
	</g>
	<g>
		<path fill="#FFFFFF" d="M344.029,175.338h-0.525v-3.348c-0.126,0.121-0.292,0.241-0.497,0.362s-0.39,0.211-0.554,0.271v-0.508
			c0.294-0.138,0.551-0.306,0.771-0.502c0.221-0.196,0.376-0.387,0.468-0.572h0.338V175.338z"/>
		<path fill="#FFFFFF" d="M345.375,173.228c0-0.506,0.052-0.913,0.156-1.221c0.104-0.309,0.259-0.546,0.464-0.714
			c0.205-0.167,0.464-0.251,0.775-0.251c0.229,0,0.431,0.046,0.604,0.139c0.174,0.093,0.316,0.226,0.43,0.4
			c0.112,0.174,0.201,0.386,0.266,0.636c0.063,0.25,0.096,0.587,0.096,1.011c0,0.502-0.052,0.907-0.154,1.216
			c-0.104,0.309-0.258,0.547-0.463,0.715c-0.205,0.168-0.465,0.252-0.777,0.252c-0.413,0-0.737-0.147-0.973-0.443
			C345.516,174.611,345.375,174.031,345.375,173.228z M345.915,173.228c0,0.703,0.082,1.17,0.246,1.403
			c0.165,0.232,0.368,0.349,0.609,0.349s0.443-0.117,0.608-0.35c0.164-0.234,0.246-0.701,0.246-1.401
			c0-0.704-0.082-1.172-0.246-1.404c-0.165-0.231-0.369-0.347-0.614-0.347c-0.241,0-0.435,0.102-0.578,0.307
			C346.006,172.044,345.915,172.525,345.915,173.228z"/>
	</g>
	<g>
		<path fill="#FFFFFF" d="M380.175,174.833v0.505h-2.828c-0.004-0.126,0.017-0.248,0.062-0.365c0.072-0.193,0.188-0.382,0.346-0.569
			c0.159-0.187,0.388-0.403,0.688-0.648c0.465-0.381,0.779-0.683,0.942-0.906c0.164-0.223,0.245-0.433,0.245-0.632
			c0-0.208-0.074-0.384-0.223-0.527c-0.149-0.143-0.343-0.214-0.582-0.214c-0.253,0-0.456,0.076-0.607,0.228s-0.229,0.362-0.23,0.63
			l-0.54-0.055c0.037-0.403,0.176-0.71,0.417-0.921s0.565-0.317,0.973-0.317c0.41,0,0.735,0.114,0.975,0.342s0.358,0.51,0.358,0.846
			c0,0.171-0.035,0.34-0.104,0.505c-0.07,0.166-0.187,0.34-0.349,0.522c-0.163,0.183-0.433,0.434-0.811,0.753
			c-0.315,0.265-0.518,0.444-0.606,0.539c-0.09,0.094-0.164,0.189-0.223,0.285H380.175z"/>
		<path fill="#FFFFFF" d="M383.499,174.833v0.505h-2.828c-0.004-0.126,0.017-0.248,0.062-0.365c0.072-0.193,0.188-0.382,0.346-0.569
			c0.159-0.187,0.388-0.403,0.688-0.648c0.465-0.381,0.779-0.683,0.942-0.906c0.164-0.223,0.245-0.433,0.245-0.632
			c0-0.208-0.074-0.384-0.223-0.527c-0.149-0.143-0.343-0.214-0.582-0.214c-0.253,0-0.456,0.076-0.607,0.228s-0.229,0.362-0.23,0.63
			l-0.54-0.055c0.037-0.403,0.176-0.71,0.417-0.921s0.565-0.317,0.973-0.317c0.41,0,0.735,0.114,0.975,0.342s0.358,0.51,0.358,0.846
			c0,0.171-0.035,0.34-0.104,0.505c-0.07,0.166-0.187,0.34-0.349,0.522c-0.163,0.183-0.433,0.434-0.811,0.753
			c-0.315,0.265-0.518,0.444-0.606,0.539c-0.09,0.094-0.164,0.189-0.223,0.285H383.499z"/>
	</g>
</g>
<g id="EXTRAS">
	<path fill="#EAEAEA" d="M315.38,105.717c-1.588,0-2.811-0.433-3.421-0.705v-0.399l-22.021,0.084l0.011-9.669h50.43l-0.01,9.671
		l-20.747-0.025l-0.205,0.098C318.103,105.399,316.745,105.717,315.38,105.717z"/>
	<rect x="364.153" y="91.417" fill="#EAEAEA" width="31.971" height="6.445"/>
	<rect x="288.646" y="388.214" fill="#EAEAEA" width="25.075" height="7.016"/>
	<polygon fill="#EAEAEA" points="141.982,409.372 108.289,384.302 100.792,373.515 106.409,369.28 113.509,379.069 145.308,403.158 
		158.079,407.063 155.876,413.933 	"/>
	<polygon fill="#EAEAEA" points="77.654,135.284 82.425,120.706 108.189,85.301 130.659,68.618 134.9,74.475 113.441,91.041 
		88.847,124.19 84.422,137.619 	"/>
	<path fill="#EAEAEA" d="M170.316,235.22c0.018-27.925,0.03-55.413,0.03-61.499c0-9.93,8.11-18.319,10.628-20.684l4.799,5.63
		c-2.095,1.595-6.708,6.151-6.708,15.365l-0.061,61.188H170.316z"/>
	<path fill="#EAEAEA" d="M179.274,318.142c-2.216-1.508-8.984-7.042-8.984-18.37c0-4.918,0.025-62.552,0.025-62.552h8.687
		c-0.031,29.456-0.058,58.791-0.058,62.042c0,5.761,4.415,10.325,6.283,11.998L179.274,318.142z"/>
	<polygon fill="#EAEAEA" points="194.834,141.349 209.784,136.489 308.43,136.489 308.43,145.19 211.101,145.217 198.928,149.394 	
		"/>
	<polygon fill="#EAEAEA" points="420.764,145.272 321.876,145.19 321.898,136.489 420.847,136.489 435.701,141.375 436.967,142.298 
		432.058,148.91 	"/>
	<polygon fill="#EAEAEA" points="458.098,233.968 458.124,180.837 453.718,167.457 446.394,157.906 451.285,153.314 
		459.587,164.453 465.275,180.969 465.275,233.968 	"/>
	<polygon fill="#EAEAEA" points="445.882,310.221 453.314,300.864 458.069,287.677 458.097,235.968 465.275,235.968 
		465.275,288.333 459.947,304.165 451.537,315.819 	"/>
	<polygon fill="#EAEAEA" points="316.035,332.766 316.035,324.029 419.342,324.029 431.897,319.94 434.8,328.154 420.726,332.766 	
		"/>
	<polygon fill="#EAEAEA" points="209.799,332.766 196.013,325.211 200,318.479 211.007,324.029 314.035,324.029 314.035,332.766 	
		"/>
	<rect x="1" y="214.409" fill="#EAEAEA" width="18.429" height="46.463"/>
	<rect x="615.599" y="214.231" fill="#EAEAEA" width="18.401" height="46.466"/>
	<g>
		<path fill="#717A80" d="M308.202,151.671h0.962l1.118,4.18c0.049,0.182,0.097,0.365,0.144,0.547s0.091,0.359,0.132,0.53
			s0.077,0.333,0.107,0.486s0.056,0.292,0.076,0.415c0.013-0.124,0.029-0.259,0.049-0.405s0.042-0.3,0.068-0.461
			s0.055-0.326,0.085-0.493s0.064-0.331,0.1-0.491l0.977-4.307h0.972l-1.792,7.139h-0.918l-1.24-4.58
			c-0.045-0.166-0.089-0.337-0.132-0.513s-0.082-0.34-0.117-0.493c-0.039-0.179-0.077-0.353-0.112-0.522
			c-0.036,0.166-0.072,0.338-0.107,0.518c-0.033,0.153-0.069,0.321-0.11,0.503s-0.084,0.361-0.129,0.537l-1.182,4.551h-0.918
			l-1.885-7.139h0.962l1.089,4.341c0.039,0.15,0.075,0.305,0.107,0.466s0.063,0.321,0.09,0.481s0.053,0.313,0.076,0.461
			s0.042,0.284,0.059,0.408c0.016-0.121,0.037-0.26,0.061-0.42s0.053-0.327,0.085-0.503s0.067-0.354,0.105-0.535
			s0.077-0.351,0.12-0.51L308.202,151.671z"/>
		<path fill="#717A80" d="M317.767,158.81h-3.706v-7.139h3.706v0.801h-2.798v2.207h2.612v0.791h-2.612v2.539h2.798V158.81z"/>
		<path fill="#717A80" d="M323.1,156.9c0,0.316-0.057,0.598-0.169,0.847s-0.272,0.46-0.481,0.632
			c-0.208,0.172-0.462,0.304-0.762,0.393c-0.299,0.089-0.636,0.134-1.01,0.134c-0.361,0-0.699-0.028-1.014-0.085
			s-0.577-0.141-0.789-0.251v-0.869c0.111,0.052,0.237,0.104,0.379,0.154s0.291,0.095,0.447,0.134s0.316,0.071,0.482,0.095
			s0.331,0.037,0.494,0.037c0.521,0,0.905-0.098,1.154-0.293s0.373-0.475,0.373-0.84c0-0.176-0.023-0.329-0.07-0.459
			s-0.131-0.25-0.249-0.359s-0.277-0.215-0.476-0.317c-0.199-0.103-0.449-0.214-0.752-0.334c-0.29-0.114-0.541-0.238-0.755-0.374
			s-0.39-0.287-0.527-0.457s-0.241-0.361-0.308-0.576s-0.1-0.459-0.1-0.732c0-0.287,0.052-0.542,0.156-0.767
			c0.104-0.225,0.25-0.414,0.439-0.569c0.188-0.155,0.414-0.272,0.676-0.354s0.551-0.122,0.867-0.122
			c0.387,0,0.735,0.037,1.045,0.11c0.309,0.073,0.584,0.167,0.824,0.281l-0.326,0.762c-0.212-0.094-0.452-0.177-0.721-0.247
			s-0.546-0.105-0.832-0.105c-0.397,0-0.705,0.092-0.924,0.276c-0.218,0.184-0.326,0.432-0.326,0.745
			c0,0.186,0.023,0.346,0.072,0.481s0.131,0.257,0.244,0.366c0.114,0.109,0.266,0.211,0.452,0.308s0.417,0.198,0.69,0.305
			c0.297,0.117,0.557,0.238,0.779,0.361s0.409,0.264,0.559,0.42c0.15,0.156,0.264,0.337,0.34,0.542S323.1,156.621,323.1,156.9z"/>
		<path fill="#717A80" d="M326.609,158.81h-0.912v-6.338h-2.041v-0.801h4.99v0.801h-2.037V158.81z"/>
	</g>
	<g>
		<path fill="#717A80" d="M444.276,224.929v-1.05l5.908-3.511v-0.039c-0.251,0.02-0.499,0.036-0.747,0.049
			c-0.211,0.013-0.434,0.023-0.664,0.032s-0.439,0.012-0.625,0.012h-3.872v-0.84h7.139v1.04l-5.879,3.496v0.034
			c0.247-0.01,0.491-0.021,0.732-0.034c0.104-0.003,0.211-0.007,0.319-0.012c0.109-0.005,0.219-0.01,0.328-0.015
			c0.108-0.005,0.213-0.008,0.314-0.01s0.193-0.002,0.278-0.002h3.906v0.85H444.276z"/>
		<path fill="#717A80" d="M447.855,232.702c-0.551,0-1.051-0.066-1.504-0.198s-0.84-0.328-1.162-0.588s-0.571-0.583-0.747-0.969
			s-0.264-0.831-0.264-1.335c0-0.531,0.088-0.99,0.264-1.379s0.425-0.711,0.747-0.967s0.711-0.445,1.164-0.569
			c0.455-0.124,0.959-0.186,1.512-0.186s1.056,0.062,1.506,0.186c0.451,0.124,0.836,0.314,1.155,0.571s0.565,0.581,0.739,0.972
			c0.175,0.391,0.262,0.851,0.262,1.382c0,0.504-0.087,0.948-0.262,1.331c-0.174,0.382-0.421,0.704-0.742,0.964
			c-0.32,0.26-0.706,0.457-1.156,0.588C448.916,232.636,448.412,232.702,447.855,232.702z M447.855,227.473
			c-0.445,0-0.848,0.042-1.203,0.127c-0.357,0.084-0.66,0.214-0.908,0.388c-0.25,0.174-0.439,0.396-0.572,0.664
			c-0.131,0.269-0.197,0.588-0.197,0.959s0.066,0.691,0.197,0.959c0.133,0.269,0.322,0.49,0.572,0.664
			c0.248,0.174,0.551,0.302,0.908,0.383c0.355,0.082,0.758,0.122,1.203,0.122c0.449,0,0.852-0.041,1.206-0.122
			s0.655-0.208,0.901-0.381c0.245-0.172,0.434-0.392,0.566-0.659c0.131-0.267,0.197-0.586,0.197-0.957s-0.066-0.692-0.197-0.962
			c-0.133-0.27-0.321-0.493-0.566-0.669c-0.246-0.176-0.547-0.306-0.901-0.391S448.305,227.473,447.855,227.473z"/>
		<path fill="#717A80" d="M447.226,235.202h-2.949v-0.908h7.139v1.738c0,0.866-0.167,1.505-0.503,1.919s-0.844,0.62-1.523,0.62
			c-0.283,0-0.531-0.04-0.742-0.12c-0.211-0.079-0.393-0.186-0.545-0.316c-0.15-0.133-0.277-0.283-0.378-0.452
			s-0.185-0.343-0.249-0.522l-3.198,1.943v-1.069l2.949-1.714V235.202z M447.997,235.202v0.801c0,0.293,0.028,0.542,0.085,0.747
			c0.058,0.205,0.143,0.373,0.254,0.506c0.113,0.131,0.253,0.228,0.42,0.287c0.168,0.061,0.364,0.091,0.589,0.091
			c0.234,0,0.433-0.033,0.596-0.101c0.163-0.066,0.296-0.167,0.4-0.303c0.104-0.135,0.18-0.306,0.228-0.512
			c0.047-0.207,0.07-0.452,0.07-0.735v-0.781H447.997z"/>
		<path fill="#717A80" d="M444.276,242.175v-0.913h6.338v-2.041h0.801v4.99h-0.801v-2.036H444.276z"/>
		<path fill="#717A80" d="M444.276,250.354v-0.908h3.33v-3.252h-3.33v-0.908h7.139v0.908h-3.008v3.252h3.008v0.908H444.276z"/>
	</g>
	<g>
		<path fill="#717A80" d="M188.231,242.979c0.316,0,0.598,0.056,0.847,0.168s0.46,0.272,0.632,0.48
			c0.172,0.209,0.304,0.463,0.393,0.762c0.089,0.3,0.134,0.637,0.134,1.012c0,0.361-0.028,0.699-0.085,1.013
			s-0.141,0.577-0.251,0.788h-0.869c0.052-0.11,0.104-0.236,0.154-0.378s0.095-0.29,0.134-0.446s0.071-0.318,0.095-0.484
			s0.037-0.33,0.037-0.492c0-0.521-0.098-0.906-0.293-1.155s-0.475-0.374-0.84-0.374c-0.176,0-0.329,0.023-0.459,0.071
			s-0.25,0.13-0.359,0.249s-0.215,0.277-0.317,0.477c-0.103,0.198-0.214,0.449-0.334,0.752c-0.114,0.289-0.238,0.541-0.374,0.754
			s-0.287,0.389-0.457,0.527s-0.361,0.24-0.576,0.308s-0.459,0.101-0.732,0.101c-0.287,0-0.542-0.053-0.767-0.156
			c-0.225-0.104-0.414-0.251-0.569-0.439c-0.155-0.189-0.272-0.414-0.354-0.677s-0.122-0.551-0.122-0.866
			c0-0.388,0.037-0.736,0.11-1.045c0.073-0.31,0.167-0.585,0.281-0.826l0.762,0.328c-0.094,0.211-0.177,0.451-0.247,0.72
			s-0.105,0.546-0.105,0.833c0,0.396,0.092,0.704,0.276,0.922c0.184,0.219,0.432,0.328,0.745,0.328c0.186,0,0.346-0.025,0.481-0.074
			s0.257-0.13,0.366-0.244c0.109-0.113,0.211-0.264,0.308-0.451s0.198-0.418,0.305-0.691c0.117-0.296,0.238-0.555,0.361-0.778
			s0.264-0.409,0.42-0.56c0.156-0.149,0.337-0.262,0.542-0.339S187.952,242.979,188.231,242.979z"/>
		<path fill="#717A80" d="M186.562,235.717c0.55,0,1.051,0.066,1.504,0.198s0.84,0.328,1.162,0.589
			c0.322,0.26,0.571,0.583,0.747,0.969s0.264,0.831,0.264,1.336c0,0.53-0.088,0.99-0.264,1.379s-0.425,0.711-0.747,0.967
			s-0.71,0.445-1.165,0.568c-0.454,0.124-0.958,0.186-1.511,0.186s-1.056-0.062-1.506-0.186c-0.451-0.123-0.836-0.313-1.155-0.57
			c-0.319-0.258-0.565-0.582-0.74-0.973s-0.261-0.851-0.261-1.381c0-0.505,0.087-0.949,0.261-1.331s0.421-0.704,0.742-0.964
			c0.321-0.261,0.707-0.457,1.157-0.589S186.005,235.717,186.562,235.717z M186.562,240.947c0.446,0,0.847-0.043,1.204-0.127
			c0.356-0.085,0.659-0.215,0.908-0.389s0.439-0.396,0.571-0.664s0.198-0.588,0.198-0.959s-0.066-0.691-0.198-0.96
			s-0.322-0.489-0.571-0.664s-0.552-0.302-0.908-0.384c-0.356-0.081-0.758-0.121-1.204-0.121c-0.449,0-0.851,0.04-1.206,0.121
			c-0.355,0.082-0.655,0.209-0.901,0.381c-0.246,0.173-0.435,0.393-0.566,0.66c-0.132,0.267-0.198,0.586-0.198,0.957
			s0.066,0.691,0.198,0.961c0.132,0.271,0.321,0.494,0.566,0.67s0.546,0.306,0.901,0.391
			C185.71,240.904,186.112,240.947,186.562,240.947z"/>
		<path fill="#717A80" d="M182.992,229.018h4.629c0.371,0,0.716,0.054,1.035,0.161s0.596,0.27,0.83,0.486s0.418,0.488,0.552,0.815
			s0.2,0.712,0.2,1.155c0,0.417-0.063,0.785-0.188,1.104s-0.304,0.587-0.535,0.803s-0.509,0.38-0.833,0.491
			s-0.685,0.166-1.082,0.166h-4.6v-0.913h4.648c0.57,0,1.011-0.141,1.323-0.422s0.469-0.707,0.469-1.277
			c0-0.29-0.044-0.539-0.132-0.747s-0.211-0.379-0.371-0.513s-0.35-0.233-0.571-0.298s-0.464-0.099-0.728-0.103h-4.648V229.018z"/>
		<path fill="#717A80" d="M190.141,225.063v0.913h-6.338v2.041h-0.801v-4.99h0.801v2.036H190.141z"/>
		<path fill="#717A80" d="M190.141,216.884v0.908h-3.33v3.252h3.33v0.908h-7.139v-0.908h3.008v-3.252h-3.008v-0.908H190.141z"/>
	</g>
	<g>
		<path fill="#717A80" d="M310.309,318.934h-3.706v-7.139h3.706v0.801h-2.798v2.207h2.612v0.791h-2.612v2.539h2.798V318.934z"/>
		<path fill="#717A80" d="M316.061,318.934l-0.781-2.211h-2.661l-0.791,2.211h-0.918l2.622-7.168h0.83l2.627,7.168H316.061z
			 M314.991,315.916l-0.723-2.07c-0.02-0.059-0.043-0.13-0.071-0.215c-0.028-0.084-0.056-0.176-0.085-0.273
			s-0.059-0.199-0.088-0.305s-0.057-0.209-0.083-0.311c-0.023,0.102-0.049,0.205-0.078,0.313s-0.059,0.211-0.088,0.311
			s-0.058,0.19-0.085,0.273s-0.051,0.152-0.071,0.207l-0.708,2.07H314.991z"/>
		<path fill="#717A80" d="M321.72,317.025c0,0.315-0.056,0.598-0.169,0.847c-0.111,0.249-0.271,0.46-0.48,0.632
			c-0.209,0.173-0.463,0.305-0.762,0.394s-0.637,0.134-1.011,0.134c-0.361,0-0.699-0.027-1.013-0.085s-0.577-0.141-0.789-0.251
			v-0.869c0.111,0.052,0.237,0.104,0.378,0.153s0.291,0.095,0.447,0.134s0.317,0.071,0.483,0.096s0.33,0.037,0.493,0.037
			c0.521,0,0.905-0.098,1.155-0.293c0.248-0.195,0.373-0.476,0.373-0.84c0-0.176-0.023-0.329-0.07-0.459
			c-0.048-0.131-0.131-0.25-0.25-0.359c-0.118-0.109-0.277-0.215-0.476-0.317s-0.449-0.214-0.752-0.335
			c-0.29-0.113-0.541-0.238-0.754-0.373s-0.389-0.287-0.527-0.457c-0.138-0.169-0.241-0.361-0.308-0.576s-0.1-0.459-0.1-0.732
			c0-0.286,0.052-0.541,0.156-0.766s0.25-0.414,0.439-0.569s0.414-0.272,0.677-0.354c0.262-0.081,0.551-0.121,0.866-0.121
			c0.388,0,0.735,0.036,1.045,0.109s0.585,0.167,0.825,0.281l-0.327,0.762c-0.212-0.095-0.452-0.178-0.72-0.247
			c-0.27-0.069-0.547-0.104-0.833-0.104c-0.397,0-0.704,0.092-0.923,0.275s-0.327,0.432-0.327,0.744
			c0,0.186,0.024,0.346,0.073,0.481s0.131,0.257,0.244,0.366s0.265,0.211,0.451,0.308c0.188,0.097,0.418,0.198,0.691,0.306
			c0.297,0.117,0.556,0.237,0.779,0.361c0.223,0.123,0.408,0.264,0.559,0.42s0.263,0.336,0.34,0.541
			C321.682,316.502,321.72,316.745,321.72,317.025z"/>
		<path fill="#717A80" d="M325.23,318.934h-0.913v-6.338h-2.041v-0.801h4.99v0.801h-2.036V318.934z"/>
	</g>
</g>
<g id="LABELS">
	<text fid="W-L1" transform="matrix(1 0 0 1 173.7666 124.3867)" fill="#47474B" font-family="'Arial'" font-size="10">1</text>
	<text fid="W-L2" transform="matrix(1 0 0 1 203.958 118.606)" fill="#47474B" font-family="'Arial'" font-size="10">2</text>
	<text fid="W-L3" transform="matrix(1 0 0 1 234.7891 117.4263)" fill="#47474B" font-family="'Arial'" font-size="10">3</text>
	<text fid="W-L4" transform="matrix(1 0 0 1 260.7002 117.4263)" fill="#47474B" font-family="'Arial'" font-size="10">4</text>
	<text fid="W-L5" transform="matrix(1 0 0 1 292.979 117.4263)" fill="#47474B" font-family="'Arial'" font-size="10">5</text>
	<text fid="W-L6" transform="matrix(1 0 0 1 331.8867 117.4263)" fill="#47474B" font-family="'Arial'" font-size="10">6</text>
	<text fid="W-L7" transform="matrix(1 0 0 1 364.4004 117.4258)" fill="#47474B" font-family="'Arial'" font-size="10">7</text>
	<text fid="W-L8" transform="matrix(1 0 0 1 390.5186 117.4258)" fill="#47474B" font-family="'Arial'" font-size="10">8</text>
	<text fid="W-L9" transform="matrix(1 0 0 1 420.1719 118.2412)" fill="#47474B" font-family="'Arial'" font-size="10">9</text>
	<text fid="W-L10" transform="matrix(1 0 0 1 441.6074 122.5747)" fill="#47474B" font-family="'Arial'" font-size="10">10</text>
	<text fid="W-L11" transform="matrix(1 0 0 1 463.7334 130.2124)" fill="#47474B" font-family="'Arial'" font-size="8">11</text>
	<text fid="W-M1" transform="matrix(1 0 0 1 149.542 77.4565)" fill="#47474B" font-family="'Arial'" font-size="10">1</text>
	<text fid="W-M2" transform="matrix(1 0 0 1 173.9199 68.9839)" fill="#47474B" font-family="'Arial'" font-size="10">2</text>
	<text fid="W-M3" transform="matrix(1 0 0 1 196.7412 66.2661)" fill="#47474B" font-family="'Arial'" font-size="10">3</text>
	<text fid="W-M4" transform="matrix(1 0 0 1 225.4492 66.1206)" fill="#47474B" font-family="'Arial'" font-size="10">4</text>
	<text fid="W-M5" transform="matrix(1 0 0 1 254.5986 66.21)" fill="#47474B" font-family="'Arial'" font-size="10">5</text>
	<text fid="W-M6" transform="matrix(1 0 0 1 283.73 66.2163)" fill="#47474B" font-family="'Arial'" font-size="10">6</text>
	<text fid="W-M7" transform="matrix(1 0 0 1 313.21 66.2104)" fill="#47474B" font-family="'Arial'" font-size="10">7</text>
	<text fid="W-M8" transform="matrix(1 0 0 1 342.5156 66.1987)" fill="#47474B" font-family="'Arial'" font-size="10">8</text>
	<text fid="W-M9" transform="matrix(1 0 0 1 371.7295 66.2231)" fill="#47474B" font-family="'Arial'" font-size="10">9</text>
	<text fid="W-M10" transform="matrix(1 0 0 1 398.2012 66.2227)" fill="#47474B" font-family="'Arial'" font-size="10">10</text>
	<text fid="W-M11" transform="matrix(1 0 0 1 427.3242 66.1514)" fill="#47474B" font-family="'Arial'" font-size="10">11</text>
	<text fid="W-M12" transform="matrix(1 0 0 1 450.8438 69.0747)" fill="#47474B" font-family="'Arial'" font-size="10">12</text>
	<text fid="W-M13" transform="matrix(1 0 0 1 474.8164 77.27)" fill="#47474B" font-family="'Arial'" font-size="10">13</text>
	<text fid="W-M14" transform="matrix(1 0 0 1 496.2314 91.7041)" fill="#47474B" font-family="'Arial'" font-size="10">14</text>
	<text fid="W-M15" transform="matrix(1 0 0 1 514.542 109.6685)" fill="#47474B" font-family="'Arial'" font-size="10">15</text>
	<text fid="W-U1" transform="matrix(1 0 0 1 105.9097 33.5723)" fill="#47474B" font-family="'Arial'" font-size="10">1</text>
	<text fid="W-U2" transform="matrix(1 0 0 1 136.9175 22.5059)" fill="#47474B" font-family="'Arial'" font-size="10">2</text>
	<text fid="W-U3" transform="matrix(1 0 0 1 170.5078 18.7729)" fill="#47474B" font-family="'Arial'" font-size="10">3</text>
	<text fid="W-U4" transform="matrix(1 0 0 1 209.0693 18.6909)" fill="#47474B" font-family="'Arial'" font-size="10">4</text>
	<text fid="W-U5" transform="matrix(1 0 0 1 244.8774 18.6909)" fill="#47474B" font-family="'Arial'" font-size="10">5</text>
	<text fid="W-U6" transform="matrix(1 0 0 1 279.6323 18.6914)" fill="#47474B" font-family="'Arial'" font-size="10">6</text>
	<text fid="W-U7" transform="matrix(1 0 0 1 312.2773 18.6909)" fill="#47474B" font-family="'Arial'" font-size="10">7</text>
	<text fid="W-U8" transform="matrix(1 0 0 1 346.4355 18.6914)" fill="#47474B" font-family="'Arial'" font-size="10">8</text>
	<text fid="W-U9" transform="matrix(1 0 0 1 383.2979 18.7671)" fill="#47474B" font-family="'Arial'" font-size="10">9</text>
	<text fid="W-U10" transform="matrix(1 0 0 1 417.4141 18.772)" fill="#47474B" font-family="'Arial'" font-size="10">10</text>
	<text fid="W-U11" transform="matrix(1 0 0 1 455.4531 18.7749)" fill="#47474B" font-family="'Arial'" font-size="10">11</text>
	<text fid="W-U12" transform="matrix(1 0 0 1 487.5439 22.8794)" fill="#47474B" font-family="'Arial'" font-size="10">12</text>
	<text fid="W-U13" transform="matrix(1 0 0 1 519.0801 34.5962)" fill="#47474B" font-family="'Arial'" font-size="10">13</text>
	<text fid="W-U14" transform="matrix(1 0 0 1 548.1895 53.1821)" fill="#47474B" font-family="'Arial'" font-size="10">14</text>
	<text fid="N-L12" transform="matrix(1 0 0 1 470.5703 152.124)" fill="#47474B" font-family="'Arial'" font-size="10">12</text>
	<text fid="N-L13" transform="matrix(1 0 0 1 479.1172 181.0107)" fill="#47474B" font-family="'Arial'" font-size="10">13</text>
	<text fid="N-L14" transform="matrix(1 0 0 1 480.373 211.3813)" fill="#47474B" font-family="'Arial'" font-size="10">14</text>
	<text fid="N-L15" transform="matrix(1 0 0 1 480.373 237.2617)" fill="#47474B" font-family="'Arial'" font-size="10">15</text>
	<text fid="N-L16" transform="matrix(1 0 0 1 480.373 263.1865)" fill="#47474B" font-family="'Arial'" font-size="10">16</text>
	<text fid="N-L17" transform="matrix(1 0 0 1 479.1387 293.6777)" fill="#47474B" font-family="'Arial'" font-size="10">17</text>
	<text fid="N-L18" transform="matrix(1 0 0 1 470.7734 320.9307)" fill="#47474B" font-family="'Arial'" font-size="10">18</text>
	<text fid="N-M16" transform="matrix(1 0 0 1 527.9707 129.4277)" fill="#47474B" font-family="'Arial'" font-size="10">16</text>
	<text fid="N-M17" transform="matrix(1 0 0 1 536.5889 153.2896)" fill="#47474B" font-family="'Arial'" font-size="10">17</text>
	<text fid="N-M18" transform="matrix(1 0 0 1 540.2471 178.7661)" fill="#47474B" font-family="'Arial'" font-size="10">18</text>
	<text fid="N-M19" transform="matrix(1 0 0 1 540.2471 207.9429)" fill="#47474B" font-family="'Arial'" font-size="10">19</text>
	<text fid="N-M20" transform="matrix(1 0 0 1 540.2471 237.3145)" fill="#47474B" font-family="'Arial'" font-size="10">20</text>
	<text fid="N-M21" transform="matrix(1 0 0 1 540.2471 266.5762)" fill="#47474B" font-family="'Arial'" font-size="10">21</text>
	<text fid="N-M22" transform="matrix(1 0 0 1 540.2471 295.5967)" fill="#47474B" font-family="'Arial'" font-size="10">22</text>
	<text fid="N-M23" transform="matrix(1 0 0 1 537.2275 319.2695)" fill="#47474B" font-family="'Arial'" font-size="10">23</text>
	<text fid="N-M24" transform="matrix(1 0 0 1 528.9922 343.2754)" fill="#47474B" font-family="'Arial'" font-size="10">24</text>
	<text fid="W-U15" transform="matrix(1 0 0 1 571.5225 76.4946)" fill="#47474B" font-family="'Arial'" font-size="10">15</text>
	<text fid="N-U16" transform="matrix(1 0 0 1 589.2695 104.709)" fill="#47474B" font-family="'Arial'" font-size="10">16</text>
	<text fid="N-U17" transform="matrix(1 0 0 1 600.416 137.3086)" fill="#47474B" font-family="'Arial'" font-size="10">17</text>
	<text fid="N-U18" transform="matrix(1 0 0 1 604.2656 174.811)" fill="#47474B" font-family="'Arial'" font-size="10">18</text>
	<text fid="N-U19" transform="matrix(1 0 0 1 599.2471 217.1104)" fill="#47474B" font-family="'Arial'" font-size="10">19</text>
	<text fid="N-U20" transform="matrix(1 0 0 1 599.2285 259.0693)" fill="#47474B" font-family="'Arial'" font-size="10">20</text>
	<text fid="N-U21" transform="matrix(1 0 0 1 604.2129 295.7568)" fill="#47474B" font-family="'Arial'" font-size="10">21</text>
	<text fid="N-U22" transform="matrix(1 0 0 1 602.2139 329.75)" fill="#47474B" font-family="'Arial'" font-size="10">22</text>
	<text fid="N-U23" transform="matrix(1 0 0 1 593.8984 358.3516)" fill="#47474B" font-family="'Arial'" font-size="10">23</text>
	<text fid="N-U24" transform="matrix(1 0 0 1 580.4766 387.3105)" fill="#47474B" font-family="'Arial'" font-size="10">24</text>
	<text fid="E-L19" transform="matrix(1 0 0 1 465.1348 344.1406)" fill="#47474B" font-family="'Arial'" font-size="8">19</text>
	<text fid="E-L20" transform="matrix(1 0 0 1 450.792 355.0293)" fill="#47474B" font-family="'Arial'" font-size="8">20</text>
	<text fid="E-L21" transform="matrix(1 0 0 1 423.5 356.3213)" fill="#47474B" font-family="'Arial'" font-size="10">21</text>
	<text fid="E-L22" transform="matrix(1 0 0 1 387.3604 358.6982)" fill="#47474B" font-family="'Arial'" font-size="10">22</text>
	<text fid="E-L23" transform="matrix(1 0 0 1 361.4121 358.7012)" fill="#47474B" font-family="'Arial'" font-size="10">23</text>
	<text fid="E-L24" transform="matrix(1 0 0 1 335.5508 358.7012)" fill="#47474B" font-family="'Arial'" font-size="10">24</text>
	<text fid="E-L25" transform="matrix(0.8047 0 0 1 311.8325 358.7012)" fill="#47474B" font-family="'Arial'" font-size="10">25</text>
	<text fid="E-L26" transform="matrix(1 0 0 1 283.7437 358.7031)" fill="#47474B" font-family="'Arial'" font-size="10">26</text>
	<text fid="E-L27" transform="matrix(1 0 0 1 257.8252 358.7031)" fill="#47474B" font-family="'Arial'" font-size="10">27</text>
	<text fid="E-L28" transform="matrix(1 0 0 1 231.9268 358.7031)" fill="#47474B" font-family="'Arial'" font-size="10">28</text>
	<text fid="E-L29" transform="matrix(1 0 0 1 200.7017 356.8555)" fill="#47474B" font-family="'Arial'" font-size="10">29</text>
	<text fid="E-L30" transform="matrix(1 0 0 1 172.0005 350.1475)" fill="#47474B" font-family="'Arial'" font-size="10">30</text>
	<text fid="S-L31" transform="matrix(1 0 0 1 150.0176 333.3516)" fill="#47474B" font-family="'Arial'" font-size="10">31</text>
	<text fid="S-L32" transform="matrix(1 0 0 1 142.8848 305.7754)" fill="#47474B" font-family="'Arial'" font-size="10">32</text>
	<text fid="S-L33" transform="matrix(1 0 0 1 142.4688 260.7539)" fill="#47474B" font-family="'Arial'" font-size="10">33</text>
	<text fid="S-L34" transform="matrix(1 0 0 1 142.4775 224.0225)" fill="#47474B" font-family="'Arial'" font-size="10">34</text>
	<text fid="S-L35" transform="matrix(1 0 0 1 142.4824 192.7749)" fill="#47474B" font-family="'Arial'" font-size="10">35</text>
	<text fid="S-L36" transform="matrix(1 0 0 1 148.1235 146.4482)" fill="#47474B" font-family="'Arial'" font-size="10">36</text>
	<text fid="S-M40" transform="matrix(1 0 0 1 127.9692 379.3867)" fill="#47474B" font-family="'Arial'" font-size="10">40</text>
	<text fid="S-M41" transform="matrix(1 0 0 1 106.7778 361.7373)" fill="#47474B" font-family="'Arial'" font-size="10">41</text>
	<text fid="S-M42" transform="matrix(1 0 0 1 93.0366 344.5996)" fill="#47474B" font-family="'Arial'" font-size="10">42</text>
	<text fid="S-M43" transform="matrix(1 0 0 1 84.5425 320.6025)" fill="#47474B" font-family="'Arial'" font-size="10">43</text>
	<text fid="S-M44" transform="matrix(1 0 0 1 81.1108 293.1113)" fill="#47474B" font-family="'Arial'" font-size="10">44</text>
	<text fid="S-M45" transform="matrix(1 0 0 1 81.1108 260.7012)" fill="#47474B" font-family="'Arial'" font-size="10">45</text>
	<text fid="S-M46" transform="matrix(1 0 0 1 81.1108 230.8115)" fill="#47474B" font-family="'Arial'" font-size="10">46</text>
	<text fid="S-M47" transform="matrix(1 0 0 1 81.1108 203.2285)" fill="#47474B" font-family="'Arial'" font-size="10">47</text>
	<text fid="S-M48" transform="matrix(1 0 0 1 81.4429 173.1226)" fill="#47474B" font-family="'Arial'" font-size="10">48</text>
	<text fid="S-M49" transform="matrix(1 0 0 1 87.5679 147.418)" fill="#47474B" font-family="'Arial'" font-size="10">49</text>
	<text fid="S-M50" transform="matrix(1 0 0 1 104.5215 119.8472)" fill="#47474B" font-family="'Arial'" font-size="10">50</text>
	<text fid="S-M51" transform="matrix(1 0 0 1 125.7241 98.1528)" fill="#47474B" font-family="'Arial'" font-size="10">51</text>
	<text fid="S-U40" transform="matrix(0.9365 0 0 1 73.4951 421.3154)" fill="#47474B" font-family="'Arial'" font-size="10.6778">40</text>
	<text fid="S-U41" transform="matrix(1 0 0 1 49.291 396.8691)" fill="#47474B" font-family="'Arial'" font-size="10">41</text>
	<text fid="S-U42" transform="matrix(1 0 0 1 30.4795 365.5547)" fill="#47474B" font-family="'Arial'" font-size="10">42</text>
	<text fid="S-U43" transform="matrix(1 0 0 1 20.2446 329.5449)" fill="#47474B" font-family="'Arial'" font-size="10">43</text>
	<text fid="S-U44" transform="matrix(1 0 0 1 17.4448 290.4199)" fill="#47474B" font-family="'Arial'" font-size="10">44</text>
	<text fid="S-U45" transform="matrix(1 0 0 1 24.5532 255.5332)" fill="#47474B" font-family="'Arial'" font-size="8">45</text>
	<text fid="S-U46" transform="matrix(1 0 0 1 24.522 222.6411)" fill="#47474B" font-family="'Arial'" font-size="8">46</text>
	<text fid="S-U47" transform="matrix(1 0 0 1 17.3916 189.1294)" fill="#47474B" font-family="'Arial'" font-size="10">47</text>
	<text fid="S-U48" transform="matrix(1 0 0 1 19.2666 150.0967)" fill="#47474B" font-family="'Arial'" font-size="10">48</text>
	<text fid="S-U49" transform="matrix(1 0 0 1 28.8521 112.1255)" fill="#47474B" font-family="'Arial'" font-size="10">49</text>
	<text fid="S-U50" transform="matrix(1 0 0 1 48.2363 77.5029)" fill="#47474B" font-family="'Arial'" font-size="10">50</text>
	<text fid="S-U51" transform="matrix(1 0 0 1 73.6035 51.5796)" fill="#47474B" font-family="'Arial'" font-size="10">51</text>
	<text fid="E-M25" transform="matrix(1 0 0 1 514.6016 364.7305)" fill="#47474B" font-family="'Arial'" font-size="10">25</text>
	<text fid="E-M26" transform="matrix(1 0 0 1 496.6523 382.9004)" fill="#47474B" font-family="'Arial'" font-size="10">26</text>
	<text fid="E-M27" transform="matrix(1 0 0 1 477.1172 396.3887)" fill="#47474B" font-family="'Arial'" font-size="10">27</text>
	<text fid="E-M28" transform="matrix(1 0 0 1 452.9766 404.7988)" fill="#47474B" font-family="'Arial'" font-size="10">28</text>
	<text fid="E-M29" transform="matrix(1 0 0 1 427.4658 408.4326)" fill="#47474B" font-family="'Arial'" font-size="10">29</text>
	<text fid="E-M30" transform="matrix(1 0 0 1 398.2676 408.4316)" fill="#47474B" font-family="'Arial'" font-size="10">30</text>
	<text fid="E-M31" transform="matrix(1 0 0 1 368.9629 408.4326)" fill="#47474B" font-family="'Arial'" font-size="10">31</text>
	<text fid="E-M32" transform="matrix(1 0 0 1 339.6914 408.4326)" fill="#47474B" font-family="'Arial'" font-size="10">32</text>
	<text fid="E-M33" transform="matrix(1 0 0 1 310.4419 408.4326)" fill="#47474B" font-family="'Arial'" font-size="10">33</text>
	<text fid="E-M34" transform="matrix(1 0 0 1 281.1831 408.4316)" fill="#47474B" font-family="'Arial'" font-size="10">34</text>
	<text fid="E-M35" transform="matrix(1 0 0 1 251.8882 408.4326)" fill="#47474B" font-family="'Arial'" font-size="10">35</text>
	<text fid="E-M36" transform="matrix(1 0 0 1 222.6172 408.4316)" fill="#47474B" font-family="'Arial'" font-size="10">36</text>
	<text fid="E-M37" transform="matrix(1 0 0 1 193.3965 408.4326)" fill="#47474B" font-family="'Arial'" font-size="10">37</text>
	<text fid="E-M38" transform="matrix(1 0 0 1 167.8677 404.7285)" fill="#47474B" font-family="'Arial'" font-size="10">38</text>
	<text fid="E-M39" transform="matrix(1 0 0 1 146.5728 391.9141)" fill="#47474B" font-family="'Arial'" font-size="10">39</text>
	<text fid="E-U25" transform="matrix(1 0 0 1 562.9336 408.5908)" fill="#47474B" font-family="'Arial'" font-size="10">25</text>
	<text fid="E-U26" transform="matrix(1 0 0 1 543.585 424.6816)" fill="#47474B" font-family="'Arial'" font-size="10">26</text>
	<text fid="E-U27" transform="matrix(1 0 0 1 519.4941 440.5469)" fill="#47474B" font-family="'Arial'" font-size="10">27</text>
	<text fid="E-U28" transform="matrix(1 0 0 1 488.5723 451.957)" fill="#47474B" font-family="'Arial'" font-size="10">28</text>
	<text fid="E-U29" transform="matrix(1 0 0 1 456.1816 456.3242)" fill="#47474B" font-family="'Arial'" font-size="10">29</text>
	<text fid="E-U30" transform="matrix(1 0 0 1 419.1445 456.3301)" fill="#47474B" font-family="'Arial'" font-size="10">30</text>
	<text fid="E-U31" transform="matrix(1 0 0 1 382.707 456.3359)" fill="#47474B" font-family="'Arial'" font-size="10">31</text>
	<text fid="E-U32" transform="matrix(1 0 0 1 346.4043 456.3438)" fill="#47474B" font-family="'Arial'" font-size="10">32</text>
	<text fid="E-U33" transform="matrix(1 0 0 1 310.5811 456.3496)" fill="#47474B" font-family="'Arial'" font-size="10">33</text>
	<text fid="E-U34" transform="matrix(1 0 0 1 275.5166 456.3555)" fill="#47474B" font-family="'Arial'" font-size="10">34</text>
	<text fid="E-U35" transform="matrix(1 0 0 1 239.6694 456.3623)" fill="#47474B" font-family="'Arial'" font-size="10">35</text>
	<text fid="E-U36" transform="matrix(1 0 0 1 203.0728 456.3682)" fill="#47474B" font-family="'Arial'" font-size="10">36</text>
	<text fid="E-U37" transform="matrix(1 0 0 1 166.1387 456.375)" fill="#47474B" font-family="'Arial'" font-size="10">37</text>
	<text fid="E-U38" transform="matrix(1 0 0 1 134.7754 452.0469)" fill="#47474B" font-family="'Arial'" font-size="10">38</text>
	<text fid="E-U39" transform="matrix(1 0 0 1 102.3008 440.1123)" fill="#47474B" font-family="'Arial'" font-size="10">39</text>
</g>
</svg>
