<svg>
<g id="EXTRAS">
	<g>
		<path fill="#CDCCCC" d="M101.288,504.173c-4.954-0.02-9.024-4.057-9.082-9.015l-0.02-1.899h-0.013v-71.765h66.677v82.674h-55.416
			v-0.058l-2.021,0.054L101.288,504.173z"/>
		<path fill="#CDCCCC" d="M312.394,529.13l-0.424-0.007c-4.91-0.06-8.864-3.943-9.005-8.848l-0.008-0.381v-10.879l0.047-1.922
			v-35.331H234.94v5.572l-0.071,1.18c-0.166,7.551-6.21,13.531-13.763,13.617l-1.9,0.02v0.032h-45.851v-81.566h11.639v18.538
			c0,1.449,1.18,2.626,2.625,2.626c1.446,0,2.623-1.179,2.623-2.626v-18.538h11.278v18.589c0,1.447,1.179,2.624,2.625,2.624
			c1.445,0,2.623-1.179,2.623-2.624v-18.589h11.279v18.538c0,1.449,1.178,2.626,2.624,2.626c1.447,0,2.624-1.179,2.624-2.626
			v-18.538h11.637v11.362h12.301v-11.799l0.006-0.121l-0.007-0.067c0.045-0.902,0.793-1.622,1.704-1.622
			c0.941,0,1.703,0.767,1.703,1.709c-0.011,0.019-0.02,0.091-0.025,0.164l-0.008,0.082v11.657h10.325l1.922,0.042h228.561v-13.73
			h19.344v8.993h5.353v-8.993h50.971v29.446l-0.021,0.854c-0.06,4.951-4.139,8.99-9.088,9.005l-1.914,0.005v0.03h-15.874v57.028
			l0.018,0.332c0.005,0.077,0.012,0.154,0.012,0.232c0,3.289-1.551,5.479-9.122,5.479l-2.471-0.037v0.055h-93.77v7.244l-0.007,1.998
			l0.007,0.095c-0.025,4.953-4.065,9.017-9.027,9.067l-0.451,0.004L312.394,529.13L312.394,529.13z"/>
		<path fill="#CDCCCC" d="M1,97.489V40.672l0.054-1.58C1.137,24.69,12.922,12.973,27.322,12.973h1.922l0.002-0.052h88.053v80.611
			l-0.052,1.922v2.034L1,97.489L1,97.489z"/>
		<path fill="#CDCCCC" d="M620.626,346.502l-0.073-238.476h13.844l1.147,0.037c4.966,0.062,9.007,4.15,9.007,9.11
			c0-0.002-0.001-0.004-0.001-0.004c-0.002,0-0.004,0.054-0.004,0.105v1.922h0.041v34.91l2.074-0.165
			c0.244-0.02,0.49-0.04,0.741-0.04c5.006,0,9.081,4.049,9.127,9.042l-0.001,0.162l-0.014,0.095l-0.003,0.099
			c-0.018,0.61-0.096,1.218-0.232,1.805l-0.02,0.094l-22.101,171.186h-0.08l-0.15,1.764c-0.386,4.671-4.351,8.337-9.036,8.356
			L620.626,346.502z"/>
	</g>
	<g>
		<polygon fill="#CDCCCC" points="588.135,48.411 589.728,48.411 590.177,54.559 590.198,54.559 590.855,48.411 593.083,48.411 
			593.738,54.559 593.755,54.559 594.204,48.411 595.798,48.411 594.99,55.615 592.663,55.615 591.975,49.643 591.96,49.643 
			591.269,55.615 588.942,55.615 		"/>
		<path fill="#CDCCCC" d="M596.993,48.411h2.686l1.083,7.204h-1.681l-0.208-1.73h-1.074l-0.211,1.73h-1.681L596.993,48.411z
			 M598.345,49.404h-0.018l-0.388,3.244h0.792L598.345,49.404z"/>
		<path fill="#CDCCCC" d="M601.472,48.411h2.041c1.767,0,2.263,0.368,2.263,1.722v0.863c0,1.097-0.427,1.343-1.121,1.462v0.022
			c0.732,0.16,1.121,0.287,1.121,1.171v1.962h-1.651v-2.059c0-0.296-0.169-0.424-0.725-0.424h-0.276v2.485h-1.653L601.472,48.411
			L601.472,48.411z M603.124,51.894h0.314c0.587,0,0.689-0.155,0.689-0.627v-1.084c0-0.368-0.149-0.541-0.51-0.541h-0.493V51.894
			L603.124,51.894z"/>
		<path fill="#CDCCCC" d="M606.826,48.411h2.034c1.776,0,2.268,0.368,2.268,1.722v0.863c0,1.097-0.426,1.343-1.127,1.462v0.022
			c0.742,0.16,1.127,0.287,1.127,1.171v1.962h-1.652v-2.059c0-0.296-0.167-0.424-0.723-0.424h-0.283v2.485h-1.646L606.826,48.411
			L606.826,48.411z M608.472,51.894h0.32c0.584,0,0.685-0.155,0.685-0.627v-1.084c0-0.368-0.146-0.541-0.503-0.541h-0.501
			L608.472,51.894L608.472,51.894z"/>
		<rect x="612.277" y="48.411" fill="#CDCCCC" width="1.648" height="7.204"/>
		<path fill="#CDCCCC" d="M615.022,49.814c0-1.178,0.757-1.483,2.139-1.483c1.384,0,2.139,0.306,2.139,1.483v4.398
			c0,1.176-0.753,1.481-2.139,1.481c-1.381,0-2.139-0.305-2.139-1.481V49.814z M617.589,49.902c0-0.268-0.12-0.339-0.428-0.339
			c-0.309,0-0.43,0.069-0.43,0.339v4.217c0,0.267,0.121,0.341,0.43,0.341c0.308,0,0.428-0.072,0.428-0.341V49.902z"/>
		<path fill="#CDCCCC" d="M620.292,48.411h2.038c1.774,0,2.271,0.368,2.271,1.722v0.863c0,1.097-0.427,1.343-1.126,1.462v0.022
			c0.737,0.16,1.126,0.287,1.126,1.171v1.962h-1.651v-2.059c0-0.296-0.17-0.424-0.728-0.424h-0.277v2.485h-1.653L620.292,48.411
			L620.292,48.411z M621.945,51.894h0.322c0.581,0,0.684-0.155,0.684-0.627v-1.084c0-0.368-0.148-0.541-0.508-0.541h-0.498V51.894z"
			/>
		<path fill="#CDCCCC" d="M627.04,53.762c0,0.501,0,0.698,0.488,0.698c0.367,0,0.487-0.116,0.487-0.426v-0.773
			c0-0.501-0.107-0.535-0.976-0.741c-1.282-0.31-1.531-0.615-1.531-1.897v-0.44c0-1.684,0.516-1.851,2.087-1.851
			c1.434,0,1.913,0.399,1.913,1.405V50.6h-1.474v-0.345c0-0.64-0.052-0.69-0.464-0.69c-0.44,0-0.474,0.178-0.474,0.518v0.477
			c0,0.461,0.117,0.541,0.61,0.658c1.759,0.456,1.959,0.589,1.959,2.437c0,1.735-0.636,2.04-2.038,2.04
			c-1.79,0-2.118-0.418-2.118-1.851V53.24h1.531L627.04,53.762L627.04,53.762z"/>
		<polygon fill="#CDCCCC" points="584.589,60.353 587.706,60.353 587.706,61.645 586.246,61.645 586.246,63.426 587.576,63.426 
			587.576,64.72 586.246,64.72 586.246,67.552 584.589,67.552 		"/>
		<path fill="#CDCCCC" d="M588.363,61.753c0-1.173,0.757-1.486,2.139-1.486c1.383,0,2.14,0.313,2.14,1.486v4.398
			c0,1.167-0.755,1.48-2.14,1.48c-1.381,0-2.139-0.313-2.139-1.48V61.753z M590.93,61.843c0-0.271-0.122-0.339-0.428-0.339
			c-0.306,0-0.426,0.068-0.426,0.339v4.22c0,0.27,0.12,0.337,0.426,0.337c0.306,0,0.428-0.065,0.428-0.337V61.843z"/>
		<path fill="#CDCCCC" d="M593.536,61.753c0-1.173,0.757-1.486,2.138-1.486c1.385,0,2.14,0.313,2.14,1.486v4.398
			c0,1.167-0.754,1.48-2.14,1.48c-1.381,0-2.138-0.313-2.138-1.48V61.753z M596.102,61.843c0-0.271-0.118-0.339-0.429-0.339
			c-0.306,0-0.426,0.068-0.426,0.339v4.22c0,0.27,0.12,0.337,0.426,0.337c0.31,0,0.429-0.065,0.429-0.337V61.843z"/>
		<path fill="#CDCCCC" d="M598.81,60.353h2.146c1.542,0,2.032,0.334,2.032,2.702v1.809c0,2.366-0.49,2.689-2.032,2.689h-2.146
			V60.353z M600.459,66.255h0.441c0.355,0,0.435-0.158,0.435-0.693v-3.283c0-0.533-0.08-0.696-0.435-0.696h-0.441V66.255z"/>
		<polygon fill="#CDCCCC" points="606.053,60.353 607.742,60.353 608.399,66.68 608.419,66.68 609.077,60.353 610.766,60.353 
			609.813,67.552 607.009,67.552 		"/>
		<rect x="611.544" y="60.353" fill="#CDCCCC" width="1.65" height="7.199"/>
		<polygon fill="#CDCCCC" points="614.388,60.353 616.038,60.353 616.038,66.255 617.643,66.255 617.643,67.552 614.388,67.552 		
			"/>
		<polygon fill="#CDCCCC" points="618.438,60.353 620.088,60.353 620.088,66.255 621.69,66.255 621.69,67.552 618.438,67.552 		"/>
		<path fill="#CDCCCC" d="M623.184,60.353h2.685l1.088,7.199h-1.683l-0.21-1.729h-1.071l-0.211,1.729h-1.679L623.184,60.353z
			 M624.537,61.345h-0.02l-0.388,3.244h0.796L624.537,61.345z"/>
		<path fill="#CDCCCC" d="M627.563,61.753c0-1.173,0.756-1.483,2.138-1.483c1.302,0,2.142,0.22,2.142,1.704v0.701h-1.592v-0.757
			c0-0.323-0.119-0.416-0.539-0.416c-0.316,0-0.434,0.093-0.434,0.445v4.181c0,0.181,0.117,0.27,0.444,0.27
			c0.409,0,0.528-0.089,0.528-0.241v-1.131h-0.505v-1.351h2.099v2.315c0,1.394-0.556,1.643-2.142,1.643
			c-1.382,0-2.138-0.313-2.138-1.48L627.563,61.753L627.563,61.753z"/>
		<polygon fill="#CDCCCC" points="632.833,60.353 636.01,60.353 636.01,61.645 634.486,61.645 634.486,63.228 635.897,63.228 
			635.897,64.462 634.486,64.462 634.486,66.255 636.127,66.255 636.127,67.552 632.833,67.552 		"/>
	</g>
	<rect x="1" y="101.332" fill="#CDCCCC" width="56.202" height="268.857"/>
	<path fill="none" stroke="#FFFFFF" stroke-width="1.517" d="M191.648,92.705"/>
	<path fill="none" stroke="#FFFFFF" stroke-width="1.517" d="M191.648,21.858"/>
	<path fill="none" stroke="#FFFFFF" stroke-width="1.517" d="M244.052,93.371"/>
	<path fill="none" stroke="#FFFFFF" stroke-width="1.517" d="M244.052,22.523"/>
	<path fill="none" stroke="#FFFFFF" stroke-width="1.517" d="M448.594,93.245"/>
	<path fill="none" stroke="#FFFFFF" stroke-width="1.517" d="M500.557,93.501"/>
	<path fill="none" stroke="#FCB918" stroke-width="1.434" stroke-linecap="round" d="M118.569,99.064"/>
	<path fill="none" stroke="#FCB918" stroke-width="1.459" stroke-linecap="round" d="M569.575,186.486"/>
	<path fill="none" stroke="#FCB918" stroke-width="1.459" stroke-linecap="round" d="M569.214,146.089"/>
	<g>
		<path fill="#CDCCCC" d="M84.569,375.817c-1.056,0-1.323,0.521-1.335,1.448v5.716c0.012,0.932,0.279,1.452,1.335,1.452v0.9
			c-1.644,0-2.234-0.619-2.234-3.263v-3.889c0-2.645,0.591-3.265,2.234-3.265V375.817z"/>
		<path fill="#CDCCCC" d="M92.738,382.603c0,2.208-0.692,2.732-3.156,2.732c-2.687,0-3.604-0.503-3.604-3.49v-3.438
			c0-2.982,0.917-3.49,3.604-3.49c2.255,0,3.156,0.298,3.156,2.661v0.735h-0.901v-0.666c0-1.588-0.522-1.741-2.255-1.741
			c-2.319,0-2.62,0.308-2.62,2.56v3.322c0,2.251,0.301,2.561,2.62,2.561c2.052,0,2.255-0.45,2.255-1.841v-0.677h0.901V382.603z"/>
		<polygon fill="#CDCCCC" points="94.196,375.028 95.187,375.028 95.187,384.151 99.475,384.151 99.475,385.224 94.196,385.224 		
			"/>
		<path fill="#CDCCCC" d="M100.716,375.028h0.984v7.885c0,1.098,0.52,1.434,2.327,1.434c1.825,0,2.348-0.338,2.348-1.434v-7.885
			h0.985v7.59c0,2.18-0.915,2.714-3.335,2.714c-2.383,0-3.312-0.536-3.312-2.714L100.716,375.028L100.716,375.028z"/>
		<path fill="#CDCCCC" d="M109.073,375.028h4.012c1.902,0,2.3,0.773,2.3,2.423c0,1.277-0.11,1.983-1.058,2.377v0.027
			c1.115,0.267,1.248,1.025,1.248,2.688c0,1.831-0.543,2.68-2.49,2.68h-4.012V375.028z M110.06,379.449h2.994
			c1.132,0,1.344-0.673,1.344-1.715c0-1.03-0.029-1.719-1.278-1.719h-3.062L110.06,379.449L110.06,379.449z M110.06,384.236h2.819
			c1.521,0,1.72-0.45,1.72-1.9c0-1.455-0.199-1.903-1.72-1.903h-2.819V384.236z"/>
		<polygon fill="#CDCCCC" points="117.157,375.028 118.141,375.028 118.141,379.447 123.039,379.447 123.039,375.028 
			124.04,375.028 124.04,385.224 123.058,385.224 123.058,380.522 118.141,380.522 118.141,385.224 117.157,385.224 		"/>
		<path fill="#CDCCCC" d="M125.614,378.408c0-2.982,0.919-3.495,3.594-3.495c2.671,0,3.582,0.511,3.582,3.495v3.433
			c0,2.985-0.911,3.493-3.582,3.493c-2.675,0-3.594-0.506-3.594-3.493V378.408z M131.81,378.466c0-2.255-0.297-2.563-2.602-2.563
			c-2.313,0-2.61,0.308-2.61,2.563v3.321c0,2.249,0.297,2.56,2.61,2.56c2.305,0,2.602-0.311,2.602-2.56V378.466z"/>
		<path fill="#CDCCCC" d="M134.372,375.028h0.982v7.885c0,1.098,0.523,1.434,2.325,1.434c1.828,0,2.351-0.338,2.351-1.434v-7.885
			h0.982v7.59c0,2.18-0.91,2.714-3.335,2.714c-2.379,0-3.308-0.536-3.308-2.714L134.372,375.028L134.372,375.028z"/>
		<path fill="#CDCCCC" d="M142.49,382.025h0.902v0.59c0,1.522,0.337,1.732,2.257,1.732c1.912,0,2.163-0.098,2.163-2.026
			c0-1.295,0-1.675-2.021-1.844l-1.042-0.085c-1.734-0.141-2.14-0.746-2.14-2.69c0-2.477,0.759-2.789,3.064-2.789
			c2.478,0,2.996,0.511,3.058,2.877h-0.902v-0.229c0-1.336-0.462-1.658-2.154-1.658c-1.933,0-2.082,0.295-2.082,1.799
			c0,1.449,0.253,1.701,2.14,1.83c2.518,0.171,3.069,0.45,3.069,2.931c0,2.407-0.842,2.869-3.14,2.869
			c-2.338,0-3.172-0.462-3.172-2.517V382.025L142.49,382.025z"/>
		<polygon fill="#CDCCCC" points="150.273,375.028 155.739,375.028 155.739,376.015 151.262,376.015 151.262,379.447 
			155.515,379.447 155.515,380.433 151.262,380.433 151.262,384.236 155.712,384.236 155.712,385.224 150.273,385.224 		"/>
		<path fill="#CDCCCC" d="M157.146,384.433c1.059,0,1.325-0.522,1.333-1.452v-5.713c-0.008-0.93-0.274-1.45-1.333-1.45v-0.904
			c1.648,0,2.233,0.622,2.233,3.27v3.887c0,2.646-0.585,3.263-2.233,3.263V384.433z"/>
		<path fill="#CDCCCC" d="M165.156,382.025h0.901v0.59c0,1.522,0.339,1.732,2.25,1.732c1.916,0,2.172-0.098,2.172-2.026
			c0-1.295,0-1.675-2.034-1.844l-1.037-0.085c-1.731-0.141-2.142-0.746-2.142-2.69c0-2.477,0.759-2.789,3.067-2.789
			c2.481,0,3,0.511,3.058,2.877h-0.901v-0.229c0-1.336-0.464-1.658-2.154-1.658c-1.928,0-2.081,0.295-2.081,1.799
			c0,1.449,0.253,1.701,2.139,1.83c2.521,0.171,3.067,0.45,3.067,2.931c0,2.407-0.845,2.869-3.141,2.869
			c-2.334,0-3.163-0.462-3.163-2.517L165.156,382.025L165.156,382.025z"/>
		<polygon fill="#CDCCCC" points="174.965,376.015 172.18,376.015 172.18,375.028 178.74,375.028 178.74,376.015 175.953,376.015 
			175.953,385.221 174.965,385.221 		"/>
		<path fill="#CDCCCC" d="M184.031,383.065h-4.392l-0.66,2.154h-1.029l3.195-10.191h1.383l3.195,10.191h-1.028L184.031,383.065z
			 M181.905,376.015h-0.139l-1.822,6.066h3.778L181.905,376.015z"/>
		<polygon fill="#CDCCCC" points="186.733,375.028 188.301,375.028 192.871,384.151 192.899,384.151 192.899,375.028 
			193.886,375.028 193.886,385.224 192.327,385.224 187.751,376.101 187.719,376.101 187.719,385.224 186.733,385.224 		"/>
		<path fill="#CDCCCC" d="M195.6,375.028h3.903c2.981,0,3.125,1.719,3.125,4.691c0,3.727-0.166,5.505-3.265,5.505h-3.762
			L195.6,375.028L195.6,375.028z M196.588,384.236h3.084c1.635,0,1.972-0.872,1.972-4.111c0-3.349-0.314-4.109-1.972-4.109h-3.084
			V384.236z"/>
		<rect x="204.414" y="375.028" fill="#CDCCCC" width="0.985" height="10.194"/>
		<polygon fill="#CDCCCC" points="207.327,375.028 208.894,375.028 213.467,384.151 213.491,384.151 213.491,375.028 
			214.477,375.028 214.477,385.224 212.919,385.224 208.341,376.101 208.313,376.101 208.313,385.224 207.327,385.224 		"/>
		<path fill="#CDCCCC" d="M219.406,380.208h3.632v2.283c0,2.733-1.198,2.843-3.396,2.843c-2.672,0-3.586-0.506-3.586-3.493v-3.433
			c0-2.982,0.914-3.495,3.586-3.495c2.002,0,3.396,0.172,3.396,2.1v1.028h-0.986v-0.367c0-1.561-0.337-1.771-2.41-1.771
			c-2.308,0-2.597,0.308-2.597,2.563v3.321c0,2.249,0.289,2.56,2.597,2.56c1.962,0,2.41-0.012,2.41-2.14v-1.015h-2.645V380.208z"/>
		<path fill="#CDCCCC" d="M233.832,383.065h-4.387l-0.664,2.154h-1.025l3.195-10.191h1.381l3.189,10.191h-1.025L233.832,383.065z
			 M231.708,376.015h-0.139l-1.822,6.066h3.78L231.708,376.015z"/>
		<path fill="#CDCCCC" d="M236.533,375.028h4.168c1.786,0,2.465,0.62,2.465,2.886c0,1.761-0.367,2.463-1.294,2.703v0.026
			c0.805,0.226,1.126,0.831,1.126,1.789v2.788h-0.987v-2.322c0-1.354-0.38-1.778-1.929-1.778h-2.563v4.101h-0.986V375.028z
			 M237.52,380.14h3.198c1.026,0,1.461-0.649,1.461-2.055c0-1.914-0.258-2.07-1.77-2.07h-2.889V380.14z"/>
		<polygon fill="#CDCCCC" points="244.881,375.028 250.344,375.028 250.344,376.015 245.863,376.015 245.863,379.447 
			250.119,379.447 250.119,380.433 245.863,380.433 245.863,384.236 250.316,384.236 250.316,385.224 244.881,385.224 		"/>
		<path fill="#CDCCCC" d="M257.302,383.065h-4.397l-0.661,2.154h-1.025l3.191-10.191h1.385l3.194,10.191h-1.028L257.302,383.065z
			 M255.174,376.015h-0.142l-1.821,6.066h3.773L255.174,376.015z"/>
	</g>
	<path fill="none" stroke="#FFFFFF" stroke-width="1.517" d="M295.252,93.563"/>
	<path fill="none" stroke="#FFFFFF" stroke-width="1.517" d="M295.252,22.715"/>
	<path fill="none" stroke="#FFFFFF" stroke-width="1.517" d="M346.496,22.476"/>
	<g>
		<path fill="#FFFFFF" d="M97.381,460.363c0,0.497,0,0.697,0.496,0.697c0.366,0,0.48-0.119,0.48-0.426v-0.778
			c0-0.497-0.107-0.526-0.977-0.735c-1.277-0.308-1.528-0.616-1.528-1.899v-0.44c0-1.68,0.514-1.848,2.087-1.848
			c1.433,0,1.908,0.393,1.908,1.397v0.867h-1.475v-0.347c0-0.637-0.044-0.689-0.462-0.689c-0.437,0-0.47,0.181-0.47,0.518v0.476
			c0,0.46,0.122,0.541,0.615,0.658c1.754,0.461,1.953,0.588,1.953,2.438c0,1.732-0.636,2.04-2.038,2.04
			c-1.795,0-2.117-0.416-2.117-1.851v-0.599h1.53v0.518h-0.004V460.363z"/>
		<path fill="#FFFFFF" d="M100.866,456.683c0-1.154,0.439-1.748,1.662-1.748h0.614c1.446,0,1.883,0.395,1.883,1.23v1.314h-1.588
			v-0.945c0-0.219-0.151-0.306-0.423-0.306c-0.285,0-0.438,0.089-0.438,0.306v4.158c0,0.22,0.152,0.309,0.433,0.309
			c0.276,0,0.428-0.091,0.428-0.309v-1.134h1.588v1.061c0,1.274-0.488,1.67-1.883,1.67h-0.614c-1.223,0-1.662-0.605-1.662-1.54
			V456.683z"/>
		<path fill="#FFFFFF" d="M105.939,455.013h2.042c1.771,0,2.267,0.37,2.267,1.719v0.867c0,1.093-0.427,1.345-1.127,1.461v0.022
			c0.737,0.158,1.127,0.288,1.127,1.173v1.96h-1.656v-2.061c0-0.3-0.162-0.427-0.721-0.427h-0.279v2.487h-1.654L105.939,455.013
			L105.939,455.013z M107.593,458.494h0.318c0.584,0,0.682-0.16,0.682-0.626v-1.085c0-0.368-0.146-0.535-0.506-0.535h-0.494V458.494
			z"/>
		<path fill="#FFFFFF" d="M115.421,460.493c0,1.603-0.764,1.799-2.086,1.799c-1.326,0-2.088-0.196-2.088-1.799v-5.48h1.65v5.534
			c0,0.275,0.108,0.455,0.438,0.455c0.328,0,0.437-0.18,0.437-0.455v-5.534h1.649V460.493L115.421,460.493z"/>
		<polygon fill="#FFFFFF" points="117.965,456.126 117.939,456.126 117.939,462.215 116.468,462.215 116.468,455.013 
			119.062,455.013 119.867,460.684 119.888,460.684 120.696,455.013 123.292,455.013 123.292,462.215 121.786,462.215 
			121.85,456.149 121.829,456.149 120.765,462.215 118.875,462.215 		"/>
		<path fill="#FFFFFF" d="M100.315,468.619c0-1.151,0.436-1.748,1.661-1.748h0.615c1.44,0,1.883,0.395,1.883,1.23v1.315h-1.595
			v-0.941c0-0.222-0.149-0.311-0.419-0.311c-0.29,0-0.436,0.089-0.436,0.311v4.154c0,0.22,0.146,0.31,0.425,0.31
			c0.278,0,0.428-0.092,0.428-0.31v-1.135h1.595v1.064c0,1.277-0.493,1.671-1.883,1.671h-0.615c-1.226,0-1.661-0.605-1.661-1.541
			L100.315,468.619L100.315,468.619z"/>
		<polygon fill="#FFFFFF" points="105.388,466.951 107.036,466.951 107.036,472.86 108.646,472.86 108.646,474.156 105.388,474.156 
					"/>
		<path fill="#FFFFFF" d="M113.567,472.435c0,1.603-0.764,1.802-2.091,1.802c-1.325,0-2.088-0.199-2.088-1.802v-5.483h1.654v5.533
			c0,0.276,0.106,0.455,0.434,0.455c0.328,0,0.436-0.179,0.436-0.455v-5.533h1.654V472.435z"/>
		<path fill="#FFFFFF" d="M114.612,466.951h2.435c1.438,0,1.805,0.301,1.805,1.741c0,0.945-0.074,1.542-1.072,1.712v0.02
			c1.021,0.078,1.19,0.805,1.19,1.678c0,1.514-0.353,2.054-1.652,2.054h-2.705V466.951z M116.263,469.886h0.396
			c0.483,0,0.542-0.157,0.542-0.634v-0.442c0-0.467-0.061-0.624-0.542-0.624h-0.414l0.019-0.011V469.886z M116.263,472.921h0.487
			c0.41,0,0.508-0.119,0.508-0.665v-0.54c0-0.535-0.116-0.654-0.508-0.654h-0.487V472.921z"/>
		<path fill="#FFFFFF" d="M98.242,478.89h2.435c1.436,0,1.802,0.298,1.802,1.741c0,0.942-0.068,1.542-1.076,1.712v0.02
			c1.025,0.077,1.19,0.808,1.19,1.681c0,1.515-0.343,2.053-1.646,2.053h-2.705V478.89z M99.889,481.822h0.401
			c0.479,0,0.537-0.158,0.537-0.635v-0.438c0-0.467-0.058-0.627-0.537-0.627h-0.42l0.019-0.013V481.822z M99.889,484.859h0.491
			c0.414,0,0.506-0.122,0.506-0.665v-0.54c0-0.533-0.117-0.657-0.506-0.657h-0.491V484.859z"/>
		<path fill="#FFFFFF" d="M104.29,478.89h2.688l1.081,7.205h-1.685l-0.205-1.732h-1.071l-0.215,1.732h-1.679L104.29,478.89z
			 M105.641,479.886h-0.022l-0.381,3.243h0.795L105.641,479.886z"/>
		<path fill="#FFFFFF" d="M108.763,478.89h2.045c1.769,0,2.268,0.368,2.268,1.719v0.865c0,1.098-0.428,1.344-1.126,1.463v0.021
			c0.738,0.157,1.126,0.291,1.126,1.174v1.962h-1.652v-2.063c0-0.3-0.174-0.426-0.729-0.426h-0.28v2.488h-1.653L108.763,478.89
			L108.763,478.89z M110.416,482.372h0.318c0.587,0,0.69-0.158,0.69-0.629v-1.083c0-0.367-0.15-0.538-0.508-0.538h-0.501V482.372z"
			/>
		<path fill="#FFFFFF" d="M116.427,483.308c0-0.671,0.276-1.222,1.095-1.315c-0.545-0.724-0.746-1.113-0.746-1.69
			c0-1.133,0.351-1.49,1.852-1.49c1.502,0,1.847,0.357,1.847,1.49v0.519h-1.411v-0.42c0-0.338-0.118-0.418-0.458-0.418
			c-0.289,0-0.358,0.119-0.358,0.367c0,0.139,0.05,0.292,0.09,0.35l1.105,1.639h0.021v-0.686h1.292v2.498l0.856,1.222l-1.098,0.798
			c-0.118-0.101-0.205-0.226-0.276-0.381c-0.305,0.28-0.556,0.381-1.341,0.381h-0.728c-1.294,0-1.742-0.47-1.742-1.442
			L116.427,483.308L116.427,483.308z M117.899,484.404c0,0.514,0.08,0.595,0.688,0.595c0.616,0,0.685-0.1,0.685-0.387
			c0-0.07,0-0.109-0.027-0.15l-0.961-1.362c-0.015-0.021-0.048-0.031-0.106-0.031c-0.064,0-0.275,0.063-0.275,0.47L117.899,484.404
			L117.899,484.404z"/>
		<polygon fill="#FFFFFF" points="100.493,490.828 103.608,490.828 103.608,492.122 102.146,492.122 102.146,493.902 
			103.476,493.902 103.476,495.196 102.146,495.196 102.146,498.031 100.493,498.031 		"/>
		<path fill="#FFFFFF" d="M104.267,492.231c0-1.175,0.757-1.483,2.137-1.483c1.381,0,2.14,0.309,2.14,1.483v4.396
			c0,1.174-0.759,1.483-2.14,1.483c-1.38,0-2.137-0.309-2.137-1.483V492.231z M106.834,492.319c0-0.268-0.12-0.337-0.431-0.337
			c-0.308,0-0.425,0.067-0.425,0.337v4.222c0,0.268,0.117,0.339,0.425,0.339c0.311,0,0.431-0.067,0.431-0.339V492.319z"/>
		<path fill="#FFFFFF" d="M109.44,492.231c0-1.175,0.755-1.483,2.138-1.483c1.384,0,2.143,0.309,2.143,1.483v4.396
			c0,1.174-0.758,1.483-2.143,1.483c-1.381,0-2.138-0.309-2.138-1.483V492.231z M112.009,492.319c0-0.268-0.123-0.337-0.431-0.337
			c-0.309,0-0.425,0.067-0.425,0.337v4.222c0,0.268,0.116,0.339,0.425,0.339c0.308,0,0.431-0.067,0.431-0.339V492.319z"/>
		<path fill="#FFFFFF" d="M114.714,490.828h2.147c1.543,0,2.033,0.336,2.033,2.705v1.803c0,2.366-0.49,2.694-2.033,2.694h-2.147
			V490.828z M116.366,496.737h0.437c0.356,0,0.431-0.157,0.431-0.695v-3.284c0-0.537-0.074-0.694-0.431-0.694h-0.437V496.737z"/>
	</g>
	<g>
		<path fill="#FFFFFF" d="M178.182,439.197c0-1.399,0.534-2.125,2.017-2.125h0.746c1.749,0,2.284,0.481,2.284,1.499v1.59h-1.933
			v-1.143c0-0.267-0.183-0.377-0.509-0.377c-0.352,0-0.528,0.108-0.528,0.377v5.041c0,0.265,0.177,0.375,0.514,0.375
			c0.34,0,0.523-0.108,0.523-0.375v-1.375h1.933v1.289c0,1.544-0.593,2.025-2.284,2.025h-0.746c-1.482,0-2.017-0.733-2.017-1.867
			V439.197L178.182,439.197z"/>
		<polygon fill="#FFFFFF" points="184.337,437.17 186.338,437.17 186.338,444.336 188.276,444.336 188.276,445.904 184.337,445.904 
					"/>
		<path fill="#FFFFFF" d="M194.258,443.818c0,1.941-0.934,2.182-2.541,2.182c-1.602,0-2.53-0.241-2.53-2.182v-6.648h2.005v6.706
			c0,0.338,0.126,0.554,0.525,0.554c0.398,0,0.533-0.218,0.533-0.554v-6.706h2.008V443.818L194.258,443.818z"/>
		<path fill="#FFFFFF" d="M195.522,437.17h2.953c1.738,0,2.184,0.362,2.184,2.111c0,1.146-0.084,1.869-1.306,2.073v0.025
			c1.243,0.096,1.452,0.977,1.452,2.041c0,1.828-0.42,2.482-2.004,2.482h-3.279V437.17L195.522,437.17z M197.522,440.729h0.48
			c0.582,0,0.657-0.194,0.657-0.772v-0.531c0-0.566-0.073-0.761-0.657-0.761h-0.506l0.025-0.014V440.729z M197.522,444.406h0.592
			c0.492,0,0.613-0.143,0.613-0.805v-0.652c0-0.652-0.141-0.8-0.613-0.8h-0.592V444.406z"/>
		<polygon fill="#FFFFFF" points="202.01,437.17 204.015,437.17 204.015,440.584 205.168,440.584 205.168,437.17 207.174,437.17 
			207.174,445.904 205.168,445.904 205.168,442.149 204.015,442.149 204.015,445.904 202.01,445.904 		"/>
		<path fill="#FFFFFF" d="M208.38,438.869c0-1.424,0.916-1.797,2.595-1.797c1.678,0,2.594,0.373,2.594,1.797v5.333
			c0,1.424-0.916,1.797-2.594,1.797c-1.679,0-2.595-0.373-2.595-1.797V438.869z M211.492,438.979c0-0.327-0.141-0.409-0.518-0.409
			c-0.373,0-0.515,0.082-0.515,0.409v5.114c0,0.327,0.142,0.412,0.515,0.412c0.377,0,0.518-0.085,0.518-0.412V438.979z"/>
		<path fill="#FFFFFF" d="M219.78,443.818c0,1.941-0.926,2.182-2.53,2.182c-1.608,0-2.535-0.241-2.535-2.182v-6.648h2.004v6.706
			c0,0.338,0.129,0.554,0.531,0.554c0.397,0,0.529-0.218,0.529-0.554v-6.706h2.001V443.818L219.78,443.818z"/>
		<path fill="#FFFFFF" d="M222.738,443.662c0,0.601,0,0.844,0.59,0.844c0.448,0,0.596-0.145,0.596-0.52v-0.941
			c0-0.603-0.137-0.64-1.186-0.896c-1.558-0.371-1.858-0.746-1.858-2.303v-0.53c0-2.04,0.626-2.244,2.537-2.244
			c1.74,0,2.313,0.48,2.313,1.701v1.048h-1.785v-0.421c0-0.77-0.06-0.826-0.567-0.826c-0.53,0-0.563,0.215-0.563,0.624v0.579
			c0,0.554,0.138,0.652,0.73,0.795c2.137,0.552,2.375,0.712,2.375,2.954c0,2.102-0.766,2.473-2.468,2.473
			c-2.171,0-2.571-0.503-2.571-2.242v-0.725h1.858L222.738,443.662L222.738,443.662z"/>
		<polygon fill="#FFFFFF" points="227.083,437.17 230.93,437.17 230.93,438.738 229.088,438.738 229.088,440.657 230.799,440.657 
			230.799,442.149 229.088,442.149 229.088,444.336 231.075,444.336 231.075,445.904 227.083,445.904 		"/>
		<path fill="#FFFFFF" d="M235.237,437.17h2.957c1.736,0,2.183,0.362,2.183,2.111c0,1.146-0.081,1.869-1.303,2.073v0.025
			c1.241,0.096,1.45,0.977,1.45,2.041c0,1.828-0.427,2.482-2.003,2.482h-3.284V437.17z M237.239,440.729h0.485
			c0.581,0,0.653-0.194,0.653-0.772v-0.531c0-0.566-0.072-0.761-0.653-0.761h-0.503l0.02-0.014L237.239,440.729L237.239,440.729z
			 M237.239,444.406h0.593c0.491,0,0.612-0.143,0.612-0.805v-0.652c0-0.652-0.14-0.8-0.612-0.8h-0.593V444.406z"/>
		<path fill="#FFFFFF" d="M242.578,437.17h3.257l1.309,8.735h-2.036l-0.258-2.102h-1.3l-0.254,2.102h-2.039L242.578,437.17z
			 M244.213,438.379h-0.022l-0.473,3.929h0.97L244.213,438.379z"/>
		<path fill="#FFFFFF" d="M248.002,437.17h2.469c2.154,0,2.758,0.448,2.758,2.09v1.048c0,1.328-0.518,1.629-1.363,1.773v0.023
			c0.89,0.194,1.363,0.353,1.363,1.422v2.379h-2.004v-2.498c0-0.365-0.211-0.522-0.88-0.522h-0.343v3.021h-2V437.17z
			 M250.002,441.392h0.39c0.711,0,0.833-0.195,0.833-0.76v-1.313c0-0.447-0.182-0.654-0.615-0.654H250L250.002,441.392
			L250.002,441.392z"/>
	</g>
	<g>
		<path fill="#FFFFFF" d="M12.333,29.364h2.291c0.013,0.799,0.331,0.86,0.993,0.86h2.807c0.49,0,0.983-0.055,0.983-0.626
			c0-0.658-0.267-0.699-3.222-0.699c-3.454,0-3.845-0.414-3.845-2.255c0-1.352,0.123-2.391,3.018-2.391h3.2
			c2.646,0,2.897,0.899,2.897,2.207v0.237h-2.298c0-0.543-0.059-0.774-1.113-0.774h-2.543c-0.516,0-0.865,0.177-0.865,0.579
			c0,0.652,0.278,0.674,2.735,0.662c3.568-0.011,4.393,0.204,4.393,2.389c0,2.013-0.686,2.342-3.732,2.342h-2.779
			c-2.085,0-2.921-0.396-2.921-2.013L12.333,29.364L12.333,29.364z"/>
		<path fill="#FFFFFF" d="M25.184,25.886h-1.984v-1.55h1.984V25.886z M25.184,31.813h-1.984v-5.266h1.984V31.813z"/>
		<polygon fill="#FFFFFF" points="28.291,29.045 26.224,26.547 28.799,26.547 29.807,27.972 30.822,26.547 33.392,26.547 
			31.327,29.045 33.581,31.813 31.069,31.813 29.807,30.037 28.549,31.813 26.037,31.813 		"/>
		<polygon fill="#FFFFFF" points="33.704,26.547 35.871,26.547 37.068,30.39 37.091,30.39 38.475,26.547 40.294,26.547 
			41.678,30.39 41.702,30.39 42.895,26.547 45.066,26.547 43.043,31.813 40.399,31.813 39.397,28.965 39.373,28.965 38.375,31.813 
			35.727,31.813 		"/>
		<path fill="#FFFFFF" d="M45.48,29.965c0-1.438,0.99-1.517,2.911-1.517c1.086,0,1.688,0.029,2.067,0.419v-0.459
			c0-0.519-0.156-0.704-0.933-0.704H48.36c-0.581,0-0.744,0.053-0.764,0.421h-1.923c0-1.424,0.702-1.663,2.377-1.663h2.306
			c1.364,0,2.088,0.656,2.088,1.892v3.462h-1.888v-0.598c-0.545,0.568-0.751,0.682-1.742,0.682h-1.354
			c-1.209,0.009-1.982-0.258-1.982-1.498L45.48,29.965L45.48,29.965z M49.012,30.657c1.362,0,1.487-0.208,1.487-0.563
			c0-0.387-0.113-0.533-1.207-0.533h-0.877c-0.838,0-1.012,0.182-1.012,0.62c0,0.341,0.266,0.476,1.039,0.476H49.012z"/>
		<path fill="#FFFFFF" d="M54.723,32.349h0.168c0.781,0,1.289-0.147,1.289-0.762H55.48l-2.42-5.04h2.149l1.519,3.671l1.518-3.671
			h2.149l-2.956,6.239c-0.308,0.637-0.911,0.866-1.909,0.866c-0.373,0-0.611-0.029-0.81-0.042L54.723,32.349L54.723,32.349z"/>
		<path fill="#FFFFFF" d="M62.958,30.17c0,0.289,0.103,0.487,1.229,0.487h0.701c0.939,0,1.176-0.073,1.176-0.392
			c0-0.306-0.152-0.434-0.857-0.434H63.35c-1.85-0.01-2.393-0.414-2.393-1.858c0-1.313,1.05-1.513,2.413-1.513h1.386
			c2.592,0,3.05,0.366,3.067,1.606h-1.984c-0.103-0.313-0.288-0.364-1.479-0.364c-1.146,0-1.359,0.03-1.359,0.396
			c0,0.227,0.149,0.308,1.186,0.308h1.375c2.376,0,2.549,0.795,2.549,1.734c0,1.394-0.557,1.756-2.818,1.756h-1.883
			c-1.83,0-2.499-0.425-2.499-1.727H62.958z"/>
		<path fill="#FFFFFF" d="M20.497,41.762h2.29c0.015,0.795,0.332,0.857,0.997,0.857h2.809c0.487,0,0.984-0.05,0.984-0.632
			c0-0.647-0.272-0.689-3.229-0.689c-3.447,0-3.842-0.412-3.842-2.254c0-1.353,0.123-2.396,3.018-2.396h3.2
			c2.648,0,2.898,0.9,2.898,2.211v0.24h-2.297c0-0.549-0.061-0.776-1.115-0.776h-2.541c-0.517,0-0.867,0.175-0.867,0.572
			c0,0.658,0.276,0.677,2.738,0.667c3.563-0.011,4.39,0.205,4.39,2.381c0,2.021-0.682,2.351-3.731,2.351h-2.774
			c-2.091,0-2.928-0.396-2.928-2.013V41.762z"/>
		<path fill="#FFFFFF" d="M31.726,40.37h-0.991v-1.424h0.99v-1.242h1.985v1.242h3.075v1.424h-3.074v2.021
			c0,0.396,0.286,0.479,0.763,0.479c0.639,0,0.813-0.146,0.813-0.634v-0.349h1.742v0.643c0,1.003-0.664,1.766-2.243,1.766h-0.787
			c-1.217,0-2.271-0.383-2.271-1.844v-2.081h-0.001V40.37z"/>
		<path fill="#FFFFFF" d="M38.006,40.942c0-1.732,1.167-2.084,2.181-2.084h2.965c1.015,0,2.181,0.353,2.181,2.084v1.265
			c0,1.74-1.167,2.087-2.181,2.087h-2.965c-1.014,0-2.181-0.347-2.181-2.087V40.942z M39.991,41.823
			c0,0.751,0.442,0.981,1.351,0.981h0.473c1.285,0,1.531-0.168,1.531-0.869v-0.721c0-0.702-0.246-0.866-1.531-0.866h-0.473
			c-0.908,0-1.351,0.227-1.351,0.983V41.823z"/>
		<path fill="#FFFFFF" d="M46.559,38.944h1.858v0.999h0.022c0.227-0.835,1.033-1.085,1.931-1.085c1.446,0,2.021,0.62,2.021,2.077
			c0,0.134-0.014,0.279-0.024,0.466h-1.714c0-0.671-0.155-0.995-0.95-0.995c-0.681,0-1.156,0.258-1.156,0.891v2.918h-1.983v-5.271
			H46.559z"/>
		<path fill="#FFFFFF" d="M53.2,41.288c0-1.991,0.992-2.43,2.441-2.43h1.381c2.106,0,2.979,0.44,2.979,2.275v0.886h-4.818v0.319
			c0,0.561,0.394,0.714,1.219,0.714h0.611c1.076,0,1.129-0.29,1.129-0.602h1.861v0.233c0,1.313-1.182,1.609-2.619,1.609h-1.485
			c-1.31,0-2.697-0.248-2.697-2.499L53.2,41.288L53.2,41.288z M58.079,40.842c0-0.631-0.292-0.744-1.451-0.744
			c-1.29,0-1.446,0.113-1.446,0.744H58.079z"/>
	</g>
	<g>
		<polygon fill="#FFFFFF" points="329.041,476.978 331.168,476.978 336.759,490.982 342.243,476.978 345.035,476.978 
			350.452,491.048 356.121,476.978 358.238,476.978 351.87,492.99 349.081,492.99 343.638,478.925 338.198,492.99 335.413,492.99 		
			"/>
		<path fill="#FFFFFF" d="M359.259,486.092c0-4.094,2.835-4.556,5.535-4.556h3.046c3.406,0,5.864,0.86,5.864,4.89v1.262h-12.548
			v0.704c0,2.568,1.243,3.228,4.562,3.228h2.61c2.385,0,3.362-0.308,3.471-2.035h1.904v0.224c0,2.587-2.146,3.362-5.688,3.362
			h-3.449c-2.475,0-5.31-0.466-5.31-4.624L359.259,486.092L359.259,486.092z M371.801,485.384c0-1.151-0.858-2.301-3.961-2.301
			h-2.782c-3.014,0-3.716,0.489-3.899,3.052h10.643V485.384L371.801,485.384z"/>
		<path fill="#FFFFFF" d="M376.268,489.101h1.772v0.554c0,1.393,0.729,1.967,2.675,1.967h4.071c2.851,0,3.763-0.108,3.763-1.791
			v-0.088c0-1.082-0.313-1.681-2.592-1.681h-5.863c-2.677,0-3.666-0.864-3.666-3.008v-0.665c0-1.833,1.041-2.853,5.727-2.853h2.917
			c4.293,0,4.888,1.24,4.888,2.829v0.601h-1.771v-0.111c0-1.724-1.149-1.77-3.226-1.77h-3.316c-2.721,0-3.319,0.268-3.319,1.549
			v0.421c0,0.927,0.314,1.46,2.302,1.46h5.024c2.854,0,4.8,0.288,4.8,3.342v0.043c0,3.164-2.923,3.272-5.245,3.272h-3.502
			c-2.806,0-5.439,0-5.439-3.383V489.101z"/>
		<path fill="#FFFFFF" d="M394.628,483.26h-2.48v-1.546h2.48v-2.68h1.908v2.68h7.539v1.546h-7.539v5.623
			c0,2.102,0.726,2.74,2.804,2.74h0.602c2.521,0,2.92-0.528,2.92-2.897v-0.838h1.543v1.235c0,2.26-0.224,4.048-4.341,4.048h-1.033
			c-3.563,0-4.404-1.724-4.404-3.56L394.628,483.26L394.628,483.26z"/>
		<path fill="#FFFFFF" d="M417.321,487.949h2.038v1.129c0,1.571,0.844,2.322,3.541,2.322h6.718c3.146,0,4.074-0.661,4.074-2.964
			c0-2.012-0.797-2.524-3.494-2.524h-4.113c-6.614,0-8.783-0.396-8.783-4.644c0-3.647,2.169-4.467,6.635-4.467h4.666
			c5.376,0,6.731,1.374,6.731,4.226v0.552h-2.043c-0.044-2.543-0.312-3.009-5.993-3.009h-2.298c-4.184,0-5.665,0.22-5.665,2.855
			c0,1.902,0.593,2.543,3.984,2.543h6.412c4.225,0,5.998,1.216,5.998,3.938v1.037c0,3.94-3.23,4.228-6.438,4.228h-6.016
			c-3.169,0-5.955-0.554-5.955-4.051L417.321,487.949L417.321,487.949z"/>
		<path fill="#FFFFFF" d="M440.235,483.26h-2.475v-1.546h2.475v-2.68h1.903v2.68h7.545v1.546h-7.545v5.623
			c0,2.102,0.732,2.74,2.809,2.74h0.601c2.521,0,2.92-0.528,2.92-2.897v-0.838h1.548v1.235c0,2.26-0.221,4.048-4.336,4.048h-1.04
			c-3.563,0-4.405-1.724-4.405-3.56L440.235,483.26L440.235,483.26z"/>
		<path fill="#FFFFFF" d="M463.995,491.865h-0.045c-0.507,1.02-1.102,1.304-4.022,1.304h-4.561c-2.872,0-3.625-1.26-3.625-3.383
			v-0.75c0-2.566,1.81-2.877,5.131-2.877h3.058c2.469,0,3.357,0.264,4.021,1.349h0.044v-2.123c0-2.034-1.281-2.301-4.199-2.301
			h-2.793c-2.382,0-2.85,0.577-2.85,1.505v0.396h-1.903v-0.552c0-2.058,1.303-2.898,4.715-2.898h3.005
			c3.544,0,5.929,0.53,5.929,3.893v7.562h-1.901v-1.125L463.995,491.865L463.995,491.865z M463.995,489.457
			c0-1.55-1.37-1.75-4.293-1.75h-2.917c-2.461,0-3.143,0.354-3.143,1.769v0.355c0,1.262,0.443,1.791,3.052,1.791h2.523
			c3.452,0,4.778-0.24,4.778-1.658V489.457L463.995,489.457z"/>
		<path fill="#FFFFFF" d="M469.261,481.713h1.773v1.945h0.039c0.708-1.745,2.193-2.123,4.557-2.123h2.853
			c3.567,0,4.695,1.791,4.695,3.828v7.626h-1.905v-7.163c0-1.66-0.463-2.742-4.155-2.742h-0.491c-4.444,0-5.46,0.842-5.46,3.497
			v6.41h-1.902L469.261,481.713L469.261,481.713z"/>
		<path fill="#FFFFFF" d="M500.668,492.993h-1.773v-1.792h-0.037c-0.554,1.374-2.104,1.972-4.091,1.972h-2.657
			c-3.451,0-5.86-0.865-5.86-4.756v-1.99c0-3.608,1.397-4.89,5.969-4.89h2.9c2.167,0,3.208,0.51,3.606,1.682h0.046v-6.238h1.898
			V492.993z M488.149,488.392c0,2.191,0.686,3.228,3.784,3.228h3.096c2.835,0,3.743-1.193,3.743-3.249v-2.148
			c0-2.697-1.572-3.14-4.138-3.14h-2.57c-2.609,0-3.914,0.489-3.914,3.096L488.149,488.392L488.149,488.392z"/>
	</g>
	<g>
		<path fill="#CDCCCC" d="M249.983,17.844v-16.5h16.5v1.719h-14.438v5.5h13.75v1.719h-13.75v5.844h14.438v1.719H249.983z"/>
		<path fill="#CDCCCC" d="M280.867,16.146c-0.021,0.086-0.183,0.301-0.483,0.645c-0.215,0.258-0.501,0.485-0.859,0.682
			c-0.358,0.197-0.836,0.351-1.434,0.462c-0.598,0.111-1.384,0.167-2.358,0.167c-1.296,0-2.403-0.066-3.319-0.199
			c-0.917-0.132-1.665-0.336-2.245-0.612c-0.58-0.275-1.004-0.628-1.273-1.058s-0.403-0.941-0.403-1.536
			c0-0.623,0.073-1.151,0.22-1.584c0.146-0.433,0.361-0.796,0.645-1.09c0.283-0.293,0.625-0.522,1.026-0.688
			c0.401-0.165,0.857-0.29,1.37-0.376c0.512-0.086,1.072-0.14,1.681-0.161c0.608-0.021,1.257-0.032,1.944-0.032
			c0.981,0,1.801,0.042,2.46,0.124c0.659,0.083,1.198,0.187,1.617,0.312c0.419,0.125,0.736,0.26,0.951,0.403
			c0.215,0.144,0.369,0.276,0.462,0.397c0-0.802-0.034-1.486-0.102-2.052c-0.068-0.565-0.179-1.038-0.333-1.418
			c-0.154-0.379-0.353-0.682-0.596-0.908c-0.244-0.226-0.542-0.396-0.897-0.51c-0.354-0.114-0.768-0.188-1.241-0.22
			s-1.014-0.048-1.622-0.048c-0.945,0-1.729,0.023-2.353,0.07c-0.623,0.047-1.117,0.138-1.482,0.274
			c-0.365,0.136-0.623,0.324-0.773,0.564c-0.15,0.24-0.226,0.553-0.226,0.94h-2.063c0-0.651,0.116-1.203,0.349-1.654
			c0.232-0.451,0.619-0.818,1.16-1.101c0.541-0.283,1.251-0.489,2.132-0.618s1.966-0.193,3.255-0.193
			c1.26,0,2.327,0.104,3.201,0.312c0.874,0.208,1.581,0.573,2.122,1.096c0.541,0.523,0.931,1.227,1.171,2.111
			c0.24,0.885,0.36,2.003,0.36,3.357v5.844h-2.063V16.146z M276.076,16.383c0.909,0,1.67-0.042,2.283-0.127
			c0.612-0.085,1.104-0.212,1.477-0.382c0.372-0.169,0.637-0.381,0.795-0.636c0.157-0.254,0.236-0.551,0.236-0.89
			c0-0.339-0.091-0.626-0.274-0.863s-0.487-0.429-0.913-0.578c-0.426-0.148-0.99-0.256-1.692-0.323
			c-0.702-0.067-1.568-0.101-2.6-0.101s-1.864,0.018-2.498,0.053c-0.634,0.035-1.123,0.116-1.466,0.244
			c-0.344,0.127-0.575,0.314-0.693,0.562s-0.177,0.583-0.177,1.006c0,0.424,0.063,0.769,0.188,1.034
			c0.125,0.265,0.381,0.471,0.768,0.62s0.943,0.249,1.67,0.302C273.908,16.356,274.873,16.383,276.076,16.383z"/>
		<path fill="#CDCCCC" d="M290.331,12.161c-0.738-0.028-1.374-0.087-1.907-0.177c-0.534-0.089-0.978-0.216-1.332-0.381
			c-0.354-0.165-0.636-0.385-0.843-0.661c-0.208-0.275-0.354-0.616-0.44-1.021c-0.086-0.404-0.129-0.843-0.129-1.316
			c0-0.645,0.136-1.187,0.408-1.627c0.272-0.44,0.709-0.798,1.311-1.074C288,5.628,288.78,5.43,289.74,5.308
			c0.959-0.122,2.127-0.183,3.502-0.183c1.36,0,2.483,0.072,3.368,0.215c0.884,0.144,1.586,0.364,2.105,0.661
			c0.519,0.297,0.882,0.671,1.09,1.123c0.208,0.451,0.312,0.988,0.312,1.611h-2.063c0-0.387-0.074-0.702-0.22-0.945
			c-0.147-0.243-0.403-0.435-0.768-0.575s-0.858-0.236-1.477-0.29c-0.62-0.054-1.402-0.081-2.347-0.081
			c-1.031,0-1.898,0.015-2.6,0.043c-0.702,0.029-1.268,0.101-1.697,0.215c-0.43,0.115-0.738,0.29-0.924,0.526
			c-0.187,0.236-0.279,0.563-0.279,0.978c0,0.244,0.016,0.482,0.048,0.714c0.032,0.233,0.105,0.424,0.22,0.575
			c0.114,0.15,0.283,0.265,0.505,0.344c0.222,0.079,0.524,0.138,0.908,0.177c0.383,0.04,0.857,0.061,1.423,0.064
			c0.565,0.004,1.25,0.005,2.052,0.005c0.974,0,1.828,0.021,2.562,0.064c0.734,0.043,1.37,0.118,1.907,0.226
			s0.981,0.272,1.332,0.494c0.351,0.222,0.632,0.464,0.843,0.725c0.211,0.262,0.36,0.569,0.446,0.924s0.129,0.765,0.129,1.23
			c0,0.466-0.043,0.883-0.129,1.251c-0.086,0.369-0.236,0.695-0.451,0.978c-0.215,0.283-0.507,0.526-0.875,0.73
			c-0.369,0.204-0.833,0.369-1.391,0.494c-0.559,0.125-1.227,0.219-2.003,0.279c-0.777,0.061-1.681,0.091-2.712,0.091
			c-1.289,0-2.373-0.064-3.25-0.193c-0.877-0.129-1.584-0.334-2.122-0.618c-0.537-0.283-0.922-0.65-1.155-1.101
			c-0.233-0.451-0.349-1.002-0.349-1.654h2.063c0,0.43,0.073,0.779,0.22,1.047c0.146,0.269,0.403,0.478,0.768,0.628
			s0.857,0.252,1.477,0.306c0.619,0.054,1.402,0.081,2.347,0.081c0.859,0,1.591-0.02,2.197-0.059
			c0.605-0.039,1.112-0.102,1.52-0.188s0.73-0.189,0.967-0.312c0.236-0.122,0.415-0.269,0.537-0.44
			c0.122-0.172,0.199-0.363,0.231-0.575c0.032-0.211,0.048-0.446,0.048-0.704c0-0.236-0.016-0.446-0.048-0.628
			s-0.106-0.365-0.22-0.548c-0.115-0.183-0.283-0.32-0.505-0.414c-0.222-0.093-0.525-0.17-0.908-0.231
			c-0.383-0.061-0.858-0.104-1.423-0.129c-0.566-0.025-1.25-0.038-2.052-0.038C291.924,12.204,291.068,12.19,290.331,12.161z"/>
		<path fill="#CDCCCC" d="M314.898,12.344c0,1.053-0.086,1.932-0.258,2.637c-0.172,0.706-0.46,1.27-0.865,1.692
			c-0.405,0.423-0.937,0.724-1.595,0.902c-0.659,0.179-1.472,0.269-2.438,0.269c-0.938,0-1.726-0.071-2.363-0.214
			c-0.638-0.143-1.153-0.386-1.547-0.729c-0.394-0.343-0.677-0.8-0.849-1.372s-0.258-1.287-0.258-2.144V7.188h-2.546V5.469h2.546
			V2.106h2.063v3.362h7.767v1.719h-7.767v6.194c0,0.686,0.052,1.215,0.156,1.586c0.104,0.372,0.27,0.643,0.5,0.814
			c0.229,0.171,0.532,0.271,0.908,0.3c0.376,0.029,0.836,0.043,1.38,0.043c0.43,0,0.814-0.007,1.155-0.021
			c0.34-0.014,0.637-0.059,0.892-0.134c0.254-0.075,0.471-0.189,0.65-0.344c0.179-0.154,0.324-0.371,0.435-0.65
			c0.111-0.279,0.191-0.632,0.242-1.058c0.05-0.426,0.075-0.951,0.075-1.574H314.898z"/>
		<path fill="#CDCCCC" d="M333.547,8.563c1.132,0,2.102,0.047,2.911,0.14c0.81,0.094,1.491,0.232,2.046,0.416
			c0.556,0.184,0.998,0.412,1.327,0.685c0.329,0.273,0.584,0.584,0.763,0.934c0.179,0.349,0.295,0.739,0.35,1.17
			c0.053,0.432,0.08,0.899,0.08,1.403c0,0.499-0.045,0.968-0.135,1.407c-0.089,0.438-0.248,0.839-0.478,1.203
			s-0.541,0.688-0.935,0.974c-0.394,0.285-0.896,0.527-1.504,0.728c-0.608,0.2-1.341,0.351-2.197,0.454
			c-0.855,0.104-1.856,0.155-3.002,0.155h-2.75c-1.031,0-1.934-0.04-2.707-0.118c-0.773-0.079-1.439-0.199-1.998-0.36
			s-1.021-0.365-1.386-0.612s-0.657-0.537-0.876-0.87c-0.218-0.333-0.37-0.712-0.456-1.139c-0.086-0.426-0.129-0.897-0.129-1.413
			h2.063c0,0.655,0.093,1.167,0.279,1.538c0.187,0.371,0.494,0.649,0.924,0.835s0.993,0.302,1.692,0.349
			c0.697,0.047,1.563,0.071,2.594,0.071h2.75c1.203,0,2.202-0.058,2.997-0.173c0.795-0.116,1.429-0.299,1.901-0.552
			s0.806-0.582,0.999-0.99s0.29-0.903,0.29-1.487c0-0.584-0.066-1.071-0.199-1.46c-0.132-0.39-0.394-0.699-0.783-0.93
			c-0.391-0.23-0.94-0.395-1.649-0.492s-1.637-0.146-2.782-0.146h-2.836c-1.261,0-2.34-0.046-3.238-0.14
			c-0.899-0.093-1.653-0.227-2.262-0.403c-0.608-0.175-1.096-0.394-1.461-0.655c-0.365-0.261-0.643-0.56-0.832-0.897
			c-0.19-0.336-0.313-0.71-0.371-1.123c-0.058-0.412-0.086-0.857-0.086-1.337c0-0.501,0.045-0.967,0.135-1.396
			c0.089-0.43,0.256-0.818,0.499-1.166c0.243-0.347,0.576-0.657,0.999-0.929c0.423-0.272,0.965-0.5,1.627-0.682
			c0.663-0.183,1.46-0.32,2.391-0.414c0.931-0.093,2.026-0.14,3.287-0.14h2.063c1.031,0,1.934,0.038,2.707,0.113
			s1.439,0.193,1.998,0.354s1.022,0.362,1.391,0.602c0.369,0.24,0.663,0.526,0.881,0.859c0.219,0.333,0.371,0.711,0.457,1.133
			c0.086,0.423,0.129,0.892,0.129,1.407h-2.063c0-0.645-0.093-1.149-0.279-1.515s-0.494-0.639-0.924-0.822s-0.995-0.297-1.697-0.344
			c-0.702-0.046-1.568-0.07-2.6-0.07h-2.063c-1.375,0-2.507,0.048-3.395,0.145s-1.59,0.26-2.105,0.489
			c-0.516,0.229-0.874,0.537-1.074,0.924s-0.301,0.87-0.301,1.45c0,0.358,0.025,0.677,0.075,0.956s0.152,0.525,0.306,0.736
			c0.154,0.211,0.371,0.389,0.65,0.532c0.279,0.144,0.648,0.262,1.106,0.354c0.458,0.093,1.019,0.16,1.681,0.199
			c0.663,0.04,1.452,0.059,2.369,0.059H333.547z"/>
		<path fill="#CDCCCC" d="M355.805,12.344c0,1.053-0.086,1.932-0.258,2.637c-0.172,0.706-0.46,1.27-0.865,1.692
			c-0.404,0.423-0.936,0.724-1.595,0.902c-0.659,0.179-1.472,0.269-2.438,0.269c-0.938,0-1.726-0.071-2.363-0.214
			s-1.153-0.386-1.547-0.729c-0.394-0.343-0.677-0.8-0.849-1.372s-0.258-1.287-0.258-2.144V7.188h-2.546V5.469h2.546V2.106h2.063
			v3.362h7.767v1.719h-7.767v6.194c0,0.686,0.052,1.215,0.155,1.586c0.104,0.372,0.271,0.643,0.5,0.814s0.531,0.271,0.908,0.3
			c0.375,0.029,0.836,0.043,1.38,0.043c0.43,0,0.814-0.007,1.155-0.021c0.34-0.014,0.637-0.059,0.891-0.134
			c0.255-0.075,0.472-0.189,0.65-0.344c0.179-0.154,0.324-0.371,0.436-0.65c0.11-0.279,0.191-0.632,0.241-1.058
			c0.05-0.426,0.075-0.951,0.075-1.574H355.805z"/>
		<path fill="#CDCCCC" d="M370.188,16.146c-0.021,0.086-0.183,0.301-0.483,0.645c-0.215,0.258-0.501,0.485-0.859,0.682
			c-0.358,0.197-0.836,0.351-1.434,0.462c-0.599,0.111-1.385,0.167-2.358,0.167c-1.296,0-2.402-0.066-3.319-0.199
			s-1.665-0.336-2.245-0.612c-0.58-0.275-1.005-0.628-1.272-1.058c-0.27-0.43-0.403-0.941-0.403-1.536
			c0-0.623,0.073-1.151,0.22-1.584c0.147-0.433,0.362-0.796,0.645-1.09c0.283-0.293,0.625-0.522,1.026-0.688
			c0.401-0.165,0.857-0.29,1.37-0.376c0.512-0.086,1.072-0.14,1.681-0.161s1.257-0.032,1.944-0.032c0.981,0,1.801,0.042,2.46,0.124
			c0.659,0.083,1.198,0.187,1.616,0.312c0.42,0.125,0.736,0.26,0.951,0.403c0.215,0.144,0.369,0.276,0.462,0.397
			c0-0.802-0.034-1.486-0.103-2.052c-0.067-0.565-0.179-1.038-0.332-1.418c-0.154-0.379-0.354-0.682-0.597-0.908
			s-0.542-0.396-0.897-0.51c-0.354-0.114-0.768-0.188-1.24-0.22s-1.014-0.048-1.622-0.048c-0.945,0-1.729,0.023-2.353,0.07
			c-0.623,0.047-1.117,0.138-1.482,0.274c-0.365,0.136-0.623,0.324-0.773,0.564c-0.15,0.24-0.226,0.553-0.226,0.94h-2.063
			c0-0.651,0.116-1.203,0.349-1.654c0.233-0.451,0.62-0.818,1.16-1.101c0.541-0.283,1.252-0.489,2.133-0.618
			s1.966-0.193,3.255-0.193c1.261,0,2.327,0.104,3.201,0.312c0.874,0.208,1.581,0.573,2.122,1.096
			c0.54,0.523,0.931,1.227,1.17,2.111c0.24,0.885,0.36,2.003,0.36,3.357v5.844h-2.063V16.146z M365.397,16.383
			c0.909,0,1.671-0.042,2.282-0.127c0.613-0.085,1.105-0.212,1.478-0.382c0.372-0.169,0.638-0.381,0.795-0.636
			c0.157-0.254,0.236-0.551,0.236-0.89c0-0.339-0.091-0.626-0.274-0.863c-0.182-0.237-0.486-0.429-0.912-0.578
			c-0.427-0.148-0.99-0.256-1.692-0.323c-0.702-0.067-1.568-0.101-2.6-0.101s-1.864,0.018-2.497,0.053
			c-0.635,0.035-1.123,0.116-1.467,0.244c-0.344,0.127-0.574,0.314-0.693,0.562c-0.117,0.247-0.177,0.583-0.177,1.006
			c0,0.424,0.063,0.769,0.188,1.034c0.125,0.265,0.381,0.471,0.768,0.62s0.943,0.249,1.67,0.302
			C363.229,16.356,364.194,16.383,365.397,16.383z"/>
		<path fill="#CDCCCC" d="M387.376,17.844v-6.875c0-0.766-0.058-1.413-0.172-1.939s-0.344-0.951-0.688-1.273
			s-0.831-0.555-1.461-0.698c-0.63-0.143-1.461-0.215-2.492-0.215c-1.117,0-2.032,0.083-2.744,0.247
			c-0.713,0.165-1.273,0.397-1.682,0.698s-0.689,0.663-0.844,1.085c-0.153,0.423-0.23,0.892-0.23,1.407v7.563h-2.063V5.469h2.063
			v2.063c0.15-0.351,0.365-0.653,0.645-0.908c0.279-0.254,0.595-0.471,0.945-0.65c0.351-0.179,0.73-0.324,1.139-0.435
			c0.408-0.111,0.816-0.197,1.225-0.258c0.408-0.061,0.804-0.102,1.188-0.124c0.383-0.021,0.731-0.032,1.047-0.032
			c0.917,0,1.706,0.058,2.369,0.172c0.662,0.115,1.225,0.283,1.686,0.505c0.463,0.222,0.833,0.498,1.112,0.827
			c0.279,0.33,0.496,0.711,0.649,1.144c0.154,0.434,0.257,0.917,0.307,1.45c0.05,0.534,0.075,1.116,0.075,1.746l-0.011,6.875
			H387.376z"/>
		<path fill="#CDCCCC" d="M399.418,18.08c-1.375,0-2.542-0.101-3.502-0.303s-1.74-0.549-2.342-1.04
			c-0.602-0.491-1.038-1.152-1.311-1.982s-0.408-1.874-0.408-3.13c0-1.278,0.136-2.337,0.408-3.175
			c0.272-0.838,0.709-1.502,1.311-1.992c0.602-0.49,1.382-0.834,2.342-1.034c0.96-0.199,2.127-0.298,3.502-0.298
			c0.974,0,1.79,0.05,2.449,0.15c0.659,0.101,1.197,0.226,1.617,0.376c0.418,0.15,0.737,0.313,0.955,0.489
			c0.219,0.176,0.378,0.338,0.479,0.489V1.344h2.063v16.5h-2.063v-1.939l-0.516,0.643c-0.301,0.308-0.634,0.556-0.999,0.744
			s-0.877,0.366-1.536,0.536C401.208,17.996,400.392,18.08,399.418,18.08z M399.418,16.361c0.688,0,1.3-0.016,1.837-0.048
			s1.01-0.101,1.418-0.207s0.754-0.264,1.036-0.473c0.283-0.209,0.515-0.487,0.693-0.834c0.179-0.347,0.31-0.777,0.393-1.291
			c0.082-0.513,0.123-1.131,0.123-1.854c0-0.751-0.041-1.39-0.123-1.917c-0.083-0.527-0.214-0.97-0.393-1.328
			s-0.41-0.639-0.693-0.844c-0.282-0.206-0.628-0.363-1.036-0.473s-0.881-0.179-1.418-0.207s-1.149-0.042-1.837-0.042
			c-0.802,0-1.495,0.025-2.078,0.074c-0.584,0.05-1.08,0.138-1.488,0.266s-0.739,0.305-0.994,0.531
			c-0.254,0.227-0.451,0.517-0.59,0.871c-0.141,0.354-0.233,0.781-0.279,1.28c-0.047,0.5-0.07,1.085-0.07,1.758
			c0,0.666,0.023,1.245,0.07,1.736c0.046,0.492,0.139,0.914,0.279,1.264c0.139,0.351,0.336,0.639,0.59,0.866
			c0.255,0.227,0.586,0.404,0.994,0.531s0.904,0.216,1.488,0.266C397.923,16.336,398.616,16.361,399.418,16.361z"/>
	</g>
	<g>
		<path fill="#FFFFFF" d="M22.389,318.027v1.969H6.639v-3.456l13.781-14.438H6.639v-1.969h15.75v2.625L8.279,318.027H22.389z"/>
		<path fill="#FFFFFF" d="M16.35,297.181c-1.2,0-2.193-0.129-2.98-0.389c-0.786-0.26-1.41-0.678-1.871-1.252
			s-0.785-1.318-0.971-2.234s-0.28-2.031-0.28-3.344s0.093-2.426,0.28-3.342s0.51-1.662,0.971-2.236s1.085-0.99,1.871-1.25
			c0.787-0.26,1.78-0.391,2.98-0.391c1.22,0,2.233,0.131,3.039,0.391s1.447,0.676,1.923,1.25s0.811,1.32,1.008,2.236
			c0.196,0.916,0.294,2.029,0.294,3.342s-0.098,2.428-0.294,3.344c-0.197,0.916-0.532,1.66-1.008,2.234s-1.117,0.992-1.923,1.252
			S17.57,297.181,16.35,297.181z M16.35,295.212c0.649,0,1.213-0.023,1.693-0.071s0.892-0.138,1.237-0.272
			c0.345-0.133,0.625-0.318,0.842-0.559c0.216-0.238,0.389-0.553,0.517-0.943c0.128-0.389,0.216-0.862,0.264-1.42
			c0.047-0.557,0.071-1.219,0.071-1.984c0-0.656-0.015-1.242-0.046-1.758c-0.03-0.516-0.1-0.967-0.208-1.354
			c-0.108-0.387-0.262-0.717-0.461-0.99s-0.471-0.493-0.816-0.66c-0.345-0.168-0.769-0.291-1.272-0.369
			c-0.503-0.079-1.11-0.119-1.82-0.119c-0.696,0-1.29,0.04-1.78,0.119c-0.49,0.078-0.9,0.201-1.231,0.369
			c-0.332,0.167-0.593,0.387-0.786,0.66c-0.192,0.273-0.338,0.604-0.436,0.99s-0.161,0.838-0.188,1.354s-0.041,1.102-0.041,1.758
			s0.014,1.243,0.041,1.76c0.027,0.516,0.089,0.967,0.188,1.354c0.098,0.386,0.244,0.715,0.436,0.988
			c0.193,0.273,0.455,0.494,0.786,0.662c0.331,0.168,0.742,0.291,1.231,0.369C15.061,295.173,15.654,295.212,16.35,295.212z"/>
		<path fill="#FFFFFF" d="M14.421,270.274c-0.492,0-0.9,0.037-1.225,0.107c-0.325,0.072-0.585,0.242-0.779,0.508
			c-0.195,0.268-0.332,0.662-0.41,1.186c-0.079,0.521-0.118,1.234-0.118,2.137c0,0.883,0.077,1.6,0.23,2.154
			c0.154,0.553,0.371,0.987,0.651,1.302s0.615,0.528,1.005,0.642c0.39,0.111,0.824,0.168,1.302,0.168h7.311v1.969H10.576v-1.969
			h1.876c-0.212-0.068-0.446-0.194-0.703-0.379c-0.256-0.185-0.495-0.465-0.718-0.841c-0.222-0.376-0.408-0.862-0.559-1.462
			c-0.15-0.598-0.226-1.344-0.226-2.24c0-1.025,0.091-1.859,0.271-2.502c0.182-0.643,0.448-1.143,0.8-1.502
			c0.353-0.359,0.788-0.601,1.308-0.728c0.52-0.126,1.118-0.189,1.794-0.189V270.274z"/>
		<path fill="#FFFFFF" d="M17.139,255.837c1.005,0,1.844,0.082,2.518,0.246s1.211,0.439,1.615,0.825
			c0.403,0.387,0.69,0.894,0.861,1.523s0.256,1.405,0.256,2.328c0,0.896-0.068,1.647-0.205,2.256s-0.368,1.101-0.696,1.477
			s-0.764,0.646-1.31,0.81c-0.545,0.164-1.228,0.246-2.046,0.246h-5.915v2.43h-1.641v-2.43H7.367v-1.969h3.209v-7.414h1.641v7.414
			h5.913c0.655,0,1.159-0.049,1.514-0.149c0.354-0.099,0.614-0.258,0.777-0.477s0.259-0.508,0.286-0.866
			c0.027-0.359,0.041-0.798,0.041-1.318c0-0.41-0.007-0.777-0.021-1.102s-0.057-0.608-0.128-0.852
			c-0.072-0.242-0.181-0.449-0.328-0.62s-0.354-0.309-0.621-0.415s-0.603-0.183-1.01-0.231c-0.406-0.048-0.907-0.072-1.502-0.072
			V255.837z"/>
		<path fill="#FFFFFF" d="M22.389,241.4h-6.665c-0.711,0-1.311,0.055-1.8,0.164c-0.488,0.109-0.883,0.328-1.184,0.656
			s-0.518,0.793-0.651,1.395c-0.134,0.602-0.2,1.395-0.2,2.379c0,1.066,0.077,1.94,0.23,2.62c0.154,0.68,0.369,1.215,0.646,1.604
			c0.276,0.39,0.61,0.658,1,0.805c0.39,0.147,0.824,0.221,1.302,0.221h7.321v1.969H6.639v-1.969h5.804
			c-0.321-0.137-0.598-0.332-0.831-0.584s-0.431-0.545-0.595-0.876s-0.295-0.689-0.395-1.072c-0.099-0.383-0.176-0.771-0.23-1.164
			s-0.092-0.779-0.113-1.159c-0.021-0.379-0.031-0.729-0.031-1.051c0-0.875,0.053-1.628,0.159-2.261s0.263-1.169,0.472-1.61
			c0.208-0.44,0.466-0.794,0.774-1.061s0.665-0.473,1.072-0.621c0.407-0.146,0.861-0.244,1.363-0.292
			c0.503-0.048,1.048-0.072,1.636-0.072l6.665,0.01V241.4z"/>
		<path fill="#FFFFFF" d="M13.529,221.62c0-1.08,0.045-2.006,0.134-2.779c0.089-0.772,0.222-1.423,0.396-1.954
			c0.175-0.529,0.394-0.952,0.654-1.266s0.558-0.557,0.891-0.728s0.706-0.282,1.118-0.333c0.412-0.052,0.858-0.077,1.339-0.077
			c0.477,0,0.924,0.043,1.343,0.128c0.418,0.086,0.801,0.238,1.148,0.457s0.657,0.516,0.929,0.892s0.504,0.854,0.694,1.436
			c0.191,0.581,0.335,1.28,0.434,2.097c0.099,0.817,0.148,1.772,0.148,2.866v2.625c0,0.984-0.038,1.846-0.113,2.584
			s-0.19,1.374-0.343,1.907c-0.154,0.533-0.349,0.974-0.585,1.323c-0.235,0.349-0.513,0.627-0.83,0.835
			c-0.318,0.209-0.68,0.354-1.087,0.436s-0.856,0.123-1.349,0.123v-1.969c0.625,0,1.114-0.089,1.468-0.267s0.62-0.472,0.797-0.882
			s0.288-0.949,0.333-1.615c0.045-0.667,0.067-1.492,0.067-2.477v-2.625c0-1.148-0.055-2.102-0.165-2.861
			c-0.11-0.759-0.286-1.364-0.527-1.815c-0.241-0.451-0.556-0.769-0.944-0.954c-0.389-0.185-0.862-0.277-1.42-0.277
			s-1.022,0.063-1.394,0.189c-0.372,0.127-0.667,0.376-0.888,0.749s-0.377,0.897-0.47,1.574c-0.093,0.677-0.139,1.562-0.139,2.656
			v2.707c0,1.203-0.044,2.234-0.133,3.092s-0.217,1.577-0.384,2.158s-0.376,1.046-0.626,1.395c-0.249,0.349-0.535,0.614-0.856,0.795
			s-0.678,0.299-1.072,0.354c-0.393,0.055-0.818,0.082-1.276,0.082c-0.479,0-0.923-0.042-1.333-0.128s-0.781-0.245-1.112-0.477
			s-0.627-0.55-0.887-0.954s-0.477-0.921-0.651-1.554c-0.175-0.632-0.306-1.393-0.395-2.281s-0.133-1.935-0.133-3.138v-1.969
			c0-0.984,0.036-1.846,0.107-2.584c0.072-0.738,0.185-1.374,0.339-1.907c0.153-0.533,0.345-0.976,0.574-1.328
			c0.229-0.352,0.502-0.632,0.82-0.841c0.317-0.208,0.678-0.354,1.082-0.436s0.851-0.123,1.343-0.123v1.969
			c-0.615,0-1.097,0.089-1.446,0.267s-0.61,0.472-0.785,0.882c-0.174,0.41-0.283,0.95-0.328,1.62
			c-0.044,0.67-0.066,1.497-0.066,2.481v1.969c0,1.313,0.046,2.393,0.139,3.24c0.092,0.848,0.248,1.518,0.466,2.01
			s0.513,0.834,0.882,1.025s0.831,0.287,1.384,0.287c0.342,0,0.646-0.024,0.913-0.072s0.501-0.145,0.703-0.292
			c0.202-0.146,0.371-0.354,0.507-0.62s0.25-0.619,0.338-1.056s0.152-0.972,0.189-1.605c0.038-0.632,0.057-1.386,0.057-2.261V221.62
			z"/>
		<path fill="#FFFFFF" d="M17.139,200.374c1.005,0,1.844,0.082,2.518,0.246s1.211,0.439,1.615,0.825
			c0.403,0.387,0.69,0.894,0.861,1.523s0.256,1.405,0.256,2.328c0,0.896-0.068,1.647-0.205,2.256s-0.368,1.101-0.696,1.477
			s-0.764,0.646-1.31,0.81c-0.545,0.164-1.228,0.246-2.046,0.246h-5.915v2.43h-1.641v-2.43H7.367v-1.969h3.209v-7.414h1.641v7.414
			h5.913c0.655,0,1.159-0.049,1.514-0.149c0.354-0.099,0.614-0.258,0.777-0.477s0.259-0.508,0.286-0.866
			c0.027-0.359,0.041-0.798,0.041-1.318c0-0.41-0.007-0.777-0.021-1.102s-0.057-0.608-0.128-0.852
			c-0.072-0.242-0.181-0.449-0.328-0.62s-0.354-0.309-0.621-0.415s-0.603-0.183-1.01-0.231c-0.406-0.048-0.907-0.072-1.502-0.072
			V200.374z"/>
		<path fill="#FFFFFF" d="M20.769,186.644c0.082,0.021,0.287,0.174,0.615,0.461c0.246,0.205,0.463,0.479,0.651,0.82
			s0.335,0.798,0.44,1.369c0.106,0.571,0.159,1.321,0.159,2.25c0,1.237-0.063,2.293-0.189,3.168
			c-0.126,0.875-0.321,1.589-0.585,2.143c-0.263,0.554-0.6,0.958-1.01,1.215c-0.41,0.256-0.899,0.384-1.466,0.384
			c-0.595,0-1.099-0.07-1.512-0.21c-0.414-0.14-0.761-0.345-1.041-0.615c-0.28-0.27-0.499-0.596-0.656-0.979
			s-0.277-0.818-0.359-1.307s-0.133-1.024-0.154-1.605s-0.031-1.2-0.031-1.856c0-0.937,0.04-1.719,0.118-2.348
			c0.079-0.629,0.178-1.143,0.298-1.543c0.12-0.399,0.248-0.702,0.384-0.907s0.263-0.352,0.379-0.441
			c-0.766,0-1.418,0.033-1.958,0.097c-0.54,0.065-0.991,0.171-1.354,0.318s-0.651,0.336-0.867,0.569
			c-0.215,0.232-0.377,0.518-0.487,0.856c-0.109,0.339-0.179,0.733-0.21,1.185c-0.03,0.451-0.046,0.967-0.046,1.548
			c0,0.902,0.022,1.651,0.066,2.246c0.045,0.595,0.132,1.066,0.262,1.415s0.31,0.595,0.538,0.738
			c0.229,0.144,0.528,0.215,0.897,0.215v1.969c-0.622,0-1.148-0.111-1.579-0.333c-0.431-0.222-0.781-0.591-1.051-1.107
			c-0.27-0.516-0.467-1.194-0.59-2.035s-0.185-1.876-0.185-3.107c0-1.203,0.099-2.222,0.297-3.056s0.547-1.509,1.046-2.025
			s1.171-0.889,2.015-1.118c0.844-0.229,1.912-0.343,3.204-0.343h5.578v1.969H20.769z M20.994,191.217
			c0-0.868-0.041-1.594-0.121-2.179c-0.081-0.584-0.203-1.054-0.364-1.41c-0.162-0.355-0.364-0.608-0.607-0.759
			s-0.526-0.226-0.85-0.226s-0.599,0.087-0.824,0.261c-0.226,0.175-0.41,0.465-0.551,0.872c-0.142,0.407-0.245,0.945-0.309,1.615
			s-0.096,1.497-0.096,2.481s0.017,1.779,0.051,2.384c0.034,0.604,0.111,1.071,0.232,1.399s0.3,0.549,0.536,0.661
			c0.236,0.113,0.556,0.169,0.961,0.169s0.733-0.06,0.986-0.179s0.45-0.364,0.591-0.733c0.142-0.369,0.238-0.9,0.289-1.595
			C20.969,193.287,20.994,192.366,20.994,191.217z"/>
		<path fill="#FFFFFF" d="M22.389,170.238h-6.563c-0.731,0-1.349,0.055-1.851,0.164c-0.503,0.109-0.908,0.328-1.215,0.656
			s-0.53,0.793-0.667,1.395s-0.205,1.395-0.205,2.379c0,1.066,0.079,1.94,0.236,2.62s0.379,1.215,0.667,1.604
			s0.632,0.658,1.036,0.805c0.403,0.147,0.851,0.221,1.343,0.221h7.219v1.969H10.576v-1.969h1.969
			c-0.335-0.144-0.624-0.349-0.866-0.615s-0.45-0.567-0.621-0.902s-0.309-0.697-0.416-1.087c-0.105-0.39-0.188-0.779-0.246-1.169
			c-0.058-0.39-0.097-0.767-0.118-1.133s-0.031-0.699-0.031-1c0-0.875,0.055-1.628,0.164-2.261s0.27-1.169,0.482-1.61
			c0.212-0.44,0.475-0.794,0.79-1.061s0.679-0.473,1.092-0.621c0.414-0.146,0.875-0.244,1.385-0.292s1.064-0.072,1.666-0.072
			l6.563,0.01V170.238z"/>
		<path fill="#FFFFFF" d="M22.614,158.743c0,1.313-0.097,2.427-0.29,3.343s-0.524,1.661-0.993,2.235s-1.1,0.991-1.892,1.251
			c-0.793,0.26-1.789,0.39-2.988,0.39c-1.22,0-2.23-0.13-3.031-0.39c-0.8-0.26-1.434-0.677-1.901-1.251s-0.797-1.319-0.987-2.235
			c-0.189-0.916-0.285-2.03-0.285-3.343c0-0.93,0.048-1.709,0.144-2.338s0.215-1.144,0.359-1.543c0.144-0.4,0.299-0.704,0.466-0.913
			c0.168-0.208,0.323-0.36,0.467-0.456H6.639v-1.969h15.75v1.969h-1.851l0.613,0.492c0.294,0.287,0.531,0.605,0.71,0.954
			c0.18,0.349,0.35,0.837,0.511,1.466C22.534,157.034,22.614,157.813,22.614,158.743z M20.974,158.743
			c0-0.656-0.015-1.241-0.046-1.753c-0.03-0.513-0.096-0.964-0.197-1.354c-0.102-0.39-0.252-0.719-0.451-0.99
			c-0.2-0.27-0.465-0.49-0.796-0.661c-0.331-0.171-0.742-0.295-1.232-0.374c-0.49-0.079-1.08-0.118-1.769-0.118
			c-0.717,0-1.327,0.04-1.83,0.118s-0.926,0.203-1.268,0.374s-0.61,0.392-0.806,0.661c-0.196,0.271-0.346,0.6-0.451,0.99
			s-0.171,0.841-0.198,1.354s-0.041,1.097-0.041,1.753c0,0.766,0.024,1.427,0.071,1.984c0.047,0.557,0.132,1.03,0.253,1.42
			c0.122,0.39,0.291,0.706,0.507,0.948c0.216,0.243,0.494,0.431,0.832,0.564c0.338,0.133,0.745,0.222,1.222,0.267
			s1.036,0.066,1.678,0.066c0.635,0,1.188-0.022,1.658-0.066s0.872-0.134,1.207-0.267c0.334-0.134,0.61-0.321,0.826-0.564
			c0.216-0.242,0.385-0.559,0.507-0.948c0.122-0.39,0.206-0.863,0.253-1.42S20.974,159.509,20.974,158.743z"/>
	</g>
	<g>
		<path fill="#FFFFFF" d="M633.646,137.476c0,0.874-0.036,1.624-0.108,2.25c-0.072,0.625-0.18,1.152-0.321,1.581
			s-0.318,0.771-0.529,1.024c-0.211,0.255-0.451,0.451-0.721,0.59s-0.571,0.229-0.905,0.27c-0.333,0.042-0.694,0.063-1.083,0.063
			c-0.386,0-0.749-0.034-1.088-0.104s-0.648-0.192-0.93-0.369c-0.281-0.178-0.531-0.418-0.752-0.723s-0.408-0.691-0.563-1.162
			s-0.271-1.036-0.351-1.697s-0.12-1.435-0.12-2.32v-2.125c0-0.797,0.03-1.494,0.092-2.092c0.061-0.598,0.153-1.112,0.277-1.544
			c0.125-0.432,0.282-0.788,0.474-1.071c0.19-0.281,0.415-0.507,0.672-0.676c0.258-0.169,0.551-0.287,0.88-0.354
			s0.693-0.1,1.092-0.1v1.594c-0.506,0-0.902,0.072-1.188,0.217c-0.287,0.144-0.502,0.381-0.646,0.713
			c-0.143,0.332-0.232,0.769-0.27,1.308c-0.036,0.54-0.055,1.208-0.055,2.005v2.125c0,0.93,0.045,1.701,0.134,2.316
			c0.089,0.613,0.231,1.104,0.426,1.469c0.195,0.365,0.45,0.623,0.766,0.771c0.314,0.15,0.697,0.225,1.149,0.225
			c0.451,0,0.827-0.051,1.128-0.153s0.54-0.305,0.719-0.606s0.305-0.727,0.38-1.273c0.075-0.549,0.113-1.265,0.113-2.15v-2.191
			c0-0.974,0.036-1.809,0.107-2.503c0.072-0.694,0.176-1.276,0.312-1.747s0.305-0.847,0.507-1.129s0.433-0.497,0.693-0.644
			c0.26-0.146,0.549-0.242,0.867-0.286s0.662-0.066,1.033-0.066c0.388,0,0.747,0.034,1.079,0.104s0.632,0.198,0.9,0.387
			c0.269,0.188,0.508,0.445,0.718,0.771c0.211,0.326,0.387,0.746,0.527,1.258c0.142,0.512,0.248,1.127,0.32,1.847
			c0.071,0.72,0.107,1.566,0.107,2.54v1.594c0,0.797-0.029,1.494-0.087,2.092c-0.059,0.598-0.149,1.112-0.274,1.544
			c-0.124,0.432-0.279,0.79-0.465,1.075s-0.406,0.512-0.664,0.681c-0.257,0.169-0.549,0.286-0.875,0.353
			c-0.327,0.066-0.689,0.1-1.088,0.1v-1.594c0.498,0,0.889-0.072,1.17-0.216c0.283-0.144,0.494-0.382,0.636-0.714
			c0.141-0.332,0.229-0.77,0.266-1.312s0.054-1.212,0.054-2.009v-1.594c0-1.063-0.037-1.937-0.112-2.623
			c-0.074-0.687-0.2-1.229-0.378-1.627c-0.177-0.398-0.414-0.675-0.713-0.83s-0.673-0.232-1.121-0.232
			c-0.276,0-0.523,0.02-0.738,0.059c-0.217,0.038-0.406,0.117-0.569,0.236s-0.3,0.286-0.411,0.502
			c-0.11,0.216-0.201,0.501-0.273,0.855c-0.072,0.354-0.123,0.787-0.153,1.299s-0.046,1.122-0.046,1.83V137.476z"/>
		<path fill="#FFFFFF" d="M631.363,145.112c0.971,0,1.775,0.105,2.412,0.315s1.142,0.548,1.515,1.013s0.636,1.068,0.786,1.81
			c0.151,0.741,0.227,1.644,0.227,2.706s-0.075,1.965-0.227,2.706c-0.15,0.741-0.413,1.345-0.786,1.81s-0.878,0.803-1.515,1.013
			s-1.441,0.315-2.412,0.315c-0.988,0-1.808-0.105-2.461-0.315c-0.652-0.21-1.171-0.548-1.556-1.013
			c-0.386-0.465-0.657-1.068-0.816-1.81s-0.238-1.644-0.238-2.706s0.079-1.965,0.238-2.706s0.431-1.345,0.816-1.81
			c0.385-0.465,0.903-0.803,1.556-1.013C629.556,145.218,630.375,145.112,631.363,145.112z M631.363,146.706
			c-0.525,0-0.982,0.02-1.371,0.059c-0.389,0.038-0.723,0.111-1.001,0.22c-0.279,0.107-0.507,0.259-0.682,0.452
			s-0.314,0.448-0.419,0.764c-0.104,0.315-0.175,0.698-0.213,1.149s-0.058,0.986-0.058,1.606c0,0.531,0.013,1.006,0.037,1.424
			s0.08,0.783,0.168,1.096s0.212,0.579,0.374,0.801c0.161,0.222,0.381,0.399,0.66,0.535s0.623,0.235,1.03,0.299
			s0.898,0.096,1.474,0.096c0.563,0,1.044-0.032,1.44-0.096s0.729-0.163,0.997-0.299s0.48-0.313,0.636-0.535
			c0.156-0.222,0.274-0.488,0.354-0.801s0.13-0.678,0.151-1.096c0.022-0.418,0.033-0.893,0.033-1.424s-0.011-1.006-0.033-1.424
			c-0.021-0.418-0.072-0.783-0.151-1.096s-0.197-0.579-0.354-0.801c-0.155-0.222-0.367-0.399-0.636-0.535s-0.601-0.235-0.997-0.299
			S631.927,146.706,631.363,146.706z"/>
		<path fill="#FFFFFF" d="M636.037,160.253h-5.261c-0.586,0-1.081,0.044-1.483,0.133c-0.403,0.089-0.728,0.266-0.975,0.532
			c-0.246,0.266-0.424,0.643-0.534,1.13c-0.109,0.487-0.164,1.13-0.164,1.928c0,0.864,0.063,1.572,0.189,2.123
			c0.126,0.551,0.304,0.984,0.534,1.301c0.229,0.315,0.507,0.533,0.83,0.651c0.323,0.119,0.682,0.179,1.076,0.179h5.787v1.594
			h-9.563v-1.594h1.672c-0.18-0.077-0.377-0.207-0.594-0.39c-0.217-0.184-0.417-0.457-0.603-0.823
			c-0.185-0.365-0.341-0.838-0.468-1.417c-0.127-0.578-0.19-1.297-0.19-2.156c0-0.713,0.043-1.325,0.129-1.836
			c0.086-0.512,0.213-0.945,0.382-1.302c0.169-0.357,0.377-0.644,0.627-0.858c0.248-0.216,0.538-0.382,0.867-0.498
			s0.695-0.193,1.1-0.232c0.404-0.038,0.847-0.058,1.328-0.058l5.313,0.008V160.253z"/>
		<path fill="#FFFFFF" d="M630.725,181.246c-0.813,0-1.493-0.066-2.038-0.199s-0.98-0.355-1.308-0.668
			c-0.326-0.313-0.559-0.724-0.697-1.232c-0.138-0.51-0.207-1.138-0.207-1.885c0-0.725,0.055-1.334,0.166-1.826
			c0.11-0.492,0.298-0.891,0.563-1.195c0.266-0.305,0.619-0.523,1.061-0.656c0.442-0.133,0.994-0.199,1.657-0.199h4.788v-1.967
			h1.328v1.967h2.598v1.594h-2.598v6.002h-1.328v-6.002h-4.786c-0.53,0-0.938,0.041-1.226,0.121s-0.497,0.209-0.63,0.386
			c-0.132,0.177-0.21,0.411-0.231,0.701c-0.022,0.291-0.033,0.646-0.033,1.067c0,0.332,0.006,0.629,0.017,0.892
			s0.046,0.493,0.104,0.689c0.059,0.196,0.146,0.363,0.266,0.502s0.286,0.25,0.503,0.336c0.215,0.086,0.488,0.148,0.817,0.187
			c0.329,0.039,0.734,0.059,1.216,0.059V181.246z"/>
		<path fill="#FFFFFF" d="M626.475,192.934h5.396c0.575,0,1.062-0.044,1.457-0.133s0.715-0.266,0.958-0.531
			c0.244-0.266,0.42-0.642,0.527-1.129c0.108-0.487,0.162-1.129,0.162-1.926c0-0.863-0.063-1.57-0.187-2.121
			c-0.125-0.551-0.299-0.983-0.523-1.299c-0.224-0.315-0.493-0.532-0.81-0.651c-0.314-0.119-0.666-0.179-1.054-0.179h-5.927v-1.594
			h12.75v1.594h-4.698c0.26,0.11,0.484,0.269,0.673,0.473c0.188,0.205,0.348,0.441,0.48,0.71s0.24,0.558,0.32,0.868
			c0.08,0.31,0.143,0.623,0.187,0.941s0.075,0.631,0.091,0.938c0.018,0.307,0.025,0.591,0.025,0.851c0,0.708-0.043,1.318-0.129,1.83
			s-0.213,0.946-0.382,1.304c-0.169,0.356-0.378,0.644-0.626,0.858c-0.25,0.217-0.539,0.384-0.868,0.503s-0.697,0.197-1.104,0.236
			c-0.407,0.039-0.849,0.058-1.324,0.058l-5.396-0.008V192.934z"/>
		<path fill="#FFFFFF" d="M633.646,208.945c0,0.874-0.036,1.624-0.108,2.25c-0.072,0.625-0.18,1.152-0.321,1.581
			s-0.318,0.771-0.529,1.024c-0.211,0.255-0.451,0.451-0.721,0.59s-0.571,0.229-0.905,0.27c-0.333,0.042-0.694,0.063-1.083,0.063
			c-0.386,0-0.749-0.034-1.088-0.104s-0.648-0.192-0.93-0.369c-0.281-0.178-0.531-0.418-0.752-0.723s-0.408-0.691-0.563-1.162
			s-0.271-1.036-0.351-1.697s-0.12-1.435-0.12-2.32v-2.125c0-0.797,0.03-1.494,0.092-2.092c0.061-0.598,0.153-1.112,0.277-1.544
			c0.125-0.432,0.282-0.788,0.474-1.071c0.19-0.281,0.415-0.507,0.672-0.676c0.258-0.169,0.551-0.287,0.88-0.354
			s0.693-0.1,1.092-0.1v1.594c-0.506,0-0.902,0.072-1.188,0.217c-0.287,0.144-0.502,0.381-0.646,0.713
			c-0.143,0.332-0.232,0.769-0.27,1.308c-0.036,0.54-0.055,1.208-0.055,2.005v2.125c0,0.93,0.045,1.701,0.134,2.316
			c0.089,0.613,0.231,1.104,0.426,1.469c0.195,0.365,0.45,0.623,0.766,0.771c0.314,0.15,0.697,0.225,1.149,0.225
			c0.451,0,0.827-0.051,1.128-0.153s0.54-0.305,0.719-0.606s0.305-0.727,0.38-1.273c0.075-0.549,0.113-1.265,0.113-2.15v-2.191
			c0-0.974,0.036-1.809,0.107-2.503c0.072-0.694,0.176-1.276,0.312-1.747s0.305-0.847,0.507-1.129s0.433-0.497,0.693-0.644
			c0.26-0.146,0.549-0.242,0.867-0.286s0.662-0.066,1.033-0.066c0.388,0,0.747,0.034,1.079,0.104s0.632,0.198,0.9,0.387
			c0.269,0.188,0.508,0.445,0.718,0.771c0.211,0.326,0.387,0.746,0.527,1.258c0.142,0.512,0.248,1.127,0.32,1.847
			c0.071,0.72,0.107,1.566,0.107,2.54v1.594c0,0.797-0.029,1.494-0.087,2.092c-0.059,0.598-0.149,1.112-0.274,1.544
			c-0.124,0.432-0.279,0.79-0.465,1.075s-0.406,0.512-0.664,0.681c-0.257,0.169-0.549,0.286-0.875,0.353
			c-0.327,0.066-0.689,0.1-1.088,0.1v-1.594c0.498,0,0.889-0.072,1.17-0.216c0.283-0.144,0.494-0.382,0.636-0.714
			c0.141-0.332,0.229-0.77,0.266-1.312s0.054-1.212,0.054-2.009v-1.594c0-1.063-0.037-1.937-0.112-2.623
			c-0.074-0.687-0.2-1.229-0.378-1.627c-0.177-0.398-0.414-0.675-0.713-0.83s-0.673-0.232-1.121-0.232
			c-0.276,0-0.523,0.02-0.738,0.059c-0.217,0.038-0.406,0.117-0.569,0.236s-0.3,0.286-0.411,0.502
			c-0.11,0.216-0.201,0.501-0.273,0.855c-0.072,0.354-0.123,0.787-0.153,1.299s-0.046,1.122-0.046,1.83V208.945z"/>
		<path fill="#FFFFFF" d="M630.725,226.145c-0.813,0-1.493-0.066-2.038-0.199s-0.98-0.355-1.308-0.668
			c-0.326-0.313-0.559-0.724-0.697-1.232c-0.138-0.51-0.207-1.138-0.207-1.885c0-0.725,0.055-1.334,0.166-1.826
			c0.11-0.492,0.298-0.891,0.563-1.195c0.266-0.305,0.619-0.523,1.061-0.656c0.442-0.133,0.994-0.199,1.657-0.199h4.788v-1.967
			h1.328v1.967h2.598v1.594h-2.598v6.002h-1.328v-6.002h-4.786c-0.53,0-0.938,0.041-1.226,0.121s-0.497,0.209-0.63,0.386
			c-0.132,0.177-0.21,0.411-0.231,0.701c-0.022,0.291-0.033,0.646-0.033,1.067c0,0.332,0.006,0.629,0.017,0.892
			s0.046,0.493,0.104,0.689c0.059,0.196,0.146,0.363,0.266,0.502s0.286,0.25,0.503,0.336c0.215,0.086,0.488,0.148,0.817,0.187
			c0.329,0.039,0.734,0.059,1.216,0.059V226.145z"/>
		<path fill="#FFFFFF" d="M627.786,237.26c-0.066-0.018-0.232-0.142-0.498-0.374c-0.199-0.166-0.375-0.388-0.527-0.664
			s-0.271-0.646-0.356-1.108s-0.129-1.069-0.129-1.822c0-1.001,0.051-1.856,0.153-2.564s0.261-1.287,0.474-1.734
			c0.213-0.449,0.485-0.776,0.817-0.984c0.332-0.207,0.728-0.311,1.187-0.311c0.482,0,0.89,0.057,1.225,0.17
			s0.616,0.279,0.843,0.498s0.404,0.482,0.531,0.793c0.127,0.31,0.224,0.662,0.29,1.058s0.108,0.829,0.125,1.3
			c0.017,0.47,0.025,0.971,0.025,1.502c0,0.758-0.032,1.392-0.096,1.9c-0.063,0.51-0.145,0.926-0.241,1.25
			c-0.097,0.323-0.2,0.568-0.312,0.734c-0.11,0.166-0.213,0.285-0.307,0.357c0.62,0,1.148-0.026,1.586-0.079
			c0.437-0.053,0.802-0.139,1.096-0.258c0.293-0.119,0.526-0.272,0.701-0.46c0.174-0.188,0.306-0.42,0.395-0.693
			c0.088-0.274,0.145-0.594,0.17-0.959c0.024-0.365,0.037-0.783,0.037-1.254c0-0.73-0.018-1.336-0.054-1.817
			s-0.106-0.863-0.212-1.146s-0.25-0.481-0.436-0.598s-0.428-0.174-0.727-0.174v-1.594c0.504,0,0.93,0.09,1.278,0.27
			s0.632,0.479,0.851,0.896s0.378,0.967,0.478,1.647s0.149,1.519,0.149,2.515c0,0.975-0.08,1.799-0.24,2.475
			c-0.161,0.675-0.443,1.221-0.848,1.639c-0.403,0.418-0.947,0.72-1.631,0.905s-1.548,0.278-2.594,0.278h-4.516v-1.594H627.786z
			 M627.604,233.557c0,0.703,0.032,1.291,0.099,1.765c0.065,0.473,0.163,0.854,0.294,1.142c0.132,0.287,0.295,0.492,0.492,0.613
			c0.196,0.122,0.426,0.184,0.688,0.184s0.484-0.071,0.667-0.212c0.183-0.142,0.332-0.377,0.446-0.706
			c0.115-0.329,0.198-0.765,0.25-1.307c0.052-0.543,0.078-1.213,0.078-2.01s-0.015-1.439-0.041-1.93
			c-0.027-0.489-0.091-0.867-0.188-1.133c-0.099-0.266-0.243-0.444-0.435-0.535c-0.19-0.092-0.45-0.137-0.777-0.137
			c-0.328,0-0.594,0.048-0.799,0.145c-0.204,0.097-0.364,0.295-0.479,0.594c-0.115,0.299-0.192,0.729-0.233,1.291
			S627.604,232.627,627.604,233.557z"/>
		<path fill="#FFFFFF" d="M626.475,250.541h5.313c0.592,0,1.092-0.044,1.498-0.133c0.407-0.089,0.734-0.266,0.984-0.531
			c0.248-0.266,0.429-0.642,0.539-1.129s0.166-1.129,0.166-1.926c0-0.863-0.063-1.57-0.191-2.121
			c-0.127-0.551-0.307-0.983-0.539-1.299s-0.512-0.532-0.838-0.651c-0.327-0.119-0.689-0.179-1.088-0.179h-5.844v-1.594h9.563v1.594
			h-1.594c0.271,0.116,0.505,0.282,0.701,0.498s0.364,0.459,0.502,0.73c0.139,0.271,0.251,0.564,0.337,0.88s0.152,0.631,0.199,0.946
			s0.079,0.621,0.095,0.917c0.018,0.296,0.025,0.566,0.025,0.81c0,0.708-0.044,1.318-0.133,1.83s-0.219,0.946-0.391,1.304
			c-0.171,0.356-0.384,0.644-0.639,0.858c-0.255,0.217-0.549,0.384-0.884,0.503s-0.709,0.197-1.121,0.236s-0.861,0.058-1.349,0.058
			l-5.313-0.008V250.541z"/>
		<path fill="#FFFFFF" d="M626.292,259.846c0-1.063,0.078-1.965,0.234-2.706s0.424-1.345,0.804-1.81
			c0.379-0.465,0.89-0.803,1.531-1.013c0.643-0.21,1.448-0.315,2.42-0.315c0.987,0,1.806,0.105,2.453,0.315s1.16,0.548,1.539,1.013
			s0.645,1.068,0.799,1.81c0.153,0.741,0.23,1.644,0.23,2.706c0,0.753-0.039,1.384-0.116,1.893s-0.175,0.926-0.29,1.249
			c-0.117,0.324-0.242,0.57-0.378,0.739s-0.262,0.292-0.378,0.369h4.084v1.594h-12.75v-1.594h1.498l-0.496-0.398
			c-0.238-0.232-0.43-0.49-0.575-0.771c-0.145-0.283-0.283-0.679-0.413-1.188C626.357,261.23,626.292,260.599,626.292,259.846z
			 M627.62,259.846c0,0.531,0.013,1.004,0.037,1.42c0.024,0.414,0.078,0.779,0.16,1.096c0.082,0.314,0.203,0.582,0.365,0.801
			c0.161,0.219,0.376,0.396,0.645,0.535c0.268,0.139,0.6,0.239,0.997,0.303c0.396,0.063,0.874,0.096,1.433,0.096
			c0.579,0,1.073-0.032,1.481-0.096c0.407-0.063,0.749-0.164,1.025-0.303s0.494-0.316,0.652-0.535
			c0.159-0.219,0.281-0.486,0.366-0.801c0.084-0.316,0.138-0.682,0.159-1.096c0.022-0.416,0.033-0.889,0.033-1.42
			c0-0.62-0.02-1.155-0.058-1.606s-0.106-0.834-0.205-1.149s-0.235-0.571-0.41-0.768c-0.176-0.196-0.399-0.349-0.673-0.457
			c-0.274-0.107-0.604-0.18-0.989-0.216s-0.839-0.054-1.358-0.054c-0.515,0-0.962,0.018-1.343,0.054
			c-0.38,0.036-0.705,0.108-0.977,0.216c-0.271,0.108-0.494,0.261-0.669,0.457s-0.312,0.452-0.41,0.768s-0.167,0.698-0.205,1.149
			S627.62,259.226,627.62,259.846z"/>
	</g>
</g>
<g id="AREAS">
	<rect id="NS-NG" x="61.045" y="101.332" stroke-width="0" width="56.203" height="35.113"/>
	<rect id="NS-NF" x="61.045" y="140.288" stroke-width="0" width="56.203" height="35.114"/>
	<rect id="NS-NE" x="61.045" y="179.245" stroke-width="0" width="56.203" height="35.115"/>
	<rect id="NS-ND" x="61.045" y="218.203" stroke-width="0" width="56.203" height="35.116"/>
	<rect id="NS-NC" x="61.045" y="257.162" stroke-width="0" width="56.203" height="35.114"/>
	<rect id="NS-NB" x="61.045" y="296.118" stroke-width="0" width="56.203" height="35.115"/>
	<rect id="NS-NA" x="61.045" y="335.075" stroke-width="0" width="56.203" height="35.113"/>
	<rect id="WS-CS" x="92.174" y="401.254" stroke-width="0" width="66.677" height="16.397"/>
	<rect id="WS-WA" x="264.784" y="381.015" stroke-width="0" width="21.339" height="37.166"/>
	<rect id="WS-WB" x="289.965" y="381.015" stroke-width="0" width="21.34" height="37.166"/>
	<rect id="WS-WC" x="315.147" y="381.015" stroke-width="0" width="21.338" height="37.166"/>
	<rect id="WS-WD" x="340.328" y="381.015" stroke-width="0" width="21.341" height="37.166"/>
	<rect id="WS-WE" x="365.513" y="381.015" stroke-width="0" width="21.338" height="37.166"/>
	<rect id="WS-WF" x="390.693" y="381.015" stroke-width="0" width="21.339" height="37.166"/>
	<rect id="WS-WG" x="415.876" y="381.015" stroke-width="0" width="21.339" height="37.166"/>
	<rect id="WS-WH" x="441.058" y="381.015" stroke-width="0" width="21.338" height="37.166"/>
	<rect id="WS-WI" x="466.238" y="381.015" stroke-width="0" width="21.339" height="37.166"/>
	<rect id="SS-SW" x="570.947" y="377.242" stroke-width="0" width="29.242" height="26.435"/>
	<rect id="SS-ST" x="604.008" y="168.587" stroke-width="0" width="12.701" height="117.261"/>
	<rect id="SS-SF" x="570.947" y="309.873" stroke-width="0" width="29.242" height="36.526"/>
	<rect id="SS-SE" x="570.947" y="269.505" stroke-width="0" width="29.242" height="36.525"/>
	<rect id="SS-SD" x="570.947" y="229.137" stroke-width="0" width="29.242" height="36.527"/>
	<rect id="SS-SC" x="570.947" y="188.769" stroke-width="0" width="29.242" height="36.525"/>
	<rect id="SS-SB" x="570.947" y="148.402" stroke-width="0" width="29.242" height="36.524"/>
	<rect id="SS-SA" x="570.947" y="108.033" stroke-width="0" width="29.242" height="36.527"/>
	<rect id="ESL-ELH" x="504.555" y="60.056" stroke-width="0" width="47.663" height="30.343"/>
	<rect id="ESL-ELG" x="453.048" y="60.056" stroke-width="0" width="47.663" height="30.343"/>
	<rect id="ESL-ELF" x="401.544" y="60.056" stroke-width="0" width="47.661" height="30.343"/>
	<rect id="ESL-ELE" x="350.037" y="60.056" stroke-width="0" width="47.664" height="30.343"/>
	<rect id="ESL-ELD" x="298.53" y="60.056" stroke-width="0" width="47.663" height="30.343"/>
	<rect id="ESL-ELC" x="247.023" y="60.056" stroke-width="0" width="47.662" height="30.343"/>
	<rect id="ESL-ELB" x="195.518" y="60.056" stroke-width="0" width="47.663" height="30.343"/>
	<rect id="ESL-ELA" x="144.01" y="60.056" stroke-width="0" width="47.664" height="30.343"/>
	<path id="ESU-EUH" stroke-width="0" d="M504.555,55.907V25.564h37.454
		c5.627,0,10.209,4.092,10.209,9.124v21.219H504.555z"/>
	<rect id="ESU-EUG" x="453.048" y="25.564" stroke-width="0" width="47.663" height="30.343"/>
	<rect id="ESU-EUF" x="401.544" y="25.564" stroke-width="0" width="47.661" height="30.343"/>
	<rect id="ESU-EUE" x="350.037" y="25.564" stroke-width="0" width="47.664" height="30.343"/>
	<rect id="ESU-EUD" x="298.529" y="25.564" stroke-width="0" width="47.664" height="30.343"/>
	<rect id="ESU-EUC" x="247.023" y="25.564" stroke-width="0" width="47.662" height="30.343"/>
	<rect id="ESU-EUB" x="195.518" y="25.564" stroke-width="0" width="47.663" height="30.343"/>
	<rect id="ESU-EUA" x="144.01" y="25.564" stroke-width="0" width="47.664" height="30.343"/>
	<rect id="ESU-EBR" x="121.143" y="25.564" stroke-width="0" width="19.025" height="30.936"/>
</g>
<g id="LABELS">
	<text fid="NS-NG" transform="matrix(1 0 0 1 80.499 121.9639)" fill="#FFFFFF" font-family="'Arial'" font-size="12">NG</text>
	<text fid="NS-NF" transform="matrix(1 0 0 1 81.4619 160.9204)" fill="#FFFFFF" font-family="'Arial'" font-size="12">NF</text>
	<text fid="NS-NE" transform="matrix(1 0 0 1 81.1382 199.8779)" fill="#FFFFFF" font-family="'Arial'" font-size="12">NE</text>
	<text fid="NS-ND" transform="matrix(1 0 0 1 80.8198 238.8369)" fill="#FFFFFF" font-family="'Arial'" font-size="12">ND</text>
	<text fid="NS-NC" transform="matrix(1 0 0 1 80.8198 277.793)" fill="#FFFFFF" font-family="'Arial'" font-size="12">NC</text>
	<text fid="NS-NB" transform="matrix(1 0 0 1 81.1382 316.75)" fill="#FFFFFF" font-family="'Arial'" font-size="12">NB</text>
	<text fid="NS-NA" transform="matrix(1 0 0 1 80.8096 355.707)" fill="#FFFFFF" font-family="'Arial'" font-size="12">NA</text>
	<text fid="WS-CS" transform="matrix(1 0 0 1 119.5068 412.0166)" fill="#FFFFFF" font-family="'Arial'" font-size="9">CS</text>
	<text fid="WS-WA" transform="matrix(1 0 0 1 268.2158 402.1602)" fill="#FFFFFF" font-family="'Arial'" font-size="9">WA</text>
	<text fid="WS-WB" transform="matrix(1 0 0 1 293.6719 402.1602)" fill="#FFFFFF" font-family="'Arial'" font-size="9">WB</text>
	<text fid="WS-WC" transform="matrix(1 0 0 1 318.6147 402.1602)" fill="#FFFFFF" font-family="'Arial'" font-size="9">WC</text>
	<text fid="WS-WD" transform="matrix(1 0 0 1 343.7979 402.1602)" fill="#FFFFFF" font-family="'Arial'" font-size="9">WD</text>
	<text fid="WS-WE" transform="matrix(1 0 0 1 369.2168 402.1602)" fill="#FFFFFF" font-family="'Arial'" font-size="9">WE</text>
	<text fid="WS-WF" transform="matrix(1 0 0 1 394.6426 402.1602)" fill="#FFFFFF" font-family="'Arial'" font-size="9">WF</text>
	<text fid="WS-WG" transform="matrix(1 0 0 1 419.1006 402.1602)" fill="#FFFFFF" font-family="'Arial'" font-size="9">WG</text>
	<text fid="WS-WH" transform="matrix(1 0 0 1 444.5244 402.1602)" fill="#FFFFFF" font-family="'Arial'" font-size="9">WH</text>
	<text fid="WS-WI" transform="matrix(1 0 0 1 471.625 402.1602)" fill="#FFFFFF" font-family="'Arial'" font-size="9">WI</text>
	<text fid="SS-SW" transform="matrix(1 0 0 1 578.2773 393.5342)" fill="#FFFFFF" font-family="'Arial'" font-size="9">SW</text>
	<text fid="SS-ST" transform="matrix(1 0 0 1 604.834 297.0791)" fill="#010101" font-family="'Arial'" font-size="9">ST</text>
	<text fid="SS-SF" transform="matrix(1 0 0 1 580.0449 331.2129)" fill="#FFFFFF" font-family="'Arial'" font-size="9">SF</text>
	<text fid="SS-SE" transform="matrix(1 0 0 1 579.8027 290.8428)" fill="#FFFFFF" font-family="'Arial'" font-size="9">SE</text>
	<text fid="SS-SD" transform="matrix(1 0 0 1 579.5645 250.4751)" fill="#FFFFFF" font-family="'Arial'" font-size="9">SD</text>
	<text fid="SS-SC" transform="matrix(1 0 0 1 579.5645 210.1074)" fill="#FFFFFF" font-family="'Arial'" font-size="9">SC</text>
	<text fid="SS-SB" transform="matrix(1 0 0 1 579.8027 169.7388)" fill="#FFFFFF" font-family="'Arial'" font-size="9">SB</text>
	<text fid="SS-SA" transform="matrix(1 0 0 1 579.4727 129.3706)" fill="#FFFFFF" font-family="'Arial'" font-size="9">SA</text>
	<text fid="ESL-ELH" transform="matrix(1 0 0 1 517.1738 78.3013)" fill="#FFFFFF" font-family="'Arial'" font-size="12">ELH</text>
	<text fid="ESL-ELG" transform="matrix(1 0 0 1 465.3467 78.3013)" fill="#FFFFFF" font-family="'Arial'" font-size="12">ELG</text>
	<text fid="ESL-ELF" transform="matrix(1 0 0 1 414.8037 78.3013)" fill="#FFFFFF" font-family="'Arial'" font-size="12">ELF</text>
	<text fid="ESL-ELE" transform="matrix(1 0 0 1 362.9717 78.3013)" fill="#FFFFFF" font-family="'Arial'" font-size="12">ELE</text>
	<text fid="ESL-ELD" transform="matrix(1 0 0 1 311.1484 78.3013)" fill="#FFFFFF" font-family="'Arial'" font-size="12">ELD</text>
	<text fid="ESL-ELC" transform="matrix(1 0 0 1 259.6416 78.3013)" fill="#FFFFFF" font-family="'Arial'" font-size="12">ELC</text>
	<text fid="ESL-ELB" transform="matrix(1 0 0 1 208.4531 78.3013)" fill="#FFFFFF" font-family="'Arial'" font-size="12">ELB</text>
	<text fid="ESL-ELA" transform="matrix(1 0 0 1 156.6177 78.3013)" fill="#FFFFFF" font-family="'Arial'" font-size="12">ELA</text>
	<text fid="ESU-EUH" transform="matrix(1 0 0 1 516.2178 43.8101)" fill="#FFFFFF" font-family="'Arial'" font-size="12">EUH</text>
	<text fid="ESU-EUG" transform="matrix(1 0 0 1 464.3896 43.812)" fill="#FFFFFF" font-family="'Arial'" font-size="12">EUG</text>
	<text fid="ESU-EUF" transform="matrix(1 0 0 1 413.8467 43.812)" fill="#FFFFFF" font-family="'Arial'" font-size="12">EUF</text>
	<text fid="ESU-EUE" transform="matrix(1 0 0 1 362.0146 43.8101)" fill="#FFFFFF" font-family="'Arial'" font-size="12">EUE</text>
	<text fid="ESU-EUD" transform="matrix(1 0 0 1 310.1904 43.8101)" fill="#FFFFFF" font-family="'Arial'" font-size="12">EUD</text>
	<text fid="ESU-EUC" transform="matrix(1 0 0 1 258.6846 43.812)" fill="#FFFFFF" font-family="'Arial'" font-size="12">EUC</text>
	<text fid="ESU-EUB" transform="matrix(1 0 0 1 207.4966 43.812)" fill="#FFFFFF" font-family="'Arial'" font-size="12">EUB</text>
	<text fid="ESU-EUA" transform="matrix(1 0 0 1 155.6606 43.812)" fill="#FFFFFF" font-family="'Arial'" font-size="12">EUA</text>
	<text fid="ESU-EBR" transform="matrix(1 0 0 1 121.7646 68.7529)" fill="#010101" font-family="'Arial'" font-size="9">EBR</text>
</g>
<g id="PITCH">
	<g>
		<g>
			<rect x="165.345" y="115.878" fill="#74BE45" width="358.826" height="235.885"/>
		</g>
		<g>
			<rect x="180.951" y="115.878" fill="#149B49" width="15.613" height="235.885"/>
		</g>
		<g>
			<rect x="212.15" y="115.878" fill="#149B49" width="15.617" height="235.885"/>
		</g>
		<g>
			<rect x="243.357" y="115.878" fill="#149B49" width="15.61" height="235.885"/>
		</g>
		<g>
			<rect x="274.559" y="115.878" fill="#149B49" width="15.608" height="235.885"/>
		</g>
		<g>
			<rect x="305.762" y="115.878" fill="#149B49" width="15.604" height="235.885"/>
		</g>
		<g>
			<rect x="336.966" y="115.878" fill="#149B49" width="15.601" height="235.885"/>
		</g>
		<g>
			<rect x="368.172" y="115.878" fill="#149B49" width="15.603" height="235.885"/>
		</g>
		<g>
			<rect x="399.362" y="115.878" fill="#149B49" width="15.613" height="235.885"/>
		</g>
		<g>
			<rect x="430.565" y="115.878" fill="#149B49" width="15.61" height="235.885"/>
		</g>
		<g>
			<rect x="461.766" y="115.878" fill="#149B49" width="15.615" height="235.885"/>
		</g>
		<g>
			<rect x="492.971" y="115.878" fill="#149B49" width="15.623" height="235.885"/>
		</g>
		<g id="LINES">
			<rect x="491.412" y="115.878" fill="#FFFFFF" width="0.876" height="235.885"/>
			<rect x="197.231" y="115.878" fill="#FFFFFF" width="0.874" height="235.885"/>
			<g>
				<polygon fill="#FFFFFF" points="197.469,222.828 153.737,210.14 154.137,208.039 197.869,220.725 				"/>
				<polygon fill="#FFFFFF" points="154.137,259.604 153.737,257.503 197.469,244.815 197.869,246.912 				"/>
				<rect x="176.569" y="216.035" fill="#FFFFFF" width="1.747" height="35.592"/>
				<polygon fill="#FFFFFF" points="492.054,222.828 491.651,220.725 535.378,208.039 535.778,210.14 				"/>
				<polygon fill="#FFFFFF" points="535.378,259.604 491.651,246.912 492.054,244.815 535.778,257.503 				"/>
				<rect x="511.198" y="216.035" fill="#FFFFFF" width="1.751" height="35.592"/>
			</g>
		</g>
	</g>
</g>
</svg>
