<svg>
<g id="EXTRAS">
	<path fill="none" stroke="#CCCCCC" stroke-width="1" d="M304.553,136.274l0.827,20.433c2.861-0.038,5.656-0.063,8.363-0.082
		l0.046-8.789h6.43v8.752c3.511-0.011,6.835-0.014,9.925-0.014l0.215-19.842c-2.026-0.014-4.702-0.077-7.924-0.152
		C317.56,136.466,311.516,136.324,304.553,136.274L304.553,136.274z"/>
	<path fill="none" stroke="#CCCCCC" stroke-width="1" d="M274.453,136.859l1.375,20.735c1.116-0.053,2.17-0.111,3.21-0.169
		c1.518-0.085,3.007-0.167,4.615-0.227l-0.502-14.373l-2.561,0.108l-1.579-6.336c-0.956,0.038-1.743,0.09-2.559,0.143
		C275.83,136.78,275.192,136.822,274.453,136.859L274.453,136.859z"/>
	<path fill="none" stroke="#CCCCCC" stroke-width="1" d="M305.273,161.164l0.321,45.758c3.43-0.096,6.798-0.177,9.878-0.209
		l-0.961-20.933l1.8-0.029l-0.509-24.688C312.427,161.083,308.905,161.115,305.273,161.164L305.273,161.164z"/>
	<path fill="none" stroke="#CCCCCC" stroke-width="1" d="M321.634,193.169h5.353l0.275-6.19l3.443-0.091v-27.233
		c-1.793,0.002-3.544,0.018-5.389,0.034c-1.417,0.012-2.89,0.026-4.478,0.033l-0.091,4.074h-1.533l0.345,21.876h1.436
		L321.634,193.169L321.634,193.169z"/>
	<polygon fill="none" stroke="#CCCCCC" stroke-width="1" points="322.522,203.91 326.787,203.91 326.838,198.108 
		322.074,198.108 322.522,203.91 	"/>
	<path fill="none" stroke="#CCCCCC" stroke-width="1" d="M337.328,193.169h5.352l0.637-7.497h1.436l0.344-21.876h-1.533
		l-0.086-4.074c-1.59-0.007-3.062-0.021-4.48-0.033c-1.846-0.017-3.598-0.032-5.39-0.034v27.233l3.442,0.091L337.328,193.169
		L337.328,193.169z"/>
	<polygon fill="none" stroke="#CCCCCC" stroke-width="1" points="337.526,203.91 341.793,203.91 342.242,198.108 
		337.475,198.108 337.526,203.91 	"/>
	<path fill="none" stroke="#CCCCCC" stroke-width="1" d="M348.85,206.713c3.08,0.032,6.449,0.113,9.877,0.209l0.322-45.758
		c-3.633-0.048-7.156-0.08-10.529-0.1l-0.51,24.688l1.797,0.029L348.85,206.713L348.85,206.713z"/>
	<polygon fill="none" stroke="#CCCCCC" stroke-width="1" points="331.785,204.689 332.556,204.689 332.556,196.078 
		335.301,196.078 335.301,195.287 329.036,195.287 329.036,196.078 331.785,196.078 331.785,204.689 	"/>
	<path fill="none" stroke="#CCCCCC" stroke-width="1" d="M350.23,156.625c2.707,0.019,5.5,0.044,8.363,0.082l0.828-20.433
		c-6.965,0.05-13.01,0.191-17.885,0.306c-3.222,0.075-5.897,0.138-7.923,0.152l0.215,19.842c3.09,0,6.414,0.003,9.925,0.014v-8.752
		h6.43L350.23,156.625L350.23,156.625z"/>
	<path fill="none" stroke="#CCCCCC" stroke-width="1" d="M417.646,159.905c1.557,0.175,2.844,0.347,4.246,0.534l1.572,0.208
		l0.764-9.855l3.234,0.418l1.314-9.271c-3.314-0.536-6.445-0.968-9.125-1.325L417.646,159.905L417.646,159.905z"/>
	<path fill="none" stroke="#CCCCCC" stroke-width="1" d="M379.813,157.187c1.73,0.073,3.342,0.172,4.984,0.274
		c1.039,0.063,2.088,0.129,3.189,0.188l1.869-19.953c-1.1-0.066-2.371-0.126-3.582-0.183l-1.926-0.094l-1.738,6.243l-1.863-0.157
		L379.813,157.187L379.813,157.187z"/>
	<path fill="none" stroke="#CCCCCC" stroke-width="1" d="M407.121,158.931c2.658,0.229,5.307,0.48,7.934,0.759l2.035-19.445
		c-2.072-0.268-4.139-0.514-6.195-0.742l-0.357,3.726l-5.766-0.872l-0.453,6.344l4.063,0.362L407.121,158.931L407.121,158.931z"/>
	<path fill="none" stroke="#CCCCCC" stroke-width="1" d="M390.656,157.788l0.145,0.008c1.535,0.083,2.758,0.15,4.318,0.247
		l0.844-10.316l4.672,0.412l0.535-9.598c-2.922-0.256-5.145-0.401-7.865-0.581l-0.838-0.054L390.656,157.788L390.656,157.788z"/>
	<path fill="none" stroke="#CCCCCC" stroke-width="1" d="M266.542,147.183l0.888,10.58c1.119-0.056,2.166-0.073,3.22-0.091
		c0.851-0.015,1.707-0.029,2.609-0.063l-1.456-20.715c-3.307,0.161-6.684,0.364-10.05,0.604l0.974,10.021L266.542,147.183
		L266.542,147.183z"/>
	<path fill="none" stroke="#CCCCCC" stroke-width="1" d="M245.608,138.878l2.826,20.34c1.738-0.158,3.292-0.267,4.93-0.381
		l2.235-0.161l-0.783-10.445l4.375-0.445l-0.545-6.422l-5.992,0.555l-0.771-3.6c-0.87,0.081-1.648,0.143-2.407,0.203
		C248.228,138.622,247.04,138.716,245.608,138.878L245.608,138.878z"/>
	<path fill="none" stroke="#CCCCCC" stroke-width="1" d="M239.117,150.562l0.848,9.554c1.913-0.215,3.846-0.418,5.795-0.607
		l-2.91-20.224c-2.381,0.294-4.454,0.631-6.641,0.987c-0.816,0.133-1.653,0.269-2.536,0.408l1.338,10.445L239.117,150.562
		L239.117,150.562z"/>
	<g>
		<path fill="none" stroke="#CCCCCC" stroke-width="1" d="M316.229,93.607c5.166-0.027,10.343-0.034,15.519-0.036l0.028,30.875
			c-5.313,0.002-9.405,0.052-14.867,0.081l-0.51-12.042l4.163-0.113l0.057-11.869l-4.279-0.059L316.229,93.607z"/>
		<path fill="none" stroke="#CCCCCC" stroke-width="1" d="M346.15,124.592c-4.375-0.018-13.291-0.063-13.316-0.063
			c0,0-0.195-30.958-0.032-30.958c4.653,0,8.899,0.191,13.563,0.24l0.275,8.04l-3.951,0.071l-0.211,10.469l3.4,0.071L346.15,124.592
			z"/>
		<path fill="none" stroke="#CCCCCC" stroke-width="1" d="M358.156,124.686c-3.047-0.037-6.082-0.063-9.098-0.081l0.189-9.537
			h3.992l0.131-13.26l-4.236-0.025l-0.324-8.116c2.76,0.032,5.516,0.076,8.275,0.13l0.402,23.329l1.115,0.053L358.156,124.686z"/>
		<path fill="none" stroke="#CCCCCC" stroke-width="1" d="M313.772,93.597c-2.863,0.019-5.08,0.025-7.935,0.059l0.741,19.001
			l-1.483,0.06l0.569,11.983c3.249-0.042,5.69-0.091,8.905-0.114l0.056-12.042h-4.851l-0.572-11.985l4.853-0.114L313.772,93.597z"/>
	</g>
</g>
<g id="LEVEL-1-AREAS">
	<path id="LV1-B143" stroke-width="0" d="M293.201,161.389c3.842-0.093,7.614-0.162,11.275-0.214
		l0.322,45.77l-3.718,0.107c-2.22,0.065-4.426,0.13-6.556,0.184L293.201,161.389L293.201,161.389z M276.781,161.946l2.172,45.63
		c3.658-0.158,7.329-0.29,11.103-0.402l-1.414-45.655C284.829,161.633,280.818,161.773,276.781,161.946L276.781,161.946z
		 M294.77,156.756c0.983,0,2.039,0.006,3.078,0.012c1.582,0.008,3.121,0.017,4.297,0.004l-0.785-16.951h-2.05l-0.493-3.122
		c-3.747,0.068-7.448,0.169-11.014,0.3l0.521,2.663l-2.068,0.137l0.876,9.54l4.585,0.137l0.673,7.298
		C293.083,156.761,293.897,156.756,294.77,156.756L294.77,156.756z"/>
	<path id="LV1-B142" stroke-width="0" d="M263.987,162.614c3.654-0.23,7.687-0.444,11.999-0.633
		l2.173,45.631c-3.655,0.163-7.303,0.351-11.034,0.571L263.987,162.614L263.987,162.614z M248.888,163.766l4.337,45.459
		c1.862-0.185,3.773-0.368,5.599-0.528c1.795-0.157,3.506-0.295,5-0.393l-3.252-45.473
		C256.523,163.108,252.597,163.423,248.888,163.766L248.888,163.766z"/>
	<path id="LV1-B141" stroke-width="0" d="M218.6,143.257c4.211-0.904,7.575-1.543,11.415-2.169
		l1.563,10.693l-4.256,0.726l1.223,9.077c-2.043,0.309-3.844,0.638-5.745,0.986l-0.74,0.135L218.6,143.257L218.6,143.257z
		 M236.827,165.077l5.008,45.369c0.568-0.065,1.701-0.194,3.191-0.358c1.988-0.219,4.617-0.501,7.406-0.783l-4.336-45.464
		C244.165,164.213,240.379,164.627,236.827,165.077L236.827,165.077z M222.08,167.323l9.608,44.271
		c2.311-0.34,4.625-0.66,6.938-0.951l-5.08-45.148C229.478,166.05,225.625,166.664,222.08,167.323L222.08,167.323z"/>
	<path id="LV1-B140" stroke-width="0" d="M190.104,151.267c7.483-2.909,15.739-5.307,25.908-7.524
		l3.504,19.38c-2.24,0.42-4.294,0.84-6.256,1.279l-2.39-9.643l-3.48,0.893l-2.19-8.355l-3.387,1.08l1.962,8.114l-3.327,1.125
		l2.887,9.427c-1.995,0.625-3.581,1.159-5.378,1.888L190.104,151.267L190.104,151.267z M211.033,169.76l12.96,43.028
		c2.295-0.372,4.599-0.734,6.905-1.078l-9.602-44.24C217.609,168.172,214.16,168.94,211.033,169.76L211.033,169.76z
		 M215.723,212.851c0.959,0.583,1.555,1.062,1.831,1.3c1.014-0.307,2.046-0.574,3.076-0.796l-12.673-42.74
		c-3.215,0.938-6.138,1.966-8.701,3.06L215.723,212.851L215.723,212.851z"/>
	<path id="LV1-B139" stroke-width="0" d="M208.307,208.583l-18.272-30.166
		c1.222-0.684,5.232-2.921,6.882-3.711l15.274,36.124C210.262,209.688,208.694,208.8,208.307,208.583L208.307,208.583z
		 M201.607,213.783l8.401,3.538l0.095-0.057c0.68-0.4,1.388-0.776,2.111-1.123l-6.487-5.005l-18.895-30.739
		c-3.081,2.012-5.504,3.812-8.208,6.094L201.607,213.783L201.607,213.783z M163.604,166.029l12.819,15.768
		c1.759-1.415,3.566-2.765,5.379-4.019l-4.818-7.801l2.58-1.57l-5.206-8.554l2.623-1.718l5.437,8.572l2.856-1.789l4.979,7.673
		c1.353-0.729,2.696-1.41,4-2.026c0.383-0.181,0.772-0.359,1.17-0.535l-7.825-17.695c-8.262,3.36-15.467,7.298-21.42,11.706
		C165.302,164.69,164.444,165.353,163.604,166.029L163.604,166.029z M170.649,193.716l9.188,8.203l4.625-4.665l-7.861-9.101
		C174.391,190.063,172.437,191.889,170.649,193.716L170.649,193.716z"/>
	<path id="LV1-B138" stroke-width="0" d="M144.425,187.589l15.442,11.251
		c1.102-1.473,2.279-2.937,3.666-4.56l-7.223-6.565l1.912-2.076l-6.32-6.155l2.205-2.498l6.413,6.186l2.86-2.639l6.601,6.823
		c1.365-1.286,2.958-2.655,4.154-3.667l-12.962-15.63C154.738,173.608,149.253,180.003,144.425,187.589L144.425,187.589z"/>
	<path id="LV1-B137" stroke-width="0" d="M131.608,214.79c3.087-9.377,6.7-17.32,11.339-24.927
		l15.356,11.164c-1.217,1.724-2.354,3.465-3.387,5.184l-8.092-5.013l-1.695,3.451l-6.938-3.477l-1.297,2.75l6.952,3.2l-1.844,4.48
		l8.21,3.783l-0.336,0.763c-0.635,1.438-1.19,2.695-1.735,4.214L131.608,214.79L131.608,214.79z M157.401,211.276l32.301,16.284
		l6.05,6.78c0.104-0.308,0.194-0.617,0.285-0.924c0.19-0.648,0.386-1.315,0.704-1.968l-3.709-8.318l-29.556-20.8
		C161.913,204.401,159.288,208.007,157.401,211.276L157.401,211.276z M152.67,222.187l39.138,13.038l-4.177-5.006l-31.678-15.783
		l-0.16,0.317C154.44,217.502,153.578,219.667,152.67,222.187L152.67,222.187z M164.975,200.186l9.687,6.955l4.615-4.655
		l-9.183-8.197C168.268,196.189,166.588,198.125,164.975,200.186L164.975,200.186z"/>
	<path id="LV1-B136" stroke-width="0" d="M124.737,243.384c1.445-9.332,3.333-17.56,5.929-25.821
		l16.647,5.449c-0.635,1.932-1.226,3.958-1.761,6.033l-8.838-2.278l-0.894,4.151l-7.239-1.788l-0.882,3.169l7.59,2.029l-0.451,3.265
		l8.57,1.894c-0.347,2.195-0.606,4.105-0.824,6.093L124.737,243.384L124.737,243.384z M149.301,233.278l43.814,9.163
		c0.211-0.852,0.443-1.703,0.698-2.548l-2.396-2.169l-39.649-13.098C150.92,227.115,150.053,230.156,149.301,233.278
		L149.301,233.278z M146.89,247.196l44.723,5.174l0.075-0.895c0.08-1.013,0.188-2.034,0.328-3.059
		c0.12-0.893,0.265-1.791,0.431-2.688l-43.94-8.895C147.842,240.127,147.313,243.525,146.89,247.196L146.89,247.196z"/>
	<path id="LV1-B135" stroke-width="0" d="M122.014,270.787c0.416-8.982,1.148-16.845,2.295-24.674
		l17.991,2.132c-0.172,1.805-0.318,3.649-0.435,5.495l-9.65,0.072l-0.111,3.959l-8.079-0.279l0.152,3.085l8.229,0.507l0.393,4.112
		l8.652-0.021l-0.035,1.777c-0.028,1.28-0.055,2.48-0.052,3.889L122.014,270.787L122.014,270.787z M145.984,258.529l45.071,1.272
		c0.061-0.972,0.147-2.186,0.238-3.382c0.089-1.184,0.182-2.352,0.255-3.255l-44.748-5.176
		C146.438,251.302,146.169,254.759,145.984,258.529L145.984,258.529z M145.66,273.374l44.814,0.885
		c0.117-3.841,0.271-7.517,0.471-11.211l-45.104-1.005C145.722,265.436,145.664,269.058,145.66,273.374L145.66,273.374z"/>
	<path id="LV1-B134" stroke-width="0" d="M121.752,298.764l-0.042-3.022
		c-0.086-5.618-0.204-13.284,0.152-22.217l19.583,0.021c0.014,1.56,0.034,3.113,0.06,4.665c0.016,1.013,0.029,2.03,0.038,3.047
		l-9.734-0.108v4.103l-9.347,0.112l0.513,3.312l8.788,0.058l0.112,3.699l9.661,0.05c-0.006,1.02-0.001,1.998,0.004,2.974
		c0.006,1.105,0.012,2.206,0.001,3.36L121.752,298.764L121.752,298.764z M145.743,285.463l44.501,0.109
		c0.042-3.704,0.109-7.153,0.206-10.517l-44.791-0.886c0.003,3.352,0.037,6.698,0.07,10.031L145.743,285.463L145.743,285.463z
		 M145.787,299.842l44.4,0.001c0-3.606,0.005-7.213,0.032-10.867l-44.441,0.112C145.805,292.332,145.825,296.091,145.787,299.842
		L145.787,299.842z"/>
	<path id="LV1-B133" stroke-width="0" d="M121.92,325.207c-0.204-7.487-0.204-14.301-0.203-21.506
		l-0.006-2.32l19.714,0.095l-0.092,6.458l-9.943,0.015l0.279,4.266l-8.675,0.168l-0.148,3.153l8.379-0.226l0.336,3.979l9.635-0.279
		l-0.002,0.639c-0.006,1.813-0.012,3.795,0,5.56H121.92L121.92,325.207z M145.613,311.385l44.358,0.12
		c0.111-3.411,0.215-6.984,0.215-10.213v-0.652l-44.409-0.001l-0.077,5.052C145.67,307.584,145.639,309.482,145.613,311.385
		L145.613,311.385z M145.567,315.242c-0.043,4.361-0.043,7.979-0.002,11.316l44.012-1.339c0.053-3.264,0.159-6.472,0.263-9.645
		l0.019-0.54L145.567,315.242L145.567,315.242z"/>
	<path id="LV1-B132" stroke-width="0" d="M122.012,327.932l19.255-0.113
		c0.032,2.406,0.082,4.81,0.162,7.213l-10.85,0.159l0.056,4.765l-7.092,0.113v3.315l7.194-0.109l0.335,2.964l10.828-0.052
		c0.136,1.643,0.337,3.424,0.54,5.136l-18.764,2.203C122.616,344.171,122.237,335.367,122.012,327.932L122.012,327.932z
		 M145.576,327.354c0.062,4.091,0.191,7.804,0.395,11.32l43.708-2.042c-0.132-3.278-0.168-6.674-0.115-10.615L145.576,327.354
		L145.576,327.354z M146.209,342.382c0.261,3.532,0.598,6.824,1.027,10.038l43.178-5.444c-0.253-2.227-0.453-4.6-0.591-7.064
		L146.209,342.382L146.209,342.382z"/>
	<path id="LV1-B131" stroke-width="0" d="M124.031,356.24l18.799-2.324
		c0.275,2.069,0.594,4.111,0.95,6.08l-11.209,2.194l0.747,3.316l-6.766,1.8l0.569,2.98l6.803-1.278l0.85,3.182l11.124-2.015
		c0.318,1.126,0.751,2.486,1.13,3.68l0.19,0.597l-18.688,6.006C126.552,373.154,125.198,365.861,124.031,356.24L124.031,356.24z
		 M147.344,353.209c0.475,3.425,1.06,6.757,1.743,9.918l42.508-8.534c-0.432-2.144-0.797-4.436-1.087-6.826L147.344,353.209
		L147.344,353.209z M150.088,367.463c0.372,1.468,0.772,2.927,1.192,4.341c0.431,1.454,0.895,2.901,1.379,4.31l40.497-15.028
		c-0.285-0.939-0.554-1.917-0.805-2.914L150.088,367.463L150.088,367.463z"/>
	<path id="LV1-B130" stroke-width="0" d="M152.921,376.866l40.47-15.02
		c0.304,0.955,0.628,1.888,0.967,2.78l-38.053,20.46c-0.141-0.305-0.354-0.765-0.591-1.285c-0.42-0.925-0.917-2.032-1.216-2.771
		c-0.304-0.752-0.599-1.505-0.884-2.262C153.377,378.136,153.146,377.501,152.921,376.866L152.921,376.866z M157.868,388.191
		c2.291,4.273,5.044,8.448,8.188,12.423l25.686-23.137l4.981-7.508c-0.426-0.804-0.833-1.639-1.216-2.49L157.868,388.191
		L157.868,388.191z M167.732,402.646c1.093,1.32,2.147,2.519,3.204,3.65l16.447-17.771l-1.938-1.972L167.732,402.646
		L167.732,402.646z M129.282,383.113c2.803,9.888,6.551,18.779,11.146,26.441l17.279-12.44c-0.47-0.759-1.027-1.791-1.567-2.793
		c-0.309-0.57-0.604-1.117-0.857-1.565l-10.389,4.746l-1.402-2.864l-7.925,3.966l-1.233-3.343l7.37-3.746l-1.62-2.742l10.148-5.972
		c-0.742-1.88-1.448-3.827-2.103-5.805L129.282,383.113L129.282,383.113z"/>
	<path id="LV1-B129" stroke-width="0" d="M141.89,411.909c5.276,8.296,10.81,14.505,17.871,20.047
		l13.186-16.872c-0.859-0.769-1.537-1.454-2.309-2.235L170,412.208l-8.82,7.445l-2.445-2.875l-6.793,6.603l-2.374-2.558l7.034-7.039
		l-1.994-2.825l8.098-6.89c-1.176-1.481-2.324-3.027-3.419-4.6L141.89,411.909L141.89,411.909z"/>
	<path id="LV1-B128" stroke-width="0" d="M176.782,412.01l21.736-27.822l7.139-3.327
		c0.734,0.59,1.223,0.896,2.171,1.453l-22.116,36.589c-0.827-0.544-1.824-1.273-2.646-1.875l-0.57-0.415
		C180.575,415.219,178.654,413.671,176.782,412.01L176.782,412.01z M188.759,420.599c2.552,1.428,5.226,2.733,8.152,3.977
		l17.299-38.994c-1.283-0.573-2.452-1.132-3.484-1.663L188.759,420.599L188.759,420.599z M171.486,406.875
		c1.057,1.105,2.182,2.209,3.42,3.354l14.971-19.165l-1.935-1.969L171.486,406.875L171.486,406.875z M161.967,433.646l0.133,0.101
		c6.549,4.911,14.603,9.301,23.938,13.051l8.53-18.332c-1.769-0.739-3.46-1.504-5.042-2.279l-6.127,9.719l-3.147-2.228l-4.856,7.353
		l-3.105-1.734l4.705-7.516l-2.715-1.892l6.119-8.983c-0.372-0.257-0.739-0.517-1.102-0.781c-1.357-0.985-2.729-2.059-4.087-3.193
		L161.967,433.646L161.967,433.646z"/>
	<path id="LV1-B127" stroke-width="0" d="M197.645,424.887l17.294-38.983
		c1.193,0.521,2.458,1.042,3.768,1.556l-11.852,40.779C203.523,427.174,200.502,426.073,197.645,424.887L197.645,424.887z
		 M210.471,429.354c3.181,0.942,6.565,1.833,10.074,2.648l8.427-42.346c-1.404-0.197-2.71-0.401-3.887-0.606
		c-1.15-0.198-2.163-0.401-3.017-0.599L210.471,429.354L210.471,429.354z M188.737,447.855c7.792,2.974,16.383,5.507,26.238,7.732
		l3.05-19.732c-1.81-0.425-3.599-0.867-5.364-1.333l-4.179,10.965l-2.837-1.058l-2.563,7.436l-3.206-1.258l2.459-7.08l-3.341-1.207
		l3.968-10.687c-1.994-0.666-3.935-1.37-5.778-2.093L188.737,447.855L188.737,447.855z"/>
	<path id="LV1-B126" stroke-width="0" d="M221.321,432.181l8.441-42.413
		c1.06,0.144,2.17,0.289,3.319,0.431c1.159,0.144,2.356,0.287,3.58,0.427l-4.726,43.703
		C228.264,433.672,224.698,432.95,221.321,432.181L221.321,432.181z M235.274,435.025c3.572,0.597,7.157,1.116,10.936,1.583
		l4.576-44.373c-1.792-0.174-3.646-0.356-5.459-0.537c-1.799-0.183-3.556-0.363-5.165-0.535L235.274,435.025L235.274,435.025z
		 M217.673,456.244c8.934,1.948,17.575,3.46,26.394,4.618l0.765-20.279c-2.405-0.308-4.832-0.645-7.226-1.006l-0.263,9.935h-4.218
		l-0.486,8.321l-3.498-0.254l0.438-8.275l-4.024-0.678l0.913-10.961c-1.953-0.379-3.883-0.777-5.792-1.196L217.673,456.244
		L217.673,456.244z"/>
	<path id="LV1-B125" stroke-width="0" d="M247,436.703l4.578-44.392
		c2.884,0.28,5.553,0.53,7.544,0.717l2.274,0.21c0.335,0.031,0.607,0.056,0.805,0.074l-4.188,44.553
		C253.676,437.459,250.247,437.097,247,436.703L247,436.703z M261.735,438.161c3.973,0.346,8.088,0.65,12.246,0.903l2.689-44.473
		c-3.674-0.271-7.18-0.59-10.693-0.97L261.735,438.161L261.735,438.161z M246.831,461.139c8.125,1.022,16.423,1.816,26.043,2.497
		l0.409-20.435c-2.509-0.152-5.047-0.321-7.605-0.512l-0.247,9.446l-3.931-0.196l-0.629,9.813l-3.744-0.422l0.628-9.47l-3.946-0.094
		l0.202-10.117c-2.144-0.221-4.29-0.459-6.435-0.718L246.831,461.139L246.831,461.139z"/>
	<path id="LV1-B124" stroke-width="0" d="M274.776,439.112l2.688-44.464
		c3.51,0.253,7.077,0.456,10.876,0.621l-1.849,44.406C282.496,439.525,278.558,439.337,274.776,439.112L274.776,439.112z
		 M290.582,439.813c4.017,0.125,8.118,0.211,12.202,0.26l0.27-44.396c-3.955-0.071-7.571-0.171-11.026-0.298L290.582,439.813
		L290.582,439.813z M275.559,463.848c8.28,0.55,16.264,0.935,24.382,1.178l0.812-20.834c-2.276-0.031-4.63-0.073-7.054-0.135
		l-0.383,10.252h-4.117l-0.483,9.164h-3.781l0.241-8.913l-2.324-0.239l0.385-10.608l-1.161-0.046
		c-2.032-0.082-3.953-0.161-6.106-0.28L275.559,463.848L275.559,463.848z"/>
	<path id="LV1-B123" stroke-width="0" d="M303.579,440.082l0.271-44.391
		c3.646,0.063,7.265,0.1,10.834,0.121l-0.557,44.309l-2.326,0.005C309.221,440.126,306.471,440.112,303.579,440.082L303.579,440.082
		z M318.191,395.828l-0.443,44.275c2.985-0.02,5.65-0.049,7.937-0.075c1.412-0.015,2.678-0.03,3.787-0.038l0.213-44.149h-1.611
		C324.841,395.841,321.539,395.839,318.191,395.828L318.191,395.828z M302.78,465.1c7.589,0.214,16.555,0.431,25.965,0.443
		l-0.311-21.412c-0.898,0.011-1.787,0.022-2.771,0.035c-1.122,0.016-2.368,0.033-3.891,0.048l-0.204,11.774l-4.544,0.055
		l0.219,8.075h-2.913l-0.325-8.137l-3.536-0.11l-0.211-11.603c-2.11-0.005-4.329-0.017-6.631-0.042L302.78,465.1L302.78,465.1z"/>
	<path id="LV1-B122" stroke-width="0" d="M330.479,395.841c3.773,0,7.734-0.012,11.509-0.042
		v44.122l-2.974,0.021c-2.576,0.021-4.959,0.037-7.363,0.037l-1.384,0.007L330.479,395.841L330.479,395.841z M345.605,395.767
		l-0.107,44.154c3.631-0.032,7.438-0.082,11.377-0.154l-0.443-44.214C352.824,395.649,349.215,395.72,345.605,395.767
		L345.605,395.767z M331.24,444.125l0.101,21.335c7.897,0,16.524-0.041,26.133-0.34l-0.422-21.201
		c-2.232,0.042-4.199,0.063-6.293,0.089l-0.719,0.009l0.383,11.531l-4.736,0.108l0.107,8.611l-2.855,0.079l-0.162-8.627h-3.964
		l-0.151-11.613c-2.379,0.011-4.662,0.017-6.827,0.017L331.24,444.125L331.24,444.125z"/>
	<path id="LV1-B121" stroke-width="0" d="M357.227,395.53c3.607-0.101,7.215-0.227,10.818-0.375
		l1.893,44.283c-4.188,0.134-8.291,0.237-12.266,0.313L357.227,395.53L357.227,395.53z M371.811,394.994l1.984,44.318
		c3.709-0.135,7.469-0.297,11.254-0.487l-2.604-44.394C378.9,394.643,375.355,394.829,371.811,394.994L371.811,394.994z
		 M359.844,443.853l0.383,21.128c7.725-0.26,16.117-0.708,25.637-1.372l-0.729-20.5c-1.408,0.065-2.746,0.094-4.088,0.121
		c-1.004,0.021-2.01,0.041-3.047,0.079l0.16,11.321h-3.91l0.053,8.545l-3.074,0.074l-0.055-8.019l-4.506,0.111l-0.088-11.649
		C364.303,443.755,362.055,443.806,359.844,443.853L359.844,443.853z"/>
	<path id="LV1-B120" stroke-width="0" d="M383.24,394.383c3.545-0.213,7.088-0.451,10.635-0.712
		l3.371,44.426c-3.709,0.257-7.541,0.486-11.402,0.686L383.24,394.383L383.24,394.383z M397.766,393.388l3.352,44.436
		c3.787-0.288,7.703-0.64,11.654-1.049l-4.279-44.207l-5.021,0.357c-1.01,0.087-2.029,0.172-3.049,0.252L397.766,393.388
		L397.766,393.388z M387.801,442.852l0.764,20.636c9.66-0.697,17.289-1.404,24.623-2.28l-0.535-20.116
		c-1.635,0.153-3.244,0.277-4.873,0.403l-2.289,0.179l0.658,10.507l-4.443,0.446l0.332,8.796l-3.008,0.302l-0.443-8.998l-4.16,0.055
		l-0.535-10.279C391.859,442.621,389.828,442.74,387.801,442.852L387.801,442.852z"/>
	<path id="LV1-B119" stroke-width="0" d="M409.287,392.511c1.732-0.129,3.668-0.273,5.537-0.421
		c1.854-0.144,3.641-0.293,5.104-0.425l4.928,43.688c-3.676,0.483-7.469,0.934-11.291,1.337L409.287,392.511L409.287,392.511z
		 M423.426,391.341l5.117,43.563c3.764-0.543,7.424-1.146,10.887-1.796l-8.943-42.714c-1.17,0.194-2.346,0.365-3.527,0.523
		C425.785,391.075,424.607,391.213,423.426,391.341L423.426,391.341z M415.273,440.766l0.543,20.07
		c9.006-1.113,17.473-2.462,25.859-4.118l-3.113-19.1c-1.732,0.307-3.504,0.598-5.303,0.877l0.939,10.659l-3.934,0.383l0.721,8.36
		l-3.346,0.286l-0.664-8.377l-4.826,0.776l-0.721-10.488C419.396,440.333,417.346,440.556,415.273,440.766L415.273,440.766z"/>
	<path id="LV1-B118" stroke-width="0" d="M441.195,437.127c2.258-0.424,4.455-0.872,6.539-1.34
		l2.537,10.681l3.902-1.278l2.107,7.217l2.967-1.184l-2.098-6.781l3.998-1.337l-3.502-9.897l0.594-0.178
		c1.629-0.485,3.172-0.945,4.676-1.501l7.82,17.515c-8.035,2.84-16.691,5.195-26.436,7.194L441.195,437.127L441.195,437.127z
		 M431.273,390.262l8.939,42.7c3.643-0.697,6.977-1.426,9.92-2.173l-11.801-41.896c-0.768,0.156-1.764,0.354-2.611,0.52
		l-1.783,0.353c-0.508,0.103-1.02,0.2-1.531,0.297C432.027,390.131,431.65,390.197,431.273,390.262L431.273,390.262z
		 M441.744,388.216l11.828,41.584c1.725-0.496,3.367-1.011,4.891-1.535c1.537-0.528,3.008-1.085,4.379-1.655l-17.697-39.186
		c-0.998,0.259-2.014,0.484-3.092,0.724L441.744,388.216L441.744,388.216z"/>
	<path id="LV1-B117" stroke-width="0" d="M445.924,387.214c1.191-0.335,2.256-0.701,3.289-1.13
		l23.002,35.867c-0.488,0.261-1.395,0.741-2.416,1.277c-1.523,0.797-3.299,1.717-4.311,2.199c-0.365,0.174-0.738,0.346-1.115,0.517
		c-0.264,0.117-0.529,0.235-0.797,0.353L445.924,387.214L445.924,387.214z M452.07,384.677l22.986,35.514
		c3.094-1.918,5.713-3.778,8.406-5.97l-21.846-28.017l-7.205-3.012C453.633,383.749,452.848,384.248,452.07,384.677L452.07,384.677z
		 M470.238,393.171l15.252,19.448c1.387-1.184,2.732-2.419,4.012-3.679l-17.236-17.767L470.238,393.171L470.238,393.171z
		 M465.451,430.417l7.896,17.779c6.131-2.275,11.521-4.787,16.029-7.472c2.957-1.758,5.793-3.642,8.436-5.596l-12.205-16.479
		c-1.621,1.248-3.533,2.605-5.457,3.87l5.535,8.415l-3.273,2.106l4.541,7.026l-2.818,1.881l-4.727-7.053l-3.941,2.275l-5.469-8.832
		c-0.502,0.25-1.008,0.495-1.521,0.737C467.559,429.521,466.564,429.961,465.451,430.417L465.451,430.417z"/>
	<path id="LV1-B116" stroke-width="0" d="M487.637,417.007l12.227,16.552
		c7.215-5.607,13.473-12.185,18.609-19.563l-16.678-12.179c-0.953,1.356-1.934,2.65-3.119,4.11l7.48,7.443l-3.043,2.973l6.631,5.734
		l-2.346,2.34l-6.742-5.529l-2.775,3.096l-7.168-7.638C489.73,415.241,488.695,416.132,487.637,417.007L487.637,417.007z"/>
	<path id="LV1-B115" stroke-width="0" d="M468.666,380.241l-4.205-8.959
		c0.279-0.545,0.418-0.881,0.596-1.307c0.047-0.113,0.098-0.232,0.152-0.363l38.104,20.692c-2.309,4.366-5.02,8.482-8.066,12.245
		L468.666,380.241L468.666,380.241z M466.561,366.215l38.732,20.097c1.266-2.713,2.426-5.586,3.457-8.551l-41.164-14.542
		C467.305,364.135,466.979,365.086,466.561,366.215L466.561,366.215z M472.834,390.614l17.232,17.765
		c1.244-1.254,2.443-2.552,3.574-3.867l-18.779-15.891L472.834,390.614L472.834,390.614z M503.313,399.59l16.732,12.078
		c4.826-7.349,8.473-15.053,11.441-24.176l-18.879-6.687c-0.457,1.308-0.887,2.342-1.377,3.524l-0.225,0.544l9.795,5.803l-1.9,3.425
		l7.127,3.82l-1.395,2.606l-7.229-3.682l-1.34,3.062l-9.848-5.067C505.293,396.474,504.318,398.067,503.313,399.59L503.313,399.59z"
		/>
	<path id="LV1-B114" stroke-width="0" d="M467.814,362.454c0.287-0.989,0.543-2.005,0.793-3.141
		l42.994,8.717c-0.76,3.116-1.633,6.133-2.594,8.977L467.814,362.454L467.814,362.454z M469.285,355.74l43.111,8.804
		c0.678-3.142,1.271-6.467,1.766-9.898l-43.922-5.477C469.998,351.415,469.684,353.572,469.285,355.74L469.285,355.74z
		 M513.42,378.267l18.951,6.676c2.467-7.953,4.244-16.567,5.582-27.03l-19.52-1.899c-0.299,2.143-0.58,3.906-0.939,5.9l11.557,1.362
		l-0.643,4.495l6.273,1.218l-0.693,2.804l-6.473-1.013l-0.701,3.628l-11.721-1.742C514.58,374.557,514.02,376.438,513.42,378.267
		L513.42,378.267z"/>
	<path id="LV1-B113" stroke-width="0" d="M470.322,348.376c0.215-2.133,0.375-4.388,0.496-7.036
		l44.59,2.3c-0.305,3.569-0.686,7.002-1.133,10.217L470.322,348.376L470.322,348.376z M470.93,337.677l44.76,2.259
		c0.252-3.561,0.441-7.308,0.576-11.425l-45.127-0.7C471.105,330.76,471.057,334.186,470.93,337.677L470.93,337.677z
		 M518.811,353.365l19.582,1.954c1.09-9.173,1.496-17.794,1.74-25.073l-19.498-0.122c-0.064,1.729-0.16,3.358-0.262,5.035
		l-0.08,1.343l10.381,0.231l0.256,3.843l6.477,0.387l-0.182,2.698l-6.217-0.195l-0.887,4.454l-10.691,0.009
		C519.246,349.751,519.041,351.566,518.811,353.365L518.811,353.365z"/>
	<path id="LV1-B112" stroke-width="0" d="M471.145,327.015l0.035-3.768
		c0.018-2.216,0.037-4.495,0.068-6.861l45.254-0.279c-0.035,4.315-0.105,8.121-0.211,11.608L471.145,327.015L471.145,327.015z
		 M471.611,301.807c-0.023,1.041-0.053,1.964-0.084,2.751c-0.109,2.829-0.182,5.601-0.232,8.313l45.227-0.164
		c0.016-3.146,0.016-6.299,0.016-9.45v-1.449L471.611,301.807L471.611,301.807z M520.662,327.507l19.629,0.13
		c0.26-8.688,0.279-17.418,0.279-24.935l0.004-0.621l-19.686,0.351l-0.004,6.941l9.895,0.095l-0.061,4.157l7.066,0.188l0.496,3.479
		l-7.814-0.192l0.059,3.456l-9.713-0.431C520.781,322.592,520.732,325.054,520.662,327.507L520.662,327.507z"/>
	<path id="LV1-B111" stroke-width="0" d="M471.627,301.011c0.057-2.973,0.072-6.722,0.053-10.898
		l44.889-0.191c-0.02,3.56-0.031,7.095-0.031,10.59v0.499H471.627L471.627,301.011z M471.564,276.293
		c0.061,3.493,0.092,6.891,0.117,10.276l44.635-0.496l0.012-3.619c0.008-2.465,0.02-4.933,0.008-7.403L471.564,276.293
		L471.564,276.293z M520.906,293.59c0,1.988,0.047,5.065,0.064,6.156l19.65-0.297c0.035-1.528,0.1-3.254,0.168-5.166
		c0.189-5.081,0.422-11.381,0.334-18.773l-20.143,1.043c0.01,1.234-0.004,2.353-0.021,3.489c-0.01,0.811-0.021,1.631-0.023,2.508
		l10.609-0.146v4.149l7.471-0.065l-0.607,2.966h-6.857l0.063,4.014L520.906,293.59L520.906,293.59z"/>
	<path id="LV1-B110" stroke-width="0" d="M471.268,264.53l44.809-1.328
		c0.152,3.266,0.236,6.799,0.258,11.052l-44.783,1.242C471.482,271.605,471.389,268.01,471.268,264.53L471.268,264.53z
		 M470.949,254.08c0.17,2.61,0.287,4.839,0.373,7.124l44.877-1.327c-0.205-3.389-0.52-6.914-0.939-10.489L470.949,254.08
		L470.949,254.08z M520.721,266.777c0.074,2.352,0.119,4.706,0.152,7.054l20.096-1.059c-0.154-8.814-0.699-17.273-1.621-25.155
		l-19.668,1.963c0.178,1.843,0.33,3.692,0.465,5.547l10.523-0.655l0.068,4.2l8.068-0.536l-0.168,3.603l-8.262,0.465l0.33,4.207
		L520.721,266.777L520.721,266.777z"/>
	<path id="LV1-B109" stroke-width="0" d="M470.428,246.82l43.215-8.485
		c0.584,3.292,1.098,6.74,1.523,10.263l-44.271,4.688c-0.1-1.486-0.207-2.938-0.316-4.403L470.428,246.82L470.428,246.82z
		 M469.908,240.91c0.082,0.84,0.119,1.319,0.18,2.116l0.016,0.229l42.795-8.803c-0.59-2.83-1.262-5.569-2.004-8.159l-39.07,12.906
		L469.908,240.91L469.908,240.91z M518.654,241.013c0.33,2.296,0.563,4.107,0.76,5.916l19.684-1.922
		c-1.188-9.271-2.922-17.76-5.299-25.92l-18.65,5.07c0.67,2.418,1.293,4.91,1.74,6.963l10.365-2.446l0.451,3.205l7.234-1.705
		l0.67,2.941l-6.752,1.943l0.271,3.417L518.654,241.013L518.654,241.013z"/>
	<path id="LV1-B108" stroke-width="0" d="M475.586,231.266l31.623-15.673
		c0.877,2.145,1.461,4.176,2.076,6.318c0.18,0.627,0.363,1.266,0.559,1.921l-37.963,12.639L475.586,231.266L475.586,231.266z
		 M468.123,232.049c0.107,0.339,0.24,0.595,0.389,0.884c0.15,0.292,0.314,0.61,0.473,1.049l4.553-5.951l32.061-16.087
		c-1.27-2.667-2.715-5.194-4.752-8.315l-29.023,21.407L468.123,232.049L468.123,232.049z M484.563,203.193l4.938,5.162l9.928-7.277
		c-1.594-2.308-3.332-4.524-5.178-6.596L484.563,203.193L484.563,203.193z M512.83,216.864c0.543,1.51,1.057,3.054,1.531,4.602
		l18.58-5.141c-3.094-10.027-6.707-18.197-11.344-25.643l-16.268,10.506c1.063,1.719,2.07,3.497,3,5.292l8.055-4.043l0.191,0.299
		c0.035,0.052,0.807,1.245,1.771,3.345l7.484-3.827l1.365,3.053l-7.492,3.831c0.857,1.994,1.342,3.615,1.361,3.688l0.1,0.335
		L512.83,216.864L512.83,216.864z"/>
	<path id="LV1-B107" stroke-width="0" d="M501.275,195.289l6.998-6.035l-0.248-0.301
		c-0.01-0.012-0.977-1.176-2.389-2.683l5.58-5.636l-2.045-2.12l-5.676,5.659l-3.266-3.442l-6.244,6.371
		c-1.246-1.2-2.43-2.254-3.859-3.43l11.662-15.142c0.057,0.045,0.109,0.09,0.164,0.134c0.131,0.106,0.264,0.215,0.447,0.354
		c6.74,5.231,12.678,11.726,17.648,19.306l-16.199,10.583C503.041,197.689,502.176,196.476,501.275,195.289L501.275,195.289z"/>
	<path id="LV1-B106" stroke-width="0" d="M483.043,178.613l4.4-7.553l-3.201-1.857l4.23-7.213
		l-3.203-2.086l-4.41,7.359l-3.891-2.125l-4.141,7.673c-1.973-0.889-3.572-1.576-5.498-2.292l7.926-16.521
		c9.361,3.648,17.088,7.743,24.248,12.857l-11.576,15.029c-1.408-1.085-2.535-1.791-3.934-2.668L483.043,178.613L483.043,178.613z
		 M451.508,216.356c0.646,0.252,1.287,0.518,1.918,0.796l7.451-2.283l24.109-28.9c-2.209-1.744-4.566-3.392-7.018-4.904
		c-0.113-0.072-0.225-0.142-0.336-0.209l-20.064,31.187L451.508,216.356L451.508,216.356z M465.77,174.966l-14.934,36.573
		c2.121-1.372,4.266-2.749,4.691-3.022l18.271-29.8C471.186,177.38,468.438,176.014,465.77,174.966L465.77,174.966z
		 M479.072,197.446l4.941,5.17l9.705-8.727c-1.938-2.127-4.041-4.157-6.256-6.042L479.072,197.446L479.072,197.446z"/>
	<path id="LV1-B105" stroke-width="0" d="M443.174,213.831L455,171.499
		c2.932,0.842,5.744,1.756,8.367,2.718l-16.074,39.715l-1.129,0.731l-0.469-0.143C444.721,214.227,444.264,214.088,443.174,213.831
		L443.174,213.831z M432.738,211.912c1.928,0.263,4.355,0.623,6.869,1.137l11.174-42.7c-3.176-0.816-6.566-1.586-10.098-2.291
		L432.738,211.912L432.738,211.912z M459.957,168.028c1.648,0.504,3.254,1.03,4.785,1.567l7.963-16.558
		c-7.9-2.979-16.072-5.388-25.641-7.556l-2.824,18.601c1.912,0.388,3.391,0.711,5.238,1.144l2.203-8.697l3.48,0.933l2.539-8.276
		l3.443,1.126l-2.375,8.188l3.834,1.085L459.957,168.028L459.957,168.028z"/>
	<path id="LV1-B104" stroke-width="0" d="M434.559,162.332l1.178-9.283l-4.285-0.565l1.414-9.895
		c3.953,0.697,7.838,1.468,11.557,2.291l-2.82,18.647c-1.939-0.376-3.742-0.664-5.641-0.97L434.559,162.332L434.559,162.332z
		 M425.154,210.923c1.322,0.184,2.645,0.351,3.965,0.518c0.941,0.12,1.885,0.239,2.83,0.365l7.955-43.903
		c-3.408-0.668-7.02-1.292-10.75-1.858L425.154,210.923L425.154,210.923z M411.482,209.168c3.74,0.337,7.193,0.719,10.523,1.165
		l3.709-44.776c-3.584-0.503-7.186-0.942-10.988-1.337L411.482,209.168L411.482,209.168z"/>
	<path id="LV1-B103" stroke-width="0" d="M399.447,208.271l3.215-45.129
		c4.219,0.325,7.822,0.643,11.271,0.996l-3.246,44.96C407.48,208.817,403.979,208.56,399.447,208.271L399.447,208.271z
		 M384.859,207.559c3.139,0.062,6.818,0.159,10.729,0.385l3.199-45.146c-3.939-0.283-7.893-0.53-11.766-0.739L384.859,207.559
		L384.859,207.559z"/>
	<path id="LV1-B102" stroke-width="0" d="M373.199,207.355l1.357-45.835
		c3.814,0.125,7.736,0.292,11.668,0.498l-2.162,45.526c-1.352-0.025-2.709-0.045-4.078-0.067
		C377.762,207.442,375.512,207.408,373.199,207.355L373.199,207.355z M361.619,156.773c1.174,0.014,2.717,0.003,4.299-0.004
		c1.961-0.01,3.988-0.022,5.459,0.006l0.67-7.298l4.584-0.137l0.879-9.54l-2.068-0.137l0.518-2.663
		c-3.561-0.13-7.262-0.231-11.012-0.3l-0.492,3.122h-2.051L361.619,156.773L361.619,156.773z M359.523,206.945l3.721,0.107
		c2.221,0.065,4.424,0.13,6.553,0.184l1.322-45.847c-3.842-0.093-7.613-0.162-11.273-0.214L359.523,206.945L359.523,206.945z"/>
</g>
<g id="LEVEL-2-AREAS">
	<path id="LV2-B252" stroke-width="0" d="M302.236,124.742c-5.81,0.083-10.911,0.222-16.775,0.415
		l-0.457-9.018l3.254-0.115l-0.514-14.837l-4.451,0.287l-0.4-5.593l-2.286,0.113l0.347,5.594l-4.227,0.228l0.914,11.813l3.938-0.283
		l0.799,11.925c-4.016,0.146-8.2,0.243-12.213,0.455l-3.138-30.872c12.56-0.665,24.915-1.002,37.786-1.152l0.735,17.759l-6.448,0.17
		l0.113,6.277l2.514-0.055L302.236,124.742z"/>
	<path id="LV2-B251" stroke-width="0" d="M251.904,127.097c-4.32,0.379-10.362,0.866-14.609,1.367
		l-4.626-30.872c4.855-0.581,10.158-1.039,15.113-1.466l1.153,7.856l-4.395,0.459l1.37,11.24l4.28-0.17L251.904,127.097z
		 M254.299,126.809c5.385-0.443,9.622-0.723,15.06-1.015l-3.27-30.935c-5.237,0.282-10.437,0.625-15.585,1.039l1.001,7.914
		l4.165-0.458l1.085,11.586l-3.879,0.512L254.299,126.809z"/>
	<path id="LV2-B250" stroke-width="0" d="M220.473,119.159l4.451-0.888l-1.898-10.863l-4.51,0.713
		l-1.07-5.758l-2.255,0.297l1.186,5.935l-4.215,0.71l1.782,10.864l4.037-0.772l1.838,11.518c-3.612,0.625-7.609,1.478-11.118,2.23
		l-6.735-30.359c9.921-2.193,19.181-3.742,29.736-5.022l4.738,30.758c-5.191,0.618-8.908,1.206-13.949,2.032L220.473,119.159z"/>
	<path id="LV2-B249" stroke-width="0" d="M192.097,123.372l4.514-1.423l-3.325-10.387l-3.799,1.129
		l-1.484-4.989l-2.375,0.773l1.483,4.869l-3.917,1.366l3.266,9.969l3.501-1.069l4.037,13.121c-2.218,0.642-6.376,1.923-8.528,2.634
		l-11.584-28.535c8.741-3.181,17.69-5.718,27.187-7.839l6.74,30.31c-4.377,0.954-7.555,1.664-11.736,2.836L192.097,123.372z"/>
	<path id="LV2-B248" stroke-width="0" d="M168.829,131.151l4.159-1.781l-4.989-9.914l-4.312,1.966
		l-2.097-4.341l-1.841,0.949l2.195,4.571l-3.799,2.077l5.105,9.614l3.681-1.662l5.79,11.691c-2.636,1.162-5.36,2.53-7.852,3.832
		l-16.125-25.842c7.653-4.355,15.782-8.056,24.313-11.194l11.615,28.534c-3.867,1.291-6.399,2.31-10.028,3.843L168.829,131.151z"/>
	<path id="LV2-B247" stroke-width="0" d="M148.056,143.378l3.027-2.316l-6.401-8.621l-3.571,2.506
		l-3.325-4.036l-1.78,1.424l3.324,4.215l-2.969,2.434l6.829,8.01l2.527-1.997l7.8,9.774c-2.326,1.628-5.033,3.752-7.196,5.594
		l-20.833-21.231c1.739-1.59,3.392-3.047,5.211-4.525c5.481-4.45,11.076-8.313,17.218-11.852l16.209,25.737
		c-3.282,1.732-5.531,2.799-8.529,4.794L148.056,143.378z"/>
	<path id="LV2-B246" stroke-width="0" d="M129.122,160.23l3.087-3.38l-8.729-7.659l-2.848,3.031
		l-3.207-3.076l-1.625,1.787l3.408,3.009l-2.792,3.146l9.024,7.599l2.149-2.37l8.745,7.953c-1.942,2.178-4.096,4.469-5.882,6.817
		l-23.115-17.746c5.254-7.077,11.21-13.832,17.5-19.647l20.919,21.264c-2.708,2.34-5.293,4.841-7.754,7.481L129.122,160.23z"/>
	<path id="LV2-B245" stroke-width="0" d="M122.967,188.253c-1.93,3.175-3.273,5.734-4.987,9.092
		l-8.331-4.399l4.81-9.97L122.967,188.253z M124.318,185.791c1.845-2.905,3.576-5.367,5.622-8.075l-23.057-17.75
		c-5.541,7.51-10.178,15.193-14.592,23.724l13.547,7.03l3.227-6.924l-7.217-4.048l1.996-4.163l-3.989-2.524l1.057-2.052l3.869,2.463
		l2.558-3.862l9.295,5.916l-2.229,3.813L124.318,185.791z"/>
	<path id="LV2-B244" stroke-width="0" d="M104.371,202.917l4.927-9.208l8.273,4.343
		c-1.511,2.98-3.01,6.403-4.353,9.5L104.371,202.917z M91.934,184.439c-4.269,8.318-8.009,17.062-11.249,25.975l27.279,10.214
		c1.278-3.667,2.783-7.19,4.265-10.748l-10.559-5.26l-1.405,3.635l-9.915-4.165l1.524-3.694l-4.868-2.23l0.764-1.643l4.867,1.995
		l1.821-3.46l7.564,3.522l3.402-7.159L91.934,184.439z"/>
	<path id="LV2-B243" stroke-width="0" d="M92.347,229.604l1.113-4.105l-10.091-3.401l-1.29,4.751
		l-4.87-1.409l-0.467,1.876l4.573,1.35l-0.938,4.105l10.502,2.992l0.821-3.811l11.828,3.582c-1.081,4.011-2.056,8.041-2.927,12.08
		l-28.608-8.062c2.289-9.659,5.009-18.922,8.406-28.341l27.338,10.214c-1.347,3.905-2.379,7.587-3.506,11.571L92.347,229.604z"/>
	<path id="LV2-B242" stroke-width="0" d="M85.776,257.292l0.644-3.99l-10.558-1.879l-0.764,4.344
		l-4.927-0.94l-0.294,1.996l5.025,0.762l-0.508,3.637l10.617,1.583l0.382-3.023l12.591,1.895c-0.653,4.139-1.381,8.121-1.831,12.195
		l-29.566-5.193c1.206-9.434,2.93-18.627,5.194-28.248l28.65,7.987c-0.787,3.694-1.429,7.107-2.044,10.79L85.776,257.292z"/>
	<path id="LV2-B241" stroke-width="0" d="M81.785,285.859l0.177-4.928l-10.268-0.174l-0.208,4.228
		l-5.364-0.181l-0.059,2.287l5.572,0.175l-0.149,4.713h10.329l0.086-3.951l13.224,0.593c-0.24,4.417-0.539,7.965-0.549,12.162
		l-30.016-0.26c0.021-9.988,0.523-19.904,1.884-30.743l29.438,5.043c-0.436,4.031-0.379,7.674-0.626,11.59L81.785,285.859z"/>
	<path id="LV2-B240" stroke-width="0" d="M95.14,315.65c0.215,3.751,0.521,7.564,0.921,11.425
		l-30.058,3.771c-0.495-4.768-0.715-8.981-0.978-13.618l6.135-0.297l0.417,3.943l9.798-0.764l-0.176-3.635L95.14,315.65z
		 M94.926,313.659c-0.168-3.657-0.373-11.845-0.373-11.879l-30.02-0.285c0.004,4.21,0.095,8.95,0.298,13.34l6.161-0.353l0.175-3.756
		l9.74-0.525l0.175,4.281L94.926,313.659z"/>
	<path id="LV2-B239" stroke-width="0" d="M98.072,342.121c0.637,3.875,1.206,7.377,2.039,11.272
		l-29.167,8.589c-1.035-4.849-1.814-9.181-2.586-14.017l6.859-1.51l0.646,3.932l9.62-2.288l-0.646-3.754L98.072,342.121z
		 M97.713,339.865c-0.626-4.038-1.149-8.057-1.573-12.028l-29.933,3.96c0.438,4.164,0.933,9.207,1.559,13.43l6.923-1.526
		l-0.646-3.401l9.737-1.759l0.648,3.811L97.713,339.865z"/>
	<path id="LV2-B238" stroke-width="0" d="M103.844,368.41c1.214,4.282,2.275,8.007,3.754,12.2
		l-28.647,10.806c-1.635-4.789-2.796-8.646-4.139-13.532l6.838-2.503l1.487,4.466l9.855-3.46l-1.233-3.813L103.844,368.41z
		 M81.082,372.748l-1.303-4.44l10.003-3.088l1.221,4.553l12.27-3.598c-1.08-3.974-2.046-7.975-2.908-11.974l-29.221,8.661
		c0.875,4.076,1.843,8.149,2.907,12.199L81.082,372.748z"/>
	<path id="LV2-B237" stroke-width="0" d="M113.085,394.372c1.493,3.429,2.555,6.131,4.252,9.419
		l-8.447,4.593l-4.694-9.52L113.085,394.372z M84.666,406.645c1.763,4.214,3.656,8.353,5.681,12.391l14.231-8.454l-3.082-6.146
		l-7.652,3.542l-2.277-4.469L84.666,406.645z M90.466,401.323l-1.642-4.282l10.442-4.28l1.878,4.573l10.911-5.16
		c-1.266-3.054-3.083-7.651-4.199-10.782l-28.516,10.807c1.268,3.684,2.933,8.638,4.379,12.236L90.466,401.323z"/>
	<path id="LV2-B236" stroke-width="0" d="M124.431,415.941c1.696,2.682,3.511,5.642,5.371,8.165
		l-24.352,19.657c-2.702-3.592-4.829-6.773-7.236-10.643l6.392-4.739l2.933,3.93l8.682-6.397l-2.464-3.458L124.431,415.941z
		 M109.374,409.274l5.202,9.269l8.476-4.829c-1.733-2.854-3.745-6.044-5.304-9.042L109.374,409.274z M103.491,426.034l-2.581-3.872
		l7.859-4.459l-3.464-6.315l-14.546,8.485c1.857,3.666,3.75,7.089,5.829,10.577L103.491,426.034z"/>
	<path id="LV2-B235" stroke-width="0" d="M137.449,433.146c2.357,2.591,4.493,4.784,7.071,7.109
		l-19.987,23.956c-3.299-2.819-6.315-5.725-9.311-8.902l5.751-5.513l2.873,2.757l7.568-7.565l-2.992-2.876L137.449,433.146z
		 M136.167,431.732c-2.051-2.349-3.963-4.384-5.845-6.908l-24.284,19.659c2.259,2.968,4.956,6.329,7.425,9.078l6.042-5.522
		l-2.932-3.168l8.037-7.686l2.581,3.049L136.167,431.732z"/>
	<path id="LV2-B234" stroke-width="0" d="M154.776,448.333c2.771,1.891,5.295,3.558,8.304,5.206
		l-15.432,26.626c-3.958-2.13-7.563-4.262-11.252-6.721l4.695-6.625l4.05,2.756l5.514-8.919l-3.112-2.111L154.776,448.333z
		 M139.159,465.701l-3.463-2.757l6.218-8.682l3.286,2.523l7.324-10.037c-2.549-1.854-5.061-3.815-7.416-5.912l-19.922,23.896
		c3.014,2.541,6.073,5.146,9.312,7.403L139.159,465.701z"/>
	<path id="LV2-B233" stroke-width="0" d="M164.901,480.572l4.35,1.794l3.871-9.797l-3.931-1.645
		l5.107-11.906c2.953,1.247,6.423,2.435,9.537,3.511l-9.627,29.212c-4.19-1.434-8.285-2.985-12.278-4.669L164.901,480.572z
		 M172.36,458.255c-3.071-1.351-5.625-2.707-8.5-4.264l-15.496,26.566c3.335,1.765,7.345,3.797,10.854,5.347l2.754-6.311
		l-3.751-1.805l4.634-9.68l4.225,1.997L172.36,458.255z"/>
	<path id="LV2-B232" stroke-width="0" d="M190.271,488.785l3.985,0.894l2.273-10.479l-4.048-0.881
		l2.933-11.845c4.097,1.113,7.271,1.597,11.554,2.49l-5.142,30.274c-4.642-0.977-8.553-1.881-13.035-3.08L190.271,488.785z
		 M193.184,465.711c-2.869-0.821-5.793-1.926-8.552-2.864l-9.636,29.231c3.706,1.247,7.657,2.39,11.502,3.459l1.522-7.303
		l-4.104-0.88l2.521-10.792l4.047,0.82L193.184,465.711z"/>
	<path id="LV2-B231" stroke-width="0" d="M234.819,504.6c-5.28-0.615-10.504-1.315-15.653-2.128
		l0.591-8.546l3.846,0.141l0.73-10.698l-3.462-0.294l0.867-11.521c4.833,0.749,9.745,1.388,14.72,1.936L234.819,504.6z
		 M218.638,471.058c-3.357-0.556-7.556-1.223-10.822-1.893l-5.143,30.332c3.885,0.805,9.463,1.801,13.448,2.467l0.997-8.563
		l-4.576-0.588l0.645-10.558l4.518,0.352L218.638,471.058z"/>
	<path id="LV2-B230" stroke-width="0" d="M250.087,487.889l-3.873-0.353l-0.762,9.912l3.694,0.587
		l-0.578,7.954c-4.222-0.366-8.415-0.786-12.57-1.256l1.333-31.146c4.262,0.454,9.12,0.942,13.457,1.279L250.087,487.889z
		 M251.183,506.209c4.993,0.408,10.028,0.749,15.093,1.04l0.978-31.435c-4.684-0.216-9.356-0.485-13.993-0.816l-0.655,13.124
		l3.228,0.353l-0.469,9.854l-3.754-0.059L251.183,506.209z"/>
	<path id="LV2-B229" stroke-width="0" d="M282.217,489.071l-4.406,0.058v9.982h3.739l-0.501,8.81
		c-4.341-0.163-9.308-0.37-13.613-0.607l0.917-31.446c4.528,0.202,9.659,0.423,14.201,0.546L282.217,489.071z M283.782,507.976
		c4.847,0.162,10.58,0.355,15.447,0.448l0.504-31.787c-4.969-0.049-9.901-0.101-14.892-0.216l-0.115,12.708l3.683-0.058v10.095
		l-4.352,0.055L283.782,507.976z"/>
	<path id="LV2-B228" stroke-width="0" d="M314.567,489.797l-4.353,0.109l0.058,10.041l4.403,0.112
		l0.055,8.59c-4.687-0.039-10.01-0.117-14.692-0.2l0.495-31.78c4.685,0.046,9.351,0.063,13.979,0.076L314.567,489.797z
		 M317.095,508.649c5.076,0.03,10.14,0.042,15.026,0.1l-0.319-32.055c-4.743-0.058-9.588,0.058-14.605,0.052l-0.067,13.16h3.905
		l0.447,10.205l-4.404,0.114L317.095,508.649z"/>
	<path id="LV2-B227" stroke-width="0" d="M348.082,508.649c-4.605,0.034-10.324,0.042-14.894,0.042
		l-0.47-31.941h0.087c4.482,0,9.042-0.005,13.667-0.021l0.658,13.403l-3.734,0.167l0.613,10.202l3.625-0.165L348.082,508.649z
		 M350.477,508.61c4.555-0.044,9.438-0.146,14-0.239l-1.398-31.793c-4.723,0.072-9.406,0.113-14.031,0.138l0.541,13.359l3.518-0.225
		l0.609,10.375l-3.516,0.167L350.477,508.61z"/>
	<path id="LV2-B226" stroke-width="0" d="M379.314,489.071l-4.129,0.395l0.729,10.594l4.18-0.278
		l0.338,8.252c-4.74,0.18-10.389,0.239-15.129,0.346l-1.361-31.81c4.879-0.078,9.787-0.184,14.717-0.337L379.314,489.071z
		 M382.826,507.867c5.004-0.214,10.338-0.527,15.309-0.847l-2.643-31.492c-4.756,0.258-9.516,0.459-14.268,0.622l0.656,12.643
		l4.18-0.278l0.891,10.986l-4.459,0.334L382.826,507.867z"/>
	<path id="LV2-B225" stroke-width="0" d="M411.604,486.898l-3.848,0.443l1.338,11.101l3.906-0.504
		l1.172,7.81c-4.449,0.395-10.531,0.908-15.027,1.206l-2.658-31.486c4.875-0.27,8.613-0.445,13.443-0.839L411.604,486.898z
		 M416.678,505.582c5.279-0.507,9.84-1.038,15.021-1.721l-4.236-30.987c-4.523,0.547-10.471,1.239-15.078,1.644l1.502,12.103
		l4.742-0.562l1.508,10.931l-4.738,0.616L416.678,505.582z"/>
	<path id="LV2-B224" stroke-width="0" d="M443.395,482.327l-4.41,0.669l1.787,10.427l3.959-0.654
		l1.646,8.809c-4.527,0.784-9.119,1.483-13.75,2.108l-4.248-30.938c4.932-0.601,8.213-0.894,13.004-1.688L443.395,482.327z
		 M449.08,501.119c4.971-0.899,9.404-1.835,14.223-2.958l-6.992-30.105c-4.131,0.924-8.406,1.874-12.693,2.615l2.115,11.153
		l4.184-0.781l2.055,10.585l-4.617,0.846L449.08,501.119z"/>
	<path id="LV2-B223" stroke-width="0" d="M471.445,477.749l-4.738,0.951l2.783,10.147l4.129-0.724
		l2.113,6.822c-3.746,1.074-7.559,2.067-11.428,2.98l-7.178-30.114c3.643-0.824,7.221-1.721,10.717-2.699L471.445,477.749z
		 M478.264,494.204c4.596-1.376,8.244-2.63,12.627-4.273l-11.205-28.515c-3.133,1.132-5.975,1.986-9.27,2.964l3.344,12.37
		l3.904-1.303l3.488,11.228l-4.689,1.281L478.264,494.204z"/>
	<path id="LV2-B222" stroke-width="0" d="M502.393,485.294c-3.238,1.461-7.336,3.09-10.723,4.378
		l-11.137-28.58c2.76-1.014,5.752-2.241,8.369-3.384l5.826,12.134l-3.709,1.778l4.35,8.866l4.016-1.838L502.393,485.294z
		 M497.25,468.867l3.822-2.032l4.727,8.854l-4.072,2.234l3.201,6.205c4.207-1.988,6.979-3.5,10.908-5.816l-15.889-26.013
		c-2.896,1.658-5.783,3.01-8.916,4.453L497.25,468.867z"/>
	<path id="LV2-B221" stroke-width="0" d="M526.461,471.654c-2.729,1.933-6.943,4.471-9.842,6.208
		l-15.826-26.019c2.619-1.52,4.965-3.183,7.365-4.899l7.51,10.4l-3.176,2.231l6.246,9.307l3.342-2.392L526.461,471.654z
		 M529.1,469.732c3.369-2.513,6.602-5.164,9.713-7.951l-21.023-22.441c-2.566,2.321-4.904,4.103-7.693,6.188l7.975,9.753
		l3.012-2.288l7.248,8.81l-3.518,2.757L529.1,469.732z"/>
	<path id="LV2-B220" stroke-width="0" d="M534.801,440.725l-3.182,3.18l8.703,7.975l2.787-3.09
		l4.701,4.188c-2.697,2.873-5.51,5.642-8.436,8.293l-20.869-22.708c2.152-1.967,4.982-4.534,6.979-6.65L534.801,440.725z
		 M549.746,450.818c2.881-3.18,5.139-5.788,7.76-9.199l-24.219-18.818c-2.217,2.947-4.061,4.699-6.523,7.437l9.68,8.546l2.982-2.967
		l8.592,7.307l-3.066,3.4L549.746,450.818z"/>
	<path id="LV2-B219" stroke-width="0" d="M540.193,412.438c2.018-3.188,3.809-6.075,5.588-9.418
		l7.891,4.552l-4.871,10.402L540.193,412.438z M559.367,427.731l-2.707,3.851l-8.871-5.913l2.145-3.628l-11.258-7.268
		c-1.42,2.152-3.268,5.252-4.803,7.313l24.086,18.815c2.301-3.019,4.836-6.462,6.932-9.637L559.367,427.731z M566.359,428.79
		c2.428-3.782,4.184-6.769,6.338-10.731l-14.195-7.67l-3.348,6.468l7.92,4.518l-2.178,4.017L566.359,428.79z"/>
	<path id="LV2-B218" stroke-width="0" d="M546.102,402.236c1.539-2.905,2.988-5.86,4.357-8.862
		l8.66,4.522l-4.717,8.944L546.102,402.236z M562.848,396.336l2.209-5.349l9.842,4.637l-1.955,4.393l7.182,3.274
		c1.795-4.036,3.635-8.844,5.186-12.984l-29.232-10.872c-1.438,4.026-2.848,7.641-4.549,11.54L562.848,396.336z M573.258,417.276
		c2.059-3.812,3.988-7.688,5.805-11.637l-7.01-3.169l-2.006,4.463l-7.697-3.904l-3.404,6.581L573.258,417.276z"/>
	<path id="LV2-B217" stroke-width="0" d="M583.152,371.744l1.395-4.351l-10.822-3.063l-1.393,4.46
		l-11.678-3.652c1.088-3.914,2.041-7.53,2.912-11.482l30.66,6.834c-1.035,4.521-2.131,8.91-3.42,13.391L583.152,371.744z
		 M559.898,367.791c-1.063,3.632-2.223,7.236-3.48,10.797l29.283,10.874c1.686-4.556,2.941-8.368,4.346-13.016l-7.75-2.121
		l-1.383,4.228l-10.926-3.297l1.166-3.939L559.898,367.791z"/>
	<path id="LV2-B216" stroke-width="0" d="M597.082,346.29c-0.785,4.561-1.572,8.777-2.611,13.329
		l-30.768-6.844c0.818-3.748,1.705-7.811,2.328-11.56l12.098,2.508l-0.795,4.339l10.789,1.997l0.795-5.252L597.082,346.29z
		 M597.477,343.954c0.662-4.068,1.307-8.456,1.777-12.5l-31.281-5.533c-0.443,4.434-0.98,8.397-1.67,12.879l12.457,2.416
		l0.684-4.111l10.613,1.598l-0.514,3.881L597.477,343.954z"/>
	<path id="LV2-B215" stroke-width="0" d="M581.783,314.903v4.452l10.563,0.4v-4.051h6.045v-2.568
		h-5.65l-0.051-4.62l-10.961-0.06v3.88h-12.785c0.174-3.782,0.283-7.681,0.285-11.356l31.779-0.079
		c0.016,1.901,0.02,3.473-0.016,5.371c-0.041,1.946-0.105,3.893-0.189,5.834c-0.08,1.961-0.184,3.924-0.314,5.887
		c-0.129,1.978-0.281,3.953-0.451,5.93c-0.043,0.514-0.088,1.021-0.137,1.534c-0.162,1.731-0.344,3.458-0.533,5.185l-31.336-5.554
		c0.324-3.314,0.721-7.095,0.912-10.354L581.783,314.903z"/>
	<path id="LV2-B214" stroke-width="0" d="M581.768,287.149l0.139,3.996l11.309-0.137l-0.205-4.898
		l5.375-0.272l-0.139-2.137l-5.443,0.276l-0.416-4.757l-10.969,0.961l0.213,4.141l-12.756,1.177
		c-0.213-4.393-0.527-8.562-0.969-13.038l31.305-3.447c1.24,10.72,1.787,21,1.824,31.054l-31.807,0.069
		c-0.006-3.945-0.08-7.963-0.242-12.03L581.768,287.149z"/>
	<path id="LV2-B213" stroke-width="0" d="M578.662,259.291l0.418,3.448l11.1-1.652l-0.689-4.345
		l5.52-1.034l-0.482-2.138l-5.588,0.964l-0.764-4.341l-10.893,2l0.9,4.477l-12.068,1.934c-0.625-3.919-1.135-7.87-2.004-11.792
		l30.617-4.9c1.893,8.773,3.332,17.579,4.357,26.261l-31.248,3.366c-0.348-3.451-0.768-6.923-1.281-10.406L578.662,259.291z"/>
	<path id="LV2-B212" stroke-width="0" d="M559.939,231.566c-0.318-1.024-0.648-2.044-0.986-3.06
		c-0.848-2.568-1.547-4.958-2.492-7.55l10.963-4.829l3.797,11.929L559.939,231.566z M574.732,243.847l-3.033-13.169l-10.883,3.798
		c1.111,3.791,2.084,7.605,2.936,11.426L574.732,243.847z M594.457,240.812c-1.885-8.617-4.096-16.879-6.883-25.285
		c-0.766-2.299-1.563-4.584-2.398-6.856l-15.887,6.561l2.547,7.932l8.689-2.623l1.447,5.242l6.139-1.793l0.76,2.48l-5.795,1.724
		l1.102,4.141l-8.549,2.548l2.141,8.758L594.457,240.812z"/>
	<path id="LV2-B211" stroke-width="0" d="M550.543,206.52c-1.51-3.426-2.629-5.785-4.391-9.341
		l7.664-4.514l4.574,9.488L550.543,206.52z M566.941,215.166l-4.484-10.965l-10.602,5.354c1.486,3.515,2.875,7.058,4.172,10.586
		L566.941,215.166z M584.879,207.878c-3.43-9.216-7.238-17.726-11.908-26.193l-15.098,8.694l3.488,6.687l7.717-4.173l2.553,4.549
		l5.799-2.834l1.029,2.146l-5.863,2.756l2.137,4.209l-8.207,3.86l2.482,6.551L584.879,207.878z"/>
	<path id="LV2-B210" stroke-width="0" d="M539.256,184.918c-1.703-2.729-3.484-5.378-5.352-7.924
		l9.33-7.26l6.119,8.35L539.256,184.918z M553.471,191.862l-4.975-9.375l-7.717,4.745c1.705,2.852,3.488,6.277,5.027,9.262
		L553.471,191.862z M572.51,180.885c-4.367-7.839-9.311-15.358-14.834-22.217l-12.953,9.924l4.168,5.374l7.207-5.546l2.918,3.833
		l4.346-3.032l1.256,1.944l-4.459,3.258l2.406,3.945l-8.639,5.089l3.543,6.006L572.51,180.885z"/>
	<path id="LV2-B209" stroke-width="0" d="M536.545,160.416l3.086,3.431l7.83-7.035l-3.545-3.659
		l3.773-3.719l-1.826-1.885l-3.719,3.773l-3.371-3.259l-7.49,7.378l3.088,3.086l-8.682,8.579c-2.139-2.257-4.256-4.215-6.586-6.178
		l19.654-21.506c0.248,0.201,0.498,0.406,0.742,0.609c6.449,5.349,12.318,11.36,17.639,17.906l-23.705,18.421
		c-1.838-2.474-3.764-4.849-5.771-7.106L536.545,160.416z"/>
	<path id="LV2-B208" stroke-width="0" d="M518.439,160.304c-2.553-2.113-4.99-3.911-7.803-5.78
		l6.236-9.147l4.633,2.745l6.287-9.492l-4.229-2.63l2.682-3.772l-2.744-1.603l-2.518,3.66l-4.111-2.402l-5.947,9.664l3.605,2.229
		l-6.09,9.294c-2.686-1.699-5.096-3.103-7.982-4.606l14.072-24.927c8.52,4.476,16.268,9.469,23.557,15.343L518.439,160.304z"/>
	<path id="LV2-B207" stroke-width="0" d="M488.066,142.759c-2.938-1.183-5.813-2.313-8.887-3.346
		l3.895-11.533l10.01,3.602L488.066,142.759z M490.799,143.831c2.916,1.254,6.074,2.782,8.83,4.203l14.092-24.941
		c-3.516-1.826-7.123-3.545-10.818-5.156l-2.846,5.711l4.631,2.287l-4.799,9.148l-4.174-2L490.799,143.831z M500.242,116.8
		c-3.623-1.52-7.34-2.941-11.119-4.272l-5.646,13.751l6.289,2l3.582-7.397l3.721,1.573L500.242,116.8z"/>
	<path id="LV2-B206" stroke-width="0" d="M467.676,136.012c-4-1.078-7.943-2.012-12.111-2.897
		l2.576-11.732l12.068,2.666L467.676,136.012z M482.254,127.535l-9.23-2.792l-2.363,12.095c2.607,0.744,5.176,1.534,7.707,2.373
		L482.254,127.535z M488.307,112.24c-8.693-3.023-17.695-5.538-27.076-7.688l-3.314,14.866l8.631,1.543l1.971-8.095l4.221,0.931
		l1.18-4.663l2.297,0.608l-1.283,4.394l4.322,1.216l-2.355,8.582l5.891,1.83L488.307,112.24z"/>
	<path id="LV2-B205" stroke-width="0" d="M441.201,130.444c-4.535-0.725-8.859-1.285-13.51-1.844
		l1.115-11.612l13.682,1.955L441.201,130.444z M457.395,120.841l-12.338-1.564l-0.898,11.656c3.604,0.61,7.166,1.282,10.672,2.021
		L457.395,120.841z M460.48,104.363c-9.502-2.15-18.967-3.783-28.992-5.186l-1.953,15.8l8.875,1.23l1.119-8.765l3.91,0.502
		l0.613-5.584l2.328,0.31l-0.707,5.607l5.133,0.672l-1.18,9.266l7.486,0.857L460.48,104.363z"/>
	<path id="LV2-B204" stroke-width="0" d="M410.25,126.815c-4.742-0.381-9.301-0.682-14.098-0.948
		l0.727-11.45l13.738,0.718L410.25,126.815z M428.051,116.295l-14.564-1.16l-0.863,11.879c4.76,0.406,9.488,0.882,14.162,1.438
		L428.051,116.295z M411.977,96.796c-4.49-0.441-8.785-0.799-13.334-1.133l-0.99,17.046l9.16,0.166l0.881-9.71l3.697,0.277
		L411.977,96.796z M430.699,99.002c-5.225-0.728-10.51-1.362-15.838-1.915l-0.6,6.628l4.133,0.442l-1.102,9.378l11.365,1.104
		L430.699,99.002z"/>
	<path id="LV2-B203" stroke-width="0" d="M378.105,125.095c-5.699-0.176-11.389-0.293-17.045-0.372
		l0.408-7.657l2.375,0.057l0.111-1.656l13.848,0.274L378.105,125.095z M396.063,114.252l-15.666-0.329l-0.01,11.246
		c5.012,0.169,10.031,0.381,15.029,0.652L396.063,114.252z M374.66,111.277l-0.113-9.16l4.578-0.056l0.166-5.903l2.537,0.057
		l-0.055,5.737l4.637,0.054l-0.055,10.205l10.535,0.389l1.045-17.002c-13.016-0.949-26.232-1.494-39.473-1.773L358.328,111
		L374.66,111.277z"/>
</g>
<g id="LEVEL-3-AREAS">
	<path id="LV5-B552" stroke-width="0" d="M316.23,64.676h3.26V52.327l-4.217,0.043
		l-0.407-50.608c5.432-0.118,11.058-0.178,16.734-0.182l0.002,78.175c-5.092,0.002-10.222,0.027-15.373,0.079V64.676L316.23,64.676z
		 M294.222,2.507l2.205,77.682c5.113-0.132,10.426-0.235,15.806-0.306V64.511h-3.486l0.065-12.022l2.925-0.063l-0.006-50.589
		C305.817,1.989,299.931,2.214,294.222,2.507L294.222,2.507z"/>
	<path id="LV5-B551" stroke-width="0" d="M254.546,5.886c5.691-0.696,11.58-1.315,17.52-1.84
		l2.485,49.724l-2.736,0.157l0.403,11.63h3.756v15.362c-5.717,0.26-11.002,0.55-16.131,0.883L254.546,5.886L254.546,5.886z
		 M279.821,65.359v15.386c5.133-0.213,10.447-0.394,15.81-0.535l-2.205-77.662c-5.803,0.305-11.562,0.687-17.13,1.138l2.05,49.885
		l3.775-0.179v11.966H279.821L279.821,65.359z"/>
	<path id="LV5-B550" stroke-width="0" d="M222.135,71.772l15.924-2.216l1.13,13.892
		c-5.408,0.512-10.699,1.084-15.743,1.703L222.135,71.772L222.135,71.772z M242.176,70.702l0.975,12.385
		c5.23-0.468,10.439-0.873,15.897-1.233l-5.294-75.871c-5.786,0.718-11.522,1.536-17.065,2.433l3.969,47.814l4.615-0.407
		l1.034,14.33L242.176,70.702L242.176,70.702z M216.297,12.265l5.47,55.774l11.916-1.64l-0.943-9.636l3.697-0.361l-3.116-47.385
		C227.55,9.994,221.826,11.086,216.297,12.265L216.297,12.265z"/>
	<path id="LV5-B549" stroke-width="0" d="M177.594,22.818
		c5.844-1.987,11.913-3.851,18.053-5.546l4.395,43.604l-4.107,0.578l2.186,13.467l4.79-0.463l1.112,13.467
		c-4.55,0.748-9.03,1.565-13.331,2.43L177.594,22.818L177.594,22.818z M206.094,74.005l1.274,13.383
		c4.91-0.771,10.047-1.49,15.287-2.139l-1.312-13.366L206.094,74.005L206.094,74.005z M209.346,59.402l1.001,10.208l10.63-1.462
		l-5.463-55.714c-5.587,1.203-11.137,2.531-16.513,3.95l5.444,43.657L209.346,59.402L209.346,59.402z"/>
	<path id="LV5-B548" stroke-width="0" d="M138.678,39.343
		c5.461-2.843,11.162-5.556,16.956-8.07l8.511,35.208l-2.975,0.667l2.696,9.7l2.783-0.285l5.708,17.988
		c-3.957,0.968-7.867,1.943-12.029,3.125L138.678,39.343L138.678,39.343z M169.915,75.011l5.885,18.698l0.975-0.24
		c4.208-1.043,8.627-2.038,13.137-2.956l-13.08-67.435c-5.929,2.035-11.772,4.245-17.379,6.575l8.133,36.208l3.548-0.605l1.76,9.396
		L169.915,75.011L169.915,75.011z"/>
	<path id="LV5-B547" stroke-width="0" d="M102.822,62.148
		c4.979-3.83,10.184-7.509,15.482-10.945l12.104,27.071l-2.4,1.385l4.843,9.683l2.002-0.969l8.091,15.326
		c-1.618,0.688-3.228,1.419-4.789,2.181c-2.294,1.116-4.619,2.346-6.915,3.657L102.822,62.148L102.822,62.148z M138.195,86.857
		l8.074,15.483c4.035-1.575,8.391-3.032,13.292-4.444l-21.594-58.182c-5.541,2.907-10.989,6.029-16.206,9.289L133.6,76.79
		l2.375-1.186l4.648,9.989L138.195,86.857L138.195,86.857z"/>
	<path id="LV5-B546" stroke-width="0" d="M73.09,89.399c4.046-4.391,8.265-8.646,12.553-12.66
		l13.821,20.023l-1.572,1.666l6.541,8.524l1.448-1.419l10.946,13.502c-3.842,2.869-7.485,5.758-10.84,8.598L73.09,89.399
		L73.09,89.399z M108.777,103.452l10.798,13.577c3.623-2.589,7.313-4.973,10.975-7.095l-28.363-47.296
		c-2.73,2.116-5.442,4.314-8.066,6.539c-1.549,1.316-3.086,2.656-4.61,4.018c-0.543,0.489-1.087,0.981-1.629,1.474L101.8,94.567
		l2.573-2.11l6.412,9.077L108.777,103.452L108.777,103.452z"/>
	<path id="LV5-B545" stroke-width="0" d="M48.474,120.731
		c3.23-4.828,6.635-9.574,10.129-14.117l13.832,13.643l-1.45,1.657l7.489,6.793l1.155-1.243l14.514,12.074
		c-1.591,1.9-2.898,4.019-3.889,6.306c-0.794,1.831-1.386,3.75-1.807,5.849L48.474,120.731L48.474,120.731z M81.923,125.138
		l14.167,11.614c2.635-2.694,5.757-5.584,9.29-8.602L72.548,89.99c-4.04,4.414-7.994,9.061-11.761,13.822L74.88,117.7l1.746-2.116
		l7.38,7.379L81.923,125.138L81.923,125.138z"/>
	<path id="LV5-B544" stroke-width="0" d="M63.202,152l1.04-1.799l-10.02-6.29l-1.273,1.917
		l-14.209-9.405c2.936-5.111,6.06-10.163,9.292-15.027l40.252,31.176c-0.446,2.573-0.555,4.925-0.622,6.936l-0.012,0.354
		c-0.054,1.647-0.096,2.949-0.362,3.442l-1.428,2.669L63.202,152L63.202,152z M28.764,155.47l49.588,25.473
		c1.935-4.083,3.958-8.163,6.021-12.14l-23.496-13.62l-1.215,1.949l-10.045-6.519l1.152-1.811l-13.906-9.057
		c-0.81,1.458-1.607,2.923-2.392,4.396c-0.852,1.598-1.687,3.205-2.509,4.819c-0.576,1.136-1.145,2.273-1.705,3.417
		C29.753,153.407,29.256,154.438,28.764,155.47L28.764,155.47z"/>
	<path id="LV5-B543" stroke-width="0" d="M14.53,191.464l51.672,18.092
		c1.55-4.121,3.208-8.296,4.934-12.424l-26.7-11.844l-1.355,2.918l-9.079-3.865l0.916-2.473c-0.768-0.306-2.677-1.072-4.905-1.98
		c-2.646-1.076-6.271-2.571-8.521-3.574l-0.35-0.156l1.399-3.496l0.379,0.173c2.325,1.055,5.992,2.513,8.659,3.551
		c2.268,0.882,4.198,1.611,4.949,1.893l1.5-2.994l8.909,4.317l-1.179,2.595l26.552,12.153c1.811-4.234,3.727-8.5,5.703-12.69
		l-49.59-25.473c-4.229,8.969-8.1,18.433-11.504,28.135C16.095,186.673,15.292,189.074,14.53,191.464L14.53,191.464z"/>
	<path id="LV5-B542" stroke-width="0" d="M5.292,229.105l51.08,10.989
		c1.156-4.355,2.457-8.826,3.868-13.299l-25.625-6.86l-0.468,1.77l-11.661-3.135l0.458-2.662c-0.699-0.186-2.371-0.633-4.354-1.178
		c-2.382-0.655-5.702-1.588-7.983-2.313l-0.336-0.107l0.699-3.723l0.426,0.129c1.817,0.553,4.542,1.317,8.102,2.272
		c2.008,0.539,3.709,0.984,4.435,1.172l0.702-2.479l11.807,3.546l-0.596,2.795l25.633,6.926c1.373-4.171,2.867-8.422,4.444-12.649
		l-51.634-18.078c-2.593,8.215-4.882,16.87-6.804,25.732C6.687,221.643,5.949,225.391,5.292,229.105L5.292,229.105z"/>
	<path id="LV5-B541" stroke-width="0" d="M1.02,268.718c0.24-5.963,0.663-11.976,1.259-17.883
		l12,1.59l-0.33,2.388l11.422,1.182l0.38-1.911l26.759,2.682c-0.419,2.137-0.808,4.28-1.158,6.382l-23.743,8.687L1.02,268.718
		L1.02,268.718z M26.236,251.077l26.806,3.055c0.896-4.317,1.946-8.776,3.126-13.267L5.154,229.889
		c-0.49,2.81-0.946,5.676-1.356,8.527c-0.408,2.833-0.781,5.721-1.109,8.589l11.715,1.663l0.499-2.741l11.788,1.767L26.236,251.077
		L26.236,251.077z"/>
	<path id="LV5-B540" stroke-width="0" d="M1.185,303.998l18.493,0.001V292.3H10.13v-3.652
		H2.268v-3.606h7.862v-3.65h17.128v-8.797l-26.269-3.079c-0.138,3.696-0.208,7.439-0.208,11.134
		C0.781,288.43,0.917,296.284,1.185,303.998L1.185,303.998z"/>
	<path id="LV5-B539" stroke-width="0" d="M1.213,304.794
		c0.445,12.373,1.233,24.574,2.344,36.275l24.543-4.295V328.8H9.856l-0.072-3.982H3.362l-0.113-4.015l6.154,0.092l-0.091-4.306
		l10.366-0.093v-11.701L1.213,304.794L1.213,304.794z"/>
	<path id="LV5-B538" stroke-width="0" d="M6.183,363.252l8.078-1.283l0.374,2.071l11.907-1.783
		l0.097-0.114c0.122-0.144,0.122-0.144-0.093-1.426l-0.119-0.712l27.13-4.638c0.683,3.848,1.605,8.195,2.888,13.612L8.956,380.215
		c-0.52-2.813-1.013-5.632-1.476-8.452C7.005,368.866,6.568,366.006,6.183,363.252L6.183,363.252z M3.634,341.864
		c0.608,6.313,1.318,12.55,2.11,18.552l8.027-1.339l-0.369-2.859l11.979-1.665l0.377,2.295l28.014-4.842
		c-0.357-2.07-0.704-4.118-1.045-6.141l-24.261-8.347L3.634,341.864L3.634,341.864z"/>
	<path id="LV5-B537" stroke-width="0" d="M9.1,380.999l47.528-11.245
		c0.678,2.847,1.388,5.718,2.098,8.589c0.452,1.829,0.905,3.657,1.349,5.481l-26.186,8.237l-0.816-2.502l-11.468,2.563l0.577,2.768
		c-0.503,0.148-1.499,0.443-2.676,0.784c-1.702,0.495-3.783,1.093-5.3,1.508l-0.367,0.099l0.635,2.84l0.408-0.119
		c1.532-0.451,3.613-1.021,5.309-1.479c1.133-0.305,2.095-0.561,2.611-0.695l0.581,2.722l11.637-2.928l-0.692-2.307l26.649-8.416
		c1.213,4.719,2.516,9.289,3.876,13.6l-47.917,16.055c-2.36-8.78-4.262-17.684-5.965-26.007
		C10.32,387.368,9.694,384.187,9.1,380.999L9.1,380.999z"/>
	<path id="LV5-B536" stroke-width="0" d="M17.145,417.323l47.949-16.066
		c1.509,4.717,3.144,9.297,4.864,13.628l-25.07,10.25l-1.248-2.838l-11.352,3.908l1.147,2.985l-3.43,1.361
		c-2.124,0.845-4.692,1.874-6.481,2.604l-0.33,0.136l0.905,3.177l0.416-0.177c1.765-0.75,4.445-1.833,6.683-2.729
		c1.654-0.661,3.066-1.222,3.693-1.468l1.159,2.432l10.636-4.326l-0.802-1.938l25.302-10.37c1.676,4.024,3.484,7.956,5.377,11.701
		l-47.407,23.535c-3.306-8.179-6.367-16.846-9.099-25.769c-0.832-2.712-1.63-5.434-2.396-8.164
		C17.486,418.573,17.314,417.949,17.145,417.323L17.145,417.323z"/>
	<path id="LV5-B535" stroke-width="0" d="M38.224,473.224l13.263-9.639l1.334,2.913l8.55-4.937
		l-0.685-2.06l24.635-14.715c2.111,3.227,4.362,6.386,6.696,9.402l-45.484,34.368C43.704,483.729,40.91,478.573,38.224,473.224
		L38.224,473.224z M29.456,453.87c0.438,1.07,0.88,2.142,1.33,3.208c0.498,1.182,1.004,2.357,1.517,3.53
		c0.662,1.513,1.339,3.022,2.03,4.524c0.629,1.365,1.268,2.726,1.92,4.081l13.628-8.893l-1.077-2.341l9.43-4.205l1.345,2.918
		l23.804-14.942c-2.271-3.656-4.441-7.504-6.46-11.446L29.456,453.87L29.456,453.87z"/>
	<path id="LV5-B534" stroke-width="0" d="M58.626,506.555l14.772-13.944l1.74,1.918
		l8.244-7.493l-1.054-1.401l20.406-19.142c2.683,2.741,5.506,5.398,8.4,7.904l-41.201,46.011c-1.975-2.204-3.917-4.474-5.777-6.754
		C62.273,511.349,60.414,508.962,58.626,506.555L58.626,506.555z M46.941,489.25c3.07,5.202,6.208,10.062,9.333,14.455l14.37-13.271
		l-1.718-2.523l8.727-7.605l1.572,1.915l20.98-18.384c-2.68-2.883-5.267-5.913-7.698-9.019L46.941,489.25L46.941,489.25z"/>
	<path id="LV5-B533" stroke-width="0" d="M85.969,536.351l14.87-19.643l1.898,1.647
		l6.669-8.761l-2.965-2.27l17.302-22.737c3.178,2.197,6.594,4.316,10.165,6.309l-33.963,56.906
		C95.094,544.144,90.395,540.292,85.969,536.351L85.969,536.351z M70.47,521.001l1.928,2.101c1.85,1.982,3.616,3.807,5.399,5.574
		c1.697,1.686,3.435,3.345,5.302,5.063l14.59-19.563l-2.518-2.289l6.81-8.788l2.34,1.997l16.879-22.729
		c-3.263-2.356-6.443-4.859-9.463-7.447L70.47,521.001L70.47,521.001z"/>
	<path id="LV5-B532" stroke-width="0" d="M100.584,548.284l34.02-57.001
		c3.5,1.929,7.237,3.783,11.121,5.521l-12.578,24.964l-2.067-1.504l-5.793,10.98l2.087,1.605l-11.785,25.802
		C110.411,555.354,105.367,551.868,100.584,548.284L100.584,548.284z M118.413,560.423c5.496,3.402,11.262,6.682,17.149,9.754
		l24.35-67.768c-4.495-1.383-8.123-2.672-11.357-4.033l-12.598,25.082l2.629,1.713l-5.613,10.746l-2.426-1.452L118.413,560.423
		L118.413,560.423z"/>
	<path id="LV5-B531" stroke-width="0" d="M157.094,580.331l8.666-35.256l0.678,0.151
		c0.699,0.15,1.737,0.371,3.095,0.65l0.381,0.077l2.535-11l-3.198-0.803l6.164-27.282c4.149,1.147,8.505,2.237,12.961,3.245
		l-13.824,77.061C168.617,585.037,162.748,582.735,157.094,580.331L157.094,580.331z M136.275,570.549
		c5.799,3.007,11.87,5.898,18.059,8.599l8.481-35.384l-3.103-0.689l3.18-10.771l2.631,0.636l7.14-26.842l-3.363-0.957
		c-2.904-0.82-5.79-1.636-8.626-2.497L136.275,570.549L136.275,570.549z"/>
	<path id="LV5-B530" stroke-width="0" d="M175.312,587.446l13.842-77.157
		c4.36,0.975,8.889,1.886,13.474,2.718l-1.887,26.52l-3.904-0.633l-1.907,11.405l3.257,0.483l-4.848,42.591
		C187.203,591.527,181.143,589.536,175.312,587.446L175.312,587.446z M196.752,594.381c5.585,1.621,11.342,3.154,17.127,4.562
		l7.816-82.949c-5.221-0.698-10.366-1.478-15.306-2.322l-1.69,26.515l2.094,0.3l-0.625,11.414l-4.494-0.617L196.752,594.381
		L196.752,594.381z"/>
	<path id="LV5-B529" stroke-width="0" d="M235.186,603.567l2.941-48.03l4.791,0.438
		l1.071-12.291l-3.922-0.485l1.622-24.945c5.164,0.489,10.559,0.929,16.046,1.309l-5.164,86.986
		C246.732,605.658,240.887,604.656,235.186,603.567L235.186,603.567z M214.66,599.132c5.693,1.375,11.553,2.662,17.433,3.832
		l2.772-47.739l-2.754-0.279l1.036-12.613l3.411,0.44l1.587-24.862c-5.343-0.537-10.607-1.146-15.659-1.812L214.66,599.132
		L214.66,599.132z"/>
	<path id="LV5-B528" stroke-width="0" d="M274.241,609.362l2.546-51.024l3.319,0.16l0.63-12.09
		l-3.538-0.3l1-25.414c5.028,0.213,10.3,0.393,15.681,0.535v12.655l-2.326,77.051C285.781,610.51,279.961,609.98,274.241,609.362
		L274.241,609.362z M253.362,606.669c5.746,0.867,11.633,1.646,17.513,2.321l1.385-50.893l-3.18-0.188l0.819-12.25l3.546,0.257
		l1.183-25.384c-5.546-0.261-10.959-0.567-16.1-0.917L253.362,606.669L253.362,606.669z"/>
	<path id="LV5-B527" stroke-width="0" d="M312.545,612.079l1.318-52.546l5.291,0.045v-9.782
		h11.224l0.001,62.62c-2.753-0.009-5.514-0.036-8.279-0.085C318.921,612.275,315.736,612.191,312.545,612.079L312.545,612.079z
		 M313.942,544.929h16.437v-10.633h-16.437V544.929L313.942,544.929z M292.349,610.994c5.726,0.415,11.536,0.742,17.283,0.975
		l0.018-52.5c-1.251-0.024-2.483-0.053-3.718-0.081l-1.436-0.033v-10.703h-5.468v-4.234h10.622v-10.121h-14.986L292.349,610.994
		L292.349,610.994z"/>
	<path id="LV5-B526" stroke-width="0" d="M331.175,612.417l0-62.621H342.4v9.686l5.889-0.1
		l0.588,52.75c-2.771,0.093-5.533,0.166-8.281,0.213c-2.879,0.049-5.744,0.074-8.595,0.074L331.175,612.417L331.175,612.417z
		 M331.175,544.929h16.437v-10.633h-16.437V544.929L331.175,544.929z M352.197,559.287l0.508,52.696
		c5.689-0.236,11.445-0.575,17.127-1.007l-2.725-76.681h-14.914v10.633h5.246v14.203L352.197,559.287L352.197,559.287z"/>
	<path id="LV5-B525" stroke-width="0" d="M389.604,557.631l2.59-0.173l-0.303-11.141
		l-3.816,0.125l-0.752-25.757c5.412-0.237,10.68-0.526,15.672-0.855l5.627,86.687c-5.66,0.877-11.41,1.665-17.107,2.346
		L389.604,557.631L389.604,557.631z M367.891,521.328v12.568l2.736,77.02c5.762-0.447,11.574-0.996,17.291-1.636l-2.943-51.369
		l-3.385,0.184l-0.676-11.488l3.824-0.25l-0.977-25.519c-2.65,0.105-5.297,0.196-7.941,0.277
		C373.174,521.195,370.529,521.267,367.891,521.328L367.891,521.328z"/>
	<path id="LV5-B524" stroke-width="0" d="M427.561,554.515l2.053-0.22l-0.725-10.816
		l-3.449,0.452l-2.188-25.775c5.447-0.552,10.771-1.178,15.842-1.861l8.059,82.589c-5.572,1.357-11.318,2.636-17.094,3.806
		L427.561,554.515L427.561,554.515z M403.789,519.777l5.621,86.616c5.729-0.899,11.463-1.904,17.061-2.991l-4.098-48.377
		l-4.238,0.392l-0.857-10.438l3.951-0.495l-1.82-25.955C414.363,519.001,409.113,519.421,403.789,519.777L403.789,519.777z"/>
	<path id="LV5-B523" stroke-width="0" d="M439.883,516.187
		c5.357-0.732,10.607-1.553,15.621-2.439l2.479,27.227l-2.381,0.47l0.535,9.744l2.816-0.354l5.807,43.363
		c-5.467,1.585-11.123,3.096-16.828,4.496L439.883,516.187L439.883,516.187z M463.107,550.299l4.902,42.944
		c6.166-1.846,12.254-3.831,18.109-5.904l-13.33-77.089c-4.385,1.009-8.904,1.949-13.445,2.801l2.965,26.666l2.471-0.233
		l0.889,10.627L463.107,550.299L463.107,550.299z"/>
	<path id="LV5-B522" stroke-width="0" d="M473.564,510.071
		c4.461-1.037,8.885-2.172,13.164-3.372l6.947,29.402l-2.865,0.803l2.521,9.199l1.855-0.48c0.357-0.094,0.711-0.19,1.066-0.291
		l8.145,34.96c-5.646,2.367-11.535,4.646-17.52,6.777L473.564,510.071L473.564,510.071z M499.57,544.882l8.053,34.033
		c6.098-2.629,12.066-5.435,17.756-8.34l-24.211-68.383c-3.598,1.239-7.322,2.429-11.082,3.54l7.096,29.246l2.629-0.705l2.592,9.809
		L499.57,544.882L499.57,544.882z"/>
	<path id="LV5-B521" stroke-width="0" d="M533.023,534.003l3.197-2.169l-5.252-10.377
		l-2.725,1.474l-11.982-26.527c1.861-0.792,3.707-1.606,5.537-2.446c1.842-0.847,3.668-1.72,5.475-2.619l33.754,57.107
		c-5.006,3.79-10.057,7.297-15.025,10.43L533.023,534.003L533.023,534.003z M501.922,501.931l24.174,68.276
		c5.777-2.972,11.41-6.124,16.748-9.373l-12.672-25.042l-2.525,1.372l-5.365-11.342l2.135-1.115l-11.723-26.822
		C509.197,499.299,505.576,500.658,501.922,501.931L501.922,501.931z"/>
	<path id="LV5-B520" stroke-width="0" d="M527.988,490.982
		c1.572-0.788,3.131-1.596,4.678-2.425c1.67-0.896,3.328-1.817,4.971-2.764l0.965-0.565l16.414,22.646l-2.617,1.938l6.162,8.752
		l2.516-1.828l14.396,19.821c-4.385,3.923-9.027,7.756-13.807,11.402L527.988,490.982L527.988,490.982z M563.92,514.532
		l14.344,19.633c4.424-4.136,8.727-8.53,12.803-13.071l-39.328-44.918c-3.242,2.586-6.646,5.012-10.135,7.22l16.787,22.629
		l2.4-1.823l5.93,7.939L563.92,514.532L563.92,514.532z"/>
	<path id="LV5-B519" stroke-width="0" d="M591.281,491.357l2.75-3.438l-8.348-6.776
		l-2.045,2.162l-19.693-18.386c2.656-2.818,5.355-6.008,8.039-9.494l42.756,34.021c-3.02,4.858-6.223,9.614-9.525,14.152
		L591.281,491.357L591.281,491.357z M552.359,475.676l39.242,44.82c3.977-4.464,7.842-9.182,11.5-14.039l-14.299-12.237l-1.709,1.6
		l-8.113-6.884l2.521-2.868l-20.115-18.517C558.508,470.423,555.473,473.154,552.359,475.676L552.359,475.676z"/>
	<path id="LV5-B518" stroke-width="0" d="M612.939,462.228l1.385-2.721l-8.461-4.728
		l-1.473,2.936l-23.201-15.583c2.23-3.663,4.379-7.539,6.389-11.526l44.715,24.812c-0.504,1.229-1.018,2.458-1.543,3.679
		c-0.57,1.328-1.158,2.65-1.764,3.966c-0.102,0.224-0.592,1.229-1.184,2.438l-0.76,1.557c-0.803,1.646-1.266,2.591-1.5,3.147
		L612.939,462.228L612.939,462.228z M572.467,454.793l42.697,33.973c2.951-4.787,5.803-9.786,8.48-14.871l-12.695-8.305
		l-1.477,2.388l-7.963-4.854l1.266-2.414l-23.232-16.004C577.303,448.175,574.926,451.563,572.467,454.793L572.467,454.793z"/>
	<path id="LV5-B517" stroke-width="0" d="M587.936,429.892l44.66,24.781l0.531-1.296
		c3.592-8.788,7.301-17.876,10.217-27.025c0.721-2.253,1.412-4.515,2.086-6.782l-46.018-18.164c-1.48,4.598-3.084,9.095-4.771,13.38
		l24.545,10.679l1.139-2.62l8.922,3.836l-0.912,2.673l3.424,1.3c2.137,0.805,4.762,1.788,6.721,2.497l0.396,0.144l-1.229,2.909
		l-0.357-0.134c-1.941-0.727-4.564-1.668-6.703-2.429c-1.563-0.557-2.867-1.015-3.455-1.222l-1.268,2.644l-9.268-3.708l1.031-2.749
		l-24.293-10.587C591.646,422.094,589.832,426.084,587.936,429.892L587.936,429.892z"/>
	<path id="LV5-B516" stroke-width="0" d="M599.656,400.646l46,18.155
		c0.662-2.257,1.303-4.521,1.92-6.795c0.66-2.42,1.295-4.847,1.906-7.275c0.146-0.581,0.287-1.16,0.428-1.739
		c0.191-0.779,0.393-1.555,0.594-2.329c0.307-1.188,0.615-2.375,0.893-3.566c0.518-2.226,1-4.454,1.475-6.691
		c0.465-2.256,0.918-4.515,1.35-6.777c0.166-0.877,0.33-1.753,0.49-2.629l-47.207-11.207c-0.988,4.983-2.078,9.866-3.238,14.53
		l26.063,7.841l0.793-2.258l11.523,2.574l-1.027,2.737c0.545,0.119,1.541,0.337,2.705,0.589c1.773,0.379,3.939,0.836,5.508,1.14
		l0.453,0.087l-1.063,3.046l-0.342-0.069c-1.664-0.334-3.861-0.792-5.645-1.166l-2.834-0.597l-1.266,2.758l-11.018-2.939
		l0.924-2.639l-25.563-8.02C602.295,391.943,601.01,396.394,599.656,400.646L599.656,400.646z"/>
	<path id="LV5-B515" stroke-width="0" d="M650.93,359.194l0.563-2.472l-10.916-2.083
		l-0.686,2.285l-29.234-5.339c0.268-1.801,0.523-3.562,0.764-5.272l24.547-7.412l24.16,4.184c-0.592,5.663-1.273,11.294-2.029,16.75
		L650.93,359.194L650.93,359.194z M607.66,369.011l47.191,11.203l0.604-3.4c0.199-1.145,0.393-2.288,0.58-3.432l1.102-7.119
		c0.215-1.449,0.342-2.313,0.443-2.827l-7.627-0.718l-0.578,2.424l-11.039-1.84l0.453-2.518l-28.74-5.275
		C609.297,360.24,608.514,364.667,607.66,369.011L607.66,369.011z"/>
	<path id="LV5-B514" stroke-width="0" d="M636.34,338.157l23.869,4.135
		c1.189-11.569,2.035-23.661,2.516-35.959h-18.949v11.572h10.473v4.249h6.379v4.594h-6.684v2.881H636.34V338.157L636.34,338.157z"/>
	<path id="LV5-B513" stroke-width="0" d="M643.775,293.966v11.572l18.98-0.001
		c0.307-8.116,0.463-16.487,0.463-24.887c0-4-0.08-8.04-0.236-12.019l-26.709,4.914l0.568,8.571l16.803-0.339v3.953h7.588v3.982
		h-7.588v4.255H643.775L643.775,293.966z"/>
	<path id="LV5-B512" stroke-width="0" d="M607.961,242.901l51.25-11.232
		c0.189,1.142,0.371,2.285,0.547,3.431c0.199,1.282,0.385,2.566,0.563,3.853c0.182,1.292,0.355,2.586,0.521,3.882
		c0.164,1.294,0.318,2.591,0.467,3.885l0.068,0.599l-11.186,2.388l-0.445-2.606l-10.799,1.718l0.186,2.646l-28.596,4.973
		C609.799,251.931,608.934,247.382,607.961,242.901L607.961,242.901z M611.787,264.904l24.092,7.903l27.07-4.979
		c-0.242-5.728-0.65-11.488-1.217-17.131l-10.734,1.979l0.34,2.864l-11.869,1.835l-0.229-2.387l-28.135,5.07
		C611.346,261.668,611.574,263.284,611.787,264.904L611.787,264.904z"/>
	<path id="LV5-B511" stroke-width="0" d="M604.518,228.832
		c1.201,4.393,2.301,8.861,3.273,13.291l51.287-11.24c-0.406-2.413-0.846-4.819-1.313-7.221c-0.484-2.517-1.008-5.031-1.561-7.535
		l-0.375-1.621c-0.189-0.816-0.354-1.638-0.516-2.459c-0.217-1.097-0.441-2.233-0.73-3.326c-0.465-1.758-0.967-3.506-1.469-5.254
		l-0.74-2.601c-0.68-2.442-1.436-5-2.25-7.611l-50.768,18.814c1.512,4.403,2.928,8.91,4.215,13.408l26.902-7.946l-0.764-2.375
		l10.742-3.643l1.084,3.013c0.68-0.221,2.234-0.724,4.076-1.33c2.479-0.815,5.475-1.813,7.549-2.547l0.424-0.15l0.635,2.841
		l-0.338,0.115c-1.969,0.68-4.799,1.645-7.137,2.44l-3.822,1.297l0.695,2.543l-11.066,3.519l-0.959-2.488L604.518,228.832
		L604.518,228.832z"/>
	<path id="LV5-B510" stroke-width="0" d="M594.199,198.261
		c1.736,4.286,3.383,8.674,4.898,13.053l50.789-18.822c-2.977-9.456-6.326-18.546-9.959-27.022
		c-1.223-2.854-2.494-5.689-3.777-8.438l-48.434,26.463c1.775,3.733,3.49,7.57,5.105,11.414l24.518-11.593l-0.732-1.845l10.85-4.91
		l1.004,2.394c0.691-0.345,2.246-1.124,4.098-2.061c2.504-1.267,5.543-2.823,7.688-3.973l0.375-0.203l1.578,3.514l-0.352,0.168
		c-2.131,1.02-5.1,2.481-7.539,3.687c-1.842,0.911-3.379,1.677-4.021,1.996l1.002,2.666l-11.117,5.099l-1.434-3.146L594.199,198.261
		L594.199,198.261z"/>
	<path id="LV5-B509" stroke-width="0" d="M576.746,154.706l40.215-32.021
		c3.139,4.765,6.174,9.712,9.029,14.715l-14.078,9.572l-1.299-2.015l-9.797,5.876l1.152,2.073l-22.236,15.086
		c-0.197-0.354-0.395-0.708-0.594-1.061l-0.814-1.438c-1.605-2.808-1.594-6.26-1.58-9.916L576.746,154.706L576.746,154.706z
		 M581.76,171.708c1.947,3.626,3.834,7.346,5.615,11.067l48.436-26.464l-0.738-1.559c-0.303-0.63-0.607-1.26-0.914-1.889
		c-0.246-0.508-1.807-3.5-3.316-6.394l-0.627-1.2c-1.168-2.237-1.785-3.423-2.082-4.072l-13.555,8.867l1.195,2.234l-9.889,5.788
		l-1.395-2.232L581.76,171.708L581.76,171.708z"/>
	<path id="LV5-B508" stroke-width="0" d="M560.555,128.896l31.705-37.981
		c4.01,4.383,7.934,8.999,11.672,13.729l-14.164,13.671l-1.734-2.558l-7.107,6.491l1.852,2.22l-13.098,13.33
		C566.889,134.683,563.896,131.764,560.555,128.896L560.555,128.896z M572.361,140.935c0.217,0.264,0.432,0.53,0.645,0.796
		l0.861,1.091c2.479,3.211,2.838,6.962,2.875,10.869l39.777-31.673c-3.139-4.729-6.455-9.392-9.867-13.868l-14.092,12.523
		l1.551,2.673l-7.084,6.471l-1.264-2.099L572.361,140.935L572.361,140.935z"/>
	<path id="LV5-B507" stroke-width="0" d="M549.473,120.479l9.262-14.585l2.313,2.152
		l7.014-7.93l-2.986-2.844l14.148-19.558c4.277,4.006,8.479,8.245,12.494,12.608l-31.77,38.057
		C556.738,125.667,553.307,123.077,549.473,120.479L549.473,120.479z M534.561,111.429c4.32,2.377,8.164,4.652,11.727,6.941
		l9.002-15.459l-1.861-1.571l5.951-8.391l2.826,2.117l14.244-19.906c-1.635-1.482-3.291-2.942-4.959-4.373
		c-2.965-2.535-6.035-5.029-9.127-7.419L534.561,111.429L534.561,111.429z"/>
	<path id="LV5-B506" stroke-width="0" d="M507.506,99.071l19.861-58.206
		c5.619,2.981,11.139,6.179,16.412,9.511l-13.143,27.658l-2.414-1.133l-3.838,9.046l2.531,1.265l-7.512,16.494
		C515.779,102.089,511.783,100.531,507.506,99.071L507.506,99.071z M522.375,105.084c0.475,0.23,0.945,0.463,1.412,0.7
		c3.693,1.854,6.992,3.578,10.074,5.261l27.865-48.168c-4.908-3.763-10.037-7.386-15.256-10.779L533.322,79.39l2.971,1.7
		l-4.59,8.727l-2.086-1.05L522.375,105.084L522.375,105.084z"/>
	<path id="LV5-B505" stroke-width="0" d="M476.779,91.025l11.766-67.037
		c5.867,2.055,11.656,4.285,17.219,6.633l-8.781,35.706c-0.629-0.106-1.26-0.207-1.887-0.307c-0.744-0.117-1.49-0.235-2.238-0.36
		l-0.389-0.065l-1.76,10.044l3.652,0.701l-4.027,17.727C486.059,92.998,481.504,91.976,476.779,91.025L476.779,91.025z
		 M493.271,94.816c4.77,1.25,9.301,2.596,13.48,4l19.902-58.327c-5.553-2.924-11.35-5.713-17.24-8.297l-9.006,34.941l3.375,0.843
		l-2.295,9.928l-4.229-0.848L493.271,94.816L493.271,94.816z"/>
	<path id="LV5-B504" stroke-width="0" d="M442.371,85.59l1.338-13.468l14.5,1.249v14.387
		C453.15,86.985,447.828,86.256,442.371,85.59L442.371,85.59z M461.57,88.285c5.004,0.805,9.854,1.673,14.428,2.583l11.783-67.147
		c-5.789-2.011-11.814-3.907-17.918-5.64l-5.01,43.302c0.398,0.056,0.795,0.115,1.197,0.173l2.369,0.344l-1.191,13.151l-5.658-0.562
		V88.285L461.57,88.285z M444.072,68.435l10.662,0.936l0.678-9.432l3.158,0.388c0.783,0.094,1.566,0.189,2.357,0.292l5.393-43.51
		c-5.447-1.48-11.076-2.866-16.744-4.124L444.072,68.435L444.072,68.435z"/>
	<path id="LV5-B503" stroke-width="0" d="M405.615,82.139l5.057-75.945
		c5.545,0.715,11.006,1.521,16.664,2.459l-3.314,48.023l-5.439-0.489l-1.328,16.097l3.846,0.428l0.195,10.663
		C416.215,82.924,410.943,82.507,405.615,82.139L405.615,82.139z M425.277,83.745c5.574,0.528,11.055,1.116,16.303,1.75l1.334-13.44
		l-17.637-1.52V83.745L425.277,83.745z M431.018,67.289l12.264,1.077l5.512-55.554c-5.6-1.233-11.404-2.376-17.268-3.403
		l-3.451,47.437c0.512,0.051,1.025,0.107,1.539,0.163c0.699,0.077,1.355,0.149,2.006,0.215l0.396,0.04L431.018,67.289
		L431.018,67.289z"/>
	<path id="LV5-B502" stroke-width="0" d="M369.438,80.342l2.48-77.67
		c5.779,0.33,11.531,0.74,17.111,1.222l-2.01,50l-4.203-0.222v11.807h2.85v15.505C380.361,80.731,374.906,80.517,369.438,80.342
		L369.438,80.342z M389.236,81.159c5.297,0.27,10.535,0.581,15.584,0.925l5.061-75.991c-5.566-0.708-11.17-1.317-17.1-1.86
		l-2.141,49.871l2.748,0.176V65.25h-4.152V81.159L389.236,81.159z"/>
	<path id="LV5-B501" stroke-width="0" d="M332.399,79.756l-0.001-78.175
		c5.805,0.003,11.555,0.07,17.104,0.199l0.6,50.692l-4.229-0.067v12.016h3.504v15.461C343.715,79.8,338.008,79.759,332.399,79.756
		L332.399,79.756z M353.164,79.943c5.203,0.091,10.404,0.217,15.479,0.374l2.479-77.69c-5.701-0.319-11.576-0.566-17.473-0.738
		l0.076,50.664l2.947,0.081v11.708h-3.508V79.943L353.164,79.943z"/>
</g>
<g id="PITCH">
	<g>
		<polygon fill="#79AA41" points="213.722,367.387 448.278,367.387 448.278,236.613 213.722,236.613 213.722,367.387 		"/>
		<polygon fill="#599B43" points="430.766,237.78 430.766,366.24 442.559,366.24 442.559,237.78 430.766,237.78 		"/>
		<polygon fill="#599B43" points="407.175,237.78 407.175,366.24 418.968,366.24 418.968,237.78 407.175,237.78 		"/>
		<polygon fill="#599B43" points="383.579,237.78 383.579,366.24 395.372,366.24 395.372,237.78 383.579,237.78 		"/>
		<polygon fill="#599B43" points="359.987,237.78 359.987,366.24 371.782,366.24 371.782,237.78 359.987,237.78 		"/>
		<polygon fill="#599B43" points="336.707,237.78 336.707,366.24 348.496,366.24 348.496,237.78 336.707,237.78 		"/>
		<polygon fill="#599B43" points="313.104,237.78 313.104,366.24 324.9,366.24 324.9,237.78 313.104,237.78 		"/>
		<polygon fill="#599B43" points="289.513,237.78 289.513,366.24 301.309,366.24 301.309,237.78 289.513,237.78 		"/>
		<polygon fill="#599B43" points="265.92,237.78 265.918,366.24 277.711,366.24 277.712,237.78 265.92,237.78 		"/>
		<polygon fill="#599B43" points="242.326,237.78 242.326,366.24 254.115,366.24 254.116,237.78 242.326,237.78 		"/>
		<polygon fill="#599B43" points="218.726,237.78 218.725,366.24 230.522,366.24 230.522,237.78 218.726,237.78 		"/>
		<polygon fill="#FFFFFF" points="440.355,360.867 440.355,360.209 222.681,360.209 222.681,243.026 439.695,243.026 
			439.695,360.867 440.355,360.867 440.355,360.209 440.355,360.867 441.017,360.867 441.017,241.703 221.357,241.703 
			221.357,361.529 441.017,361.529 441.017,360.867 440.355,360.867 		"/>
		<rect x="330.504" y="242.365" fill="#FFFFFF" width="1.322" height="118.336"/>
		<path fill="#FFFFFF" d="M440.355,246.792c-1.259,0-2.391-0.5-3.215-1.304c-0.821-0.805-1.324-1.905-1.326-3.123h-1.322
			c0,1.588,0.661,3.031,1.724,4.068c1.061,1.039,2.528,1.681,4.14,1.681V246.792L440.355,246.792z"/>
		<path fill="#FFFFFF" d="M440.355,355.115c-1.611,0-3.079,0.643-4.14,1.68c-1.063,1.039-1.724,2.484-1.724,4.072h1.322
			c0.002-1.219,0.505-2.32,1.326-3.127c0.824-0.803,1.956-1.301,3.215-1.301V355.115L440.355,355.115z"/>
		<polygon fill="#FFFFFF" points="222.021,334.422 251.587,334.422 251.587,267.837 222.021,267.837 222.021,269.159 
			250.266,269.159 250.266,333.1 222.021,333.1 222.021,334.422 		"/>
		<polygon fill="#FFFFFF" points="222.021,319.502 238.624,319.502 238.624,282.745 222.021,282.745 222.021,284.067 
			237.302,284.067 237.302,318.18 222.021,318.18 222.021,319.502 		"/>
		<path fill="#FFFFFF" d="M259.663,301.125h-0.66c0,5.833-3.44,10.827-8.346,13.014l0.269,0.604h0.661v-27.236h-0.661l-0.269,0.605
			c4.905,2.184,8.347,7.188,8.346,13.013H259.663h0.662c-0.001-6.353-3.751-11.826-9.13-14.222l-0.93-0.414v29.271l0.93-0.414
			c5.378-2.395,9.129-7.859,9.13-14.221H259.663L259.663,301.125z"/>
		<path fill="#FFFFFF" d="M222.02,248.114c1.613,0,3.079-0.642,4.14-1.681c1.06-1.037,1.72-2.48,1.719-4.068h-1.322
			c0,1.218-0.502,2.318-1.322,3.123c-0.821,0.805-1.953,1.304-3.214,1.304V248.114L222.02,248.114z"/>
		<path fill="#FFFFFF" d="M222.02,356.439c1.261,0.002,2.393,0.498,3.214,1.301c0.82,0.807,1.322,1.906,1.322,3.127h1.322
			c0.001-1.588-0.658-3.033-1.719-4.07c-1.061-1.039-2.526-1.682-4.14-1.682V356.439L222.02,356.439z"/>
		<path fill="#FFFFFF" d="M243.933,302.009v0.661c0.424,0.001,0.816-0.166,1.103-0.442c0.287-0.277,0.47-0.673,0.469-1.104
			c-0.006-0.867-0.71-1.55-1.571-1.552c-0.866,0.002-1.563,0.696-1.565,1.552c-0.001,0.425,0.175,0.822,0.46,1.1
			c0.285,0.279,0.681,0.446,1.105,0.445V302.009v-0.662c-0.159-0.006-0.238-0.096-0.243-0.223c0-0.118,0.097-0.229,0.243-0.229
			l0.18,0.074l0.068,0.156c-0.001,0.116-0.094,0.219-0.248,0.223V302.009L243.933,302.009z"/>
		<polygon fill="#FFFFFF" points="440.38,267.986 410.812,267.986 410.812,334.566 440.38,334.566 440.38,333.244 412.135,333.244 
			412.135,269.309 440.38,269.309 440.38,267.986 		"/>
		<polygon fill="#FFFFFF" points="440.38,282.9 423.775,282.9 423.775,319.658 440.38,319.658 440.38,318.334 425.097,318.334 
			425.097,284.222 440.38,284.222 440.38,282.9 		"/>
		<path fill="#FFFFFF" d="M402.922,301.279h0.662c0.001-5.852,3.262-10.83,8.159-13.014l-0.27-0.603h-0.662v27.234h0.662l0.27-0.604
			c-4.896-2.184-8.158-7.176-8.159-13.014H402.922h-0.661c-0.003,6.336,3.555,11.821,8.942,14.223l0.932,0.414v-29.274l-0.932,0.415
			c-5.386,2.399-8.945,7.875-8.942,14.222H402.922L402.922,301.279z"/>
		<path fill="#FFFFFF" d="M418.468,300.397v-0.663c-0.847,0.002-1.564,0.67-1.568,1.544c0.005,0.869,0.711,1.546,1.568,1.549
			c0.861-0.002,1.565-0.692,1.565-1.549c0-0.427-0.179-0.822-0.462-1.098c-0.284-0.278-0.679-0.446-1.104-0.446V300.397v0.66
			c0.154,0.006,0.239,0.102,0.241,0.222c0,0.116-0.097,0.226-0.241,0.227l-0.178-0.074l-0.069-0.153l0.066-0.15l0.181-0.072V300.397
			L418.468,300.397z"/>
		<path fill="#FFFFFF" d="M330.644,321.672v-0.66c-5.185-0.002-9.873-2.102-13.272-5.5c-3.398-3.398-5.498-8.086-5.498-13.27
			c0-5.185,2.1-9.873,5.498-13.271c3.399-3.397,8.088-5.498,13.272-5.498c5.186,0,9.872,2.101,13.271,5.498
			c3.397,3.398,5.496,8.087,5.498,13.271c-0.002,5.184-2.101,9.872-5.498,13.27c-3.399,3.398-8.086,5.498-13.271,5.5V321.672v0.662
			c11.097,0,20.089-8.996,20.091-20.092c-0.002-11.096-8.994-20.091-20.091-20.092c-11.097,0-20.092,8.996-20.092,20.092
			s8.995,20.092,20.092,20.092V321.672L330.644,321.672z"/>
	</g>
</g>
<g id="LABELS">
	<g>
		<path fill="#333333" d="M314.34,229.225h-0.805l-6.766-10.141h-0.063c0.063,1.208,0.094,2.12,0.094,2.734v7.406h-0.766v-11.422
			h0.797l6.758,10.125h0.047c-0.047-0.938-0.07-1.828-0.07-2.672v-7.453h0.773V229.225z"/>
		<path fill="#333333" d="M327.176,223.499c0,1.813-0.453,3.246-1.359,4.301s-2.156,1.582-3.75,1.582
			c-1.589,0-2.836-0.527-3.742-1.582s-1.359-2.493-1.359-4.316c0-1.817,0.457-3.249,1.371-4.293
			c0.914-1.044,2.163-1.566,3.746-1.566c1.594,0,2.841,0.525,3.742,1.574C326.725,220.248,327.176,221.681,327.176,223.499z
			 M317.832,223.499c0,1.636,0.364,2.9,1.094,3.793c0.729,0.894,1.776,1.34,3.141,1.34c1.375,0,2.426-0.442,3.152-1.328
			c0.727-0.885,1.09-2.153,1.09-3.805c0-1.646-0.363-2.907-1.09-3.785c-0.727-0.877-1.772-1.316-3.137-1.316
			c-1.359,0-2.408,0.443-3.145,1.328C318.2,220.611,317.832,221.869,317.832,223.499z"/>
		<path fill="#333333" d="M330.598,224.249v4.977h-0.797v-11.422h2.719c1.417,0,2.464,0.262,3.141,0.785s1.016,1.312,1.016,2.363
			c0,0.766-0.202,1.412-0.605,1.938c-0.403,0.526-1.017,0.904-1.84,1.133l3.102,5.203h-0.953l-2.945-4.977H330.598z
			 M330.598,223.561h2.18c0.964,0,1.711-0.215,2.242-0.645s0.797-1.063,0.797-1.902c0-0.87-0.261-1.502-0.781-1.898
			c-0.521-0.396-1.37-0.594-2.547-0.594h-1.891V223.561z"/>
		<path fill="#333333" d="M342.285,229.225h-0.805v-10.672h-3.711v-0.75h8.227v0.75h-3.711V229.225z"/>
		<path fill="#333333" d="M355.965,229.225h-0.805v-5.617h-6.672v5.617h-0.797v-11.422h0.797v5.07h6.672v-5.07h0.805V229.225z"/>
	</g>
	<g>
		<path fill="#333333" d="M453.004,292.094v-6.242h11.422v6.242h-0.734v-5.445h-4.32v5.141h-0.734v-5.141h-4.898v5.445H453.004z"/>
		<path fill="#333333" d="M457.035,300.18v-4.641l-4.031-1.594v-0.883l11.469,4.594v0.508l-11.469,4.5v-0.898L457.035,300.18z
			 M457.754,295.828v4.086l4.117-1.555c0.322-0.13,0.771-0.287,1.344-0.469c-0.5-0.141-0.953-0.294-1.359-0.461L457.754,295.828z"/>
		<path fill="#333333" d="M455.949,310.586c-0.953,0-1.709-0.351-2.266-1.051c-0.558-0.7-0.836-1.632-0.836-2.793
			c0-1.396,0.153-2.466,0.461-3.211h0.797c-0.35,0.823-0.523,1.872-0.523,3.148c0,0.938,0.215,1.681,0.645,2.23
			s0.993,0.824,1.691,0.824c0.432,0,0.79-0.091,1.074-0.273c0.283-0.183,0.543-0.479,0.777-0.891s0.486-1.016,0.758-1.813
			c0.4-1.167,0.834-1.973,1.301-2.418c0.466-0.445,1.087-0.668,1.863-0.668c0.854,0,1.551,0.335,2.09,1.004s0.809,1.53,0.809,2.582
			c0,1.073-0.203,2.081-0.609,3.023l-0.688-0.289c0.396-0.948,0.594-1.854,0.594-2.719c0-0.844-0.195-1.516-0.586-2.016
			s-0.922-0.75-1.594-0.75c-0.422,0-0.769,0.077-1.039,0.23c-0.271,0.153-0.515,0.405-0.73,0.754
			c-0.217,0.349-0.476,0.948-0.777,1.797c-0.308,0.891-0.605,1.56-0.895,2.008s-0.617,0.774-0.984,0.98
			S456.47,310.586,455.949,310.586z"/>
		<path fill="#333333" d="M453.004,315.977v-0.805h10.672v-3.711h0.75v8.227h-0.75v-3.711H453.004z"/>
	</g>
	<g>
		<path fill="#333333" d="M312.75,382.957c0,0.953-0.351,1.709-1.051,2.266c-0.701,0.559-1.632,0.836-2.793,0.836
			c-1.396,0-2.466-0.152-3.211-0.461v-0.797c0.823,0.35,1.872,0.523,3.148,0.523c0.938,0,1.681-0.215,2.23-0.645
			c0.549-0.43,0.824-0.992,0.824-1.691c0-0.432-0.091-0.789-0.273-1.074c-0.183-0.283-0.479-0.543-0.891-0.777
			c-0.412-0.234-1.016-0.486-1.813-0.758c-1.167-0.4-1.973-0.834-2.418-1.301c-0.445-0.465-0.668-1.086-0.668-1.863
			c0-0.854,0.334-1.551,1.004-2.09c0.669-0.539,1.53-0.809,2.582-0.809c1.073,0,2.081,0.203,3.023,0.609l-0.289,0.688
			c-0.948-0.395-1.854-0.594-2.719-0.594c-0.844,0-1.516,0.195-2.016,0.586s-0.75,0.922-0.75,1.594c0,0.422,0.077,0.77,0.23,1.039
			c0.153,0.271,0.405,0.516,0.754,0.73c0.349,0.217,0.948,0.477,1.797,0.777c0.891,0.309,1.56,0.605,2.008,0.895
			c0.448,0.289,0.774,0.617,0.98,0.984C312.647,381.992,312.75,382.438,312.75,382.957z"/>
		<path fill="#333333" d="M324.766,380.176c0,1.813-0.453,3.246-1.359,4.301s-2.156,1.582-3.75,1.582
			c-1.589,0-2.836-0.527-3.742-1.582s-1.359-2.492-1.359-4.316c0-1.816,0.457-3.248,1.371-4.293
			c0.914-1.043,2.163-1.566,3.746-1.566c1.594,0,2.841,0.525,3.742,1.574C324.315,376.926,324.766,378.359,324.766,380.176z
			 M315.422,380.176c0,1.637,0.364,2.9,1.094,3.793c0.729,0.895,1.776,1.34,3.141,1.34c1.375,0,2.426-0.441,3.152-1.328
			c0.727-0.885,1.09-2.152,1.09-3.805c0-1.645-0.363-2.906-1.09-3.785c-0.727-0.877-1.772-1.316-3.137-1.316
			c-1.359,0-2.408,0.443-3.145,1.328C315.79,377.289,315.422,378.547,315.422,380.176z"/>
		<path fill="#333333" d="M335.789,374.48v7.391c0,1.313-0.38,2.34-1.141,3.078c-0.761,0.74-1.82,1.109-3.18,1.109
			c-1.323,0-2.355-0.371-3.098-1.113s-1.113-1.777-1.113-3.105v-7.359h0.805v7.391c0,1.1,0.305,1.955,0.914,2.566
			c0.609,0.613,1.471,0.918,2.586,0.918c1.089,0,1.933-0.301,2.531-0.902s0.898-1.436,0.898-2.504v-7.469H335.789z"/>
		<path fill="#333333" d="M341.875,385.902h-0.805V375.23h-3.711v-0.75h8.227v0.75h-3.711V385.902z"/>
		<path fill="#333333" d="M355.555,385.902h-0.805v-5.617h-6.672v5.617h-0.797V374.48h0.797v5.07h6.672v-5.07h0.805V385.902z"/>
	</g>
	<g>
		<path fill="#333333" d="M208.125,311.383v0.656l-8.813,2.508c-0.724,0.209-1.317,0.365-1.781,0.469
			c0.453,0.084,0.974,0.202,1.563,0.355c0.589,0.154,3.599,0.994,9.031,2.52v0.672l-11.422,3.141v-0.836l7.359-2
			c0.297-0.078,0.572-0.15,0.824-0.219c0.253-0.067,0.49-0.129,0.711-0.184c0.222-0.055,0.435-0.104,0.641-0.148
			c0.206-0.044,0.413-0.084,0.621-0.121c-0.708-0.125-1.784-0.391-3.227-0.797l-6.93-1.953v-0.883l7.953-2.289
			c0.917-0.266,1.656-0.455,2.219-0.57c-0.375-0.067-0.773-0.154-1.195-0.262c-0.422-0.106-3.414-0.91-8.977-2.41v-0.805
			L208.125,311.383z"/>
		<path fill="#333333" d="M208.125,299.969v6.242h-11.422v-6.242h0.734v5.445h4.32v-5.141h0.734v5.141h4.898v-5.445H208.125z"/>
		<path fill="#333333" d="M205.179,291.078c0.953,0,1.708,0.351,2.266,1.051c0.558,0.7,0.836,1.632,0.836,2.793
			c0,1.396-0.153,2.466-0.461,3.211h-0.797c0.349-0.823,0.523-1.872,0.523-3.148c0-0.938-0.215-1.681-0.645-2.23
			s-0.993-0.824-1.691-0.824c-0.432,0-0.79,0.091-1.074,0.273c-0.284,0.183-0.543,0.479-0.777,0.891s-0.487,1.016-0.758,1.813
			c-0.401,1.167-0.834,1.973-1.301,2.418c-0.466,0.445-1.087,0.668-1.863,0.668c-0.854,0-1.551-0.335-2.09-1.004
			s-0.809-1.53-0.809-2.582c0-1.073,0.203-2.081,0.609-3.023l0.688,0.289c-0.396,0.948-0.594,1.854-0.594,2.719
			c0,0.844,0.195,1.516,0.586,2.016s0.922,0.75,1.594,0.75c0.422,0,0.769-0.077,1.039-0.23c0.271-0.153,0.515-0.405,0.73-0.754
			c0.216-0.349,0.476-0.948,0.777-1.797c0.308-0.891,0.605-1.56,0.895-2.008s0.617-0.774,0.984-0.98
			S204.659,291.078,205.179,291.078z"/>
		<path fill="#333333" d="M208.125,285.688v0.805h-10.672v3.711h-0.75v-8.227h0.75v3.711H208.125z"/>
	</g>
</g>
</svg>
