<svg>
<g id="PITCH">
	<rect x="160.961" y="181.582" fill="#74BE45" width="315.777" height="207.586"/>
	<rect x="174.354" y="186.745" fill="#149B49" width="13.398" height="202.423"/>
	<rect x="201.127" y="186.745" fill="#149B49" width="13.401" height="202.423"/>
	<rect x="227.907" y="186.745" fill="#149B49" width="13.396" height="202.423"/>
	<rect x="254.683" y="186.745" fill="#149B49" width="13.394" height="202.423"/>
	<rect x="281.459" y="186.745" fill="#149B49" width="13.391" height="202.423"/>
	<rect x="308.236" y="186.745" fill="#149B49" width="13.388" height="202.423"/>
	<rect x="335.016" y="186.745" fill="#149B49" width="13.389" height="202.423"/>
	<rect x="361.781" y="186.745" fill="#149B49" width="13.398" height="202.423"/>
	<rect x="388.559" y="186.745" fill="#149B49" width="13.396" height="202.423"/>
	<rect x="415.333" y="186.745" fill="#149B49" width="13.401" height="202.423"/>
	<rect x="442.111" y="186.745" fill="#149B49" width="13.408" height="202.423"/>
	<rect x="440.774" y="186.745" fill="#FFFFFF" width="0.749" height="202.423"/>
	<rect x="188.325" y="186.745" fill="#FFFFFF" width="0.75" height="202.423"/>
	<polygon fill="#FFFFFF" points="188.528,278.523 151,267.636 151.343,265.832 188.872,276.719 	"/>
	<polygon fill="#FFFFFF" points="151.343,310.083 151,308.279 188.528,297.392 188.872,299.191 	"/>
	<rect x="170.594" y="272.694" fill="#FFFFFF" width="1.499" height="30.544"/>
	<polygon fill="#FFFFFF" points="441.325,278.523 440.979,276.719 478.503,265.832 478.848,267.636 	"/>
	<polygon fill="#FFFFFF" points="478.503,310.083 440.979,299.191 441.325,297.392 478.848,308.279 	"/>
	<rect x="457.753" y="272.694" fill="#FFFFFF" width="1.503" height="30.544"/>
	<rect x="314.546" y="197.928" fill="#FFFFFF" width="0.751" height="178.876"/>
	<rect x="349.538" y="197.928" fill="#FFFFFF" width="0.743" height="178.876"/>
	<rect x="394.294" y="197.928" fill="#FFFFFF" width="0.749" height="178.876"/>
	<rect x="279.563" y="197.928" fill="#FFFFFF" width="0.75" height="178.876"/>
	<rect x="234.806" y="197.928" fill="#FFFFFF" width="0.749" height="178.876"/>
</g>
<g id="AREAS">
	<rect id="CT1-CT3" x="485.134" y="366.661" fill="#666766" stroke-width="0" width="11.467" height="22.359"/>
	<rect id="CT1-CT2" x="485.134" y="307.036" fill="#666766" stroke-width="0" width="11.467" height="33.253"/>
	<rect id="CT1-CT1" x="485.134" y="227.918" fill="#666766" stroke-width="0" width="11.467" height="33.252"/>
	<polygon id="ESL-CT" fill="#666766" stroke-width="0" points="498.893,389.021 498.893,364.368 485.134,364.368 485.134,342.582 498.893,342.582 
		498.893,304.743 485.134,304.743 485.134,263.464 498.893,263.464 498.893,225.625 485.134,225.625 485.134,184.919 
		557.554,184.919 557.554,389.021 	"/>
	<rect id="ESU-N" x="574.754" y="342.826" fill="#666766" stroke-width="0" width="67.651" height="21.542"/>
	<rect id="CT1-CS5" x="563.288" y="342.826" fill="#666766" stroke-width="0" width="9.172" height="21.542"/>
	<rect id="ESU-M" x="563.288" y="306.577" fill="#666766" stroke-width="0" width="79.117" height="33.956"/>
	<rect id="ESU-L" x="563.288" y="261.39" fill="#666766" stroke-width="0" width="79.117" height="42.893"/>
	<rect id="ESU-K" x="563.288" y="214.217" fill="#666766" stroke-width="0" width="79.117" height="44.88"/>
	<rect id="ESU-J" x="574.754" y="184.919" fill="#666766" stroke-width="0" width="67.651" height="27.004"/>
	<rect id="CT1-CS4" x="563.288" y="184.919" fill="#666766" stroke-width="0" width="9.172" height="27.004"/>
	
	<rect id="WS-WT" x="36.98" y="161.708" fill="#666766" stroke-width="0" width="112.371" height="227.548"/>
	<rect id="SSU-E" x="247.04" y="450.424" fill="#666766" stroke-width="0" width="33.419" height="53.318"/>
	<rect id="SSU-C" x="343.879" y="450.424" fill="#666766" stroke-width="0" width="33.419" height="53.318"/>
	<polygon id="SSU-D" fill="#666766" stroke-width="0" points="331.144,450.424 331.144,481.879 293.194,481.879 293.194,450.424 282.459,450.424 
		282.459,503.742 341.879,503.742 341.879,450.424 	"/>
	<rect id="SSW-SS3" x="295.194" y="450.424" fill="#666766" stroke-width="0" width="33.949" height="8.818"/>
	<polygon fill="#CCCCCC" stroke-width="0" points="295.194,461.242 295.194,470.061 295.194,479.879 329.144,479.879 329.144,470.061 
		329.144,461.242 	"/>
	<rect id="SSW-ST2" x="368.432" y="391.371" fill="#666766" stroke-width="0" width="41.733" height="10.818"/>
	<rect id="SSW-ST1" x="216.173" y="391.371" fill="#666766" stroke-width="0" width="41.733" height="10.818"/>
	<polygon id="SS-SS" fill="#666766" stroke-width="0" points="412.165,391.371 412.165,404.189 366.432,404.189 366.432,391.371 356.334,391.371 
		356.334,409.007 338.698,409.007 338.698,391.371 283.146,391.371 283.146,409.007 265.511,409.007 265.511,391.371 
		259.907,391.371 259.907,404.189 214.173,404.189 214.173,391.371 160.555,391.371 160.555,444.689 187.896,444.689 
		187.896,427.053 196.714,427.053 196.714,444.689 232.485,444.689 232.485,427.053 241.303,427.053 241.303,444.689 
		398.346,444.689 398.346,427.053 407.164,427.053 407.164,444.689 460.686,444.689 476.738,412.3 476.738,391.371 	"/>
</g>
<g id="EXTRAS">
	<rect x="24.291" y="304.743" fill="#333333" width="10.396" height="44.121"/>
	
		<rect x="551.286" y="46.544" transform="matrix(0.7071 0.7071 -0.7071 0.7071 240.6188 -403.4665)" fill="#CCCCCC" width="112.11" height="84.357"/>
	<g>
		<path fill="#333333" d="M18.558,382.095v0.805H7.886v3.711h-0.75v-8.227h0.75v3.711H18.558z"/>
		<path fill="#333333" d="M7.136,369.938v-0.867l11.422,4.273v0.703l-11.422,4.258v-0.852l7.773-2.875
			c1.172-0.438,2.052-0.731,2.641-0.883c-0.391-0.104-0.997-0.31-1.82-0.617L7.136,369.938z"/>
	</g>
	<g>
		<path fill="#333333" d="M15.612,340.942c0.953,0,1.708,0.351,2.266,1.051c0.558,0.7,0.836,1.632,0.836,2.793
			c0,1.396-0.154,2.466-0.461,3.211h-0.797c0.349-0.823,0.523-1.872,0.523-3.148c0-0.938-0.215-1.681-0.645-2.23
			s-0.993-0.824-1.691-0.824c-0.432,0-0.79,0.091-1.074,0.273c-0.284,0.183-0.543,0.479-0.777,0.891s-0.487,1.016-0.758,1.813
			c-0.401,1.167-0.834,1.973-1.301,2.418c-0.466,0.445-1.087,0.668-1.863,0.668c-0.854,0-1.551-0.335-2.09-1.004
			s-0.809-1.53-0.809-2.582c0-1.073,0.203-2.081,0.609-3.023l0.688,0.289c-0.396,0.948-0.594,1.854-0.594,2.719
			c0,0.844,0.195,1.516,0.586,2.016s0.922,0.75,1.594,0.75c0.422,0,0.769-0.077,1.039-0.23c0.271-0.153,0.515-0.405,0.73-0.754
			c0.216-0.349,0.476-0.948,0.777-1.797c0.308-0.891,0.605-1.56,0.895-2.008s0.617-0.774,0.984-0.98S15.092,340.942,15.612,340.942z
			"/>
		<path fill="#333333" d="M7.69,333.653c0,1.433,0.458,2.56,1.375,3.383c0.917,0.823,2.172,1.234,3.766,1.234
			c1.63,0,2.896-0.388,3.797-1.164c0.901-0.776,1.352-1.886,1.352-3.328c0-0.958-0.122-1.839-0.367-2.641h0.703
			c0.266,0.755,0.398,1.698,0.398,2.828c0,1.604-0.518,2.867-1.555,3.789c-1.036,0.922-2.484,1.383-4.344,1.383
			c-1.161,0-2.185-0.22-3.07-0.66c-0.885-0.44-1.569-1.073-2.051-1.898c-0.481-0.825-0.723-1.785-0.723-2.879
			c0-1.114,0.208-2.112,0.625-2.992l0.719,0.32C7.899,331.861,7.69,332.736,7.69,333.653z"/>
		<path fill="#333333" d="M12.831,318.989c1.813,0,3.246,0.453,4.301,1.359s1.582,2.156,1.582,3.75c0,1.589-0.527,2.836-1.582,3.742
			s-2.493,1.359-4.316,1.359c-1.817,0-3.249-0.457-4.293-1.371c-1.044-0.914-1.566-2.163-1.566-3.746
			c0-1.594,0.525-2.841,1.574-3.742C9.58,319.439,11.014,318.989,12.831,318.989z M12.831,328.333c1.636,0,2.9-0.364,3.793-1.094
			c0.894-0.729,1.34-1.776,1.34-3.141c0-1.375-0.442-2.426-1.328-3.152c-0.885-0.727-2.153-1.09-3.805-1.09
			c-1.646,0-2.907,0.363-3.785,1.09c-0.877,0.727-1.316,1.772-1.316,3.137c0,1.359,0.443,2.407,1.328,3.145
			C9.943,327.965,11.201,328.333,12.831,328.333z"/>
		<path fill="#333333" d="M13.581,315.567h4.977v0.797H7.136v-2.719c0-1.417,0.262-2.464,0.785-3.141s1.312-1.016,2.363-1.016
			c0.766,0,1.412,0.202,1.938,0.605c0.526,0.404,0.904,1.017,1.133,1.84l5.203-3.102v0.953l-4.977,2.945V315.567z M12.894,315.567
			v-2.18c0-0.964-0.215-1.711-0.645-2.242s-1.063-0.797-1.902-0.797c-0.87,0-1.502,0.261-1.898,0.781
			c-0.396,0.521-0.594,1.37-0.594,2.547v1.891H12.894z"/>
		<path fill="#333333" d="M18.558,300.614v6.242H7.136v-6.242H7.87v5.445h4.32v-5.141h0.734v5.141h4.898v-5.445H18.558z"/>
		<path fill="#333333" d="M7.136,298.028v-3.133c0-1.411,0.24-2.448,0.719-3.109c0.479-0.661,1.203-0.992,2.172-0.992
			c0.662,0,1.212,0.202,1.652,0.605c0.44,0.404,0.723,0.994,0.848,1.77h0.047c0.136-0.911,0.423-1.582,0.863-2.012
			c0.44-0.43,1.054-0.645,1.84-0.645c1.052,0,1.862,0.349,2.43,1.047c0.568,0.698,0.852,1.688,0.852,2.969v3.5H7.136z
			 M12.222,297.231v-2.516c0-1.073-0.178-1.853-0.535-2.34c-0.356-0.487-0.915-0.73-1.676-0.73c-0.76,0-1.313,0.275-1.656,0.824
			c-0.344,0.55-0.516,1.369-0.516,2.457v2.305H12.222z M12.925,297.231h4.93v-2.688c0-2.114-0.859-3.172-2.578-3.172
			c-1.567,0-2.352,1.115-2.352,3.344V297.231z"/>
		<path fill="#333333" d="M12.831,278.396c1.813,0,3.246,0.453,4.301,1.359s1.582,2.156,1.582,3.75c0,1.589-0.527,2.836-1.582,3.742
			s-2.493,1.359-4.316,1.359c-1.817,0-3.249-0.457-4.293-1.371c-1.044-0.914-1.566-2.163-1.566-3.746
			c0-1.594,0.525-2.841,1.574-3.742C9.58,278.846,11.014,278.396,12.831,278.396z M12.831,287.739c1.636,0,2.9-0.364,3.793-1.094
			c0.894-0.729,1.34-1.776,1.34-3.141c0-1.375-0.442-2.426-1.328-3.152c-0.885-0.727-2.153-1.09-3.805-1.09
			c-1.646,0-2.907,0.363-3.785,1.09c-0.877,0.727-1.316,1.772-1.316,3.137c0,1.359,0.443,2.408,1.328,3.145
			C9.943,287.371,11.201,287.739,12.831,287.739z"/>
		<path fill="#333333" d="M14.526,270.271v4.641l4.031,1.594v0.883l-11.469-4.594v-0.508l11.469-4.5v0.898L14.526,270.271z
			 M13.808,274.622v-4.086l-4.117,1.555c-0.323,0.13-0.771,0.287-1.344,0.469c0.5,0.141,0.953,0.294,1.359,0.461L13.808,274.622z"/>
		<path fill="#333333" d="M13.581,265.372h4.977v0.797H7.136v-2.719c0-1.417,0.262-2.463,0.785-3.141
			c0.523-0.677,1.312-1.016,2.363-1.016c0.766,0,1.412,0.202,1.938,0.605c0.526,0.404,0.904,1.017,1.133,1.84l5.203-3.102v0.953
			l-4.977,2.945V265.372z M12.894,265.372v-2.18c0-0.963-0.215-1.711-0.645-2.242s-1.063-0.797-1.902-0.797
			c-0.87,0-1.502,0.261-1.898,0.781c-0.396,0.521-0.594,1.37-0.594,2.547v1.891H12.894z"/>
		<path fill="#333333" d="M12.737,247.989c1.917,0,3.366,0.503,4.348,1.508c0.982,1.005,1.473,2.482,1.473,4.43v2.734H7.136v-3.086
			c0-1.823,0.477-3.209,1.43-4.16C9.519,248.465,10.909,247.989,12.737,247.989z M12.769,248.856c-1.635,0-2.866,0.416-3.691,1.246
			c-0.825,0.831-1.238,2.051-1.238,3.66v2.102h10.016v-1.891C17.854,250.563,16.159,248.856,12.769,248.856z"/>
	</g>
	<g>
		<path fill="#F5F5F5" d="M598.402,52.697c-0.887-0.886-1.867-1.301-2.943-1.243c-1.076,0.059-2.107,0.58-3.094,1.566
			c-1.008,1.009-1.551,2.032-1.629,3.069s0.33,2.003,1.223,2.896c0.594,0.593,1.213,1.062,1.861,1.406l-0.436,0.435
			c-0.631-0.303-1.297-0.804-1.996-1.503c-0.992-0.993-1.453-2.094-1.383-3.307c0.072-1.211,0.682-2.393,1.832-3.543
			c0.719-0.719,1.488-1.215,2.309-1.491c0.82-0.275,1.635-0.307,2.443-0.094c0.809,0.212,1.551,0.657,2.229,1.333
			c0.689,0.69,1.178,1.436,1.465,2.238l-0.643,0.247C599.381,53.934,598.969,53.264,598.402,52.697z"/>
		<path fill="#F5F5F5" d="M594.811,62.553l7.066-7.067l0.494,0.493l-6.604,6.603l3.369,3.369l-0.463,0.464L594.811,62.553z"/>
		<path fill="#F5F5F5" d="M612.154,65.762l-4.572,4.573c-0.813,0.812-1.684,1.211-2.609,1.199c-0.93-0.013-1.814-0.44-2.654-1.281
			c-0.818-0.818-1.229-1.687-1.229-2.605c0-0.917,0.41-1.789,1.232-2.61l4.553-4.553l0.498,0.498l-4.572,4.573
			c-0.68,0.68-1.02,1.398-1.021,2.153c-0.002,0.756,0.342,1.478,1.031,2.168c0.674,0.673,1.383,1.009,2.125,1.007
			c0.742-0.001,1.445-0.332,2.105-0.993l4.621-4.621L612.154,65.762z"/>
		<path fill="#F5F5F5" d="M614.078,67.686l1.938,1.938c0.875,0.874,1.367,1.663,1.48,2.369c0.113,0.707-0.131,1.358-0.73,1.958
			c-0.408,0.409-0.875,0.625-1.396,0.647c-0.521,0.023-1.063-0.167-1.619-0.57l-0.029,0.029c0.48,0.648,0.717,1.241,0.711,1.779
			c-0.006,0.538-0.254,1.05-0.74,1.537c-0.65,0.651-1.367,0.937-2.15,0.856c-0.783-0.08-1.57-0.517-2.363-1.31l-2.166-2.166
			L614.078,67.686z M610.99,71.761l-3.051,3.05l1.662,1.663c1.309,1.309,2.496,1.431,3.559,0.368
			c0.971-0.97,0.766-2.145-0.613-3.524L610.99,71.761z M611.424,71.326l1.557,1.557c0.664,0.664,1.258,1.036,1.779,1.117
			c0.521,0.08,1.018-0.115,1.488-0.586c0.471-0.47,0.643-0.982,0.516-1.534c-0.127-0.553-0.527-1.167-1.201-1.84l-1.426-1.426
			L611.424,71.326z"/>
		<path fill="#F5F5F5" d="M621.514,85.61c-0.59,0.59-1.273,0.84-2.053,0.751s-1.527-0.493-2.246-1.211
			c-0.863-0.863-1.43-1.621-1.701-2.271l0.494-0.493c0.293,0.725,0.834,1.483,1.623,2.272c0.58,0.58,1.174,0.907,1.779,0.981
			c0.605,0.074,1.125-0.105,1.557-0.537c0.268-0.268,0.432-0.546,0.496-0.833c0.063-0.288,0.039-0.632-0.07-1.032
			c-0.109-0.4-0.328-0.93-0.654-1.591c-0.473-0.97-0.703-1.737-0.689-2.3c0.012-0.565,0.258-1.087,0.738-1.567
			c0.529-0.528,1.168-0.752,1.914-0.672c0.748,0.081,1.447,0.446,2.098,1.097c0.664,0.664,1.162,1.413,1.494,2.248l-0.604,0.246
			c-0.342-0.831-0.779-1.514-1.314-2.049c-0.523-0.522-1.059-0.816-1.609-0.884c-0.553-0.068-1.035,0.106-1.451,0.522
			c-0.26,0.261-0.428,0.523-0.5,0.785c-0.072,0.263-0.068,0.569,0.014,0.918c0.084,0.351,0.293,0.881,0.631,1.593
			c0.361,0.741,0.592,1.34,0.689,1.796c0.098,0.455,0.098,0.861-0.002,1.215C622.047,84.95,621.836,85.288,621.514,85.61z"/>
		<path fill="#F5F5F5" d="M626.303,94.045l-0.498-0.498l3.477-3.476l-4.129-4.128l-3.475,3.476l-0.494-0.493l7.066-7.067
			l0.494,0.493l-3.137,3.137l4.127,4.128l3.137-3.137l0.498,0.498L626.303,94.045z"/>
		<path fill="#F5F5F5" d="M637.787,98.443c-1.121,1.122-2.289,1.728-3.502,1.82c-1.213,0.092-2.313-0.355-3.299-1.342
			c-0.982-0.982-1.428-2.081-1.336-3.294c0.092-1.213,0.701-2.384,1.83-3.512c1.125-1.125,2.293-1.727,3.504-1.809
			c1.211-0.08,2.307,0.37,3.287,1.349c0.986,0.986,1.434,2.083,1.342,3.29S638.912,97.319,637.787,98.443z M632.006,92.662
			c-1.012,1.012-1.566,2.021-1.67,3.023c-0.102,1.004,0.27,1.928,1.115,2.772c0.85,0.851,1.775,1.227,2.773,1.129
			c0.994-0.1,2.006-0.659,3.027-1.68c1.018-1.019,1.572-2.024,1.668-3.016c0.092-0.993-0.283-1.911-1.127-2.756
			c-0.842-0.841-1.764-1.215-2.768-1.124C634.021,91.104,633.016,91.653,632.006,92.662z"/>
		<path fill="#F5F5F5" d="M645.16,102.828c-0.684,0.683-1.439,0.976-2.268,0.875c-0.828-0.1-1.668-0.575-2.518-1.425l-1.094-1.093
			l-2.92,2.919l-0.492-0.493l7.066-7.067l1.73,1.73C646.348,99.957,646.512,101.474,645.16,102.828z M639.707,100.759l0.971,0.972
			c0.797,0.796,1.504,1.241,2.121,1.332c0.615,0.092,1.221-0.157,1.811-0.746c0.543-0.545,0.779-1.116,0.707-1.714
			s-0.461-1.249-1.162-1.951l-1.17-1.17L639.707,100.759z"/>
		<path fill="#F5F5F5" d="M603.291,86.905c0.445-0.445,0.941-0.706,1.49-0.781c0.549-0.076,1.322,0.036,2.318,0.335l0.033-0.759
			c0.016-0.441,0.082-0.824,0.199-1.146c0.115-0.323,0.293-0.603,0.531-0.842c0.461-0.46,0.98-0.672,1.559-0.635
			c0.578,0.037,1.127,0.316,1.646,0.834c0.498,0.499,0.764,1.025,0.795,1.578c0.031,0.553-0.186,1.06-0.645,1.521
			c-0.34,0.338-0.762,0.536-1.27,0.592c-0.508,0.056-1.229-0.038-2.164-0.283l-0.023,4.394c0.43-0.035,0.85-0.121,1.262-0.256
			s0.857-0.338,1.334-0.609l0.465,0.465c-0.996,0.59-2.02,0.939-3.07,1.048l-0.01,2.582l-0.652-0.653l0.02-1.885
			c-0.586-0.006-1.063-0.059-1.43-0.157c-0.365-0.098-0.721-0.25-1.068-0.455c-0.346-0.204-0.693-0.482-1.045-0.833
			c-0.674-0.673-1.037-1.369-1.09-2.085C602.422,88.158,602.695,87.501,603.291,86.905z M604.035,90.559
			c0.412,0.412,0.859,0.72,1.344,0.924c0.482,0.203,1.057,0.303,1.721,0.303l0.01-4.678c-0.67-0.207-1.184-0.325-1.543-0.358
			c-0.357-0.033-0.676,0.002-0.953,0.104c-0.279,0.101-0.547,0.279-0.801,0.533c-0.461,0.461-0.672,0.972-0.633,1.533
			C603.219,89.481,603.502,90.027,604.035,90.559z M608.391,84.222c-0.256,0.254-0.426,0.554-0.514,0.899
			c-0.086,0.345-0.121,0.87-0.105,1.575c0.785,0.239,1.398,0.339,1.836,0.3c0.439-0.038,0.811-0.211,1.117-0.517
			c0.303-0.303,0.449-0.648,0.438-1.037c-0.012-0.388-0.188-0.752-0.529-1.094c-0.367-0.367-0.75-0.564-1.146-0.587
			C609.086,83.736,608.723,83.89,608.391,84.222z"/>
		<path fill="#F5F5F5" d="M565.338,71.999L564.84,71.5l6.604-6.603l-2.295-2.296l0.463-0.464l5.09,5.09l-0.463,0.464l-2.297-2.296
			L565.338,71.999z"/>
		<path fill="#F5F5F5" d="M568.684,75.343l7.066-7.067l0.494,0.493l-7.068,7.067L568.684,75.343z"/>
		<path fill="#F5F5F5" d="M580.918,74.13c-0.887-0.886-1.867-1.3-2.943-1.242s-2.107,0.58-3.094,1.566
			c-1.01,1.009-1.553,2.032-1.629,3.069c-0.078,1.038,0.33,2.003,1.223,2.896c0.594,0.593,1.213,1.062,1.861,1.406l-0.436,0.435
			c-0.631-0.303-1.297-0.804-1.996-1.503c-0.992-0.992-1.453-2.094-1.383-3.306c0.07-1.211,0.682-2.393,1.832-3.543
			c0.719-0.718,1.488-1.215,2.309-1.49c0.82-0.276,1.635-0.307,2.443-0.095c0.809,0.213,1.551,0.658,2.229,1.335
			c0.689,0.689,1.178,1.436,1.465,2.238l-0.643,0.246C581.896,75.367,581.484,74.697,580.918,74.13z"/>
		<path fill="#F5F5F5" d="M582.078,88.737l-0.604-0.604l1.02-6.443l-1.773-0.111l-2.9,2.9l-0.494-0.493l7.066-7.067l0.494,0.493
			l-3.674,3.674h1.566l5.66-0.121l0.627,0.628l-5.883,0.092L582.078,88.737z"/>
		<path fill="#F5F5F5" d="M586.941,93.601l-3.863-3.862l7.066-7.067l3.863,3.862l-0.455,0.455l-3.369-3.369l-2.672,2.673l3.18,3.181
			l-0.453,0.455l-3.182-3.181l-3.031,3.031l3.369,3.369L586.941,93.601z"/>
		<path fill="#F5F5F5" d="M590.383,97.042l-0.498-0.498l6.602-6.603l-2.295-2.296l0.463-0.464l5.09,5.09l-0.463,0.464l-2.297-2.296
			L590.383,97.042z"/>
		<path fill="#F5F5F5" d="M605.783,105.356c-1.121,1.122-2.289,1.728-3.502,1.82c-1.215,0.091-2.313-0.355-3.299-1.342
			c-0.982-0.982-1.43-2.081-1.338-3.294c0.092-1.213,0.703-2.384,1.83-3.512c1.125-1.125,2.293-1.728,3.506-1.807
			c1.209-0.082,2.305,0.368,3.285,1.348c0.986,0.985,1.434,2.083,1.342,3.289C607.516,103.065,606.908,104.232,605.783,105.356z
			 M600.002,99.575c-1.012,1.012-1.568,2.02-1.67,3.023c-0.102,1.004,0.27,1.928,1.113,2.772c0.852,0.851,1.775,1.227,2.771,1.128
			c0.998-0.098,2.008-0.659,3.029-1.68c1.018-1.018,1.574-2.022,1.668-3.016c0.094-0.992-0.283-1.911-1.127-2.755
			c-0.842-0.842-1.764-1.216-2.768-1.125S601.01,98.567,600.002,99.575z"/>
		<path fill="#F5F5F5" d="M604.357,111.017l-0.494-0.493l7.066-7.067l3.873,3.872l-0.455,0.455l-3.379-3.379l-2.996,2.997
			l3.189,3.19l-0.459,0.459l-3.189-3.19L604.357,111.017z"/>
		<path fill="#F5F5F5" d="M609.326,115.985l-0.494-0.493l7.066-7.067l3.873,3.872l-0.455,0.455l-3.379-3.379l-2.996,2.997
			l3.189,3.19l-0.459,0.459l-3.189-3.19L609.326,115.985z"/>
		<path fill="#F5F5F5" d="M613.803,120.462l7.066-7.067l0.492,0.493l-7.066,7.067L613.803,120.462z"/>
		<path fill="#F5F5F5" d="M626.035,119.248c-0.885-0.886-1.867-1.3-2.943-1.242c-1.076,0.058-2.107,0.58-3.094,1.566
			c-1.008,1.009-1.551,2.032-1.629,3.07c-0.078,1.037,0.33,2.002,1.223,2.895c0.594,0.594,1.215,1.062,1.861,1.407l-0.436,0.435
			c-0.631-0.303-1.295-0.804-1.996-1.504c-0.992-0.992-1.453-2.094-1.381-3.306c0.07-1.211,0.682-2.393,1.832-3.543
			c0.719-0.718,1.486-1.216,2.307-1.491s1.635-0.307,2.443-0.095c0.811,0.214,1.553,0.659,2.229,1.335
			c0.689,0.689,1.178,1.436,1.465,2.237l-0.643,0.247C627.016,120.485,626.604,119.815,626.035,119.248z"/>
		<path fill="#F5F5F5" d="M626.307,132.967l-3.861-3.862l7.066-7.067l3.861,3.862l-0.453,0.455l-3.369-3.369l-2.674,2.673
			l3.182,3.181l-0.455,0.455l-3.18-3.181l-3.031,3.031l3.369,3.369L626.307,132.967z"/>
	</g>
	<g>
		<path fill="#333333" d="M673.912,217.702c0-1.432-0.458-2.56-1.375-3.383s-2.172-1.234-3.766-1.234
			c-1.63,0-2.896,0.388-3.797,1.164s-1.352,1.885-1.352,3.328c0,0.958,0.122,1.838,0.367,2.641h-0.703
			c-0.266-0.755-0.398-1.698-0.398-2.828c0-1.604,0.519-2.867,1.555-3.789s2.484-1.383,4.344-1.383c1.161,0,2.185,0.22,3.07,0.66
			s1.569,1.073,2.051,1.898s0.723,1.785,0.723,2.879c0,1.115-0.208,2.112-0.625,2.992l-0.719-0.32
			C673.704,219.493,673.912,218.618,673.912,217.702z"/>
		<path fill="#333333" d="M667.076,228.264v-4.641l-4.031-1.594v-0.883l11.469,4.594v0.508l-11.469,4.5v-0.898L667.076,228.264z
			 M667.795,223.913v4.086l4.117-1.555c0.323-0.13,0.771-0.287,1.344-0.469c-0.5-0.141-0.953-0.294-1.359-0.461L667.795,223.913z"/>
		<path fill="#333333" d="M668.021,233.163h-4.977v-0.797h11.422v2.719c0,1.417-0.262,2.463-0.785,3.141s-1.312,1.016-2.363,1.016
			c-0.766,0-1.411-0.202-1.938-0.605s-0.903-1.017-1.133-1.84l-5.203,3.102v-0.953l4.977-2.945V233.163z M668.709,233.163v2.18
			c0,0.963,0.215,1.711,0.645,2.242s1.063,0.797,1.902,0.797c0.87,0,1.503-0.26,1.898-0.781s0.594-1.37,0.594-2.547v-1.891H668.709z
			"/>
		<path fill="#333333" d="M663.045,250.178v-0.805l10.141-6.766v-0.063c-1.208,0.063-2.12,0.094-2.734,0.094h-7.406v-0.766h11.422
			v0.797l-10.125,6.758v0.047c0.938-0.047,1.828-0.07,2.672-0.07h7.453v0.773H663.045z"/>
		<path fill="#333333" d="M663.045,259.655v-6.242h11.422v6.242h-0.734v-5.445h-4.32v5.141h-0.734v-5.141h-4.898v5.445H663.045z"/>
		<path fill="#333333" d="M668.803,266.733v4.211h-5.211c-0.469-1.104-0.703-2.346-0.703-3.727c0-1.802,0.509-3.184,1.527-4.145
			s2.46-1.441,4.324-1.441c1.161,0,2.191,0.238,3.09,0.715s1.593,1.159,2.082,2.047s0.734,1.908,0.734,3.059
			c0,1.245-0.229,2.362-0.688,3.352l-0.719-0.32c0.458-0.99,0.688-2.016,0.688-3.078c0-1.505-0.465-2.699-1.395-3.582
			s-2.184-1.324-3.762-1.324c-1.719,0-3.012,0.419-3.879,1.258s-1.301,2.07-1.301,3.695c0,1.052,0.148,1.945,0.445,2.68h4.016
			v-3.398H668.803z"/>
		<path fill="#333333" d="M663.045,273.811h11.422v0.797h-11.422V273.811z"/>
		<path fill="#333333" d="M663.045,284.084v-6.242h11.422v6.242h-0.734v-5.445h-4.32v5.141h-0.734v-5.141h-4.898v5.445H663.045z"/>
		<path fill="#333333" d="M665.99,297.131c-0.953,0-1.708-0.35-2.266-1.051s-0.836-1.631-0.836-2.793
			c0-1.396,0.153-2.466,0.461-3.211h0.797c-0.349,0.823-0.523,1.873-0.523,3.148c0,0.938,0.215,1.681,0.645,2.23
			s0.993,0.824,1.691,0.824c0.433,0,0.79-0.091,1.074-0.273s0.543-0.479,0.777-0.891s0.487-1.016,0.758-1.813
			c0.401-1.167,0.835-1.973,1.301-2.418s1.087-0.668,1.863-0.668c0.854,0,1.551,0.334,2.09,1.004s0.809,1.53,0.809,2.582
			c0,1.073-0.203,2.081-0.609,3.023l-0.688-0.289c0.396-0.948,0.594-1.854,0.594-2.719c0-0.844-0.195-1.516-0.586-2.016
			s-0.922-0.75-1.594-0.75c-0.422,0-0.769,0.077-1.039,0.23s-0.515,0.405-0.73,0.754s-0.476,0.948-0.777,1.797
			c-0.308,0.891-0.605,1.56-0.895,2.008s-0.617,0.775-0.984,0.98S666.511,297.131,665.99,297.131z"/>
		<path fill="#333333" d="M663.045,302.522v-0.805h10.672v-3.711h0.75v8.227h-0.75v-3.711H663.045z"/>
		<path fill="#333333" d="M667.076,313.428v-4.64l-4.031-1.594v-0.883l11.469,4.593v0.508l-11.469,4.5v-0.898L667.076,313.428z
			 M667.795,309.077v4.085l4.117-1.555c0.323-0.13,0.771-0.286,1.344-0.469c-0.5-0.141-0.953-0.294-1.359-0.461L667.795,309.077z"/>
		<path fill="#333333" d="M663.045,325.834v-0.805l10.141-6.766v-0.063c-1.208,0.063-2.12,0.094-2.734,0.094h-7.406v-0.766h11.422
			v0.797l-10.125,6.758v0.047c0.938-0.047,1.828-0.07,2.672-0.07h7.453v0.773H663.045z"/>
		<path fill="#333333" d="M668.865,337.74c-1.917,0-3.366-0.503-4.348-1.508s-1.473-2.481-1.473-4.43v-2.734h11.422v3.086
			c0,1.823-0.477,3.21-1.43,4.16S670.693,337.74,668.865,337.74z M668.834,336.873c1.636,0,2.866-0.415,3.691-1.246
			s1.238-2.051,1.238-3.66v-2.102h-10.016v1.891C663.748,335.167,665.443,336.873,668.834,336.873z"/>
	</g>
	<g>
		<path fill="#FFFFFF" d="M419.631,98.213h-0.449v-6.425h3.521v0.413h-3.071v2.725h2.9v0.417h-2.9V98.213z"/>
		<path fill="#FFFFFF" d="M426.793,95.945h-2.609l-0.896,2.268h-0.497l2.584-6.451h0.286l2.531,6.451h-0.506L426.793,95.945z
			 M424.346,95.541h2.299l-0.875-2.316c-0.073-0.182-0.161-0.434-0.264-0.756c-0.079,0.281-0.166,0.536-0.26,0.765L424.346,95.541z"
			/>
		<path fill="#FFFFFF" d="M431.926,98.213l-2.395-5.933h-0.035c0.023,0.363,0.035,0.735,0.035,1.116v4.816h-0.431v-6.425h0.694
			l2.276,5.651h0.026l2.276-5.651h0.677v6.425h-0.453v-4.869c0-0.34,0.018-0.691,0.053-1.055h-0.035l-2.403,5.924H431.926z"/>
		<path fill="#FFFFFF" d="M436.865,98.213v-6.425h0.449v6.425H436.865z"/>
		<path fill="#FFFFFF" d="M439.133,98.213v-6.425h0.449v6.003h3.063v0.422H439.133z"/>
		<path fill="#FFFFFF" d="M445.229,95.304l1.881-3.516h0.483l-2.14,3.942v2.483h-0.462v-2.448l-2.149-3.977h0.515L445.229,95.304z"
			/>
		<path fill="#FFFFFF" d="M426.379,104.945h-2.611l-0.896,2.268h-0.496l2.584-6.451h0.285l2.531,6.451h-0.505L426.379,104.945z
			 M423.931,104.541h2.298l-0.874-2.316c-0.073-0.182-0.161-0.434-0.264-0.756c-0.079,0.281-0.165,0.536-0.259,0.765
			L423.931,104.541z"/>
		<path fill="#FFFFFF" d="M429.134,104.414v2.799h-0.448v-6.425h1.529c0.797,0,1.386,0.147,1.767,0.441
			c0.381,0.295,0.571,0.738,0.571,1.33c0,0.431-0.113,0.794-0.341,1.09s-0.571,0.508-1.034,0.637l1.744,2.927h-0.536l-1.657-2.799
			H429.134z M429.134,104.027h1.226c0.543,0,0.963-0.121,1.262-0.363c0.299-0.241,0.448-0.598,0.448-1.07
			c0-0.489-0.146-0.845-0.439-1.068s-0.771-0.334-1.433-0.334h-1.063V104.027z"/>
		<path fill="#FFFFFF" d="M437.545,107.213h-3.512v-6.425h3.512v0.413h-3.063v2.43h2.891v0.413h-2.891v2.755h3.063V107.213z"/>
		<path fill="#FFFFFF" d="M442.094,104.945h-2.611l-0.896,2.268h-0.496l2.584-6.451h0.285l2.531,6.451h-0.505L442.094,104.945z
			 M439.646,104.541h2.298l-0.874-2.316c-0.073-0.182-0.161-0.434-0.264-0.756c-0.079,0.281-0.165,0.536-0.259,0.765
			L439.646,104.541z"/>
	</g>
	<rect x="24.291" y="366.811" fill="#333333" width="10.396" height="22.061"/>
	<rect x="160.439" y="126.445" fill="#CCCCCC" width="316.299" height="51.696"/>
	<rect x="160.555" y="450.424" fill="#CCCCCC" width="84.485" height="53.318"/>
	<polygon fill="#CCCCCC" points="457.843,450.424 379.298,450.424 379.298,503.742 431.418,503.742 	"/>
	<g>
		<path fill="#FFFFFF" d="M270.539,137.542l2.508-4.688h0.645l-2.854,5.256v3.311h-0.615v-3.264l-2.865-5.303h0.686L270.539,137.542
			z"/>
		<path fill="#FFFFFF" d="M282.105,137.126c0,1.359-0.34,2.435-1.02,3.226s-1.617,1.187-2.813,1.187
			c-1.191,0-2.127-0.396-2.807-1.187s-1.02-1.87-1.02-3.237c0-1.363,0.343-2.437,1.028-3.22s1.622-1.175,2.81-1.175
			c1.195,0,2.131,0.394,2.807,1.181S282.105,135.763,282.105,137.126z M275.097,137.126c0,1.227,0.273,2.175,0.82,2.845
			s1.332,1.005,2.355,1.005c1.031,0,1.819-0.332,2.364-0.996s0.817-1.615,0.817-2.854c0-1.234-0.272-2.181-0.817-2.839
			s-1.329-0.987-2.353-0.987c-1.02,0-1.806,0.332-2.358,0.996S275.097,135.903,275.097,137.126z"/>
		<path fill="#FFFFFF" d="M290.373,132.854v5.543c0,0.984-0.285,1.754-0.855,2.309s-1.365,0.832-2.385,0.832
			c-0.992,0-1.767-0.278-2.323-0.835s-0.835-1.333-0.835-2.329v-5.52h0.604v5.543c0,0.824,0.229,1.466,0.686,1.925
			s1.104,0.688,1.939,0.688c0.816,0,1.449-0.226,1.898-0.677s0.674-1.077,0.674-1.878v-5.602H290.373z"/>
		<path fill="#FFFFFF" d="M293.302,137.688v3.732h-0.598v-8.566h2.039c1.063,0,1.848,0.196,2.355,0.589s0.762,0.983,0.762,1.772
			c0,0.574-0.151,1.059-0.454,1.453s-0.763,0.678-1.38,0.85l2.326,3.902h-0.715l-2.209-3.732H293.302z M293.302,137.173h1.635
			c0.723,0,1.283-0.161,1.682-0.483s0.598-0.798,0.598-1.427c0-0.652-0.195-1.127-0.586-1.424s-1.027-0.445-1.91-0.445h-1.418
			V137.173z"/>
		<path fill="#FFFFFF" d="M302.953,132.854h2.35c1.059,0,1.836,0.18,2.332,0.539s0.744,0.902,0.744,1.629
			c0,0.496-0.151,0.909-0.454,1.239s-0.745,0.542-1.327,0.636v0.035c0.684,0.102,1.187,0.317,1.509,0.647s0.483,0.79,0.483,1.38
			c0,0.789-0.262,1.396-0.785,1.822s-1.266,0.639-2.227,0.639h-2.625V132.854z M303.55,136.669h1.887
			c0.805,0,1.39-0.134,1.755-0.401s0.548-0.687,0.548-1.257s-0.206-0.984-0.618-1.242s-1.026-0.387-1.843-0.387h-1.729V136.669z
			 M303.55,137.196v3.697h2.016c1.586,0,2.379-0.645,2.379-1.934c0-1.176-0.836-1.764-2.508-1.764H303.55z"/>
		<path fill="#FFFFFF" d="M311.074,137.688v3.732h-0.598v-8.566h2.039c1.063,0,1.848,0.196,2.355,0.589s0.762,0.983,0.762,1.772
			c0,0.574-0.151,1.059-0.454,1.453s-0.763,0.678-1.38,0.85l2.326,3.902h-0.715l-2.209-3.732H311.074z M311.074,137.173h1.635
			c0.723,0,1.283-0.161,1.682-0.483s0.598-0.798,0.598-1.427c0-0.652-0.195-1.127-0.586-1.424s-1.027-0.445-1.91-0.445h-1.418
			V137.173z"/>
		<path fill="#FFFFFF" d="M321.732,138.397h-3.48l-1.195,3.023h-0.662l3.445-8.602h0.381l3.375,8.602h-0.674L321.732,138.397z
			 M318.468,137.858h3.064l-1.166-3.088c-0.098-0.242-0.215-0.578-0.352-1.008c-0.105,0.375-0.221,0.715-0.346,1.02L318.468,137.858
			z"/>
		<path fill="#FFFFFF" d="M331.037,141.421h-0.604l-5.074-7.605h-0.047c0.047,0.906,0.07,1.59,0.07,2.051v5.555h-0.574v-8.566h0.598
			l5.068,7.594h0.035c-0.035-0.703-0.053-1.371-0.053-2.004v-5.59h0.58V141.421z"/>
		<path fill="#FFFFFF" d="M339.966,137.056c0,1.438-0.377,2.524-1.131,3.261s-1.861,1.104-3.322,1.104h-2.051v-8.566h2.314
			c1.367,0,2.407,0.357,3.12,1.072S339.966,135.685,339.966,137.056z M339.316,137.079c0-1.227-0.312-2.149-0.935-2.769
			s-1.538-0.929-2.745-0.929h-1.576v7.512h1.418C338.037,140.894,339.316,139.622,339.316,137.079z"/>
		<path fill="#FFFFFF" d="M351.281,141.421h-0.604l-5.074-7.605h-0.047c0.047,0.906,0.07,1.59,0.07,2.051v5.555h-0.574v-8.566h0.598
			l5.068,7.594h0.035c-0.035-0.703-0.053-1.371-0.053-2.004v-5.59h0.58V141.421z"/>
		<path fill="#FFFFFF" d="M358.389,141.421h-4.682v-8.566h4.682v0.551h-4.084v3.24h3.855v0.551h-3.855v3.674h4.084V141.421z"/>
		<path fill="#FFFFFF" d="M367.154,141.421h-0.492l-1.881-6.609c-0.156-0.543-0.273-0.988-0.352-1.336
			c-0.063,0.34-0.152,0.73-0.268,1.172s-0.744,2.699-1.889,6.773h-0.504l-2.355-8.566h0.627l1.5,5.52
			c0.059,0.223,0.113,0.429,0.164,0.618s0.096,0.367,0.137,0.533s0.078,0.326,0.111,0.48s0.064,0.31,0.092,0.466
			c0.094-0.531,0.293-1.338,0.598-2.42l1.465-5.197h0.662l1.717,5.965c0.199,0.688,0.342,1.242,0.428,1.664
			c0.051-0.281,0.115-0.58,0.195-0.896s0.684-2.561,1.809-6.732h0.604L367.154,141.421z"/>
		<path fill="#FFFFFF" d="M256.573,155.821h-4.682v-8.566h4.682v0.551h-4.084v3.24h3.855v0.551h-3.855v3.674h4.084V155.821z"/>
		<path fill="#FFFFFF" d="M262.28,155.821l-3.193-7.91h-0.047c0.031,0.484,0.047,0.98,0.047,1.488v6.422h-0.574v-8.566h0.926
			l3.035,7.535h0.035l3.035-7.535h0.902v8.566h-0.604v-6.492c0-0.453,0.023-0.922,0.07-1.406h-0.047l-3.205,7.898H262.28z"/>
		<path fill="#FFFFFF" d="M273.547,155.821h-4.682v-8.566h4.682v0.551h-4.084v3.24h3.855v0.551h-3.855v3.674h4.084V155.821z"/>
		<path fill="#FFFFFF" d="M276.084,152.088v3.732h-0.598v-8.566h2.039c1.063,0,1.848,0.196,2.355,0.589s0.762,0.983,0.762,1.772
			c0,0.574-0.151,1.059-0.454,1.453s-0.763,0.678-1.38,0.85l2.326,3.902h-0.715l-2.209-3.732H276.084z M276.084,151.573h1.635
			c0.723,0,1.283-0.161,1.682-0.483s0.598-0.798,0.598-1.427c0-0.652-0.195-1.127-0.586-1.424s-1.027-0.445-1.91-0.445h-1.418
			V151.573z"/>
		<path fill="#FFFFFF" d="M286.743,152.797h-3.48l-1.195,3.023h-0.662l3.445-8.602h0.381l3.375,8.602h-0.674L286.743,152.797z
			 M283.479,152.258h3.064l-1.166-3.088c-0.098-0.242-0.215-0.578-0.352-1.008c-0.105,0.375-0.221,0.715-0.346,1.02L283.479,152.258
			z"/>
		<path fill="#FFFFFF" d="M289.819,155.821v-8.566h0.598v8.004h4.084v0.563H289.819z"/>
		<path fill="#FFFFFF" d="M302.481,151.456c0,1.438-0.377,2.524-1.131,3.261s-1.861,1.104-3.322,1.104h-2.051v-8.566h2.314
			c1.367,0,2.407,0.357,3.12,1.072S302.481,150.084,302.481,151.456z M301.831,151.479c0-1.227-0.312-2.149-0.935-2.769
			s-1.538-0.929-2.745-0.929h-1.576v7.512h1.418C300.551,155.293,301.831,154.022,301.831,151.479z"/>
		<path fill="#FFFFFF" d="M313.795,155.821h-0.604l-5.074-7.605h-0.047c0.047,0.906,0.07,1.59,0.07,2.051v5.555h-0.574v-8.566h0.598
			l5.068,7.594h0.035c-0.035-0.703-0.053-1.371-0.053-2.004v-5.59h0.58V155.821z"/>
		<path fill="#FFFFFF" d="M323.422,151.526c0,1.359-0.34,2.435-1.02,3.226s-1.617,1.187-2.813,1.187
			c-1.191,0-2.127-0.396-2.807-1.187s-1.02-1.87-1.02-3.237c0-1.363,0.343-2.437,1.028-3.22s1.622-1.175,2.81-1.175
			c1.195,0,2.131,0.394,2.807,1.181S323.422,150.163,323.422,151.526z M316.415,151.526c0,1.227,0.273,2.175,0.82,2.845
			s1.332,1.005,2.355,1.005c1.031,0,1.819-0.332,2.364-0.996s0.817-1.615,0.817-2.854c0-1.234-0.272-2.181-0.817-2.839
			s-1.329-0.987-2.353-0.987c-1.02,0-1.806,0.332-2.358,0.996S316.415,150.303,316.415,151.526z"/>
		<path fill="#FFFFFF" d="M325.989,152.088v3.732h-0.598v-8.566h2.039c1.063,0,1.848,0.196,2.355,0.589s0.762,0.983,0.762,1.772
			c0,0.574-0.151,1.059-0.454,1.453s-0.763,0.678-1.38,0.85l2.326,3.902h-0.715l-2.209-3.732H325.989z M325.989,151.573h1.635
			c0.723,0,1.283-0.161,1.682-0.483s0.598-0.798,0.598-1.427c0-0.652-0.195-1.127-0.586-1.424s-1.027-0.445-1.91-0.445h-1.418
			V151.573z"/>
		<path fill="#FFFFFF" d="M334.754,155.821h-0.604v-8.004h-2.783v-0.563h6.17v0.563h-2.783V155.821z"/>
		<path fill="#FFFFFF" d="M345.014,155.821h-0.604v-4.213h-5.003v4.213h-0.598v-8.566h0.598v3.803h5.003v-3.803h0.604V155.821z"/>
		<path fill="#FFFFFF" d="M355.285,153.612c0,0.715-0.262,1.281-0.787,1.699s-1.225,0.627-2.096,0.627
			c-1.047,0-1.85-0.115-2.408-0.346v-0.598c0.617,0.262,1.404,0.393,2.361,0.393c0.703,0,1.262-0.161,1.674-0.483
			s0.617-0.745,0.617-1.269c0-0.324-0.068-0.593-0.205-0.806s-0.359-0.407-0.668-0.583s-0.762-0.365-1.359-0.568
			c-0.875-0.301-1.479-0.626-1.813-0.976s-0.502-0.815-0.502-1.397c0-0.641,0.252-1.163,0.754-1.567s1.146-0.606,1.936-0.606
			c0.805,0,1.561,0.152,2.268,0.457l-0.217,0.516c-0.711-0.297-1.391-0.445-2.039-0.445c-0.633,0-1.137,0.146-1.512,0.439
			s-0.563,0.691-0.563,1.195c0,0.316,0.059,0.576,0.174,0.779s0.303,0.386,0.564,0.548s0.711,0.356,1.348,0.583
			c0.668,0.23,1.17,0.454,1.506,0.671s0.582,0.463,0.736,0.738S355.285,153.221,355.285,153.612z"/>
		<path fill="#FFFFFF" d="M359.328,155.821h-0.604v-8.004h-2.783v-0.563h6.17v0.563h-2.783V155.821z"/>
		<path fill="#FFFFFF" d="M367.508,152.797h-3.48l-1.195,3.023h-0.662l3.445-8.602h0.381l3.375,8.602h-0.674L367.508,152.797z
			 M364.244,152.258h3.064l-1.166-3.088c-0.098-0.242-0.215-0.578-0.352-1.008c-0.105,0.375-0.221,0.715-0.346,1.02L364.244,152.258
			z"/>
		<path fill="#FFFFFF" d="M376.813,155.821h-0.604l-5.074-7.605h-0.047c0.047,0.906,0.07,1.59,0.07,2.051v5.555h-0.574v-8.566h0.598
			l5.068,7.594h0.035c-0.035-0.703-0.053-1.371-0.053-2.004v-5.59h0.58V155.821z"/>
		<path fill="#FFFFFF" d="M385.742,151.456c0,1.438-0.377,2.524-1.131,3.261s-1.861,1.104-3.322,1.104h-2.051v-8.566h2.314
			c1.367,0,2.408,0.357,3.121,1.072S385.742,150.084,385.742,151.456z M385.092,151.479c0-1.227-0.311-2.149-0.934-2.769
			s-1.539-0.929-2.746-0.929h-1.576v7.512h1.418C383.813,155.293,385.092,154.022,385.092,151.479z"/>
		<path fill="#FFFFFF" d="M271.47,170.221v-8.566h0.598v8.566H271.47z"/>
		<path fill="#FFFFFF" d="M279.222,168.012c0,0.715-0.263,1.281-0.788,1.699s-1.224,0.627-2.095,0.627
			c-1.047,0-1.85-0.115-2.408-0.346v-0.598c0.617,0.262,1.404,0.393,2.361,0.393c0.703,0,1.261-0.161,1.673-0.483
			s0.618-0.745,0.618-1.269c0-0.324-0.068-0.593-0.205-0.806s-0.359-0.407-0.668-0.583s-0.762-0.365-1.359-0.568
			c-0.875-0.301-1.479-0.626-1.813-0.976s-0.501-0.815-0.501-1.397c0-0.641,0.251-1.163,0.753-1.567s1.147-0.606,1.937-0.606
			c0.805,0,1.561,0.152,2.268,0.457l-0.217,0.516c-0.711-0.297-1.391-0.445-2.039-0.445c-0.633,0-1.137,0.146-1.512,0.439
			s-0.563,0.691-0.563,1.195c0,0.316,0.058,0.576,0.173,0.779s0.304,0.386,0.565,0.548s0.711,0.356,1.348,0.583
			c0.668,0.23,1.17,0.454,1.506,0.671s0.581,0.463,0.735,0.738S279.222,167.621,279.222,168.012z"/>
		<path fill="#FFFFFF" d="M287.806,162.07c-1.074,0-1.92,0.344-2.537,1.031s-0.926,1.629-0.926,2.824
			c0,1.223,0.291,2.172,0.873,2.848s1.414,1.014,2.496,1.014c0.719,0,1.379-0.092,1.98-0.275v0.527
			c-0.566,0.199-1.273,0.299-2.121,0.299c-1.203,0-2.15-0.389-2.842-1.166s-1.037-1.863-1.037-3.258
			c0-0.871,0.165-1.639,0.495-2.303s0.805-1.177,1.424-1.538s1.339-0.542,2.159-0.542c0.836,0,1.584,0.156,2.244,0.469l-0.24,0.539
			C289.15,162.227,288.494,162.07,287.806,162.07z"/>
		<path fill="#FFFFFF" d="M298.804,165.926c0,1.359-0.34,2.435-1.02,3.226s-1.617,1.187-2.813,1.187
			c-1.191,0-2.127-0.396-2.807-1.187s-1.02-1.87-1.02-3.237c0-1.363,0.343-2.437,1.028-3.22s1.622-1.175,2.81-1.175
			c1.195,0,2.131,0.394,2.807,1.181S298.804,164.563,298.804,165.926z M291.796,165.926c0,1.227,0.273,2.175,0.82,2.845
			s1.332,1.005,2.355,1.005c1.031,0,1.819-0.332,2.364-0.996s0.817-1.615,0.817-2.854c0-1.234-0.272-2.181-0.817-2.839
			s-1.329-0.987-2.353-0.987c-1.02,0-1.806,0.332-2.358,0.996S291.796,164.703,291.796,165.926z"/>
		<path fill="#FFFFFF" d="M304.541,170.221l-3.193-7.91H301.3c0.031,0.484,0.047,0.98,0.047,1.488v6.422h-0.574v-8.566h0.926
			l3.035,7.535h0.035l3.035-7.535h0.902v8.566h-0.604v-6.492c0-0.453,0.023-0.922,0.07-1.406h-0.047l-3.205,7.898H304.541z"/>
		<path fill="#FFFFFF" d="M311.126,170.221v-8.566h0.598v8.566H311.126z"/>
		<path fill="#FFFFFF" d="M320.378,170.221h-0.604l-5.074-7.605h-0.047c0.047,0.906,0.07,1.59,0.07,2.051v5.555h-0.574v-8.566h0.598
			l5.068,7.594h0.035c-0.035-0.703-0.053-1.371-0.053-2.004v-5.59h0.58V170.221z"/>
		<path fill="#FFFFFF" d="M326.173,165.902h3.158v3.908c-0.828,0.352-1.76,0.527-2.795,0.527c-1.352,0-2.388-0.382-3.108-1.146
			s-1.081-1.845-1.081-3.243c0-0.871,0.179-1.644,0.536-2.317s0.869-1.194,1.535-1.562s1.431-0.551,2.294-0.551
			c0.934,0,1.771,0.172,2.514,0.516l-0.24,0.539c-0.742-0.344-1.512-0.516-2.309-0.516c-1.129,0-2.024,0.349-2.687,1.046
			s-0.993,1.638-0.993,2.821c0,1.289,0.314,2.259,0.943,2.909s1.553,0.976,2.771,0.976c0.789,0,1.459-0.111,2.01-0.334v-3.012
			h-2.549V165.902z"/>
		<path fill="#FFFFFF" d="M339.328,168.012c0,0.715-0.263,1.281-0.788,1.699s-1.224,0.627-2.095,0.627
			c-1.047,0-1.85-0.115-2.408-0.346v-0.598c0.617,0.262,1.404,0.393,2.361,0.393c0.703,0,1.261-0.161,1.673-0.483
			s0.618-0.745,0.618-1.269c0-0.324-0.068-0.593-0.205-0.806s-0.359-0.407-0.668-0.583s-0.762-0.365-1.359-0.568
			c-0.875-0.301-1.479-0.626-1.813-0.976s-0.501-0.815-0.501-1.397c0-0.641,0.251-1.163,0.753-1.567s1.147-0.606,1.937-0.606
			c0.805,0,1.561,0.152,2.268,0.457l-0.217,0.516c-0.711-0.297-1.391-0.445-2.039-0.445c-0.633,0-1.137,0.146-1.512,0.439
			s-0.563,0.691-0.563,1.195c0,0.316,0.058,0.576,0.173,0.779s0.304,0.386,0.565,0.548s0.711,0.356,1.348,0.583
			c0.668,0.23,1.17,0.454,1.506,0.671s0.581,0.463,0.735,0.738S339.328,167.621,339.328,168.012z"/>
		<path fill="#FFFFFF" d="M348.34,165.926c0,1.359-0.34,2.435-1.02,3.226s-1.617,1.187-2.813,1.187
			c-1.191,0-2.127-0.396-2.807-1.187c-0.68-0.791-1.02-1.87-1.02-3.237c0-1.363,0.343-2.437,1.028-3.22
			c0.685-0.783,1.623-1.175,2.81-1.175c1.195,0,2.131,0.394,2.807,1.181S348.34,164.563,348.34,165.926z M341.332,165.926
			c0,1.227,0.273,2.175,0.821,2.845c0.547,0.67,1.332,1.005,2.355,1.005c1.031,0,1.818-0.332,2.363-0.996s0.818-1.615,0.818-2.854
			c0-1.234-0.273-2.181-0.818-2.839s-1.328-0.987-2.352-0.987c-1.02,0-1.807,0.332-2.359,0.996
			C341.608,163.76,341.332,164.703,341.332,165.926z"/>
		<path fill="#FFFFFF" d="M357.51,165.926c0,1.359-0.34,2.435-1.02,3.226s-1.617,1.187-2.813,1.187
			c-1.191,0-2.127-0.396-2.807-1.187s-1.02-1.87-1.02-3.237c0-1.363,0.342-2.437,1.027-3.22s1.623-1.175,2.811-1.175
			c1.195,0,2.131,0.394,2.807,1.181S357.51,164.563,357.51,165.926z M350.502,165.926c0,1.227,0.273,2.175,0.82,2.845
			s1.332,1.005,2.355,1.005c1.031,0,1.818-0.332,2.363-0.996s0.818-1.615,0.818-2.854c0-1.234-0.273-2.181-0.818-2.839
			s-1.328-0.987-2.352-0.987c-1.02,0-1.807,0.332-2.359,0.996S350.502,164.703,350.502,165.926z"/>
		<path fill="#FFFFFF" d="M365.707,170.221h-0.604l-5.074-7.605h-0.047c0.047,0.906,0.07,1.59,0.07,2.051v5.555h-0.574v-8.566h0.598
			l5.068,7.594h0.035c-0.035-0.703-0.053-1.371-0.053-2.004v-5.59h0.58V170.221z"/>
	</g>
	<g>
		<path fill="#333333" d="M240.078,520.178c0,0.953-0.351,1.709-1.051,2.266c-0.701,0.558-1.632,0.836-2.793,0.836
			c-1.396,0-2.466-0.154-3.211-0.461v-0.797c0.823,0.35,1.872,0.523,3.148,0.523c0.938,0,1.681-0.215,2.23-0.645
			c0.549-0.43,0.824-0.993,0.824-1.691c0-0.432-0.091-0.79-0.273-1.074c-0.183-0.283-0.479-0.543-0.891-0.777
			c-0.412-0.234-1.016-0.486-1.813-0.758c-1.167-0.4-1.973-0.834-2.418-1.301c-0.445-0.466-0.668-1.087-0.668-1.863
			c0-0.854,0.334-1.551,1.004-2.09c0.669-0.539,1.53-0.809,2.582-0.809c1.073,0,2.081,0.203,3.023,0.609l-0.289,0.688
			c-0.948-0.396-1.854-0.594-2.719-0.594c-0.844,0-1.516,0.195-2.016,0.586s-0.75,0.922-0.75,1.594c0,0.422,0.077,0.769,0.23,1.039
			c0.153,0.271,0.405,0.515,0.754,0.73c0.349,0.217,0.948,0.476,1.797,0.777c0.891,0.308,1.56,0.605,2.008,0.895
			c0.448,0.289,0.774,0.617,0.98,0.984C239.975,519.213,240.078,519.657,240.078,520.178z"/>
		<path fill="#333333" d="M252.093,517.396c0,1.813-0.453,3.246-1.359,4.301s-2.156,1.582-3.75,1.582
			c-1.589,0-2.836-0.527-3.742-1.582s-1.359-2.493-1.359-4.316c0-1.817,0.457-3.248,1.371-4.293
			c0.914-1.044,2.163-1.566,3.746-1.566c1.594,0,2.841,0.525,3.742,1.574C251.643,514.146,252.093,515.579,252.093,517.396z
			 M242.75,517.396c0,1.636,0.364,2.9,1.094,3.793c0.729,0.894,1.776,1.34,3.141,1.34c1.375,0,2.426-0.442,3.152-1.328
			c0.727-0.885,1.09-2.153,1.09-3.805c0-1.646-0.363-2.907-1.09-3.785c-0.727-0.877-1.772-1.316-3.137-1.316
			c-1.359,0-2.408,0.443-3.145,1.328C243.118,514.509,242.75,515.767,242.75,517.396z"/>
		<path fill="#333333" d="M263.117,511.701v7.391c0,1.313-0.38,2.339-1.141,3.078c-0.761,0.74-1.82,1.109-3.18,1.109
			c-1.323,0-2.355-0.371-3.098-1.113s-1.113-1.777-1.113-3.105v-7.359h0.805v7.391c0,1.1,0.305,1.955,0.914,2.566
			c0.609,0.612,1.471,0.918,2.586,0.918c1.088,0,1.932-0.301,2.531-0.902c0.599-0.602,0.898-1.436,0.898-2.504v-7.469H263.117z"/>
		<path fill="#333333" d="M269.203,523.123h-0.805v-10.672h-3.711v-0.75h8.227v0.75h-3.711V523.123z"/>
		<path fill="#333333" d="M282.882,523.123h-0.805v-5.617h-6.672v5.617h-0.797v-11.422h0.797v5.07h6.672v-5.07h0.805V523.123z"/>
		<path fill="#333333" d="M296.578,520.178c0,0.953-0.351,1.709-1.051,2.266c-0.701,0.558-1.632,0.836-2.793,0.836
			c-1.396,0-2.466-0.154-3.211-0.461v-0.797c0.823,0.35,1.872,0.523,3.148,0.523c0.938,0,1.681-0.215,2.23-0.645
			c0.549-0.43,0.824-0.993,0.824-1.691c0-0.432-0.091-0.79-0.273-1.074c-0.183-0.283-0.479-0.543-0.891-0.777
			c-0.412-0.234-1.016-0.486-1.813-0.758c-1.167-0.4-1.973-0.834-2.418-1.301c-0.445-0.466-0.668-1.087-0.668-1.863
			c0-0.854,0.334-1.551,1.004-2.09c0.669-0.539,1.53-0.809,2.582-0.809c1.073,0,2.081,0.203,3.023,0.609l-0.289,0.688
			c-0.948-0.396-1.854-0.594-2.719-0.594c-0.844,0-1.516,0.195-2.016,0.586s-0.75,0.922-0.75,1.594c0,0.422,0.077,0.769,0.23,1.039
			c0.153,0.271,0.405,0.515,0.754,0.73c0.349,0.217,0.948,0.476,1.797,0.777c0.891,0.308,1.56,0.605,2.008,0.895
			c0.448,0.289,0.774,0.617,0.98,0.984C296.475,519.213,296.578,519.657,296.578,520.178z"/>
		<path fill="#333333" d="M301.968,523.123h-0.805v-10.672h-3.711v-0.75h8.227v0.75h-3.711V523.123z"/>
		<path fill="#333333" d="M312.875,519.092h-4.641l-1.594,4.031h-0.883l4.594-11.469h0.508l4.5,11.469h-0.898L312.875,519.092z
			 M308.523,518.373h4.086l-1.555-4.117c-0.13-0.322-0.287-0.771-0.469-1.344c-0.141,0.5-0.294,0.953-0.461,1.359L308.523,518.373z"
			/>
		<path fill="#333333" d="M325.281,523.123h-0.805l-6.766-10.141h-0.063c0.063,1.209,0.094,2.12,0.094,2.734v7.406h-0.766v-11.422
			h0.797l6.758,10.125h0.047c-0.047-0.938-0.07-1.828-0.07-2.672v-7.453h0.773V523.123z"/>
		<path fill="#333333" d="M337.187,517.303c0,1.917-0.503,3.366-1.508,4.348c-1.005,0.982-2.482,1.473-4.43,1.473h-2.734v-11.422
			h3.086c1.823,0,3.209,0.477,4.16,1.43C336.711,514.084,337.187,515.475,337.187,517.303z M336.32,517.334
			c0-1.635-0.416-2.865-1.246-3.691c-0.831-0.825-2.051-1.238-3.66-1.238h-2.102v10.016h1.891
			C334.614,522.42,336.32,520.725,336.32,517.334z"/>
		<path fill="#333333" d="M350.273,520.178c0,0.953-0.352,1.709-1.051,2.266c-0.701,0.558-1.633,0.836-2.793,0.836
			c-1.396,0-2.467-0.154-3.211-0.461v-0.797c0.822,0.35,1.871,0.523,3.148,0.523c0.938,0,1.68-0.215,2.23-0.645
			c0.549-0.43,0.824-0.993,0.824-1.691c0-0.432-0.092-0.79-0.273-1.074c-0.184-0.283-0.48-0.543-0.891-0.777
			c-0.412-0.234-1.016-0.486-1.813-0.758c-1.168-0.4-1.973-0.834-2.418-1.301c-0.445-0.466-0.668-1.087-0.668-1.863
			c0-0.854,0.334-1.551,1.004-2.09c0.668-0.539,1.529-0.809,2.582-0.809c1.072,0,2.08,0.203,3.023,0.609l-0.289,0.688
			c-0.949-0.396-1.855-0.594-2.719-0.594c-0.844,0-1.516,0.195-2.016,0.586s-0.75,0.922-0.75,1.594c0,0.422,0.076,0.769,0.23,1.039
			c0.152,0.271,0.404,0.515,0.754,0.73c0.348,0.217,0.947,0.476,1.797,0.777c0.891,0.308,1.559,0.605,2.008,0.895
			c0.447,0.289,0.773,0.617,0.98,0.984C350.17,519.213,350.273,519.657,350.273,520.178z"/>
		<path fill="#333333" d="M358.93,523.123h-6.242v-11.422h6.242v0.734h-5.445v4.32h5.141v0.734h-5.141v4.898h5.445V523.123z"/>
		<path fill="#333333" d="M367.016,519.092h-4.641l-1.594,4.031h-0.883l4.594-11.469H365l4.5,11.469h-0.898L367.016,519.092z
			 M362.664,518.373h4.086l-1.555-4.117c-0.131-0.322-0.287-0.771-0.469-1.344c-0.141,0.5-0.295,0.953-0.461,1.359L362.664,518.373z
			"/>
		<path fill="#333333" d="M374.094,523.123h-0.805v-10.672h-3.711v-0.75h8.227v0.75h-3.711V523.123z"/>
		<path fill="#333333" d="M379.5,523.123v-11.422h0.797v11.422H379.5z"/>
		<path fill="#333333" d="M391.836,523.123h-0.805l-6.766-10.141h-0.063c0.063,1.209,0.094,2.12,0.094,2.734v7.406h-0.766v-11.422
			h0.797l6.758,10.125h0.047c-0.047-0.938-0.07-1.828-0.07-2.672v-7.453h0.773V523.123z"/>
		<path fill="#333333" d="M399.563,517.365h4.211v5.211c-1.105,0.469-2.348,0.703-3.727,0.703c-1.803,0-3.184-0.509-4.145-1.527
			c-0.961-1.018-1.441-2.459-1.441-4.324c0-1.161,0.238-2.191,0.715-3.09s1.158-1.592,2.047-2.082
			c0.887-0.489,1.906-0.734,3.059-0.734c1.244,0,2.361,0.229,3.352,0.688l-0.32,0.719c-0.99-0.458-2.016-0.688-3.078-0.688
			c-1.506,0-2.699,0.465-3.582,1.395s-1.324,2.184-1.324,3.762c0,1.719,0.418,3.012,1.258,3.879c0.838,0.867,2.07,1.301,3.695,1.301
			c1.051,0,1.945-0.148,2.68-0.445v-4.016h-3.398V517.365z"/>
	</g>
</g>
<g id="LABELS">
	<text fid="WS-WT" transform="matrix(0 -1 1 0 97.728 345.749)" fill="#F2F2F2" font-family="'Arial'" font-size="14">WESTERN TERRACE</text>
	<text fid="SS-SS" transform="matrix(1 0 0 1 233.7305 416.7637)" fill="#F2F2F2" font-family="'Arial'" font-size="14">SOUTH STAND TERRACE</text>
	<text fid="CT1-CT3" transform="matrix(0 1 -1 0 491.4063 369.3398)" fill="#F2F2F2" font-family="'Arial'" font-size="9">CT3</text>
	<text fid="SSW-ST2" transform="matrix(1 0 0 1 381.0449 397.0947)" fill="#F2F2F2" font-family="'Arial'" font-size="9">ST2</text>
	<text fid="SSW-ST1" transform="matrix(1 0 0 1 228.7871 397.0947)" fill="#F2F2F2" font-family="'Arial'" font-size="9">ST1</text>
	<text fid="SSU-E" transform="matrix(1 0 0 1 260.748 495.2119)" fill="#F2F2F2" font-family="'Arial'" font-size="9">E</text>
	<text fid="SSU-D" transform="matrix(1 0 0 1 308.9189 495.2119)" fill="#F2F2F2" font-family="'Arial'" font-size="9">D</text>
	<text transform="matrix(1 0 0 1 296.9131 469.9619)" fill="#FFFFFF" font-family="'Arial'" font-size="9">PRESS</text>
	<text fid="SSW-SS3" transform="matrix(1 0 0 1 304.6084 455.4346)" fill="#F2F2F2" font-family="'Arial'" font-size="9">SS3</text>
	<text fid="SSU-C" transform="matrix(1 0 0 1 357.3379 495.2119)" fill="#F2F2F2" font-family="'Arial'" font-size="9">C</text>
	<g>
		<path fill="#F2F2F2" d="M180.363,468.135v4.157c0,0.732-0.221,1.309-0.663,1.727c-0.442,0.42-1.05,0.629-1.823,0.629
			s-1.372-0.211-1.796-0.633c-0.423-0.422-0.635-1.002-0.635-1.74v-4.14h0.747v4.192c0,0.536,0.146,0.948,0.439,1.234
			c0.293,0.288,0.724,0.432,1.292,0.432c0.542,0,0.959-0.145,1.253-0.434c0.292-0.288,0.439-0.702,0.439-1.241v-4.184H180.363z"/>
		<path fill="#F2F2F2" d="M187.083,474.56h-0.854l-3.511-5.393h-0.035c0.047,0.633,0.07,1.213,0.07,1.74v3.652h-0.69v-6.425h0.844
			l3.503,5.37h0.035c-0.006-0.079-0.02-0.333-0.04-0.763c-0.021-0.429-0.027-0.735-0.021-0.921v-3.687h0.699V474.56z"/>
		<path fill="#F2F2F2" d="M189.597,471.888v2.672h-0.748v-6.425h1.763c0.788,0,1.37,0.151,1.747,0.452
			c0.376,0.303,0.564,0.756,0.564,1.363c0,0.85-0.431,1.424-1.292,1.723l1.745,2.887h-0.884l-1.556-2.672H189.597z M189.597,471.246
			h1.023c0.527,0,0.914-0.104,1.16-0.314c0.246-0.209,0.369-0.523,0.369-0.942c0-0.425-0.125-0.73-0.376-0.918
			c-0.25-0.188-0.652-0.281-1.206-0.281h-0.971V471.246z"/>
		<path fill="#F2F2F2" d="M197.995,474.56h-3.582v-6.425h3.582v0.663h-2.834v2.07h2.662v0.659h-2.662v2.364h2.834V474.56z"/>
		<path fill="#F2F2F2" d="M203.044,472.851c0,0.565-0.205,1.006-0.615,1.322s-0.967,0.475-1.67,0.475
			c-0.762,0-1.348-0.098-1.758-0.295v-0.721c0.264,0.112,0.551,0.2,0.861,0.264c0.311,0.065,0.618,0.098,0.923,0.098
			c0.498,0,0.873-0.095,1.125-0.284c0.252-0.188,0.378-0.451,0.378-0.788c0-0.223-0.045-0.405-0.134-0.548
			c-0.09-0.142-0.239-0.272-0.448-0.394c-0.21-0.119-0.528-0.256-0.956-0.408c-0.598-0.214-1.024-0.467-1.281-0.76
			c-0.256-0.293-0.385-0.676-0.385-1.147c0-0.495,0.187-0.889,0.559-1.183c0.372-0.292,0.864-0.439,1.477-0.439
			c0.639,0,1.227,0.118,1.762,0.352l-0.232,0.65c-0.53-0.222-1.046-0.334-1.547-0.334c-0.396,0-0.705,0.086-0.928,0.256
			s-0.334,0.405-0.334,0.707c0,0.223,0.041,0.405,0.123,0.547c0.082,0.143,0.221,0.272,0.416,0.392
			c0.194,0.118,0.492,0.25,0.895,0.394c0.673,0.24,1.137,0.498,1.391,0.773C202.917,472.054,203.044,472.411,203.044,472.851z"/>
		<path fill="#F2F2F2" d="M207.939,474.56h-3.582v-6.425h3.582v0.663h-2.834v2.07h2.662v0.659h-2.662v2.364h2.834V474.56z"/>
		<path fill="#F2F2F2" d="M210.11,471.888v2.672h-0.748v-6.425h1.763c0.788,0,1.37,0.151,1.747,0.452
			c0.376,0.303,0.564,0.756,0.564,1.363c0,0.85-0.431,1.424-1.292,1.723l1.745,2.887h-0.884l-1.556-2.672H210.11z M210.11,471.246
			h1.023c0.527,0,0.914-0.104,1.16-0.314c0.246-0.209,0.369-0.523,0.369-0.942c0-0.425-0.125-0.73-0.376-0.918
			c-0.25-0.188-0.652-0.281-1.206-0.281h-0.971V471.246z"/>
		<path fill="#F2F2F2" d="M218.597,468.135h0.805l-2.316,6.425h-0.738l-2.303-6.425h0.791l1.477,4.157
			c0.17,0.478,0.305,0.942,0.404,1.393c0.105-0.475,0.243-0.947,0.413-1.419L218.597,468.135z"/>
		<path fill="#F2F2F2" d="M223.865,474.56h-3.582v-6.425h3.582v0.663h-2.834v2.07h2.662v0.659h-2.662v2.364h2.834V474.56z"/>
		<path fill="#F2F2F2" d="M230.417,471.286c0,1.061-0.288,1.871-0.863,2.432c-0.576,0.562-1.404,0.842-2.485,0.842h-1.78v-6.425
			h1.969c0.999,0,1.775,0.276,2.33,0.831C230.14,469.519,230.417,470.292,230.417,471.286z M229.626,471.312
			c0-0.837-0.21-1.469-0.631-1.894c-0.42-0.425-1.045-0.638-1.874-0.638h-1.085v5.133h0.909c0.891,0,1.56-0.219,2.009-0.656
			C229.401,472.818,229.626,472.171,229.626,471.312z"/>
		<path fill="#F2F2F2" d="M189.074,483.17c0,0.565-0.205,1.006-0.615,1.322s-0.967,0.475-1.67,0.475
			c-0.762,0-1.348-0.098-1.758-0.295v-0.721c0.264,0.112,0.551,0.2,0.861,0.264c0.311,0.065,0.618,0.098,0.923,0.098
			c0.498,0,0.873-0.095,1.125-0.284c0.252-0.188,0.378-0.451,0.378-0.788c0-0.223-0.045-0.405-0.134-0.548
			c-0.09-0.142-0.239-0.272-0.448-0.394c-0.21-0.119-0.528-0.256-0.956-0.408c-0.598-0.214-1.024-0.467-1.281-0.76
			c-0.256-0.293-0.385-0.676-0.385-1.147c0-0.495,0.187-0.889,0.559-1.183c0.372-0.292,0.864-0.439,1.477-0.439
			c0.639,0,1.227,0.118,1.762,0.352l-0.232,0.65c-0.53-0.222-1.046-0.334-1.547-0.334c-0.396,0-0.705,0.086-0.928,0.256
			s-0.334,0.405-0.334,0.707c0,0.223,0.041,0.405,0.123,0.547c0.082,0.143,0.221,0.272,0.416,0.392
			c0.194,0.118,0.492,0.25,0.895,0.394c0.673,0.24,1.137,0.498,1.391,0.773C188.947,482.373,189.074,482.73,189.074,483.17z"/>
		<path fill="#F2F2F2" d="M193.97,484.879h-3.582v-6.425h3.582v0.663h-2.834v2.07h2.662v0.659h-2.662v2.364h2.834V484.879z"/>
		<path fill="#F2F2F2" d="M199.433,484.879l-0.8-2.043h-2.575l-0.791,2.043h-0.756l2.54-6.451h0.628l2.527,6.451H199.433z
			 M198.399,482.163l-0.746-1.991c-0.098-0.251-0.197-0.561-0.299-0.927c-0.065,0.281-0.157,0.591-0.277,0.927l-0.756,1.991H198.399
			z"/>
		<path fill="#F2F2F2" d="M203.067,484.879h-0.748v-5.762h-2.034v-0.663h4.816v0.663h-2.034V484.879z"/>
		<path fill="#F2F2F2" d="M206.067,484.879v-6.425h0.748v6.425H206.067z"/>
		<path fill="#F2F2F2" d="M213.597,484.879h-0.854l-3.511-5.393h-0.035c0.047,0.633,0.07,1.213,0.07,1.74v3.652h-0.69v-6.425h0.844
			l3.503,5.37h0.035c-0.006-0.079-0.02-0.333-0.04-0.763c-0.021-0.429-0.027-0.735-0.021-0.921v-3.687h0.699V484.879z"/>
		<path fill="#F2F2F2" d="M218.188,481.513h2.184v3.124c-0.34,0.109-0.686,0.191-1.037,0.246c-0.352,0.056-0.759,0.084-1.221,0.084
			c-0.974,0-1.73-0.289-2.272-0.868c-0.542-0.578-0.813-1.389-0.813-2.433c0-0.668,0.135-1.253,0.402-1.755
			c0.269-0.503,0.654-0.887,1.158-1.151c0.504-0.266,1.094-0.398,1.771-0.398c0.686,0,1.323,0.127,1.916,0.379l-0.291,0.658
			c-0.58-0.246-1.138-0.369-1.674-0.369c-0.782,0-1.393,0.233-1.832,0.699s-0.66,1.111-0.66,1.938c0,0.868,0.212,1.525,0.636,1.974
			c0.423,0.448,1.045,0.673,1.865,0.673c0.445,0,0.88-0.052,1.306-0.154v-1.978h-1.438V481.513z"/>
	</g>
	<g>
		<path fill="#F2F2F2" d="M388.136,468.135v4.157c0,0.732-0.221,1.309-0.663,1.727c-0.442,0.42-1.05,0.629-1.823,0.629
			s-1.372-0.211-1.796-0.633c-0.423-0.422-0.635-1.002-0.635-1.74v-4.14h0.747v4.192c0,0.536,0.146,0.948,0.439,1.234
			c0.293,0.288,0.724,0.432,1.292,0.432c0.542,0,0.959-0.145,1.253-0.434c0.292-0.288,0.439-0.702,0.439-1.241v-4.184H388.136z"/>
		<path fill="#F2F2F2" d="M394.855,474.56h-0.854l-3.511-5.393h-0.035c0.047,0.633,0.07,1.213,0.07,1.74v3.652h-0.69v-6.425h0.844
			l3.503,5.37h0.035c-0.006-0.079-0.02-0.333-0.04-0.763c-0.021-0.429-0.027-0.735-0.021-0.921v-3.687h0.699V474.56z"/>
		<path fill="#F2F2F2" d="M397.369,471.888v2.672h-0.748v-6.425h1.763c0.788,0,1.37,0.151,1.747,0.452
			c0.376,0.303,0.564,0.756,0.564,1.363c0,0.85-0.431,1.424-1.292,1.723l1.745,2.887h-0.884l-1.556-2.672H397.369z M397.369,471.246
			h1.023c0.527,0,0.914-0.104,1.16-0.314c0.246-0.209,0.369-0.523,0.369-0.942c0-0.425-0.125-0.73-0.376-0.918
			c-0.25-0.188-0.652-0.281-1.206-0.281h-0.971V471.246z"/>
		<path fill="#F2F2F2" d="M405.768,474.56h-3.582v-6.425h3.582v0.663h-2.834v2.07h2.662v0.659h-2.662v2.364h2.834V474.56z"/>
		<path fill="#F2F2F2" d="M410.816,472.851c0,0.565-0.205,1.006-0.615,1.322s-0.967,0.475-1.67,0.475
			c-0.762,0-1.348-0.098-1.758-0.295v-0.721c0.264,0.112,0.551,0.2,0.861,0.264c0.311,0.065,0.618,0.098,0.923,0.098
			c0.498,0,0.873-0.095,1.125-0.284c0.252-0.188,0.378-0.451,0.378-0.788c0-0.223-0.045-0.405-0.134-0.548
			c-0.09-0.142-0.239-0.272-0.448-0.394c-0.21-0.119-0.528-0.256-0.956-0.408c-0.598-0.214-1.024-0.467-1.281-0.76
			c-0.256-0.293-0.385-0.676-0.385-1.147c0-0.495,0.187-0.889,0.559-1.183c0.372-0.292,0.864-0.439,1.477-0.439
			c0.639,0,1.227,0.118,1.762,0.352l-0.232,0.65c-0.53-0.222-1.046-0.334-1.547-0.334c-0.396,0-0.705,0.086-0.928,0.256
			s-0.334,0.405-0.334,0.707c0,0.223,0.041,0.405,0.123,0.547c0.082,0.143,0.221,0.272,0.416,0.392
			c0.194,0.118,0.492,0.25,0.895,0.394c0.673,0.24,1.137,0.498,1.391,0.773C410.689,472.054,410.816,472.411,410.816,472.851z"/>
		<path fill="#F2F2F2" d="M415.712,474.56h-3.582v-6.425h3.582v0.663h-2.834v2.07h2.662v0.659h-2.662v2.364h2.834V474.56z"/>
		<path fill="#F2F2F2" d="M417.883,471.888v2.672h-0.748v-6.425h1.763c0.788,0,1.37,0.151,1.747,0.452
			c0.376,0.303,0.564,0.756,0.564,1.363c0,0.85-0.431,1.424-1.292,1.723l1.745,2.887h-0.884l-1.556-2.672H417.883z M417.883,471.246
			h1.023c0.527,0,0.914-0.104,1.16-0.314c0.246-0.209,0.369-0.523,0.369-0.942c0-0.425-0.125-0.73-0.376-0.918
			c-0.25-0.188-0.652-0.281-1.206-0.281h-0.971V471.246z"/>
		<path fill="#F2F2F2" d="M426.369,468.135h0.805l-2.316,6.425h-0.738l-2.303-6.425h0.791l1.477,4.157
			c0.17,0.478,0.305,0.942,0.404,1.393c0.105-0.475,0.243-0.947,0.413-1.419L426.369,468.135z"/>
		<path fill="#F2F2F2" d="M431.638,474.56h-3.582v-6.425h3.582v0.663h-2.834v2.07h2.662v0.659h-2.662v2.364h2.834V474.56z"/>
		<path fill="#F2F2F2" d="M438.189,471.286c0,1.061-0.288,1.871-0.863,2.432c-0.576,0.562-1.404,0.842-2.485,0.842h-1.78v-6.425
			h1.969c0.999,0,1.775,0.276,2.33,0.831C437.912,469.519,438.189,470.292,438.189,471.286z M437.398,471.312
			c0-0.837-0.21-1.469-0.631-1.894c-0.42-0.425-1.045-0.638-1.874-0.638h-1.085v5.133h0.909c0.891,0,1.56-0.219,2.009-0.656
			C437.174,472.818,437.398,472.171,437.398,471.312z"/>
		<path fill="#F2F2F2" d="M396.847,483.17c0,0.565-0.205,1.006-0.615,1.322s-0.967,0.475-1.67,0.475
			c-0.762,0-1.348-0.098-1.758-0.295v-0.721c0.264,0.112,0.551,0.2,0.861,0.264c0.311,0.065,0.618,0.098,0.923,0.098
			c0.498,0,0.873-0.095,1.125-0.284c0.252-0.188,0.378-0.451,0.378-0.788c0-0.223-0.045-0.405-0.134-0.548
			c-0.09-0.142-0.239-0.272-0.448-0.394c-0.21-0.119-0.528-0.256-0.956-0.408c-0.598-0.214-1.024-0.467-1.281-0.76
			c-0.256-0.293-0.385-0.676-0.385-1.147c0-0.495,0.187-0.889,0.559-1.183c0.372-0.292,0.864-0.439,1.477-0.439
			c0.639,0,1.227,0.118,1.762,0.352l-0.232,0.65c-0.53-0.222-1.046-0.334-1.547-0.334c-0.396,0-0.705,0.086-0.928,0.256
			s-0.334,0.405-0.334,0.707c0,0.223,0.041,0.405,0.123,0.547c0.082,0.143,0.221,0.272,0.416,0.392
			c0.194,0.118,0.492,0.25,0.895,0.394c0.673,0.24,1.137,0.498,1.391,0.773C396.72,482.373,396.847,482.73,396.847,483.17z"/>
		<path fill="#F2F2F2" d="M401.742,484.879h-3.582v-6.425h3.582v0.663h-2.834v2.07h2.662v0.659h-2.662v2.364h2.834V484.879z"/>
		<path fill="#F2F2F2" d="M407.205,484.879l-0.8-2.043h-2.575l-0.791,2.043h-0.756l2.54-6.451h0.628l2.527,6.451H407.205z
			 M406.172,482.163l-0.746-1.991c-0.098-0.251-0.197-0.561-0.299-0.927c-0.065,0.281-0.157,0.591-0.277,0.927l-0.756,1.991H406.172
			z"/>
		<path fill="#F2F2F2" d="M410.84,484.879h-0.748v-5.762h-2.034v-0.663h4.816v0.663h-2.034V484.879z"/>
		<path fill="#F2F2F2" d="M413.84,484.879v-6.425h0.748v6.425H413.84z"/>
		<path fill="#F2F2F2" d="M421.369,484.879h-0.854l-3.511-5.393h-0.035c0.047,0.633,0.07,1.213,0.07,1.74v3.652h-0.69v-6.425h0.844
			l3.503,5.37h0.035c-0.006-0.079-0.02-0.333-0.04-0.763c-0.021-0.429-0.027-0.735-0.021-0.921v-3.687h0.699V484.879z"/>
		<path fill="#F2F2F2" d="M425.961,481.513h2.184v3.124c-0.34,0.109-0.686,0.191-1.037,0.246c-0.352,0.056-0.759,0.084-1.221,0.084
			c-0.974,0-1.73-0.289-2.272-0.868c-0.542-0.578-0.813-1.389-0.813-2.433c0-0.668,0.135-1.253,0.402-1.755
			c0.269-0.503,0.654-0.887,1.158-1.151c0.504-0.266,1.094-0.398,1.771-0.398c0.686,0,1.323,0.127,1.916,0.379l-0.291,0.658
			c-0.58-0.246-1.138-0.369-1.674-0.369c-0.782,0-1.393,0.233-1.832,0.699s-0.66,1.111-0.66,1.938c0,0.868,0.212,1.525,0.636,1.974
			c0.423,0.448,1.045,0.673,1.865,0.673c0.445,0,0.88-0.052,1.306-0.154v-1.978h-1.438V481.513z"/>
	</g>
	<text fid="CT1-CT2" transform="matrix(0 1 -1 0 491.4063 315.1616)" fill="#F2F2F2" font-family="'Arial'" font-size="9">CT2</text>
	<text fid="CT1-CT1" transform="matrix(0 1 -1 0 491.4063 236.043)" fill="#F2F2F2" font-family="'Arial'" font-size="9">CT1</text>
	<text fid="ESL-CT" transform="matrix(0 1 -1 0 523.8213 215.1411)" fill="#F2F2F2" font-family="'Arial'" font-size="14">CARNEGIE TERRACE</text>
	<text fid="ESU-N" transform="matrix(1 0 0 1 597.8779 357.2656)" fill="#F2F2F2" font-family="'Arial'" font-size="14">N</text>
	<text fid="ESU-M" transform="matrix(1 0 0 1 597.1152 327.2236)" fill="#F2F2F2" font-family="'Arial'" font-size="14">M</text>
	<text fid="ESU-L" transform="matrix(1 0 0 1 599.2695 286.5073)" fill="#F2F2F2" font-family="'Arial'" font-size="14">L</text>
	<text fid="ESU-K" transform="matrix(1 0 0 1 598.2578 240.3267)" fill="#F2F2F2" font-family="'Arial'" font-size="14">K</text>
	<text fid="ESU-J" transform="matrix(1 0 0 1 599.4072 202.0908)" fill="#F2F2F2" font-family="'Arial'" font-size="14">J</text>
	
	<text fid="CT1-CS5" transform="matrix(0 1 -1 0 568.2881 344.8428)" fill="#F2F2F2" font-family="'Arial'" font-size="9">CS5</text>
	<text fid="CT1-CS4" transform="matrix(0 1 -1 0 568.2881 189.6675)" fill="#F2F2F2" font-family="'Arial'" font-size="9">CS4</text>
	<rect x="247.04" y="448.274" fill="none" width="33.419" height="2.149"/>
	<rect x="247.04" y="503.742" fill="none" width="33.419" height="18.114"/>
	<rect x="343.879" y="448.274" fill="none" width="33.419" height="2.149"/>
	<rect x="343.879" y="503.742" fill="none" width="33.419" height="18.114"/>
	<rect x="295.194" y="447.283" fill="none" width="33.949" height="3.141"/>
</g>
</svg>
