<svg>
<g id="AREAS">
	<path stroke-width="0" id="GB2-2BL" fill="#5E4293" d="M264.181,33.191l25.826-10.126l2.425,7.483l9.94-2.911v7.882c0,0-14.427,4.849-15.52,5.094
		c-1.089,0.242-11.761,4.848-13.095,5.333c-1.333,0.486-4.241,1.938-13.579,6.669c-9.335,4.728-17.218,10.955-17.218,10.955
		l-4.394-6.104l3.91-2.184l-4.958-6.669l5.201-3.76l-4.153-6.425l22.462-12.048l2.544,6.81"/>
	<polyline stroke-width="0" id="GB2-2CL" fill="#4DAD33" points="302.374,37.945 302.374,50.07 304.568,61.224 288.792,67.064 275.582,72.745 
		263.087,80.381 253.629,86.199 243.322,94.651 238.596,88.505 242.716,84.868 238.596,78.563 243.081,75.045 238.596,68.379 
		251.204,60.43 262.36,53.797 272.424,48.734 280.912,45.34 289.277,41.945 296.554,39.399 	"/>
	<polygon stroke-width="0" id="GB2-2FL" fill="#FDC20B" points="243.566,117.12 238.595,111.907 243.566,106.693 238.568,100.993 250.841,90.931 
		262.726,83.292 274.729,76.138 287.701,70.078 297.645,66.296 304.567,63.573 306.737,71.773 309.527,79.17 312.597,88.021 
		295.461,93.963 284.426,99.66 273.274,106.453 263.938,112.998 255.813,119.426 245.507,129.222 238.595,122.94 	"/>
	<polygon stroke-width="0" id="GB2-2BC" fill="#5E4293" points="477.61,25.335 479.138,33.192 456.025,29.264 439.659,27.396 422.199,27.396 
		407.406,27.274 389.341,28.852 377.338,30.306 363.902,32.61 365.998,25.335 381.218,22.305 395.039,21.212 409.589,20 426.078,20 
		444.511,20.607 464.758,22.545 	"/>
	<polygon stroke-width="0" id="GB2-2CC" fill="#4DAD33" points="366.061,57.708 363.902,45.219 363.902,34.43 379.155,31.763 392.25,30.306 
		406.191,29.214 422.319,28.654 437.837,29.337 451.541,30.549 463.907,31.883 479.138,34.43 479.138,44.977 477.041,57.708 
		455.057,53.708 424.743,51.889 391.645,53.583 378.427,55.161 	"/>
	<polygon stroke-width="0" id="GB2-2FC" fill="#FDC20B" points="433.474,61.831 409.59,61.831 392.128,62.922 375.761,65.47 368.442,67.064 
		365.997,59.892 383.642,56.498 397.103,55.161 410.678,54.435 420.864,53.796 437.353,54.677 450.69,55.406 461.967,56.981 
		477.041,59.77 474.599,67.064 462.332,64.376 452.388,62.922 442.69,61.953 	"/>
	<polygon stroke-width="0" id="GB2-2TC" fill="#2B4B9B" points="369.21,68.744 398.311,64.621 429.593,63.572 456.025,66.158 474.599,68.744 
		468.636,85.571 442.932,81.233 423.773,80.141 405.101,80.748 391.762,82.203 374.545,84.992 	"/>
	<polygon stroke-width="0" id="GB2-2BR" fill="#5E4293" points="553.544,23.415 578.521,33.822 582.159,26.381 604.472,38.552 600.347,44.857 
		605.521,48.373 601.315,55.04 604.472,57.347 600.104,63.409 583.008,53.796 570.517,47.04 557.178,41.46 549.178,38.552 
		540.57,36.127 540.57,28.001 550.269,30.549 	"/>
	<path stroke-width="0" id="GB2-2CR" fill="#4DAD33" d="M538.473,61.589c0,0,1.492-4.486,2.098-11.277c0.608-6.79,0-12.929,0-12.929l11.521,3.836
		l16.126,6.305c0,0,12.852,5.632,13.094,6.274c0.242,0.636,6.186,3.061,12.367,7.185c6.184,4.124,10.305,7.154,10.305,7.154
		l-4.121,6.261l4.609,4.046l-4.005,6.063v1.066l4.005,3.054c0,0-4.124,6.026-4.731,6.026c-0.604,0-8.243-6.388-8.243-6.388
		l-7.278-5.214l-9.211-5.7l-11.157-5.698l-12.12-5.632L538.473,61.589z"/>
	<polygon stroke-width="0" id="GB2-2FR" fill="#FDC20B" points="567.458,104.753 551.842,96.396 530.442,88.262 534.751,75.167 538.473,63.572 
		555.606,70.198 574.396,79.291 589.432,89.353 604.471,100.993 599.619,106.571 600.1,107.785 604.471,112.027 598.767,117.24 
		604.471,122.578 598.037,129.222 588.22,120.028 578.762,112.634 	"/>
	<path stroke-width="0" id="GB1-1BL" fill="#4DAD33" d="M279.215,136.248l10.426-3.272l9.215-2.795l1.577,7.282l1.688,8.122l-6.298,1.579
		l-7.517,2.226l-7.032,2.622l-7.396,3.442l-10.064,3.592l-8.003,4.242l-9.215,5.306l-3.879-6.88l1.818-1.456l-3.874-6.428
		l21.939-11.518l3.881,7.077l7.761-2.711l7.032-3.226L279.215,136.248z M251.651,141.737l0.91,1.821
		c-0.345,1.066-0.97,1.929-1.875,2.59c-0.904,0.66-1.913,0.99-3.025,0.99c-0.93,0-1.788-0.23-2.576-0.691
		c-0.789-0.461-1.414-1.086-1.875-1.875c-0.462-0.789-0.692-1.647-0.692-2.576c0-1.077,0.312-2.059,0.933-2.946
		c0.623-0.887,1.439-1.515,2.451-1.884l0.152,1.17c-0.727,0.321-1.307,0.814-1.742,1.478c-0.434,0.663-0.65,1.392-0.65,2.183
		c0,1.102,0.391,2.043,1.174,2.826c0.782,0.783,1.725,1.174,2.826,1.174c0.75,0,1.441-0.193,2.075-0.58s1.125-0.909,1.474-1.566
		C251.557,143.191,251.705,142.487,251.651,141.737z M256.543,142.63l0.518,1.018l-2.285,1.143
		c-0.077,0.041-0.164,0.063-0.259,0.063c-0.238,0-0.407-0.104-0.509-0.313l-2.135-4.259h-4.213c-0.144,0-0.27-0.05-0.381-0.147
		c-0.109-0.098-0.174-0.219-0.191-0.361l-0.857-6.955c-0.012-0.096,0.006-0.221,0.055-0.375c0.082-0.305,0.252-0.55,0.508-0.737
		s0.545-0.281,0.867-0.281c0.393,0,0.729,0.14,1.008,0.42c0.28,0.28,0.42,0.616,0.42,1.009c0,0.41-0.154,0.76-0.465,1.049
		c-0.309,0.289-0.666,0.412-1.07,0.371l0.33,2.58h3.777v1.143h-3.635l0.143,1.143h4.063c0.238,0,0.408,0.105,0.51,0.313l2.035,4.063
		L256.543,142.63z M288.899,127.157l0.91,1.821c-0.345,1.066-0.97,1.929-1.875,2.59c-0.904,0.66-1.913,0.99-3.025,0.99
		c-0.93,0-1.788-0.23-2.576-0.691c-0.789-0.461-1.414-1.086-1.875-1.875c-0.462-0.789-0.692-1.647-0.692-2.576
		c0-1.077,0.312-2.059,0.933-2.946c0.623-0.887,1.439-1.515,2.451-1.884l0.152,1.17c-0.727,0.321-1.307,0.814-1.742,1.478
		c-0.434,0.663-0.65,1.392-0.65,2.183c0,1.102,0.391,2.043,1.174,2.826c0.782,0.783,1.725,1.174,2.826,1.174
		c0.75,0,1.441-0.193,2.075-0.58s1.125-0.909,1.474-1.566C288.806,128.611,288.953,127.907,288.899,127.157z M293.792,128.05
		l0.518,1.018l-2.285,1.143c-0.077,0.041-0.164,0.063-0.259,0.063c-0.238,0-0.407-0.104-0.509-0.313l-2.135-4.259h-4.213
		c-0.144,0-0.27-0.05-0.381-0.147c-0.109-0.098-0.174-0.219-0.191-0.361l-0.857-6.955c-0.012-0.096,0.006-0.221,0.055-0.375
		c0.082-0.305,0.252-0.55,0.508-0.737s0.545-0.281,0.867-0.281c0.393,0,0.729,0.14,1.008,0.42c0.28,0.28,0.42,0.616,0.42,1.009
		c0,0.41-0.154,0.76-0.465,1.049c-0.309,0.289-0.666,0.412-1.07,0.371l0.33,2.58h3.777v1.143h-3.635l0.143,1.143h4.063
		c0.238,0,0.408,0.105,0.51,0.313l2.035,4.063L293.792,128.05z"/>
	<polygon stroke-width="0" id="GB1-1CL" fill="#FDC20B" points="242.234,173.11 246.718,179.658 238.917,184.871 243.324,191.54 238.917,195.057 
		243.565,201.361 238.917,205.259 243.689,211.546 238.917,215.546 243.809,221.854 238.917,226.458 244.172,232.496 
		251.571,225.124 261.268,217.973 270.363,212.03 280.547,206.333 292.188,200.879 305.264,196.269 303.099,184.873 
		302.614,176.021 302.857,166.685 303.219,157.228 302.123,147.526 292.913,150.316 283.82,152.862 275.819,156.136 267.329,159.41 
		257.389,164.139 249.023,169.351 	"/>
	<path stroke-width="0" id="GB1-1FL" fill="#2B4B9B" d="M244.778,269.989l-6.21-5.702l5.485-6.668l-5.137-5.091l5.137-6.55l-5.137-5.694
		l12.287-11.033l12.004-9.338l13.248-8.61l14.639-6.668l14.171-5.486l3.776,14.703l3.098,9.067
		C312.138,222.919,267.605,245.008,244.778,269.989"/>
	<polygon stroke-width="0" id="GB1-1TL" fill="#E52620" points="244.778,270.715 238.568,279.447 244.778,284.206 255.511,270.471 270.517,255.74 
		286.157,244.375 300.797,235.735 314.343,230.096 312.138,223.647 297.717,231.208 281.61,241.188 263.786,253.738 	"/>
	<polygon stroke-width="0" id="GB1-1BCL" fill="#4DAD33" points="363.553,127.276 361.209,119.881 375.638,116.849 389.582,114.818 390.188,126.429 
		392.538,138.563 379.52,140.492 364.362,143.452 360.408,128.245 	"/>
	<polygon stroke-width="0" id="GB1-1CC" fill="#FDC20B" points="449.842,188.629 425.713,186.568 403.645,187.055 387.52,189.721 366.349,194.085 
		364.484,181.475 364.484,166.323 363.553,145.466 386.551,140.98 408.618,139.281 437.595,139.281 459.421,141.465 
		479.138,145.586 477.737,162.805 479.138,177.96 476.343,194.085 464.271,191.296 	"/>
	<polygon stroke-width="0" id="GB1-1FC" fill="#2B4B9B" points="453.235,206.454 432.744,203.908 416.373,203.421 396.369,204.937 380.609,207.907 
		370.888,210.495 366.347,195.54 377.697,192.752 393.823,190.418 408.738,188.628 422.802,187.8 434.322,188.75 446.567,189.6 
		456.389,191.176 467.18,193.237 476.343,195.663 472.151,210.495 	"/>
	<polygon stroke-width="0" id="GB1-1TC" fill="#E52620" points="440.387,221.729 421.52,220.517 397.951,221.729 376.852,227.256 370.886,212.758 
		391.402,208.149 415.41,205.258 454.45,208.392 472.151,212.028 466.578,227.256 	"/>
	<polygon stroke-width="0" id="GB1-1BCR" fill="#4DAD33" points="479.67,127.52 481.73,120.123 468.394,117.576 453.36,115.167 452.751,127.52 
		450.854,139.281 464.758,140.734 479.138,143.452 482.629,128.489 	"/>
	<path stroke-width="0" id="GB1-1BR" fill="#4DAD33" d="M576.822,150.085l3.639-6.804l21.917,11.518l-4.093,6.669l2.062,1.576l-4.124,6.247
		l-7.639-4.792l-6.667-3.273l-8.126-3.639l-9.941-3.88l-11.466-4.242l-11.463-3.759l1.71-7.144l1.818-7.684l19.4,6.097l-2.424,7.174
		C561.426,144.151,576.907,150,576.822,150.085 M556.293,130.214c0.348,0.657,0.84,1.18,1.473,1.566
		c0.635,0.387,1.326,0.58,2.076,0.58c1.102,0,2.043-0.391,2.826-1.174s1.174-1.725,1.174-2.826c0-0.791-0.217-1.52-0.65-2.183
		c-0.436-0.663-1.016-1.156-1.742-1.478l0.152-1.17c1.012,0.369,1.828,0.997,2.451,1.884c0.621,0.888,0.932,1.869,0.932,2.946
		c0,0.929-0.23,1.787-0.691,2.576s-1.086,1.414-1.875,1.875s-1.646,0.691-2.576,0.691c-1.113,0-2.121-0.33-3.025-0.99
		c-0.906-0.661-1.531-1.523-1.875-2.59l0.91-1.821C555.797,128.852,555.945,129.556,556.293,130.214z M552.727,129.878l2.035-4.063
		c0.102-0.207,0.271-0.313,0.51-0.313h4.063l0.143-1.143h-3.635v-1.143h3.777l0.33-2.58c-0.404,0.041-0.762-0.082-1.07-0.371
		c-0.311-0.289-0.465-0.639-0.465-1.049c0-0.393,0.139-0.729,0.42-1.009c0.279-0.28,0.615-0.42,1.008-0.42
		c0.322,0,0.611,0.094,0.867,0.281s0.426,0.433,0.508,0.737c0.049,0.154,0.066,0.279,0.055,0.375l-0.857,6.955
		c-0.018,0.143-0.082,0.264-0.191,0.361c-0.111,0.098-0.238,0.147-0.381,0.147h-4.213l-2.135,4.259
		c-0.102,0.209-0.271,0.313-0.51,0.313c-0.094,0-0.182-0.021-0.258-0.063l-2.285-1.143l0.518-1.018L552.727,129.878z
		 M593.687,144.942c0.348,0.657,0.84,1.18,1.473,1.566c0.635,0.387,1.326,0.58,2.076,0.58c1.102,0,2.043-0.391,2.826-1.174
		s1.174-1.725,1.174-2.826c0-0.791-0.217-1.52-0.65-2.183c-0.436-0.663-1.016-1.156-1.742-1.478l0.152-1.17
		c1.012,0.369,1.828,0.997,2.451,1.884c0.621,0.888,0.932,1.869,0.932,2.946c0,0.929-0.23,1.787-0.691,2.576
		s-1.086,1.414-1.875,1.875s-1.646,0.691-2.576,0.691c-1.113,0-2.121-0.33-3.025-0.99c-0.906-0.661-1.531-1.523-1.875-2.59
		l0.91-1.821C593.19,143.58,593.339,144.284,593.687,144.942z M590.12,144.606l2.035-4.063c0.102-0.207,0.271-0.313,0.51-0.313
		h4.063l0.143-1.143h-3.635v-1.143h3.777l0.33-2.58c-0.404,0.041-0.762-0.082-1.07-0.371c-0.311-0.289-0.465-0.639-0.465-1.049
		c0-0.393,0.139-0.729,0.42-1.009c0.279-0.28,0.615-0.42,1.008-0.42c0.322,0,0.611,0.094,0.867,0.281s0.426,0.433,0.508,0.737
		c0.049,0.154,0.066,0.279,0.055,0.375l-0.857,6.955c-0.018,0.143-0.082,0.264-0.191,0.361c-0.111,0.098-0.238,0.147-0.381,0.147
		h-4.213l-2.135,4.259c-0.102,0.209-0.271,0.313-0.51,0.313c-0.094,0-0.182-0.021-0.258-0.063l-2.285-1.143l0.518-1.018
		L590.12,144.606z"/>
	<polygon stroke-width="0" id="GB1-1CR" fill="#FDC20B" points="596.1,180.263 603.981,185.719 599.495,192.387 603.981,196.145 600.039,201.965 
		603.981,206.211 600.039,211.909 603.981,216.88 599.009,222.335 603.981,227.793 599.009,232.845 590.522,225.368 
		579.246,216.258 566.583,209 554.632,203.056 537.776,196.998 539.965,183.658 540.082,170.563 539.842,159.773 540.921,147.991 
		554.39,152.013 565.425,156.014 576.217,160.378 585.068,164.016 593.434,169.291 600.465,173.716 	"/>
	<path stroke-width="0" id="GB1-1FR" fill="#2B4B9B" d="M597.742,269.503l6.207-5.702l-5.48-6.664l5.128-5.095l-5.128-6.548l5.128-5.693
		l-12.286-11.038l-11.999-9.334l-13.252-8.61l-14.64-6.669l-14.169-5.486l-3.779,14.703l-3.095,9.068
		C530.377,222.434,574.913,244.522,597.742,269.503"/>
	<polygon stroke-width="0" id="GB1-1TR" fill="#E52620" points="597.742,270.231 603.949,278.964 597.742,283.725 587.003,269.989 572,255.255 
		556.359,243.885 541.721,235.249 528.172,229.612 530.377,223.163 544.798,230.722 560.908,240.704 578.731,253.254 	"/>
	<polygon stroke-width="0" id="GOR-OBL" fill="#FDC20B" points="243.202,363.333 238.594,359.692 238.594,303.437 260.176,290.099 285.64,278.45 
		293.034,299.312 298.734,316.407 303.519,331.323 283.212,340.656 271.056,349.021 260.297,358.234 251.445,367.207 
		245.262,374.968 238.594,369.754 	"/>
	<path stroke-width="0" id="GOR-OFL" fill="#2B4B9B" d="M263.877,454.513l17.788,14.673l-13.199,17.336l-2.547-2.792l11.756-14.563l1.662-1.787
		l-15.573-12.823l0.842-2.416l2.001-6.773l-18.008-4.137l7.094-21.1l-6.185-3.819l0.909-4.185l-7.09-3.248l2-4.753l-6.757-3.093
		l6.757-10.369l-6.185-4.362l11.276-14.913l11.276-11.64l14.005-11.457l15.277-8.547l12.543-6.122l2.008,15.213l2.181,22.553
		l2.91,15.278c0,0-28.736,32.8-39.647,66.564l-1.872-0.319l-4.41-0.759L263.877,454.513z M266.195,470.19l0.91,1.82
		c-0.345,1.066-0.97,1.93-1.875,2.59c-0.904,0.66-1.913,0.99-3.025,0.99c-0.93,0-1.788-0.23-2.576-0.691
		c-0.789-0.461-1.414-1.086-1.875-1.875c-0.462-0.789-0.692-1.646-0.692-2.576c0-1.076,0.312-2.059,0.933-2.945
		c0.623-0.887,1.439-1.516,2.451-1.885l0.152,1.17c-0.727,0.322-1.307,0.814-1.742,1.479c-0.434,0.662-0.65,1.391-0.65,2.182
		c0,1.102,0.391,2.043,1.174,2.826c0.782,0.783,1.725,1.174,2.826,1.174c0.75,0,1.441-0.193,2.075-0.58s1.125-0.908,1.474-1.566
		C266.101,471.644,266.249,470.94,266.195,470.19z M271.087,471.083l0.518,1.018l-2.285,1.143c-0.077,0.041-0.164,0.063-0.259,0.063
		c-0.238,0-0.407-0.104-0.509-0.313l-2.135-4.258h-4.213c-0.144,0-0.27-0.051-0.381-0.148c-0.109-0.098-0.174-0.219-0.191-0.361
		l-0.857-6.955c-0.012-0.096,0.006-0.221,0.055-0.375c0.082-0.305,0.252-0.549,0.508-0.736s0.545-0.281,0.867-0.281
		c0.393,0,0.729,0.139,1.008,0.42c0.28,0.279,0.42,0.615,0.42,1.008c0,0.41-0.154,0.76-0.465,1.049
		c-0.309,0.289-0.666,0.412-1.07,0.371l0.33,2.58h3.777v1.143h-3.635l0.143,1.143h4.063c0.238,0,0.408,0.105,0.51,0.313l2.035,4.063
		L271.087,471.083z"/>
	<path stroke-width="0" id="GOR-OSB1" fill="#E52620" d="M320.281,409.574l-0.068,0.059l-8.866-22.24c-30.798,35.952-39.65,66.565-39.65,66.565v5.093
		l7.028,1.274v5.634l3.457,0.813l6.259,0.569l-0.739,4.077l-5.273,9.566l22.551-3.146l1.092-1.639l14.209-45.885l2.093-11.819
		L320.281,409.574z"/>
	<polygon stroke-width="0" id="GOR-OSF1" fill="#E52620" points="282.792,526.892 268.249,505.975 274.427,501.245 299.525,497.045 301.945,499.787 
		320.28,547.68 299.159,547.68 292.25,544.533 286.247,536.343 	"/>
	<polygon stroke-width="0" id="GOR-OBC" fill="#FDC20B" points="450.205,320.77 421.1,317.498 400.737,319.498 381.456,323.196 363.511,328.289 
		359.633,313.254 354.475,298.219 378.91,291.428 402.339,287.672 419.771,286.83 438.321,286.83 453.357,289.125 469.849,292.275 
		488.639,297.978 484.154,310.103 481.607,320.354 479.833,328.289 	"/>
	<polyline stroke-width="0" id="GOR-OFC" fill="#2B4B9B" points="472.03,377.884 456.266,372.549 439.294,368.908 421.834,367.575 404.314,368.668 
		387.583,372.488 370.875,377.938 367.577,357.751 363.203,329.921 395.949,322.645 420.503,319.733 443.78,321.919 
		479.064,329.557 476.157,353.018 	"/>
	<path stroke-width="0" id="GOR-OSB2" fill="#E52620" d="M420.139,378.368l-0.244-9.095l-15.762,0.94l-16.824,3.638c0,0-17.316,5.722-16.435,5.545
		l0.357,9.444l-0.019,0.009l7.094,14.367l2.002,14.913l-4.364,22.37l-11.344,36.012l55.521-0.066V385.31v-6.939L420.139,378.368z"/>
	<polygon stroke-width="0" id="GOR-OSF2" fill="#E52620" points="374.669,549.428 420.471,549.428 420.471,477.839 364.602,477.839 361.458,500.519 	
		"/>
	<path stroke-width="0" id="GOR-OSB3" fill="#E52620" d="M422.921,378.368l0.244-9.095l15.765,0.94l16.82,3.638c0,0,17.315,5.722,16.435,5.545
		l-0.354,9.444l0.016,0.009l-7.095,14.367l-1.998,14.913l4.361,22.37l11.343,36.012l-55.522-0.066V385.31v-6.939L422.921,378.368z"
		/>
	<polygon stroke-width="0" id="GOR-OSF3" fill="#E52620" points="481.583,500.884 467.972,549.428 422.567,549.428 422.567,477.839 478.339,477.839 	
		"/>
	<polygon stroke-width="0" id="GOR-OBR" fill="#FDC20B" points="598.617,363.333 603.229,359.692 603.229,303.437 581.645,290.099 556.186,278.45 
		548.784,299.312 543.09,316.407 538.303,331.323 558.609,340.656 570.765,349.021 581.523,358.234 590.38,367.207 596.557,374.968 
		603.229,369.754 	"/>
	<path stroke-width="0" id="GOR-OFR" fill="#2B4B9B" d="M577.982,453.122l-4.408,0.756l-1.871,0.32c-10.914-33.768-39.648-66.566-39.648-66.566
		l2.908-15.275l2.183-22.549l1.242-16.788l8.366,4.185l11.095,4.914l23.129,18.601l11.278,11.638l11.276,14.914l-6.186,4.365
		l6.759,10.366l-6.759,3.095l2.001,4.747l-7.092,3.253l0.909,4.185l-6.188,3.82l7.094,21.092l-18.006,4.146l2.004,6.769l0.84,2.417
		l-15.572,12.826l1.662,1.783l11.755,14.565l-2.544,2.796l-13.204-17.338l17.788-14.674L577.982,453.122z M575.406,473.122
		c0.348,0.657,0.84,1.18,1.473,1.566c0.635,0.387,1.326,0.58,2.076,0.58c1.102,0,2.043-0.391,2.826-1.174s1.174-1.725,1.174-2.826
		c0-0.791-0.217-1.52-0.65-2.183c-0.436-0.663-1.016-1.156-1.742-1.478l0.152-1.17c1.012,0.369,1.828,0.997,2.451,1.884
		c0.621,0.888,0.932,1.869,0.932,2.946c0,0.929-0.23,1.787-0.691,2.576s-1.086,1.414-1.875,1.875s-1.646,0.691-2.576,0.691
		c-1.113,0-2.121-0.33-3.025-0.99c-0.906-0.661-1.531-1.523-1.875-2.59l0.91-1.821C574.91,471.76,575.059,472.464,575.406,473.122z
		 M571.84,472.786l2.035-4.063c0.102-0.207,0.271-0.313,0.51-0.313h4.063l0.143-1.143h-3.635v-1.143h3.777l0.33-2.58
		c-0.404,0.041-0.762-0.082-1.07-0.371c-0.311-0.289-0.465-0.639-0.465-1.049c0-0.393,0.139-0.729,0.42-1.009
		c0.279-0.28,0.615-0.42,1.008-0.42c0.322,0,0.611,0.094,0.867,0.281s0.426,0.433,0.508,0.737c0.049,0.154,0.066,0.279,0.055,0.375
		l-0.857,6.955c-0.018,0.143-0.082,0.264-0.191,0.361c-0.111,0.098-0.238,0.147-0.381,0.147h-4.213l-2.135,4.259
		c-0.102,0.209-0.271,0.313-0.51,0.313c-0.094,0-0.182-0.021-0.258-0.063l-2.285-1.143l0.518-1.018L571.84,472.786z"/>
	<path stroke-width="0" id="GOR-OSB4" fill="#E52620" d="M519.839,419.219l2.092,11.823l14.21,45.886l1.089,1.643l22.554,3.142l-5.274-9.567
		l-0.738-4.073l6.26-0.573l3.454-0.81v-5.638l7.031-1.273v-5.094c0,0-8.852-30.614-39.647-66.562l-8.869,22.238l-0.068-0.063
		L519.839,419.219z"/>
	<polygon stroke-width="0" id="GOR-OSF4" fill="#E52620" points="542.207,498.696 522.411,547.68 543.3,547.68 548.603,545.26 554.575,540.163 
		559.301,528.162 574.792,505.975 569.124,501.062 544.025,497.045 	"/>
</g>
<g id="EXTRAS">
	<g>
		<path fill="#212121" d="M388.754,582.923c-0.89,0-1.823-0.196-2.48-0.496l0.288-1.338c0.704,0.219,1.419,0.369,2.215,0.369
			c0.889,0,1.062-0.173,1.062-0.819c0-0.692-0.035-0.772-1.292-1.05c-1.857-0.403-2.134-0.772-2.134-2.434
			c0-1.534,0.542-2.146,2.652-2.146c0.669,0,1.478,0.069,2.331,0.254l-0.174,1.453c-0.876-0.15-1.442-0.219-2.134-0.219
			c-0.772,0-0.946,0.138-0.946,0.703c0,0.738,0.035,0.75,1.246,1.038c2.076,0.497,2.18,0.9,2.18,2.411
			C391.567,582.173,391.071,582.923,388.754,582.923"/>
		<path fill="#212121" d="M399.091,582.808h-1.8l-0.415-1.5h-2.573l-0.415,1.5h-1.799l2.341-7.683h2.309L399.091,582.808z
			 M394.696,579.866h1.765l-0.877-3.219L394.696,579.866z"/>
		<polygon fill="#212121" points="404.168,582.808 404.168,579.716 401.688,579.716 401.688,582.808 399.958,582.808 
			399.958,575.125 401.688,575.125 401.688,578.182 404.168,578.182 404.168,575.125 405.898,575.125 405.898,582.808 		"/>
		<polygon fill="#212121" points="409.049,577.755 409.049,582.808 407.4,582.808 407.4,575.125 409.522,575.125 412.049,580.42 
			412.049,575.125 413.698,575.125 413.698,582.808 411.564,582.808 		"/>
		<polygon fill="#212121" points="415.199,582.808 415.199,575.125 420.032,575.125 420.032,576.659 416.93,576.659 416.93,578.066 
			419.79,578.066 419.79,579.601 416.93,579.601 416.93,581.273 420.032,581.273 420.032,582.808 		"/>
		<polygon fill="#212121" points="422.925,583.965 426.741,576.124 427.503,576.124 423.677,583.965 		"/>
		<path fill="#212121" d="M430.007,582.541l0.186-0.663c0.615,0.188,1.219,0.307,1.781,0.307c1.059,0,1.336-0.287,1.473-1.078
			c0.039-0.217,0.07-0.385,0.07-0.514c0-0.415-0.258-0.524-1.217-0.771c-1.148-0.297-1.492-0.662-1.492-1.354
			c0-0.196,0.029-0.415,0.068-0.662c0.238-1.335,0.771-1.681,2.344-1.681c0.494,0,1.217,0.089,1.73,0.227l-0.148,0.702
			c-0.553-0.128-1.227-0.197-1.631-0.197c-1.117,0-1.326,0.178-1.465,0.969c-0.039,0.228-0.068,0.425-0.068,0.544
			c0,0.415,0.248,0.534,1.156,0.781c1.217,0.326,1.563,0.643,1.563,1.295c0,0.168-0.029,0.415-0.08,0.673
			c-0.207,1.196-0.592,1.789-2.381,1.789C431.331,582.906,430.56,582.77,430.007,582.541"/>
		<polygon fill="#212121" points="437.581,582.808 436.751,582.808 437.769,576.964 435.821,576.964 435.95,576.223 
			440.696,576.223 440.567,576.964 438.61,576.964 		"/>
		<path fill="#212121" d="M443.989,581.206h-2.748l-0.82,1.602h-0.871l3.313-6.584h1.188l1.027,6.584h-0.85L443.989,581.206z
			 M441.577,580.494h2.305l-0.506-3.698L441.577,580.494z"/>
		<path fill="#212121" d="M446.157,581.413c0-0.128,0.01-0.296,0.039-0.465l0.514-2.906c0.229-1.285,0.801-1.918,2.561-1.918
			c0.545,0,1.256,0.078,1.84,0.257l-0.158,0.702c-0.574-0.129-1.275-0.208-1.779-0.208c-1.117,0-1.484,0.336-1.652,1.266
			l-0.475,2.709c-0.039,0.208-0.049,0.376-0.049,0.495c0,0.543,0.277,0.82,1.207,0.82c0.375,0,0.811-0.04,1.314-0.148l0.395-2.195
			h0.801l-0.475,2.738c-0.662,0.238-1.443,0.347-2.164,0.347C446.69,582.906,446.157,582.304,446.157,581.413"/>
		<polygon fill="#212121" points="452.931,576.223 456.767,576.223 456.628,576.964 453.644,576.964 453.276,579.07 456.046,579.07 
			455.917,579.802 453.138,579.802 452.733,582.066 455.739,582.066 455.61,582.808 451.774,582.808 		"/>
	</g>
	<g>
		<path fill="#212121" d="M610.149,75.185h-3.979v-9.329h3.685c1.946,0,2.661,0.784,2.661,2.045v0.953
			c0,0.672-0.294,1.148-1.036,1.472c0.771,0.181,1.373,0.854,1.373,1.722v0.91C612.854,74.274,612.013,75.185,610.149,75.185
			 M610.415,68.209c0-0.406-0.252-0.658-0.84-0.658h-1.303v2.129h1.303c0.561,0,0.84-0.28,0.84-0.658V68.209z M610.751,72.103
			c0-0.518-0.322-0.784-0.881-0.784h-1.598v2.172h1.303c0.658,0,1.176-0.141,1.176-0.813V72.103z"/>
		<path fill="#212121" d="M617.835,75.185l-0.141-0.434c-0.783,0.434-1.484,0.573-1.947,0.573c-1.26,0-1.778-0.909-1.778-2.071
			c0-1.373,0.63-1.92,2.03-1.92h1.472v-0.519c0-0.7-0.126-0.938-1.205-0.938c-0.603,0-1.204,0.068-1.849,0.195l-0.266-1.514
			c0.645-0.195,1.666-0.336,2.451-0.336c2.367,0,2.885,0.715,2.885,2.605v4.356H617.835z M617.471,72.733h-0.966
			c-0.436,0-0.604,0.112-0.604,0.49s0.154,0.532,0.547,0.532c0.42,0,0.715-0.098,1.022-0.238V72.733z"/>
		<polygon fill="#212121" points="621.165,75.185 621.165,65.576 623.183,65.295 623.183,75.185 		"/>
		<path fill="#212121" d="M625.001,75.185v-9.609l2.018-0.279v9.889H625.001z M629.021,68.363h2.158l-1.793,3.391l1.877,3.431
			h-2.158l-1.82-3.431L629.021,68.363z"/>
		<path fill="#212121" d="M631.958,72.565v-1.583c0-1.401,0.659-2.759,3.082-2.759s3.082,1.357,3.082,2.759v1.583
			c0,1.4-0.659,2.759-3.082,2.759S631.958,73.966,631.958,72.565 M636.104,72.621v-1.693c0-0.646-0.336-1.01-1.064-1.01
			s-1.064,0.364-1.064,1.01v1.693c0,0.646,0.336,1.009,1.064,1.009S636.104,73.267,636.104,72.621"/>
		<path fill="#212121" d="M643.567,75.185v-4.511c0-0.307-0.141-0.49-0.49-0.49c-0.364,0-1.037,0.252-1.471,0.49v4.511h-2.019v-6.82
			h1.5l0.209,0.517c0.841-0.406,1.935-0.658,2.718-0.658c1.163,0,1.569,0.868,1.569,2.187v4.775H643.567z"/>
		<path fill="#212121" d="M652.833,73.42h2.873v1.766h-5.66v-1.724c1.01-1.037,1.19-1.205,2.031-2.157
			c1.373-1.569,1.527-1.653,1.527-2.605v-0.252c0-0.49-0.322-0.659-1.107-0.659c-0.672,0-1.709,0.112-2.311,0.267l-0.266-1.695
			c0.867-0.224,1.861-0.364,2.675-0.364c2.157,0,3.026,0.673,3.026,2.199v0.365c0,1.33-0.016,1.583-1.289,3.123
			C653.661,72.495,653.239,72.985,652.833,73.42"/>
		<path fill="#212121" d="M607.846,84.848l1.415-7.986h3.082c1.141,0,1.655,0.479,1.655,1.247c0,0.096-0.013,0.216-0.036,0.347
			l-0.18,1.008c-0.121,0.696-0.373,1.032-1.104,1.283c0.623,0.084,0.924,0.576,0.924,1.164c0,0.095-0.013,0.215-0.035,0.347
			l-0.168,0.947c-0.192,1.104-0.793,1.644-2.268,1.644H607.846z M612.571,82.198c0.012-0.073,0.023-0.168,0.023-0.241
			c0-0.479-0.3-0.755-0.995-0.755h-2.099l-0.492,2.794h2.171c0.804,0,1.127-0.312,1.235-0.923L612.571,82.198z M612.942,78.516
			c0.012-0.084,0.024-0.155,0.024-0.229c0-0.396-0.239-0.575-0.78-0.575h-2.074l-0.467,2.651h1.918c0.743,0,1.104-0.277,1.223-0.96
			L612.942,78.516z"/>
		<path fill="#212121" d="M618.979,84.848h-0.816l0.037-0.708c-0.648,0.576-1.439,0.828-2.184,0.828
			c-0.899,0-1.235-0.492-1.235-1.163c0-0.145,0.024-0.301,0.048-0.456l0.408-2.314c0.252-1.416,0.779-2.147,2.627-2.147
			c0.719,0,1.523,0.181,2.098,0.396L618.979,84.848z M618.871,79.883c-0.312-0.084-0.72-0.145-1.127-0.145
			c-0.899,0-1.345,0.276-1.547,1.428l-0.372,2.111c-0.023,0.144-0.048,0.299-0.048,0.407c0,0.275,0.12,0.432,0.479,0.432
			c0.731,0,1.379-0.408,2.051-1.02L618.871,79.883z"/>
		<polygon fill="#212121" points="622.353,76.62 623.359,76.477 621.884,84.849 620.901,84.849 		"/>
		<path fill="#212121" d="M627.954,79.942c-0.408-0.132-0.862-0.204-1.246-0.204c-0.948,0-1.308,0.324-1.512,1.429l-0.384,2.182
			c-0.012,0.084-0.024,0.168-0.024,0.252c0,0.371,0.192,0.516,0.695,0.516c0.528,0,1.225-0.168,1.811-0.396l0.134,0.803
			c-0.588,0.266-1.296,0.444-2.052,0.444c-1.104,0-1.57-0.516-1.57-1.308c0-0.084,0.011-0.252,0.047-0.455l0.385-2.171
			c0.287-1.618,0.971-2.147,2.519-2.147c0.431,0,0.995,0.096,1.415,0.264L627.954,79.942z"/>
		<path fill="#212121" d="M628.737,82.749l0.299-1.702c0.252-1.429,1.068-2.159,2.746-2.159c1.344,0,2.041,0.744,2.041,1.738
			c0,0.084,0,0.217-0.037,0.408l-0.324,1.835c-0.227,1.319-0.924,2.1-2.734,2.1C629.061,84.969,628.509,84.009,628.737,82.749
			 M632.803,81.034c0.022-0.133,0.036-0.252,0.036-0.349c0-0.634-0.372-0.947-1.199-0.947c-0.96,0-1.464,0.456-1.62,1.367
			l-0.3,1.692c-0.131,0.803,0.061,1.318,1.152,1.318c1.007,0,1.463-0.432,1.619-1.308L632.803,81.034z"/>
		<path fill="#212121" d="M640.062,79.918c0,0.133-0.014,0.313-0.048,0.504l-0.78,4.427h-0.984l0.793-4.497
			c0.012-0.073,0.023-0.157,0.023-0.204c0-0.241-0.119-0.325-0.406-0.325c-0.589,0-1.488,0.432-2.207,0.876l-0.732,4.15h-0.983
			l1.019-5.77l0.865-0.144l-0.074,0.828c0.578-0.408,1.777-0.876,2.472-0.876C639.749,78.888,640.062,79.283,640.062,79.918"/>
		<path fill="#212121" d="M640.82,87.342l-0.265-0.755c0.937-0.336,1.488-0.792,2.029-1.739h-0.349l-0.912-5.757l0.947-0.132
			l0.743,5.11l1.656-3.455c0.18-0.372,0.215-0.576,0.215-0.888c0-0.168-0.035-0.443-0.096-0.647l0.948-0.145
			c0.048,0.204,0.097,0.48,0.097,0.768c0,0.313-0.013,0.636-0.205,1.02l-2.026,4.126C642.956,86.035,642.392,86.826,640.82,87.342"
			/>
		<path fill="#212121" d="M648.729,83.984c1.151-1.14,1.392-1.38,2.472-2.481c1.187-1.225,1.618-1.645,1.727-2.244l0.048-0.263
			c0.036-0.204,0.048-0.349,0.048-0.456c0-0.469-0.264-0.685-1.271-0.685c-0.563,0-1.271,0.108-1.907,0.275l-0.107-0.802
			c0.673-0.204,1.474-0.349,2.242-0.349c1.38,0,2.039,0.551,2.039,1.511c0,0.156-0.022,0.288-0.048,0.443l-0.059,0.324
			c-0.168,0.912-0.336,1.127-1.777,2.591c-0.946,0.971-1.234,1.272-2.086,2.135h3.082l-0.144,0.863h-4.342L648.729,83.984z"/>
	</g>
	<g>
		<path fill="#212121" d="M610.498,197.812h-3.978v-9.329h3.684c1.947,0,2.661,0.784,2.661,2.045v0.953
			c0,0.672-0.294,1.148-1.036,1.471c0.77,0.182,1.373,0.854,1.373,1.723v0.909C613.202,196.901,612.361,197.812,610.498,197.812
			 M610.765,190.836c0-0.406-0.252-0.658-0.84-0.658h-1.304v2.129h1.304c0.559,0,0.84-0.28,0.84-0.658V190.836z M611.101,194.729
			c0-0.518-0.322-0.784-0.883-0.784h-1.597v2.171h1.304c0.657,0,1.176-0.14,1.176-0.813V194.729z"/>
		<path fill="#212121" d="M618.183,197.812l-0.139-0.435c-0.785,0.435-1.486,0.574-1.947,0.574c-1.26,0-1.779-0.91-1.779-2.071
			c0-1.373,0.63-1.921,2.031-1.921h1.471v-0.518c0-0.7-0.126-0.938-1.205-0.938c-0.602,0-1.204,0.069-1.85,0.196l-0.266-1.514
			c0.646-0.195,1.668-0.336,2.452-0.336c2.367,0,2.886,0.715,2.886,2.605v4.356H618.183z M617.819,195.36h-0.966
			c-0.435,0-0.603,0.112-0.603,0.49s0.153,0.532,0.547,0.532c0.42,0,0.713-0.098,1.021-0.238V195.36z"/>
		<polygon fill="#212121" points="621.514,197.812 621.514,188.202 623.53,187.922 623.53,197.812 		"/>
		<path fill="#212121" d="M625.35,197.812v-9.609l2.017-0.28v9.89H625.35z M629.37,190.99h2.156l-1.793,3.39l1.877,3.432h-2.156
			l-1.821-3.432L629.37,190.99z"/>
		<path fill="#212121" d="M632.307,195.192v-1.583c0-1.401,0.659-2.76,3.082-2.76s3.082,1.358,3.082,2.76v1.583
			c0,1.4-0.659,2.759-3.082,2.759S632.307,196.593,632.307,195.192 M636.452,195.248v-1.694c0-0.645-0.336-1.009-1.063-1.009
			c-0.729,0-1.065,0.364-1.065,1.009v1.694c0,0.646,0.336,1.009,1.065,1.009C636.116,196.257,636.452,195.894,636.452,195.248"/>
		<path fill="#212121" d="M643.915,197.812v-4.511c0-0.308-0.14-0.49-0.49-0.49c-0.363,0-1.036,0.252-1.471,0.49v4.511h-2.018
			v-6.821h1.5l0.209,0.518c0.841-0.406,1.934-0.658,2.718-0.658c1.163,0,1.569,0.868,1.569,2.186v4.776H643.915z"/>
		<polygon fill="#212121" points="652.159,197.812 652.159,191.102 650.577,191.956 649.708,190.289 652.355,188.763 
			654.178,188.763 654.178,197.812 		"/>
		<path fill="#212121" d="M608.23,208.476l1.415-7.987h3.082c1.141,0,1.655,0.479,1.655,1.247c0,0.097-0.013,0.216-0.036,0.348
			l-0.18,1.008c-0.121,0.695-0.373,1.032-1.104,1.283c0.623,0.084,0.924,0.575,0.924,1.164c0,0.095-0.013,0.215-0.035,0.347
			l-0.168,0.947c-0.192,1.104-0.793,1.644-2.268,1.644H608.23z M612.956,205.825c0.012-0.072,0.023-0.168,0.023-0.24
			c0-0.479-0.3-0.756-0.995-0.756h-2.099l-0.492,2.795h2.171c0.804,0,1.127-0.312,1.235-0.924L612.956,205.825z M613.327,202.144
			c0.012-0.084,0.024-0.156,0.024-0.229c0-0.396-0.239-0.575-0.78-0.575h-2.074l-0.467,2.65h1.918c0.743,0,1.104-0.276,1.223-0.96
			L613.327,202.144z"/>
		<path fill="#212121" d="M619.364,208.476h-0.816l0.037-0.708c-0.648,0.576-1.439,0.828-2.184,0.828
			c-0.899,0-1.235-0.492-1.235-1.163c0-0.145,0.024-0.301,0.048-0.456l0.408-2.314c0.252-1.416,0.779-2.147,2.627-2.147
			c0.719,0,1.523,0.18,2.098,0.396L619.364,208.476z M619.256,203.511c-0.312-0.084-0.72-0.145-1.127-0.145
			c-0.899,0-1.345,0.276-1.547,1.428l-0.372,2.111c-0.023,0.144-0.048,0.299-0.048,0.407c0,0.275,0.12,0.432,0.479,0.432
			c0.731,0,1.379-0.408,2.051-1.02L619.256,203.511z"/>
		<polygon fill="#212121" points="622.737,200.248 623.744,200.104 622.27,208.477 621.286,208.477 		"/>
		<path fill="#212121" d="M628.339,203.57c-0.407-0.132-0.862-0.204-1.246-0.204c-0.948,0-1.307,0.324-1.512,1.428l-0.384,2.183
			c-0.012,0.084-0.024,0.168-0.024,0.252c0,0.371,0.192,0.516,0.695,0.516c0.528,0,1.225-0.168,1.811-0.396l0.134,0.803
			c-0.588,0.265-1.296,0.444-2.052,0.444c-1.104,0-1.57-0.516-1.57-1.308c0-0.084,0.011-0.252,0.047-0.456l0.385-2.17
			c0.287-1.619,0.971-2.147,2.519-2.147c0.431,0,0.995,0.096,1.415,0.264L628.339,203.57z"/>
		<path fill="#212121" d="M629.122,206.377l0.299-1.703c0.252-1.428,1.068-2.159,2.746-2.159c1.344,0,2.041,0.744,2.041,1.739
			c0,0.084,0,0.216-0.037,0.408l-0.324,1.835c-0.227,1.319-0.924,2.099-2.734,2.099
			C629.445,208.596,628.894,207.636,629.122,206.377 M633.188,204.662c0.022-0.133,0.036-0.252,0.036-0.349
			c0-0.635-0.372-0.947-1.199-0.947c-0.96,0-1.464,0.456-1.62,1.367l-0.3,1.691c-0.131,0.804,0.061,1.319,1.152,1.319
			c1.007,0,1.463-0.432,1.619-1.308L633.188,204.662z"/>
		<path fill="#212121" d="M640.446,203.546c0,0.133-0.014,0.312-0.048,0.504l-0.78,4.426h-0.984l0.793-4.497
			c0.012-0.072,0.023-0.156,0.023-0.204c0-0.24-0.119-0.324-0.406-0.324c-0.589,0-1.488,0.432-2.207,0.876l-0.732,4.149h-0.983
			l1.019-5.769l0.865-0.145l-0.074,0.828c0.578-0.408,1.777-0.876,2.472-0.876C640.134,202.515,640.446,202.911,640.446,203.546"/>
		<path fill="#212121" d="M641.205,210.97l-0.265-0.755c0.937-0.336,1.488-0.792,2.029-1.739h-0.349l-0.912-5.757l0.947-0.132
			l0.743,5.109l1.656-3.455c0.18-0.371,0.215-0.575,0.215-0.887c0-0.168-0.035-0.443-0.096-0.647l0.948-0.145
			c0.048,0.204,0.097,0.48,0.097,0.768c0,0.313-0.013,0.636-0.205,1.02l-2.026,4.126
			C643.341,209.663,642.776,210.454,641.205,210.97"/>
		<polygon fill="#212121" points="651.584,201.808 649.881,202.707 649.521,201.939 651.849,200.728 652.76,200.728 
			651.394,208.476 650.409,208.476 		"/>
	</g>
	<g>
		<path fill="#212121" d="M597.338,469.316c0,1.416-0.98,2.857-3.615,2.857c-2.633,0-3.613-1.441-3.613-2.857v-3.893
			c0-1.416,0.98-2.857,3.613-2.857c2.635,0,3.615,1.441,3.615,2.857V469.316z M595.236,465.605c0-0.729-0.462-1.178-1.514-1.178
			c-1.049,0-1.512,0.449-1.512,1.178v3.529c0,0.729,0.463,1.178,1.512,1.178c1.052,0,1.514-0.449,1.514-1.178V465.605z"/>
		<path fill="#212121" d="M600.961,467.875v4.16h-2.018v-6.822h1.682l0.141,0.658c0.42-0.279,1.287-0.686,1.834-0.799l0.168,1.906
			C602.166,467.217,601.395,467.566,600.961,467.875"/>
		<path fill="#212121" d="M603.773,472.035v-9.609l2.018-0.281v9.891H603.773z M607.793,465.213h2.158l-1.794,3.391l1.878,3.432
			h-2.158l-1.82-3.432L607.793,465.213z"/>
		<path fill="#212121" d="M612.748,469.332v0.195c0,0.785,0.309,0.994,1.232,0.994c0.631,0,1.471-0.111,2.074-0.293l0.293,1.512
			c-0.615,0.225-1.609,0.434-2.563,0.434c-2.212,0-3.054-1.092-3.054-2.773v-1.596c0-1.471,0.658-2.732,2.929-2.732
			c2.269,0,2.759,1.346,2.759,2.83v1.43H612.748z M614.514,467.523c0-0.475-0.141-0.867-0.842-0.867
			c-0.699,0-0.924,0.393-0.924,0.867v0.295h1.766V467.523z"/>
		<path fill="#212121" d="M620.014,472.174c-0.742,0-1.808-0.182-2.479-0.406l0.322-1.498c0.559,0.168,1.303,0.309,2.058,0.309
			c0.603,0,0.701-0.168,0.701-0.574c0-0.434-0.015-0.49-1.106-0.756c-1.652-0.406-1.808-0.855-1.808-2.131
			c0-1.441,0.562-2.045,2.606-2.045c0.518,0,1.471,0.07,2.072,0.225l-0.182,1.568c-0.604-0.111-1.346-0.195-1.877-0.195
			c-0.588,0-0.729,0.154-0.729,0.463c0,0.42,0.057,0.475,0.869,0.658c1.946,0.434,2.086,0.854,2.086,2.213
			C622.549,471.404,621.96,472.174,620.014,472.174"/>
		<path fill="#212121" d="M626.258,472.174c-1.303,0-2.06-0.49-2.06-1.75v-3.586h-0.924v-1.625h0.924v-1.639l2.017-0.279v1.918
			h1.556l-0.112,1.625h-1.443v3.307c0,0.279,0.168,0.377,0.422,0.377c0.224,0,0.545-0.027,0.84-0.125l0.238,1.525
			C627.267,472.076,626.721,472.174,626.258,472.174"/>
		<path fill="#212121" d="M631.031,467.875v4.16h-2.018v-6.822h1.682l0.141,0.658c0.42-0.279,1.289-0.686,1.835-0.799l0.168,1.906
			C632.236,467.217,631.466,467.566,631.031,467.875"/>
		<path fill="#212121" d="M637.5,472.035l-0.139-0.436c-0.786,0.436-1.486,0.574-1.948,0.574c-1.26,0-1.778-0.91-1.778-2.072
			c0-1.371,0.631-1.92,2.03-1.92h1.472v-0.518c0-0.699-0.127-0.938-1.205-0.938c-0.603,0-1.205,0.068-1.85,0.195l-0.265-1.514
			c0.644-0.195,1.667-0.336,2.45-0.336c2.367,0,2.887,0.715,2.887,2.605v4.357H637.5z M637.137,469.584h-0.967
			c-0.434,0-0.602,0.111-0.602,0.49c0,0.377,0.152,0.531,0.546,0.531c0.419,0,0.714-0.098,1.022-0.238V469.584z"/>
		<path fill="#212121" d="M643.77,462.705h2.103v9.33h-2.103V462.705z M646.137,467.271l2.521-4.566h2.368l-2.619,4.566l2.815,4.764
			h-2.367L646.137,467.271z"/>
		<path fill="#212121" d="M655.854,472.035l-0.139-0.436c-0.786,0.436-1.486,0.574-1.948,0.574c-1.26,0-1.778-0.91-1.778-2.072
			c0-1.371,0.631-1.92,2.03-1.92h1.472v-0.518c0-0.699-0.127-0.938-1.205-0.938c-0.603,0-1.205,0.068-1.85,0.195l-0.265-1.514
			c0.644-0.195,1.667-0.336,2.45-0.336c2.367,0,2.887,0.715,2.887,2.605v4.357H655.854z M655.49,469.584h-0.967
			c-0.434,0-0.602,0.111-0.602,0.49c0,0.377,0.152,0.531,0.546,0.531c0.419,0,0.714-0.098,1.022-0.238V469.584z"/>
		<path fill="#212121" d="M661.467,472.174c-1.303,0-2.059-0.49-2.059-1.75v-3.586h-0.924v-1.625h0.924v-1.639l2.018-0.279v1.918
			h1.556l-0.113,1.625h-1.442v3.307c0,0.279,0.168,0.377,0.42,0.377c0.225,0,0.547-0.027,0.84-0.125l0.238,1.525
			C662.477,472.076,661.93,472.174,661.467,472.174"/>
		<rect x="664.225" y="465.213" fill="#212121" width="2.018" height="6.822"/>
		<path fill="#212121" d="M591.311,482.006c0-0.133,0.012-0.324,0.048-0.516l0.576-3.273c0.3-1.682,1.175-2.459,3.262-2.459
			c1.631,0,2.519,0.875,2.519,2.074c0,0.145-0.023,0.313-0.047,0.443l-0.588,3.346c-0.253,1.428-1.056,2.363-3.287,2.363
			C592.043,483.984,591.311,483.156,591.311,482.006 M596.672,478.264c0.023-0.145,0.047-0.287,0.047-0.432
			c0-0.744-0.455-1.188-1.631-1.188c-1.354,0-1.955,0.469-2.158,1.619l-0.564,3.215c-0.035,0.203-0.048,0.348-0.048,0.467
			c0,0.709,0.396,1.152,1.631,1.152c1.392,0,1.968-0.564,2.147-1.561L596.672,478.264z"/>
		<path fill="#212121" d="M601.977,478.803c-0.66,0.361-1.271,0.768-1.824,1.176l-0.682,3.887h-0.984l1.019-5.77l0.876-0.145
			l-0.107,0.961c0.468-0.385,1.056-0.744,1.666-1.008L601.977,478.803z"/>
		<path fill="#212121" d="M606.439,478.959c-0.408-0.131-0.862-0.203-1.246-0.203c-0.948,0-1.309,0.324-1.512,1.428l-0.384,2.182
			c-0.012,0.084-0.024,0.168-0.024,0.252c0,0.371,0.192,0.516,0.695,0.516c0.528,0,1.225-0.168,1.811-0.395l0.134,0.803
			c-0.588,0.264-1.296,0.443-2.052,0.443c-1.104,0-1.57-0.516-1.57-1.307c0-0.084,0.011-0.252,0.047-0.457l0.385-2.17
			c0.287-1.619,0.971-2.146,2.518-2.146c0.432,0,0.996,0.096,1.416,0.264L606.439,478.959z"/>
		<path fill="#212121" d="M611.48,479.367c0.012-0.061,0.023-0.156,0.023-0.203c0-0.24-0.12-0.324-0.408-0.324
			c-0.588,0-1.486,0.432-2.207,0.875l-0.73,4.15h-0.984l1.452-8.227l1.007-0.145l-0.564,3.238c0.601-0.396,1.716-0.828,2.388-0.828
			c0.731,0,1.043,0.396,1.043,1.031c0,0.133-0.013,0.313-0.048,0.504l-0.779,4.426h-0.984L611.48,479.367z"/>
		<path fill="#212121" d="M614.612,482.305c-0.022,0.133-0.022,0.217-0.022,0.266c0,0.371,0.18,0.586,0.803,0.586
			c0.611,0,1.343-0.227,2.134-0.611l0.218,0.732c-0.744,0.408-1.513,0.707-2.484,0.707c-1.174,0-1.643-0.551-1.643-1.355
			c0-0.143,0.012-0.336,0.049-0.539l0.348-1.967c0.263-1.475,0.924-2.219,2.578-2.219c0.972,0,1.668,0.455,1.668,1.318
			c0,0.984-0.457,1.477-2.1,2.027c-0.707,0.24-0.936,0.301-1.438,0.455L614.612,482.305z M617.336,479.332
			c0-0.385-0.289-0.625-0.815-0.625c-0.912,0-1.331,0.336-1.499,1.283l-0.145,0.805c0.324-0.096,0.516-0.156,1.08-0.324
			C616.928,480.184,617.336,479.811,617.336,479.332"/>
		<path fill="#212121" d="M618.777,483.66l0.205-0.768c0.467,0.156,1.056,0.264,1.56,0.264c0.851,0,1.019-0.143,1.127-0.791
			c0.084-0.492-0.048-0.684-0.983-1.115c-1.199-0.551-1.404-1.08-1.26-1.932c0.167-1.006,0.612-1.414,2.086-1.414
			c0.529,0,1.212,0.107,1.656,0.252L623,478.936c-0.455-0.119-1.092-0.203-1.512-0.203c-0.84,0-0.994,0.119-1.104,0.707
			c-0.095,0.551,0.073,0.672,0.816,1.066c1.354,0.721,1.607,1.008,1.438,1.92c-0.204,1.092-0.551,1.559-2.146,1.559
			C619.965,483.984,619.246,483.865,618.777,483.66"/>
		<path fill="#212121" d="M624.406,483.049c0-0.047,0-0.131,0.022-0.264l0.697-3.945h-1.032l0.145-0.816h1.03l0.253-1.439
			l1.006-0.131l-0.274,1.57h1.606l-0.168,0.816h-1.582l-0.697,3.934c-0.012,0.072-0.012,0.096-0.012,0.133
			c0,0.166,0.096,0.25,0.336,0.25c0.323,0,0.672-0.07,1.08-0.25l0.229,0.684c-0.504,0.25-1.008,0.395-1.584,0.395
			C624.742,483.984,624.406,483.576,624.406,483.049"/>
		<path fill="#212121" d="M631.748,478.803c-0.66,0.361-1.271,0.768-1.823,1.176l-0.685,3.887h-0.982l1.019-5.77l0.875-0.145
			l-0.106,0.961c0.468-0.385,1.055-0.744,1.666-1.008L631.748,478.803z"/>
		<path fill="#212121" d="M636.222,483.865h-0.815l0.037-0.709c-0.647,0.576-1.439,0.828-2.183,0.828
			c-0.899,0-1.235-0.492-1.235-1.162c0-0.145,0.023-0.301,0.047-0.457l0.408-2.314c0.252-1.416,0.78-2.146,2.627-2.146
			c0.719,0,1.523,0.18,2.098,0.396L636.222,483.865z M636.115,478.9c-0.313-0.084-0.721-0.145-1.129-0.145
			c-0.898,0-1.343,0.275-1.547,1.428l-0.371,2.109c-0.023,0.145-0.049,0.301-0.049,0.408c0,0.275,0.12,0.432,0.48,0.432
			c0.73,0,1.38-0.408,2.051-1.02L636.115,478.9z"/>
		<polygon fill="#212121" points="642.199,475.877 643.207,475.877 641.949,482.965 645.427,482.965 645.27,483.865 
			640.785,483.865 		"/>
		<path fill="#212121" d="M647.672,482.305c-0.023,0.133-0.023,0.217-0.023,0.266c0,0.371,0.181,0.586,0.804,0.586
			c0.612,0,1.343-0.227,2.135-0.611l0.216,0.732c-0.744,0.408-1.512,0.707-2.482,0.707c-1.176,0-1.643-0.551-1.643-1.355
			c0-0.143,0.012-0.336,0.047-0.539l0.349-1.967c0.263-1.475,0.924-2.219,2.579-2.219c0.971,0,1.666,0.455,1.666,1.318
			c0,0.984-0.455,1.477-2.1,2.027c-0.707,0.24-0.934,0.301-1.438,0.455L647.672,482.305z M650.395,479.332
			c0-0.385-0.287-0.625-0.814-0.625c-0.913,0-1.331,0.336-1.499,1.283l-0.146,0.805c0.324-0.096,0.517-0.156,1.08-0.324
			C649.986,480.184,650.395,479.811,650.395,479.332"/>
		<path fill="#212121" d="M653.133,483.865l-0.912-5.758l0.947-0.131l0.743,5.109l1.656-3.455c0.179-0.371,0.215-0.576,0.215-0.887
			c0-0.168-0.036-0.443-0.096-0.648l0.948-0.145c0.047,0.205,0.096,0.48,0.096,0.768c0,0.313-0.012,0.637-0.204,1.02l-2.026,4.127
			H653.133z"/>
		<path fill="#212121" d="M658.279,482.305c-0.023,0.133-0.023,0.217-0.023,0.266c0,0.371,0.181,0.586,0.804,0.586
			c0.612,0,1.343-0.227,2.135-0.611l0.216,0.732c-0.744,0.408-1.512,0.707-2.482,0.707c-1.176,0-1.643-0.551-1.643-1.355
			c0-0.143,0.012-0.336,0.047-0.539l0.349-1.967c0.263-1.475,0.924-2.219,2.579-2.219c0.971,0,1.666,0.455,1.666,1.318
			c0,0.984-0.455,1.477-2.1,2.027c-0.707,0.24-0.934,0.301-1.438,0.455L658.279,482.305z M661.002,479.332
			c0-0.385-0.287-0.625-0.814-0.625c-0.913,0-1.331,0.336-1.499,1.283l-0.146,0.805c0.324-0.096,0.517-0.156,1.08-0.324
			C660.594,480.184,661.002,479.811,661.002,479.332"/>
		<polygon fill="#212121" points="664.088,475.637 665.096,475.494 663.619,483.865 662.637,483.865 		"/>
	</g>
	<rect x="200.521" y="560.521" fill="#9D9D9C" width="442" height="4.488"/>
</g>
</svg>
