<svg>
<g id="AREAS">
	<polygon stroke-width="0" id="DBA-BBL" fill="#FDC20B" points="209.958,54.493 216.982,64.123 197.296,81.481 177.871,105.957 175.036,99.249 
		173.756,92.1 182.39,80.225 195.368,66.549 	"/>
	<polygon stroke-width="0" id="DBA-BCL" fill="#2B4B9B" points="235.896,152.144 244.472,138.869 258.153,126.615 252.232,116.813 241.205,104.559 
		229.972,89.242 222.621,77.603 218.014,66.551 206.282,75.764 195.368,86.383 186.882,96.592 177.871,109.344 182.796,128.657 
		184.93,142.953 184.93,171.747 223.847,193.298 227.726,171.747 230.79,160.517 	"/>
	<polygon stroke-width="0" id="DBA-BCLS" fill="#2B4B9B" points="197.502,211.571 193.825,194.417 190.559,185.43 184.931,174.772 223.438,196.252 
		222.621,216.241 224.663,233.426 227.114,246.7 231.981,259.468 226.501,255.277 220.375,252.213 212.614,249.968 204.445,247.925 
		201.586,245.881 200.157,242.821 199.953,225.461 199.338,218.112 	"/>
	<polygon stroke-width="0" id="DBA-BBC" fill="#FDC20B" points="430.645,37.779 408.996,32.674 386.236,30.507 360.188,31.653 339.155,35.737 
		321.753,41.25 304.435,49.787 299.109,40.002 320.568,30.222 336.499,24.503 357.531,20.623 374.687,18.613 395.108,19.397 
		415.53,22.259 433.093,26.751 450.86,33.285 464.088,39.82 458.011,49.787 445.754,44.108 	"/>
	<polygon stroke-width="0" id="DBA-BCC" fill="#2B4B9B" points="417.573,87.201 400.828,82.911 386.124,81.278 365.292,82.503 351.61,85.363 
		336.7,90.062 321.753,98.311 316.076,87.812 310.562,80.225 305.047,70.046 302.8,66.55 299.402,54.493 317.299,46.354 
		334.25,40.23 354.062,35.738 372.029,34.2 401.031,34.2 425.129,39.617 440.445,44.314 463.501,54.493 460.256,64.531 
		460.051,65.667 441.467,97.205 429.215,91.898 	"/>
	<polygon stroke-width="0" id="DBA-BFC" fill="#E52620" points="412.061,113.137 393.679,108.44 373.053,108.44 358.144,110.788 345.688,114.973 
		333.843,121.542 321.751,101.495 336.089,93.736 352.833,88.018 371.012,84.953 387.96,84.193 403.277,86.386 419.21,90.673 
		432.687,96.187 441.44,100.884 429.01,121.542 	"/>
	<polygon stroke-width="0" id="DBA-BBR" fill="#FDC20B" points="584.733,105.955 575.358,92.917 563.512,79.931 552.279,68.821 545.624,63.713 
		552.688,53.903 563.512,62.694 575.156,74.332 584.733,84.955 588.853,90.673 587.614,98.311 	"/>
	<polygon stroke-width="0" id="DBA-BCR" fill="#2B4B9B" points="528.565,155.819 534.511,170.523 537.779,182.164 539.21,192.71 556.158,182.571 
		577.97,170.523 577.97,152.346 579.236,132.333 584.733,109.664 572.904,92.917 559.02,78.213 545.624,66.55 536.556,83.321 
		522.461,102.869 504.448,126.614 517.152,137.232 523.072,146.627 	"/>
	<polygon stroke-width="0" id="DBA-BCRS" fill="#2B4B9B" points="569.433,190.944 577.97,173.888 539.21,195.232 539.21,208.096 539.21,224.032 
		536.76,240.368 530.919,258.588 541.046,252.01 552.892,248.54 560.447,246.087 562.286,241.799 562.901,220.968 565.759,204.218 	
		"/>
	<path stroke-width="0" id="DOR-OBL_1_" fill="#FDC20B" d="M183.41,368.568v-10.74l-1.839-9.803l-2.246-9.801l-3.063-11.236l-3.39-7.35l0.734-6.33
		l8.576-10.008l11.847-13.48l15.112-12.121l8.577,11.715l1.022,3.268l9.42,15.318l-14.936,13.885l-9.597,10.219l-8.171,11.43
		l-6.329,12.455L183.41,368.568z M184.751,291.191c-0.348,0.657-0.839,1.18-1.473,1.566s-1.326,0.58-2.076,0.58
		c-1.102,0-2.043-0.391-2.826-1.174s-1.174-1.725-1.174-2.826c0-0.791,0.217-1.52,0.651-2.183s1.015-1.156,1.741-1.478l-0.152-1.17
		c-1.012,0.369-1.829,0.997-2.451,1.884c-0.622,0.888-0.933,1.869-0.933,2.946c0,0.929,0.23,1.787,0.692,2.576
		s1.086,1.414,1.875,1.875s1.647,0.691,2.576,0.691c1.113,0,2.122-0.33,3.026-0.99c0.905-0.661,1.53-1.523,1.875-2.59l-0.911-1.821
		C185.247,289.829,185.1,290.533,184.751,291.191z M188.318,290.855l-2.036-4.063c-0.101-0.207-0.271-0.313-0.509-0.313h-4.063
		l-0.143-1.143h3.634v-1.143h-3.777l-0.331-2.58c0.405,0.041,0.762-0.082,1.071-0.371s0.464-0.639,0.464-1.049
		c0-0.393-0.14-0.729-0.419-1.009s-0.616-0.42-1.009-0.42c-0.322,0-0.61,0.094-0.866,0.281s-0.426,0.433-0.509,0.737
		c-0.048,0.154-0.066,0.279-0.054,0.375l0.857,6.955c0.018,0.143,0.082,0.264,0.192,0.361c0.11,0.098,0.237,0.147,0.38,0.147h4.214
		l2.134,4.259c0.101,0.209,0.271,0.313,0.509,0.313c0.095,0,0.182-0.021,0.259-0.063l2.286-1.143l-0.518-1.018L188.318,290.855z"/>
	<polygon stroke-width="0" id="DOR-OFL" fill="#2B4B9B" points="210.221,409.629 184.636,397.041 184.636,371.311 193.621,353.129 200.517,342.102 
		208.75,331.076 218.536,320.66 229.154,311.373 236.099,321.885 243.452,330.461 248.554,337.611 236.976,352.174 227.368,365.383 
		218.179,381.77 212.969,397.703 	"/>
	<polygon stroke-width="0" id="DOR-OTL" fill="#E52620" points="249.066,338.629 259.778,350.475 249.271,360.076 238.856,373.756 231.707,387.236 
		227.012,402.555 224.969,418.115 211.08,410.211 213.736,398.668 218.636,382.742 227.93,366.199 238.446,351.598 	"/>
	<path stroke-width="0" id="DOR-OFLS" fill="#2B4B9B" d="M221.102,477.914c0.906,0,10.881,6.576,10.881,6.576l-6.298-18.625l-2.45-17.973
		l-0.411-14.906l0.613-12.459l-37.918-19.852l5.446,11.275l3.674,10.211l3.476,16.338l1.839,17.564l0.407,11.23l1.635,3.676
		l2.652,2.043l5.31,1.02l5.922,2.041L221.102,477.914z"/>
	<polygon stroke-width="0" id="DOR-OBC" fill="#FDC20B" points="454.407,298.871 436.973,290.23 416.551,283.289 393.271,279.201 373.051,279.201 
		348.751,282.676 330.982,287.781 308.495,298.258 302.392,286.145 299.737,277.699 304.23,274.303 298.814,263.274 
		315.871,255.309 333.229,249.182 356.306,244.895 381.449,242.706 402.663,244.281 424.311,247.956 440.241,252.652 
		464.088,263.274 459.437,273.077 459.027,274.503 462.91,276.342 459.437,288.801 	"/>
	<polygon stroke-width="0" id="DOR-OFC" fill="#2B4B9B" points="433.472,335.289 453.796,299.625 432.889,289.619 412.263,283.291 391.024,280.223 
		369.059,280.836 348.545,283.695 329.35,289.619 309.106,299.83 329.8,335.795 343.545,329.135 360.085,323.316 379.895,321.684 
		403.481,323.826 418.952,328.164 	"/>
	<polyline stroke-width="0" id="DOR-OSLF" fill="#E52620" points="302.595,429.725 302.941,458.316 308.251,477.512 316.012,492.68 380.506,492.68 
		380.506,429.918 380.567,429.918 380.567,332.344 380.635,332.324 380.431,322.73 360.519,324.416 343.976,329.93 328.967,337.66 
		333.255,345.154 333.229,345.168 336.458,350.742 339.941,356.826 329.553,364.748 319.341,374.779 309.948,390.098 
		304.229,407.455 302.595,429.717 	"/>
	<polyline stroke-width="0" id="DOR-OSRF" fill="#E52620" points="459.834,429.725 459.489,458.316 454.178,477.512 446.417,492.68 381.924,492.68 
		381.924,429.918 381.861,429.918 381.861,332.344 381.796,332.324 382,322.73 401.912,324.416 418.452,329.93 433.461,337.66 
		429.173,345.154 429.201,345.168 425.973,350.742 422.491,356.826 432.877,364.748 443.087,374.779 452.483,390.098 458.2,407.455 
		459.834,429.717 	"/>
	<path stroke-width="0" id="DOR-OBR_1_" fill="#FDC20B" d="M571.838,355.988l-6.328-12.455l-8.168-11.43l-9.6-10.219L532.809,308l9.418-15.318
		l1.024-3.268l8.579-11.715l15.111,12.121l11.844,13.48l8.578,10.008l0.735,6.33l-3.391,7.35l-3.062,11.236l-2.249,9.801
		l-1.837,9.803v10.74L571.838,355.988z M573.188,291.879l-0.518,1.018l2.286,1.144c0.077,0.042,0.163,0.063,0.259,0.063
		c0.238,0,0.408-0.104,0.509-0.313l2.134-4.259h4.215c0.143,0,0.27-0.049,0.379-0.147c0.11-0.099,0.174-0.219,0.192-0.362
		l0.856-6.955c0.013-0.095-0.006-0.22-0.053-0.375c-0.084-0.303-0.254-0.549-0.51-0.736s-0.544-0.281-0.865-0.281
		c-0.393,0-0.729,0.141-1.01,0.42c-0.279,0.279-0.419,0.615-0.419,1.009c0,0.411,0.155,0.761,0.464,1.05
		c0.311,0.288,0.667,0.412,1.072,0.369l-0.331,2.581h-3.776v1.144h3.634l-0.144,1.143H577.5c-0.237,0-0.407,0.104-0.508,0.313
		l-2.036,4.063L573.188,291.879z M578.081,290.986l-0.911,1.822c0.346,1.064,0.971,1.928,1.875,2.588
		c0.905,0.662,1.914,0.992,3.027,0.992c0.928,0,1.787-0.23,2.576-0.692c0.788-0.462,1.413-1.087,1.875-1.875
		c0.461-0.788,0.691-1.647,0.691-2.575c0-1.078-0.311-2.061-0.934-2.947c-0.621-0.887-1.438-1.515-2.45-1.884l-0.151,1.169
		c0.726,0.322,1.307,0.814,1.74,1.479c0.436,0.664,0.652,1.391,0.652,2.184c0,1.101-0.392,2.043-1.174,2.825
		c-0.783,0.782-1.725,1.175-2.826,1.175c-0.75,0-1.442-0.194-2.076-0.581c-0.634-0.388-1.125-0.909-1.473-1.567
		C578.175,292.44,578.027,291.736,578.081,290.986z"/>
	<polygon stroke-width="0" id="DOR-OFR" fill="#2B4B9B" points="550.188,411.314 575.774,398.725 575.774,372.996 566.789,354.814 559.891,343.789 
		551.657,332.76 541.872,322.346 531.254,313.057 524.306,323.57 516.955,332.146 511.851,339.295 523.431,353.859 533.042,367.068 
		542.232,383.455 547.438,399.389 	"/>
	<polygon stroke-width="0" id="DOR-OTR" fill="#E52620" points="511.9,338.629 501.189,350.475 511.696,360.076 522.112,373.756 529.262,387.236 
		533.96,402.555 536.001,418.115 549.889,410.211 547.235,398.668 542.333,382.742 533.039,366.199 522.521,351.598 	"/>
	<path stroke-width="0" id="DOR-OFRS" fill="#2B4B9B" d="M539.869,477.914c-0.908,0-10.882,6.576-10.882,6.576l6.3-18.625l2.451-17.973l0.405-14.906
		l-0.61-12.459l37.92-19.852l-5.448,11.275l-3.679,10.211l-3.47,16.338l-1.837,17.564l-0.41,11.23l-1.634,3.676l-2.653,2.043
		l-5.312,1.02l-5.919,2.041L539.869,477.914z"/>
</g>
<g id="EXTRAS">
	<rect x="160.947" y="509.928" fill="#9D9D9C" width="442.288" height="4.492"/>
	<g>
		<g>
			<path fill="#212121" d="M582.991,160.993v-9.324h3.684c0.939,0,1.617,0.175,2.034,0.525c0.417,0.351,0.626,0.855,0.626,1.515
				v0.949c0,0.341-0.082,0.631-0.246,0.87s-0.429,0.438-0.793,0.597c0.396,0.096,0.725,0.301,0.984,0.616s0.389,0.685,0.389,1.109
				v0.911c0,0.689-0.225,1.234-0.676,1.633s-1.126,0.599-2.023,0.599H582.991z M585.089,155.477h1.307
				c0.269,0,0.476-0.06,0.621-0.18c0.146-0.12,0.219-0.277,0.219-0.472v-0.809c0-0.435-0.279-0.652-0.84-0.652h-1.307V155.477z
				 M585.089,159.298h1.307c0.373,0,0.662-0.058,0.867-0.174s0.309-0.329,0.309-0.639v-0.574c0-0.255-0.076-0.449-0.229-0.581
				s-0.37-0.198-0.653-0.198h-1.6V159.298z"/>
			<path fill="#212121" d="M590.784,159.059c0-0.679,0.161-1.168,0.484-1.466c0.324-0.298,0.839-0.448,1.545-0.448h1.471v-0.52
				c0-0.255-0.025-0.443-0.076-0.564c-0.05-0.121-0.161-0.213-0.334-0.277c-0.174-0.064-0.438-0.096-0.793-0.096
				c-0.565,0-1.181,0.064-1.846,0.191l-0.268-1.511c0.319-0.1,0.708-0.181,1.166-0.243s0.885-0.092,1.281-0.092
				c0.593,0,1.076,0.045,1.449,0.137c0.374,0.091,0.668,0.246,0.883,0.465c0.214,0.219,0.359,0.483,0.438,0.793
				c0.077,0.31,0.115,0.713,0.115,1.21v4.354h-1.646l-0.145-0.431c-0.692,0.378-1.342,0.567-1.947,0.567
				c-0.598,0-1.043-0.19-1.337-0.571S590.784,159.678,590.784,159.059z M592.718,159.116c0,0.167,0.043,0.288,0.127,0.363
				s0.225,0.113,0.42,0.113c0.319,0,0.659-0.071,1.02-0.213v-0.696h-0.965c-0.219,0-0.373,0.032-0.465,0.095
				C592.764,158.84,592.718,158.953,592.718,159.116z"/>
			<path fill="#212121" d="M597.976,160.993v-9.604l2.016-0.28v9.885H597.976z"/>
			<path fill="#212121" d="M601.81,160.993v-9.604l2.018-0.28v9.885H601.81z M604.093,157.562l1.736-3.384h2.154l-1.791,3.384
				l1.879,3.432h-2.16L604.093,157.562z"/>
			<path fill="#212121" d="M608.768,158.375v-1.579c0-0.378,0.049-0.722,0.147-1.032c0.098-0.31,0.257-0.599,0.479-0.868
				c0.221-0.269,0.539-0.479,0.957-0.632c0.416-0.153,0.914-0.229,1.493-0.229s1.077,0.076,1.493,0.229
				c0.418,0.153,0.738,0.363,0.961,0.632s0.384,0.56,0.482,0.872c0.098,0.312,0.146,0.655,0.146,1.029v1.579
				c0,0.296-0.028,0.572-0.086,0.827c-0.057,0.255-0.158,0.503-0.304,0.745s-0.333,0.448-0.561,0.619s-0.522,0.308-0.886,0.41
				c-0.361,0.103-0.777,0.154-1.247,0.154s-0.886-0.051-1.247-0.154c-0.363-0.103-0.656-0.239-0.883-0.41
				c-0.225-0.171-0.41-0.377-0.557-0.619s-0.247-0.49-0.305-0.745C608.796,158.947,608.768,158.671,608.768,158.375z
				 M610.784,158.425c0,0.673,0.354,1.01,1.06,1.01c0.711,0,1.066-0.336,1.066-1.01v-1.692c0-0.668-0.355-1.003-1.066-1.003
				c-0.706,0-1.06,0.334-1.06,1.003V158.425z"/>
			<path fill="#212121" d="M616.39,160.993v-6.815h1.497l0.212,0.513c0.414-0.201,0.871-0.36,1.371-0.479
				c0.498-0.119,0.946-0.178,1.343-0.178c1.048,0,1.572,0.729,1.572,2.188v4.771h-2.017v-4.505c0-0.328-0.164-0.492-0.492-0.492
				c-0.174,0-0.404,0.05-0.693,0.15c-0.29,0.1-0.549,0.214-0.776,0.342v4.505H616.39z"/>
			<path fill="#212121" d="M626.158,153.474l2.646-1.524h1.818v9.044h-2.017v-6.706l-1.579,0.854L626.158,153.474z"/>
		</g>
		<g>
			<path fill="#212121" d="M585.138,163.688c0.455-0.096,1.176-0.168,1.906-0.168c1.044,0,1.716,0.18,2.219,0.588
				c0.42,0.312,0.672,0.792,0.672,1.427c0,0.779-0.516,1.463-1.367,1.775v0.024c0.768,0.192,1.668,0.828,1.668,2.027
				c0,0.696-0.276,1.223-0.684,1.619c-0.564,0.516-1.476,0.755-2.795,0.755c-0.72,0-1.271-0.048-1.619-0.096V163.688z
				 M586.181,166.999h0.947c1.104,0,1.752-0.576,1.752-1.355c0-0.948-0.721-1.319-1.775-1.319c-0.48,0-0.756,0.036-0.924,0.072
				V166.999z M586.181,170.873c0.204,0.036,0.504,0.048,0.876,0.048c1.079,0,2.075-0.396,2.075-1.571
				c0-1.103-0.947-1.559-2.088-1.559h-0.863V170.873z"/>
			<path fill="#212121" d="M594.819,171.664l-0.084-0.731H594.7c-0.324,0.456-0.947,0.863-1.775,0.863
				c-1.176,0-1.775-0.828-1.775-1.667c0-1.403,1.248-2.171,3.49-2.159v-0.12c0-0.479-0.132-1.343-1.318-1.343
				c-0.541,0-1.104,0.168-1.512,0.432l-0.24-0.695c0.48-0.312,1.176-0.516,1.907-0.516c1.774,0,2.206,1.211,2.206,2.375v2.171
				c0,0.503,0.024,0.995,0.097,1.391H594.819z M594.663,168.702c-1.15-0.024-2.458,0.18-2.458,1.307
				c0,0.684,0.456,1.008,0.995,1.008c0.756,0,1.236-0.48,1.404-0.972c0.035-0.108,0.059-0.228,0.059-0.336V168.702z"/>
			<path fill="#212121" d="M597.39,163.149h1.056v8.515h-1.056V163.149z"/>
			<path fill="#212121" d="M604.359,171.448c-0.276,0.144-0.888,0.336-1.667,0.336c-1.751,0-2.891-1.188-2.891-2.962
				c0-1.787,1.224-3.083,3.119-3.083c0.623,0,1.175,0.156,1.463,0.3l-0.24,0.815c-0.252-0.144-0.647-0.275-1.223-0.275
				c-1.332,0-2.052,0.983-2.052,2.194c0,1.343,0.864,2.171,2.015,2.171c0.6,0,0.996-0.156,1.296-0.288L604.359,171.448z"/>
			<path fill="#212121" d="M610.827,168.714c0,2.146-1.487,3.082-2.891,3.082c-1.571,0-2.783-1.151-2.783-2.986
				c0-1.943,1.271-3.082,2.879-3.082C609.7,165.728,610.827,166.938,610.827,168.714z M606.222,168.773
				c0,1.271,0.731,2.231,1.763,2.231c1.007,0,1.763-0.947,1.763-2.255c0-0.983-0.491-2.23-1.738-2.23
				C606.761,166.519,606.222,167.67,606.222,168.773z"/>
			<path fill="#212121" d="M612.161,167.43c0-0.6-0.012-1.091-0.047-1.571h0.936l0.059,0.959h0.025
				c0.287-0.552,0.959-1.091,1.918-1.091c0.804,0,2.051,0.479,2.051,2.47v3.466h-1.055v-3.346c0-0.936-0.348-1.715-1.344-1.715
				c-0.695,0-1.235,0.492-1.415,1.079c-0.048,0.132-0.071,0.312-0.071,0.492v3.49h-1.057V167.43z"/>
			<path fill="#212121" d="M619.206,165.859l1.271,3.43c0.131,0.384,0.275,0.839,0.371,1.187h0.023
				c0.108-0.348,0.229-0.792,0.373-1.211l1.15-3.406h1.115l-1.582,4.138c-0.756,1.991-1.271,3.01-1.992,3.634
				c-0.516,0.456-1.031,0.636-1.295,0.684l-0.264-0.887c0.264-0.084,0.611-0.252,0.924-0.516c0.287-0.228,0.647-0.635,0.887-1.175
				c0.049-0.108,0.084-0.192,0.084-0.251c0-0.06-0.023-0.144-0.071-0.276l-2.147-5.349H619.206z"/>
			<path fill="#212121" d="M628.973,164.852h-0.024l-1.355,0.732l-0.203-0.804l1.703-0.912h0.899v7.796h-1.02V164.852z"/>
		</g>
	</g>
	<g>
		<g>
			<path fill="#212121" d="M581.089,381.281v-3.998c0-0.301,0.041-0.588,0.123-0.863c0.081-0.277,0.217-0.541,0.405-0.793
				c0.189-0.252,0.424-0.473,0.704-0.66s0.631-0.336,1.054-0.445s0.896-0.164,1.421-0.164c0.525,0,1,0.055,1.424,0.164
				s0.774,0.258,1.053,0.445s0.513,0.408,0.702,0.66s0.325,0.516,0.407,0.793c0.082,0.275,0.123,0.563,0.123,0.863v3.998
				c0,0.299-0.041,0.588-0.123,0.863s-0.218,0.541-0.407,0.793s-0.424,0.473-0.702,0.66c-0.278,0.186-0.629,0.334-1.053,0.445
				c-0.424,0.109-0.898,0.164-1.424,0.164c-0.524,0-0.998-0.055-1.421-0.164c-0.423-0.111-0.773-0.26-1.054-0.445
				c-0.28-0.188-0.515-0.408-0.704-0.66c-0.188-0.252-0.324-0.518-0.405-0.793C581.13,381.869,581.089,381.58,581.089,381.281z
				 M583.243,381.092c0,0.805,0.518,1.207,1.553,1.207c1.037,0,1.555-0.402,1.555-1.207v-3.619c0-0.805-0.518-1.207-1.555-1.207
				c-1.035,0-1.553,0.402-1.553,1.207V381.092z"/>
			<path fill="#212121" d="M590.153,384.066v-6.994h1.727l0.14,0.674c0.229-0.154,0.534-0.318,0.915-0.488
				c0.382-0.17,0.705-0.281,0.973-0.334l0.168,1.959c-0.852,0.336-1.469,0.643-1.852,0.918v4.266H590.153z"/>
			<path fill="#212121" d="M595.106,384.066v-9.857l2.07-0.287v10.145H595.106z M597.45,380.545l1.781-3.473h2.211l-1.839,3.473
				l1.93,3.521h-2.218L597.45,380.545z"/>
			<path fill="#212121" d="M602.261,381.365v-1.635c0-0.402,0.05-0.764,0.148-1.084c0.098-0.32,0.257-0.613,0.477-0.881
				c0.22-0.266,0.531-0.473,0.934-0.619c0.402-0.148,0.884-0.223,1.445-0.223c0.453,0,0.85,0.055,1.189,0.162
				c0.338,0.107,0.609,0.248,0.813,0.422c0.204,0.172,0.37,0.387,0.499,0.645c0.128,0.258,0.215,0.52,0.259,0.785
				c0.045,0.268,0.067,0.564,0.067,0.893v1.465h-3.761v0.195c0,0.396,0.09,0.664,0.27,0.807c0.181,0.141,0.512,0.213,0.993,0.213
				c0.763,0,1.472-0.1,2.126-0.301l0.302,1.555c-0.341,0.127-0.749,0.232-1.224,0.316c-0.476,0.084-0.944,0.127-1.407,0.127
				C603.304,384.207,602.261,383.26,602.261,381.365z M604.331,379.717h1.811v-0.291c0-0.271-0.061-0.48-0.183-0.633
				c-0.122-0.15-0.349-0.227-0.681-0.227c-0.631,0-0.947,0.287-0.947,0.859V379.717z"/>
			<path fill="#212121" d="M609.243,383.791l0.33-1.541c0.693,0.211,1.398,0.316,2.115,0.316c0.293,0,0.484-0.045,0.575-0.131
				s0.136-0.238,0.136-0.459c0-0.131-0.004-0.221-0.014-0.273c-0.01-0.051-0.054-0.109-0.133-0.174
				c-0.079-0.066-0.188-0.119-0.328-0.162c-0.139-0.041-0.355-0.098-0.648-0.168c-0.342-0.084-0.625-0.172-0.848-0.266
				c-0.224-0.094-0.404-0.193-0.543-0.297c-0.139-0.105-0.242-0.242-0.31-0.41c-0.068-0.168-0.112-0.338-0.134-0.512
				c-0.021-0.172-0.031-0.404-0.031-0.693c0-0.383,0.041-0.701,0.123-0.953c0.081-0.254,0.225-0.469,0.428-0.646
				s0.478-0.305,0.821-0.381c0.345-0.078,0.778-0.117,1.303-0.117c0.831,0,1.542,0.078,2.131,0.232l-0.189,1.605
				c-0.72-0.131-1.362-0.195-1.928-0.195c-0.288,0-0.483,0.035-0.585,0.109c-0.103,0.072-0.153,0.191-0.153,0.359
				c0,0.215,0.045,0.357,0.136,0.428c0.09,0.07,0.34,0.152,0.749,0.244c0.341,0.076,0.626,0.148,0.854,0.221
				c0.229,0.072,0.425,0.16,0.586,0.26c0.162,0.102,0.288,0.199,0.379,0.295c0.092,0.096,0.162,0.225,0.211,0.389
				c0.049,0.162,0.08,0.322,0.092,0.479c0.011,0.156,0.018,0.365,0.018,0.627c0,0.76-0.194,1.322-0.582,1.686
				s-1.061,0.545-2.018,0.545c-0.379,0-0.812-0.039-1.297-0.119C610.005,384.008,609.589,383.908,609.243,383.791z"/>
			<path fill="#212121" d="M615.115,378.713v-1.641h0.947v-1.684l2.069-0.289v1.973h1.594l-0.113,1.641h-1.48v3.408
				c0,0.26,0.143,0.389,0.428,0.389c0.305,0,0.592-0.045,0.863-0.135l0.246,1.578c-0.482,0.17-0.98,0.254-1.494,0.254
				c-0.693,0-1.218-0.143-1.576-0.43c-0.357-0.285-0.536-0.744-0.536-1.373v-3.691H615.115z"/>
			<path fill="#212121" d="M621.002,384.066v-6.994h1.726l0.141,0.674c0.229-0.154,0.534-0.318,0.916-0.488
				c0.381-0.17,0.705-0.281,0.971-0.334l0.169,1.959c-0.851,0.336-1.469,0.643-1.853,0.918v4.266H621.002z"/>
			<path fill="#212121" d="M625.737,382.082c0-0.697,0.166-1.199,0.498-1.506s0.861-0.459,1.586-0.459h1.508v-0.533
				c0-0.262-0.025-0.455-0.076-0.58c-0.052-0.123-0.166-0.217-0.344-0.283s-0.449-0.098-0.814-0.098
				c-0.58,0-1.211,0.064-1.895,0.195l-0.273-1.551c0.328-0.102,0.727-0.186,1.196-0.248s0.909-0.096,1.315-0.096
				c0.608,0,1.104,0.047,1.488,0.141c0.383,0.094,0.685,0.254,0.904,0.479c0.22,0.223,0.369,0.494,0.449,0.813
				s0.119,0.732,0.119,1.242v4.469h-1.691l-0.146-0.441c-0.711,0.389-1.378,0.582-2,0.582c-0.613,0-1.07-0.195-1.371-0.586
				C625.889,383.23,625.737,382.717,625.737,382.082z M627.724,382.141c0,0.17,0.043,0.295,0.129,0.373
				c0.087,0.076,0.23,0.115,0.432,0.115c0.328,0,0.676-0.074,1.045-0.219v-0.715h-0.988c-0.225,0-0.384,0.033-0.478,0.098
				C627.771,381.857,627.724,381.973,627.724,382.141z"/>
			<path fill="#212121" d="M636.136,384.066v-9.568h2.153v9.568H636.136z M638.563,379.184l2.588-4.686h2.428l-2.688,4.686
				l2.891,4.883h-2.428L638.563,379.184z"/>
			<path fill="#212121" d="M644.578,382.082c0-0.697,0.166-1.199,0.498-1.506s0.86-0.459,1.585-0.459h1.509v-0.533
				c0-0.262-0.025-0.455-0.077-0.58c-0.051-0.123-0.166-0.217-0.344-0.283s-0.449-0.098-0.813-0.098
				c-0.58,0-1.212,0.064-1.895,0.195l-0.273-1.551c0.327-0.102,0.726-0.186,1.196-0.248c0.47-0.063,0.908-0.096,1.315-0.096
				c0.608,0,1.104,0.047,1.487,0.141c0.383,0.094,0.686,0.254,0.904,0.479c0.221,0.223,0.37,0.494,0.449,0.813
				c0.08,0.318,0.119,0.732,0.119,1.242v4.469h-1.69l-0.147-0.441c-0.711,0.389-1.377,0.582-2,0.582
				c-0.612,0-1.069-0.195-1.371-0.586C644.729,383.23,644.578,382.717,644.578,382.082z M646.563,382.141
				c0,0.17,0.043,0.295,0.13,0.373c0.087,0.076,0.229,0.115,0.431,0.115c0.328,0,0.677-0.074,1.046-0.219v-0.715h-0.989
				c-0.225,0-0.383,0.033-0.477,0.098S646.563,381.973,646.563,382.141z"/>
			<path fill="#212121" d="M651.243,378.713v-1.641h0.947v-1.684l2.069-0.289v1.973h1.593l-0.112,1.641h-1.48v3.408
				c0,0.26,0.143,0.389,0.428,0.389c0.304,0,0.592-0.045,0.863-0.135l0.245,1.578c-0.481,0.17-0.979,0.254-1.494,0.254
				c-0.692,0-1.217-0.143-1.575-0.43c-0.357-0.285-0.536-0.744-0.536-1.373v-3.691H651.243z"/>
			<path fill="#212121" d="M657.13,384.066v-6.994h2.069v6.994H657.13z"/>
		</g>
		<g>
			<path fill="#212121" d="M589.663,391.971c0,2.857-1.736,4.373-3.855,4.373c-2.191,0-3.73-1.699-3.73-4.213
				c0-2.635,1.638-4.357,3.854-4.357C588.197,387.773,589.663,389.508,589.663,391.971z M583.222,392.107
				c0,1.773,0.961,3.361,2.648,3.361c1.699,0,2.659-1.564,2.659-3.447c0-1.65-0.862-3.375-2.647-3.375
				C584.108,388.646,583.222,390.285,583.222,392.107z"/>
			<path fill="#212121" d="M591.019,392.107c0-0.703-0.012-1.307-0.049-1.859h0.947l0.037,1.17h0.049
				c0.271-0.801,0.924-1.307,1.65-1.307c0.123,0,0.21,0.014,0.309,0.037v1.023c-0.111-0.025-0.223-0.037-0.369-0.037
				c-0.764,0-1.306,0.578-1.453,1.391c-0.025,0.148-0.05,0.32-0.05,0.506v3.176h-1.071V392.107z"/>
			<path fill="#212121" d="M599.331,395.986c-0.283,0.146-0.911,0.344-1.711,0.344c-1.799,0-2.969-1.219-2.969-3.041
				c0-1.834,1.257-3.164,3.202-3.164c0.641,0,1.207,0.16,1.503,0.307l-0.247,0.838c-0.259-0.148-0.665-0.283-1.256-0.283
				c-1.366,0-2.105,1.01-2.105,2.254c0,1.379,0.887,2.229,2.069,2.229c0.615,0,1.021-0.16,1.329-0.295L599.331,395.986z"/>
			<path fill="#212121" d="M600.601,387.465h1.084v3.719h0.024c0.173-0.309,0.443-0.578,0.775-0.764
				c0.32-0.186,0.702-0.309,1.108-0.309c0.801,0,2.081,0.494,2.081,2.549v3.547h-1.083v-3.422c0-0.961-0.357-1.773-1.38-1.773
				c-0.702,0-1.256,0.492-1.452,1.082c-0.063,0.148-0.074,0.309-0.074,0.518v3.596h-1.084V387.465z"/>
			<path fill="#212121" d="M608.04,393.424c0.023,1.467,0.96,2.07,2.043,2.07c0.776,0,1.244-0.137,1.65-0.309l0.186,0.775
				c-0.383,0.172-1.035,0.369-1.983,0.369c-1.835,0-2.931-1.207-2.931-3.004c0-1.799,1.059-3.215,2.795-3.215
				c1.946,0,2.463,1.713,2.463,2.809c0,0.221-0.024,0.395-0.037,0.504H608.04z M611.216,392.648c0.013-0.689-0.283-1.76-1.502-1.76
				c-1.096,0-1.576,1.01-1.662,1.76H611.216z"/>
			<path fill="#212121" d="M613.458,395.1c0.32,0.209,0.887,0.43,1.43,0.43c0.787,0,1.156-0.393,1.156-0.885
				c0-0.518-0.307-0.801-1.107-1.098c-1.071-0.381-1.576-0.973-1.576-1.686c0-0.961,0.775-1.75,2.057-1.75
				c0.604,0,1.133,0.174,1.465,0.371l-0.271,0.787c-0.233-0.148-0.664-0.344-1.219-0.344c-0.641,0-0.997,0.369-0.997,0.813
				c0,0.492,0.356,0.713,1.133,1.01c1.034,0.393,1.563,0.91,1.563,1.797c0,1.047-0.813,1.785-2.229,1.785
				c-0.652,0-1.256-0.16-1.674-0.406L613.458,395.1z"/>
			<path fill="#212121" d="M619.788,388.535v1.713h1.553v0.824h-1.553v3.215c0,0.738,0.21,1.156,0.813,1.156
				c0.283,0,0.492-0.037,0.628-0.072l0.049,0.813c-0.209,0.086-0.541,0.146-0.96,0.146c-0.505,0-0.911-0.16-1.17-0.455
				c-0.308-0.32-0.419-0.85-0.419-1.551v-3.252h-0.924v-0.824h0.924v-1.43L619.788,388.535z"/>
			<path fill="#212121" d="M622.56,392.107c0-0.703-0.012-1.307-0.049-1.859h0.948l0.037,1.17h0.049
				c0.271-0.801,0.924-1.307,1.65-1.307c0.123,0,0.209,0.014,0.308,0.037v1.023c-0.111-0.025-0.222-0.037-0.369-0.037
				c-0.764,0-1.306,0.578-1.453,1.391c-0.025,0.148-0.049,0.32-0.049,0.506v3.176h-1.072V392.107z"/>
			<path fill="#212121" d="M629.862,396.207l-0.086-0.75h-0.037c-0.332,0.467-0.973,0.887-1.822,0.887
				c-1.207,0-1.822-0.85-1.822-1.713c0-1.439,1.28-2.229,3.583-2.217v-0.123c0-0.492-0.136-1.379-1.354-1.379
				c-0.555,0-1.133,0.172-1.551,0.443l-0.247-0.713c0.493-0.32,1.207-0.531,1.958-0.531c1.822,0,2.266,1.244,2.266,2.439v2.229
				c0,0.518,0.025,1.021,0.099,1.428H629.862z M629.702,393.166c-1.182-0.025-2.523,0.186-2.523,1.342
				c0,0.703,0.467,1.035,1.021,1.035c0.775,0,1.269-0.492,1.441-0.998c0.036-0.111,0.061-0.234,0.061-0.344V393.166z"/>
			<path fill="#212121" d="M635.147,387.908h1.07v7.4h3.547v0.898h-4.617V387.908z"/>
			<path fill="#212121" d="M641.403,393.424c0.024,1.467,0.961,2.07,2.044,2.07c0.776,0,1.243-0.137,1.649-0.309l0.186,0.775
				c-0.382,0.172-1.035,0.369-1.982,0.369c-1.835,0-2.932-1.207-2.932-3.004c0-1.799,1.06-3.215,2.796-3.215
				c1.946,0,2.463,1.713,2.463,2.809c0,0.221-0.024,0.395-0.037,0.504H641.403z M644.58,392.648c0.013-0.689-0.283-1.76-1.503-1.76
				c-1.096,0-1.576,1.01-1.662,1.76H644.58z"/>
			<path fill="#212121" d="M647.352,390.248l1.17,3.35c0.197,0.541,0.357,1.033,0.48,1.525h0.036
				c0.137-0.492,0.309-0.984,0.506-1.525l1.157-3.35h1.133l-2.34,5.959h-1.034l-2.266-5.959H647.352z"/>
			<path fill="#212121" d="M653.46,393.424c0.025,1.467,0.961,2.07,2.045,2.07c0.775,0,1.243-0.137,1.649-0.309l0.185,0.775
				c-0.381,0.172-1.034,0.369-1.982,0.369c-1.834,0-2.931-1.207-2.931-3.004c0-1.799,1.06-3.215,2.796-3.215
				c1.945,0,2.463,1.713,2.463,2.809c0,0.221-0.025,0.395-0.037,0.504H653.46z M656.638,392.648c0.012-0.689-0.283-1.76-1.503-1.76
				c-1.096,0-1.576,1.01-1.662,1.76H656.638z"/>
			<path fill="#212121" d="M659.027,387.465h1.083v8.742h-1.083V387.465z"/>
		</g>
	</g>
	<g>
		<g>
			<path fill="#212121" d="M347.424,526.906l0.287-1.32c0.781,0.244,1.521,0.365,2.22,0.365c0.439,0,0.726-0.055,0.859-0.162
				c0.134-0.109,0.2-0.33,0.2-0.666c0-0.137-0.002-0.238-0.006-0.305s-0.021-0.139-0.055-0.217
				c-0.031-0.078-0.069-0.135-0.113-0.168c-0.043-0.035-0.119-0.076-0.229-0.127c-0.11-0.049-0.228-0.088-0.354-0.117
				s-0.304-0.072-0.534-0.125c-0.318-0.092-0.586-0.166-0.802-0.223c-0.216-0.055-0.408-0.129-0.575-0.223s-0.297-0.191-0.389-0.293
				s-0.168-0.236-0.226-0.406s-0.097-0.348-0.115-0.535s-0.028-0.428-0.028-0.719c0-0.324,0.024-0.602,0.073-0.83
				c0.049-0.227,0.132-0.432,0.251-0.611c0.118-0.18,0.279-0.322,0.484-0.426s0.457-0.182,0.758-0.234
				c0.301-0.055,0.662-0.082,1.088-0.082c0.773,0,1.549,0.088,2.326,0.262l-0.169,1.49c-0.845-0.146-1.558-0.219-2.136-0.219
				c-0.383,0-0.637,0.047-0.76,0.139c-0.125,0.094-0.187,0.279-0.187,0.559c0,0.107,0,0.188,0,0.242s0.009,0.115,0.028,0.184
				c0.018,0.068,0.031,0.117,0.041,0.145c0.009,0.029,0.042,0.064,0.099,0.109c0.058,0.045,0.104,0.074,0.141,0.09
				c0.036,0.014,0.112,0.035,0.228,0.064c0.113,0.029,0.211,0.053,0.292,0.07c0.081,0.02,0.21,0.049,0.389,0.09
				c0.278,0.096,0.515,0.17,0.711,0.223s0.372,0.115,0.526,0.189c0.156,0.072,0.285,0.141,0.39,0.205
				c0.104,0.063,0.194,0.146,0.27,0.246c0.075,0.102,0.132,0.197,0.171,0.285c0.037,0.088,0.067,0.205,0.09,0.355
				c0.023,0.15,0.037,0.291,0.043,0.422s0.009,0.303,0.009,0.516c0,0.32-0.024,0.592-0.071,0.816s-0.131,0.432-0.253,0.621
				s-0.288,0.34-0.499,0.453c-0.21,0.113-0.479,0.201-0.809,0.262c-0.328,0.063-0.723,0.092-1.186,0.092
				c-0.439,0-0.879-0.043-1.318-0.133C348.145,527.172,347.758,527.053,347.424,526.906z"/>
			<path fill="#212121" d="M353.248,527.281l2.344-7.686h2.31l2.354,7.686h-1.803l-0.416-1.5h-2.569l-0.417,1.5H353.248z
				 M355.856,524.34h1.769l-0.879-3.223L355.856,524.34z"/>
			<path fill="#212121" d="M361.119,527.281v-7.686h1.729v3.061h2.484v-3.061h1.73v7.686h-1.73v-3.094h-2.484v3.094H361.119z"/>
			<path fill="#212121" d="M368.556,527.281v-7.686h2.134l2.52,5.297v-5.297h1.662v7.686h-2.146l-2.509-5.055v5.055H368.556z"/>
			<path fill="#212121" d="M376.354,527.281v-7.686h4.833v1.533h-3.104v1.414h2.862v1.531h-2.862v1.674h3.104v1.533H376.354z"/>
		</g>
		<g>
			<path fill="#212121" d="M384.175,527.676l2.759-7.168h0.672l-2.769,7.168H384.175z"/>
		</g>
		<g>
			<path fill="#212121" d="M391.563,526.232c0.386,0.238,0.949,0.436,1.542,0.436c0.881,0,1.395-0.465,1.395-1.137
				c0-0.623-0.355-0.979-1.256-1.326c-1.088-0.385-1.76-0.949-1.76-1.889c0-1.037,0.86-1.809,2.155-1.809
				c0.683,0,1.177,0.158,1.474,0.326l-0.237,0.701c-0.218-0.117-0.663-0.316-1.266-0.316c-0.91,0-1.256,0.545-1.256,1
				c0,0.623,0.405,0.93,1.325,1.285c1.127,0.436,1.7,0.979,1.7,1.957c0,1.029-0.761,1.918-2.333,1.918
				c-0.643,0-1.345-0.188-1.701-0.424L391.563,526.232z"/>
			<path fill="#212121" d="M397.783,521.348h-2.026v-0.73h4.934v0.73h-2.036v5.934h-0.871V521.348z"/>
			<path fill="#212121" d="M401.938,525.186l-0.692,2.096h-0.89l2.265-6.664h1.038l2.274,6.664h-0.92l-0.712-2.096H401.938z
				 M404.123,524.512l-0.652-1.918c-0.148-0.436-0.248-0.83-0.347-1.217h-0.02c-0.099,0.396-0.208,0.803-0.336,1.207l-0.653,1.928
				H404.123z"/>
			<path fill="#212121" d="M411.847,526.984c-0.386,0.139-1.147,0.365-2.047,0.365c-1.009,0-1.839-0.256-2.492-0.879
				c-0.573-0.555-0.929-1.443-0.929-2.482c0.01-1.988,1.374-3.441,3.608-3.441c0.771,0,1.374,0.168,1.661,0.307l-0.207,0.703
				c-0.356-0.158-0.802-0.287-1.474-0.287c-1.622,0-2.68,1.008-2.68,2.68c0,1.689,1.019,2.689,2.571,2.689
				c0.563,0,0.949-0.08,1.146-0.178v-1.988h-1.354v-0.691h2.195V526.984z"/>
			<path fill="#212121" d="M416.613,524.156h-2.591v2.402h2.888v0.723h-3.748v-6.664h3.6v0.721h-2.739v2.107h2.591V524.156z"/>
		</g>
	</g>
</g>
</svg>
