<svg>
<g id="AREAS">
	<path stroke-width="0" id="GB2-2BL" fill="#5D4293" d="M274.172,32.784l35.318-13.85l3.32,10.234l13.598-3.98v10.78c0,0-19.732,6.636-21.225,6.967
		c-1.494,0.33-16.091,6.631-17.913,7.296c-1.823,0.665-5.806,2.653-18.569,9.123c-12.773,6.464-23.554,14.982-23.554,14.982
		l-6.007-8.354l5.345-2.984l-6.781-9.119l7.113-5.14l-5.677-8.791l30.718-16.475l3.482,9.311"/>
	<polygon stroke-width="0" id="GB2-2CL" fill="#4FAD33" points="318.444,41.275 308.495,44.759 297.051,49.399 285.443,54.046 271.684,60.963 
		256.423,70.037 239.174,80.91 245.313,90.03 239.174,94.839 244.813,103.463 239.174,108.439 245.645,116.843 259.741,105.287 
		272.677,97.326 289.762,86.877 307.83,79.113 329.405,71.126 326.408,55.868 326.408,39.285 	"/>
	<polygon stroke-width="0" id="GB2-2FL" fill="#FCC10D" points="245.975,147.578 239.177,140.444 245.975,133.316 239.139,125.517 255.926,111.757 
		272.179,101.309 288.599,91.525 306.341,83.233 319.938,78.066 329.405,74.335 332.377,85.555 336.191,95.668 340.392,107.775 
		316.954,115.901 301.862,123.695 286.604,132.983 273.836,141.939 262.726,150.728 248.63,164.125 239.177,155.536 	"/>
	<polygon stroke-width="0" id="GB2-2BC" fill="#5D4293" points="496.388,22.038 498.478,32.784 466.865,27.413 444.481,24.856 420.6,24.856 
		400.368,24.693 375.661,26.845 359.245,28.837 340.867,31.989 343.733,22.038 364.551,17.892 383.453,16.398 403.354,14.741 
		425.908,14.741 451.117,15.571 478.811,18.222 	"/>
	<polygon stroke-width="0" id="GB2-2CC" fill="#4FAD33" points="343.817,66.316 340.868,49.235 340.868,34.476 361.729,30.828 379.639,28.837 
		398.711,27.342 420.761,26.573 441.991,27.508 460.732,29.168 477.647,30.994 498.478,34.476 498.478,48.904 495.606,66.316 
		465.538,60.841 424.079,58.354 378.809,60.677 360.735,62.833 	"/>
	<polygon stroke-width="0" id="GB2-2FC" fill="#FCC10D" points="436.021,71.956 403.354,71.956 379.475,73.447 357.085,76.929 347.074,79.113 
		343.733,69.299 367.864,64.659 386.271,62.833 404.845,61.838 418.775,60.962 441.328,62.169 459.569,63.167 474.992,65.321 
		495.608,69.134 492.268,79.113 475.493,75.439 461.888,73.447 448.625,72.121 	"/>
	<polygon stroke-width="0" id="GB2-2TC" fill="#2C4C9A" points="348.127,81.41 387.93,75.771 430.712,74.335 466.865,77.873 492.268,81.41 
		484.108,104.426 448.953,98.49 422.749,96.998 397.219,97.825 378.974,99.817 355.426,103.633 	"/>
	<polygon stroke-width="0" id="GB2-2BR" fill="#5D4293" points="530.549,19.411 564.712,33.646 569.686,23.471 600.206,40.113 594.562,48.736 
		601.637,53.548 595.885,62.667 600.206,65.82 594.228,74.112 570.848,60.962 553.765,51.722 535.523,44.095 524.578,40.113 
		512.805,36.797 512.805,25.686 526.071,29.168 	"/>
	<path stroke-width="0" id="GB2-2CR" fill="#4FAD33" d="M509.938,71.622c0,0,2.035-6.135,2.866-15.423c0.83-9.285,0-17.684,0-17.684l15.759,5.247
		l22.053,8.623c0,0,17.577,7.705,17.91,8.577c0.331,0.876,8.458,4.191,16.916,9.829c8.457,5.639,14.094,9.787,14.094,9.787
		l-5.637,8.564l6.301,5.53l-5.474,8.294v1.458l5.474,4.179c0,0-5.639,8.238-6.47,8.238c-0.823,0-11.271-8.735-11.271-8.735
		l-9.952-7.133l-12.601-7.792l-15.261-7.792l-16.584-7.708L509.938,71.622z"/>
	<polygon stroke-width="0" id="GB2-2FR" fill="#FCC10D" points="549.579,130.659 528.224,119.228 498.955,108.106 504.842,90.197 509.938,74.336 
		533.366,83.396 559.07,95.837 579.633,109.599 600.2,125.518 593.566,133.149 594.228,134.807 600.2,140.611 592.401,147.739 
		600.2,155.038 591.407,164.125 577.973,151.556 565.04,141.438 	"/>
	<path stroke-width="0" id="GB1-1BL" fill="#4FAD33" d="M294.731,176.723l14.265-4.476l12.6-3.82l2.159,9.957l2.309,11.111l-8.612,2.153
		l-10.283,3.048l-9.618,3.588l-10.115,4.705l-13.763,4.914l-10.944,5.804l-12.603,7.261l-5.312-9.417l2.489-1.989l-5.3-8.791
		l30.013-15.753l5.305,9.679l10.613-3.71l9.616-4.412L294.731,176.723z M253.92,186.329l0.91,1.821
		c-0.345,1.066-0.97,1.929-1.875,2.59c-0.904,0.66-1.913,0.99-3.025,0.99c-0.93,0-1.788-0.23-2.576-0.691
		c-0.789-0.461-1.414-1.086-1.875-1.875c-0.462-0.789-0.692-1.647-0.692-2.576c0-1.077,0.312-2.059,0.933-2.946
		c0.623-0.887,1.439-1.515,2.451-1.884l0.152,1.17c-0.727,0.321-1.307,0.814-1.742,1.478c-0.434,0.663-0.65,1.392-0.65,2.183
		c0,1.102,0.391,2.043,1.174,2.826c0.782,0.783,1.725,1.174,2.826,1.174c0.75,0,1.441-0.193,2.075-0.58s1.125-0.909,1.474-1.566
		C253.827,187.783,253.974,187.079,253.92,186.329z M258.813,187.222l0.518,1.018l-2.285,1.143
		c-0.077,0.041-0.164,0.063-0.259,0.063c-0.238,0-0.407-0.104-0.509-0.313l-2.135-4.259h-4.213c-0.144,0-0.27-0.05-0.381-0.147
		c-0.109-0.098-0.174-0.219-0.191-0.361l-0.857-6.955c-0.012-0.096,0.006-0.221,0.055-0.375c0.082-0.305,0.252-0.55,0.508-0.737
		s0.545-0.281,0.867-0.281c0.393,0,0.729,0.14,1.008,0.42c0.28,0.28,0.42,0.616,0.42,1.009c0,0.41-0.154,0.76-0.465,1.049
		c-0.309,0.289-0.666,0.412-1.07,0.371l0.33,2.58h3.777v1.143h-3.635l0.143,1.143h4.063c0.238,0,0.408,0.105,0.51,0.313l2.035,4.063
		L258.813,187.222z M308.83,164.58l0.91,1.821c-0.345,1.066-0.97,1.929-1.875,2.59c-0.904,0.66-1.913,0.99-3.025,0.99
		c-0.93,0-1.788-0.23-2.576-0.691c-0.789-0.461-1.414-1.086-1.875-1.875c-0.462-0.789-0.692-1.647-0.692-2.576
		c0-1.077,0.312-2.059,0.933-2.946c0.623-0.887,1.439-1.515,2.451-1.884l0.152,1.17c-0.727,0.321-1.307,0.814-1.742,1.478
		c-0.434,0.663-0.65,1.392-0.65,2.183c0,1.102,0.391,2.043,1.174,2.826c0.782,0.783,1.725,1.174,2.826,1.174
		c0.75,0,1.441-0.193,2.075-0.58s1.125-0.909,1.474-1.566C308.736,166.034,308.883,165.33,308.83,164.58z M313.722,165.474
		l0.518,1.018l-2.285,1.143c-0.077,0.041-0.164,0.063-0.259,0.063c-0.238,0-0.407-0.104-0.509-0.313l-2.135-4.259h-4.213
		c-0.144,0-0.27-0.05-0.381-0.147c-0.109-0.098-0.174-0.219-0.191-0.361l-0.857-6.955c-0.012-0.096,0.006-0.221,0.055-0.375
		c0.082-0.305,0.252-0.55,0.508-0.737s0.545-0.281,0.867-0.281c0.393,0,0.729,0.14,1.008,0.42c0.28,0.28,0.42,0.616,0.42,1.009
		c0,0.41-0.154,0.76-0.465,1.049c-0.309,0.289-0.666,0.412-1.07,0.371l0.33,2.58h3.777v1.143h-3.635l0.143,1.143h4.063
		c0.238,0,0.408,0.105,0.51,0.313l2.035,4.063L313.722,165.474z"/>
	<polygon stroke-width="0" id="GB1-1CL" fill="#FCC10D" points="244.15,227.141 250.287,236.093 239.616,243.226 245.643,252.345 239.616,257.154 
		245.975,265.78 239.616,271.11 246.142,279.712 239.616,285.184 246.31,293.806 239.616,300.109 246.807,308.364 256.919,298.281 
		270.188,288.501 282.628,280.373 296.557,272.58 312.476,265.116 330.36,258.815 327.399,243.226 326.737,231.123 327.068,218.353 
		327.565,205.416 326.063,192.151 313.472,195.963 301.032,199.449 290.087,203.924 278.478,208.4 264.883,214.87 253.438,222.002 	
		"/>
	<polygon stroke-width="0" id="GB1-1FL" fill="#2C4C9A" points="340.057,295.127 335.524,281.87 330.362,261.756 310.98,269.263 290.962,278.386 
		272.839,290.158 256.423,302.93 239.615,318.019 246.638,325.812 239.615,334.769 246.638,341.735 239.141,350.857 
		247.633,358.649 265.421,343.64 321.143,303.461 	"/>
	<polygon stroke-width="0" id="GB1-1TL" fill="#E52922" points="340.669,297.743 343.392,306.701 328.051,313.457 307.821,325.732 286.556,343.398 
		265.865,361.058 248.745,376.355 239.254,369.843 266.529,345.759 293.404,325.97 322.003,305.208 	"/>
	<polygon stroke-width="0" id="GB1-1BCL" fill="#4FAD33" points="340.392,164.453 337.187,154.335 356.92,150.189 375.991,147.411 376.821,163.292 
		380.032,179.891 362.229,182.531 341.499,186.574 336.093,165.779 	"/>
	<polygon stroke-width="0" id="GB1-1CC" fill="#FCC10D" points="458.407,248.368 425.406,245.546 395.229,246.208 373.17,249.857 344.21,255.83 
		341.661,238.582 341.661,217.859 340.391,189.328 371.844,183.193 402.025,180.873 441.656,180.873 471.507,183.857 
		498.478,189.496 496.564,213.043 498.478,233.776 494.654,255.83 478.141,252.014 	"/>
	<polygon stroke-width="0" id="GB1-1FC" fill="#2C4C9A" points="463.049,272.743 435.025,269.263 412.638,268.595 385.273,270.67 363.714,274.737 
		350.421,278.276 344.211,257.819 359.738,254.005 381.794,250.811 402.187,248.369 421.426,247.231 437.179,248.535 
		453.929,249.691 467.36,251.849 482.121,254.669 494.654,257.985 488.923,278.276 	"/>
	<polygon stroke-width="0" id="GB1-1TC" fill="#E52922" points="445.479,293.639 419.672,291.979 387.436,293.639 358.58,301.199 350.421,281.364 
		378.481,275.064 419.328,271.112 464.715,275.395 488.923,280.37 481.295,301.199 	"/>
	<polygon stroke-width="0" id="GB1-1BCR" fill="#4FAD33" points="499.204,164.784 502.024,154.667 483.781,151.187 463.222,147.89 462.39,164.784 
		459.788,180.87 478.806,182.86 498.481,186.575 503.253,166.112 	"/>
	<path stroke-width="0" id="GB1-1BR" fill="#4FAD33" d="M562.388,195.651l4.974-9.308l29.979,15.753l-5.599,9.123l2.82,2.157l-5.638,8.544
		l-10.446-6.553l-9.121-4.48l-11.112-4.974l-13.599-5.309l-15.682-5.801l-15.683-5.143l2.34-9.768l2.49-10.51l26.534,8.34
		l-3.313,9.808L562.388,195.651z M530.422,166.563c0.349,0.657,0.84,1.18,1.474,1.566s1.325,0.58,2.075,0.58
		c1.102,0,2.044-0.391,2.826-1.174c0.783-0.783,1.174-1.725,1.174-2.826c0-0.791-0.217-1.52-0.65-2.183
		c-0.436-0.663-1.016-1.156-1.742-1.478l0.152-1.17c1.012,0.369,1.828,0.997,2.451,1.884c0.621,0.888,0.933,1.869,0.933,2.946
		c0,0.929-0.23,1.787-0.692,2.576c-0.461,0.789-1.086,1.414-1.875,1.875c-0.788,0.461-1.646,0.691-2.576,0.691
		c-1.112,0-2.121-0.33-3.025-0.99c-0.905-0.661-1.53-1.523-1.875-2.59l0.91-1.821C529.927,165.201,530.074,165.905,530.422,166.563z
		 M526.855,166.227l2.035-4.063c0.102-0.207,0.271-0.313,0.51-0.313h4.063l0.143-1.143h-3.635v-1.143h3.777l0.33-2.58
		c-0.404,0.041-0.762-0.082-1.07-0.371c-0.311-0.289-0.465-0.639-0.465-1.049c0-0.393,0.14-0.729,0.42-1.009
		c0.279-0.28,0.615-0.42,1.008-0.42c0.322,0,0.611,0.094,0.867,0.281s0.426,0.433,0.508,0.737c0.049,0.154,0.066,0.279,0.055,0.375
		l-0.857,6.955c-0.018,0.143-0.082,0.264-0.191,0.361c-0.111,0.098-0.237,0.147-0.381,0.147h-4.213l-2.135,4.259
		c-0.102,0.209-0.271,0.313-0.509,0.313c-0.095,0-0.182-0.021-0.259-0.063l-2.285-1.143l0.518-1.018L526.855,166.227z
		 M585.728,188.325c0.349,0.657,0.84,1.18,1.474,1.566s1.325,0.58,2.075,0.58c1.102,0,2.044-0.391,2.826-1.174
		c0.783-0.783,1.174-1.725,1.174-2.826c0-0.791-0.217-1.52-0.65-2.183c-0.436-0.663-1.016-1.156-1.742-1.478l0.152-1.17
		c1.012,0.369,1.828,0.997,2.451,1.884c0.621,0.888,0.933,1.869,0.933,2.946c0,0.929-0.23,1.787-0.692,2.576
		c-0.461,0.789-1.086,1.414-1.875,1.875c-0.788,0.461-1.646,0.691-2.576,0.691c-1.112,0-2.121-0.33-3.025-0.99
		c-0.905-0.661-1.53-1.523-1.875-2.59l0.91-1.821C585.232,186.963,585.38,187.667,585.728,188.325z M582.161,187.989l2.035-4.063
		c0.102-0.207,0.271-0.313,0.51-0.313h4.063l0.143-1.143h-3.635v-1.143h3.777l0.33-2.58c-0.404,0.041-0.762-0.082-1.07-0.371
		c-0.311-0.289-0.465-0.639-0.465-1.049c0-0.393,0.14-0.729,0.42-1.009c0.279-0.28,0.615-0.42,1.008-0.42
		c0.322,0,0.611,0.094,0.867,0.281s0.426,0.433,0.508,0.737c0.049,0.154,0.066,0.279,0.055,0.375l-0.857,6.955
		c-0.018,0.143-0.082,0.264-0.191,0.361c-0.111,0.098-0.237,0.147-0.381,0.147h-4.213l-2.135,4.259
		c-0.102,0.209-0.271,0.313-0.509,0.313c-0.095,0-0.182-0.021-0.259-0.063l-2.285-1.143l0.518-1.018L582.161,187.989z"/>
	<polygon stroke-width="0" id="GB1-1CR" fill="#FCC10D" points="588.755,236.922 599.533,244.387 593.396,253.506 599.533,258.647 594.144,266.608 
		599.533,272.412 594.144,280.204 599.533,287.006 592.733,294.468 599.533,301.933 592.733,308.841 581.126,298.615 
		565.705,286.156 548.384,276.229 532.039,268.1 508.984,259.811 511.974,241.565 512.138,223.658 511.806,208.9 513.281,192.785 
		531.708,198.283 546.799,203.757 561.555,209.728 573.665,214.701 585.106,221.918 594.726,227.971 	"/>
	<polygon stroke-width="0" id="GB1-1FR" fill="#2C4C9A" points="498.191,295.127 502.722,281.865 507.887,261.756 527.268,269.263 547.29,278.386 
		565.407,290.158 581.824,302.926 598.629,318.019 591.609,325.812 598.629,334.769 591.609,341.735 599.108,350.854 
		590.614,358.648 572.827,343.64 517.108,303.461 	"/>
	<polygon stroke-width="0" id="GB1-1TR" fill="#E52922" points="497.581,297.74 494.858,306.701 510.196,313.457 530.428,325.732 551.693,343.393 
		572.385,361.056 589.501,376.352 598.992,369.839 571.716,345.759 544.843,325.97 516.246,305.206 	"/>
	<polygon stroke-width="0" id="GOR-OWL" fill="#5D4293" points="239.173,437.236 239.173,402.097 268.692,383.856 303.515,367.926 313.636,396.458 	
		"/>
	<polygon stroke-width="0" id="GOR-OBL" fill="#4FAD33" points="245.477,494.136 239.174,489.159 239.174,447.69 313.638,406.574 321.427,429.96 
		327.975,450.357 300.201,463.123 283.572,474.566 268.86,487.166 256.753,499.438 248.296,510.05 239.174,502.921 	"/>
	<polygon stroke-width="0" id="GOR-OCL" fill="#FCC10D" points="262.561,575.635 254.104,570.413 255.347,564.688 245.646,560.244 248.383,553.743 
		239.142,549.517 248.383,535.334 239.924,529.367 255.347,508.969 270.771,493.049 289.922,477.376 310.818,465.685 
		327.973,457.315 330.72,478.124 333.707,508.969 	"/>
	<path stroke-width="0" id="GOR-OFL" fill="#2C4C9A" d="M298.077,650.097l-4.817-0.998v-7.712l-9.61-1.738v-6.966l-9.701-2.486l2.735-9.264
		l-24.625-5.662l9.702-28.857l71.143-66.664l4.975,21.892l10.307,24.128l-21.015,21.146l-12.181,18.154l-7.959,19.156l-1.488,7.462
		l-1.994,18.41l-18.158,23.849l-3.48-3.822L298.077,650.097z M281.381,652.241l0.91,1.821c-0.345,1.066-0.97,1.929-1.875,2.59
		c-0.904,0.66-1.913,0.99-3.025,0.99c-0.93,0-1.788-0.23-2.576-0.691c-0.789-0.461-1.414-1.086-1.875-1.875
		c-0.462-0.789-0.692-1.647-0.692-2.576c0-1.077,0.312-2.059,0.933-2.946c0.623-0.887,1.439-1.515,2.451-1.884l0.152,1.17
		c-0.727,0.321-1.307,0.814-1.742,1.478c-0.434,0.663-0.65,1.392-0.65,2.183c0,1.102,0.391,2.043,1.174,2.826
		c0.782,0.783,1.725,1.174,2.826,1.174c0.75,0,1.441-0.193,2.075-0.58s1.125-0.909,1.474-1.566
		C281.288,653.695,281.435,652.991,281.381,652.241z M286.274,653.135l0.518,1.018l-2.285,1.143
		c-0.077,0.041-0.164,0.063-0.259,0.063c-0.238,0-0.407-0.104-0.509-0.313l-2.135-4.259h-4.213c-0.144,0-0.27-0.05-0.381-0.147
		c-0.109-0.098-0.174-0.219-0.191-0.361l-0.857-6.955c-0.012-0.096,0.006-0.221,0.055-0.375c0.082-0.305,0.252-0.55,0.508-0.737
		s0.545-0.281,0.867-0.281c0.393,0,0.729,0.14,1.008,0.42c0.28,0.28,0.42,0.616,0.42,1.009c0,0.41-0.154,0.76-0.465,1.049
		c-0.309,0.289-0.666,0.412-1.07,0.371l0.33,2.58h3.777v1.143h-3.635l0.143,1.143h4.063c0.238,0,0.408,0.105,0.51,0.313l2.035,4.063
		L286.274,653.135z"/>
	<polygon stroke-width="0" id="GOR-OSB1" fill="#E52922" points="310.183,658.046 302.968,671.127 333.812,666.831 335.307,664.585 354.736,601.826 
		357.603,585.657 354.736,573.459 338.04,588.144 323.116,607.547 315.653,627.943 	"/>
	<polygon stroke-width="0" id="GOR-OSF1" fill="#E52922" points="303.465,733.913 283.574,705.307 292.023,698.838 326.351,693.098 329.664,696.849 
		354.736,762.351 325.852,762.351 316.399,758.042 308.191,746.848 	"/>
	<polygon stroke-width="0" id="GOR-OBC" fill="#4FAD33" points="460.287,436.413 427.451,432.928 392.625,434.671 366.26,439.731 341.714,446.697 
		336.407,426.132 329.353,405.568 362.774,396.278 394.818,391.141 418.663,389.99 444.033,389.99 464.597,393.131 487.151,397.441 
		512.857,405.234 506.714,421.818 503.237,435.841 500.813,446.697 	"/>
	<polygon stroke-width="0" id="GOR-OCC" fill="#FCC10D" points="345.892,499.588 339.914,461.529 384.698,451.578 417.283,448.594 450.119,450.583 
		498.378,461.032 493.899,497.27 	"/>
	<polygon stroke-width="0" id="GOR-OFC" fill="#2C4C9A" points="359.241,559.62 481.295,559.62 490.279,541.296 495.139,511.211 461.462,506.552 
		433.535,506.552 406.333,506.552 385.195,506.552 347.132,513.533 	"/>
	<polygon stroke-width="0" id="GOR-OSB2" fill="#E52922" points="367.146,585.158 361.174,615.754 345.664,664.013 421.602,664.919 421.602,564.599 
		364.41,564.762 	"/>
	<polygon stroke-width="0" id="GOR-OSF2" fill="#E52922" points="359.434,764.74 422.074,764.74 422.074,666.827 345.661,666.827 341.365,697.845 	
		"/>
	<polygon stroke-width="0" id="GOR-OSB3" fill="#E52922" points="479.081,591.625 488.944,626.453 500.404,664.919 424.944,664.919 424.944,565.264 
		483.106,565.246 479.756,573.607 477.342,581.429 	"/>
	<polygon stroke-width="0" id="GOR-OSF3" fill="#E52922" points="501.82,698.343 483.2,764.74 425.082,764.74 425.082,666.831 497.38,666.831 	"/>
	<polygon stroke-width="0" id="GOR-OWR" fill="#5D4293" points="605.304,437.236 605.304,402.097 575.786,383.856 540.963,367.926 530.842,396.458 	
		"/>
	<polygon stroke-width="0" id="GOR-OBR" fill="#4FAD33" points="599.003,494.136 605.304,489.159 605.304,447.69 530.842,406.574 523.05,429.96 
		516.506,450.357 544.279,463.123 560.907,474.566 575.619,487.166 587.729,499.438 596.183,510.05 605.304,502.921 	"/>
	<polygon stroke-width="0" id="GOR-OCR" fill="#FCC10D" points="581.919,575.635 590.375,570.413 589.133,564.688 598.832,560.244 596.095,553.743 
		605.337,549.517 596.095,535.334 604.553,529.367 589.133,508.969 573.709,493.049 554.555,477.376 533.66,465.685 
		516.506,457.315 513.759,478.124 510.774,508.969 	"/>
	<path stroke-width="0" id="GOR-OFR" fill="#2C4C9A" d="M562.569,670.123l-3.482,3.822l-18.157-23.849l-1.992-18.41l-1.492-7.462l-7.958-19.156
		l-12.182-18.154l-21.013-21.146l10.306-24.128l4.975-21.892l71.145,66.664l9.702,28.857l-24.625,5.662l2.737,9.264l-9.707,2.486
		v6.966l-9.609,1.738v7.712l-4.813,0.998L562.569,670.123z M561.484,655.225c0.349,0.657,0.84,1.18,1.474,1.566
		s1.325,0.58,2.075,0.58c1.102,0,2.044-0.391,2.826-1.174c0.783-0.783,1.174-1.725,1.174-2.826c0-0.791-0.217-1.52-0.65-2.183
		c-0.436-0.663-1.016-1.156-1.742-1.478l0.152-1.17c1.012,0.369,1.828,0.997,2.451,1.884c0.621,0.888,0.933,1.869,0.933,2.946
		c0,0.929-0.23,1.787-0.692,2.576c-0.461,0.789-1.086,1.414-1.875,1.875c-0.788,0.461-1.646,0.691-2.576,0.691
		c-1.112,0-2.121-0.33-3.025-0.99c-0.905-0.661-1.53-1.523-1.875-2.59l0.91-1.821C560.989,653.862,561.137,654.566,561.484,655.225z
		 M557.918,654.889l2.035-4.063c0.102-0.207,0.271-0.313,0.51-0.313h4.063l0.143-1.143h-3.635v-1.143h3.777l0.33-2.58
		c-0.404,0.041-0.762-0.082-1.07-0.371c-0.311-0.289-0.465-0.639-0.465-1.049c0-0.393,0.14-0.729,0.42-1.009
		c0.279-0.28,0.615-0.42,1.008-0.42c0.322,0,0.611,0.094,0.867,0.281s0.426,0.433,0.508,0.737c0.049,0.154,0.066,0.279,0.055,0.375
		l-0.857,6.955c-0.018,0.143-0.082,0.264-0.191,0.361c-0.111,0.098-0.237,0.147-0.381,0.147h-4.213l-2.135,4.259
		c-0.102,0.209-0.271,0.313-0.509,0.313c-0.095,0-0.182-0.021-0.259-0.063l-2.285-1.143l0.518-1.018L557.918,654.889z"/>
	<polygon stroke-width="0" id="GOR-OSB4" fill="#E52922" points="534.296,658.046 541.512,671.127 510.665,666.831 509.175,664.585 489.742,601.826 
		486.875,585.657 489.742,573.459 506.438,588.144 521.364,607.547 528.823,627.943 	"/>
	<polygon stroke-width="0" id="GOR-OSF4" fill="#E52922" points="515.044,695.354 487.965,762.351 516.535,762.351 523.788,759.037 531.959,752.071 
		538.425,735.653 559.608,705.31 551.859,698.591 517.53,693.098 	"/>
</g>
<g id="EXTRAS">
	<g>
		<path fill="#212121" d="M388.754,797.142c-0.89,0-1.823-0.196-2.48-0.496l0.288-1.338c0.704,0.219,1.419,0.369,2.215,0.369
			c0.889,0,1.062-0.173,1.062-0.819c0-0.692-0.035-0.772-1.292-1.05c-1.857-0.403-2.134-0.772-2.134-2.434
			c0-1.534,0.542-2.146,2.652-2.146c0.669,0,1.478,0.069,2.331,0.254l-0.174,1.453c-0.876-0.15-1.442-0.219-2.134-0.219
			c-0.772,0-0.946,0.138-0.946,0.703c0,0.738,0.035,0.75,1.246,1.038c2.076,0.497,2.18,0.9,2.18,2.411
			C391.567,796.392,391.071,797.142,388.754,797.142"/>
		<path fill="#212121" d="M399.091,797.026h-1.8l-0.415-1.5h-2.573l-0.415,1.5h-1.799l2.341-7.683h2.309L399.091,797.026z
			 M394.696,794.085h1.765l-0.877-3.219L394.696,794.085z"/>
		<polygon fill="#212121" points="404.168,797.026 404.168,793.935 401.688,793.935 401.688,797.026 399.958,797.026 
			399.958,789.344 401.688,789.344 401.688,792.4 404.168,792.4 404.168,789.344 405.898,789.344 405.898,797.026 		"/>
		<polygon fill="#212121" points="409.049,791.974 409.049,797.026 407.4,797.026 407.4,789.344 409.522,789.344 412.049,794.639 
			412.049,789.344 413.698,789.344 413.698,797.026 411.564,797.026 		"/>
		<polygon fill="#212121" points="415.199,797.026 415.199,789.344 420.032,789.344 420.032,790.878 416.93,790.878 416.93,792.285 
			419.79,792.285 419.79,793.819 416.93,793.819 416.93,795.492 420.032,795.492 420.032,797.026 		"/>
		<polygon fill="#212121" points="422.925,798.184 426.741,790.343 427.503,790.343 423.677,798.184 		"/>
		<path fill="#212121" d="M430.007,796.76l0.186-0.663c0.615,0.188,1.219,0.307,1.781,0.307c1.059,0,1.336-0.287,1.473-1.078
			c0.039-0.217,0.07-0.385,0.07-0.514c0-0.415-0.258-0.524-1.217-0.771c-1.148-0.297-1.492-0.662-1.492-1.354
			c0-0.196,0.029-0.415,0.068-0.662c0.238-1.335,0.771-1.681,2.344-1.681c0.494,0,1.217,0.089,1.73,0.227l-0.148,0.702
			c-0.553-0.128-1.227-0.197-1.631-0.197c-1.117,0-1.326,0.178-1.465,0.969c-0.039,0.228-0.068,0.425-0.068,0.544
			c0,0.415,0.248,0.534,1.156,0.781c1.217,0.326,1.563,0.643,1.563,1.295c0,0.168-0.029,0.415-0.08,0.673
			c-0.207,1.196-0.592,1.789-2.381,1.789C431.331,797.125,430.56,796.988,430.007,796.76"/>
		<polygon fill="#212121" points="437.581,797.026 436.751,797.026 437.769,791.183 435.821,791.183 435.95,790.441 
			440.696,790.441 440.567,791.183 438.61,791.183 		"/>
		<path fill="#212121" d="M443.989,795.425h-2.748l-0.82,1.602h-0.871l3.313-6.584h1.188l1.027,6.584h-0.85L443.989,795.425z
			 M441.577,794.713h2.305l-0.506-3.698L441.577,794.713z"/>
		<path fill="#212121" d="M446.157,795.632c0-0.128,0.01-0.296,0.039-0.465l0.514-2.906c0.229-1.285,0.801-1.918,2.561-1.918
			c0.545,0,1.256,0.078,1.84,0.257l-0.158,0.702c-0.574-0.129-1.275-0.208-1.779-0.208c-1.117,0-1.484,0.336-1.652,1.266
			l-0.475,2.709c-0.039,0.208-0.049,0.376-0.049,0.495c0,0.543,0.277,0.82,1.207,0.82c0.375,0,0.811-0.04,1.314-0.148l0.395-2.195
			h0.801l-0.475,2.738c-0.662,0.238-1.443,0.347-2.164,0.347C446.69,797.125,446.157,796.522,446.157,795.632"/>
		<polygon fill="#212121" points="452.931,790.441 456.767,790.441 456.628,791.183 453.644,791.183 453.276,793.289 
			456.046,793.289 455.917,794.021 453.138,794.021 452.733,796.285 455.739,796.285 455.61,797.026 451.774,797.026 		"/>
	</g>
	<g>
		<path fill="#212121" d="M610.149,90.634h-3.979v-9.329h3.685c1.946,0,2.661,0.784,2.661,2.045v0.953
			c0,0.672-0.294,1.148-1.036,1.472c0.771,0.181,1.373,0.854,1.373,1.722v0.91C612.854,89.724,612.013,90.634,610.149,90.634
			 M610.415,83.658c0-0.406-0.252-0.658-0.84-0.658h-1.303v2.129h1.303c0.561,0,0.84-0.28,0.84-0.658V83.658z M610.751,87.552
			c0-0.518-0.322-0.784-0.881-0.784h-1.598v2.172h1.303c0.658,0,1.176-0.141,1.176-0.813V87.552z"/>
		<path fill="#212121" d="M617.835,90.634l-0.141-0.434c-0.783,0.434-1.484,0.573-1.947,0.573c-1.26,0-1.778-0.909-1.778-2.071
			c0-1.373,0.63-1.92,2.03-1.92h1.472v-0.519c0-0.7-0.126-0.938-1.205-0.938c-0.603,0-1.204,0.068-1.849,0.195l-0.266-1.514
			c0.645-0.195,1.666-0.336,2.451-0.336c2.367,0,2.885,0.715,2.885,2.605v4.356H617.835z M617.471,88.183h-0.966
			c-0.436,0-0.604,0.112-0.604,0.49s0.154,0.532,0.547,0.532c0.42,0,0.715-0.098,1.022-0.238V88.183z"/>
		<polygon fill="#212121" points="621.165,90.634 621.165,81.025 623.183,80.744 623.183,90.634 		"/>
		<path fill="#212121" d="M625.001,90.634v-9.609l2.018-0.279v9.889H625.001z M629.021,83.813h2.158l-1.793,3.391l1.877,3.431
			h-2.158l-1.82-3.431L629.021,83.813z"/>
		<path fill="#212121" d="M631.958,88.015v-1.583c0-1.401,0.659-2.759,3.082-2.759s3.082,1.357,3.082,2.759v1.583
			c0,1.4-0.659,2.759-3.082,2.759S631.958,89.415,631.958,88.015 M636.104,88.07v-1.693c0-0.646-0.336-1.01-1.064-1.01
			s-1.064,0.364-1.064,1.01v1.693c0,0.646,0.336,1.009,1.064,1.009S636.104,88.716,636.104,88.07"/>
		<path fill="#212121" d="M643.567,90.634v-4.511c0-0.307-0.141-0.49-0.49-0.49c-0.364,0-1.037,0.252-1.471,0.49v4.511h-2.019v-6.82
			h1.5l0.209,0.517c0.841-0.406,1.935-0.658,2.718-0.658c1.163,0,1.569,0.868,1.569,2.187v4.775H643.567z"/>
		<path fill="#212121" d="M652.833,88.869h2.873v1.766h-5.66v-1.724c1.01-1.037,1.19-1.205,2.031-2.157
			c1.373-1.569,1.527-1.653,1.527-2.605v-0.252c0-0.49-0.322-0.659-1.107-0.659c-0.672,0-1.709,0.112-2.311,0.267l-0.266-1.695
			c0.867-0.224,1.861-0.364,2.675-0.364c2.157,0,3.026,0.673,3.026,2.199v0.365c0,1.33-0.016,1.583-1.289,3.123
			C653.661,87.944,653.239,88.435,652.833,88.869"/>
		<path fill="#212121" d="M607.846,100.297l1.415-7.986h3.082c1.141,0,1.655,0.479,1.655,1.247c0,0.096-0.013,0.216-0.036,0.347
			l-0.18,1.008c-0.121,0.696-0.373,1.032-1.104,1.283c0.623,0.084,0.924,0.576,0.924,1.164c0,0.095-0.013,0.215-0.035,0.347
			l-0.168,0.947c-0.192,1.104-0.793,1.644-2.268,1.644H607.846z M612.571,97.647c0.012-0.073,0.023-0.168,0.023-0.241
			c0-0.479-0.3-0.755-0.995-0.755h-2.099l-0.492,2.794h2.171c0.804,0,1.127-0.312,1.235-0.923L612.571,97.647z M612.942,93.965
			c0.012-0.084,0.024-0.155,0.024-0.229c0-0.396-0.239-0.575-0.78-0.575h-2.074l-0.467,2.651h1.918c0.743,0,1.104-0.277,1.223-0.96
			L612.942,93.965z"/>
		<path fill="#212121" d="M618.979,100.297h-0.816l0.037-0.708c-0.648,0.576-1.439,0.828-2.184,0.828
			c-0.899,0-1.235-0.492-1.235-1.163c0-0.145,0.024-0.301,0.048-0.456l0.408-2.314c0.252-1.416,0.779-2.147,2.627-2.147
			c0.719,0,1.523,0.181,2.098,0.396L618.979,100.297z M618.871,95.332c-0.312-0.084-0.72-0.145-1.127-0.145
			c-0.899,0-1.345,0.276-1.547,1.428l-0.372,2.111c-0.023,0.144-0.048,0.299-0.048,0.407c0,0.275,0.12,0.432,0.479,0.432
			c0.731,0,1.379-0.408,2.051-1.02L618.871,95.332z"/>
		<polygon fill="#212121" points="622.353,92.069 623.359,91.926 621.884,100.298 620.901,100.298 		"/>
		<path fill="#212121" d="M627.954,95.392c-0.408-0.132-0.862-0.204-1.246-0.204c-0.948,0-1.308,0.324-1.512,1.429l-0.384,2.182
			c-0.012,0.084-0.024,0.168-0.024,0.252c0,0.371,0.192,0.516,0.695,0.516c0.528,0,1.225-0.168,1.811-0.396l0.134,0.803
			c-0.588,0.266-1.296,0.444-2.052,0.444c-1.104,0-1.57-0.516-1.57-1.308c0-0.084,0.011-0.252,0.047-0.455l0.385-2.171
			c0.287-1.618,0.971-2.147,2.519-2.147c0.431,0,0.995,0.096,1.415,0.264L627.954,95.392z"/>
		<path fill="#212121" d="M628.737,98.198l0.299-1.702c0.252-1.429,1.068-2.159,2.746-2.159c1.344,0,2.041,0.744,2.041,1.738
			c0,0.084,0,0.217-0.037,0.408l-0.324,1.835c-0.227,1.319-0.924,2.1-2.734,2.1C629.061,100.418,628.509,99.458,628.737,98.198
			 M632.803,96.483c0.022-0.133,0.036-0.252,0.036-0.349c0-0.634-0.372-0.947-1.199-0.947c-0.96,0-1.464,0.456-1.62,1.367
			l-0.3,1.692c-0.131,0.803,0.061,1.318,1.152,1.318c1.007,0,1.463-0.432,1.619-1.308L632.803,96.483z"/>
		<path fill="#212121" d="M640.062,95.367c0,0.133-0.014,0.313-0.048,0.504l-0.78,4.427h-0.984l0.793-4.497
			c0.012-0.073,0.023-0.157,0.023-0.204c0-0.241-0.119-0.325-0.406-0.325c-0.589,0-1.488,0.432-2.207,0.876l-0.732,4.15h-0.983
			l1.019-5.77l0.865-0.144l-0.074,0.828c0.578-0.408,1.777-0.876,2.472-0.876C639.749,94.337,640.062,94.732,640.062,95.367"/>
		<path fill="#212121" d="M640.82,102.791l-0.265-0.755c0.937-0.336,1.488-0.792,2.029-1.739h-0.349l-0.912-5.757l0.947-0.132
			l0.743,5.11l1.656-3.455c0.18-0.372,0.215-0.576,0.215-0.888c0-0.168-0.035-0.443-0.096-0.647l0.948-0.145
			c0.048,0.204,0.097,0.48,0.097,0.768c0,0.313-0.013,0.636-0.205,1.02l-2.026,4.126
			C642.956,101.484,642.392,102.275,640.82,102.791"/>
		<path fill="#212121" d="M648.729,99.434c1.151-1.14,1.392-1.38,2.472-2.481c1.187-1.225,1.618-1.645,1.727-2.244l0.048-0.263
			c0.036-0.204,0.048-0.349,0.048-0.456c0-0.469-0.264-0.685-1.271-0.685c-0.563,0-1.271,0.108-1.907,0.275l-0.107-0.802
			c0.673-0.204,1.474-0.349,2.242-0.349c1.38,0,2.039,0.551,2.039,1.511c0,0.156-0.022,0.288-0.048,0.443l-0.059,0.324
			c-0.168,0.912-0.336,1.127-1.777,2.591c-0.946,0.971-1.234,1.272-2.086,2.135h3.082l-0.144,0.863h-4.342L648.729,99.434z"/>
	</g>
	<g>
		<path fill="#212121" d="M610.498,260.487h-3.978v-9.329h3.684c1.947,0,2.661,0.784,2.661,2.045v0.953
			c0,0.672-0.294,1.148-1.036,1.471c0.77,0.182,1.373,0.854,1.373,1.723v0.909C613.202,259.577,612.361,260.487,610.498,260.487
			 M610.765,253.511c0-0.406-0.252-0.658-0.84-0.658h-1.304v2.129h1.304c0.559,0,0.84-0.28,0.84-0.658V253.511z M611.101,257.405
			c0-0.518-0.322-0.784-0.883-0.784h-1.597v2.171h1.304c0.657,0,1.176-0.14,1.176-0.813V257.405z"/>
		<path fill="#212121" d="M618.183,260.487l-0.139-0.435c-0.785,0.435-1.486,0.574-1.947,0.574c-1.26,0-1.779-0.91-1.779-2.071
			c0-1.373,0.63-1.921,2.031-1.921h1.471v-0.518c0-0.7-0.126-0.938-1.205-0.938c-0.602,0-1.204,0.069-1.85,0.196l-0.266-1.514
			c0.646-0.195,1.668-0.336,2.452-0.336c2.367,0,2.886,0.715,2.886,2.605v4.356H618.183z M617.819,258.036h-0.966
			c-0.435,0-0.603,0.112-0.603,0.49s0.153,0.532,0.547,0.532c0.42,0,0.713-0.098,1.021-0.238V258.036z"/>
		<polygon fill="#212121" points="621.514,260.487 621.514,250.877 623.53,250.597 623.53,260.487 		"/>
		<path fill="#212121" d="M625.35,260.487v-9.609l2.017-0.28v9.89H625.35z M629.37,253.666h2.156l-1.793,3.39l1.877,3.432h-2.156
			l-1.821-3.432L629.37,253.666z"/>
		<path fill="#212121" d="M632.307,257.868v-1.583c0-1.401,0.659-2.76,3.082-2.76s3.082,1.358,3.082,2.76v1.583
			c0,1.4-0.659,2.759-3.082,2.759S632.307,259.268,632.307,257.868 M636.452,257.923v-1.694c0-0.645-0.336-1.009-1.063-1.009
			c-0.729,0-1.065,0.364-1.065,1.009v1.694c0,0.646,0.336,1.009,1.065,1.009C636.116,258.932,636.452,258.569,636.452,257.923"/>
		<path fill="#212121" d="M643.915,260.487v-4.511c0-0.308-0.14-0.49-0.49-0.49c-0.363,0-1.036,0.252-1.471,0.49v4.511h-2.018
			v-6.821h1.5l0.209,0.518c0.841-0.406,1.934-0.658,2.718-0.658c1.163,0,1.569,0.868,1.569,2.186v4.776H643.915z"/>
		<polygon fill="#212121" points="652.159,260.487 652.159,253.777 650.577,254.631 649.708,252.964 652.355,251.438 
			654.178,251.438 654.178,260.487 		"/>
		<path fill="#212121" d="M608.23,271.151l1.415-7.987h3.082c1.141,0,1.655,0.479,1.655,1.247c0,0.097-0.013,0.216-0.036,0.348
			l-0.18,1.008c-0.121,0.695-0.373,1.032-1.104,1.283c0.623,0.084,0.924,0.575,0.924,1.164c0,0.095-0.013,0.215-0.035,0.347
			l-0.168,0.947c-0.192,1.104-0.793,1.644-2.268,1.644H608.23z M612.956,268.5c0.012-0.072,0.023-0.168,0.023-0.24
			c0-0.479-0.3-0.756-0.995-0.756h-2.099l-0.492,2.795h2.171c0.804,0,1.127-0.312,1.235-0.924L612.956,268.5z M613.327,264.819
			c0.012-0.084,0.024-0.156,0.024-0.229c0-0.396-0.239-0.575-0.78-0.575h-2.074l-0.467,2.65h1.918c0.743,0,1.104-0.276,1.223-0.96
			L613.327,264.819z"/>
		<path fill="#212121" d="M619.364,271.151h-0.816l0.037-0.708c-0.648,0.576-1.439,0.828-2.184,0.828
			c-0.899,0-1.235-0.492-1.235-1.163c0-0.145,0.024-0.301,0.048-0.456l0.408-2.314c0.252-1.416,0.779-2.147,2.627-2.147
			c0.719,0,1.523,0.18,2.098,0.396L619.364,271.151z M619.256,266.186c-0.312-0.084-0.72-0.145-1.127-0.145
			c-0.899,0-1.345,0.276-1.547,1.428l-0.372,2.111c-0.023,0.144-0.048,0.299-0.048,0.407c0,0.275,0.12,0.432,0.479,0.432
			c0.731,0,1.379-0.408,2.051-1.02L619.256,266.186z"/>
		<polygon fill="#212121" points="622.737,262.923 623.744,262.78 622.27,271.152 621.286,271.152 		"/>
		<path fill="#212121" d="M628.339,266.246c-0.407-0.132-0.862-0.204-1.246-0.204c-0.948,0-1.307,0.324-1.512,1.428l-0.384,2.183
			c-0.012,0.084-0.024,0.168-0.024,0.252c0,0.371,0.192,0.516,0.695,0.516c0.528,0,1.225-0.168,1.811-0.396l0.134,0.803
			c-0.588,0.265-1.296,0.444-2.052,0.444c-1.104,0-1.57-0.516-1.57-1.308c0-0.084,0.011-0.252,0.047-0.456l0.385-2.17
			c0.287-1.619,0.971-2.147,2.519-2.147c0.431,0,0.995,0.096,1.415,0.264L628.339,266.246z"/>
		<path fill="#212121" d="M629.122,269.052l0.299-1.703c0.252-1.428,1.068-2.159,2.746-2.159c1.344,0,2.041,0.744,2.041,1.739
			c0,0.084,0,0.216-0.037,0.408l-0.324,1.835c-0.227,1.319-0.924,2.099-2.734,2.099
			C629.445,271.271,628.894,270.311,629.122,269.052 M633.188,267.337c0.022-0.133,0.036-0.252,0.036-0.349
			c0-0.635-0.372-0.947-1.199-0.947c-0.96,0-1.464,0.456-1.62,1.367l-0.3,1.691c-0.131,0.804,0.061,1.319,1.152,1.319
			c1.007,0,1.463-0.432,1.619-1.308L633.188,267.337z"/>
		<path fill="#212121" d="M640.446,266.221c0,0.133-0.014,0.312-0.048,0.504l-0.78,4.426h-0.984l0.793-4.497
			c0.012-0.072,0.023-0.156,0.023-0.204c0-0.24-0.119-0.324-0.406-0.324c-0.589,0-1.488,0.432-2.207,0.876l-0.732,4.149h-0.983
			l1.019-5.769l0.865-0.145l-0.074,0.828c0.578-0.408,1.777-0.876,2.472-0.876C640.134,265.19,640.446,265.586,640.446,266.221"/>
		<path fill="#212121" d="M641.205,273.645l-0.265-0.755c0.937-0.336,1.488-0.792,2.029-1.739h-0.349l-0.912-5.757l0.947-0.132
			l0.743,5.109l1.656-3.455c0.18-0.371,0.215-0.575,0.215-0.887c0-0.168-0.035-0.443-0.096-0.647l0.948-0.145
			c0.048,0.204,0.097,0.48,0.097,0.768c0,0.313-0.013,0.636-0.205,1.02l-2.026,4.126
			C643.341,272.338,642.776,273.129,641.205,273.645"/>
		<polygon fill="#212121" points="651.584,264.483 649.881,265.382 649.521,264.615 651.849,263.403 652.76,263.403 
			651.394,271.151 650.409,271.151 		"/>
	</g>
	<g>
		<path fill="#212121" d="M597.338,582.585c0,1.415-0.98,2.857-3.615,2.857c-2.633,0-3.613-1.442-3.613-2.857v-3.894
			c0-1.415,0.98-2.857,3.613-2.857c2.635,0,3.615,1.442,3.615,2.857V582.585z M595.236,578.873c0-0.729-0.462-1.177-1.514-1.177
			c-1.049,0-1.512,0.448-1.512,1.177v3.53c0,0.729,0.463,1.177,1.512,1.177c1.052,0,1.514-0.448,1.514-1.177V578.873z"/>
		<path fill="#212121" d="M600.961,581.143v4.16h-2.018v-6.821h1.682l0.141,0.658c0.42-0.28,1.287-0.687,1.834-0.799l0.168,1.906
			C602.166,580.484,601.395,580.834,600.961,581.143"/>
		<path fill="#212121" d="M603.773,585.303v-9.609l2.018-0.28v9.89H603.773z M607.793,578.481h2.158l-1.794,3.39l1.878,3.432h-2.158
			l-1.82-3.432L607.793,578.481z"/>
		<path fill="#212121" d="M612.748,582.6v0.195c0,0.785,0.309,0.995,1.232,0.995c0.631,0,1.471-0.112,2.074-0.294l0.293,1.513
			c-0.615,0.224-1.609,0.434-2.563,0.434c-2.212,0-3.054-1.092-3.054-2.773v-1.597c0-1.471,0.658-2.731,2.929-2.731
			c2.269,0,2.759,1.345,2.759,2.83v1.429H612.748z M614.514,580.792c0-0.476-0.141-0.868-0.842-0.868
			c-0.699,0-0.924,0.393-0.924,0.868v0.295h1.766V580.792z"/>
		<path fill="#212121" d="M620.014,585.442c-0.742,0-1.808-0.182-2.479-0.406l0.322-1.498c0.559,0.168,1.303,0.308,2.058,0.308
			c0.603,0,0.701-0.168,0.701-0.574c0-0.433-0.015-0.49-1.106-0.756c-1.652-0.406-1.808-0.854-1.808-2.13
			c0-1.442,0.562-2.045,2.606-2.045c0.518,0,1.471,0.07,2.072,0.225l-0.182,1.568c-0.604-0.112-1.346-0.196-1.877-0.196
			c-0.588,0-0.729,0.154-0.729,0.463c0,0.42,0.057,0.476,0.869,0.658c1.946,0.434,2.086,0.854,2.086,2.213
			C622.549,584.673,621.96,585.442,620.014,585.442"/>
		<path fill="#212121" d="M626.258,585.442c-1.303,0-2.06-0.49-2.06-1.751v-3.586h-0.924v-1.624h0.924v-1.64l2.017-0.279v1.919
			h1.556l-0.112,1.624h-1.443v3.307c0,0.279,0.168,0.378,0.422,0.378c0.224,0,0.545-0.028,0.84-0.126l0.238,1.526
			C627.267,585.345,626.721,585.442,626.258,585.442"/>
		<path fill="#212121" d="M631.031,581.143v4.16h-2.018v-6.821h1.682l0.141,0.658c0.42-0.28,1.289-0.687,1.835-0.799l0.168,1.906
			C632.236,580.484,631.466,580.834,631.031,581.143"/>
		<path fill="#212121" d="M637.5,585.303l-0.139-0.435c-0.786,0.435-1.486,0.574-1.948,0.574c-1.26,0-1.778-0.91-1.778-2.072
			c0-1.372,0.631-1.92,2.03-1.92h1.472v-0.518c0-0.7-0.127-0.938-1.205-0.938c-0.603,0-1.205,0.069-1.85,0.196l-0.265-1.514
			c0.644-0.195,1.667-0.336,2.45-0.336c2.367,0,2.887,0.715,2.887,2.605v4.356H637.5z M637.137,582.852h-0.967
			c-0.434,0-0.602,0.112-0.602,0.49s0.152,0.532,0.546,0.532c0.419,0,0.714-0.098,1.022-0.238V582.852z"/>
		<path fill="#212121" d="M643.77,575.974h2.103v9.329h-2.103V575.974z M646.137,580.54l2.521-4.566h2.368l-2.619,4.566l2.815,4.763
			h-2.367L646.137,580.54z"/>
		<path fill="#212121" d="M655.854,585.303l-0.139-0.435c-0.786,0.435-1.486,0.574-1.948,0.574c-1.26,0-1.778-0.91-1.778-2.072
			c0-1.372,0.631-1.92,2.03-1.92h1.472v-0.518c0-0.7-0.127-0.938-1.205-0.938c-0.603,0-1.205,0.069-1.85,0.196l-0.265-1.514
			c0.644-0.195,1.667-0.336,2.45-0.336c2.367,0,2.887,0.715,2.887,2.605v4.356H655.854z M655.49,582.852h-0.967
			c-0.434,0-0.602,0.112-0.602,0.49s0.152,0.532,0.546,0.532c0.419,0,0.714-0.098,1.022-0.238V582.852z"/>
		<path fill="#212121" d="M661.467,585.442c-1.303,0-2.059-0.49-2.059-1.751v-3.586h-0.924v-1.624h0.924v-1.64l2.018-0.279v1.919
			h1.556l-0.113,1.624h-1.442v3.307c0,0.279,0.168,0.378,0.42,0.378c0.225,0,0.547-0.028,0.84-0.126l0.238,1.526
			C662.477,585.345,661.93,585.442,661.467,585.442"/>
		<rect x="664.225" y="578.481" fill="#212121" width="2.018" height="6.821"/>
		<path fill="#212121" d="M591.311,595.273c0-0.132,0.012-0.323,0.048-0.516l0.576-3.273c0.3-1.681,1.175-2.459,3.262-2.459
			c1.631,0,2.519,0.875,2.519,2.075c0,0.144-0.023,0.312-0.047,0.443l-0.588,3.346c-0.253,1.428-1.056,2.363-3.287,2.363
			C592.043,597.253,591.311,596.425,591.311,595.273 M596.672,591.532c0.023-0.146,0.047-0.288,0.047-0.432
			c0-0.744-0.455-1.188-1.631-1.188c-1.354,0-1.955,0.468-2.158,1.619l-0.564,3.214c-0.035,0.204-0.048,0.348-0.048,0.468
			c0,0.708,0.396,1.151,1.631,1.151c1.392,0,1.968-0.563,2.147-1.56L596.672,591.532z"/>
		<path fill="#212121" d="M601.977,592.071c-0.66,0.36-1.271,0.768-1.824,1.176l-0.682,3.886h-0.984l1.019-5.769l0.876-0.145
			l-0.107,0.96c0.468-0.384,1.056-0.744,1.666-1.008L601.977,592.071z"/>
		<path fill="#212121" d="M606.439,592.228c-0.408-0.132-0.862-0.204-1.246-0.204c-0.948,0-1.309,0.324-1.512,1.428l-0.384,2.183
			c-0.012,0.084-0.024,0.168-0.024,0.252c0,0.371,0.192,0.516,0.695,0.516c0.528,0,1.225-0.168,1.811-0.396l0.134,0.803
			c-0.588,0.265-1.296,0.444-2.052,0.444c-1.104,0-1.57-0.516-1.57-1.308c0-0.084,0.011-0.252,0.047-0.456l0.385-2.17
			c0.287-1.619,0.971-2.147,2.518-2.147c0.432,0,0.996,0.096,1.416,0.264L606.439,592.228z"/>
		<path fill="#212121" d="M611.48,592.636c0.012-0.061,0.023-0.156,0.023-0.204c0-0.24-0.12-0.324-0.408-0.324
			c-0.588,0-1.486,0.432-2.207,0.876l-0.73,4.149h-0.984l1.452-8.227l1.007-0.145L609.068,592c0.601-0.396,1.716-0.828,2.388-0.828
			c0.731,0,1.043,0.396,1.043,1.031c0,0.133-0.013,0.313-0.048,0.504l-0.779,4.426h-0.984L611.48,592.636z"/>
		<path fill="#212121" d="M614.612,595.573c-0.022,0.133-0.022,0.216-0.022,0.265c0,0.371,0.18,0.587,0.803,0.587
			c0.611,0,1.343-0.228,2.134-0.611l0.218,0.731c-0.744,0.408-1.513,0.708-2.484,0.708c-1.174,0-1.643-0.552-1.643-1.355
			c0-0.144,0.012-0.336,0.049-0.54l0.348-1.967c0.263-1.475,0.924-2.219,2.578-2.219c0.972,0,1.668,0.456,1.668,1.319
			c0,0.983-0.457,1.476-2.1,2.027c-0.707,0.239-0.936,0.3-1.438,0.455L614.612,595.573z M617.336,592.6
			c0-0.384-0.289-0.624-0.815-0.624c-0.912,0-1.331,0.336-1.499,1.283l-0.145,0.804c0.324-0.096,0.516-0.156,1.08-0.324
			C616.928,593.451,617.336,593.078,617.336,592.6"/>
		<path fill="#212121" d="M618.777,596.929l0.205-0.768c0.467,0.156,1.056,0.264,1.56,0.264c0.851,0,1.019-0.144,1.127-0.791
			c0.084-0.492-0.048-0.685-0.983-1.115c-1.199-0.552-1.404-1.08-1.26-1.932c0.167-1.007,0.612-1.415,2.086-1.415
			c0.529,0,1.212,0.108,1.656,0.252L623,592.203c-0.455-0.119-1.092-0.203-1.512-0.203c-0.84,0-0.994,0.119-1.104,0.707
			c-0.095,0.552,0.073,0.672,0.816,1.067c1.354,0.72,1.607,1.008,1.438,1.919c-0.204,1.092-0.551,1.56-2.146,1.56
			C619.965,597.253,619.246,597.133,618.777,596.929"/>
		<path fill="#212121" d="M624.406,596.317c0-0.048,0-0.132,0.022-0.264l0.697-3.946h-1.032l0.145-0.815h1.03l0.253-1.439
			l1.006-0.132l-0.274,1.571h1.606l-0.168,0.815h-1.582l-0.697,3.934c-0.012,0.072-0.012,0.097-0.012,0.133
			c0,0.167,0.096,0.251,0.336,0.251c0.323,0,0.672-0.071,1.08-0.251l0.229,0.684c-0.504,0.251-1.008,0.396-1.584,0.396
			C624.742,597.253,624.406,596.845,624.406,596.317"/>
		<path fill="#212121" d="M631.748,592.071c-0.66,0.36-1.271,0.768-1.823,1.176l-0.685,3.886h-0.982l1.019-5.769l0.875-0.145
			l-0.106,0.96c0.468-0.384,1.055-0.744,1.666-1.008L631.748,592.071z"/>
		<path fill="#212121" d="M636.222,597.133h-0.815l0.037-0.708c-0.647,0.576-1.439,0.828-2.183,0.828
			c-0.899,0-1.235-0.492-1.235-1.163c0-0.145,0.023-0.301,0.047-0.456l0.408-2.314c0.252-1.416,0.78-2.147,2.627-2.147
			c0.719,0,1.523,0.18,2.098,0.396L636.222,597.133z M636.115,592.168c-0.313-0.084-0.721-0.145-1.129-0.145
			c-0.898,0-1.343,0.276-1.547,1.428l-0.371,2.11c-0.023,0.145-0.049,0.3-0.049,0.408c0,0.275,0.12,0.432,0.48,0.432
			c0.73,0,1.38-0.408,2.051-1.02L636.115,592.168z"/>
		<polygon fill="#212121" points="642.199,589.146 643.207,589.146 641.949,596.233 645.427,596.233 645.27,597.133 
			640.785,597.133 		"/>
		<path fill="#212121" d="M647.672,595.573c-0.023,0.133-0.023,0.216-0.023,0.265c0,0.371,0.181,0.587,0.804,0.587
			c0.612,0,1.343-0.228,2.135-0.611l0.216,0.731c-0.744,0.408-1.512,0.708-2.482,0.708c-1.176,0-1.643-0.552-1.643-1.355
			c0-0.144,0.012-0.336,0.047-0.54l0.349-1.967c0.263-1.475,0.924-2.219,2.579-2.219c0.971,0,1.666,0.456,1.666,1.319
			c0,0.983-0.455,1.476-2.1,2.027c-0.707,0.239-0.934,0.3-1.438,0.455L647.672,595.573z M650.395,592.6
			c0-0.384-0.287-0.624-0.814-0.624c-0.913,0-1.331,0.336-1.499,1.283l-0.146,0.804c0.324-0.096,0.517-0.156,1.08-0.324
			C649.986,593.451,650.395,593.078,650.395,592.6"/>
		<path fill="#212121" d="M653.133,597.133l-0.912-5.757l0.947-0.132l0.743,5.109l1.656-3.454c0.179-0.372,0.215-0.576,0.215-0.888
			c0-0.168-0.036-0.443-0.096-0.647l0.948-0.145c0.047,0.204,0.096,0.48,0.096,0.767c0,0.313-0.012,0.637-0.204,1.021l-2.026,4.126
			H653.133z"/>
		<path fill="#212121" d="M658.279,595.573c-0.023,0.133-0.023,0.216-0.023,0.265c0,0.371,0.181,0.587,0.804,0.587
			c0.612,0,1.343-0.228,2.135-0.611l0.216,0.731c-0.744,0.408-1.512,0.708-2.482,0.708c-1.176,0-1.643-0.552-1.643-1.355
			c0-0.144,0.012-0.336,0.047-0.54l0.349-1.967c0.263-1.475,0.924-2.219,2.579-2.219c0.971,0,1.666,0.456,1.666,1.319
			c0,0.983-0.455,1.476-2.1,2.027c-0.707,0.239-0.934,0.3-1.438,0.455L658.279,595.573z M661.002,592.6
			c0-0.384-0.287-0.624-0.814-0.624c-0.913,0-1.331,0.336-1.499,1.283l-0.146,0.804c0.324-0.096,0.517-0.156,1.08-0.324
			C660.594,593.451,661.002,593.078,661.002,592.6"/>
		<polygon fill="#212121" points="664.088,588.905 665.096,588.762 663.619,597.133 662.637,597.133 		"/>
	</g>
	<rect x="200.521" y="774.74" fill="#9D9D9C" width="442" height="4.488"/>
</g>
</svg>
