<svg>
<g id="AREAS">
	<polygon stroke-width="0" id="SOR-OBL" fill="#E52922" points="274.844,169.919 265.042,140.637 270.204,134.703 266.85,124.384 273.298,114.583 
		269.943,108.13 265.302,96.779 319.477,56.792 330.311,63.757 333.665,68.143 337.276,78.979 349.145,113.035 	"/>
	<polygon stroke-width="0" id="SOR-OBC" fill="#E52922" points="364.106,108.906 348.37,57.05 509.092,57.05 493.869,108.648 	"/>
	<polygon stroke-width="0" id="SOR-OBR" fill="#E52922" points="580.425,169.531 590.226,140.25 585.064,134.316 588.42,123.998 581.969,114.193 
		585.324,107.744 589.967,96.393 535.792,56.406 524.956,63.372 521.604,67.756 517.991,78.591 506.124,112.645 	"/>
	<polygon stroke-width="0" id="SOR-OFL" fill="#E52922" points="357.658,263.309 286.843,214.165 282.972,209.133 350.307,158.054 354.949,163.472 
		382.037,243.574 	"/>
	<path stroke-width="0" id="SOR-OFC" fill="#E52922" d="M397.386,247.188c0.774,0-30.699-96.744-30.699-96.744h122.799l-31.731,96.744H397.386z"/>
	<polygon stroke-width="0" id="SOR-OFR" fill="#E52922" points="498.514,261.374 569.329,212.229 573.199,207.199 505.867,156.12 501.223,161.538 
		474.134,241.641 	"/>
</g>
<g id="EXTRAS">
	<rect x="274.499" y="327.448" fill="#9D9D9C" width="307.981" height="3.128"/>
	<g>
		<path fill="#010202" d="M386.584,342.702l0.337-1.548c0.916,0.285,1.783,0.427,2.603,0.427c0.516,0,0.853-0.063,1.009-0.19
			c0.157-0.127,0.234-0.387,0.234-0.78c0-0.16-0.002-0.28-0.006-0.358s-0.025-0.162-0.063-0.254s-0.083-0.157-0.133-0.197
			c-0.051-0.04-0.142-0.09-0.271-0.147c-0.129-0.059-0.266-0.104-0.415-0.139c-0.146-0.035-0.355-0.084-0.626-0.147
			c-0.373-0.107-0.687-0.194-0.941-0.26c-0.253-0.064-0.479-0.152-0.674-0.263c-0.197-0.109-0.348-0.225-0.456-0.344
			c-0.108-0.117-0.197-0.277-0.266-0.476c-0.067-0.199-0.112-0.408-0.135-0.629c-0.022-0.22-0.032-0.5-0.032-0.842
			c0-0.382,0.027-0.707,0.085-0.974c0.057-0.268,0.155-0.507,0.294-0.719c0.139-0.211,0.329-0.377,0.569-0.498
			c0.239-0.122,0.536-0.213,0.89-0.276c0.352-0.063,0.776-0.095,1.275-0.095c0.907,0,1.817,0.103,2.729,0.307l-0.199,1.748
			c-0.991-0.172-1.826-0.256-2.505-0.256c-0.448,0-0.746,0.054-0.893,0.162c-0.145,0.11-0.219,0.328-0.219,0.654
			c0,0.127,0,0.222,0,0.285s0.012,0.136,0.033,0.216c0.022,0.08,0.038,0.138,0.049,0.17c0.01,0.033,0.049,0.075,0.115,0.128
			c0.067,0.052,0.123,0.087,0.165,0.104c0.044,0.017,0.133,0.042,0.268,0.076c0.134,0.033,0.248,0.061,0.342,0.083
			c0.096,0.021,0.248,0.057,0.456,0.105c0.327,0.111,0.605,0.198,0.834,0.26c0.23,0.063,0.437,0.137,0.619,0.223
			s0.335,0.166,0.456,0.24c0.122,0.074,0.228,0.172,0.316,0.29c0.089,0.119,0.155,0.23,0.2,0.333
			c0.045,0.104,0.079,0.242,0.106,0.419c0.026,0.175,0.044,0.34,0.051,0.493s0.009,0.356,0.009,0.606
			c0,0.375-0.027,0.694-0.082,0.958c-0.056,0.264-0.153,0.506-0.298,0.729c-0.143,0.221-0.337,0.398-0.585,0.531
			c-0.247,0.133-0.563,0.236-0.948,0.308c-0.385,0.072-0.849,0.107-1.391,0.107c-0.516,0-1.031-0.052-1.547-0.156
			C387.43,343.014,386.976,342.875,386.584,342.702z"/>
		<path fill="#010202" d="M393.417,343.142l2.75-9.016h2.709l2.764,9.016h-2.115l-0.489-1.759h-3.015l-0.488,1.759H393.417z
			 M396.477,339.691h2.076l-1.031-3.78L396.477,339.691z"/>
		<path fill="#010202" d="M402.65,343.142v-9.016h2.029v3.59h2.915v-3.59h2.029v9.016h-2.029v-3.629h-2.915v3.629H402.65z"/>
		<path fill="#010202" d="M411.376,343.142v-9.016h2.505l2.956,6.213v-6.213h1.95v9.016h-2.519l-2.942-5.929v5.929H411.376z"/>
		<path fill="#010202" d="M420.524,343.142v-9.016h5.671v1.798h-3.642v1.658h3.357v1.798h-3.357v1.964h3.642v1.798H420.524z"/>
	</g>
	<g>
		<path fill="#010202" d="M429.702,343.595l3.226-8.411h0.8l-3.248,8.411H429.702z"/>
	</g>
	<g>
		<path fill="#010202" d="M440.11,343.258c-0.162,0-0.34-0.01-0.534-0.029c-0.192-0.02-0.386-0.049-0.579-0.088
			s-0.385-0.085-0.574-0.135c-0.19-0.052-0.365-0.112-0.528-0.184l0.22-0.783c0.364,0.109,0.72,0.195,1.068,0.262
			c0.349,0.065,0.688,0.099,1.021,0.099c0.31,0,0.567-0.023,0.772-0.07c0.205-0.046,0.371-0.118,0.498-0.214
			c0.129-0.097,0.228-0.226,0.296-0.389c0.07-0.161,0.124-0.358,0.163-0.59c0.023-0.132,0.042-0.245,0.059-0.342
			c0.015-0.097,0.022-0.185,0.022-0.261c0-0.124-0.021-0.226-0.064-0.308c-0.042-0.081-0.118-0.154-0.226-0.22
			c-0.108-0.065-0.255-0.127-0.441-0.186c-0.186-0.058-0.417-0.121-0.696-0.191c-0.34-0.085-0.622-0.178-0.847-0.277
			c-0.225-0.101-0.402-0.214-0.534-0.341c-0.132-0.129-0.226-0.271-0.284-0.43c-0.057-0.158-0.087-0.339-0.087-0.539
			c0-0.115,0.008-0.237,0.024-0.364c0.015-0.127,0.034-0.265,0.057-0.411c0.07-0.395,0.167-0.717,0.29-0.969
			c0.124-0.251,0.291-0.451,0.5-0.602c0.208-0.15,0.472-0.255,0.788-0.313c0.317-0.059,0.708-0.087,1.172-0.087
			c0.146,0,0.307,0.006,0.477,0.018c0.17,0.011,0.347,0.028,0.527,0.053c0.183,0.022,0.359,0.051,0.534,0.087
			c0.174,0.034,0.338,0.07,0.494,0.109l-0.175,0.824c-0.325-0.078-0.666-0.136-1.021-0.174c-0.355-0.039-0.653-0.059-0.893-0.059
			c-0.326,0-0.591,0.016-0.796,0.047s-0.37,0.089-0.492,0.174c-0.125,0.085-0.218,0.201-0.279,0.349
			c-0.063,0.146-0.111,0.336-0.15,0.568c-0.023,0.132-0.042,0.253-0.059,0.365c-0.015,0.112-0.022,0.203-0.022,0.272
			c0,0.124,0.021,0.226,0.063,0.308c0.043,0.081,0.115,0.154,0.215,0.221c0.1,0.065,0.236,0.13,0.41,0.191s0.395,0.127,0.665,0.197
			c0.354,0.093,0.648,0.188,0.884,0.29c0.236,0.101,0.423,0.208,0.562,0.325c0.139,0.115,0.237,0.247,0.294,0.395
			c0.059,0.146,0.087,0.317,0.087,0.511c0,0.1-0.008,0.218-0.022,0.353c-0.016,0.137-0.039,0.281-0.068,0.436
			c-0.063,0.349-0.143,0.654-0.242,0.917c-0.1,0.264-0.251,0.482-0.454,0.655c-0.202,0.174-0.47,0.306-0.803,0.396
			C441.066,343.213,440.637,343.258,440.11,343.258z"/>
		<path fill="#010202" d="M446.794,343.142h-0.976l1.196-6.869h-2.287l0.151-0.859h5.57l-0.15,0.859H448L446.794,343.142z"/>
		<path fill="#010202" d="M454.313,341.262h-3.226l-0.963,1.88h-1.021l3.888-7.729h1.393l1.206,7.729h-0.998L454.313,341.262z
			 M451.482,340.438h2.704l-0.593-4.339L451.482,340.438z"/>
		<path fill="#010202" d="M459.105,343.258c-0.409,0-0.756-0.043-1.037-0.128c-0.282-0.084-0.513-0.205-0.692-0.359
			s-0.31-0.338-0.39-0.551c-0.08-0.214-0.12-0.45-0.12-0.714c0-0.077,0.004-0.163,0.012-0.256c0.007-0.093,0.019-0.189,0.034-0.29
			l0.596-3.411c0.068-0.379,0.167-0.71,0.293-0.992c0.128-0.282,0.306-0.517,0.533-0.702s0.518-0.325,0.871-0.418
			c0.352-0.093,0.786-0.139,1.305-0.139c0.324,0,0.679,0.022,1.063,0.07c0.382,0.045,0.748,0.123,1.096,0.231l-0.186,0.823
			c-0.341-0.077-0.701-0.138-1.079-0.18c-0.379-0.042-0.716-0.063-1.01-0.063c-0.325,0-0.6,0.026-0.823,0.082
			c-0.225,0.054-0.412,0.139-0.563,0.255c-0.15,0.116-0.269,0.27-0.354,0.46c-0.085,0.188-0.15,0.42-0.197,0.69l-0.557,3.186
			c-0.022,0.125-0.039,0.234-0.046,0.332c-0.008,0.097-0.012,0.18-0.012,0.25c0,0.163,0.023,0.304,0.069,0.424
			c0.047,0.12,0.124,0.222,0.232,0.303c0.107,0.081,0.253,0.141,0.436,0.18c0.181,0.039,0.408,0.059,0.678,0.059
			c0.225,0,0.465-0.014,0.72-0.041c0.256-0.026,0.529-0.071,0.824-0.133l0.464-2.576h0.939l-0.557,3.208
			c-0.395,0.138-0.811,0.238-1.247,0.303C459.962,343.226,459.531,343.258,459.105,343.258z"/>
		<path fill="#010202" d="M464.814,335.413h4.502l-0.162,0.859h-3.505l-0.43,2.483h3.25l-0.151,0.858h-3.26l-0.477,2.669h3.527
			l-0.149,0.858h-4.503L464.814,335.413z"/>
	</g>
	<line fill="none" stroke="#000000" stroke-miterlimit="10" x1="607.147" y1="98.374" x2="607.147" y2="257.837"/>
	<g>
		<path d="M610.285,255.079l2.241-7.348h2.209l2.252,7.348h-1.725l-0.397-1.434h-2.457l-0.398,1.434H610.285z M612.78,252.268h1.69
			l-0.84-3.082L612.78,252.268z"/>
	</g>
	<g>
		<path d="M610,172.94c0.402-0.323,0.652-0.549,0.748-0.676c0.098-0.127,0.146-0.289,0.146-0.482v-7.348h1.655v7.601
			c0,0.33-0.129,0.657-0.386,0.978c-0.258,0.322-0.649,0.688-1.178,1.096L610,172.94z"/>
	</g>
	<g>
		<path d="M619.586,168.824c-0.148,0-0.314-0.009-0.496-0.026c-0.184-0.017-0.37-0.046-0.561-0.085
			c-0.19-0.038-0.375-0.083-0.555-0.136c-0.179-0.053-0.343-0.115-0.49-0.186l0.285-1.013c0.338,0.098,0.658,0.179,0.96,0.243
			c0.303,0.063,0.62,0.094,0.951,0.094c0.246,0,0.447-0.014,0.602-0.041c0.154-0.029,0.278-0.078,0.37-0.148
			c0.091-0.071,0.158-0.164,0.2-0.281c0.043-0.116,0.08-0.261,0.116-0.438c0.035-0.197,0.053-0.345,0.053-0.443
			c0-0.092-0.018-0.169-0.053-0.232c-0.036-0.063-0.095-0.118-0.18-0.164c-0.084-0.046-0.202-0.092-0.354-0.138
			c-0.151-0.044-0.344-0.1-0.576-0.163c-0.31-0.078-0.564-0.166-0.766-0.265c-0.2-0.099-0.361-0.211-0.485-0.338
			c-0.123-0.126-0.209-0.267-0.258-0.422c-0.049-0.154-0.074-0.328-0.074-0.518c0-0.105,0.007-0.217,0.021-0.333
			c0.014-0.117,0.031-0.238,0.053-0.364c0.063-0.367,0.147-0.669,0.253-0.909c0.105-0.239,0.254-0.428,0.443-0.569
			c0.19-0.141,0.437-0.238,0.739-0.291s0.687-0.079,1.151-0.079c0.316,0,0.639,0.021,0.966,0.063s0.66,0.114,0.998,0.212
			l-0.222,1.087c-0.339-0.078-0.657-0.137-0.956-0.18s-0.597-0.063-0.893-0.063c-0.231,0-0.42,0.01-0.564,0.032
			c-0.145,0.021-0.258,0.06-0.343,0.116s-0.15,0.139-0.196,0.248c-0.046,0.11-0.082,0.249-0.109,0.418
			c-0.036,0.197-0.055,0.345-0.055,0.443c0,0.083,0.017,0.158,0.049,0.221c0.03,0.063,0.089,0.12,0.173,0.169
			c0.085,0.049,0.198,0.099,0.343,0.148c0.143,0.049,0.327,0.102,0.552,0.158c0.315,0.084,0.577,0.17,0.788,0.259
			s0.381,0.19,0.51,0.306c0.131,0.116,0.222,0.248,0.274,0.396c0.053,0.149,0.079,0.317,0.079,0.507
			c0,0.099-0.007,0.204-0.021,0.316c-0.015,0.113-0.032,0.236-0.053,0.37c-0.064,0.359-0.145,0.666-0.243,0.919
			c-0.098,0.253-0.243,0.46-0.437,0.622c-0.192,0.163-0.447,0.282-0.762,0.36C620.5,168.785,620.091,168.824,619.586,168.824z"/>
		<path d="M624.053,163.671l1.299-0.18l-0.919,5.227h-1.268L624.053,163.671z"/>
		<path d="M629.269,164.631c-0.303,0.163-0.564,0.312-0.787,0.449c-0.221,0.137-0.47,0.294-0.744,0.47l-0.56,3.168h-1.268
			l0.888-5.037l1.108-0.19l-0.053,0.75c0.184-0.133,0.395-0.271,0.634-0.412c0.239-0.141,0.469-0.256,0.687-0.348L629.269,164.631z"
			/>
		<path d="M633.366,168.718h-1.067l-0.01-0.571c-0.226,0.205-0.476,0.368-0.751,0.492c-0.273,0.123-0.584,0.185-0.929,0.185
			c-0.443,0-0.753-0.106-0.93-0.322c-0.175-0.214-0.264-0.499-0.264-0.851c0-0.084,0.006-0.17,0.017-0.259
			c0.01-0.087,0.022-0.181,0.036-0.279l0.264-1.5c0.064-0.344,0.14-0.651,0.229-0.918c0.087-0.268,0.221-0.493,0.4-0.676
			c0.179-0.184,0.421-0.321,0.724-0.413c0.302-0.09,0.703-0.136,1.204-0.136c0.126,0,0.272,0.008,0.438,0.026
			c0.165,0.017,0.338,0.042,0.518,0.073c0.179,0.032,0.355,0.068,0.528,0.105c0.172,0.039,0.325,0.079,0.458,0.122L633.366,168.718z
			 M632.827,164.611c-0.12-0.021-0.238-0.039-0.354-0.053c-0.116-0.014-0.242-0.022-0.375-0.022c-0.204,0-0.37,0.022-0.496,0.064
			c-0.127,0.042-0.229,0.105-0.307,0.19c-0.077,0.083-0.137,0.19-0.18,0.316c-0.042,0.127-0.077,0.275-0.105,0.443l-0.316,1.806
			c-0.008,0.036-0.011,0.062-0.011,0.079c0,0.018,0,0.033,0,0.048c0,0.184,0.116,0.274,0.349,0.274c0.203,0,0.434-0.079,0.691-0.237
			c0.257-0.158,0.483-0.336,0.681-0.533L632.827,164.611z"/>
		<path d="M636.29,168.824c-0.119,0-0.25-0.009-0.391-0.026c-0.142-0.017-0.285-0.04-0.434-0.069c-0.147-0.027-0.29-0.061-0.427-0.1
			c-0.138-0.039-0.26-0.083-0.365-0.133l0.243-0.96c0.204,0.07,0.43,0.132,0.676,0.185c0.247,0.053,0.5,0.079,0.76,0.079
			c0.142,0,0.256-0.007,0.344-0.021c0.089-0.014,0.158-0.039,0.211-0.075c0.053-0.034,0.094-0.08,0.121-0.137
			c0.029-0.056,0.05-0.129,0.063-0.221c0.015-0.078,0.019-0.146,0.012-0.206s-0.036-0.118-0.085-0.174s-0.128-0.118-0.237-0.185
			c-0.11-0.066-0.259-0.15-0.449-0.249c-0.274-0.133-0.491-0.263-0.649-0.385c-0.158-0.124-0.273-0.25-0.349-0.38
			c-0.073-0.129-0.112-0.27-0.115-0.423c-0.005-0.151,0.011-0.325,0.047-0.522c0.042-0.26,0.104-0.477,0.185-0.648
			c0.081-0.173,0.195-0.312,0.344-0.418c0.147-0.105,0.336-0.179,0.564-0.221c0.229-0.042,0.513-0.063,0.851-0.063
			c0.246,0,0.512,0.024,0.797,0.073s0.529,0.109,0.733,0.18l-0.211,0.971c-0.197-0.056-0.423-0.104-0.676-0.143
			c-0.253-0.038-0.472-0.057-0.654-0.057c-0.254,0-0.43,0.02-0.528,0.057c-0.099,0.039-0.162,0.15-0.19,0.333
			c-0.014,0.083-0.017,0.156-0.01,0.216c0.007,0.06,0.031,0.114,0.073,0.163s0.105,0.101,0.19,0.153s0.197,0.118,0.338,0.195
			c0.296,0.163,0.533,0.301,0.713,0.418c0.18,0.116,0.314,0.231,0.406,0.349c0.092,0.116,0.146,0.243,0.164,0.379
			c0.018,0.138,0.008,0.309-0.026,0.512c-0.049,0.289-0.117,0.532-0.2,0.729c-0.085,0.197-0.203,0.357-0.354,0.481
			c-0.151,0.123-0.347,0.211-0.587,0.264C636.947,168.797,636.648,168.824,636.29,168.824z"/>
		<path d="M640.05,163.671l1.299-0.18l-0.919,5.227h-1.268L640.05,163.671z"/>
	</g>
	<g>
		<path d="M623.692,176.331h-2.037l-0.476,2.714h-0.602l1.235-7.033h2.449c0.613,0,1.05,0.115,1.31,0.344
			c0.26,0.228,0.391,0.536,0.391,0.924c0,0.12-0.01,0.246-0.032,0.38l-0.2,1.129c-0.035,0.204-0.086,0.385-0.153,0.544
			c-0.066,0.158-0.155,0.299-0.264,0.421c-0.109,0.124-0.244,0.226-0.407,0.306c-0.161,0.082-0.358,0.146-0.591,0.196l1.395,2.788
			h-0.666L623.692,176.331z M625.34,173.607c0.021-0.105,0.032-0.204,0.032-0.296c0-0.295-0.098-0.496-0.291-0.603
			c-0.194-0.105-0.483-0.158-0.871-0.158h-1.891l-0.569,3.241h1.89c0.465,0,0.813-0.077,1.046-0.231
			c0.231-0.154,0.384-0.429,0.454-0.824L625.34,173.607z"/>
		<path d="M628.623,179.15c-0.302,0-0.561-0.037-0.775-0.111c-0.214-0.074-0.39-0.174-0.522-0.3
			c-0.134-0.127-0.232-0.278-0.296-0.455c-0.063-0.175-0.095-0.365-0.095-0.569c0-0.078,0.004-0.155,0.011-0.232
			c0.007-0.078,0.017-0.155,0.031-0.233l0.274-1.563c0.049-0.281,0.127-0.539,0.232-0.77c0.105-0.233,0.249-0.432,0.428-0.597
			c0.18-0.165,0.405-0.294,0.676-0.386c0.271-0.09,0.597-0.136,0.978-0.136c0.569,0,0.998,0.133,1.282,0.401
			c0.285,0.267,0.428,0.617,0.428,1.045c0,0.064-0.004,0.127-0.011,0.19s-0.018,0.131-0.031,0.201l-0.296,1.68
			c-0.049,0.289-0.128,0.545-0.238,0.77c-0.108,0.226-0.254,0.417-0.438,0.576c-0.184,0.158-0.41,0.279-0.682,0.364
			C629.309,179.108,628.99,179.15,628.623,179.15z M630.642,175.634c0.021-0.126,0.03-0.247,0.03-0.359
			c0-0.317-0.095-0.555-0.285-0.712c-0.188-0.158-0.496-0.238-0.918-0.238c-0.485,0-0.859,0.114-1.119,0.344
			c-0.261,0.229-0.43,0.568-0.508,1.019l-0.284,1.615c-0.021,0.141-0.032,0.271-0.032,0.391c0,0.304,0.09,0.534,0.27,0.692
			s0.487,0.237,0.924,0.237c0.479,0,0.85-0.108,1.114-0.326c0.264-0.219,0.435-0.55,0.513-0.994L630.642,175.634z"/>
		<path d="M635.72,173.86l0.961,4.826l1.192-2.947c0.078-0.204,0.127-0.389,0.149-0.554c0.021-0.166,0.03-0.33,0.03-0.491
			c0-0.253-0.027-0.503-0.084-0.75l0.56-0.085c0.021,0.127,0.039,0.257,0.053,0.391c0.014,0.134,0.021,0.272,0.021,0.412
			c0,0.197-0.014,0.39-0.041,0.576c-0.028,0.186-0.081,0.389-0.159,0.607l-1.298,3.199h-0.909l-0.633-3.241l-1.754,3.241h-0.896
			c-0.007-1.063-0.053-2.006-0.138-2.83c-0.085-0.824-0.207-1.58-0.369-2.27l0.549-0.085c0.063,0.31,0.123,0.637,0.18,0.982
			c0.057,0.345,0.105,0.715,0.148,1.109c0.041,0.394,0.074,0.817,0.1,1.267s0.036,0.939,0.036,1.468l1.996-3.664l-0.2-1.077
			L635.72,173.86z"/>
	</g>
	<g>
		<path d="M620.758,245.971c-0.147,0-0.313-0.01-0.496-0.026c-0.184-0.018-0.37-0.046-0.561-0.085
			c-0.19-0.038-0.374-0.084-0.555-0.137c-0.179-0.053-0.342-0.114-0.49-0.186l0.285-1.013c0.339,0.099,0.658,0.179,0.961,0.243
			c0.302,0.063,0.619,0.094,0.95,0.094c0.247,0,0.447-0.014,0.602-0.041c0.155-0.029,0.278-0.078,0.37-0.148
			c0.091-0.07,0.158-0.163,0.201-0.28c0.042-0.116,0.08-0.262,0.115-0.438c0.036-0.197,0.053-0.345,0.053-0.443
			c0-0.092-0.017-0.17-0.053-0.232c-0.035-0.063-0.095-0.118-0.18-0.164c-0.084-0.046-0.202-0.092-0.353-0.138
			c-0.151-0.045-0.344-0.1-0.577-0.163c-0.309-0.077-0.564-0.166-0.765-0.265c-0.201-0.099-0.362-0.211-0.486-0.338
			c-0.122-0.126-0.208-0.267-0.258-0.422c-0.049-0.154-0.074-0.327-0.074-0.518c0-0.105,0.007-0.217,0.021-0.332
			c0.014-0.117,0.031-0.238,0.053-0.364c0.063-0.367,0.148-0.669,0.254-0.909c0.104-0.239,0.253-0.428,0.443-0.569
			c0.189-0.141,0.437-0.238,0.738-0.291c0.303-0.053,0.687-0.079,1.151-0.079c0.316,0,0.639,0.021,0.966,0.063
			c0.327,0.042,0.66,0.113,0.998,0.212l-0.222,1.087c-0.338-0.077-0.657-0.137-0.956-0.18c-0.299-0.042-0.597-0.063-0.893-0.063
			c-0.231,0-0.42,0.01-0.564,0.031s-0.258,0.06-0.343,0.116c-0.085,0.056-0.15,0.139-0.196,0.247
			c-0.045,0.11-0.082,0.249-0.109,0.419c-0.036,0.196-0.054,0.345-0.054,0.443c0,0.083,0.016,0.158,0.048,0.221
			c0.031,0.063,0.09,0.12,0.173,0.17c0.085,0.049,0.198,0.099,0.343,0.147c0.144,0.05,0.328,0.103,0.552,0.158
			c0.315,0.085,0.578,0.171,0.789,0.259c0.211,0.089,0.38,0.19,0.51,0.306c0.13,0.116,0.221,0.248,0.273,0.396
			c0.053,0.149,0.079,0.317,0.079,0.508c0,0.099-0.007,0.204-0.021,0.316c-0.015,0.113-0.032,0.236-0.053,0.37
			c-0.064,0.358-0.145,0.665-0.243,0.919c-0.097,0.253-0.242,0.46-0.437,0.622c-0.192,0.162-0.446,0.281-0.762,0.359
			C621.672,245.932,621.263,245.971,620.758,245.971z"/>
		<path d="M625.226,240.818l1.298-0.181l-0.919,5.228h-1.268L625.226,240.818z"/>
		<path d="M630.44,241.778c-0.303,0.162-0.564,0.312-0.787,0.449c-0.221,0.137-0.47,0.294-0.743,0.47l-0.561,3.168h-1.268
			l0.889-5.037l1.107-0.19l-0.053,0.75c0.184-0.133,0.395-0.271,0.634-0.412c0.239-0.141,0.469-0.256,0.687-0.348L630.44,241.778z"
			/>
		<path d="M634.538,245.865h-1.066l-0.011-0.57c-0.226,0.205-0.476,0.367-0.751,0.491c-0.273,0.122-0.584,0.185-0.929,0.185
			c-0.443,0-0.753-0.106-0.93-0.322c-0.175-0.214-0.263-0.498-0.263-0.851c0-0.084,0.005-0.17,0.016-0.259
			c0.011-0.087,0.023-0.181,0.037-0.279l0.263-1.5c0.064-0.344,0.141-0.65,0.229-0.918c0.087-0.268,0.221-0.492,0.401-0.676
			c0.179-0.184,0.42-0.32,0.723-0.412c0.303-0.091,0.703-0.137,1.204-0.137c0.126,0,0.272,0.008,0.438,0.026
			c0.165,0.018,0.338,0.043,0.519,0.073c0.178,0.032,0.354,0.068,0.527,0.105c0.172,0.039,0.326,0.079,0.459,0.122L634.538,245.865z
			 M633.999,241.758c-0.12-0.021-0.238-0.039-0.354-0.053c-0.116-0.014-0.242-0.022-0.375-0.022c-0.204,0-0.37,0.022-0.496,0.064
			c-0.127,0.042-0.229,0.105-0.307,0.19c-0.077,0.083-0.137,0.19-0.179,0.316c-0.043,0.127-0.078,0.274-0.105,0.443l-0.317,1.806
			c-0.007,0.035-0.011,0.062-0.011,0.079s0,0.033,0,0.048c0,0.184,0.116,0.273,0.349,0.273c0.204,0,0.435-0.079,0.692-0.236
			c0.256-0.158,0.483-0.336,0.681-0.533L633.999,241.758z"/>
		<path d="M637.462,245.971c-0.119,0-0.25-0.01-0.391-0.026c-0.141-0.018-0.285-0.04-0.434-0.069
			c-0.147-0.027-0.289-0.061-0.427-0.1s-0.259-0.082-0.364-0.133l0.242-0.96c0.204,0.07,0.43,0.132,0.677,0.185
			c0.246,0.053,0.499,0.079,0.76,0.079c0.141,0,0.255-0.007,0.343-0.021c0.089-0.014,0.158-0.039,0.211-0.075
			c0.053-0.034,0.095-0.08,0.122-0.137c0.028-0.057,0.049-0.13,0.063-0.222c0.016-0.078,0.019-0.146,0.012-0.206
			s-0.035-0.118-0.085-0.174c-0.049-0.057-0.128-0.118-0.237-0.185s-0.259-0.15-0.449-0.249c-0.274-0.133-0.491-0.262-0.649-0.385
			c-0.158-0.124-0.273-0.25-0.348-0.381c-0.074-0.129-0.113-0.27-0.116-0.422c-0.005-0.151,0.012-0.326,0.047-0.522
			c0.042-0.261,0.104-0.478,0.185-0.649c0.081-0.173,0.196-0.312,0.344-0.418c0.147-0.105,0.336-0.179,0.564-0.221
			c0.229-0.043,0.513-0.063,0.851-0.063c0.246,0,0.512,0.024,0.798,0.073c0.285,0.05,0.529,0.109,0.732,0.181l-0.21,0.971
			c-0.197-0.056-0.423-0.104-0.677-0.143c-0.253-0.038-0.472-0.058-0.654-0.058c-0.254,0-0.43,0.02-0.527,0.058
			c-0.099,0.039-0.163,0.149-0.19,0.333c-0.014,0.084-0.018,0.156-0.011,0.217c0.007,0.06,0.031,0.113,0.073,0.163
			c0.043,0.049,0.105,0.101,0.19,0.153s0.197,0.118,0.338,0.194c0.296,0.163,0.533,0.302,0.713,0.418s0.315,0.231,0.406,0.349
			c0.092,0.116,0.146,0.243,0.164,0.38c0.018,0.137,0.008,0.308-0.026,0.512c-0.049,0.289-0.116,0.531-0.2,0.729
			c-0.085,0.197-0.203,0.357-0.354,0.481c-0.151,0.122-0.347,0.211-0.586,0.264C638.119,245.944,637.82,245.971,637.462,245.971z"/>
		<path d="M641.223,240.818l1.298-0.181l-0.919,5.228h-1.268L641.223,240.818z"/>
	</g>
	<g>
		<path d="M624.864,253.478h-2.037l-0.476,2.714h-0.602l1.235-7.032h2.449c0.613,0,1.05,0.114,1.31,0.344
			c0.261,0.228,0.391,0.536,0.391,0.924c0,0.12-0.01,0.246-0.032,0.38l-0.2,1.13c-0.035,0.204-0.086,0.385-0.153,0.544
			c-0.066,0.158-0.154,0.299-0.264,0.422c-0.108,0.124-0.244,0.226-0.406,0.306c-0.162,0.082-0.359,0.146-0.592,0.196l1.395,2.787
			h-0.666L624.864,253.478z M626.512,250.754c0.021-0.105,0.032-0.204,0.032-0.296c0-0.295-0.098-0.496-0.291-0.603
			c-0.193-0.105-0.483-0.158-0.871-0.158h-1.891l-0.569,3.242h1.89c0.465,0,0.813-0.077,1.046-0.231
			c0.231-0.155,0.384-0.43,0.454-0.824L626.512,250.754z"/>
		<path d="M629.796,256.297c-0.303,0-0.562-0.036-0.776-0.11c-0.214-0.074-0.39-0.175-0.522-0.301
			c-0.134-0.127-0.232-0.278-0.295-0.455c-0.063-0.175-0.096-0.365-0.096-0.569c0-0.078,0.004-0.154,0.011-0.232
			s0.017-0.154,0.032-0.232l0.273-1.563c0.05-0.281,0.127-0.539,0.232-0.771c0.105-0.232,0.249-0.432,0.428-0.597
			c0.18-0.165,0.405-0.295,0.676-0.387c0.271-0.09,0.597-0.136,0.978-0.136c0.569,0,0.998,0.133,1.282,0.401
			c0.285,0.267,0.429,0.616,0.429,1.045c0,0.063-0.005,0.127-0.012,0.189c-0.007,0.063-0.018,0.131-0.031,0.201l-0.296,1.68
			c-0.049,0.288-0.128,0.545-0.238,0.77c-0.108,0.226-0.254,0.417-0.438,0.576c-0.183,0.158-0.41,0.279-0.682,0.364
			C630.48,256.255,630.162,256.297,629.796,256.297z M631.813,252.781c0.021-0.126,0.031-0.247,0.031-0.359
			c0-0.317-0.096-0.554-0.286-0.712c-0.188-0.158-0.496-0.238-0.917-0.238c-0.486,0-0.859,0.114-1.12,0.344
			c-0.261,0.229-0.43,0.567-0.507,1.019l-0.284,1.615c-0.022,0.141-0.032,0.271-0.032,0.391c0,0.304,0.089,0.534,0.269,0.692
			c0.181,0.158,0.487,0.236,0.924,0.236c0.479,0,0.851-0.108,1.115-0.326c0.263-0.219,0.434-0.55,0.512-0.993L631.813,252.781z"/>
		<path d="M636.892,251.007l0.961,4.826l1.192-2.946c0.078-0.204,0.128-0.389,0.149-0.554c0.021-0.166,0.031-0.33,0.031-0.491
			c0-0.254-0.027-0.504-0.085-0.75l0.561-0.085c0.021,0.128,0.038,0.257,0.053,0.391c0.014,0.135,0.021,0.272,0.021,0.412
			c0,0.196-0.014,0.39-0.042,0.576c-0.028,0.186-0.081,0.389-0.159,0.607l-1.298,3.198h-0.908l-0.634-3.241l-1.753,3.241h-0.897
			c-0.007-1.063-0.053-2.006-0.138-2.83c-0.085-0.823-0.207-1.579-0.368-2.27l0.548-0.085c0.063,0.31,0.123,0.638,0.181,0.982
			c0.056,0.345,0.105,0.715,0.147,1.109c0.041,0.394,0.074,0.816,0.1,1.267s0.037,0.939,0.037,1.468l1.995-3.664l-0.2-1.077
			L636.892,251.007z"/>
	</g>
	<line fill="none" stroke="#000000" stroke-miterlimit="10" x1="239.512" y1="98.374" x2="239.512" y2="257.837"/>
	<g>
		<path d="M200.806,255.079l2.241-7.348h2.208l2.252,7.348h-1.724l-0.399-1.434h-2.457l-0.398,1.434H200.806z M203.3,252.268h1.691
			l-0.84-3.082L203.3,252.268z"/>
	</g>
	<g>
		<path d="M200.521,172.94c0.402-0.323,0.652-0.549,0.749-0.676c0.097-0.127,0.146-0.289,0.146-0.482v-7.348h1.654v7.601
			c0,0.33-0.129,0.657-0.386,0.978c-0.257,0.322-0.649,0.688-1.177,1.096L200.521,172.94z"/>
	</g>
	<g>
		<path d="M210.106,168.824c-0.148,0-0.313-0.009-0.497-0.026c-0.183-0.017-0.37-0.046-0.559-0.085
			c-0.19-0.038-0.375-0.083-0.555-0.136s-0.343-0.115-0.491-0.186l0.285-1.013c0.338,0.098,0.658,0.179,0.961,0.243
			c0.303,0.063,0.62,0.094,0.951,0.094c0.246,0,0.447-0.014,0.602-0.041c0.154-0.029,0.278-0.078,0.369-0.148
			c0.092-0.071,0.159-0.164,0.201-0.281c0.042-0.116,0.081-0.261,0.116-0.438c0.036-0.197,0.053-0.345,0.053-0.443
			c0-0.092-0.017-0.169-0.053-0.232c-0.035-0.063-0.095-0.118-0.179-0.164c-0.084-0.046-0.202-0.092-0.354-0.138
			c-0.152-0.044-0.344-0.1-0.576-0.163c-0.31-0.078-0.565-0.166-0.765-0.265c-0.201-0.099-0.363-0.211-0.486-0.338
			c-0.124-0.126-0.21-0.267-0.259-0.422c-0.049-0.154-0.074-0.328-0.074-0.518c0-0.105,0.007-0.217,0.021-0.333
			c0.015-0.117,0.032-0.238,0.053-0.364c0.064-0.367,0.148-0.669,0.254-0.909c0.105-0.239,0.253-0.428,0.443-0.569
			c0.189-0.141,0.436-0.238,0.739-0.291c0.302-0.053,0.686-0.079,1.151-0.079c0.317,0,0.639,0.021,0.966,0.063
			c0.327,0.042,0.66,0.114,0.998,0.212l-0.222,1.087c-0.338-0.078-0.657-0.137-0.956-0.18c-0.299-0.042-0.597-0.063-0.892-0.063
			c-0.232,0-0.421,0.01-0.565,0.032c-0.145,0.021-0.259,0.06-0.343,0.116s-0.15,0.139-0.195,0.248
			c-0.046,0.11-0.083,0.249-0.111,0.418c-0.036,0.197-0.053,0.345-0.053,0.443c0,0.083,0.015,0.158,0.047,0.221
			c0.032,0.063,0.089,0.12,0.173,0.169s0.198,0.099,0.342,0.148c0.144,0.049,0.328,0.102,0.552,0.158
			c0.315,0.084,0.579,0.17,0.789,0.259c0.211,0.088,0.381,0.19,0.511,0.306s0.221,0.248,0.273,0.396
			c0.053,0.149,0.079,0.317,0.079,0.507c0,0.099-0.007,0.204-0.021,0.316c-0.014,0.113-0.032,0.236-0.053,0.37
			c-0.063,0.359-0.144,0.666-0.242,0.919c-0.099,0.253-0.244,0.46-0.437,0.622c-0.193,0.163-0.448,0.282-0.763,0.36
			C211.021,168.785,210.611,168.824,210.106,168.824z"/>
		<path d="M214.572,163.671l1.299-0.18l-0.918,5.227h-1.267L214.572,163.671z"/>
		<path d="M219.788,164.631c-0.302,0.163-0.564,0.312-0.786,0.449c-0.222,0.137-0.47,0.294-0.745,0.47l-0.56,3.168h-1.267
			l0.887-5.037l1.108-0.19l-0.053,0.75c0.184-0.133,0.395-0.271,0.634-0.412c0.239-0.141,0.468-0.256,0.687-0.348L219.788,164.631z"
			/>
		<path d="M223.886,168.718h-1.066l-0.011-0.571c-0.225,0.205-0.475,0.368-0.75,0.492c-0.275,0.123-0.584,0.185-0.929,0.185
			c-0.444,0-0.753-0.106-0.929-0.322c-0.176-0.214-0.264-0.499-0.264-0.851c0-0.084,0.005-0.17,0.016-0.259
			c0.011-0.087,0.023-0.181,0.037-0.279l0.264-1.5c0.063-0.344,0.139-0.651,0.227-0.918c0.088-0.268,0.222-0.493,0.401-0.676
			c0.18-0.184,0.421-0.321,0.724-0.413c0.302-0.09,0.704-0.136,1.204-0.136c0.127,0,0.272,0.008,0.438,0.026
			c0.166,0.017,0.338,0.042,0.518,0.073c0.18,0.032,0.355,0.068,0.528,0.105c0.172,0.039,0.325,0.079,0.459,0.122L223.886,168.718z
			 M223.347,164.611c-0.12-0.021-0.237-0.039-0.354-0.053s-0.241-0.022-0.375-0.022c-0.205,0-0.37,0.022-0.497,0.064
			c-0.126,0.042-0.229,0.105-0.306,0.19c-0.078,0.083-0.138,0.19-0.18,0.316c-0.042,0.127-0.077,0.275-0.105,0.443l-0.316,1.806
			c-0.007,0.036-0.01,0.062-0.01,0.079c0,0.018,0,0.033,0,0.048c0,0.184,0.115,0.274,0.348,0.274c0.204,0,0.435-0.079,0.691-0.237
			c0.257-0.158,0.484-0.336,0.681-0.533L223.347,164.611z"/>
		<path d="M226.811,168.824c-0.12,0-0.25-0.009-0.391-0.026s-0.285-0.04-0.433-0.069c-0.148-0.027-0.29-0.061-0.427-0.1
			c-0.138-0.039-0.259-0.083-0.364-0.133l0.243-0.96c0.204,0.07,0.429,0.132,0.676,0.185c0.246,0.053,0.5,0.079,0.76,0.079
			c0.141,0,0.255-0.007,0.343-0.021s0.158-0.039,0.211-0.075c0.053-0.034,0.093-0.08,0.122-0.137
			c0.028-0.056,0.049-0.129,0.063-0.221c0.014-0.078,0.018-0.146,0.01-0.206c-0.007-0.06-0.035-0.118-0.084-0.174
			s-0.128-0.118-0.238-0.185c-0.109-0.066-0.258-0.15-0.449-0.249c-0.274-0.133-0.491-0.263-0.649-0.385
			c-0.158-0.124-0.274-0.25-0.349-0.38c-0.074-0.129-0.113-0.27-0.116-0.423c-0.003-0.151,0.013-0.325,0.047-0.522
			c0.042-0.26,0.104-0.477,0.185-0.648c0.081-0.173,0.196-0.312,0.343-0.418c0.148-0.105,0.336-0.179,0.565-0.221
			c0.229-0.042,0.512-0.063,0.85-0.063c0.247,0,0.512,0.024,0.797,0.073c0.285,0.049,0.53,0.109,0.734,0.18l-0.211,0.971
			c-0.197-0.056-0.422-0.104-0.676-0.143c-0.253-0.038-0.472-0.057-0.655-0.057c-0.253,0-0.429,0.02-0.528,0.057
			c-0.099,0.039-0.162,0.15-0.19,0.333c-0.015,0.083-0.018,0.156-0.011,0.216c0.007,0.06,0.032,0.114,0.074,0.163
			c0.042,0.049,0.105,0.101,0.189,0.153c0.085,0.053,0.197,0.118,0.338,0.195c0.295,0.163,0.533,0.301,0.712,0.418
			c0.18,0.116,0.315,0.231,0.407,0.349c0.091,0.116,0.146,0.243,0.164,0.379c0.017,0.138,0.008,0.309-0.026,0.512
			c-0.05,0.289-0.116,0.532-0.201,0.729c-0.084,0.197-0.202,0.357-0.354,0.481c-0.152,0.123-0.347,0.211-0.586,0.264
			C227.469,168.797,227.17,168.824,226.811,168.824z"/>
		<path d="M230.569,163.671l1.299-0.18l-0.918,5.227h-1.267L230.569,163.671z"/>
	</g>
	<g>
		<path d="M214.213,176.331h-2.038l-0.476,2.714h-0.602l1.236-7.033h2.45c0.612,0,1.049,0.115,1.31,0.344
			c0.26,0.228,0.391,0.536,0.391,0.924c0,0.12-0.011,0.246-0.032,0.38l-0.2,1.129c-0.035,0.204-0.086,0.385-0.153,0.544
			c-0.067,0.158-0.154,0.299-0.264,0.421c-0.108,0.124-0.244,0.226-0.406,0.306c-0.162,0.082-0.359,0.146-0.592,0.196l1.394,2.788
			h-0.665L214.213,176.331z M215.86,173.607c0.021-0.105,0.032-0.204,0.032-0.296c0-0.295-0.097-0.496-0.291-0.603
			c-0.193-0.105-0.484-0.158-0.871-0.158h-1.89l-0.57,3.241h1.89c0.465,0,0.813-0.077,1.045-0.231
			c0.233-0.154,0.384-0.429,0.455-0.824L215.86,173.607z"/>
		<path d="M219.145,179.15c-0.303,0-0.562-0.037-0.776-0.111c-0.215-0.074-0.389-0.174-0.522-0.3
			c-0.134-0.127-0.232-0.278-0.295-0.455c-0.064-0.175-0.095-0.365-0.095-0.569c0-0.078,0.003-0.155,0.01-0.232
			c0.007-0.078,0.018-0.155,0.031-0.233l0.275-1.563c0.048-0.281,0.126-0.539,0.232-0.77c0.105-0.233,0.248-0.432,0.428-0.597
			c0.179-0.165,0.405-0.294,0.676-0.386c0.271-0.09,0.597-0.136,0.977-0.136c0.571,0,0.998,0.133,1.283,0.401
			c0.285,0.267,0.427,0.617,0.427,1.045c0,0.064-0.003,0.127-0.01,0.19c-0.007,0.063-0.018,0.131-0.031,0.201l-0.296,1.68
			c-0.049,0.289-0.128,0.545-0.237,0.77c-0.109,0.226-0.255,0.417-0.438,0.576c-0.184,0.158-0.41,0.279-0.681,0.364
			C219.83,179.108,219.511,179.15,219.145,179.15z M221.162,175.634c0.021-0.126,0.032-0.247,0.032-0.359
			c0-0.317-0.095-0.555-0.285-0.712c-0.19-0.158-0.496-0.238-0.919-0.238c-0.485,0-0.859,0.114-1.119,0.344
			c-0.261,0.229-0.43,0.568-0.507,1.019l-0.285,1.615c-0.021,0.141-0.031,0.271-0.031,0.391c0,0.304,0.09,0.534,0.269,0.692
			s0.488,0.237,0.924,0.237c0.478,0,0.85-0.108,1.113-0.326c0.264-0.219,0.435-0.55,0.512-0.994L221.162,175.634z"/>
		<path d="M226.241,173.86l0.96,4.826l1.193-2.947c0.078-0.204,0.127-0.389,0.148-0.554c0.021-0.166,0.032-0.33,0.032-0.491
			c0-0.253-0.028-0.503-0.084-0.75l0.56-0.085c0.021,0.127,0.039,0.257,0.053,0.391c0.014,0.134,0.021,0.272,0.021,0.412
			c0,0.197-0.015,0.39-0.042,0.576c-0.028,0.186-0.081,0.389-0.158,0.607l-1.299,3.199h-0.908l-0.634-3.241l-1.752,3.241h-0.898
			c-0.007-1.063-0.053-2.006-0.137-2.83c-0.084-0.824-0.208-1.58-0.37-2.27l0.549-0.085c0.063,0.31,0.123,0.637,0.179,0.982
			c0.056,0.345,0.105,0.715,0.148,1.109c0.042,0.394,0.076,0.817,0.1,1.267c0.025,0.45,0.038,0.939,0.038,1.468l1.995-3.664
			l-0.201-1.077L226.241,173.86z"/>
	</g>
	<g>
		<path d="M211.278,245.971c-0.148,0-0.313-0.01-0.497-0.026c-0.183-0.018-0.369-0.046-0.559-0.085
			c-0.19-0.038-0.375-0.084-0.555-0.137c-0.179-0.053-0.343-0.114-0.491-0.186l0.285-1.013c0.338,0.099,0.658,0.179,0.961,0.243
			c0.302,0.063,0.619,0.094,0.95,0.094c0.247,0,0.447-0.014,0.602-0.041c0.155-0.029,0.278-0.078,0.37-0.148
			c0.092-0.07,0.159-0.163,0.201-0.28c0.042-0.116,0.081-0.262,0.116-0.438c0.036-0.197,0.053-0.345,0.053-0.443
			c0-0.092-0.017-0.17-0.053-0.232c-0.035-0.063-0.095-0.118-0.179-0.164c-0.084-0.046-0.203-0.092-0.354-0.138
			c-0.152-0.045-0.344-0.1-0.576-0.163c-0.31-0.077-0.565-0.166-0.766-0.265c-0.201-0.099-0.363-0.211-0.486-0.338
			c-0.123-0.126-0.209-0.267-0.259-0.422c-0.049-0.154-0.074-0.327-0.074-0.518c0-0.105,0.007-0.217,0.021-0.332
			c0.014-0.117,0.031-0.238,0.053-0.364c0.063-0.367,0.148-0.669,0.254-0.909c0.105-0.239,0.253-0.428,0.443-0.569
			c0.189-0.141,0.436-0.238,0.739-0.291s0.687-0.079,1.151-0.079c0.317,0,0.639,0.021,0.967,0.063
			c0.327,0.042,0.66,0.113,0.997,0.212l-0.222,1.087c-0.338-0.077-0.656-0.137-0.956-0.18c-0.299-0.042-0.596-0.063-0.892-0.063
			c-0.232,0-0.421,0.01-0.564,0.031c-0.145,0.021-0.259,0.06-0.343,0.116c-0.085,0.056-0.15,0.139-0.195,0.247
			c-0.046,0.11-0.083,0.249-0.111,0.419c-0.036,0.196-0.053,0.345-0.053,0.443c0,0.083,0.016,0.158,0.048,0.221
			c0.031,0.063,0.089,0.12,0.173,0.17c0.083,0.049,0.198,0.099,0.341,0.147c0.144,0.05,0.329,0.103,0.552,0.158
			c0.316,0.085,0.579,0.171,0.789,0.259c0.211,0.089,0.381,0.19,0.51,0.306c0.129,0.116,0.221,0.248,0.273,0.396
			c0.053,0.149,0.079,0.317,0.079,0.508c0,0.099-0.007,0.204-0.021,0.316c-0.014,0.113-0.031,0.236-0.053,0.37
			c-0.063,0.358-0.144,0.665-0.242,0.919c-0.098,0.253-0.244,0.46-0.437,0.622s-0.447,0.281-0.762,0.359
			C212.193,245.932,211.783,245.971,211.278,245.971z"/>
		<path d="M215.744,240.818l1.299-0.181l-0.918,5.228h-1.267L215.744,240.818z"/>
		<path d="M220.96,241.778c-0.303,0.162-0.565,0.312-0.787,0.449c-0.222,0.137-0.47,0.294-0.744,0.47l-0.56,3.168h-1.268
			l0.887-5.037l1.108-0.19l-0.053,0.75c0.183-0.133,0.394-0.271,0.634-0.412c0.239-0.141,0.468-0.256,0.686-0.348L220.96,241.778z"
			/>
		<path d="M225.058,245.865h-1.066l-0.011-0.57c-0.225,0.205-0.475,0.367-0.749,0.491c-0.275,0.122-0.584,0.185-0.929,0.185
			c-0.444,0-0.753-0.106-0.929-0.322c-0.177-0.214-0.264-0.498-0.264-0.851c0-0.084,0.005-0.17,0.015-0.259
			c0.011-0.087,0.023-0.181,0.038-0.279l0.264-1.5c0.063-0.344,0.139-0.65,0.227-0.918c0.088-0.268,0.222-0.492,0.401-0.676
			c0.18-0.184,0.421-0.32,0.724-0.412c0.303-0.091,0.704-0.137,1.204-0.137c0.127,0,0.273,0.008,0.438,0.026
			c0.166,0.018,0.338,0.043,0.517,0.073c0.18,0.032,0.356,0.068,0.528,0.105c0.172,0.039,0.326,0.079,0.459,0.122L225.058,245.865z
			 M224.519,241.758c-0.12-0.021-0.237-0.039-0.354-0.053s-0.241-0.022-0.375-0.022c-0.205,0-0.37,0.022-0.497,0.064
			c-0.127,0.042-0.229,0.105-0.306,0.19c-0.078,0.083-0.137,0.19-0.18,0.316c-0.042,0.127-0.078,0.274-0.105,0.443l-0.317,1.806
			c-0.007,0.035-0.01,0.062-0.01,0.079s0,0.033,0,0.048c0,0.184,0.116,0.273,0.348,0.273c0.204,0,0.435-0.079,0.692-0.236
			c0.257-0.158,0.484-0.336,0.681-0.533L224.519,241.758z"/>
		<path d="M227.983,245.971c-0.12,0-0.25-0.01-0.391-0.026c-0.141-0.018-0.286-0.04-0.433-0.069c-0.148-0.027-0.29-0.061-0.428-0.1
			c-0.137-0.039-0.259-0.082-0.364-0.133l0.243-0.96c0.204,0.07,0.429,0.132,0.676,0.185c0.247,0.053,0.5,0.079,0.76,0.079
			c0.14,0,0.255-0.007,0.343-0.021c0.087-0.014,0.158-0.039,0.211-0.075c0.053-0.034,0.093-0.08,0.121-0.137
			c0.028-0.057,0.049-0.13,0.063-0.222c0.014-0.078,0.018-0.146,0.011-0.206c-0.007-0.06-0.035-0.118-0.084-0.174
			c-0.049-0.057-0.128-0.118-0.238-0.185c-0.109-0.066-0.258-0.15-0.448-0.249c-0.274-0.133-0.491-0.262-0.65-0.385
			c-0.158-0.124-0.274-0.25-0.348-0.381c-0.074-0.129-0.113-0.27-0.116-0.422c-0.003-0.151,0.012-0.326,0.047-0.522
			c0.042-0.261,0.104-0.478,0.185-0.649c0.081-0.173,0.195-0.312,0.343-0.418c0.147-0.105,0.335-0.179,0.565-0.221
			c0.229-0.043,0.512-0.063,0.85-0.063c0.246,0,0.512,0.024,0.797,0.073c0.285,0.05,0.53,0.109,0.734,0.181l-0.211,0.971
			c-0.197-0.056-0.423-0.104-0.676-0.143c-0.253-0.038-0.471-0.058-0.655-0.058c-0.253,0-0.429,0.02-0.527,0.058
			c-0.099,0.039-0.162,0.149-0.19,0.333c-0.014,0.084-0.018,0.156-0.011,0.217c0.007,0.06,0.032,0.113,0.074,0.163
			c0.042,0.049,0.105,0.101,0.19,0.153s0.197,0.118,0.338,0.194c0.295,0.163,0.533,0.302,0.713,0.418s0.315,0.231,0.407,0.349
			c0.091,0.116,0.146,0.243,0.164,0.38c0.017,0.137,0.009,0.308-0.026,0.512c-0.05,0.289-0.116,0.531-0.201,0.729
			c-0.084,0.197-0.202,0.357-0.353,0.481c-0.152,0.122-0.348,0.211-0.586,0.264C228.641,245.944,228.342,245.971,227.983,245.971z"
			/>
		<path d="M231.742,240.818l1.298-0.181l-0.918,5.228h-1.268L231.742,240.818z"/>
	</g>
	<g>
		<path d="M215.386,253.478h-2.038l-0.476,2.714h-0.602l1.235-7.032h2.45c0.612,0,1.049,0.114,1.31,0.344
			c0.26,0.228,0.391,0.536,0.391,0.924c0,0.12-0.011,0.246-0.032,0.38l-0.201,1.13c-0.035,0.204-0.086,0.385-0.153,0.544
			c-0.067,0.158-0.155,0.299-0.264,0.422c-0.109,0.124-0.245,0.226-0.406,0.306c-0.162,0.082-0.359,0.146-0.592,0.196l1.394,2.787
			h-0.665L215.386,253.478z M217.033,250.754c0.021-0.105,0.032-0.204,0.032-0.296c0-0.295-0.097-0.496-0.291-0.603
			c-0.194-0.105-0.484-0.158-0.872-0.158h-1.89l-0.571,3.242h1.891c0.464,0,0.813-0.077,1.045-0.231
			c0.232-0.155,0.384-0.43,0.454-0.824L217.033,250.754z"/>
		<path d="M220.317,256.297c-0.303,0-0.561-0.036-0.776-0.11s-0.389-0.175-0.522-0.301c-0.134-0.127-0.233-0.278-0.296-0.455
			c-0.063-0.175-0.095-0.365-0.095-0.569c0-0.078,0.003-0.154,0.01-0.232c0.007-0.078,0.018-0.154,0.032-0.232l0.275-1.563
			c0.049-0.281,0.126-0.539,0.232-0.771c0.105-0.232,0.248-0.432,0.428-0.597c0.179-0.165,0.404-0.295,0.675-0.387
			c0.271-0.09,0.597-0.136,0.977-0.136c0.571,0,0.998,0.133,1.284,0.401c0.285,0.267,0.427,0.616,0.427,1.045
			c0,0.063-0.003,0.127-0.01,0.189c-0.008,0.063-0.018,0.131-0.032,0.201l-0.296,1.68c-0.049,0.288-0.128,0.545-0.237,0.77
			c-0.109,0.226-0.255,0.417-0.438,0.576c-0.183,0.158-0.41,0.279-0.681,0.364C221.001,256.255,220.683,256.297,220.317,256.297z
			 M222.333,252.781c0.021-0.126,0.032-0.247,0.032-0.359c0-0.317-0.095-0.554-0.285-0.712c-0.19-0.158-0.496-0.238-0.919-0.238
			c-0.485,0-0.859,0.114-1.119,0.344c-0.26,0.229-0.43,0.567-0.507,1.019l-0.285,1.615c-0.021,0.141-0.032,0.271-0.032,0.391
			c0,0.304,0.09,0.534,0.27,0.692c0.179,0.158,0.487,0.236,0.924,0.236c0.479,0,0.85-0.108,1.114-0.326
			c0.264-0.219,0.435-0.55,0.512-0.993L222.333,252.781z"/>
		<path d="M227.413,251.007l0.961,4.826l1.193-2.946c0.077-0.204,0.126-0.389,0.148-0.554c0.021-0.166,0.031-0.33,0.031-0.491
			c0-0.254-0.028-0.504-0.084-0.75l0.56-0.085c0.021,0.128,0.038,0.257,0.053,0.391c0.014,0.135,0.021,0.272,0.021,0.412
			c0,0.196-0.014,0.39-0.042,0.576c-0.028,0.186-0.081,0.389-0.158,0.607l-1.299,3.198h-0.908l-0.634-3.241l-1.752,3.241h-0.897
			c-0.007-1.063-0.053-2.006-0.138-2.83c-0.084-0.823-0.207-1.579-0.37-2.27l0.55-0.085c0.063,0.31,0.123,0.638,0.179,0.982
			s0.105,0.715,0.148,1.109c0.042,0.394,0.075,0.816,0.1,1.267c0.024,0.45,0.037,0.939,0.037,1.468l1.996-3.664l-0.201-1.077
			L227.413,251.007z"/>
	</g>
</g>
</svg>
